%TF.GenerationSoftware,KiCad,Pcbnew,(6.0.11-0)*%
%TF.CreationDate,2023-03-06T22:39:13+01:00*%
%TF.ProjectId,grids,67726964-732e-46b6-9963-61645f706362,rev?*%
%TF.SameCoordinates,Original*%
%TF.FileFunction,Paste,Top*%
%TF.FilePolarity,Positive*%
%FSLAX46Y46*%
G04 Gerber Fmt 4.6, Leading zero omitted, Abs format (unit mm)*
G04 Created by KiCad (PCBNEW (6.0.11-0)) date 2023-03-06 22:39:13*
%MOMM*%
%LPD*%
G01*
G04 APERTURE LIST*
G04 Aperture macros list*
%AMRoundRect*
0 Rectangle with rounded corners*
0 $1 Rounding radius*
0 $2 $3 $4 $5 $6 $7 $8 $9 X,Y pos of 4 corners*
0 Add a 4 corners polygon primitive as box body*
4,1,4,$2,$3,$4,$5,$6,$7,$8,$9,$2,$3,0*
0 Add four circle primitives for the rounded corners*
1,1,$1+$1,$2,$3*
1,1,$1+$1,$4,$5*
1,1,$1+$1,$6,$7*
1,1,$1+$1,$8,$9*
0 Add four rect primitives between the rounded corners*
20,1,$1+$1,$2,$3,$4,$5,0*
20,1,$1+$1,$4,$5,$6,$7,0*
20,1,$1+$1,$6,$7,$8,$9,0*
20,1,$1+$1,$8,$9,$2,$3,0*%
%AMRotRect*
0 Rectangle, with rotation*
0 The origin of the aperture is its center*
0 $1 length*
0 $2 width*
0 $3 Rotation angle, in degrees counterclockwise*
0 Add horizontal line*
21,1,$1,$2,0,0,$3*%
G04 Aperture macros list end*
%ADD10R,2.032000X0.660400*%
%ADD11R,1.100000X1.000000*%
%ADD12R,1.000000X1.100000*%
%ADD13R,1.400000X2.600000*%
%ADD14R,1.000000X0.700000*%
%ADD15R,1.400000X1.400000*%
%ADD16R,0.600000X2.200000*%
%ADD17R,1.000000X1.400000*%
%ADD18R,3.150000X1.000000*%
%ADD19R,1.270000X0.558800*%
%ADD20R,0.558800X1.270000*%
%ADD21RotRect,1.100000X1.000000X45.000000*%
%ADD22R,2.006600X1.498600*%
%ADD23R,2.006600X3.810000*%
%ADD24R,0.700000X0.850000*%
%ADD25R,1.000000X1.150000*%
%ADD26RoundRect,0.218750X-0.218750X-0.256250X0.218750X-0.256250X0.218750X0.256250X-0.218750X0.256250X0*%
%ADD27RotRect,1.100000X1.000000X315.000000*%
G04 APERTURE END LIST*
D10*
%TO.C,IC6*%
X139405200Y-121513600D03*
X139405200Y-122783600D03*
X139405200Y-124053600D03*
X139405200Y-125323600D03*
X139405200Y-126593600D03*
X139405200Y-127863600D03*
X139405200Y-129133600D03*
X139405200Y-130403600D03*
X145552000Y-130403600D03*
X145552000Y-129133600D03*
X145552000Y-127863600D03*
X145552000Y-126593600D03*
X145552000Y-125323600D03*
X145552000Y-124053600D03*
X145552000Y-122783600D03*
X145552000Y-121513600D03*
%TD*%
D11*
%TO.C,R21*%
X170736100Y-94628600D03*
X170736100Y-96328600D03*
%TD*%
%TO.C,R22*%
X147876100Y-99821100D03*
X147876100Y-98121100D03*
%TD*%
%TO.C,R48*%
X143431100Y-146698600D03*
X143431100Y-148398600D03*
%TD*%
%TO.C,C8*%
X174013600Y-93256100D03*
X175713600Y-93256100D03*
%TD*%
D12*
%TO.C,C11*%
X152321100Y-96328600D03*
X152321100Y-94628600D03*
%TD*%
%TO.C,R8*%
X177936100Y-91033600D03*
X176236100Y-91033600D03*
%TD*%
%TO.C,C17*%
X164068600Y-107328600D03*
X164068600Y-109028600D03*
%TD*%
D11*
%TO.C,C18*%
X145551100Y-119608600D03*
X143851100Y-119608600D03*
%TD*%
D13*
%TO.C,C1*%
X171053600Y-66413600D03*
X171053600Y-62313600D03*
%TD*%
D12*
%TO.C,C9*%
X141208600Y-96328600D03*
X141208600Y-94628600D03*
%TD*%
D11*
%TO.C,R18*%
X158988600Y-94628600D03*
X158988600Y-96328600D03*
%TD*%
%TO.C,R19*%
X167561100Y-96328600D03*
X167561100Y-94628600D03*
%TD*%
D14*
%TO.C,IC2*%
X174081100Y-86908600D03*
X174081100Y-88808600D03*
X176281100Y-87858600D03*
%TD*%
D12*
%TO.C,C13*%
X164068600Y-96328600D03*
X164068600Y-94628600D03*
%TD*%
%TO.C,C12*%
X154226100Y-96328600D03*
X154226100Y-94628600D03*
%TD*%
D11*
%TO.C,R33*%
X153908600Y-107328600D03*
X153908600Y-109028600D03*
%TD*%
D15*
%TO.C,D1*%
X184383600Y-66268600D03*
X180583600Y-66268600D03*
%TD*%
D11*
%TO.C,R20*%
X169148600Y-94628600D03*
X169148600Y-96328600D03*
%TD*%
%TO.C,R49*%
X145018600Y-146698600D03*
X145018600Y-148398600D03*
%TD*%
D16*
%TO.C,IC5*%
X165021100Y-104428600D03*
X166291100Y-104428600D03*
X167561100Y-104428600D03*
X168831100Y-104428600D03*
X168831100Y-99228600D03*
X167561100Y-99228600D03*
X166291100Y-99228600D03*
X165021100Y-99228600D03*
%TD*%
D11*
%TO.C,R38*%
X168831100Y-109028600D03*
X168831100Y-107328600D03*
%TD*%
D12*
%TO.C,C10*%
X143113600Y-96328600D03*
X143113600Y-94628600D03*
%TD*%
D16*
%TO.C,IC3*%
X142161100Y-104428600D03*
X143431100Y-104428600D03*
X144701100Y-104428600D03*
X145971100Y-104428600D03*
X145971100Y-99228600D03*
X144701100Y-99228600D03*
X143431100Y-99228600D03*
X142161100Y-99228600D03*
%TD*%
D11*
%TO.C,R10*%
X116126100Y-95058600D03*
X116126100Y-93358600D03*
%TD*%
D17*
%TO.C,Q3*%
X121526100Y-91498600D03*
X122476100Y-89298600D03*
X123426100Y-91498600D03*
%TD*%
D13*
%TO.C,C19*%
X176768600Y-66413600D03*
X176768600Y-62313600D03*
%TD*%
D17*
%TO.C,Q2*%
X114223600Y-91498600D03*
X115173600Y-89298600D03*
X116123600Y-91498600D03*
%TD*%
D18*
%TO.C,J17*%
X124525000Y-73150000D03*
X119475000Y-73150000D03*
X124525000Y-70610000D03*
X119475000Y-70610000D03*
X124525000Y-68070000D03*
X119475000Y-68070000D03*
%TD*%
D11*
%TO.C,R24*%
X170736100Y-99821100D03*
X170736100Y-98121100D03*
%TD*%
D16*
%TO.C,IC4*%
X153273600Y-104428600D03*
X154543600Y-104428600D03*
X155813600Y-104428600D03*
X157083600Y-104428600D03*
X157083600Y-99228600D03*
X155813600Y-99228600D03*
X154543600Y-99228600D03*
X153273600Y-99228600D03*
%TD*%
D11*
%TO.C,R6*%
X119618600Y-90183600D03*
X119618600Y-91883600D03*
%TD*%
%TO.C,R36*%
X165656100Y-107328600D03*
X165656100Y-109028600D03*
%TD*%
%TO.C,R3*%
X147876100Y-69658600D03*
X147876100Y-67958600D03*
%TD*%
%TO.C,R34*%
X155496100Y-109028600D03*
X155496100Y-107328600D03*
%TD*%
D19*
%TO.C,IC1*%
X143901000Y-73628600D03*
X143901000Y-74428600D03*
X143901000Y-75228600D03*
X143901000Y-76028600D03*
X143901000Y-76828600D03*
X143901000Y-77628600D03*
X143901000Y-78428600D03*
X143901000Y-79228600D03*
D20*
X145393600Y-80721200D03*
X146193600Y-80721200D03*
X146993600Y-80721200D03*
X147793600Y-80721200D03*
X148593600Y-80721200D03*
X149393600Y-80721200D03*
X150193600Y-80721200D03*
X150993600Y-80721200D03*
D19*
X152486200Y-79228600D03*
X152486200Y-78428600D03*
X152486200Y-77628600D03*
X152486200Y-76828600D03*
X152486200Y-76028600D03*
X152486200Y-75228600D03*
X152486200Y-74428600D03*
X152486200Y-73628600D03*
D20*
X150993600Y-72136000D03*
X150193600Y-72136000D03*
X149393600Y-72136000D03*
X148593600Y-72136000D03*
X147793600Y-72136000D03*
X146993600Y-72136000D03*
X146193600Y-72136000D03*
X145393600Y-72136000D03*
%TD*%
D12*
%TO.C,R41*%
X180681100Y-112623600D03*
X182381100Y-112623600D03*
%TD*%
D21*
%TO.C,C7*%
X138797918Y-86101041D03*
X140000000Y-84898959D03*
%TD*%
D11*
%TO.C,R32*%
X145971100Y-109028600D03*
X145971100Y-107328600D03*
%TD*%
%TO.C,R15*%
X147876100Y-94628600D03*
X147876100Y-96328600D03*
%TD*%
%TO.C,R43*%
X141843600Y-135903600D03*
X141843600Y-137603600D03*
%TD*%
%TO.C,R45*%
X145018600Y-135903600D03*
X145018600Y-137603600D03*
%TD*%
D12*
%TO.C,C6*%
X154226100Y-78753600D03*
X154226100Y-80453600D03*
%TD*%
%TO.C,C3*%
X142161100Y-76961100D03*
X142161100Y-75261100D03*
%TD*%
D11*
%TO.C,R23*%
X158988600Y-99821100D03*
X158988600Y-98121100D03*
%TD*%
%TO.C,R4*%
X132318600Y-72403600D03*
X132318600Y-74103600D03*
%TD*%
%TO.C,R17*%
X157401100Y-94628600D03*
X157401100Y-96328600D03*
%TD*%
%TO.C,R29*%
X170736100Y-103518600D03*
X170736100Y-105218600D03*
%TD*%
D22*
%TO.C,IC7*%
X175155700Y-74244200D03*
X175155700Y-71958200D03*
X175155700Y-69672200D03*
D23*
X168856500Y-71983600D03*
%TD*%
D11*
%TO.C,R12*%
X123428600Y-95058600D03*
X123428600Y-93358600D03*
%TD*%
%TO.C,R37*%
X167243600Y-109028600D03*
X167243600Y-107328600D03*
%TD*%
%TO.C,R30*%
X142796100Y-107328600D03*
X142796100Y-109028600D03*
%TD*%
D12*
%TO.C,C15*%
X141208600Y-107328600D03*
X141208600Y-109028600D03*
%TD*%
D11*
%TO.C,R35*%
X157083600Y-109028600D03*
X157083600Y-107328600D03*
%TD*%
%TO.C,R47*%
X141843600Y-146698600D03*
X141843600Y-148398600D03*
%TD*%
%TO.C,R16*%
X155813600Y-96328600D03*
X155813600Y-94628600D03*
%TD*%
D24*
%TO.C,L1*%
X155813600Y-80186100D03*
X155813600Y-78586100D03*
%TD*%
D11*
%TO.C,R28*%
X158988600Y-103518600D03*
X158988600Y-105218600D03*
%TD*%
D12*
%TO.C,C4*%
X166291100Y-67118600D03*
X166291100Y-65418600D03*
%TD*%
D25*
%TO.C,Q1*%
X141950000Y-82625000D03*
X141950000Y-80875000D03*
X140550000Y-80875000D03*
X140550000Y-82625000D03*
%TD*%
D11*
%TO.C,R31*%
X144383600Y-109028600D03*
X144383600Y-107328600D03*
%TD*%
D26*
%TO.C,D2*%
X179791100Y-117322600D03*
X181366100Y-117322600D03*
%TD*%
%TO.C,D4*%
X155661100Y-117322600D03*
X157236100Y-117322600D03*
%TD*%
D12*
%TO.C,C14*%
X165973600Y-96328600D03*
X165973600Y-94628600D03*
%TD*%
D11*
%TO.C,R27*%
X147876100Y-103518600D03*
X147876100Y-105218600D03*
%TD*%
%TO.C,C5*%
X154328600Y-77063600D03*
X156028600Y-77063600D03*
%TD*%
%TO.C,R44*%
X143431100Y-135903600D03*
X143431100Y-137603600D03*
%TD*%
%TO.C,R7*%
X118031100Y-90183600D03*
X118031100Y-91883600D03*
%TD*%
%TO.C,R13*%
X144701100Y-96328600D03*
X144701100Y-94628600D03*
%TD*%
D26*
%TO.C,D3*%
X167726100Y-117322600D03*
X169301100Y-117322600D03*
%TD*%
D12*
%TO.C,R40*%
X168616100Y-112623600D03*
X170316100Y-112623600D03*
%TD*%
D11*
%TO.C,R14*%
X146288600Y-94628600D03*
X146288600Y-96328600D03*
%TD*%
D12*
%TO.C,C16*%
X152321100Y-107328600D03*
X152321100Y-109028600D03*
%TD*%
D11*
%TO.C,R11*%
X121523600Y-93358600D03*
X121523600Y-95058600D03*
%TD*%
D12*
%TO.C,R39*%
X156551100Y-112623600D03*
X158251100Y-112623600D03*
%TD*%
D27*
%TO.C,C2*%
X138797918Y-77398959D03*
X140000000Y-78601041D03*
%TD*%
D11*
%TO.C,R9*%
X114221100Y-93358600D03*
X114221100Y-95058600D03*
%TD*%
M02*
