%TF.GenerationSoftware,KiCad,Pcbnew,(6.0.11-0)*%
%TF.CreationDate,2023-03-06T22:39:13+01:00*%
%TF.ProjectId,grids,67726964-732e-46b6-9963-61645f706362,rev?*%
%TF.SameCoordinates,Original*%
%TF.FileFunction,Soldermask,Top*%
%TF.FilePolarity,Negative*%
%FSLAX46Y46*%
G04 Gerber Fmt 4.6, Leading zero omitted, Abs format (unit mm)*
G04 Created by KiCad (PCBNEW (6.0.11-0)) date 2023-03-06 22:39:13*
%MOMM*%
%LPD*%
G01*
G04 APERTURE LIST*
G04 Aperture macros list*
%AMRoundRect*
0 Rectangle with rounded corners*
0 $1 Rounding radius*
0 $2 $3 $4 $5 $6 $7 $8 $9 X,Y pos of 4 corners*
0 Add a 4 corners polygon primitive as box body*
4,1,4,$2,$3,$4,$5,$6,$7,$8,$9,$2,$3,0*
0 Add four circle primitives for the rounded corners*
1,1,$1+$1,$2,$3*
1,1,$1+$1,$4,$5*
1,1,$1+$1,$6,$7*
1,1,$1+$1,$8,$9*
0 Add four rect primitives between the rounded corners*
20,1,$1+$1,$2,$3,$4,$5,0*
20,1,$1+$1,$4,$5,$6,$7,0*
20,1,$1+$1,$6,$7,$8,$9,0*
20,1,$1+$1,$8,$9,$2,$3,0*%
%AMFreePoly0*
4,1,25,0.493480,0.947373,0.498382,0.942882,0.942882,0.498382,0.964910,0.451141,0.965200,0.444500,0.965200,-0.444500,0.947373,-0.493480,0.942882,-0.498382,0.498382,-0.942882,0.451141,-0.964910,0.444500,-0.965200,-0.444500,-0.965200,-0.493480,-0.947373,-0.498382,-0.942882,-0.942882,-0.498382,-0.964910,-0.451141,-0.965200,-0.444500,-0.965200,0.444500,-0.947373,0.493480,-0.942882,0.498382,
-0.498382,0.942882,-0.451141,0.964910,-0.444500,0.965200,0.444500,0.965200,0.493480,0.947373,0.493480,0.947373,$1*%
%AMFreePoly1*
4,1,25,0.575031,1.328373,0.579933,1.323882,1.323882,0.579933,1.345910,0.532692,1.346200,0.526051,1.346200,-0.526051,1.328373,-0.575031,1.323882,-0.579933,0.579933,-1.323882,0.532692,-1.345910,0.526051,-1.346200,-0.526051,-1.346200,-0.575031,-1.328373,-0.579933,-1.323882,-1.323882,-0.579933,-1.345910,-0.532692,-1.346200,-0.526051,-1.346200,0.526051,-1.328373,0.575031,-1.323882,0.579933,
-0.579933,1.323882,-0.532692,1.345910,-0.526051,1.346200,0.526051,1.346200,0.575031,1.328373,0.575031,1.328373,$1*%
%AMFreePoly2*
4,1,25,0.301485,0.667973,0.306387,0.663482,0.663482,0.306387,0.685510,0.259146,0.685800,0.252505,0.685800,-0.252505,0.667973,-0.301485,0.663482,-0.306387,0.306387,-0.663482,0.259146,-0.685510,0.252505,-0.685800,-0.252505,-0.685800,-0.301485,-0.667973,-0.306387,-0.663482,-0.663482,-0.306387,-0.685510,-0.259146,-0.685800,-0.252505,-0.685800,0.252505,-0.667973,0.301485,-0.663482,0.306387,
-0.306387,0.663482,-0.259146,0.685510,-0.252505,0.685800,0.252505,0.685800,0.301485,0.667973,0.301485,0.667973,$1*%
%AMFreePoly3*
4,1,25,0.438258,0.998173,0.443160,0.993682,0.993682,0.443160,1.015710,0.395919,1.016000,0.389278,1.016000,-0.389278,0.998173,-0.438258,0.993682,-0.443160,0.443160,-0.993682,0.395919,-1.015710,0.389278,-1.016000,-0.389278,-1.016000,-0.438258,-0.998173,-0.443160,-0.993682,-0.993682,-0.443160,-1.015710,-0.395919,-1.016000,-0.389278,-1.016000,0.389278,-0.998173,0.438258,-0.993682,0.443160,
-0.443160,0.993682,-0.395919,1.015710,-0.389278,1.016000,0.389278,1.016000,0.438258,0.998173,0.438258,0.998173,$1*%
G04 Aperture macros list end*
%ADD10RoundRect,0.076200X-1.016000X0.330200X-1.016000X-0.330200X1.016000X-0.330200X1.016000X0.330200X0*%
%ADD11RoundRect,0.076200X-0.550000X0.500000X-0.550000X-0.500000X0.550000X-0.500000X0.550000X0.500000X0*%
%ADD12RoundRect,0.076200X0.550000X-0.500000X0.550000X0.500000X-0.550000X0.500000X-0.550000X-0.500000X0*%
%ADD13C,2.200000*%
%ADD14FreePoly0,90.000000*%
%ADD15RoundRect,0.076200X-0.550000X-0.500000X0.550000X-0.500000X0.550000X0.500000X-0.550000X0.500000X0*%
%ADD16RoundRect,0.076200X0.500000X-0.550000X0.500000X0.550000X-0.500000X0.550000X-0.500000X-0.550000X0*%
%ADD17RoundRect,0.076200X0.500000X0.550000X-0.500000X0.550000X-0.500000X-0.550000X0.500000X-0.550000X0*%
%ADD18RoundRect,0.076200X-0.500000X0.550000X-0.500000X-0.550000X0.500000X-0.550000X0.500000X0.550000X0*%
%ADD19RoundRect,0.076200X0.550000X0.500000X-0.550000X0.500000X-0.550000X-0.500000X0.550000X-0.500000X0*%
%ADD20RoundRect,0.076200X-0.700000X1.300000X-0.700000X-1.300000X0.700000X-1.300000X0.700000X1.300000X0*%
%ADD21RoundRect,0.076200X-0.500000X0.350000X-0.500000X-0.350000X0.500000X-0.350000X0.500000X0.350000X0*%
%ADD22RoundRect,0.076200X-0.700000X-0.700000X0.700000X-0.700000X0.700000X0.700000X-0.700000X0.700000X0*%
%ADD23RoundRect,0.076200X0.939800X-0.939800X0.939800X0.939800X-0.939800X0.939800X-0.939800X-0.939800X0*%
%ADD24FreePoly1,90.000000*%
%ADD25RoundRect,0.076200X-0.300000X-1.100000X0.300000X-1.100000X0.300000X1.100000X-0.300000X1.100000X0*%
%ADD26RoundRect,0.076200X-0.500000X-0.700000X0.500000X-0.700000X0.500000X0.700000X-0.500000X0.700000X0*%
%ADD27RoundRect,0.576200X0.000000X0.000000X0.000000X0.000000X0.000000X0.000000X0.000000X0.000000X0*%
%ADD28R,3.150000X1.000000*%
%ADD29RoundRect,0.076200X-0.635000X-0.279400X0.635000X-0.279400X0.635000X0.279400X-0.635000X0.279400X0*%
%ADD30RoundRect,0.076200X-0.279400X-0.635000X0.279400X-0.635000X0.279400X0.635000X-0.279400X0.635000X0*%
%ADD31RoundRect,0.076200X-0.500000X-0.550000X0.500000X-0.550000X0.500000X0.550000X-0.500000X0.550000X0*%
%ADD32RoundRect,0.076200X-0.035355X-0.742462X0.742462X0.035355X0.035355X0.742462X-0.742462X-0.035355X0*%
%ADD33FreePoly2,180.000000*%
%ADD34RoundRect,0.076200X1.003300X-0.749300X1.003300X0.749300X-1.003300X0.749300X-1.003300X-0.749300X0*%
%ADD35RoundRect,0.076200X1.003300X-1.905000X1.003300X1.905000X-1.003300X1.905000X-1.003300X-1.905000X0*%
%ADD36RoundRect,0.076200X0.350000X-0.425000X0.350000X0.425000X-0.350000X0.425000X-0.350000X-0.425000X0*%
%ADD37R,1.000000X1.150000*%
%ADD38RoundRect,0.218750X-0.218750X-0.256250X0.218750X-0.256250X0.218750X0.256250X-0.218750X0.256250X0*%
%ADD39RoundRect,0.076200X-0.742462X0.035355X0.035355X-0.742462X0.742462X-0.035355X-0.035355X0.742462X0*%
%ADD40C,1.502400*%
%ADD41RoundRect,0.076200X0.675000X-0.675000X0.675000X0.675000X-0.675000X0.675000X-0.675000X-0.675000X0*%
%ADD42C,2.032000*%
%ADD43FreePoly3,0.000000*%
%ADD44FreePoly3,270.000000*%
G04 APERTURE END LIST*
D10*
%TO.C,IC6*%
X139405200Y-121513600D03*
X139405200Y-122783600D03*
X139405200Y-124053600D03*
X139405200Y-125323600D03*
X139405200Y-126593600D03*
X139405200Y-127863600D03*
X139405200Y-129133600D03*
X139405200Y-130403600D03*
X145552000Y-130403600D03*
X145552000Y-129133600D03*
X145552000Y-127863600D03*
X145552000Y-126593600D03*
X145552000Y-125323600D03*
X145552000Y-124053600D03*
X145552000Y-122783600D03*
X145552000Y-121513600D03*
%TD*%
D11*
%TO.C,R21*%
X170736100Y-94628600D03*
X170736100Y-96328600D03*
%TD*%
D12*
%TO.C,R22*%
X147876100Y-99821100D03*
X147876100Y-98121100D03*
%TD*%
D13*
%TO.C,J4*%
X117713600Y-124688600D03*
D14*
X123428600Y-124688600D03*
X120888600Y-124688600D03*
X113268600Y-124688600D03*
%TD*%
D11*
%TO.C,R48*%
X143431100Y-146698600D03*
X143431100Y-148398600D03*
%TD*%
D13*
%TO.C,J13*%
X168513600Y-150088600D03*
D14*
X174228600Y-150088600D03*
X171688600Y-150088600D03*
X164068600Y-150088600D03*
%TD*%
D15*
%TO.C,C8*%
X174013600Y-93256100D03*
X175713600Y-93256100D03*
%TD*%
D16*
%TO.C,C11*%
X152321100Y-96328600D03*
X152321100Y-94628600D03*
%TD*%
D13*
%TO.C,J9*%
X168513600Y-138023600D03*
D14*
X174228600Y-138023600D03*
X171688600Y-138023600D03*
X164068600Y-138023600D03*
%TD*%
D13*
%TO.C,J8*%
X156448600Y-138023600D03*
D14*
X162163600Y-138023600D03*
X159623600Y-138023600D03*
X152003600Y-138023600D03*
%TD*%
D17*
%TO.C,R8*%
X177936100Y-91033600D03*
X176236100Y-91033600D03*
%TD*%
D18*
%TO.C,C17*%
X164068600Y-107328600D03*
X164068600Y-109028600D03*
%TD*%
D19*
%TO.C,C18*%
X145551100Y-119608600D03*
X143851100Y-119608600D03*
%TD*%
D20*
%TO.C,C1*%
X171053600Y-66413600D03*
X171053600Y-62313600D03*
%TD*%
D16*
%TO.C,C9*%
X141208600Y-96328600D03*
X141208600Y-94628600D03*
%TD*%
D11*
%TO.C,R18*%
X158988600Y-94628600D03*
X158988600Y-96328600D03*
%TD*%
D12*
%TO.C,R19*%
X167561100Y-96328600D03*
X167561100Y-94628600D03*
%TD*%
D13*
%TO.C,J6*%
X168513600Y-125958600D03*
D14*
X174228600Y-125958600D03*
X171688600Y-125958600D03*
X164068600Y-125958600D03*
%TD*%
D21*
%TO.C,IC2*%
X174081100Y-86908600D03*
X174081100Y-88808600D03*
X176281100Y-87858600D03*
%TD*%
D16*
%TO.C,C13*%
X164068600Y-96328600D03*
X164068600Y-94628600D03*
%TD*%
%TO.C,C12*%
X154226100Y-96328600D03*
X154226100Y-94628600D03*
%TD*%
D11*
%TO.C,R33*%
X153908600Y-107328600D03*
X153908600Y-109028600D03*
%TD*%
D22*
%TO.C,D1*%
X184383600Y-66268600D03*
X180583600Y-66268600D03*
%TD*%
D23*
%TO.C,R1*%
X134818600Y-66918600D03*
X132318600Y-66918600D03*
X129818600Y-66918600D03*
D24*
X137018600Y-59918600D03*
X127618600Y-59918600D03*
%TD*%
D11*
%TO.C,R20*%
X169148600Y-94628600D03*
X169148600Y-96328600D03*
%TD*%
%TO.C,R49*%
X145018600Y-146698600D03*
X145018600Y-148398600D03*
%TD*%
D23*
%TO.C,R42*%
X134818600Y-131788600D03*
X132318600Y-131788600D03*
X129818600Y-131788600D03*
D24*
X136718600Y-124688600D03*
X127918600Y-124688600D03*
%TD*%
D25*
%TO.C,IC5*%
X165021100Y-104428600D03*
X166291100Y-104428600D03*
X167561100Y-104428600D03*
X168831100Y-104428600D03*
X168831100Y-99228600D03*
X167561100Y-99228600D03*
X166291100Y-99228600D03*
X165021100Y-99228600D03*
%TD*%
D12*
%TO.C,R38*%
X168831100Y-109028600D03*
X168831100Y-107328600D03*
%TD*%
D16*
%TO.C,C10*%
X143113600Y-96328600D03*
X143113600Y-94628600D03*
%TD*%
D25*
%TO.C,IC3*%
X142161100Y-104428600D03*
X143431100Y-104428600D03*
X144701100Y-104428600D03*
X145971100Y-104428600D03*
X145971100Y-99228600D03*
X144701100Y-99228600D03*
X143431100Y-99228600D03*
X142161100Y-99228600D03*
%TD*%
D12*
%TO.C,R10*%
X116126100Y-95058600D03*
X116126100Y-93358600D03*
%TD*%
D26*
%TO.C,Q3*%
X121526100Y-91498600D03*
X122476100Y-89298600D03*
X123426100Y-91498600D03*
%TD*%
D20*
%TO.C,C19*%
X176768600Y-66413600D03*
X176768600Y-62313600D03*
%TD*%
D26*
%TO.C,Q2*%
X114223600Y-91498600D03*
X115173600Y-89298600D03*
X116123600Y-91498600D03*
%TD*%
D27*
%TO.C,F3*%
X117078600Y-147548600D03*
%TD*%
D28*
%TO.C,J17*%
X124525000Y-73150000D03*
X119475000Y-73150000D03*
X124525000Y-70610000D03*
X119475000Y-70610000D03*
X124525000Y-68070000D03*
X119475000Y-68070000D03*
%TD*%
D13*
%TO.C,J10*%
X180578600Y-138023600D03*
D14*
X186293600Y-138023600D03*
X183753600Y-138023600D03*
X176133600Y-138023600D03*
%TD*%
D12*
%TO.C,R24*%
X170736100Y-99821100D03*
X170736100Y-98121100D03*
%TD*%
D13*
%TO.C,J3*%
X117713600Y-103098600D03*
D14*
X123428600Y-103098600D03*
X120888600Y-103098600D03*
X113268600Y-103098600D03*
%TD*%
D25*
%TO.C,IC4*%
X153273600Y-104428600D03*
X154543600Y-104428600D03*
X155813600Y-104428600D03*
X157083600Y-104428600D03*
X157083600Y-99228600D03*
X155813600Y-99228600D03*
X154543600Y-99228600D03*
X153273600Y-99228600D03*
%TD*%
D11*
%TO.C,R6*%
X119618600Y-90183600D03*
X119618600Y-91883600D03*
%TD*%
%TO.C,R36*%
X165656100Y-107328600D03*
X165656100Y-109028600D03*
%TD*%
D12*
%TO.C,R3*%
X147876100Y-69658600D03*
X147876100Y-67958600D03*
%TD*%
%TO.C,R34*%
X155496100Y-109028600D03*
X155496100Y-107328600D03*
%TD*%
D29*
%TO.C,IC1*%
X143901000Y-73628600D03*
X143901000Y-74428600D03*
X143901000Y-75228600D03*
X143901000Y-76028600D03*
X143901000Y-76828600D03*
X143901000Y-77628600D03*
X143901000Y-78428600D03*
X143901000Y-79228600D03*
D30*
X145393600Y-80721200D03*
X146193600Y-80721200D03*
X146993600Y-80721200D03*
X147793600Y-80721200D03*
X148593600Y-80721200D03*
X149393600Y-80721200D03*
X150193600Y-80721200D03*
X150993600Y-80721200D03*
D29*
X152486200Y-79228600D03*
X152486200Y-78428600D03*
X152486200Y-77628600D03*
X152486200Y-76828600D03*
X152486200Y-76028600D03*
X152486200Y-75228600D03*
X152486200Y-74428600D03*
X152486200Y-73628600D03*
D30*
X150993600Y-72136000D03*
X150193600Y-72136000D03*
X149393600Y-72136000D03*
X148593600Y-72136000D03*
X147793600Y-72136000D03*
X146993600Y-72136000D03*
X146193600Y-72136000D03*
X145393600Y-72136000D03*
%TD*%
D31*
%TO.C,R41*%
X180681100Y-112623600D03*
X182381100Y-112623600D03*
%TD*%
D23*
%TO.C,R2*%
X158948600Y-66918600D03*
X156448600Y-66918600D03*
X153948600Y-66918600D03*
D24*
X161148600Y-59918600D03*
X151748600Y-59918600D03*
%TD*%
D32*
%TO.C,C7*%
X138797918Y-86101041D03*
X140000000Y-84898959D03*
%TD*%
D12*
%TO.C,R32*%
X145971100Y-109028600D03*
X145971100Y-107328600D03*
%TD*%
D33*
%TO.C,LED2*%
X157718600Y-115798600D03*
X155178600Y-115798600D03*
%TD*%
D11*
%TO.C,R15*%
X147876100Y-94628600D03*
X147876100Y-96328600D03*
%TD*%
%TO.C,R43*%
X141843600Y-135903600D03*
X141843600Y-137603600D03*
%TD*%
%TO.C,R45*%
X145018600Y-135903600D03*
X145018600Y-137603600D03*
%TD*%
D18*
%TO.C,C6*%
X154226100Y-78753600D03*
X154226100Y-80453600D03*
%TD*%
D13*
%TO.C,J7*%
X180578600Y-125958600D03*
D14*
X186293600Y-125958600D03*
X183753600Y-125958600D03*
X176133600Y-125958600D03*
%TD*%
D16*
%TO.C,C3*%
X142161100Y-76961100D03*
X142161100Y-75261100D03*
%TD*%
D12*
%TO.C,R23*%
X158988600Y-99821100D03*
X158988600Y-98121100D03*
%TD*%
D11*
%TO.C,R4*%
X132318600Y-72403600D03*
X132318600Y-74103600D03*
%TD*%
%TO.C,R17*%
X157401100Y-94628600D03*
X157401100Y-96328600D03*
%TD*%
%TO.C,R29*%
X170736100Y-103518600D03*
X170736100Y-105218600D03*
%TD*%
D34*
%TO.C,IC7*%
X175155700Y-74244200D03*
X175155700Y-71958200D03*
X175155700Y-69672200D03*
D35*
X168856500Y-71983600D03*
%TD*%
D12*
%TO.C,R12*%
X123428600Y-95058600D03*
X123428600Y-93358600D03*
%TD*%
%TO.C,R37*%
X167243600Y-109028600D03*
X167243600Y-107328600D03*
%TD*%
D13*
%TO.C,J11*%
X117713600Y-146278600D03*
D14*
X123428600Y-146278600D03*
X120888600Y-146278600D03*
X113268600Y-146278600D03*
%TD*%
D11*
%TO.C,R30*%
X142796100Y-107328600D03*
X142796100Y-109028600D03*
%TD*%
D18*
%TO.C,C15*%
X141208600Y-107328600D03*
X141208600Y-109028600D03*
%TD*%
D12*
%TO.C,R35*%
X157083600Y-109028600D03*
X157083600Y-107328600D03*
%TD*%
D27*
%TO.C,F2*%
X117713600Y-61188600D03*
%TD*%
D11*
%TO.C,R47*%
X141843600Y-146698600D03*
X141843600Y-148398600D03*
%TD*%
D13*
%TO.C,J1*%
X117713600Y-59918600D03*
D14*
X123428600Y-59918600D03*
X120888600Y-59918600D03*
X113268600Y-59918600D03*
%TD*%
D12*
%TO.C,R16*%
X155813600Y-96328600D03*
X155813600Y-94628600D03*
%TD*%
D36*
%TO.C,L1*%
X155813600Y-80186100D03*
X155813600Y-78586100D03*
%TD*%
D11*
%TO.C,R28*%
X158988600Y-103518600D03*
X158988600Y-105218600D03*
%TD*%
D16*
%TO.C,C4*%
X166291100Y-67118600D03*
X166291100Y-65418600D03*
%TD*%
D13*
%TO.C,J5*%
X156448600Y-125958600D03*
D14*
X162163600Y-125958600D03*
X159623600Y-125958600D03*
X152003600Y-125958600D03*
%TD*%
D37*
%TO.C,Q1*%
X141950000Y-82625000D03*
X141950000Y-80875000D03*
X140550000Y-80875000D03*
X140550000Y-82625000D03*
%TD*%
D33*
%TO.C,LED3*%
X169783600Y-115798600D03*
X167243600Y-115798600D03*
%TD*%
D23*
%TO.C,R25*%
X134818600Y-110098600D03*
X132318600Y-110098600D03*
X129818600Y-110098600D03*
D24*
X137018600Y-103098600D03*
X127618600Y-103098600D03*
%TD*%
D12*
%TO.C,R31*%
X144383600Y-109028600D03*
X144383600Y-107328600D03*
%TD*%
D13*
%TO.C,J14*%
X180578600Y-150088600D03*
D14*
X186293600Y-150088600D03*
X183753600Y-150088600D03*
X176133600Y-150088600D03*
%TD*%
D38*
%TO.C,D2*%
X179791100Y-117322600D03*
X181366100Y-117322600D03*
%TD*%
%TO.C,D4*%
X155661100Y-117322600D03*
X157236100Y-117322600D03*
%TD*%
D16*
%TO.C,C14*%
X165973600Y-96328600D03*
X165973600Y-94628600D03*
%TD*%
D27*
%TO.C,F1*%
X185658600Y-58648600D03*
%TD*%
D23*
%TO.C,R46*%
X134818600Y-153278600D03*
X132318600Y-153278600D03*
X129818600Y-153278600D03*
D24*
X137018600Y-146278600D03*
X127618600Y-146278600D03*
%TD*%
D11*
%TO.C,R27*%
X147876100Y-103518600D03*
X147876100Y-105218600D03*
%TD*%
D15*
%TO.C,C5*%
X154328600Y-77063600D03*
X156028600Y-77063600D03*
%TD*%
D11*
%TO.C,R44*%
X143431100Y-135903600D03*
X143431100Y-137603600D03*
%TD*%
D13*
%TO.C,J2*%
X117713600Y-81508600D03*
D14*
X123428600Y-81508600D03*
X120888600Y-81508600D03*
X113268600Y-81508600D03*
%TD*%
D11*
%TO.C,R7*%
X118031100Y-90183600D03*
X118031100Y-91883600D03*
%TD*%
D12*
%TO.C,R13*%
X144701100Y-96328600D03*
X144701100Y-94628600D03*
%TD*%
D38*
%TO.C,D3*%
X167726100Y-117322600D03*
X169301100Y-117322600D03*
%TD*%
D23*
%TO.C,R5*%
X171013600Y-88508600D03*
X168513600Y-88508600D03*
X166013600Y-88508600D03*
D24*
X173213600Y-81508600D03*
X163813600Y-81508600D03*
%TD*%
D31*
%TO.C,R40*%
X168616100Y-112623600D03*
X170316100Y-112623600D03*
%TD*%
D11*
%TO.C,R14*%
X146288600Y-94628600D03*
X146288600Y-96328600D03*
%TD*%
D27*
%TO.C,F4*%
X178038600Y-147548600D03*
%TD*%
D18*
%TO.C,C16*%
X152321100Y-107328600D03*
X152321100Y-109028600D03*
%TD*%
D33*
%TO.C,LED4*%
X181848600Y-115798600D03*
X179308600Y-115798600D03*
%TD*%
D23*
%TO.C,R26*%
X183078600Y-110098600D03*
X180578600Y-110098600D03*
X178078600Y-110098600D03*
D24*
X185278600Y-103098600D03*
X175878600Y-103098600D03*
%TD*%
D11*
%TO.C,R11*%
X121523600Y-93358600D03*
X121523600Y-95058600D03*
%TD*%
D13*
%TO.C,J12*%
X156448600Y-150088600D03*
D14*
X162163600Y-150088600D03*
X159623600Y-150088600D03*
X152003600Y-150088600D03*
%TD*%
D31*
%TO.C,R39*%
X156551100Y-112623600D03*
X158251100Y-112623600D03*
%TD*%
D39*
%TO.C,C2*%
X138797918Y-77398959D03*
X140000000Y-78601041D03*
%TD*%
D11*
%TO.C,R9*%
X114221100Y-93358600D03*
X114221100Y-95058600D03*
%TD*%
D40*
%TO.C,SW1*%
X134818600Y-79000000D03*
X134818600Y-84000000D03*
D41*
X129818600Y-79000000D03*
D40*
X129318600Y-81500000D03*
X135318600Y-81500000D03*
X129818600Y-84000000D03*
%TD*%
D42*
%TO.C,JP1*%
X138351100Y-152628600D03*
X140891100Y-152628600D03*
X143431100Y-152628600D03*
%TD*%
D43*
%TO.C,J15*%
X151051100Y-85001100D03*
X151051100Y-87541100D03*
X153591100Y-85001100D03*
X153591100Y-87541100D03*
X156131100Y-85001100D03*
X156131100Y-87541100D03*
%TD*%
D44*
%TO.C,J16*%
X184388600Y-69443600D03*
X181848600Y-69443600D03*
X184388600Y-71983600D03*
X181848600Y-71983600D03*
X184388600Y-74523600D03*
X181848600Y-74523600D03*
X184388600Y-77063600D03*
X181848600Y-77063600D03*
X184388600Y-79603600D03*
X181848600Y-79603600D03*
%TD*%
D42*
%TO.C,JP2*%
X145018600Y-66903600D03*
X142478600Y-66903600D03*
X139938600Y-66903600D03*
%TD*%
M02*
