%TF.GenerationSoftware,KiCad,Pcbnew,(6.0.11-0)*%
%TF.CreationDate,2023-03-06T22:39:13+01:00*%
%TF.ProjectId,grids,67726964-732e-46b6-9963-61645f706362,rev?*%
%TF.SameCoordinates,Original*%
%TF.FileFunction,Legend,Bot*%
%TF.FilePolarity,Positive*%
%FSLAX46Y46*%
G04 Gerber Fmt 4.6, Leading zero omitted, Abs format (unit mm)*
G04 Created by KiCad (PCBNEW (6.0.11-0)) date 2023-03-06 22:39:13*
%MOMM*%
%LPD*%
G01*
G04 APERTURE LIST*
G04 Aperture macros list*
%AMRoundRect*
0 Rectangle with rounded corners*
0 $1 Rounding radius*
0 $2 $3 $4 $5 $6 $7 $8 $9 X,Y pos of 4 corners*
0 Add a 4 corners polygon primitive as box body*
4,1,4,$2,$3,$4,$5,$6,$7,$8,$9,$2,$3,0*
0 Add four circle primitives for the rounded corners*
1,1,$1+$1,$2,$3*
1,1,$1+$1,$4,$5*
1,1,$1+$1,$6,$7*
1,1,$1+$1,$8,$9*
0 Add four rect primitives between the rounded corners*
20,1,$1+$1,$2,$3,$4,$5,0*
20,1,$1+$1,$4,$5,$6,$7,0*
20,1,$1+$1,$6,$7,$8,$9,0*
20,1,$1+$1,$8,$9,$2,$3,0*%
%AMFreePoly0*
4,1,25,0.493480,0.947373,0.498382,0.942882,0.942882,0.498382,0.964910,0.451141,0.965200,0.444500,0.965200,-0.444500,0.947373,-0.493480,0.942882,-0.498382,0.498382,-0.942882,0.451141,-0.964910,0.444500,-0.965200,-0.444500,-0.965200,-0.493480,-0.947373,-0.498382,-0.942882,-0.942882,-0.498382,-0.964910,-0.451141,-0.965200,-0.444500,-0.965200,0.444500,-0.947373,0.493480,-0.942882,0.498382,
-0.498382,0.942882,-0.451141,0.964910,-0.444500,0.965200,0.444500,0.965200,0.493480,0.947373,0.493480,0.947373,$1*%
%AMFreePoly1*
4,1,25,0.575031,1.328373,0.579933,1.323882,1.323882,0.579933,1.345910,0.532692,1.346200,0.526051,1.346200,-0.526051,1.328373,-0.575031,1.323882,-0.579933,0.579933,-1.323882,0.532692,-1.345910,0.526051,-1.346200,-0.526051,-1.346200,-0.575031,-1.328373,-0.579933,-1.323882,-1.323882,-0.579933,-1.345910,-0.532692,-1.346200,-0.526051,-1.346200,0.526051,-1.328373,0.575031,-1.323882,0.579933,
-0.579933,1.323882,-0.532692,1.345910,-0.526051,1.346200,0.526051,1.346200,0.575031,1.328373,0.575031,1.328373,$1*%
%AMFreePoly2*
4,1,25,0.301485,0.667973,0.306387,0.663482,0.663482,0.306387,0.685510,0.259146,0.685800,0.252505,0.685800,-0.252505,0.667973,-0.301485,0.663482,-0.306387,0.306387,-0.663482,0.259146,-0.685510,0.252505,-0.685800,-0.252505,-0.685800,-0.301485,-0.667973,-0.306387,-0.663482,-0.663482,-0.306387,-0.685510,-0.259146,-0.685800,-0.252505,-0.685800,0.252505,-0.667973,0.301485,-0.663482,0.306387,
-0.306387,0.663482,-0.259146,0.685510,-0.252505,0.685800,0.252505,0.685800,0.301485,0.667973,0.301485,0.667973,$1*%
%AMFreePoly3*
4,1,25,0.438258,0.998173,0.443160,0.993682,0.993682,0.443160,1.015710,0.395919,1.016000,0.389278,1.016000,-0.389278,0.998173,-0.438258,0.993682,-0.443160,0.443160,-0.993682,0.395919,-1.015710,0.389278,-1.016000,-0.389278,-1.016000,-0.438258,-0.998173,-0.443160,-0.993682,-0.993682,-0.443160,-1.015710,-0.395919,-1.016000,-0.389278,-1.016000,0.389278,-0.998173,0.438258,-0.993682,0.443160,
-0.443160,0.993682,-0.395919,1.015710,-0.389278,1.016000,0.389278,1.016000,0.438258,0.998173,0.438258,0.998173,$1*%
G04 Aperture macros list end*
%ADD10C,0.254000*%
%ADD11C,0.152400*%
%ADD12C,0.406400*%
%ADD13C,0.190500*%
%ADD14C,0.160020*%
%ADD15C,0.251460*%
%ADD16C,0.762000*%
%ADD17C,0.144780*%
%ADD18C,0.203200*%
%ADD19C,2.200000*%
%ADD20FreePoly0,90.000000*%
%ADD21RoundRect,0.076200X0.939800X-0.939800X0.939800X0.939800X-0.939800X0.939800X-0.939800X-0.939800X0*%
%ADD22FreePoly1,90.000000*%
%ADD23FreePoly2,180.000000*%
%ADD24C,1.502400*%
%ADD25RoundRect,0.076200X0.675000X-0.675000X0.675000X0.675000X-0.675000X0.675000X-0.675000X-0.675000X0*%
%ADD26C,2.032000*%
%ADD27FreePoly3,0.000000*%
%ADD28FreePoly3,270.000000*%
G04 APERTURE END LIST*
D10*
X136446100Y-154533600D02*
X145336100Y-154533600D01*
D11*
X180261100Y-67856100D02*
X180261100Y-81191100D01*
D10*
X158036100Y-83096100D02*
X149146100Y-83096100D01*
X136446100Y-150723600D02*
X136446100Y-154533600D01*
X146923600Y-64998600D02*
X138033600Y-64998600D01*
X138033600Y-64998600D02*
X138033600Y-68808600D01*
X158036100Y-89446100D02*
X158036100Y-83096100D01*
D12*
X180261100Y-82143600D02*
X185976100Y-82143600D01*
D10*
X149146100Y-89446100D02*
X158036100Y-89446100D01*
X145336100Y-150723600D02*
X136446100Y-150723600D01*
D11*
X180261100Y-81191100D02*
X185976100Y-81191100D01*
X185976100Y-81191100D02*
X185976100Y-67856100D01*
D10*
X146923600Y-68808600D02*
X146923600Y-64998600D01*
X149146100Y-83096100D02*
X149146100Y-89446100D01*
X145336100Y-154533600D02*
X145336100Y-150723600D01*
X138033600Y-68808600D02*
X146923600Y-68808600D01*
D11*
X180261100Y-67856100D02*
X185976100Y-67856100D01*
X178869059Y-73977500D02*
X178951306Y-73936376D01*
X179074678Y-73936376D01*
X179198049Y-73977500D01*
X179280297Y-74059747D01*
X179321420Y-74141995D01*
X179362544Y-74306490D01*
X179362544Y-74429861D01*
X179321420Y-74594357D01*
X179280297Y-74676604D01*
X179198049Y-74758852D01*
X179074678Y-74799976D01*
X178992430Y-74799976D01*
X178869059Y-74758852D01*
X178827935Y-74717728D01*
X178827935Y-74429861D01*
X178992430Y-74429861D01*
X178457820Y-74799976D02*
X178457820Y-73936376D01*
X177964335Y-74799976D01*
X177964335Y-73936376D01*
X177553097Y-74799976D02*
X177553097Y-73936376D01*
X177347478Y-73936376D01*
X177224106Y-73977500D01*
X177141859Y-74059747D01*
X177100735Y-74141995D01*
X177059611Y-74306490D01*
X177059611Y-74429861D01*
X177100735Y-74594357D01*
X177141859Y-74676604D01*
X177224106Y-74758852D01*
X177347478Y-74799976D01*
X177553097Y-74799976D01*
D13*
X157972751Y-90982195D02*
X157972751Y-89902695D01*
X157510108Y-90930790D02*
X157355894Y-90982195D01*
X157098870Y-90982195D01*
X156996060Y-90930790D01*
X156944655Y-90879385D01*
X156893251Y-90776576D01*
X156893251Y-90673766D01*
X156944655Y-90570957D01*
X156996060Y-90519552D01*
X157098870Y-90468147D01*
X157304489Y-90416742D01*
X157407298Y-90365338D01*
X157458703Y-90313933D01*
X157510108Y-90211123D01*
X157510108Y-90108314D01*
X157458703Y-90005504D01*
X157407298Y-89954100D01*
X157304489Y-89902695D01*
X157047465Y-89902695D01*
X156893251Y-89954100D01*
X156430608Y-90982195D02*
X156430608Y-89902695D01*
X156019370Y-89902695D01*
X155916560Y-89954100D01*
X155865155Y-90005504D01*
X155813751Y-90108314D01*
X155813751Y-90262528D01*
X155865155Y-90365338D01*
X155916560Y-90416742D01*
X156019370Y-90468147D01*
X156430608Y-90468147D01*
X139766242Y-63982751D02*
X139766242Y-63160275D01*
X139355004Y-63571513D02*
X140177480Y-63571513D01*
X140434504Y-62132179D02*
X140434504Y-62646227D01*
X139920457Y-62697632D01*
X139971861Y-62646227D01*
X140023266Y-62543417D01*
X140023266Y-62286394D01*
X139971861Y-62183584D01*
X139920457Y-62132179D01*
X139817647Y-62080775D01*
X139560623Y-62080775D01*
X139457814Y-62132179D01*
X139406409Y-62183584D01*
X139355004Y-62286394D01*
X139355004Y-62543417D01*
X139406409Y-62646227D01*
X139457814Y-62697632D01*
X140434504Y-61772346D02*
X139355004Y-61412513D01*
X140434504Y-61052679D01*
D14*
X184429367Y-64452500D02*
X184386187Y-64409320D01*
X184299827Y-64366140D01*
X184083927Y-64366140D01*
X183997567Y-64409320D01*
X183954387Y-64452500D01*
X183911207Y-64538860D01*
X183911207Y-64625220D01*
X183954387Y-64754760D01*
X184472547Y-65272920D01*
X183911207Y-65272920D01*
X183349867Y-64366140D02*
X183263507Y-64366140D01*
X183177147Y-64409320D01*
X183133967Y-64452500D01*
X183090787Y-64538860D01*
X183047607Y-64711580D01*
X183047607Y-64927480D01*
X183090787Y-65100200D01*
X183133967Y-65186560D01*
X183177147Y-65229740D01*
X183263507Y-65272920D01*
X183349867Y-65272920D01*
X183436227Y-65229740D01*
X183479407Y-65186560D01*
X183522587Y-65100200D01*
X183565767Y-64927480D01*
X183565767Y-64711580D01*
X183522587Y-64538860D01*
X183479407Y-64452500D01*
X183436227Y-64409320D01*
X183349867Y-64366140D01*
X182184007Y-65272920D02*
X182702167Y-65272920D01*
X182443087Y-65272920D02*
X182443087Y-64366140D01*
X182529447Y-64495680D01*
X182615807Y-64582040D01*
X182702167Y-64625220D01*
X181406767Y-64668400D02*
X181406767Y-65272920D01*
X181622667Y-64322960D02*
X181838567Y-64970660D01*
X181277227Y-64970660D01*
X180888607Y-65229740D02*
X180888607Y-65272920D01*
X180931787Y-65359280D01*
X180974967Y-65402460D01*
X179895467Y-64668400D02*
X179679567Y-65272920D01*
X179463667Y-64668400D01*
X178945507Y-64366140D02*
X178859147Y-64366140D01*
X178772787Y-64409320D01*
X178729607Y-64452500D01*
X178686427Y-64538860D01*
X178643247Y-64711580D01*
X178643247Y-64927480D01*
X178686427Y-65100200D01*
X178729607Y-65186560D01*
X178772787Y-65229740D01*
X178859147Y-65272920D01*
X178945507Y-65272920D01*
X179031867Y-65229740D01*
X179075047Y-65186560D01*
X179118227Y-65100200D01*
X179161407Y-64927480D01*
X179161407Y-64711580D01*
X179118227Y-64538860D01*
X179075047Y-64452500D01*
X179031867Y-64409320D01*
X178945507Y-64366140D01*
X178254627Y-65186560D02*
X178211447Y-65229740D01*
X178254627Y-65272920D01*
X178297807Y-65229740D01*
X178254627Y-65186560D01*
X178254627Y-65272920D01*
X177866007Y-64452500D02*
X177822827Y-64409320D01*
X177736467Y-64366140D01*
X177520567Y-64366140D01*
X177434207Y-64409320D01*
X177391027Y-64452500D01*
X177347847Y-64538860D01*
X177347847Y-64625220D01*
X177391027Y-64754760D01*
X177909187Y-65272920D01*
X177347847Y-65272920D01*
D11*
X143412957Y-150101420D02*
X143166214Y-149443440D01*
X142919471Y-150101420D01*
X142837223Y-148538716D02*
X143248461Y-148826582D01*
X142837223Y-149032201D02*
X143700823Y-149032201D01*
X143700823Y-148703211D01*
X143659700Y-148620963D01*
X143618576Y-148579840D01*
X143536328Y-148538716D01*
X143412957Y-148538716D01*
X143330709Y-148579840D01*
X143289585Y-148620963D01*
X143248461Y-148703211D01*
X143248461Y-149032201D01*
X143083966Y-148209725D02*
X143083966Y-147798487D01*
X142837223Y-148291973D02*
X143700823Y-148004106D01*
X142837223Y-147716240D01*
X142837223Y-147428373D02*
X143700823Y-147428373D01*
X142837223Y-146934887D01*
X143700823Y-146934887D01*
X142837223Y-146523649D02*
X143700823Y-146523649D01*
X143700823Y-146318030D01*
X143659700Y-146194659D01*
X143577452Y-146112411D01*
X143495204Y-146071287D01*
X143330709Y-146030163D01*
X143207338Y-146030163D01*
X143042842Y-146071287D01*
X142960595Y-146112411D01*
X142878347Y-146194659D01*
X142837223Y-146318030D01*
X142837223Y-146523649D01*
X143700823Y-145495554D02*
X143700823Y-145331059D01*
X143659700Y-145248811D01*
X143577452Y-145166563D01*
X143412957Y-145125440D01*
X143125090Y-145125440D01*
X142960595Y-145166563D01*
X142878347Y-145248811D01*
X142837223Y-145331059D01*
X142837223Y-145495554D01*
X142878347Y-145577801D01*
X142960595Y-145660049D01*
X143125090Y-145701173D01*
X143412957Y-145701173D01*
X143577452Y-145660049D01*
X143659700Y-145577801D01*
X143700823Y-145495554D01*
X142837223Y-144755325D02*
X143700823Y-144755325D01*
X143083966Y-144467459D01*
X143700823Y-144179592D01*
X142837223Y-144179592D01*
X143659700Y-142658011D02*
X143700823Y-142740259D01*
X143700823Y-142863630D01*
X143659700Y-142987001D01*
X143577452Y-143069249D01*
X143495204Y-143110373D01*
X143330709Y-143151497D01*
X143207338Y-143151497D01*
X143042842Y-143110373D01*
X142960595Y-143069249D01*
X142878347Y-142987001D01*
X142837223Y-142863630D01*
X142837223Y-142781382D01*
X142878347Y-142658011D01*
X142919471Y-142616887D01*
X143207338Y-142616887D01*
X143207338Y-142781382D01*
X143083966Y-142287897D02*
X143083966Y-141876659D01*
X142837223Y-142370144D02*
X143700823Y-142082278D01*
X142837223Y-141794411D01*
X143700823Y-141629916D02*
X143700823Y-141136430D01*
X142837223Y-141383173D02*
X143700823Y-141383173D01*
X143289585Y-140848563D02*
X143289585Y-140560697D01*
X142837223Y-140437325D02*
X142837223Y-140848563D01*
X143700823Y-140848563D01*
X143700823Y-140437325D01*
X140872957Y-150101420D02*
X140626214Y-149443440D01*
X140379471Y-150101420D01*
X140379471Y-148538716D02*
X140338347Y-148579840D01*
X140297223Y-148703211D01*
X140297223Y-148785459D01*
X140338347Y-148908830D01*
X140420595Y-148991078D01*
X140502842Y-149032201D01*
X140667338Y-149073325D01*
X140790709Y-149073325D01*
X140955204Y-149032201D01*
X141037452Y-148991078D01*
X141119700Y-148908830D01*
X141160823Y-148785459D01*
X141160823Y-148703211D01*
X141119700Y-148579840D01*
X141078576Y-148538716D01*
X140297223Y-147757363D02*
X140297223Y-148168601D01*
X141160823Y-148168601D01*
X141160823Y-147305001D02*
X141160823Y-147140506D01*
X141119700Y-147058259D01*
X141037452Y-146976011D01*
X140872957Y-146934887D01*
X140585090Y-146934887D01*
X140420595Y-146976011D01*
X140338347Y-147058259D01*
X140297223Y-147140506D01*
X140297223Y-147305001D01*
X140338347Y-147387249D01*
X140420595Y-147469497D01*
X140585090Y-147510620D01*
X140872957Y-147510620D01*
X141037452Y-147469497D01*
X141119700Y-147387249D01*
X141160823Y-147305001D01*
X140379471Y-146071287D02*
X140338347Y-146112411D01*
X140297223Y-146235782D01*
X140297223Y-146318030D01*
X140338347Y-146441401D01*
X140420595Y-146523649D01*
X140502842Y-146564773D01*
X140667338Y-146605897D01*
X140790709Y-146605897D01*
X140955204Y-146564773D01*
X141037452Y-146523649D01*
X141119700Y-146441401D01*
X141160823Y-146318030D01*
X141160823Y-146235782D01*
X141119700Y-146112411D01*
X141078576Y-146071287D01*
X140297223Y-145701173D02*
X141160823Y-145701173D01*
X140297223Y-145207687D02*
X140790709Y-145577801D01*
X141160823Y-145207687D02*
X140667338Y-145701173D01*
D13*
X142923100Y-63417298D02*
X142974504Y-63520108D01*
X142974504Y-63674322D01*
X142923100Y-63828536D01*
X142820290Y-63931346D01*
X142717480Y-63982751D01*
X142511861Y-64034155D01*
X142357647Y-64034155D01*
X142152028Y-63982751D01*
X142049219Y-63931346D01*
X141946409Y-63828536D01*
X141895004Y-63674322D01*
X141895004Y-63571513D01*
X141946409Y-63417298D01*
X141997814Y-63365894D01*
X142357647Y-63365894D01*
X142357647Y-63571513D01*
X141895004Y-62903251D02*
X142974504Y-62903251D01*
X141895004Y-62286394D01*
X142974504Y-62286394D01*
X141895004Y-61772346D02*
X142974504Y-61772346D01*
X142974504Y-61515322D01*
X142923100Y-61361108D01*
X142820290Y-61258298D01*
X142717480Y-61206894D01*
X142511861Y-61155489D01*
X142357647Y-61155489D01*
X142152028Y-61206894D01*
X142049219Y-61258298D01*
X141946409Y-61361108D01*
X141895004Y-61515322D01*
X141895004Y-61772346D01*
X146337132Y-69582695D02*
X146131513Y-69582695D01*
X146028703Y-69634100D01*
X145925894Y-69736909D01*
X145874489Y-69942528D01*
X145874489Y-70302361D01*
X145925894Y-70507980D01*
X146028703Y-70610790D01*
X146131513Y-70662195D01*
X146337132Y-70662195D01*
X146439941Y-70610790D01*
X146542751Y-70507980D01*
X146594155Y-70302361D01*
X146594155Y-69942528D01*
X146542751Y-69736909D01*
X146439941Y-69634100D01*
X146337132Y-69582695D01*
X145411846Y-70662195D02*
X145411846Y-69582695D01*
X145052013Y-70353766D01*
X144692179Y-69582695D01*
X144692179Y-70662195D01*
X143612679Y-69634100D02*
X143715489Y-69582695D01*
X143869703Y-69582695D01*
X144023917Y-69634100D01*
X144126727Y-69736909D01*
X144178132Y-69839719D01*
X144229536Y-70045338D01*
X144229536Y-70199552D01*
X144178132Y-70405171D01*
X144126727Y-70507980D01*
X144023917Y-70610790D01*
X143869703Y-70662195D01*
X143766894Y-70662195D01*
X143612679Y-70610790D01*
X143561275Y-70559385D01*
X143561275Y-70199552D01*
X143766894Y-70199552D01*
X142276155Y-70662195D02*
X142276155Y-69582695D01*
X141916322Y-70353766D01*
X141556489Y-69582695D01*
X141556489Y-70662195D01*
X141042441Y-70662195D02*
X141042441Y-69582695D01*
X140528394Y-70662195D02*
X140528394Y-69582695D01*
X140271370Y-69582695D01*
X140117155Y-69634100D01*
X140014346Y-69736909D01*
X139962941Y-69839719D01*
X139911536Y-70045338D01*
X139911536Y-70199552D01*
X139962941Y-70405171D01*
X140014346Y-70507980D01*
X140117155Y-70610790D01*
X140271370Y-70662195D01*
X140528394Y-70662195D01*
X139448894Y-70662195D02*
X139448894Y-69582695D01*
X138934846Y-70559385D02*
X138883441Y-70610790D01*
X138934846Y-70662195D01*
X138986251Y-70610790D01*
X138934846Y-70559385D01*
X138934846Y-70662195D01*
X138934846Y-70250957D02*
X138986251Y-69634100D01*
X138934846Y-69582695D01*
X138883441Y-69634100D01*
X138934846Y-70250957D01*
X138934846Y-69582695D01*
X145154671Y-63160275D02*
X144846242Y-63982751D01*
X144537814Y-63160275D01*
X144435004Y-62029370D02*
X144949052Y-62389203D01*
X144435004Y-62646227D02*
X145514504Y-62646227D01*
X145514504Y-62234989D01*
X145463100Y-62132179D01*
X145411695Y-62080775D01*
X145308885Y-62029370D01*
X145154671Y-62029370D01*
X145051861Y-62080775D01*
X145000457Y-62132179D01*
X144949052Y-62234989D01*
X144949052Y-62646227D01*
X145514504Y-61669536D02*
X144435004Y-60949870D01*
X145514504Y-60949870D02*
X144435004Y-61669536D01*
D11*
X138579700Y-149649059D02*
X138620823Y-149731306D01*
X138620823Y-149854678D01*
X138579700Y-149978049D01*
X138497452Y-150060297D01*
X138415204Y-150101420D01*
X138250709Y-150142544D01*
X138127338Y-150142544D01*
X137962842Y-150101420D01*
X137880595Y-150060297D01*
X137798347Y-149978049D01*
X137757223Y-149854678D01*
X137757223Y-149772430D01*
X137798347Y-149649059D01*
X137839471Y-149607935D01*
X138127338Y-149607935D01*
X138127338Y-149772430D01*
X137757223Y-149237820D02*
X138620823Y-149237820D01*
X137757223Y-148744335D01*
X138620823Y-148744335D01*
X137757223Y-148333097D02*
X138620823Y-148333097D01*
X138620823Y-148127478D01*
X138579700Y-148004106D01*
X138497452Y-147921859D01*
X138415204Y-147880735D01*
X138250709Y-147839611D01*
X138127338Y-147839611D01*
X137962842Y-147880735D01*
X137880595Y-147921859D01*
X137798347Y-148004106D01*
X137757223Y-148127478D01*
X137757223Y-148333097D01*
X178869059Y-76517500D02*
X178951306Y-76476376D01*
X179074678Y-76476376D01*
X179198049Y-76517500D01*
X179280297Y-76599747D01*
X179321420Y-76681995D01*
X179362544Y-76846490D01*
X179362544Y-76969861D01*
X179321420Y-77134357D01*
X179280297Y-77216604D01*
X179198049Y-77298852D01*
X179074678Y-77339976D01*
X178992430Y-77339976D01*
X178869059Y-77298852D01*
X178827935Y-77257728D01*
X178827935Y-76969861D01*
X178992430Y-76969861D01*
X178457820Y-77339976D02*
X178457820Y-76476376D01*
X177964335Y-77339976D01*
X177964335Y-76476376D01*
X177553097Y-77339976D02*
X177553097Y-76476376D01*
X177347478Y-76476376D01*
X177224106Y-76517500D01*
X177141859Y-76599747D01*
X177100735Y-76681995D01*
X177059611Y-76846490D01*
X177059611Y-76969861D01*
X177100735Y-77134357D01*
X177141859Y-77216604D01*
X177224106Y-77298852D01*
X177347478Y-77339976D01*
X177553097Y-77339976D01*
D15*
X184659128Y-84298245D02*
X185134108Y-83619702D01*
X185473379Y-84298245D02*
X185473379Y-82873305D01*
X184930545Y-82873305D01*
X184794836Y-82941160D01*
X184726982Y-83009014D01*
X184659128Y-83144722D01*
X184659128Y-83348285D01*
X184726982Y-83483994D01*
X184794836Y-83551848D01*
X184930545Y-83619702D01*
X185473379Y-83619702D01*
X183505605Y-84230391D02*
X183641313Y-84298245D01*
X183912731Y-84298245D01*
X184048439Y-84230391D01*
X184116293Y-84094682D01*
X184116293Y-83551848D01*
X184048439Y-83416140D01*
X183912731Y-83348285D01*
X183641313Y-83348285D01*
X183505605Y-83416140D01*
X183437751Y-83551848D01*
X183437751Y-83687557D01*
X184116293Y-83823265D01*
X182216373Y-84298245D02*
X182216373Y-82873305D01*
X182216373Y-84230391D02*
X182352082Y-84298245D01*
X182623499Y-84298245D01*
X182759208Y-84230391D01*
X182827062Y-84162537D01*
X182894916Y-84026828D01*
X182894916Y-83619702D01*
X182827062Y-83483994D01*
X182759208Y-83416140D01*
X182623499Y-83348285D01*
X182352082Y-83348285D01*
X182216373Y-83416140D01*
X180520016Y-84230391D02*
X180384308Y-84298245D01*
X180112891Y-84298245D01*
X179977182Y-84230391D01*
X179909328Y-84094682D01*
X179909328Y-84026828D01*
X179977182Y-83891120D01*
X180112891Y-83823265D01*
X180316453Y-83823265D01*
X180452162Y-83755411D01*
X180520016Y-83619702D01*
X180520016Y-83551848D01*
X180452162Y-83416140D01*
X180316453Y-83348285D01*
X180112891Y-83348285D01*
X179977182Y-83416140D01*
X179502202Y-83348285D02*
X178959368Y-83348285D01*
X179298639Y-82873305D02*
X179298639Y-84094682D01*
X179230785Y-84230391D01*
X179095076Y-84298245D01*
X178959368Y-84298245D01*
X178484388Y-84298245D02*
X178484388Y-83348285D01*
X178484388Y-83619702D02*
X178416533Y-83483994D01*
X178348679Y-83416140D01*
X178212971Y-83348285D01*
X178077262Y-83348285D01*
X177602282Y-84298245D02*
X177602282Y-83348285D01*
X177602282Y-82873305D02*
X177670136Y-82941160D01*
X177602282Y-83009014D01*
X177534428Y-82941160D01*
X177602282Y-82873305D01*
X177602282Y-83009014D01*
X176923739Y-83348285D02*
X176923739Y-84773225D01*
X176923739Y-83416140D02*
X176788031Y-83348285D01*
X176516613Y-83348285D01*
X176380905Y-83416140D01*
X176313051Y-83483994D01*
X176245196Y-83619702D01*
X176245196Y-84026828D01*
X176313051Y-84162537D01*
X176380905Y-84230391D01*
X176516613Y-84298245D01*
X176788031Y-84298245D01*
X176923739Y-84230391D01*
X175091673Y-84230391D02*
X175227382Y-84298245D01*
X175498799Y-84298245D01*
X175634508Y-84230391D01*
X175702362Y-84094682D01*
X175702362Y-83551848D01*
X175634508Y-83416140D01*
X175498799Y-83348285D01*
X175227382Y-83348285D01*
X175091673Y-83416140D01*
X175023819Y-83551848D01*
X175023819Y-83687557D01*
X175702362Y-83823265D01*
D16*
X180920895Y-57505600D02*
X181332133Y-57299980D01*
X181948990Y-57299980D01*
X182565847Y-57505600D01*
X182977085Y-57916838D01*
X183182704Y-58328076D01*
X183388323Y-59150552D01*
X183388323Y-59767409D01*
X183182704Y-60589885D01*
X182977085Y-61001123D01*
X182565847Y-61412361D01*
X181948990Y-61617980D01*
X181537752Y-61617980D01*
X180920895Y-61412361D01*
X180715276Y-61206742D01*
X180715276Y-59767409D01*
X181537752Y-59767409D01*
X178864704Y-61617980D02*
X178864704Y-58739314D01*
X178864704Y-59561790D02*
X178659085Y-59150552D01*
X178453466Y-58944933D01*
X178042228Y-58739314D01*
X177630990Y-58739314D01*
X176191657Y-61617980D02*
X176191657Y-58739314D01*
X176191657Y-57299980D02*
X176397276Y-57505600D01*
X176191657Y-57711219D01*
X175986038Y-57505600D01*
X176191657Y-57299980D01*
X176191657Y-57711219D01*
X172284895Y-61617980D02*
X172284895Y-57299980D01*
X172284895Y-61412361D02*
X172696133Y-61617980D01*
X173518609Y-61617980D01*
X173929847Y-61412361D01*
X174135466Y-61206742D01*
X174341085Y-60795504D01*
X174341085Y-59561790D01*
X174135466Y-59150552D01*
X173929847Y-58944933D01*
X173518609Y-58739314D01*
X172696133Y-58739314D01*
X172284895Y-58944933D01*
X170434323Y-61412361D02*
X170023085Y-61617980D01*
X169200609Y-61617980D01*
X168789371Y-61412361D01*
X168583752Y-61001123D01*
X168583752Y-60795504D01*
X168789371Y-60384266D01*
X169200609Y-60178647D01*
X169817466Y-60178647D01*
X170228704Y-59973028D01*
X170434323Y-59561790D01*
X170434323Y-59356171D01*
X170228704Y-58944933D01*
X169817466Y-58739314D01*
X169200609Y-58739314D01*
X168789371Y-58944933D01*
D17*
X144773181Y-155652288D02*
X144655978Y-155691356D01*
X144616911Y-155730423D01*
X144577843Y-155808559D01*
X144577843Y-155925761D01*
X144616911Y-156003897D01*
X144655978Y-156042964D01*
X144734113Y-156082032D01*
X145046654Y-156082032D01*
X145046654Y-155261612D01*
X144773181Y-155261612D01*
X144695046Y-155300680D01*
X144655978Y-155339747D01*
X144616911Y-155417882D01*
X144616911Y-155496018D01*
X144655978Y-155574153D01*
X144695046Y-155613220D01*
X144773181Y-155652288D01*
X145046654Y-155652288D01*
X144069964Y-155261612D02*
X143913693Y-155261612D01*
X143835558Y-155300680D01*
X143757423Y-155378815D01*
X143718355Y-155535085D01*
X143718355Y-155808559D01*
X143757423Y-155964829D01*
X143835558Y-156042964D01*
X143913693Y-156082032D01*
X144069964Y-156082032D01*
X144148099Y-156042964D01*
X144226234Y-155964829D01*
X144265302Y-155808559D01*
X144265302Y-155535085D01*
X144226234Y-155378815D01*
X144148099Y-155300680D01*
X144069964Y-155261612D01*
X143366747Y-156082032D02*
X143366747Y-155261612D01*
X142897935Y-156082032D01*
X142897935Y-155261612D01*
X142507259Y-155261612D02*
X142507259Y-155925761D01*
X142468192Y-156003897D01*
X142429124Y-156042964D01*
X142350989Y-156082032D01*
X142194718Y-156082032D01*
X142116583Y-156042964D01*
X142077515Y-156003897D01*
X142038448Y-155925761D01*
X142038448Y-155261612D01*
X141686839Y-156042964D02*
X141569636Y-156082032D01*
X141374298Y-156082032D01*
X141296163Y-156042964D01*
X141257095Y-156003897D01*
X141218028Y-155925761D01*
X141218028Y-155847626D01*
X141257095Y-155769491D01*
X141296163Y-155730423D01*
X141374298Y-155691356D01*
X141530569Y-155652288D01*
X141608704Y-155613220D01*
X141647772Y-155574153D01*
X141686839Y-155496018D01*
X141686839Y-155417882D01*
X141647772Y-155339747D01*
X141608704Y-155300680D01*
X141530569Y-155261612D01*
X141335231Y-155261612D01*
X141218028Y-155300680D01*
X139967864Y-155652288D02*
X139850661Y-155691356D01*
X139811593Y-155730423D01*
X139772526Y-155808559D01*
X139772526Y-155925761D01*
X139811593Y-156003897D01*
X139850661Y-156042964D01*
X139928796Y-156082032D01*
X140241337Y-156082032D01*
X140241337Y-155261612D01*
X139967864Y-155261612D01*
X139889729Y-155300680D01*
X139850661Y-155339747D01*
X139811593Y-155417882D01*
X139811593Y-155496018D01*
X139850661Y-155574153D01*
X139889729Y-155613220D01*
X139967864Y-155652288D01*
X140241337Y-155652288D01*
X139459985Y-155847626D02*
X139069309Y-155847626D01*
X139538120Y-156082032D02*
X139264647Y-155261612D01*
X138991173Y-156082032D01*
X138717700Y-156082032D02*
X138717700Y-155261612D01*
X138444227Y-155261612D02*
X137975415Y-155261612D01*
X138209821Y-156082032D02*
X138209821Y-155261612D01*
X137701942Y-156003897D02*
X137662874Y-156042964D01*
X137701942Y-156082032D01*
X137741010Y-156042964D01*
X137701942Y-156003897D01*
X137701942Y-156082032D01*
X137701942Y-155769491D02*
X137741010Y-155300680D01*
X137701942Y-155261612D01*
X137662874Y-155300680D01*
X137701942Y-155769491D01*
X137701942Y-155261612D01*
D11*
X179321420Y-79550985D02*
X178663440Y-79550985D01*
X177799840Y-79879976D02*
X178293325Y-79879976D01*
X178046582Y-79879976D02*
X178046582Y-79016376D01*
X178128830Y-79139747D01*
X178211078Y-79221995D01*
X178293325Y-79263119D01*
X177470849Y-79098623D02*
X177429725Y-79057500D01*
X177347478Y-79016376D01*
X177141859Y-79016376D01*
X177059611Y-79057500D01*
X177018487Y-79098623D01*
X176977363Y-79180871D01*
X176977363Y-79263119D01*
X177018487Y-79386490D01*
X177511973Y-79879976D01*
X176977363Y-79879976D01*
X176730620Y-79016376D02*
X176442754Y-79879976D01*
X176154887Y-79016376D01*
X178869059Y-71437500D02*
X178951306Y-71396376D01*
X179074678Y-71396376D01*
X179198049Y-71437500D01*
X179280297Y-71519747D01*
X179321420Y-71601995D01*
X179362544Y-71766490D01*
X179362544Y-71889861D01*
X179321420Y-72054357D01*
X179280297Y-72136604D01*
X179198049Y-72218852D01*
X179074678Y-72259976D01*
X178992430Y-72259976D01*
X178869059Y-72218852D01*
X178827935Y-72177728D01*
X178827935Y-71889861D01*
X178992430Y-71889861D01*
X178457820Y-72259976D02*
X178457820Y-71396376D01*
X177964335Y-72259976D01*
X177964335Y-71396376D01*
X177553097Y-72259976D02*
X177553097Y-71396376D01*
X177347478Y-71396376D01*
X177224106Y-71437500D01*
X177141859Y-71519747D01*
X177100735Y-71601995D01*
X177059611Y-71766490D01*
X177059611Y-71889861D01*
X177100735Y-72054357D01*
X177141859Y-72136604D01*
X177224106Y-72218852D01*
X177347478Y-72259976D01*
X177553097Y-72259976D01*
D14*
X183997567Y-63642240D02*
X184083927Y-63685420D01*
X184256647Y-63685420D01*
X184343007Y-63642240D01*
X184386187Y-63599060D01*
X184429367Y-63512700D01*
X184429367Y-63253620D01*
X184386187Y-63167260D01*
X184343007Y-63124080D01*
X184256647Y-63080900D01*
X184083927Y-63080900D01*
X183997567Y-63124080D01*
X183220327Y-63642240D02*
X183306687Y-63685420D01*
X183479407Y-63685420D01*
X183565767Y-63642240D01*
X183608947Y-63599060D01*
X183652127Y-63512700D01*
X183652127Y-63253620D01*
X183608947Y-63167260D01*
X183565767Y-63124080D01*
X183479407Y-63080900D01*
X183306687Y-63080900D01*
X183220327Y-63124080D01*
X182831707Y-63339980D02*
X182140827Y-63339980D01*
X181709027Y-63685420D02*
X181709027Y-62778640D01*
X181709027Y-63124080D02*
X181622667Y-63080900D01*
X181449947Y-63080900D01*
X181363587Y-63124080D01*
X181320407Y-63167260D01*
X181277227Y-63253620D01*
X181277227Y-63512700D01*
X181320407Y-63599060D01*
X181363587Y-63642240D01*
X181449947Y-63685420D01*
X181622667Y-63685420D01*
X181709027Y-63642240D01*
X180974967Y-63080900D02*
X180759067Y-63685420D01*
X180543167Y-63080900D02*
X180759067Y-63685420D01*
X180845427Y-63901320D01*
X180888607Y-63944500D01*
X180974967Y-63987680D01*
X180197727Y-63339980D02*
X179506847Y-63339980D01*
X179118227Y-63642240D02*
X179031867Y-63685420D01*
X178859147Y-63685420D01*
X178772787Y-63642240D01*
X178729607Y-63555880D01*
X178729607Y-63512700D01*
X178772787Y-63426340D01*
X178859147Y-63383160D01*
X178988687Y-63383160D01*
X179075047Y-63339980D01*
X179118227Y-63253620D01*
X179118227Y-63210440D01*
X179075047Y-63124080D01*
X178988687Y-63080900D01*
X178859147Y-63080900D01*
X178772787Y-63124080D01*
X177952367Y-63685420D02*
X177952367Y-63210440D01*
X177995547Y-63124080D01*
X178081907Y-63080900D01*
X178254627Y-63080900D01*
X178340987Y-63124080D01*
X177952367Y-63642240D02*
X178038727Y-63685420D01*
X178254627Y-63685420D01*
X178340987Y-63642240D01*
X178384167Y-63555880D01*
X178384167Y-63469520D01*
X178340987Y-63383160D01*
X178254627Y-63339980D01*
X178038727Y-63339980D01*
X177952367Y-63296800D01*
X176829687Y-63210440D02*
X176527427Y-63210440D01*
X176397887Y-63685420D02*
X176829687Y-63685420D01*
X176829687Y-62778640D01*
X176397887Y-62778640D01*
X176527427Y-62433200D02*
X176656967Y-62562740D01*
X176009267Y-63685420D02*
X176009267Y-63080900D01*
X176009267Y-63167260D02*
X175966087Y-63124080D01*
X175879727Y-63080900D01*
X175750187Y-63080900D01*
X175663827Y-63124080D01*
X175620647Y-63210440D01*
X175620647Y-63685420D01*
X175620647Y-63210440D02*
X175577467Y-63124080D01*
X175491107Y-63080900D01*
X175361567Y-63080900D01*
X175275207Y-63124080D01*
X175232027Y-63210440D01*
X175232027Y-63685420D01*
X174800227Y-63685420D02*
X174800227Y-63080900D01*
X174800227Y-62778640D02*
X174843407Y-62821820D01*
X174800227Y-62865000D01*
X174757047Y-62821820D01*
X174800227Y-62778640D01*
X174800227Y-62865000D01*
X174238887Y-63685420D02*
X174325247Y-63642240D01*
X174368427Y-63555880D01*
X174368427Y-62778640D01*
X173893447Y-63685420D02*
X173893447Y-63080900D01*
X173893447Y-62778640D02*
X173936627Y-62821820D01*
X173893447Y-62865000D01*
X173850267Y-62821820D01*
X173893447Y-62778640D01*
X173893447Y-62865000D01*
X173116207Y-63642240D02*
X173202567Y-63685420D01*
X173375287Y-63685420D01*
X173461647Y-63642240D01*
X173504827Y-63555880D01*
X173504827Y-63210440D01*
X173461647Y-63124080D01*
X173375287Y-63080900D01*
X173202567Y-63080900D01*
X173116207Y-63124080D01*
X173073027Y-63210440D01*
X173073027Y-63296800D01*
X173504827Y-63383160D01*
X171518547Y-62821820D02*
X171604907Y-62778640D01*
X171734447Y-62778640D01*
X171863987Y-62821820D01*
X171950347Y-62908180D01*
X171993527Y-62994540D01*
X172036707Y-63167260D01*
X172036707Y-63296800D01*
X171993527Y-63469520D01*
X171950347Y-63555880D01*
X171863987Y-63642240D01*
X171734447Y-63685420D01*
X171648087Y-63685420D01*
X171518547Y-63642240D01*
X171475367Y-63599060D01*
X171475367Y-63296800D01*
X171648087Y-63296800D01*
X171086747Y-63685420D02*
X171086747Y-63080900D01*
X171086747Y-62778640D02*
X171129927Y-62821820D01*
X171086747Y-62865000D01*
X171043567Y-62821820D01*
X171086747Y-62778640D01*
X171086747Y-62865000D01*
X170525407Y-63685420D02*
X170611767Y-63642240D01*
X170654947Y-63555880D01*
X170654947Y-62778640D01*
X170050427Y-63685420D02*
X170136787Y-63642240D01*
X170179967Y-63555880D01*
X170179967Y-62778640D01*
X169359547Y-63642240D02*
X169445907Y-63685420D01*
X169618627Y-63685420D01*
X169704987Y-63642240D01*
X169748167Y-63555880D01*
X169748167Y-63210440D01*
X169704987Y-63124080D01*
X169618627Y-63080900D01*
X169445907Y-63080900D01*
X169359547Y-63124080D01*
X169316367Y-63210440D01*
X169316367Y-63296800D01*
X169748167Y-63383160D01*
X169057287Y-63080900D02*
X168711847Y-63080900D01*
X168927747Y-62778640D02*
X168927747Y-63555880D01*
X168884567Y-63642240D01*
X168798207Y-63685420D01*
X168711847Y-63685420D01*
D11*
X179321420Y-69390985D02*
X178663440Y-69390985D01*
X178992430Y-69719976D02*
X178992430Y-69061995D01*
X177799840Y-69719976D02*
X178293325Y-69719976D01*
X178046582Y-69719976D02*
X178046582Y-68856376D01*
X178128830Y-68979747D01*
X178211078Y-69061995D01*
X178293325Y-69103119D01*
X177470849Y-68938623D02*
X177429725Y-68897500D01*
X177347478Y-68856376D01*
X177141859Y-68856376D01*
X177059611Y-68897500D01*
X177018487Y-68938623D01*
X176977363Y-69020871D01*
X176977363Y-69103119D01*
X177018487Y-69226490D01*
X177511973Y-69719976D01*
X176977363Y-69719976D01*
X176730620Y-68856376D02*
X176442754Y-69719976D01*
X176154887Y-68856376D01*
D18*
%TO.C,JP1*%
X144701100Y-151993600D02*
X144066100Y-151358600D01*
X140256100Y-151358600D02*
X139621100Y-151993600D01*
X138986100Y-153898600D02*
X139621100Y-153263600D01*
X142796100Y-153898600D02*
X144066100Y-153898600D01*
X137716100Y-153898600D02*
X137081100Y-153263600D01*
X139621100Y-153263600D02*
X140256100Y-153898600D01*
X139621100Y-151993600D02*
X138986100Y-151358600D01*
X144701100Y-153263600D02*
X144701100Y-151993600D01*
X142796100Y-151358600D02*
X142161100Y-151993600D01*
X144066100Y-153898600D02*
X144701100Y-153263600D01*
X142161100Y-153263600D02*
X142796100Y-153898600D01*
X144066100Y-151358600D02*
X142796100Y-151358600D01*
X137081100Y-153263600D02*
X137081100Y-151993600D01*
X138986100Y-151358600D02*
X137716100Y-151358600D01*
X137081100Y-151993600D02*
X137716100Y-151358600D01*
X141526100Y-151358600D02*
X140256100Y-151358600D01*
X141526100Y-153898600D02*
X142161100Y-153263600D01*
X140256100Y-153898600D02*
X141526100Y-153898600D01*
X137716100Y-153898600D02*
X138986100Y-153898600D01*
X142161100Y-151993600D02*
X141526100Y-151358600D01*
%TO.C,J15*%
X155496100Y-88811100D02*
X156766100Y-88811100D01*
X154226100Y-83731100D02*
X154861100Y-84366100D01*
X157401100Y-88176100D02*
X157401100Y-84366100D01*
X155496100Y-83731100D02*
X156766100Y-83731100D01*
X152956100Y-88811100D02*
X154226100Y-88811100D01*
X152956100Y-83731100D02*
X154226100Y-83731100D01*
X150416100Y-83731100D02*
X151686100Y-83731100D01*
X150416100Y-88811100D02*
X151686100Y-88811100D01*
X149781100Y-84366100D02*
X149781100Y-88176100D01*
X151686100Y-88811100D02*
X152321100Y-88176100D01*
X154861100Y-88176100D02*
X155496100Y-88811100D01*
X151686100Y-83731100D02*
X152321100Y-84366100D01*
X154226100Y-88811100D02*
X154861100Y-88176100D01*
X149781100Y-88176100D02*
X150416100Y-88811100D01*
X152321100Y-84366100D02*
X152956100Y-83731100D01*
X152321100Y-88176100D02*
X152321100Y-84366100D01*
X156766100Y-88811100D02*
X157401100Y-88176100D01*
X151686100Y-83396100D02*
X150416100Y-83396100D01*
X149781100Y-84366100D02*
X150416100Y-83731100D01*
X152321100Y-88176100D02*
X152956100Y-88811100D01*
X154861100Y-84366100D02*
X155496100Y-83731100D01*
X156766100Y-83731100D02*
X157401100Y-84366100D01*
X154861100Y-88176100D02*
X154861100Y-84366100D01*
D11*
%TO.C,J16*%
X180578600Y-78968600D02*
X180578600Y-80238600D01*
X181213600Y-78333600D02*
X180578600Y-78968600D01*
X185658600Y-72618600D02*
X185023600Y-73253600D01*
D18*
X186293600Y-68808600D02*
X186293600Y-70078600D01*
D11*
X180578600Y-70078600D02*
X181213600Y-70713600D01*
X185023600Y-70713600D02*
X185658600Y-71348600D01*
X185658600Y-76428600D02*
X185658600Y-77698600D01*
X185658600Y-75158600D02*
X185023600Y-75793600D01*
X185658600Y-78968600D02*
X185658600Y-80238600D01*
X185023600Y-73253600D02*
X185658600Y-73888600D01*
X181213600Y-75793600D02*
X185023600Y-75793600D01*
X185658600Y-68808600D02*
X185658600Y-70078600D01*
X180578600Y-72618600D02*
X181213600Y-73253600D01*
X180578600Y-77698600D02*
X181213600Y-78333600D01*
X181213600Y-68173600D02*
X180578600Y-68808600D01*
X180578600Y-71348600D02*
X180578600Y-72618600D01*
X180578600Y-73888600D02*
X180578600Y-75158600D01*
X185023600Y-78333600D02*
X185658600Y-78968600D01*
X180578600Y-75158600D02*
X181213600Y-75793600D01*
X181213600Y-73253600D02*
X185023600Y-73253600D01*
X181213600Y-80873600D02*
X185023600Y-80873600D01*
X180578600Y-80238600D02*
X181213600Y-80873600D01*
X185023600Y-68173600D02*
X181213600Y-68173600D01*
X181213600Y-70713600D02*
X185023600Y-70713600D01*
X185658600Y-73888600D02*
X185658600Y-75158600D01*
X181213600Y-70713600D02*
X180578600Y-71348600D01*
X185658600Y-70078600D02*
X185023600Y-70713600D01*
X180578600Y-76428600D02*
X180578600Y-77698600D01*
X185658600Y-77698600D02*
X185023600Y-78333600D01*
X181213600Y-73253600D02*
X180578600Y-73888600D01*
X181213600Y-75793600D02*
X180578600Y-76428600D01*
X185658600Y-71348600D02*
X185658600Y-72618600D01*
X180578600Y-68808600D02*
X180578600Y-70078600D01*
X181213600Y-78333600D02*
X185023600Y-78333600D01*
X185023600Y-75793600D02*
X185658600Y-76428600D01*
X185023600Y-68173600D02*
X185658600Y-68808600D01*
X185658600Y-80238600D02*
X185023600Y-80873600D01*
G36*
X184642600Y-74777600D02*
G01*
X184134600Y-74777600D01*
X184134600Y-74269600D01*
X184642600Y-74269600D01*
X184642600Y-74777600D01*
G37*
D18*
%TO.C,JP2*%
X146288600Y-67538600D02*
X145653600Y-68173600D01*
X140573600Y-65633600D02*
X139303600Y-65633600D01*
X140573600Y-68173600D02*
X141208600Y-67538600D01*
X143113600Y-65633600D02*
X141843600Y-65633600D01*
X139303600Y-65633600D02*
X138668600Y-66268600D01*
X143748600Y-66268600D02*
X143113600Y-65633600D01*
X139303600Y-68173600D02*
X140573600Y-68173600D01*
X141208600Y-66268600D02*
X140573600Y-65633600D01*
X143113600Y-68173600D02*
X143748600Y-67538600D01*
X144383600Y-65633600D02*
X143748600Y-66268600D01*
X141208600Y-67538600D02*
X141843600Y-68173600D01*
X145653600Y-65633600D02*
X144383600Y-65633600D01*
X141843600Y-68173600D02*
X143113600Y-68173600D01*
X146288600Y-66268600D02*
X146288600Y-67538600D01*
X145653600Y-65633600D02*
X146288600Y-66268600D01*
X138668600Y-66268600D02*
X138668600Y-67538600D01*
X138668600Y-67538600D02*
X139303600Y-68173600D01*
X144383600Y-68173600D02*
X145653600Y-68173600D01*
X143748600Y-67538600D02*
X144383600Y-68173600D01*
X141843600Y-65633600D02*
X141208600Y-66268600D01*
%TD*%
%LPC*%
D19*
%TO.C,J4*%
X117713600Y-124688600D03*
D20*
X123428600Y-124688600D03*
X120888600Y-124688600D03*
X113268600Y-124688600D03*
%TD*%
D19*
%TO.C,J13*%
X168513600Y-150088600D03*
D20*
X174228600Y-150088600D03*
X171688600Y-150088600D03*
X164068600Y-150088600D03*
%TD*%
D19*
%TO.C,J9*%
X168513600Y-138023600D03*
D20*
X174228600Y-138023600D03*
X171688600Y-138023600D03*
X164068600Y-138023600D03*
%TD*%
D19*
%TO.C,J8*%
X156448600Y-138023600D03*
D20*
X162163600Y-138023600D03*
X159623600Y-138023600D03*
X152003600Y-138023600D03*
%TD*%
D19*
%TO.C,J6*%
X168513600Y-125958600D03*
D20*
X174228600Y-125958600D03*
X171688600Y-125958600D03*
X164068600Y-125958600D03*
%TD*%
D21*
%TO.C,R1*%
X134818600Y-66918600D03*
X132318600Y-66918600D03*
X129818600Y-66918600D03*
D22*
X137018600Y-59918600D03*
X127618600Y-59918600D03*
%TD*%
D21*
%TO.C,R42*%
X134818600Y-131788600D03*
X132318600Y-131788600D03*
X129818600Y-131788600D03*
D22*
X136718600Y-124688600D03*
X127918600Y-124688600D03*
%TD*%
D19*
%TO.C,J10*%
X180578600Y-138023600D03*
D20*
X186293600Y-138023600D03*
X183753600Y-138023600D03*
X176133600Y-138023600D03*
%TD*%
D19*
%TO.C,J3*%
X117713600Y-103098600D03*
D20*
X123428600Y-103098600D03*
X120888600Y-103098600D03*
X113268600Y-103098600D03*
%TD*%
D21*
%TO.C,R2*%
X158948600Y-66918600D03*
X156448600Y-66918600D03*
X153948600Y-66918600D03*
D22*
X161148600Y-59918600D03*
X151748600Y-59918600D03*
%TD*%
D23*
%TO.C,LED2*%
X157718600Y-115798600D03*
X155178600Y-115798600D03*
%TD*%
D19*
%TO.C,J7*%
X180578600Y-125958600D03*
D20*
X186293600Y-125958600D03*
X183753600Y-125958600D03*
X176133600Y-125958600D03*
%TD*%
D19*
%TO.C,J11*%
X117713600Y-146278600D03*
D20*
X123428600Y-146278600D03*
X120888600Y-146278600D03*
X113268600Y-146278600D03*
%TD*%
D19*
%TO.C,J1*%
X117713600Y-59918600D03*
D20*
X123428600Y-59918600D03*
X120888600Y-59918600D03*
X113268600Y-59918600D03*
%TD*%
D19*
%TO.C,J5*%
X156448600Y-125958600D03*
D20*
X162163600Y-125958600D03*
X159623600Y-125958600D03*
X152003600Y-125958600D03*
%TD*%
D23*
%TO.C,LED3*%
X169783600Y-115798600D03*
X167243600Y-115798600D03*
%TD*%
D21*
%TO.C,R25*%
X134818600Y-110098600D03*
X132318600Y-110098600D03*
X129818600Y-110098600D03*
D22*
X137018600Y-103098600D03*
X127618600Y-103098600D03*
%TD*%
D19*
%TO.C,J14*%
X180578600Y-150088600D03*
D20*
X186293600Y-150088600D03*
X183753600Y-150088600D03*
X176133600Y-150088600D03*
%TD*%
D21*
%TO.C,R46*%
X134818600Y-153278600D03*
X132318600Y-153278600D03*
X129818600Y-153278600D03*
D22*
X137018600Y-146278600D03*
X127618600Y-146278600D03*
%TD*%
D19*
%TO.C,J2*%
X117713600Y-81508600D03*
D20*
X123428600Y-81508600D03*
X120888600Y-81508600D03*
X113268600Y-81508600D03*
%TD*%
D21*
%TO.C,R5*%
X171013600Y-88508600D03*
X168513600Y-88508600D03*
X166013600Y-88508600D03*
D22*
X173213600Y-81508600D03*
X163813600Y-81508600D03*
%TD*%
D23*
%TO.C,LED4*%
X181848600Y-115798600D03*
X179308600Y-115798600D03*
%TD*%
D21*
%TO.C,R26*%
X183078600Y-110098600D03*
X180578600Y-110098600D03*
X178078600Y-110098600D03*
D22*
X185278600Y-103098600D03*
X175878600Y-103098600D03*
%TD*%
D19*
%TO.C,J12*%
X156448600Y-150088600D03*
D20*
X162163600Y-150088600D03*
X159623600Y-150088600D03*
X152003600Y-150088600D03*
%TD*%
D24*
%TO.C,SW1*%
X134818600Y-79000000D03*
X134818600Y-84000000D03*
D25*
X129818600Y-79000000D03*
D24*
X129318600Y-81500000D03*
X135318600Y-81500000D03*
X129818600Y-84000000D03*
%TD*%
D26*
%TO.C,JP1*%
X138351100Y-152628600D03*
X140891100Y-152628600D03*
X143431100Y-152628600D03*
%TD*%
D27*
%TO.C,J15*%
X151051100Y-85001100D03*
X151051100Y-87541100D03*
X153591100Y-85001100D03*
X153591100Y-87541100D03*
X156131100Y-85001100D03*
X156131100Y-87541100D03*
%TD*%
D28*
%TO.C,J16*%
X184388600Y-69443600D03*
X181848600Y-69443600D03*
X184388600Y-71983600D03*
X181848600Y-71983600D03*
X184388600Y-74523600D03*
X181848600Y-74523600D03*
X184388600Y-77063600D03*
X181848600Y-77063600D03*
X184388600Y-79603600D03*
X181848600Y-79603600D03*
%TD*%
D26*
%TO.C,JP2*%
X145018600Y-66903600D03*
X142478600Y-66903600D03*
X139938600Y-66903600D03*
%TD*%
M02*
