M48
; DRILL file {KiCad (6.0.11-0)} date 2023 March 06, Monday 22:39:13
; FORMAT={-:-/ absolute / inch / decimal}
; #@! TF.CreationDate,2023-03-06T22:39:13+01:00
; #@! TF.GenerationSoftware,Kicad,Pcbnew,(6.0.11-0)
; #@! TF.FileFunction,Plated,1,2,PTH
FMAT,2
INCH
; #@! TA.AperFunction,Plated,PTH,ViaDrill
T1C0.0236
; #@! TA.AperFunction,Plated,PTH,ComponentDrill
T2C0.0320
; #@! TA.AperFunction,Plated,PTH,ComponentDrill
T3C0.0354
; #@! TA.AperFunction,Plated,PTH,ComponentDrill
T4C0.0394
; #@! TA.AperFunction,Plated,PTH,ComponentDrill
T5C0.0400
; #@! TA.AperFunction,Plated,PTH,ComponentDrill
T6C0.0591
; #@! TA.AperFunction,Plated,PTH,ComponentDrill
T7C0.0630
%
G90
G05
T1
X4.3594Y-2.159
X4.3594Y-2.559
X4.3594Y-2.959
X4.3594Y-3.359
X4.3594Y-3.759
X4.3594Y-4.159
X4.3594Y-4.559
X4.3594Y-4.959
X4.3594Y-5.359
X4.3594Y-5.759
X4.3594Y-6.109
X4.5669Y-2.874
X4.5866Y-2.7756
X4.6344Y-3.734
X4.7094Y-3.709
X4.7594Y-2.159
X4.7594Y-6.109
X4.8031Y-3.0118
X4.9213Y-2.9724
X5.0Y-2.7756
X5.1344Y-6.109
X5.1594Y-2.159
X5.2094Y-3.5965
X5.2094Y-4.509
X5.2344Y-3.6465
X5.2469Y-3.559
X5.3344Y-5.084
X5.3344Y-5.309
X5.4844Y-5.184
X5.4969Y-3.734
X5.5094Y-3.7965
X5.5469Y-2.859
X5.5594Y-2.159
X5.5969Y-4.709
X5.6719Y-4.359
X5.6719Y-4.559
X5.6844Y-3.559
X5.7219Y-4.0215
X5.7219Y-4.384
X5.7283Y-3.4449
X5.7344Y-2.959
X5.7344Y-3.659
X5.7719Y-3.6215
X5.7844Y-4.409
X5.8094Y-3.409
X5.8094Y-4.584
X5.8094Y-4.884
X5.8094Y-4.9715
X5.8094Y-5.034
X5.8219Y-3.5965
X5.8219Y-3.984
X5.8219Y-4.6465
X5.8219Y-4.7215
X5.8344Y-4.434
X5.8719Y-5.184
X5.8844Y-4.334
X5.8844Y-4.409
X5.9094Y-2.4715
X5.9094Y-2.909
X5.9094Y-3.609
X5.9094Y-3.934
X5.9094Y-4.084
X5.9344Y-4.434
X5.9469Y-3.7965
X5.9594Y-2.159
X5.9594Y-5.159
X5.9969Y-3.659
X6.0844Y-3.234
X6.1344Y-2.9715
X6.1344Y-3.209
X6.1594Y-4.0215
X6.2594Y-3.609
X6.2594Y-3.984
X6.3219Y-3.634
X6.3594Y-2.759
X6.3594Y-4.559
X6.3719Y-3.934
X6.3719Y-4.084
X6.3844Y-3.3465
X6.3844Y-3.4715
X6.4094Y-2.159
X6.4094Y-3.7965
X6.4594Y-2.884
X6.4594Y-3.009
X6.4594Y-3.459
X6.4594Y-3.659
X6.6219Y-2.9465
X6.6219Y-4.0215
X6.6844Y-2.9465
X6.6844Y-3.009
X6.7219Y-3.984
X6.7469Y-2.884
X6.7469Y-2.9465
X6.7469Y-3.009
X6.7844Y-3.834
X6.8094Y-2.884
X6.8094Y-2.9465
X6.8094Y-3.009
X6.8094Y-4.259
X6.8594Y-2.159
X6.8719Y-3.009
X6.9094Y-3.734
X6.9344Y-3.009
X6.9344Y-6.109
X7.3344Y-2.159
X7.3344Y-2.559
X7.3344Y-3.359
X7.3344Y-3.759
X7.3344Y-4.159
X7.3344Y-5.759
X7.3344Y-6.109
T2
X6.1094Y-4.559
X6.2094Y-4.559
X6.5844Y-4.559
X6.6844Y-4.559
X7.0594Y-4.559
X7.1594Y-4.559
T3
X5.0913Y-3.2087
X5.111Y-3.1102
X5.111Y-3.3071
X5.3078Y-3.1102
X5.3078Y-3.3071
X5.3275Y-3.2087
T4
X5.111Y-2.6346
X5.111Y-4.3346
X5.111Y-5.1885
X5.111Y-6.0346
X5.2094Y-2.6346
X5.2094Y-4.3346
X5.2094Y-5.1885
X5.2094Y-6.0346
X5.3078Y-2.6346
X5.3078Y-4.3346
X5.3078Y-5.1885
X5.3078Y-6.0346
X6.061Y-2.6346
X6.1594Y-2.6346
X6.2578Y-2.6346
X6.536Y-3.4846
X6.6344Y-3.4846
X6.7328Y-3.4846
X7.011Y-4.3346
X7.1094Y-4.3346
X7.2078Y-4.3346
T5
X4.4594Y-2.359
X4.4594Y-3.209
X4.4594Y-4.059
X4.4594Y-4.909
X4.4594Y-5.759
X4.7594Y-2.359
X4.7594Y-3.209
X4.7594Y-4.059
X4.7594Y-4.909
X4.7594Y-5.759
X4.8594Y-2.359
X4.8594Y-3.209
X4.8594Y-4.059
X4.8594Y-4.909
X4.8594Y-5.759
X5.4469Y-6.009
X5.5094Y-2.634
X5.5469Y-6.009
X5.6094Y-2.634
X5.6469Y-6.009
X5.7094Y-2.634
X5.9469Y-3.3465
X5.9469Y-3.4465
X5.9844Y-4.959
X5.9844Y-5.434
X5.9844Y-5.909
X6.0469Y-3.3465
X6.0469Y-3.4465
X6.1469Y-3.3465
X6.1469Y-3.4465
X6.2844Y-4.959
X6.2844Y-5.434
X6.2844Y-5.909
X6.3844Y-4.959
X6.3844Y-5.434
X6.3844Y-5.909
X6.4594Y-4.959
X6.4594Y-5.434
X6.4594Y-5.909
X6.7594Y-4.959
X6.7594Y-5.434
X6.7594Y-5.909
X6.8594Y-4.959
X6.8594Y-5.434
X6.8594Y-5.909
X6.9344Y-4.959
X6.9344Y-5.434
X6.9344Y-5.909
X7.1594Y-2.734
X7.1594Y-2.834
X7.1594Y-2.934
X7.1594Y-3.034
X7.1594Y-3.134
X7.2344Y-4.959
X7.2344Y-5.434
X7.2344Y-5.909
X7.2594Y-2.734
X7.2594Y-2.834
X7.2594Y-2.934
X7.2594Y-3.034
X7.2594Y-3.134
X7.3344Y-4.959
X7.3344Y-5.434
X7.3344Y-5.909
T6
X5.0244Y-2.359
X5.0244Y-4.059
X5.0244Y-5.759
X5.3944Y-2.359
X5.3944Y-4.059
X5.3944Y-5.759
X5.9744Y-2.359
X6.3444Y-2.359
X6.4494Y-3.209
X6.8194Y-3.209
X6.9244Y-4.059
X7.2944Y-4.059
T7
X5.0362Y-4.909
X5.3826Y-4.909
T0
M30
