M48
; DRILL file {KiCad (6.0.11-0)} date 2023 May 29, Monday 14:14:04
; FORMAT={-:-/ absolute / inch / decimal}
; #@! TF.CreationDate,2023-05-29T14:14:04+02:00
; #@! TF.GenerationSoftware,Kicad,Pcbnew,(6.0.11-0)
; #@! TF.FileFunction,Plated,1,2,PTH
FMAT,2
INCH
; #@! TA.AperFunction,Plated,PTH,ViaDrill
T1C0.0236
; #@! TA.AperFunction,Plated,PTH,ComponentDrill
T2C0.0236
; #@! TA.AperFunction,Plated,PTH,ComponentDrill
T3C0.0240
; #@! TA.AperFunction,Plated,PTH,ComponentDrill
T4C0.0276
; #@! TA.AperFunction,Plated,PTH,ComponentDrill
T5C0.0394
; #@! TA.AperFunction,Plated,PTH,ComponentDrill
T6C0.0400
; #@! TA.AperFunction,Plated,PTH,ComponentDrill
T7C0.0591
; #@! TA.AperFunction,Plated,PTH,ComponentDrill
T8C0.0866
%
G90
G05
T1
X4.9465Y-2.334
X4.9465Y-2.734
X4.9465Y-2.884
X4.9465Y-5.934
X5.009Y-2.8215
X5.0965Y-2.609
X5.184Y-2.084
X5.1965Y-3.384
X5.209Y-3.134
X5.209Y-3.609
X5.2215Y-5.084
X5.284Y-2.8965
X5.284Y-3.134
X5.284Y-3.609
X5.309Y-2.3215
X5.309Y-5.434
X5.309Y-5.584
X5.3715Y-3.384
X5.3715Y-4.684
X5.3715Y-4.884
X5.384Y-6.1715
X5.3965Y-5.159
X5.4215Y-2.5715
X5.4465Y-3.7465
X5.459Y-4.1465
X5.484Y-5.159
X5.509Y-3.7715
X5.584Y-4.959
X5.5965Y-4.1965
X5.5984Y-3.2087
X5.659Y-3.3715
X5.6715Y-4.284
X5.6965Y-3.8715
X5.6965Y-5.159
X5.7215Y-4.409
X5.734Y-4.084
X5.7465Y-3.9715
X5.748Y-3.5551
X5.759Y-4.034
X5.759Y-4.3465
X5.7715Y-3.784
X5.784Y-4.2965
X5.809Y-3.959
X5.8215Y-4.234
X5.834Y-6.1715
X5.8715Y-4.084
X5.9215Y-3.809
X5.9215Y-4.234
X5.9465Y-4.6215
X5.9528Y-5.1614
X5.9567Y-3.3937
X5.984Y-3.8715
X5.9843Y-3.622
X6.034Y-4.1715
X6.034Y-4.484
X6.0472Y-4.8701
X6.059Y-2.709
X6.0715Y-3.6465
X6.0965Y-4.1715
X6.0965Y-4.2965
X6.1278Y-4.4402
X6.1465Y-2.584
X6.1465Y-3.684
X6.159Y-5.584
X6.1693Y-4.6654
X6.1693Y-4.7441
X6.1811Y-4.7953
X6.184Y-3.584
X6.184Y-3.859
X6.1965Y-5.5465
X6.2047Y-3.3268
X6.209Y-2.859
X6.2244Y-4.8425
X6.234Y-5.509
X6.2559Y-4.9449
X6.2677Y-4.5555
X6.292Y-5.4403
X6.2965Y-2.584
X6.3189Y-2.7795
X6.3215Y-4.3465
X6.3228Y-4.5551
X6.334Y-6.1715
X6.3465Y-3.309
X6.3578Y-3.2328
X6.359Y-2.334
X6.359Y-3.734
X6.359Y-3.859
X6.3701Y-3.1417
X6.3715Y-5.5465
X6.3965Y-3.6465
X6.4215Y-5.509
X6.4469Y-5.4331
X6.4488Y-4.8425
X6.484Y-2.234
X6.4961Y-3.2323
X6.4965Y-3.9465
X6.4965Y-4.059
X6.5038Y-4.7091
X6.5118Y-2.9094
X6.5465Y-3.909
X6.5465Y-4.0465
X6.5551Y-4.7244
X6.559Y-2.234
X6.5669Y-3.1496
X6.5787Y-4.7992
X6.634Y-2.234
X6.709Y-2.234
X6.7465Y-2.2965
X6.7465Y-2.3715
X6.7465Y-2.4465
X6.7465Y-2.5215
X6.7465Y-5.534
X6.7465Y-5.934
X6.7717Y-4.1831
X6.7717Y-4.2717
X6.7717Y-4.4882
X6.7717Y-4.7047
X6.7717Y-5.2657
X6.7756Y-5.0197
T2
X5.7715Y-2.5465
X5.8215Y-2.5465
X5.8715Y-2.5465
X5.9215Y-2.5465
T3
X6.634Y-3.8965
X6.634Y-3.9465
X6.634Y-3.9965
X6.634Y-4.0465
X6.634Y-4.0965
X6.684Y-3.8965
X6.684Y-3.9465
X6.684Y-3.9965
X6.684Y-4.0465
X6.684Y-4.0965
T4
X5.0928Y-3.884
X5.1715Y-3.884
X5.2502Y-3.884
T5
X5.0731Y-4.8353
X5.1715Y-4.8353
X5.2699Y-4.8353
X5.5856Y-4.8353
X5.684Y-4.8353
X5.7481Y-3.1971
X5.7824Y-4.8353
X5.8465Y-3.1971
X5.9449Y-3.1971
X6.2731Y-4.4596
X6.3715Y-4.4596
X6.4699Y-4.4596
T6
X5.0825Y-4.006
X5.0825Y-4.262
X5.134Y-5.184
X5.134Y-5.284
X5.134Y-5.584
X5.134Y-5.759
X5.134Y-5.859
X5.134Y-6.159
X5.2605Y-4.006
X5.2605Y-4.262
X5.609Y-5.184
X5.609Y-5.284
X5.609Y-5.584
X5.609Y-5.759
X5.609Y-5.859
X5.609Y-6.159
X5.6465Y-2.184
X5.6465Y-2.284
X5.7465Y-2.184
X5.7465Y-2.284
X5.8465Y-2.184
X5.8465Y-2.284
X5.9465Y-2.184
X5.9465Y-2.284
X6.0465Y-2.184
X6.0465Y-2.284
X6.084Y-5.184
X6.084Y-5.284
X6.084Y-5.584
X6.084Y-5.759
X6.084Y-5.859
X6.084Y-6.159
X6.559Y-5.184
X6.559Y-5.284
X6.559Y-5.584
X6.559Y-5.759
X6.559Y-5.859
X6.559Y-6.159
X6.659Y-3.2215
X6.659Y-3.3215
X6.659Y-3.4215
X6.659Y-3.5215
X6.659Y-3.6215
X6.659Y-3.7215
T7
X5.6615Y-2.9215
X6.0315Y-2.9215
X6.1865Y-4.184
X6.5565Y-4.184
T8
X4.9983Y-4.5715
X5.3447Y-4.5715
X5.5108Y-4.5715
X5.8572Y-4.5715
T0
M30
