%TF.GenerationSoftware,KiCad,Pcbnew,(6.0.11-0)*%
%TF.CreationDate,2023-05-26T18:45:56+02:00*%
%TF.ProjectId,warps,77617270-732e-46b6-9963-61645f706362,rev?*%
%TF.SameCoordinates,Original*%
%TF.FileFunction,Legend,Top*%
%TF.FilePolarity,Positive*%
%FSLAX46Y46*%
G04 Gerber Fmt 4.6, Leading zero omitted, Abs format (unit mm)*
G04 Created by KiCad (PCBNEW (6.0.11-0)) date 2023-05-26 18:45:56*
%MOMM*%
%LPD*%
G01*
G04 APERTURE LIST*
G04 Aperture macros list*
%AMRoundRect*
0 Rectangle with rounded corners*
0 $1 Rounding radius*
0 $2 $3 $4 $5 $6 $7 $8 $9 X,Y pos of 4 corners*
0 Add a 4 corners polygon primitive as box body*
4,1,4,$2,$3,$4,$5,$6,$7,$8,$9,$2,$3,0*
0 Add four circle primitives for the rounded corners*
1,1,$1+$1,$2,$3*
1,1,$1+$1,$4,$5*
1,1,$1+$1,$6,$7*
1,1,$1+$1,$8,$9*
0 Add four rect primitives between the rounded corners*
20,1,$1+$1,$2,$3,$4,$5,0*
20,1,$1+$1,$4,$5,$6,$7,0*
20,1,$1+$1,$6,$7,$8,$9,0*
20,1,$1+$1,$8,$9,$2,$3,0*%
%AMFreePoly0*
4,1,25,0.417216,0.947373,0.422118,0.942882,0.942882,0.422118,0.964910,0.374877,0.965200,0.368236,0.965200,-0.368236,0.947373,-0.417216,0.942882,-0.422118,0.422118,-0.942882,0.374877,-0.964910,0.368236,-0.965200,-0.368236,-0.965200,-0.417216,-0.947373,-0.422118,-0.942882,-0.942882,-0.422118,-0.964910,-0.374877,-0.965200,-0.368236,-0.965200,0.368236,-0.947373,0.417216,-0.942882,0.422118,
-0.422118,0.942882,-0.374877,0.964910,-0.368236,0.965200,0.368236,0.965200,0.417216,0.947373,0.417216,0.947373,$1*%
%AMFreePoly1*
4,1,25,0.706544,1.645873,0.711446,1.641382,1.641382,0.711446,1.663410,0.664205,1.663700,0.657564,1.663700,-0.657564,1.645873,-0.706544,1.641382,-0.711446,0.711446,-1.641382,0.664205,-1.663410,0.657564,-1.663700,-0.657564,-1.663700,-0.706544,-1.645873,-0.711446,-1.641382,-1.641382,-0.711446,-1.663410,-0.664205,-1.663700,-0.657564,-1.663700,0.657564,-1.645873,0.706544,-1.641382,0.711446,
-0.711446,1.641382,-0.664205,1.663410,-0.657564,1.663700,0.657564,1.663700,0.706544,1.645873,0.706544,1.645873,$1*%
%AMFreePoly2*
4,1,25,0.575031,1.328373,0.579933,1.323882,1.323882,0.579933,1.345910,0.532692,1.346200,0.526051,1.346200,-0.526051,1.328373,-0.575031,1.323882,-0.579933,0.579933,-1.323882,0.532692,-1.345910,0.526051,-1.346200,-0.526051,-1.346200,-0.575031,-1.328373,-0.579933,-1.323882,-1.323882,-0.579933,-1.345910,-0.532692,-1.346200,-0.526051,-1.346200,0.526051,-1.328373,0.575031,-1.323882,0.579933,
-0.579933,1.323882,-0.532692,1.345910,-0.526051,1.346200,0.526051,1.346200,0.575031,1.328373,0.575031,1.328373,$1*%
%AMFreePoly3*
4,1,25,0.269922,0.591773,0.274824,0.587282,0.587282,0.274824,0.609310,0.227583,0.609600,0.220942,0.609600,-0.220942,0.591773,-0.269922,0.587282,-0.274824,0.274824,-0.587282,0.227583,-0.609310,0.220942,-0.609600,-0.220942,-0.609600,-0.269922,-0.591773,-0.274824,-0.587282,-0.587282,-0.274824,-0.609310,-0.227583,-0.609600,-0.220942,-0.609600,0.220942,-0.591773,0.269922,-0.587282,0.274824,
-0.274824,0.587282,-0.227583,0.609310,-0.220942,0.609600,0.220942,0.609600,0.269922,0.591773,0.269922,0.591773,$1*%
%AMFreePoly4*
4,1,25,0.438258,0.998173,0.443160,0.993682,0.993682,0.443160,1.015710,0.395919,1.016000,0.389278,1.016000,-0.389278,0.998173,-0.438258,0.993682,-0.443160,0.443160,-0.993682,0.395919,-1.015710,0.389278,-1.016000,-0.389278,-1.016000,-0.438258,-0.998173,-0.443160,-0.993682,-0.993682,-0.443160,-1.015710,-0.395919,-1.016000,-0.389278,-1.016000,0.389278,-0.998173,0.438258,-0.993682,0.443160,
-0.443160,0.993682,-0.395919,1.015710,-0.389278,1.016000,0.389278,1.016000,0.438258,0.998173,0.438258,0.998173,$1*%
G04 Aperture macros list end*
%ADD10C,0.091440*%
%ADD11C,0.130048*%
%ADD12C,0.266700*%
%ADD13C,0.150000*%
%ADD14C,0.078232*%
%ADD15C,0.167640*%
%ADD16C,0.093472*%
%ADD17C,0.074778*%
%ADD18C,0.059822*%
%ADD19C,0.090932*%
%ADD20C,0.081280*%
%ADD21C,0.159385*%
%ADD22C,0.114300*%
%ADD23C,0.044867*%
%ADD24C,0.175260*%
%ADD25C,0.127000*%
%ADD26C,0.120000*%
%ADD27C,0.101600*%
%ADD28C,0.152400*%
%ADD29C,0.203200*%
%ADD30C,0.070000*%
%ADD31RoundRect,0.076200X0.675000X0.400000X-0.675000X0.400000X-0.675000X-0.400000X0.675000X-0.400000X0*%
%ADD32RoundRect,0.076200X0.500000X-0.550000X0.500000X0.550000X-0.500000X0.550000X-0.500000X-0.550000X0*%
%ADD33RoundRect,0.076200X-1.100000X0.300000X-1.100000X-0.300000X1.100000X-0.300000X1.100000X0.300000X0*%
%ADD34RoundRect,0.076200X0.550000X0.500000X-0.550000X0.500000X-0.550000X-0.500000X0.550000X-0.500000X0*%
%ADD35RoundRect,0.076200X-0.550000X0.500000X-0.550000X-0.500000X0.550000X-0.500000X0.550000X0.500000X0*%
%ADD36RoundRect,0.076200X0.550000X-0.500000X0.550000X0.500000X-0.550000X0.500000X-0.550000X-0.500000X0*%
%ADD37RoundRect,0.076200X1.500000X0.700000X-1.500000X0.700000X-1.500000X-0.700000X1.500000X-0.700000X0*%
%ADD38RoundRect,0.076200X-0.500000X0.550000X-0.500000X-0.550000X0.500000X-0.550000X0.500000X0.550000X0*%
%ADD39RoundRect,0.076200X-0.500000X-0.550000X0.500000X-0.550000X0.500000X0.550000X-0.500000X0.550000X0*%
%ADD40RoundRect,0.711200X0.000000X0.000000X0.000000X0.000000X0.000000X0.000000X0.000000X0.000000X0*%
%ADD41R,1.300000X1.600000*%
%ADD42C,1.752400*%
%ADD43C,2.200000*%
%ADD44FreePoly0,180.000000*%
%ADD45RoundRect,0.076200X0.700000X0.700000X-0.700000X0.700000X-0.700000X-0.700000X0.700000X-0.700000X0*%
%ADD46RoundRect,0.076200X0.800000X0.901500X-0.800000X0.901500X-0.800000X-0.901500X0.800000X-0.901500X0*%
%ADD47RoundRect,0.062500X-0.062500X0.337500X-0.062500X-0.337500X0.062500X-0.337500X0.062500X0.337500X0*%
%ADD48RoundRect,0.062500X-0.337500X0.062500X-0.337500X-0.062500X0.337500X-0.062500X0.337500X0.062500X0*%
%ADD49R,3.350000X3.350000*%
%ADD50RoundRect,0.076200X-0.550000X-0.500000X0.550000X-0.500000X0.550000X0.500000X-0.550000X0.500000X0*%
%ADD51RoundRect,0.076200X0.500000X0.550000X-0.500000X0.550000X-0.500000X-0.550000X0.500000X-0.550000X0*%
%ADD52RoundRect,0.076200X-0.330200X-1.016000X0.330200X-1.016000X0.330200X1.016000X-0.330200X1.016000X0*%
%ADD53RoundRect,0.076200X0.939800X-0.939800X0.939800X0.939800X-0.939800X0.939800X-0.939800X-0.939800X0*%
%ADD54FreePoly1,90.000000*%
%ADD55RoundRect,0.576200X0.000000X0.000000X0.000000X0.000000X0.000000X0.000000X0.000000X0.000000X0*%
%ADD56RoundRect,0.076200X0.650000X0.750000X-0.650000X0.750000X-0.650000X-0.750000X0.650000X-0.750000X0*%
%ADD57RoundRect,0.076200X-0.650000X-0.750000X0.650000X-0.750000X0.650000X0.750000X-0.650000X0.750000X0*%
%ADD58R,1.400000X1.200000*%
%ADD59RoundRect,0.076200X0.700000X-1.100000X0.700000X1.100000X-0.700000X1.100000X-0.700000X-1.100000X0*%
%ADD60RoundRect,0.076200X-1.100000X-0.700000X1.100000X-0.700000X1.100000X0.700000X-1.100000X0.700000X0*%
%ADD61FreePoly2,90.000000*%
%ADD62RoundRect,0.076200X-0.700000X1.100000X-0.700000X-1.100000X0.700000X-1.100000X0.700000X1.100000X0*%
%ADD63RoundRect,0.076200X0.500000X0.700000X-0.500000X0.700000X-0.500000X-0.700000X0.500000X-0.700000X0*%
%ADD64RoundRect,0.076200X-0.500000X0.350000X-0.500000X-0.350000X0.500000X-0.350000X0.500000X0.350000X0*%
%ADD65RoundRect,0.076200X-0.503200X0.503200X-0.503200X-0.503200X0.503200X-0.503200X0.503200X0.503200X0*%
%ADD66C,2.032000*%
%ADD67RoundRect,0.076200X0.425000X0.350000X-0.425000X0.350000X-0.425000X-0.350000X0.425000X-0.350000X0*%
%ADD68RoundRect,0.076200X0.150000X0.600000X-0.150000X0.600000X-0.150000X-0.600000X0.150000X-0.600000X0*%
%ADD69RoundRect,0.076200X-0.600000X0.150000X-0.600000X-0.150000X0.600000X-0.150000X0.600000X0.150000X0*%
%ADD70RoundRect,0.076200X-0.150000X-0.600000X0.150000X-0.600000X0.150000X0.600000X-0.150000X0.600000X0*%
%ADD71RoundRect,0.076200X0.600000X-0.150000X0.600000X0.150000X-0.600000X0.150000X-0.600000X-0.150000X0*%
%ADD72RoundRect,0.076200X0.500000X0.800000X-0.500000X0.800000X-0.500000X-0.800000X0.500000X-0.800000X0*%
%ADD73RoundRect,0.076200X2.700000X3.100000X-2.700000X3.100000X-2.700000X-3.100000X2.700000X-3.100000X0*%
%ADD74RoundRect,0.076200X-0.675000X-0.400000X0.675000X-0.400000X0.675000X0.400000X-0.675000X0.400000X0*%
%ADD75RoundRect,0.076200X-0.425000X-0.350000X0.425000X-0.350000X0.425000X0.350000X-0.425000X0.350000X0*%
%ADD76RoundRect,0.076200X-0.700000X-0.700000X0.700000X-0.700000X0.700000X0.700000X-0.700000X0.700000X0*%
%ADD77FreePoly3,270.000000*%
%ADD78FreePoly4,0.000000*%
G04 APERTURE END LIST*
D10*
X159136733Y-90857614D02*
X159161407Y-90832940D01*
X159210756Y-90808265D01*
X159334127Y-90808265D01*
X159383476Y-90832940D01*
X159408150Y-90857614D01*
X159432824Y-90906962D01*
X159432824Y-90956311D01*
X159408150Y-91030334D01*
X159112058Y-91326425D01*
X159432824Y-91326425D01*
X159753590Y-90808265D02*
X159802938Y-90808265D01*
X159852287Y-90832940D01*
X159876961Y-90857614D01*
X159901636Y-90906962D01*
X159926310Y-91005660D01*
X159926310Y-91129031D01*
X159901636Y-91227728D01*
X159876961Y-91277077D01*
X159852287Y-91301751D01*
X159802938Y-91326425D01*
X159753590Y-91326425D01*
X159704241Y-91301751D01*
X159679567Y-91277077D01*
X159654893Y-91227728D01*
X159630218Y-91129031D01*
X159630218Y-91005660D01*
X159654893Y-90906962D01*
X159679567Y-90857614D01*
X159704241Y-90832940D01*
X159753590Y-90808265D01*
X160419796Y-91326425D02*
X160123704Y-91326425D01*
X160271750Y-91326425D02*
X160271750Y-90808265D01*
X160222401Y-90882288D01*
X160173053Y-90931637D01*
X160123704Y-90956311D01*
X160888607Y-90808265D02*
X160641864Y-90808265D01*
X160617190Y-91055008D01*
X160641864Y-91030334D01*
X160691213Y-91005660D01*
X160814584Y-91005660D01*
X160863933Y-91030334D01*
X160888607Y-91055008D01*
X160913281Y-91104357D01*
X160913281Y-91227728D01*
X160888607Y-91277077D01*
X160863933Y-91301751D01*
X160814584Y-91326425D01*
X160691213Y-91326425D01*
X160641864Y-91301751D01*
X160617190Y-91277077D01*
X161135350Y-91277077D02*
X161160024Y-91301751D01*
X161135350Y-91326425D01*
X161110676Y-91301751D01*
X161135350Y-91277077D01*
X161135350Y-91326425D01*
X161727533Y-90980985D02*
X161850904Y-91326425D01*
X161974276Y-90980985D01*
X162122321Y-90808265D02*
X162443087Y-90808265D01*
X162270367Y-91005660D01*
X162344390Y-91005660D01*
X162393738Y-91030334D01*
X162418413Y-91055008D01*
X162443087Y-91104357D01*
X162443087Y-91227728D01*
X162418413Y-91277077D01*
X162393738Y-91301751D01*
X162344390Y-91326425D01*
X162196344Y-91326425D01*
X162146996Y-91301751D01*
X162122321Y-91277077D01*
D11*
X172634976Y-79285420D02*
X172667488Y-79187884D01*
X172667488Y-79025324D01*
X172634976Y-78960300D01*
X172602464Y-78927788D01*
X172537440Y-78895276D01*
X172472416Y-78895276D01*
X172407392Y-78927788D01*
X172374880Y-78960300D01*
X172342368Y-79025324D01*
X172309856Y-79155372D01*
X172277344Y-79220396D01*
X172244832Y-79252908D01*
X172179808Y-79285420D01*
X172114784Y-79285420D01*
X172049760Y-79252908D01*
X172017248Y-79220396D01*
X171984736Y-79155372D01*
X171984736Y-78992812D01*
X172017248Y-78895276D01*
X172342368Y-78472620D02*
X172667488Y-78472620D01*
X171984736Y-78700204D02*
X172342368Y-78472620D01*
X171984736Y-78245036D01*
X172634976Y-78049964D02*
X172667488Y-77952428D01*
X172667488Y-77789868D01*
X172634976Y-77724844D01*
X172602464Y-77692332D01*
X172537440Y-77659820D01*
X172472416Y-77659820D01*
X172407392Y-77692332D01*
X172374880Y-77724844D01*
X172342368Y-77789868D01*
X172309856Y-77919916D01*
X172277344Y-77984940D01*
X172244832Y-78017452D01*
X172179808Y-78049964D01*
X172114784Y-78049964D01*
X172049760Y-78017452D01*
X172017248Y-77984940D01*
X171984736Y-77919916D01*
X171984736Y-77757356D01*
X172017248Y-77659820D01*
X172309856Y-77139628D02*
X172342368Y-77042092D01*
X172374880Y-77009580D01*
X172439904Y-76977068D01*
X172537440Y-76977068D01*
X172602464Y-77009580D01*
X172634976Y-77042092D01*
X172667488Y-77107116D01*
X172667488Y-77367212D01*
X171984736Y-77367212D01*
X171984736Y-77139628D01*
X172017248Y-77074604D01*
X172049760Y-77042092D01*
X172114784Y-77009580D01*
X172179808Y-77009580D01*
X172244832Y-77042092D01*
X172277344Y-77074604D01*
X172309856Y-77139628D01*
X172309856Y-77367212D01*
X171984736Y-76554412D02*
X171984736Y-76424364D01*
X172017248Y-76359340D01*
X172082272Y-76294316D01*
X172212320Y-76261804D01*
X172439904Y-76261804D01*
X172569952Y-76294316D01*
X172634976Y-76359340D01*
X172667488Y-76424364D01*
X172667488Y-76554412D01*
X172634976Y-76619436D01*
X172569952Y-76684460D01*
X172439904Y-76716972D01*
X172212320Y-76716972D01*
X172082272Y-76684460D01*
X172017248Y-76619436D01*
X171984736Y-76554412D01*
X171984736Y-75839148D02*
X171984736Y-75709100D01*
X172017248Y-75644076D01*
X172082272Y-75579052D01*
X172212320Y-75546540D01*
X172439904Y-75546540D01*
X172569952Y-75579052D01*
X172634976Y-75644076D01*
X172667488Y-75709100D01*
X172667488Y-75839148D01*
X172634976Y-75904172D01*
X172569952Y-75969196D01*
X172439904Y-76001708D01*
X172212320Y-76001708D01*
X172082272Y-75969196D01*
X172017248Y-75904172D01*
X171984736Y-75839148D01*
X171984736Y-75351468D02*
X171984736Y-74961324D01*
X172667488Y-75156396D02*
X171984736Y-75156396D01*
D10*
X159161407Y-90102508D02*
X159334127Y-90102508D01*
X159408150Y-90373925D02*
X159161407Y-90373925D01*
X159161407Y-89855765D01*
X159408150Y-89855765D01*
X159334127Y-89658371D02*
X159260104Y-89732394D01*
X159630218Y-90373925D02*
X159630218Y-90028485D01*
X159630218Y-90077834D02*
X159654893Y-90053160D01*
X159704241Y-90028485D01*
X159778264Y-90028485D01*
X159827613Y-90053160D01*
X159852287Y-90102508D01*
X159852287Y-90373925D01*
X159852287Y-90102508D02*
X159876961Y-90053160D01*
X159926310Y-90028485D01*
X160000333Y-90028485D01*
X160049681Y-90053160D01*
X160074356Y-90102508D01*
X160074356Y-90373925D01*
X160321098Y-90373925D02*
X160321098Y-90028485D01*
X160321098Y-89855765D02*
X160296424Y-89880440D01*
X160321098Y-89905114D01*
X160345773Y-89880440D01*
X160321098Y-89855765D01*
X160321098Y-89905114D01*
X160641864Y-90373925D02*
X160592516Y-90349251D01*
X160567841Y-90299902D01*
X160567841Y-89855765D01*
X160839258Y-90373925D02*
X160839258Y-90028485D01*
X160839258Y-89855765D02*
X160814584Y-89880440D01*
X160839258Y-89905114D01*
X160863933Y-89880440D01*
X160839258Y-89855765D01*
X160839258Y-89905114D01*
X161283396Y-90349251D02*
X161234047Y-90373925D01*
X161135350Y-90373925D01*
X161086001Y-90349251D01*
X161061327Y-90299902D01*
X161061327Y-90102508D01*
X161086001Y-90053160D01*
X161135350Y-90028485D01*
X161234047Y-90028485D01*
X161283396Y-90053160D01*
X161308070Y-90102508D01*
X161308070Y-90151857D01*
X161061327Y-90201205D01*
X162196344Y-89880440D02*
X162146996Y-89855765D01*
X162072973Y-89855765D01*
X161998950Y-89880440D01*
X161949601Y-89929788D01*
X161924927Y-89979137D01*
X161900253Y-90077834D01*
X161900253Y-90151857D01*
X161924927Y-90250554D01*
X161949601Y-90299902D01*
X161998950Y-90349251D01*
X162072973Y-90373925D01*
X162122321Y-90373925D01*
X162196344Y-90349251D01*
X162221018Y-90324577D01*
X162221018Y-90151857D01*
X162122321Y-90151857D01*
X162443087Y-90373925D02*
X162443087Y-90028485D01*
X162443087Y-89855765D02*
X162418413Y-89880440D01*
X162443087Y-89905114D01*
X162467761Y-89880440D01*
X162443087Y-89855765D01*
X162443087Y-89905114D01*
X162763853Y-90373925D02*
X162714504Y-90349251D01*
X162689830Y-90299902D01*
X162689830Y-89855765D01*
X163035270Y-90373925D02*
X162985921Y-90349251D01*
X162961247Y-90299902D01*
X162961247Y-89855765D01*
X163430058Y-90349251D02*
X163380710Y-90373925D01*
X163282013Y-90373925D01*
X163232664Y-90349251D01*
X163207990Y-90299902D01*
X163207990Y-90102508D01*
X163232664Y-90053160D01*
X163282013Y-90028485D01*
X163380710Y-90028485D01*
X163430058Y-90053160D01*
X163454733Y-90102508D01*
X163454733Y-90151857D01*
X163207990Y-90201205D01*
X163602778Y-90028485D02*
X163800173Y-90028485D01*
X163676801Y-89855765D02*
X163676801Y-90299902D01*
X163701476Y-90349251D01*
X163750824Y-90373925D01*
X163800173Y-90373925D01*
D12*
X159367855Y-86592833D02*
X159727688Y-88104133D01*
X160015555Y-87024633D01*
X160303421Y-88104133D01*
X160663255Y-86592833D01*
X161886688Y-88104133D02*
X161886688Y-87312500D01*
X161814721Y-87168566D01*
X161670788Y-87096600D01*
X161382921Y-87096600D01*
X161238988Y-87168566D01*
X161886688Y-88032166D02*
X161742755Y-88104133D01*
X161382921Y-88104133D01*
X161238988Y-88032166D01*
X161167021Y-87888233D01*
X161167021Y-87744300D01*
X161238988Y-87600366D01*
X161382921Y-87528400D01*
X161742755Y-87528400D01*
X161886688Y-87456433D01*
X162606355Y-88104133D02*
X162606355Y-87096600D01*
X162606355Y-87384466D02*
X162678321Y-87240533D01*
X162750288Y-87168566D01*
X162894221Y-87096600D01*
X163038155Y-87096600D01*
X163541921Y-87096600D02*
X163541921Y-88607900D01*
X163541921Y-87168566D02*
X163685855Y-87096600D01*
X163973721Y-87096600D01*
X164117655Y-87168566D01*
X164189621Y-87240533D01*
X164261588Y-87384466D01*
X164261588Y-87816266D01*
X164189621Y-87960200D01*
X164117655Y-88032166D01*
X163973721Y-88104133D01*
X163685855Y-88104133D01*
X163541921Y-88032166D01*
X164837321Y-88032166D02*
X164981255Y-88104133D01*
X165269121Y-88104133D01*
X165413055Y-88032166D01*
X165485021Y-87888233D01*
X165485021Y-87816266D01*
X165413055Y-87672333D01*
X165269121Y-87600366D01*
X165053221Y-87600366D01*
X164909288Y-87528400D01*
X164837321Y-87384466D01*
X164837321Y-87312500D01*
X164909288Y-87168566D01*
X165053221Y-87096600D01*
X165269121Y-87096600D01*
X165413055Y-87168566D01*
D10*
X159383476Y-89396751D02*
X159334127Y-89421425D01*
X159235430Y-89421425D01*
X159186081Y-89396751D01*
X159161407Y-89372077D01*
X159136733Y-89322728D01*
X159136733Y-89174682D01*
X159161407Y-89125334D01*
X159186081Y-89100660D01*
X159235430Y-89075985D01*
X159334127Y-89075985D01*
X159383476Y-89100660D01*
X159827613Y-89396751D02*
X159778264Y-89421425D01*
X159679567Y-89421425D01*
X159630218Y-89396751D01*
X159605544Y-89372077D01*
X159580870Y-89322728D01*
X159580870Y-89174682D01*
X159605544Y-89125334D01*
X159630218Y-89100660D01*
X159679567Y-89075985D01*
X159778264Y-89075985D01*
X159827613Y-89100660D01*
X160049681Y-89224031D02*
X160444470Y-89224031D01*
X160691213Y-89421425D02*
X160691213Y-88903265D01*
X160691213Y-89100660D02*
X160740561Y-89075985D01*
X160839258Y-89075985D01*
X160888607Y-89100660D01*
X160913281Y-89125334D01*
X160937956Y-89174682D01*
X160937956Y-89322728D01*
X160913281Y-89372077D01*
X160888607Y-89396751D01*
X160839258Y-89421425D01*
X160740561Y-89421425D01*
X160691213Y-89396751D01*
X161110676Y-89075985D02*
X161234047Y-89421425D01*
X161357418Y-89075985D02*
X161234047Y-89421425D01*
X161184698Y-89544797D01*
X161160024Y-89569471D01*
X161110676Y-89594145D01*
X161554813Y-89224031D02*
X161949601Y-89224031D01*
X162171670Y-89396751D02*
X162221018Y-89421425D01*
X162319716Y-89421425D01*
X162369064Y-89396751D01*
X162393738Y-89347402D01*
X162393738Y-89322728D01*
X162369064Y-89273380D01*
X162319716Y-89248705D01*
X162245693Y-89248705D01*
X162196344Y-89224031D01*
X162171670Y-89174682D01*
X162171670Y-89150008D01*
X162196344Y-89100660D01*
X162245693Y-89075985D01*
X162319716Y-89075985D01*
X162369064Y-89100660D01*
X162837876Y-89421425D02*
X162837876Y-89150008D01*
X162813201Y-89100660D01*
X162763853Y-89075985D01*
X162665156Y-89075985D01*
X162615807Y-89100660D01*
X162837876Y-89396751D02*
X162788527Y-89421425D01*
X162665156Y-89421425D01*
X162615807Y-89396751D01*
X162591133Y-89347402D01*
X162591133Y-89298054D01*
X162615807Y-89248705D01*
X162665156Y-89224031D01*
X162788527Y-89224031D01*
X162837876Y-89199357D01*
D11*
X172667488Y-73262764D02*
X172342368Y-73490348D01*
X172667488Y-73652908D02*
X171984736Y-73652908D01*
X171984736Y-73392812D01*
X172017248Y-73327788D01*
X172049760Y-73295276D01*
X172114784Y-73262764D01*
X172212320Y-73262764D01*
X172277344Y-73295276D01*
X172309856Y-73327788D01*
X172342368Y-73392812D01*
X172342368Y-73652908D01*
X172309856Y-72970156D02*
X172309856Y-72742572D01*
X172667488Y-72645036D02*
X172667488Y-72970156D01*
X171984736Y-72970156D01*
X171984736Y-72645036D01*
X172634976Y-72384940D02*
X172667488Y-72287404D01*
X172667488Y-72124844D01*
X172634976Y-72059820D01*
X172602464Y-72027308D01*
X172537440Y-71994796D01*
X172472416Y-71994796D01*
X172407392Y-72027308D01*
X172374880Y-72059820D01*
X172342368Y-72124844D01*
X172309856Y-72254892D01*
X172277344Y-72319916D01*
X172244832Y-72352428D01*
X172179808Y-72384940D01*
X172114784Y-72384940D01*
X172049760Y-72352428D01*
X172017248Y-72319916D01*
X171984736Y-72254892D01*
X171984736Y-72092332D01*
X172017248Y-71994796D01*
X172309856Y-71702188D02*
X172309856Y-71474604D01*
X172667488Y-71377068D02*
X172667488Y-71702188D01*
X171984736Y-71702188D01*
X171984736Y-71377068D01*
X171984736Y-71181996D02*
X171984736Y-70791852D01*
X172667488Y-70986924D02*
X171984736Y-70986924D01*
D13*
%TO.C,SW1*%
X167785566Y-71008661D02*
X167928423Y-71056280D01*
X168166519Y-71056280D01*
X168261757Y-71008661D01*
X168309376Y-70961042D01*
X168356995Y-70865804D01*
X168356995Y-70770566D01*
X168309376Y-70675328D01*
X168261757Y-70627709D01*
X168166519Y-70580090D01*
X167976042Y-70532471D01*
X167880804Y-70484852D01*
X167833185Y-70437233D01*
X167785566Y-70341995D01*
X167785566Y-70246757D01*
X167833185Y-70151519D01*
X167880804Y-70103900D01*
X167976042Y-70056280D01*
X168214138Y-70056280D01*
X168356995Y-70103900D01*
X168690328Y-70056280D02*
X168928423Y-71056280D01*
X169118900Y-70341995D01*
X169309376Y-71056280D01*
X169547471Y-70056280D01*
X170452233Y-71056280D02*
X169880804Y-71056280D01*
X170166519Y-71056280D02*
X170166519Y-70056280D01*
X170071280Y-70199138D01*
X169976042Y-70294376D01*
X169880804Y-70341995D01*
D14*
%TO.C,C38*%
X146976760Y-128405826D02*
X146991661Y-128420727D01*
X147006562Y-128465431D01*
X147006562Y-128495234D01*
X146991661Y-128539938D01*
X146961858Y-128569741D01*
X146932056Y-128584642D01*
X146872450Y-128599543D01*
X146827746Y-128599543D01*
X146768141Y-128584642D01*
X146738338Y-128569741D01*
X146708536Y-128539938D01*
X146693634Y-128495234D01*
X146693634Y-128465431D01*
X146708536Y-128420727D01*
X146723437Y-128405826D01*
X146693634Y-128301517D02*
X146693634Y-128107799D01*
X146812845Y-128212109D01*
X146812845Y-128167405D01*
X146827746Y-128137602D01*
X146842648Y-128122701D01*
X146872450Y-128107799D01*
X146946957Y-128107799D01*
X146976760Y-128122701D01*
X146991661Y-128137602D01*
X147006562Y-128167405D01*
X147006562Y-128256813D01*
X146991661Y-128286615D01*
X146976760Y-128301517D01*
X146827746Y-127928983D02*
X146812845Y-127958786D01*
X146797944Y-127973687D01*
X146768141Y-127988589D01*
X146753240Y-127988589D01*
X146723437Y-127973687D01*
X146708536Y-127958786D01*
X146693634Y-127928983D01*
X146693634Y-127869378D01*
X146708536Y-127839575D01*
X146723437Y-127824674D01*
X146753240Y-127809773D01*
X146768141Y-127809773D01*
X146797944Y-127824674D01*
X146812845Y-127839575D01*
X146827746Y-127869378D01*
X146827746Y-127928983D01*
X146842648Y-127958786D01*
X146857549Y-127973687D01*
X146887352Y-127988589D01*
X146946957Y-127988589D01*
X146976760Y-127973687D01*
X146991661Y-127958786D01*
X147006562Y-127928983D01*
X147006562Y-127869378D01*
X146991661Y-127839575D01*
X146976760Y-127824674D01*
X146946957Y-127809773D01*
X146887352Y-127809773D01*
X146857549Y-127824674D01*
X146842648Y-127839575D01*
X146827746Y-127869378D01*
D15*
%TO.C,IC6*%
X141710956Y-125583781D02*
X141710956Y-124735421D01*
X142599714Y-125502985D02*
X142559316Y-125543383D01*
X142438122Y-125583781D01*
X142357326Y-125583781D01*
X142236131Y-125543383D01*
X142155335Y-125462587D01*
X142114937Y-125381791D01*
X142074539Y-125220199D01*
X142074539Y-125099004D01*
X142114937Y-124937412D01*
X142155335Y-124856616D01*
X142236131Y-124775820D01*
X142357326Y-124735421D01*
X142438122Y-124735421D01*
X142559316Y-124775820D01*
X142599714Y-124816218D01*
X143326880Y-124735421D02*
X143165287Y-124735421D01*
X143084491Y-124775820D01*
X143044093Y-124816218D01*
X142963297Y-124937412D01*
X142922899Y-125099004D01*
X142922899Y-125422189D01*
X142963297Y-125502985D01*
X143003695Y-125543383D01*
X143084491Y-125583781D01*
X143246084Y-125583781D01*
X143326880Y-125543383D01*
X143367278Y-125502985D01*
X143407676Y-125422189D01*
X143407676Y-125220199D01*
X143367278Y-125139402D01*
X143326880Y-125099004D01*
X143246084Y-125058606D01*
X143084491Y-125058606D01*
X143003695Y-125099004D01*
X142963297Y-125139402D01*
X142922899Y-125220199D01*
D16*
%TO.C,C20*%
X140373932Y-106140431D02*
X140349354Y-106165008D01*
X140275622Y-106189586D01*
X140226467Y-106189586D01*
X140152734Y-106165008D01*
X140103579Y-106115853D01*
X140079001Y-106066698D01*
X140054424Y-105968388D01*
X140054424Y-105894656D01*
X140079001Y-105796346D01*
X140103579Y-105747191D01*
X140152734Y-105698036D01*
X140226467Y-105673458D01*
X140275622Y-105673458D01*
X140349354Y-105698036D01*
X140373932Y-105722613D01*
X140570552Y-105722613D02*
X140595129Y-105698036D01*
X140644284Y-105673458D01*
X140767172Y-105673458D01*
X140816327Y-105698036D01*
X140840905Y-105722613D01*
X140865482Y-105771768D01*
X140865482Y-105820923D01*
X140840905Y-105894656D01*
X140545974Y-106189586D01*
X140865482Y-106189586D01*
X141184990Y-105673458D02*
X141234145Y-105673458D01*
X141283300Y-105698036D01*
X141307878Y-105722613D01*
X141332455Y-105771768D01*
X141357033Y-105870078D01*
X141357033Y-105992966D01*
X141332455Y-106091276D01*
X141307878Y-106140431D01*
X141283300Y-106165008D01*
X141234145Y-106189586D01*
X141184990Y-106189586D01*
X141135835Y-106165008D01*
X141111257Y-106140431D01*
X141086680Y-106091276D01*
X141062102Y-105992966D01*
X141062102Y-105870078D01*
X141086680Y-105771768D01*
X141111257Y-105722613D01*
X141135835Y-105698036D01*
X141184990Y-105673458D01*
%TO.C,R25*%
X150957186Y-114367525D02*
X150711411Y-114539567D01*
X150957186Y-114662455D02*
X150441058Y-114662455D01*
X150441058Y-114465835D01*
X150465636Y-114416680D01*
X150490213Y-114392102D01*
X150539368Y-114367525D01*
X150613101Y-114367525D01*
X150662256Y-114392102D01*
X150686833Y-114416680D01*
X150711411Y-114465835D01*
X150711411Y-114662455D01*
X150490213Y-114170905D02*
X150465636Y-114146327D01*
X150441058Y-114097172D01*
X150441058Y-113974284D01*
X150465636Y-113925129D01*
X150490213Y-113900552D01*
X150539368Y-113875974D01*
X150588523Y-113875974D01*
X150662256Y-113900552D01*
X150957186Y-114195482D01*
X150957186Y-113875974D01*
X150441058Y-113409001D02*
X150441058Y-113654777D01*
X150686833Y-113679354D01*
X150662256Y-113654777D01*
X150637678Y-113605622D01*
X150637678Y-113482734D01*
X150662256Y-113433579D01*
X150686833Y-113409001D01*
X150735988Y-113384424D01*
X150858876Y-113384424D01*
X150908031Y-113409001D01*
X150932608Y-113433579D01*
X150957186Y-113482734D01*
X150957186Y-113605622D01*
X150932608Y-113654777D01*
X150908031Y-113679354D01*
%TO.C,R20*%
X134023932Y-95712086D02*
X133851889Y-95466311D01*
X133729001Y-95712086D02*
X133729001Y-95195958D01*
X133925622Y-95195958D01*
X133974777Y-95220536D01*
X133999354Y-95245113D01*
X134023932Y-95294268D01*
X134023932Y-95368001D01*
X133999354Y-95417156D01*
X133974777Y-95441733D01*
X133925622Y-95466311D01*
X133729001Y-95466311D01*
X134220552Y-95245113D02*
X134245129Y-95220536D01*
X134294284Y-95195958D01*
X134417172Y-95195958D01*
X134466327Y-95220536D01*
X134490905Y-95245113D01*
X134515482Y-95294268D01*
X134515482Y-95343423D01*
X134490905Y-95417156D01*
X134195974Y-95712086D01*
X134515482Y-95712086D01*
X134834990Y-95195958D02*
X134884145Y-95195958D01*
X134933300Y-95220536D01*
X134957878Y-95245113D01*
X134982455Y-95294268D01*
X135007033Y-95392578D01*
X135007033Y-95515466D01*
X134982455Y-95613776D01*
X134957878Y-95662931D01*
X134933300Y-95687508D01*
X134884145Y-95712086D01*
X134834990Y-95712086D01*
X134785835Y-95687508D01*
X134761257Y-95662931D01*
X134736680Y-95613776D01*
X134712102Y-95515466D01*
X134712102Y-95392578D01*
X134736680Y-95294268D01*
X134761257Y-95245113D01*
X134785835Y-95220536D01*
X134834990Y-95195958D01*
D17*
%TO.C,C1*%
X128619040Y-53724679D02*
X128583896Y-53759823D01*
X128478464Y-53794967D01*
X128408177Y-53794967D01*
X128302745Y-53759823D01*
X128232457Y-53689535D01*
X128197313Y-53619247D01*
X128162169Y-53478671D01*
X128162169Y-53373240D01*
X128197313Y-53232664D01*
X128232457Y-53162376D01*
X128302745Y-53092089D01*
X128408177Y-53056945D01*
X128478464Y-53056945D01*
X128583896Y-53092089D01*
X128619040Y-53127232D01*
X129321918Y-53794967D02*
X128900191Y-53794967D01*
X129111055Y-53794967D02*
X129111055Y-53056945D01*
X129040767Y-53162376D01*
X128970479Y-53232664D01*
X128900191Y-53267808D01*
D16*
%TO.C,C5*%
X154082931Y-65155025D02*
X154107508Y-65179602D01*
X154132086Y-65253335D01*
X154132086Y-65302490D01*
X154107508Y-65376223D01*
X154058353Y-65425378D01*
X154009198Y-65449955D01*
X153910888Y-65474533D01*
X153837156Y-65474533D01*
X153738846Y-65449955D01*
X153689691Y-65425378D01*
X153640536Y-65376223D01*
X153615958Y-65302490D01*
X153615958Y-65253335D01*
X153640536Y-65179602D01*
X153665113Y-65155025D01*
X153615958Y-64688052D02*
X153615958Y-64933827D01*
X153861733Y-64958405D01*
X153837156Y-64933827D01*
X153812578Y-64884672D01*
X153812578Y-64761784D01*
X153837156Y-64712629D01*
X153861733Y-64688052D01*
X153910888Y-64663474D01*
X154033776Y-64663474D01*
X154082931Y-64688052D01*
X154107508Y-64712629D01*
X154132086Y-64761784D01*
X154132086Y-64884672D01*
X154107508Y-64933827D01*
X154082931Y-64958405D01*
%TO.C,C10*%
X147557832Y-87401488D02*
X147533254Y-87426065D01*
X147459522Y-87450643D01*
X147410367Y-87450643D01*
X147336634Y-87426065D01*
X147287479Y-87376910D01*
X147262901Y-87327755D01*
X147238324Y-87229445D01*
X147238324Y-87155713D01*
X147262901Y-87057403D01*
X147287479Y-87008248D01*
X147336634Y-86959093D01*
X147410367Y-86934515D01*
X147459522Y-86934515D01*
X147533254Y-86959093D01*
X147557832Y-86983670D01*
X148049382Y-87450643D02*
X147754452Y-87450643D01*
X147901917Y-87450643D02*
X147901917Y-86934515D01*
X147852762Y-87008248D01*
X147803607Y-87057403D01*
X147754452Y-87081980D01*
X148368890Y-86934515D02*
X148418045Y-86934515D01*
X148467200Y-86959093D01*
X148491778Y-86983670D01*
X148516355Y-87032825D01*
X148540933Y-87131135D01*
X148540933Y-87254023D01*
X148516355Y-87352333D01*
X148491778Y-87401488D01*
X148467200Y-87426065D01*
X148418045Y-87450643D01*
X148368890Y-87450643D01*
X148319735Y-87426065D01*
X148295157Y-87401488D01*
X148270580Y-87352333D01*
X148246002Y-87254023D01*
X148246002Y-87131135D01*
X148270580Y-87032825D01*
X148295157Y-86983670D01*
X148319735Y-86959093D01*
X148368890Y-86934515D01*
%TO.C,R18*%
X138502174Y-94124586D02*
X138330132Y-93878811D01*
X138207244Y-94124586D02*
X138207244Y-93608458D01*
X138403864Y-93608458D01*
X138453019Y-93633036D01*
X138477597Y-93657613D01*
X138502174Y-93706768D01*
X138502174Y-93780501D01*
X138477597Y-93829656D01*
X138453019Y-93854233D01*
X138403864Y-93878811D01*
X138207244Y-93878811D01*
X138993725Y-94124586D02*
X138698794Y-94124586D01*
X138846260Y-94124586D02*
X138846260Y-93608458D01*
X138797104Y-93682191D01*
X138747949Y-93731346D01*
X138698794Y-93755923D01*
X139288655Y-93829656D02*
X139239500Y-93805078D01*
X139214922Y-93780501D01*
X139190345Y-93731346D01*
X139190345Y-93706768D01*
X139214922Y-93657613D01*
X139239500Y-93633036D01*
X139288655Y-93608458D01*
X139386965Y-93608458D01*
X139436120Y-93633036D01*
X139460698Y-93657613D01*
X139485275Y-93706768D01*
X139485275Y-93731346D01*
X139460698Y-93780501D01*
X139436120Y-93805078D01*
X139386965Y-93829656D01*
X139288655Y-93829656D01*
X139239500Y-93854233D01*
X139214922Y-93878811D01*
X139190345Y-93927966D01*
X139190345Y-94026276D01*
X139214922Y-94075431D01*
X139239500Y-94100008D01*
X139288655Y-94124586D01*
X139386965Y-94124586D01*
X139436120Y-94100008D01*
X139460698Y-94075431D01*
X139485275Y-94026276D01*
X139485275Y-93927966D01*
X139460698Y-93878811D01*
X139436120Y-93854233D01*
X139386965Y-93829656D01*
D13*
%TO.C,Q2*%
X172797619Y-119595238D02*
X172750000Y-119690476D01*
X172654761Y-119785714D01*
X172511904Y-119928571D01*
X172464285Y-120023809D01*
X172464285Y-120119047D01*
X172702380Y-120071428D02*
X172654761Y-120166666D01*
X172559523Y-120261904D01*
X172369047Y-120309523D01*
X172035714Y-120309523D01*
X171845238Y-120261904D01*
X171750000Y-120166666D01*
X171702380Y-120071428D01*
X171702380Y-119880952D01*
X171750000Y-119785714D01*
X171845238Y-119690476D01*
X172035714Y-119642857D01*
X172369047Y-119642857D01*
X172559523Y-119690476D01*
X172654761Y-119785714D01*
X172702380Y-119880952D01*
X172702380Y-120071428D01*
X171797619Y-119261904D02*
X171750000Y-119214285D01*
X171702380Y-119119047D01*
X171702380Y-118880952D01*
X171750000Y-118785714D01*
X171797619Y-118738095D01*
X171892857Y-118690476D01*
X171988095Y-118690476D01*
X172130952Y-118738095D01*
X172702380Y-119309523D01*
X172702380Y-118690476D01*
D18*
%TO.C,LED2*%
X130662825Y-101534232D02*
X130304264Y-101534232D01*
X130304264Y-100781254D01*
X130913818Y-101139815D02*
X131164811Y-101139815D01*
X131272379Y-101534232D02*
X130913818Y-101534232D01*
X130913818Y-100781254D01*
X131272379Y-100781254D01*
X131595084Y-101534232D02*
X131595084Y-100781254D01*
X131774364Y-100781254D01*
X131881932Y-100817111D01*
X131953645Y-100888823D01*
X131989501Y-100960535D01*
X132025357Y-101103959D01*
X132025357Y-101211528D01*
X131989501Y-101354952D01*
X131953645Y-101426664D01*
X131881932Y-101498376D01*
X131774364Y-101534232D01*
X131595084Y-101534232D01*
X132312206Y-100852967D02*
X132348062Y-100817111D01*
X132419774Y-100781254D01*
X132599054Y-100781254D01*
X132670767Y-100817111D01*
X132706623Y-100852967D01*
X132742479Y-100924679D01*
X132742479Y-100996391D01*
X132706623Y-101103959D01*
X132276350Y-101534232D01*
X132742479Y-101534232D01*
D16*
%TO.C,R32*%
X127779586Y-131195025D02*
X127533811Y-131367067D01*
X127779586Y-131489955D02*
X127263458Y-131489955D01*
X127263458Y-131293335D01*
X127288036Y-131244180D01*
X127312613Y-131219602D01*
X127361768Y-131195025D01*
X127435501Y-131195025D01*
X127484656Y-131219602D01*
X127509233Y-131244180D01*
X127533811Y-131293335D01*
X127533811Y-131489955D01*
X127263458Y-131022982D02*
X127263458Y-130703474D01*
X127460078Y-130875517D01*
X127460078Y-130801784D01*
X127484656Y-130752629D01*
X127509233Y-130728052D01*
X127558388Y-130703474D01*
X127681276Y-130703474D01*
X127730431Y-130728052D01*
X127755008Y-130752629D01*
X127779586Y-130801784D01*
X127779586Y-130949250D01*
X127755008Y-130998405D01*
X127730431Y-131022982D01*
X127312613Y-130506854D02*
X127288036Y-130482277D01*
X127263458Y-130433122D01*
X127263458Y-130310234D01*
X127288036Y-130261079D01*
X127312613Y-130236501D01*
X127361768Y-130211924D01*
X127410923Y-130211924D01*
X127484656Y-130236501D01*
X127779586Y-130531432D01*
X127779586Y-130211924D01*
%TO.C,R6*%
X131517174Y-69677086D02*
X131345132Y-69431311D01*
X131222244Y-69677086D02*
X131222244Y-69160958D01*
X131418864Y-69160958D01*
X131468019Y-69185536D01*
X131492597Y-69210113D01*
X131517174Y-69259268D01*
X131517174Y-69333001D01*
X131492597Y-69382156D01*
X131468019Y-69406733D01*
X131418864Y-69431311D01*
X131222244Y-69431311D01*
X131959570Y-69160958D02*
X131861260Y-69160958D01*
X131812104Y-69185536D01*
X131787527Y-69210113D01*
X131738372Y-69283846D01*
X131713794Y-69382156D01*
X131713794Y-69578776D01*
X131738372Y-69627931D01*
X131762949Y-69652508D01*
X131812104Y-69677086D01*
X131910415Y-69677086D01*
X131959570Y-69652508D01*
X131984147Y-69627931D01*
X132008725Y-69578776D01*
X132008725Y-69455888D01*
X131984147Y-69406733D01*
X131959570Y-69382156D01*
X131910415Y-69357578D01*
X131812104Y-69357578D01*
X131762949Y-69382156D01*
X131738372Y-69406733D01*
X131713794Y-69455888D01*
%TO.C,J2*%
X137061810Y-142744066D02*
X137902188Y-142744066D01*
X138070263Y-142800091D01*
X138182313Y-142912142D01*
X138238338Y-143080217D01*
X138238338Y-143192267D01*
X137173861Y-142239840D02*
X137117836Y-142183815D01*
X137061810Y-142071764D01*
X137061810Y-141791639D01*
X137117836Y-141679588D01*
X137173861Y-141623563D01*
X137285911Y-141567538D01*
X137397961Y-141567538D01*
X137566037Y-141623563D01*
X138238338Y-142295865D01*
X138238338Y-141567538D01*
%TO.C,R9*%
X138502174Y-76979586D02*
X138330132Y-76733811D01*
X138207244Y-76979586D02*
X138207244Y-76463458D01*
X138403864Y-76463458D01*
X138453019Y-76488036D01*
X138477597Y-76512613D01*
X138502174Y-76561768D01*
X138502174Y-76635501D01*
X138477597Y-76684656D01*
X138453019Y-76709233D01*
X138403864Y-76733811D01*
X138207244Y-76733811D01*
X138747949Y-76979586D02*
X138846260Y-76979586D01*
X138895415Y-76955008D01*
X138919992Y-76930431D01*
X138969147Y-76856698D01*
X138993725Y-76758388D01*
X138993725Y-76561768D01*
X138969147Y-76512613D01*
X138944570Y-76488036D01*
X138895415Y-76463458D01*
X138797104Y-76463458D01*
X138747949Y-76488036D01*
X138723372Y-76512613D01*
X138698794Y-76561768D01*
X138698794Y-76684656D01*
X138723372Y-76733811D01*
X138747949Y-76758388D01*
X138797104Y-76782966D01*
X138895415Y-76782966D01*
X138944570Y-76758388D01*
X138969147Y-76733811D01*
X138993725Y-76684656D01*
%TO.C,D2*%
X142065625Y-62149010D02*
X142065625Y-61429682D01*
X142236893Y-61429682D01*
X142339655Y-61463936D01*
X142408162Y-61532443D01*
X142442416Y-61600950D01*
X142476669Y-61737965D01*
X142476669Y-61840726D01*
X142442416Y-61977741D01*
X142408162Y-62046249D01*
X142339655Y-62114756D01*
X142236893Y-62149010D01*
X142065625Y-62149010D01*
X142750699Y-61498189D02*
X142784953Y-61463936D01*
X142853460Y-61429682D01*
X143024729Y-61429682D01*
X143093236Y-61463936D01*
X143127490Y-61498189D01*
X143161744Y-61566697D01*
X143161744Y-61635204D01*
X143127490Y-61737965D01*
X142716445Y-62149010D01*
X143161744Y-62149010D01*
%TO.C,C31*%
X138842931Y-122622525D02*
X138867508Y-122647102D01*
X138892086Y-122720835D01*
X138892086Y-122769990D01*
X138867508Y-122843723D01*
X138818353Y-122892878D01*
X138769198Y-122917455D01*
X138670888Y-122942033D01*
X138597156Y-122942033D01*
X138498846Y-122917455D01*
X138449691Y-122892878D01*
X138400536Y-122843723D01*
X138375958Y-122769990D01*
X138375958Y-122720835D01*
X138400536Y-122647102D01*
X138425113Y-122622525D01*
X138375958Y-122450482D02*
X138375958Y-122130974D01*
X138572578Y-122303017D01*
X138572578Y-122229284D01*
X138597156Y-122180129D01*
X138621733Y-122155552D01*
X138670888Y-122130974D01*
X138793776Y-122130974D01*
X138842931Y-122155552D01*
X138867508Y-122180129D01*
X138892086Y-122229284D01*
X138892086Y-122376750D01*
X138867508Y-122425905D01*
X138842931Y-122450482D01*
X138892086Y-121639424D02*
X138892086Y-121934354D01*
X138892086Y-121786889D02*
X138375958Y-121786889D01*
X138449691Y-121836044D01*
X138498846Y-121885199D01*
X138523423Y-121934354D01*
%TO.C,R5*%
X146194586Y-67060025D02*
X145948811Y-67232067D01*
X146194586Y-67354955D02*
X145678458Y-67354955D01*
X145678458Y-67158335D01*
X145703036Y-67109180D01*
X145727613Y-67084602D01*
X145776768Y-67060025D01*
X145850501Y-67060025D01*
X145899656Y-67084602D01*
X145924233Y-67109180D01*
X145948811Y-67158335D01*
X145948811Y-67354955D01*
X145678458Y-66593052D02*
X145678458Y-66838827D01*
X145924233Y-66863405D01*
X145899656Y-66838827D01*
X145875078Y-66789672D01*
X145875078Y-66666784D01*
X145899656Y-66617629D01*
X145924233Y-66593052D01*
X145973388Y-66568474D01*
X146096276Y-66568474D01*
X146145431Y-66593052D01*
X146170008Y-66617629D01*
X146194586Y-66666784D01*
X146194586Y-66789672D01*
X146170008Y-66838827D01*
X146145431Y-66863405D01*
%TO.C,R1*%
X138349169Y-53259010D02*
X138109393Y-52916473D01*
X137938125Y-53259010D02*
X137938125Y-52539682D01*
X138212155Y-52539682D01*
X138280662Y-52573936D01*
X138314916Y-52608189D01*
X138349169Y-52676697D01*
X138349169Y-52779458D01*
X138314916Y-52847965D01*
X138280662Y-52882219D01*
X138212155Y-52916473D01*
X137938125Y-52916473D01*
X139034244Y-53259010D02*
X138623199Y-53259010D01*
X138828721Y-53259010D02*
X138828721Y-52539682D01*
X138760214Y-52642443D01*
X138691707Y-52710950D01*
X138623199Y-52745204D01*
D13*
%TO.C,IC5*%
X165341467Y-121933297D02*
X164341467Y-121933297D01*
X165246229Y-120885678D02*
X165293848Y-120933297D01*
X165341467Y-121076154D01*
X165341467Y-121171392D01*
X165293848Y-121314249D01*
X165198610Y-121409487D01*
X165103372Y-121457107D01*
X164912896Y-121504726D01*
X164770039Y-121504726D01*
X164579563Y-121457107D01*
X164484325Y-121409487D01*
X164389087Y-121314249D01*
X164341467Y-121171392D01*
X164341467Y-121076154D01*
X164389087Y-120933297D01*
X164436706Y-120885678D01*
X164341467Y-119980916D02*
X164341467Y-120457107D01*
X164817658Y-120504726D01*
X164770039Y-120457107D01*
X164722420Y-120361868D01*
X164722420Y-120123773D01*
X164770039Y-120028535D01*
X164817658Y-119980916D01*
X164912896Y-119933297D01*
X165150991Y-119933297D01*
X165246229Y-119980916D01*
X165293848Y-120028535D01*
X165341467Y-120123773D01*
X165341467Y-120361868D01*
X165293848Y-120457107D01*
X165246229Y-120504726D01*
D16*
%TO.C,C26*%
X169084032Y-116478031D02*
X169059454Y-116502608D01*
X168985722Y-116527186D01*
X168936567Y-116527186D01*
X168862834Y-116502608D01*
X168813679Y-116453453D01*
X168789101Y-116404298D01*
X168764524Y-116305988D01*
X168764524Y-116232256D01*
X168789101Y-116133946D01*
X168813679Y-116084791D01*
X168862834Y-116035636D01*
X168936567Y-116011058D01*
X168985722Y-116011058D01*
X169059454Y-116035636D01*
X169084032Y-116060213D01*
X169280652Y-116060213D02*
X169305229Y-116035636D01*
X169354384Y-116011058D01*
X169477272Y-116011058D01*
X169526427Y-116035636D01*
X169551005Y-116060213D01*
X169575582Y-116109368D01*
X169575582Y-116158523D01*
X169551005Y-116232256D01*
X169256074Y-116527186D01*
X169575582Y-116527186D01*
X170017978Y-116011058D02*
X169919667Y-116011058D01*
X169870512Y-116035636D01*
X169845935Y-116060213D01*
X169796780Y-116133946D01*
X169772202Y-116232256D01*
X169772202Y-116428876D01*
X169796780Y-116478031D01*
X169821357Y-116502608D01*
X169870512Y-116527186D01*
X169968823Y-116527186D01*
X170017978Y-116502608D01*
X170042555Y-116478031D01*
X170067133Y-116428876D01*
X170067133Y-116305988D01*
X170042555Y-116256833D01*
X170017978Y-116232256D01*
X169968823Y-116207678D01*
X169870512Y-116207678D01*
X169821357Y-116232256D01*
X169796780Y-116256833D01*
X169772202Y-116305988D01*
%TO.C,C40*%
X135611432Y-130905431D02*
X135586854Y-130930008D01*
X135513122Y-130954586D01*
X135463967Y-130954586D01*
X135390234Y-130930008D01*
X135341079Y-130880853D01*
X135316501Y-130831698D01*
X135291924Y-130733388D01*
X135291924Y-130659656D01*
X135316501Y-130561346D01*
X135341079Y-130512191D01*
X135390234Y-130463036D01*
X135463967Y-130438458D01*
X135513122Y-130438458D01*
X135586854Y-130463036D01*
X135611432Y-130487613D01*
X136053827Y-130610501D02*
X136053827Y-130954586D01*
X135930939Y-130413880D02*
X135808052Y-130782543D01*
X136127560Y-130782543D01*
X136422490Y-130438458D02*
X136471645Y-130438458D01*
X136520800Y-130463036D01*
X136545378Y-130487613D01*
X136569955Y-130536768D01*
X136594533Y-130635078D01*
X136594533Y-130757966D01*
X136569955Y-130856276D01*
X136545378Y-130905431D01*
X136520800Y-130930008D01*
X136471645Y-130954586D01*
X136422490Y-130954586D01*
X136373335Y-130930008D01*
X136348757Y-130905431D01*
X136324180Y-130856276D01*
X136299602Y-130757966D01*
X136299602Y-130635078D01*
X136324180Y-130536768D01*
X136348757Y-130487613D01*
X136373335Y-130463036D01*
X136422490Y-130438458D01*
%TO.C,J3*%
X148809310Y-141156566D02*
X149649688Y-141156566D01*
X149817763Y-141212591D01*
X149929813Y-141324642D01*
X149985838Y-141492717D01*
X149985838Y-141604767D01*
X148809310Y-140708365D02*
X148809310Y-139980038D01*
X149257512Y-140372214D01*
X149257512Y-140204139D01*
X149313537Y-140092088D01*
X149369562Y-140036063D01*
X149481612Y-139980038D01*
X149761738Y-139980038D01*
X149873788Y-140036063D01*
X149929813Y-140092088D01*
X149985838Y-140204139D01*
X149985838Y-140540290D01*
X149929813Y-140652340D01*
X149873788Y-140708365D01*
%TO.C,R33*%
X147298486Y-131723925D02*
X147052711Y-131895967D01*
X147298486Y-132018855D02*
X146782358Y-132018855D01*
X146782358Y-131822235D01*
X146806936Y-131773080D01*
X146831513Y-131748502D01*
X146880668Y-131723925D01*
X146954401Y-131723925D01*
X147003556Y-131748502D01*
X147028133Y-131773080D01*
X147052711Y-131822235D01*
X147052711Y-132018855D01*
X146782358Y-131551882D02*
X146782358Y-131232374D01*
X146978978Y-131404417D01*
X146978978Y-131330684D01*
X147003556Y-131281529D01*
X147028133Y-131256952D01*
X147077288Y-131232374D01*
X147200176Y-131232374D01*
X147249331Y-131256952D01*
X147273908Y-131281529D01*
X147298486Y-131330684D01*
X147298486Y-131478150D01*
X147273908Y-131527305D01*
X147249331Y-131551882D01*
X146782358Y-131060332D02*
X146782358Y-130740824D01*
X146978978Y-130912867D01*
X146978978Y-130839134D01*
X147003556Y-130789979D01*
X147028133Y-130765401D01*
X147077288Y-130740824D01*
X147200176Y-130740824D01*
X147249331Y-130765401D01*
X147273908Y-130789979D01*
X147298486Y-130839134D01*
X147298486Y-130986599D01*
X147273908Y-131035754D01*
X147249331Y-131060332D01*
%TO.C,C21*%
X156218674Y-108680431D02*
X156194097Y-108705008D01*
X156120364Y-108729586D01*
X156071209Y-108729586D01*
X155997476Y-108705008D01*
X155948321Y-108655853D01*
X155923744Y-108606698D01*
X155899166Y-108508388D01*
X155899166Y-108434656D01*
X155923744Y-108336346D01*
X155948321Y-108287191D01*
X155997476Y-108238036D01*
X156071209Y-108213458D01*
X156120364Y-108213458D01*
X156194097Y-108238036D01*
X156218674Y-108262613D01*
X156415294Y-108262613D02*
X156439872Y-108238036D01*
X156489027Y-108213458D01*
X156611915Y-108213458D01*
X156661070Y-108238036D01*
X156685647Y-108262613D01*
X156710225Y-108311768D01*
X156710225Y-108360923D01*
X156685647Y-108434656D01*
X156390717Y-108729586D01*
X156710225Y-108729586D01*
X157201775Y-108729586D02*
X156906845Y-108729586D01*
X157054310Y-108729586D02*
X157054310Y-108213458D01*
X157005155Y-108287191D01*
X156956000Y-108336346D01*
X156906845Y-108360923D01*
D14*
%TO.C,R30*%
X135307662Y-125019426D02*
X135158649Y-125123735D01*
X135307662Y-125198242D02*
X134994734Y-125198242D01*
X134994734Y-125079031D01*
X135009636Y-125049229D01*
X135024537Y-125034327D01*
X135054340Y-125019426D01*
X135099044Y-125019426D01*
X135128846Y-125034327D01*
X135143748Y-125049229D01*
X135158649Y-125079031D01*
X135158649Y-125198242D01*
X134994734Y-124915117D02*
X134994734Y-124721399D01*
X135113945Y-124825709D01*
X135113945Y-124781005D01*
X135128846Y-124751202D01*
X135143748Y-124736301D01*
X135173550Y-124721399D01*
X135248057Y-124721399D01*
X135277860Y-124736301D01*
X135292761Y-124751202D01*
X135307662Y-124781005D01*
X135307662Y-124870413D01*
X135292761Y-124900215D01*
X135277860Y-124915117D01*
X134994734Y-124527682D02*
X134994734Y-124497879D01*
X135009636Y-124468077D01*
X135024537Y-124453175D01*
X135054340Y-124438274D01*
X135113945Y-124423373D01*
X135188452Y-124423373D01*
X135248057Y-124438274D01*
X135277860Y-124453175D01*
X135292761Y-124468077D01*
X135307662Y-124497879D01*
X135307662Y-124527682D01*
X135292761Y-124557485D01*
X135277860Y-124572386D01*
X135248057Y-124587287D01*
X135188452Y-124602189D01*
X135113945Y-124602189D01*
X135054340Y-124587287D01*
X135024537Y-124572386D01*
X135009636Y-124557485D01*
X134994734Y-124527682D01*
D16*
%TO.C,C42*%
X160228574Y-132934331D02*
X160203997Y-132958908D01*
X160130264Y-132983486D01*
X160081109Y-132983486D01*
X160007376Y-132958908D01*
X159958221Y-132909753D01*
X159933644Y-132860598D01*
X159909066Y-132762288D01*
X159909066Y-132688556D01*
X159933644Y-132590246D01*
X159958221Y-132541091D01*
X160007376Y-132491936D01*
X160081109Y-132467358D01*
X160130264Y-132467358D01*
X160203997Y-132491936D01*
X160228574Y-132516513D01*
X160670970Y-132639401D02*
X160670970Y-132983486D01*
X160548082Y-132442780D02*
X160425194Y-132811443D01*
X160744702Y-132811443D01*
X160916745Y-132516513D02*
X160941322Y-132491936D01*
X160990477Y-132467358D01*
X161113365Y-132467358D01*
X161162520Y-132491936D01*
X161187098Y-132516513D01*
X161211675Y-132565668D01*
X161211675Y-132614823D01*
X161187098Y-132688556D01*
X160892167Y-132983486D01*
X161211675Y-132983486D01*
%TO.C,C15*%
X142970431Y-90872525D02*
X142995008Y-90897102D01*
X143019586Y-90970835D01*
X143019586Y-91019990D01*
X142995008Y-91093723D01*
X142945853Y-91142878D01*
X142896698Y-91167455D01*
X142798388Y-91192033D01*
X142724656Y-91192033D01*
X142626346Y-91167455D01*
X142577191Y-91142878D01*
X142528036Y-91093723D01*
X142503458Y-91019990D01*
X142503458Y-90970835D01*
X142528036Y-90897102D01*
X142552613Y-90872525D01*
X143019586Y-90380974D02*
X143019586Y-90675905D01*
X143019586Y-90528439D02*
X142503458Y-90528439D01*
X142577191Y-90577595D01*
X142626346Y-90626750D01*
X142650923Y-90675905D01*
X142503458Y-89914001D02*
X142503458Y-90159777D01*
X142749233Y-90184354D01*
X142724656Y-90159777D01*
X142700078Y-90110622D01*
X142700078Y-89987734D01*
X142724656Y-89938579D01*
X142749233Y-89914001D01*
X142798388Y-89889424D01*
X142921276Y-89889424D01*
X142970431Y-89914001D01*
X142995008Y-89938579D01*
X143019586Y-89987734D01*
X143019586Y-90110622D01*
X142995008Y-90159777D01*
X142970431Y-90184354D01*
%TO.C,R16*%
X138502174Y-92537086D02*
X138330132Y-92291311D01*
X138207244Y-92537086D02*
X138207244Y-92020958D01*
X138403864Y-92020958D01*
X138453019Y-92045536D01*
X138477597Y-92070113D01*
X138502174Y-92119268D01*
X138502174Y-92193001D01*
X138477597Y-92242156D01*
X138453019Y-92266733D01*
X138403864Y-92291311D01*
X138207244Y-92291311D01*
X138993725Y-92537086D02*
X138698794Y-92537086D01*
X138846260Y-92537086D02*
X138846260Y-92020958D01*
X138797104Y-92094691D01*
X138747949Y-92143846D01*
X138698794Y-92168423D01*
X139436120Y-92020958D02*
X139337810Y-92020958D01*
X139288655Y-92045536D01*
X139264077Y-92070113D01*
X139214922Y-92143846D01*
X139190345Y-92242156D01*
X139190345Y-92438776D01*
X139214922Y-92487931D01*
X139239500Y-92512508D01*
X139288655Y-92537086D01*
X139386965Y-92537086D01*
X139436120Y-92512508D01*
X139460698Y-92487931D01*
X139485275Y-92438776D01*
X139485275Y-92315888D01*
X139460698Y-92266733D01*
X139436120Y-92242156D01*
X139386965Y-92217578D01*
X139288655Y-92217578D01*
X139239500Y-92242156D01*
X139214922Y-92266733D01*
X139190345Y-92315888D01*
%TO.C,C30*%
X155184674Y-121038231D02*
X155160097Y-121062808D01*
X155086364Y-121087386D01*
X155037209Y-121087386D01*
X154963476Y-121062808D01*
X154914321Y-121013653D01*
X154889744Y-120964498D01*
X154865166Y-120866188D01*
X154865166Y-120792456D01*
X154889744Y-120694146D01*
X154914321Y-120644991D01*
X154963476Y-120595836D01*
X155037209Y-120571258D01*
X155086364Y-120571258D01*
X155160097Y-120595836D01*
X155184674Y-120620413D01*
X155356717Y-120571258D02*
X155676225Y-120571258D01*
X155504182Y-120767878D01*
X155577915Y-120767878D01*
X155627070Y-120792456D01*
X155651647Y-120817033D01*
X155676225Y-120866188D01*
X155676225Y-120989076D01*
X155651647Y-121038231D01*
X155627070Y-121062808D01*
X155577915Y-121087386D01*
X155430449Y-121087386D01*
X155381294Y-121062808D01*
X155356717Y-121038231D01*
X155995732Y-120571258D02*
X156044888Y-120571258D01*
X156094043Y-120595836D01*
X156118620Y-120620413D01*
X156143198Y-120669568D01*
X156167775Y-120767878D01*
X156167775Y-120890766D01*
X156143198Y-120989076D01*
X156118620Y-121038231D01*
X156094043Y-121062808D01*
X156044888Y-121087386D01*
X155995732Y-121087386D01*
X155946577Y-121062808D01*
X155922000Y-121038231D01*
X155897422Y-120989076D01*
X155872845Y-120890766D01*
X155872845Y-120767878D01*
X155897422Y-120669568D01*
X155922000Y-120620413D01*
X155946577Y-120595836D01*
X155995732Y-120571258D01*
%TO.C,C24*%
X165284774Y-117295531D02*
X165260197Y-117320108D01*
X165186464Y-117344686D01*
X165137309Y-117344686D01*
X165063576Y-117320108D01*
X165014421Y-117270953D01*
X164989844Y-117221798D01*
X164965266Y-117123488D01*
X164965266Y-117049756D01*
X164989844Y-116951446D01*
X165014421Y-116902291D01*
X165063576Y-116853136D01*
X165137309Y-116828558D01*
X165186464Y-116828558D01*
X165260197Y-116853136D01*
X165284774Y-116877713D01*
X165481394Y-116877713D02*
X165505972Y-116853136D01*
X165555127Y-116828558D01*
X165678015Y-116828558D01*
X165727170Y-116853136D01*
X165751747Y-116877713D01*
X165776325Y-116926868D01*
X165776325Y-116976023D01*
X165751747Y-117049756D01*
X165456817Y-117344686D01*
X165776325Y-117344686D01*
X166218720Y-117000601D02*
X166218720Y-117344686D01*
X166095832Y-116803980D02*
X165972945Y-117172643D01*
X166292453Y-117172643D01*
%TO.C,C14*%
X138502174Y-90900431D02*
X138477597Y-90925008D01*
X138403864Y-90949586D01*
X138354709Y-90949586D01*
X138280976Y-90925008D01*
X138231821Y-90875853D01*
X138207244Y-90826698D01*
X138182666Y-90728388D01*
X138182666Y-90654656D01*
X138207244Y-90556346D01*
X138231821Y-90507191D01*
X138280976Y-90458036D01*
X138354709Y-90433458D01*
X138403864Y-90433458D01*
X138477597Y-90458036D01*
X138502174Y-90482613D01*
X138993725Y-90949586D02*
X138698794Y-90949586D01*
X138846260Y-90949586D02*
X138846260Y-90433458D01*
X138797104Y-90507191D01*
X138747949Y-90556346D01*
X138698794Y-90580923D01*
X139436120Y-90605501D02*
X139436120Y-90949586D01*
X139313232Y-90408880D02*
X139190345Y-90777543D01*
X139509853Y-90777543D01*
D15*
%TO.C,IC3*%
X128945881Y-86468143D02*
X128097521Y-86468143D01*
X128865085Y-85579385D02*
X128905483Y-85619783D01*
X128945881Y-85740977D01*
X128945881Y-85821774D01*
X128905483Y-85942968D01*
X128824687Y-86023764D01*
X128743891Y-86064162D01*
X128582299Y-86104560D01*
X128461104Y-86104560D01*
X128299512Y-86064162D01*
X128218716Y-86023764D01*
X128137920Y-85942968D01*
X128097521Y-85821774D01*
X128097521Y-85740977D01*
X128137920Y-85619783D01*
X128178318Y-85579385D01*
X128097521Y-85296598D02*
X128097521Y-84771423D01*
X128420706Y-85054210D01*
X128420706Y-84933015D01*
X128461104Y-84852219D01*
X128501502Y-84811821D01*
X128582299Y-84771423D01*
X128784289Y-84771423D01*
X128865085Y-84811821D01*
X128905483Y-84852219D01*
X128945881Y-84933015D01*
X128945881Y-85175404D01*
X128905483Y-85256200D01*
X128865085Y-85296598D01*
D16*
%TO.C,C25*%
X164219674Y-112172931D02*
X164195097Y-112197508D01*
X164121364Y-112222086D01*
X164072209Y-112222086D01*
X163998476Y-112197508D01*
X163949321Y-112148353D01*
X163924744Y-112099198D01*
X163900166Y-112000888D01*
X163900166Y-111927156D01*
X163924744Y-111828846D01*
X163949321Y-111779691D01*
X163998476Y-111730536D01*
X164072209Y-111705958D01*
X164121364Y-111705958D01*
X164195097Y-111730536D01*
X164219674Y-111755113D01*
X164416294Y-111755113D02*
X164440872Y-111730536D01*
X164490027Y-111705958D01*
X164612915Y-111705958D01*
X164662070Y-111730536D01*
X164686647Y-111755113D01*
X164711225Y-111804268D01*
X164711225Y-111853423D01*
X164686647Y-111927156D01*
X164391717Y-112222086D01*
X164711225Y-112222086D01*
X165178198Y-111705958D02*
X164932422Y-111705958D01*
X164907845Y-111951733D01*
X164932422Y-111927156D01*
X164981577Y-111902578D01*
X165104465Y-111902578D01*
X165153620Y-111927156D01*
X165178198Y-111951733D01*
X165202775Y-112000888D01*
X165202775Y-112123776D01*
X165178198Y-112172931D01*
X165153620Y-112197508D01*
X165104465Y-112222086D01*
X164981577Y-112222086D01*
X164932422Y-112197508D01*
X164907845Y-112172931D01*
%TO.C,C41*%
X169242832Y-124477931D02*
X169218254Y-124502508D01*
X169144522Y-124527086D01*
X169095367Y-124527086D01*
X169021634Y-124502508D01*
X168972479Y-124453353D01*
X168947901Y-124404198D01*
X168923324Y-124305888D01*
X168923324Y-124232156D01*
X168947901Y-124133846D01*
X168972479Y-124084691D01*
X169021634Y-124035536D01*
X169095367Y-124010958D01*
X169144522Y-124010958D01*
X169218254Y-124035536D01*
X169242832Y-124060113D01*
X169685227Y-124183001D02*
X169685227Y-124527086D01*
X169562339Y-123986380D02*
X169439452Y-124355043D01*
X169758960Y-124355043D01*
X170225933Y-124527086D02*
X169931002Y-124527086D01*
X170078467Y-124527086D02*
X170078467Y-124010958D01*
X170029312Y-124084691D01*
X169980157Y-124133846D01*
X169931002Y-124158423D01*
D17*
%TO.C,C4*%
X155924040Y-66742179D02*
X155888896Y-66777323D01*
X155783464Y-66812467D01*
X155713177Y-66812467D01*
X155607745Y-66777323D01*
X155537457Y-66707035D01*
X155502313Y-66636747D01*
X155467169Y-66496171D01*
X155467169Y-66390740D01*
X155502313Y-66250164D01*
X155537457Y-66179876D01*
X155607745Y-66109589D01*
X155713177Y-66074445D01*
X155783464Y-66074445D01*
X155888896Y-66109589D01*
X155924040Y-66144732D01*
X156556630Y-66320452D02*
X156556630Y-66812467D01*
X156380911Y-66039301D02*
X156205191Y-66566459D01*
X156662062Y-66566459D01*
D16*
%TO.C,R24*%
X156917274Y-112222186D02*
X156745232Y-111976411D01*
X156622344Y-112222186D02*
X156622344Y-111706058D01*
X156818964Y-111706058D01*
X156868119Y-111730636D01*
X156892697Y-111755213D01*
X156917274Y-111804368D01*
X156917274Y-111878101D01*
X156892697Y-111927256D01*
X156868119Y-111951833D01*
X156818964Y-111976411D01*
X156622344Y-111976411D01*
X157113894Y-111755213D02*
X157138472Y-111730636D01*
X157187627Y-111706058D01*
X157310515Y-111706058D01*
X157359670Y-111730636D01*
X157384247Y-111755213D01*
X157408825Y-111804368D01*
X157408825Y-111853523D01*
X157384247Y-111927256D01*
X157089317Y-112222186D01*
X157408825Y-112222186D01*
X157851220Y-111878101D02*
X157851220Y-112222186D01*
X157728332Y-111681480D02*
X157605445Y-112050143D01*
X157924953Y-112050143D01*
D14*
%TO.C,R31*%
X150499062Y-128405826D02*
X150350049Y-128510135D01*
X150499062Y-128584642D02*
X150186134Y-128584642D01*
X150186134Y-128465431D01*
X150201036Y-128435629D01*
X150215937Y-128420727D01*
X150245740Y-128405826D01*
X150290444Y-128405826D01*
X150320246Y-128420727D01*
X150335148Y-128435629D01*
X150350049Y-128465431D01*
X150350049Y-128584642D01*
X150186134Y-128301517D02*
X150186134Y-128107799D01*
X150305345Y-128212109D01*
X150305345Y-128167405D01*
X150320246Y-128137602D01*
X150335148Y-128122701D01*
X150364950Y-128107799D01*
X150439457Y-128107799D01*
X150469260Y-128122701D01*
X150484161Y-128137602D01*
X150499062Y-128167405D01*
X150499062Y-128256813D01*
X150484161Y-128286615D01*
X150469260Y-128301517D01*
X150499062Y-127809773D02*
X150499062Y-127988589D01*
X150499062Y-127899181D02*
X150186134Y-127899181D01*
X150230838Y-127928983D01*
X150260641Y-127958786D01*
X150275542Y-127988589D01*
D16*
%TO.C,R26*%
X128559284Y-112838338D02*
X128167108Y-112278087D01*
X127886982Y-112838338D02*
X127886982Y-111661810D01*
X128335183Y-111661810D01*
X128447233Y-111717836D01*
X128503259Y-111773861D01*
X128559284Y-111885911D01*
X128559284Y-112053986D01*
X128503259Y-112166037D01*
X128447233Y-112222062D01*
X128335183Y-112278087D01*
X127886982Y-112278087D01*
X129007485Y-111773861D02*
X129063510Y-111717836D01*
X129175560Y-111661810D01*
X129455686Y-111661810D01*
X129567736Y-111717836D01*
X129623761Y-111773861D01*
X129679787Y-111885911D01*
X129679787Y-111997961D01*
X129623761Y-112166037D01*
X128951460Y-112838338D01*
X129679787Y-112838338D01*
X130688239Y-111661810D02*
X130464139Y-111661810D01*
X130352088Y-111717836D01*
X130296063Y-111773861D01*
X130184013Y-111941936D01*
X130127988Y-112166037D01*
X130127988Y-112614238D01*
X130184013Y-112726288D01*
X130240038Y-112782313D01*
X130352088Y-112838338D01*
X130576189Y-112838338D01*
X130688239Y-112782313D01*
X130744264Y-112726288D01*
X130800289Y-112614238D01*
X130800289Y-112334112D01*
X130744264Y-112222062D01*
X130688239Y-112166037D01*
X130576189Y-112110012D01*
X130352088Y-112110012D01*
X130240038Y-112166037D01*
X130184013Y-112222062D01*
X130127988Y-112334112D01*
%TO.C,R2*%
X164866074Y-73050986D02*
X164694032Y-72805211D01*
X164571144Y-73050986D02*
X164571144Y-72534858D01*
X164767764Y-72534858D01*
X164816919Y-72559436D01*
X164841497Y-72584013D01*
X164866074Y-72633168D01*
X164866074Y-72706901D01*
X164841497Y-72756056D01*
X164816919Y-72780633D01*
X164767764Y-72805211D01*
X164571144Y-72805211D01*
X165062694Y-72584013D02*
X165087272Y-72559436D01*
X165136427Y-72534858D01*
X165259315Y-72534858D01*
X165308470Y-72559436D01*
X165333047Y-72584013D01*
X165357625Y-72633168D01*
X165357625Y-72682323D01*
X165333047Y-72756056D01*
X165038117Y-73050986D01*
X165357625Y-73050986D01*
%TO.C,J6*%
X137061810Y-155126566D02*
X137902188Y-155126566D01*
X138070263Y-155182591D01*
X138182313Y-155294642D01*
X138238338Y-155462717D01*
X138238338Y-155574767D01*
X137061810Y-154062088D02*
X137061810Y-154286189D01*
X137117836Y-154398239D01*
X137173861Y-154454264D01*
X137341936Y-154566315D01*
X137566037Y-154622340D01*
X138014238Y-154622340D01*
X138126288Y-154566315D01*
X138182313Y-154510290D01*
X138238338Y-154398239D01*
X138238338Y-154174139D01*
X138182313Y-154062088D01*
X138126288Y-154006063D01*
X138014238Y-153950038D01*
X137734112Y-153950038D01*
X137622062Y-154006063D01*
X137566037Y-154062088D01*
X137510012Y-154174139D01*
X137510012Y-154398239D01*
X137566037Y-154510290D01*
X137622062Y-154566315D01*
X137734112Y-154622340D01*
%TO.C,R41*%
X139454674Y-145559586D02*
X139282632Y-145313811D01*
X139159744Y-145559586D02*
X139159744Y-145043458D01*
X139356364Y-145043458D01*
X139405519Y-145068036D01*
X139430097Y-145092613D01*
X139454674Y-145141768D01*
X139454674Y-145215501D01*
X139430097Y-145264656D01*
X139405519Y-145289233D01*
X139356364Y-145313811D01*
X139159744Y-145313811D01*
X139897070Y-145215501D02*
X139897070Y-145559586D01*
X139774182Y-145018880D02*
X139651294Y-145387543D01*
X139970802Y-145387543D01*
X140437775Y-145559586D02*
X140142845Y-145559586D01*
X140290310Y-145559586D02*
X140290310Y-145043458D01*
X140241155Y-145117191D01*
X140192000Y-145166346D01*
X140142845Y-145190923D01*
%TO.C,C34*%
X148296074Y-125049331D02*
X148271497Y-125073908D01*
X148197764Y-125098486D01*
X148148609Y-125098486D01*
X148074876Y-125073908D01*
X148025721Y-125024753D01*
X148001144Y-124975598D01*
X147976566Y-124877288D01*
X147976566Y-124803556D01*
X148001144Y-124705246D01*
X148025721Y-124656091D01*
X148074876Y-124606936D01*
X148148609Y-124582358D01*
X148197764Y-124582358D01*
X148271497Y-124606936D01*
X148296074Y-124631513D01*
X148468117Y-124582358D02*
X148787625Y-124582358D01*
X148615582Y-124778978D01*
X148689315Y-124778978D01*
X148738470Y-124803556D01*
X148763047Y-124828133D01*
X148787625Y-124877288D01*
X148787625Y-125000176D01*
X148763047Y-125049331D01*
X148738470Y-125073908D01*
X148689315Y-125098486D01*
X148541849Y-125098486D01*
X148492694Y-125073908D01*
X148468117Y-125049331D01*
X149230020Y-124754401D02*
X149230020Y-125098486D01*
X149107132Y-124557780D02*
X148984245Y-124926443D01*
X149303753Y-124926443D01*
%TO.C,R43*%
X163267174Y-145877086D02*
X163095132Y-145631311D01*
X162972244Y-145877086D02*
X162972244Y-145360958D01*
X163168864Y-145360958D01*
X163218019Y-145385536D01*
X163242597Y-145410113D01*
X163267174Y-145459268D01*
X163267174Y-145533001D01*
X163242597Y-145582156D01*
X163218019Y-145606733D01*
X163168864Y-145631311D01*
X162972244Y-145631311D01*
X163709570Y-145533001D02*
X163709570Y-145877086D01*
X163586682Y-145336380D02*
X163463794Y-145705043D01*
X163783302Y-145705043D01*
X163930767Y-145360958D02*
X164250275Y-145360958D01*
X164078232Y-145557578D01*
X164151965Y-145557578D01*
X164201120Y-145582156D01*
X164225698Y-145606733D01*
X164250275Y-145655888D01*
X164250275Y-145778776D01*
X164225698Y-145827931D01*
X164201120Y-145852508D01*
X164151965Y-145877086D01*
X164004500Y-145877086D01*
X163955345Y-145852508D01*
X163930767Y-145827931D01*
%TO.C,C13*%
X133071432Y-91217931D02*
X133046854Y-91242508D01*
X132973122Y-91267086D01*
X132923967Y-91267086D01*
X132850234Y-91242508D01*
X132801079Y-91193353D01*
X132776501Y-91144198D01*
X132751924Y-91045888D01*
X132751924Y-90972156D01*
X132776501Y-90873846D01*
X132801079Y-90824691D01*
X132850234Y-90775536D01*
X132923967Y-90750958D01*
X132973122Y-90750958D01*
X133046854Y-90775536D01*
X133071432Y-90800113D01*
X133562982Y-91267086D02*
X133268052Y-91267086D01*
X133415517Y-91267086D02*
X133415517Y-90750958D01*
X133366362Y-90824691D01*
X133317207Y-90873846D01*
X133268052Y-90898423D01*
X133735025Y-90750958D02*
X134054533Y-90750958D01*
X133882490Y-90947578D01*
X133956223Y-90947578D01*
X134005378Y-90972156D01*
X134029955Y-90996733D01*
X134054533Y-91045888D01*
X134054533Y-91168776D01*
X134029955Y-91217931D01*
X134005378Y-91242508D01*
X133956223Y-91267086D01*
X133808757Y-91267086D01*
X133759602Y-91242508D01*
X133735025Y-91217931D01*
%TO.C,R17*%
X127356432Y-93489586D02*
X127184389Y-93243811D01*
X127061501Y-93489586D02*
X127061501Y-92973458D01*
X127258122Y-92973458D01*
X127307277Y-92998036D01*
X127331854Y-93022613D01*
X127356432Y-93071768D01*
X127356432Y-93145501D01*
X127331854Y-93194656D01*
X127307277Y-93219233D01*
X127258122Y-93243811D01*
X127061501Y-93243811D01*
X127847982Y-93489586D02*
X127553052Y-93489586D01*
X127700517Y-93489586D02*
X127700517Y-92973458D01*
X127651362Y-93047191D01*
X127602207Y-93096346D01*
X127553052Y-93120923D01*
X128020025Y-92973458D02*
X128364110Y-92973458D01*
X128142912Y-93489586D01*
%TO.C,C19*%
X136563932Y-103600431D02*
X136539354Y-103625008D01*
X136465622Y-103649586D01*
X136416467Y-103649586D01*
X136342734Y-103625008D01*
X136293579Y-103575853D01*
X136269001Y-103526698D01*
X136244424Y-103428388D01*
X136244424Y-103354656D01*
X136269001Y-103256346D01*
X136293579Y-103207191D01*
X136342734Y-103158036D01*
X136416467Y-103133458D01*
X136465622Y-103133458D01*
X136539354Y-103158036D01*
X136563932Y-103182613D01*
X137055482Y-103649586D02*
X136760552Y-103649586D01*
X136908017Y-103649586D02*
X136908017Y-103133458D01*
X136858862Y-103207191D01*
X136809707Y-103256346D01*
X136760552Y-103280923D01*
X137301257Y-103649586D02*
X137399567Y-103649586D01*
X137448723Y-103625008D01*
X137473300Y-103600431D01*
X137522455Y-103526698D01*
X137547033Y-103428388D01*
X137547033Y-103231768D01*
X137522455Y-103182613D01*
X137497878Y-103158036D01*
X137448723Y-103133458D01*
X137350412Y-103133458D01*
X137301257Y-103158036D01*
X137276680Y-103182613D01*
X137252102Y-103231768D01*
X137252102Y-103354656D01*
X137276680Y-103403811D01*
X137301257Y-103428388D01*
X137350412Y-103452966D01*
X137448723Y-103452966D01*
X137497878Y-103428388D01*
X137522455Y-103403811D01*
X137547033Y-103354656D01*
%TO.C,C12*%
X127356432Y-90265431D02*
X127331854Y-90290008D01*
X127258122Y-90314586D01*
X127208967Y-90314586D01*
X127135234Y-90290008D01*
X127086079Y-90240853D01*
X127061501Y-90191698D01*
X127036924Y-90093388D01*
X127036924Y-90019656D01*
X127061501Y-89921346D01*
X127086079Y-89872191D01*
X127135234Y-89823036D01*
X127208967Y-89798458D01*
X127258122Y-89798458D01*
X127331854Y-89823036D01*
X127356432Y-89847613D01*
X127847982Y-90314586D02*
X127553052Y-90314586D01*
X127700517Y-90314586D02*
X127700517Y-89798458D01*
X127651362Y-89872191D01*
X127602207Y-89921346D01*
X127553052Y-89945923D01*
X128044602Y-89847613D02*
X128069180Y-89823036D01*
X128118335Y-89798458D01*
X128241223Y-89798458D01*
X128290378Y-89823036D01*
X128314955Y-89847613D01*
X128339533Y-89896768D01*
X128339533Y-89945923D01*
X128314955Y-90019656D01*
X128020025Y-90314586D01*
X128339533Y-90314586D01*
D19*
%TO.C,R37*%
X147584652Y-144220643D02*
X147463409Y-144047439D01*
X147376807Y-144220643D02*
X147376807Y-143856915D01*
X147515370Y-143856915D01*
X147550011Y-143874236D01*
X147567331Y-143891556D01*
X147584652Y-143926197D01*
X147584652Y-143978158D01*
X147567331Y-144012799D01*
X147550011Y-144030119D01*
X147515370Y-144047439D01*
X147376807Y-144047439D01*
X147705894Y-143856915D02*
X147931059Y-143856915D01*
X147809817Y-143995478D01*
X147861778Y-143995478D01*
X147896419Y-144012799D01*
X147913739Y-144030119D01*
X147931059Y-144064760D01*
X147931059Y-144151362D01*
X147913739Y-144186002D01*
X147896419Y-144203323D01*
X147861778Y-144220643D01*
X147757856Y-144220643D01*
X147723215Y-144203323D01*
X147705894Y-144186002D01*
X148052302Y-143856915D02*
X148294787Y-143856915D01*
X148138904Y-144220643D01*
D16*
%TO.C,C22*%
X151837174Y-110902931D02*
X151812597Y-110927508D01*
X151738864Y-110952086D01*
X151689709Y-110952086D01*
X151615976Y-110927508D01*
X151566821Y-110878353D01*
X151542244Y-110829198D01*
X151517666Y-110730888D01*
X151517666Y-110657156D01*
X151542244Y-110558846D01*
X151566821Y-110509691D01*
X151615976Y-110460536D01*
X151689709Y-110435958D01*
X151738864Y-110435958D01*
X151812597Y-110460536D01*
X151837174Y-110485113D01*
X152033794Y-110485113D02*
X152058372Y-110460536D01*
X152107527Y-110435958D01*
X152230415Y-110435958D01*
X152279570Y-110460536D01*
X152304147Y-110485113D01*
X152328725Y-110534268D01*
X152328725Y-110583423D01*
X152304147Y-110657156D01*
X152009217Y-110952086D01*
X152328725Y-110952086D01*
X152525345Y-110485113D02*
X152549922Y-110460536D01*
X152599077Y-110435958D01*
X152721965Y-110435958D01*
X152771120Y-110460536D01*
X152795698Y-110485113D01*
X152820275Y-110534268D01*
X152820275Y-110583423D01*
X152795698Y-110657156D01*
X152500767Y-110952086D01*
X152820275Y-110952086D01*
%TO.C,R8*%
X127847982Y-76344586D02*
X127675939Y-76098811D01*
X127553052Y-76344586D02*
X127553052Y-75828458D01*
X127749672Y-75828458D01*
X127798827Y-75853036D01*
X127823405Y-75877613D01*
X127847982Y-75926768D01*
X127847982Y-76000501D01*
X127823405Y-76049656D01*
X127798827Y-76074233D01*
X127749672Y-76098811D01*
X127553052Y-76098811D01*
X128142912Y-76049656D02*
X128093757Y-76025078D01*
X128069180Y-76000501D01*
X128044602Y-75951346D01*
X128044602Y-75926768D01*
X128069180Y-75877613D01*
X128093757Y-75853036D01*
X128142912Y-75828458D01*
X128241223Y-75828458D01*
X128290378Y-75853036D01*
X128314955Y-75877613D01*
X128339533Y-75926768D01*
X128339533Y-75951346D01*
X128314955Y-76000501D01*
X128290378Y-76025078D01*
X128241223Y-76049656D01*
X128142912Y-76049656D01*
X128093757Y-76074233D01*
X128069180Y-76098811D01*
X128044602Y-76147966D01*
X128044602Y-76246276D01*
X128069180Y-76295431D01*
X128093757Y-76320008D01*
X128142912Y-76344586D01*
X128241223Y-76344586D01*
X128290378Y-76320008D01*
X128314955Y-76295431D01*
X128339533Y-76246276D01*
X128339533Y-76147966D01*
X128314955Y-76098811D01*
X128290378Y-76074233D01*
X128241223Y-76049656D01*
D13*
%TO.C,Q1*%
X149469271Y-86496852D02*
X149368256Y-86530524D01*
X149233569Y-86530524D01*
X149031538Y-86530524D01*
X148930523Y-86564196D01*
X148863180Y-86631539D01*
X149065210Y-86766226D02*
X148964195Y-86799898D01*
X148829508Y-86799898D01*
X148661149Y-86698883D01*
X148425447Y-86463180D01*
X148324432Y-86294822D01*
X148324432Y-86160135D01*
X148358103Y-86059119D01*
X148492790Y-85924432D01*
X148593806Y-85890761D01*
X148728493Y-85890761D01*
X148896851Y-85991776D01*
X149132554Y-86227478D01*
X149233569Y-86395837D01*
X149233569Y-86530524D01*
X149199897Y-86631539D01*
X149065210Y-86766226D01*
X150041691Y-85789745D02*
X149637630Y-86193806D01*
X149839660Y-85991776D02*
X149132554Y-85284669D01*
X149166225Y-85453028D01*
X149166225Y-85587715D01*
X149132554Y-85688730D01*
D20*
%TO.C,C39*%
X157059510Y-130866468D02*
X157014999Y-130910979D01*
X156881468Y-130955489D01*
X156792447Y-130955489D01*
X156658915Y-130910979D01*
X156569894Y-130821958D01*
X156525384Y-130732937D01*
X156480873Y-130554895D01*
X156480873Y-130421363D01*
X156525384Y-130243321D01*
X156569894Y-130154300D01*
X156658915Y-130065280D01*
X156792447Y-130020769D01*
X156881468Y-130020769D01*
X157014999Y-130065280D01*
X157059510Y-130109790D01*
X157371083Y-130020769D02*
X157949719Y-130020769D01*
X157638146Y-130376853D01*
X157771677Y-130376853D01*
X157860698Y-130421363D01*
X157905209Y-130465874D01*
X157949719Y-130554895D01*
X157949719Y-130777447D01*
X157905209Y-130866468D01*
X157860698Y-130910979D01*
X157771677Y-130955489D01*
X157504614Y-130955489D01*
X157415593Y-130910979D01*
X157371083Y-130866468D01*
X158394824Y-130955489D02*
X158572866Y-130955489D01*
X158661887Y-130910979D01*
X158706397Y-130866468D01*
X158795418Y-130732937D01*
X158839929Y-130554895D01*
X158839929Y-130198811D01*
X158795418Y-130109790D01*
X158750908Y-130065280D01*
X158661887Y-130020769D01*
X158483845Y-130020769D01*
X158394824Y-130065280D01*
X158350313Y-130109790D01*
X158305803Y-130198811D01*
X158305803Y-130421363D01*
X158350313Y-130510384D01*
X158394824Y-130554895D01*
X158483845Y-130599405D01*
X158661887Y-130599405D01*
X158750908Y-130554895D01*
X158795418Y-130510384D01*
X158839929Y-130421363D01*
D17*
%TO.C,C2*%
X155924040Y-53724679D02*
X155888896Y-53759823D01*
X155783464Y-53794967D01*
X155713177Y-53794967D01*
X155607745Y-53759823D01*
X155537457Y-53689535D01*
X155502313Y-53619247D01*
X155467169Y-53478671D01*
X155467169Y-53373240D01*
X155502313Y-53232664D01*
X155537457Y-53162376D01*
X155607745Y-53092089D01*
X155713177Y-53056945D01*
X155783464Y-53056945D01*
X155888896Y-53092089D01*
X155924040Y-53127232D01*
X156205191Y-53127232D02*
X156240335Y-53092089D01*
X156310623Y-53056945D01*
X156486343Y-53056945D01*
X156556630Y-53092089D01*
X156591774Y-53127232D01*
X156626918Y-53197520D01*
X156626918Y-53267808D01*
X156591774Y-53373240D01*
X156170047Y-53794967D01*
X156626918Y-53794967D01*
D16*
%TO.C,R12*%
X127356432Y-77932086D02*
X127184389Y-77686311D01*
X127061501Y-77932086D02*
X127061501Y-77415958D01*
X127258122Y-77415958D01*
X127307277Y-77440536D01*
X127331854Y-77465113D01*
X127356432Y-77514268D01*
X127356432Y-77588001D01*
X127331854Y-77637156D01*
X127307277Y-77661733D01*
X127258122Y-77686311D01*
X127061501Y-77686311D01*
X127847982Y-77932086D02*
X127553052Y-77932086D01*
X127700517Y-77932086D02*
X127700517Y-77415958D01*
X127651362Y-77489691D01*
X127602207Y-77538846D01*
X127553052Y-77563423D01*
X128044602Y-77465113D02*
X128069180Y-77440536D01*
X128118335Y-77415958D01*
X128241223Y-77415958D01*
X128290378Y-77440536D01*
X128314955Y-77465113D01*
X128339533Y-77514268D01*
X128339533Y-77563423D01*
X128314955Y-77637156D01*
X128020025Y-77932086D01*
X128339533Y-77932086D01*
D19*
%TO.C,C44*%
X143774652Y-144186002D02*
X143757331Y-144203323D01*
X143705370Y-144220643D01*
X143670729Y-144220643D01*
X143618768Y-144203323D01*
X143584128Y-144168682D01*
X143566807Y-144134041D01*
X143549487Y-144064760D01*
X143549487Y-144012799D01*
X143566807Y-143943517D01*
X143584128Y-143908876D01*
X143618768Y-143874236D01*
X143670729Y-143856915D01*
X143705370Y-143856915D01*
X143757331Y-143874236D01*
X143774652Y-143891556D01*
X144086419Y-143978158D02*
X144086419Y-144220643D01*
X143999817Y-143839595D02*
X143913215Y-144099400D01*
X144138380Y-144099400D01*
X144432826Y-143978158D02*
X144432826Y-144220643D01*
X144346224Y-143839595D02*
X144259622Y-144099400D01*
X144484787Y-144099400D01*
D16*
%TO.C,C27*%
X151803932Y-117887931D02*
X151779354Y-117912508D01*
X151705622Y-117937086D01*
X151656467Y-117937086D01*
X151582734Y-117912508D01*
X151533579Y-117863353D01*
X151509001Y-117814198D01*
X151484424Y-117715888D01*
X151484424Y-117642156D01*
X151509001Y-117543846D01*
X151533579Y-117494691D01*
X151582734Y-117445536D01*
X151656467Y-117420958D01*
X151705622Y-117420958D01*
X151779354Y-117445536D01*
X151803932Y-117470113D01*
X152000552Y-117470113D02*
X152025129Y-117445536D01*
X152074284Y-117420958D01*
X152197172Y-117420958D01*
X152246327Y-117445536D01*
X152270905Y-117470113D01*
X152295482Y-117519268D01*
X152295482Y-117568423D01*
X152270905Y-117642156D01*
X151975974Y-117937086D01*
X152295482Y-117937086D01*
X152467525Y-117420958D02*
X152811610Y-117420958D01*
X152590412Y-117937086D01*
%TO.C,J1*%
X124996810Y-142744066D02*
X125837188Y-142744066D01*
X126005263Y-142800091D01*
X126117313Y-142912142D01*
X126173338Y-143080217D01*
X126173338Y-143192267D01*
X126173338Y-141567538D02*
X126173338Y-142239840D01*
X126173338Y-141903689D02*
X124996810Y-141903689D01*
X125164886Y-142015739D01*
X125276936Y-142127790D01*
X125332961Y-142239840D01*
D19*
%TO.C,R38*%
X149172152Y-144220643D02*
X149050909Y-144047439D01*
X148964307Y-144220643D02*
X148964307Y-143856915D01*
X149102870Y-143856915D01*
X149137511Y-143874236D01*
X149154831Y-143891556D01*
X149172152Y-143926197D01*
X149172152Y-143978158D01*
X149154831Y-144012799D01*
X149137511Y-144030119D01*
X149102870Y-144047439D01*
X148964307Y-144047439D01*
X149293394Y-143856915D02*
X149518559Y-143856915D01*
X149397317Y-143995478D01*
X149449278Y-143995478D01*
X149483919Y-144012799D01*
X149501239Y-144030119D01*
X149518559Y-144064760D01*
X149518559Y-144151362D01*
X149501239Y-144186002D01*
X149483919Y-144203323D01*
X149449278Y-144220643D01*
X149345356Y-144220643D01*
X149310715Y-144203323D01*
X149293394Y-144186002D01*
X149726404Y-144012799D02*
X149691763Y-143995478D01*
X149674443Y-143978158D01*
X149657122Y-143943517D01*
X149657122Y-143926197D01*
X149674443Y-143891556D01*
X149691763Y-143874236D01*
X149726404Y-143856915D01*
X149795685Y-143856915D01*
X149830326Y-143874236D01*
X149847647Y-143891556D01*
X149864967Y-143926197D01*
X149864967Y-143943517D01*
X149847647Y-143978158D01*
X149830326Y-143995478D01*
X149795685Y-144012799D01*
X149726404Y-144012799D01*
X149691763Y-144030119D01*
X149674443Y-144047439D01*
X149657122Y-144082080D01*
X149657122Y-144151362D01*
X149674443Y-144186002D01*
X149691763Y-144203323D01*
X149726404Y-144220643D01*
X149795685Y-144220643D01*
X149830326Y-144203323D01*
X149847647Y-144186002D01*
X149864967Y-144151362D01*
X149864967Y-144082080D01*
X149847647Y-144047439D01*
X149830326Y-144030119D01*
X149795685Y-144012799D01*
%TO.C,C45*%
X152664652Y-144186002D02*
X152647331Y-144203323D01*
X152595370Y-144220643D01*
X152560729Y-144220643D01*
X152508768Y-144203323D01*
X152474128Y-144168682D01*
X152456807Y-144134041D01*
X152439487Y-144064760D01*
X152439487Y-144012799D01*
X152456807Y-143943517D01*
X152474128Y-143908876D01*
X152508768Y-143874236D01*
X152560729Y-143856915D01*
X152595370Y-143856915D01*
X152647331Y-143874236D01*
X152664652Y-143891556D01*
X152976419Y-143978158D02*
X152976419Y-144220643D01*
X152889817Y-143839595D02*
X152803215Y-144099400D01*
X153028380Y-144099400D01*
X153340147Y-143856915D02*
X153166943Y-143856915D01*
X153149622Y-144030119D01*
X153166943Y-144012799D01*
X153201584Y-143995478D01*
X153288185Y-143995478D01*
X153322826Y-144012799D01*
X153340147Y-144030119D01*
X153357467Y-144064760D01*
X153357467Y-144151362D01*
X153340147Y-144186002D01*
X153322826Y-144203323D01*
X153288185Y-144220643D01*
X153201584Y-144220643D01*
X153166943Y-144203323D01*
X153149622Y-144186002D01*
D16*
%TO.C,C17*%
X155012074Y-94392931D02*
X154987497Y-94417508D01*
X154913764Y-94442086D01*
X154864609Y-94442086D01*
X154790876Y-94417508D01*
X154741721Y-94368353D01*
X154717144Y-94319198D01*
X154692566Y-94220888D01*
X154692566Y-94147156D01*
X154717144Y-94048846D01*
X154741721Y-93999691D01*
X154790876Y-93950536D01*
X154864609Y-93925958D01*
X154913764Y-93925958D01*
X154987497Y-93950536D01*
X155012074Y-93975113D01*
X155503625Y-94442086D02*
X155208694Y-94442086D01*
X155356160Y-94442086D02*
X155356160Y-93925958D01*
X155307004Y-93999691D01*
X155257849Y-94048846D01*
X155208694Y-94073423D01*
X155675667Y-93925958D02*
X156019753Y-93925958D01*
X155798555Y-94442086D01*
D20*
%TO.C,C29*%
X150335610Y-119397568D02*
X150291099Y-119442079D01*
X150157568Y-119486589D01*
X150068547Y-119486589D01*
X149935015Y-119442079D01*
X149845994Y-119353058D01*
X149801484Y-119264037D01*
X149756973Y-119085995D01*
X149756973Y-118952463D01*
X149801484Y-118774421D01*
X149845994Y-118685400D01*
X149935015Y-118596380D01*
X150068547Y-118551869D01*
X150157568Y-118551869D01*
X150291099Y-118596380D01*
X150335610Y-118640890D01*
X150691693Y-118640890D02*
X150736204Y-118596380D01*
X150825225Y-118551869D01*
X151047777Y-118551869D01*
X151136798Y-118596380D01*
X151181309Y-118640890D01*
X151225819Y-118729911D01*
X151225819Y-118818932D01*
X151181309Y-118952463D01*
X150647183Y-119486589D01*
X151225819Y-119486589D01*
X151670924Y-119486589D02*
X151848966Y-119486589D01*
X151937987Y-119442079D01*
X151982497Y-119397568D01*
X152071518Y-119264037D01*
X152116029Y-119085995D01*
X152116029Y-118729911D01*
X152071518Y-118640890D01*
X152027008Y-118596380D01*
X151937987Y-118551869D01*
X151759945Y-118551869D01*
X151670924Y-118596380D01*
X151626413Y-118640890D01*
X151581903Y-118729911D01*
X151581903Y-118952463D01*
X151626413Y-119041484D01*
X151670924Y-119085995D01*
X151759945Y-119130505D01*
X151937987Y-119130505D01*
X152027008Y-119085995D01*
X152071518Y-119041484D01*
X152116029Y-118952463D01*
D16*
%TO.C,R35*%
X133104674Y-131272086D02*
X132932632Y-131026311D01*
X132809744Y-131272086D02*
X132809744Y-130755958D01*
X133006364Y-130755958D01*
X133055519Y-130780536D01*
X133080097Y-130805113D01*
X133104674Y-130854268D01*
X133104674Y-130928001D01*
X133080097Y-130977156D01*
X133055519Y-131001733D01*
X133006364Y-131026311D01*
X132809744Y-131026311D01*
X133276717Y-130755958D02*
X133596225Y-130755958D01*
X133424182Y-130952578D01*
X133497915Y-130952578D01*
X133547070Y-130977156D01*
X133571647Y-131001733D01*
X133596225Y-131050888D01*
X133596225Y-131173776D01*
X133571647Y-131222931D01*
X133547070Y-131247508D01*
X133497915Y-131272086D01*
X133350449Y-131272086D01*
X133301294Y-131247508D01*
X133276717Y-131222931D01*
X134063198Y-130755958D02*
X133817422Y-130755958D01*
X133792845Y-131001733D01*
X133817422Y-130977156D01*
X133866577Y-130952578D01*
X133989465Y-130952578D01*
X134038620Y-130977156D01*
X134063198Y-131001733D01*
X134087775Y-131050888D01*
X134087775Y-131173776D01*
X134063198Y-131222931D01*
X134038620Y-131247508D01*
X133989465Y-131272086D01*
X133866577Y-131272086D01*
X133817422Y-131247508D01*
X133792845Y-131222931D01*
%TO.C,R23*%
X159039284Y-102995838D02*
X158647108Y-102435587D01*
X158366982Y-102995838D02*
X158366982Y-101819310D01*
X158815183Y-101819310D01*
X158927233Y-101875336D01*
X158983259Y-101931361D01*
X159039284Y-102043411D01*
X159039284Y-102211486D01*
X158983259Y-102323537D01*
X158927233Y-102379562D01*
X158815183Y-102435587D01*
X158366982Y-102435587D01*
X159487485Y-101931361D02*
X159543510Y-101875336D01*
X159655560Y-101819310D01*
X159935686Y-101819310D01*
X160047736Y-101875336D01*
X160103761Y-101931361D01*
X160159787Y-102043411D01*
X160159787Y-102155461D01*
X160103761Y-102323537D01*
X159431460Y-102995838D01*
X160159787Y-102995838D01*
X160551963Y-101819310D02*
X161280289Y-101819310D01*
X160888113Y-102267512D01*
X161056189Y-102267512D01*
X161168239Y-102323537D01*
X161224264Y-102379562D01*
X161280289Y-102491612D01*
X161280289Y-102771738D01*
X161224264Y-102883788D01*
X161168239Y-102939813D01*
X161056189Y-102995838D01*
X160720038Y-102995838D01*
X160607988Y-102939813D01*
X160551963Y-102883788D01*
%TO.C,R34*%
X150473486Y-131757167D02*
X150227711Y-131929210D01*
X150473486Y-132052098D02*
X149957358Y-132052098D01*
X149957358Y-131855477D01*
X149981936Y-131806322D01*
X150006513Y-131781745D01*
X150055668Y-131757167D01*
X150129401Y-131757167D01*
X150178556Y-131781745D01*
X150203133Y-131806322D01*
X150227711Y-131855477D01*
X150227711Y-132052098D01*
X149957358Y-131585125D02*
X149957358Y-131265617D01*
X150153978Y-131437660D01*
X150153978Y-131363927D01*
X150178556Y-131314772D01*
X150203133Y-131290194D01*
X150252288Y-131265617D01*
X150375176Y-131265617D01*
X150424331Y-131290194D01*
X150448908Y-131314772D01*
X150473486Y-131363927D01*
X150473486Y-131511392D01*
X150448908Y-131560547D01*
X150424331Y-131585125D01*
X150129401Y-130823221D02*
X150473486Y-130823221D01*
X149932780Y-130946109D02*
X150301443Y-131068997D01*
X150301443Y-130749489D01*
%TO.C,C6*%
X133104674Y-69627931D02*
X133080097Y-69652508D01*
X133006364Y-69677086D01*
X132957209Y-69677086D01*
X132883476Y-69652508D01*
X132834321Y-69603353D01*
X132809744Y-69554198D01*
X132785166Y-69455888D01*
X132785166Y-69382156D01*
X132809744Y-69283846D01*
X132834321Y-69234691D01*
X132883476Y-69185536D01*
X132957209Y-69160958D01*
X133006364Y-69160958D01*
X133080097Y-69185536D01*
X133104674Y-69210113D01*
X133547070Y-69160958D02*
X133448760Y-69160958D01*
X133399604Y-69185536D01*
X133375027Y-69210113D01*
X133325872Y-69283846D01*
X133301294Y-69382156D01*
X133301294Y-69578776D01*
X133325872Y-69627931D01*
X133350449Y-69652508D01*
X133399604Y-69677086D01*
X133497915Y-69677086D01*
X133547070Y-69652508D01*
X133571647Y-69627931D01*
X133596225Y-69578776D01*
X133596225Y-69455888D01*
X133571647Y-69406733D01*
X133547070Y-69382156D01*
X133497915Y-69357578D01*
X133399604Y-69357578D01*
X133350449Y-69382156D01*
X133325872Y-69406733D01*
X133301294Y-69455888D01*
%TO.C,C11*%
X154378574Y-87379331D02*
X154353997Y-87403908D01*
X154280264Y-87428486D01*
X154231109Y-87428486D01*
X154157376Y-87403908D01*
X154108221Y-87354753D01*
X154083644Y-87305598D01*
X154059066Y-87207288D01*
X154059066Y-87133556D01*
X154083644Y-87035246D01*
X154108221Y-86986091D01*
X154157376Y-86936936D01*
X154231109Y-86912358D01*
X154280264Y-86912358D01*
X154353997Y-86936936D01*
X154378574Y-86961513D01*
X154870125Y-87428486D02*
X154575194Y-87428486D01*
X154722660Y-87428486D02*
X154722660Y-86912358D01*
X154673504Y-86986091D01*
X154624349Y-87035246D01*
X154575194Y-87059823D01*
X155361675Y-87428486D02*
X155066745Y-87428486D01*
X155214210Y-87428486D02*
X155214210Y-86912358D01*
X155165055Y-86986091D01*
X155115900Y-87035246D01*
X155066745Y-87059823D01*
%TO.C,J7*%
X149126810Y-155126566D02*
X149967188Y-155126566D01*
X150135263Y-155182591D01*
X150247313Y-155294642D01*
X150303338Y-155462717D01*
X150303338Y-155574767D01*
X149126810Y-154678365D02*
X149126810Y-153894013D01*
X150303338Y-154398239D01*
D20*
%TO.C,C23*%
X172166468Y-111111292D02*
X172210979Y-111155803D01*
X172255489Y-111289334D01*
X172255489Y-111378355D01*
X172210979Y-111511887D01*
X172121958Y-111600908D01*
X172032937Y-111645418D01*
X171854895Y-111689929D01*
X171721363Y-111689929D01*
X171543321Y-111645418D01*
X171454300Y-111600908D01*
X171365280Y-111511887D01*
X171320769Y-111378355D01*
X171320769Y-111289334D01*
X171365280Y-111155803D01*
X171409790Y-111111292D01*
X171409790Y-110755209D02*
X171365280Y-110710698D01*
X171320769Y-110621677D01*
X171320769Y-110399125D01*
X171365280Y-110310104D01*
X171409790Y-110265593D01*
X171498811Y-110221083D01*
X171587832Y-110221083D01*
X171721363Y-110265593D01*
X172255489Y-110799719D01*
X172255489Y-110221083D01*
X171320769Y-109909510D02*
X171320769Y-109330873D01*
X171676853Y-109642447D01*
X171676853Y-109508915D01*
X171721363Y-109419894D01*
X171765874Y-109375384D01*
X171854895Y-109330873D01*
X172077447Y-109330873D01*
X172166468Y-109375384D01*
X172210979Y-109419894D01*
X172255489Y-109508915D01*
X172255489Y-109775978D01*
X172210979Y-109864999D01*
X172166468Y-109909510D01*
D16*
%TO.C,D3*%
X137304586Y-109582455D02*
X136788458Y-109582455D01*
X136788458Y-109459567D01*
X136813036Y-109385835D01*
X136862191Y-109336680D01*
X136911346Y-109312102D01*
X137009656Y-109287525D01*
X137083388Y-109287525D01*
X137181698Y-109312102D01*
X137230853Y-109336680D01*
X137280008Y-109385835D01*
X137304586Y-109459567D01*
X137304586Y-109582455D01*
X136788458Y-109115482D02*
X136788458Y-108795974D01*
X136985078Y-108968017D01*
X136985078Y-108894284D01*
X137009656Y-108845129D01*
X137034233Y-108820552D01*
X137083388Y-108795974D01*
X137206276Y-108795974D01*
X137255431Y-108820552D01*
X137280008Y-108845129D01*
X137304586Y-108894284D01*
X137304586Y-109041750D01*
X137280008Y-109090905D01*
X137255431Y-109115482D01*
%TO.C,R42*%
X157552174Y-145877086D02*
X157380132Y-145631311D01*
X157257244Y-145877086D02*
X157257244Y-145360958D01*
X157453864Y-145360958D01*
X157503019Y-145385536D01*
X157527597Y-145410113D01*
X157552174Y-145459268D01*
X157552174Y-145533001D01*
X157527597Y-145582156D01*
X157503019Y-145606733D01*
X157453864Y-145631311D01*
X157257244Y-145631311D01*
X157994570Y-145533001D02*
X157994570Y-145877086D01*
X157871682Y-145336380D02*
X157748794Y-145705043D01*
X158068302Y-145705043D01*
X158240345Y-145410113D02*
X158264922Y-145385536D01*
X158314077Y-145360958D01*
X158436965Y-145360958D01*
X158486120Y-145385536D01*
X158510698Y-145410113D01*
X158535275Y-145459268D01*
X158535275Y-145508423D01*
X158510698Y-145582156D01*
X158215767Y-145877086D01*
X158535275Y-145877086D01*
D14*
%TO.C,R28*%
X132132662Y-125019426D02*
X131983649Y-125123735D01*
X132132662Y-125198242D02*
X131819734Y-125198242D01*
X131819734Y-125079031D01*
X131834636Y-125049229D01*
X131849537Y-125034327D01*
X131879340Y-125019426D01*
X131924044Y-125019426D01*
X131953846Y-125034327D01*
X131968748Y-125049229D01*
X131983649Y-125079031D01*
X131983649Y-125198242D01*
X131849537Y-124900215D02*
X131834636Y-124885314D01*
X131819734Y-124855511D01*
X131819734Y-124781005D01*
X131834636Y-124751202D01*
X131849537Y-124736301D01*
X131879340Y-124721399D01*
X131909142Y-124721399D01*
X131953846Y-124736301D01*
X132132662Y-124915117D01*
X132132662Y-124721399D01*
X131953846Y-124542583D02*
X131938945Y-124572386D01*
X131924044Y-124587287D01*
X131894241Y-124602189D01*
X131879340Y-124602189D01*
X131849537Y-124587287D01*
X131834636Y-124572386D01*
X131819734Y-124542583D01*
X131819734Y-124482978D01*
X131834636Y-124453175D01*
X131849537Y-124438274D01*
X131879340Y-124423373D01*
X131894241Y-124423373D01*
X131924044Y-124438274D01*
X131938945Y-124453175D01*
X131953846Y-124482978D01*
X131953846Y-124542583D01*
X131968748Y-124572386D01*
X131983649Y-124587287D01*
X132013452Y-124602189D01*
X132073057Y-124602189D01*
X132102860Y-124587287D01*
X132117761Y-124572386D01*
X132132662Y-124542583D01*
X132132662Y-124482978D01*
X132117761Y-124453175D01*
X132102860Y-124438274D01*
X132073057Y-124423373D01*
X132013452Y-124423373D01*
X131983649Y-124438274D01*
X131968748Y-124453175D01*
X131953846Y-124482978D01*
D21*
%TO.C,IC2*%
X135421495Y-69732010D02*
X135421495Y-69094470D01*
X136089394Y-69671292D02*
X136059035Y-69701651D01*
X135967958Y-69732010D01*
X135907240Y-69732010D01*
X135816163Y-69701651D01*
X135755445Y-69640933D01*
X135725085Y-69580215D01*
X135694726Y-69458779D01*
X135694726Y-69367702D01*
X135725085Y-69246266D01*
X135755445Y-69185548D01*
X135816163Y-69124830D01*
X135907240Y-69094470D01*
X135967958Y-69094470D01*
X136059035Y-69124830D01*
X136089394Y-69155189D01*
X136332266Y-69155189D02*
X136362625Y-69124830D01*
X136423344Y-69094470D01*
X136575139Y-69094470D01*
X136635857Y-69124830D01*
X136666216Y-69155189D01*
X136696575Y-69215907D01*
X136696575Y-69276625D01*
X136666216Y-69367702D01*
X136301907Y-69732010D01*
X136696575Y-69732010D01*
D16*
%TO.C,J4*%
X161191810Y-142744066D02*
X162032188Y-142744066D01*
X162200263Y-142800091D01*
X162312313Y-142912142D01*
X162368338Y-143080217D01*
X162368338Y-143192267D01*
X161583986Y-141679588D02*
X162368338Y-141679588D01*
X161135785Y-141959714D02*
X161976162Y-142239840D01*
X161976162Y-141511513D01*
%TO.C,R10*%
X132859586Y-75315025D02*
X132613811Y-75487067D01*
X132859586Y-75609955D02*
X132343458Y-75609955D01*
X132343458Y-75413335D01*
X132368036Y-75364180D01*
X132392613Y-75339602D01*
X132441768Y-75315025D01*
X132515501Y-75315025D01*
X132564656Y-75339602D01*
X132589233Y-75364180D01*
X132613811Y-75413335D01*
X132613811Y-75609955D01*
X132859586Y-74823474D02*
X132859586Y-75118405D01*
X132859586Y-74970939D02*
X132343458Y-74970939D01*
X132417191Y-75020095D01*
X132466346Y-75069250D01*
X132490923Y-75118405D01*
X132343458Y-74503967D02*
X132343458Y-74454811D01*
X132368036Y-74405656D01*
X132392613Y-74381079D01*
X132441768Y-74356501D01*
X132540078Y-74331924D01*
X132662966Y-74331924D01*
X132761276Y-74356501D01*
X132810431Y-74381079D01*
X132835008Y-74405656D01*
X132859586Y-74454811D01*
X132859586Y-74503967D01*
X132835008Y-74553122D01*
X132810431Y-74577699D01*
X132761276Y-74602277D01*
X132662966Y-74626854D01*
X132540078Y-74626854D01*
X132441768Y-74602277D01*
X132392613Y-74577699D01*
X132368036Y-74553122D01*
X132343458Y-74503967D01*
%TO.C,LED1*%
X143459112Y-65641510D02*
X143116575Y-65641510D01*
X143116575Y-64922182D01*
X143698888Y-65264719D02*
X143938664Y-65264719D01*
X144041426Y-65641510D02*
X143698888Y-65641510D01*
X143698888Y-64922182D01*
X144041426Y-64922182D01*
X144349709Y-65641510D02*
X144349709Y-64922182D01*
X144520978Y-64922182D01*
X144623739Y-64956436D01*
X144692246Y-65024943D01*
X144726500Y-65093450D01*
X144760754Y-65230465D01*
X144760754Y-65333226D01*
X144726500Y-65470241D01*
X144692246Y-65538749D01*
X144623739Y-65607256D01*
X144520978Y-65641510D01*
X144349709Y-65641510D01*
X145445828Y-65641510D02*
X145034783Y-65641510D01*
X145240306Y-65641510D02*
X145240306Y-64922182D01*
X145171798Y-65024943D01*
X145103291Y-65093450D01*
X145034783Y-65127704D01*
%TO.C,C18*%
X136373432Y-96932831D02*
X136348854Y-96957408D01*
X136275122Y-96981986D01*
X136225967Y-96981986D01*
X136152234Y-96957408D01*
X136103079Y-96908253D01*
X136078501Y-96859098D01*
X136053924Y-96760788D01*
X136053924Y-96687056D01*
X136078501Y-96588746D01*
X136103079Y-96539591D01*
X136152234Y-96490436D01*
X136225967Y-96465858D01*
X136275122Y-96465858D01*
X136348854Y-96490436D01*
X136373432Y-96515013D01*
X136864982Y-96981986D02*
X136570052Y-96981986D01*
X136717517Y-96981986D02*
X136717517Y-96465858D01*
X136668362Y-96539591D01*
X136619207Y-96588746D01*
X136570052Y-96613323D01*
X137159912Y-96687056D02*
X137110757Y-96662478D01*
X137086180Y-96637901D01*
X137061602Y-96588746D01*
X137061602Y-96564168D01*
X137086180Y-96515013D01*
X137110757Y-96490436D01*
X137159912Y-96465858D01*
X137258223Y-96465858D01*
X137307378Y-96490436D01*
X137331955Y-96515013D01*
X137356533Y-96564168D01*
X137356533Y-96588746D01*
X137331955Y-96637901D01*
X137307378Y-96662478D01*
X137258223Y-96687056D01*
X137159912Y-96687056D01*
X137110757Y-96711633D01*
X137086180Y-96736211D01*
X137061602Y-96785366D01*
X137061602Y-96883676D01*
X137086180Y-96932831D01*
X137110757Y-96957408D01*
X137159912Y-96981986D01*
X137258223Y-96981986D01*
X137307378Y-96957408D01*
X137331955Y-96932831D01*
X137356533Y-96883676D01*
X137356533Y-96785366D01*
X137331955Y-96736211D01*
X137307378Y-96711633D01*
X137258223Y-96687056D01*
%TO.C,J5*%
X124996810Y-155126566D02*
X125837188Y-155126566D01*
X126005263Y-155182591D01*
X126117313Y-155294642D01*
X126173338Y-155462717D01*
X126173338Y-155574767D01*
X124996810Y-154006063D02*
X124996810Y-154566315D01*
X125557062Y-154622340D01*
X125501037Y-154566315D01*
X125445012Y-154454264D01*
X125445012Y-154174139D01*
X125501037Y-154062088D01*
X125557062Y-154006063D01*
X125669112Y-153950038D01*
X125949238Y-153950038D01*
X126061288Y-154006063D01*
X126117313Y-154062088D01*
X126173338Y-154174139D01*
X126173338Y-154454264D01*
X126117313Y-154566315D01*
X126061288Y-154622340D01*
D17*
%TO.C,C3*%
X128619040Y-61027179D02*
X128583896Y-61062323D01*
X128478464Y-61097467D01*
X128408177Y-61097467D01*
X128302745Y-61062323D01*
X128232457Y-60992035D01*
X128197313Y-60921747D01*
X128162169Y-60781171D01*
X128162169Y-60675740D01*
X128197313Y-60535164D01*
X128232457Y-60464876D01*
X128302745Y-60394589D01*
X128408177Y-60359445D01*
X128478464Y-60359445D01*
X128583896Y-60394589D01*
X128619040Y-60429732D01*
X128865047Y-60359445D02*
X129321918Y-60359445D01*
X129075911Y-60640596D01*
X129181343Y-60640596D01*
X129251630Y-60675740D01*
X129286774Y-60710884D01*
X129321918Y-60781171D01*
X129321918Y-60956891D01*
X129286774Y-61027179D01*
X129251630Y-61062323D01*
X129181343Y-61097467D01*
X128970479Y-61097467D01*
X128900191Y-61062323D01*
X128865047Y-61027179D01*
D16*
%TO.C,C9*%
X143287931Y-81030025D02*
X143312508Y-81054602D01*
X143337086Y-81128335D01*
X143337086Y-81177490D01*
X143312508Y-81251223D01*
X143263353Y-81300378D01*
X143214198Y-81324955D01*
X143115888Y-81349533D01*
X143042156Y-81349533D01*
X142943846Y-81324955D01*
X142894691Y-81300378D01*
X142845536Y-81251223D01*
X142820958Y-81177490D01*
X142820958Y-81128335D01*
X142845536Y-81054602D01*
X142870113Y-81030025D01*
X143337086Y-80784250D02*
X143337086Y-80685939D01*
X143312508Y-80636784D01*
X143287931Y-80612207D01*
X143214198Y-80563052D01*
X143115888Y-80538474D01*
X142919268Y-80538474D01*
X142870113Y-80563052D01*
X142845536Y-80587629D01*
X142820958Y-80636784D01*
X142820958Y-80735095D01*
X142845536Y-80784250D01*
X142870113Y-80808827D01*
X142919268Y-80833405D01*
X143042156Y-80833405D01*
X143091311Y-80808827D01*
X143115888Y-80784250D01*
X143140466Y-80735095D01*
X143140466Y-80636784D01*
X143115888Y-80587629D01*
X143091311Y-80563052D01*
X143042156Y-80538474D01*
%TO.C,R15*%
X127356432Y-91902086D02*
X127184389Y-91656311D01*
X127061501Y-91902086D02*
X127061501Y-91385958D01*
X127258122Y-91385958D01*
X127307277Y-91410536D01*
X127331854Y-91435113D01*
X127356432Y-91484268D01*
X127356432Y-91558001D01*
X127331854Y-91607156D01*
X127307277Y-91631733D01*
X127258122Y-91656311D01*
X127061501Y-91656311D01*
X127847982Y-91902086D02*
X127553052Y-91902086D01*
X127700517Y-91902086D02*
X127700517Y-91385958D01*
X127651362Y-91459691D01*
X127602207Y-91508846D01*
X127553052Y-91533423D01*
X128314955Y-91385958D02*
X128069180Y-91385958D01*
X128044602Y-91631733D01*
X128069180Y-91607156D01*
X128118335Y-91582578D01*
X128241223Y-91582578D01*
X128290378Y-91607156D01*
X128314955Y-91631733D01*
X128339533Y-91680888D01*
X128339533Y-91803776D01*
X128314955Y-91852931D01*
X128290378Y-91877508D01*
X128241223Y-91902086D01*
X128118335Y-91902086D01*
X128069180Y-91877508D01*
X128044602Y-91852931D01*
D22*
%TO.C,SW3*%
X128331383Y-106931671D02*
X128386416Y-106766571D01*
X128386416Y-106491405D01*
X128331383Y-106381338D01*
X128276350Y-106326305D01*
X128166283Y-106271271D01*
X128056216Y-106271271D01*
X127946150Y-106326305D01*
X127891116Y-106381338D01*
X127836083Y-106491405D01*
X127781050Y-106711538D01*
X127726016Y-106821605D01*
X127670983Y-106876638D01*
X127560916Y-106931671D01*
X127450850Y-106931671D01*
X127340783Y-106876638D01*
X127285750Y-106821605D01*
X127230716Y-106711538D01*
X127230716Y-106436371D01*
X127285750Y-106271271D01*
X127230716Y-105886038D02*
X128386416Y-105610871D01*
X127560916Y-105390738D01*
X128386416Y-105170605D01*
X127230716Y-104895438D01*
X127230716Y-104565238D02*
X127230716Y-103849805D01*
X127670983Y-104235038D01*
X127670983Y-104069938D01*
X127726016Y-103959871D01*
X127781050Y-103904838D01*
X127891116Y-103849805D01*
X128166283Y-103849805D01*
X128276350Y-103904838D01*
X128331383Y-103959871D01*
X128386416Y-104069938D01*
X128386416Y-104400138D01*
X128331383Y-104510205D01*
X128276350Y-104565238D01*
D23*
%TO.C,L2*%
X141847811Y-63031574D02*
X141578890Y-63031574D01*
X141578890Y-62466841D01*
X142009163Y-62520625D02*
X142036055Y-62493733D01*
X142089839Y-62466841D01*
X142224300Y-62466841D01*
X142278084Y-62493733D01*
X142304976Y-62520625D01*
X142331868Y-62574409D01*
X142331868Y-62628193D01*
X142304976Y-62708869D01*
X141982271Y-63031574D01*
X142331868Y-63031574D01*
D16*
%TO.C,R22*%
X136246432Y-101109586D02*
X136074389Y-100863811D01*
X135951501Y-101109586D02*
X135951501Y-100593458D01*
X136148122Y-100593458D01*
X136197277Y-100618036D01*
X136221854Y-100642613D01*
X136246432Y-100691768D01*
X136246432Y-100765501D01*
X136221854Y-100814656D01*
X136197277Y-100839233D01*
X136148122Y-100863811D01*
X135951501Y-100863811D01*
X136443052Y-100642613D02*
X136467629Y-100618036D01*
X136516784Y-100593458D01*
X136639672Y-100593458D01*
X136688827Y-100618036D01*
X136713405Y-100642613D01*
X136737982Y-100691768D01*
X136737982Y-100740923D01*
X136713405Y-100814656D01*
X136418474Y-101109586D01*
X136737982Y-101109586D01*
X136934602Y-100642613D02*
X136959180Y-100618036D01*
X137008335Y-100593458D01*
X137131223Y-100593458D01*
X137180378Y-100618036D01*
X137204955Y-100642613D01*
X137229533Y-100691768D01*
X137229533Y-100740923D01*
X137204955Y-100814656D01*
X136910025Y-101109586D01*
X137229533Y-101109586D01*
%TO.C,C28*%
X153708932Y-117887931D02*
X153684354Y-117912508D01*
X153610622Y-117937086D01*
X153561467Y-117937086D01*
X153487734Y-117912508D01*
X153438579Y-117863353D01*
X153414001Y-117814198D01*
X153389424Y-117715888D01*
X153389424Y-117642156D01*
X153414001Y-117543846D01*
X153438579Y-117494691D01*
X153487734Y-117445536D01*
X153561467Y-117420958D01*
X153610622Y-117420958D01*
X153684354Y-117445536D01*
X153708932Y-117470113D01*
X153905552Y-117470113D02*
X153930129Y-117445536D01*
X153979284Y-117420958D01*
X154102172Y-117420958D01*
X154151327Y-117445536D01*
X154175905Y-117470113D01*
X154200482Y-117519268D01*
X154200482Y-117568423D01*
X154175905Y-117642156D01*
X153880974Y-117937086D01*
X154200482Y-117937086D01*
X154495412Y-117642156D02*
X154446257Y-117617578D01*
X154421680Y-117593001D01*
X154397102Y-117543846D01*
X154397102Y-117519268D01*
X154421680Y-117470113D01*
X154446257Y-117445536D01*
X154495412Y-117420958D01*
X154593723Y-117420958D01*
X154642878Y-117445536D01*
X154667455Y-117470113D01*
X154692033Y-117519268D01*
X154692033Y-117543846D01*
X154667455Y-117593001D01*
X154642878Y-117617578D01*
X154593723Y-117642156D01*
X154495412Y-117642156D01*
X154446257Y-117666733D01*
X154421680Y-117691311D01*
X154397102Y-117740466D01*
X154397102Y-117838776D01*
X154421680Y-117887931D01*
X154446257Y-117912508D01*
X154495412Y-117937086D01*
X154593723Y-117937086D01*
X154642878Y-117912508D01*
X154667455Y-117887931D01*
X154692033Y-117838776D01*
X154692033Y-117740466D01*
X154667455Y-117691311D01*
X154642878Y-117666733D01*
X154593723Y-117642156D01*
D24*
%TO.C,IC1*%
X166277695Y-55345934D02*
X166277695Y-54505194D01*
X167158470Y-55265864D02*
X167118435Y-55305899D01*
X166998329Y-55345934D01*
X166918259Y-55345934D01*
X166798153Y-55305899D01*
X166718082Y-55225829D01*
X166678047Y-55145758D01*
X166638012Y-54985617D01*
X166638012Y-54865511D01*
X166678047Y-54705370D01*
X166718082Y-54625300D01*
X166798153Y-54545230D01*
X166918259Y-54505194D01*
X166998329Y-54505194D01*
X167118435Y-54545230D01*
X167158470Y-54585265D01*
X167959175Y-55345934D02*
X167478752Y-55345934D01*
X167718963Y-55345934D02*
X167718963Y-54505194D01*
X167638893Y-54625300D01*
X167558822Y-54705370D01*
X167478752Y-54745406D01*
D19*
%TO.C,R39*%
X150759652Y-144220643D02*
X150638409Y-144047439D01*
X150551807Y-144220643D02*
X150551807Y-143856915D01*
X150690370Y-143856915D01*
X150725011Y-143874236D01*
X150742331Y-143891556D01*
X150759652Y-143926197D01*
X150759652Y-143978158D01*
X150742331Y-144012799D01*
X150725011Y-144030119D01*
X150690370Y-144047439D01*
X150551807Y-144047439D01*
X150880894Y-143856915D02*
X151106059Y-143856915D01*
X150984817Y-143995478D01*
X151036778Y-143995478D01*
X151071419Y-144012799D01*
X151088739Y-144030119D01*
X151106059Y-144064760D01*
X151106059Y-144151362D01*
X151088739Y-144186002D01*
X151071419Y-144203323D01*
X151036778Y-144220643D01*
X150932856Y-144220643D01*
X150898215Y-144203323D01*
X150880894Y-144186002D01*
X151279263Y-144220643D02*
X151348545Y-144220643D01*
X151383185Y-144203323D01*
X151400506Y-144186002D01*
X151435147Y-144134041D01*
X151452467Y-144064760D01*
X151452467Y-143926197D01*
X151435147Y-143891556D01*
X151417826Y-143874236D01*
X151383185Y-143856915D01*
X151313904Y-143856915D01*
X151279263Y-143874236D01*
X151261943Y-143891556D01*
X151244622Y-143926197D01*
X151244622Y-144012799D01*
X151261943Y-144047439D01*
X151279263Y-144064760D01*
X151313904Y-144082080D01*
X151383185Y-144082080D01*
X151417826Y-144064760D01*
X151435147Y-144047439D01*
X151452467Y-144012799D01*
D16*
%TO.C,C16*%
X146757174Y-91852931D02*
X146732597Y-91877508D01*
X146658864Y-91902086D01*
X146609709Y-91902086D01*
X146535976Y-91877508D01*
X146486821Y-91828353D01*
X146462244Y-91779198D01*
X146437666Y-91680888D01*
X146437666Y-91607156D01*
X146462244Y-91508846D01*
X146486821Y-91459691D01*
X146535976Y-91410536D01*
X146609709Y-91385958D01*
X146658864Y-91385958D01*
X146732597Y-91410536D01*
X146757174Y-91435113D01*
X147248725Y-91902086D02*
X146953794Y-91902086D01*
X147101260Y-91902086D02*
X147101260Y-91385958D01*
X147052104Y-91459691D01*
X147002949Y-91508846D01*
X146953794Y-91533423D01*
X147691120Y-91385958D02*
X147592810Y-91385958D01*
X147543655Y-91410536D01*
X147519077Y-91435113D01*
X147469922Y-91508846D01*
X147445345Y-91607156D01*
X147445345Y-91803776D01*
X147469922Y-91852931D01*
X147494500Y-91877508D01*
X147543655Y-91902086D01*
X147641965Y-91902086D01*
X147691120Y-91877508D01*
X147715698Y-91852931D01*
X147740275Y-91803776D01*
X147740275Y-91680888D01*
X147715698Y-91631733D01*
X147691120Y-91607156D01*
X147641965Y-91582578D01*
X147543655Y-91582578D01*
X147494500Y-91607156D01*
X147469922Y-91631733D01*
X147445345Y-91680888D01*
D23*
%TO.C,L1*%
X138773644Y-56681574D02*
X138504723Y-56681574D01*
X138504723Y-56116841D01*
X139257701Y-56681574D02*
X138934996Y-56681574D01*
X139096348Y-56681574D02*
X139096348Y-56116841D01*
X139042564Y-56197517D01*
X138988780Y-56251301D01*
X138934996Y-56278193D01*
D16*
%TO.C,R21*%
X136246432Y-99522086D02*
X136074389Y-99276311D01*
X135951501Y-99522086D02*
X135951501Y-99005958D01*
X136148122Y-99005958D01*
X136197277Y-99030536D01*
X136221854Y-99055113D01*
X136246432Y-99104268D01*
X136246432Y-99178001D01*
X136221854Y-99227156D01*
X136197277Y-99251733D01*
X136148122Y-99276311D01*
X135951501Y-99276311D01*
X136443052Y-99055113D02*
X136467629Y-99030536D01*
X136516784Y-99005958D01*
X136639672Y-99005958D01*
X136688827Y-99030536D01*
X136713405Y-99055113D01*
X136737982Y-99104268D01*
X136737982Y-99153423D01*
X136713405Y-99227156D01*
X136418474Y-99522086D01*
X136737982Y-99522086D01*
X137229533Y-99522086D02*
X136934602Y-99522086D01*
X137082067Y-99522086D02*
X137082067Y-99005958D01*
X137032912Y-99079691D01*
X136983757Y-99128846D01*
X136934602Y-99153423D01*
%TO.C,R40*%
X133104674Y-145559586D02*
X132932632Y-145313811D01*
X132809744Y-145559586D02*
X132809744Y-145043458D01*
X133006364Y-145043458D01*
X133055519Y-145068036D01*
X133080097Y-145092613D01*
X133104674Y-145141768D01*
X133104674Y-145215501D01*
X133080097Y-145264656D01*
X133055519Y-145289233D01*
X133006364Y-145313811D01*
X132809744Y-145313811D01*
X133547070Y-145215501D02*
X133547070Y-145559586D01*
X133424182Y-145018880D02*
X133301294Y-145387543D01*
X133620802Y-145387543D01*
X133915732Y-145043458D02*
X133964888Y-145043458D01*
X134014043Y-145068036D01*
X134038620Y-145092613D01*
X134063198Y-145141768D01*
X134087775Y-145240078D01*
X134087775Y-145362966D01*
X134063198Y-145461276D01*
X134038620Y-145510431D01*
X134014043Y-145535008D01*
X133964888Y-145559586D01*
X133915732Y-145559586D01*
X133866577Y-145535008D01*
X133842000Y-145510431D01*
X133817422Y-145461276D01*
X133792845Y-145362966D01*
X133792845Y-145240078D01*
X133817422Y-145141768D01*
X133842000Y-145092613D01*
X133866577Y-145068036D01*
X133915732Y-145043458D01*
D20*
%TO.C,C43*%
X166309510Y-130866468D02*
X166264999Y-130910979D01*
X166131468Y-130955489D01*
X166042447Y-130955489D01*
X165908915Y-130910979D01*
X165819894Y-130821958D01*
X165775384Y-130732937D01*
X165730873Y-130554895D01*
X165730873Y-130421363D01*
X165775384Y-130243321D01*
X165819894Y-130154300D01*
X165908915Y-130065280D01*
X166042447Y-130020769D01*
X166131468Y-130020769D01*
X166264999Y-130065280D01*
X166309510Y-130109790D01*
X167110698Y-130332342D02*
X167110698Y-130955489D01*
X166888146Y-129976259D02*
X166665593Y-130643916D01*
X167244230Y-130643916D01*
X167511292Y-130020769D02*
X168089929Y-130020769D01*
X167778355Y-130376853D01*
X167911887Y-130376853D01*
X168000908Y-130421363D01*
X168045418Y-130465874D01*
X168089929Y-130554895D01*
X168089929Y-130777447D01*
X168045418Y-130866468D01*
X168000908Y-130910979D01*
X167911887Y-130955489D01*
X167644824Y-130955489D01*
X167555803Y-130910979D01*
X167511292Y-130866468D01*
D16*
%TO.C,R3*%
X144924586Y-67060025D02*
X144678811Y-67232067D01*
X144924586Y-67354955D02*
X144408458Y-67354955D01*
X144408458Y-67158335D01*
X144433036Y-67109180D01*
X144457613Y-67084602D01*
X144506768Y-67060025D01*
X144580501Y-67060025D01*
X144629656Y-67084602D01*
X144654233Y-67109180D01*
X144678811Y-67158335D01*
X144678811Y-67354955D01*
X144408458Y-66887982D02*
X144408458Y-66568474D01*
X144605078Y-66740517D01*
X144605078Y-66666784D01*
X144629656Y-66617629D01*
X144654233Y-66593052D01*
X144703388Y-66568474D01*
X144826276Y-66568474D01*
X144875431Y-66593052D01*
X144900008Y-66617629D01*
X144924586Y-66666784D01*
X144924586Y-66814250D01*
X144900008Y-66863405D01*
X144875431Y-66887982D01*
%TO.C,R13*%
X138502174Y-78567086D02*
X138330132Y-78321311D01*
X138207244Y-78567086D02*
X138207244Y-78050958D01*
X138403864Y-78050958D01*
X138453019Y-78075536D01*
X138477597Y-78100113D01*
X138502174Y-78149268D01*
X138502174Y-78223001D01*
X138477597Y-78272156D01*
X138453019Y-78296733D01*
X138403864Y-78321311D01*
X138207244Y-78321311D01*
X138993725Y-78567086D02*
X138698794Y-78567086D01*
X138846260Y-78567086D02*
X138846260Y-78050958D01*
X138797104Y-78124691D01*
X138747949Y-78173846D01*
X138698794Y-78198423D01*
X139165767Y-78050958D02*
X139485275Y-78050958D01*
X139313232Y-78247578D01*
X139386965Y-78247578D01*
X139436120Y-78272156D01*
X139460698Y-78296733D01*
X139485275Y-78345888D01*
X139485275Y-78468776D01*
X139460698Y-78517931D01*
X139436120Y-78542508D01*
X139386965Y-78567086D01*
X139239500Y-78567086D01*
X139190345Y-78542508D01*
X139165767Y-78517931D01*
%TO.C,J8*%
X161191810Y-155126566D02*
X162032188Y-155126566D01*
X162200263Y-155182591D01*
X162312313Y-155294642D01*
X162368338Y-155462717D01*
X162368338Y-155574767D01*
X161696037Y-154398239D02*
X161640012Y-154510290D01*
X161583986Y-154566315D01*
X161471936Y-154622340D01*
X161415911Y-154622340D01*
X161303861Y-154566315D01*
X161247836Y-154510290D01*
X161191810Y-154398239D01*
X161191810Y-154174139D01*
X161247836Y-154062088D01*
X161303861Y-154006063D01*
X161415911Y-153950038D01*
X161471936Y-153950038D01*
X161583986Y-154006063D01*
X161640012Y-154062088D01*
X161696037Y-154174139D01*
X161696037Y-154398239D01*
X161752062Y-154510290D01*
X161808087Y-154566315D01*
X161920137Y-154622340D01*
X162144238Y-154622340D01*
X162256288Y-154566315D01*
X162312313Y-154510290D01*
X162368338Y-154398239D01*
X162368338Y-154174139D01*
X162312313Y-154062088D01*
X162256288Y-154006063D01*
X162144238Y-153950038D01*
X161920137Y-153950038D01*
X161808087Y-154006063D01*
X161752062Y-154062088D01*
X161696037Y-154174139D01*
D20*
%TO.C,C36*%
X161859510Y-130866468D02*
X161814999Y-130910979D01*
X161681468Y-130955489D01*
X161592447Y-130955489D01*
X161458915Y-130910979D01*
X161369894Y-130821958D01*
X161325384Y-130732937D01*
X161280873Y-130554895D01*
X161280873Y-130421363D01*
X161325384Y-130243321D01*
X161369894Y-130154300D01*
X161458915Y-130065280D01*
X161592447Y-130020769D01*
X161681468Y-130020769D01*
X161814999Y-130065280D01*
X161859510Y-130109790D01*
X162171083Y-130020769D02*
X162749719Y-130020769D01*
X162438146Y-130376853D01*
X162571677Y-130376853D01*
X162660698Y-130421363D01*
X162705209Y-130465874D01*
X162749719Y-130554895D01*
X162749719Y-130777447D01*
X162705209Y-130866468D01*
X162660698Y-130910979D01*
X162571677Y-130955489D01*
X162304614Y-130955489D01*
X162215593Y-130910979D01*
X162171083Y-130866468D01*
X163550908Y-130020769D02*
X163372866Y-130020769D01*
X163283845Y-130065280D01*
X163239334Y-130109790D01*
X163150313Y-130243321D01*
X163105803Y-130421363D01*
X163105803Y-130777447D01*
X163150313Y-130866468D01*
X163194824Y-130910979D01*
X163283845Y-130955489D01*
X163461887Y-130955489D01*
X163550908Y-130910979D01*
X163595418Y-130866468D01*
X163639929Y-130777447D01*
X163639929Y-130554895D01*
X163595418Y-130465874D01*
X163550908Y-130421363D01*
X163461887Y-130376853D01*
X163283845Y-130376853D01*
X163194824Y-130421363D01*
X163150313Y-130465874D01*
X163105803Y-130554895D01*
D16*
%TO.C,R27*%
X141576784Y-112838338D02*
X141184608Y-112278087D01*
X140904482Y-112838338D02*
X140904482Y-111661810D01*
X141352683Y-111661810D01*
X141464733Y-111717836D01*
X141520759Y-111773861D01*
X141576784Y-111885911D01*
X141576784Y-112053986D01*
X141520759Y-112166037D01*
X141464733Y-112222062D01*
X141352683Y-112278087D01*
X140904482Y-112278087D01*
X142024985Y-111773861D02*
X142081010Y-111717836D01*
X142193060Y-111661810D01*
X142473186Y-111661810D01*
X142585236Y-111717836D01*
X142641261Y-111773861D01*
X142697287Y-111885911D01*
X142697287Y-111997961D01*
X142641261Y-112166037D01*
X141968960Y-112838338D01*
X142697287Y-112838338D01*
X143089463Y-111661810D02*
X143873815Y-111661810D01*
X143369588Y-112838338D01*
D14*
%TO.C,R29*%
X133720162Y-125019426D02*
X133571149Y-125123735D01*
X133720162Y-125198242D02*
X133407234Y-125198242D01*
X133407234Y-125079031D01*
X133422136Y-125049229D01*
X133437037Y-125034327D01*
X133466840Y-125019426D01*
X133511544Y-125019426D01*
X133541346Y-125034327D01*
X133556248Y-125049229D01*
X133571149Y-125079031D01*
X133571149Y-125198242D01*
X133437037Y-124900215D02*
X133422136Y-124885314D01*
X133407234Y-124855511D01*
X133407234Y-124781005D01*
X133422136Y-124751202D01*
X133437037Y-124736301D01*
X133466840Y-124721399D01*
X133496642Y-124721399D01*
X133541346Y-124736301D01*
X133720162Y-124915117D01*
X133720162Y-124721399D01*
X133720162Y-124572386D02*
X133720162Y-124512781D01*
X133705261Y-124482978D01*
X133690360Y-124468077D01*
X133645656Y-124438274D01*
X133586050Y-124423373D01*
X133466840Y-124423373D01*
X133437037Y-124438274D01*
X133422136Y-124453175D01*
X133407234Y-124482978D01*
X133407234Y-124542583D01*
X133422136Y-124572386D01*
X133437037Y-124587287D01*
X133466840Y-124602189D01*
X133541346Y-124602189D01*
X133571149Y-124587287D01*
X133586050Y-124572386D01*
X133600952Y-124542583D01*
X133600952Y-124482978D01*
X133586050Y-124453175D01*
X133571149Y-124438274D01*
X133541346Y-124423373D01*
D16*
%TO.C,C8*%
X138502174Y-80105431D02*
X138477597Y-80130008D01*
X138403864Y-80154586D01*
X138354709Y-80154586D01*
X138280976Y-80130008D01*
X138231821Y-80080853D01*
X138207244Y-80031698D01*
X138182666Y-79933388D01*
X138182666Y-79859656D01*
X138207244Y-79761346D01*
X138231821Y-79712191D01*
X138280976Y-79663036D01*
X138354709Y-79638458D01*
X138403864Y-79638458D01*
X138477597Y-79663036D01*
X138502174Y-79687613D01*
X138797104Y-79859656D02*
X138747949Y-79835078D01*
X138723372Y-79810501D01*
X138698794Y-79761346D01*
X138698794Y-79736768D01*
X138723372Y-79687613D01*
X138747949Y-79663036D01*
X138797104Y-79638458D01*
X138895415Y-79638458D01*
X138944570Y-79663036D01*
X138969147Y-79687613D01*
X138993725Y-79736768D01*
X138993725Y-79761346D01*
X138969147Y-79810501D01*
X138944570Y-79835078D01*
X138895415Y-79859656D01*
X138797104Y-79859656D01*
X138747949Y-79884233D01*
X138723372Y-79908811D01*
X138698794Y-79957966D01*
X138698794Y-80056276D01*
X138723372Y-80105431D01*
X138747949Y-80130008D01*
X138797104Y-80154586D01*
X138895415Y-80154586D01*
X138944570Y-80130008D01*
X138969147Y-80105431D01*
X138993725Y-80056276D01*
X138993725Y-79957966D01*
X138969147Y-79908811D01*
X138944570Y-79884233D01*
X138895415Y-79859656D01*
D13*
%TO.C,SW2*%
X167866666Y-79104761D02*
X168009523Y-79152380D01*
X168247619Y-79152380D01*
X168342857Y-79104761D01*
X168390476Y-79057142D01*
X168438095Y-78961904D01*
X168438095Y-78866666D01*
X168390476Y-78771428D01*
X168342857Y-78723809D01*
X168247619Y-78676190D01*
X168057142Y-78628571D01*
X167961904Y-78580952D01*
X167914285Y-78533333D01*
X167866666Y-78438095D01*
X167866666Y-78342857D01*
X167914285Y-78247619D01*
X167961904Y-78200000D01*
X168057142Y-78152380D01*
X168295238Y-78152380D01*
X168438095Y-78200000D01*
X168771428Y-78152380D02*
X169009523Y-79152380D01*
X169200000Y-78438095D01*
X169390476Y-79152380D01*
X169628571Y-78152380D01*
X169961904Y-78247619D02*
X170009523Y-78200000D01*
X170104761Y-78152380D01*
X170342857Y-78152380D01*
X170438095Y-78200000D01*
X170485714Y-78247619D01*
X170533333Y-78342857D01*
X170533333Y-78438095D01*
X170485714Y-78580952D01*
X169914285Y-79152380D01*
X170533333Y-79152380D01*
D16*
%TO.C,C7*%
X127847982Y-79470431D02*
X127823405Y-79495008D01*
X127749672Y-79519586D01*
X127700517Y-79519586D01*
X127626784Y-79495008D01*
X127577629Y-79445853D01*
X127553052Y-79396698D01*
X127528474Y-79298388D01*
X127528474Y-79224656D01*
X127553052Y-79126346D01*
X127577629Y-79077191D01*
X127626784Y-79028036D01*
X127700517Y-79003458D01*
X127749672Y-79003458D01*
X127823405Y-79028036D01*
X127847982Y-79052613D01*
X128020025Y-79003458D02*
X128364110Y-79003458D01*
X128142912Y-79519586D01*
D20*
%TO.C,C32*%
X152559510Y-130866468D02*
X152514999Y-130910979D01*
X152381468Y-130955489D01*
X152292447Y-130955489D01*
X152158915Y-130910979D01*
X152069894Y-130821958D01*
X152025384Y-130732937D01*
X151980873Y-130554895D01*
X151980873Y-130421363D01*
X152025384Y-130243321D01*
X152069894Y-130154300D01*
X152158915Y-130065280D01*
X152292447Y-130020769D01*
X152381468Y-130020769D01*
X152514999Y-130065280D01*
X152559510Y-130109790D01*
X152871083Y-130020769D02*
X153449719Y-130020769D01*
X153138146Y-130376853D01*
X153271677Y-130376853D01*
X153360698Y-130421363D01*
X153405209Y-130465874D01*
X153449719Y-130554895D01*
X153449719Y-130777447D01*
X153405209Y-130866468D01*
X153360698Y-130910979D01*
X153271677Y-130955489D01*
X153004614Y-130955489D01*
X152915593Y-130910979D01*
X152871083Y-130866468D01*
X153805803Y-130109790D02*
X153850313Y-130065280D01*
X153939334Y-130020769D01*
X154161887Y-130020769D01*
X154250908Y-130065280D01*
X154295418Y-130109790D01*
X154339929Y-130198811D01*
X154339929Y-130287832D01*
X154295418Y-130421363D01*
X153761292Y-130955489D01*
X154339929Y-130955489D01*
D16*
%TO.C,R19*%
X132118932Y-95712086D02*
X131946889Y-95466311D01*
X131824001Y-95712086D02*
X131824001Y-95195958D01*
X132020622Y-95195958D01*
X132069777Y-95220536D01*
X132094354Y-95245113D01*
X132118932Y-95294268D01*
X132118932Y-95368001D01*
X132094354Y-95417156D01*
X132069777Y-95441733D01*
X132020622Y-95466311D01*
X131824001Y-95466311D01*
X132610482Y-95712086D02*
X132315552Y-95712086D01*
X132463017Y-95712086D02*
X132463017Y-95195958D01*
X132413862Y-95269691D01*
X132364707Y-95318846D01*
X132315552Y-95343423D01*
X132856257Y-95712086D02*
X132954567Y-95712086D01*
X133003723Y-95687508D01*
X133028300Y-95662931D01*
X133077455Y-95589198D01*
X133102033Y-95490888D01*
X133102033Y-95294268D01*
X133077455Y-95245113D01*
X133052878Y-95220536D01*
X133003723Y-95195958D01*
X132905412Y-95195958D01*
X132856257Y-95220536D01*
X132831680Y-95245113D01*
X132807102Y-95294268D01*
X132807102Y-95417156D01*
X132831680Y-95466311D01*
X132856257Y-95490888D01*
X132905412Y-95515466D01*
X133003723Y-95515466D01*
X133052878Y-95490888D01*
X133077455Y-95466311D01*
X133102033Y-95417156D01*
D23*
%TO.C,L3*%
X138355311Y-64301574D02*
X138086390Y-64301574D01*
X138086390Y-63736841D01*
X138489771Y-63736841D02*
X138839368Y-63736841D01*
X138651123Y-63951977D01*
X138731800Y-63951977D01*
X138785584Y-63978869D01*
X138812476Y-64005761D01*
X138839368Y-64059546D01*
X138839368Y-64194006D01*
X138812476Y-64247790D01*
X138785584Y-64274682D01*
X138731800Y-64301574D01*
X138570447Y-64301574D01*
X138516663Y-64274682D01*
X138489771Y-64247790D01*
D16*
%TO.C,R7*%
X145704284Y-70928338D02*
X145312108Y-70368087D01*
X145031982Y-70928338D02*
X145031982Y-69751810D01*
X145480183Y-69751810D01*
X145592233Y-69807836D01*
X145648259Y-69863861D01*
X145704284Y-69975911D01*
X145704284Y-70143986D01*
X145648259Y-70256037D01*
X145592233Y-70312062D01*
X145480183Y-70368087D01*
X145031982Y-70368087D01*
X146096460Y-69751810D02*
X146880812Y-69751810D01*
X146376585Y-70928338D01*
%TO.C,D1*%
X140795625Y-58021510D02*
X140795625Y-57302182D01*
X140966893Y-57302182D01*
X141069655Y-57336436D01*
X141138162Y-57404943D01*
X141172416Y-57473450D01*
X141206669Y-57610465D01*
X141206669Y-57713226D01*
X141172416Y-57850241D01*
X141138162Y-57918749D01*
X141069655Y-57987256D01*
X140966893Y-58021510D01*
X140795625Y-58021510D01*
X141891744Y-58021510D02*
X141480699Y-58021510D01*
X141686221Y-58021510D02*
X141686221Y-57302182D01*
X141617714Y-57404943D01*
X141549207Y-57473450D01*
X141480699Y-57507704D01*
%TO.C,R11*%
X134764586Y-75315025D02*
X134518811Y-75487067D01*
X134764586Y-75609955D02*
X134248458Y-75609955D01*
X134248458Y-75413335D01*
X134273036Y-75364180D01*
X134297613Y-75339602D01*
X134346768Y-75315025D01*
X134420501Y-75315025D01*
X134469656Y-75339602D01*
X134494233Y-75364180D01*
X134518811Y-75413335D01*
X134518811Y-75609955D01*
X134764586Y-74823474D02*
X134764586Y-75118405D01*
X134764586Y-74970939D02*
X134248458Y-74970939D01*
X134322191Y-75020095D01*
X134371346Y-75069250D01*
X134395923Y-75118405D01*
X134764586Y-74331924D02*
X134764586Y-74626854D01*
X134764586Y-74479389D02*
X134248458Y-74479389D01*
X134322191Y-74528544D01*
X134371346Y-74577699D01*
X134395923Y-74626854D01*
D19*
%TO.C,R36*%
X145679652Y-144220643D02*
X145558409Y-144047439D01*
X145471807Y-144220643D02*
X145471807Y-143856915D01*
X145610370Y-143856915D01*
X145645011Y-143874236D01*
X145662331Y-143891556D01*
X145679652Y-143926197D01*
X145679652Y-143978158D01*
X145662331Y-144012799D01*
X145645011Y-144030119D01*
X145610370Y-144047439D01*
X145471807Y-144047439D01*
X145800894Y-143856915D02*
X146026059Y-143856915D01*
X145904817Y-143995478D01*
X145956778Y-143995478D01*
X145991419Y-144012799D01*
X146008739Y-144030119D01*
X146026059Y-144064760D01*
X146026059Y-144151362D01*
X146008739Y-144186002D01*
X145991419Y-144203323D01*
X145956778Y-144220643D01*
X145852856Y-144220643D01*
X145818215Y-144203323D01*
X145800894Y-144186002D01*
X146337826Y-143856915D02*
X146268545Y-143856915D01*
X146233904Y-143874236D01*
X146216584Y-143891556D01*
X146181943Y-143943517D01*
X146164622Y-144012799D01*
X146164622Y-144151362D01*
X146181943Y-144186002D01*
X146199263Y-144203323D01*
X146233904Y-144220643D01*
X146303185Y-144220643D01*
X146337826Y-144203323D01*
X146355147Y-144186002D01*
X146372467Y-144151362D01*
X146372467Y-144064760D01*
X146355147Y-144030119D01*
X146337826Y-144012799D01*
X146303185Y-143995478D01*
X146233904Y-143995478D01*
X146199263Y-144012799D01*
X146181943Y-144030119D01*
X146164622Y-144064760D01*
D20*
%TO.C,C37*%
X170809510Y-130866468D02*
X170764999Y-130910979D01*
X170631468Y-130955489D01*
X170542447Y-130955489D01*
X170408915Y-130910979D01*
X170319894Y-130821958D01*
X170275384Y-130732937D01*
X170230873Y-130554895D01*
X170230873Y-130421363D01*
X170275384Y-130243321D01*
X170319894Y-130154300D01*
X170408915Y-130065280D01*
X170542447Y-130020769D01*
X170631468Y-130020769D01*
X170764999Y-130065280D01*
X170809510Y-130109790D01*
X171121083Y-130020769D02*
X171699719Y-130020769D01*
X171388146Y-130376853D01*
X171521677Y-130376853D01*
X171610698Y-130421363D01*
X171655209Y-130465874D01*
X171699719Y-130554895D01*
X171699719Y-130777447D01*
X171655209Y-130866468D01*
X171610698Y-130910979D01*
X171521677Y-130955489D01*
X171254614Y-130955489D01*
X171165593Y-130910979D01*
X171121083Y-130866468D01*
X172011292Y-130020769D02*
X172634439Y-130020769D01*
X172233845Y-130955489D01*
D16*
%TO.C,R4*%
X145559586Y-67060025D02*
X145313811Y-67232067D01*
X145559586Y-67354955D02*
X145043458Y-67354955D01*
X145043458Y-67158335D01*
X145068036Y-67109180D01*
X145092613Y-67084602D01*
X145141768Y-67060025D01*
X145215501Y-67060025D01*
X145264656Y-67084602D01*
X145289233Y-67109180D01*
X145313811Y-67158335D01*
X145313811Y-67354955D01*
X145215501Y-66617629D02*
X145559586Y-66617629D01*
X145018880Y-66740517D02*
X145387543Y-66863405D01*
X145387543Y-66543897D01*
D14*
%TO.C,C35*%
X136865360Y-125019426D02*
X136880261Y-125034327D01*
X136895162Y-125079031D01*
X136895162Y-125108834D01*
X136880261Y-125153538D01*
X136850458Y-125183341D01*
X136820656Y-125198242D01*
X136761050Y-125213143D01*
X136716346Y-125213143D01*
X136656741Y-125198242D01*
X136626938Y-125183341D01*
X136597136Y-125153538D01*
X136582234Y-125108834D01*
X136582234Y-125079031D01*
X136597136Y-125034327D01*
X136612037Y-125019426D01*
X136582234Y-124915117D02*
X136582234Y-124721399D01*
X136701445Y-124825709D01*
X136701445Y-124781005D01*
X136716346Y-124751202D01*
X136731248Y-124736301D01*
X136761050Y-124721399D01*
X136835557Y-124721399D01*
X136865360Y-124736301D01*
X136880261Y-124751202D01*
X136895162Y-124781005D01*
X136895162Y-124870413D01*
X136880261Y-124900215D01*
X136865360Y-124915117D01*
X136582234Y-124438274D02*
X136582234Y-124587287D01*
X136731248Y-124602189D01*
X136716346Y-124587287D01*
X136701445Y-124557485D01*
X136701445Y-124482978D01*
X136716346Y-124453175D01*
X136731248Y-124438274D01*
X136761050Y-124423373D01*
X136835557Y-124423373D01*
X136865360Y-124438274D01*
X136880261Y-124453175D01*
X136895162Y-124482978D01*
X136895162Y-124557485D01*
X136880261Y-124587287D01*
X136865360Y-124602189D01*
D16*
%TO.C,R14*%
X162610332Y-78585986D02*
X162438289Y-78340211D01*
X162315401Y-78585986D02*
X162315401Y-78069858D01*
X162512022Y-78069858D01*
X162561177Y-78094436D01*
X162585754Y-78119013D01*
X162610332Y-78168168D01*
X162610332Y-78241901D01*
X162585754Y-78291056D01*
X162561177Y-78315633D01*
X162512022Y-78340211D01*
X162315401Y-78340211D01*
X163101882Y-78585986D02*
X162806952Y-78585986D01*
X162954417Y-78585986D02*
X162954417Y-78069858D01*
X162905262Y-78143591D01*
X162856107Y-78192746D01*
X162806952Y-78217323D01*
X163544278Y-78241901D02*
X163544278Y-78585986D01*
X163421390Y-78045280D02*
X163298502Y-78413943D01*
X163618010Y-78413943D01*
%TO.C,C33*%
X128682931Y-126115025D02*
X128707508Y-126139602D01*
X128732086Y-126213335D01*
X128732086Y-126262490D01*
X128707508Y-126336223D01*
X128658353Y-126385378D01*
X128609198Y-126409955D01*
X128510888Y-126434533D01*
X128437156Y-126434533D01*
X128338846Y-126409955D01*
X128289691Y-126385378D01*
X128240536Y-126336223D01*
X128215958Y-126262490D01*
X128215958Y-126213335D01*
X128240536Y-126139602D01*
X128265113Y-126115025D01*
X128215958Y-125942982D02*
X128215958Y-125623474D01*
X128412578Y-125795517D01*
X128412578Y-125721784D01*
X128437156Y-125672629D01*
X128461733Y-125648052D01*
X128510888Y-125623474D01*
X128633776Y-125623474D01*
X128682931Y-125648052D01*
X128707508Y-125672629D01*
X128732086Y-125721784D01*
X128732086Y-125869250D01*
X128707508Y-125918405D01*
X128682931Y-125942982D01*
X128215958Y-125451432D02*
X128215958Y-125131924D01*
X128412578Y-125303967D01*
X128412578Y-125230234D01*
X128437156Y-125181079D01*
X128461733Y-125156501D01*
X128510888Y-125131924D01*
X128633776Y-125131924D01*
X128682931Y-125156501D01*
X128707508Y-125181079D01*
X128732086Y-125230234D01*
X128732086Y-125377699D01*
X128707508Y-125426854D01*
X128682931Y-125451432D01*
D25*
%TO.C,SW1*%
X166600000Y-74050000D02*
X166600000Y-71550000D01*
X171600000Y-74050000D02*
X166600000Y-74050000D01*
X171600000Y-71550000D02*
X171600000Y-74050000D01*
X166600000Y-71550000D02*
X171600000Y-71550000D01*
D26*
%TO.C,IC6*%
X140032328Y-125263600D02*
G75*
G03*
X140032328Y-125263600I-316228J0D01*
G01*
D27*
%TO.C,C1*%
X128741100Y-55793600D02*
X128741100Y-55193600D01*
X135241100Y-53493600D02*
X135241100Y-55793600D01*
X135241100Y-57693600D02*
X135241100Y-59993600D01*
X135241100Y-59993600D02*
X130441100Y-59993600D01*
X128741100Y-55193600D02*
X130441100Y-53493600D01*
X130441100Y-59993600D02*
X128741100Y-58293600D01*
X130441100Y-53493600D02*
X135241100Y-53493600D01*
X128741100Y-58293600D02*
X128741100Y-57693600D01*
X129041100Y-57693600D02*
G75*
G03*
X134941100Y-57693600I2950000J950001D01*
G01*
X134941100Y-55793600D02*
G75*
G03*
X129041100Y-55793600I-2950000J-950001D01*
G01*
D26*
%TO.C,Q2*%
X167900000Y-116850000D02*
X167900000Y-122150000D01*
X171600000Y-116850000D02*
X167900000Y-116850000D01*
D25*
%TO.C,LED2*%
X130086100Y-99923600D02*
X132626100Y-99923600D01*
X132626100Y-99923600D02*
G75*
G03*
X130086100Y-99923600I-1270000J1270000D01*
G01*
X132656100Y-98653600D02*
G75*
G03*
X132656100Y-98653600I-1300000J0D01*
G01*
%TO.C,J2*%
X137972800Y-132892800D02*
X146964400Y-132892800D01*
X137972800Y-143383000D02*
X137972800Y-132892800D01*
X146964400Y-132892800D02*
X146964400Y-143383000D01*
X146964400Y-143383000D02*
X137972800Y-143383000D01*
D26*
%TO.C,D2*%
X138058600Y-61206100D02*
X139058600Y-60806100D01*
X139058600Y-60806100D02*
X139058600Y-61206100D01*
X139058600Y-61206100D02*
X139058600Y-60406100D01*
X139058600Y-60806100D02*
X138058600Y-60406100D01*
X138058600Y-60406100D02*
X138058600Y-61206100D01*
X139058600Y-60806100D02*
X139758600Y-60806100D01*
X138058600Y-60806100D02*
X137458600Y-60806100D01*
%TO.C,IC5*%
X158390000Y-117640000D02*
X159115000Y-117640000D01*
X158390000Y-122860000D02*
X159115000Y-122860000D01*
X158390000Y-118365000D02*
X158390000Y-117640000D01*
X158390000Y-122135000D02*
X158390000Y-122860000D01*
X163610000Y-122135000D02*
X163610000Y-122860000D01*
X163610000Y-118365000D02*
X163610000Y-117640000D01*
X163610000Y-122860000D02*
X162885000Y-122860000D01*
X163482843Y-117750000D02*
G75*
G03*
X163482843Y-117750000I-282843J0D01*
G01*
D25*
%TO.C,J3*%
X159029400Y-143383000D02*
X150037800Y-143383000D01*
X150037800Y-143383000D02*
X150037800Y-132892800D01*
X159029400Y-132892800D02*
X159029400Y-143383000D01*
X150037800Y-132892800D02*
X159029400Y-132892800D01*
D28*
%TO.C,IC3*%
X137325100Y-83045300D02*
X129197100Y-83045300D01*
X137706100Y-86575900D02*
X137706100Y-83426300D01*
X128816100Y-83426300D02*
X128816100Y-86575900D01*
X129197100Y-86956900D02*
X137325100Y-86956900D01*
X128816100Y-86601300D02*
X137706100Y-86601300D01*
X137706100Y-83426300D02*
G75*
G03*
X137325100Y-83045300I-381000J0D01*
G01*
X129197100Y-83045300D02*
G75*
G03*
X128816100Y-83426300I-1J-380999D01*
G01*
X137325100Y-86956900D02*
G75*
G03*
X137706100Y-86575900I0J381000D01*
G01*
X128816100Y-85509100D02*
G75*
G03*
X128816100Y-84493100I0J508000D01*
G01*
X128816100Y-86575900D02*
G75*
G03*
X129197100Y-86956900I380999J-1D01*
G01*
D27*
%TO.C,C4*%
X157746100Y-60796100D02*
X162546100Y-60796100D01*
X162546100Y-60796100D02*
X162546100Y-63096100D01*
X156046100Y-65596100D02*
X156046100Y-64996100D01*
X156046100Y-62496100D02*
X157746100Y-60796100D01*
X156046100Y-63096100D02*
X156046100Y-62496100D01*
X162546100Y-64996100D02*
X162546100Y-67296100D01*
X157746100Y-67296100D02*
X156046100Y-65596100D01*
X162546100Y-67296100D02*
X157746100Y-67296100D01*
X156346100Y-64996100D02*
G75*
G03*
X162246100Y-64996100I2950000J950001D01*
G01*
X162246100Y-63096100D02*
G75*
G03*
X156346100Y-63096100I-2950000J-950001D01*
G01*
D25*
%TO.C,R26*%
X135651100Y-110656100D02*
X135651100Y-120446100D01*
X127061100Y-120446100D02*
X127061100Y-110656100D01*
X127061100Y-110656100D02*
X135651100Y-110656100D01*
D29*
X133806100Y-116741100D02*
X128931100Y-116741100D01*
X132456100Y-116741100D02*
X130256100Y-116741100D01*
D25*
X135651100Y-120446100D02*
X127061100Y-120446100D01*
D29*
X132456100Y-116741100D02*
G75*
G03*
X130256100Y-116741100I-1100000J625000D01*
G01*
X133896100Y-116116100D02*
G75*
G03*
X133896100Y-116116100I-2540000J0D01*
G01*
D25*
%TO.C,J6*%
X137972800Y-147497800D02*
X146964400Y-147497800D01*
X146964400Y-157988000D02*
X137972800Y-157988000D01*
X137972800Y-157988000D02*
X137972800Y-147497800D01*
X146964400Y-147497800D02*
X146964400Y-157988000D01*
D26*
%TO.C,Q1*%
X149200000Y-90732843D02*
X153200000Y-90732843D01*
X149200000Y-87432843D02*
X149200000Y-90732843D01*
D27*
%TO.C,C39*%
X157750000Y-125400000D02*
X158850000Y-126500000D01*
X154650000Y-129600000D02*
X154650000Y-126500000D01*
X155900000Y-129600000D02*
X154650000Y-129600000D01*
X154650000Y-126500000D02*
X155750000Y-125400000D01*
X158850000Y-129600000D02*
X157600000Y-129600000D01*
X158850000Y-126500000D02*
X158850000Y-129600000D01*
X155900000Y-125750000D02*
G75*
G03*
X155900000Y-129250000I849999J-1750000D01*
G01*
X157600000Y-129250000D02*
G75*
G03*
X157600000Y-125750000I-849999J1750000D01*
G01*
%TO.C,C2*%
X162546100Y-53493600D02*
X162546100Y-55793600D01*
X156046100Y-55793600D02*
X156046100Y-55193600D01*
X162546100Y-59993600D02*
X157746100Y-59993600D01*
X162546100Y-57693600D02*
X162546100Y-59993600D01*
X156046100Y-58293600D02*
X156046100Y-57693600D01*
X157746100Y-59993600D02*
X156046100Y-58293600D01*
X157746100Y-53493600D02*
X162546100Y-53493600D01*
X156046100Y-55193600D02*
X157746100Y-53493600D01*
X162246100Y-55793600D02*
G75*
G03*
X156346100Y-55793600I-2950000J-950001D01*
G01*
X156346100Y-57693600D02*
G75*
G03*
X162246100Y-57693600I2950000J950001D01*
G01*
D25*
%TO.C,J1*%
X125907800Y-132892800D02*
X134899400Y-132892800D01*
X125907800Y-143383000D02*
X125907800Y-132892800D01*
X134899400Y-132892800D02*
X134899400Y-143383000D01*
X134899400Y-143383000D02*
X125907800Y-143383000D01*
D27*
%TO.C,C29*%
X153776100Y-122831100D02*
X152676100Y-123931100D01*
X149576100Y-119731100D02*
X152676100Y-119731100D01*
X152676100Y-119731100D02*
X153776100Y-120831100D01*
X149576100Y-120981100D02*
X149576100Y-119731100D01*
X149576100Y-123931100D02*
X149576100Y-122681100D01*
X152676100Y-123931100D02*
X149576100Y-123931100D01*
X153426100Y-120981100D02*
G75*
G03*
X149926100Y-120981100I-1750000J-849999D01*
G01*
X149926100Y-122681100D02*
G75*
G03*
X153426100Y-122681100I1750000J849999D01*
G01*
D25*
%TO.C,R23*%
X157541100Y-100813600D02*
X166131100Y-100813600D01*
D29*
X162936100Y-106898600D02*
X160736100Y-106898600D01*
D25*
X166131100Y-110603600D02*
X157541100Y-110603600D01*
X157541100Y-110603600D02*
X157541100Y-100813600D01*
X166131100Y-100813600D02*
X166131100Y-110603600D01*
D29*
X164286100Y-106898600D02*
X159411100Y-106898600D01*
X162936100Y-106898600D02*
G75*
G03*
X160736100Y-106898600I-1100000J625000D01*
G01*
X164376100Y-106273600D02*
G75*
G03*
X164376100Y-106273600I-2540000J0D01*
G01*
D25*
%TO.C,J7*%
X159029400Y-157988000D02*
X150037800Y-157988000D01*
X150037800Y-157988000D02*
X150037800Y-147497800D01*
X159029400Y-147497800D02*
X159029400Y-157988000D01*
X150037800Y-147497800D02*
X159029400Y-147497800D01*
D27*
%TO.C,C23*%
X169000000Y-113350000D02*
X167900000Y-112250000D01*
X167900000Y-109150000D02*
X169150000Y-109150000D01*
X172100000Y-112250000D02*
X171000000Y-113350000D01*
X170850000Y-109150000D02*
X172100000Y-109150000D01*
X172100000Y-109150000D02*
X172100000Y-112250000D01*
X167900000Y-112250000D02*
X167900000Y-109150000D01*
X170850000Y-113000000D02*
G75*
G03*
X170850000Y-109500000I-849999J1750000D01*
G01*
X169150000Y-109500000D02*
G75*
G03*
X169150000Y-113000000I849999J-1750000D01*
G01*
D28*
%TO.C,D3*%
X140398500Y-108978700D02*
X140398500Y-109791500D01*
X138112500Y-109791500D02*
X137553700Y-109791500D01*
X140398500Y-109791500D02*
X139839700Y-109791500D01*
X137553700Y-109791500D02*
X137553700Y-108978700D01*
D25*
%TO.C,J4*%
X171094400Y-132892800D02*
X171094400Y-143383000D01*
X171094400Y-143383000D02*
X162102800Y-143383000D01*
X162102800Y-132892800D02*
X171094400Y-132892800D01*
X162102800Y-143383000D02*
X162102800Y-132892800D01*
%TO.C,LED1*%
X145783300Y-63068200D02*
X145783300Y-66243200D01*
X145783301Y-66243201D02*
G75*
G03*
X145783300Y-63068200I2540000J1587501D01*
G01*
%TO.C,J5*%
X125907800Y-147497800D02*
X134899400Y-147497800D01*
X134899400Y-147497800D02*
X134899400Y-157988000D01*
X134899400Y-157988000D02*
X125907800Y-157988000D01*
X125907800Y-157988000D02*
X125907800Y-147497800D01*
D27*
%TO.C,C3*%
X128741100Y-62496100D02*
X130441100Y-60796100D01*
X135241100Y-67296100D02*
X130441100Y-67296100D01*
X135241100Y-64996100D02*
X135241100Y-67296100D01*
X128741100Y-65596100D02*
X128741100Y-64996100D01*
X128741100Y-63096100D02*
X128741100Y-62496100D01*
X130441100Y-60796100D02*
X135241100Y-60796100D01*
X135241100Y-60796100D02*
X135241100Y-63096100D01*
X130441100Y-67296100D02*
X128741100Y-65596100D01*
X129041100Y-64996100D02*
G75*
G03*
X134941100Y-64996100I2950000J950001D01*
G01*
X134941100Y-63096100D02*
G75*
G03*
X129041100Y-63096100I-2950000J-950001D01*
G01*
D29*
%TO.C,SW3*%
X128308100Y-102844600D02*
X128308100Y-107162600D01*
X130328100Y-108051600D02*
X132372100Y-108051600D01*
X134404100Y-107162600D02*
X134404100Y-102844600D01*
X130358100Y-101955600D02*
X132372100Y-101955600D01*
X133134100Y-105003600D02*
G75*
G03*
X133134100Y-105003600I-1778000J0D01*
G01*
D30*
%TO.C,L2*%
X143256100Y-62693600D02*
X144856100Y-62693600D01*
X144856100Y-63493600D02*
X143256100Y-63493600D01*
G36*
X144356100Y-63193600D02*
G01*
X143956100Y-63193600D01*
X143956100Y-62993600D01*
X144356100Y-62993600D01*
X144356100Y-63193600D01*
G37*
D25*
%TO.C,IC4*%
X153183600Y-105241100D02*
X153183600Y-95241100D01*
X153183600Y-95241100D02*
X143183600Y-95241100D01*
X143183600Y-105241100D02*
X153183600Y-105241100D01*
X143183600Y-95241100D02*
X143183600Y-105241100D01*
X152606800Y-96177100D02*
G75*
G03*
X152606800Y-96177100I-359200J0D01*
G01*
D29*
%TO.C,IC1*%
X170510600Y-56172100D02*
X170510200Y-62166500D01*
X163956600Y-56172100D02*
X170510600Y-56172100D01*
X163957000Y-62166500D02*
X163956600Y-56172100D01*
G36*
X167665400Y-56070500D02*
G01*
X166801800Y-56070500D01*
X166801800Y-55308500D01*
X167665400Y-55308500D01*
X167665400Y-56070500D01*
G37*
D30*
%TO.C,L1*%
X137858600Y-56661100D02*
X139458600Y-56661100D01*
X139458600Y-57461100D02*
X137858600Y-57461100D01*
G36*
X138958600Y-57161100D02*
G01*
X138558600Y-57161100D01*
X138558600Y-56961100D01*
X138958600Y-56961100D01*
X138958600Y-57161100D01*
G37*
D27*
%TO.C,C43*%
X167850000Y-129600000D02*
X166600000Y-129600000D01*
X164900000Y-129600000D02*
X163650000Y-129600000D01*
X163650000Y-126500000D02*
X164750000Y-125400000D01*
X167850000Y-126500000D02*
X167850000Y-129600000D01*
X163650000Y-129600000D02*
X163650000Y-126500000D01*
X166750000Y-125400000D02*
X167850000Y-126500000D01*
X164900000Y-125750000D02*
G75*
G03*
X164900000Y-129250000I849999J-1750000D01*
G01*
X166600000Y-129250000D02*
G75*
G03*
X166600000Y-125750000I-849999J1750000D01*
G01*
D25*
%TO.C,J8*%
X162102800Y-157988000D02*
X162102800Y-147497800D01*
X162102800Y-147497800D02*
X171094400Y-147497800D01*
X171094400Y-157988000D02*
X162102800Y-157988000D01*
X171094400Y-147497800D02*
X171094400Y-157988000D01*
D27*
%TO.C,C36*%
X163350000Y-129600000D02*
X162100000Y-129600000D01*
X159150000Y-126500000D02*
X160250000Y-125400000D01*
X159150000Y-129600000D02*
X159150000Y-126500000D01*
X160400000Y-129600000D02*
X159150000Y-129600000D01*
X162250000Y-125400000D02*
X163350000Y-126500000D01*
X163350000Y-126500000D02*
X163350000Y-129600000D01*
X162100000Y-129250000D02*
G75*
G03*
X162100000Y-125750000I-849999J1750000D01*
G01*
X160400000Y-125750000D02*
G75*
G03*
X160400000Y-129250000I849999J-1750000D01*
G01*
D25*
%TO.C,R27*%
X148668600Y-120446100D02*
X140078600Y-120446100D01*
D29*
X146823600Y-116741100D02*
X141948600Y-116741100D01*
D25*
X140078600Y-120446100D02*
X140078600Y-110656100D01*
X148668600Y-110656100D02*
X148668600Y-120446100D01*
D29*
X145473600Y-116741100D02*
X143273600Y-116741100D01*
D25*
X140078600Y-110656100D02*
X148668600Y-110656100D01*
D29*
X145473600Y-116741100D02*
G75*
G03*
X143273600Y-116741100I-1100000J625000D01*
G01*
X146913600Y-116116100D02*
G75*
G03*
X146913600Y-116116100I-2540000J0D01*
G01*
D25*
%TO.C,SW2*%
X171600000Y-75150000D02*
X171600000Y-77650000D01*
X166600000Y-75150000D02*
X171600000Y-75150000D01*
X166600000Y-77650000D02*
X166600000Y-75150000D01*
X171600000Y-77650000D02*
X166600000Y-77650000D01*
D27*
%TO.C,C32*%
X151400000Y-129600000D02*
X150150000Y-129600000D01*
X150150000Y-129600000D02*
X150150000Y-126500000D01*
X154350000Y-129600000D02*
X153100000Y-129600000D01*
X154350000Y-126500000D02*
X154350000Y-129600000D01*
X150150000Y-126500000D02*
X151250000Y-125400000D01*
X153250000Y-125400000D02*
X154350000Y-126500000D01*
X151400000Y-125750000D02*
G75*
G03*
X151400000Y-129250000I849999J-1750000D01*
G01*
X153100000Y-129250000D02*
G75*
G03*
X153100000Y-125750000I-849999J1750000D01*
G01*
D30*
%TO.C,L3*%
X139458600Y-63811100D02*
X137858600Y-63811100D01*
X137858600Y-63011100D02*
X139458600Y-63011100D01*
G36*
X138758600Y-63511100D02*
G01*
X138358600Y-63511100D01*
X138358600Y-63311100D01*
X138758600Y-63311100D01*
X138758600Y-63511100D01*
G37*
D29*
%TO.C,R7*%
X149601100Y-74831100D02*
X147401100Y-74831100D01*
X150951100Y-74831100D02*
X146076100Y-74831100D01*
D25*
X152796100Y-68746100D02*
X152796100Y-78536100D01*
X144206100Y-78536100D02*
X144206100Y-68746100D01*
X144206100Y-68746100D02*
X152796100Y-68746100D01*
X152796100Y-78536100D02*
X144206100Y-78536100D01*
D29*
X149601100Y-74831100D02*
G75*
G03*
X147401100Y-74831100I-1100000J625000D01*
G01*
X151041100Y-74206100D02*
G75*
G03*
X151041100Y-74206100I-2540000J0D01*
G01*
D26*
%TO.C,D1*%
X138258600Y-59666100D02*
X139258600Y-60066100D01*
X138258600Y-59266100D02*
X138258600Y-60066100D01*
X138258600Y-59666100D02*
X138258600Y-59266100D01*
X139258600Y-59266100D02*
X138258600Y-59666100D01*
X138258600Y-59666100D02*
X137558600Y-59666100D01*
X139258600Y-60066100D02*
X139258600Y-59266100D01*
X139258600Y-59666100D02*
X139858600Y-59666100D01*
D27*
%TO.C,C37*%
X172350000Y-126500000D02*
X172350000Y-129600000D01*
X172350000Y-129600000D02*
X171100000Y-129600000D01*
X171250000Y-125400000D02*
X172350000Y-126500000D01*
X169400000Y-129600000D02*
X168150000Y-129600000D01*
X168150000Y-126500000D02*
X169250000Y-125400000D01*
X168150000Y-129600000D02*
X168150000Y-126500000D01*
X171100000Y-129250000D02*
G75*
G03*
X171100000Y-125750000I-849999J1750000D01*
G01*
X169400000Y-125750000D02*
G75*
G03*
X169400000Y-129250000I849999J-1750000D01*
G01*
%TD*%
%LPC*%
D31*
%TO.C,SW1*%
X171175000Y-71700000D03*
X167025000Y-71700000D03*
X171175000Y-73900000D03*
X167025000Y-73900000D03*
%TD*%
D32*
%TO.C,C38*%
X147500000Y-128925000D03*
X147500000Y-127225000D03*
%TD*%
D33*
%TO.C,IC6*%
X138916100Y-125958600D03*
X138916100Y-127228600D03*
X138916100Y-128498600D03*
X138916100Y-129768600D03*
X144116100Y-129768600D03*
X144116100Y-128498600D03*
X144116100Y-127228600D03*
X144116100Y-125958600D03*
%TD*%
D34*
%TO.C,C20*%
X142048600Y-105321100D03*
X140348600Y-105321100D03*
%TD*%
D35*
%TO.C,R25*%
X151358500Y-113361000D03*
X151358500Y-115061000D03*
%TD*%
D36*
%TO.C,R20*%
X134213600Y-94741100D03*
X134213600Y-93041100D03*
%TD*%
D37*
%TO.C,C1*%
X129591100Y-56743600D03*
X134391100Y-56743600D03*
%TD*%
D38*
%TO.C,C5*%
X154533600Y-64148600D03*
X154533600Y-65848600D03*
%TD*%
%TO.C,C10*%
X147947309Y-88250000D03*
X147947309Y-89950000D03*
%TD*%
D39*
%TO.C,R18*%
X135586100Y-93573600D03*
X137286100Y-93573600D03*
%TD*%
D40*
%TO.C,TP2*%
X159613600Y-99288600D03*
%TD*%
D41*
%TO.C,Q2*%
X168750000Y-117850000D03*
X168750000Y-121150000D03*
X170750000Y-121150000D03*
X170750000Y-117850000D03*
%TD*%
D42*
%TO.C,LED2*%
X129356100Y-98653600D03*
X131356100Y-98653600D03*
X133356100Y-98653600D03*
%TD*%
D35*
%TO.C,R32*%
X128498600Y-130188600D03*
X128498600Y-131888600D03*
%TD*%
%TO.C,R6*%
X131356100Y-70498600D03*
X131356100Y-72198600D03*
%TD*%
D40*
%TO.C,TP1*%
X157708600Y-93891100D03*
%TD*%
D43*
%TO.C,J2*%
X142468600Y-137388600D03*
D44*
X142468600Y-131673600D03*
X142468600Y-134213600D03*
X142468600Y-141833600D03*
%TD*%
D39*
%TO.C,R9*%
X135586100Y-76428600D03*
X137286100Y-76428600D03*
%TD*%
D45*
%TO.C,D2*%
X136758600Y-61506100D03*
X140558600Y-61506100D03*
%TD*%
D38*
%TO.C,C31*%
X139611100Y-121616100D03*
X139611100Y-123316100D03*
%TD*%
D36*
%TO.C,R5*%
X150406100Y-67753600D03*
X150406100Y-66053600D03*
%TD*%
D46*
%TO.C,R1*%
X140080600Y-54203600D03*
X137236600Y-54203600D03*
%TD*%
D47*
%TO.C,IC5*%
X162500000Y-117800000D03*
X162000000Y-117800000D03*
X161500000Y-117800000D03*
X161000000Y-117800000D03*
X160500000Y-117800000D03*
X160000000Y-117800000D03*
X159500000Y-117800000D03*
D48*
X158550000Y-118750000D03*
X158550000Y-119250000D03*
X158550000Y-119750000D03*
X158550000Y-120250000D03*
X158550000Y-120750000D03*
X158550000Y-121250000D03*
X158550000Y-121750000D03*
D47*
X159500000Y-122700000D03*
X160000000Y-122700000D03*
X160500000Y-122700000D03*
X161000000Y-122700000D03*
X161500000Y-122700000D03*
X162000000Y-122700000D03*
X162500000Y-122700000D03*
D48*
X163450000Y-121750000D03*
X163450000Y-121250000D03*
X163450000Y-120750000D03*
X163450000Y-120250000D03*
X163450000Y-119750000D03*
X163450000Y-119250000D03*
X163450000Y-118750000D03*
D49*
X161000000Y-120250000D03*
%TD*%
D34*
%TO.C,C26*%
X170600000Y-115500000D03*
X168900000Y-115500000D03*
%TD*%
D50*
%TO.C,C40*%
X134951100Y-129768600D03*
X136651100Y-129768600D03*
%TD*%
D43*
%TO.C,J3*%
X154533600Y-137388600D03*
D44*
X154533600Y-131673600D03*
X154533600Y-134213600D03*
X154533600Y-141833600D03*
%TD*%
D35*
%TO.C,R33*%
X147700000Y-130400000D03*
X147700000Y-132100000D03*
%TD*%
D50*
%TO.C,C21*%
X152985100Y-107543600D03*
X154685100Y-107543600D03*
%TD*%
D35*
%TO.C,R30*%
X135166100Y-126061100D03*
X135166100Y-127761100D03*
%TD*%
D50*
%TO.C,C42*%
X159150000Y-131500000D03*
X160850000Y-131500000D03*
%TD*%
D32*
%TO.C,C15*%
X143738600Y-91566100D03*
X143738600Y-89866100D03*
%TD*%
D51*
%TO.C,R16*%
X137286100Y-91986100D03*
X135586100Y-91986100D03*
%TD*%
D38*
%TO.C,C30*%
X155500000Y-121750000D03*
X155500000Y-123450000D03*
%TD*%
D50*
%TO.C,C24*%
X164750000Y-116000000D03*
X166450000Y-116000000D03*
%TD*%
%TO.C,C14*%
X135586100Y-90398600D03*
X137286100Y-90398600D03*
%TD*%
D52*
%TO.C,IC3*%
X129451100Y-88074500D03*
X130721100Y-88074500D03*
X131991100Y-88074500D03*
X133261100Y-88074500D03*
X134531100Y-88074500D03*
X135801100Y-88074500D03*
X137071100Y-88074500D03*
X137071100Y-81927700D03*
X135801100Y-81927700D03*
X134531100Y-81927700D03*
X133261100Y-81927700D03*
X131991100Y-81927700D03*
X130721100Y-81927700D03*
X129451100Y-81927700D03*
%TD*%
D38*
%TO.C,C25*%
X166281100Y-112408600D03*
X166281100Y-114108600D03*
%TD*%
D50*
%TO.C,C41*%
X168900000Y-123500000D03*
X170600000Y-123500000D03*
%TD*%
D37*
%TO.C,C4*%
X156896100Y-64046100D03*
X161696100Y-64046100D03*
%TD*%
D36*
%TO.C,R24*%
X157073700Y-114426000D03*
X157073700Y-112726000D03*
%TD*%
D35*
%TO.C,R31*%
X149087500Y-127225000D03*
X149087500Y-128925000D03*
%TD*%
D53*
%TO.C,R26*%
X133856100Y-122816100D03*
X131356100Y-122816100D03*
X128856100Y-122816100D03*
D54*
X135756100Y-116116100D03*
X126956100Y-116116100D03*
%TD*%
D55*
%TO.C,F4*%
X171361100Y-156756100D03*
%TD*%
D51*
%TO.C,R2*%
X163650000Y-72500000D03*
X161950000Y-72500000D03*
%TD*%
D43*
%TO.C,J6*%
X142468600Y-151993600D03*
D44*
X142468600Y-146278600D03*
X142468600Y-148818600D03*
X142468600Y-156438600D03*
%TD*%
D51*
%TO.C,R41*%
X140461100Y-146278600D03*
X138761100Y-146278600D03*
%TD*%
D50*
%TO.C,C34*%
X147602500Y-125500000D03*
X149302500Y-125500000D03*
%TD*%
D51*
%TO.C,R43*%
X164273600Y-146278600D03*
X162573600Y-146278600D03*
%TD*%
D50*
%TO.C,C13*%
X132411100Y-90398600D03*
X134111100Y-90398600D03*
%TD*%
D51*
%TO.C,R17*%
X130936100Y-93573600D03*
X129236100Y-93573600D03*
%TD*%
D56*
%TO.C,C19*%
X140561100Y-103733600D03*
X138661100Y-103733600D03*
%TD*%
D34*
%TO.C,C12*%
X130936100Y-90398600D03*
X129236100Y-90398600D03*
%TD*%
D35*
%TO.C,R37*%
X147548600Y-144793600D03*
X147548600Y-146493600D03*
%TD*%
D57*
%TO.C,C22*%
X151361100Y-109131100D03*
X153261100Y-109131100D03*
%TD*%
D51*
%TO.C,R8*%
X130936100Y-76428600D03*
X129236100Y-76428600D03*
%TD*%
D58*
%TO.C,Q1*%
X150100000Y-89932843D03*
X152300000Y-89932843D03*
X152300000Y-88232843D03*
X150100000Y-88232843D03*
%TD*%
D59*
%TO.C,C39*%
X156750000Y-125900000D03*
X156750000Y-129100000D03*
%TD*%
D37*
%TO.C,C2*%
X156896100Y-56743600D03*
X161696100Y-56743600D03*
%TD*%
D39*
%TO.C,R12*%
X129236100Y-78016100D03*
X130936100Y-78016100D03*
%TD*%
D38*
%TO.C,C44*%
X144373600Y-144793600D03*
X144373600Y-146493600D03*
%TD*%
%TO.C,C27*%
X152946100Y-115266100D03*
X152946100Y-116966100D03*
%TD*%
D43*
%TO.C,J1*%
X130403600Y-137388600D03*
D44*
X130403600Y-131673600D03*
X130403600Y-134213600D03*
X130403600Y-141833600D03*
%TD*%
D35*
%TO.C,R38*%
X149136100Y-144793600D03*
X149136100Y-146493600D03*
%TD*%
D38*
%TO.C,C45*%
X152628600Y-144793600D03*
X152628600Y-146493600D03*
%TD*%
D50*
%TO.C,C17*%
X154318600Y-95161000D03*
X156018600Y-95161000D03*
%TD*%
D60*
%TO.C,C29*%
X153276100Y-121831100D03*
X150076100Y-121831100D03*
%TD*%
D39*
%TO.C,R35*%
X132411100Y-131673600D03*
X134111100Y-131673600D03*
%TD*%
D53*
%TO.C,R23*%
X164336100Y-113273600D03*
X161836100Y-113273600D03*
X159336100Y-113273600D03*
D61*
X166536100Y-106273600D03*
X157136100Y-106273600D03*
%TD*%
D35*
%TO.C,R34*%
X149287500Y-130400000D03*
X149287500Y-132100000D03*
%TD*%
D32*
%TO.C,C6*%
X132943600Y-72198600D03*
X132943600Y-70498600D03*
%TD*%
%TO.C,C11*%
X154452691Y-89950000D03*
X154452691Y-88250000D03*
%TD*%
D40*
%TO.C,TP4*%
X156438600Y-102146100D03*
%TD*%
D43*
%TO.C,J7*%
X154533600Y-151993600D03*
D44*
X154533600Y-146278600D03*
X154533600Y-148818600D03*
X154533600Y-156438600D03*
%TD*%
D62*
%TO.C,C23*%
X170000000Y-112850000D03*
X170000000Y-109650000D03*
%TD*%
D63*
%TO.C,D3*%
X139926100Y-108031100D03*
X138026100Y-108031100D03*
X138976100Y-110231100D03*
%TD*%
D39*
%TO.C,R42*%
X156858600Y-146278600D03*
X158558600Y-146278600D03*
%TD*%
D36*
%TO.C,R28*%
X131991100Y-127761100D03*
X131991100Y-126061100D03*
%TD*%
D64*
%TO.C,IC2*%
X134701100Y-70398600D03*
X134701100Y-72298600D03*
X136901100Y-71348600D03*
%TD*%
D43*
%TO.C,J4*%
X166598600Y-137388600D03*
D44*
X166598600Y-131673600D03*
X166598600Y-134213600D03*
X166598600Y-141833600D03*
%TD*%
D40*
%TO.C,TP3*%
X163423600Y-99288600D03*
%TD*%
D35*
%TO.C,R10*%
X132308600Y-76531100D03*
X132308600Y-78231100D03*
%TD*%
D65*
%TO.C,LED1*%
X149136100Y-64681100D03*
X147866100Y-64681100D03*
X150406100Y-64681100D03*
X146596100Y-64681100D03*
%TD*%
D34*
%TO.C,C18*%
X139953100Y-97066000D03*
X138253100Y-97066000D03*
%TD*%
D43*
%TO.C,J5*%
X130403600Y-151993600D03*
D44*
X130403600Y-146278600D03*
X130403600Y-148818600D03*
X130403600Y-156438600D03*
%TD*%
D37*
%TO.C,C3*%
X129591100Y-64046100D03*
X134391100Y-64046100D03*
%TD*%
D38*
%TO.C,C9*%
X144056100Y-79706100D03*
X144056100Y-81406100D03*
%TD*%
D39*
%TO.C,R15*%
X129236100Y-91986100D03*
X130936100Y-91986100D03*
%TD*%
D66*
%TO.C,SW3*%
X129095500Y-108254800D03*
X129095500Y-101752400D03*
X133616700Y-108254800D03*
X133616700Y-101752400D03*
%TD*%
D67*
%TO.C,L2*%
X144956100Y-63093600D03*
X143356100Y-63093600D03*
%TD*%
D68*
%TO.C,IC4*%
X151933600Y-94304700D03*
X151433600Y-94304700D03*
X150933600Y-94304700D03*
X150433600Y-94304700D03*
X149933600Y-94304700D03*
X149433600Y-94304700D03*
X148933600Y-94304700D03*
X148433600Y-94304700D03*
X147933600Y-94304700D03*
X147433600Y-94304700D03*
X146933600Y-94304700D03*
X146433600Y-94304700D03*
X145933600Y-94304700D03*
X145433600Y-94304700D03*
X144933600Y-94304700D03*
X144433600Y-94304700D03*
D69*
X142272600Y-96491100D03*
X142272600Y-96991100D03*
X142272600Y-97491100D03*
X142272600Y-97991100D03*
X142272600Y-98491100D03*
X142272600Y-98991100D03*
X142272600Y-99491100D03*
X142272600Y-99991100D03*
X142272600Y-100491100D03*
X142272600Y-100991100D03*
X142272600Y-101491100D03*
X142272600Y-101991100D03*
X142272600Y-102491100D03*
X142272600Y-102991100D03*
X142272600Y-103491100D03*
X142272600Y-103991100D03*
D70*
X144433600Y-106126700D03*
X144933600Y-106126700D03*
X145433600Y-106126700D03*
X145933600Y-106126700D03*
X146433600Y-106126700D03*
X146933600Y-106126700D03*
X147433600Y-106126700D03*
X147933600Y-106126700D03*
X148433600Y-106126700D03*
X148933600Y-106126700D03*
X149433600Y-106126700D03*
X149933600Y-106126700D03*
X150433600Y-106126700D03*
X150933600Y-106126700D03*
X151433600Y-106126700D03*
X151933600Y-106126700D03*
D71*
X154120000Y-103991100D03*
X154120000Y-103491100D03*
X154120000Y-102991100D03*
X154120000Y-102491100D03*
X154120000Y-101991100D03*
X154120000Y-101491100D03*
X154120000Y-100991100D03*
X154120000Y-100491100D03*
X154120000Y-99991100D03*
X154120000Y-99491100D03*
X154120000Y-98991100D03*
X154120000Y-98491100D03*
X154120000Y-97991100D03*
X154120000Y-97491100D03*
X154120000Y-96991100D03*
X154120000Y-96491100D03*
%TD*%
D51*
%TO.C,R22*%
X139826100Y-101193600D03*
X138126100Y-101193600D03*
%TD*%
D38*
%TO.C,C28*%
X154216100Y-115266100D03*
X154216100Y-116966100D03*
%TD*%
D72*
%TO.C,IC1*%
X169513600Y-53531100D03*
X164953600Y-53531100D03*
D73*
X167233600Y-60831100D03*
%TD*%
D36*
%TO.C,R39*%
X151041100Y-146493600D03*
X151041100Y-144793600D03*
%TD*%
D50*
%TO.C,C16*%
X146063600Y-92303600D03*
X147763600Y-92303600D03*
%TD*%
D67*
%TO.C,L1*%
X139558600Y-57061100D03*
X137958600Y-57061100D03*
%TD*%
D51*
%TO.C,R21*%
X139826100Y-99606100D03*
X138126100Y-99606100D03*
%TD*%
D39*
%TO.C,R40*%
X132728600Y-146278600D03*
X134428600Y-146278600D03*
%TD*%
D59*
%TO.C,C43*%
X165750000Y-125900000D03*
X165750000Y-129100000D03*
%TD*%
D36*
%TO.C,R3*%
X146596100Y-67753600D03*
X146596100Y-66053600D03*
%TD*%
D51*
%TO.C,R13*%
X137286100Y-78016100D03*
X135586100Y-78016100D03*
%TD*%
D43*
%TO.C,J8*%
X166598600Y-151993600D03*
D44*
X166598600Y-146278600D03*
X166598600Y-148818600D03*
X166598600Y-156438600D03*
%TD*%
D55*
%TO.C,F1*%
X125641100Y-53251100D03*
%TD*%
D59*
%TO.C,C36*%
X161250000Y-125900000D03*
X161250000Y-129100000D03*
%TD*%
D53*
%TO.C,R27*%
X146873600Y-122816100D03*
X144373600Y-122816100D03*
X141873600Y-122816100D03*
D54*
X148773600Y-116116100D03*
X139973600Y-116116100D03*
%TD*%
D36*
%TO.C,R29*%
X133578600Y-127761100D03*
X133578600Y-126061100D03*
%TD*%
D50*
%TO.C,C8*%
X135586100Y-79603600D03*
X137286100Y-79603600D03*
%TD*%
D74*
%TO.C,SW2*%
X167025000Y-77500000D03*
X171175000Y-77500000D03*
X167025000Y-75300000D03*
X171175000Y-75300000D03*
%TD*%
D34*
%TO.C,C7*%
X130936100Y-79603600D03*
X129236100Y-79603600D03*
%TD*%
D59*
%TO.C,C32*%
X152250000Y-125900000D03*
X152250000Y-129100000D03*
%TD*%
D36*
%TO.C,R19*%
X132308600Y-94741100D03*
X132308600Y-93041100D03*
%TD*%
D75*
%TO.C,L3*%
X137758600Y-63411100D03*
X139358600Y-63411100D03*
%TD*%
D53*
%TO.C,R7*%
X151001100Y-81206100D03*
X148501100Y-81206100D03*
X146001100Y-81206100D03*
D61*
X153201100Y-74206100D03*
X143801100Y-74206100D03*
%TD*%
D55*
%TO.C,F3*%
X125641100Y-156756100D03*
%TD*%
D76*
%TO.C,D1*%
X140558600Y-58966100D03*
X136758600Y-58966100D03*
%TD*%
D35*
%TO.C,R11*%
X134213600Y-76531100D03*
X134213600Y-78231100D03*
%TD*%
D36*
%TO.C,R36*%
X145961100Y-146493600D03*
X145961100Y-144793600D03*
%TD*%
D59*
%TO.C,C37*%
X170250000Y-125900000D03*
X170250000Y-129100000D03*
%TD*%
D36*
%TO.C,R4*%
X148501100Y-67753600D03*
X148501100Y-66053600D03*
%TD*%
D55*
%TO.C,F2*%
X171361100Y-53251100D03*
%TD*%
D32*
%TO.C,C35*%
X136753600Y-127761100D03*
X136753600Y-126061100D03*
%TD*%
D39*
%TO.C,R14*%
X161950000Y-77400000D03*
X163650000Y-77400000D03*
%TD*%
D38*
%TO.C,C33*%
X129451100Y-125108600D03*
X129451100Y-126808600D03*
%TD*%
D77*
%TO.C,JP1*%
X169773600Y-98971100D03*
X168503600Y-98971100D03*
X169773600Y-100241100D03*
X168503600Y-100241100D03*
X169773600Y-101511100D03*
X168503600Y-101511100D03*
X169773600Y-102781100D03*
X168503600Y-102781100D03*
X169773600Y-104051100D03*
X168503600Y-104051100D03*
%TD*%
D78*
%TO.C,JP3*%
X143421100Y-55473600D03*
X143421100Y-58013600D03*
X145961100Y-55473600D03*
X145961100Y-58013600D03*
X148501100Y-55473600D03*
X148501100Y-58013600D03*
X151041100Y-55473600D03*
X151041100Y-58013600D03*
X153581100Y-55473600D03*
X153581100Y-58013600D03*
%TD*%
D66*
%TO.C,JP2*%
X169138600Y-81826100D03*
X169138600Y-84366100D03*
X169138600Y-86906100D03*
X169138600Y-89446100D03*
X169138600Y-91986100D03*
X169138600Y-94526100D03*
%TD*%
M02*
