%TF.GenerationSoftware,KiCad,Pcbnew,(6.0.11-0)*%
%TF.CreationDate,2023-05-26T18:45:56+02:00*%
%TF.ProjectId,warps,77617270-732e-46b6-9963-61645f706362,rev?*%
%TF.SameCoordinates,Original*%
%TF.FileFunction,Legend,Bot*%
%TF.FilePolarity,Positive*%
%FSLAX46Y46*%
G04 Gerber Fmt 4.6, Leading zero omitted, Abs format (unit mm)*
G04 Created by KiCad (PCBNEW (6.0.11-0)) date 2023-05-26 18:45:56*
%MOMM*%
%LPD*%
G01*
G04 APERTURE LIST*
G04 Aperture macros list*
%AMRoundRect*
0 Rectangle with rounded corners*
0 $1 Rounding radius*
0 $2 $3 $4 $5 $6 $7 $8 $9 X,Y pos of 4 corners*
0 Add a 4 corners polygon primitive as box body*
4,1,4,$2,$3,$4,$5,$6,$7,$8,$9,$2,$3,0*
0 Add four circle primitives for the rounded corners*
1,1,$1+$1,$2,$3*
1,1,$1+$1,$4,$5*
1,1,$1+$1,$6,$7*
1,1,$1+$1,$8,$9*
0 Add four rect primitives between the rounded corners*
20,1,$1+$1,$2,$3,$4,$5,0*
20,1,$1+$1,$4,$5,$6,$7,0*
20,1,$1+$1,$6,$7,$8,$9,0*
20,1,$1+$1,$8,$9,$2,$3,0*%
%AMFreePoly0*
4,1,25,0.417216,0.947373,0.422118,0.942882,0.942882,0.422118,0.964910,0.374877,0.965200,0.368236,0.965200,-0.368236,0.947373,-0.417216,0.942882,-0.422118,0.422118,-0.942882,0.374877,-0.964910,0.368236,-0.965200,-0.368236,-0.965200,-0.417216,-0.947373,-0.422118,-0.942882,-0.942882,-0.422118,-0.964910,-0.374877,-0.965200,-0.368236,-0.965200,0.368236,-0.947373,0.417216,-0.942882,0.422118,
-0.422118,0.942882,-0.374877,0.964910,-0.368236,0.965200,0.368236,0.965200,0.417216,0.947373,0.417216,0.947373,$1*%
%AMFreePoly1*
4,1,25,0.706544,1.645873,0.711446,1.641382,1.641382,0.711446,1.663410,0.664205,1.663700,0.657564,1.663700,-0.657564,1.645873,-0.706544,1.641382,-0.711446,0.711446,-1.641382,0.664205,-1.663410,0.657564,-1.663700,-0.657564,-1.663700,-0.706544,-1.645873,-0.711446,-1.641382,-1.641382,-0.711446,-1.663410,-0.664205,-1.663700,-0.657564,-1.663700,0.657564,-1.645873,0.706544,-1.641382,0.711446,
-0.711446,1.641382,-0.664205,1.663410,-0.657564,1.663700,0.657564,1.663700,0.706544,1.645873,0.706544,1.645873,$1*%
%AMFreePoly2*
4,1,25,0.575031,1.328373,0.579933,1.323882,1.323882,0.579933,1.345910,0.532692,1.346200,0.526051,1.346200,-0.526051,1.328373,-0.575031,1.323882,-0.579933,0.579933,-1.323882,0.532692,-1.345910,0.526051,-1.346200,-0.526051,-1.346200,-0.575031,-1.328373,-0.579933,-1.323882,-1.323882,-0.579933,-1.345910,-0.532692,-1.346200,-0.526051,-1.346200,0.526051,-1.328373,0.575031,-1.323882,0.579933,
-0.579933,1.323882,-0.532692,1.345910,-0.526051,1.346200,0.526051,1.346200,0.575031,1.328373,0.575031,1.328373,$1*%
%AMFreePoly3*
4,1,25,0.269922,0.591773,0.274824,0.587282,0.587282,0.274824,0.609310,0.227583,0.609600,0.220942,0.609600,-0.220942,0.591773,-0.269922,0.587282,-0.274824,0.274824,-0.587282,0.227583,-0.609310,0.220942,-0.609600,-0.220942,-0.609600,-0.269922,-0.591773,-0.274824,-0.587282,-0.587282,-0.274824,-0.609310,-0.227583,-0.609600,-0.220942,-0.609600,0.220942,-0.591773,0.269922,-0.587282,0.274824,
-0.274824,0.587282,-0.227583,0.609310,-0.220942,0.609600,0.220942,0.609600,0.269922,0.591773,0.269922,0.591773,$1*%
%AMFreePoly4*
4,1,25,0.438258,0.998173,0.443160,0.993682,0.993682,0.443160,1.015710,0.395919,1.016000,0.389278,1.016000,-0.389278,0.998173,-0.438258,0.993682,-0.443160,0.443160,-0.993682,0.395919,-1.015710,0.389278,-1.016000,-0.389278,-1.016000,-0.438258,-0.998173,-0.443160,-0.993682,-0.993682,-0.443160,-1.015710,-0.395919,-1.016000,-0.389278,-1.016000,0.389278,-0.998173,0.438258,-0.993682,0.443160,
-0.443160,0.993682,-0.395919,1.015710,-0.389278,1.016000,0.389278,1.016000,0.438258,0.998173,0.438258,0.998173,$1*%
G04 Aperture macros list end*
%ADD10C,0.406400*%
%ADD11C,0.152400*%
%ADD12C,0.476250*%
%ADD13C,0.190500*%
%ADD14C,0.266700*%
%ADD15C,0.203200*%
%ADD16C,1.752400*%
%ADD17C,2.200000*%
%ADD18FreePoly0,180.000000*%
%ADD19RoundRect,0.076200X0.939800X-0.939800X0.939800X0.939800X-0.939800X0.939800X-0.939800X-0.939800X0*%
%ADD20FreePoly1,90.000000*%
%ADD21FreePoly2,90.000000*%
%ADD22RoundRect,0.076200X-0.503200X0.503200X-0.503200X-0.503200X0.503200X-0.503200X0.503200X0.503200X0*%
%ADD23C,2.032000*%
%ADD24FreePoly3,270.000000*%
%ADD25FreePoly4,0.000000*%
G04 APERTURE END LIST*
D10*
X156121100Y-53568600D02*
X156121100Y-59918600D01*
D11*
X171043600Y-97066100D02*
X171043600Y-105956100D01*
X167233600Y-97066100D02*
X167233600Y-79286100D01*
X171043600Y-79286100D02*
X171043600Y-97066100D01*
X155486100Y-59918600D02*
X155486100Y-53568600D01*
X141516100Y-53568600D02*
X141516100Y-59918600D01*
X167233600Y-97066100D02*
X171043600Y-97066100D01*
X141516100Y-59918600D02*
X155486100Y-59918600D01*
X168503600Y-105956100D02*
X167233600Y-104686100D01*
X171043600Y-105956100D02*
X168503600Y-105956100D01*
X167233600Y-79286100D02*
X171043600Y-79286100D01*
X167233600Y-104686100D02*
X167233600Y-97066100D01*
X155486100Y-53568600D02*
X141516100Y-53568600D01*
D12*
X169554801Y-123448838D02*
X168912242Y-126147588D01*
X168398194Y-124219909D01*
X167884147Y-126147588D01*
X167241587Y-123448838D01*
X165056885Y-126147588D02*
X165056885Y-124733957D01*
X165185397Y-124476933D01*
X165442420Y-124348421D01*
X165956468Y-124348421D01*
X166213492Y-124476933D01*
X165056885Y-126019076D02*
X165313908Y-126147588D01*
X165956468Y-126147588D01*
X166213492Y-126019076D01*
X166342004Y-125762052D01*
X166342004Y-125505028D01*
X166213492Y-125248004D01*
X165956468Y-125119492D01*
X165313908Y-125119492D01*
X165056885Y-124990980D01*
X163771766Y-126147588D02*
X163771766Y-124348421D01*
X163771766Y-124862469D02*
X163643254Y-124605445D01*
X163514742Y-124476933D01*
X163257718Y-124348421D01*
X163000694Y-124348421D01*
X162101111Y-124348421D02*
X162101111Y-127047171D01*
X162101111Y-124476933D02*
X161844087Y-124348421D01*
X161330039Y-124348421D01*
X161073016Y-124476933D01*
X160944504Y-124605445D01*
X160815992Y-124862469D01*
X160815992Y-125633540D01*
X160944504Y-125890564D01*
X161073016Y-126019076D01*
X161330039Y-126147588D01*
X161844087Y-126147588D01*
X162101111Y-126019076D01*
X159787897Y-126019076D02*
X159530873Y-126147588D01*
X159016825Y-126147588D01*
X158759801Y-126019076D01*
X158631289Y-125762052D01*
X158631289Y-125633540D01*
X158759801Y-125376516D01*
X159016825Y-125248004D01*
X159402361Y-125248004D01*
X159659385Y-125119492D01*
X159787897Y-124862469D01*
X159787897Y-124733957D01*
X159659385Y-124476933D01*
X159402361Y-124348421D01*
X159016825Y-124348421D01*
X158759801Y-124476933D01*
D13*
X166217751Y-89310028D02*
X165395275Y-89618457D01*
X166217751Y-89926885D01*
X164264370Y-90029695D02*
X164624203Y-89515647D01*
X164881227Y-90029695D02*
X164881227Y-88950195D01*
X164469989Y-88950195D01*
X164367179Y-89001600D01*
X164315775Y-89053004D01*
X164264370Y-89155814D01*
X164264370Y-89310028D01*
X164315775Y-89412838D01*
X164367179Y-89464242D01*
X164469989Y-89515647D01*
X164881227Y-89515647D01*
X163904536Y-88950195D02*
X163184870Y-90029695D01*
X163184870Y-88950195D02*
X163904536Y-90029695D01*
X165395275Y-91850028D02*
X166217751Y-92158457D01*
X165395275Y-92466885D01*
X165035441Y-91490195D02*
X164418584Y-91490195D01*
X164727013Y-92569695D02*
X164727013Y-91490195D01*
X164161560Y-91490195D02*
X163441894Y-92569695D01*
X163441894Y-91490195D02*
X164161560Y-92569695D01*
X165909322Y-101015195D02*
X165909322Y-101786266D01*
X165960727Y-101940480D01*
X166063536Y-102043290D01*
X166217751Y-102094695D01*
X166320560Y-102094695D01*
X165549489Y-101015195D02*
X164932632Y-101015195D01*
X165241060Y-102094695D02*
X165241060Y-101015195D01*
X164624203Y-101786266D02*
X164110155Y-101786266D01*
X164727013Y-102094695D02*
X164367179Y-101015195D01*
X164007346Y-102094695D01*
X163082060Y-101066600D02*
X163184870Y-101015195D01*
X163339084Y-101015195D01*
X163493298Y-101066600D01*
X163596108Y-101169409D01*
X163647513Y-101272219D01*
X163698917Y-101477838D01*
X163698917Y-101632052D01*
X163647513Y-101837671D01*
X163596108Y-101940480D01*
X163493298Y-102043290D01*
X163339084Y-102094695D01*
X163236275Y-102094695D01*
X163082060Y-102043290D01*
X163030655Y-101991885D01*
X163030655Y-101632052D01*
X163236275Y-101632052D01*
D14*
X159761766Y-56375088D02*
X160481433Y-56878855D01*
X159761766Y-57238688D02*
X161273066Y-57238688D01*
X161273066Y-56662955D01*
X161201100Y-56519021D01*
X161129133Y-56447055D01*
X160985200Y-56375088D01*
X160769300Y-56375088D01*
X160625366Y-56447055D01*
X160553400Y-56519021D01*
X160481433Y-56662955D01*
X160481433Y-57238688D01*
X159833733Y-55151655D02*
X159761766Y-55295588D01*
X159761766Y-55583455D01*
X159833733Y-55727388D01*
X159977666Y-55799355D01*
X160553400Y-55799355D01*
X160697333Y-55727388D01*
X160769300Y-55583455D01*
X160769300Y-55295588D01*
X160697333Y-55151655D01*
X160553400Y-55079688D01*
X160409466Y-55079688D01*
X160265533Y-55799355D01*
X159761766Y-53784288D02*
X161273066Y-53784288D01*
X159833733Y-53784288D02*
X159761766Y-53928221D01*
X159761766Y-54216088D01*
X159833733Y-54360021D01*
X159905700Y-54431988D01*
X160049633Y-54503955D01*
X160481433Y-54503955D01*
X160625366Y-54431988D01*
X160697333Y-54360021D01*
X160769300Y-54216088D01*
X160769300Y-53928221D01*
X160697333Y-53784288D01*
X157611233Y-59541621D02*
X157539266Y-59397688D01*
X157539266Y-59109821D01*
X157611233Y-58965888D01*
X157755166Y-58893921D01*
X157827133Y-58893921D01*
X157971066Y-58965888D01*
X158043033Y-59109821D01*
X158043033Y-59325721D01*
X158115000Y-59469655D01*
X158258933Y-59541621D01*
X158330900Y-59541621D01*
X158474833Y-59469655D01*
X158546800Y-59325721D01*
X158546800Y-59109821D01*
X158474833Y-58965888D01*
X158546800Y-58462121D02*
X158546800Y-57886388D01*
X159050566Y-58246221D02*
X157755166Y-58246221D01*
X157611233Y-58174255D01*
X157539266Y-58030321D01*
X157539266Y-57886388D01*
X157539266Y-57382621D02*
X158546800Y-57382621D01*
X158258933Y-57382621D02*
X158402866Y-57310655D01*
X158474833Y-57238688D01*
X158546800Y-57094755D01*
X158546800Y-56950821D01*
X157539266Y-56447055D02*
X158546800Y-56447055D01*
X159050566Y-56447055D02*
X158978600Y-56519021D01*
X158906633Y-56447055D01*
X158978600Y-56375088D01*
X159050566Y-56447055D01*
X158906633Y-56447055D01*
X158546800Y-55727388D02*
X157035500Y-55727388D01*
X158474833Y-55727388D02*
X158546800Y-55583455D01*
X158546800Y-55295588D01*
X158474833Y-55151655D01*
X158402866Y-55079688D01*
X158258933Y-55007721D01*
X157827133Y-55007721D01*
X157683200Y-55079688D01*
X157611233Y-55151655D01*
X157539266Y-55295588D01*
X157539266Y-55583455D01*
X157611233Y-55727388D01*
X157611233Y-53784288D02*
X157539266Y-53928221D01*
X157539266Y-54216088D01*
X157611233Y-54360021D01*
X157755166Y-54431988D01*
X158330900Y-54431988D01*
X158474833Y-54360021D01*
X158546800Y-54216088D01*
X158546800Y-53928221D01*
X158474833Y-53784288D01*
X158330900Y-53712321D01*
X158186966Y-53712321D01*
X158043033Y-54431988D01*
D11*
X169575106Y-128733852D02*
X169657354Y-128774976D01*
X169821849Y-128774976D01*
X169904097Y-128733852D01*
X169945220Y-128692728D01*
X169986344Y-128610480D01*
X169986344Y-128363738D01*
X169945220Y-128281490D01*
X169904097Y-128240366D01*
X169821849Y-128199242D01*
X169657354Y-128199242D01*
X169575106Y-128240366D01*
X168834878Y-128733852D02*
X168917125Y-128774976D01*
X169081620Y-128774976D01*
X169163868Y-128733852D01*
X169204992Y-128692728D01*
X169246116Y-128610480D01*
X169246116Y-128363738D01*
X169204992Y-128281490D01*
X169163868Y-128240366D01*
X169081620Y-128199242D01*
X168917125Y-128199242D01*
X168834878Y-128240366D01*
X168464763Y-128445985D02*
X167806782Y-128445985D01*
X167395544Y-128774976D02*
X167395544Y-127911376D01*
X167395544Y-128240366D02*
X167313297Y-128199242D01*
X167148801Y-128199242D01*
X167066554Y-128240366D01*
X167025430Y-128281490D01*
X166984306Y-128363738D01*
X166984306Y-128610480D01*
X167025430Y-128692728D01*
X167066554Y-128733852D01*
X167148801Y-128774976D01*
X167313297Y-128774976D01*
X167395544Y-128733852D01*
X166696440Y-128199242D02*
X166490820Y-128774976D01*
X166285201Y-128199242D02*
X166490820Y-128774976D01*
X166573068Y-128980595D01*
X166614192Y-129021719D01*
X166696440Y-129062842D01*
X165956211Y-128445985D02*
X165298230Y-128445985D01*
X164928116Y-128733852D02*
X164845868Y-128774976D01*
X164681373Y-128774976D01*
X164599125Y-128733852D01*
X164558001Y-128651604D01*
X164558001Y-128610480D01*
X164599125Y-128528233D01*
X164681373Y-128487109D01*
X164804744Y-128487109D01*
X164886992Y-128445985D01*
X164928116Y-128363738D01*
X164928116Y-128322614D01*
X164886992Y-128240366D01*
X164804744Y-128199242D01*
X164681373Y-128199242D01*
X164599125Y-128240366D01*
X163817773Y-128774976D02*
X163817773Y-128322614D01*
X163858897Y-128240366D01*
X163941144Y-128199242D01*
X164105640Y-128199242D01*
X164187887Y-128240366D01*
X163817773Y-128733852D02*
X163900020Y-128774976D01*
X164105640Y-128774976D01*
X164187887Y-128733852D01*
X164229011Y-128651604D01*
X164229011Y-128569357D01*
X164187887Y-128487109D01*
X164105640Y-128445985D01*
X163900020Y-128445985D01*
X163817773Y-128404861D01*
X162748554Y-128322614D02*
X162460687Y-128322614D01*
X162337316Y-128774976D02*
X162748554Y-128774976D01*
X162748554Y-127911376D01*
X162337316Y-127911376D01*
X162460687Y-127582385D02*
X162584059Y-127705757D01*
X161967201Y-128774976D02*
X161967201Y-128199242D01*
X161967201Y-128281490D02*
X161926078Y-128240366D01*
X161843830Y-128199242D01*
X161720459Y-128199242D01*
X161638211Y-128240366D01*
X161597087Y-128322614D01*
X161597087Y-128774976D01*
X161597087Y-128322614D02*
X161555963Y-128240366D01*
X161473716Y-128199242D01*
X161350344Y-128199242D01*
X161268097Y-128240366D01*
X161226973Y-128322614D01*
X161226973Y-128774976D01*
X160815735Y-128774976D02*
X160815735Y-128199242D01*
X160815735Y-127911376D02*
X160856859Y-127952500D01*
X160815735Y-127993623D01*
X160774611Y-127952500D01*
X160815735Y-127911376D01*
X160815735Y-127993623D01*
X160281125Y-128774976D02*
X160363373Y-128733852D01*
X160404497Y-128651604D01*
X160404497Y-127911376D01*
X159952135Y-128774976D02*
X159952135Y-128199242D01*
X159952135Y-127911376D02*
X159993259Y-127952500D01*
X159952135Y-127993623D01*
X159911011Y-127952500D01*
X159952135Y-127911376D01*
X159952135Y-127993623D01*
X159211906Y-128733852D02*
X159294154Y-128774976D01*
X159458649Y-128774976D01*
X159540897Y-128733852D01*
X159582020Y-128651604D01*
X159582020Y-128322614D01*
X159540897Y-128240366D01*
X159458649Y-128199242D01*
X159294154Y-128199242D01*
X159211906Y-128240366D01*
X159170782Y-128322614D01*
X159170782Y-128404861D01*
X159582020Y-128487109D01*
X157690325Y-127952500D02*
X157772573Y-127911376D01*
X157895944Y-127911376D01*
X158019316Y-127952500D01*
X158101563Y-128034747D01*
X158142687Y-128116995D01*
X158183811Y-128281490D01*
X158183811Y-128404861D01*
X158142687Y-128569357D01*
X158101563Y-128651604D01*
X158019316Y-128733852D01*
X157895944Y-128774976D01*
X157813697Y-128774976D01*
X157690325Y-128733852D01*
X157649201Y-128692728D01*
X157649201Y-128404861D01*
X157813697Y-128404861D01*
X157279087Y-128774976D02*
X157279087Y-128199242D01*
X157279087Y-127911376D02*
X157320211Y-127952500D01*
X157279087Y-127993623D01*
X157237963Y-127952500D01*
X157279087Y-127911376D01*
X157279087Y-127993623D01*
X156744478Y-128774976D02*
X156826725Y-128733852D01*
X156867849Y-128651604D01*
X156867849Y-127911376D01*
X156292116Y-128774976D02*
X156374363Y-128733852D01*
X156415487Y-128651604D01*
X156415487Y-127911376D01*
X155634135Y-128733852D02*
X155716382Y-128774976D01*
X155880878Y-128774976D01*
X155963125Y-128733852D01*
X156004249Y-128651604D01*
X156004249Y-128322614D01*
X155963125Y-128240366D01*
X155880878Y-128199242D01*
X155716382Y-128199242D01*
X155634135Y-128240366D01*
X155593011Y-128322614D01*
X155593011Y-128404861D01*
X156004249Y-128487109D01*
X155346268Y-128199242D02*
X155017278Y-128199242D01*
X155222897Y-127911376D02*
X155222897Y-128651604D01*
X155181773Y-128733852D01*
X155099525Y-128774976D01*
X155017278Y-128774976D01*
X154688287Y-128733852D02*
X154688287Y-128774976D01*
X154729411Y-128857223D01*
X154770535Y-128898347D01*
X153701316Y-127993623D02*
X153660192Y-127952500D01*
X153577944Y-127911376D01*
X153372325Y-127911376D01*
X153290078Y-127952500D01*
X153248954Y-127993623D01*
X153207830Y-128075871D01*
X153207830Y-128158119D01*
X153248954Y-128281490D01*
X153742440Y-128774976D01*
X153207830Y-128774976D01*
X152673220Y-127911376D02*
X152590973Y-127911376D01*
X152508725Y-127952500D01*
X152467601Y-127993623D01*
X152426478Y-128075871D01*
X152385354Y-128240366D01*
X152385354Y-128445985D01*
X152426478Y-128610480D01*
X152467601Y-128692728D01*
X152508725Y-128733852D01*
X152590973Y-128774976D01*
X152673220Y-128774976D01*
X152755468Y-128733852D01*
X152796592Y-128692728D01*
X152837716Y-128610480D01*
X152878840Y-128445985D01*
X152878840Y-128240366D01*
X152837716Y-128075871D01*
X152796592Y-127993623D01*
X152755468Y-127952500D01*
X152673220Y-127911376D01*
X151562878Y-128774976D02*
X152056363Y-128774976D01*
X151809620Y-128774976D02*
X151809620Y-127911376D01*
X151891868Y-128034747D01*
X151974116Y-128116995D01*
X152056363Y-128158119D01*
X150781525Y-127911376D02*
X151192763Y-127911376D01*
X151233887Y-128322614D01*
X151192763Y-128281490D01*
X151110516Y-128240366D01*
X150904897Y-128240366D01*
X150822649Y-128281490D01*
X150781525Y-128322614D01*
X150740401Y-128404861D01*
X150740401Y-128610480D01*
X150781525Y-128692728D01*
X150822649Y-128733852D01*
X150904897Y-128774976D01*
X151110516Y-128774976D01*
X151192763Y-128733852D01*
X151233887Y-128692728D01*
X150370287Y-128692728D02*
X150329163Y-128733852D01*
X150370287Y-128774976D01*
X150411411Y-128733852D01*
X150370287Y-128692728D01*
X150370287Y-128774976D01*
X149383316Y-128199242D02*
X149177697Y-128774976D01*
X148972078Y-128199242D01*
X148725335Y-127911376D02*
X148190725Y-127911376D01*
X148478592Y-128240366D01*
X148355220Y-128240366D01*
X148272973Y-128281490D01*
X148231849Y-128322614D01*
X148190725Y-128404861D01*
X148190725Y-128610480D01*
X148231849Y-128692728D01*
X148272973Y-128733852D01*
X148355220Y-128774976D01*
X148601963Y-128774976D01*
X148684211Y-128733852D01*
X148725335Y-128692728D01*
D13*
X153599242Y-64420901D02*
X153599242Y-63598425D01*
X153188004Y-62518925D02*
X153188004Y-63135782D01*
X153188004Y-62827353D02*
X154267504Y-62827353D01*
X154113290Y-62930163D01*
X154010480Y-63032972D01*
X153959076Y-63135782D01*
X154164695Y-62107686D02*
X154216100Y-62056282D01*
X154267504Y-61953472D01*
X154267504Y-61696448D01*
X154216100Y-61593639D01*
X154164695Y-61542234D01*
X154061885Y-61490829D01*
X153959076Y-61490829D01*
X153804861Y-61542234D01*
X153188004Y-62159091D01*
X153188004Y-61490829D01*
X154267504Y-61182401D02*
X153188004Y-60822567D01*
X154267504Y-60462734D01*
X143439242Y-64420901D02*
X143439242Y-63598425D01*
X143028004Y-64009663D02*
X143850480Y-64009663D01*
X143028004Y-62518925D02*
X143028004Y-63135782D01*
X143028004Y-62827353D02*
X144107504Y-62827353D01*
X143953290Y-62930163D01*
X143850480Y-63032972D01*
X143799076Y-63135782D01*
X144004695Y-62107686D02*
X144056100Y-62056282D01*
X144107504Y-61953472D01*
X144107504Y-61696448D01*
X144056100Y-61593639D01*
X144004695Y-61542234D01*
X143901885Y-61490829D01*
X143799076Y-61490829D01*
X143644861Y-61542234D01*
X143028004Y-62159091D01*
X143028004Y-61490829D01*
X144107504Y-61182401D02*
X143028004Y-60822567D01*
X144107504Y-60462734D01*
X149136100Y-62827353D02*
X149187504Y-62930163D01*
X149187504Y-63084377D01*
X149136100Y-63238591D01*
X149033290Y-63341401D01*
X148930480Y-63392805D01*
X148724861Y-63444210D01*
X148570647Y-63444210D01*
X148365028Y-63392805D01*
X148262219Y-63341401D01*
X148159409Y-63238591D01*
X148108004Y-63084377D01*
X148108004Y-62981567D01*
X148159409Y-62827353D01*
X148210814Y-62775948D01*
X148570647Y-62775948D01*
X148570647Y-62981567D01*
X148108004Y-62313305D02*
X149187504Y-62313305D01*
X148108004Y-61696448D01*
X149187504Y-61696448D01*
X148108004Y-61182401D02*
X149187504Y-61182401D01*
X149187504Y-60925377D01*
X149136100Y-60771163D01*
X149033290Y-60668353D01*
X148930480Y-60616948D01*
X148724861Y-60565544D01*
X148570647Y-60565544D01*
X148365028Y-60616948D01*
X148262219Y-60668353D01*
X148159409Y-60771163D01*
X148108004Y-60925377D01*
X148108004Y-61182401D01*
X165652298Y-81381600D02*
X165755108Y-81330195D01*
X165909322Y-81330195D01*
X166063536Y-81381600D01*
X166166346Y-81484409D01*
X166217751Y-81587219D01*
X166269155Y-81792838D01*
X166269155Y-81947052D01*
X166217751Y-82152671D01*
X166166346Y-82255480D01*
X166063536Y-82358290D01*
X165909322Y-82409695D01*
X165806513Y-82409695D01*
X165652298Y-82358290D01*
X165600894Y-82306885D01*
X165600894Y-81947052D01*
X165806513Y-81947052D01*
X165138251Y-82409695D02*
X165138251Y-81330195D01*
X164521394Y-82409695D01*
X164521394Y-81330195D01*
X164007346Y-82409695D02*
X164007346Y-81330195D01*
X163750322Y-81330195D01*
X163596108Y-81381600D01*
X163493298Y-81484409D01*
X163441894Y-81587219D01*
X163390489Y-81792838D01*
X163390489Y-81947052D01*
X163441894Y-82152671D01*
X163493298Y-82255480D01*
X163596108Y-82358290D01*
X163750322Y-82409695D01*
X164007346Y-82409695D01*
D11*
%TO.C,JP1*%
X170408600Y-103733600D02*
X170408600Y-104368600D01*
X170091100Y-99606100D02*
X170408600Y-99923600D01*
X168186100Y-104686100D02*
X170091100Y-104686100D01*
X168186100Y-98336100D02*
X167868600Y-98653600D01*
X167868600Y-102463600D02*
X167868600Y-103098600D01*
X167868600Y-99923600D02*
X167868600Y-100558600D01*
X167868600Y-101828600D02*
X168186100Y-102146100D01*
X170091100Y-102146100D02*
X170408600Y-102463600D01*
X168186100Y-100876100D02*
X167868600Y-101193600D01*
X168186100Y-99606100D02*
X170091100Y-99606100D01*
X168186100Y-103416100D02*
X170091100Y-103416100D01*
X168186100Y-100876100D02*
X170091100Y-100876100D01*
X170408600Y-102463600D02*
X170408600Y-103098600D01*
X167868600Y-103733600D02*
X167868600Y-104368600D01*
X167868600Y-101193600D02*
X167868600Y-101828600D01*
X170408600Y-103098600D02*
X170091100Y-103416100D01*
X168186100Y-102146100D02*
X170091100Y-102146100D01*
D15*
X170726100Y-98653600D02*
X170726100Y-99288600D01*
D11*
X167868600Y-100558600D02*
X168186100Y-100876100D01*
X170408600Y-98653600D02*
X170408600Y-99288600D01*
X170408600Y-101193600D02*
X170408600Y-101828600D01*
X170091100Y-98336100D02*
X168186100Y-98336100D01*
X170408600Y-99288600D02*
X170091100Y-99606100D01*
X170091100Y-103416100D02*
X170408600Y-103733600D01*
X167868600Y-103098600D02*
X168186100Y-103416100D01*
X167868600Y-98653600D02*
X167868600Y-99288600D01*
X170091100Y-98336100D02*
X170408600Y-98653600D01*
X170091100Y-100876100D02*
X170408600Y-101193600D01*
X170408600Y-100558600D02*
X170091100Y-100876100D01*
X170408600Y-101828600D02*
X170091100Y-102146100D01*
X170408600Y-99923600D02*
X170408600Y-100558600D01*
X170408600Y-104368600D02*
X170091100Y-104686100D01*
X168186100Y-99606100D02*
X167868600Y-99923600D01*
X167868600Y-104368600D02*
X168186100Y-104686100D01*
X168186100Y-103416100D02*
X167868600Y-103733600D01*
X167868600Y-99288600D02*
X168186100Y-99606100D01*
X168186100Y-102146100D02*
X167868600Y-102463600D01*
%TO.C,JP3*%
X144056100Y-54203600D02*
X144691100Y-54838600D01*
X144691100Y-58648600D02*
X145326100Y-59283600D01*
X154851100Y-58648600D02*
X154851100Y-54838600D01*
X152311100Y-58648600D02*
X152311100Y-54838600D01*
X154216100Y-59283600D02*
X154851100Y-58648600D01*
X147866100Y-59283600D02*
X149136100Y-59283600D01*
X147231100Y-54838600D02*
X147866100Y-54203600D01*
X150406100Y-54203600D02*
X151676100Y-54203600D01*
X151676100Y-59283600D02*
X152311100Y-58648600D01*
D15*
X142786100Y-53568600D02*
X144056100Y-53568600D01*
D11*
X144691100Y-58648600D02*
X144691100Y-54838600D01*
X144691100Y-54838600D02*
X145326100Y-54203600D01*
X142151100Y-58648600D02*
X142786100Y-59283600D01*
X152311100Y-58648600D02*
X152946100Y-59283600D01*
X142786100Y-59283600D02*
X144056100Y-59283600D01*
X146596100Y-54203600D02*
X147231100Y-54838600D01*
X147231100Y-58648600D02*
X147231100Y-54838600D01*
X144056100Y-59283600D02*
X144691100Y-58648600D01*
X151676100Y-54203600D02*
X152311100Y-54838600D01*
X152946100Y-54203600D02*
X154216100Y-54203600D01*
X142151100Y-54838600D02*
X142786100Y-54203600D01*
X145326100Y-54203600D02*
X146596100Y-54203600D01*
X142151100Y-54838600D02*
X142151100Y-58648600D01*
X150406100Y-59283600D02*
X151676100Y-59283600D01*
X142786100Y-54203600D02*
X144056100Y-54203600D01*
X154216100Y-54203600D02*
X154851100Y-54838600D01*
X149771100Y-58648600D02*
X149771100Y-54838600D01*
X152946100Y-59283600D02*
X154216100Y-59283600D01*
X149136100Y-59283600D02*
X149771100Y-58648600D01*
X149771100Y-58648600D02*
X150406100Y-59283600D01*
X146596100Y-59283600D02*
X147231100Y-58648600D01*
X147866100Y-54203600D02*
X149136100Y-54203600D01*
X149771100Y-54838600D02*
X150406100Y-54203600D01*
X149136100Y-54203600D02*
X149771100Y-54838600D01*
X147231100Y-58648600D02*
X147866100Y-59283600D01*
X152311100Y-54838600D02*
X152946100Y-54203600D01*
X145326100Y-59283600D02*
X146596100Y-59283600D01*
G36*
X148755100Y-55727600D02*
G01*
X148247100Y-55727600D01*
X148247100Y-55219600D01*
X148755100Y-55219600D01*
X148755100Y-55727600D01*
G37*
D15*
%TO.C,JP2*%
X169773600Y-90716100D02*
X170408600Y-90081100D01*
X167868600Y-85001100D02*
X168503600Y-85636100D01*
X169773600Y-85636100D02*
X170408600Y-85001100D01*
X169773600Y-95796100D02*
X170408600Y-95161100D01*
X167868600Y-92621100D02*
X168503600Y-93256100D01*
X168503600Y-80556100D02*
X169773600Y-80556100D01*
X169773600Y-93256100D02*
X170408600Y-92621100D01*
X167868600Y-88811100D02*
X167868600Y-90081100D01*
X170408600Y-93891100D02*
X169773600Y-93256100D01*
X170408600Y-91351100D02*
X169773600Y-90716100D01*
X170408600Y-86271100D02*
X169773600Y-85636100D01*
X169773600Y-88176100D02*
X170408600Y-87541100D01*
X167868600Y-81191100D02*
X167868600Y-82461100D01*
X170408600Y-83731100D02*
X169773600Y-83096100D01*
X168503600Y-85636100D02*
X167868600Y-86271100D01*
X168503600Y-93256100D02*
X167868600Y-93891100D01*
X170408600Y-87541100D02*
X170408600Y-86271100D01*
X167868600Y-91351100D02*
X167868600Y-92621100D01*
X167868600Y-93891100D02*
X167868600Y-95161100D01*
X167868600Y-87541100D02*
X168503600Y-88176100D01*
X170408600Y-95161100D02*
X170408600Y-93891100D01*
X167868600Y-95161100D02*
X168503600Y-95796100D01*
X168503600Y-90716100D02*
X167868600Y-91351100D01*
X169773600Y-83096100D02*
X170408600Y-82461100D01*
X167868600Y-90081100D02*
X168503600Y-90716100D01*
X169773600Y-88176100D02*
X170408600Y-88811100D01*
X167868600Y-81191100D02*
X168503600Y-80556100D01*
X167868600Y-82461100D02*
X168503600Y-83096100D01*
X167868600Y-86271100D02*
X167868600Y-87541100D01*
X170408600Y-82461100D02*
X170408600Y-81191100D01*
X170408600Y-90081100D02*
X170408600Y-88811100D01*
X170408600Y-85001100D02*
X170408600Y-83731100D01*
X167868600Y-83731100D02*
X167868600Y-85001100D01*
X169773600Y-80556100D02*
X170408600Y-81191100D01*
X168503600Y-83096100D02*
X167868600Y-83731100D01*
X168503600Y-95796100D02*
X169773600Y-95796100D01*
X170408600Y-92621100D02*
X170408600Y-91351100D01*
X167868600Y-88811100D02*
X168503600Y-88176100D01*
%TD*%
%LPC*%
D16*
%TO.C,LED2*%
X129356100Y-98653600D03*
X131356100Y-98653600D03*
X133356100Y-98653600D03*
%TD*%
D17*
%TO.C,J2*%
X142468600Y-137388600D03*
D18*
X142468600Y-131673600D03*
X142468600Y-134213600D03*
X142468600Y-141833600D03*
%TD*%
D17*
%TO.C,J3*%
X154533600Y-137388600D03*
D18*
X154533600Y-131673600D03*
X154533600Y-134213600D03*
X154533600Y-141833600D03*
%TD*%
D19*
%TO.C,R26*%
X133856100Y-122816100D03*
X131356100Y-122816100D03*
X128856100Y-122816100D03*
D20*
X135756100Y-116116100D03*
X126956100Y-116116100D03*
%TD*%
D17*
%TO.C,J6*%
X142468600Y-151993600D03*
D18*
X142468600Y-146278600D03*
X142468600Y-148818600D03*
X142468600Y-156438600D03*
%TD*%
D17*
%TO.C,J1*%
X130403600Y-137388600D03*
D18*
X130403600Y-131673600D03*
X130403600Y-134213600D03*
X130403600Y-141833600D03*
%TD*%
D19*
%TO.C,R23*%
X164336100Y-113273600D03*
X161836100Y-113273600D03*
X159336100Y-113273600D03*
D21*
X166536100Y-106273600D03*
X157136100Y-106273600D03*
%TD*%
D17*
%TO.C,J7*%
X154533600Y-151993600D03*
D18*
X154533600Y-146278600D03*
X154533600Y-148818600D03*
X154533600Y-156438600D03*
%TD*%
D17*
%TO.C,J4*%
X166598600Y-137388600D03*
D18*
X166598600Y-131673600D03*
X166598600Y-134213600D03*
X166598600Y-141833600D03*
%TD*%
D22*
%TO.C,LED1*%
X149136100Y-64681100D03*
X147866100Y-64681100D03*
X150406100Y-64681100D03*
X146596100Y-64681100D03*
%TD*%
D17*
%TO.C,J5*%
X130403600Y-151993600D03*
D18*
X130403600Y-146278600D03*
X130403600Y-148818600D03*
X130403600Y-156438600D03*
%TD*%
D23*
%TO.C,SW3*%
X129095500Y-108254800D03*
X129095500Y-101752400D03*
X133616700Y-108254800D03*
X133616700Y-101752400D03*
%TD*%
D17*
%TO.C,J8*%
X166598600Y-151993600D03*
D18*
X166598600Y-146278600D03*
X166598600Y-148818600D03*
X166598600Y-156438600D03*
%TD*%
D19*
%TO.C,R27*%
X146873600Y-122816100D03*
X144373600Y-122816100D03*
X141873600Y-122816100D03*
D20*
X148773600Y-116116100D03*
X139973600Y-116116100D03*
%TD*%
D19*
%TO.C,R7*%
X151001100Y-81206100D03*
X148501100Y-81206100D03*
X146001100Y-81206100D03*
D21*
X153201100Y-74206100D03*
X143801100Y-74206100D03*
%TD*%
D24*
%TO.C,JP1*%
X169773600Y-98971100D03*
X168503600Y-98971100D03*
X169773600Y-100241100D03*
X168503600Y-100241100D03*
X169773600Y-101511100D03*
X168503600Y-101511100D03*
X169773600Y-102781100D03*
X168503600Y-102781100D03*
X169773600Y-104051100D03*
X168503600Y-104051100D03*
%TD*%
D25*
%TO.C,JP3*%
X143421100Y-55473600D03*
X143421100Y-58013600D03*
X145961100Y-55473600D03*
X145961100Y-58013600D03*
X148501100Y-55473600D03*
X148501100Y-58013600D03*
X151041100Y-55473600D03*
X151041100Y-58013600D03*
X153581100Y-55473600D03*
X153581100Y-58013600D03*
%TD*%
D23*
%TO.C,JP2*%
X169138600Y-81826100D03*
X169138600Y-84366100D03*
X169138600Y-86906100D03*
X169138600Y-89446100D03*
X169138600Y-91986100D03*
X169138600Y-94526100D03*
%TD*%
M02*
