%TF.GenerationSoftware,KiCad,Pcbnew,(6.0.11-0)*%
%TF.CreationDate,2023-05-29T14:05:04+02:00*%
%TF.ProjectId,clouds,636c6f75-6473-42e6-9b69-6361645f7063,rev?*%
%TF.SameCoordinates,Original*%
%TF.FileFunction,Soldermask,Top*%
%TF.FilePolarity,Negative*%
%FSLAX46Y46*%
G04 Gerber Fmt 4.6, Leading zero omitted, Abs format (unit mm)*
G04 Created by KiCad (PCBNEW (6.0.11-0)) date 2023-05-29 14:05:04*
%MOMM*%
%LPD*%
G01*
G04 APERTURE LIST*
G04 Aperture macros list*
%AMRoundRect*
0 Rectangle with rounded corners*
0 $1 Rounding radius*
0 $2 $3 $4 $5 $6 $7 $8 $9 X,Y pos of 4 corners*
0 Add a 4 corners polygon primitive as box body*
4,1,4,$2,$3,$4,$5,$6,$7,$8,$9,$2,$3,0*
0 Add four circle primitives for the rounded corners*
1,1,$1+$1,$2,$3*
1,1,$1+$1,$4,$5*
1,1,$1+$1,$6,$7*
1,1,$1+$1,$8,$9*
0 Add four rect primitives between the rounded corners*
20,1,$1+$1,$2,$3,$4,$5,0*
20,1,$1+$1,$4,$5,$6,$7,0*
20,1,$1+$1,$6,$7,$8,$9,0*
20,1,$1+$1,$8,$9,$2,$3,0*%
%AMFreePoly0*
4,1,25,0.396174,0.896573,0.401076,0.892082,0.892082,0.401076,0.914110,0.353835,0.914400,0.347194,0.914400,-0.347194,0.896573,-0.396174,0.892082,-0.401076,0.401076,-0.892082,0.353835,-0.914110,0.347194,-0.914400,-0.347194,-0.914400,-0.396174,-0.896573,-0.401076,-0.892082,-0.892082,-0.401076,-0.914110,-0.353835,-0.914400,-0.347194,-0.914400,0.347194,-0.896573,0.396174,-0.892082,0.401076,
-0.401076,0.892082,-0.353835,0.914110,-0.347194,0.914400,0.347194,0.914400,0.396174,0.896573,0.396174,0.896573,$1*%
%AMFreePoly1*
4,1,25,0.575031,1.328373,0.579933,1.323882,1.323882,0.579933,1.345910,0.532692,1.346200,0.526051,1.346200,-0.526051,1.328373,-0.575031,1.323882,-0.579933,0.579933,-1.323882,0.532692,-1.345910,0.526051,-1.346200,-0.526051,-1.346200,-0.575031,-1.328373,-0.579933,-1.323882,-1.323882,-0.579933,-1.345910,-0.532692,-1.346200,-0.526051,-1.346200,0.526051,-1.328373,0.575031,-1.323882,0.579933,
-0.579933,1.323882,-0.532692,1.345910,-0.526051,1.346200,0.526051,1.346200,0.575031,1.328373,0.575031,1.328373,$1*%
%AMFreePoly2*
4,1,25,0.417216,0.947373,0.422118,0.942882,0.942882,0.422118,0.964910,0.374877,0.965200,0.368236,0.965200,-0.368236,0.947373,-0.417216,0.942882,-0.422118,0.422118,-0.942882,0.374877,-0.964910,0.368236,-0.965200,-0.368236,-0.965200,-0.417216,-0.947373,-0.422118,-0.942882,-0.942882,-0.422118,-0.964910,-0.374877,-0.965200,-0.368236,-0.965200,0.368236,-0.947373,0.417216,-0.942882,0.422118,
-0.422118,0.942882,-0.374877,0.964910,-0.368236,0.965200,0.368236,0.965200,0.417216,0.947373,0.417216,0.947373,$1*%
%AMFreePoly3*
4,1,25,0.438258,0.998173,0.443160,0.993682,0.993682,0.443160,1.015710,0.395919,1.016000,0.389278,1.016000,-0.389278,0.998173,-0.438258,0.993682,-0.443160,0.443160,-0.993682,0.395919,-1.015710,0.389278,-1.016000,-0.389278,-1.016000,-0.438258,-0.998173,-0.443160,-0.993682,-0.993682,-0.443160,-1.015710,-0.395919,-1.016000,-0.389278,-1.016000,0.389278,-0.998173,0.438258,-0.993682,0.443160,
-0.443160,0.993682,-0.395919,1.015710,-0.389278,1.016000,0.389278,1.016000,0.438258,0.998173,0.438258,0.998173,$1*%
%AMFreePoly4*
4,1,25,0.269922,0.591773,0.274824,0.587282,0.587282,0.274824,0.609310,0.227583,0.609600,0.220942,0.609600,-0.220942,0.591773,-0.269922,0.587282,-0.274824,0.274824,-0.587282,0.227583,-0.609310,0.220942,-0.609600,-0.220942,-0.609600,-0.269922,-0.591773,-0.274824,-0.587282,-0.587282,-0.274824,-0.609310,-0.227583,-0.609600,-0.220942,-0.609600,0.220942,-0.591773,0.269922,-0.587282,0.274824,
-0.274824,0.587282,-0.227583,0.609310,-0.220942,0.609600,0.220942,0.609600,0.269922,0.591773,0.269922,0.591773,$1*%
G04 Aperture macros list end*
%ADD10RoundRect,0.076200X-0.318198X0.530330X-0.530330X0.318198X0.318198X-0.530330X0.530330X-0.318198X0*%
%ADD11RoundRect,0.076200X-0.530330X-0.318198X-0.318198X-0.530330X0.530330X0.318198X0.318198X0.530330X0*%
%ADD12RoundRect,0.076200X0.318198X-0.530330X0.530330X-0.318198X-0.318198X0.530330X-0.530330X0.318198X0*%
%ADD13RoundRect,0.076200X0.530330X0.318198X0.318198X0.530330X-0.530330X-0.318198X-0.318198X-0.530330X0*%
%ADD14RoundRect,0.076200X-0.330200X-1.016000X0.330200X-1.016000X0.330200X1.016000X-0.330200X1.016000X0*%
%ADD15RoundRect,0.076200X0.330200X1.016000X-0.330200X1.016000X-0.330200X-1.016000X0.330200X-1.016000X0*%
%ADD16RoundRect,0.076200X-0.550000X0.500000X-0.550000X-0.500000X0.550000X-0.500000X0.550000X0.500000X0*%
%ADD17C,3.240000*%
%ADD18R,1.800000X1.800000*%
%ADD19C,1.800000*%
%ADD20RoundRect,0.076200X-0.550000X-0.500000X0.550000X-0.500000X0.550000X0.500000X-0.550000X0.500000X0*%
%ADD21FreePoly0,180.000000*%
%ADD22RoundRect,0.076200X-0.500000X-0.550000X0.500000X-0.550000X0.500000X0.550000X-0.500000X0.550000X0*%
%ADD23RoundRect,0.076200X0.500000X0.550000X-0.500000X0.550000X-0.500000X-0.550000X0.500000X-0.550000X0*%
%ADD24RoundRect,0.076200X-0.700000X0.500000X-0.700000X-0.500000X0.700000X-0.500000X0.700000X0.500000X0*%
%ADD25RoundRect,0.076200X0.700000X-1.100000X0.700000X1.100000X-0.700000X1.100000X-0.700000X-1.100000X0*%
%ADD26RoundRect,0.076200X0.939800X-0.939800X0.939800X0.939800X-0.939800X0.939800X-0.939800X-0.939800X0*%
%ADD27FreePoly1,90.000000*%
%ADD28RoundRect,0.076200X0.550000X-0.500000X0.550000X0.500000X-0.550000X0.500000X-0.550000X-0.500000X0*%
%ADD29RoundRect,0.076200X-0.500000X0.550000X-0.500000X-0.550000X0.500000X-0.550000X0.500000X0.550000X0*%
%ADD30RoundRect,0.076200X-0.800000X-0.901500X0.800000X-0.901500X0.800000X0.901500X-0.800000X0.901500X0*%
%ADD31RoundRect,0.076200X0.700000X-1.500000X0.700000X1.500000X-0.700000X1.500000X-0.700000X-1.500000X0*%
%ADD32RoundRect,0.076200X0.550000X0.500000X-0.550000X0.500000X-0.550000X-0.500000X0.550000X-0.500000X0*%
%ADD33C,2.200000*%
%ADD34FreePoly2,90.000000*%
%ADD35RoundRect,0.076200X-2.667000X-0.965200X2.667000X-0.965200X2.667000X0.965200X-2.667000X0.965200X0*%
%ADD36C,1.952400*%
%ADD37RoundRect,0.076200X0.900000X-0.900000X0.900000X0.900000X-0.900000X0.900000X-0.900000X-0.900000X0*%
%ADD38RoundRect,0.076200X-0.300000X-1.100000X0.300000X-1.100000X0.300000X1.100000X-0.300000X1.100000X0*%
%ADD39RoundRect,0.076200X0.035355X0.742462X-0.742462X-0.035355X-0.035355X-0.742462X0.742462X0.035355X0*%
%ADD40RoundRect,0.062500X-0.062500X0.337500X-0.062500X-0.337500X0.062500X-0.337500X0.062500X0.337500X0*%
%ADD41RoundRect,0.062500X-0.337500X0.062500X-0.337500X-0.062500X0.337500X-0.062500X0.337500X0.062500X0*%
%ADD42R,3.350000X3.350000*%
%ADD43RoundRect,0.076200X-0.700000X0.700000X-0.700000X-0.700000X0.700000X-0.700000X0.700000X0.700000X0*%
%ADD44RoundRect,0.076200X-0.675000X-0.400000X0.675000X-0.400000X0.675000X0.400000X-0.675000X0.400000X0*%
%ADD45RoundRect,0.076200X0.500000X-0.550000X0.500000X0.550000X-0.500000X0.550000X-0.500000X-0.550000X0*%
%ADD46RoundRect,0.076200X0.742462X-0.035355X-0.035355X0.742462X-0.742462X0.035355X0.035355X-0.742462X0*%
%ADD47RoundRect,0.076200X0.989949X0.070711X0.070711X0.989949X-0.989949X-0.070711X-0.070711X-0.989949X0*%
%ADD48RoundRect,0.076200X0.500000X0.800000X-0.500000X0.800000X-0.500000X-0.800000X0.500000X-0.800000X0*%
%ADD49RoundRect,0.076200X2.700000X3.100000X-2.700000X3.100000X-2.700000X-3.100000X2.700000X-3.100000X0*%
%ADD50RoundRect,0.076200X-0.749300X-1.003300X0.749300X-1.003300X0.749300X1.003300X-0.749300X1.003300X0*%
%ADD51RoundRect,0.076200X-1.905000X-1.003300X1.905000X-1.003300X1.905000X1.003300X-1.905000X1.003300X0*%
%ADD52RoundRect,0.076200X1.500000X0.700000X-1.500000X0.700000X-1.500000X-0.700000X1.500000X-0.700000X0*%
%ADD53RoundRect,0.076200X-1.100000X0.300000X-1.100000X-0.300000X1.100000X-0.300000X1.100000X0.300000X0*%
%ADD54RoundRect,0.076200X-1.100000X-0.700000X1.100000X-0.700000X1.100000X0.700000X-1.100000X0.700000X0*%
%ADD55RoundRect,0.076200X-0.700000X1.100000X-0.700000X-1.100000X0.700000X-1.100000X0.700000X1.100000X0*%
%ADD56RoundRect,0.076200X-0.700000X-0.700000X0.700000X-0.700000X0.700000X0.700000X-0.700000X0.700000X0*%
%ADD57RoundRect,0.076200X0.350000X0.500000X-0.350000X0.500000X-0.350000X-0.500000X0.350000X-0.500000X0*%
%ADD58RoundRect,0.076200X-0.035355X-0.742462X0.742462X0.035355X0.035355X0.742462X-0.742462X-0.035355X0*%
%ADD59C,2.032000*%
%ADD60RoundRect,0.076200X-0.742462X0.035355X0.035355X-0.742462X0.742462X-0.035355X-0.035355X0.742462X0*%
%ADD61RoundRect,0.076200X-0.989949X-0.070711X-0.070711X-0.989949X0.989949X0.070711X0.070711X0.989949X0*%
%ADD62FreePoly3,90.000000*%
%ADD63FreePoly4,270.000000*%
G04 APERTURE END LIST*
D10*
%TO.C,IC5*%
X160290082Y-86724281D03*
X159936528Y-87077834D03*
X159582975Y-87431388D03*
X159229422Y-87784941D03*
X158875868Y-88138494D03*
X158522315Y-88492048D03*
X158168761Y-88845601D03*
X157815208Y-89199155D03*
X157461655Y-89552708D03*
X157108101Y-89906261D03*
X156754548Y-90259815D03*
X156400994Y-90613368D03*
X156047441Y-90966922D03*
X155693888Y-91320475D03*
X155340334Y-91674028D03*
X154986781Y-92027582D03*
D11*
X155004741Y-95101658D03*
X155358295Y-95455211D03*
X155711848Y-95808765D03*
X156065402Y-96162318D03*
X156418955Y-96515871D03*
X156772508Y-96869425D03*
X157126062Y-97222978D03*
X157479615Y-97576531D03*
X157833169Y-97930085D03*
X158186722Y-98283638D03*
X158540275Y-98637192D03*
X158893829Y-98990745D03*
X159247382Y-99344298D03*
X159600935Y-99697852D03*
X159954489Y-100051405D03*
X160308042Y-100404959D03*
D12*
X163346197Y-100386998D03*
X163699751Y-100033445D03*
X164053304Y-99679891D03*
X164406857Y-99326338D03*
X164760411Y-98972785D03*
X165113964Y-98619231D03*
X165467518Y-98265678D03*
X165821071Y-97912124D03*
X166174624Y-97558571D03*
X166528178Y-97205018D03*
X166881731Y-96851464D03*
X167235285Y-96497911D03*
X167588838Y-96144357D03*
X167942391Y-95790804D03*
X168295945Y-95437251D03*
X168649498Y-95083697D03*
D13*
X168685419Y-92027582D03*
X168331866Y-91674028D03*
X167978312Y-91320475D03*
X167624759Y-90966922D03*
X167271206Y-90613368D03*
X166917652Y-90259815D03*
X166564099Y-89906261D03*
X166210545Y-89552708D03*
X165856992Y-89199155D03*
X165503439Y-88845601D03*
X165149885Y-88492048D03*
X164796332Y-88138494D03*
X164442778Y-87784941D03*
X164089225Y-87431388D03*
X163735672Y-87077834D03*
X163382118Y-86724281D03*
%TD*%
D14*
%TO.C,IC4*%
X133261100Y-95694500D03*
X134531100Y-95694500D03*
X135801100Y-95694500D03*
X137071100Y-95694500D03*
X138341100Y-95694500D03*
X139611100Y-95694500D03*
X140881100Y-95694500D03*
X140881100Y-89547700D03*
X139611100Y-89547700D03*
X138341100Y-89547700D03*
X137071100Y-89547700D03*
X135801100Y-89547700D03*
X134531100Y-89547700D03*
X133261100Y-89547700D03*
%TD*%
D15*
%TO.C,IC1*%
X155327300Y-65735200D03*
X154057300Y-65735200D03*
X152787300Y-65735200D03*
X151517300Y-65735200D03*
X150247300Y-65735200D03*
X148977300Y-65735200D03*
X147707300Y-65735200D03*
X146437300Y-65735200D03*
X146437300Y-71882000D03*
X147707300Y-71882000D03*
X148977300Y-71882000D03*
X150247300Y-71882000D03*
X151517300Y-71882000D03*
X152787300Y-71882000D03*
X154057300Y-71882000D03*
X155327300Y-71882000D03*
%TD*%
D16*
%TO.C,R40*%
X169800000Y-101950000D03*
X169800000Y-103650000D03*
%TD*%
D17*
%TO.C,R42*%
X119580000Y-109160000D03*
X110080000Y-109160000D03*
D18*
X112330000Y-116660000D03*
D19*
X114830000Y-116660000D03*
X117330000Y-116660000D03*
X112330000Y-119160000D03*
X114830000Y-119160000D03*
X117330000Y-119160000D03*
%TD*%
D20*
%TO.C,C29*%
X171950000Y-111600000D03*
X173650000Y-111600000D03*
%TD*%
%TO.C,C21*%
X139396100Y-97701100D03*
X141096100Y-97701100D03*
%TD*%
D21*
%TO.C,LED2*%
X142786000Y-62776100D03*
X142786000Y-60236100D03*
X142786000Y-57696100D03*
%TD*%
D22*
%TO.C,R15*%
X171781100Y-69761100D03*
X173481100Y-69761100D03*
%TD*%
D23*
%TO.C,R38*%
X134746100Y-102463600D03*
X133046100Y-102463600D03*
%TD*%
D24*
%TO.C,Q1*%
X175341100Y-66271100D03*
X177541100Y-67221100D03*
X175341100Y-68171100D03*
%TD*%
D25*
%TO.C,C35*%
X179298600Y-120866100D03*
X179298600Y-124066100D03*
%TD*%
D26*
%TO.C,R19*%
X150683600Y-88191100D03*
X148183600Y-88191100D03*
X145683600Y-88191100D03*
D27*
X152883600Y-81191100D03*
X143483600Y-81191100D03*
%TD*%
D23*
%TO.C,R59*%
X145541100Y-129133600D03*
X143841100Y-129133600D03*
%TD*%
D28*
%TO.C,R54*%
X184061100Y-128396100D03*
X184061100Y-126696100D03*
%TD*%
D22*
%TO.C,R39*%
X139396100Y-102463600D03*
X141096100Y-102463600D03*
%TD*%
D29*
%TO.C,C44*%
X190411100Y-126696100D03*
X190411100Y-128396100D03*
%TD*%
%TO.C,C43*%
X185648600Y-126696100D03*
X185648600Y-128396100D03*
%TD*%
D30*
%TO.C,R11*%
X121679100Y-64046100D03*
X124523100Y-64046100D03*
%TD*%
D26*
%TO.C,R20*%
X178306100Y-88191100D03*
X175806100Y-88191100D03*
X173306100Y-88191100D03*
D27*
X180506100Y-81191100D03*
X171106100Y-81191100D03*
%TD*%
D31*
%TO.C,C4*%
X140881100Y-69583600D03*
X140881100Y-74383600D03*
%TD*%
D32*
%TO.C,C46*%
X149351100Y-130086100D03*
X147651100Y-130086100D03*
%TD*%
%TO.C,C39*%
X152843600Y-123101100D03*
X151143600Y-123101100D03*
%TD*%
%TO.C,C30*%
X168150000Y-112300000D03*
X166450000Y-112300000D03*
%TD*%
D33*
%TO.C,J7*%
X111671100Y-151676100D03*
D34*
X117386100Y-151676100D03*
X114846100Y-151676100D03*
X107226100Y-151676100D03*
%TD*%
D16*
%TO.C,R6*%
X147231000Y-59386100D03*
X147231000Y-61086100D03*
%TD*%
D22*
%TO.C,R34*%
X133046100Y-99288600D03*
X134746100Y-99288600D03*
%TD*%
D23*
%TO.C,R51*%
X145541100Y-127546100D03*
X143841100Y-127546100D03*
%TD*%
D25*
%TO.C,C31*%
X188823600Y-113246100D03*
X188823600Y-116446100D03*
%TD*%
D35*
%TO.C,Q3*%
X155740100Y-77698600D03*
X165392100Y-77698600D03*
%TD*%
D28*
%TO.C,R31*%
X125958600Y-99186100D03*
X125958600Y-97486100D03*
%TD*%
D21*
%TO.C,LED1*%
X132149800Y-62776100D03*
X132149800Y-60236100D03*
X132149800Y-57696100D03*
%TD*%
D36*
%TO.C,SW1*%
X114171100Y-62736100D03*
X114171100Y-57736100D03*
D37*
X109171100Y-57736100D03*
D36*
X108671100Y-60236100D03*
X114671100Y-60236100D03*
X109171100Y-62736100D03*
%TD*%
D20*
%TO.C,C3*%
X157017300Y-71666100D03*
X158717300Y-71666100D03*
%TD*%
D16*
%TO.C,R33*%
X130721100Y-97486100D03*
X130721100Y-99186100D03*
%TD*%
D38*
%TO.C,IC3*%
X126911100Y-95221100D03*
X128181100Y-95221100D03*
X129451100Y-95221100D03*
X130721100Y-95221100D03*
X130721100Y-90021100D03*
X129451100Y-90021100D03*
X128181100Y-90021100D03*
X126911100Y-90021100D03*
%TD*%
D16*
%TO.C,R53*%
X182473600Y-126696100D03*
X182473600Y-128396100D03*
%TD*%
D39*
%TO.C,C25*%
X160849741Y-101354559D03*
X159647659Y-102556641D03*
%TD*%
D32*
%TO.C,C38*%
X115696100Y-122783600D03*
X113996100Y-122783600D03*
%TD*%
D31*
%TO.C,C1*%
X119608600Y-66726100D03*
X119608600Y-71526100D03*
%TD*%
D16*
%TO.C,R58*%
X119926100Y-127331100D03*
X119926100Y-129031100D03*
%TD*%
D32*
%TO.C,C45*%
X115696100Y-129768600D03*
X113996100Y-129768600D03*
%TD*%
D20*
%TO.C,C11*%
X139396100Y-87541100D03*
X141096100Y-87541100D03*
%TD*%
D32*
%TO.C,C50*%
X168150000Y-111030000D03*
X166450000Y-111030000D03*
%TD*%
D26*
%TO.C,R18*%
X123061100Y-88191100D03*
X120561100Y-88191100D03*
X118061100Y-88191100D03*
D27*
X125261100Y-81191100D03*
X115861100Y-81191100D03*
%TD*%
D33*
%TO.C,J1*%
X111671100Y-137071100D03*
D34*
X117386100Y-137071100D03*
X114846100Y-137071100D03*
X107226100Y-137071100D03*
%TD*%
D22*
%TO.C,R49*%
X143841100Y-125958600D03*
X145541100Y-125958600D03*
%TD*%
D40*
%TO.C,IC8*%
X172400000Y-116750000D03*
X171900000Y-116750000D03*
X171400000Y-116750000D03*
X170900000Y-116750000D03*
X170400000Y-116750000D03*
X169900000Y-116750000D03*
X169400000Y-116750000D03*
D41*
X168450000Y-117700000D03*
X168450000Y-118200000D03*
X168450000Y-118700000D03*
X168450000Y-119200000D03*
X168450000Y-119700000D03*
X168450000Y-120200000D03*
X168450000Y-120700000D03*
D40*
X169400000Y-121650000D03*
X169900000Y-121650000D03*
X170400000Y-121650000D03*
X170900000Y-121650000D03*
X171400000Y-121650000D03*
X171900000Y-121650000D03*
X172400000Y-121650000D03*
D41*
X173350000Y-120700000D03*
X173350000Y-120200000D03*
X173350000Y-119700000D03*
X173350000Y-119200000D03*
X173350000Y-118700000D03*
X173350000Y-118200000D03*
X173350000Y-117700000D03*
D42*
X170900000Y-119200000D03*
%TD*%
D22*
%TO.C,R14*%
X179401100Y-67221100D03*
X181101100Y-67221100D03*
%TD*%
D43*
%TO.C,D1*%
X115163600Y-71978600D03*
X115163600Y-68178600D03*
%TD*%
D28*
%TO.C,R29*%
X131038600Y-87756100D03*
X131038600Y-86056100D03*
%TD*%
D33*
%TO.C,J5*%
X170091100Y-137071100D03*
D34*
X175806100Y-137071100D03*
X173266100Y-137071100D03*
X165646100Y-137071100D03*
%TD*%
D25*
%TO.C,C36*%
X184061100Y-120866100D03*
X184061100Y-124066100D03*
%TD*%
D23*
%TO.C,R36*%
X134746100Y-100876100D03*
X133046100Y-100876100D03*
%TD*%
D16*
%TO.C,R30*%
X110718600Y-95263600D03*
X110718600Y-96963600D03*
%TD*%
D44*
%TO.C,SW4*%
X186925000Y-75800000D03*
X191075000Y-75800000D03*
X186925000Y-73600000D03*
X191075000Y-73600000D03*
%TD*%
D45*
%TO.C,C5*%
X145008600Y-74738600D03*
X145008600Y-73038600D03*
%TD*%
D16*
%TO.C,R13*%
X184300000Y-72050000D03*
X184300000Y-73750000D03*
%TD*%
D23*
%TO.C,R22*%
X134746100Y-84366100D03*
X133046100Y-84366100D03*
%TD*%
D16*
%TO.C,R2*%
X121100000Y-58450000D03*
X121100000Y-60150000D03*
%TD*%
%TO.C,R41*%
X166700000Y-104850000D03*
X166700000Y-106550000D03*
%TD*%
D22*
%TO.C,R52*%
X155906100Y-127546100D03*
X157606100Y-127546100D03*
%TD*%
%TO.C,R16*%
X179401100Y-70713600D03*
X181101100Y-70713600D03*
%TD*%
D16*
%TO.C,R4*%
X136594800Y-59386100D03*
X136594800Y-61086100D03*
%TD*%
D22*
%TO.C,R61*%
X165748600Y-145961100D03*
X167448600Y-145961100D03*
%TD*%
D28*
%TO.C,R27*%
X127546100Y-87756100D03*
X127546100Y-86056100D03*
%TD*%
D32*
%TO.C,C6*%
X159193600Y-81191100D03*
X157493600Y-81191100D03*
%TD*%
D16*
%TO.C,R9*%
X159613600Y-59386100D03*
X159613600Y-61086100D03*
%TD*%
D46*
%TO.C,C8*%
X162437241Y-85602141D03*
X161235159Y-84400059D03*
%TD*%
D29*
%TO.C,C23*%
X136436100Y-98438600D03*
X136436100Y-100138600D03*
%TD*%
D16*
%TO.C,R48*%
X157708600Y-124156100D03*
X157708600Y-125856100D03*
%TD*%
D23*
%TO.C,R26*%
X141096100Y-85953600D03*
X139396100Y-85953600D03*
%TD*%
D22*
%TO.C,R23*%
X139396100Y-84366100D03*
X141096100Y-84366100D03*
%TD*%
D29*
%TO.C,C22*%
X127546100Y-97486100D03*
X127546100Y-99186100D03*
%TD*%
D26*
%TO.C,R44*%
X161796100Y-116131100D03*
X159296100Y-116131100D03*
X156796100Y-116131100D03*
D27*
X163996100Y-109131100D03*
X154596100Y-109131100D03*
%TD*%
D47*
%TO.C,C24*%
X158380351Y-101547851D03*
X157036849Y-100204349D03*
%TD*%
D20*
%TO.C,C7*%
X161938600Y-81191100D03*
X163638600Y-81191100D03*
%TD*%
D33*
%TO.C,J3*%
X140881100Y-137071100D03*
D34*
X146596100Y-137071100D03*
X144056100Y-137071100D03*
X136436100Y-137071100D03*
%TD*%
D48*
%TO.C,IC2*%
X136176100Y-67818600D03*
X131616100Y-67818600D03*
D49*
X133896100Y-75118600D03*
%TD*%
D50*
%TO.C,IC7*%
X146558000Y-117995700D03*
X148844000Y-117995700D03*
X151130000Y-117995700D03*
D51*
X148818600Y-111696500D03*
%TD*%
D52*
%TO.C,C27*%
X145783600Y-106273600D03*
X150583600Y-106273600D03*
%TD*%
D33*
%TO.C,J2*%
X126276100Y-137071100D03*
D34*
X131991100Y-137071100D03*
X129451100Y-137071100D03*
X121831100Y-137071100D03*
%TD*%
D53*
%TO.C,IC10*%
X147806100Y-124688600D03*
X147806100Y-125958600D03*
X147806100Y-127228600D03*
X147806100Y-128498600D03*
X153006100Y-128498600D03*
X153006100Y-127228600D03*
X153006100Y-125958600D03*
X153006100Y-124688600D03*
%TD*%
D32*
%TO.C,C40*%
X145541100Y-124371100D03*
X143841100Y-124371100D03*
%TD*%
D28*
%TO.C,R3*%
X128022300Y-61086100D03*
X128022300Y-59386100D03*
%TD*%
D16*
%TO.C,R7*%
X148977300Y-59386100D03*
X148977300Y-61086100D03*
%TD*%
D22*
%TO.C,R12*%
X171781100Y-66268600D03*
X173481100Y-66268600D03*
%TD*%
D33*
%TO.C,J9*%
X140881100Y-151676100D03*
D34*
X146596100Y-151676100D03*
X144056100Y-151676100D03*
X136436100Y-151676100D03*
%TD*%
D28*
%TO.C,R24*%
X137706100Y-85851100D03*
X137706100Y-84151100D03*
%TD*%
D20*
%TO.C,C48*%
X183369900Y-97383600D03*
X185069900Y-97383600D03*
%TD*%
D21*
%TO.C,LED4*%
X164058600Y-62776100D03*
X164058600Y-60236100D03*
X164058600Y-57696100D03*
%TD*%
D23*
%TO.C,R35*%
X141096100Y-99288600D03*
X139396100Y-99288600D03*
%TD*%
D33*
%TO.C,J12*%
X184696100Y-151676100D03*
D34*
X190411100Y-151676100D03*
X187871100Y-151676100D03*
X180251100Y-151676100D03*
%TD*%
D54*
%TO.C,C33*%
X164388600Y-124688600D03*
X161188600Y-124688600D03*
%TD*%
%TO.C,C49*%
X162200000Y-120100000D03*
X159000000Y-120100000D03*
%TD*%
D33*
%TO.C,J10*%
X155486100Y-151676100D03*
D34*
X161201100Y-151676100D03*
X158661100Y-151676100D03*
X151041100Y-151676100D03*
%TD*%
D26*
%TO.C,R45*%
X184021100Y-116131100D03*
X181521100Y-116131100D03*
X179021100Y-116131100D03*
D27*
X186221100Y-109131100D03*
X176821100Y-109131100D03*
%TD*%
D16*
%TO.C,R46*%
X109766100Y-124156100D03*
X109766100Y-125856100D03*
%TD*%
D55*
%TO.C,C28*%
X172399996Y-108800000D03*
X172399996Y-105600000D03*
%TD*%
D31*
%TO.C,C2*%
X126593600Y-66726100D03*
X126593600Y-71526100D03*
%TD*%
D28*
%TO.C,R56*%
X188823600Y-128396100D03*
X188823600Y-126696100D03*
%TD*%
D33*
%TO.C,J6*%
X184696100Y-137071100D03*
D34*
X190411100Y-137071100D03*
X187871100Y-137071100D03*
X180251100Y-137071100D03*
%TD*%
D22*
%TO.C,R37*%
X139396100Y-100876100D03*
X141096100Y-100876100D03*
%TD*%
D33*
%TO.C,J4*%
X155486100Y-137071100D03*
D34*
X161201100Y-137071100D03*
X158661100Y-137071100D03*
X151041100Y-137071100D03*
%TD*%
D31*
%TO.C,C13*%
X109766100Y-87681100D03*
X109766100Y-92481100D03*
%TD*%
D29*
%TO.C,C34*%
X175700000Y-122750000D03*
X175700000Y-124450000D03*
%TD*%
D28*
%TO.C,R17*%
X184061100Y-78866100D03*
X184061100Y-77166100D03*
%TD*%
D45*
%TO.C,C16*%
X112306100Y-96963600D03*
X112306100Y-95263600D03*
%TD*%
%TO.C,C42*%
X155803600Y-125856100D03*
X155803600Y-124156100D03*
%TD*%
D56*
%TO.C,D2*%
X113888600Y-83731100D03*
X110088600Y-83731100D03*
%TD*%
D24*
%TO.C,Q2*%
X175341100Y-69763600D03*
X177541100Y-70713600D03*
X175341100Y-71663600D03*
%TD*%
D54*
%TO.C,C41*%
X169468600Y-127228600D03*
X166268600Y-127228600D03*
%TD*%
D45*
%TO.C,C17*%
X153581100Y-96011100D03*
X153581100Y-94311100D03*
%TD*%
D16*
%TO.C,R8*%
X157867300Y-59386100D03*
X157867300Y-61086100D03*
%TD*%
%TO.C,R57*%
X109766100Y-127331100D03*
X109766100Y-129031100D03*
%TD*%
D29*
%TO.C,C32*%
X164500000Y-118950000D03*
X164500000Y-120650000D03*
%TD*%
D57*
%TO.C,IC6*%
X112303600Y-98506100D03*
X110403600Y-98506100D03*
X111353600Y-100706100D03*
%TD*%
D29*
%TO.C,C9*%
X125958600Y-86056100D03*
X125958600Y-87756100D03*
%TD*%
D58*
%TO.C,C12*%
X153297559Y-88142141D03*
X154499641Y-86940059D03*
%TD*%
D32*
%TO.C,C47*%
X177132400Y-97100000D03*
X175432400Y-97100000D03*
%TD*%
D58*
%TO.C,C14*%
X154250059Y-89094641D03*
X155452141Y-87892559D03*
%TD*%
D25*
%TO.C,C37*%
X188823600Y-120866100D03*
X188823600Y-124066100D03*
%TD*%
D59*
%TO.C,SW3*%
X182714900Y-57975500D03*
X189217300Y-57975500D03*
X182714900Y-62496700D03*
X189217300Y-62496700D03*
%TD*%
D16*
%TO.C,R5*%
X138341000Y-59386100D03*
X138341000Y-61086100D03*
%TD*%
%TO.C,R55*%
X187236100Y-126696100D03*
X187236100Y-128396100D03*
%TD*%
D21*
%TO.C,LED3*%
X153422300Y-62776100D03*
X153422300Y-60236100D03*
X153422300Y-57696100D03*
%TD*%
D23*
%TO.C,R21*%
X134746100Y-82778600D03*
X133046100Y-82778600D03*
%TD*%
D35*
%TO.C,Q4*%
X175425100Y-100876100D03*
X185077100Y-100876100D03*
%TD*%
D60*
%TO.C,C18*%
X170061559Y-94877559D03*
X171263641Y-96079641D03*
%TD*%
D33*
%TO.C,J11*%
X170091100Y-151676100D03*
D34*
X175806100Y-151676100D03*
X173266100Y-151676100D03*
X165646100Y-151676100D03*
%TD*%
D44*
%TO.C,SW5*%
X186925000Y-79400000D03*
X191075000Y-79400000D03*
X186925000Y-77200000D03*
X191075000Y-77200000D03*
%TD*%
D16*
%TO.C,R32*%
X129133600Y-97486100D03*
X129133600Y-99186100D03*
%TD*%
D32*
%TO.C,C20*%
X134746100Y-97701100D03*
X133046100Y-97701100D03*
%TD*%
D29*
%TO.C,C15*%
X125323600Y-90183600D03*
X125323600Y-91883600D03*
%TD*%
D16*
%TO.C,R10*%
X168503600Y-59386100D03*
X168503600Y-61086100D03*
%TD*%
D32*
%TO.C,C26*%
X146176100Y-102146100D03*
X144476100Y-102146100D03*
%TD*%
D26*
%TO.C,R43*%
X139571100Y-116131100D03*
X137071100Y-116131100D03*
X134571100Y-116131100D03*
D27*
X141771100Y-109131100D03*
X132371100Y-109131100D03*
%TD*%
D59*
%TO.C,SW2*%
X173189900Y-57975500D03*
X179692300Y-57975500D03*
X173189900Y-62496700D03*
X179692300Y-62496700D03*
%TD*%
D23*
%TO.C,R62*%
X180783600Y-145961100D03*
X179083600Y-145961100D03*
%TD*%
D22*
%TO.C,R25*%
X133046100Y-85953600D03*
X134746100Y-85953600D03*
%TD*%
D28*
%TO.C,R28*%
X129451100Y-87756100D03*
X129451100Y-86056100D03*
%TD*%
D53*
%TO.C,IC9*%
X112246100Y-124371100D03*
X112246100Y-125641100D03*
X112246100Y-126911100D03*
X112246100Y-128181100D03*
X117446100Y-128181100D03*
X117446100Y-126911100D03*
X117446100Y-125641100D03*
X117446100Y-124371100D03*
%TD*%
D28*
%TO.C,R50*%
X159613600Y-128078600D03*
X159613600Y-126378600D03*
%TD*%
D32*
%TO.C,C10*%
X134746100Y-87541100D03*
X133046100Y-87541100D03*
%TD*%
D61*
%TO.C,C19*%
X169101849Y-96711849D03*
X170445351Y-98055351D03*
%TD*%
D33*
%TO.C,J8*%
X126276100Y-151676100D03*
D34*
X131991100Y-151676100D03*
X129451100Y-151676100D03*
X121831100Y-151676100D03*
%TD*%
D16*
%TO.C,R47*%
X119926100Y-124156100D03*
X119926100Y-125856100D03*
%TD*%
D59*
%TO.C,JP1*%
X189776100Y-97066100D03*
X189776100Y-99606100D03*
X189776100Y-102146100D03*
X189776100Y-104686100D03*
X189776100Y-107226100D03*
X189776100Y-109766100D03*
%TD*%
D62*
%TO.C,JP3*%
X109131100Y-78333600D03*
X111671100Y-78333600D03*
X109131100Y-75793600D03*
X111671100Y-75793600D03*
X109131100Y-73253600D03*
X111671100Y-73253600D03*
X109131100Y-70713600D03*
X111671100Y-70713600D03*
X109131100Y-68173600D03*
X111671100Y-68173600D03*
%TD*%
D63*
%TO.C,JP2*%
X190411100Y-87858600D03*
X189141100Y-87858600D03*
X190411100Y-89128600D03*
X189141100Y-89128600D03*
X190411100Y-90398600D03*
X189141100Y-90398600D03*
X190411100Y-91668600D03*
X189141100Y-91668600D03*
X190411100Y-92938600D03*
X189141100Y-92938600D03*
%TD*%
M02*
