M48
; DRILL file {KiCad (6.0.11-0)} date 2023 May 26, Friday 17:34:31
; FORMAT={-:-/ absolute / inch / decimal}
; #@! TF.CreationDate,2023-05-26T17:34:31+02:00
; #@! TF.GenerationSoftware,Kicad,Pcbnew,(6.0.11-0)
; #@! TF.FileFunction,Plated,1,2,PTH
FMAT,2
INCH
; #@! TA.AperFunction,Plated,PTH,ViaDrill
T1C0.0236
; #@! TA.AperFunction,Plated,PTH,ComponentDrill
T2C0.0240
; #@! TA.AperFunction,Plated,PTH,ComponentDrill
T3C0.0320
; #@! TA.AperFunction,Plated,PTH,ComponentDrill
T4C0.0354
; #@! TA.AperFunction,Plated,PTH,ComponentDrill
T5C0.0394
; #@! TA.AperFunction,Plated,PTH,ComponentDrill
T6C0.0400
; #@! TA.AperFunction,Plated,PTH,ComponentDrill
T7C0.0591
; #@! TA.AperFunction,Plated,PTH,ComponentDrill
T8C0.0709
%
G90
G05
T1
X4.1465Y-2.0965
X4.1465Y-5.5715
X4.1465Y-5.8715
X4.1465Y-6.1715
X4.209Y-4.884
X4.2091Y-4.4858
X4.2205Y-2.5157
X4.259Y-5.1215
X4.3965Y-3.5215
X4.4457Y-4.4843
X4.4465Y-2.0965
X4.4465Y-3.9965
X4.484Y-5.1715
X4.4984Y-4.7665
X4.5215Y-5.0215
X4.534Y-3.034
X4.5465Y-4.9465
X4.6215Y-4.834
X4.6465Y-3.259
X4.6465Y-5.509
X4.6614Y-2.2441
X4.709Y-2.934
X4.7228Y-4.7177
X4.7465Y-2.0965
X4.7465Y-6.1715
X4.784Y-4.9465
X4.8715Y-3.8715
X4.9215Y-3.6715
X4.937Y-2.2913
X4.959Y-4.6715
X4.984Y-2.934
X5.0465Y-2.0965
X5.1715Y-4.6715
X5.184Y-3.159
X5.184Y-3.3215
X5.184Y-3.959
X5.1965Y-3.5465
X5.1965Y-3.759
X5.2965Y-5.1965
X5.3465Y-2.0965
X5.3465Y-6.1715
X5.3715Y-4.009
X5.3965Y-3.434
X5.3965Y-5.4965
X5.4215Y-2.5965
X5.4215Y-3.8715
X5.5215Y-4.6715
X5.5465Y-3.034
X5.6465Y-2.0965
X5.6465Y-4.6715
X5.6965Y-3.834
X5.6965Y-3.934
X5.709Y-2.7715
X5.7152Y-2.584
X5.759Y-4.534
X5.784Y-3.8715
X5.834Y-5.209
X5.834Y-5.584
X5.884Y-3.684
X5.884Y-3.859
X5.884Y-5.6215
X5.8965Y-5.1965
X5.9465Y-2.0965
X5.9465Y-4.2965
X5.9465Y-4.784
X5.9465Y-6.1715
X5.959Y-4.534
X5.984Y-3.684
X5.984Y-3.784
X6.0152Y-2.734
X6.0215Y-4.684
X6.0215Y-4.7965
X6.034Y-3.384
X6.1152Y-2.734
X6.1465Y-4.084
X6.184Y-3.6965
X6.234Y-3.784
X6.2465Y-2.0965
X6.2465Y-6.1715
X6.2715Y-3.734
X6.3152Y-2.8215
X6.3215Y-3.1215
X6.3215Y-4.484
X6.3465Y-5.0465
X6.3715Y-3.6465
X6.3965Y-3.284
X6.409Y-3.4965
X6.4215Y-3.734
X6.434Y-3.7965
X6.4528Y-4.8071
X6.459Y-3.559
X6.459Y-4.009
X6.4715Y-3.3465
X6.4961Y-4.4331
X6.4965Y-4.109
X6.5039Y-4.626
X6.5215Y-2.859
X6.5236Y-4.8228
X6.5465Y-2.0965
X6.5465Y-3.759
X6.5465Y-6.1715
X6.559Y-2.8965
X6.5591Y-4.2953
X6.563Y-4.0472
X6.5728Y-4.561
X6.5965Y-2.934
X6.6024Y-4.8189
X6.6142Y-4.0118
X6.6215Y-2.534
X6.6215Y-4.2465
X6.659Y-2.9965
X6.709Y-3.5465
X6.7126Y-4.4528
X6.7165Y-4.5276
X6.7215Y-4.2215
X6.7283Y-4.8819
X6.7715Y-2.809
X6.7717Y-4.0551
X6.7902Y-3.759
X6.7953Y-4.4567
X6.809Y-2.9465
X6.811Y-4.8898
X6.834Y-3.7215
X6.8465Y-2.0965
X6.8465Y-2.8715
X6.8465Y-6.1715
X6.859Y-2.534
X6.8819Y-4.563
X6.8937Y-4.3622
X6.8937Y-4.7717
X6.8957Y-4.6437
X6.9173Y-4.122
X6.9215Y-3.6465
X6.9606Y-4.6142
X6.9624Y-4.5159
X6.9715Y-3.8965
X6.9843Y-4.9449
X7.0965Y-3.6465
X7.1465Y-2.0965
X7.1465Y-5.859
X7.1465Y-6.1715
X7.1496Y-3.0945
X7.159Y-2.534
X7.1677Y-2.9465
X7.209Y-3.5215
X7.209Y-3.6465
X7.2215Y-3.8965
X7.234Y-5.859
X7.2795Y-2.7638
X7.284Y-3.5215
X7.284Y-3.6465
X7.3268Y-3.3031
X7.359Y-3.4215
X7.3715Y-4.0465
X7.4409Y-2.9764
X7.4465Y-2.0965
X7.4465Y-6.1715
X7.4965Y-3.734
X7.4965Y-5.1715
X7.5236Y-3.2283
X7.5394Y-2.7717
X7.5465Y-2.1715
X7.5465Y-2.4715
X7.5465Y-4.5715
X7.5465Y-5.7715
X7.5465Y-6.0715
T2
X7.4465Y-3.459
X7.4465Y-3.509
X7.4465Y-3.559
X7.4465Y-3.609
X7.4465Y-3.659
X7.4965Y-3.459
X7.4965Y-3.509
X7.4965Y-3.559
X7.4965Y-3.609
X7.4965Y-3.659
T3
X5.2027Y-2.2715
X5.2027Y-2.3715
X5.2027Y-2.4715
X5.6215Y-2.2715
X5.6215Y-2.3715
X5.6215Y-2.4715
X6.0402Y-2.2715
X6.0402Y-2.3715
X6.0402Y-2.4715
X6.459Y-2.2715
X6.459Y-2.3715
X6.459Y-2.4715
T4
X4.2784Y-2.3715
X4.2981Y-2.2731
X4.2981Y-2.4699
X4.4949Y-2.2731
X4.4949Y-2.4699
X4.5146Y-2.3715
T5
X4.4224Y-4.5929
X4.4224Y-4.6913
X4.5209Y-4.5929
X4.5209Y-4.6913
X4.6193Y-4.5929
X4.6193Y-4.6913
X4.6481Y-3.4721
X4.7465Y-3.4721
X4.8449Y-3.4721
X5.2981Y-4.5721
X5.3965Y-4.5721
X5.4949Y-4.5721
X5.7356Y-3.4721
X5.834Y-3.4721
X5.9324Y-3.4721
X6.1731Y-4.5721
X6.2715Y-4.5721
X6.3699Y-4.5721
X6.8231Y-3.4721
X6.9215Y-3.4721
X7.0199Y-3.4721
X7.0481Y-4.5721
X7.1465Y-4.5721
X7.2449Y-4.5721
T6
X4.2215Y-5.3965
X4.2215Y-5.9715
X4.2965Y-2.684
X4.2965Y-2.784
X4.2965Y-2.884
X4.2965Y-2.984
X4.2965Y-3.084
X4.3965Y-2.684
X4.3965Y-2.784
X4.3965Y-2.884
X4.3965Y-2.984
X4.3965Y-3.084
X4.5215Y-5.3965
X4.5215Y-5.9715
X4.6215Y-5.3965
X4.6215Y-5.9715
X4.7965Y-5.3965
X4.7965Y-5.9715
X5.0965Y-5.3965
X5.0965Y-5.9715
X5.1965Y-5.3965
X5.1965Y-5.9715
X5.3715Y-5.3965
X5.3715Y-5.9715
X5.6715Y-5.3965
X5.6715Y-5.9715
X5.7715Y-5.3965
X5.7715Y-5.9715
X5.9465Y-5.3965
X5.9465Y-5.9715
X6.2465Y-5.3965
X6.2465Y-5.9715
X6.3465Y-5.3965
X6.3465Y-5.9715
X6.5215Y-5.3965
X6.5215Y-5.9715
X6.8185Y-2.2825
X6.8185Y-2.4605
X6.8215Y-5.3965
X6.8215Y-5.9715
X6.9215Y-5.3965
X6.9215Y-5.9715
X7.0745Y-2.2825
X7.0745Y-2.4605
X7.0965Y-5.3965
X7.0965Y-5.9715
X7.1935Y-2.2825
X7.1935Y-2.4605
X7.3965Y-5.3965
X7.3965Y-5.9715
X7.4495Y-2.2825
X7.4495Y-2.4605
X7.4715Y-3.8215
X7.4715Y-3.9215
X7.4715Y-4.0215
X7.4715Y-4.1215
X7.4715Y-4.2215
X7.4715Y-4.3215
X7.4965Y-5.3965
X7.4965Y-5.9715
T7
X4.5615Y-3.1965
X4.9315Y-3.1965
X5.2115Y-4.2965
X5.5815Y-4.2965
X5.649Y-3.1965
X6.019Y-3.1965
X6.0865Y-4.2965
X6.4565Y-4.2965
X6.7365Y-3.1965
X6.9615Y-4.2965
X7.1065Y-3.1965
X7.3315Y-4.2965
T8
X4.3339Y-4.2976
X4.7079Y-4.2976
T0
M30
