%TF.GenerationSoftware,KiCad,Pcbnew,(6.0.11-0)*%
%TF.CreationDate,2023-05-26T17:34:31+02:00*%
%TF.ProjectId,clouds,636c6f75-6473-42e6-9b69-6361645f7063,rev?*%
%TF.SameCoordinates,Original*%
%TF.FileFunction,Soldermask,Bot*%
%TF.FilePolarity,Negative*%
%FSLAX46Y46*%
G04 Gerber Fmt 4.6, Leading zero omitted, Abs format (unit mm)*
G04 Created by KiCad (PCBNEW (6.0.11-0)) date 2023-05-26 17:34:31*
%MOMM*%
%LPD*%
G01*
G04 APERTURE LIST*
G04 Aperture macros list*
%AMRoundRect*
0 Rectangle with rounded corners*
0 $1 Rounding radius*
0 $2 $3 $4 $5 $6 $7 $8 $9 X,Y pos of 4 corners*
0 Add a 4 corners polygon primitive as box body*
4,1,4,$2,$3,$4,$5,$6,$7,$8,$9,$2,$3,0*
0 Add four circle primitives for the rounded corners*
1,1,$1+$1,$2,$3*
1,1,$1+$1,$4,$5*
1,1,$1+$1,$6,$7*
1,1,$1+$1,$8,$9*
0 Add four rect primitives between the rounded corners*
20,1,$1+$1,$2,$3,$4,$5,0*
20,1,$1+$1,$4,$5,$6,$7,0*
20,1,$1+$1,$6,$7,$8,$9,0*
20,1,$1+$1,$8,$9,$2,$3,0*%
%AMFreePoly0*
4,1,25,0.396174,0.896573,0.401076,0.892082,0.892082,0.401076,0.914110,0.353835,0.914400,0.347194,0.914400,-0.347194,0.896573,-0.396174,0.892082,-0.401076,0.401076,-0.892082,0.353835,-0.914110,0.347194,-0.914400,-0.347194,-0.914400,-0.396174,-0.896573,-0.401076,-0.892082,-0.892082,-0.401076,-0.914110,-0.353835,-0.914400,-0.347194,-0.914400,0.347194,-0.896573,0.396174,-0.892082,0.401076,
-0.401076,0.892082,-0.353835,0.914110,-0.347194,0.914400,0.347194,0.914400,0.396174,0.896573,0.396174,0.896573,$1*%
%AMFreePoly1*
4,1,25,0.575031,1.328373,0.579933,1.323882,1.323882,0.579933,1.345910,0.532692,1.346200,0.526051,1.346200,-0.526051,1.328373,-0.575031,1.323882,-0.579933,0.579933,-1.323882,0.532692,-1.345910,0.526051,-1.346200,-0.526051,-1.346200,-0.575031,-1.328373,-0.579933,-1.323882,-1.323882,-0.579933,-1.345910,-0.532692,-1.346200,-0.526051,-1.346200,0.526051,-1.328373,0.575031,-1.323882,0.579933,
-0.579933,1.323882,-0.532692,1.345910,-0.526051,1.346200,0.526051,1.346200,0.575031,1.328373,0.575031,1.328373,$1*%
%AMFreePoly2*
4,1,25,0.417216,0.947373,0.422118,0.942882,0.942882,0.422118,0.964910,0.374877,0.965200,0.368236,0.965200,-0.368236,0.947373,-0.417216,0.942882,-0.422118,0.422118,-0.942882,0.374877,-0.964910,0.368236,-0.965200,-0.368236,-0.965200,-0.417216,-0.947373,-0.422118,-0.942882,-0.942882,-0.422118,-0.964910,-0.374877,-0.965200,-0.368236,-0.965200,0.368236,-0.947373,0.417216,-0.942882,0.422118,
-0.422118,0.942882,-0.374877,0.964910,-0.368236,0.965200,0.368236,0.965200,0.417216,0.947373,0.417216,0.947373,$1*%
%AMFreePoly3*
4,1,25,0.438258,0.998173,0.443160,0.993682,0.993682,0.443160,1.015710,0.395919,1.016000,0.389278,1.016000,-0.389278,0.998173,-0.438258,0.993682,-0.443160,0.443160,-0.993682,0.395919,-1.015710,0.389278,-1.016000,-0.389278,-1.016000,-0.438258,-0.998173,-0.443160,-0.993682,-0.993682,-0.443160,-1.015710,-0.395919,-1.016000,-0.389278,-1.016000,0.389278,-0.998173,0.438258,-0.993682,0.443160,
-0.443160,0.993682,-0.395919,1.015710,-0.389278,1.016000,0.389278,1.016000,0.438258,0.998173,0.438258,0.998173,$1*%
%AMFreePoly4*
4,1,25,0.269922,0.591773,0.274824,0.587282,0.587282,0.274824,0.609310,0.227583,0.609600,0.220942,0.609600,-0.220942,0.591773,-0.269922,0.587282,-0.274824,0.274824,-0.587282,0.227583,-0.609310,0.220942,-0.609600,-0.220942,-0.609600,-0.269922,-0.591773,-0.274824,-0.587282,-0.587282,-0.274824,-0.609310,-0.227583,-0.609600,-0.220942,-0.609600,0.220942,-0.591773,0.269922,-0.587282,0.274824,
-0.274824,0.587282,-0.227583,0.609310,-0.220942,0.609600,0.220942,0.609600,0.269922,0.591773,0.269922,0.591773,$1*%
G04 Aperture macros list end*
%ADD10C,3.240000*%
%ADD11R,1.800000X1.800000*%
%ADD12C,1.800000*%
%ADD13FreePoly0,180.000000*%
%ADD14RoundRect,0.076200X0.939800X-0.939800X0.939800X0.939800X-0.939800X0.939800X-0.939800X-0.939800X0*%
%ADD15FreePoly1,90.000000*%
%ADD16C,2.200000*%
%ADD17FreePoly2,90.000000*%
%ADD18C,1.952400*%
%ADD19RoundRect,0.076200X0.900000X-0.900000X0.900000X0.900000X-0.900000X0.900000X-0.900000X-0.900000X0*%
%ADD20C,2.032000*%
%ADD21FreePoly3,90.000000*%
%ADD22FreePoly4,270.000000*%
G04 APERTURE END LIST*
D10*
%TO.C,R42*%
X119580000Y-109160000D03*
X110080000Y-109160000D03*
D11*
X112330000Y-116660000D03*
D12*
X114830000Y-116660000D03*
X117330000Y-116660000D03*
X112330000Y-119160000D03*
X114830000Y-119160000D03*
X117330000Y-119160000D03*
%TD*%
D13*
%TO.C,LED2*%
X142786000Y-62776100D03*
X142786000Y-60236100D03*
X142786000Y-57696100D03*
%TD*%
D14*
%TO.C,R19*%
X150683600Y-88191100D03*
X148183600Y-88191100D03*
X145683600Y-88191100D03*
D15*
X152883600Y-81191100D03*
X143483600Y-81191100D03*
%TD*%
D14*
%TO.C,R20*%
X178306100Y-88191100D03*
X175806100Y-88191100D03*
X173306100Y-88191100D03*
D15*
X180506100Y-81191100D03*
X171106100Y-81191100D03*
%TD*%
D16*
%TO.C,J7*%
X111671100Y-151676100D03*
D17*
X117386100Y-151676100D03*
X114846100Y-151676100D03*
X107226100Y-151676100D03*
%TD*%
D13*
%TO.C,LED1*%
X132149800Y-62776100D03*
X132149800Y-60236100D03*
X132149800Y-57696100D03*
%TD*%
D18*
%TO.C,SW1*%
X114171100Y-62736100D03*
X114171100Y-57736100D03*
D19*
X109171100Y-57736100D03*
D18*
X108671100Y-60236100D03*
X114671100Y-60236100D03*
X109171100Y-62736100D03*
%TD*%
D14*
%TO.C,R18*%
X123061100Y-88191100D03*
X120561100Y-88191100D03*
X118061100Y-88191100D03*
D15*
X125261100Y-81191100D03*
X115861100Y-81191100D03*
%TD*%
D16*
%TO.C,J1*%
X111671100Y-137071100D03*
D17*
X117386100Y-137071100D03*
X114846100Y-137071100D03*
X107226100Y-137071100D03*
%TD*%
D16*
%TO.C,J5*%
X170091100Y-137071100D03*
D17*
X175806100Y-137071100D03*
X173266100Y-137071100D03*
X165646100Y-137071100D03*
%TD*%
D14*
%TO.C,R44*%
X161796100Y-116131100D03*
X159296100Y-116131100D03*
X156796100Y-116131100D03*
D15*
X163996100Y-109131100D03*
X154596100Y-109131100D03*
%TD*%
D16*
%TO.C,J3*%
X140881100Y-137071100D03*
D17*
X146596100Y-137071100D03*
X144056100Y-137071100D03*
X136436100Y-137071100D03*
%TD*%
D16*
%TO.C,J2*%
X126276100Y-137071100D03*
D17*
X131991100Y-137071100D03*
X129451100Y-137071100D03*
X121831100Y-137071100D03*
%TD*%
D16*
%TO.C,J9*%
X140881100Y-151676100D03*
D17*
X146596100Y-151676100D03*
X144056100Y-151676100D03*
X136436100Y-151676100D03*
%TD*%
D13*
%TO.C,LED4*%
X164058600Y-62776100D03*
X164058600Y-60236100D03*
X164058600Y-57696100D03*
%TD*%
D16*
%TO.C,J12*%
X184696100Y-151676100D03*
D17*
X190411100Y-151676100D03*
X187871100Y-151676100D03*
X180251100Y-151676100D03*
%TD*%
D16*
%TO.C,J10*%
X155486100Y-151676100D03*
D17*
X161201100Y-151676100D03*
X158661100Y-151676100D03*
X151041100Y-151676100D03*
%TD*%
D14*
%TO.C,R45*%
X184021100Y-116131100D03*
X181521100Y-116131100D03*
X179021100Y-116131100D03*
D15*
X186221100Y-109131100D03*
X176821100Y-109131100D03*
%TD*%
D16*
%TO.C,J6*%
X184696100Y-137071100D03*
D17*
X190411100Y-137071100D03*
X187871100Y-137071100D03*
X180251100Y-137071100D03*
%TD*%
D16*
%TO.C,J4*%
X155486100Y-137071100D03*
D17*
X161201100Y-137071100D03*
X158661100Y-137071100D03*
X151041100Y-137071100D03*
%TD*%
D20*
%TO.C,SW3*%
X182714900Y-57975500D03*
X189217300Y-57975500D03*
X182714900Y-62496700D03*
X189217300Y-62496700D03*
%TD*%
D13*
%TO.C,LED3*%
X153422300Y-62776100D03*
X153422300Y-60236100D03*
X153422300Y-57696100D03*
%TD*%
D16*
%TO.C,J11*%
X170091100Y-151676100D03*
D17*
X175806100Y-151676100D03*
X173266100Y-151676100D03*
X165646100Y-151676100D03*
%TD*%
D14*
%TO.C,R43*%
X139571100Y-116131100D03*
X137071100Y-116131100D03*
X134571100Y-116131100D03*
D15*
X141771100Y-109131100D03*
X132371100Y-109131100D03*
%TD*%
D20*
%TO.C,SW2*%
X173189900Y-57975500D03*
X179692300Y-57975500D03*
X173189900Y-62496700D03*
X179692300Y-62496700D03*
%TD*%
D16*
%TO.C,J8*%
X126276100Y-151676100D03*
D17*
X131991100Y-151676100D03*
X129451100Y-151676100D03*
X121831100Y-151676100D03*
%TD*%
D20*
%TO.C,JP1*%
X189776100Y-97066100D03*
X189776100Y-99606100D03*
X189776100Y-102146100D03*
X189776100Y-104686100D03*
X189776100Y-107226100D03*
X189776100Y-109766100D03*
%TD*%
D21*
%TO.C,JP3*%
X109131100Y-78333600D03*
X111671100Y-78333600D03*
X109131100Y-75793600D03*
X111671100Y-75793600D03*
X109131100Y-73253600D03*
X111671100Y-73253600D03*
X109131100Y-70713600D03*
X111671100Y-70713600D03*
X109131100Y-68173600D03*
X111671100Y-68173600D03*
%TD*%
D22*
%TO.C,JP2*%
X190411100Y-87858600D03*
X189141100Y-87858600D03*
X190411100Y-89128600D03*
X189141100Y-89128600D03*
X190411100Y-90398600D03*
X189141100Y-90398600D03*
X190411100Y-91668600D03*
X189141100Y-91668600D03*
X190411100Y-92938600D03*
X189141100Y-92938600D03*
%TD*%
M02*
