%TF.GenerationSoftware,KiCad,Pcbnew,7.0.5-0*%
%TF.CreationDate,2023-09-11T11:55:09+02:00*%
%TF.ProjectId,peaks-panel,7065616b-732d-4706-916e-656c2e6b6963,rev?*%
%TF.SameCoordinates,Original*%
%TF.FileFunction,Profile,NP*%
%FSLAX46Y46*%
G04 Gerber Fmt 4.6, Leading zero omitted, Abs format (unit mm)*
G04 Created by KiCad (PCBNEW 7.0.5-0) date 2023-09-11 11:55:09*
%MOMM*%
%LPD*%
G01*
G04 APERTURE LIST*
%TA.AperFunction,Profile*%
%ADD10C,0.099836*%
%TD*%
%TA.AperFunction,Profile*%
%ADD11C,0.100000*%
%TD*%
%TA.AperFunction,Profile*%
%ADD12C,0.050000*%
%TD*%
G04 APERTURE END LIST*
D10*
X145207004Y-89016122D02*
X145022311Y-88983144D01*
X145740677Y-118122566D02*
X145910981Y-118055425D01*
X141071221Y-116226034D02*
X141154030Y-116387712D01*
X123368716Y-74042361D02*
X123417451Y-73986117D01*
D11*
X148055291Y-48676167D02*
X148120208Y-48634549D01*
X147358128Y-50166502D02*
X147351949Y-50085248D01*
D10*
X146238796Y-74077646D02*
X146395836Y-73987352D01*
D11*
X153260016Y-158100000D02*
G75*
G03*
X153260016Y-158100000I-3100016J0D01*
G01*
D10*
X121179224Y-100752666D02*
X121125393Y-100803990D01*
X122893218Y-71602864D02*
X122824540Y-71571814D01*
X121417659Y-92425787D02*
X121482558Y-92463108D01*
X122141362Y-71451980D02*
X122062691Y-71457968D01*
D11*
X152032003Y-173460215D02*
X151984504Y-173520658D01*
D10*
X147456278Y-116843885D02*
X147560817Y-116696873D01*
X147831430Y-91064141D02*
X147748628Y-90902446D01*
X123649675Y-85096836D02*
X123618623Y-85028171D01*
X141341855Y-138606955D02*
X141446399Y-138754007D01*
X120720140Y-91487497D02*
X120741033Y-91561059D01*
X121179224Y-71852743D02*
X121125393Y-71904076D01*
X141154030Y-90902446D02*
X141071221Y-91064141D01*
X120689190Y-72764063D02*
X120679329Y-72841622D01*
D11*
X121949867Y-50002912D02*
X121949867Y-50002912D01*
D10*
X141799733Y-111948427D02*
X141675574Y-112078670D01*
X122457171Y-94968000D02*
X122379584Y-94958144D01*
X123769514Y-85620469D02*
X123763526Y-85541741D01*
X120765409Y-97033126D02*
X120793170Y-97103513D01*
D11*
X121949867Y-50002912D02*
X121951949Y-49920576D01*
X150749867Y-51602911D02*
X150749867Y-51602911D01*
X151767615Y-171268274D02*
X151825670Y-171318562D01*
D10*
X142825518Y-74160458D02*
X142991613Y-74235554D01*
X142207667Y-139515473D02*
X142354679Y-139620043D01*
X122141362Y-74548158D02*
X122221075Y-74550175D01*
X143161890Y-74302697D02*
X143336113Y-74361651D01*
D11*
X151825670Y-173687259D02*
X151767615Y-173737548D01*
D10*
X148032593Y-71895383D02*
X148083116Y-71717427D01*
X121482558Y-100537078D02*
X121417659Y-100574400D01*
X141341855Y-134413425D02*
X141244320Y-134565562D01*
D11*
X152331430Y-50246575D02*
X152317360Y-50325367D01*
X122267730Y-173460215D02*
X122223122Y-173397485D01*
X125432202Y-51600829D02*
X125349867Y-51602911D01*
D10*
X123649675Y-72396808D02*
X123618623Y-72328147D01*
X140720808Y-114216939D02*
X140706328Y-114407418D01*
X146695006Y-95695018D02*
X146836665Y-95583694D01*
X120824218Y-85028171D02*
X120793170Y-85096836D01*
X140706328Y-114407418D02*
X140701448Y-114600433D01*
D11*
X150993531Y-174084476D02*
X150913457Y-174094651D01*
X150993531Y-51584476D02*
X150913457Y-51594651D01*
D10*
X145740677Y-96212452D02*
X145910981Y-96145309D01*
D11*
X151825670Y-48818562D02*
X151881237Y-48871541D01*
D10*
X121482558Y-71637105D02*
X121417659Y-71674437D01*
X143161890Y-118122566D02*
X143336113Y-118181520D01*
D11*
X147667730Y-173460215D02*
X147623122Y-173397485D01*
X122107644Y-171809245D02*
X122142978Y-171740256D01*
D10*
X122457171Y-100367865D02*
X122379584Y-100358008D01*
X120702826Y-102212425D02*
X120720140Y-102287400D01*
X120673341Y-85620469D02*
X120671324Y-85700245D01*
X145207004Y-110926244D02*
X145022311Y-110893266D01*
X140744655Y-71351321D02*
X140777632Y-71535994D01*
X122300852Y-84152155D02*
X122221075Y-84150139D01*
X148083116Y-71717427D02*
X148124981Y-71535994D01*
X147102952Y-117251820D02*
X147227110Y-117121594D01*
D11*
X151443532Y-48560690D02*
X151512521Y-48596024D01*
D10*
X122062691Y-103441865D02*
X122141362Y-103447850D01*
D11*
X122000239Y-172103046D02*
X122021800Y-172027120D01*
D10*
X148181794Y-114983801D02*
X148196272Y-114793383D01*
X148083116Y-115537506D02*
X148124981Y-115356098D01*
X122300852Y-92648164D02*
X122379584Y-92642179D01*
X144067752Y-88959298D02*
X143880101Y-88983144D01*
X123087906Y-103185176D02*
X123148695Y-103141966D01*
X145910981Y-118055425D02*
X146077099Y-117980332D01*
D11*
X123549867Y-174102911D02*
X123467531Y-174100829D01*
D10*
X123701818Y-90639083D02*
X123677439Y-90567056D01*
X122379584Y-89557967D02*
X122300852Y-89551982D01*
D11*
X147400239Y-49603046D02*
X147421800Y-49527120D01*
D10*
X123368716Y-92142365D02*
X123417451Y-92086121D01*
D11*
X126481237Y-171371541D02*
X126534215Y-171427107D01*
D10*
X146395836Y-67573071D02*
X146238796Y-67482777D01*
X122682096Y-89619647D02*
X122608525Y-89598761D01*
X147973648Y-72069626D02*
X148032593Y-71895383D01*
X144644134Y-74525360D02*
X144834609Y-74510879D01*
D11*
X147507644Y-171809245D02*
X147542978Y-171740256D01*
D10*
X123584380Y-73738981D02*
X123618623Y-73672143D01*
D11*
X147992561Y-173785047D02*
X147932118Y-173737548D01*
D10*
X121760382Y-71519675D02*
X121688387Y-71544052D01*
X147227110Y-90168502D02*
X147102952Y-90038268D01*
X144451120Y-132760193D02*
X144258170Y-132765072D01*
D11*
X147581504Y-49173253D02*
X147623122Y-49108336D01*
D10*
X120702826Y-90787645D02*
X120689190Y-90863984D01*
D11*
X147382373Y-50325367D02*
X147368303Y-50246575D01*
D10*
X123722713Y-72612760D02*
X123701818Y-72539211D01*
D11*
X151767615Y-173737548D02*
X151707171Y-173785047D01*
D10*
X141557718Y-112214746D02*
X141446399Y-112356420D01*
X147748628Y-72567730D02*
X147831430Y-72406036D01*
D11*
X147358128Y-49839321D02*
X147368303Y-49759247D01*
X126949866Y-172502912D02*
X126949866Y-172502912D01*
D10*
X123024999Y-71674437D02*
X122960070Y-71637105D01*
X146395836Y-139717602D02*
X146547985Y-139620043D01*
X146395836Y-89482824D02*
X146238796Y-89392531D01*
X144834609Y-118330745D02*
X145022311Y-118306898D01*
D11*
X122592561Y-51285047D02*
X122532118Y-51237548D01*
D10*
X147748628Y-68992693D02*
X147658345Y-68835653D01*
X143695454Y-96363810D02*
X143880101Y-96396788D01*
D11*
X147507644Y-173196576D02*
X147475603Y-173125702D01*
X152347784Y-50085248D02*
X152341605Y-50166502D01*
X147382373Y-172825367D02*
X147368303Y-172746575D01*
D10*
X123368716Y-90057779D02*
X123317376Y-90003947D01*
X140996128Y-137969838D02*
X141071221Y-138135982D01*
D11*
X148120208Y-173871273D02*
X148055291Y-173829655D01*
D10*
X123618623Y-72328147D02*
X123584380Y-72261312D01*
X143336113Y-67198771D02*
X143161890Y-67257726D01*
D11*
X126824130Y-171880119D02*
X126852778Y-171952777D01*
X126676611Y-49108336D02*
X126718229Y-49173253D01*
X122999733Y-48500000D02*
X123074075Y-48474845D01*
D10*
X121985160Y-92632322D02*
X122062691Y-92642179D01*
X121985160Y-94968000D02*
X121908867Y-94981631D01*
D11*
X122720208Y-173871273D02*
X122655291Y-173829655D01*
D10*
X146836665Y-67886484D02*
X146695006Y-67775160D01*
X141799733Y-95341664D02*
X141929958Y-95465831D01*
X122457171Y-71467829D02*
X122379584Y-71457968D01*
X144834609Y-88959298D02*
X144644134Y-88944817D01*
X121549377Y-71602864D02*
X121482558Y-71637105D01*
D11*
X126481237Y-48871541D02*
X126534215Y-48927107D01*
D10*
X123317376Y-84604121D02*
X123263527Y-84552797D01*
X122300852Y-100352023D02*
X122221075Y-100350006D01*
D11*
X126792089Y-173196576D02*
X126756755Y-173265565D01*
X126947784Y-172420576D02*
X126949866Y-172502912D01*
X126584504Y-48985163D02*
X126632003Y-49045606D01*
D10*
X121235464Y-100703947D02*
X121179224Y-100752666D01*
X140701448Y-136509865D02*
X140706328Y-136702881D01*
D11*
X151225657Y-51530978D02*
X151149731Y-51552539D01*
D10*
X147658345Y-116544736D02*
X147748628Y-116387712D01*
D11*
X125972658Y-51477175D02*
X125900000Y-51505823D01*
X122223122Y-49108336D02*
X122267730Y-49045606D01*
D10*
X122893218Y-87097163D02*
X122960070Y-87062936D01*
D11*
X126584504Y-51020658D02*
X126534215Y-51078714D01*
X150913457Y-174094651D02*
X150832202Y-174100829D01*
D10*
X145910981Y-89234623D02*
X145740677Y-89167480D01*
X142506815Y-73987352D02*
X142663840Y-74077646D01*
D11*
X125825657Y-170974845D02*
X125900000Y-171000000D01*
X122075603Y-49380119D02*
X122107644Y-49309245D01*
X122315229Y-51020658D02*
X122267730Y-50960215D01*
D10*
X147973648Y-137799511D02*
X148032593Y-137625235D01*
D11*
X121982373Y-172180455D02*
X122000239Y-172103046D01*
D10*
X123417451Y-90114022D02*
X123368716Y-90057779D01*
D11*
X126179524Y-171134549D02*
X126244441Y-171176167D01*
D10*
X121294014Y-84458064D02*
X121235464Y-84504079D01*
X122960070Y-89737036D02*
X122893218Y-89702807D01*
X121417659Y-74325781D02*
X121482558Y-74363103D01*
X120673341Y-73079845D02*
X120679329Y-73158573D01*
D11*
X148399733Y-174005823D02*
X148327074Y-173977175D01*
X151443532Y-171060690D02*
X151512521Y-171096024D01*
D10*
X141244320Y-116544736D02*
X141341855Y-116696873D01*
X121549377Y-74397333D02*
X121618019Y-74428372D01*
D11*
X121968303Y-172259247D02*
X121982373Y-172180455D01*
D10*
X123701818Y-96961109D02*
X123722713Y-96887560D01*
X140870033Y-91574794D02*
X140819503Y-91752750D01*
X145388453Y-118232050D02*
X145566423Y-118181520D01*
X121985160Y-98032491D02*
X122062691Y-98042352D01*
D11*
X122365518Y-171427107D02*
X122418496Y-171371541D01*
D10*
X120679329Y-102058558D02*
X120689190Y-102136112D01*
D11*
X150832202Y-51600829D02*
X150749867Y-51602911D01*
X121958128Y-50166502D02*
X121951949Y-50085248D01*
X147358128Y-172339321D02*
X147368303Y-172259247D01*
D10*
X123024999Y-97825883D02*
X123087906Y-97785555D01*
X123753665Y-102136112D02*
X123763526Y-102058558D01*
X147344964Y-138895698D02*
X147456278Y-138754007D01*
X147831430Y-134884264D02*
X147748628Y-134722586D01*
D11*
X147874063Y-173687259D02*
X147818496Y-173634281D01*
X126877933Y-172027120D02*
X126899494Y-172103046D01*
X122592561Y-48720775D02*
X122655291Y-48676167D01*
D10*
X122960070Y-92463108D02*
X123024999Y-92425787D01*
X120793170Y-97103513D02*
X120824218Y-97172173D01*
X146972725Y-95465831D02*
X147102952Y-95341664D01*
X148032593Y-69665041D02*
X147973648Y-69490797D01*
X147227110Y-139031791D02*
X147344964Y-138895698D01*
X122608525Y-94998938D02*
X122533517Y-94981631D01*
X123263527Y-74147517D02*
X123317376Y-74096193D01*
X121618019Y-103328070D02*
X121688387Y-103355821D01*
X120689190Y-96264165D02*
X120679329Y-96341747D01*
X144258170Y-110854939D02*
X144067752Y-110869419D01*
X121074068Y-102942106D02*
X121125393Y-102995930D01*
X143514046Y-118232050D02*
X143695454Y-118273922D01*
X140706328Y-92882947D02*
X140720808Y-93073395D01*
X121025347Y-95514201D02*
X120979328Y-95572759D01*
X142066015Y-117493835D02*
X142207667Y-117605153D01*
X142991613Y-89234623D02*
X142825518Y-89309718D01*
X123087906Y-89814675D02*
X123024999Y-89774358D01*
X146972725Y-68004347D02*
X146836665Y-67886484D01*
X123740028Y-102212425D02*
X123753665Y-102136112D01*
X122754134Y-95044192D02*
X122682096Y-95019824D01*
X140870033Y-137625235D02*
X140928987Y-137799511D01*
X120689190Y-85936242D02*
X120702826Y-86012555D01*
D11*
X126941605Y-49839321D02*
X126947784Y-49920576D01*
X123150002Y-170953285D02*
X123227411Y-170935419D01*
X151934215Y-171427107D02*
X151984504Y-171485163D01*
D10*
X142663840Y-95987401D02*
X142825518Y-96070214D01*
X147658345Y-68835653D02*
X147560817Y-68683503D01*
D11*
X150832202Y-170904995D02*
X150913457Y-170911174D01*
D10*
X147560817Y-94786675D02*
X147658345Y-94634525D01*
D11*
X125672322Y-51570405D02*
X125593531Y-51584476D01*
D10*
X123463482Y-100972623D02*
X123417451Y-100914066D01*
X123763526Y-85858687D02*
X123769514Y-85779989D01*
D11*
X148706202Y-170921348D02*
X148786276Y-170911174D01*
X122315229Y-171485163D02*
X122365518Y-171427107D01*
D10*
X121760382Y-87180317D02*
X121833908Y-87201202D01*
X122457171Y-84167997D02*
X122379584Y-84158141D01*
X122379584Y-87241994D02*
X122457171Y-87232138D01*
X121354779Y-95214853D02*
X121294014Y-95258068D01*
X122893218Y-74397333D02*
X122960070Y-74363103D01*
X146695006Y-111595054D02*
X146547985Y-111490500D01*
D11*
X148550002Y-48453285D02*
X148627411Y-48435419D01*
D10*
X121235464Y-89903905D02*
X121179224Y-89952623D01*
D11*
X123306202Y-170921348D02*
X123386276Y-170911174D01*
X151881237Y-173634281D02*
X151825670Y-173687259D01*
D10*
X121760382Y-74480493D02*
X121833908Y-74501379D01*
X144067752Y-132779553D02*
X143880101Y-132803399D01*
D11*
X148256200Y-48560690D02*
X148327074Y-48528648D01*
D10*
X122062691Y-94958144D02*
X121985160Y-94968000D01*
X141675574Y-139031791D02*
X141799733Y-139162050D01*
X140701448Y-114600433D02*
X140706328Y-114793383D01*
X120793170Y-101296706D02*
X120765409Y-101367101D01*
D11*
X148949867Y-51602911D02*
X148949867Y-51602911D01*
D10*
X120824218Y-73672143D02*
X120858455Y-73738981D01*
X121760382Y-84219821D02*
X121688387Y-84244189D01*
X122533517Y-103418379D02*
X122608525Y-103401073D01*
X121833908Y-103401073D02*
X121908867Y-103418379D01*
D11*
X126949866Y-172502912D02*
X126947784Y-172585248D01*
D10*
X120689190Y-96736257D02*
X120702826Y-96812577D01*
X145022311Y-96396788D02*
X145207004Y-96363810D01*
D11*
X151984504Y-51020658D02*
X151934215Y-51078714D01*
X125593531Y-174084476D02*
X125513457Y-174094651D01*
X126931430Y-172746575D02*
X126917360Y-172825367D01*
X147351949Y-50085248D02*
X147349867Y-50002912D01*
D10*
X140744655Y-114029232D02*
X140720808Y-114216939D01*
X148032593Y-91574794D02*
X147973648Y-91400550D01*
X121235464Y-84504079D02*
X121179224Y-84552797D01*
D11*
X152277933Y-50478701D02*
X152252778Y-50553044D01*
D10*
X123763526Y-101741612D02*
X123753665Y-101664029D01*
X141929958Y-89914101D02*
X141799733Y-90038268D01*
X145022311Y-67073391D02*
X144834609Y-67049544D01*
X141929958Y-73556076D02*
X142066015Y-73673939D01*
X123769514Y-72920323D02*
X123763526Y-72841622D01*
X141341855Y-68683503D02*
X141244320Y-68835653D01*
X143514046Y-89057994D02*
X143336113Y-89108525D01*
X122062691Y-98042352D02*
X122141362Y-98048340D01*
X143336113Y-140091976D02*
X143514046Y-140142517D01*
X147344964Y-68394815D02*
X147227110Y-68258748D01*
X140870033Y-113485096D02*
X140819503Y-113663075D01*
X144258170Y-96435115D02*
X144451120Y-96439995D01*
D11*
X148327074Y-173977175D02*
X148256200Y-173945133D01*
X123549867Y-51602911D02*
X123549867Y-51602911D01*
D10*
X146695006Y-67775160D02*
X146547985Y-67670610D01*
X140870033Y-115715439D02*
X140928987Y-115889662D01*
X141929958Y-68004347D02*
X141799733Y-68128514D01*
X122221075Y-103449867D02*
X122300852Y-103447850D01*
X122300852Y-94952159D02*
X122221075Y-94950142D01*
X145910981Y-67324869D02*
X145740677Y-67257726D01*
D11*
X125749731Y-51552539D02*
X125672322Y-51570405D01*
X123227411Y-48435419D02*
X123306202Y-48421348D01*
D10*
X123771532Y-73000069D02*
X123769514Y-72920323D01*
X121025347Y-92086121D02*
X121074068Y-92142365D01*
D11*
X122856200Y-173945133D02*
X122787211Y-173909799D01*
X126112521Y-48596024D02*
X126179524Y-48634549D01*
D10*
X122379584Y-103441865D02*
X122457171Y-103432009D01*
D11*
X150913457Y-51594651D02*
X150832202Y-51600829D01*
D10*
X148157952Y-70209103D02*
X148124981Y-70024430D01*
X140996128Y-113140516D02*
X140928987Y-113310831D01*
X120702826Y-101587689D02*
X120689190Y-101664029D01*
D11*
X147446954Y-50553044D02*
X147421800Y-50478701D01*
D10*
X122960070Y-100537078D02*
X122893218Y-100502849D01*
X141675574Y-68258748D02*
X141557718Y-68394815D01*
D11*
X151984504Y-48985163D02*
X152032003Y-49045606D01*
X126584504Y-171485163D02*
X126632003Y-171545606D01*
D10*
X142354679Y-73889813D02*
X142506815Y-73987352D01*
X144451120Y-110850059D02*
X144258170Y-110854939D01*
X120679329Y-91258575D02*
X120689190Y-91336158D01*
X122608525Y-74501379D02*
X122682096Y-74480493D01*
X144834609Y-74510879D02*
X145022311Y-74487032D01*
X123722713Y-85312819D02*
X123701818Y-85239257D01*
D11*
X148867531Y-174100829D02*
X148786276Y-174094651D01*
X123549867Y-170902913D02*
X125349867Y-170902913D01*
D10*
X122824540Y-89671767D02*
X122754134Y-89644015D01*
D11*
X148706202Y-48421348D02*
X148786276Y-48411174D01*
D10*
X146836665Y-111706384D02*
X146695006Y-111595054D01*
X122300852Y-74548158D02*
X122379584Y-74542173D01*
X122379584Y-71457968D02*
X122300852Y-71451980D01*
D11*
X121949867Y-172502912D02*
X121949867Y-172502912D01*
X148949867Y-48402913D02*
X148949867Y-48402913D01*
X122107644Y-49309245D02*
X122142978Y-49240256D01*
X126307171Y-51285047D02*
X126244441Y-51329655D01*
D10*
X123677439Y-90567056D02*
X123649675Y-90496662D01*
D11*
X148949867Y-170902913D02*
X150749867Y-170902913D01*
X147765518Y-171427107D02*
X147818496Y-171371541D01*
D10*
X123207268Y-86896087D02*
X123263527Y-86847376D01*
X123263527Y-92247521D02*
X123317376Y-92196197D01*
X140720808Y-114983801D02*
X140744655Y-115171451D01*
X141557718Y-116985537D02*
X141675574Y-117121594D01*
X147973648Y-113310831D02*
X147906515Y-113140516D01*
X148083116Y-113663075D02*
X148032593Y-113485096D01*
D11*
X150749867Y-48402913D02*
X150832202Y-48404995D01*
X147932118Y-48768274D02*
X147992561Y-48720775D01*
X121968303Y-172746575D02*
X121958128Y-172666502D01*
D10*
X121125393Y-92196197D02*
X121179224Y-92247521D01*
X123148695Y-74242250D02*
X123207268Y-74196235D01*
X121549377Y-95102985D02*
X121482558Y-95137214D01*
X123618623Y-101228041D02*
X123584380Y-101161203D01*
D11*
X126043532Y-171060690D02*
X126112521Y-171096024D01*
D10*
X142663840Y-133212775D02*
X142506815Y-133303065D01*
X121760382Y-89619647D02*
X121688387Y-89644015D01*
X122062691Y-100358008D02*
X121985160Y-100367865D01*
D11*
X148474075Y-51530978D02*
X148399733Y-51505823D01*
X123549867Y-174102911D02*
X123549867Y-174102911D01*
D10*
X145388453Y-132878248D02*
X145207004Y-132836376D01*
D11*
X147581504Y-171673253D02*
X147623122Y-171608336D01*
X147351949Y-172420576D02*
X147358128Y-172339321D01*
D10*
X120765409Y-73533083D02*
X120793170Y-73603478D01*
X148157952Y-92118855D02*
X148124981Y-91934182D01*
X120765409Y-101367101D02*
X120741033Y-101439128D01*
X145740677Y-67257726D02*
X145566423Y-67198771D01*
X147227110Y-133988704D02*
X147102952Y-133858478D01*
X142825518Y-67399965D02*
X142663840Y-67482777D01*
X123771532Y-101900116D02*
X123769514Y-101820340D01*
X147456278Y-68536479D02*
X147344964Y-68394815D01*
X146547985Y-67670610D02*
X146395836Y-67573071D01*
D11*
X147765518Y-48927107D02*
X147818496Y-48871541D01*
X123227411Y-174070405D02*
X123150002Y-174052539D01*
X122142978Y-171740256D02*
X122181504Y-171673253D01*
D10*
X147560817Y-134413425D02*
X147456278Y-134266413D01*
D11*
X126852778Y-173053044D02*
X126824130Y-173125702D01*
D10*
X148083116Y-69842997D02*
X148032593Y-69665041D01*
X141341855Y-94786675D02*
X141446399Y-94933699D01*
D11*
X147818496Y-51134281D02*
X147765518Y-51078714D01*
D10*
X123753665Y-91336158D02*
X123763526Y-91258575D01*
D11*
X148256200Y-51445133D02*
X148187211Y-51409799D01*
X151934215Y-173578714D02*
X151881237Y-173634281D01*
D10*
X121417659Y-87025618D02*
X121482558Y-87062936D01*
D11*
X125825657Y-174030978D02*
X125749731Y-174052539D01*
D10*
X120979328Y-84772753D02*
X120936108Y-84833526D01*
D11*
X121968303Y-50246575D02*
X121958128Y-50166502D01*
X126917360Y-172825367D02*
X126899494Y-172902775D01*
D10*
X123701818Y-96039264D02*
X123677439Y-95967237D01*
X121294014Y-97742330D02*
X121354779Y-97785555D01*
D11*
X126917360Y-50325367D02*
X126899494Y-50402775D01*
D10*
X120979328Y-100972623D02*
X120936108Y-101033396D01*
X121908867Y-84181628D02*
X121833908Y-84198935D01*
X120858455Y-101161203D02*
X120824218Y-101228041D01*
X123317376Y-86796060D02*
X123368716Y-86742237D01*
X123649675Y-102503320D02*
X123677439Y-102432945D01*
X121294014Y-100657932D02*
X121235464Y-100703947D01*
D11*
X122720208Y-51371273D02*
X122655291Y-51329655D01*
X148786276Y-48411174D02*
X148867531Y-48404995D01*
D10*
X123763526Y-90941567D02*
X123753665Y-90863984D01*
X121833908Y-94998938D02*
X121760382Y-95019824D01*
D11*
X122474063Y-171318562D02*
X122532118Y-171268274D01*
X122021800Y-172027120D02*
X122046954Y-171952777D01*
X147667730Y-50960215D02*
X147623122Y-50897485D01*
D10*
X144067752Y-110869419D02*
X143880101Y-110893266D01*
X121417659Y-71674437D02*
X121354779Y-71714765D01*
X140819503Y-113663075D02*
X140777632Y-113844532D01*
D11*
X122655291Y-173829655D02*
X122592561Y-173785047D01*
X126877933Y-49527120D02*
X126899494Y-49603046D01*
D10*
X146077099Y-117980332D02*
X146238796Y-117897523D01*
X120679329Y-73158573D02*
X120689190Y-73236155D01*
X121833908Y-89598761D02*
X121760382Y-89619647D01*
X146238796Y-67482777D02*
X146077099Y-67399965D01*
X141154030Y-72567730D02*
X141244320Y-72724770D01*
X123677439Y-86233075D02*
X123701818Y-86161069D01*
X140777632Y-71535994D02*
X140819503Y-71717427D01*
X147906515Y-116059939D02*
X147973648Y-115889662D01*
D11*
X151300000Y-48500000D02*
X151372658Y-48528648D01*
D10*
X123771532Y-85700245D02*
X123769514Y-85620469D01*
X145910981Y-74235554D02*
X146077099Y-74160458D01*
X147906515Y-69320501D02*
X147831430Y-69154388D01*
X141071221Y-134884264D02*
X140996128Y-135050359D01*
X145740677Y-74302697D02*
X145910981Y-74235554D01*
X146972725Y-89914101D02*
X146836665Y-89796238D01*
X123417451Y-97486155D02*
X123463482Y-97427593D01*
D11*
X148706202Y-51584476D02*
X148627411Y-51570405D01*
X147421800Y-172027120D02*
X147446954Y-171952777D01*
D10*
X121549377Y-97897456D02*
X121618019Y-97928506D01*
X143695454Y-132836376D02*
X143514046Y-132878248D01*
X120741033Y-96961109D02*
X120765409Y-97033126D01*
X122457171Y-92632322D02*
X122533517Y-92618692D01*
X141799733Y-133858478D02*
X141675574Y-133988704D01*
D11*
X125513457Y-51594651D02*
X125432202Y-51600829D01*
D10*
X145388453Y-74412183D02*
X145566423Y-74361651D01*
D11*
X122315229Y-173520658D02*
X122267730Y-173460215D01*
D10*
X121760382Y-92580498D02*
X121833908Y-92601385D01*
X123769514Y-91179847D02*
X123771532Y-91100071D01*
X120824218Y-72328147D02*
X120793170Y-72396808D01*
X141446399Y-116843885D02*
X141557718Y-116985537D01*
D11*
X125900000Y-171000000D02*
X125972658Y-171028648D01*
X150993531Y-170921348D02*
X151072322Y-170935419D01*
D10*
X120741033Y-101439128D02*
X120720140Y-101512690D01*
D11*
X123074075Y-174030978D02*
X122999733Y-174005823D01*
D10*
X123763526Y-91258575D02*
X123769514Y-91179847D01*
X144451120Y-140260597D02*
X144644134Y-140255717D01*
D11*
X122181504Y-173332568D02*
X122142978Y-173265565D01*
X148474075Y-174030978D02*
X148399733Y-174005823D01*
X148949867Y-174102911D02*
X148867531Y-174100829D01*
X122474063Y-173687259D02*
X122418496Y-173634281D01*
X147715229Y-48985163D02*
X147765518Y-48927107D01*
D10*
X121985160Y-89567823D02*
X121908867Y-89581454D01*
D11*
X126043532Y-51445133D02*
X125972658Y-51477175D01*
X152299494Y-49603046D02*
X152317360Y-49680455D01*
X126632003Y-173460215D02*
X126584504Y-173520658D01*
D10*
X147560817Y-138606955D02*
X147658345Y-138454776D01*
D11*
X148187211Y-171096024D02*
X148256200Y-171060690D01*
D10*
X121294014Y-103141966D02*
X121354779Y-103185176D01*
D11*
X151372658Y-171028648D02*
X151443532Y-171060690D01*
D10*
X146077099Y-74160458D02*
X146238796Y-74077646D01*
D11*
X122181504Y-49173253D02*
X122223122Y-49108336D01*
D10*
X148181794Y-70396781D02*
X148157952Y-70209103D01*
X140870033Y-135394859D02*
X140819503Y-135572792D01*
X157299917Y-175499992D02*
X157299917Y-47000000D01*
D11*
X150749867Y-170902913D02*
X150832202Y-170904995D01*
X125349867Y-170902913D02*
X125432202Y-170904995D01*
X126244441Y-51329655D02*
X126179524Y-51371273D01*
D10*
X147102952Y-139162050D02*
X147227110Y-139031791D01*
X142825518Y-89309718D02*
X142663840Y-89392531D01*
X147831430Y-94315790D02*
X147906515Y-94149677D01*
D11*
X151707171Y-51285047D02*
X151644441Y-51329655D01*
D10*
X140996128Y-72239923D02*
X141071221Y-72406036D01*
X123677439Y-97033126D02*
X123701818Y-96961109D01*
X147102952Y-73431909D02*
X147227110Y-73301675D01*
D11*
X123549867Y-51602911D02*
X123467531Y-51600829D01*
D10*
X120858455Y-73738981D02*
X120895784Y-73803895D01*
X146836665Y-95583694D02*
X146972725Y-95465831D01*
D11*
X125432202Y-174100829D02*
X125349867Y-174102911D01*
D10*
X145566423Y-67198771D02*
X145388453Y-67148240D01*
X147906515Y-113140516D02*
X147831430Y-112974385D01*
D11*
X152317360Y-172180455D02*
X152331430Y-172259247D01*
X122142978Y-49240256D02*
X122181504Y-49173253D01*
D10*
X147102952Y-95341664D02*
X147227110Y-95211430D01*
D11*
X126676611Y-50897485D02*
X126632003Y-50960215D01*
X126899494Y-172103046D02*
X126917360Y-172180455D01*
X125900000Y-48500000D02*
X125972658Y-48528648D01*
D10*
X141244320Y-112655620D02*
X141154030Y-112812674D01*
D11*
X126877933Y-172978701D02*
X126852778Y-173053044D01*
X126852778Y-49452777D02*
X126877933Y-49527120D01*
D10*
X120824218Y-91772146D02*
X120858455Y-91838984D01*
X121354779Y-92385469D02*
X121417659Y-92425787D01*
X121482558Y-87062936D02*
X121549377Y-87097163D01*
X142991613Y-133054873D02*
X142825518Y-133129966D01*
X120671324Y-101900116D02*
X120673341Y-101979860D01*
X140928987Y-72069626D02*
X140996128Y-72239923D01*
X148124981Y-113844532D02*
X148083116Y-113663075D01*
X145388453Y-110968116D02*
X145207004Y-110926244D01*
D11*
X125432202Y-170904995D02*
X125513457Y-170911174D01*
D10*
X148157952Y-71351321D02*
X148181794Y-71163643D01*
D11*
X125900000Y-51505823D02*
X125825657Y-51530978D01*
D10*
X122062691Y-84158141D02*
X121985160Y-84167997D01*
D11*
X122592561Y-173785047D02*
X122532118Y-173737548D01*
D10*
X121833908Y-98001540D02*
X121908867Y-98018854D01*
X141154030Y-112812674D02*
X141071221Y-112974385D01*
D11*
X148706202Y-174084476D02*
X148627411Y-174070405D01*
D10*
X142991613Y-96145309D02*
X143161890Y-96212452D01*
X144644134Y-96435115D02*
X144834609Y-96420635D01*
X144834609Y-132779553D02*
X144644134Y-132765072D01*
X120936108Y-86566697D02*
X120979328Y-86627458D01*
X140706328Y-136316915D02*
X140701448Y-136509865D01*
X122754134Y-74456125D02*
X122824540Y-74428372D01*
X121833908Y-92601385D02*
X121908867Y-92618692D01*
D11*
X150993531Y-48421348D02*
X151072322Y-48435419D01*
D10*
X121549377Y-89702807D02*
X121482558Y-89737036D01*
X120720140Y-96112826D02*
X120702826Y-96187825D01*
X140720808Y-70396781D02*
X140706328Y-70587230D01*
X121985160Y-71467829D02*
X121908867Y-71481466D01*
X147456278Y-138754007D02*
X147560817Y-138606955D01*
X117000000Y-175499992D02*
X157299917Y-175499992D01*
D11*
X125349867Y-170902913D02*
X125349867Y-170902913D01*
X152277933Y-172027120D02*
X152299494Y-172103046D01*
D10*
X145566423Y-89108525D02*
X145388453Y-89057994D01*
D11*
X147623122Y-173397485D02*
X147581504Y-173332568D01*
D10*
X145740677Y-111077604D02*
X145566423Y-111018648D01*
X143514046Y-110968116D02*
X143336113Y-111018648D01*
D11*
X147818496Y-171371541D02*
X147874063Y-171318562D01*
X147992561Y-48720775D02*
X148055291Y-48676167D01*
D10*
X122457171Y-103432009D02*
X122533517Y-103418379D01*
D11*
X123549867Y-170902913D02*
X123549867Y-170902913D01*
D10*
X145207004Y-74454055D02*
X145388453Y-74412183D01*
D11*
X152224130Y-173125702D02*
X152192089Y-173196576D01*
X152347784Y-172585248D02*
X152341605Y-172666502D01*
X152252778Y-50553044D02*
X152224130Y-50625702D01*
D10*
X123584380Y-97239009D02*
X123618623Y-97172173D01*
D11*
X152331430Y-172746575D02*
X152317360Y-172825367D01*
D10*
X121688387Y-97956268D02*
X121760382Y-97980646D01*
X120741033Y-85239257D02*
X120720140Y-85312819D01*
X141341855Y-90593257D02*
X141244320Y-90745407D01*
D11*
X122418496Y-48871541D02*
X122474063Y-48818562D01*
X148399733Y-48500000D02*
X148474075Y-48474845D01*
D10*
X146547985Y-139620043D02*
X146695006Y-139515473D01*
D11*
X122999733Y-51505823D02*
X122927074Y-51477175D01*
X147475603Y-50625702D02*
X147446954Y-50553044D01*
D10*
X122533517Y-94981631D02*
X122457171Y-94968000D01*
X142354679Y-95799568D02*
X142506815Y-95897108D01*
X120741033Y-86161069D02*
X120765409Y-86233075D01*
X120793170Y-102503320D02*
X120824218Y-102571967D01*
X147227110Y-73301675D02*
X147344964Y-73165608D01*
X148181794Y-92306534D02*
X148157952Y-92118855D01*
X121688387Y-92556130D02*
X121760382Y-92580498D01*
X157299917Y-47000000D02*
X117000000Y-47000000D01*
X142354679Y-111490500D02*
X142207667Y-111595054D01*
X121125393Y-74096193D02*
X121179224Y-74147517D01*
X121074068Y-95457958D02*
X121025347Y-95514201D01*
X141446399Y-138754007D02*
X141557718Y-138895698D01*
D11*
X122046954Y-171952777D02*
X122075603Y-171880119D01*
X148120208Y-171134549D02*
X148187211Y-171096024D01*
D10*
X122893218Y-100502849D02*
X122824540Y-100471809D01*
X122824540Y-74428372D02*
X122893218Y-74397333D01*
D11*
X126718229Y-49173253D02*
X126756755Y-49240256D01*
X147349867Y-50002912D02*
X147349867Y-50002912D01*
D10*
X140701448Y-70780212D02*
X140706328Y-70973195D01*
X123677439Y-101367101D02*
X123649675Y-101296706D01*
X120824218Y-97172173D02*
X120858455Y-97239009D01*
D11*
X151072322Y-48435419D02*
X151149731Y-48453285D01*
X152156755Y-173265565D02*
X152118229Y-173332568D01*
D10*
X148181794Y-114216939D02*
X148157952Y-114029232D01*
X123207268Y-89903905D02*
X123148695Y-89857890D01*
D11*
X147581504Y-173332568D02*
X147542978Y-173265565D01*
D10*
X122062691Y-87241994D02*
X122141362Y-87247979D01*
D11*
X122999733Y-174005823D02*
X122927074Y-173977175D01*
D10*
X142506815Y-95897108D02*
X142663840Y-95987401D01*
X121074068Y-92142365D02*
X121125393Y-92196197D01*
X123417451Y-95514201D02*
X123368716Y-95457958D01*
X123148695Y-86942096D02*
X123207268Y-86896087D01*
X120895784Y-73803895D02*
X120936108Y-73866787D01*
X123677439Y-102432945D02*
X123701818Y-102360939D01*
D11*
X123074075Y-51530978D02*
X122999733Y-51505823D01*
D10*
X123753665Y-85936242D02*
X123763526Y-85858687D01*
D11*
X122787211Y-48596024D02*
X122856200Y-48560690D01*
D10*
X146077099Y-96070214D02*
X146238796Y-95987401D01*
X140996128Y-91230254D02*
X140928987Y-91400550D01*
D11*
X123386276Y-170911174D02*
X123467531Y-170904995D01*
D10*
X123649675Y-101296706D02*
X123618623Y-101228041D01*
X121294014Y-89857890D02*
X121235464Y-89903905D01*
X121417659Y-84374532D02*
X121354779Y-84414849D01*
X122608525Y-103401073D02*
X122682096Y-103380187D01*
X120858455Y-91838984D02*
X120895784Y-91903898D01*
X123506712Y-91966791D02*
X123547044Y-91903898D01*
X123547044Y-90296245D02*
X123506712Y-90233352D01*
X120895784Y-90296245D02*
X120858455Y-90361158D01*
X121354779Y-89814675D02*
X121294014Y-89857890D01*
X146836665Y-89796238D02*
X146695006Y-89684914D01*
D11*
X126112521Y-173909799D02*
X126043532Y-173945133D01*
D10*
X145207004Y-67106368D02*
X145022311Y-67073391D01*
X123024999Y-74325781D02*
X123087906Y-74285465D01*
X142066015Y-139404127D02*
X142207667Y-139515473D01*
X122608525Y-71498780D02*
X122533517Y-71481466D01*
D11*
X126792089Y-49309245D02*
X126824130Y-49380119D01*
D10*
X143695454Y-140184397D02*
X143880101Y-140217381D01*
D11*
X123306202Y-48421348D02*
X123386276Y-48411174D01*
D10*
X146077099Y-67399965D02*
X145910981Y-67324869D01*
X120673341Y-72920323D02*
X120671324Y-73000069D01*
X123722713Y-90712645D02*
X123701818Y-90639083D01*
X120895784Y-95696424D02*
X120858455Y-95761338D01*
X120936108Y-91966791D02*
X120979328Y-92027564D01*
X140744655Y-93261074D02*
X140777632Y-93445748D01*
X141929958Y-95465831D02*
X142066015Y-95583694D01*
X122608525Y-100398802D02*
X122533517Y-100381495D01*
X120895784Y-101096289D02*
X120858455Y-101161203D01*
X145207004Y-140184397D02*
X145388453Y-140142517D01*
D11*
X152347784Y-49920576D02*
X152349866Y-50002912D01*
X122532118Y-48768274D02*
X122592561Y-48720775D01*
X152341605Y-50166502D02*
X152331430Y-50246575D01*
D10*
X147748628Y-90902446D02*
X147658345Y-90745407D01*
X143161890Y-132987732D02*
X142991613Y-133054873D01*
X121618019Y-100471809D02*
X121549377Y-100502849D01*
X142207667Y-133505145D02*
X142066015Y-133616463D01*
D11*
X151767615Y-48768274D02*
X151825670Y-48818562D01*
D10*
X140720808Y-71163643D02*
X140744655Y-71351321D01*
D11*
X122142978Y-173265565D02*
X122107644Y-173196576D01*
X125825657Y-51530978D02*
X125749731Y-51552539D01*
D10*
X120689190Y-91336158D02*
X120702826Y-91412497D01*
X121074068Y-90057779D02*
X121025347Y-90114022D01*
D11*
X122267730Y-49045606D02*
X122315229Y-48985163D01*
X152118229Y-171673253D02*
X152156755Y-171740256D01*
X147667730Y-49045606D02*
X147715229Y-48985163D01*
D10*
X123087906Y-97785555D02*
X123148695Y-97742330D01*
X123506712Y-73866787D02*
X123547044Y-73803895D01*
X121025347Y-102885873D02*
X121074068Y-102942106D01*
D11*
X126367615Y-48768274D02*
X126425670Y-48818562D01*
X152317360Y-50325367D02*
X152299494Y-50402775D01*
D10*
X121179224Y-84552797D02*
X121125393Y-84604121D01*
X147906515Y-94149677D02*
X147973648Y-93979380D01*
X143336113Y-111018648D02*
X143161890Y-111077604D01*
X120689190Y-102136112D02*
X120702826Y-102212425D01*
X120702826Y-91412497D02*
X120720140Y-91487497D01*
X120720140Y-73387494D02*
X120741033Y-73461056D01*
X145388453Y-140142517D02*
X145566423Y-140091976D01*
D11*
X126756755Y-50765565D02*
X126718229Y-50832568D01*
D10*
X144451120Y-67030184D02*
X144258170Y-67035063D01*
X123317376Y-90003947D02*
X123263527Y-89952623D01*
X123769514Y-101820340D02*
X123763526Y-101741612D01*
X121294014Y-74242250D02*
X121354779Y-74285465D01*
X121235464Y-74196235D02*
X121294014Y-74242250D01*
D11*
X122592561Y-171220775D02*
X122655291Y-171176167D01*
D10*
X122960070Y-87062936D02*
X123024999Y-87025618D01*
X121482558Y-103262807D02*
X121549377Y-103297033D01*
X141675574Y-133988704D02*
X141557718Y-134124761D01*
X143161890Y-140033009D02*
X143336113Y-140091976D01*
X122300852Y-98048340D02*
X122379584Y-98042352D01*
X146972725Y-111824253D02*
X146836665Y-111706384D01*
X120679329Y-85541741D02*
X120673341Y-85620469D01*
X121908867Y-87218508D02*
X121985160Y-87232138D01*
X146395836Y-95897108D02*
X146547985Y-95799568D01*
X123584380Y-102638789D02*
X123618623Y-102571967D01*
X145388453Y-96321938D02*
X145566423Y-96271407D01*
X123763526Y-72841622D02*
X123753665Y-72764063D01*
X122754134Y-89644015D02*
X122682096Y-89619647D01*
X141675574Y-117121594D02*
X141799733Y-117251820D01*
X121025347Y-73986117D02*
X121074068Y-74042361D01*
D11*
X121949867Y-50002912D02*
X121949867Y-50002912D01*
D10*
X123148695Y-95258068D02*
X123087906Y-95214853D01*
X142825518Y-139890742D02*
X142991613Y-139965852D01*
X123024999Y-84374532D02*
X122960070Y-84337210D01*
X141557718Y-90304569D02*
X141446399Y-90446232D01*
D11*
X151225657Y-170974845D02*
X151300000Y-171000000D01*
X150749867Y-174102911D02*
X148949867Y-174102911D01*
D10*
X146395836Y-117807233D02*
X146547985Y-117709697D01*
X120679329Y-96341747D02*
X120673341Y-96420476D01*
D11*
X126877933Y-50478701D02*
X126852778Y-50553044D01*
D10*
X122682096Y-100419688D02*
X122608525Y-100398802D01*
X147102952Y-111948427D02*
X146972725Y-111824253D01*
X120979328Y-90172579D02*
X120936108Y-90233352D01*
D11*
X123549867Y-48402913D02*
X125349867Y-48402913D01*
D10*
X148032593Y-137625235D02*
X148083116Y-137447246D01*
X120936108Y-97366816D02*
X120979328Y-97427593D01*
X145207004Y-96363810D02*
X145388453Y-96321938D01*
X143880101Y-132803399D02*
X143695454Y-132836376D01*
X121908867Y-74518686D02*
X121985160Y-74532316D01*
X120936108Y-90233352D02*
X120895784Y-90296245D01*
X146238796Y-117897523D02*
X146395836Y-117807233D01*
X141446399Y-134266413D02*
X141341855Y-134413425D01*
D11*
X126043532Y-173945133D02*
X125972658Y-173977175D01*
D10*
X144451120Y-96439995D02*
X144644134Y-96435115D01*
D11*
X122107644Y-50696576D02*
X122075603Y-50625702D01*
X147368303Y-50246575D02*
X147358128Y-50166502D01*
X147874063Y-51187259D02*
X147818496Y-51134281D01*
X126931430Y-49759247D02*
X126941605Y-49839321D01*
D10*
X123463482Y-72072728D02*
X123417451Y-72014166D01*
D11*
X122532118Y-51237548D02*
X122474063Y-51187259D01*
D10*
X123148695Y-100657932D02*
X123087906Y-100614717D01*
X142663840Y-139807913D02*
X142825518Y-139890742D01*
X121125393Y-90003947D02*
X121074068Y-90057779D01*
X123024999Y-92425787D02*
X123087906Y-92385469D01*
D11*
X126917360Y-49680455D02*
X126931430Y-49759247D01*
D10*
X142991613Y-139965852D02*
X143161890Y-140033009D01*
X123024999Y-103225488D02*
X123087906Y-103185176D01*
X145207004Y-118273922D02*
X145388453Y-118232050D01*
X148124981Y-93445748D02*
X148157952Y-93261074D01*
X122221075Y-74550175D02*
X122300852Y-74548158D01*
X123769514Y-96579997D02*
X123771532Y-96500252D01*
D11*
X123306202Y-51584476D02*
X123227411Y-51570405D01*
D10*
X140706328Y-92496982D02*
X140701448Y-92689964D01*
X121985160Y-103432009D02*
X122062691Y-103441865D01*
X122960070Y-95137214D02*
X122893218Y-95102985D01*
X122300852Y-103447850D02*
X122379584Y-103441865D01*
X120858455Y-95761338D02*
X120824218Y-95828177D01*
X120671324Y-85700245D02*
X120673341Y-85779989D01*
D11*
X126367615Y-51237548D02*
X126307171Y-51285047D01*
D10*
X123753665Y-96264165D02*
X123740028Y-96187825D01*
D11*
X126425670Y-51187259D02*
X126367615Y-51237548D01*
X122365518Y-173578714D02*
X122315229Y-173520658D01*
X121949867Y-172502912D02*
X121951949Y-172420576D01*
X122856200Y-51445133D02*
X122787211Y-51409799D01*
D10*
X140701448Y-92689964D02*
X140706328Y-92882947D01*
X122682096Y-87180317D02*
X122754134Y-87155950D01*
X141154030Y-138297707D02*
X141244320Y-138454776D01*
X142354679Y-67670610D02*
X142207667Y-67775160D01*
X121179224Y-95352802D02*
X121125393Y-95404126D01*
D11*
X121968303Y-49759247D02*
X121982373Y-49680455D01*
X150913457Y-48411174D02*
X150993531Y-48421348D01*
D10*
X123263527Y-84552797D02*
X123207268Y-84504079D01*
X141154030Y-68992693D02*
X141071221Y-69154388D01*
D11*
X147715229Y-173520658D02*
X147667730Y-173460215D01*
X151300000Y-171000000D02*
X151372658Y-171028648D01*
D10*
X122608525Y-98001540D02*
X122682096Y-97980646D01*
X143880101Y-140217381D02*
X144067752Y-140241233D01*
D11*
X123467531Y-48404995D02*
X123549867Y-48402913D01*
X121982373Y-172825367D02*
X121968303Y-172746575D01*
D10*
X123618623Y-73672143D02*
X123649675Y-73603478D01*
X123024999Y-95174536D02*
X122960070Y-95137214D01*
X121125393Y-84604121D02*
X121074068Y-84657953D01*
D11*
X148949867Y-170902913D02*
X148949867Y-170902913D01*
D10*
X144834609Y-140241233D02*
X145022311Y-140217381D01*
D11*
X148949867Y-48402913D02*
X148949867Y-48402913D01*
D10*
X123701818Y-91561059D02*
X123722713Y-91487497D01*
X142506815Y-117807233D02*
X142663840Y-117897523D01*
X122379584Y-98042352D02*
X122457171Y-98032491D01*
X121549377Y-87097163D02*
X121618019Y-87128200D01*
D11*
X126425670Y-171318562D02*
X126481237Y-171371541D01*
X148055291Y-173829655D02*
X147992561Y-173785047D01*
X126632003Y-49045606D02*
X126676611Y-49108336D01*
D10*
X123024999Y-100574400D02*
X122960070Y-100537078D01*
D11*
X152032003Y-49045606D02*
X152076611Y-49108336D01*
D10*
X120824218Y-90427997D02*
X120793170Y-90496662D01*
X147344964Y-134124761D02*
X147227110Y-133988704D01*
D11*
X125593531Y-51584476D02*
X125513457Y-51594651D01*
X151579524Y-48634549D02*
X151644441Y-48676167D01*
D10*
X121074068Y-86742237D02*
X121125393Y-86796060D01*
X121985160Y-84167997D02*
X121908867Y-84181628D01*
D11*
X150749867Y-170902913D02*
X150749867Y-170902913D01*
D10*
X123463482Y-97427593D02*
X123506712Y-97366816D01*
D11*
X152192089Y-49309245D02*
X152224130Y-49380119D01*
D10*
X145566423Y-118181520D02*
X145740677Y-118122566D01*
X147831430Y-138135982D02*
X147906515Y-137969838D01*
X121618019Y-84271941D02*
X121549377Y-84302981D01*
X146395836Y-73987352D02*
X146547985Y-73889813D01*
X123722713Y-102287400D02*
X123740028Y-102212425D01*
X147102952Y-133858478D02*
X146972725Y-133734320D01*
X147906515Y-137969838D02*
X147973648Y-137799511D01*
X120673341Y-91020295D02*
X120671324Y-91100071D01*
D11*
X125349867Y-48402913D02*
X125349867Y-48402913D01*
D10*
X141071221Y-72406036D02*
X141154030Y-72567730D01*
X123317376Y-71904076D02*
X123263527Y-71852743D01*
D11*
X125513457Y-174094651D02*
X125432202Y-174100829D01*
D10*
X123207268Y-92296239D02*
X123263527Y-92247521D01*
X121074068Y-84657953D02*
X121025347Y-84714196D01*
X123207268Y-97696305D02*
X123263527Y-97647577D01*
D11*
X152252778Y-49452777D02*
X152277933Y-49527120D01*
X126852778Y-50553044D02*
X126824130Y-50625702D01*
D10*
X141446399Y-90446232D02*
X141341855Y-90593257D01*
D11*
X152349866Y-172502912D02*
X152349866Y-172502912D01*
D10*
X122221075Y-87249996D02*
X122300852Y-87247979D01*
X142354679Y-133400600D02*
X142207667Y-133505145D01*
X122141362Y-84152155D02*
X122062691Y-84158141D01*
D11*
X123467531Y-170904995D02*
X123549867Y-170902913D01*
X148627411Y-48435419D02*
X148706202Y-48421348D01*
D10*
X122221075Y-71449963D02*
X122141362Y-71451980D01*
D11*
X122418496Y-173634281D02*
X122365518Y-173578714D01*
D10*
X123463482Y-86627458D02*
X123506712Y-86566697D01*
X120679329Y-90941567D02*
X120673341Y-91020295D01*
X120936108Y-72133504D02*
X120895784Y-72196398D01*
X141446399Y-94933699D02*
X141557718Y-95075363D01*
D11*
X147351949Y-49920576D02*
X147358128Y-49839321D01*
D10*
X123148695Y-84458064D02*
X123087906Y-84414849D01*
D11*
X151149731Y-170953285D02*
X151225657Y-170974845D01*
X122787211Y-51409799D02*
X122720208Y-51371273D01*
D10*
X146547985Y-73889813D02*
X146695006Y-73785263D01*
X144451120Y-74530239D02*
X144644134Y-74525360D01*
D11*
X148867531Y-48404995D02*
X148949867Y-48402913D01*
D10*
X121908867Y-89581454D02*
X121833908Y-89598761D01*
D11*
X122181504Y-50832568D02*
X122142978Y-50765565D01*
X152349866Y-50002912D02*
X152347784Y-50085248D01*
X152331430Y-172259247D02*
X152341605Y-172339321D01*
X152192089Y-50696576D02*
X152156755Y-50765565D01*
D10*
X141244320Y-90745407D02*
X141154030Y-90902446D01*
X123701818Y-86161069D02*
X123722713Y-86087530D01*
X122533517Y-92618692D02*
X122608525Y-92601385D01*
X148157952Y-114029232D02*
X148124981Y-113844532D01*
X144067752Y-67049544D02*
X143880101Y-67073391D01*
X143336113Y-132928778D02*
X143161890Y-132987732D01*
D11*
X148949867Y-51602911D02*
X148867531Y-51600829D01*
X151225657Y-174030978D02*
X151149731Y-174052539D01*
X150832202Y-48404995D02*
X150913457Y-48411174D01*
D10*
X120679329Y-101741612D02*
X120673341Y-101820340D01*
X123148695Y-97742330D02*
X123207268Y-97696305D01*
X120936108Y-101033396D02*
X120895784Y-101096289D01*
D11*
X152118229Y-173332568D02*
X152076611Y-173397485D01*
D10*
X122062691Y-71457968D02*
X121985160Y-71467829D01*
X123087906Y-95214853D02*
X123024999Y-95174536D01*
D11*
X126949866Y-172502912D02*
X126949866Y-172502912D01*
X147932118Y-171268274D02*
X147992561Y-171220775D01*
X152252778Y-173053044D02*
X152224130Y-173125702D01*
D10*
X123368716Y-95457958D02*
X123317376Y-95404126D01*
D11*
X122787211Y-173909799D02*
X122720208Y-173871273D01*
D10*
X123087906Y-92385469D02*
X123148695Y-92342255D01*
X120741033Y-90639083D02*
X120720140Y-90712645D01*
D11*
X126947784Y-172585248D02*
X126941605Y-172666502D01*
D10*
X147658345Y-72724770D02*
X147748628Y-72567730D01*
X143161890Y-67257726D02*
X142991613Y-67324869D01*
X144258170Y-67035063D02*
X144067752Y-67049544D01*
D11*
X126481237Y-51134281D02*
X126425670Y-51187259D01*
X147667730Y-171545606D02*
X147715229Y-171485163D01*
D10*
X122300852Y-71451980D02*
X122221075Y-71449963D01*
X120895784Y-91903898D02*
X120936108Y-91966791D01*
D11*
X126949866Y-50002912D02*
X126949866Y-50002912D01*
D10*
X146695006Y-73785263D02*
X146836665Y-73673939D01*
X120671324Y-91100071D02*
X120673341Y-91179847D01*
X146972725Y-133734320D02*
X146836665Y-133616463D01*
X147560817Y-112503457D02*
X147456278Y-112356420D01*
X123024999Y-89774358D02*
X122960070Y-89737036D01*
X141675574Y-90168502D02*
X141557718Y-90304569D01*
X121688387Y-87155950D02*
X121760382Y-87180317D01*
X144258170Y-140255717D02*
X144451120Y-140260597D01*
D11*
X151707171Y-171220775D02*
X151767615Y-171268274D01*
D10*
X141799733Y-68128514D02*
X141675574Y-68258748D01*
D11*
X121982373Y-50325367D02*
X121968303Y-50246575D01*
D10*
X121688387Y-71544052D02*
X121618019Y-71571814D01*
X120895784Y-72196398D02*
X120858455Y-72261312D01*
D11*
X152349866Y-172502912D02*
X152349866Y-172502912D01*
D10*
X120720140Y-102287400D02*
X120741033Y-102360939D01*
X120741033Y-73461056D02*
X120765409Y-73533083D01*
X123722713Y-96112826D02*
X123701818Y-96039264D01*
X141557718Y-95075363D02*
X141675574Y-95211430D01*
X146836665Y-133616463D02*
X146695006Y-133505145D01*
X123584380Y-72261312D02*
X123547044Y-72196398D01*
X120702826Y-86012555D02*
X120720140Y-86087530D01*
X140819503Y-93627180D02*
X140870033Y-93805136D01*
D11*
X147349867Y-50002912D02*
X147349867Y-50002912D01*
X121951949Y-50085248D02*
X121949867Y-50002912D01*
D10*
X123207268Y-100703947D02*
X123148695Y-100657932D01*
D11*
X125825657Y-48474845D02*
X125900000Y-48500000D01*
D10*
X121688387Y-100444056D02*
X121618019Y-100471809D01*
D11*
X126676611Y-171608336D02*
X126718229Y-171673253D01*
D10*
X121074068Y-74042361D02*
X121125393Y-74096193D01*
X122824540Y-92528378D02*
X122893218Y-92497338D01*
X123463482Y-102827327D02*
X123506712Y-102766566D01*
D11*
X152224130Y-49380119D02*
X152252778Y-49452777D01*
D10*
X147560817Y-72876920D02*
X147658345Y-72724770D01*
X120936108Y-84833526D02*
X120895784Y-84896419D01*
X141557718Y-68394815D02*
X141446399Y-68536479D01*
D11*
X151072322Y-170935419D02*
X151149731Y-170953285D01*
D10*
X146695006Y-133505145D02*
X146547985Y-133400600D01*
D11*
X121949867Y-172502912D02*
X121949867Y-172502912D01*
D10*
X145022311Y-140217381D02*
X145207004Y-140184397D01*
D11*
X126534215Y-171427107D02*
X126584504Y-171485163D01*
D10*
X121354779Y-100614717D02*
X121294014Y-100657932D01*
X145566423Y-140091976D02*
X145740677Y-140033009D01*
D11*
X122655291Y-51329655D02*
X122592561Y-51285047D01*
X125513457Y-170911174D02*
X125593531Y-170921348D01*
D10*
X147973648Y-115889662D02*
X148032593Y-115715439D01*
X142066015Y-89796238D02*
X141929958Y-89914101D01*
D11*
X148550002Y-170953285D02*
X148627411Y-170935419D01*
D10*
X121482558Y-84337210D02*
X121417659Y-84374532D01*
D11*
X122532118Y-173737548D02*
X122474063Y-173687259D01*
D10*
X120720140Y-72612760D02*
X120702826Y-72687743D01*
X121025347Y-72014166D02*
X120979328Y-72072728D01*
X122221075Y-92650181D02*
X122300852Y-92648164D01*
X123148695Y-89857890D02*
X123087906Y-89814675D01*
X143161890Y-89167480D02*
X142991613Y-89234623D01*
D11*
X147368303Y-172746575D02*
X147358128Y-172666502D01*
D10*
X142207667Y-111595054D02*
X142066015Y-111706384D01*
D11*
X151934215Y-51078714D02*
X151881237Y-51134281D01*
D10*
X123740028Y-96812577D02*
X123753665Y-96736257D01*
X123722713Y-73387494D02*
X123740028Y-73312495D01*
D11*
X151881237Y-171371541D02*
X151934215Y-171427107D01*
X147475603Y-49380119D02*
X147507644Y-49309245D01*
X122075603Y-171880119D02*
X122107644Y-171809245D01*
D10*
X121833908Y-74501379D02*
X121908867Y-74518686D01*
D11*
X127230016Y-114600000D02*
G75*
G03*
X127230016Y-114600000I-3100016J0D01*
G01*
D10*
X123547044Y-73803895D02*
X123584380Y-73738981D01*
X123677439Y-95967237D02*
X123649675Y-95896842D01*
D11*
X147382373Y-172180455D02*
X147400239Y-172103046D01*
D10*
X148032593Y-93805136D02*
X148083116Y-93627180D01*
X123618623Y-102571967D02*
X123649675Y-102503320D01*
X120741033Y-102360939D02*
X120765409Y-102432945D01*
X122457171Y-98032491D02*
X122533517Y-98018854D01*
X123317376Y-97596244D02*
X123368716Y-97542404D01*
X122608525Y-84198935D02*
X122533517Y-84181628D01*
X122141362Y-103447850D02*
X122221075Y-103449867D01*
X123207268Y-84504079D02*
X123148695Y-84458064D01*
X123753665Y-73236155D02*
X123763526Y-73158573D01*
D11*
X122927074Y-48528648D02*
X122999733Y-48500000D01*
D10*
X141244320Y-138454776D02*
X141341855Y-138606955D01*
D11*
X126899494Y-49603046D02*
X126917360Y-49680455D01*
X122365518Y-51078714D02*
X122315229Y-51020658D01*
D10*
X123417451Y-73986117D02*
X123463482Y-73927560D01*
D11*
X151644441Y-173829655D02*
X151579524Y-173871273D01*
D10*
X148083116Y-137447246D02*
X148124981Y-137265781D01*
X123618623Y-95828177D02*
X123584380Y-95761338D01*
X123087906Y-84414849D02*
X123024999Y-84374532D01*
X123649675Y-73603478D02*
X123677439Y-73533083D01*
X148196272Y-70973195D02*
X148201151Y-70780212D01*
D11*
X151512521Y-173909799D02*
X151443532Y-173945133D01*
D10*
X122682096Y-95019824D02*
X122608525Y-94998938D01*
D11*
X147715229Y-171485163D02*
X147765518Y-171427107D01*
D10*
X123463482Y-92027564D02*
X123506712Y-91966791D01*
X120689190Y-101664029D02*
X120679329Y-101741612D01*
D11*
X151881237Y-48871541D02*
X151934215Y-48927107D01*
D10*
X143336113Y-96271407D02*
X143514046Y-96321938D01*
X121074068Y-97542404D02*
X121125393Y-97596244D01*
D11*
X147874063Y-48818562D02*
X147932118Y-48768274D01*
X148627411Y-174070405D02*
X148550002Y-174052539D01*
D10*
X142066015Y-133616463D02*
X141929958Y-133734320D01*
X123584380Y-91838984D02*
X123618623Y-91772146D01*
D11*
X147349867Y-50002912D02*
X147351949Y-49920576D01*
D10*
X121074068Y-71957916D02*
X121025347Y-72014166D01*
X146836665Y-139404127D02*
X146972725Y-139286241D01*
D11*
X151579524Y-171134549D02*
X151644441Y-171176167D01*
D10*
X143336113Y-89108525D02*
X143161890Y-89167480D01*
D11*
X122927074Y-173977175D02*
X122856200Y-173945133D01*
D10*
X140706328Y-136702881D02*
X140720808Y-136893363D01*
X141929958Y-139286241D02*
X142066015Y-139404127D01*
X122379584Y-74542173D02*
X122457171Y-74532316D01*
D12*
X123770000Y-79350000D02*
G75*
G03*
X123770000Y-79350000I-1550000J0D01*
G01*
D10*
X147227110Y-112078670D02*
X147102952Y-111948427D01*
X122682096Y-97980646D02*
X122754134Y-97956268D01*
X121025347Y-84714196D02*
X120979328Y-84772753D01*
X121025347Y-100914066D02*
X120979328Y-100972623D01*
X122221075Y-89549965D02*
X122141362Y-89551982D01*
D11*
X126792089Y-171809245D02*
X126824130Y-171880119D01*
D10*
X123547044Y-102703688D02*
X123584380Y-102638789D01*
D11*
X127220016Y-128890000D02*
G75*
G03*
X127220016Y-128890000I-3100016J0D01*
G01*
D10*
X121025347Y-90114022D02*
X120979328Y-90172579D01*
X142066015Y-111706384D02*
X141929958Y-111824253D01*
X143161890Y-96212452D02*
X143336113Y-96271407D01*
X121549377Y-84302981D02*
X121482558Y-84337210D01*
X147456278Y-90446232D02*
X147344964Y-90304569D01*
X147906515Y-91230254D02*
X147831430Y-91064141D01*
X121908867Y-71481466D02*
X121833908Y-71498780D01*
X123368716Y-86742237D02*
X123417451Y-86686003D01*
D11*
X148786276Y-170911174D02*
X148867531Y-170904995D01*
D10*
X123506712Y-86566697D02*
X123547044Y-86503818D01*
X117000000Y-47000000D02*
X117000000Y-175499992D01*
D11*
X125349867Y-48402913D02*
X125432202Y-48404995D01*
D10*
X147227110Y-68258748D02*
X147102952Y-68128514D01*
X147973648Y-93979380D02*
X148032593Y-93805136D01*
X120720140Y-90712645D02*
X120702826Y-90787645D01*
X140777632Y-91934182D02*
X140744655Y-92118855D01*
X121985160Y-100367865D02*
X121908867Y-100381495D01*
D11*
X147818496Y-173634281D02*
X147765518Y-173578714D01*
D10*
X148181794Y-93073395D02*
X148196272Y-92882947D01*
X121908867Y-103418379D02*
X121985160Y-103432009D01*
D11*
X152349866Y-172502912D02*
X152347784Y-172585248D01*
X152349866Y-172502912D02*
X152349866Y-172502912D01*
D10*
X120679329Y-96658698D02*
X120689190Y-96736257D01*
D11*
X126367615Y-173737548D02*
X126307171Y-173785047D01*
X151984504Y-173520658D02*
X151934215Y-173578714D01*
X152192089Y-171809245D02*
X152224130Y-171880119D01*
D10*
X140996128Y-135050359D02*
X140928987Y-135220636D01*
X142506815Y-67573071D02*
X142354679Y-67670610D01*
X148201151Y-114600433D02*
X148196272Y-114407418D01*
X123547044Y-84896419D02*
X123506712Y-84833526D01*
X122062691Y-74542173D02*
X122141362Y-74548158D01*
X122457171Y-89567823D02*
X122379584Y-89557967D01*
X123740028Y-85387819D02*
X123722713Y-85312819D01*
D11*
X147475603Y-173125702D02*
X147446954Y-173053044D01*
X121951949Y-49920576D02*
X121958128Y-49839321D01*
D10*
X120741033Y-91561059D02*
X120765409Y-91633086D01*
X123417451Y-102885873D02*
X123463482Y-102827327D01*
D11*
X151644441Y-48676167D02*
X151707171Y-48720775D01*
X123074075Y-48474845D02*
X123150002Y-48453285D01*
D10*
X140996128Y-116059939D02*
X141071221Y-116226034D01*
D11*
X125513457Y-48411174D02*
X125593531Y-48421348D01*
D10*
X120858455Y-86438919D02*
X120895784Y-86503818D01*
D11*
X122046954Y-50553044D02*
X122021800Y-50478701D01*
D10*
X123677439Y-85167230D02*
X123649675Y-85096836D01*
X122533517Y-89581454D02*
X122457171Y-89567823D01*
X123584380Y-95761338D02*
X123547044Y-95696424D01*
D11*
X126931430Y-50246575D02*
X126917360Y-50325367D01*
D10*
X142663840Y-117897523D02*
X142825518Y-117980332D01*
X140928987Y-135220636D02*
X140870033Y-135394859D01*
D11*
X147623122Y-171608336D02*
X147667730Y-171545606D01*
D10*
X147831430Y-72406036D02*
X147906515Y-72239923D01*
D11*
X151443532Y-173945133D02*
X151372658Y-173977175D01*
X122927074Y-51477175D02*
X122856200Y-51445133D01*
X152317360Y-49680455D02*
X152331430Y-49759247D01*
D10*
X147456278Y-134266413D02*
X147344964Y-134124761D01*
X147560817Y-90593257D02*
X147456278Y-90446232D01*
X144644134Y-88944817D02*
X144451120Y-88939937D01*
D11*
X126179524Y-51371273D02*
X126112521Y-51409799D01*
X122418496Y-51134281D02*
X122365518Y-51078714D01*
D10*
X121417659Y-95174536D02*
X121354779Y-95214853D01*
X147560817Y-116696873D02*
X147658345Y-116544736D01*
X123753665Y-90863984D02*
X123740028Y-90787645D01*
D11*
X147382373Y-49680455D02*
X147400239Y-49603046D01*
D10*
X123753665Y-101664029D02*
X123740028Y-101587689D01*
X140870033Y-69665041D02*
X140819503Y-69842997D01*
D11*
X125672322Y-48435419D02*
X125749731Y-48453285D01*
D10*
X121760382Y-95019824D02*
X121688387Y-95044192D01*
D11*
X148949867Y-174102911D02*
X148949867Y-174102911D01*
X151072322Y-174070405D02*
X150993531Y-174084476D01*
X147623122Y-50897485D02*
X147581504Y-50832568D01*
D10*
X123417451Y-86686003D02*
X123463482Y-86627458D01*
D11*
X151149731Y-174052539D02*
X151072322Y-174070405D01*
D10*
X148083116Y-91752750D02*
X148032593Y-91574794D01*
D11*
X147358128Y-172666502D02*
X147351949Y-172585248D01*
D10*
X120741033Y-96039264D02*
X120720140Y-96112826D01*
D11*
X148786276Y-51594651D02*
X148706202Y-51584476D01*
D10*
X123317376Y-92196197D02*
X123368716Y-92142365D01*
D11*
X152331430Y-49759247D02*
X152341605Y-49839321D01*
D10*
X120936108Y-102766566D02*
X120979328Y-102827327D01*
D11*
X147400239Y-172103046D02*
X147421800Y-172027120D01*
D10*
X147748628Y-112812674D02*
X147658345Y-112655620D01*
D11*
X125432202Y-48404995D02*
X125513457Y-48411174D01*
D10*
X120689190Y-85464158D02*
X120679329Y-85541741D01*
X148181794Y-136893363D02*
X148196272Y-136702881D01*
D11*
X147507644Y-50696576D02*
X147475603Y-50625702D01*
D10*
X123740028Y-101587689D02*
X123722713Y-101512690D01*
X121908867Y-92618692D02*
X121985160Y-92632322D01*
X123649675Y-86303450D02*
X123677439Y-86233075D01*
X123263527Y-103047246D02*
X123317376Y-102995930D01*
X121417659Y-89774358D02*
X121354779Y-89814675D01*
D11*
X152156755Y-171740256D02*
X152192089Y-171809245D01*
X122223122Y-50897485D02*
X122181504Y-50832568D01*
D10*
X121354779Y-71714765D02*
X121294014Y-71757990D01*
X123148695Y-92342255D02*
X123207268Y-92296239D01*
X148196272Y-92496982D02*
X148181794Y-92306534D01*
X123207268Y-103095957D02*
X123263527Y-103047246D01*
D11*
X122021800Y-50478701D02*
X122000239Y-50402775D01*
X122720208Y-171134549D02*
X122787211Y-171096024D01*
D10*
X148032593Y-113485096D02*
X147973648Y-113310831D01*
X123263527Y-95352802D02*
X123207268Y-95304083D01*
X146238796Y-95987401D02*
X146395836Y-95897108D01*
X148083116Y-93627180D02*
X148124981Y-93445748D01*
D11*
X151579524Y-51371273D02*
X151512521Y-51409799D01*
D10*
X141446399Y-73023944D02*
X141557718Y-73165608D01*
D11*
X147542978Y-50765565D02*
X147507644Y-50696576D01*
D10*
X147658345Y-94634525D02*
X147748628Y-94477485D01*
X123701818Y-102360939D02*
X123722713Y-102287400D01*
D11*
X126367615Y-171268274D02*
X126425670Y-171318562D01*
D10*
X120702826Y-85387819D02*
X120689190Y-85464158D01*
D11*
X122046954Y-173053044D02*
X122021800Y-172978701D01*
D10*
X140819503Y-115537506D02*
X140870033Y-115715439D01*
X122824540Y-71571814D02*
X122754134Y-71544052D01*
D11*
X151512521Y-171096024D02*
X151579524Y-171134549D01*
X123150002Y-51552539D02*
X123074075Y-51530978D01*
X126947784Y-50085248D02*
X126941605Y-50166502D01*
D10*
X123701818Y-101439128D02*
X123677439Y-101367101D01*
X120793170Y-85096836D02*
X120765409Y-85167230D01*
D11*
X125349867Y-174102911D02*
X123549867Y-174102911D01*
D10*
X147748628Y-134722586D02*
X147658345Y-134565562D01*
X120673341Y-96420476D02*
X120671324Y-96500252D01*
D11*
X152076611Y-171608336D02*
X152118229Y-171673253D01*
X152341605Y-172339321D02*
X152347784Y-172420576D01*
X126481237Y-173634281D02*
X126425670Y-173687259D01*
D10*
X147227110Y-95211430D02*
X147344964Y-95075363D01*
X121235464Y-71804016D02*
X121179224Y-71852743D01*
X148201151Y-92689964D02*
X148196272Y-92496982D01*
X141341855Y-72876920D02*
X141446399Y-73023944D01*
D11*
X151579524Y-173871273D02*
X151512521Y-173909799D01*
D10*
X122141362Y-94952159D02*
X122062691Y-94958144D01*
X122893218Y-95102985D02*
X122824540Y-95071945D01*
X120895784Y-97303922D02*
X120936108Y-97366816D01*
X122533517Y-98018854D02*
X122608525Y-98001540D01*
D11*
X148120208Y-51371273D02*
X148055291Y-51329655D01*
D10*
X121354779Y-84414849D02*
X121294014Y-84458064D01*
D11*
X151149731Y-51552539D02*
X151072322Y-51570405D01*
D10*
X123677439Y-91633086D02*
X123701818Y-91561059D01*
X123024999Y-87025618D02*
X123087906Y-86985306D01*
X121235464Y-95304083D02*
X121179224Y-95352802D01*
D11*
X126792089Y-50696576D02*
X126756755Y-50765565D01*
X126899494Y-50402775D02*
X126877933Y-50478701D01*
X151707171Y-48720775D02*
X151767615Y-48768274D01*
D10*
X121125393Y-95404126D02*
X121074068Y-95457958D01*
X147658345Y-134565562D02*
X147560817Y-134413425D01*
D11*
X147349867Y-172502912D02*
X147349867Y-172502912D01*
D10*
X122533517Y-84181628D02*
X122457171Y-84167997D01*
X148032593Y-115715439D02*
X148083116Y-115537506D01*
X145566423Y-111018648D02*
X145388453Y-110968116D01*
X140819503Y-135572792D02*
X140777632Y-135754200D01*
X144067752Y-96420635D02*
X144258170Y-96435115D01*
D11*
X147400239Y-50402775D02*
X147382373Y-50325367D01*
D10*
X144067752Y-74510879D02*
X144258170Y-74525360D01*
X120765409Y-90567056D02*
X120741033Y-90639083D01*
X147658345Y-138454776D02*
X147748628Y-138297707D01*
X121235464Y-86896087D02*
X121294014Y-86942096D01*
X123763526Y-85541741D02*
X123753665Y-85464158D01*
D11*
X152156755Y-49240256D02*
X152192089Y-49309245D01*
D10*
X147102952Y-68128514D02*
X146972725Y-68004347D01*
D11*
X147446954Y-49452777D02*
X147475603Y-49380119D01*
D10*
X121618019Y-92528378D02*
X121688387Y-92556130D01*
X141154030Y-94477485D02*
X141244320Y-94634525D01*
D11*
X123227411Y-170935419D02*
X123306202Y-170921348D01*
X152076611Y-50897485D02*
X152032003Y-50960215D01*
X126824130Y-50625702D02*
X126792089Y-50696576D01*
D10*
X121618019Y-87128200D02*
X121688387Y-87155950D01*
X142825518Y-133129966D02*
X142663840Y-133212775D01*
D11*
X121951949Y-172585248D02*
X121949867Y-172502912D01*
D10*
X122141362Y-89551982D02*
X122062691Y-89557967D01*
X147344964Y-95075363D02*
X147456278Y-94933699D01*
X122754134Y-97956268D02*
X122824540Y-97928506D01*
D11*
X122267730Y-50960215D02*
X122223122Y-50897485D01*
D10*
X122608525Y-87201202D02*
X122682096Y-87180317D01*
X120824218Y-101228041D02*
X120793170Y-101296706D01*
X120858455Y-90361158D02*
X120824218Y-90427997D01*
X122221075Y-100350006D02*
X122141362Y-100352023D01*
X123771532Y-91100071D02*
X123769514Y-91020295D01*
D11*
X126244441Y-171176167D02*
X126307171Y-171220775D01*
D10*
X146077099Y-139890742D02*
X146238796Y-139807913D01*
D11*
X122856200Y-48560690D02*
X122927074Y-48528648D01*
X122046954Y-49452777D02*
X122075603Y-49380119D01*
D10*
X120765409Y-91633086D02*
X120793170Y-91703481D01*
X143880101Y-96396788D02*
X144067752Y-96420635D01*
X123753665Y-85464158D02*
X123740028Y-85387819D01*
X140706328Y-70973195D02*
X140720808Y-71163643D01*
D11*
X125749731Y-48453285D02*
X125825657Y-48474845D01*
X147421800Y-50478701D02*
X147400239Y-50402775D01*
X125349867Y-174102911D02*
X125349867Y-174102911D01*
X148256200Y-171060690D02*
X148327074Y-171028648D01*
X147349867Y-172502912D02*
X147349867Y-172502912D01*
D10*
X122608525Y-89598761D02*
X122533517Y-89581454D01*
D11*
X126179524Y-173871273D02*
X126112521Y-173909799D01*
D10*
X123207268Y-71804016D02*
X123148695Y-71757990D01*
X143880101Y-88983144D02*
X143695454Y-89016122D01*
D11*
X151644441Y-171176167D02*
X151707171Y-171220775D01*
X126425670Y-173687259D02*
X126367615Y-173737548D01*
D10*
X120671324Y-96500252D02*
X120673341Y-96579997D01*
D11*
X122267730Y-171545606D02*
X122315229Y-171485163D01*
D10*
X121482558Y-89737036D02*
X121417659Y-89774358D01*
X122300852Y-87247979D02*
X122379584Y-87241994D01*
D11*
X148187211Y-48596024D02*
X148256200Y-48560690D01*
X152299494Y-172902775D02*
X152277933Y-172978701D01*
D10*
X145740677Y-132987732D02*
X145566423Y-132928778D01*
X140819503Y-69842997D02*
X140777632Y-70024430D01*
D11*
X121951949Y-172420576D02*
X121958128Y-172339321D01*
D10*
X123547044Y-86503818D02*
X123584380Y-86438919D01*
X120720140Y-85312819D02*
X120702826Y-85387819D01*
D11*
X147421800Y-172978701D02*
X147400239Y-172902775D01*
D10*
X142991613Y-74235554D02*
X143161890Y-74302697D01*
X122682096Y-74480493D02*
X122754134Y-74456125D01*
X121482558Y-97863216D02*
X121549377Y-97897456D01*
X148196272Y-114793383D02*
X148201151Y-114600433D01*
X142207667Y-117605153D02*
X142354679Y-117709697D01*
D11*
X122655291Y-171176167D02*
X122720208Y-171134549D01*
X121949867Y-172502912D02*
X121949867Y-172502912D01*
D10*
X142354679Y-139620043D02*
X142506815Y-139717602D01*
X142663840Y-89392531D02*
X142506815Y-89482824D01*
D11*
X150913457Y-170911174D02*
X150993531Y-170921348D01*
D10*
X140706328Y-70587230D02*
X140701448Y-70780212D01*
D11*
X147507644Y-49309245D02*
X147542978Y-49240256D01*
D10*
X123722713Y-86087530D02*
X123740028Y-86012555D01*
D11*
X126534215Y-51078714D02*
X126481237Y-51134281D01*
D10*
X145022311Y-118306898D02*
X145207004Y-118273922D01*
X120793170Y-86303450D02*
X120824218Y-86372098D01*
D11*
X147581504Y-50832568D02*
X147542978Y-50765565D01*
D10*
X121354779Y-97785555D02*
X121417659Y-97825883D01*
X120765409Y-85167230D02*
X120741033Y-85239257D01*
X148083116Y-135572792D02*
X148032593Y-135394859D01*
D11*
X126718229Y-173332568D02*
X126676611Y-173397485D01*
D10*
X144834609Y-110869419D02*
X144644134Y-110854939D01*
X123463482Y-73927560D02*
X123506712Y-73866787D01*
X121549377Y-100502849D02*
X121482558Y-100537078D01*
X123753665Y-72764063D02*
X123740028Y-72687743D01*
X121688387Y-84244189D02*
X121618019Y-84271941D01*
X141929958Y-133734320D02*
X141799733Y-133858478D01*
X146972725Y-73556076D02*
X147102952Y-73431909D01*
D11*
X123150002Y-48453285D02*
X123227411Y-48435419D01*
D10*
X140777632Y-135754200D02*
X140744655Y-135938846D01*
X141929958Y-111824253D02*
X141799733Y-111948427D01*
X141799733Y-90038268D02*
X141675574Y-90168502D01*
X121294014Y-95258068D02*
X121235464Y-95304083D01*
X123263527Y-100752666D02*
X123207268Y-100703947D01*
X123769514Y-101979860D02*
X123771532Y-101900116D01*
D11*
X150749867Y-51602911D02*
X148949867Y-51602911D01*
D10*
X122062691Y-92642179D02*
X122141362Y-92648164D01*
X145910981Y-139965852D02*
X146077099Y-139890742D01*
D11*
X126899494Y-172902775D02*
X126877933Y-172978701D01*
D10*
X141557718Y-138895698D02*
X141675574Y-139031791D01*
X123506712Y-102766566D02*
X123547044Y-102703688D01*
D11*
X126307171Y-171220775D02*
X126367615Y-171268274D01*
D10*
X121985160Y-87232138D02*
X122062691Y-87241994D01*
X122960070Y-84337210D02*
X122893218Y-84302981D01*
X122893218Y-97897456D02*
X122960070Y-97863216D01*
D11*
X152317360Y-172825367D02*
X152299494Y-172902775D01*
D10*
X147831430Y-116226034D02*
X147906515Y-116059939D01*
X120979328Y-86627458D02*
X121025347Y-86686003D01*
X123368716Y-97542404D02*
X123417451Y-97486155D01*
X145022311Y-132803399D02*
X144834609Y-132779553D01*
X143880101Y-110893266D02*
X143695454Y-110926244D01*
X123740028Y-90787645D02*
X123722713Y-90712645D01*
X140744655Y-135938846D02*
X140720808Y-136126497D01*
X146077099Y-111219845D02*
X145910981Y-111144748D01*
X143514046Y-67148240D02*
X143336113Y-67198771D01*
X123506712Y-101033396D02*
X123463482Y-100972623D01*
X145022311Y-88983144D02*
X144834609Y-88959298D01*
D11*
X152032003Y-50960215D02*
X151984504Y-51020658D01*
D10*
X122824540Y-97928506D02*
X122893218Y-97897456D01*
D11*
X123467531Y-174100829D02*
X123386276Y-174094651D01*
D10*
X120793170Y-73603478D02*
X120824218Y-73672143D01*
X123769514Y-91020295D02*
X123763526Y-90941567D01*
X121760382Y-100419688D02*
X121688387Y-100444056D01*
X142663840Y-74077646D02*
X142825518Y-74160458D01*
X145910981Y-133054873D02*
X145740677Y-132987732D01*
X122221075Y-94950142D02*
X122141362Y-94952159D01*
D11*
X152076611Y-173397485D02*
X152032003Y-173460215D01*
X123467531Y-51600829D02*
X123386276Y-51594651D01*
D10*
X147906515Y-72239923D02*
X147973648Y-72069626D01*
X141446399Y-112356420D02*
X141341855Y-112503457D01*
X123263527Y-71852743D02*
X123207268Y-71804016D01*
D11*
X123227411Y-51570405D02*
X123150002Y-51552539D01*
X126244441Y-48676167D02*
X126307171Y-48720775D01*
D10*
X122608525Y-92601385D02*
X122682096Y-92580498D01*
D11*
X122223122Y-173397485D02*
X122181504Y-173332568D01*
X148187211Y-173909799D02*
X148120208Y-173871273D01*
D10*
X120671324Y-73000069D02*
X120673341Y-73079845D01*
X120979328Y-102827327D02*
X121025347Y-102885873D01*
X140744655Y-137081075D02*
X140777632Y-137265781D01*
X122379584Y-94958144D02*
X122300852Y-94952159D01*
D11*
X126534215Y-173578714D02*
X126481237Y-173634281D01*
D10*
X123740028Y-86012555D02*
X123753665Y-85936242D01*
X121235464Y-92296239D02*
X121294014Y-92342255D01*
D11*
X126949866Y-50002912D02*
X126949866Y-50002912D01*
D10*
X141071221Y-94315790D02*
X141154030Y-94477485D01*
X121618019Y-95071945D02*
X121549377Y-95102985D01*
X122457171Y-74532316D02*
X122533517Y-74518686D01*
X120979328Y-97427593D02*
X121025347Y-97486155D01*
X142506815Y-111392957D02*
X142354679Y-111490500D01*
D11*
X152156755Y-50765565D02*
X152118229Y-50832568D01*
D10*
X120858455Y-84961332D02*
X120824218Y-85028171D01*
X147748628Y-94477485D02*
X147831430Y-94315790D01*
X121074068Y-100857822D02*
X121025347Y-100914066D01*
D11*
X147542978Y-49240256D02*
X147581504Y-49173253D01*
X126534215Y-48927107D02*
X126584504Y-48985163D01*
X125349867Y-51602911D02*
X123549867Y-51602911D01*
X122315229Y-48985163D02*
X122365518Y-48927107D01*
X148399733Y-171000000D02*
X148474075Y-170974845D01*
X126307171Y-48720775D02*
X126367615Y-48768274D01*
D10*
X121179224Y-74147517D02*
X121235464Y-74196235D01*
X140777632Y-93445748D02*
X140819503Y-93627180D01*
X123087906Y-86985306D02*
X123148695Y-86942096D01*
X123701818Y-72539211D02*
X123677439Y-72467195D01*
X144067752Y-118330745D02*
X144258170Y-118345226D01*
D11*
X122181504Y-171673253D02*
X122223122Y-171608336D01*
X125749731Y-170953285D02*
X125825657Y-170974845D01*
D10*
X143336113Y-118181520D02*
X143514046Y-118232050D01*
X144451120Y-118350105D02*
X144644134Y-118345226D01*
D12*
X123770000Y-66650000D02*
G75*
G03*
X123770000Y-66650000I-1550000J0D01*
G01*
D11*
X148867531Y-51600829D02*
X148786276Y-51594651D01*
D10*
X142825518Y-96070214D02*
X142991613Y-96145309D01*
X140777632Y-70024430D02*
X140744655Y-70209103D01*
X148124981Y-71535994D02*
X148157952Y-71351321D01*
X121294014Y-71757990D02*
X121235464Y-71804016D01*
D11*
X152252778Y-171952777D02*
X152277933Y-172027120D01*
D10*
X140928987Y-113310831D02*
X140870033Y-113485096D01*
X141675574Y-95211430D02*
X141799733Y-95341664D01*
D11*
X150749867Y-48402913D02*
X150749867Y-48402913D01*
D10*
X122893218Y-89702807D02*
X122824540Y-89671767D01*
X140720808Y-93073395D02*
X140744655Y-93261074D01*
X123317376Y-74096193D02*
X123368716Y-74042361D01*
X122682096Y-71519675D02*
X122608525Y-71498780D01*
X120720140Y-101512690D02*
X120702826Y-101587689D01*
X121417659Y-100574400D02*
X121354779Y-100614717D01*
D11*
X123386276Y-48411174D02*
X123467531Y-48404995D01*
X126112521Y-51409799D02*
X126043532Y-51445133D01*
D10*
X123547044Y-91903898D02*
X123584380Y-91838984D01*
D11*
X123150002Y-174052539D02*
X123074075Y-174030978D01*
X147542978Y-171740256D02*
X147581504Y-171673253D01*
D10*
X146238796Y-133212775D02*
X146077099Y-133129966D01*
X123618623Y-91772146D02*
X123649675Y-91703481D01*
D11*
X147446954Y-171952777D02*
X147475603Y-171880119D01*
D10*
X123753665Y-96736257D02*
X123763526Y-96658698D01*
X141244320Y-94634525D02*
X141341855Y-94786675D01*
X146395836Y-111392957D02*
X146238796Y-111302660D01*
X123368716Y-102942106D02*
X123417451Y-102885873D01*
X141446399Y-68536479D02*
X141341855Y-68683503D01*
X123763526Y-96658698D02*
X123769514Y-96579997D01*
X123087906Y-74285465D02*
X123148695Y-74242250D01*
X146238796Y-111302660D02*
X146077099Y-111219845D01*
D11*
X151825670Y-51187259D02*
X151767615Y-51237548D01*
X122655291Y-48676167D02*
X122720208Y-48634549D01*
X151300000Y-174005823D02*
X151225657Y-174030978D01*
X123549867Y-48402913D02*
X123549867Y-48402913D01*
D10*
X121618019Y-74428372D02*
X121688387Y-74456125D01*
D11*
X126043532Y-48560690D02*
X126112521Y-48596024D01*
X126824130Y-49380119D02*
X126852778Y-49452777D01*
D10*
X141341855Y-112503457D02*
X141244320Y-112655620D01*
X141244320Y-72724770D02*
X141341855Y-72876920D01*
D11*
X147765518Y-51078714D02*
X147715229Y-51020658D01*
D10*
X140996128Y-94149677D02*
X141071221Y-94315790D01*
X141929958Y-117375978D02*
X142066015Y-117493835D01*
X146695006Y-139515473D02*
X146836665Y-139404127D01*
D11*
X122000239Y-49603046D02*
X122021800Y-49527120D01*
D10*
X148032593Y-135394859D02*
X147973648Y-135220636D01*
X121354779Y-74285465D02*
X121417659Y-74325781D01*
X121908867Y-98018854D02*
X121985160Y-98032491D01*
X143880101Y-118306898D02*
X144067752Y-118330745D01*
X123463482Y-90172579D02*
X123417451Y-90114022D01*
D11*
X152076611Y-49108336D02*
X152118229Y-49173253D01*
X126756755Y-173265565D02*
X126718229Y-173332568D01*
D10*
X123677439Y-73533083D02*
X123701818Y-73461056D01*
D11*
X152347784Y-172420576D02*
X152349866Y-172502912D01*
D10*
X123547044Y-95696424D02*
X123506712Y-95633532D01*
D11*
X147349867Y-50002912D02*
X147349867Y-50002912D01*
D10*
X121833908Y-100398802D02*
X121760382Y-100419688D01*
D11*
X152349866Y-50002912D02*
X152349866Y-50002912D01*
D10*
X120702826Y-73312495D02*
X120720140Y-73387494D01*
D11*
X126307171Y-173785047D02*
X126244441Y-173829655D01*
X147874063Y-171318562D02*
X147932118Y-171268274D01*
D10*
X142066015Y-73673939D02*
X142207667Y-73785263D01*
X144644134Y-140255717D02*
X144834609Y-140241233D01*
X148201151Y-70780212D02*
X148196272Y-70587230D01*
D11*
X126941605Y-172339321D02*
X126947784Y-172420576D01*
X152192089Y-173196576D02*
X152156755Y-173265565D01*
X123549867Y-48402913D02*
X123549867Y-48402913D01*
D10*
X120765409Y-86233075D02*
X120793170Y-86303450D01*
X123263527Y-86847376D02*
X123317376Y-86796060D01*
X121417659Y-103225488D02*
X121482558Y-103262807D01*
X121549377Y-92497338D02*
X121618019Y-92528378D01*
X123618623Y-90427997D02*
X123584380Y-90361158D01*
D11*
X122418496Y-171371541D02*
X122474063Y-171318562D01*
D10*
X148124981Y-137265781D02*
X148157952Y-137081075D01*
X143514046Y-74412183D02*
X143695454Y-74454055D01*
X121179224Y-92247521D02*
X121235464Y-92296239D01*
X147456278Y-94933699D02*
X147560817Y-94786675D01*
X122221075Y-84150139D02*
X122141362Y-84152155D01*
X145910981Y-111144748D02*
X145740677Y-111077604D01*
X121688387Y-74456125D02*
X121760382Y-74480493D01*
X140720808Y-136126497D02*
X140706328Y-136316915D01*
D11*
X148327074Y-48528648D02*
X148399733Y-48500000D01*
D10*
X122379584Y-100358008D02*
X122300852Y-100352023D01*
X123368716Y-84657953D02*
X123317376Y-84604121D01*
X120720140Y-86087530D02*
X120741033Y-86161069D01*
X143880101Y-67073391D02*
X143695454Y-67106368D01*
D11*
X125972658Y-171028648D02*
X126043532Y-171060690D01*
X151825670Y-171318562D02*
X151881237Y-171371541D01*
D10*
X122141362Y-98048340D02*
X122221075Y-98050358D01*
X144644134Y-67035063D02*
X144451120Y-67030184D01*
X142825518Y-111219845D02*
X142663840Y-111302660D01*
X142066015Y-67886484D02*
X141929958Y-68004347D01*
X141071221Y-112974385D02*
X140996128Y-113140516D01*
X123740028Y-91412497D02*
X123753665Y-91336158D01*
D11*
X122532118Y-171268274D02*
X122592561Y-171220775D01*
D10*
X120793170Y-90496662D02*
X120765409Y-90567056D01*
D11*
X126632003Y-171545606D02*
X126676611Y-171608336D01*
D10*
X122754134Y-87155950D02*
X122824540Y-87128200D01*
X123506712Y-95633532D02*
X123463482Y-95572759D01*
D11*
X122999733Y-171000000D02*
X123074075Y-170974845D01*
X126947784Y-49920576D02*
X126949866Y-50002912D01*
D10*
X145388453Y-67148240D02*
X145207004Y-67106368D01*
X123547044Y-97303922D02*
X123584380Y-97239009D01*
X141071221Y-69154388D02*
X140996128Y-69320501D01*
D11*
X147475603Y-171880119D02*
X147507644Y-171809245D01*
X123074075Y-170974845D02*
X123150002Y-170953285D01*
D10*
X140819503Y-71717427D02*
X140870033Y-71895383D01*
X123701818Y-73461056D02*
X123722713Y-73387494D01*
D11*
X152299494Y-172103046D02*
X152317360Y-172180455D01*
D10*
X123649675Y-90496662D02*
X123618623Y-90427997D01*
D11*
X151707171Y-173785047D02*
X151644441Y-173829655D01*
X121958128Y-172666502D02*
X121951949Y-172585248D01*
D10*
X146836665Y-73673939D02*
X146972725Y-73556076D01*
D11*
X150749867Y-174102911D02*
X150749867Y-174102911D01*
D10*
X123417451Y-84714196D02*
X123368716Y-84657953D01*
D11*
X151984504Y-171485163D02*
X152032003Y-171545606D01*
X152224130Y-171880119D02*
X152252778Y-171952777D01*
D10*
X145022311Y-74487032D02*
X145207004Y-74454055D01*
D11*
X126824130Y-173125702D02*
X126792089Y-173196576D01*
D10*
X120793170Y-72396808D02*
X120765409Y-72467195D01*
D11*
X148627411Y-51570405D02*
X148550002Y-51552539D01*
X151767615Y-51237548D02*
X151707171Y-51285047D01*
X147623122Y-49108336D02*
X147667730Y-49045606D01*
X121982373Y-49680455D02*
X122000239Y-49603046D01*
X126941605Y-50166502D02*
X126931430Y-50246575D01*
D10*
X123649675Y-91703481D02*
X123677439Y-91633086D01*
D11*
X151934215Y-48927107D02*
X151984504Y-48985163D01*
D10*
X122141362Y-92648164D02*
X122221075Y-92650181D01*
X120895784Y-102703688D02*
X120936108Y-102766566D01*
X148124981Y-115356098D02*
X148157952Y-115171451D01*
D11*
X148055291Y-171176167D02*
X148120208Y-171134549D01*
D10*
X140928987Y-93979380D02*
X140996128Y-94149677D01*
X123584380Y-101161203D02*
X123547044Y-101096289D01*
X120673341Y-101979860D02*
X120679329Y-102058558D01*
X140777632Y-113844532D02*
X140744655Y-114029232D01*
D11*
X126931430Y-172259247D02*
X126941605Y-172339321D01*
D10*
X120979328Y-92027564D02*
X121025347Y-92086121D01*
X143695454Y-67106368D02*
X143514046Y-67148240D01*
D11*
X148187211Y-51409799D02*
X148120208Y-51371273D01*
D10*
X141154030Y-134722586D02*
X141071221Y-134884264D01*
X142991613Y-67324869D02*
X142825518Y-67399965D01*
X143695454Y-110926244D02*
X143514046Y-110968116D01*
X121833908Y-71498780D02*
X121760382Y-71519675D01*
D11*
X126756755Y-171740256D02*
X126792089Y-171809245D01*
X147765518Y-173578714D02*
X147715229Y-173520658D01*
X152277933Y-49527120D02*
X152299494Y-49603046D01*
X147446954Y-173053044D02*
X147421800Y-172978701D01*
D10*
X140720808Y-136893363D02*
X140744655Y-137081075D01*
X120824218Y-102571967D02*
X120858455Y-102638789D01*
D11*
X126941605Y-172666502D02*
X126931430Y-172746575D01*
D10*
X147658345Y-90745407D02*
X147560817Y-90593257D01*
X120765409Y-95967237D02*
X120741033Y-96039264D01*
X123547044Y-72196398D02*
X123506712Y-72133504D01*
X123584380Y-86438919D02*
X123618623Y-86372098D01*
X121417659Y-97825883D02*
X121482558Y-97863216D01*
X121294014Y-92342255D02*
X121354779Y-92385469D01*
X122682096Y-84219821D02*
X122608525Y-84198935D01*
X142354679Y-117709697D02*
X142506815Y-117807233D01*
D11*
X122021800Y-172978701D02*
X122000239Y-172902775D01*
X151881237Y-51134281D02*
X151825670Y-51187259D01*
D10*
X142207667Y-73785263D02*
X142354679Y-73889813D01*
X141675574Y-112078670D02*
X141557718Y-112214746D01*
X140819503Y-137447246D02*
X140870033Y-137625235D01*
X122141362Y-87247979D02*
X122221075Y-87249996D01*
X121908867Y-100381495D02*
X121833908Y-100398802D01*
X144644134Y-118345226D02*
X144834609Y-118330745D01*
D11*
X125593531Y-48421348D02*
X125672322Y-48435419D01*
D10*
X145566423Y-132928778D02*
X145388453Y-132878248D01*
D11*
X147349867Y-172502912D02*
X147351949Y-172420576D01*
X123306202Y-174084476D02*
X123227411Y-174070405D01*
X152277933Y-172978701D02*
X152252778Y-173053044D01*
D10*
X120702826Y-96187825D02*
X120689190Y-96264165D01*
X147102952Y-90038268D02*
X146972725Y-89914101D01*
X123148695Y-71757990D02*
X123087906Y-71714765D01*
X142207667Y-67775160D02*
X142066015Y-67886484D01*
X122960070Y-97863216D02*
X123024999Y-97825883D01*
D11*
X151372658Y-48528648D02*
X151443532Y-48560690D01*
D10*
X121760382Y-103380187D02*
X121833908Y-103401073D01*
D11*
X122474063Y-48818562D02*
X122532118Y-48768274D01*
D10*
X144644134Y-110854939D02*
X144451120Y-110850059D01*
X123584380Y-90361158D02*
X123547044Y-90296245D01*
X146238796Y-89392531D02*
X146077099Y-89309718D01*
X142066015Y-95583694D02*
X142207667Y-95695018D01*
D11*
X148949867Y-48402913D02*
X150749867Y-48402913D01*
X126244441Y-173829655D02*
X126179524Y-173871273D01*
D10*
X148181794Y-71163643D02*
X148196272Y-70973195D01*
X123763526Y-96341747D02*
X123753665Y-96264165D01*
X120793170Y-95896842D02*
X120765409Y-95967237D01*
X120858455Y-102638789D02*
X120895784Y-102703688D01*
X143514046Y-96321938D02*
X143695454Y-96363810D01*
X146395836Y-133303065D02*
X146238796Y-133212775D01*
D11*
X125972658Y-48528648D02*
X126043532Y-48560690D01*
D10*
X122824540Y-95071945D02*
X122754134Y-95044192D01*
X122533517Y-74518686D02*
X122608525Y-74501379D01*
D11*
X127220016Y-143810000D02*
G75*
G03*
X127220016Y-143810000I-3100016J0D01*
G01*
X151072322Y-51570405D02*
X150993531Y-51584476D01*
X126756755Y-49240256D02*
X126792089Y-49309245D01*
D10*
X121482558Y-92463108D02*
X121549377Y-92497338D01*
D11*
X126112521Y-171096024D02*
X126179524Y-171134549D01*
D10*
X148157952Y-137081075D02*
X148181794Y-136893363D01*
X148196272Y-114407418D02*
X148181794Y-114216939D01*
X147973648Y-135220636D02*
X147906515Y-135050359D01*
X121294014Y-86942096D02*
X121354779Y-86985306D01*
X148196272Y-136702881D02*
X148201151Y-136509865D01*
D11*
X122142978Y-50765565D02*
X122107644Y-50696576D01*
D10*
X147344964Y-73165608D02*
X147456278Y-73023944D01*
X123463482Y-84772753D02*
X123417451Y-84714196D01*
X121179224Y-86847376D02*
X121235464Y-86896087D01*
X120936108Y-73866787D02*
X120979328Y-73927560D01*
X144258170Y-88944817D02*
X144067752Y-88959298D01*
D11*
X152224130Y-50625702D02*
X152192089Y-50696576D01*
D10*
X145022311Y-110893266D02*
X144834609Y-110869419D01*
X122824540Y-87128200D02*
X122893218Y-87097163D01*
D11*
X121958128Y-49839321D02*
X121968303Y-49759247D01*
D10*
X121482558Y-74363103D02*
X121549377Y-74397333D01*
X142207667Y-89684914D02*
X142066015Y-89796238D01*
X148201151Y-136509865D02*
X148196272Y-136316915D01*
X121618019Y-89671767D02*
X121549377Y-89702807D01*
X121354779Y-86985306D02*
X121417659Y-87025618D01*
X123506712Y-90233352D02*
X123463482Y-90172579D01*
X143880101Y-74487032D02*
X144067752Y-74510879D01*
X143695454Y-89016122D02*
X143514046Y-89057994D01*
D11*
X152341605Y-172666502D02*
X152331430Y-172746575D01*
D10*
X120689190Y-73236155D02*
X120702826Y-73312495D01*
X123618623Y-97172173D02*
X123649675Y-97103513D01*
X141071221Y-91064141D02*
X140996128Y-91230254D01*
X140744655Y-92118855D02*
X140720808Y-92306534D01*
X123649675Y-95896842D02*
X123618623Y-95828177D01*
D11*
X122075603Y-50625702D02*
X122046954Y-50553044D01*
D10*
X146077099Y-89309718D02*
X145910981Y-89234623D01*
D11*
X147349867Y-172502912D02*
X147349867Y-172502912D01*
D10*
X120689190Y-90863984D02*
X120679329Y-90941567D01*
X141799733Y-73431909D02*
X141929958Y-73556076D01*
D11*
X151512521Y-51409799D02*
X151443532Y-51445133D01*
D10*
X146547985Y-133400600D02*
X146395836Y-133303065D01*
X147748628Y-116387712D02*
X147831430Y-116226034D01*
D11*
X126718229Y-171673253D02*
X126756755Y-171740256D01*
D10*
X121025347Y-86686003D02*
X121074068Y-86742237D01*
D11*
X147992561Y-51285047D02*
X147932118Y-51237548D01*
X152299494Y-50402775D02*
X152277933Y-50478701D01*
D10*
X120702826Y-96812577D02*
X120720140Y-96887560D01*
X121179224Y-103047246D02*
X121235464Y-103095957D01*
D11*
X151300000Y-51505823D02*
X151225657Y-51530978D01*
D10*
X142506815Y-139717602D02*
X142663840Y-139807913D01*
X122754134Y-84244189D02*
X122682096Y-84219821D01*
D11*
X147368303Y-49759247D02*
X147382373Y-49680455D01*
D10*
X120741033Y-72539211D02*
X120720140Y-72612760D01*
X140928987Y-91400550D02*
X140870033Y-91574794D01*
D11*
X152032003Y-171545606D02*
X152076611Y-171608336D01*
D10*
X123368716Y-100857822D02*
X123317376Y-100803990D01*
X146547985Y-111490500D02*
X146395836Y-111392957D01*
D11*
X148256200Y-173945133D02*
X148187211Y-173909799D01*
D10*
X121125393Y-102995930D02*
X121179224Y-103047246D01*
X122960070Y-74363103D02*
X123024999Y-74325781D01*
X144258170Y-132765072D02*
X144067752Y-132779553D01*
D11*
X122856200Y-171060690D02*
X122927074Y-171028648D01*
X152341605Y-49839321D02*
X152347784Y-49920576D01*
D10*
X122893218Y-84302981D02*
X122824540Y-84271941D01*
D11*
X123386276Y-51594651D02*
X123306202Y-51584476D01*
X148327074Y-171028648D02*
X148399733Y-171000000D01*
D10*
X144834609Y-67049544D02*
X144644134Y-67035063D01*
X123677439Y-72467195D02*
X123649675Y-72396808D01*
D11*
X125972658Y-173977175D02*
X125900000Y-174005823D01*
D10*
X140928987Y-115889662D02*
X140996128Y-116059939D01*
X141341855Y-116696873D02*
X141446399Y-116843885D01*
X146695006Y-89684914D02*
X146547985Y-89580364D01*
X141071221Y-138135982D02*
X141154030Y-138297707D01*
D11*
X151372658Y-51477175D02*
X151300000Y-51505823D01*
D10*
X123368716Y-71957916D02*
X123317376Y-71904076D01*
D11*
X126852778Y-171952777D02*
X126877933Y-172027120D01*
D10*
X147344964Y-116985537D02*
X147456278Y-116843885D01*
X141244320Y-134565562D02*
X141154030Y-134722586D01*
X123506712Y-72133504D02*
X123463482Y-72072728D01*
D11*
X126632003Y-50960215D02*
X126584504Y-51020658D01*
X126584504Y-173520658D02*
X126534215Y-173578714D01*
D10*
X120673341Y-96579997D02*
X120679329Y-96658698D01*
D11*
X151512521Y-48596024D02*
X151579524Y-48634549D01*
D10*
X123417451Y-72014166D02*
X123368716Y-71957916D01*
X123506712Y-84833526D02*
X123463482Y-84772753D01*
X123722713Y-101512690D02*
X123701818Y-101439128D01*
X148196272Y-92882947D02*
X148201151Y-92689964D01*
X121235464Y-103095957D02*
X121294014Y-103141966D01*
X121179224Y-97647577D02*
X121235464Y-97696305D01*
X123769514Y-96420476D02*
X123763526Y-96341747D01*
D11*
X126949866Y-172502912D02*
X126949866Y-172502912D01*
X125749731Y-174052539D02*
X125672322Y-174070405D01*
D10*
X146077099Y-133129966D02*
X145910981Y-133054873D01*
X123701818Y-85239257D02*
X123677439Y-85167230D01*
X147227110Y-117121594D02*
X147344964Y-116985537D01*
X122824540Y-84271941D02*
X122754134Y-84244189D01*
X143161890Y-111077604D02*
X142991613Y-111144748D01*
X143514046Y-132878248D02*
X143336113Y-132928778D01*
X148196272Y-70587230D02*
X148181794Y-70396781D01*
D11*
X147542978Y-173265565D02*
X147507644Y-173196576D01*
X126676611Y-173397485D02*
X126632003Y-173460215D01*
D10*
X122533517Y-71481466D02*
X122457171Y-71467829D01*
X123417451Y-92086121D02*
X123463482Y-92027564D01*
X148196272Y-136316915D02*
X148181794Y-136126497D01*
X121179224Y-89952623D02*
X121125393Y-90003947D01*
X140744655Y-115171451D02*
X140777632Y-115356098D01*
D11*
X126917360Y-172180455D02*
X126931430Y-172259247D01*
D10*
X122533517Y-87218508D02*
X122608525Y-87201202D01*
D11*
X125900000Y-174005823D02*
X125825657Y-174030978D01*
D10*
X147658345Y-112655620D02*
X147560817Y-112503457D01*
D11*
X126949866Y-50002912D02*
X126949866Y-50002912D01*
D10*
X122824540Y-100471809D02*
X122754134Y-100444056D01*
D11*
X122107644Y-173196576D02*
X122075603Y-173125702D01*
D10*
X148124981Y-70024430D02*
X148083116Y-69842997D01*
X120765409Y-72467195D02*
X120741033Y-72539211D01*
X147973648Y-69490797D02*
X147906515Y-69320501D01*
D11*
X147421800Y-49527120D02*
X147446954Y-49452777D01*
D10*
X148157952Y-115171451D02*
X148181794Y-114983801D01*
X142506815Y-89482824D02*
X142354679Y-89580364D01*
D11*
X122927074Y-171028648D02*
X122999733Y-171000000D01*
D10*
X142663840Y-67482777D02*
X142506815Y-67573071D01*
D11*
X122021800Y-49527120D02*
X122046954Y-49452777D01*
D10*
X123547044Y-101096289D02*
X123506712Y-101033396D01*
D11*
X126179524Y-48634549D02*
X126244441Y-48676167D01*
X151225657Y-48474845D02*
X151300000Y-48500000D01*
D10*
X145566423Y-74361651D02*
X145740677Y-74302697D01*
X121125393Y-97596244D02*
X121179224Y-97647577D01*
X122754134Y-103355821D02*
X122824540Y-103328070D01*
X140777632Y-115356098D02*
X140819503Y-115537506D01*
X120824218Y-95828177D02*
X120793170Y-95896842D01*
X123087906Y-100614717D02*
X123024999Y-100574400D01*
X122754134Y-71544052D02*
X122682096Y-71519675D01*
D11*
X125593531Y-170921348D02*
X125672322Y-170935419D01*
D10*
X121025347Y-97486155D02*
X121074068Y-97542404D01*
X121618019Y-97928506D02*
X121688387Y-97956268D01*
X147344964Y-90304569D02*
X147227110Y-90168502D01*
X120824218Y-86372098D02*
X120858455Y-86438919D01*
X121482558Y-95137214D02*
X121417659Y-95174536D01*
X123317376Y-100803990D02*
X123263527Y-100752666D01*
X147344964Y-112214746D02*
X147227110Y-112078670D01*
D11*
X122223122Y-171608336D02*
X122267730Y-171545606D01*
D10*
X120673341Y-101820340D02*
X120671324Y-101900116D01*
X123740028Y-72687743D02*
X123722713Y-72612760D01*
X123618623Y-86372098D02*
X123649675Y-86303450D01*
X122682096Y-92580498D02*
X122754134Y-92556130D01*
X144451120Y-88939937D02*
X144258170Y-88944817D01*
D11*
X148399733Y-51505823D02*
X148327074Y-51477175D01*
X122474063Y-51187259D02*
X122418496Y-51134281D01*
X152118229Y-50832568D02*
X152076611Y-50897485D01*
D10*
X121833908Y-87201202D02*
X121908867Y-87218508D01*
D11*
X148327074Y-51477175D02*
X148256200Y-51445133D01*
D10*
X148157952Y-93261074D02*
X148181794Y-93073395D01*
X120979328Y-95572759D02*
X120936108Y-95633532D01*
X147831430Y-112974385D02*
X147748628Y-112812674D01*
X120673341Y-91179847D02*
X120679329Y-91258575D01*
X120765409Y-102432945D02*
X120793170Y-102503320D01*
X141557718Y-73165608D02*
X141675574Y-73301675D01*
X121760382Y-97980646D02*
X121833908Y-98001540D01*
X141557718Y-134124761D02*
X141446399Y-134266413D01*
X121688387Y-89644015D02*
X121618019Y-89671767D01*
D11*
X147368303Y-172259247D02*
X147382373Y-172180455D01*
X148474075Y-170974845D02*
X148550002Y-170953285D01*
D10*
X145740677Y-89167480D02*
X145566423Y-89108525D01*
X140928987Y-69490797D02*
X140870033Y-69665041D01*
X147748628Y-138297707D02*
X147831430Y-138135982D01*
X123771532Y-96500252D02*
X123769514Y-96420476D01*
D11*
X126425670Y-48818562D02*
X126481237Y-48871541D01*
D10*
X142506815Y-133303065D02*
X142354679Y-133400600D01*
X148157952Y-135938846D02*
X148124981Y-135754200D01*
X143514046Y-140142517D02*
X143695454Y-140184397D01*
X142991613Y-118055425D02*
X143161890Y-118122566D01*
X123087906Y-71714765D02*
X123024999Y-71674437D01*
X121125393Y-100803990D02*
X121074068Y-100857822D01*
X145207004Y-132836376D02*
X145022311Y-132803399D01*
X123263527Y-89952623D02*
X123207268Y-89903905D01*
X121618019Y-71571814D02*
X121549377Y-71602864D01*
X122457171Y-87232138D02*
X122533517Y-87218508D01*
D11*
X147715229Y-51020658D02*
X147667730Y-50960215D01*
D10*
X122379584Y-92642179D02*
X122457171Y-92632322D01*
X142663840Y-111302660D02*
X142506815Y-111392957D01*
X123740028Y-96187825D02*
X123722713Y-96112826D01*
X123317376Y-95404126D02*
X123263527Y-95352802D01*
X143336113Y-74361651D02*
X143514046Y-74412183D01*
X122754134Y-92556130D02*
X122824540Y-92528378D01*
X121688387Y-95044192D02*
X121618019Y-95071945D01*
D11*
X126718229Y-50832568D02*
X126676611Y-50897485D01*
X125349867Y-51602911D02*
X125349867Y-51602911D01*
X148055291Y-51329655D02*
X147992561Y-51285047D01*
X141830016Y-158100000D02*
G75*
G03*
X141830016Y-158100000I-3100016J0D01*
G01*
D10*
X144067752Y-140241233D02*
X144258170Y-140255717D01*
X146836665Y-117493835D02*
X146972725Y-117375978D01*
D11*
X151149731Y-48453285D02*
X151225657Y-48474845D01*
D10*
X121235464Y-97696305D02*
X121294014Y-97742330D01*
X120673341Y-85779989D02*
X120679329Y-85858687D01*
X142207667Y-95695018D02*
X142354679Y-95799568D01*
X147906515Y-135050359D02*
X147831430Y-134884264D01*
X122141362Y-100352023D02*
X122062691Y-100358008D01*
X123207268Y-74196235D02*
X123263527Y-74147517D01*
D11*
X126949866Y-50002912D02*
X126947784Y-50085248D01*
D10*
X141244320Y-68835653D02*
X141154030Y-68992693D01*
X141154030Y-116387712D02*
X141244320Y-116544736D01*
X147456278Y-112356420D02*
X147344964Y-112214746D01*
X142825518Y-117980332D02*
X142991613Y-118055425D01*
X120936108Y-95633532D02*
X120895784Y-95696424D01*
D11*
X125672322Y-174070405D02*
X125593531Y-174084476D01*
D10*
X121125393Y-86796060D02*
X121179224Y-86847376D01*
X120702826Y-72687743D02*
X120689190Y-72764063D01*
X140744655Y-70209103D02*
X140720808Y-70396781D01*
X123722713Y-96887560D02*
X123740028Y-96812577D01*
D11*
X121958128Y-172339321D02*
X121968303Y-172259247D01*
D10*
X148124981Y-91934182D02*
X148083116Y-91752750D01*
X121908867Y-94981631D02*
X121833908Y-94998938D01*
D11*
X122000239Y-172902775D02*
X121982373Y-172825367D01*
D10*
X146547985Y-95799568D02*
X146695006Y-95695018D01*
D11*
X122787211Y-171096024D02*
X122856200Y-171060690D01*
D10*
X141799733Y-117251820D02*
X141929958Y-117375978D01*
X144834609Y-96420635D02*
X145022311Y-96396788D01*
D11*
X148550002Y-174052539D02*
X148474075Y-174030978D01*
D10*
X122062691Y-89557967D02*
X121985160Y-89567823D01*
D11*
X147818496Y-48871541D02*
X147874063Y-48818562D01*
X147992561Y-171220775D02*
X148055291Y-171176167D01*
D10*
X121833908Y-84198935D02*
X121760382Y-84219821D01*
X140706328Y-114793383D02*
X140720808Y-114983801D01*
X123769514Y-73079845D02*
X123771532Y-73000069D01*
X122893218Y-92497338D02*
X122960070Y-92463108D01*
D11*
X147932118Y-51237548D02*
X147874063Y-51187259D01*
X123386276Y-174094651D02*
X123306202Y-174084476D01*
D10*
X123417451Y-100914066D02*
X123368716Y-100857822D01*
X121354779Y-103185176D02*
X121417659Y-103225488D01*
D11*
X147351949Y-172585248D02*
X147349867Y-172502912D01*
D10*
X142991613Y-111144748D02*
X142825518Y-111219845D01*
D11*
X151372658Y-173977175D02*
X151300000Y-174005823D01*
D10*
X147831430Y-69154388D02*
X147748628Y-68992693D01*
X123649675Y-97103513D02*
X123677439Y-97033126D01*
X122893218Y-103297033D02*
X122960070Y-103262807D01*
D11*
X148949867Y-170902913D02*
X148949867Y-170902913D01*
X150832202Y-174100829D02*
X150749867Y-174102911D01*
D10*
X146238796Y-139807913D02*
X146395836Y-139717602D01*
X122533517Y-100381495D02*
X122457171Y-100367865D01*
X122682096Y-103380187D02*
X122754134Y-103355821D01*
D11*
X148120208Y-48634549D02*
X148187211Y-48596024D01*
D10*
X120895784Y-86503818D02*
X120936108Y-86566697D01*
X148181794Y-136126497D02*
X148157952Y-135938846D01*
X140870033Y-93805136D02*
X140928987Y-93979380D01*
X146972725Y-117375978D02*
X147102952Y-117251820D01*
D11*
X148867531Y-170904995D02*
X148949867Y-170902913D01*
D10*
X120679329Y-85858687D02*
X120689190Y-85936242D01*
X145740677Y-140033009D02*
X145910981Y-139965852D01*
X144644134Y-132765072D02*
X144451120Y-132760193D01*
X120679329Y-72841622D02*
X120673341Y-72920323D01*
X123722713Y-91487497D02*
X123740028Y-91412497D01*
X120979328Y-72072728D02*
X120936108Y-72133504D01*
X140720808Y-92306534D02*
X140706328Y-92496982D01*
X145388453Y-89057994D02*
X145207004Y-89016122D01*
X123763526Y-73158573D02*
X123769514Y-73079845D01*
X121125393Y-71904076D02*
X121074068Y-71957916D01*
X120793170Y-91703481D02*
X120824218Y-91772146D01*
D11*
X121949867Y-50002912D02*
X121949867Y-50002912D01*
D10*
X146547985Y-89580364D02*
X146395836Y-89482824D01*
X123740028Y-73312495D02*
X123753665Y-73236155D01*
X123584380Y-84961332D02*
X123547044Y-84896419D01*
X122960070Y-103262807D02*
X123024999Y-103225488D01*
X122300852Y-89551982D02*
X122221075Y-89549965D01*
D11*
X147400239Y-172902775D02*
X147382373Y-172825367D01*
D10*
X142354679Y-89580364D02*
X142207667Y-89684914D01*
X148124981Y-135754200D02*
X148083116Y-135572792D01*
X122960070Y-71637105D02*
X122893218Y-71602864D01*
D11*
X152118229Y-49173253D02*
X152156755Y-49240256D01*
D10*
X140777632Y-137265781D02*
X140819503Y-137447246D01*
X147560817Y-68683503D02*
X147456278Y-68536479D01*
D11*
X151443532Y-51445133D02*
X151372658Y-51477175D01*
D10*
X140996128Y-69320501D02*
X140928987Y-69490797D01*
X123769514Y-85779989D02*
X123771532Y-85700245D01*
X123506712Y-97366816D02*
X123547044Y-97303922D01*
X140870033Y-71895383D02*
X140928987Y-72069626D01*
X123463482Y-95572759D02*
X123417451Y-95514201D01*
X122754134Y-100444056D02*
X122682096Y-100419688D01*
D11*
X122000239Y-50402775D02*
X121982373Y-50325367D01*
X122365518Y-48927107D02*
X122418496Y-48871541D01*
X148627411Y-170935419D02*
X148706202Y-170921348D01*
D10*
X121549377Y-103297033D02*
X121618019Y-103328070D01*
X123317376Y-102995930D02*
X123368716Y-102942106D01*
X123618623Y-85028171D02*
X123584380Y-84961332D01*
X122379584Y-84158141D02*
X122300852Y-84152155D01*
X141799733Y-139162050D02*
X141929958Y-139286241D01*
X147973648Y-91400550D02*
X147906515Y-91230254D01*
X147456278Y-73023944D02*
X147560817Y-72876920D01*
X120979328Y-73927560D02*
X121025347Y-73986117D01*
D11*
X151644441Y-51329655D02*
X151579524Y-51371273D01*
D10*
X122221075Y-98050358D02*
X122300852Y-98048340D01*
D11*
X123549867Y-170902913D02*
X123549867Y-170902913D01*
D10*
X144258170Y-74525360D02*
X144451120Y-74530239D01*
X140928987Y-137799511D02*
X140996128Y-137969838D01*
X123263527Y-97647577D02*
X123317376Y-97596244D01*
X120895784Y-84896419D02*
X120858455Y-84961332D01*
D11*
X148786276Y-174094651D02*
X148706202Y-174084476D01*
X122720208Y-48634549D02*
X122787211Y-48596024D01*
D10*
X140819503Y-91752750D02*
X140777632Y-91934182D01*
X143695454Y-118273922D02*
X143880101Y-118306898D01*
X120858455Y-72261312D02*
X120824218Y-72328147D01*
D11*
X127220016Y-158100000D02*
G75*
G03*
X127220016Y-158100000I-3100016J0D01*
G01*
D10*
X145910981Y-96145309D02*
X146077099Y-96070214D01*
X146972725Y-139286241D02*
X147102952Y-139162050D01*
X146547985Y-117709697D02*
X146695006Y-117605153D01*
X121985160Y-74532316D02*
X122062691Y-74542173D01*
D11*
X152349866Y-50002912D02*
X152349866Y-50002912D01*
D10*
X121688387Y-103355821D02*
X121760382Y-103380187D01*
D11*
X122075603Y-173125702D02*
X122046954Y-173053044D01*
D10*
X120720140Y-96887560D02*
X120741033Y-96961109D01*
X123207268Y-95304083D02*
X123148695Y-95258068D01*
X144258170Y-118345226D02*
X144451120Y-118350105D01*
X143695454Y-74454055D02*
X143880101Y-74487032D01*
D11*
X147932118Y-173737548D02*
X147874063Y-173687259D01*
X148474075Y-48474845D02*
X148550002Y-48453285D01*
D10*
X146695006Y-117605153D02*
X146836665Y-117493835D01*
X123148695Y-103141966D02*
X123207268Y-103095957D01*
X141675574Y-73301675D02*
X141799733Y-73431909D01*
D11*
X148550002Y-51552539D02*
X148474075Y-51530978D01*
D10*
X145566423Y-96271407D02*
X145740677Y-96212452D01*
D11*
X152349866Y-50002912D02*
X152349866Y-50002912D01*
D10*
X120858455Y-97239009D02*
X120895784Y-97303922D01*
D11*
X125672322Y-170935419D02*
X125749731Y-170953285D01*
D10*
X123763526Y-102058558D02*
X123769514Y-101979860D01*
X122824540Y-103328070D02*
X122893218Y-103297033D01*
M02*
