%TF.GenerationSoftware,KiCad,Pcbnew,7.0.5-0*%
%TF.CreationDate,2023-09-11T11:55:09+02:00*%
%TF.ProjectId,peaks-panel,7065616b-732d-4706-916e-656c2e6b6963,rev?*%
%TF.SameCoordinates,Original*%
%TF.FileFunction,Legend,Top*%
%TF.FilePolarity,Positive*%
%FSLAX46Y46*%
G04 Gerber Fmt 4.6, Leading zero omitted, Abs format (unit mm)*
G04 Created by KiCad (PCBNEW 7.0.5-0) date 2023-09-11 11:55:09*
%MOMM*%
%LPD*%
G01*
G04 APERTURE LIST*
%ADD10C,0.000000*%
%ADD11C,0.400000*%
G04 APERTURE END LIST*
%LPC*%
D10*
G36*
X122978015Y-121208301D02*
G01*
X123014897Y-121210709D01*
X123050773Y-121214672D01*
X123085630Y-121220150D01*
X123119455Y-121227101D01*
X123152232Y-121235485D01*
X123183949Y-121245261D01*
X123214591Y-121256388D01*
X123244145Y-121268824D01*
X123272596Y-121282530D01*
X123299932Y-121297464D01*
X123326138Y-121313586D01*
X123351201Y-121330854D01*
X123375106Y-121349227D01*
X123397839Y-121368665D01*
X123419388Y-121389127D01*
X123439738Y-121410571D01*
X123458875Y-121432958D01*
X123476786Y-121456246D01*
X123493456Y-121480394D01*
X123508872Y-121505361D01*
X123523020Y-121531107D01*
X123535886Y-121557590D01*
X123547456Y-121584770D01*
X123557717Y-121612605D01*
X123566655Y-121641055D01*
X123574256Y-121670080D01*
X123580506Y-121699637D01*
X123585390Y-121729687D01*
X123588897Y-121760188D01*
X123591011Y-121791099D01*
X123591719Y-121822380D01*
X123591220Y-121848492D01*
X123589742Y-121873978D01*
X123587312Y-121898839D01*
X123583957Y-121923074D01*
X123579705Y-121946685D01*
X123574582Y-121969671D01*
X123568617Y-121992034D01*
X123561837Y-122013773D01*
X123554269Y-122034888D01*
X123545940Y-122055381D01*
X123527109Y-122094500D01*
X123505562Y-122131132D01*
X123481520Y-122165280D01*
X123455199Y-122196948D01*
X123426819Y-122226139D01*
X123396598Y-122252856D01*
X123364755Y-122277101D01*
X123331509Y-122298879D01*
X123297078Y-122318191D01*
X123261680Y-122335042D01*
X123225534Y-122349434D01*
X123673563Y-123214798D01*
X123219190Y-123214798D01*
X122827608Y-122414345D01*
X122545736Y-122414345D01*
X122545736Y-123214798D01*
X122154154Y-123214798D01*
X122154154Y-122087318D01*
X122545740Y-122087318D01*
X122914743Y-122087318D01*
X122930708Y-122086999D01*
X122946318Y-122086048D01*
X122961563Y-122084478D01*
X122976433Y-122082301D01*
X122990918Y-122079528D01*
X123005008Y-122076170D01*
X123018693Y-122072241D01*
X123031963Y-122067751D01*
X123044809Y-122062712D01*
X123057219Y-122057136D01*
X123069185Y-122051034D01*
X123080697Y-122044419D01*
X123091744Y-122037303D01*
X123102316Y-122029696D01*
X123112404Y-122021611D01*
X123121997Y-122013060D01*
X123131086Y-122004053D01*
X123139661Y-121994604D01*
X123147712Y-121984723D01*
X123155228Y-121974423D01*
X123162200Y-121963716D01*
X123168618Y-121952612D01*
X123174472Y-121941124D01*
X123179752Y-121929263D01*
X123184449Y-121917042D01*
X123188551Y-121904472D01*
X123192049Y-121891564D01*
X123194934Y-121878331D01*
X123197195Y-121864785D01*
X123198822Y-121850936D01*
X123199806Y-121836797D01*
X123200136Y-121822380D01*
X123199806Y-121807995D01*
X123198822Y-121793884D01*
X123197195Y-121780060D01*
X123194934Y-121766534D01*
X123192049Y-121753318D01*
X123188551Y-121740424D01*
X123184449Y-121727865D01*
X123179752Y-121715651D01*
X123174472Y-121703796D01*
X123168618Y-121692310D01*
X123162200Y-121681207D01*
X123155228Y-121670497D01*
X123147712Y-121660194D01*
X123139661Y-121650308D01*
X123131086Y-121640852D01*
X123121997Y-121631838D01*
X123112404Y-121623277D01*
X123102316Y-121615182D01*
X123091744Y-121607565D01*
X123080697Y-121600437D01*
X123069185Y-121593811D01*
X123057219Y-121587698D01*
X123044809Y-121582111D01*
X123031963Y-121577061D01*
X123018693Y-121572560D01*
X123005008Y-121568621D01*
X122990918Y-121565255D01*
X122976433Y-121562474D01*
X122961563Y-121560290D01*
X122946318Y-121558716D01*
X122930708Y-121557762D01*
X122914743Y-121557442D01*
X122914743Y-121557449D01*
X122545740Y-121557449D01*
X122545740Y-122087318D01*
X122154154Y-122087318D01*
X122154154Y-121207489D01*
X122940142Y-121207489D01*
X122978015Y-121208301D01*
G37*
G36*
X128097076Y-71866162D02*
G01*
X128134429Y-71868618D01*
X128170780Y-71872661D01*
X128206114Y-71878248D01*
X128240416Y-71885337D01*
X128273671Y-71893888D01*
X128305863Y-71903856D01*
X128336979Y-71915202D01*
X128367002Y-71927882D01*
X128395917Y-71941856D01*
X128423710Y-71957080D01*
X128450365Y-71973513D01*
X128475867Y-71991113D01*
X128500201Y-72009839D01*
X128523352Y-72029647D01*
X128545304Y-72050497D01*
X128566043Y-72072347D01*
X128585554Y-72095154D01*
X128603821Y-72118876D01*
X128620830Y-72143472D01*
X128636564Y-72168900D01*
X128651010Y-72195118D01*
X128664152Y-72222083D01*
X128675974Y-72249755D01*
X128686462Y-72278090D01*
X128695601Y-72307048D01*
X128703375Y-72336585D01*
X128709770Y-72366661D01*
X128714770Y-72397233D01*
X128718360Y-72428260D01*
X128720525Y-72459699D01*
X128721250Y-72491508D01*
X128720525Y-72523349D01*
X128718360Y-72554816D01*
X128714770Y-72585866D01*
X128709770Y-72616458D01*
X128703375Y-72646550D01*
X128695601Y-72676101D01*
X128686462Y-72705069D01*
X128675974Y-72733412D01*
X128664151Y-72761089D01*
X128651009Y-72788057D01*
X128636563Y-72814275D01*
X128620829Y-72839702D01*
X128603820Y-72864294D01*
X128585553Y-72888012D01*
X128566042Y-72910812D01*
X128545303Y-72932654D01*
X128523350Y-72953496D01*
X128500199Y-72973295D01*
X128475865Y-72992010D01*
X128450363Y-73009600D01*
X128423708Y-73026022D01*
X128395915Y-73041236D01*
X128367000Y-73055198D01*
X128336977Y-73067868D01*
X128305862Y-73079203D01*
X128273669Y-73089163D01*
X128240415Y-73097705D01*
X128206113Y-73104787D01*
X128170779Y-73110368D01*
X128134428Y-73114407D01*
X128097076Y-73116860D01*
X128058737Y-73117687D01*
X128058737Y-73117695D01*
X127672441Y-73117695D01*
X127672441Y-73872993D01*
X127280508Y-73872993D01*
X127280508Y-72215279D01*
X127672441Y-72215279D01*
X127672441Y-72764908D01*
X128038980Y-72764908D01*
X128055456Y-72764588D01*
X128071541Y-72763636D01*
X128087227Y-72762061D01*
X128102503Y-72759874D01*
X128117363Y-72757085D01*
X128131797Y-72753704D01*
X128145797Y-72749741D01*
X128159354Y-72745207D01*
X128172459Y-72740112D01*
X128185104Y-72734466D01*
X128197280Y-72728279D01*
X128208978Y-72721562D01*
X128220190Y-72714324D01*
X128230907Y-72706576D01*
X128241120Y-72698328D01*
X128250821Y-72689590D01*
X128260002Y-72680373D01*
X128268652Y-72670686D01*
X128276765Y-72660540D01*
X128284331Y-72649945D01*
X128291341Y-72638912D01*
X128297787Y-72627450D01*
X128303660Y-72615570D01*
X128308952Y-72603282D01*
X128313653Y-72590595D01*
X128317756Y-72577521D01*
X128321251Y-72564070D01*
X128324130Y-72550251D01*
X128326385Y-72536076D01*
X128328006Y-72521553D01*
X128328985Y-72506694D01*
X128329313Y-72491508D01*
X128328985Y-72476314D01*
X128328006Y-72461431D01*
X128326385Y-72446870D01*
X128324130Y-72432643D01*
X128321251Y-72418760D01*
X128317756Y-72405234D01*
X128313653Y-72392074D01*
X128308952Y-72379293D01*
X128303660Y-72366902D01*
X128297787Y-72354911D01*
X128291341Y-72343333D01*
X128284331Y-72332178D01*
X128276765Y-72321457D01*
X128268652Y-72311183D01*
X128260002Y-72301365D01*
X128250821Y-72292016D01*
X128241120Y-72283146D01*
X128230907Y-72274767D01*
X128220190Y-72266891D01*
X128208978Y-72259527D01*
X128197280Y-72252688D01*
X128185104Y-72246385D01*
X128172459Y-72240628D01*
X128159354Y-72235430D01*
X128145797Y-72230802D01*
X128131797Y-72226754D01*
X128117363Y-72223298D01*
X128102503Y-72220445D01*
X128087227Y-72218207D01*
X128071541Y-72216594D01*
X128055456Y-72215618D01*
X128038980Y-72215290D01*
X128038980Y-72215279D01*
X127672441Y-72215279D01*
X127280508Y-72215279D01*
X127280508Y-71865333D01*
X128058737Y-71865333D01*
X128097076Y-71866162D01*
G37*
G36*
X142747265Y-148983989D02*
G01*
X142797870Y-148987871D01*
X142847761Y-148994261D01*
X142896872Y-149003097D01*
X142945140Y-149014313D01*
X142992501Y-149027846D01*
X143038891Y-149043631D01*
X143084246Y-149061604D01*
X143128501Y-149081701D01*
X143171594Y-149103858D01*
X143213459Y-149128010D01*
X143254033Y-149154093D01*
X143293252Y-149182044D01*
X143331051Y-149211797D01*
X143367368Y-149243289D01*
X143402137Y-149276456D01*
X143435294Y-149311233D01*
X143466777Y-149347555D01*
X143496520Y-149385360D01*
X143524460Y-149424582D01*
X143550533Y-149465158D01*
X143574674Y-149507023D01*
X143596820Y-149550113D01*
X143616906Y-149594363D01*
X143634870Y-149639710D01*
X143650645Y-149686090D01*
X143664170Y-149733438D01*
X143675378Y-149781690D01*
X143684208Y-149830781D01*
X143690594Y-149880648D01*
X143694473Y-149931227D01*
X143695780Y-149982452D01*
X143695780Y-162597786D01*
X143694473Y-162649041D01*
X143690594Y-162699644D01*
X143684208Y-162749529D01*
X143675378Y-162798634D01*
X143664170Y-162846894D01*
X143650645Y-162894246D01*
X143634870Y-162940625D01*
X143616906Y-162985968D01*
X143596820Y-163030211D01*
X143574674Y-163073290D01*
X143550533Y-163115140D01*
X143524460Y-163155699D01*
X143496520Y-163194902D01*
X143466777Y-163232686D01*
X143435294Y-163268986D01*
X143402137Y-163303739D01*
X143367368Y-163336880D01*
X143331051Y-163368346D01*
X143293252Y-163398073D01*
X143254033Y-163425998D01*
X143213459Y-163452055D01*
X143171594Y-163476182D01*
X143128501Y-163498314D01*
X143084246Y-163518388D01*
X143038891Y-163536339D01*
X142992501Y-163552104D01*
X142945140Y-163565619D01*
X142896872Y-163576820D01*
X142847761Y-163585643D01*
X142797870Y-163592024D01*
X142747265Y-163595900D01*
X142696009Y-163597206D01*
X134767324Y-163597206D01*
X134716069Y-163595900D01*
X134665467Y-163592024D01*
X134615582Y-163585643D01*
X134566477Y-163576820D01*
X134518217Y-163565619D01*
X134470866Y-163552104D01*
X134424487Y-163536339D01*
X134379144Y-163518388D01*
X134334902Y-163498314D01*
X134291823Y-163476182D01*
X134249973Y-163452055D01*
X134209414Y-163425998D01*
X134170211Y-163398073D01*
X134132427Y-163368346D01*
X134096128Y-163336880D01*
X134061375Y-163303739D01*
X134028234Y-163268986D01*
X133996768Y-163232686D01*
X133967040Y-163194902D01*
X133939116Y-163155699D01*
X133913059Y-163115140D01*
X133888932Y-163073290D01*
X133866800Y-163030211D01*
X133846726Y-162985968D01*
X133828775Y-162940625D01*
X133813010Y-162894246D01*
X133799495Y-162846894D01*
X133788294Y-162798634D01*
X133779471Y-162749529D01*
X133773090Y-162699644D01*
X133769214Y-162649041D01*
X133767908Y-162597786D01*
X133767908Y-151323013D01*
X135476061Y-151323013D01*
X135476229Y-151448664D01*
X135478403Y-151565907D01*
X135481023Y-151621549D01*
X135485082Y-151675296D01*
X135490894Y-151727218D01*
X135498769Y-151777385D01*
X135509022Y-151825864D01*
X135521964Y-151872727D01*
X135537909Y-151918041D01*
X135547105Y-151940139D01*
X135557169Y-151961876D01*
X135568140Y-151983260D01*
X135580057Y-152004301D01*
X135592959Y-152025006D01*
X135606885Y-152045385D01*
X135621874Y-152065447D01*
X135637966Y-152085199D01*
X135655199Y-152104650D01*
X135673612Y-152123810D01*
X135700414Y-152149475D01*
X135728053Y-152173668D01*
X135756556Y-152196363D01*
X135785950Y-152217536D01*
X135816261Y-152237160D01*
X135847517Y-152255210D01*
X135879745Y-152271662D01*
X135912971Y-152286489D01*
X135947222Y-152299667D01*
X135982526Y-152311170D01*
X136018908Y-152320973D01*
X136056396Y-152329050D01*
X136095018Y-152335377D01*
X136134798Y-152339927D01*
X136175766Y-152342675D01*
X136217947Y-152343597D01*
X136260092Y-152342675D01*
X136300960Y-152339927D01*
X136340586Y-152335377D01*
X136379007Y-152329050D01*
X136416261Y-152320973D01*
X136452384Y-152311170D01*
X136487412Y-152299667D01*
X136521382Y-152286489D01*
X136554331Y-152271662D01*
X136586295Y-152255210D01*
X136617312Y-152237160D01*
X136647417Y-152217536D01*
X136676648Y-152196363D01*
X136705042Y-152173668D01*
X136732634Y-152149475D01*
X136759462Y-152123810D01*
X136795074Y-152085199D01*
X136826179Y-152045386D01*
X136853082Y-152004302D01*
X136876087Y-151961877D01*
X136895499Y-151918042D01*
X136911624Y-151872729D01*
X136924767Y-151825867D01*
X136935231Y-151777388D01*
X136943323Y-151727221D01*
X136949346Y-151675299D01*
X136953606Y-151621552D01*
X136956408Y-151565910D01*
X136958857Y-151448666D01*
X136959131Y-151323013D01*
X136958857Y-151197389D01*
X136956409Y-151080219D01*
X136953607Y-151024625D01*
X136949347Y-150970928D01*
X136943324Y-150919058D01*
X136935232Y-150868942D01*
X136924768Y-150820509D01*
X136911626Y-150773687D01*
X136895501Y-150728403D01*
X136886225Y-150706316D01*
X136876088Y-150684587D01*
X136865054Y-150663207D01*
X136853083Y-150642167D01*
X136840138Y-150621457D01*
X136826180Y-150601070D01*
X136811172Y-150580995D01*
X136795075Y-150561225D01*
X136777851Y-150541749D01*
X136759462Y-150522560D01*
X136732634Y-150496833D01*
X136705041Y-150472586D01*
X136676647Y-150449844D01*
X136647416Y-150428632D01*
X136617310Y-150408975D01*
X136586293Y-150390897D01*
X136554329Y-150374422D01*
X136521380Y-150359577D01*
X136487410Y-150346385D01*
X136452383Y-150334872D01*
X136416260Y-150325062D01*
X136388317Y-150319000D01*
X137329557Y-150319000D01*
X137329557Y-151638748D01*
X137330508Y-151678264D01*
X137333330Y-151716892D01*
X137337980Y-151754608D01*
X137344413Y-151791388D01*
X137352585Y-151827207D01*
X137362450Y-151862043D01*
X137373966Y-151895870D01*
X137387087Y-151928665D01*
X137401769Y-151960404D01*
X137417969Y-151991062D01*
X137435640Y-152020616D01*
X137454739Y-152049042D01*
X137475223Y-152076315D01*
X137497045Y-152102412D01*
X137520162Y-152127309D01*
X137544530Y-152150981D01*
X137570104Y-152173404D01*
X137596839Y-152194555D01*
X137624692Y-152214410D01*
X137653618Y-152232944D01*
X137683573Y-152250133D01*
X137714511Y-152265954D01*
X137746390Y-152280381D01*
X137779164Y-152293393D01*
X137812789Y-152304963D01*
X137847221Y-152315069D01*
X137882416Y-152323686D01*
X137918328Y-152330790D01*
X137954914Y-152336357D01*
X137992129Y-152340363D01*
X138029929Y-152342785D01*
X138068270Y-152343597D01*
X138106579Y-152342785D01*
X138144353Y-152340363D01*
X138181545Y-152336357D01*
X138218112Y-152330790D01*
X138254008Y-152323686D01*
X138289189Y-152315069D01*
X138323611Y-152304963D01*
X138357229Y-152293393D01*
X138389999Y-152280381D01*
X138421875Y-152265954D01*
X138452813Y-152250133D01*
X138482770Y-152232944D01*
X138511699Y-152214410D01*
X138539557Y-152194555D01*
X138566300Y-152173404D01*
X138591881Y-152150981D01*
X138616258Y-152127309D01*
X138639384Y-152102412D01*
X138661217Y-152076315D01*
X138681711Y-152049042D01*
X138700821Y-152020616D01*
X138718504Y-151991062D01*
X138734714Y-151960404D01*
X138749406Y-151928665D01*
X138762538Y-151895870D01*
X138774062Y-151862043D01*
X138783937Y-151827207D01*
X138792115Y-151791388D01*
X138798554Y-151754608D01*
X138803209Y-151716892D01*
X138806034Y-151678264D01*
X138806986Y-151638748D01*
X138806991Y-150669311D01*
X139095205Y-150669311D01*
X139620142Y-150669311D01*
X139620142Y-152326660D01*
X140012075Y-152326660D01*
X140012075Y-151069359D01*
X140912363Y-151069359D01*
X141320883Y-150714462D01*
X141320883Y-152326660D01*
X141687422Y-152326660D01*
X141687422Y-150318993D01*
X141320883Y-150318993D01*
X140912363Y-150674599D01*
X140912363Y-151069359D01*
X140012075Y-151069359D01*
X140012075Y-150669311D01*
X140535948Y-150669311D01*
X140535948Y-150319000D01*
X139095205Y-150319000D01*
X139095205Y-150669311D01*
X138806991Y-150669311D01*
X138806993Y-150319000D01*
X138417520Y-150319000D01*
X138417520Y-151624634D01*
X138417118Y-151646055D01*
X138415920Y-151666923D01*
X138413937Y-151687228D01*
X138411181Y-151706963D01*
X138407664Y-151726119D01*
X138403398Y-151744689D01*
X138398395Y-151762662D01*
X138392666Y-151780033D01*
X138386224Y-151796791D01*
X138379080Y-151812929D01*
X138371245Y-151828439D01*
X138362733Y-151843312D01*
X138353554Y-151857541D01*
X138343721Y-151871116D01*
X138333245Y-151884030D01*
X138322138Y-151896274D01*
X138310412Y-151907839D01*
X138298079Y-151918719D01*
X138285150Y-151928904D01*
X138271638Y-151938387D01*
X138257554Y-151947158D01*
X138242910Y-151955210D01*
X138227717Y-151962534D01*
X138211989Y-151969123D01*
X138195735Y-151974967D01*
X138178970Y-151980059D01*
X138161703Y-151984390D01*
X138143947Y-151987952D01*
X138125714Y-151990737D01*
X138107015Y-151992737D01*
X138087863Y-151993943D01*
X138068270Y-151994347D01*
X138048683Y-151993943D01*
X138029552Y-151992737D01*
X138010887Y-151990737D01*
X137992699Y-151987952D01*
X137975000Y-151984390D01*
X137957799Y-151980059D01*
X137941108Y-151974967D01*
X137924938Y-151969123D01*
X137909300Y-151962534D01*
X137894205Y-151955210D01*
X137879663Y-151947158D01*
X137865685Y-151938387D01*
X137852283Y-151928904D01*
X137839467Y-151918719D01*
X137827249Y-151907839D01*
X137815638Y-151896274D01*
X137804647Y-151884030D01*
X137794286Y-151871116D01*
X137784565Y-151857541D01*
X137775497Y-151843312D01*
X137767091Y-151828439D01*
X137759359Y-151812929D01*
X137752311Y-151796791D01*
X137745959Y-151780033D01*
X137740314Y-151762662D01*
X137735385Y-151744689D01*
X137731185Y-151726119D01*
X137727724Y-151706963D01*
X137725013Y-151687228D01*
X137723064Y-151666923D01*
X137721886Y-151646055D01*
X137721491Y-151624634D01*
X137721491Y-150319000D01*
X137329557Y-150319000D01*
X136388317Y-150319000D01*
X136379007Y-150316981D01*
X136340586Y-150310651D01*
X136300960Y-150306100D01*
X136260092Y-150303351D01*
X136217947Y-150302429D01*
X136175766Y-150303351D01*
X136134798Y-150306100D01*
X136095018Y-150310651D01*
X136056396Y-150316981D01*
X136018908Y-150325062D01*
X135982526Y-150334872D01*
X135947222Y-150346385D01*
X135912971Y-150359577D01*
X135879745Y-150374422D01*
X135847517Y-150390897D01*
X135816261Y-150408975D01*
X135785950Y-150428632D01*
X135756556Y-150449844D01*
X135728053Y-150472586D01*
X135700414Y-150496833D01*
X135673612Y-150522560D01*
X135637966Y-150561225D01*
X135606885Y-150601070D01*
X135580057Y-150642167D01*
X135557169Y-150684587D01*
X135537909Y-150728403D01*
X135521964Y-150773687D01*
X135509022Y-150820509D01*
X135498769Y-150868942D01*
X135490894Y-150919058D01*
X135485082Y-150970928D01*
X135481023Y-151024625D01*
X135478403Y-151080219D01*
X135476229Y-151197389D01*
X135476061Y-151323013D01*
X133767908Y-151323013D01*
X133767908Y-149982452D01*
X133769214Y-149931227D01*
X133773090Y-149880648D01*
X133779471Y-149830781D01*
X133788294Y-149781690D01*
X133799495Y-149733438D01*
X133813010Y-149686090D01*
X133828775Y-149639710D01*
X133846726Y-149594363D01*
X133866800Y-149550113D01*
X133888932Y-149507023D01*
X133913059Y-149465158D01*
X133939116Y-149424582D01*
X133967040Y-149385360D01*
X133996768Y-149347555D01*
X134028234Y-149311233D01*
X134061375Y-149276456D01*
X134096128Y-149243289D01*
X134132427Y-149211797D01*
X134170211Y-149182044D01*
X134209414Y-149154093D01*
X134249973Y-149128010D01*
X134291823Y-149103858D01*
X134334902Y-149081701D01*
X134379144Y-149061604D01*
X134424487Y-149043631D01*
X134470866Y-149027846D01*
X134518217Y-149014313D01*
X134566477Y-149003097D01*
X134615582Y-148994261D01*
X134665467Y-148987871D01*
X134716069Y-148983989D01*
X134767324Y-148982681D01*
X142696009Y-148982681D01*
X142747265Y-148983989D01*
G37*
G36*
X131065954Y-73873196D02*
G01*
X130674021Y-73873196D01*
X130674021Y-71865536D01*
X131065954Y-71865536D01*
X131065954Y-73873196D01*
G37*
G36*
X132825472Y-72215279D02*
G01*
X132301241Y-72215279D01*
X132301241Y-73872978D01*
X131909658Y-73872978D01*
X131909658Y-72215279D01*
X131384722Y-72215279D01*
X131384722Y-71865318D01*
X132825472Y-71865318D01*
X132825472Y-72215279D01*
G37*
G36*
X129908983Y-85873669D02*
G01*
X130312559Y-84565567D01*
X130721079Y-84565567D01*
X130055738Y-86572872D01*
X129762579Y-86572872D01*
X129100065Y-84565567D01*
X129506113Y-84565567D01*
X129908983Y-85873669D01*
G37*
G36*
X128557916Y-90315273D02*
G01*
X127627642Y-90315281D01*
X127627642Y-90808815D01*
X128419626Y-90808815D01*
X128419626Y-91158413D01*
X127627642Y-91158413D01*
X127627642Y-91972973D01*
X127235704Y-91972973D01*
X127235704Y-89965309D01*
X128557916Y-89965309D01*
X128557916Y-90315273D01*
G37*
G36*
X144624356Y-82012372D02*
G01*
X144651794Y-82013464D01*
X144678745Y-82015282D01*
X144705212Y-82017829D01*
X144731200Y-82021103D01*
X144756713Y-82025105D01*
X144781753Y-82029835D01*
X144806326Y-82035293D01*
X144830155Y-82041480D01*
X144853484Y-82048393D01*
X144876308Y-82056032D01*
X144898623Y-82064399D01*
X144920425Y-82073493D01*
X144941711Y-82083316D01*
X144962477Y-82093867D01*
X144982717Y-82105148D01*
X144992482Y-82111076D01*
X145001933Y-82117086D01*
X145011069Y-82123181D01*
X145019891Y-82129360D01*
X145028399Y-82135623D01*
X145036593Y-82141972D01*
X145044473Y-82148408D01*
X145052038Y-82154929D01*
X145059289Y-82161538D01*
X145066226Y-82168234D01*
X145072849Y-82175018D01*
X145079158Y-82181891D01*
X145085152Y-82188852D01*
X145090833Y-82195904D01*
X145096199Y-82203045D01*
X145101251Y-82210277D01*
X145105882Y-82217206D01*
X145110262Y-82224233D01*
X145114402Y-82231359D01*
X145118315Y-82238585D01*
X145122013Y-82245910D01*
X145125509Y-82253335D01*
X145128816Y-82260860D01*
X145131944Y-82268486D01*
X145134571Y-82276339D01*
X145136887Y-82284297D01*
X145137926Y-82288317D01*
X145138882Y-82292364D01*
X145139755Y-82296440D01*
X145140542Y-82300544D01*
X145141243Y-82304677D01*
X145141856Y-82308839D01*
X145142378Y-82313032D01*
X145142809Y-82317255D01*
X145143147Y-82321509D01*
X145143390Y-82325794D01*
X145143538Y-82330112D01*
X145143587Y-82334461D01*
X145143587Y-83061890D01*
X145143401Y-83071135D01*
X145142845Y-83080346D01*
X145141920Y-83089525D01*
X145140627Y-83098670D01*
X145138969Y-83107782D01*
X145136946Y-83116860D01*
X145134561Y-83125905D01*
X145131814Y-83134917D01*
X145128707Y-83143896D01*
X145125243Y-83152842D01*
X145121422Y-83161754D01*
X145117246Y-83170634D01*
X145112716Y-83179480D01*
X145107834Y-83188294D01*
X145102602Y-83197074D01*
X145097021Y-83205822D01*
X145091043Y-83213055D01*
X145084750Y-83220205D01*
X145078142Y-83227270D01*
X145071218Y-83234250D01*
X145063978Y-83241143D01*
X145056422Y-83247948D01*
X145048547Y-83254665D01*
X145040356Y-83261292D01*
X145031845Y-83267828D01*
X145023016Y-83274272D01*
X145013868Y-83280623D01*
X145004400Y-83286881D01*
X144994612Y-83293043D01*
X144984502Y-83299110D01*
X144974072Y-83305080D01*
X144963320Y-83310951D01*
X144941128Y-83322295D01*
X144918208Y-83333039D01*
X144894560Y-83343179D01*
X144870185Y-83352711D01*
X144845082Y-83361632D01*
X144819251Y-83369938D01*
X144792692Y-83377625D01*
X144765405Y-83384689D01*
X144737427Y-83391123D01*
X144708787Y-83396672D01*
X144679485Y-83401345D01*
X144649521Y-83405149D01*
X144618895Y-83408093D01*
X144587608Y-83410186D01*
X144555660Y-83411435D01*
X144523050Y-83411850D01*
X144913225Y-83949478D01*
X144670160Y-84111050D01*
X144073259Y-83326828D01*
X144270815Y-83140556D01*
X144577024Y-83206535D01*
X144685678Y-83206535D01*
X144699868Y-83204465D01*
X144713333Y-83202226D01*
X144726080Y-83199814D01*
X144738111Y-83197224D01*
X144749431Y-83194453D01*
X144760044Y-83191496D01*
X144769954Y-83188349D01*
X144779165Y-83185009D01*
X144787482Y-83181536D01*
X144795228Y-83177997D01*
X144798884Y-83176204D01*
X144802395Y-83174393D01*
X144805760Y-83172566D01*
X144808976Y-83170723D01*
X144812044Y-83168863D01*
X144814961Y-83166986D01*
X144817728Y-83165092D01*
X144820342Y-83163182D01*
X144822804Y-83161255D01*
X144825111Y-83159311D01*
X144827264Y-83157350D01*
X144829260Y-83155373D01*
X144852896Y-83104568D01*
X144852896Y-82323166D01*
X144849935Y-82316600D01*
X144847131Y-82310659D01*
X144844476Y-82305339D01*
X144841961Y-82300634D01*
X144839578Y-82296541D01*
X144837319Y-82293055D01*
X144836234Y-82291539D01*
X144835177Y-82290172D01*
X144834147Y-82288955D01*
X144833143Y-82287887D01*
X144830695Y-82285458D01*
X144828117Y-82283060D01*
X144825410Y-82280694D01*
X144822575Y-82278359D01*
X144819613Y-82276055D01*
X144816528Y-82273781D01*
X144813319Y-82271537D01*
X144809989Y-82269322D01*
X144806539Y-82267136D01*
X144802971Y-82264978D01*
X144799287Y-82262849D01*
X144795486Y-82260746D01*
X144791573Y-82258671D01*
X144787547Y-82256622D01*
X144783411Y-82254599D01*
X144779165Y-82252602D01*
X144759413Y-82248726D01*
X144740011Y-82240967D01*
X144720960Y-82240967D01*
X144701208Y-82233208D01*
X144495535Y-82233208D01*
X144490280Y-82233261D01*
X144485099Y-82233423D01*
X144479991Y-82233691D01*
X144474956Y-82234067D01*
X144469994Y-82234551D01*
X144465104Y-82235142D01*
X144460284Y-82235841D01*
X144455536Y-82236647D01*
X144450858Y-82237561D01*
X144446250Y-82238582D01*
X144441711Y-82239711D01*
X144437241Y-82240947D01*
X144432839Y-82242291D01*
X144428505Y-82243742D01*
X144424238Y-82245301D01*
X144420038Y-82246967D01*
X144416048Y-82248711D01*
X144412151Y-82250505D01*
X144408349Y-82252347D01*
X144404641Y-82254237D01*
X144401031Y-82256175D01*
X144397520Y-82258160D01*
X144394109Y-82260191D01*
X144390800Y-82262268D01*
X144387595Y-82264391D01*
X144384494Y-82266558D01*
X144381499Y-82268770D01*
X144378613Y-82271026D01*
X144375836Y-82273324D01*
X144373170Y-82275666D01*
X144370617Y-82278050D01*
X144368177Y-82280476D01*
X144352651Y-82328453D01*
X144352651Y-82694630D01*
X144057730Y-82694630D01*
X144057730Y-82331627D01*
X144057887Y-82323854D01*
X144058359Y-82316148D01*
X144059146Y-82308506D01*
X144060249Y-82300929D01*
X144061668Y-82293417D01*
X144063404Y-82285968D01*
X144065457Y-82278582D01*
X144067828Y-82271259D01*
X144070518Y-82263998D01*
X144073526Y-82256799D01*
X144076854Y-82249660D01*
X144080502Y-82242582D01*
X144084470Y-82235563D01*
X144088759Y-82228605D01*
X144093370Y-82221705D01*
X144098303Y-82214863D01*
X144103537Y-82208071D01*
X144109053Y-82201320D01*
X144114853Y-82194612D01*
X144120936Y-82187947D01*
X144127305Y-82181325D01*
X144133961Y-82174747D01*
X144140904Y-82168213D01*
X144148135Y-82161724D01*
X144155655Y-82155281D01*
X144163466Y-82148883D01*
X144171568Y-82142532D01*
X144179963Y-82136228D01*
X144188651Y-82129971D01*
X144197633Y-82123763D01*
X144206911Y-82117603D01*
X144216486Y-82111492D01*
X144235834Y-82099800D01*
X144254987Y-82089067D01*
X144273950Y-82079294D01*
X144292728Y-82070481D01*
X144302048Y-82066434D01*
X144311323Y-82062628D01*
X144320554Y-82059060D01*
X144329741Y-82055733D01*
X144338885Y-82052646D01*
X144347985Y-82049798D01*
X144357044Y-82047191D01*
X144366060Y-82044823D01*
X144400605Y-82036695D01*
X144432339Y-82029786D01*
X144447183Y-82026800D01*
X144461362Y-82024132D01*
X144474887Y-82021786D01*
X144487772Y-82019768D01*
X144500485Y-82017914D01*
X144513480Y-82016322D01*
X144526739Y-82014986D01*
X144540246Y-82013903D01*
X144553985Y-82013068D01*
X144567939Y-82012476D01*
X144582092Y-82012125D01*
X144596426Y-82012009D01*
X144624356Y-82012372D01*
G37*
G36*
X126262231Y-71849190D02*
G01*
X126311384Y-71851636D01*
X126358906Y-71855766D01*
X126404867Y-71861625D01*
X126449334Y-71869258D01*
X126492379Y-71878708D01*
X126534069Y-71890022D01*
X126574475Y-71903242D01*
X126613665Y-71918414D01*
X126651709Y-71935581D01*
X126688676Y-71954789D01*
X126724636Y-71976082D01*
X126759657Y-71999503D01*
X126793808Y-72025099D01*
X126827160Y-72052912D01*
X126859781Y-72082989D01*
X126611780Y-72327812D01*
X126587627Y-72306265D01*
X126562966Y-72287045D01*
X126537862Y-72270021D01*
X126512379Y-72255065D01*
X126486579Y-72242048D01*
X126460526Y-72230841D01*
X126434285Y-72221314D01*
X126407917Y-72213338D01*
X126381488Y-72206785D01*
X126355060Y-72201524D01*
X126328698Y-72197427D01*
X126302464Y-72194364D01*
X126276422Y-72192207D01*
X126250636Y-72190826D01*
X126200086Y-72189876D01*
X126180822Y-72190213D01*
X126162188Y-72191210D01*
X126144181Y-72192851D01*
X126126801Y-72195118D01*
X126110048Y-72197995D01*
X126093918Y-72201464D01*
X126078413Y-72205509D01*
X126063529Y-72210112D01*
X126049267Y-72215256D01*
X126035625Y-72220924D01*
X126022601Y-72227099D01*
X126010195Y-72233763D01*
X125998406Y-72240900D01*
X125987232Y-72248493D01*
X125976672Y-72256524D01*
X125966726Y-72264976D01*
X125957391Y-72273832D01*
X125948666Y-72283075D01*
X125940552Y-72292688D01*
X125933045Y-72302654D01*
X125926146Y-72312956D01*
X125919853Y-72323576D01*
X125914165Y-72334497D01*
X125909080Y-72345703D01*
X125904598Y-72357175D01*
X125900717Y-72368898D01*
X125897437Y-72380854D01*
X125894756Y-72393025D01*
X125891185Y-72417947D01*
X125889997Y-72443527D01*
X125890194Y-72453082D01*
X125890793Y-72462677D01*
X125891809Y-72472287D01*
X125893255Y-72481888D01*
X125895145Y-72491453D01*
X125897494Y-72500957D01*
X125900315Y-72510376D01*
X125903622Y-72519684D01*
X125907430Y-72528855D01*
X125911752Y-72537864D01*
X125916602Y-72546687D01*
X125921994Y-72555297D01*
X125927942Y-72563669D01*
X125934460Y-72571779D01*
X125941562Y-72579601D01*
X125949262Y-72587109D01*
X125956904Y-72593981D01*
X125965137Y-72600692D01*
X125973947Y-72607222D01*
X125983322Y-72613551D01*
X125993249Y-72619659D01*
X126003715Y-72625526D01*
X126014706Y-72631131D01*
X126026212Y-72636454D01*
X126038217Y-72641476D01*
X126050710Y-72646176D01*
X126063677Y-72650534D01*
X126077105Y-72654530D01*
X126090982Y-72658143D01*
X126105295Y-72661354D01*
X126120030Y-72664143D01*
X126135176Y-72666489D01*
X126371893Y-72700359D01*
X126405503Y-72705415D01*
X126437579Y-72711063D01*
X126468175Y-72717309D01*
X126497342Y-72724158D01*
X126525135Y-72731614D01*
X126551606Y-72739684D01*
X126576810Y-72748371D01*
X126600798Y-72757682D01*
X126623625Y-72767622D01*
X126645344Y-72778195D01*
X126666007Y-72789407D01*
X126685668Y-72801262D01*
X126704381Y-72813767D01*
X126722198Y-72826926D01*
X126739172Y-72840745D01*
X126755358Y-72855228D01*
X126774774Y-72874744D01*
X126792819Y-72895313D01*
X126809507Y-72916911D01*
X126824856Y-72939516D01*
X126838882Y-72963105D01*
X126851601Y-72987655D01*
X126863031Y-73013144D01*
X126873187Y-73039549D01*
X126882086Y-73066847D01*
X126889745Y-73095015D01*
X126896181Y-73124031D01*
X126901409Y-73153871D01*
X126905447Y-73184514D01*
X126908310Y-73215935D01*
X126910016Y-73248113D01*
X126910581Y-73281025D01*
X126909638Y-73316975D01*
X126906834Y-73351929D01*
X126902213Y-73385875D01*
X126895816Y-73418805D01*
X126887685Y-73450709D01*
X126877863Y-73481579D01*
X126866390Y-73511403D01*
X126853310Y-73540174D01*
X126838664Y-73567881D01*
X126822495Y-73594515D01*
X126804843Y-73620067D01*
X126785752Y-73644527D01*
X126765263Y-73667886D01*
X126743418Y-73690134D01*
X126720259Y-73711262D01*
X126695828Y-73731261D01*
X126670168Y-73750120D01*
X126643319Y-73767832D01*
X126615324Y-73784385D01*
X126586226Y-73799771D01*
X126556066Y-73813981D01*
X126524885Y-73827004D01*
X126492727Y-73838832D01*
X126459632Y-73849455D01*
X126425644Y-73858864D01*
X126390804Y-73867048D01*
X126355153Y-73874000D01*
X126318734Y-73879708D01*
X126281590Y-73884165D01*
X126243761Y-73887360D01*
X126205290Y-73889283D01*
X126166220Y-73889927D01*
X126166223Y-73889919D01*
X126109986Y-73889141D01*
X126055403Y-73886739D01*
X126002418Y-73882610D01*
X125950974Y-73876651D01*
X125901014Y-73868760D01*
X125852481Y-73858833D01*
X125805319Y-73846767D01*
X125759470Y-73832460D01*
X125714878Y-73815809D01*
X125671486Y-73796712D01*
X125629238Y-73775064D01*
X125588075Y-73750764D01*
X125547941Y-73723708D01*
X125508781Y-73693795D01*
X125470535Y-73660920D01*
X125433149Y-73624981D01*
X125686800Y-73371330D01*
X125711072Y-73394100D01*
X125736365Y-73414955D01*
X125762632Y-73433957D01*
X125789828Y-73451167D01*
X125817906Y-73466646D01*
X125846821Y-73480457D01*
X125876527Y-73492660D01*
X125906977Y-73503318D01*
X125938126Y-73512491D01*
X125969928Y-73520242D01*
X126002336Y-73526631D01*
X126035305Y-73531721D01*
X126068789Y-73535573D01*
X126102742Y-73538247D01*
X126137117Y-73539807D01*
X126171869Y-73540314D01*
X126213933Y-73539292D01*
X126253460Y-73536241D01*
X126290424Y-73531180D01*
X126324802Y-73524131D01*
X126356569Y-73515115D01*
X126385702Y-73504151D01*
X126399272Y-73497945D01*
X126412175Y-73491261D01*
X126424406Y-73484100D01*
X126435964Y-73476465D01*
X126446845Y-73468358D01*
X126457046Y-73459783D01*
X126466563Y-73450742D01*
X126475395Y-73441237D01*
X126483538Y-73431271D01*
X126490988Y-73420847D01*
X126497743Y-73409967D01*
X126503801Y-73398633D01*
X126509156Y-73386849D01*
X126513808Y-73374617D01*
X126517752Y-73361939D01*
X126520986Y-73348819D01*
X126523507Y-73335258D01*
X126525311Y-73321259D01*
X126526396Y-73306825D01*
X126526758Y-73291958D01*
X126526526Y-73278928D01*
X126525827Y-73266175D01*
X126524658Y-73253709D01*
X126523016Y-73241542D01*
X126520895Y-73229686D01*
X126518294Y-73218150D01*
X126515208Y-73206948D01*
X126511634Y-73196090D01*
X126507567Y-73185587D01*
X126503005Y-73175451D01*
X126497944Y-73165694D01*
X126492380Y-73156326D01*
X126486309Y-73147359D01*
X126479728Y-73138805D01*
X126472633Y-73130674D01*
X126465021Y-73122978D01*
X126457474Y-73116353D01*
X126449742Y-73110093D01*
X126441763Y-73104183D01*
X126433476Y-73098608D01*
X126424818Y-73093354D01*
X126415729Y-73088405D01*
X126406148Y-73083747D01*
X126396011Y-73079363D01*
X126385259Y-73075240D01*
X126373829Y-73071363D01*
X126361660Y-73067716D01*
X126348690Y-73064284D01*
X126334859Y-73061053D01*
X126320104Y-73058008D01*
X126304363Y-73055133D01*
X126287577Y-73052414D01*
X126044866Y-73018543D01*
X126013118Y-73013511D01*
X125982423Y-73007801D01*
X125952770Y-73001406D01*
X125924144Y-72994318D01*
X125896533Y-72986530D01*
X125869924Y-72978033D01*
X125844304Y-72968819D01*
X125819660Y-72958882D01*
X125795980Y-72948213D01*
X125773250Y-72936805D01*
X125751457Y-72924649D01*
X125730589Y-72911738D01*
X125710632Y-72898064D01*
X125691574Y-72883619D01*
X125673402Y-72868396D01*
X125656103Y-72852386D01*
X125638670Y-72834055D01*
X125622354Y-72814907D01*
X125607156Y-72794936D01*
X125593078Y-72774135D01*
X125580120Y-72752500D01*
X125568283Y-72730023D01*
X125557569Y-72706699D01*
X125547978Y-72682521D01*
X125539512Y-72657483D01*
X125532171Y-72631579D01*
X125525957Y-72604803D01*
X125520870Y-72577149D01*
X125516912Y-72548610D01*
X125514084Y-72519181D01*
X125512386Y-72488855D01*
X125511820Y-72457626D01*
X125512593Y-72424375D01*
X125514901Y-72391776D01*
X125518727Y-72359856D01*
X125524053Y-72328643D01*
X125530861Y-72298161D01*
X125539134Y-72268437D01*
X125548856Y-72239499D01*
X125560007Y-72211371D01*
X125572572Y-72184082D01*
X125586531Y-72157656D01*
X125601869Y-72132121D01*
X125618567Y-72107503D01*
X125636609Y-72083829D01*
X125655975Y-72061124D01*
X125676651Y-72039415D01*
X125698616Y-72018729D01*
X125721855Y-71999092D01*
X125746350Y-71980531D01*
X125772084Y-71963071D01*
X125799038Y-71946739D01*
X125827196Y-71931563D01*
X125856540Y-71917567D01*
X125887053Y-71904779D01*
X125918717Y-71893225D01*
X125951514Y-71882931D01*
X125985428Y-71873924D01*
X126020441Y-71866231D01*
X126056535Y-71859877D01*
X126093694Y-71854889D01*
X126131898Y-71851293D01*
X126171132Y-71849116D01*
X126211378Y-71848385D01*
X126262231Y-71849190D01*
G37*
G36*
X126005216Y-91623463D02*
G01*
X126916090Y-91623463D01*
X126916090Y-91973061D01*
X125613634Y-91973061D01*
X125613634Y-89965401D01*
X126005216Y-89965401D01*
X126005216Y-91623463D01*
G37*
G36*
X126377136Y-100766243D02*
G01*
X126415428Y-100768351D01*
X126453162Y-100771889D01*
X126490285Y-100776878D01*
X126526739Y-100783339D01*
X126562471Y-100791293D01*
X126597425Y-100800759D01*
X126631545Y-100811760D01*
X126664776Y-100824315D01*
X126697064Y-100838445D01*
X126728351Y-100854170D01*
X126758585Y-100871512D01*
X126787708Y-100890492D01*
X126815666Y-100911129D01*
X126842403Y-100933444D01*
X126867864Y-100957458D01*
X126888312Y-100978742D01*
X126907353Y-101000320D01*
X126925039Y-101022188D01*
X126941418Y-101044342D01*
X126956541Y-101066776D01*
X126970456Y-101089486D01*
X126983214Y-101112467D01*
X126994864Y-101135714D01*
X127005455Y-101159223D01*
X127015038Y-101182988D01*
X127031376Y-101231270D01*
X127044274Y-101280520D01*
X127054129Y-101330702D01*
X127061339Y-101381776D01*
X127066300Y-101433705D01*
X127069409Y-101486451D01*
X127071062Y-101539974D01*
X127071591Y-101649203D01*
X127071062Y-101761085D01*
X127071062Y-101984643D01*
X127069409Y-102039415D01*
X127066300Y-102093563D01*
X127061339Y-102146999D01*
X127054129Y-102199634D01*
X127044274Y-102251380D01*
X127031376Y-102302150D01*
X127015038Y-102351853D01*
X126994864Y-102400402D01*
X126970456Y-102447709D01*
X126956541Y-102470869D01*
X126941418Y-102493685D01*
X126925039Y-102516146D01*
X126907353Y-102538242D01*
X126888312Y-102559961D01*
X126867864Y-102581291D01*
X126842403Y-102605303D01*
X126815666Y-102627608D01*
X126787708Y-102648228D01*
X126758585Y-102667185D01*
X126728351Y-102684500D01*
X126697064Y-102700196D01*
X126664776Y-102714294D01*
X126631545Y-102726815D01*
X126597425Y-102737782D01*
X126562471Y-102747216D01*
X126526739Y-102755139D01*
X126490285Y-102761573D01*
X126453162Y-102766539D01*
X126415428Y-102770060D01*
X126377136Y-102772156D01*
X126338342Y-102772850D01*
X125613737Y-102772850D01*
X125613737Y-101115147D01*
X126005319Y-101115147D01*
X126005319Y-102423599D01*
X126301653Y-102423599D01*
X126326467Y-102423104D01*
X126350264Y-102421620D01*
X126373074Y-102419151D01*
X126394931Y-102415700D01*
X126415865Y-102411272D01*
X126435910Y-102405870D01*
X126455096Y-102399498D01*
X126473457Y-102392158D01*
X126491024Y-102383856D01*
X126507830Y-102374593D01*
X126523905Y-102364375D01*
X126539284Y-102353204D01*
X126553996Y-102341084D01*
X126568075Y-102328019D01*
X126581553Y-102314013D01*
X126594461Y-102299068D01*
X126601160Y-102290473D01*
X126607504Y-102281543D01*
X126613503Y-102272257D01*
X126619166Y-102262597D01*
X126624502Y-102252543D01*
X126629522Y-102242075D01*
X126638645Y-102219821D01*
X126646611Y-102195681D01*
X126653494Y-102169497D01*
X126659369Y-102141116D01*
X126664309Y-102110380D01*
X126668389Y-102077135D01*
X126671684Y-102041225D01*
X126674267Y-102002494D01*
X126676214Y-101960787D01*
X126677599Y-101915948D01*
X126678496Y-101867822D01*
X126679125Y-101761085D01*
X126678496Y-101654861D01*
X126676214Y-101563675D01*
X126671684Y-101485867D01*
X126668389Y-101451460D01*
X126664309Y-101419774D01*
X126659369Y-101390602D01*
X126653494Y-101363736D01*
X126646611Y-101338968D01*
X126638645Y-101316090D01*
X126629522Y-101294895D01*
X126619166Y-101275176D01*
X126607504Y-101256723D01*
X126594461Y-101239330D01*
X126581553Y-101224506D01*
X126568075Y-101210597D01*
X126553996Y-101197608D01*
X126539284Y-101185546D01*
X126523905Y-101174417D01*
X126507830Y-101164225D01*
X126491024Y-101154977D01*
X126473457Y-101146678D01*
X126455096Y-101139335D01*
X126435910Y-101132952D01*
X126415865Y-101127535D01*
X126394931Y-101123090D01*
X126373074Y-101119623D01*
X126350264Y-101117140D01*
X126326467Y-101115646D01*
X126301653Y-101115147D01*
X126005319Y-101115147D01*
X125613737Y-101115147D01*
X125613737Y-100765545D01*
X126338342Y-100765545D01*
X126377136Y-100766243D01*
G37*
G36*
X121834253Y-150669197D02*
G01*
X121310381Y-150669197D01*
X121310381Y-152326553D01*
X120918442Y-152326553D01*
X120918442Y-150669197D01*
X120393862Y-150669197D01*
X120393862Y-150319603D01*
X121834253Y-150319603D01*
X121834253Y-150669197D01*
G37*
G36*
X128296852Y-100766189D02*
G01*
X128333677Y-100768597D01*
X128369502Y-100772560D01*
X128404313Y-100778037D01*
X128438096Y-100784988D01*
X128470837Y-100793371D01*
X128502522Y-100803145D01*
X128533138Y-100814270D01*
X128562669Y-100826704D01*
X128591102Y-100840407D01*
X128618422Y-100855337D01*
X128644616Y-100871454D01*
X128669670Y-100888717D01*
X128693569Y-100907084D01*
X128716300Y-100926515D01*
X128737848Y-100946969D01*
X128758199Y-100968405D01*
X128777339Y-100990781D01*
X128795254Y-101014058D01*
X128811930Y-101038193D01*
X128827353Y-101063147D01*
X128841508Y-101088878D01*
X128854383Y-101115344D01*
X128865962Y-101142506D01*
X128876231Y-101170322D01*
X128885177Y-101198752D01*
X128892785Y-101227754D01*
X128899042Y-101257287D01*
X128903932Y-101287310D01*
X128907443Y-101317783D01*
X128909560Y-101348664D01*
X128910269Y-101379913D01*
X128909770Y-101406058D01*
X128908292Y-101431574D01*
X128905861Y-101456464D01*
X128902506Y-101480726D01*
X128898253Y-101504361D01*
X128893130Y-101527370D01*
X128887164Y-101549754D01*
X128880382Y-101571512D01*
X128872811Y-101592645D01*
X128864479Y-101613154D01*
X128845640Y-101652301D01*
X128824083Y-101688956D01*
X128800025Y-101723123D01*
X128773686Y-101754805D01*
X128745282Y-101784006D01*
X128715033Y-101810730D01*
X128683156Y-101834980D01*
X128649869Y-101856759D01*
X128615390Y-101876073D01*
X128579938Y-101892923D01*
X128543730Y-101907314D01*
X128991758Y-102773033D01*
X128537737Y-102773033D01*
X128146154Y-101972580D01*
X127864282Y-101972580D01*
X127864282Y-102773033D01*
X127472696Y-102773033D01*
X127472696Y-101115322D01*
X127864282Y-101115322D01*
X127864282Y-101645199D01*
X128233641Y-101645199D01*
X128249604Y-101644879D01*
X128265208Y-101643929D01*
X128280443Y-101642358D01*
X128295300Y-101640181D01*
X128309769Y-101637407D01*
X128323840Y-101634048D01*
X128337504Y-101630117D01*
X128350751Y-101625625D01*
X128363570Y-101620583D01*
X128375954Y-101615004D01*
X128387891Y-101608899D01*
X128399372Y-101602280D01*
X128410387Y-101595158D01*
X128420928Y-101587545D01*
X128430983Y-101579454D01*
X128440543Y-101570894D01*
X128449600Y-101561879D01*
X128458142Y-101552420D01*
X128466160Y-101542528D01*
X128473645Y-101532216D01*
X128480587Y-101521494D01*
X128486976Y-101510375D01*
X128492803Y-101498871D01*
X128498057Y-101486992D01*
X128502730Y-101474752D01*
X128506811Y-101462160D01*
X128510291Y-101449230D01*
X128513160Y-101435973D01*
X128515408Y-101422400D01*
X128517025Y-101408524D01*
X128518003Y-101394355D01*
X128518331Y-101379906D01*
X128518003Y-101365552D01*
X128517025Y-101351472D01*
X128515408Y-101337675D01*
X128513160Y-101324175D01*
X128510291Y-101310984D01*
X128506811Y-101298113D01*
X128502730Y-101285574D01*
X128498057Y-101273380D01*
X128492803Y-101261543D01*
X128486976Y-101250074D01*
X128480587Y-101238985D01*
X128473645Y-101228290D01*
X128466160Y-101217998D01*
X128458142Y-101208124D01*
X128449600Y-101198678D01*
X128440543Y-101189672D01*
X128430983Y-101181120D01*
X128420928Y-101173032D01*
X128410387Y-101165420D01*
X128399372Y-101158298D01*
X128387891Y-101151676D01*
X128375954Y-101145567D01*
X128363570Y-101139983D01*
X128350751Y-101134935D01*
X128337504Y-101130436D01*
X128323840Y-101126499D01*
X128309769Y-101123134D01*
X128295300Y-101120354D01*
X128280443Y-101118170D01*
X128265208Y-101116596D01*
X128249604Y-101115642D01*
X128233641Y-101115322D01*
X127864282Y-101115322D01*
X127472696Y-101115322D01*
X127472696Y-100765377D01*
X128259043Y-100765377D01*
X128296852Y-100766189D01*
G37*
G36*
X147667650Y-150652831D02*
G01*
X147687044Y-150654275D01*
X147705941Y-150656648D01*
X147724324Y-150659923D01*
X147742176Y-150664073D01*
X147759479Y-150669069D01*
X147776217Y-150674885D01*
X147792372Y-150681493D01*
X147807928Y-150688865D01*
X147822867Y-150696975D01*
X147837173Y-150705795D01*
X147850828Y-150715297D01*
X147863815Y-150725455D01*
X147876117Y-150736239D01*
X147887718Y-150747625D01*
X147898599Y-150759582D01*
X147912205Y-150775564D01*
X147924606Y-150792168D01*
X147935849Y-150809810D01*
X147945978Y-150828908D01*
X147955039Y-150849876D01*
X147963075Y-150873131D01*
X147970133Y-150899089D01*
X147976257Y-150928165D01*
X147981492Y-150960777D01*
X147985883Y-150997339D01*
X147989475Y-151038268D01*
X147992314Y-151083980D01*
X147995908Y-151191416D01*
X147997026Y-151322975D01*
X147996754Y-151392039D01*
X147995908Y-151454649D01*
X147994443Y-151511222D01*
X147992313Y-151562175D01*
X147989475Y-151607925D01*
X147985882Y-151648890D01*
X147981491Y-151685486D01*
X147978982Y-151702276D01*
X147976256Y-151718130D01*
X147973308Y-151733101D01*
X147970132Y-151747240D01*
X147966722Y-151760599D01*
X147963074Y-151773232D01*
X147959181Y-151785189D01*
X147955037Y-151796523D01*
X147950638Y-151807287D01*
X147945977Y-151817531D01*
X147941049Y-151827310D01*
X147935848Y-151836673D01*
X147930369Y-151845674D01*
X147924605Y-151854365D01*
X147918552Y-151862798D01*
X147912204Y-151871025D01*
X147898599Y-151887070D01*
X147887718Y-151898970D01*
X147876117Y-151910312D01*
X147863815Y-151921068D01*
X147850828Y-151931208D01*
X147837173Y-151940703D01*
X147822867Y-151949525D01*
X147807928Y-151957644D01*
X147792372Y-151965032D01*
X147776217Y-151971658D01*
X147759479Y-151977496D01*
X147742176Y-151982515D01*
X147724324Y-151986686D01*
X147705941Y-151989981D01*
X147687044Y-151992370D01*
X147667650Y-151993825D01*
X147647775Y-151994316D01*
X147627870Y-151993825D01*
X147608386Y-151992370D01*
X147589349Y-151989981D01*
X147570783Y-151986686D01*
X147552713Y-151982515D01*
X147535164Y-151977496D01*
X147518161Y-151971658D01*
X147501728Y-151965032D01*
X147485890Y-151957644D01*
X147470673Y-151949525D01*
X147456100Y-151940703D01*
X147442197Y-151931208D01*
X147428988Y-151921068D01*
X147416499Y-151910312D01*
X147404754Y-151898970D01*
X147393778Y-151887070D01*
X147380146Y-151871025D01*
X147367791Y-151854365D01*
X147356658Y-151836673D01*
X147346692Y-151817531D01*
X147337838Y-151796523D01*
X147330042Y-151773232D01*
X147323248Y-151747240D01*
X147317402Y-151718130D01*
X147312449Y-151685486D01*
X147308334Y-151648890D01*
X147305002Y-151607925D01*
X147302399Y-151562175D01*
X147299160Y-151454649D01*
X147298178Y-151322975D01*
X147298414Y-151253972D01*
X147299160Y-151191416D01*
X147300470Y-151134890D01*
X147302399Y-151083980D01*
X147305002Y-151038268D01*
X147308334Y-150997339D01*
X147312449Y-150960777D01*
X147317402Y-150928165D01*
X147320210Y-150913211D01*
X147323248Y-150899089D01*
X147326523Y-150885746D01*
X147330042Y-150873131D01*
X147333811Y-150861192D01*
X147337838Y-150849876D01*
X147342130Y-150839132D01*
X147346692Y-150828908D01*
X147351533Y-150819151D01*
X147356658Y-150809810D01*
X147362076Y-150800833D01*
X147367791Y-150792168D01*
X147373813Y-150783762D01*
X147380146Y-150775564D01*
X147393778Y-150759582D01*
X147404754Y-150747625D01*
X147416499Y-150736239D01*
X147428988Y-150725455D01*
X147442197Y-150715297D01*
X147456100Y-150705795D01*
X147470673Y-150696975D01*
X147485890Y-150688865D01*
X147501728Y-150681493D01*
X147518161Y-150674885D01*
X147535164Y-150669069D01*
X147552713Y-150664073D01*
X147570783Y-150659923D01*
X147589349Y-150656648D01*
X147608386Y-150654275D01*
X147627870Y-150652831D01*
X147647775Y-150652344D01*
X147667650Y-150652831D01*
G37*
G36*
X129443777Y-73523453D02*
G01*
X130354650Y-73523453D01*
X130354650Y-73873058D01*
X129052194Y-73873058D01*
X129052194Y-71865398D01*
X129443777Y-71865398D01*
X129443777Y-73523453D01*
G37*
G36*
X129671485Y-95366340D02*
G01*
X129708838Y-95368793D01*
X129745189Y-95372831D01*
X129780523Y-95378412D01*
X129814826Y-95385495D01*
X129848081Y-95394036D01*
X129880273Y-95403996D01*
X129911389Y-95415331D01*
X129941412Y-95428000D01*
X129970328Y-95441963D01*
X129998120Y-95457176D01*
X130024775Y-95473598D01*
X130050278Y-95491187D01*
X130074612Y-95509902D01*
X130097763Y-95529701D01*
X130119716Y-95550542D01*
X130140455Y-95572384D01*
X130159966Y-95595184D01*
X130178233Y-95618902D01*
X130195242Y-95643494D01*
X130210977Y-95668920D01*
X130225422Y-95695138D01*
X130238564Y-95722106D01*
X130250387Y-95749783D01*
X130260875Y-95778126D01*
X130270014Y-95807094D01*
X130277788Y-95836645D01*
X130284183Y-95866737D01*
X130289183Y-95897330D01*
X130292773Y-95928380D01*
X130294939Y-95959847D01*
X130295664Y-95991688D01*
X130294939Y-96023497D01*
X130292773Y-96054934D01*
X130289183Y-96085956D01*
X130284183Y-96116522D01*
X130277788Y-96146591D01*
X130270014Y-96176120D01*
X130260875Y-96205067D01*
X130250386Y-96233391D01*
X130238564Y-96261050D01*
X130225422Y-96288002D01*
X130210976Y-96314205D01*
X130195241Y-96339618D01*
X130178232Y-96364199D01*
X130159965Y-96387906D01*
X130140454Y-96410697D01*
X130119714Y-96432530D01*
X130097761Y-96453364D01*
X130074610Y-96473156D01*
X130050276Y-96491866D01*
X130024774Y-96509450D01*
X129998119Y-96525869D01*
X129970326Y-96541078D01*
X129941410Y-96555038D01*
X129911387Y-96567705D01*
X129880272Y-96579039D01*
X129848079Y-96588997D01*
X129814824Y-96597538D01*
X129780522Y-96604620D01*
X129745188Y-96610201D01*
X129708838Y-96614239D01*
X129671485Y-96616692D01*
X129633146Y-96617519D01*
X129246504Y-96617519D01*
X129246504Y-97373165D01*
X128854921Y-97373165D01*
X128854921Y-95715458D01*
X129246504Y-95715458D01*
X129246504Y-96265087D01*
X129613039Y-96265087D01*
X129629515Y-96264766D01*
X129645600Y-96263811D01*
X129661285Y-96262232D01*
X129676562Y-96260039D01*
X129691422Y-96257242D01*
X129705856Y-96253853D01*
X129719856Y-96249882D01*
X129733413Y-96245338D01*
X129746518Y-96240232D01*
X129759163Y-96234575D01*
X129771339Y-96228378D01*
X129783038Y-96221649D01*
X129794250Y-96214401D01*
X129804967Y-96206643D01*
X129815180Y-96198385D01*
X129824882Y-96189639D01*
X129834062Y-96180414D01*
X129842713Y-96170721D01*
X129850826Y-96160570D01*
X129858392Y-96149972D01*
X129865402Y-96138937D01*
X129871848Y-96127476D01*
X129877722Y-96115598D01*
X129883013Y-96103314D01*
X129887715Y-96090636D01*
X129891818Y-96077572D01*
X129895313Y-96064134D01*
X129898193Y-96050331D01*
X129900447Y-96036175D01*
X129902068Y-96021675D01*
X129903047Y-96006843D01*
X129903375Y-95991688D01*
X129903047Y-95976494D01*
X129902068Y-95961610D01*
X129900447Y-95947049D01*
X129898193Y-95932822D01*
X129895313Y-95918939D01*
X129891818Y-95905412D01*
X129887715Y-95892252D01*
X129883013Y-95879471D01*
X129877722Y-95867079D01*
X129871848Y-95855088D01*
X129865402Y-95843509D01*
X129858392Y-95832353D01*
X129850826Y-95821632D01*
X129842713Y-95811357D01*
X129834062Y-95801539D01*
X129824882Y-95792190D01*
X129815180Y-95783319D01*
X129804967Y-95774940D01*
X129794250Y-95767063D01*
X129783038Y-95759699D01*
X129771339Y-95752859D01*
X129759163Y-95746555D01*
X129746518Y-95740799D01*
X129733413Y-95735600D01*
X129719856Y-95730971D01*
X129705856Y-95726923D01*
X129691422Y-95723466D01*
X129676562Y-95720613D01*
X129661285Y-95718375D01*
X129645600Y-95716762D01*
X129629515Y-95715786D01*
X129613039Y-95715458D01*
X129246504Y-95715458D01*
X128854921Y-95715458D01*
X128854921Y-95365513D01*
X129633146Y-95365513D01*
X129671485Y-95366340D01*
G37*
G36*
X136237804Y-150652831D02*
G01*
X136257144Y-150654275D01*
X136275994Y-150656648D01*
X136294339Y-150659923D01*
X136312162Y-150664073D01*
X136329444Y-150669069D01*
X136346169Y-150674885D01*
X136362320Y-150681493D01*
X136377880Y-150688865D01*
X136392832Y-150696975D01*
X136407159Y-150705795D01*
X136420843Y-150715297D01*
X136433868Y-150725455D01*
X136446217Y-150736239D01*
X136457872Y-150747625D01*
X136468817Y-150759582D01*
X136482480Y-150775564D01*
X136494924Y-150792168D01*
X136506197Y-150809810D01*
X136516344Y-150828908D01*
X136525412Y-150849876D01*
X136533447Y-150873131D01*
X136540496Y-150899089D01*
X136546606Y-150928165D01*
X136551823Y-150960777D01*
X136556193Y-150997339D01*
X136559763Y-151038268D01*
X136562580Y-151083980D01*
X136566140Y-151191416D01*
X136567243Y-151322975D01*
X136566975Y-151392039D01*
X136566140Y-151454649D01*
X136564690Y-151511222D01*
X136562580Y-151562175D01*
X136559763Y-151607925D01*
X136556193Y-151648890D01*
X136551823Y-151685486D01*
X136549323Y-151702276D01*
X136546606Y-151718130D01*
X136543666Y-151733101D01*
X136540496Y-151747240D01*
X136537092Y-151760599D01*
X136533447Y-151773232D01*
X136529555Y-151785189D01*
X136525412Y-151796523D01*
X136521010Y-151807287D01*
X136516344Y-151817531D01*
X136511408Y-151827310D01*
X136506197Y-151836673D01*
X136500704Y-151845674D01*
X136494924Y-151854365D01*
X136488851Y-151862798D01*
X136482480Y-151871025D01*
X136468817Y-151887070D01*
X136457872Y-151898970D01*
X136446217Y-151910312D01*
X136433868Y-151921068D01*
X136420843Y-151931208D01*
X136407159Y-151940703D01*
X136392832Y-151949525D01*
X136377880Y-151957644D01*
X136362320Y-151965032D01*
X136346169Y-151971658D01*
X136329444Y-151977496D01*
X136312162Y-151982515D01*
X136294339Y-151986686D01*
X136275994Y-151989981D01*
X136257144Y-151992370D01*
X136237804Y-151993825D01*
X136217993Y-151994316D01*
X136198028Y-151993825D01*
X136178500Y-151992370D01*
X136159433Y-151989981D01*
X136140848Y-151986686D01*
X136122771Y-151982515D01*
X136105222Y-151977496D01*
X136088227Y-151971658D01*
X136071809Y-151965032D01*
X136055989Y-151957644D01*
X136040793Y-151949525D01*
X136026242Y-151940703D01*
X136012361Y-151931208D01*
X135999171Y-151921068D01*
X135986698Y-151910312D01*
X135974963Y-151898970D01*
X135963991Y-151887070D01*
X135950419Y-151871025D01*
X135938108Y-151854365D01*
X135927004Y-151836673D01*
X135917056Y-151817531D01*
X135908210Y-151796523D01*
X135900412Y-151773232D01*
X135893609Y-151747240D01*
X135887748Y-151718130D01*
X135882775Y-151685486D01*
X135878639Y-151648890D01*
X135875285Y-151607925D01*
X135872660Y-151562175D01*
X135869384Y-151454649D01*
X135868387Y-151322975D01*
X135868627Y-151253972D01*
X135869384Y-151191416D01*
X135870711Y-151134890D01*
X135872660Y-151083980D01*
X135875285Y-151038268D01*
X135878639Y-150997339D01*
X135882775Y-150960777D01*
X135887748Y-150928165D01*
X135890564Y-150913211D01*
X135893609Y-150899089D01*
X135896889Y-150885746D01*
X135900412Y-150873131D01*
X135904183Y-150861192D01*
X135908210Y-150849876D01*
X135912499Y-150839132D01*
X135917056Y-150828908D01*
X135921889Y-150819151D01*
X135927004Y-150809810D01*
X135932408Y-150800833D01*
X135938108Y-150792168D01*
X135944109Y-150783762D01*
X135950419Y-150775564D01*
X135963991Y-150759582D01*
X135974963Y-150747625D01*
X135986698Y-150736239D01*
X135999172Y-150725455D01*
X136012361Y-150715297D01*
X136026243Y-150705795D01*
X136040794Y-150696975D01*
X136055991Y-150688865D01*
X136071810Y-150681493D01*
X136088229Y-150674885D01*
X136105224Y-150669069D01*
X136122772Y-150664073D01*
X136140850Y-150659923D01*
X136159434Y-150656648D01*
X136178501Y-150654275D01*
X136198029Y-150652831D01*
X136217993Y-150652344D01*
X136237804Y-150652831D01*
G37*
G36*
X128605226Y-97373165D02*
G01*
X128196707Y-97373165D01*
X128078176Y-97017567D01*
X127365209Y-97017567D01*
X127243856Y-97373165D01*
X126834986Y-97373165D01*
X127084306Y-96687717D01*
X127474924Y-96687717D01*
X127973753Y-96687717D01*
X127728922Y-95957821D01*
X127474924Y-96687717D01*
X127084306Y-96687717D01*
X127565237Y-95365513D01*
X127872507Y-95365513D01*
X128605226Y-97373165D01*
G37*
G36*
X124390344Y-123214806D02*
G01*
X123998758Y-123214806D01*
X123998758Y-121207497D01*
X124390344Y-121207497D01*
X124390344Y-123214806D01*
G37*
G36*
X144218542Y-126366447D02*
G01*
X144230184Y-126416893D01*
X144288393Y-126475105D01*
X144377645Y-126540718D01*
X144497591Y-126610222D01*
X144703256Y-126482872D01*
X144761461Y-126432419D01*
X144785101Y-126389732D01*
X144785101Y-125539886D01*
X145075788Y-125539886D01*
X145075788Y-126397491D01*
X145075697Y-126402354D01*
X145075425Y-126407282D01*
X145074970Y-126412275D01*
X145074333Y-126417333D01*
X145073515Y-126422454D01*
X145072515Y-126427640D01*
X145071333Y-126432888D01*
X145069969Y-126438199D01*
X145068423Y-126443572D01*
X145066695Y-126449006D01*
X145064785Y-126454501D01*
X145062693Y-126460057D01*
X145060420Y-126465672D01*
X145057964Y-126471347D01*
X145055327Y-126477080D01*
X145052507Y-126482872D01*
X145052500Y-126482872D01*
X145050471Y-126486878D01*
X145048220Y-126491090D01*
X145043059Y-126500130D01*
X145037029Y-126509989D01*
X145030144Y-126520662D01*
X145022415Y-126532146D01*
X145013855Y-126544436D01*
X145004478Y-126557528D01*
X144994295Y-126571419D01*
X144897287Y-126653259D01*
X144769224Y-126726990D01*
X144783562Y-126737205D01*
X144797470Y-126747479D01*
X144810951Y-126757812D01*
X144824005Y-126768204D01*
X144836633Y-126778656D01*
X144848836Y-126789169D01*
X144860615Y-126799742D01*
X144871972Y-126810377D01*
X144882907Y-126821074D01*
X144893421Y-126831834D01*
X144903515Y-126842656D01*
X144913191Y-126853543D01*
X144922449Y-126864493D01*
X144931291Y-126875509D01*
X144939717Y-126886589D01*
X144947729Y-126897736D01*
X144952657Y-126904833D01*
X144957646Y-126912372D01*
X144962693Y-126920365D01*
X144967794Y-126928825D01*
X144972944Y-126937764D01*
X144978140Y-126947195D01*
X144983376Y-126957131D01*
X144988649Y-126967583D01*
X144991212Y-126972925D01*
X144993610Y-126978366D01*
X144995842Y-126983904D01*
X144997910Y-126989540D01*
X144999811Y-126995273D01*
X145001548Y-127001102D01*
X145003119Y-127007027D01*
X145004525Y-127013048D01*
X145005765Y-127019164D01*
X145006840Y-127025374D01*
X145007750Y-127031678D01*
X145008494Y-127038075D01*
X145009073Y-127044566D01*
X145009486Y-127051149D01*
X145009734Y-127057824D01*
X145009817Y-127064590D01*
X145009817Y-127212059D01*
X145009718Y-127221670D01*
X145009421Y-127231190D01*
X145008926Y-127240621D01*
X145008235Y-127249963D01*
X145007347Y-127259216D01*
X145006263Y-127268380D01*
X145004984Y-127277458D01*
X145003510Y-127286447D01*
X145001842Y-127295351D01*
X144999980Y-127304167D01*
X144997925Y-127312899D01*
X144995677Y-127321545D01*
X144993237Y-127330106D01*
X144990606Y-127338583D01*
X144987783Y-127346976D01*
X144984770Y-127355286D01*
X144981482Y-127363504D01*
X144977971Y-127371625D01*
X144974236Y-127379649D01*
X144970276Y-127387576D01*
X144966092Y-127395408D01*
X144961681Y-127403147D01*
X144957044Y-127410792D01*
X144952180Y-127418345D01*
X144947089Y-127425808D01*
X144941770Y-127433180D01*
X144936223Y-127440464D01*
X144930447Y-127447660D01*
X144924441Y-127454769D01*
X144918206Y-127461792D01*
X144911740Y-127468731D01*
X144905042Y-127475586D01*
X144898180Y-127482230D01*
X144891218Y-127488668D01*
X144884155Y-127494898D01*
X144876992Y-127500922D01*
X144869727Y-127506739D01*
X144862361Y-127512349D01*
X144854892Y-127517752D01*
X144847320Y-127522948D01*
X144839645Y-127527938D01*
X144831867Y-127532721D01*
X144823983Y-127537297D01*
X144815995Y-127541666D01*
X144807902Y-127545828D01*
X144799702Y-127549784D01*
X144791396Y-127553533D01*
X144782984Y-127557075D01*
X144774463Y-127560341D01*
X144765967Y-127563393D01*
X144757493Y-127566230D01*
X144749040Y-127568854D01*
X144740608Y-127571265D01*
X144732196Y-127573464D01*
X144723802Y-127575451D01*
X144715426Y-127577227D01*
X144707066Y-127578791D01*
X144698722Y-127580146D01*
X144690392Y-127581291D01*
X144682075Y-127582226D01*
X144673771Y-127582953D01*
X144665479Y-127583471D01*
X144657196Y-127583782D01*
X144648924Y-127583885D01*
X144342718Y-127583885D01*
X144334504Y-127583790D01*
X144326266Y-127583504D01*
X144318005Y-127583025D01*
X144309722Y-127582353D01*
X144301418Y-127581487D01*
X144293095Y-127580426D01*
X144284753Y-127579168D01*
X144276393Y-127577713D01*
X144268017Y-127576059D01*
X144259626Y-127574206D01*
X144251220Y-127572152D01*
X144242801Y-127569897D01*
X144234370Y-127567439D01*
X144225927Y-127564777D01*
X144217474Y-127561910D01*
X144209013Y-127558838D01*
X144200550Y-127555568D01*
X144192228Y-127552107D01*
X144184047Y-127548454D01*
X144176006Y-127544608D01*
X144168106Y-127540567D01*
X144160347Y-127536330D01*
X144152728Y-127531898D01*
X144145250Y-127527267D01*
X144137912Y-127522439D01*
X144130714Y-127517410D01*
X144123658Y-127512182D01*
X144116741Y-127506751D01*
X144109965Y-127501119D01*
X144103329Y-127495282D01*
X144096834Y-127489241D01*
X144090479Y-127482994D01*
X144083997Y-127475552D01*
X144078045Y-127468573D01*
X144072621Y-127462057D01*
X144067727Y-127456005D01*
X144063362Y-127450416D01*
X144059527Y-127445291D01*
X144056220Y-127440629D01*
X144053442Y-127436432D01*
X144047349Y-127426302D01*
X144038578Y-127411248D01*
X144027097Y-127391234D01*
X144012869Y-127366226D01*
X144010049Y-127357900D01*
X144007412Y-127349458D01*
X144004957Y-127340900D01*
X144003458Y-127335182D01*
X144331075Y-127335182D01*
X144334961Y-127339862D01*
X144336843Y-127342035D01*
X144338685Y-127344094D01*
X144340488Y-127346037D01*
X144342253Y-127347862D01*
X144343979Y-127349567D01*
X144345668Y-127351150D01*
X144347319Y-127352609D01*
X144348934Y-127353942D01*
X144350513Y-127355147D01*
X144352057Y-127356221D01*
X144353565Y-127357164D01*
X144355039Y-127357972D01*
X144356479Y-127358643D01*
X144357885Y-127359177D01*
X144614008Y-127359177D01*
X144625666Y-127359059D01*
X144636304Y-127358702D01*
X144645924Y-127358097D01*
X144654532Y-127357235D01*
X144662131Y-127356108D01*
X144665554Y-127355443D01*
X144668726Y-127354709D01*
X144671649Y-127353904D01*
X144674322Y-127353029D01*
X144676746Y-127352080D01*
X144678922Y-127351059D01*
X144680936Y-127350055D01*
X144682877Y-127349025D01*
X144684746Y-127347968D01*
X144686545Y-127346882D01*
X144688276Y-127345768D01*
X144689941Y-127344624D01*
X144691540Y-127343448D01*
X144693075Y-127342240D01*
X144694549Y-127340999D01*
X144695962Y-127339724D01*
X144697317Y-127338414D01*
X144698614Y-127337067D01*
X144699855Y-127335684D01*
X144701042Y-127334262D01*
X144702177Y-127332800D01*
X144703260Y-127331299D01*
X144703260Y-127303780D01*
X144703249Y-127028969D01*
X144687376Y-126989464D01*
X144685905Y-126986036D01*
X144684269Y-126982633D01*
X144682469Y-126979257D01*
X144680504Y-126975907D01*
X144678377Y-126972583D01*
X144676086Y-126969288D01*
X144673633Y-126966020D01*
X144671018Y-126962781D01*
X144668242Y-126959571D01*
X144665306Y-126956390D01*
X144662209Y-126953240D01*
X144658952Y-126950120D01*
X144655536Y-126947031D01*
X144651961Y-126943974D01*
X144648229Y-126940950D01*
X144644338Y-126937958D01*
X144617174Y-126914673D01*
X144581549Y-126882927D01*
X144554029Y-126863167D01*
X144526869Y-126843765D01*
X144510992Y-126831772D01*
X144499349Y-126820129D01*
X144489233Y-126826067D01*
X144479391Y-126832102D01*
X144469822Y-126838234D01*
X144460528Y-126844463D01*
X144451508Y-126850786D01*
X144442764Y-126857204D01*
X144434296Y-126863714D01*
X144426104Y-126870316D01*
X144418189Y-126877010D01*
X144410552Y-126883793D01*
X144403192Y-126890665D01*
X144396111Y-126897625D01*
X144389309Y-126904672D01*
X144382786Y-126911804D01*
X144376543Y-126919022D01*
X144370581Y-126926323D01*
X144366708Y-126931823D01*
X144363025Y-126937480D01*
X144359530Y-126943292D01*
X144356224Y-126949258D01*
X144353107Y-126955378D01*
X144350176Y-126961650D01*
X144347433Y-126968073D01*
X144344876Y-126974646D01*
X144342505Y-126981367D01*
X144340319Y-126988237D01*
X144338319Y-126995254D01*
X144336503Y-127002416D01*
X144334871Y-127009723D01*
X144333423Y-127017174D01*
X144332158Y-127024767D01*
X144331075Y-127032501D01*
X144331075Y-127335182D01*
X144003458Y-127335182D01*
X144002683Y-127332226D01*
X144000592Y-127323436D01*
X143998682Y-127314531D01*
X143996955Y-127305510D01*
X143995409Y-127296373D01*
X143994046Y-127287121D01*
X143992864Y-127277753D01*
X143991864Y-127268269D01*
X143991046Y-127258670D01*
X143990409Y-127248955D01*
X143989955Y-127239124D01*
X143989591Y-127219116D01*
X143989591Y-127071297D01*
X143989741Y-127059734D01*
X143990191Y-127048589D01*
X143990948Y-127037850D01*
X143992014Y-127027504D01*
X143993395Y-127017538D01*
X143995094Y-127007941D01*
X143997115Y-126998699D01*
X143999464Y-126989799D01*
X144000742Y-126985326D01*
X144002193Y-126980770D01*
X144003815Y-126976130D01*
X144005608Y-126971406D01*
X144007570Y-126966597D01*
X144009700Y-126961703D01*
X144011998Y-126956723D01*
X144014462Y-126951657D01*
X144017091Y-126946504D01*
X144019885Y-126941264D01*
X144025960Y-126930519D01*
X144032681Y-126919419D01*
X144040037Y-126907959D01*
X144113767Y-126822243D01*
X144124680Y-126810599D01*
X144136241Y-126798955D01*
X144148438Y-126787312D01*
X144161259Y-126775670D01*
X144174693Y-126764028D01*
X144188726Y-126752386D01*
X144203346Y-126740745D01*
X144218542Y-126729103D01*
X144199468Y-126720309D01*
X144181007Y-126711391D01*
X144163161Y-126702350D01*
X144145931Y-126693184D01*
X144129320Y-126683895D01*
X144113328Y-126674481D01*
X144097957Y-126664944D01*
X144083209Y-126655283D01*
X144069085Y-126645498D01*
X144055586Y-126635589D01*
X144042715Y-126625556D01*
X144030473Y-126615399D01*
X144018861Y-126605118D01*
X144007881Y-126594713D01*
X143997534Y-126584185D01*
X143987821Y-126573532D01*
X143978599Y-126562944D01*
X143969978Y-126552347D01*
X143961959Y-126541743D01*
X143954541Y-126531130D01*
X143947722Y-126520509D01*
X143941501Y-126509880D01*
X143935878Y-126499243D01*
X143930851Y-126488598D01*
X143926419Y-126477944D01*
X143922581Y-126467282D01*
X143919337Y-126456612D01*
X143916685Y-126445934D01*
X143914624Y-126435247D01*
X143913153Y-126424552D01*
X143912271Y-126413849D01*
X143911978Y-126403137D01*
X143911978Y-125539886D01*
X144218542Y-125539886D01*
X144218542Y-126366447D01*
G37*
G36*
X129678305Y-102070820D02*
G01*
X129678699Y-102092241D01*
X129679873Y-102113106D01*
X129681819Y-102133407D01*
X129684523Y-102153136D01*
X129687976Y-102172285D01*
X129692166Y-102190845D01*
X129697084Y-102208808D01*
X129702718Y-102226167D01*
X129709057Y-102242912D01*
X129716090Y-102259036D01*
X129723808Y-102274532D01*
X129732198Y-102289390D01*
X129741251Y-102303602D01*
X129750955Y-102317161D01*
X129761300Y-102330058D01*
X129772275Y-102342285D01*
X129783869Y-102353834D01*
X129796071Y-102364697D01*
X129808870Y-102374866D01*
X129822256Y-102384332D01*
X129836219Y-102393088D01*
X129850746Y-102401125D01*
X129865828Y-102408435D01*
X129881453Y-102415010D01*
X129897611Y-102420843D01*
X129914291Y-102425924D01*
X129931482Y-102430245D01*
X129949174Y-102433799D01*
X129967355Y-102436578D01*
X129986015Y-102438572D01*
X130005143Y-102439775D01*
X130024729Y-102440178D01*
X130044355Y-102439775D01*
X130063540Y-102438572D01*
X130082271Y-102436577D01*
X130100537Y-102433799D01*
X130118325Y-102430245D01*
X130135624Y-102425923D01*
X130152422Y-102420842D01*
X130168706Y-102415009D01*
X130184465Y-102408434D01*
X130199688Y-102401123D01*
X130214361Y-102393086D01*
X130228474Y-102384330D01*
X130242015Y-102374864D01*
X130254971Y-102364695D01*
X130267330Y-102353832D01*
X130279082Y-102342282D01*
X130290213Y-102330055D01*
X130300712Y-102317158D01*
X130310568Y-102303599D01*
X130319767Y-102289386D01*
X130328299Y-102274528D01*
X130336151Y-102259033D01*
X130343312Y-102242909D01*
X130349770Y-102226163D01*
X130355512Y-102208805D01*
X130360528Y-102190842D01*
X130364804Y-102172282D01*
X130368330Y-102153134D01*
X130371092Y-102133406D01*
X130373080Y-102113105D01*
X130374282Y-102092240D01*
X130374685Y-102070820D01*
X130374685Y-100765545D01*
X130763799Y-100765545D01*
X130763799Y-102084934D01*
X130762849Y-102124450D01*
X130760026Y-102163078D01*
X130755376Y-102200793D01*
X130748943Y-102237573D01*
X130740771Y-102273392D01*
X130730904Y-102308228D01*
X130719387Y-102342055D01*
X130706263Y-102374850D01*
X130691579Y-102406589D01*
X130675376Y-102437247D01*
X130657701Y-102466802D01*
X130638597Y-102495228D01*
X130618109Y-102522501D01*
X130596281Y-102548598D01*
X130573156Y-102573495D01*
X130548781Y-102597167D01*
X130523198Y-102619591D01*
X130496452Y-102640743D01*
X130468588Y-102660597D01*
X130439650Y-102679131D01*
X130409681Y-102696321D01*
X130378727Y-102712142D01*
X130346832Y-102726570D01*
X130314040Y-102739581D01*
X130280395Y-102751152D01*
X130245942Y-102761258D01*
X130210724Y-102769875D01*
X130174787Y-102776979D01*
X130138175Y-102782547D01*
X130100932Y-102786553D01*
X130063101Y-102788975D01*
X130024729Y-102789787D01*
X129986388Y-102788975D01*
X129948588Y-102786553D01*
X129911373Y-102782547D01*
X129874787Y-102776980D01*
X129838875Y-102769876D01*
X129803680Y-102761259D01*
X129769248Y-102751153D01*
X129735623Y-102739583D01*
X129702848Y-102726571D01*
X129670970Y-102712143D01*
X129640031Y-102696323D01*
X129610076Y-102679133D01*
X129581150Y-102660599D01*
X129553297Y-102640745D01*
X129526561Y-102619594D01*
X129500987Y-102597170D01*
X129476619Y-102573498D01*
X129453502Y-102548601D01*
X129431679Y-102522504D01*
X129411196Y-102495231D01*
X129392096Y-102466805D01*
X129374425Y-102437251D01*
X129358225Y-102406592D01*
X129343543Y-102374853D01*
X129330422Y-102342058D01*
X129318906Y-102308231D01*
X129309040Y-102273395D01*
X129300868Y-102237575D01*
X129294436Y-102200795D01*
X129289786Y-102163079D01*
X129286963Y-102124451D01*
X129286012Y-102084934D01*
X129286012Y-100765545D01*
X129678305Y-100765545D01*
X129678305Y-102070820D01*
G37*
G36*
X125571955Y-150303373D02*
G01*
X125612931Y-150305902D01*
X125652676Y-150310064D01*
X125691192Y-150315815D01*
X125728485Y-150323111D01*
X125764557Y-150331910D01*
X125799412Y-150342167D01*
X125833053Y-150353839D01*
X125865484Y-150366882D01*
X125896708Y-150381254D01*
X125926729Y-150396910D01*
X125955551Y-150413807D01*
X125983175Y-150431901D01*
X126009608Y-150451149D01*
X126034850Y-150471507D01*
X126058907Y-150492932D01*
X126081782Y-150515380D01*
X126103478Y-150538808D01*
X126123998Y-150563172D01*
X126143347Y-150588429D01*
X126161527Y-150614534D01*
X126178542Y-150641446D01*
X126209092Y-150697510D01*
X126235023Y-150756275D01*
X126256365Y-150817390D01*
X126273145Y-150880509D01*
X126285391Y-150945282D01*
X125890631Y-150945282D01*
X125880807Y-150910018D01*
X125869321Y-150876993D01*
X125862953Y-150861320D01*
X125856167Y-150846210D01*
X125848961Y-150831661D01*
X125841335Y-150817675D01*
X125833289Y-150804252D01*
X125824819Y-150791394D01*
X125815927Y-150779099D01*
X125806611Y-150767370D01*
X125796870Y-150756207D01*
X125786702Y-150745611D01*
X125776108Y-150735581D01*
X125765086Y-150726120D01*
X125753635Y-150717227D01*
X125741754Y-150708903D01*
X125729442Y-150701148D01*
X125716698Y-150693965D01*
X125703522Y-150687352D01*
X125689912Y-150681310D01*
X125675867Y-150675842D01*
X125661386Y-150670946D01*
X125646469Y-150666623D01*
X125631114Y-150662875D01*
X125615321Y-150659702D01*
X125599088Y-150657104D01*
X125582414Y-150655082D01*
X125565299Y-150653638D01*
X125547742Y-150652770D01*
X125529741Y-150652481D01*
X125510456Y-150652910D01*
X125491632Y-150654194D01*
X125473272Y-150656329D01*
X125455382Y-150659310D01*
X125437968Y-150663131D01*
X125421035Y-150667790D01*
X125404587Y-150673280D01*
X125388630Y-150679598D01*
X125373169Y-150686738D01*
X125358209Y-150694697D01*
X125343755Y-150703469D01*
X125329814Y-150713050D01*
X125316388Y-150723435D01*
X125303485Y-150734619D01*
X125291109Y-150746599D01*
X125279264Y-150759369D01*
X125266091Y-150776626D01*
X125254059Y-150793938D01*
X125248459Y-150802773D01*
X125243130Y-150811809D01*
X125238065Y-150821111D01*
X125233261Y-150830740D01*
X125228712Y-150840761D01*
X125224414Y-150851234D01*
X125220360Y-150862224D01*
X125216547Y-150873793D01*
X125212969Y-150886004D01*
X125209621Y-150898919D01*
X125206498Y-150912602D01*
X125203595Y-150927114D01*
X125200908Y-150942520D01*
X125198430Y-150958882D01*
X125194083Y-150994723D01*
X125190516Y-151035141D01*
X125187688Y-151080637D01*
X125185558Y-151131715D01*
X125184087Y-151188875D01*
X125183234Y-151252622D01*
X125182958Y-151323456D01*
X125183841Y-151457233D01*
X125186844Y-151565326D01*
X125189308Y-151610943D01*
X125192502Y-151651581D01*
X125196493Y-151687723D01*
X125201347Y-151719849D01*
X125207131Y-151748441D01*
X125213912Y-151773979D01*
X125221757Y-151796944D01*
X125230731Y-151817818D01*
X125240903Y-151837082D01*
X125252338Y-151855216D01*
X125265103Y-151872703D01*
X125279264Y-151890022D01*
X125290612Y-151902818D01*
X125302558Y-151914751D01*
X125315098Y-151925826D01*
X125328225Y-151936048D01*
X125341935Y-151945423D01*
X125356223Y-151953955D01*
X125371083Y-151961650D01*
X125386511Y-151968513D01*
X125402501Y-151974550D01*
X125419048Y-151979764D01*
X125436147Y-151984162D01*
X125453793Y-151987749D01*
X125471980Y-151990530D01*
X125490704Y-151992510D01*
X125509960Y-151993694D01*
X125529741Y-151994087D01*
X125551227Y-151993660D01*
X125572161Y-151992377D01*
X125592547Y-151990231D01*
X125612386Y-151987219D01*
X125631681Y-151983334D01*
X125650435Y-151978571D01*
X125668651Y-151972926D01*
X125686331Y-151966393D01*
X125703478Y-151958968D01*
X125720093Y-151950644D01*
X125736181Y-151941417D01*
X125751743Y-151931282D01*
X125766782Y-151920233D01*
X125781300Y-151908265D01*
X125795301Y-151895374D01*
X125808786Y-151881554D01*
X125819568Y-151868590D01*
X125829683Y-151855101D01*
X125839129Y-151841091D01*
X125847901Y-151826564D01*
X125855995Y-151811525D01*
X125863407Y-151795978D01*
X125870132Y-151779926D01*
X125876167Y-151763373D01*
X125881507Y-151746325D01*
X125886149Y-151728785D01*
X125890087Y-151710756D01*
X125893319Y-151692244D01*
X125895840Y-151673253D01*
X125897646Y-151653786D01*
X125898732Y-151633847D01*
X125899095Y-151613441D01*
X125899095Y-151537598D01*
X125529741Y-151537598D01*
X125529741Y-151210579D01*
X126288565Y-151210579D01*
X126288565Y-151504082D01*
X126287929Y-151557646D01*
X126285990Y-151608501D01*
X126282704Y-151656787D01*
X126278025Y-151702646D01*
X126271907Y-151746222D01*
X126264305Y-151787655D01*
X126255174Y-151827089D01*
X126244467Y-151864665D01*
X126232140Y-151900525D01*
X126218147Y-151934812D01*
X126202442Y-151967667D01*
X126184980Y-151999234D01*
X126165716Y-152029653D01*
X126144604Y-152059066D01*
X126121599Y-152087618D01*
X126096655Y-152115448D01*
X126096659Y-152115448D01*
X126067246Y-152143998D01*
X126037079Y-152170530D01*
X126006148Y-152195069D01*
X125974441Y-152217638D01*
X125941949Y-152238262D01*
X125908662Y-152256965D01*
X125874568Y-152273772D01*
X125839658Y-152288707D01*
X125803921Y-152301793D01*
X125767347Y-152313056D01*
X125729925Y-152322520D01*
X125691646Y-152330208D01*
X125652499Y-152336146D01*
X125612473Y-152340357D01*
X125571559Y-152342866D01*
X125529745Y-152343697D01*
X125489987Y-152342833D01*
X125451015Y-152340243D01*
X125412829Y-152335930D01*
X125375431Y-152329894D01*
X125338820Y-152322139D01*
X125302997Y-152312666D01*
X125267963Y-152301477D01*
X125233718Y-152288575D01*
X125200263Y-152273961D01*
X125167597Y-152257638D01*
X125135723Y-152239608D01*
X125104639Y-152219872D01*
X125074347Y-152198433D01*
X125044847Y-152175292D01*
X125016140Y-152150453D01*
X124988226Y-152123917D01*
X124972284Y-152107348D01*
X124957131Y-152090454D01*
X124942761Y-152073238D01*
X124929169Y-152055705D01*
X124916351Y-152037860D01*
X124904300Y-152019708D01*
X124893012Y-152001252D01*
X124882482Y-151982499D01*
X124872704Y-151963452D01*
X124863673Y-151944116D01*
X124855385Y-151924496D01*
X124847833Y-151904597D01*
X124841013Y-151884422D01*
X124834920Y-151863977D01*
X124829548Y-151843267D01*
X124824892Y-151822296D01*
X124817070Y-151777565D01*
X124810277Y-151727782D01*
X124804519Y-151672955D01*
X124799798Y-151613094D01*
X124796120Y-151548206D01*
X124793487Y-151478300D01*
X124791904Y-151403383D01*
X124791376Y-151323463D01*
X124791904Y-151243428D01*
X124793487Y-151168424D01*
X124796120Y-151098455D01*
X124799798Y-151033525D01*
X124804519Y-150973639D01*
X124810277Y-150918800D01*
X124817070Y-150869012D01*
X124824892Y-150824280D01*
X124829548Y-150802839D01*
X124834921Y-150781772D01*
X124841014Y-150761072D01*
X124847835Y-150740732D01*
X124855386Y-150720746D01*
X124863675Y-150701106D01*
X124872706Y-150681806D01*
X124882483Y-150662839D01*
X124893013Y-150644199D01*
X124904301Y-150625879D01*
X124916351Y-150607872D01*
X124929170Y-150590171D01*
X124942761Y-150572770D01*
X124957131Y-150555663D01*
X124972284Y-150538842D01*
X124988226Y-150522301D01*
X125016140Y-150495649D01*
X125044847Y-150470723D01*
X125074347Y-150447524D01*
X125104639Y-150426049D01*
X125135723Y-150406298D01*
X125167597Y-150388271D01*
X125200263Y-150371964D01*
X125233718Y-150357379D01*
X125267963Y-150344513D01*
X125302997Y-150333366D01*
X125338820Y-150323937D01*
X125375431Y-150316224D01*
X125412829Y-150310227D01*
X125451015Y-150305945D01*
X125489987Y-150303377D01*
X125529745Y-150302521D01*
X125571955Y-150303373D01*
G37*
G36*
X132112081Y-101851116D02*
G01*
X132633486Y-100765617D01*
X133019777Y-100765617D01*
X133019777Y-102772926D01*
X132627840Y-102772926D01*
X132627840Y-101603115D01*
X132244371Y-102364406D01*
X131979437Y-102364406D01*
X131593145Y-101603115D01*
X131593145Y-102772926D01*
X131201563Y-102772926D01*
X131201563Y-100765617D01*
X131587499Y-100765617D01*
X132112081Y-101851116D01*
G37*
G36*
X127487062Y-123214905D02*
G01*
X127120523Y-123214912D01*
X127120523Y-121602707D01*
X126711656Y-121957603D01*
X126711656Y-121562843D01*
X127120523Y-121207596D01*
X127487062Y-121207596D01*
X127487062Y-123214905D01*
G37*
G36*
X127232612Y-150303421D02*
G01*
X127264991Y-150305357D01*
X127296719Y-150308564D01*
X127327768Y-150313027D01*
X127358110Y-150318732D01*
X127387718Y-150325662D01*
X127416564Y-150333803D01*
X127444619Y-150343138D01*
X127471857Y-150353654D01*
X127498248Y-150365334D01*
X127523766Y-150378163D01*
X127548382Y-150392126D01*
X127572069Y-150407207D01*
X127594799Y-150423392D01*
X127616543Y-150440665D01*
X127637275Y-150459010D01*
X127656965Y-150478413D01*
X127675588Y-150498857D01*
X127693113Y-150520328D01*
X127709515Y-150542811D01*
X127724764Y-150566290D01*
X127738833Y-150590749D01*
X127751695Y-150616174D01*
X127763321Y-150642549D01*
X127773683Y-150669859D01*
X127782754Y-150698089D01*
X127790506Y-150727222D01*
X127796911Y-150757245D01*
X127801941Y-150788141D01*
X127805569Y-150819895D01*
X127807765Y-150852493D01*
X127808504Y-150885918D01*
X127807618Y-150921464D01*
X127804976Y-150955095D01*
X127800595Y-150987026D01*
X127794498Y-151017476D01*
X127786704Y-151046661D01*
X127777232Y-151074799D01*
X127766104Y-151102105D01*
X127753340Y-151128798D01*
X127738958Y-151155095D01*
X127722981Y-151181211D01*
X127705427Y-151207365D01*
X127686318Y-151233773D01*
X127665672Y-151260653D01*
X127643510Y-151288221D01*
X127594721Y-151346290D01*
X127033808Y-151996818D01*
X127808504Y-151996818D01*
X127808504Y-152326660D01*
X126587900Y-152326660D01*
X126587900Y-151996818D01*
X127337900Y-151125809D01*
X127351166Y-151109746D01*
X127363456Y-151094182D01*
X127374787Y-151079033D01*
X127385175Y-151064220D01*
X127394637Y-151049661D01*
X127403189Y-151035275D01*
X127410848Y-151020981D01*
X127417631Y-151006698D01*
X127423553Y-150992344D01*
X127428632Y-150977840D01*
X127432885Y-150963103D01*
X127436327Y-150948052D01*
X127438975Y-150932607D01*
X127440846Y-150916687D01*
X127441957Y-150900210D01*
X127442324Y-150883095D01*
X127442068Y-150869247D01*
X127441303Y-150855691D01*
X127440033Y-150842434D01*
X127438261Y-150829489D01*
X127435991Y-150816863D01*
X127433226Y-150804567D01*
X127429971Y-150792611D01*
X127426228Y-150781005D01*
X127422001Y-150769757D01*
X127417295Y-150758878D01*
X127412111Y-150748378D01*
X127406455Y-150738267D01*
X127400330Y-150728553D01*
X127393739Y-150719248D01*
X127386687Y-150710360D01*
X127379175Y-150701899D01*
X127371210Y-150693876D01*
X127362792Y-150686300D01*
X127353928Y-150679180D01*
X127344619Y-150672527D01*
X127334871Y-150666350D01*
X127324685Y-150660659D01*
X127314067Y-150655463D01*
X127303019Y-150650774D01*
X127291545Y-150646599D01*
X127279649Y-150642949D01*
X127267334Y-150639834D01*
X127254605Y-150637264D01*
X127241464Y-150635247D01*
X127227915Y-150633795D01*
X127213963Y-150632917D01*
X127199610Y-150632622D01*
X127176916Y-150633366D01*
X127154334Y-150635669D01*
X127132051Y-150639633D01*
X127110253Y-150645361D01*
X127099594Y-150648919D01*
X127089127Y-150652956D01*
X127078874Y-150657485D01*
X127068859Y-150662519D01*
X127059105Y-150668072D01*
X127049636Y-150674155D01*
X127040475Y-150680782D01*
X127031645Y-150687966D01*
X127023169Y-150695719D01*
X127015071Y-150704055D01*
X127007375Y-150712986D01*
X127000102Y-150722524D01*
X126993278Y-150732684D01*
X126986925Y-150743477D01*
X126981066Y-150754917D01*
X126975725Y-150767016D01*
X126970924Y-150779788D01*
X126966689Y-150793245D01*
X126963040Y-150807399D01*
X126960003Y-150822265D01*
X126957601Y-150837854D01*
X126955855Y-150854179D01*
X126954791Y-150871254D01*
X126954431Y-150889091D01*
X126587896Y-150889091D01*
X126588676Y-150855161D01*
X126590991Y-150822103D01*
X126594807Y-150789932D01*
X126600088Y-150758661D01*
X126606799Y-150728304D01*
X126614904Y-150698873D01*
X126624369Y-150670382D01*
X126635157Y-150642845D01*
X126647235Y-150616275D01*
X126660566Y-150590685D01*
X126675116Y-150566089D01*
X126690848Y-150542500D01*
X126707728Y-150519931D01*
X126725721Y-150498396D01*
X126744791Y-150477907D01*
X126764902Y-150458480D01*
X126786021Y-150440126D01*
X126808111Y-150422859D01*
X126831136Y-150406693D01*
X126855063Y-150391641D01*
X126879855Y-150377717D01*
X126905478Y-150364933D01*
X126931895Y-150353303D01*
X126959073Y-150342840D01*
X126986974Y-150333559D01*
X127015565Y-150325471D01*
X127044810Y-150318591D01*
X127074674Y-150312932D01*
X127105121Y-150308507D01*
X127136116Y-150305330D01*
X127167624Y-150303414D01*
X127199610Y-150302772D01*
X127232612Y-150303421D01*
G37*
G36*
X126935842Y-84915165D02*
G01*
X126005216Y-84915165D01*
X126005216Y-85386124D01*
X126797556Y-85386124D01*
X126797556Y-85735367D01*
X126005216Y-85735367D01*
X126005216Y-86223259D01*
X126935842Y-86223259D01*
X126935842Y-86572864D01*
X125613634Y-86572872D01*
X125613634Y-84565567D01*
X126935842Y-84565567D01*
X126935842Y-84915165D01*
G37*
G36*
X126904764Y-95715458D02*
G01*
X126380186Y-95715458D01*
X126380186Y-97373165D01*
X125988600Y-97373165D01*
X125988600Y-95715458D01*
X125464018Y-95715458D01*
X125464018Y-95365505D01*
X126904764Y-95365505D01*
X126904764Y-95715458D01*
G37*
G36*
X144435021Y-59854990D02*
G01*
X144462643Y-59855745D01*
X144474640Y-59856298D01*
X144485435Y-59856962D01*
X144495030Y-59857733D01*
X144503431Y-59858606D01*
X144511936Y-59859844D01*
X144521854Y-59861711D01*
X144533210Y-59864207D01*
X144546029Y-59867332D01*
X144560337Y-59871087D01*
X144576158Y-59875470D01*
X144593517Y-59880482D01*
X144612440Y-59886124D01*
X144622068Y-59889134D01*
X144631639Y-59892343D01*
X144641153Y-59895750D01*
X144650611Y-59899355D01*
X144660013Y-59903158D01*
X144669360Y-59907160D01*
X144678652Y-59911360D01*
X144687890Y-59915758D01*
X144706205Y-59925150D01*
X144724310Y-59935336D01*
X144742207Y-59946317D01*
X144759901Y-59958092D01*
X144768392Y-59964244D01*
X144776664Y-59970529D01*
X144784716Y-59976948D01*
X144792543Y-59983500D01*
X144800143Y-59990186D01*
X144807512Y-59997008D01*
X144814648Y-60003964D01*
X144821547Y-60011057D01*
X144828206Y-60018286D01*
X144834623Y-60025651D01*
X144840793Y-60033154D01*
X144846715Y-60040795D01*
X144852384Y-60048575D01*
X144857799Y-60056493D01*
X144862955Y-60064551D01*
X144867849Y-60072748D01*
X144872596Y-60081050D01*
X144877044Y-60089417D01*
X144881192Y-60097848D01*
X144885039Y-60106342D01*
X144888584Y-60114897D01*
X144891826Y-60123514D01*
X144894764Y-60132190D01*
X144897397Y-60140925D01*
X144899725Y-60149718D01*
X144901745Y-60158568D01*
X144903457Y-60167474D01*
X144904860Y-60176434D01*
X144905953Y-60185449D01*
X144906735Y-60194517D01*
X144907205Y-60203636D01*
X144907362Y-60212807D01*
X144907362Y-61898727D01*
X144577165Y-61898718D01*
X144577165Y-60583918D01*
X144402540Y-60583918D01*
X144376696Y-60583554D01*
X144351294Y-60582462D01*
X144326347Y-60580643D01*
X144301867Y-60578096D01*
X144277867Y-60574822D01*
X144254359Y-60570819D01*
X144231355Y-60566089D01*
X144208868Y-60560631D01*
X144197681Y-60557587D01*
X144186607Y-60554280D01*
X144175643Y-60550709D01*
X144164788Y-60546875D01*
X144154038Y-60542779D01*
X144143390Y-60538422D01*
X144132843Y-60533803D01*
X144122393Y-60528923D01*
X144112039Y-60523783D01*
X144101777Y-60518383D01*
X144091605Y-60512723D01*
X144081520Y-60506805D01*
X144071520Y-60500629D01*
X144061602Y-60494195D01*
X144051763Y-60487504D01*
X144042002Y-60480556D01*
X144032381Y-60473433D01*
X144023097Y-60466219D01*
X144014146Y-60458916D01*
X144005527Y-60451523D01*
X143997237Y-60444041D01*
X143989273Y-60436470D01*
X143981632Y-60428812D01*
X143974312Y-60421067D01*
X143967311Y-60413234D01*
X143960625Y-60405316D01*
X143954252Y-60397312D01*
X143948190Y-60389222D01*
X143942436Y-60381048D01*
X143936988Y-60372790D01*
X143931842Y-60364448D01*
X143926996Y-60356024D01*
X143922634Y-60347466D01*
X143918547Y-60338860D01*
X143914734Y-60330204D01*
X143911198Y-60321501D01*
X143910129Y-60318632D01*
X144239912Y-60318632D01*
X144251558Y-60346851D01*
X144287542Y-60363073D01*
X144561296Y-60363073D01*
X144577169Y-60354957D01*
X144577169Y-60335199D01*
X144577165Y-60092144D01*
X144561292Y-60080145D01*
X144549650Y-60068510D01*
X144475916Y-60056164D01*
X144297766Y-60056164D01*
X144255083Y-60068510D01*
X144239912Y-60092853D01*
X144239912Y-60318632D01*
X143910129Y-60318632D01*
X143907938Y-60312750D01*
X143904957Y-60303952D01*
X143902254Y-60295107D01*
X143899832Y-60286217D01*
X143897691Y-60277281D01*
X143895832Y-60268300D01*
X143894256Y-60259275D01*
X143892965Y-60250206D01*
X143891958Y-60241094D01*
X143891238Y-60231939D01*
X143890806Y-60222742D01*
X143890661Y-60213503D01*
X143890806Y-60205239D01*
X143891238Y-60196985D01*
X143891958Y-60188741D01*
X143892965Y-60180509D01*
X143894256Y-60172288D01*
X143895832Y-60164082D01*
X143897691Y-60155890D01*
X143899832Y-60147713D01*
X143902254Y-60139553D01*
X143904957Y-60131410D01*
X143907938Y-60123286D01*
X143911198Y-60115182D01*
X143914734Y-60107098D01*
X143918547Y-60099035D01*
X143922634Y-60090995D01*
X143926996Y-60082979D01*
X143931825Y-60074950D01*
X143936918Y-60067002D01*
X143942276Y-60059137D01*
X143947898Y-60051353D01*
X143953785Y-60043649D01*
X143959936Y-60036026D01*
X143966353Y-60028483D01*
X143973033Y-60021018D01*
X143979979Y-60013633D01*
X143987188Y-60006325D01*
X143994663Y-59999095D01*
X144002402Y-59991942D01*
X144010406Y-59984866D01*
X144018674Y-59977865D01*
X144027207Y-59970940D01*
X144036005Y-59964090D01*
X144045137Y-59957381D01*
X144054414Y-59950879D01*
X144063839Y-59944584D01*
X144073415Y-59938498D01*
X144083146Y-59932620D01*
X144093036Y-59926952D01*
X144103088Y-59921494D01*
X144113306Y-59916245D01*
X144123693Y-59911208D01*
X144134254Y-59906382D01*
X144144991Y-59901768D01*
X144155909Y-59897366D01*
X144167011Y-59893177D01*
X144178300Y-59889202D01*
X144189781Y-59885440D01*
X144201456Y-59881893D01*
X144225980Y-59876332D01*
X144250273Y-59871265D01*
X144274233Y-59866662D01*
X144297762Y-59862490D01*
X144309600Y-59860737D01*
X144321823Y-59859192D01*
X144334418Y-59857863D01*
X144347372Y-59856757D01*
X144360674Y-59855882D01*
X144374310Y-59855248D01*
X144388269Y-59854861D01*
X144402536Y-59854731D01*
X144435021Y-59854990D01*
G37*
G36*
X128464495Y-85794651D02*
G01*
X128464495Y-84565567D01*
X128856787Y-84565567D01*
X128856787Y-86572872D01*
X128506830Y-86572872D01*
X127712023Y-85340973D01*
X127712023Y-86572872D01*
X127320089Y-86572872D01*
X127320089Y-84565567D01*
X127669687Y-84565567D01*
X128464495Y-85794651D01*
G37*
G36*
X125571954Y-121191640D02*
G01*
X125612927Y-121194166D01*
X125652667Y-121198323D01*
X125691178Y-121204067D01*
X125728463Y-121211356D01*
X125764527Y-121220146D01*
X125799372Y-121230393D01*
X125833003Y-121242055D01*
X125865424Y-121255087D01*
X125896637Y-121269447D01*
X125926647Y-121285092D01*
X125955457Y-121301977D01*
X125983071Y-121320060D01*
X126009493Y-121339298D01*
X126034726Y-121359646D01*
X126058774Y-121381061D01*
X126081641Y-121403501D01*
X126103330Y-121426922D01*
X126123846Y-121451281D01*
X126143191Y-121476534D01*
X126161369Y-121502637D01*
X126178385Y-121529548D01*
X126208942Y-121585620D01*
X126234892Y-121644402D01*
X126256263Y-121705547D01*
X126273087Y-121768710D01*
X126285391Y-121833542D01*
X125890631Y-121833542D01*
X125880745Y-121798218D01*
X125869206Y-121765139D01*
X125862814Y-121749443D01*
X125856006Y-121734310D01*
X125848781Y-121719740D01*
X125841138Y-121705735D01*
X125833076Y-121692295D01*
X125824593Y-121679420D01*
X125815690Y-121667111D01*
X125806364Y-121655368D01*
X125796616Y-121644193D01*
X125786443Y-121633585D01*
X125775846Y-121623546D01*
X125764823Y-121614076D01*
X125753373Y-121605175D01*
X125741495Y-121596844D01*
X125729188Y-121589083D01*
X125716452Y-121581894D01*
X125703285Y-121575277D01*
X125689686Y-121569232D01*
X125675654Y-121563760D01*
X125661189Y-121558861D01*
X125646289Y-121554537D01*
X125630954Y-121550787D01*
X125615182Y-121547612D01*
X125598973Y-121545014D01*
X125582325Y-121542992D01*
X125565238Y-121541547D01*
X125547710Y-121540679D01*
X125529741Y-121540390D01*
X125510398Y-121540819D01*
X125491530Y-121542104D01*
X125473140Y-121544241D01*
X125455233Y-121547225D01*
X125437811Y-121551053D01*
X125420879Y-121555720D01*
X125404439Y-121561221D01*
X125388497Y-121567554D01*
X125373054Y-121574714D01*
X125358115Y-121582697D01*
X125343684Y-121591498D01*
X125329764Y-121601113D01*
X125316358Y-121611539D01*
X125303470Y-121622771D01*
X125291105Y-121634805D01*
X125279264Y-121647636D01*
X125266029Y-121664888D01*
X125253943Y-121682188D01*
X125248319Y-121691014D01*
X125242967Y-121700041D01*
X125237882Y-121709331D01*
X125233058Y-121718949D01*
X125228492Y-121728956D01*
X125224177Y-121739416D01*
X125220109Y-121750391D01*
X125216282Y-121761944D01*
X125212692Y-121774139D01*
X125209333Y-121787039D01*
X125206200Y-121800705D01*
X125203288Y-121815202D01*
X125200593Y-121830591D01*
X125198108Y-121846937D01*
X125193751Y-121882747D01*
X125190176Y-121923136D01*
X125187342Y-121968608D01*
X125185210Y-122019664D01*
X125183737Y-122076810D01*
X125182883Y-122140547D01*
X125182607Y-122211380D01*
X125183505Y-122345258D01*
X125186549Y-122453396D01*
X125189039Y-122499019D01*
X125192263Y-122539655D01*
X125196286Y-122575788D01*
X125201173Y-122607899D01*
X125206990Y-122636471D01*
X125213803Y-122661987D01*
X125221677Y-122684930D01*
X125230678Y-122705782D01*
X125240872Y-122725026D01*
X125252324Y-122743145D01*
X125265099Y-122760622D01*
X125279264Y-122777939D01*
X125290551Y-122790797D01*
X125302443Y-122802784D01*
X125314937Y-122813906D01*
X125328028Y-122824169D01*
X125341709Y-122833578D01*
X125355976Y-122842140D01*
X125370824Y-122849859D01*
X125386248Y-122856741D01*
X125402242Y-122862792D01*
X125418801Y-122868018D01*
X125435921Y-122872425D01*
X125453596Y-122876017D01*
X125471820Y-122878802D01*
X125490589Y-122880784D01*
X125509898Y-122881969D01*
X125529741Y-122882362D01*
X125551227Y-122881936D01*
X125572161Y-122880652D01*
X125592547Y-122878505D01*
X125612386Y-122875489D01*
X125631681Y-122871599D01*
X125650435Y-122866829D01*
X125668651Y-122861174D01*
X125686331Y-122854627D01*
X125703478Y-122847182D01*
X125720093Y-122838835D01*
X125736181Y-122829579D01*
X125751743Y-122819409D01*
X125766782Y-122808318D01*
X125781300Y-122796302D01*
X125795301Y-122783355D01*
X125808786Y-122769470D01*
X125819505Y-122756569D01*
X125829566Y-122743134D01*
X125838965Y-122729170D01*
X125847697Y-122714681D01*
X125855756Y-122699670D01*
X125863140Y-122684143D01*
X125869842Y-122668103D01*
X125875858Y-122651554D01*
X125881184Y-122634501D01*
X125885815Y-122616948D01*
X125889746Y-122598900D01*
X125892973Y-122580359D01*
X125895491Y-122561332D01*
X125897295Y-122541821D01*
X125898381Y-122521830D01*
X125898744Y-122501366D01*
X125898744Y-122425514D01*
X125529741Y-122425514D01*
X125529741Y-122098846D01*
X126288214Y-122098846D01*
X126288214Y-122391647D01*
X126287578Y-122445279D01*
X126285640Y-122496200D01*
X126282356Y-122544551D01*
X126277680Y-122590474D01*
X126271567Y-122634111D01*
X126263973Y-122675603D01*
X126254852Y-122715092D01*
X126244160Y-122752720D01*
X126231851Y-122788628D01*
X126217881Y-122822957D01*
X126202205Y-122855850D01*
X126184777Y-122887448D01*
X126165553Y-122917893D01*
X126144488Y-122947326D01*
X126121537Y-122975889D01*
X126096655Y-123003723D01*
X126096659Y-123003708D01*
X126067242Y-123032196D01*
X126037065Y-123058674D01*
X126006118Y-123083165D01*
X125974392Y-123105694D01*
X125941879Y-123126283D01*
X125908569Y-123144958D01*
X125874454Y-123161740D01*
X125839526Y-123176656D01*
X125803775Y-123189727D01*
X125767192Y-123200978D01*
X125729770Y-123210433D01*
X125691498Y-123218116D01*
X125652368Y-123224050D01*
X125612372Y-123228259D01*
X125571501Y-123230767D01*
X125529745Y-123231598D01*
X125489987Y-123230738D01*
X125451015Y-123228159D01*
X125412829Y-123223861D01*
X125375431Y-123217845D01*
X125338820Y-123210111D01*
X125302997Y-123200659D01*
X125267963Y-123189491D01*
X125233718Y-123176607D01*
X125200263Y-123162007D01*
X125167597Y-123145692D01*
X125135723Y-123127662D01*
X125104639Y-123107918D01*
X125074347Y-123086460D01*
X125044847Y-123063289D01*
X125016140Y-123038406D01*
X124988226Y-123011810D01*
X124972280Y-122995246D01*
X124957116Y-122978362D01*
X124942731Y-122961162D01*
X124929120Y-122943649D01*
X124916280Y-122925826D01*
X124904208Y-122907696D01*
X124892899Y-122889262D01*
X124882350Y-122870527D01*
X124872558Y-122851495D01*
X124863519Y-122832167D01*
X124855229Y-122812549D01*
X124847685Y-122792642D01*
X124840883Y-122772449D01*
X124834819Y-122751974D01*
X124829490Y-122731220D01*
X124824892Y-122710190D01*
X124817055Y-122665461D01*
X124810223Y-122615680D01*
X124804408Y-122560855D01*
X124799623Y-122500995D01*
X124795880Y-122436107D01*
X124793191Y-122366201D01*
X124791569Y-122291284D01*
X124791025Y-122211365D01*
X124791569Y-122131344D01*
X124793191Y-122056375D01*
X124795880Y-121986449D01*
X124799623Y-121921558D01*
X124804408Y-121861694D01*
X124810223Y-121806849D01*
X124817055Y-121757014D01*
X124824892Y-121712181D01*
X124829490Y-121690746D01*
X124834819Y-121669691D01*
X124840883Y-121649010D01*
X124847685Y-121628693D01*
X124855229Y-121608733D01*
X124863519Y-121589124D01*
X124872558Y-121569856D01*
X124882350Y-121550922D01*
X124892899Y-121532315D01*
X124904208Y-121514027D01*
X124916280Y-121496050D01*
X124929120Y-121478376D01*
X124942731Y-121460998D01*
X124957116Y-121443908D01*
X124972280Y-121427098D01*
X124988226Y-121410561D01*
X125016140Y-121383908D01*
X125044847Y-121358983D01*
X125074347Y-121335784D01*
X125104639Y-121314310D01*
X125135723Y-121294560D01*
X125167597Y-121276533D01*
X125200263Y-121260227D01*
X125233718Y-121245643D01*
X125267963Y-121232778D01*
X125302997Y-121221631D01*
X125338820Y-121212203D01*
X125375431Y-121204491D01*
X125412829Y-121198494D01*
X125451015Y-121194212D01*
X125489987Y-121191644D01*
X125529745Y-121190788D01*
X125571954Y-121191640D01*
G37*
G36*
X124390344Y-152326385D02*
G01*
X123998758Y-152326385D01*
X123998758Y-150319420D01*
X124390344Y-150319420D01*
X124390344Y-152326385D01*
G37*
G36*
X121834253Y-121557449D02*
G01*
X121310381Y-121557449D01*
X121310381Y-123214806D01*
X120918442Y-123214806D01*
X120918442Y-121557449D01*
X120393511Y-121557449D01*
X120393511Y-121207497D01*
X121834253Y-121207497D01*
X121834253Y-121557449D01*
G37*
G36*
X144459857Y-103626303D02*
G01*
X144487285Y-103627396D01*
X144514209Y-103629217D01*
X144540625Y-103631765D01*
X144566529Y-103635041D01*
X144591916Y-103639045D01*
X144616782Y-103643775D01*
X144641123Y-103649231D01*
X144665184Y-103655429D01*
X144688684Y-103662380D01*
X144711620Y-103670076D01*
X144733995Y-103678508D01*
X144755807Y-103687667D01*
X144777056Y-103697546D01*
X144797744Y-103708136D01*
X144817869Y-103719429D01*
X144827692Y-103725316D01*
X144837186Y-103731333D01*
X144846350Y-103737480D01*
X144855187Y-103743754D01*
X144863698Y-103750154D01*
X144871882Y-103756679D01*
X144879742Y-103763327D01*
X144887279Y-103770097D01*
X144894493Y-103776986D01*
X144901386Y-103783994D01*
X144907958Y-103791118D01*
X144914211Y-103798358D01*
X144920146Y-103805711D01*
X144925764Y-103813177D01*
X144931066Y-103820753D01*
X144936052Y-103828438D01*
X144940736Y-103836226D01*
X144945129Y-103843982D01*
X144949229Y-103851704D01*
X144953035Y-103859394D01*
X144956546Y-103867050D01*
X144959759Y-103874674D01*
X144962674Y-103882264D01*
X144965288Y-103889822D01*
X144967601Y-103897346D01*
X144969611Y-103904838D01*
X144971315Y-103912296D01*
X144972713Y-103919721D01*
X144973803Y-103927113D01*
X144974584Y-103934471D01*
X144975053Y-103941797D01*
X144975210Y-103949089D01*
X144975210Y-104249306D01*
X144975111Y-104256614D01*
X144974813Y-104263857D01*
X144974317Y-104271035D01*
X144973622Y-104278149D01*
X144972729Y-104285198D01*
X144971638Y-104292184D01*
X144970347Y-104299108D01*
X144968859Y-104305968D01*
X144967172Y-104312767D01*
X144965287Y-104319504D01*
X144963203Y-104326180D01*
X144960921Y-104332796D01*
X144958440Y-104339352D01*
X144955761Y-104345849D01*
X144952884Y-104352286D01*
X144949808Y-104358665D01*
X144946504Y-104364940D01*
X144942945Y-104371196D01*
X144939130Y-104377433D01*
X144935061Y-104383649D01*
X144930738Y-104389843D01*
X144926161Y-104396012D01*
X144921331Y-104402156D01*
X144916249Y-104408272D01*
X144910914Y-104414359D01*
X144905328Y-104420415D01*
X144899491Y-104426440D01*
X144893403Y-104432430D01*
X144887065Y-104438386D01*
X144880477Y-104444304D01*
X144873641Y-104450184D01*
X144866556Y-104456024D01*
X144873245Y-104460441D01*
X144879686Y-104464958D01*
X144885880Y-104469576D01*
X144891828Y-104474296D01*
X144897530Y-104479119D01*
X144902986Y-104484046D01*
X144908197Y-104489079D01*
X144913164Y-104494218D01*
X144917888Y-104499464D01*
X144922367Y-104504819D01*
X144926604Y-104510283D01*
X144930599Y-104515858D01*
X144934352Y-104521544D01*
X144937864Y-104527343D01*
X144941135Y-104533256D01*
X144944166Y-104539284D01*
X144947014Y-104545421D01*
X144949739Y-104551667D01*
X144952341Y-104558018D01*
X144954820Y-104564476D01*
X144957178Y-104571040D01*
X144959414Y-104577709D01*
X144961529Y-104584482D01*
X144963523Y-104591359D01*
X144965398Y-104598340D01*
X144967153Y-104605423D01*
X144970308Y-104619897D01*
X144972993Y-104634776D01*
X144975210Y-104650055D01*
X144975210Y-104948860D01*
X144975070Y-104956226D01*
X144974649Y-104963644D01*
X144973949Y-104971113D01*
X144972972Y-104978634D01*
X144971717Y-104986210D01*
X144970186Y-104993840D01*
X144968380Y-105001526D01*
X144966301Y-105009269D01*
X144963948Y-105017069D01*
X144961324Y-105024929D01*
X144958429Y-105032848D01*
X144955264Y-105040829D01*
X144951830Y-105048871D01*
X144948129Y-105056976D01*
X144944161Y-105065145D01*
X144939928Y-105073379D01*
X144939928Y-105073387D01*
X144935467Y-105080126D01*
X144930685Y-105086847D01*
X144925584Y-105093548D01*
X144920165Y-105100227D01*
X144914430Y-105106884D01*
X144908380Y-105113516D01*
X144902017Y-105120122D01*
X144895343Y-105126701D01*
X144888358Y-105133251D01*
X144881066Y-105139771D01*
X144873466Y-105146258D01*
X144865561Y-105152712D01*
X144857352Y-105159131D01*
X144848841Y-105165513D01*
X144840030Y-105171857D01*
X144830919Y-105178162D01*
X144825876Y-105181188D01*
X144820270Y-105184450D01*
X144807371Y-105191699D01*
X144792223Y-105199942D01*
X144774828Y-105209213D01*
X144765053Y-105214118D01*
X144754254Y-105219310D01*
X144742430Y-105224776D01*
X144729582Y-105230503D01*
X144715709Y-105236479D01*
X144700811Y-105242691D01*
X144684888Y-105249128D01*
X144667940Y-105255775D01*
X144645334Y-105261233D01*
X144622237Y-105265962D01*
X144598652Y-105269963D01*
X144574584Y-105273236D01*
X144550037Y-105275781D01*
X144525014Y-105277599D01*
X144499520Y-105278689D01*
X144473558Y-105279053D01*
X144808698Y-105657936D01*
X144571630Y-105812462D01*
X143939451Y-105119255D01*
X144125360Y-104925224D01*
X144284815Y-105057159D01*
X144579382Y-105057159D01*
X144613958Y-105045174D01*
X144660875Y-105017296D01*
X144663202Y-105015791D01*
X144665420Y-105014189D01*
X144667526Y-105012488D01*
X144669518Y-105010689D01*
X144671395Y-105008794D01*
X144673154Y-105006801D01*
X144674793Y-105004713D01*
X144676310Y-105002529D01*
X144677703Y-105000250D01*
X144678970Y-104997876D01*
X144680108Y-104995408D01*
X144681117Y-104992847D01*
X144681993Y-104990192D01*
X144682734Y-104987445D01*
X144683339Y-104984605D01*
X144683805Y-104981674D01*
X144683805Y-104644417D01*
X144660875Y-104608787D01*
X144658833Y-104605840D01*
X144656542Y-104602950D01*
X144654004Y-104600120D01*
X144651218Y-104597349D01*
X144648183Y-104594638D01*
X144644901Y-104591987D01*
X144641371Y-104589398D01*
X144637592Y-104586870D01*
X144633566Y-104584404D01*
X144629291Y-104582001D01*
X144624769Y-104579661D01*
X144619998Y-104577384D01*
X144614980Y-104575172D01*
X144609713Y-104573024D01*
X144604199Y-104570941D01*
X144598436Y-104568924D01*
X144497892Y-104549164D01*
X144401228Y-104541054D01*
X144183916Y-104541054D01*
X144183916Y-104355148D01*
X144509180Y-104355148D01*
X144523516Y-104353077D01*
X144537158Y-104350837D01*
X144550107Y-104348424D01*
X144562361Y-104345834D01*
X144573920Y-104343062D01*
X144584785Y-104340105D01*
X144594955Y-104336959D01*
X144604429Y-104333618D01*
X144608989Y-104331940D01*
X144613410Y-104330212D01*
X144617690Y-104328434D01*
X144621832Y-104326607D01*
X144625835Y-104324730D01*
X144629700Y-104322804D01*
X144633427Y-104320828D01*
X144637018Y-104318803D01*
X144640472Y-104316728D01*
X144643790Y-104314603D01*
X144646973Y-104312429D01*
X144650021Y-104310205D01*
X144652935Y-104307931D01*
X144655715Y-104305607D01*
X144658361Y-104303234D01*
X144660875Y-104300812D01*
X144663202Y-104298335D01*
X144665420Y-104295801D01*
X144667526Y-104293209D01*
X144669518Y-104290559D01*
X144671395Y-104287851D01*
X144673154Y-104285086D01*
X144674793Y-104282263D01*
X144676310Y-104279382D01*
X144677703Y-104276443D01*
X144678970Y-104273446D01*
X144680108Y-104270391D01*
X144681117Y-104267279D01*
X144681993Y-104264108D01*
X144682734Y-104260880D01*
X144683339Y-104257594D01*
X144683805Y-104254249D01*
X144683805Y-103904991D01*
X144664759Y-103885590D01*
X144613958Y-103866188D01*
X144435453Y-103842911D01*
X144331030Y-103842911D01*
X144253774Y-103866188D01*
X144249408Y-103866250D01*
X144245173Y-103866435D01*
X144241068Y-103866744D01*
X144237093Y-103867175D01*
X144233246Y-103867728D01*
X144229526Y-103868403D01*
X144225932Y-103869198D01*
X144222463Y-103870114D01*
X144219119Y-103871150D01*
X144215897Y-103872305D01*
X144212798Y-103873579D01*
X144209820Y-103874972D01*
X144206961Y-103876482D01*
X144204221Y-103878109D01*
X144201600Y-103879853D01*
X144199095Y-103881714D01*
X144183924Y-103908882D01*
X144183924Y-104192154D01*
X143892526Y-104192154D01*
X143892526Y-103946274D01*
X143892671Y-103938437D01*
X143893105Y-103930674D01*
X143893829Y-103922982D01*
X143894842Y-103915361D01*
X143896144Y-103907808D01*
X143897736Y-103900322D01*
X143899617Y-103892901D01*
X143901787Y-103885544D01*
X143904247Y-103878249D01*
X143906996Y-103871015D01*
X143910035Y-103863840D01*
X143913362Y-103856722D01*
X143916980Y-103849661D01*
X143920886Y-103842654D01*
X143925082Y-103835699D01*
X143929567Y-103828796D01*
X143934363Y-103822004D01*
X143939490Y-103815253D01*
X143944947Y-103808545D01*
X143950735Y-103801879D01*
X143956853Y-103795258D01*
X143963302Y-103788680D01*
X143970082Y-103782147D01*
X143977193Y-103775659D01*
X143984634Y-103769216D01*
X143992406Y-103762819D01*
X144000509Y-103756469D01*
X144008942Y-103750166D01*
X144017707Y-103743910D01*
X144026802Y-103737702D01*
X144036227Y-103731543D01*
X144045984Y-103725433D01*
X144065759Y-103713743D01*
X144085386Y-103703015D01*
X144104847Y-103693256D01*
X144124126Y-103684467D01*
X144143207Y-103676654D01*
X144152668Y-103673115D01*
X144162073Y-103669821D01*
X144171420Y-103666774D01*
X144180708Y-103663972D01*
X144189933Y-103661418D01*
X144199095Y-103659111D01*
X144234624Y-103650974D01*
X144267179Y-103644029D01*
X144296823Y-103638274D01*
X144323622Y-103633713D01*
X144336306Y-103631856D01*
X144349227Y-103630261D01*
X144362387Y-103628923D01*
X144375791Y-103627837D01*
X144389443Y-103627000D01*
X144403347Y-103626407D01*
X144417508Y-103626055D01*
X144431928Y-103625938D01*
X144459857Y-103626303D01*
G37*
G36*
X129559401Y-89949279D02*
G01*
X129600257Y-89952039D01*
X129639866Y-89956608D01*
X129678265Y-89962961D01*
X129715491Y-89971070D01*
X129751584Y-89980910D01*
X129786580Y-89992456D01*
X129820517Y-90005681D01*
X129853433Y-90020560D01*
X129885365Y-90037067D01*
X129916352Y-90055176D01*
X129946431Y-90074860D01*
X129975639Y-90096095D01*
X130004015Y-90118854D01*
X130031596Y-90143112D01*
X130058420Y-90168842D01*
X130076873Y-90188002D01*
X130094156Y-90207451D01*
X130110309Y-90227199D01*
X130125370Y-90247255D01*
X130139376Y-90267627D01*
X130152367Y-90288323D01*
X130164380Y-90309354D01*
X130175453Y-90330727D01*
X130185625Y-90352452D01*
X130194934Y-90374536D01*
X130211117Y-90419821D01*
X130224306Y-90466652D01*
X130234808Y-90515099D01*
X130242929Y-90565233D01*
X130248975Y-90617124D01*
X130253251Y-90670843D01*
X130256064Y-90726458D01*
X130258523Y-90843664D01*
X130258798Y-90969303D01*
X130258523Y-91094839D01*
X130256064Y-91211996D01*
X130253252Y-91267604D01*
X130248976Y-91321323D01*
X130242930Y-91373223D01*
X130234810Y-91423371D01*
X130224308Y-91471836D01*
X130211118Y-91518688D01*
X130194936Y-91563994D01*
X130175455Y-91607824D01*
X130152368Y-91650246D01*
X130125371Y-91691329D01*
X130094157Y-91731141D01*
X130058420Y-91769752D01*
X130031595Y-91795479D01*
X130004014Y-91819725D01*
X129975638Y-91842467D01*
X129946429Y-91863679D01*
X129916350Y-91883337D01*
X129885363Y-91901415D01*
X129853431Y-91917890D01*
X129820515Y-91932736D01*
X129786579Y-91945928D01*
X129751583Y-91957442D01*
X129715491Y-91967252D01*
X129678264Y-91975335D01*
X129639865Y-91981664D01*
X129600257Y-91986216D01*
X129559401Y-91988965D01*
X129517259Y-91989887D01*
X129475025Y-91988965D01*
X129434026Y-91986216D01*
X129394233Y-91981664D01*
X129355616Y-91975335D01*
X129318147Y-91967252D01*
X129281796Y-91957442D01*
X129246533Y-91945928D01*
X129212329Y-91932736D01*
X129179154Y-91917890D01*
X129146979Y-91901415D01*
X129115774Y-91883337D01*
X129085511Y-91863679D01*
X129056158Y-91842467D01*
X129027688Y-91819725D01*
X129000071Y-91795479D01*
X128973276Y-91769752D01*
X128954830Y-91750593D01*
X128937567Y-91731142D01*
X128921448Y-91711390D01*
X128906432Y-91691329D01*
X128892482Y-91670951D01*
X128879557Y-91650247D01*
X128867619Y-91629207D01*
X128856629Y-91607825D01*
X128846547Y-91586090D01*
X128837335Y-91563996D01*
X128821361Y-91518690D01*
X128808395Y-91471839D01*
X128798124Y-91423374D01*
X128790233Y-91373226D01*
X128784411Y-91321327D01*
X128780343Y-91267608D01*
X128777718Y-91211999D01*
X128775539Y-91094841D01*
X128775369Y-90969303D01*
X129167303Y-90969303D01*
X129168301Y-91100961D01*
X129171581Y-91208452D01*
X129174211Y-91254180D01*
X129177572Y-91295123D01*
X129181720Y-91331698D01*
X129186706Y-91364324D01*
X129192586Y-91393419D01*
X129199412Y-91419403D01*
X129207239Y-91442693D01*
X129216120Y-91463708D01*
X129226109Y-91482866D01*
X129237260Y-91500587D01*
X129249626Y-91517289D01*
X129263262Y-91533390D01*
X129274175Y-91545230D01*
X129285866Y-91556520D01*
X129298309Y-91567230D01*
X129311480Y-91577331D01*
X129325354Y-91586793D01*
X129339906Y-91595586D01*
X129355111Y-91603682D01*
X129370944Y-91611051D01*
X129387382Y-91617663D01*
X129404398Y-91623489D01*
X129421968Y-91628500D01*
X129440067Y-91632665D01*
X129458671Y-91635957D01*
X129477754Y-91638344D01*
X129497292Y-91639798D01*
X129517259Y-91640289D01*
X129537133Y-91639798D01*
X129556527Y-91638344D01*
X129575423Y-91635957D01*
X129593806Y-91632665D01*
X129611657Y-91628500D01*
X129628960Y-91623489D01*
X129645698Y-91617663D01*
X129661853Y-91611051D01*
X129677409Y-91603682D01*
X129692348Y-91595586D01*
X129706654Y-91586793D01*
X129720310Y-91577331D01*
X129733297Y-91567230D01*
X129745600Y-91556520D01*
X129757201Y-91545230D01*
X129768083Y-91533390D01*
X129781747Y-91517289D01*
X129788118Y-91509039D01*
X129794191Y-91500587D01*
X129799971Y-91491880D01*
X129805464Y-91482866D01*
X129810675Y-91473493D01*
X129815610Y-91463708D01*
X129820276Y-91453458D01*
X129824678Y-91442693D01*
X129828822Y-91431358D01*
X129832714Y-91419403D01*
X129836359Y-91406774D01*
X129839763Y-91393419D01*
X129842932Y-91379287D01*
X129845873Y-91364324D01*
X129848590Y-91348479D01*
X129851089Y-91331698D01*
X129855460Y-91295123D01*
X129859030Y-91254180D01*
X129861847Y-91208452D01*
X129863957Y-91157518D01*
X129865406Y-91100961D01*
X129866242Y-91038362D01*
X129866510Y-90969303D01*
X129865406Y-90837730D01*
X129861846Y-90730255D01*
X129859029Y-90684517D01*
X129855459Y-90643558D01*
X129851088Y-90606965D01*
X129845871Y-90574321D01*
X129839761Y-90545211D01*
X129832712Y-90519222D01*
X129824677Y-90495937D01*
X129815609Y-90474942D01*
X129805462Y-90455822D01*
X129794190Y-90438161D01*
X129781746Y-90421545D01*
X129768083Y-90405559D01*
X129757201Y-90393601D01*
X129745600Y-90382216D01*
X129733297Y-90371430D01*
X129720310Y-90361273D01*
X129706654Y-90351771D01*
X129692348Y-90342952D01*
X129677409Y-90334842D01*
X129661853Y-90327470D01*
X129645698Y-90320863D01*
X129628960Y-90315048D01*
X129611657Y-90310052D01*
X129593806Y-90305903D01*
X129575423Y-90302629D01*
X129556527Y-90300256D01*
X129537133Y-90298812D01*
X129517259Y-90298324D01*
X129497292Y-90298812D01*
X129477754Y-90300256D01*
X129458671Y-90302629D01*
X129440067Y-90305903D01*
X129421968Y-90310052D01*
X129404399Y-90315048D01*
X129387383Y-90320863D01*
X129370946Y-90327470D01*
X129355112Y-90334842D01*
X129339907Y-90342952D01*
X129325355Y-90351771D01*
X129311481Y-90361273D01*
X129298310Y-90371430D01*
X129285867Y-90382216D01*
X129274176Y-90393601D01*
X129263262Y-90405559D01*
X129249626Y-90421547D01*
X129243288Y-90429750D01*
X129237260Y-90438163D01*
X129231536Y-90446837D01*
X129226109Y-90455824D01*
X129220973Y-90465176D01*
X129216120Y-90474945D01*
X129211545Y-90485182D01*
X129207239Y-90495940D01*
X129203197Y-90507271D01*
X129199412Y-90519225D01*
X129195877Y-90531856D01*
X129192586Y-90545215D01*
X129189531Y-90559353D01*
X129186706Y-90574324D01*
X129181720Y-90606967D01*
X129177572Y-90643560D01*
X129174211Y-90684518D01*
X129171581Y-90730256D01*
X129169628Y-90781188D01*
X129168301Y-90837730D01*
X129167543Y-90900297D01*
X129167303Y-90969303D01*
X128775369Y-90969303D01*
X128775539Y-90843664D01*
X128777718Y-90726458D01*
X128780343Y-90670843D01*
X128784411Y-90617124D01*
X128790233Y-90565233D01*
X128798124Y-90515099D01*
X128808395Y-90466652D01*
X128821361Y-90419821D01*
X128837335Y-90374536D01*
X128856629Y-90330727D01*
X128879557Y-90288323D01*
X128906432Y-90247255D01*
X128937567Y-90207451D01*
X128973276Y-90168842D01*
X129000071Y-90143112D01*
X129027688Y-90118854D01*
X129056158Y-90096095D01*
X129085511Y-90074860D01*
X129115774Y-90055176D01*
X129146979Y-90037067D01*
X129179154Y-90020560D01*
X129212329Y-90005681D01*
X129246533Y-89992456D01*
X129281796Y-89980910D01*
X129318147Y-89971070D01*
X129355616Y-89962961D01*
X129394233Y-89956608D01*
X129434026Y-89952039D01*
X129475025Y-89949279D01*
X129517259Y-89948353D01*
X129559401Y-89949279D01*
G37*
G36*
X154177444Y-148984126D02*
G01*
X154228046Y-148988004D01*
X154277932Y-148994390D01*
X154327036Y-149003220D01*
X154375297Y-149014429D01*
X154422648Y-149027954D01*
X154469027Y-149043730D01*
X154514370Y-149061693D01*
X154558613Y-149081780D01*
X154601692Y-149103926D01*
X154643543Y-149128068D01*
X154684101Y-149154140D01*
X154723305Y-149182081D01*
X154761088Y-149211824D01*
X154797388Y-149243307D01*
X154832141Y-149276465D01*
X154865282Y-149311235D01*
X154896748Y-149347551D01*
X154926476Y-149385351D01*
X154954400Y-149424571D01*
X154980457Y-149465145D01*
X155004584Y-149507010D01*
X155026716Y-149550103D01*
X155046790Y-149594359D01*
X155064741Y-149639714D01*
X155080506Y-149686104D01*
X155094021Y-149733465D01*
X155105222Y-149781734D01*
X155114045Y-149830845D01*
X155120427Y-149880735D01*
X155124302Y-149931341D01*
X155125608Y-149982597D01*
X155125608Y-162597931D01*
X155124302Y-162649155D01*
X155120427Y-162699730D01*
X155114045Y-162749591D01*
X155105223Y-162798676D01*
X155094022Y-162846919D01*
X155080507Y-162894257D01*
X155064742Y-162940626D01*
X155046791Y-162985961D01*
X155026717Y-163030198D01*
X155004586Y-163073274D01*
X154980459Y-163115124D01*
X154954402Y-163155684D01*
X154926478Y-163194890D01*
X154896751Y-163232679D01*
X154865285Y-163268985D01*
X154832144Y-163303745D01*
X154797391Y-163336895D01*
X154761091Y-163368371D01*
X154723308Y-163398108D01*
X154684105Y-163426043D01*
X154643546Y-163452111D01*
X154601695Y-163476249D01*
X154558616Y-163498392D01*
X154514374Y-163518476D01*
X154469031Y-163536437D01*
X154422651Y-163552211D01*
X154375299Y-163565735D01*
X154327039Y-163576943D01*
X154277933Y-163585772D01*
X154228047Y-163592158D01*
X154177444Y-163596036D01*
X154126188Y-163597343D01*
X146196806Y-163597343D01*
X146145549Y-163596036D01*
X146094944Y-163592158D01*
X146045054Y-163585772D01*
X145995942Y-163576943D01*
X145947674Y-163565735D01*
X145900313Y-163552211D01*
X145853923Y-163536437D01*
X145808569Y-163518476D01*
X145764313Y-163498392D01*
X145721221Y-163476249D01*
X145679355Y-163452111D01*
X145638781Y-163426043D01*
X145599563Y-163398108D01*
X145561763Y-163368371D01*
X145525447Y-163336895D01*
X145490678Y-163303745D01*
X145457520Y-163268985D01*
X145426037Y-163232679D01*
X145396294Y-163194890D01*
X145368354Y-163155684D01*
X145342282Y-163115124D01*
X145318140Y-163073274D01*
X145295994Y-163030198D01*
X145275908Y-162985961D01*
X145257945Y-162940626D01*
X145242169Y-162894257D01*
X145228645Y-162846919D01*
X145217436Y-162798676D01*
X145208606Y-162749591D01*
X145202220Y-162699730D01*
X145198342Y-162649155D01*
X145197035Y-162597931D01*
X145197035Y-151323151D01*
X146906244Y-151323151D01*
X146906398Y-151448688D01*
X146908531Y-151565845D01*
X146911125Y-151621453D01*
X146915155Y-151675172D01*
X146920934Y-151727071D01*
X146928777Y-151777219D01*
X146938997Y-151825684D01*
X146951908Y-151872535D01*
X146967823Y-151917842D01*
X146977005Y-151939937D01*
X146987056Y-151961672D01*
X146998015Y-151983055D01*
X147009922Y-152004094D01*
X147022814Y-152024799D01*
X147036732Y-152045178D01*
X147051715Y-152065239D01*
X147067802Y-152084992D01*
X147085032Y-152104444D01*
X147103445Y-152123604D01*
X147130247Y-152149325D01*
X147157887Y-152173560D01*
X147186390Y-152196284D01*
X147215784Y-152217473D01*
X147246096Y-152237104D01*
X147277353Y-152255153D01*
X147309580Y-152271595D01*
X147342807Y-152286408D01*
X147377058Y-152299568D01*
X147412362Y-152311050D01*
X147448744Y-152320830D01*
X147486233Y-152328886D01*
X147524854Y-152335193D01*
X147564635Y-152339728D01*
X147605602Y-152342466D01*
X147647783Y-152343384D01*
X147689928Y-152342466D01*
X147730795Y-152339728D01*
X147770419Y-152335193D01*
X147808838Y-152328886D01*
X147846086Y-152320830D01*
X147882200Y-152311050D01*
X147917217Y-152299568D01*
X147951172Y-152286408D01*
X147984101Y-152271595D01*
X148016042Y-152255153D01*
X148047030Y-152237104D01*
X148077101Y-152217473D01*
X148106291Y-152196284D01*
X148134637Y-152173560D01*
X148162174Y-152149325D01*
X148188940Y-152123604D01*
X148224618Y-152084992D01*
X148255789Y-152045178D01*
X148282756Y-152004094D01*
X148305825Y-151961672D01*
X148325299Y-151917842D01*
X148341482Y-151872535D01*
X148354680Y-151825684D01*
X148365197Y-151777219D01*
X148373336Y-151727071D01*
X148379402Y-151675172D01*
X148383700Y-151621453D01*
X148386534Y-151565845D01*
X148389028Y-151448688D01*
X148389318Y-151323151D01*
X148389028Y-151197411D01*
X148386534Y-151080153D01*
X148383700Y-151024525D01*
X148379402Y-150970800D01*
X148373336Y-150918906D01*
X148365197Y-150868771D01*
X148354680Y-150820323D01*
X148341482Y-150773490D01*
X148325299Y-150728198D01*
X148315992Y-150706108D01*
X148305825Y-150684376D01*
X148294759Y-150662994D01*
X148282756Y-150641951D01*
X148269779Y-150621241D01*
X148255789Y-150600852D01*
X148240748Y-150580776D01*
X148224618Y-150561005D01*
X148207362Y-150541529D01*
X148188940Y-150522339D01*
X148162174Y-150496672D01*
X148134637Y-150472471D01*
X148106291Y-150449760D01*
X148077101Y-150428567D01*
X148047030Y-150408918D01*
X148016042Y-150390839D01*
X147984101Y-150374356D01*
X147951172Y-150359497D01*
X147917217Y-150346287D01*
X147882200Y-150334753D01*
X147846086Y-150324921D01*
X147819503Y-150319137D01*
X148759382Y-150319137D01*
X148759382Y-151638534D01*
X148760334Y-151678050D01*
X148763159Y-151716678D01*
X148767813Y-151754394D01*
X148774252Y-151791174D01*
X148782430Y-151826994D01*
X148792304Y-151861829D01*
X148803827Y-151895656D01*
X148816957Y-151928451D01*
X148831648Y-151960190D01*
X148847855Y-151990848D01*
X148865534Y-152020403D01*
X148884640Y-152048828D01*
X148905129Y-152076102D01*
X148926956Y-152102199D01*
X148950076Y-152127095D01*
X148974445Y-152150767D01*
X149000018Y-152173191D01*
X149026750Y-152194342D01*
X149054598Y-152214196D01*
X149083515Y-152232730D01*
X149113457Y-152249919D01*
X149144381Y-152265740D01*
X149176241Y-152280168D01*
X149208992Y-152293179D01*
X149242591Y-152304750D01*
X149276991Y-152314855D01*
X149312149Y-152323472D01*
X149348021Y-152330576D01*
X149384560Y-152336143D01*
X149421724Y-152340150D01*
X149459466Y-152342571D01*
X149497743Y-152343384D01*
X149536116Y-152342571D01*
X149573947Y-152340150D01*
X149611191Y-152336143D01*
X149647803Y-152330576D01*
X149683740Y-152323472D01*
X149718958Y-152314855D01*
X149753411Y-152304750D01*
X149787056Y-152293179D01*
X149819848Y-152280168D01*
X149851744Y-152265740D01*
X149882698Y-152249919D01*
X149912666Y-152232730D01*
X149941604Y-152214196D01*
X149969469Y-152194342D01*
X149996214Y-152173191D01*
X150021797Y-152150767D01*
X150046173Y-152127095D01*
X150069297Y-152102199D01*
X150091125Y-152076102D01*
X150111613Y-152048828D01*
X150130717Y-152020403D01*
X150148392Y-151990848D01*
X150164594Y-151960190D01*
X150179279Y-151928451D01*
X150192402Y-151895656D01*
X150203919Y-151861829D01*
X150213786Y-151826994D01*
X150221958Y-151791174D01*
X150228391Y-151754394D01*
X150233041Y-151716678D01*
X150235864Y-151678050D01*
X150236814Y-151638534D01*
X150236814Y-150319137D01*
X150525385Y-150319137D01*
X150525385Y-150669105D01*
X151049967Y-150669105D01*
X151049967Y-152326805D01*
X151441549Y-152326805D01*
X152217661Y-152326805D01*
X153438619Y-152326805D01*
X153438619Y-151996956D01*
X152663225Y-151996956D01*
X153224493Y-151345726D01*
X153273295Y-151287761D01*
X153295474Y-151260227D01*
X153316141Y-151233372D01*
X153335277Y-151206982D01*
X153352861Y-151180843D01*
X153368870Y-151154740D01*
X153383284Y-151128459D01*
X153396082Y-151101785D01*
X153407242Y-151074504D01*
X153416744Y-151046401D01*
X153424565Y-151017262D01*
X153430686Y-150986872D01*
X153435083Y-150955017D01*
X153437738Y-150921483D01*
X153438627Y-150886055D01*
X153437889Y-150852629D01*
X153435692Y-150820026D01*
X153432064Y-150788263D01*
X153427034Y-150757354D01*
X153420628Y-150727316D01*
X153412875Y-150698164D01*
X153403803Y-150669914D01*
X153393438Y-150642580D01*
X153381810Y-150616180D01*
X153368946Y-150590727D01*
X153354873Y-150566239D01*
X153339619Y-150542730D01*
X153323213Y-150520216D01*
X153305681Y-150498712D01*
X153287052Y-150478235D01*
X153267353Y-150458799D01*
X153246613Y-150440421D01*
X153224859Y-150423115D01*
X153202118Y-150406898D01*
X153178419Y-150391785D01*
X153153789Y-150377792D01*
X153128256Y-150364933D01*
X153101848Y-150353226D01*
X153074593Y-150342684D01*
X153046518Y-150333325D01*
X153017651Y-150325163D01*
X152988020Y-150318214D01*
X152957653Y-150312493D01*
X152926578Y-150308017D01*
X152894822Y-150304800D01*
X152862412Y-150302858D01*
X152829378Y-150302208D01*
X152797392Y-150302851D01*
X152765884Y-150304769D01*
X152734888Y-150307951D01*
X152704441Y-150312382D01*
X152674577Y-150318048D01*
X152645332Y-150324937D01*
X152616741Y-150333033D01*
X152588839Y-150342325D01*
X152561662Y-150352798D01*
X152535244Y-150364439D01*
X152509622Y-150377234D01*
X152484830Y-150391169D01*
X152460903Y-150406232D01*
X152437877Y-150422408D01*
X152415788Y-150439684D01*
X152394669Y-150458047D01*
X152374558Y-150477482D01*
X152355488Y-150497977D01*
X152337496Y-150519517D01*
X152320616Y-150542089D01*
X152304883Y-150565680D01*
X152290334Y-150590276D01*
X152277003Y-150615864D01*
X152264925Y-150642429D01*
X152254137Y-150669958D01*
X152244672Y-150698439D01*
X152236567Y-150727856D01*
X152229856Y-150758197D01*
X152224575Y-150789449D01*
X152220759Y-150821596D01*
X152218444Y-150854627D01*
X152217665Y-150888527D01*
X152584551Y-150888527D01*
X152584911Y-150870722D01*
X152585975Y-150853677D01*
X152587720Y-150837379D01*
X152590122Y-150821816D01*
X152593159Y-150806975D01*
X152596806Y-150792843D01*
X152601040Y-150779408D01*
X152605839Y-150766656D01*
X152611178Y-150754575D01*
X152617034Y-150743151D01*
X152623384Y-150732373D01*
X152630204Y-150722228D01*
X152637472Y-150712701D01*
X152645162Y-150703782D01*
X152653254Y-150695457D01*
X152661722Y-150687713D01*
X152670543Y-150680537D01*
X152679694Y-150673917D01*
X152689153Y-150667840D01*
X152698894Y-150662292D01*
X152708896Y-150657263D01*
X152719134Y-150652737D01*
X152729585Y-150648703D01*
X152740226Y-150645149D01*
X152761983Y-150639424D01*
X152784219Y-150635462D01*
X152806746Y-150633160D01*
X152829378Y-150632416D01*
X152843731Y-150632712D01*
X152857684Y-150633593D01*
X152871232Y-150635050D01*
X152884373Y-150637073D01*
X152897103Y-150639651D01*
X152909417Y-150642776D01*
X152921313Y-150646436D01*
X152932786Y-150650622D01*
X152943834Y-150655325D01*
X152954453Y-150660534D01*
X152964638Y-150666240D01*
X152974387Y-150672432D01*
X152983695Y-150679101D01*
X152992559Y-150686237D01*
X153000976Y-150693829D01*
X153008942Y-150701869D01*
X153016453Y-150710346D01*
X153023506Y-150719250D01*
X153030096Y-150728572D01*
X153036221Y-150738301D01*
X153041877Y-150748427D01*
X153047060Y-150758942D01*
X153051767Y-150769834D01*
X153055993Y-150781095D01*
X153059736Y-150792713D01*
X153062991Y-150804680D01*
X153065756Y-150816985D01*
X153068026Y-150829619D01*
X153069798Y-150842571D01*
X153071068Y-150855832D01*
X153071832Y-150869391D01*
X153072088Y-150883240D01*
X153071722Y-150900289D01*
X153070611Y-150916701D01*
X153068739Y-150932559D01*
X153066091Y-150947944D01*
X153062649Y-150962938D01*
X153058396Y-150977624D01*
X153053317Y-150992084D01*
X153047394Y-151006400D01*
X153040612Y-151020654D01*
X153032953Y-151034928D01*
X153024401Y-151049304D01*
X153014939Y-151063865D01*
X153004552Y-151078692D01*
X152993222Y-151093868D01*
X152980933Y-151109475D01*
X152967668Y-151125595D01*
X152217661Y-151996956D01*
X152217661Y-152326805D01*
X151441549Y-152326805D01*
X151441549Y-150669105D01*
X151966127Y-150669105D01*
X151966127Y-150319137D01*
X150525385Y-150319137D01*
X150236814Y-150319137D01*
X149847704Y-150319137D01*
X149847704Y-151624420D01*
X149847301Y-151645873D01*
X149846099Y-151666767D01*
X149844111Y-151687096D01*
X149841348Y-151706850D01*
X149837823Y-151726023D01*
X149833547Y-151744605D01*
X149828531Y-151762589D01*
X149822789Y-151779967D01*
X149816332Y-151796730D01*
X149809171Y-151812871D01*
X149801318Y-151828381D01*
X149792787Y-151843253D01*
X149783587Y-151857478D01*
X149773732Y-151871048D01*
X149763232Y-151883955D01*
X149752101Y-151896192D01*
X149740350Y-151907749D01*
X149727990Y-151918619D01*
X149715034Y-151928794D01*
X149701494Y-151938266D01*
X149687381Y-151947026D01*
X149672707Y-151955067D01*
X149657484Y-151962380D01*
X149641725Y-151968958D01*
X149625440Y-151974793D01*
X149608642Y-151979875D01*
X149591343Y-151984198D01*
X149573554Y-151987753D01*
X149555288Y-151990532D01*
X149536556Y-151992527D01*
X149517371Y-151993730D01*
X149497743Y-151994133D01*
X149478128Y-151993730D01*
X149458975Y-151992527D01*
X149440297Y-151990532D01*
X149422102Y-151987753D01*
X149404402Y-151984198D01*
X149387206Y-151979875D01*
X149370527Y-151974793D01*
X149354373Y-151968958D01*
X149338755Y-151962380D01*
X149323685Y-151955067D01*
X149309172Y-151947026D01*
X149295226Y-151938266D01*
X149281859Y-151928794D01*
X149269081Y-151918619D01*
X149256902Y-151907749D01*
X149245332Y-151896192D01*
X149234383Y-151883955D01*
X149224064Y-151871048D01*
X149214386Y-151857478D01*
X149205360Y-151843253D01*
X149196995Y-151828381D01*
X149189303Y-151812871D01*
X149182294Y-151796730D01*
X149175979Y-151779967D01*
X149170367Y-151762589D01*
X149165469Y-151744605D01*
X149161297Y-151726023D01*
X149157859Y-151706850D01*
X149155167Y-151687096D01*
X149153231Y-151666767D01*
X149152062Y-151645873D01*
X149151670Y-151624420D01*
X149151670Y-150319137D01*
X148759382Y-150319137D01*
X147819503Y-150319137D01*
X147808838Y-150316817D01*
X147770419Y-150310469D01*
X147730795Y-150305901D01*
X147689928Y-150303141D01*
X147647783Y-150302215D01*
X147605602Y-150303141D01*
X147564635Y-150305901D01*
X147524854Y-150310469D01*
X147486233Y-150316817D01*
X147448744Y-150324921D01*
X147412362Y-150334753D01*
X147377058Y-150346287D01*
X147342807Y-150359497D01*
X147309580Y-150374356D01*
X147277353Y-150390839D01*
X147246096Y-150408918D01*
X147215784Y-150428567D01*
X147186390Y-150449760D01*
X147157887Y-150472471D01*
X147130247Y-150496672D01*
X147103445Y-150522339D01*
X147067802Y-150561005D01*
X147036731Y-150600852D01*
X147009920Y-150641951D01*
X146987055Y-150684375D01*
X146967821Y-150728196D01*
X146951906Y-150773488D01*
X146938995Y-150820321D01*
X146928776Y-150868769D01*
X146920933Y-150918903D01*
X146915154Y-150970797D01*
X146911124Y-151024521D01*
X146908531Y-151080150D01*
X146906398Y-151197409D01*
X146906244Y-151323151D01*
X145197035Y-151323151D01*
X145197035Y-149982597D01*
X145198342Y-149931341D01*
X145202220Y-149880735D01*
X145208606Y-149830845D01*
X145217436Y-149781734D01*
X145228645Y-149733465D01*
X145242169Y-149686104D01*
X145257945Y-149639714D01*
X145275908Y-149594359D01*
X145295994Y-149550103D01*
X145318140Y-149507010D01*
X145342282Y-149465145D01*
X145368354Y-149424571D01*
X145396294Y-149385351D01*
X145426037Y-149347551D01*
X145457520Y-149311235D01*
X145490678Y-149276465D01*
X145525447Y-149243307D01*
X145561763Y-149211824D01*
X145599563Y-149182081D01*
X145638781Y-149154140D01*
X145679355Y-149128068D01*
X145721221Y-149103926D01*
X145764313Y-149081780D01*
X145808569Y-149061693D01*
X145853923Y-149043730D01*
X145900313Y-149027954D01*
X145947674Y-149014429D01*
X145995942Y-149003220D01*
X146045054Y-148994390D01*
X146094944Y-148988004D01*
X146145549Y-148984126D01*
X146196806Y-148982819D01*
X154126188Y-148982819D01*
X154177444Y-148984126D01*
G37*
G36*
X122978334Y-150320415D02*
G01*
X123015186Y-150322822D01*
X123051034Y-150326785D01*
X123085865Y-150332263D01*
X123119665Y-150339213D01*
X123152420Y-150347596D01*
X123184116Y-150357370D01*
X123214739Y-150368495D01*
X123244275Y-150380929D01*
X123272710Y-150394632D01*
X123300031Y-150409562D01*
X123326224Y-150425679D01*
X123351274Y-150442941D01*
X123375168Y-150461308D01*
X123397892Y-150480739D01*
X123419432Y-150501193D01*
X123439774Y-150522629D01*
X123458904Y-150545005D01*
X123476809Y-150568281D01*
X123493474Y-150592417D01*
X123508886Y-150617370D01*
X123523030Y-150643101D01*
X123535894Y-150669567D01*
X123547462Y-150696729D01*
X123557721Y-150724545D01*
X123566658Y-150752974D01*
X123574257Y-150781976D01*
X123580506Y-150811509D01*
X123585391Y-150841532D01*
X123588897Y-150872005D01*
X123591011Y-150902886D01*
X123591719Y-150934135D01*
X123591221Y-150960248D01*
X123589746Y-150985735D01*
X123587320Y-151010596D01*
X123583971Y-151034832D01*
X123579726Y-151058444D01*
X123574613Y-151081432D01*
X123568657Y-151103796D01*
X123561887Y-151125537D01*
X123554329Y-151146655D01*
X123546011Y-151167151D01*
X123527202Y-151206277D01*
X123505677Y-151242920D01*
X123481653Y-151277083D01*
X123455346Y-151308770D01*
X123426975Y-151337984D01*
X123396755Y-151364729D01*
X123364905Y-151389009D01*
X123331641Y-151410827D01*
X123297179Y-151430187D01*
X123261738Y-151447093D01*
X123225534Y-151461548D01*
X123673563Y-152326553D01*
X123219541Y-152326553D01*
X122827959Y-151526802D01*
X122546087Y-151526802D01*
X122546087Y-152326553D01*
X122154505Y-152326553D01*
X122154505Y-150669197D01*
X122546091Y-150669197D01*
X122546091Y-151199432D01*
X122915094Y-151199432D01*
X122931058Y-151199112D01*
X122946665Y-151198158D01*
X122961906Y-151196584D01*
X122976769Y-151194400D01*
X122991246Y-151191618D01*
X123005326Y-151188251D01*
X123019001Y-151184311D01*
X123032259Y-151179809D01*
X123045092Y-151174756D01*
X123057489Y-151169166D01*
X123069440Y-151163050D01*
X123080937Y-151156420D01*
X123091968Y-151149287D01*
X123102524Y-151141664D01*
X123112596Y-151133562D01*
X123122173Y-151124994D01*
X123131245Y-151115971D01*
X123139804Y-151106505D01*
X123147838Y-151096608D01*
X123155339Y-151086292D01*
X123162296Y-151075569D01*
X123168700Y-151064450D01*
X123174540Y-151052948D01*
X123179807Y-151041075D01*
X123184492Y-151028841D01*
X123188583Y-151016260D01*
X123192072Y-151003343D01*
X123194949Y-150990102D01*
X123197204Y-150976549D01*
X123198826Y-150962695D01*
X123199807Y-150948554D01*
X123200136Y-150934135D01*
X123199807Y-150919750D01*
X123198826Y-150905640D01*
X123197204Y-150891815D01*
X123194949Y-150878289D01*
X123192072Y-150865073D01*
X123188583Y-150852180D01*
X123184492Y-150839620D01*
X123179807Y-150827407D01*
X123174540Y-150815551D01*
X123168700Y-150804066D01*
X123162296Y-150792962D01*
X123155339Y-150782253D01*
X123147838Y-150771949D01*
X123139804Y-150762063D01*
X123131245Y-150752607D01*
X123122173Y-150743593D01*
X123112596Y-150735033D01*
X123102524Y-150726938D01*
X123091968Y-150719320D01*
X123080937Y-150712193D01*
X123069440Y-150705566D01*
X123057489Y-150699454D01*
X123045092Y-150693866D01*
X123032259Y-150688816D01*
X123019001Y-150684316D01*
X123005326Y-150680376D01*
X122991246Y-150677010D01*
X122976769Y-150674229D01*
X122961906Y-150672046D01*
X122946665Y-150670471D01*
X122931058Y-150669517D01*
X122915094Y-150669197D01*
X122546091Y-150669197D01*
X122154505Y-150669197D01*
X122154505Y-150319603D01*
X122940492Y-150319603D01*
X122978334Y-150320415D01*
G37*
D11*
G36*
X123334368Y-57205001D02*
G01*
X123334368Y-54202767D01*
X122354710Y-54202767D01*
X122354710Y-53648825D01*
X124871388Y-53648825D01*
X124871388Y-54202767D01*
X123886601Y-54202767D01*
X123886601Y-57205001D01*
X123334368Y-57205001D01*
G37*
G36*
X126573398Y-53649756D02*
G01*
X126628332Y-53652551D01*
X126681777Y-53657210D01*
X126733732Y-53663731D01*
X126784198Y-53672116D01*
X126833175Y-53682364D01*
X126880663Y-53694476D01*
X126926661Y-53708450D01*
X126971170Y-53724289D01*
X127014190Y-53741990D01*
X127055720Y-53761555D01*
X127095761Y-53782983D01*
X127134313Y-53806274D01*
X127171375Y-53831429D01*
X127206948Y-53858447D01*
X127241032Y-53887328D01*
X127268676Y-53912758D01*
X127295509Y-53939360D01*
X127321530Y-53967134D01*
X127346740Y-53996081D01*
X127371138Y-54026199D01*
X127394725Y-54057490D01*
X127417500Y-54089952D01*
X127439464Y-54123587D01*
X127460617Y-54158394D01*
X127480958Y-54194373D01*
X127494068Y-54219010D01*
X127512706Y-54256601D01*
X127529511Y-54295004D01*
X127544482Y-54334219D01*
X127557621Y-54374245D01*
X127568926Y-54415082D01*
X127578398Y-54456731D01*
X127586036Y-54499192D01*
X127591841Y-54542463D01*
X127595813Y-54586547D01*
X127597952Y-54631441D01*
X127598360Y-54661822D01*
X127597632Y-54705216D01*
X127595448Y-54747988D01*
X127591808Y-54790140D01*
X127586712Y-54831670D01*
X127580161Y-54872579D01*
X127572153Y-54912867D01*
X127562690Y-54952534D01*
X127551770Y-54991580D01*
X127539395Y-55030005D01*
X127525564Y-55067809D01*
X127510277Y-55104991D01*
X127493534Y-55141553D01*
X127475335Y-55177493D01*
X127455680Y-55212813D01*
X127434569Y-55247511D01*
X127412002Y-55281588D01*
X127388390Y-55314693D01*
X127363930Y-55346477D01*
X127338622Y-55376937D01*
X127312466Y-55406076D01*
X127285461Y-55433892D01*
X127257608Y-55460385D01*
X127228907Y-55485557D01*
X127199358Y-55509406D01*
X127168961Y-55531932D01*
X127137716Y-55553137D01*
X127105622Y-55573018D01*
X127072680Y-55591578D01*
X127038890Y-55608815D01*
X127004252Y-55624730D01*
X126968766Y-55639323D01*
X126932431Y-55652593D01*
X127747958Y-57205001D01*
X127061514Y-57205001D01*
X126328053Y-55727820D01*
X125683496Y-55727820D01*
X125683496Y-57205001D01*
X125131263Y-57205001D01*
X125131263Y-54202767D01*
X125683496Y-54202767D01*
X125683496Y-55173877D01*
X126469958Y-55173877D01*
X126505608Y-55173283D01*
X126540109Y-55171499D01*
X126589707Y-55166596D01*
X126636720Y-55159017D01*
X126681149Y-55148764D01*
X126722993Y-55135836D01*
X126762253Y-55120233D01*
X126798928Y-55101956D01*
X126833018Y-55081004D01*
X126864524Y-55057377D01*
X126893446Y-55031075D01*
X126902512Y-55021714D01*
X126928177Y-54992725D01*
X126951318Y-54962819D01*
X126971935Y-54931997D01*
X126990027Y-54900258D01*
X127005595Y-54867603D01*
X127018638Y-54834031D01*
X127029156Y-54799542D01*
X127037151Y-54764137D01*
X127042620Y-54727815D01*
X127045566Y-54690576D01*
X127046127Y-54665241D01*
X127044646Y-54620795D01*
X127040206Y-54578497D01*
X127032805Y-54538349D01*
X127022444Y-54500349D01*
X127009123Y-54464498D01*
X126992842Y-54430795D01*
X126973600Y-54399242D01*
X126951398Y-54369837D01*
X126926236Y-54342581D01*
X126898114Y-54317474D01*
X126877721Y-54301930D01*
X126840428Y-54278689D01*
X126800357Y-54258546D01*
X126768481Y-54245473D01*
X126735041Y-54234143D01*
X126700039Y-54224556D01*
X126663474Y-54216712D01*
X126625347Y-54210611D01*
X126585656Y-54206254D01*
X126544403Y-54203639D01*
X126501587Y-54202767D01*
X125683496Y-54202767D01*
X125131263Y-54202767D01*
X125131263Y-53648825D01*
X126516974Y-53648825D01*
X126573398Y-53649756D01*
G37*
G36*
X128119818Y-57205001D02*
G01*
X128119818Y-53648825D01*
X128672051Y-53648825D01*
X128672051Y-57205001D01*
X128119818Y-57205001D01*
G37*
G36*
X130510833Y-55782530D02*
G01*
X130510833Y-55228587D01*
X131793963Y-55228587D01*
X131793963Y-55968033D01*
X131792531Y-56033649D01*
X131788233Y-56097997D01*
X131781070Y-56161075D01*
X131771043Y-56222885D01*
X131758150Y-56283425D01*
X131742392Y-56342697D01*
X131723769Y-56400700D01*
X131702281Y-56457434D01*
X131677927Y-56512899D01*
X131650709Y-56567095D01*
X131620626Y-56620023D01*
X131587677Y-56671681D01*
X131551864Y-56722070D01*
X131513185Y-56771191D01*
X131471641Y-56819042D01*
X131427233Y-56865625D01*
X131380864Y-56910034D01*
X131333226Y-56951578D01*
X131284319Y-56990256D01*
X131234143Y-57026070D01*
X131182699Y-57059018D01*
X131129985Y-57089102D01*
X131076003Y-57116320D01*
X131020751Y-57140673D01*
X130964231Y-57162161D01*
X130906442Y-57180784D01*
X130847384Y-57196542D01*
X130787057Y-57209435D01*
X130725461Y-57219463D01*
X130662596Y-57226626D01*
X130598462Y-57230923D01*
X130533060Y-57232356D01*
X130481541Y-57231571D01*
X130431065Y-57229217D01*
X130381631Y-57225293D01*
X130333238Y-57219800D01*
X130285888Y-57212738D01*
X130239579Y-57204106D01*
X130194312Y-57193904D01*
X130150087Y-57182133D01*
X130106903Y-57168793D01*
X130064762Y-57153883D01*
X130023662Y-57137404D01*
X129983605Y-57119355D01*
X129944589Y-57099737D01*
X129906615Y-57078549D01*
X129869683Y-57055792D01*
X129833792Y-57031466D01*
X129799047Y-57006221D01*
X129765551Y-56980709D01*
X129733304Y-56954930D01*
X129702306Y-56928884D01*
X129672556Y-56902571D01*
X129644056Y-56875990D01*
X129616804Y-56849142D01*
X129590801Y-56822028D01*
X129566047Y-56794646D01*
X129542542Y-56766997D01*
X129520286Y-56739081D01*
X129499279Y-56710897D01*
X129479520Y-56682447D01*
X129452224Y-56639270D01*
X129427739Y-56595492D01*
X129406381Y-56555942D01*
X129386759Y-56515511D01*
X129368874Y-56474197D01*
X129352725Y-56432002D01*
X129338313Y-56388926D01*
X129328644Y-56356040D01*
X129319951Y-56322658D01*
X129312234Y-56288781D01*
X129305495Y-56254407D01*
X129299537Y-56215871D01*
X129294165Y-56169507D01*
X129290909Y-56134247D01*
X129287914Y-56095509D01*
X129285179Y-56053291D01*
X129282705Y-56007593D01*
X129280491Y-55958416D01*
X129278537Y-55905759D01*
X129276844Y-55849623D01*
X129275412Y-55790007D01*
X129274240Y-55726911D01*
X129273328Y-55660337D01*
X129272970Y-55625744D01*
X129272677Y-55590282D01*
X129272449Y-55553950D01*
X129272286Y-55516749D01*
X129272188Y-55478677D01*
X129272156Y-55439735D01*
X129272188Y-55400846D01*
X129272286Y-55362826D01*
X129272449Y-55325673D01*
X129272677Y-55289389D01*
X129272970Y-55253972D01*
X129273328Y-55219424D01*
X129274240Y-55152933D01*
X129275412Y-55089915D01*
X129276844Y-55030369D01*
X129278537Y-54974296D01*
X129280491Y-54921696D01*
X129282705Y-54872569D01*
X129285179Y-54826915D01*
X129287914Y-54784733D01*
X129290909Y-54746025D01*
X129294165Y-54710789D01*
X129299537Y-54664447D01*
X129305495Y-54625918D01*
X129312234Y-54591392D01*
X129319951Y-54557377D01*
X129328644Y-54523872D01*
X129338313Y-54490879D01*
X129352725Y-54447682D01*
X129368874Y-54405394D01*
X129386759Y-54364013D01*
X129406381Y-54323542D01*
X129427739Y-54283978D01*
X129452224Y-54240629D01*
X129479520Y-54197775D01*
X129499279Y-54169482D01*
X129520286Y-54141409D01*
X129542542Y-54113556D01*
X129566047Y-54085923D01*
X129590801Y-54058511D01*
X129616804Y-54031320D01*
X129644056Y-54004349D01*
X129672556Y-53977598D01*
X129702306Y-53951068D01*
X129733304Y-53924758D01*
X129765551Y-53898668D01*
X129799047Y-53872799D01*
X129833792Y-53847150D01*
X129869683Y-53822306D01*
X129906615Y-53799065D01*
X129944589Y-53777426D01*
X129983605Y-53757391D01*
X130023662Y-53738958D01*
X130064762Y-53722128D01*
X130106903Y-53706901D01*
X130150087Y-53693277D01*
X130194312Y-53681256D01*
X130239579Y-53670837D01*
X130285888Y-53662021D01*
X130333238Y-53654809D01*
X130381631Y-53649199D01*
X130431065Y-53645192D01*
X130481541Y-53642787D01*
X130533060Y-53641986D01*
X130595210Y-53643178D01*
X130655998Y-53646754D01*
X130715423Y-53652715D01*
X130773486Y-53661060D01*
X130830187Y-53671789D01*
X130885525Y-53684902D01*
X130939501Y-53700399D01*
X130992114Y-53718281D01*
X131043365Y-53738547D01*
X131093253Y-53761197D01*
X131141779Y-53786232D01*
X131188943Y-53813650D01*
X131234744Y-53843453D01*
X131279183Y-53875640D01*
X131322260Y-53910212D01*
X131363974Y-53947167D01*
X131404175Y-53985903D01*
X131442500Y-54025813D01*
X131478948Y-54066900D01*
X131513519Y-54109161D01*
X131546214Y-54152598D01*
X131577032Y-54197211D01*
X131605973Y-54242999D01*
X131633038Y-54289962D01*
X131658226Y-54338101D01*
X131681537Y-54387415D01*
X131702972Y-54437905D01*
X131722530Y-54489570D01*
X131740211Y-54542410D01*
X131756016Y-54596426D01*
X131769944Y-54651617D01*
X131781995Y-54707984D01*
X131199842Y-54707984D01*
X131185630Y-54668033D01*
X131169599Y-54629284D01*
X131151750Y-54591738D01*
X131132082Y-54555393D01*
X131110597Y-54520251D01*
X131087293Y-54486310D01*
X131062171Y-54453572D01*
X131035230Y-54422036D01*
X131006472Y-54391703D01*
X130975895Y-54362571D01*
X130954501Y-54343818D01*
X130921309Y-54317388D01*
X130886810Y-54293558D01*
X130851004Y-54272328D01*
X130813891Y-54253698D01*
X130775470Y-54237667D01*
X130735742Y-54224236D01*
X130694707Y-54213404D01*
X130652365Y-54205172D01*
X130608715Y-54199539D01*
X130563757Y-54196506D01*
X130533060Y-54195929D01*
X130487672Y-54197104D01*
X130443835Y-54200630D01*
X130401546Y-54206507D01*
X130360807Y-54214735D01*
X130321618Y-54225314D01*
X130283978Y-54238244D01*
X130247887Y-54253524D01*
X130213346Y-54271155D01*
X130180661Y-54290323D01*
X130149713Y-54310211D01*
X130120501Y-54330821D01*
X130093025Y-54352152D01*
X130061123Y-54379831D01*
X130031934Y-54408636D01*
X130005458Y-54438568D01*
X130000488Y-54444690D01*
X129976058Y-54478029D01*
X129953632Y-54512223D01*
X129933209Y-54547272D01*
X129914789Y-54583176D01*
X129898373Y-54619934D01*
X129883961Y-54657548D01*
X129871553Y-54696016D01*
X129861147Y-54735339D01*
X129852532Y-54781100D01*
X129846825Y-54823310D01*
X129841763Y-54872282D01*
X129838748Y-54908686D01*
X129836020Y-54948096D01*
X129833579Y-54990512D01*
X129831425Y-55035932D01*
X129829558Y-55084358D01*
X129827979Y-55135789D01*
X129826686Y-55190226D01*
X129825681Y-55247668D01*
X129824963Y-55308115D01*
X129824532Y-55371568D01*
X129824389Y-55438026D01*
X129824532Y-55504587D01*
X129824963Y-55568136D01*
X129825681Y-55628674D01*
X129826686Y-55686199D01*
X129827979Y-55740713D01*
X129829558Y-55792214D01*
X129831425Y-55840703D01*
X129833579Y-55886181D01*
X129836020Y-55928646D01*
X129838748Y-55968099D01*
X129841763Y-56004541D01*
X129846825Y-56053555D01*
X129852532Y-56095793D01*
X129858886Y-56131253D01*
X129861147Y-56141567D01*
X129871553Y-56180823D01*
X129883961Y-56219091D01*
X129898373Y-56256371D01*
X129914789Y-56292662D01*
X129933209Y-56327965D01*
X129953632Y-56362279D01*
X129976058Y-56395605D01*
X130000488Y-56427942D01*
X130026421Y-56459310D01*
X130055068Y-56489301D01*
X130086428Y-56517914D01*
X130113469Y-56539813D01*
X130142247Y-56560830D01*
X130172761Y-56580966D01*
X130205012Y-56600220D01*
X130213346Y-56604896D01*
X130247887Y-56622126D01*
X130283978Y-56637060D01*
X130321618Y-56649695D01*
X130360807Y-56660034D01*
X130401546Y-56668075D01*
X130443835Y-56673818D01*
X130487672Y-56677264D01*
X130533060Y-56678413D01*
X130570089Y-56677615D01*
X130606376Y-56675221D01*
X130641923Y-56671230D01*
X130676728Y-56665644D01*
X130710792Y-56658461D01*
X130744114Y-56649682D01*
X130792708Y-56633521D01*
X130839633Y-56613768D01*
X130884891Y-56590424D01*
X130928481Y-56563489D01*
X130956614Y-56543537D01*
X130984006Y-56521989D01*
X131010657Y-56498844D01*
X131036566Y-56474104D01*
X131061410Y-56448074D01*
X131084651Y-56421063D01*
X131106290Y-56393070D01*
X131126325Y-56364095D01*
X131144758Y-56334139D01*
X131161588Y-56303201D01*
X131176815Y-56271281D01*
X131190439Y-56238379D01*
X131202460Y-56204495D01*
X131212879Y-56169630D01*
X131221695Y-56133783D01*
X131228907Y-56096955D01*
X131234517Y-56059144D01*
X131238524Y-56020352D01*
X131240929Y-55980578D01*
X131241730Y-55939823D01*
X131241730Y-55782530D01*
X130510833Y-55782530D01*
G37*
G36*
X132052128Y-56739962D02*
G01*
X132438520Y-56311682D01*
X132465601Y-56333277D01*
X132492990Y-56354251D01*
X132520686Y-56374604D01*
X132548689Y-56394336D01*
X132591269Y-56422769D01*
X132634541Y-56449804D01*
X132678504Y-56475442D01*
X132723158Y-56499682D01*
X132768504Y-56522526D01*
X132814541Y-56543971D01*
X132861268Y-56564019D01*
X132908688Y-56582670D01*
X132956663Y-56599780D01*
X133005059Y-56615207D01*
X133053875Y-56628952D01*
X133103113Y-56641013D01*
X133152771Y-56651392D01*
X133202849Y-56660087D01*
X133253349Y-56667100D01*
X133304269Y-56672429D01*
X133338450Y-56675047D01*
X133372818Y-56676917D01*
X133407372Y-56678039D01*
X133442114Y-56678413D01*
X133481417Y-56677915D01*
X133519611Y-56676423D01*
X133556697Y-56673935D01*
X133592674Y-56670452D01*
X133627543Y-56665974D01*
X133661303Y-56660501D01*
X133709864Y-56650426D01*
X133755931Y-56638111D01*
X133799503Y-56623558D01*
X133840581Y-56606766D01*
X133879164Y-56587735D01*
X133915253Y-56566464D01*
X133937927Y-56551040D01*
X133969703Y-56526314D01*
X133998354Y-56500220D01*
X134023879Y-56472759D01*
X134046279Y-56443930D01*
X134065553Y-56413734D01*
X134081702Y-56382171D01*
X134094725Y-56349240D01*
X134104623Y-56314941D01*
X134111395Y-56279276D01*
X134115041Y-56242242D01*
X134115736Y-56216794D01*
X134114039Y-56169470D01*
X134108950Y-56124737D01*
X134100469Y-56082596D01*
X134088594Y-56043046D01*
X134073327Y-56006087D01*
X134054667Y-55971719D01*
X134032615Y-55939943D01*
X134007170Y-55910758D01*
X133978332Y-55884164D01*
X133946101Y-55860161D01*
X133910478Y-55838750D01*
X133871462Y-55819930D01*
X133829054Y-55803701D01*
X133783253Y-55790064D01*
X133734059Y-55779017D01*
X133681472Y-55770562D01*
X133644223Y-55766267D01*
X133607808Y-55761930D01*
X133572228Y-55757552D01*
X133537483Y-55753131D01*
X133503573Y-55748669D01*
X133463983Y-55743260D01*
X133457501Y-55742352D01*
X133417540Y-55736752D01*
X133382449Y-55731856D01*
X133345730Y-55726751D01*
X133307382Y-55721438D01*
X133267407Y-55715915D01*
X133225804Y-55710184D01*
X133217288Y-55709013D01*
X133159913Y-55700061D01*
X133104261Y-55689445D01*
X133050332Y-55677167D01*
X132998126Y-55663225D01*
X132947643Y-55647621D01*
X132898884Y-55630354D01*
X132851847Y-55611423D01*
X132806533Y-55590830D01*
X132762942Y-55568574D01*
X132721075Y-55544655D01*
X132680930Y-55519073D01*
X132642509Y-55491828D01*
X132605810Y-55462920D01*
X132570835Y-55432349D01*
X132537583Y-55400115D01*
X132506053Y-55366218D01*
X132476344Y-55330936D01*
X132448551Y-55294758D01*
X132422675Y-55257686D01*
X132398716Y-55219718D01*
X132376674Y-55180856D01*
X132356548Y-55141099D01*
X132338339Y-55100447D01*
X132322047Y-55058900D01*
X132307671Y-55016458D01*
X132295213Y-54973121D01*
X132284670Y-54928889D01*
X132276045Y-54883762D01*
X132269337Y-54837741D01*
X132264545Y-54790824D01*
X132261670Y-54743013D01*
X132260711Y-54694306D01*
X132261900Y-54637662D01*
X132265466Y-54582281D01*
X132271410Y-54528161D01*
X132279732Y-54475304D01*
X132290431Y-54423709D01*
X132303507Y-54373377D01*
X132318961Y-54324306D01*
X132336793Y-54276498D01*
X132357002Y-54229952D01*
X132379589Y-54184669D01*
X132404553Y-54140647D01*
X132431895Y-54097888D01*
X132461614Y-54056391D01*
X132493711Y-54016156D01*
X132528186Y-53977184D01*
X132565038Y-53939474D01*
X132604034Y-53903450D01*
X132644940Y-53869750D01*
X132687756Y-53838374D01*
X132732482Y-53809323D01*
X132779118Y-53782595D01*
X132827664Y-53758192D01*
X132878120Y-53736113D01*
X132930486Y-53716358D01*
X132984763Y-53698927D01*
X133040949Y-53683820D01*
X133099045Y-53671037D01*
X133159052Y-53660579D01*
X133220968Y-53652444D01*
X133284795Y-53646634D01*
X133350531Y-53643148D01*
X133418178Y-53641986D01*
X133458737Y-53642370D01*
X133498988Y-53643522D01*
X133538932Y-53645442D01*
X133578569Y-53648130D01*
X133617899Y-53651586D01*
X133656922Y-53655810D01*
X133695637Y-53660803D01*
X133734045Y-53666563D01*
X133772146Y-53673091D01*
X133809940Y-53680387D01*
X133847426Y-53688452D01*
X133884606Y-53697284D01*
X133921478Y-53706884D01*
X133958043Y-53717253D01*
X133994300Y-53728389D01*
X134030251Y-53740294D01*
X134066068Y-53752839D01*
X134101711Y-53765899D01*
X134137180Y-53779473D01*
X134172476Y-53793561D01*
X134207599Y-53808164D01*
X134242547Y-53823281D01*
X134277322Y-53838912D01*
X134311924Y-53855057D01*
X134346352Y-53871717D01*
X134380606Y-53888891D01*
X134414686Y-53906579D01*
X134448593Y-53924781D01*
X134482326Y-53943497D01*
X134515886Y-53962728D01*
X134549272Y-53982473D01*
X134582484Y-54002733D01*
X134275593Y-54479739D01*
X134234843Y-54454947D01*
X134194018Y-54431223D01*
X134153118Y-54408565D01*
X134112143Y-54386974D01*
X134071092Y-54366450D01*
X134029967Y-54346993D01*
X133988766Y-54328603D01*
X133947491Y-54311280D01*
X133906140Y-54295024D01*
X133864714Y-54279834D01*
X133837055Y-54270301D01*
X133795451Y-54257009D01*
X133753667Y-54245026D01*
X133711702Y-54234349D01*
X133669557Y-54224980D01*
X133627232Y-54216918D01*
X133584727Y-54210164D01*
X133542041Y-54204717D01*
X133499175Y-54200577D01*
X133456129Y-54197744D01*
X133412902Y-54196219D01*
X133383984Y-54195929D01*
X133339453Y-54196973D01*
X133296259Y-54200106D01*
X133254402Y-54205328D01*
X133213882Y-54212638D01*
X133174700Y-54222037D01*
X133136856Y-54233525D01*
X133100348Y-54247102D01*
X133065179Y-54262767D01*
X133031346Y-54280521D01*
X132998851Y-54300364D01*
X132977930Y-54314753D01*
X132948446Y-54337924D01*
X132921861Y-54363199D01*
X132898176Y-54390577D01*
X132877392Y-54420060D01*
X132859508Y-54451646D01*
X132844524Y-54485335D01*
X132832440Y-54521129D01*
X132823256Y-54559026D01*
X132816972Y-54599027D01*
X132813589Y-54641132D01*
X132812944Y-54670370D01*
X132814641Y-54704751D01*
X132819730Y-54738651D01*
X132828211Y-54772071D01*
X132840086Y-54805009D01*
X132855353Y-54837467D01*
X132874013Y-54869444D01*
X132896065Y-54900939D01*
X132921510Y-54931954D01*
X132951190Y-54961220D01*
X132985517Y-54987894D01*
X133024493Y-55011976D01*
X133056775Y-55028338D01*
X133091672Y-55043242D01*
X133129184Y-55056688D01*
X133169310Y-55068677D01*
X133212051Y-55079208D01*
X133257406Y-55088282D01*
X133289096Y-55093521D01*
X133325854Y-55099612D01*
X133360823Y-55105117D01*
X133398410Y-55110785D01*
X133432711Y-55115774D01*
X133456646Y-55119167D01*
X133494564Y-55124035D01*
X133534585Y-55129024D01*
X133569543Y-55133273D01*
X133605961Y-55137606D01*
X133643841Y-55142022D01*
X133683182Y-55146522D01*
X133744991Y-55155267D01*
X133804757Y-55165903D01*
X133862480Y-55178428D01*
X133918159Y-55192844D01*
X133971794Y-55209150D01*
X134023385Y-55227345D01*
X134072933Y-55247431D01*
X134120437Y-55269406D01*
X134165898Y-55293272D01*
X134209315Y-55319028D01*
X134250688Y-55346674D01*
X134290018Y-55376209D01*
X134327304Y-55407635D01*
X134362547Y-55440951D01*
X134395746Y-55476157D01*
X134426901Y-55513252D01*
X134456093Y-55551544D01*
X134483401Y-55590336D01*
X134508826Y-55629629D01*
X134532368Y-55669423D01*
X134554027Y-55709718D01*
X134573802Y-55750513D01*
X134591693Y-55791810D01*
X134607702Y-55833607D01*
X134621827Y-55875906D01*
X134634069Y-55918705D01*
X134644427Y-55962005D01*
X134652902Y-56005806D01*
X134659494Y-56050108D01*
X134664202Y-56094911D01*
X134667027Y-56140215D01*
X134667969Y-56186019D01*
X134666640Y-56247238D01*
X134662653Y-56306727D01*
X134656008Y-56364486D01*
X134646704Y-56420515D01*
X134634743Y-56474815D01*
X134620124Y-56527385D01*
X134602847Y-56578225D01*
X134582911Y-56627336D01*
X134560318Y-56674716D01*
X134535066Y-56720367D01*
X134507157Y-56764289D01*
X134476589Y-56806480D01*
X134443364Y-56846942D01*
X134407480Y-56885674D01*
X134368938Y-56922676D01*
X134327739Y-56957949D01*
X134284325Y-56991178D01*
X134239141Y-57022263D01*
X134192188Y-57051204D01*
X134143465Y-57078002D01*
X134092972Y-57102656D01*
X134040709Y-57125166D01*
X133986677Y-57145532D01*
X133930874Y-57163754D01*
X133873302Y-57179833D01*
X133813960Y-57193767D01*
X133752849Y-57205558D01*
X133689967Y-57215205D01*
X133625316Y-57222709D01*
X133558894Y-57228068D01*
X133490703Y-57231284D01*
X133455944Y-57232088D01*
X133420743Y-57232356D01*
X133371323Y-57231875D01*
X133322331Y-57230432D01*
X133273769Y-57228028D01*
X133225637Y-57224662D01*
X133177933Y-57220334D01*
X133130658Y-57215045D01*
X133083812Y-57208794D01*
X133037396Y-57201581D01*
X132991408Y-57193407D01*
X132945850Y-57184270D01*
X132900721Y-57174172D01*
X132856021Y-57163113D01*
X132811750Y-57151092D01*
X132767908Y-57138108D01*
X132724495Y-57124164D01*
X132681511Y-57109257D01*
X132638957Y-57093389D01*
X132596831Y-57076559D01*
X132555134Y-57058768D01*
X132513867Y-57040014D01*
X132473029Y-57020299D01*
X132432620Y-56999623D01*
X132392640Y-56977984D01*
X132353089Y-56955384D01*
X132313967Y-56931823D01*
X132275274Y-56907299D01*
X132237010Y-56881814D01*
X132199175Y-56855367D01*
X132161770Y-56827958D01*
X132124793Y-56799588D01*
X132088246Y-56770256D01*
X132052128Y-56739962D01*
G37*
G36*
X137005129Y-57205001D02*
G01*
X137005129Y-54202767D01*
X136025471Y-54202767D01*
X136025471Y-53648825D01*
X138542149Y-53648825D01*
X138542149Y-54202767D01*
X137557362Y-54202767D01*
X137557362Y-57205001D01*
X137005129Y-57205001D01*
G37*
G36*
X140004817Y-53642787D02*
G01*
X140055100Y-53645192D01*
X140104354Y-53649199D01*
X140152579Y-53654809D01*
X140199776Y-53662021D01*
X140245945Y-53670837D01*
X140291085Y-53681256D01*
X140335197Y-53693277D01*
X140378280Y-53706901D01*
X140420334Y-53722128D01*
X140461360Y-53738958D01*
X140501358Y-53757391D01*
X140540327Y-53777426D01*
X140578268Y-53799065D01*
X140615180Y-53822306D01*
X140651064Y-53847150D01*
X140685825Y-53872799D01*
X140719372Y-53898668D01*
X140751702Y-53924758D01*
X140782817Y-53951068D01*
X140812717Y-53977598D01*
X140841401Y-54004349D01*
X140868870Y-54031320D01*
X140895123Y-54058511D01*
X140920161Y-54085923D01*
X140943983Y-54113556D01*
X140966590Y-54141409D01*
X140987981Y-54169482D01*
X141008157Y-54197775D01*
X141027118Y-54226289D01*
X141053279Y-54269473D01*
X141061392Y-54283978D01*
X141082149Y-54323542D01*
X141101249Y-54364013D01*
X141118693Y-54405394D01*
X141134481Y-54447682D01*
X141148613Y-54490879D01*
X141158125Y-54523872D01*
X141166705Y-54557377D01*
X141174354Y-54591392D01*
X141181071Y-54625918D01*
X141187029Y-54664447D01*
X141192401Y-54710789D01*
X141195657Y-54746025D01*
X141198652Y-54784733D01*
X141201387Y-54826915D01*
X141203861Y-54872569D01*
X141206075Y-54921696D01*
X141208029Y-54974296D01*
X141209722Y-55030369D01*
X141211154Y-55089915D01*
X141212326Y-55152933D01*
X141213238Y-55219424D01*
X141213596Y-55253972D01*
X141213889Y-55289389D01*
X141214117Y-55325673D01*
X141214280Y-55362826D01*
X141214377Y-55400846D01*
X141214410Y-55439735D01*
X141214377Y-55478677D01*
X141214280Y-55516749D01*
X141214117Y-55553950D01*
X141213889Y-55590282D01*
X141213596Y-55625744D01*
X141213238Y-55660337D01*
X141212326Y-55726911D01*
X141211154Y-55790007D01*
X141209722Y-55849623D01*
X141208029Y-55905759D01*
X141206075Y-55958416D01*
X141203861Y-56007593D01*
X141201387Y-56053291D01*
X141198652Y-56095509D01*
X141195657Y-56134247D01*
X141192401Y-56169507D01*
X141187029Y-56215871D01*
X141181071Y-56254407D01*
X141174354Y-56288781D01*
X141166705Y-56322658D01*
X141158125Y-56356040D01*
X141148613Y-56388926D01*
X141134481Y-56432002D01*
X141118693Y-56474197D01*
X141101249Y-56515511D01*
X141082149Y-56555942D01*
X141061392Y-56595492D01*
X141036142Y-56639270D01*
X141008157Y-56682447D01*
X140987981Y-56710897D01*
X140966590Y-56739081D01*
X140943983Y-56766997D01*
X140920161Y-56794646D01*
X140895123Y-56822028D01*
X140868870Y-56849142D01*
X140841401Y-56875990D01*
X140812717Y-56902571D01*
X140782817Y-56928884D01*
X140751702Y-56954930D01*
X140719372Y-56980709D01*
X140685825Y-57006221D01*
X140651064Y-57031466D01*
X140615180Y-57055792D01*
X140578268Y-57078549D01*
X140540327Y-57099737D01*
X140501358Y-57119355D01*
X140461360Y-57137404D01*
X140420334Y-57153883D01*
X140378280Y-57168793D01*
X140335197Y-57182133D01*
X140291085Y-57193904D01*
X140245945Y-57204106D01*
X140199776Y-57212738D01*
X140152579Y-57219800D01*
X140104354Y-57225293D01*
X140055100Y-57229217D01*
X140004817Y-57231571D01*
X139953506Y-57232356D01*
X139901988Y-57231571D01*
X139851512Y-57229217D01*
X139802077Y-57225293D01*
X139753685Y-57219800D01*
X139706334Y-57212738D01*
X139660025Y-57204106D01*
X139614758Y-57193904D01*
X139570533Y-57182133D01*
X139527350Y-57168793D01*
X139485209Y-57153883D01*
X139444109Y-57137404D01*
X139404051Y-57119355D01*
X139365035Y-57099737D01*
X139327061Y-57078549D01*
X139290129Y-57055792D01*
X139254239Y-57031466D01*
X139219494Y-57006221D01*
X139185998Y-56980709D01*
X139153751Y-56954930D01*
X139122752Y-56928884D01*
X139093003Y-56902571D01*
X139064502Y-56875990D01*
X139037251Y-56849142D01*
X139011248Y-56822028D01*
X138986494Y-56794646D01*
X138962989Y-56766997D01*
X138940733Y-56739081D01*
X138919725Y-56710897D01*
X138899967Y-56682447D01*
X138872671Y-56639270D01*
X138848185Y-56595492D01*
X138826827Y-56555942D01*
X138807206Y-56515511D01*
X138789321Y-56474197D01*
X138773172Y-56432002D01*
X138758760Y-56388926D01*
X138749090Y-56356040D01*
X138740397Y-56322658D01*
X138732681Y-56288781D01*
X138725942Y-56254407D01*
X138719984Y-56215871D01*
X138714611Y-56169507D01*
X138711356Y-56134247D01*
X138708360Y-56095509D01*
X138705626Y-56053291D01*
X138703151Y-56007593D01*
X138700937Y-55958416D01*
X138698984Y-55905759D01*
X138697291Y-55849623D01*
X138695858Y-55790007D01*
X138694686Y-55726911D01*
X138693775Y-55660337D01*
X138693416Y-55625744D01*
X138693123Y-55590282D01*
X138692895Y-55553950D01*
X138692733Y-55516749D01*
X138692635Y-55478677D01*
X138692602Y-55439735D01*
X138692603Y-55438026D01*
X139244836Y-55438026D01*
X139244979Y-55504587D01*
X139245410Y-55568136D01*
X139246128Y-55628674D01*
X139247133Y-55686199D01*
X139248425Y-55740713D01*
X139250005Y-55792214D01*
X139251871Y-55840703D01*
X139254025Y-55886181D01*
X139256466Y-55928646D01*
X139259194Y-55968099D01*
X139262210Y-56004541D01*
X139267271Y-56053555D01*
X139272979Y-56095793D01*
X139279333Y-56131253D01*
X139281594Y-56141567D01*
X139291999Y-56180823D01*
X139304408Y-56219091D01*
X139318820Y-56256371D01*
X139335236Y-56292662D01*
X139353655Y-56327965D01*
X139374078Y-56362279D01*
X139396505Y-56395605D01*
X139420935Y-56427942D01*
X139446868Y-56459310D01*
X139475515Y-56489301D01*
X139506875Y-56517914D01*
X139533916Y-56539813D01*
X139562694Y-56560830D01*
X139593208Y-56580966D01*
X139625458Y-56600220D01*
X139633792Y-56604896D01*
X139668334Y-56622126D01*
X139704424Y-56637060D01*
X139742064Y-56649695D01*
X139781254Y-56660034D01*
X139821993Y-56668075D01*
X139864281Y-56673818D01*
X139908119Y-56677264D01*
X139953506Y-56678413D01*
X139998880Y-56677264D01*
X140042678Y-56673818D01*
X140084899Y-56668075D01*
X140125545Y-56660034D01*
X140164614Y-56649695D01*
X140202107Y-56637060D01*
X140238024Y-56622126D01*
X140272365Y-56604896D01*
X140305250Y-56585862D01*
X140336372Y-56565947D01*
X140365731Y-56545150D01*
X140393326Y-56523471D01*
X140419159Y-56500911D01*
X140448970Y-56471472D01*
X140476026Y-56440654D01*
X140486078Y-56427942D01*
X140510494Y-56395605D01*
X140532881Y-56362279D01*
X140553237Y-56327965D01*
X140571563Y-56292662D01*
X140587858Y-56256371D01*
X140602124Y-56219091D01*
X140614359Y-56180823D01*
X140624563Y-56141567D01*
X140633379Y-56095793D01*
X140639219Y-56053555D01*
X140644399Y-56004541D01*
X140647484Y-55968099D01*
X140650276Y-55928646D01*
X140652773Y-55886181D01*
X140654977Y-55840703D01*
X140656887Y-55792214D01*
X140658504Y-55740713D01*
X140659826Y-55686199D01*
X140660854Y-55628674D01*
X140661589Y-55568136D01*
X140662030Y-55504587D01*
X140662177Y-55438026D01*
X140662030Y-55371568D01*
X140661589Y-55308115D01*
X140660854Y-55247668D01*
X140659826Y-55190226D01*
X140658504Y-55135789D01*
X140656887Y-55084358D01*
X140654977Y-55035932D01*
X140652773Y-54990512D01*
X140650276Y-54948096D01*
X140647484Y-54908686D01*
X140644399Y-54872282D01*
X140639219Y-54823310D01*
X140633379Y-54781100D01*
X140626877Y-54745652D01*
X140624563Y-54735339D01*
X140614359Y-54696016D01*
X140602124Y-54657548D01*
X140587858Y-54619934D01*
X140571563Y-54583176D01*
X140553237Y-54547272D01*
X140532881Y-54512223D01*
X140510494Y-54478029D01*
X140486078Y-54444690D01*
X140460123Y-54414532D01*
X140431414Y-54385502D01*
X140399950Y-54357598D01*
X140372795Y-54336086D01*
X140343877Y-54315296D01*
X140313196Y-54295227D01*
X140280752Y-54275880D01*
X140272365Y-54271155D01*
X140238024Y-54253524D01*
X140202107Y-54238244D01*
X140164614Y-54225314D01*
X140125545Y-54214735D01*
X140084899Y-54206507D01*
X140042678Y-54200630D01*
X139998880Y-54197104D01*
X139953506Y-54195929D01*
X139908119Y-54197104D01*
X139864281Y-54200630D01*
X139821993Y-54206507D01*
X139781254Y-54214735D01*
X139742064Y-54225314D01*
X139704424Y-54238244D01*
X139668334Y-54253524D01*
X139633792Y-54271155D01*
X139601108Y-54290323D01*
X139570159Y-54310211D01*
X139540948Y-54330821D01*
X139513472Y-54352152D01*
X139481570Y-54379831D01*
X139452380Y-54408636D01*
X139425904Y-54438568D01*
X139420935Y-54444690D01*
X139396505Y-54478029D01*
X139374078Y-54512223D01*
X139353655Y-54547272D01*
X139335236Y-54583176D01*
X139318820Y-54619934D01*
X139304408Y-54657548D01*
X139291999Y-54696016D01*
X139281594Y-54735339D01*
X139272979Y-54781100D01*
X139267271Y-54823310D01*
X139262210Y-54872282D01*
X139259194Y-54908686D01*
X139256466Y-54948096D01*
X139254025Y-54990512D01*
X139251871Y-55035932D01*
X139250005Y-55084358D01*
X139248425Y-55135789D01*
X139247133Y-55190226D01*
X139246128Y-55247668D01*
X139245410Y-55308115D01*
X139244979Y-55371568D01*
X139244836Y-55438026D01*
X138692603Y-55438026D01*
X138692635Y-55400846D01*
X138692733Y-55362826D01*
X138692895Y-55325673D01*
X138693123Y-55289389D01*
X138693416Y-55253972D01*
X138693775Y-55219424D01*
X138694686Y-55152933D01*
X138695858Y-55089915D01*
X138697291Y-55030369D01*
X138698984Y-54974296D01*
X138700937Y-54921696D01*
X138703151Y-54872569D01*
X138705626Y-54826915D01*
X138708360Y-54784733D01*
X138711356Y-54746025D01*
X138714611Y-54710789D01*
X138719984Y-54664447D01*
X138725942Y-54625918D01*
X138732681Y-54591392D01*
X138740397Y-54557377D01*
X138749090Y-54523872D01*
X138758760Y-54490879D01*
X138773172Y-54447682D01*
X138789321Y-54405394D01*
X138807206Y-54364013D01*
X138826827Y-54323542D01*
X138848185Y-54283978D01*
X138872671Y-54240629D01*
X138899967Y-54197775D01*
X138919725Y-54169482D01*
X138940733Y-54141409D01*
X138962989Y-54113556D01*
X138986494Y-54085923D01*
X139011248Y-54058511D01*
X139037251Y-54031320D01*
X139064502Y-54004349D01*
X139093003Y-53977598D01*
X139122752Y-53951068D01*
X139153751Y-53924758D01*
X139185998Y-53898668D01*
X139219494Y-53872799D01*
X139254239Y-53847150D01*
X139290129Y-53822306D01*
X139327061Y-53799065D01*
X139365035Y-53777426D01*
X139404051Y-53757391D01*
X139444109Y-53738958D01*
X139485209Y-53722128D01*
X139527350Y-53706901D01*
X139570533Y-53693277D01*
X139614758Y-53681256D01*
X139660025Y-53670837D01*
X139706334Y-53662021D01*
X139753685Y-53654809D01*
X139802077Y-53649199D01*
X139851512Y-53645192D01*
X139901988Y-53642787D01*
X139953506Y-53641986D01*
X140004817Y-53642787D01*
G37*
G36*
X142645429Y-56739962D02*
G01*
X143031821Y-56311682D01*
X143058902Y-56333277D01*
X143086291Y-56354251D01*
X143113987Y-56374604D01*
X143141990Y-56394336D01*
X143184570Y-56422769D01*
X143227842Y-56449804D01*
X143271805Y-56475442D01*
X143316459Y-56499682D01*
X143361805Y-56522526D01*
X143407841Y-56543971D01*
X143454569Y-56564019D01*
X143501988Y-56582670D01*
X143549963Y-56599780D01*
X143598359Y-56615207D01*
X143647176Y-56628952D01*
X143696413Y-56641013D01*
X143746071Y-56651392D01*
X143796150Y-56660087D01*
X143846650Y-56667100D01*
X143897570Y-56672429D01*
X143931751Y-56675047D01*
X143966118Y-56676917D01*
X144000673Y-56678039D01*
X144035415Y-56678413D01*
X144074718Y-56677915D01*
X144112912Y-56676423D01*
X144149998Y-56673935D01*
X144185975Y-56670452D01*
X144220844Y-56665974D01*
X144254604Y-56660501D01*
X144303165Y-56650426D01*
X144349231Y-56638111D01*
X144392804Y-56623558D01*
X144433882Y-56606766D01*
X144472465Y-56587735D01*
X144508554Y-56566464D01*
X144531228Y-56551040D01*
X144563004Y-56526314D01*
X144591655Y-56500220D01*
X144617180Y-56472759D01*
X144639580Y-56443930D01*
X144658854Y-56413734D01*
X144675003Y-56382171D01*
X144688026Y-56349240D01*
X144697923Y-56314941D01*
X144704695Y-56279276D01*
X144708342Y-56242242D01*
X144709036Y-56216794D01*
X144707340Y-56169470D01*
X144702251Y-56124737D01*
X144693769Y-56082596D01*
X144681895Y-56043046D01*
X144666628Y-56006087D01*
X144647968Y-55971719D01*
X144625916Y-55939943D01*
X144600471Y-55910758D01*
X144571633Y-55884164D01*
X144539402Y-55860161D01*
X144503779Y-55838750D01*
X144464763Y-55819930D01*
X144422355Y-55803701D01*
X144376553Y-55790064D01*
X144327359Y-55779017D01*
X144274773Y-55770562D01*
X144237523Y-55766267D01*
X144201109Y-55761930D01*
X144165529Y-55757552D01*
X144130784Y-55753131D01*
X144096874Y-55748669D01*
X144057284Y-55743260D01*
X144050802Y-55742352D01*
X144010841Y-55736752D01*
X143975750Y-55731856D01*
X143939030Y-55726751D01*
X143900683Y-55721438D01*
X143860708Y-55715915D01*
X143819105Y-55710184D01*
X143810589Y-55709013D01*
X143753214Y-55700061D01*
X143697562Y-55689445D01*
X143643633Y-55677167D01*
X143591427Y-55663225D01*
X143540944Y-55647621D01*
X143492184Y-55630354D01*
X143445147Y-55611423D01*
X143399834Y-55590830D01*
X143356243Y-55568574D01*
X143314375Y-55544655D01*
X143274231Y-55519073D01*
X143235809Y-55491828D01*
X143199111Y-55462920D01*
X143164136Y-55432349D01*
X143130883Y-55400115D01*
X143099354Y-55366218D01*
X143069645Y-55330936D01*
X143041852Y-55294758D01*
X143015976Y-55257686D01*
X142992017Y-55219718D01*
X142969974Y-55180856D01*
X142949849Y-55141099D01*
X142931640Y-55100447D01*
X142915348Y-55058900D01*
X142900972Y-55016458D01*
X142888513Y-54973121D01*
X142877971Y-54928889D01*
X142869346Y-54883762D01*
X142862637Y-54837741D01*
X142857846Y-54790824D01*
X142854970Y-54743013D01*
X142854012Y-54694306D01*
X142855201Y-54637662D01*
X142858767Y-54582281D01*
X142864711Y-54528161D01*
X142873032Y-54475304D01*
X142883731Y-54423709D01*
X142896808Y-54373377D01*
X142912262Y-54324306D01*
X142930094Y-54276498D01*
X142950303Y-54229952D01*
X142972890Y-54184669D01*
X142997854Y-54140647D01*
X143025196Y-54097888D01*
X143054915Y-54056391D01*
X143087012Y-54016156D01*
X143121487Y-53977184D01*
X143158339Y-53939474D01*
X143197334Y-53903450D01*
X143238240Y-53869750D01*
X143281056Y-53838374D01*
X143325782Y-53809323D01*
X143372418Y-53782595D01*
X143420965Y-53758192D01*
X143471421Y-53736113D01*
X143523787Y-53716358D01*
X143578063Y-53698927D01*
X143634250Y-53683820D01*
X143692346Y-53671037D01*
X143752353Y-53660579D01*
X143814269Y-53652444D01*
X143878096Y-53646634D01*
X143943832Y-53643148D01*
X144011479Y-53641986D01*
X144052038Y-53642370D01*
X144092289Y-53643522D01*
X144132233Y-53645442D01*
X144171870Y-53648130D01*
X144211200Y-53651586D01*
X144250222Y-53655810D01*
X144288938Y-53660803D01*
X144327346Y-53666563D01*
X144365447Y-53673091D01*
X144403241Y-53680387D01*
X144440727Y-53688452D01*
X144477906Y-53697284D01*
X144514779Y-53706884D01*
X144551343Y-53717253D01*
X144587601Y-53728389D01*
X144623551Y-53740294D01*
X144659368Y-53752839D01*
X144695012Y-53765899D01*
X144730481Y-53779473D01*
X144765777Y-53793561D01*
X144800899Y-53808164D01*
X144835848Y-53823281D01*
X144870623Y-53838912D01*
X144905225Y-53855057D01*
X144939652Y-53871717D01*
X144973906Y-53888891D01*
X145007987Y-53906579D01*
X145041894Y-53924781D01*
X145075627Y-53943497D01*
X145109186Y-53962728D01*
X145142572Y-53982473D01*
X145175785Y-54002733D01*
X144868893Y-54479739D01*
X144828144Y-54454947D01*
X144787319Y-54431223D01*
X144746419Y-54408565D01*
X144705443Y-54386974D01*
X144664393Y-54366450D01*
X144623268Y-54346993D01*
X144582067Y-54328603D01*
X144540791Y-54311280D01*
X144499440Y-54295024D01*
X144458014Y-54279834D01*
X144430355Y-54270301D01*
X144388752Y-54257009D01*
X144346967Y-54245026D01*
X144305003Y-54234349D01*
X144262858Y-54224980D01*
X144220533Y-54216918D01*
X144178028Y-54210164D01*
X144135342Y-54204717D01*
X144092476Y-54200577D01*
X144049430Y-54197744D01*
X144006203Y-54196219D01*
X143977285Y-54195929D01*
X143932753Y-54196973D01*
X143889559Y-54200106D01*
X143847703Y-54205328D01*
X143807183Y-54212638D01*
X143768001Y-54222037D01*
X143730156Y-54233525D01*
X143693649Y-54247102D01*
X143658479Y-54262767D01*
X143624647Y-54280521D01*
X143592152Y-54300364D01*
X143571231Y-54314753D01*
X143541746Y-54337924D01*
X143515162Y-54363199D01*
X143491477Y-54390577D01*
X143470693Y-54420060D01*
X143452809Y-54451646D01*
X143437824Y-54485335D01*
X143425741Y-54521129D01*
X143416557Y-54559026D01*
X143410273Y-54599027D01*
X143406890Y-54641132D01*
X143406245Y-54670370D01*
X143407941Y-54704751D01*
X143413031Y-54738651D01*
X143421512Y-54772071D01*
X143433387Y-54805009D01*
X143448654Y-54837467D01*
X143467313Y-54869444D01*
X143489366Y-54900939D01*
X143514811Y-54931954D01*
X143544490Y-54961220D01*
X143578818Y-54987894D01*
X143617794Y-55011976D01*
X143650076Y-55028338D01*
X143684973Y-55043242D01*
X143722485Y-55056688D01*
X143762611Y-55068677D01*
X143805352Y-55079208D01*
X143850707Y-55088282D01*
X143882397Y-55093521D01*
X143919155Y-55099612D01*
X143954124Y-55105117D01*
X143991711Y-55110785D01*
X144026011Y-55115774D01*
X144049947Y-55119167D01*
X144087864Y-55124035D01*
X144127885Y-55129024D01*
X144162843Y-55133273D01*
X144199262Y-55137606D01*
X144237142Y-55142022D01*
X144276482Y-55146522D01*
X144338292Y-55155267D01*
X144398058Y-55165903D01*
X144455781Y-55178428D01*
X144511459Y-55192844D01*
X144565094Y-55209150D01*
X144616686Y-55227345D01*
X144666234Y-55247431D01*
X144713738Y-55269406D01*
X144759199Y-55293272D01*
X144802616Y-55319028D01*
X144843989Y-55346674D01*
X144883319Y-55376209D01*
X144920605Y-55407635D01*
X144955848Y-55440951D01*
X144989047Y-55476157D01*
X145020202Y-55513252D01*
X145049394Y-55551544D01*
X145076702Y-55590336D01*
X145102127Y-55629629D01*
X145125669Y-55669423D01*
X145147327Y-55709718D01*
X145167102Y-55750513D01*
X145184994Y-55791810D01*
X145201003Y-55833607D01*
X145215128Y-55875906D01*
X145227369Y-55918705D01*
X145237728Y-55962005D01*
X145246203Y-56005806D01*
X145252795Y-56050108D01*
X145257503Y-56094911D01*
X145260328Y-56140215D01*
X145261270Y-56186019D01*
X145259941Y-56247238D01*
X145255953Y-56306727D01*
X145249308Y-56364486D01*
X145240005Y-56420515D01*
X145228044Y-56474815D01*
X145213425Y-56527385D01*
X145196147Y-56578225D01*
X145176212Y-56627336D01*
X145153619Y-56674716D01*
X145128367Y-56720367D01*
X145100458Y-56764289D01*
X145069890Y-56806480D01*
X145036664Y-56846942D01*
X145000781Y-56885674D01*
X144962239Y-56922676D01*
X144921039Y-56957949D01*
X144877626Y-56991178D01*
X144832442Y-57022263D01*
X144785489Y-57051204D01*
X144736766Y-57078002D01*
X144686273Y-57102656D01*
X144634010Y-57125166D01*
X144579978Y-57145532D01*
X144524175Y-57163754D01*
X144466603Y-57179833D01*
X144407261Y-57193767D01*
X144346149Y-57205558D01*
X144283268Y-57215205D01*
X144218616Y-57222709D01*
X144152195Y-57228068D01*
X144084004Y-57231284D01*
X144049245Y-57232088D01*
X144014043Y-57232356D01*
X143964623Y-57231875D01*
X143915632Y-57230432D01*
X143867070Y-57228028D01*
X143818937Y-57224662D01*
X143771234Y-57220334D01*
X143723959Y-57215045D01*
X143677113Y-57208794D01*
X143630697Y-57201581D01*
X143584709Y-57193407D01*
X143539151Y-57184270D01*
X143494022Y-57174172D01*
X143449322Y-57163113D01*
X143405051Y-57151092D01*
X143361209Y-57138108D01*
X143317796Y-57124164D01*
X143274812Y-57109257D01*
X143232257Y-57093389D01*
X143190132Y-57076559D01*
X143148435Y-57058768D01*
X143107168Y-57040014D01*
X143066330Y-57020299D01*
X143025920Y-56999623D01*
X142985940Y-56977984D01*
X142946389Y-56955384D01*
X142907267Y-56931823D01*
X142868575Y-56907299D01*
X142830311Y-56881814D01*
X142792476Y-56855367D01*
X142755071Y-56827958D01*
X142718094Y-56799588D01*
X142681547Y-56770256D01*
X142645429Y-56739962D01*
G37*
G36*
X145774180Y-57205001D02*
G01*
X145774180Y-53648825D01*
X146326413Y-53648825D01*
X146326413Y-57205001D01*
X145774180Y-57205001D01*
G37*
G36*
X148165195Y-55782530D02*
G01*
X148165195Y-55228587D01*
X149448325Y-55228587D01*
X149448325Y-55968033D01*
X149446892Y-56033649D01*
X149442595Y-56097997D01*
X149435432Y-56161075D01*
X149425404Y-56222885D01*
X149412511Y-56283425D01*
X149396753Y-56342697D01*
X149378130Y-56400700D01*
X149356642Y-56457434D01*
X149332289Y-56512899D01*
X149305071Y-56567095D01*
X149274987Y-56620023D01*
X149242039Y-56671681D01*
X149206225Y-56722070D01*
X149167547Y-56771191D01*
X149126003Y-56819042D01*
X149081594Y-56865625D01*
X149035225Y-56910034D01*
X148987587Y-56951578D01*
X148938681Y-56990256D01*
X148888505Y-57026070D01*
X148837060Y-57059018D01*
X148784347Y-57089102D01*
X148730364Y-57116320D01*
X148675113Y-57140673D01*
X148618593Y-57162161D01*
X148560803Y-57180784D01*
X148501745Y-57196542D01*
X148441418Y-57209435D01*
X148379822Y-57219463D01*
X148316957Y-57226626D01*
X148252824Y-57230923D01*
X148187421Y-57232356D01*
X148135903Y-57231571D01*
X148085427Y-57229217D01*
X148035992Y-57225293D01*
X147987600Y-57219800D01*
X147940249Y-57212738D01*
X147893940Y-57204106D01*
X147848673Y-57193904D01*
X147804448Y-57182133D01*
X147761265Y-57168793D01*
X147719123Y-57153883D01*
X147678024Y-57137404D01*
X147637966Y-57119355D01*
X147598950Y-57099737D01*
X147560976Y-57078549D01*
X147524044Y-57055792D01*
X147488154Y-57031466D01*
X147453409Y-57006221D01*
X147419913Y-56980709D01*
X147387665Y-56954930D01*
X147356667Y-56928884D01*
X147326918Y-56902571D01*
X147298417Y-56875990D01*
X147271165Y-56849142D01*
X147245163Y-56822028D01*
X147220409Y-56794646D01*
X147196904Y-56766997D01*
X147174648Y-56739081D01*
X147153640Y-56710897D01*
X147133882Y-56682447D01*
X147106586Y-56639270D01*
X147082100Y-56595492D01*
X147060742Y-56555942D01*
X147041121Y-56515511D01*
X147023236Y-56474197D01*
X147007087Y-56432002D01*
X146992675Y-56388926D01*
X146983005Y-56356040D01*
X146974312Y-56322658D01*
X146966596Y-56288781D01*
X146959856Y-56254407D01*
X146953898Y-56215871D01*
X146948526Y-56169507D01*
X146945271Y-56134247D01*
X146942275Y-56095509D01*
X146939540Y-56053291D01*
X146937066Y-56007593D01*
X146934852Y-55958416D01*
X146932899Y-55905759D01*
X146931206Y-55849623D01*
X146929773Y-55790007D01*
X146928601Y-55726911D01*
X146927689Y-55660337D01*
X146927331Y-55625744D01*
X146927038Y-55590282D01*
X146926810Y-55553950D01*
X146926648Y-55516749D01*
X146926550Y-55478677D01*
X146926517Y-55439735D01*
X146926550Y-55400846D01*
X146926648Y-55362826D01*
X146926810Y-55325673D01*
X146927038Y-55289389D01*
X146927331Y-55253972D01*
X146927689Y-55219424D01*
X146928601Y-55152933D01*
X146929773Y-55089915D01*
X146931206Y-55030369D01*
X146932899Y-54974296D01*
X146934852Y-54921696D01*
X146937066Y-54872569D01*
X146939540Y-54826915D01*
X146942275Y-54784733D01*
X146945271Y-54746025D01*
X146948526Y-54710789D01*
X146953898Y-54664447D01*
X146959856Y-54625918D01*
X146966596Y-54591392D01*
X146974312Y-54557377D01*
X146983005Y-54523872D01*
X146992675Y-54490879D01*
X147007087Y-54447682D01*
X147023236Y-54405394D01*
X147041121Y-54364013D01*
X147060742Y-54323542D01*
X147082100Y-54283978D01*
X147106586Y-54240629D01*
X147133882Y-54197775D01*
X147153640Y-54169482D01*
X147174648Y-54141409D01*
X147196904Y-54113556D01*
X147220409Y-54085923D01*
X147245163Y-54058511D01*
X147271165Y-54031320D01*
X147298417Y-54004349D01*
X147326918Y-53977598D01*
X147356667Y-53951068D01*
X147387665Y-53924758D01*
X147419913Y-53898668D01*
X147453409Y-53872799D01*
X147488154Y-53847150D01*
X147524044Y-53822306D01*
X147560976Y-53799065D01*
X147598950Y-53777426D01*
X147637966Y-53757391D01*
X147678024Y-53738958D01*
X147719123Y-53722128D01*
X147761265Y-53706901D01*
X147804448Y-53693277D01*
X147848673Y-53681256D01*
X147893940Y-53670837D01*
X147940249Y-53662021D01*
X147987600Y-53654809D01*
X148035992Y-53649199D01*
X148085427Y-53645192D01*
X148135903Y-53642787D01*
X148187421Y-53641986D01*
X148249571Y-53643178D01*
X148310359Y-53646754D01*
X148369785Y-53652715D01*
X148427848Y-53661060D01*
X148484548Y-53671789D01*
X148539886Y-53684902D01*
X148593862Y-53700399D01*
X148646475Y-53718281D01*
X148697726Y-53738547D01*
X148747615Y-53761197D01*
X148796141Y-53786232D01*
X148843305Y-53813650D01*
X148889106Y-53843453D01*
X148933545Y-53875640D01*
X148976621Y-53910212D01*
X149018335Y-53947167D01*
X149058536Y-53985903D01*
X149096861Y-54025813D01*
X149133309Y-54066900D01*
X149167880Y-54109161D01*
X149200575Y-54152598D01*
X149231393Y-54197211D01*
X149260335Y-54242999D01*
X149287399Y-54289962D01*
X149312587Y-54338101D01*
X149335899Y-54387415D01*
X149357333Y-54437905D01*
X149376891Y-54489570D01*
X149394573Y-54542410D01*
X149410377Y-54596426D01*
X149424305Y-54651617D01*
X149436357Y-54707984D01*
X148854204Y-54707984D01*
X148839991Y-54668033D01*
X148823960Y-54629284D01*
X148806111Y-54591738D01*
X148786444Y-54555393D01*
X148764958Y-54520251D01*
X148741654Y-54486310D01*
X148716532Y-54453572D01*
X148689592Y-54422036D01*
X148660833Y-54391703D01*
X148630257Y-54362571D01*
X148608862Y-54343818D01*
X148575671Y-54317388D01*
X148541172Y-54293558D01*
X148505366Y-54272328D01*
X148468253Y-54253698D01*
X148429832Y-54237667D01*
X148390104Y-54224236D01*
X148349069Y-54213404D01*
X148306726Y-54205172D01*
X148263076Y-54199539D01*
X148218119Y-54196506D01*
X148187421Y-54195929D01*
X148142034Y-54197104D01*
X148098196Y-54200630D01*
X148055908Y-54206507D01*
X148015169Y-54214735D01*
X147975979Y-54225314D01*
X147938339Y-54238244D01*
X147902248Y-54253524D01*
X147867707Y-54271155D01*
X147835022Y-54290323D01*
X147804074Y-54310211D01*
X147774862Y-54330821D01*
X147747387Y-54352152D01*
X147715485Y-54379831D01*
X147686295Y-54408636D01*
X147659819Y-54438568D01*
X147654849Y-54444690D01*
X147630419Y-54478029D01*
X147607993Y-54512223D01*
X147587570Y-54547272D01*
X147569151Y-54583176D01*
X147552735Y-54619934D01*
X147538323Y-54657548D01*
X147525914Y-54696016D01*
X147515509Y-54735339D01*
X147506894Y-54781100D01*
X147501186Y-54823310D01*
X147496125Y-54872282D01*
X147493109Y-54908686D01*
X147490381Y-54948096D01*
X147487940Y-54990512D01*
X147485786Y-55035932D01*
X147483920Y-55084358D01*
X147482340Y-55135789D01*
X147481048Y-55190226D01*
X147480043Y-55247668D01*
X147479325Y-55308115D01*
X147478894Y-55371568D01*
X147478750Y-55438026D01*
X147478894Y-55504587D01*
X147479325Y-55568136D01*
X147480043Y-55628674D01*
X147481048Y-55686199D01*
X147482340Y-55740713D01*
X147483920Y-55792214D01*
X147485786Y-55840703D01*
X147487940Y-55886181D01*
X147490381Y-55928646D01*
X147493109Y-55968099D01*
X147496125Y-56004541D01*
X147501186Y-56053555D01*
X147506894Y-56095793D01*
X147513247Y-56131253D01*
X147515509Y-56141567D01*
X147525914Y-56180823D01*
X147538323Y-56219091D01*
X147552735Y-56256371D01*
X147569151Y-56292662D01*
X147587570Y-56327965D01*
X147607993Y-56362279D01*
X147630419Y-56395605D01*
X147654849Y-56427942D01*
X147680783Y-56459310D01*
X147709430Y-56489301D01*
X147740789Y-56517914D01*
X147767831Y-56539813D01*
X147796608Y-56560830D01*
X147827123Y-56580966D01*
X147859373Y-56600220D01*
X147867707Y-56604896D01*
X147902248Y-56622126D01*
X147938339Y-56637060D01*
X147975979Y-56649695D01*
X148015169Y-56660034D01*
X148055908Y-56668075D01*
X148098196Y-56673818D01*
X148142034Y-56677264D01*
X148187421Y-56678413D01*
X148224450Y-56677615D01*
X148260738Y-56675221D01*
X148296284Y-56671230D01*
X148331089Y-56665644D01*
X148365153Y-56658461D01*
X148398475Y-56649682D01*
X148447069Y-56633521D01*
X148493995Y-56613768D01*
X148539253Y-56590424D01*
X148582843Y-56563489D01*
X148610976Y-56543537D01*
X148638368Y-56521989D01*
X148665018Y-56498844D01*
X148690928Y-56474104D01*
X148715772Y-56448074D01*
X148739013Y-56421063D01*
X148760651Y-56393070D01*
X148780687Y-56364095D01*
X148799120Y-56334139D01*
X148815949Y-56303201D01*
X148831176Y-56271281D01*
X148844801Y-56238379D01*
X148856822Y-56204495D01*
X148867240Y-56169630D01*
X148876056Y-56133783D01*
X148883269Y-56096955D01*
X148888879Y-56059144D01*
X148892886Y-56020352D01*
X148895290Y-55980578D01*
X148896092Y-55939823D01*
X148896092Y-55782530D01*
X148165195Y-55782530D01*
G37*
G36*
X149706489Y-56739962D02*
G01*
X150092882Y-56311682D01*
X150119963Y-56333277D01*
X150147352Y-56354251D01*
X150175047Y-56374604D01*
X150203050Y-56394336D01*
X150245631Y-56422769D01*
X150288903Y-56449804D01*
X150332866Y-56475442D01*
X150377520Y-56499682D01*
X150422865Y-56522526D01*
X150468902Y-56543971D01*
X150515630Y-56564019D01*
X150563049Y-56582670D01*
X150611024Y-56599780D01*
X150659420Y-56615207D01*
X150708237Y-56628952D01*
X150757474Y-56641013D01*
X150807132Y-56651392D01*
X150857211Y-56660087D01*
X150907711Y-56667100D01*
X150958631Y-56672429D01*
X150992812Y-56675047D01*
X151027179Y-56676917D01*
X151061734Y-56678039D01*
X151096475Y-56678413D01*
X151135778Y-56677915D01*
X151173973Y-56676423D01*
X151211059Y-56673935D01*
X151247036Y-56670452D01*
X151281904Y-56665974D01*
X151315664Y-56660501D01*
X151364225Y-56650426D01*
X151410292Y-56638111D01*
X151453864Y-56623558D01*
X151494942Y-56606766D01*
X151533526Y-56587735D01*
X151569615Y-56566464D01*
X151592288Y-56551040D01*
X151624065Y-56526314D01*
X151652716Y-56500220D01*
X151678241Y-56472759D01*
X151700641Y-56443930D01*
X151719915Y-56413734D01*
X151736063Y-56382171D01*
X151749087Y-56349240D01*
X151758984Y-56314941D01*
X151765756Y-56279276D01*
X151769403Y-56242242D01*
X151770097Y-56216794D01*
X151768401Y-56169470D01*
X151763312Y-56124737D01*
X151754830Y-56082596D01*
X151742956Y-56043046D01*
X151727689Y-56006087D01*
X151709029Y-55971719D01*
X151686976Y-55939943D01*
X151661531Y-55910758D01*
X151632693Y-55884164D01*
X151600463Y-55860161D01*
X151564840Y-55838750D01*
X151525824Y-55819930D01*
X151483415Y-55803701D01*
X151437614Y-55790064D01*
X151388420Y-55779017D01*
X151335833Y-55770562D01*
X151298584Y-55766267D01*
X151262169Y-55761930D01*
X151226590Y-55757552D01*
X151191845Y-55753131D01*
X151157934Y-55748669D01*
X151118344Y-55743260D01*
X151111863Y-55742352D01*
X151071902Y-55736752D01*
X151036810Y-55731856D01*
X151000091Y-55726751D01*
X150961744Y-55721438D01*
X150921769Y-55715915D01*
X150880166Y-55710184D01*
X150871650Y-55709013D01*
X150814275Y-55700061D01*
X150758623Y-55689445D01*
X150704694Y-55677167D01*
X150652488Y-55663225D01*
X150602005Y-55647621D01*
X150553245Y-55630354D01*
X150506208Y-55611423D01*
X150460894Y-55590830D01*
X150417304Y-55568574D01*
X150375436Y-55544655D01*
X150335292Y-55519073D01*
X150296870Y-55491828D01*
X150260172Y-55462920D01*
X150225196Y-55432349D01*
X150191944Y-55400115D01*
X150160415Y-55366218D01*
X150130705Y-55330936D01*
X150102913Y-55294758D01*
X150077037Y-55257686D01*
X150053078Y-55219718D01*
X150031035Y-55180856D01*
X150010909Y-55141099D01*
X149992700Y-55100447D01*
X149976408Y-55058900D01*
X149962033Y-55016458D01*
X149949574Y-54973121D01*
X149939032Y-54928889D01*
X149930407Y-54883762D01*
X149923698Y-54837741D01*
X149918906Y-54790824D01*
X149916031Y-54743013D01*
X149915073Y-54694306D01*
X149916262Y-54637662D01*
X149919828Y-54582281D01*
X149925772Y-54528161D01*
X149934093Y-54475304D01*
X149944792Y-54423709D01*
X149957869Y-54373377D01*
X149973323Y-54324306D01*
X149991154Y-54276498D01*
X150011364Y-54229952D01*
X150033950Y-54184669D01*
X150058915Y-54140647D01*
X150086256Y-54097888D01*
X150115976Y-54056391D01*
X150148073Y-54016156D01*
X150182547Y-53977184D01*
X150219399Y-53939474D01*
X150258395Y-53903450D01*
X150299301Y-53869750D01*
X150342117Y-53838374D01*
X150386843Y-53809323D01*
X150433479Y-53782595D01*
X150482025Y-53758192D01*
X150532481Y-53736113D01*
X150584848Y-53716358D01*
X150639124Y-53698927D01*
X150695310Y-53683820D01*
X150753407Y-53671037D01*
X150813413Y-53660579D01*
X150875330Y-53652444D01*
X150939156Y-53646634D01*
X151004893Y-53643148D01*
X151072540Y-53641986D01*
X151113098Y-53642370D01*
X151153350Y-53643522D01*
X151193294Y-53645442D01*
X151232931Y-53648130D01*
X151272261Y-53651586D01*
X151311283Y-53655810D01*
X151349999Y-53660803D01*
X151388407Y-53666563D01*
X151426508Y-53673091D01*
X151464301Y-53680387D01*
X151501788Y-53688452D01*
X151538967Y-53697284D01*
X151575839Y-53706884D01*
X151612404Y-53717253D01*
X151648662Y-53728389D01*
X151684612Y-53740294D01*
X151720429Y-53752839D01*
X151756072Y-53765899D01*
X151791542Y-53779473D01*
X151826838Y-53793561D01*
X151861960Y-53808164D01*
X151896909Y-53823281D01*
X151931684Y-53838912D01*
X151966285Y-53855057D01*
X152000713Y-53871717D01*
X152034967Y-53888891D01*
X152069048Y-53906579D01*
X152102954Y-53924781D01*
X152136688Y-53943497D01*
X152170247Y-53962728D01*
X152203633Y-53982473D01*
X152236845Y-54002733D01*
X151929954Y-54479739D01*
X151889204Y-54454947D01*
X151848379Y-54431223D01*
X151807479Y-54408565D01*
X151766504Y-54386974D01*
X151725454Y-54366450D01*
X151684328Y-54346993D01*
X151643128Y-54328603D01*
X151601852Y-54311280D01*
X151560501Y-54295024D01*
X151519075Y-54279834D01*
X151491416Y-54270301D01*
X151449812Y-54257009D01*
X151408028Y-54245026D01*
X151366064Y-54234349D01*
X151323919Y-54224980D01*
X151281594Y-54216918D01*
X151239088Y-54210164D01*
X151196403Y-54204717D01*
X151153537Y-54200577D01*
X151110490Y-54197744D01*
X151067264Y-54196219D01*
X151038346Y-54195929D01*
X150993814Y-54196973D01*
X150950620Y-54200106D01*
X150908763Y-54205328D01*
X150868244Y-54212638D01*
X150829062Y-54222037D01*
X150791217Y-54233525D01*
X150754710Y-54247102D01*
X150719540Y-54262767D01*
X150685707Y-54280521D01*
X150653212Y-54300364D01*
X150632292Y-54314753D01*
X150602807Y-54337924D01*
X150576222Y-54363199D01*
X150552538Y-54390577D01*
X150531754Y-54420060D01*
X150513869Y-54451646D01*
X150498885Y-54485335D01*
X150486801Y-54521129D01*
X150477617Y-54559026D01*
X150471334Y-54599027D01*
X150467950Y-54641132D01*
X150467306Y-54670370D01*
X150469002Y-54704751D01*
X150474091Y-54738651D01*
X150482573Y-54772071D01*
X150494447Y-54805009D01*
X150509714Y-54837467D01*
X150528374Y-54869444D01*
X150550427Y-54900939D01*
X150575872Y-54931954D01*
X150605551Y-54961220D01*
X150639879Y-54987894D01*
X150678855Y-55011976D01*
X150711137Y-55028338D01*
X150746034Y-55043242D01*
X150783545Y-55056688D01*
X150823671Y-55068677D01*
X150866412Y-55079208D01*
X150911768Y-55088282D01*
X150943457Y-55093521D01*
X150980216Y-55099612D01*
X151015185Y-55105117D01*
X151052771Y-55110785D01*
X151087072Y-55115774D01*
X151111008Y-55119167D01*
X151148925Y-55124035D01*
X151188946Y-55129024D01*
X151223904Y-55133273D01*
X151260323Y-55137606D01*
X151298202Y-55142022D01*
X151337543Y-55146522D01*
X151399353Y-55155267D01*
X151459119Y-55165903D01*
X151516841Y-55178428D01*
X151572520Y-55192844D01*
X151626155Y-55209150D01*
X151677747Y-55227345D01*
X151727295Y-55247431D01*
X151774799Y-55269406D01*
X151820260Y-55293272D01*
X151863677Y-55319028D01*
X151905050Y-55346674D01*
X151944380Y-55376209D01*
X151981666Y-55407635D01*
X152016908Y-55440951D01*
X152050107Y-55476157D01*
X152081263Y-55513252D01*
X152110454Y-55551544D01*
X152137763Y-55590336D01*
X152163188Y-55629629D01*
X152186730Y-55669423D01*
X152208388Y-55709718D01*
X152228163Y-55750513D01*
X152246055Y-55791810D01*
X152262063Y-55833607D01*
X152276188Y-55875906D01*
X152288430Y-55918705D01*
X152298789Y-55962005D01*
X152307264Y-56005806D01*
X152313855Y-56050108D01*
X152318564Y-56094911D01*
X152321389Y-56140215D01*
X152322330Y-56186019D01*
X152321001Y-56247238D01*
X152317014Y-56306727D01*
X152310369Y-56364486D01*
X152301066Y-56420515D01*
X152289105Y-56474815D01*
X152274485Y-56527385D01*
X152257208Y-56578225D01*
X152237273Y-56627336D01*
X152214679Y-56674716D01*
X152189428Y-56720367D01*
X152161518Y-56764289D01*
X152130951Y-56806480D01*
X152097725Y-56846942D01*
X152061841Y-56885674D01*
X152023300Y-56922676D01*
X151982100Y-56957949D01*
X151938686Y-56991178D01*
X151893503Y-57022263D01*
X151846550Y-57051204D01*
X151797826Y-57078002D01*
X151747333Y-57102656D01*
X151695071Y-57125166D01*
X151641038Y-57145532D01*
X151585236Y-57163754D01*
X151527664Y-57179833D01*
X151468322Y-57193767D01*
X151407210Y-57205558D01*
X151344328Y-57215205D01*
X151279677Y-57222709D01*
X151213256Y-57228068D01*
X151145065Y-57231284D01*
X151110306Y-57232088D01*
X151075104Y-57232356D01*
X151025684Y-57231875D01*
X150976693Y-57230432D01*
X150928131Y-57228028D01*
X150879998Y-57224662D01*
X150832294Y-57220334D01*
X150785020Y-57215045D01*
X150738174Y-57208794D01*
X150691757Y-57201581D01*
X150645770Y-57193407D01*
X150600212Y-57184270D01*
X150555082Y-57174172D01*
X150510382Y-57163113D01*
X150466111Y-57151092D01*
X150422269Y-57138108D01*
X150378856Y-57124164D01*
X150335873Y-57109257D01*
X150293318Y-57093389D01*
X150251192Y-57076559D01*
X150209496Y-57058768D01*
X150168229Y-57040014D01*
X150127390Y-57020299D01*
X150086981Y-56999623D01*
X150047001Y-56977984D01*
X150007450Y-56955384D01*
X149968328Y-56931823D01*
X149929635Y-56907299D01*
X149891372Y-56881814D01*
X149853537Y-56855367D01*
X149816131Y-56827958D01*
X149779155Y-56799588D01*
X149742608Y-56770256D01*
X149706489Y-56739962D01*
G37*
%LPD*%
M02*
