%TF.GenerationSoftware,KiCad,Pcbnew,7.0.5-0*%
%TF.CreationDate,2023-09-10T13:20:23+02:00*%
%TF.ProjectId,links,6c696e6b-732e-46b6-9963-61645f706362,rev?*%
%TF.SameCoordinates,Original*%
%TF.FileFunction,Copper,L2,Bot*%
%TF.FilePolarity,Positive*%
%FSLAX46Y46*%
G04 Gerber Fmt 4.6, Leading zero omitted, Abs format (unit mm)*
G04 Created by KiCad (PCBNEW 7.0.5-0) date 2023-09-10 13:20:23*
%MOMM*%
%LPD*%
G01*
G04 APERTURE LIST*
G04 Aperture macros list*
%AMOutline5P*
0 Free polygon, 5 corners , with rotation*
0 The origin of the aperture is its center*
0 number of corners: always 5*
0 $1 to $10 corner X, Y*
0 $11 Rotation angle, in degrees counterclockwise*
0 create outline with 5 corners*
4,1,5,$1,$2,$3,$4,$5,$6,$7,$8,$9,$10,$1,$2,$11*%
%AMOutline6P*
0 Free polygon, 6 corners , with rotation*
0 The origin of the aperture is its center*
0 number of corners: always 6*
0 $1 to $12 corner X, Y*
0 $13 Rotation angle, in degrees counterclockwise*
0 create outline with 6 corners*
4,1,6,$1,$2,$3,$4,$5,$6,$7,$8,$9,$10,$11,$12,$1,$2,$13*%
%AMOutline7P*
0 Free polygon, 7 corners , with rotation*
0 The origin of the aperture is its center*
0 number of corners: always 7*
0 $1 to $14 corner X, Y*
0 $15 Rotation angle, in degrees counterclockwise*
0 create outline with 7 corners*
4,1,7,$1,$2,$3,$4,$5,$6,$7,$8,$9,$10,$11,$12,$13,$14,$1,$2,$15*%
%AMOutline8P*
0 Free polygon, 8 corners , with rotation*
0 The origin of the aperture is its center*
0 number of corners: always 8*
0 $1 to $16 corner X, Y*
0 $17 Rotation angle, in degrees counterclockwise*
0 create outline with 8 corners*
4,1,8,$1,$2,$3,$4,$5,$6,$7,$8,$9,$10,$11,$12,$13,$14,$15,$16,$1,$2,$17*%
G04 Aperture macros list end*
%TA.AperFunction,ComponentPad*%
%ADD10Outline8P,-0.609600X0.252505X-0.252505X0.609600X0.252505X0.609600X0.609600X0.252505X0.609600X-0.252505X0.252505X-0.609600X-0.252505X-0.609600X-0.609600X-0.252505X180.000000*%
%TD*%
%TA.AperFunction,ComponentPad*%
%ADD11Outline8P,-0.889000X0.368236X-0.368236X0.889000X0.368236X0.889000X0.889000X0.368236X0.889000X-0.368236X0.368236X-0.889000X-0.368236X-0.889000X-0.889000X-0.368236X180.000000*%
%TD*%
%TA.AperFunction,ComponentPad*%
%ADD12Outline8P,-0.889000X0.368236X-0.368236X0.889000X0.368236X0.889000X0.889000X0.368236X0.889000X-0.368236X0.368236X-0.889000X-0.368236X-0.889000X-0.889000X-0.368236X0.000000*%
%TD*%
%TA.AperFunction,ComponentPad*%
%ADD13Outline8P,-0.939800X0.389278X-0.389278X0.939800X0.389278X0.939800X0.939800X0.389278X0.939800X-0.389278X0.389278X-0.939800X-0.389278X-0.939800X-0.939800X-0.389278X0.000000*%
%TD*%
%TA.AperFunction,ViaPad*%
%ADD14C,1.108000*%
%TD*%
%TA.AperFunction,Conductor*%
%ADD15C,0.406400*%
%TD*%
%TA.AperFunction,Conductor*%
%ADD16C,0.254000*%
%TD*%
%TA.AperFunction,Conductor*%
%ADD17C,0.250000*%
%TD*%
G04 APERTURE END LIST*
D10*
%TO.P,LED2,A,A*%
%TO.N,Net-(IC3--IN)*%
X145070000Y-97600000D03*
%TO.P,LED2,K,C*%
%TO.N,Net-(IC3-OUT)*%
X142530000Y-97600000D03*
%TD*%
D11*
%TO.P,J10,P1,1*%
%TO.N,GND*%
X153194300Y-134451750D03*
%TO.P,J10,P2,2*%
X153194300Y-136991750D03*
%TO.P,J10,P3,3*%
%TO.N,Net-(J10-3)*%
X153194300Y-144611750D03*
%TD*%
D10*
%TO.P,LED3,A,A*%
%TO.N,Net-(IC5--IN)*%
X145070000Y-131900000D03*
%TO.P,LED3,K,C*%
%TO.N,Net-(IC5-OUT)*%
X142530000Y-131900000D03*
%TD*%
%TO.P,LED1,A,A*%
%TO.N,Net-(IC1B--IN)*%
X145070000Y-63300000D03*
%TO.P,LED1,K,C*%
%TO.N,Net-(IC1B-OUT)*%
X142530000Y-63300000D03*
%TD*%
D12*
%TO.P,J8,P1,1*%
%TO.N,GND*%
X153194200Y-124291750D03*
%TO.P,J8,P2,2*%
%TO.N,unconnected-(J8-2-PadP2)*%
X153194200Y-121751750D03*
%TO.P,J8,P3,3*%
%TO.N,Net-(J8-3)*%
X153194200Y-114131750D03*
%TD*%
D11*
%TO.P,J12,P1,1*%
%TO.N,GND*%
X153194300Y-147151750D03*
%TO.P,J12,P2,2*%
%TO.N,unconnected-(J12-2-PadP2)*%
X153194300Y-149691750D03*
%TO.P,J12,P3,3*%
%TO.N,Net-(J12-3)*%
X153194300Y-157311750D03*
%TD*%
D12*
%TO.P,J1,P1,1*%
%TO.N,GND*%
X143828000Y-77301750D03*
%TO.P,J1,P2,2*%
X143828000Y-74761750D03*
%TO.P,J1,P3,3*%
%TO.N,Net-(IC1A-+IN)*%
X143828000Y-67141750D03*
%TD*%
%TO.P,J5,P1,1*%
%TO.N,GND*%
X143827900Y-111591750D03*
%TO.P,J5,P2,2*%
X143827900Y-109051750D03*
%TO.P,J5,P3,3*%
%TO.N,Net-(J5-3)*%
X143827900Y-101431750D03*
%TD*%
%TO.P,J7,P1,1*%
%TO.N,GND*%
X143828000Y-124291750D03*
%TO.P,J7,P2,2*%
%TO.N,unconnected-(J7-2-PadP2)*%
X143828000Y-121751750D03*
%TO.P,J7,P3,3*%
%TO.N,Net-(J7-3)*%
X143828000Y-114131750D03*
%TD*%
%TO.P,J2,P1,1*%
%TO.N,GND*%
X153194300Y-77301750D03*
%TO.P,J2,P2,2*%
%TO.N,unconnected-(J2-2-PadP2)*%
X153194300Y-74761750D03*
%TO.P,J2,P3,3*%
%TO.N,Net-(J2-3)*%
X153194300Y-67141750D03*
%TD*%
%TO.P,J6,P1,1*%
%TO.N,GND*%
X153194100Y-111591750D03*
%TO.P,J6,P2,2*%
X153194100Y-109051750D03*
%TO.P,J6,P3,3*%
%TO.N,Net-(J6-3)*%
X153194100Y-101431750D03*
%TD*%
D11*
%TO.P,J9,P1,1*%
%TO.N,GND*%
X143827900Y-134451750D03*
%TO.P,J9,P2,2*%
X143827900Y-136991750D03*
%TO.P,J9,P3,3*%
%TO.N,Net-(J9-3)*%
X143827900Y-144611750D03*
%TD*%
%TO.P,J11,P1,1*%
%TO.N,GND*%
X143828000Y-147231150D03*
%TO.P,J11,P2,2*%
X143828000Y-149771150D03*
%TO.P,J11,P3,3*%
%TO.N,Net-(J11-3)*%
X143828000Y-157391150D03*
%TD*%
D12*
%TO.P,J4,P1,1*%
%TO.N,GND*%
X153194300Y-90001750D03*
%TO.P,J4,P2,2*%
%TO.N,unconnected-(J4-2-PadP2)*%
X153194300Y-87461750D03*
%TO.P,J4,P3,3*%
%TO.N,Net-(J4-3)*%
X153194300Y-79841750D03*
%TD*%
%TO.P,J3,P1,1*%
%TO.N,GND*%
X143828000Y-90001750D03*
%TO.P,J3,P2,2*%
%TO.N,unconnected-(J3-2-PadP2)*%
X143828000Y-87461750D03*
%TO.P,J3,P3,3*%
%TO.N,Net-(J3-3)*%
X143828000Y-79841750D03*
%TD*%
D13*
%TO.P,JP1,1,1*%
%TO.N,Net-(D1-PadA)*%
X143431100Y-53012950D03*
%TO.P,JP1,2,2*%
X143431100Y-55552950D03*
%TO.P,JP1,3,3*%
%TO.N,GND*%
X145971100Y-53012950D03*
%TO.P,JP1,4,4*%
X145971100Y-55552950D03*
%TO.P,JP1,5,5*%
X148511100Y-53012950D03*
%TO.P,JP1,6,6*%
X148511100Y-55552950D03*
%TO.P,JP1,7,7*%
X151051100Y-53012950D03*
%TO.P,JP1,8,8*%
X151051100Y-55552950D03*
%TO.P,JP1,9,9*%
%TO.N,Net-(D2-PadC)*%
X153591100Y-53012950D03*
%TO.P,JP1,10,10*%
X153591100Y-55552950D03*
%TD*%
D14*
%TO.N,GND*%
X155654900Y-63014250D03*
X151000000Y-133900000D03*
X142500000Y-58100000D03*
X149622400Y-99209250D03*
X147600000Y-136700000D03*
X156925000Y-78730550D03*
X140891100Y-157311750D03*
X141684900Y-66506750D03*
X147700000Y-128000000D03*
X156925000Y-110004250D03*
X146764900Y-87144250D03*
X156131100Y-157311750D03*
X148511100Y-120481750D03*
X156924900Y-75396750D03*
X150200000Y-131200000D03*
X156925000Y-113337950D03*
X147717400Y-93176750D03*
%TO.N,VEE*%
X139938600Y-126500000D03*
X146288600Y-96351750D03*
X139700000Y-63500000D03*
X152321100Y-56981750D03*
X139938600Y-97500000D03*
X146606100Y-130006750D03*
%TO.N,Net-(IC1A--IN)*%
X154384800Y-63649250D03*
X147558600Y-58569250D03*
%TO.N,Net-(IC1D--IN)*%
X149463600Y-58569250D03*
X152638600Y-61109250D03*
%TO.N,Net-(IC3-OUT)*%
X147400000Y-99300000D03*
%TO.N,Net-(J9-3)*%
X142251100Y-135700000D03*
X143800000Y-131000000D03*
%TD*%
D15*
%TO.N,VEE*%
X140891100Y-56981750D02*
X152321100Y-56981750D01*
D16*
X141086850Y-96351750D02*
X146288600Y-96351750D01*
X146599350Y-130000000D02*
X146606100Y-130006750D01*
D15*
X139700000Y-63500000D02*
X139938600Y-63261400D01*
D16*
X139938600Y-97500000D02*
X141086850Y-96351750D01*
X143438600Y-130000000D02*
X146599350Y-130000000D01*
D15*
X139938600Y-63261400D02*
X139938600Y-57934250D01*
D16*
X139938600Y-126500000D02*
X143438600Y-130000000D01*
D15*
X139938600Y-57934250D02*
X140891100Y-56981750D01*
D16*
%TO.N,Net-(IC1A--IN)*%
X151051100Y-62061750D02*
X147558600Y-58569250D01*
X152797300Y-62061750D02*
X151051100Y-62061750D01*
X154384800Y-63649250D02*
X152797300Y-62061750D01*
%TO.N,Net-(IC1D--IN)*%
X152638600Y-61109250D02*
X152003600Y-61109250D01*
X152003600Y-61109250D02*
X149463600Y-58569250D01*
%TO.N,Net-(IC3-OUT)*%
X144230000Y-99300000D02*
X142530000Y-97600000D01*
X147400000Y-99300000D02*
X144230000Y-99300000D01*
D17*
%TO.N,Net-(J9-3)*%
X143800000Y-131000000D02*
X143600000Y-130800000D01*
X141400000Y-134848900D02*
X142251100Y-135700000D01*
X142100000Y-130800000D02*
X141400000Y-131500000D01*
X141400000Y-131500000D02*
X141400000Y-134848900D01*
X143600000Y-130800000D02*
X142100000Y-130800000D01*
%TD*%
%TA.AperFunction,Conductor*%
%TO.N,GND*%
G36*
X144056200Y-149316897D02*
G01*
X143972592Y-149278715D01*
X143864334Y-149263150D01*
X143791666Y-149263150D01*
X143683408Y-149278715D01*
X143599800Y-149316897D01*
X143599800Y-147685402D01*
X143683408Y-147723585D01*
X143791666Y-147739150D01*
X143864334Y-147739150D01*
X143972592Y-147723585D01*
X144056200Y-147685402D01*
X144056200Y-149316897D01*
G37*
%TD.AperFunction*%
%TA.AperFunction,Conductor*%
G36*
X153422500Y-136537497D02*
G01*
X153338892Y-136499315D01*
X153230634Y-136483750D01*
X153157966Y-136483750D01*
X153049708Y-136499315D01*
X152966100Y-136537497D01*
X152966100Y-134906002D01*
X153049708Y-134944185D01*
X153157966Y-134959750D01*
X153230634Y-134959750D01*
X153338892Y-134944185D01*
X153422500Y-134906002D01*
X153422500Y-136537497D01*
G37*
%TD.AperFunction*%
%TA.AperFunction,Conductor*%
G36*
X144056100Y-111137497D02*
G01*
X143972492Y-111099315D01*
X143864234Y-111083750D01*
X143791566Y-111083750D01*
X143683308Y-111099315D01*
X143599700Y-111137497D01*
X143599700Y-109506002D01*
X143683308Y-109544185D01*
X143791566Y-109559750D01*
X143864234Y-109559750D01*
X143972492Y-109544185D01*
X144056100Y-109506002D01*
X144056100Y-111137497D01*
G37*
%TD.AperFunction*%
%TA.AperFunction,Conductor*%
G36*
X153422300Y-111137497D02*
G01*
X153338692Y-111099315D01*
X153230434Y-111083750D01*
X153157766Y-111083750D01*
X153049508Y-111099315D01*
X152965900Y-111137497D01*
X152965900Y-109506002D01*
X153049508Y-109544185D01*
X153157766Y-109559750D01*
X153230434Y-109559750D01*
X153338692Y-109544185D01*
X153422300Y-109506002D01*
X153422300Y-111137497D01*
G37*
%TD.AperFunction*%
%TA.AperFunction,Conductor*%
G36*
X144056200Y-76847497D02*
G01*
X143972592Y-76809315D01*
X143864334Y-76793750D01*
X143791666Y-76793750D01*
X143683408Y-76809315D01*
X143599800Y-76847497D01*
X143599800Y-75216002D01*
X143683408Y-75254185D01*
X143791666Y-75269750D01*
X143864334Y-75269750D01*
X143972592Y-75254185D01*
X144056200Y-75216002D01*
X144056200Y-76847497D01*
G37*
%TD.AperFunction*%
%TA.AperFunction,Conductor*%
G36*
X157949131Y-50835163D02*
G01*
X157985676Y-50885463D01*
X157990600Y-50916550D01*
X157990600Y-159090650D01*
X157971387Y-159149781D01*
X157921087Y-159186326D01*
X157890000Y-159191250D01*
X139112200Y-159191250D01*
X139053069Y-159172037D01*
X139016524Y-159121737D01*
X139011600Y-159090650D01*
X139011600Y-157779454D01*
X142735299Y-157779454D01*
X142747117Y-157838864D01*
X142747117Y-157838865D01*
X142747118Y-157838866D01*
X142780775Y-157889237D01*
X143329914Y-158438376D01*
X143380284Y-158472031D01*
X143439700Y-158483850D01*
X144216301Y-158483851D01*
X144275716Y-158472032D01*
X144326087Y-158438375D01*
X144875226Y-157889236D01*
X144908881Y-157838866D01*
X144920700Y-157779450D01*
X144920700Y-157700054D01*
X152101599Y-157700054D01*
X152113417Y-157759464D01*
X152113417Y-157759465D01*
X152113418Y-157759466D01*
X152147075Y-157809837D01*
X152696214Y-158358976D01*
X152746584Y-158392631D01*
X152806000Y-158404450D01*
X153582601Y-158404451D01*
X153642016Y-158392632D01*
X153692387Y-158358975D01*
X154241526Y-157809836D01*
X154275181Y-157759466D01*
X154287000Y-157700050D01*
X154287001Y-156923449D01*
X154275182Y-156864034D01*
X154241525Y-156813663D01*
X153692386Y-156264524D01*
X153642016Y-156230869D01*
X153642015Y-156230868D01*
X153582595Y-156219049D01*
X152805995Y-156219049D01*
X152746585Y-156230867D01*
X152696214Y-156264524D01*
X152696212Y-156264525D01*
X152147073Y-156813664D01*
X152113418Y-156864034D01*
X152101599Y-156923450D01*
X152101599Y-157700054D01*
X144920700Y-157700054D01*
X144920701Y-157002849D01*
X144908882Y-156943434D01*
X144875225Y-156893063D01*
X144326086Y-156343924D01*
X144275716Y-156310269D01*
X144275715Y-156310268D01*
X144216295Y-156298449D01*
X143439695Y-156298449D01*
X143380285Y-156310267D01*
X143329914Y-156343924D01*
X143329912Y-156343925D01*
X142780773Y-156893064D01*
X142747118Y-156943434D01*
X142735299Y-157002850D01*
X142735299Y-157779454D01*
X139011600Y-157779454D01*
X139011600Y-152946151D01*
X142472341Y-152946151D01*
X142492937Y-153181559D01*
X142554098Y-153409816D01*
X142616940Y-153544579D01*
X142653965Y-153623979D01*
X142789505Y-153817551D01*
X142956599Y-153984645D01*
X143150171Y-154120185D01*
X143364337Y-154220053D01*
X143592592Y-154281213D01*
X143769034Y-154296650D01*
X143769046Y-154296650D01*
X143886954Y-154296650D01*
X143886966Y-154296650D01*
X144063408Y-154281213D01*
X144291663Y-154220053D01*
X144505829Y-154120185D01*
X144699401Y-153984645D01*
X144866495Y-153817551D01*
X145002035Y-153623980D01*
X145101903Y-153409813D01*
X145163063Y-153181558D01*
X145183659Y-152946150D01*
X145176712Y-152866751D01*
X151838641Y-152866751D01*
X151859237Y-153102159D01*
X151920398Y-153330416D01*
X152020262Y-153544573D01*
X152020265Y-153544579D01*
X152155805Y-153738151D01*
X152322899Y-153905245D01*
X152516471Y-154040785D01*
X152730637Y-154140653D01*
X152958892Y-154201813D01*
X153135334Y-154217250D01*
X153135346Y-154217250D01*
X153253254Y-154217250D01*
X153253266Y-154217250D01*
X153429708Y-154201813D01*
X153657963Y-154140653D01*
X153872129Y-154040785D01*
X154065701Y-153905245D01*
X154232795Y-153738151D01*
X154368335Y-153544580D01*
X154468203Y-153330413D01*
X154529363Y-153102158D01*
X154549959Y-152866750D01*
X154529363Y-152631342D01*
X154468203Y-152403087D01*
X154368335Y-152188921D01*
X154232795Y-151995349D01*
X154065701Y-151828255D01*
X153872129Y-151692715D01*
X153697079Y-151611087D01*
X153657966Y-151592848D01*
X153657963Y-151592847D01*
X153429708Y-151531687D01*
X153429709Y-151531687D01*
X153253270Y-151516250D01*
X153253266Y-151516250D01*
X153135334Y-151516250D01*
X153135329Y-151516250D01*
X152958890Y-151531687D01*
X152730633Y-151592848D01*
X152516476Y-151692712D01*
X152516468Y-151692717D01*
X152322896Y-151828257D01*
X152155807Y-151995346D01*
X152020267Y-152188917D01*
X152020262Y-152188925D01*
X151920398Y-152403083D01*
X151859237Y-152631340D01*
X151838641Y-152866748D01*
X151838641Y-152866751D01*
X145176712Y-152866751D01*
X145163063Y-152710742D01*
X145101903Y-152482487D01*
X145002035Y-152268321D01*
X144866495Y-152074749D01*
X144699401Y-151907655D01*
X144505829Y-151772115D01*
X144335561Y-151692717D01*
X144291666Y-151672248D01*
X144291663Y-151672247D01*
X144063408Y-151611087D01*
X144063409Y-151611087D01*
X143886970Y-151595650D01*
X143886966Y-151595650D01*
X143769034Y-151595650D01*
X143769029Y-151595650D01*
X143592590Y-151611087D01*
X143364333Y-151672248D01*
X143150176Y-151772112D01*
X143150168Y-151772117D01*
X142956596Y-151907657D01*
X142789507Y-152074746D01*
X142653967Y-152268317D01*
X142653962Y-152268325D01*
X142554098Y-152482483D01*
X142492937Y-152710740D01*
X142472341Y-152946148D01*
X142472341Y-152946151D01*
X139011600Y-152946151D01*
X139011600Y-150181582D01*
X142482599Y-150181582D01*
X142491017Y-150250490D01*
X142543665Y-150377598D01*
X142586428Y-150432261D01*
X142586436Y-150432270D01*
X143166886Y-151012718D01*
X143166893Y-151012724D01*
X143221554Y-151055484D01*
X143348661Y-151108133D01*
X143417557Y-151116549D01*
X143417562Y-151116550D01*
X143599800Y-151116550D01*
X143599800Y-150225402D01*
X143683408Y-150263585D01*
X143791666Y-150279150D01*
X143864334Y-150279150D01*
X143972592Y-150263585D01*
X144056200Y-150225402D01*
X144056200Y-151116550D01*
X144238431Y-151116550D01*
X144307340Y-151108132D01*
X144434448Y-151055484D01*
X144489111Y-151012721D01*
X144489120Y-151012713D01*
X145069568Y-150432263D01*
X145069574Y-150432256D01*
X145112334Y-150377595D01*
X145164983Y-150250488D01*
X145173399Y-150181592D01*
X145173400Y-150181587D01*
X145173400Y-149999350D01*
X144285206Y-149999350D01*
X144294845Y-149984351D01*
X144336000Y-149844189D01*
X144336000Y-149698111D01*
X144294845Y-149557949D01*
X144285206Y-149542950D01*
X145173401Y-149542950D01*
X145173401Y-149360719D01*
X145173400Y-149360717D01*
X145164982Y-149291809D01*
X145112334Y-149164701D01*
X145069571Y-149110038D01*
X145069563Y-149110029D01*
X144531818Y-148572285D01*
X144503592Y-148516887D01*
X144513318Y-148455479D01*
X144531818Y-148430015D01*
X145069568Y-147892263D01*
X145069574Y-147892256D01*
X145112334Y-147837595D01*
X145164983Y-147710488D01*
X145173399Y-147641592D01*
X145173400Y-147641587D01*
X145173400Y-147562182D01*
X151848899Y-147562182D01*
X151857317Y-147631090D01*
X151909965Y-147758198D01*
X151952728Y-147812861D01*
X151952736Y-147812870D01*
X152533186Y-148393318D01*
X152533193Y-148393324D01*
X152587854Y-148436084D01*
X152673594Y-148471599D01*
X152720872Y-148511978D01*
X152735386Y-148572434D01*
X152711593Y-148629876D01*
X152698921Y-148642302D01*
X152696214Y-148644523D01*
X152147073Y-149193664D01*
X152113418Y-149244034D01*
X152101599Y-149303450D01*
X152101599Y-150080054D01*
X152113417Y-150139464D01*
X152113417Y-150139465D01*
X152113418Y-150139466D01*
X152147075Y-150189837D01*
X152696214Y-150738976D01*
X152746584Y-150772631D01*
X152806000Y-150784450D01*
X153582601Y-150784451D01*
X153642016Y-150772632D01*
X153692387Y-150738975D01*
X154241526Y-150189836D01*
X154275181Y-150139466D01*
X154287000Y-150080050D01*
X154287001Y-149303449D01*
X154275182Y-149244034D01*
X154241525Y-149193663D01*
X153692386Y-148644524D01*
X153692385Y-148644523D01*
X153689680Y-148642303D01*
X153656162Y-148589937D01*
X153659826Y-148527871D01*
X153699271Y-148479811D01*
X153715007Y-148471598D01*
X153800748Y-148436083D01*
X153855411Y-148393321D01*
X153855420Y-148393313D01*
X154435868Y-147812863D01*
X154435874Y-147812856D01*
X154478634Y-147758195D01*
X154531283Y-147631088D01*
X154539699Y-147562192D01*
X154539700Y-147562187D01*
X154539700Y-147379950D01*
X153651506Y-147379950D01*
X153661145Y-147364951D01*
X153702300Y-147224789D01*
X153702300Y-147078711D01*
X153661145Y-146938549D01*
X153651506Y-146923550D01*
X154539701Y-146923550D01*
X154539701Y-146741319D01*
X154539700Y-146741317D01*
X154531282Y-146672409D01*
X154478634Y-146545301D01*
X154435871Y-146490638D01*
X154435863Y-146490629D01*
X153855413Y-145910181D01*
X153855406Y-145910175D01*
X153800746Y-145867416D01*
X153715004Y-145831900D01*
X153667727Y-145791521D01*
X153653213Y-145731064D01*
X153677007Y-145673623D01*
X153689691Y-145661187D01*
X153692380Y-145658979D01*
X153692387Y-145658975D01*
X154241526Y-145109836D01*
X154275181Y-145059466D01*
X154287000Y-145000050D01*
X154287001Y-144223449D01*
X154275182Y-144164034D01*
X154241525Y-144113663D01*
X153692386Y-143564524D01*
X153642016Y-143530869D01*
X153642015Y-143530868D01*
X153582595Y-143519049D01*
X152805995Y-143519049D01*
X152746585Y-143530867D01*
X152696214Y-143564524D01*
X152696213Y-143564524D01*
X152147073Y-144113664D01*
X152113418Y-144164034D01*
X152101599Y-144223450D01*
X152101599Y-145000054D01*
X152113417Y-145059464D01*
X152113417Y-145059465D01*
X152113418Y-145059466D01*
X152147075Y-145109837D01*
X152696217Y-145658979D01*
X152698917Y-145661195D01*
X152732436Y-145713561D01*
X152728774Y-145775627D01*
X152689330Y-145823687D01*
X152673593Y-145831900D01*
X152587854Y-145867414D01*
X152587852Y-145867415D01*
X152533188Y-145910178D01*
X152533179Y-145910186D01*
X151952731Y-146490636D01*
X151952725Y-146490643D01*
X151909965Y-146545304D01*
X151857316Y-146672411D01*
X151848900Y-146741307D01*
X151848900Y-146923550D01*
X152737094Y-146923550D01*
X152727455Y-146938549D01*
X152686300Y-147078711D01*
X152686300Y-147224789D01*
X152727455Y-147364951D01*
X152737094Y-147379950D01*
X151848899Y-147379950D01*
X151848899Y-147562182D01*
X145173400Y-147562182D01*
X145173400Y-147459350D01*
X144285206Y-147459350D01*
X144294845Y-147444351D01*
X144336000Y-147304189D01*
X144336000Y-147158111D01*
X144294845Y-147017949D01*
X144285206Y-147002950D01*
X145173401Y-147002950D01*
X145173401Y-146820719D01*
X145173400Y-146820717D01*
X145164982Y-146751809D01*
X145112334Y-146624701D01*
X145069571Y-146570038D01*
X145069563Y-146570029D01*
X144489113Y-145989581D01*
X144489106Y-145989575D01*
X144434445Y-145946815D01*
X144307339Y-145894166D01*
X144282913Y-145891182D01*
X144226548Y-145864940D01*
X144196373Y-145810579D01*
X144203913Y-145748864D01*
X144246288Y-145703367D01*
X144275488Y-145692657D01*
X144275616Y-145692632D01*
X144325987Y-145658975D01*
X144875126Y-145109836D01*
X144908781Y-145059466D01*
X144920600Y-145000050D01*
X144920601Y-144223449D01*
X144908782Y-144164034D01*
X144875125Y-144113663D01*
X144325986Y-143564524D01*
X144275616Y-143530869D01*
X144275615Y-143530868D01*
X144216195Y-143519049D01*
X143439595Y-143519049D01*
X143380185Y-143530867D01*
X143329814Y-143564524D01*
X143329813Y-143564524D01*
X142780673Y-144113664D01*
X142747018Y-144164034D01*
X142735199Y-144223450D01*
X142735199Y-145000054D01*
X142747017Y-145059464D01*
X142747017Y-145059465D01*
X142747018Y-145059466D01*
X142780675Y-145109837D01*
X143329814Y-145658976D01*
X143380184Y-145692631D01*
X143380388Y-145692671D01*
X143380691Y-145692841D01*
X143389338Y-145696423D01*
X143388914Y-145697445D01*
X143434636Y-145723047D01*
X143460669Y-145779509D01*
X143448543Y-145840489D01*
X143402890Y-145882696D01*
X143372968Y-145891196D01*
X143348665Y-145894165D01*
X143348660Y-145894166D01*
X143221551Y-145946815D01*
X143166888Y-145989578D01*
X143166879Y-145989586D01*
X142586431Y-146570036D01*
X142586425Y-146570043D01*
X142543665Y-146624704D01*
X142491016Y-146751811D01*
X142482600Y-146820707D01*
X142482600Y-147002950D01*
X143370794Y-147002950D01*
X143361155Y-147017949D01*
X143320000Y-147158111D01*
X143320000Y-147304189D01*
X143361155Y-147444351D01*
X143370794Y-147459350D01*
X142482599Y-147459350D01*
X142482599Y-147641582D01*
X142491017Y-147710490D01*
X142543665Y-147837598D01*
X142586428Y-147892261D01*
X142586436Y-147892270D01*
X143124181Y-148430014D01*
X143152407Y-148485412D01*
X143142681Y-148546820D01*
X143124181Y-148572284D01*
X142586431Y-149110036D01*
X142586425Y-149110043D01*
X142543665Y-149164704D01*
X142491016Y-149291811D01*
X142482600Y-149360707D01*
X142482600Y-149542950D01*
X143370794Y-149542950D01*
X143361155Y-149557949D01*
X143320000Y-149698111D01*
X143320000Y-149844189D01*
X143361155Y-149984351D01*
X143370794Y-149999350D01*
X142482599Y-149999350D01*
X142482599Y-150181582D01*
X139011600Y-150181582D01*
X139011600Y-140166750D01*
X142472241Y-140166750D01*
X142492837Y-140402158D01*
X142553997Y-140630413D01*
X142653865Y-140844579D01*
X142789405Y-141038151D01*
X142956499Y-141205245D01*
X143150071Y-141340785D01*
X143364237Y-141440653D01*
X143592492Y-141501813D01*
X143768934Y-141517250D01*
X143768946Y-141517250D01*
X143886854Y-141517250D01*
X143886866Y-141517250D01*
X144063308Y-141501813D01*
X144291563Y-141440653D01*
X144505729Y-141340785D01*
X144699301Y-141205245D01*
X144866395Y-141038151D01*
X145001935Y-140844580D01*
X145101803Y-140630413D01*
X145162963Y-140402158D01*
X145183559Y-140166750D01*
X151838641Y-140166750D01*
X151859237Y-140402158D01*
X151920397Y-140630413D01*
X152020265Y-140844579D01*
X152155805Y-141038151D01*
X152322899Y-141205245D01*
X152516471Y-141340785D01*
X152730637Y-141440653D01*
X152958892Y-141501813D01*
X153135334Y-141517250D01*
X153135346Y-141517250D01*
X153253254Y-141517250D01*
X153253266Y-141517250D01*
X153429708Y-141501813D01*
X153657963Y-141440653D01*
X153872129Y-141340785D01*
X154065701Y-141205245D01*
X154232795Y-141038151D01*
X154368335Y-140844580D01*
X154468203Y-140630413D01*
X154529363Y-140402158D01*
X154549959Y-140166750D01*
X154529363Y-139931342D01*
X154468203Y-139703087D01*
X154368335Y-139488921D01*
X154232795Y-139295349D01*
X154065701Y-139128255D01*
X153872129Y-138992715D01*
X153872123Y-138992712D01*
X153657966Y-138892848D01*
X153657963Y-138892847D01*
X153429708Y-138831687D01*
X153429709Y-138831687D01*
X153253270Y-138816250D01*
X153253266Y-138816250D01*
X153135334Y-138816250D01*
X153135329Y-138816250D01*
X152958890Y-138831687D01*
X152730633Y-138892848D01*
X152516476Y-138992712D01*
X152516468Y-138992717D01*
X152322896Y-139128257D01*
X152155807Y-139295346D01*
X152020267Y-139488917D01*
X152020262Y-139488925D01*
X151920398Y-139703083D01*
X151859237Y-139931340D01*
X151859236Y-139931342D01*
X151859237Y-139931342D01*
X151838641Y-140166750D01*
X145183559Y-140166750D01*
X145162963Y-139931342D01*
X145101803Y-139703087D01*
X145001935Y-139488921D01*
X144866395Y-139295349D01*
X144699301Y-139128255D01*
X144505729Y-138992715D01*
X144505723Y-138992712D01*
X144291566Y-138892848D01*
X144291563Y-138892847D01*
X144063308Y-138831687D01*
X144063309Y-138831687D01*
X143886870Y-138816250D01*
X143886866Y-138816250D01*
X143768934Y-138816250D01*
X143768929Y-138816250D01*
X143592490Y-138831687D01*
X143364233Y-138892848D01*
X143150076Y-138992712D01*
X143150068Y-138992717D01*
X142956496Y-139128257D01*
X142789407Y-139295346D01*
X142653867Y-139488917D01*
X142653862Y-139488925D01*
X142553998Y-139703083D01*
X142492837Y-139931340D01*
X142492836Y-139931342D01*
X142492837Y-139931342D01*
X142472241Y-140166750D01*
X139011600Y-140166750D01*
X139011600Y-126736996D01*
X139030813Y-126677865D01*
X139081113Y-126641320D01*
X139143287Y-126641320D01*
X139193587Y-126677865D01*
X139207155Y-126703770D01*
X139238346Y-126792910D01*
X139251617Y-126830834D01*
X139342458Y-126975407D01*
X139463193Y-127096142D01*
X139607766Y-127186983D01*
X139768929Y-127243377D01*
X139802863Y-127247200D01*
X139938596Y-127262494D01*
X139938600Y-127262494D01*
X139938604Y-127262494D01*
X140108265Y-127243378D01*
X140108266Y-127243377D01*
X140108271Y-127243377D01*
X140127149Y-127236770D01*
X140189306Y-127235375D01*
X140231510Y-127260590D01*
X143192990Y-130222070D01*
X143195955Y-130225306D01*
X143222751Y-130257239D01*
X143258835Y-130278072D01*
X143262538Y-130280431D01*
X143273422Y-130288052D01*
X143310840Y-130337706D01*
X143311925Y-130399871D01*
X143287004Y-130441446D01*
X143286764Y-130441687D01*
X143231425Y-130470029D01*
X143215481Y-130471300D01*
X142116539Y-130471300D01*
X142112153Y-130471108D01*
X142070910Y-130467500D01*
X142070909Y-130467500D01*
X142030908Y-130478217D01*
X142026625Y-130479166D01*
X141985848Y-130486357D01*
X141985845Y-130486357D01*
X141985844Y-130486358D01*
X141985843Y-130486358D01*
X141985838Y-130486360D01*
X141984585Y-130487084D01*
X141960343Y-130497125D01*
X141958947Y-130497499D01*
X141958941Y-130497501D01*
X141925022Y-130521251D01*
X141921322Y-130523608D01*
X141885457Y-130544316D01*
X141885455Y-130544317D01*
X141858834Y-130576041D01*
X141855869Y-130579276D01*
X141179270Y-131255876D01*
X141176034Y-131258841D01*
X141144317Y-131285456D01*
X141144316Y-131285456D01*
X141123612Y-131321315D01*
X141121255Y-131325015D01*
X141097503Y-131358937D01*
X141097499Y-131358944D01*
X141097127Y-131360336D01*
X141087081Y-131384590D01*
X141086358Y-131385841D01*
X141086357Y-131385843D01*
X141079167Y-131426618D01*
X141078218Y-131430900D01*
X141067499Y-131470909D01*
X141067499Y-131470910D01*
X141071108Y-131512163D01*
X141071300Y-131516549D01*
X141071300Y-134832348D01*
X141071109Y-134836720D01*
X141067499Y-134877990D01*
X141076112Y-134910137D01*
X141078216Y-134917987D01*
X141079166Y-134922273D01*
X141086358Y-134963057D01*
X141087078Y-134964304D01*
X141097127Y-134988563D01*
X141097499Y-134989953D01*
X141097500Y-134989954D01*
X141097501Y-134989958D01*
X141113647Y-135013017D01*
X141121250Y-135023876D01*
X141123608Y-135027577D01*
X141141286Y-135058195D01*
X141144317Y-135063444D01*
X141176041Y-135090064D01*
X141179273Y-135093025D01*
X141491242Y-135404994D01*
X141519468Y-135460392D01*
X141515062Y-135509354D01*
X141507722Y-135530329D01*
X141488606Y-135699995D01*
X141488606Y-135700004D01*
X141507722Y-135869669D01*
X141507723Y-135869671D01*
X141564117Y-136030834D01*
X141654958Y-136175407D01*
X141775693Y-136296142D01*
X141920266Y-136386983D01*
X142081429Y-136443377D01*
X142115363Y-136447200D01*
X142251096Y-136462494D01*
X142251100Y-136462494D01*
X142251103Y-136462494D01*
X142321023Y-136454615D01*
X142373880Y-136448660D01*
X142434791Y-136461131D01*
X142476738Y-136507023D01*
X142485002Y-136560824D01*
X142482500Y-136581304D01*
X142482500Y-136763550D01*
X143370694Y-136763550D01*
X143361055Y-136778549D01*
X143319900Y-136918711D01*
X143319900Y-137064789D01*
X143361055Y-137204951D01*
X143370694Y-137219950D01*
X142482499Y-137219950D01*
X142482499Y-137402182D01*
X142490917Y-137471090D01*
X142543565Y-137598198D01*
X142586328Y-137652861D01*
X142586336Y-137652870D01*
X143166786Y-138233318D01*
X143166793Y-138233324D01*
X143221454Y-138276084D01*
X143348561Y-138328733D01*
X143417457Y-138337149D01*
X143417462Y-138337150D01*
X143599700Y-138337150D01*
X143599700Y-137446002D01*
X143683308Y-137484185D01*
X143791566Y-137499750D01*
X143864234Y-137499750D01*
X143972492Y-137484185D01*
X144056100Y-137446002D01*
X144056100Y-138337150D01*
X144238331Y-138337150D01*
X144307240Y-138328732D01*
X144434348Y-138276084D01*
X144489011Y-138233321D01*
X144489020Y-138233313D01*
X145069468Y-137652863D01*
X145069474Y-137652856D01*
X145112234Y-137598195D01*
X145164883Y-137471088D01*
X145173299Y-137402192D01*
X145173300Y-137402187D01*
X145173300Y-137402182D01*
X151848899Y-137402182D01*
X151857317Y-137471090D01*
X151909965Y-137598198D01*
X151952728Y-137652861D01*
X151952736Y-137652870D01*
X152533186Y-138233318D01*
X152533193Y-138233324D01*
X152587854Y-138276084D01*
X152714961Y-138328733D01*
X152783857Y-138337149D01*
X152783862Y-138337150D01*
X152966100Y-138337150D01*
X152966100Y-137446002D01*
X153049708Y-137484185D01*
X153157966Y-137499750D01*
X153230634Y-137499750D01*
X153338892Y-137484185D01*
X153422500Y-137446002D01*
X153422500Y-138337150D01*
X153604731Y-138337150D01*
X153673640Y-138328732D01*
X153800748Y-138276084D01*
X153855411Y-138233321D01*
X153855420Y-138233313D01*
X154435868Y-137652863D01*
X154435874Y-137652856D01*
X154478634Y-137598195D01*
X154531283Y-137471088D01*
X154539699Y-137402192D01*
X154539700Y-137402187D01*
X154539700Y-137219950D01*
X153651506Y-137219950D01*
X153661145Y-137204951D01*
X153702300Y-137064789D01*
X153702300Y-136918711D01*
X153661145Y-136778549D01*
X153651506Y-136763550D01*
X154539701Y-136763550D01*
X154539701Y-136581319D01*
X154539700Y-136581317D01*
X154531282Y-136512409D01*
X154478634Y-136385301D01*
X154435871Y-136330638D01*
X154435863Y-136330629D01*
X153898118Y-135792885D01*
X153869892Y-135737487D01*
X153879618Y-135676079D01*
X153898118Y-135650615D01*
X154435868Y-135112863D01*
X154435874Y-135112856D01*
X154478634Y-135058195D01*
X154531283Y-134931088D01*
X154539699Y-134862192D01*
X154539700Y-134862187D01*
X154539700Y-134679950D01*
X153651506Y-134679950D01*
X153661145Y-134664951D01*
X153702300Y-134524789D01*
X153702300Y-134378711D01*
X153661145Y-134238549D01*
X153651506Y-134223550D01*
X154539701Y-134223550D01*
X154539701Y-134041319D01*
X154539700Y-134041317D01*
X154531282Y-133972409D01*
X154478634Y-133845301D01*
X154435871Y-133790638D01*
X154435863Y-133790629D01*
X153855413Y-133210181D01*
X153855406Y-133210175D01*
X153800745Y-133167415D01*
X153673638Y-133114766D01*
X153604742Y-133106350D01*
X153604737Y-133106349D01*
X153422500Y-133106349D01*
X153422500Y-133997497D01*
X153338892Y-133959315D01*
X153230634Y-133943750D01*
X153157966Y-133943750D01*
X153049708Y-133959315D01*
X152966100Y-133997497D01*
X152966100Y-133106349D01*
X152783867Y-133106349D01*
X152714959Y-133114767D01*
X152587851Y-133167415D01*
X152533188Y-133210178D01*
X152533179Y-133210186D01*
X151952731Y-133790636D01*
X151952725Y-133790643D01*
X151909965Y-133845304D01*
X151857316Y-133972411D01*
X151848900Y-134041307D01*
X151848900Y-134223550D01*
X152737094Y-134223550D01*
X152727455Y-134238549D01*
X152686300Y-134378711D01*
X152686300Y-134524789D01*
X152727455Y-134664951D01*
X152737094Y-134679950D01*
X151848899Y-134679950D01*
X151848899Y-134862182D01*
X151857317Y-134931090D01*
X151909965Y-135058198D01*
X151952728Y-135112861D01*
X151952736Y-135112870D01*
X152490481Y-135650614D01*
X152518707Y-135706012D01*
X152508981Y-135767420D01*
X152490481Y-135792884D01*
X151952731Y-136330636D01*
X151952725Y-136330643D01*
X151909965Y-136385304D01*
X151857316Y-136512411D01*
X151848900Y-136581307D01*
X151848900Y-136763550D01*
X152737094Y-136763550D01*
X152727455Y-136778549D01*
X152686300Y-136918711D01*
X152686300Y-137064789D01*
X152727455Y-137204951D01*
X152737094Y-137219950D01*
X151848899Y-137219950D01*
X151848899Y-137402182D01*
X145173300Y-137402182D01*
X145173300Y-137219950D01*
X144285106Y-137219950D01*
X144294745Y-137204951D01*
X144335900Y-137064789D01*
X144335900Y-136918711D01*
X144294745Y-136778549D01*
X144285106Y-136763550D01*
X145173301Y-136763550D01*
X145173301Y-136581319D01*
X145173300Y-136581317D01*
X145164882Y-136512409D01*
X145112234Y-136385301D01*
X145069471Y-136330638D01*
X145069463Y-136330629D01*
X144531718Y-135792885D01*
X144503492Y-135737487D01*
X144513218Y-135676079D01*
X144531718Y-135650615D01*
X145069468Y-135112863D01*
X145069474Y-135112856D01*
X145112234Y-135058195D01*
X145164883Y-134931088D01*
X145173299Y-134862192D01*
X145173300Y-134862187D01*
X145173300Y-134679950D01*
X144285106Y-134679950D01*
X144294745Y-134664951D01*
X144335900Y-134524789D01*
X144335900Y-134378711D01*
X144294745Y-134238549D01*
X144285106Y-134223550D01*
X145173301Y-134223550D01*
X145173301Y-134041319D01*
X145173300Y-134041317D01*
X145164882Y-133972409D01*
X145112234Y-133845301D01*
X145069471Y-133790638D01*
X145069463Y-133790629D01*
X144489013Y-133210181D01*
X144489006Y-133210175D01*
X144434345Y-133167415D01*
X144307238Y-133114766D01*
X144238342Y-133106350D01*
X144238337Y-133106349D01*
X144056100Y-133106349D01*
X144056100Y-133997497D01*
X143972492Y-133959315D01*
X143864234Y-133943750D01*
X143791566Y-133943750D01*
X143683308Y-133959315D01*
X143599700Y-133997497D01*
X143599700Y-133106349D01*
X143417467Y-133106349D01*
X143348559Y-133114767D01*
X143221451Y-133167415D01*
X143166788Y-133210178D01*
X143166779Y-133210186D01*
X142586331Y-133790636D01*
X142586325Y-133790643D01*
X142543565Y-133845304D01*
X142490916Y-133972411D01*
X142482500Y-134041307D01*
X142482500Y-134223550D01*
X143370694Y-134223550D01*
X143361055Y-134238549D01*
X143319900Y-134378711D01*
X143319900Y-134524789D01*
X143361055Y-134664951D01*
X143370694Y-134679950D01*
X142482499Y-134679950D01*
X142482499Y-134851006D01*
X142463286Y-134910137D01*
X142412986Y-134946682D01*
X142370636Y-134950974D01*
X142329122Y-134946296D01*
X142251100Y-134937506D01*
X142251098Y-134937506D01*
X142251096Y-134937506D01*
X142081429Y-134956622D01*
X142060454Y-134963962D01*
X141998296Y-134965357D01*
X141956094Y-134940142D01*
X141758165Y-134742213D01*
X141729939Y-134686815D01*
X141728700Y-134671078D01*
X141728700Y-132491750D01*
X141747913Y-132432619D01*
X141798213Y-132396074D01*
X141860387Y-132396074D01*
X141900433Y-132420613D01*
X142147646Y-132667826D01*
X142198015Y-132701482D01*
X142257430Y-132713300D01*
X142802570Y-132713301D01*
X142861985Y-132701482D01*
X142912356Y-132667825D01*
X143297826Y-132282354D01*
X143331482Y-132231985D01*
X143343300Y-132172570D01*
X143343300Y-131784720D01*
X143362513Y-131725592D01*
X143412813Y-131689047D01*
X143474987Y-131689047D01*
X143477127Y-131689769D01*
X143630328Y-131743377D01*
X143799996Y-131762494D01*
X143800000Y-131762494D01*
X143800004Y-131762494D01*
X143969671Y-131743377D01*
X143969672Y-131743377D01*
X144122872Y-131689769D01*
X144185031Y-131688373D01*
X144236138Y-131723780D01*
X144256674Y-131782465D01*
X144256699Y-131784723D01*
X144256699Y-132172573D01*
X144268517Y-132231983D01*
X144268517Y-132231984D01*
X144268518Y-132231985D01*
X144302175Y-132282356D01*
X144687646Y-132667826D01*
X144738015Y-132701482D01*
X144797430Y-132713300D01*
X145342570Y-132713301D01*
X145401985Y-132701482D01*
X145452356Y-132667825D01*
X145837826Y-132282354D01*
X145871482Y-132231985D01*
X145883300Y-132172570D01*
X145883301Y-131627430D01*
X145871482Y-131568015D01*
X145837825Y-131517644D01*
X145452354Y-131132174D01*
X145452352Y-131132172D01*
X145416737Y-131108375D01*
X145401985Y-131098518D01*
X145401984Y-131098517D01*
X145401983Y-131098517D01*
X145342567Y-131086699D01*
X144797426Y-131086699D01*
X144738014Y-131098517D01*
X144716308Y-131113021D01*
X144656468Y-131129896D01*
X144598137Y-131108375D01*
X144563596Y-131056678D01*
X144560453Y-131018111D01*
X144562494Y-131000000D01*
X144562494Y-130999998D01*
X144562494Y-130999995D01*
X144543377Y-130830330D01*
X144515313Y-130750127D01*
X144486983Y-130669166D01*
X144396142Y-130524593D01*
X144373984Y-130502435D01*
X144345758Y-130447037D01*
X144355484Y-130385629D01*
X144399448Y-130341665D01*
X144445119Y-130330700D01*
X145859192Y-130330700D01*
X145918323Y-130349913D01*
X145944371Y-130377776D01*
X146009958Y-130482157D01*
X146130693Y-130602892D01*
X146275266Y-130693733D01*
X146436429Y-130750127D01*
X146470363Y-130753950D01*
X146606096Y-130769244D01*
X146606100Y-130769244D01*
X146606104Y-130769244D01*
X146719214Y-130756499D01*
X146775771Y-130750127D01*
X146936934Y-130693733D01*
X147081507Y-130602892D01*
X147202242Y-130482157D01*
X147293083Y-130337584D01*
X147349477Y-130176421D01*
X147368594Y-130006750D01*
X147368594Y-130006745D01*
X147349477Y-129837080D01*
X147293083Y-129675917D01*
X147293083Y-129675916D01*
X147202242Y-129531343D01*
X147081507Y-129410608D01*
X146936934Y-129319767D01*
X146936933Y-129319766D01*
X146936932Y-129319766D01*
X146775769Y-129263372D01*
X146606104Y-129244256D01*
X146606096Y-129244256D01*
X146436430Y-129263372D01*
X146275267Y-129319766D01*
X146130694Y-129410607D01*
X146130691Y-129410609D01*
X146009959Y-129531341D01*
X146009958Y-129531343D01*
X145952853Y-129622223D01*
X145905128Y-129662068D01*
X145867675Y-129669300D01*
X143617250Y-129669300D01*
X143558119Y-129650087D01*
X143546115Y-129639835D01*
X140699190Y-126792910D01*
X140670964Y-126737512D01*
X140675370Y-126688549D01*
X140681977Y-126669671D01*
X140681978Y-126669665D01*
X140701094Y-126500004D01*
X140701094Y-126499995D01*
X140685163Y-126358607D01*
X140681977Y-126330329D01*
X140625583Y-126169166D01*
X140534742Y-126024593D01*
X140414007Y-125903858D01*
X140269434Y-125813017D01*
X140269433Y-125813016D01*
X140269432Y-125813016D01*
X140108269Y-125756622D01*
X139938604Y-125737506D01*
X139938596Y-125737506D01*
X139768930Y-125756622D01*
X139607767Y-125813016D01*
X139463194Y-125903857D01*
X139463191Y-125903859D01*
X139342459Y-126024591D01*
X139342457Y-126024594D01*
X139251616Y-126169167D01*
X139207155Y-126296229D01*
X139169490Y-126345697D01*
X139109942Y-126363578D01*
X139051257Y-126343043D01*
X139015850Y-126291935D01*
X139011600Y-126263003D01*
X139011600Y-124702182D01*
X142482599Y-124702182D01*
X142491017Y-124771090D01*
X142543665Y-124898198D01*
X142586428Y-124952861D01*
X142586436Y-124952870D01*
X143166886Y-125533318D01*
X143166893Y-125533324D01*
X143221554Y-125576084D01*
X143348661Y-125628733D01*
X143417557Y-125637149D01*
X143417562Y-125637150D01*
X143599800Y-125637150D01*
X143599800Y-124746002D01*
X143683408Y-124784185D01*
X143791666Y-124799750D01*
X143864334Y-124799750D01*
X143972592Y-124784185D01*
X144056200Y-124746002D01*
X144056200Y-125637150D01*
X144238431Y-125637150D01*
X144307340Y-125628732D01*
X144434448Y-125576084D01*
X144489111Y-125533321D01*
X144489120Y-125533313D01*
X145069568Y-124952863D01*
X145069574Y-124952856D01*
X145112334Y-124898195D01*
X145164983Y-124771088D01*
X145173399Y-124702192D01*
X145173400Y-124702187D01*
X145173400Y-124702182D01*
X151848799Y-124702182D01*
X151857217Y-124771090D01*
X151909865Y-124898198D01*
X151952628Y-124952861D01*
X151952636Y-124952870D01*
X152533086Y-125533318D01*
X152533093Y-125533324D01*
X152587754Y-125576084D01*
X152714861Y-125628733D01*
X152783757Y-125637149D01*
X152783762Y-125637150D01*
X152966000Y-125637150D01*
X152966000Y-124746002D01*
X153049608Y-124784185D01*
X153157866Y-124799750D01*
X153230534Y-124799750D01*
X153338792Y-124784185D01*
X153422400Y-124746002D01*
X153422400Y-125637150D01*
X153604631Y-125637150D01*
X153673540Y-125628732D01*
X153800648Y-125576084D01*
X153855311Y-125533321D01*
X153855320Y-125533313D01*
X154435768Y-124952863D01*
X154435774Y-124952856D01*
X154478534Y-124898195D01*
X154531183Y-124771088D01*
X154539599Y-124702192D01*
X154539600Y-124702187D01*
X154539600Y-124519950D01*
X153651406Y-124519950D01*
X153661045Y-124504951D01*
X153702200Y-124364789D01*
X153702200Y-124218711D01*
X153661045Y-124078549D01*
X153651406Y-124063550D01*
X154539601Y-124063550D01*
X154539601Y-123881319D01*
X154539600Y-123881317D01*
X154531182Y-123812409D01*
X154478534Y-123685301D01*
X154435771Y-123630638D01*
X154435763Y-123630629D01*
X153855313Y-123050181D01*
X153855306Y-123050175D01*
X153800646Y-123007416D01*
X153714904Y-122971900D01*
X153667627Y-122931521D01*
X153653113Y-122871064D01*
X153676907Y-122813623D01*
X153689591Y-122801187D01*
X153692280Y-122798979D01*
X153692287Y-122798975D01*
X154241426Y-122249836D01*
X154275081Y-122199466D01*
X154286900Y-122140050D01*
X154286901Y-121363449D01*
X154275082Y-121304034D01*
X154241425Y-121253663D01*
X153692286Y-120704524D01*
X153641916Y-120670869D01*
X153641915Y-120670868D01*
X153582495Y-120659049D01*
X152805895Y-120659049D01*
X152746485Y-120670867D01*
X152696114Y-120704524D01*
X152696112Y-120704525D01*
X152146973Y-121253664D01*
X152113318Y-121304034D01*
X152101499Y-121363450D01*
X152101499Y-122140054D01*
X152113317Y-122199464D01*
X152113317Y-122199465D01*
X152113318Y-122199466D01*
X152146975Y-122249837D01*
X152696117Y-122798979D01*
X152698817Y-122801195D01*
X152732336Y-122853561D01*
X152728674Y-122915627D01*
X152689230Y-122963687D01*
X152673493Y-122971900D01*
X152587754Y-123007414D01*
X152587752Y-123007415D01*
X152533088Y-123050178D01*
X152533079Y-123050186D01*
X151952631Y-123630636D01*
X151952625Y-123630643D01*
X151909865Y-123685304D01*
X151857216Y-123812411D01*
X151848800Y-123881307D01*
X151848800Y-124063550D01*
X152736994Y-124063550D01*
X152727355Y-124078549D01*
X152686200Y-124218711D01*
X152686200Y-124364789D01*
X152727355Y-124504951D01*
X152736994Y-124519950D01*
X151848799Y-124519950D01*
X151848799Y-124702182D01*
X145173400Y-124702182D01*
X145173400Y-124519950D01*
X144285206Y-124519950D01*
X144294845Y-124504951D01*
X144336000Y-124364789D01*
X144336000Y-124218711D01*
X144294845Y-124078549D01*
X144285206Y-124063550D01*
X145173401Y-124063550D01*
X145173401Y-123881319D01*
X145173400Y-123881317D01*
X145164982Y-123812409D01*
X145112334Y-123685301D01*
X145069571Y-123630638D01*
X145069563Y-123630629D01*
X144489113Y-123050181D01*
X144489106Y-123050175D01*
X144434446Y-123007416D01*
X144348704Y-122971900D01*
X144301427Y-122931521D01*
X144286913Y-122871064D01*
X144310707Y-122813623D01*
X144323391Y-122801187D01*
X144326080Y-122798979D01*
X144326087Y-122798975D01*
X144875226Y-122249836D01*
X144908881Y-122199466D01*
X144920700Y-122140050D01*
X144920701Y-121363449D01*
X144908882Y-121304034D01*
X144875225Y-121253663D01*
X144326086Y-120704524D01*
X144275716Y-120670869D01*
X144275715Y-120670868D01*
X144216295Y-120659049D01*
X143439695Y-120659049D01*
X143380285Y-120670867D01*
X143329914Y-120704524D01*
X143329912Y-120704525D01*
X142780773Y-121253664D01*
X142747118Y-121304034D01*
X142735299Y-121363450D01*
X142735299Y-122140054D01*
X142747117Y-122199464D01*
X142747117Y-122199465D01*
X142747118Y-122199466D01*
X142780775Y-122249837D01*
X143329917Y-122798979D01*
X143332617Y-122801195D01*
X143366136Y-122853561D01*
X143362474Y-122915627D01*
X143323030Y-122963687D01*
X143307293Y-122971900D01*
X143221554Y-123007414D01*
X143221552Y-123007415D01*
X143166888Y-123050178D01*
X143166879Y-123050186D01*
X142586431Y-123630636D01*
X142586425Y-123630643D01*
X142543665Y-123685304D01*
X142491016Y-123812411D01*
X142482600Y-123881307D01*
X142482600Y-124063550D01*
X143370794Y-124063550D01*
X143361155Y-124078549D01*
X143320000Y-124218711D01*
X143320000Y-124364789D01*
X143361155Y-124504951D01*
X143370794Y-124519950D01*
X142482599Y-124519950D01*
X142482599Y-124702182D01*
X139011600Y-124702182D01*
X139011600Y-118576750D01*
X142472341Y-118576750D01*
X142492937Y-118812158D01*
X142554097Y-119040413D01*
X142653965Y-119254579D01*
X142789505Y-119448151D01*
X142956599Y-119615245D01*
X143150171Y-119750785D01*
X143364337Y-119850653D01*
X143592592Y-119911813D01*
X143769034Y-119927250D01*
X143769046Y-119927250D01*
X143886954Y-119927250D01*
X143886966Y-119927250D01*
X144063408Y-119911813D01*
X144291663Y-119850653D01*
X144505829Y-119750785D01*
X144699401Y-119615245D01*
X144866495Y-119448151D01*
X145002035Y-119254580D01*
X145101903Y-119040413D01*
X145163063Y-118812158D01*
X145183659Y-118576750D01*
X151838541Y-118576750D01*
X151859137Y-118812158D01*
X151920297Y-119040413D01*
X152020165Y-119254579D01*
X152155705Y-119448151D01*
X152322799Y-119615245D01*
X152516371Y-119750785D01*
X152730537Y-119850653D01*
X152958792Y-119911813D01*
X153135234Y-119927250D01*
X153135246Y-119927250D01*
X153253154Y-119927250D01*
X153253166Y-119927250D01*
X153429608Y-119911813D01*
X153657863Y-119850653D01*
X153872029Y-119750785D01*
X154065601Y-119615245D01*
X154232695Y-119448151D01*
X154368235Y-119254580D01*
X154468103Y-119040413D01*
X154529263Y-118812158D01*
X154549859Y-118576750D01*
X154529263Y-118341342D01*
X154468103Y-118113087D01*
X154368235Y-117898921D01*
X154232695Y-117705349D01*
X154065601Y-117538255D01*
X153872029Y-117402715D01*
X153872023Y-117402712D01*
X153657866Y-117302848D01*
X153657863Y-117302847D01*
X153429608Y-117241687D01*
X153429609Y-117241687D01*
X153253170Y-117226250D01*
X153253166Y-117226250D01*
X153135234Y-117226250D01*
X153135229Y-117226250D01*
X152958790Y-117241687D01*
X152730533Y-117302848D01*
X152516376Y-117402712D01*
X152516368Y-117402717D01*
X152322796Y-117538257D01*
X152155707Y-117705346D01*
X152020167Y-117898917D01*
X152020162Y-117898925D01*
X151920298Y-118113083D01*
X151859137Y-118341340D01*
X151859136Y-118341342D01*
X151859137Y-118341342D01*
X151838541Y-118576750D01*
X145183659Y-118576750D01*
X145163063Y-118341342D01*
X145101903Y-118113087D01*
X145002035Y-117898921D01*
X144866495Y-117705349D01*
X144699401Y-117538255D01*
X144505829Y-117402715D01*
X144505823Y-117402712D01*
X144291666Y-117302848D01*
X144291663Y-117302847D01*
X144063408Y-117241687D01*
X144063409Y-117241687D01*
X143886970Y-117226250D01*
X143886966Y-117226250D01*
X143769034Y-117226250D01*
X143769029Y-117226250D01*
X143592590Y-117241687D01*
X143364333Y-117302848D01*
X143150176Y-117402712D01*
X143150168Y-117402717D01*
X142956596Y-117538257D01*
X142789507Y-117705346D01*
X142653967Y-117898917D01*
X142653962Y-117898925D01*
X142554098Y-118113083D01*
X142492937Y-118341340D01*
X142492936Y-118341342D01*
X142492937Y-118341342D01*
X142472341Y-118576750D01*
X139011600Y-118576750D01*
X139011600Y-112002182D01*
X142482499Y-112002182D01*
X142490917Y-112071090D01*
X142543565Y-112198198D01*
X142586328Y-112252861D01*
X142586336Y-112252870D01*
X143166786Y-112833318D01*
X143166793Y-112833324D01*
X143221454Y-112876084D01*
X143307261Y-112911626D01*
X143354538Y-112952004D01*
X143369053Y-113012460D01*
X143345260Y-113069902D01*
X143332589Y-113082328D01*
X143329915Y-113084522D01*
X142780773Y-113633664D01*
X142747118Y-113684034D01*
X142735299Y-113743450D01*
X142735299Y-114520054D01*
X142747117Y-114579464D01*
X142747117Y-114579465D01*
X142747118Y-114579466D01*
X142780775Y-114629837D01*
X143329914Y-115178976D01*
X143380284Y-115212631D01*
X143439700Y-115224450D01*
X144216301Y-115224451D01*
X144275716Y-115212632D01*
X144326087Y-115178975D01*
X144875226Y-114629836D01*
X144908881Y-114579466D01*
X144920700Y-114520050D01*
X144920701Y-113743449D01*
X144908882Y-113684034D01*
X144875225Y-113633663D01*
X144326086Y-113084524D01*
X144326079Y-113084517D01*
X144323346Y-113082274D01*
X144289828Y-113029908D01*
X144293492Y-112967842D01*
X144332938Y-112919783D01*
X144348674Y-112911570D01*
X144434347Y-112876084D01*
X144489011Y-112833321D01*
X144489020Y-112833313D01*
X145069468Y-112252863D01*
X145069474Y-112252856D01*
X145112234Y-112198195D01*
X145164883Y-112071088D01*
X145173299Y-112002192D01*
X145173300Y-112002187D01*
X145173300Y-112002182D01*
X151848699Y-112002182D01*
X151857117Y-112071090D01*
X151909765Y-112198198D01*
X151952528Y-112252861D01*
X151952536Y-112252870D01*
X152532986Y-112833318D01*
X152532993Y-112833324D01*
X152587654Y-112876084D01*
X152673461Y-112911626D01*
X152720738Y-112952004D01*
X152735253Y-113012460D01*
X152711460Y-113069902D01*
X152698789Y-113082328D01*
X152696115Y-113084522D01*
X152146973Y-113633664D01*
X152113318Y-113684034D01*
X152101499Y-113743450D01*
X152101499Y-114520054D01*
X152113317Y-114579464D01*
X152113317Y-114579465D01*
X152113318Y-114579466D01*
X152146975Y-114629837D01*
X152696114Y-115178976D01*
X152746484Y-115212631D01*
X152805900Y-115224450D01*
X153582501Y-115224451D01*
X153641916Y-115212632D01*
X153692287Y-115178975D01*
X154241426Y-114629836D01*
X154275081Y-114579466D01*
X154286900Y-114520050D01*
X154286901Y-113743449D01*
X154275082Y-113684034D01*
X154241425Y-113633663D01*
X154241425Y-113633662D01*
X153692279Y-113084517D01*
X153689546Y-113082274D01*
X153656028Y-113029908D01*
X153659692Y-112967842D01*
X153699138Y-112919783D01*
X153714874Y-112911570D01*
X153800547Y-112876084D01*
X153855211Y-112833321D01*
X153855220Y-112833313D01*
X154435668Y-112252863D01*
X154435674Y-112252856D01*
X154478434Y-112198195D01*
X154531083Y-112071088D01*
X154539499Y-112002192D01*
X154539500Y-112002187D01*
X154539500Y-111819950D01*
X153651306Y-111819950D01*
X153660945Y-111804951D01*
X153702100Y-111664789D01*
X153702100Y-111518711D01*
X153660945Y-111378549D01*
X153651306Y-111363550D01*
X154539501Y-111363550D01*
X154539501Y-111181319D01*
X154539500Y-111181317D01*
X154531082Y-111112409D01*
X154478434Y-110985301D01*
X154435671Y-110930638D01*
X154435663Y-110930629D01*
X153897918Y-110392885D01*
X153869692Y-110337487D01*
X153879418Y-110276079D01*
X153897918Y-110250615D01*
X154435668Y-109712863D01*
X154435674Y-109712856D01*
X154478434Y-109658195D01*
X154531083Y-109531088D01*
X154539499Y-109462192D01*
X154539500Y-109462187D01*
X154539500Y-109279950D01*
X153651306Y-109279950D01*
X153660945Y-109264951D01*
X153702100Y-109124789D01*
X153702100Y-108978711D01*
X153660945Y-108838549D01*
X153651306Y-108823550D01*
X154539501Y-108823550D01*
X154539501Y-108641319D01*
X154539500Y-108641317D01*
X154531082Y-108572409D01*
X154478434Y-108445301D01*
X154435671Y-108390638D01*
X154435663Y-108390629D01*
X153855213Y-107810181D01*
X153855206Y-107810175D01*
X153800545Y-107767415D01*
X153673438Y-107714766D01*
X153604542Y-107706350D01*
X153604537Y-107706349D01*
X153422300Y-107706349D01*
X153422300Y-108597497D01*
X153338692Y-108559315D01*
X153230434Y-108543750D01*
X153157766Y-108543750D01*
X153049508Y-108559315D01*
X152965900Y-108597497D01*
X152965900Y-107706349D01*
X152783667Y-107706349D01*
X152714759Y-107714767D01*
X152587651Y-107767415D01*
X152532988Y-107810178D01*
X152532979Y-107810186D01*
X151952531Y-108390636D01*
X151952525Y-108390643D01*
X151909765Y-108445304D01*
X151857116Y-108572411D01*
X151848700Y-108641307D01*
X151848700Y-108823550D01*
X152736894Y-108823550D01*
X152727255Y-108838549D01*
X152686100Y-108978711D01*
X152686100Y-109124789D01*
X152727255Y-109264951D01*
X152736894Y-109279950D01*
X151848699Y-109279950D01*
X151848699Y-109462182D01*
X151857117Y-109531090D01*
X151909765Y-109658198D01*
X151952528Y-109712861D01*
X151952536Y-109712870D01*
X152490281Y-110250614D01*
X152518507Y-110306012D01*
X152508781Y-110367420D01*
X152490281Y-110392884D01*
X151952531Y-110930636D01*
X151952525Y-110930643D01*
X151909765Y-110985304D01*
X151857116Y-111112411D01*
X151848700Y-111181307D01*
X151848700Y-111363550D01*
X152736894Y-111363550D01*
X152727255Y-111378549D01*
X152686100Y-111518711D01*
X152686100Y-111664789D01*
X152727255Y-111804951D01*
X152736894Y-111819950D01*
X151848699Y-111819950D01*
X151848699Y-112002182D01*
X145173300Y-112002182D01*
X145173300Y-111819950D01*
X144285106Y-111819950D01*
X144294745Y-111804951D01*
X144335900Y-111664789D01*
X144335900Y-111518711D01*
X144294745Y-111378549D01*
X144285106Y-111363550D01*
X145173301Y-111363550D01*
X145173301Y-111181319D01*
X145173300Y-111181317D01*
X145164882Y-111112409D01*
X145112234Y-110985301D01*
X145069471Y-110930638D01*
X145069463Y-110930629D01*
X144531718Y-110392885D01*
X144503492Y-110337487D01*
X144513218Y-110276079D01*
X144531718Y-110250615D01*
X145069468Y-109712863D01*
X145069474Y-109712856D01*
X145112234Y-109658195D01*
X145164883Y-109531088D01*
X145173299Y-109462192D01*
X145173300Y-109462187D01*
X145173300Y-109279950D01*
X144285106Y-109279950D01*
X144294745Y-109264951D01*
X144335900Y-109124789D01*
X144335900Y-108978711D01*
X144294745Y-108838549D01*
X144285106Y-108823550D01*
X145173301Y-108823550D01*
X145173301Y-108641319D01*
X145173300Y-108641317D01*
X145164882Y-108572409D01*
X145112234Y-108445301D01*
X145069471Y-108390638D01*
X145069463Y-108390629D01*
X144489013Y-107810181D01*
X144489006Y-107810175D01*
X144434345Y-107767415D01*
X144307238Y-107714766D01*
X144238342Y-107706350D01*
X144238337Y-107706349D01*
X144056100Y-107706349D01*
X144056100Y-108597497D01*
X143972492Y-108559315D01*
X143864234Y-108543750D01*
X143791566Y-108543750D01*
X143683308Y-108559315D01*
X143599700Y-108597497D01*
X143599700Y-107706349D01*
X143417467Y-107706349D01*
X143348559Y-107714767D01*
X143221451Y-107767415D01*
X143166788Y-107810178D01*
X143166779Y-107810186D01*
X142586331Y-108390636D01*
X142586325Y-108390643D01*
X142543565Y-108445304D01*
X142490916Y-108572411D01*
X142482500Y-108641307D01*
X142482500Y-108823550D01*
X143370694Y-108823550D01*
X143361055Y-108838549D01*
X143319900Y-108978711D01*
X143319900Y-109124789D01*
X143361055Y-109264951D01*
X143370694Y-109279950D01*
X142482499Y-109279950D01*
X142482499Y-109462182D01*
X142490917Y-109531090D01*
X142543565Y-109658198D01*
X142586328Y-109712861D01*
X142586336Y-109712870D01*
X143124081Y-110250614D01*
X143152307Y-110306012D01*
X143142581Y-110367420D01*
X143124081Y-110392884D01*
X142586331Y-110930636D01*
X142586325Y-110930643D01*
X142543565Y-110985304D01*
X142490916Y-111112411D01*
X142482500Y-111181307D01*
X142482500Y-111363550D01*
X143370694Y-111363550D01*
X143361055Y-111378549D01*
X143319900Y-111518711D01*
X143319900Y-111664789D01*
X143361055Y-111804951D01*
X143370694Y-111819950D01*
X142482499Y-111819950D01*
X142482499Y-112002182D01*
X139011600Y-112002182D01*
X139011600Y-105876750D01*
X142472241Y-105876750D01*
X142492837Y-106112158D01*
X142553997Y-106340413D01*
X142653865Y-106554579D01*
X142789405Y-106748151D01*
X142956499Y-106915245D01*
X143150071Y-107050785D01*
X143364237Y-107150653D01*
X143592492Y-107211813D01*
X143768934Y-107227250D01*
X143768946Y-107227250D01*
X143886854Y-107227250D01*
X143886866Y-107227250D01*
X144063308Y-107211813D01*
X144291563Y-107150653D01*
X144505729Y-107050785D01*
X144699301Y-106915245D01*
X144866395Y-106748151D01*
X145001935Y-106554580D01*
X145101803Y-106340413D01*
X145162963Y-106112158D01*
X145183559Y-105876750D01*
X151838441Y-105876750D01*
X151859037Y-106112158D01*
X151920197Y-106340413D01*
X152020065Y-106554579D01*
X152155605Y-106748151D01*
X152322699Y-106915245D01*
X152516271Y-107050785D01*
X152730437Y-107150653D01*
X152958692Y-107211813D01*
X153135134Y-107227250D01*
X153135146Y-107227250D01*
X153253054Y-107227250D01*
X153253066Y-107227250D01*
X153429508Y-107211813D01*
X153657763Y-107150653D01*
X153871929Y-107050785D01*
X154065501Y-106915245D01*
X154232595Y-106748151D01*
X154368135Y-106554580D01*
X154468003Y-106340413D01*
X154529163Y-106112158D01*
X154549759Y-105876750D01*
X154529163Y-105641342D01*
X154468003Y-105413087D01*
X154368135Y-105198921D01*
X154232595Y-105005349D01*
X154065501Y-104838255D01*
X153871929Y-104702715D01*
X153871923Y-104702712D01*
X153657766Y-104602848D01*
X153657763Y-104602847D01*
X153429508Y-104541687D01*
X153429509Y-104541687D01*
X153253070Y-104526250D01*
X153253066Y-104526250D01*
X153135134Y-104526250D01*
X153135129Y-104526250D01*
X152958690Y-104541687D01*
X152730433Y-104602848D01*
X152516276Y-104702712D01*
X152516268Y-104702717D01*
X152322696Y-104838257D01*
X152155607Y-105005346D01*
X152020067Y-105198917D01*
X152020062Y-105198925D01*
X151920198Y-105413083D01*
X151859037Y-105641340D01*
X151859036Y-105641342D01*
X151859037Y-105641342D01*
X151838441Y-105876750D01*
X145183559Y-105876750D01*
X145162963Y-105641342D01*
X145101803Y-105413087D01*
X145001935Y-105198921D01*
X144866395Y-105005349D01*
X144699301Y-104838255D01*
X144505729Y-104702715D01*
X144505723Y-104702712D01*
X144291566Y-104602848D01*
X144291563Y-104602847D01*
X144063308Y-104541687D01*
X144063309Y-104541687D01*
X143886870Y-104526250D01*
X143886866Y-104526250D01*
X143768934Y-104526250D01*
X143768929Y-104526250D01*
X143592490Y-104541687D01*
X143364233Y-104602848D01*
X143150076Y-104702712D01*
X143150068Y-104702717D01*
X142956496Y-104838257D01*
X142789407Y-105005346D01*
X142653867Y-105198917D01*
X142653862Y-105198925D01*
X142553998Y-105413083D01*
X142492837Y-105641340D01*
X142492836Y-105641342D01*
X142492837Y-105641342D01*
X142472241Y-105876750D01*
X139011600Y-105876750D01*
X139011600Y-101820054D01*
X142735199Y-101820054D01*
X142747017Y-101879464D01*
X142747017Y-101879465D01*
X142747018Y-101879466D01*
X142780675Y-101929837D01*
X143329814Y-102478976D01*
X143380184Y-102512631D01*
X143439600Y-102524450D01*
X144216201Y-102524451D01*
X144275616Y-102512632D01*
X144325987Y-102478975D01*
X144875126Y-101929836D01*
X144908781Y-101879466D01*
X144920599Y-101820054D01*
X152101399Y-101820054D01*
X152113217Y-101879464D01*
X152113217Y-101879465D01*
X152113218Y-101879466D01*
X152146875Y-101929837D01*
X152696014Y-102478976D01*
X152746384Y-102512631D01*
X152805800Y-102524450D01*
X153582401Y-102524451D01*
X153641816Y-102512632D01*
X153692187Y-102478975D01*
X154241326Y-101929836D01*
X154274981Y-101879466D01*
X154286800Y-101820050D01*
X154286801Y-101043449D01*
X154274982Y-100984034D01*
X154241325Y-100933663D01*
X153692186Y-100384524D01*
X153641816Y-100350869D01*
X153641815Y-100350868D01*
X153582395Y-100339049D01*
X152805795Y-100339049D01*
X152746385Y-100350867D01*
X152696014Y-100384524D01*
X152696013Y-100384524D01*
X152146873Y-100933664D01*
X152113218Y-100984034D01*
X152101399Y-101043450D01*
X152101399Y-101820054D01*
X144920599Y-101820054D01*
X144920600Y-101820050D01*
X144920601Y-101043449D01*
X144908782Y-100984034D01*
X144875125Y-100933663D01*
X144325986Y-100384524D01*
X144275616Y-100350869D01*
X144275615Y-100350868D01*
X144216195Y-100339049D01*
X143439595Y-100339049D01*
X143380185Y-100350867D01*
X143329814Y-100384524D01*
X143329812Y-100384525D01*
X142780673Y-100933664D01*
X142747018Y-100984034D01*
X142735199Y-101043450D01*
X142735199Y-101820054D01*
X139011600Y-101820054D01*
X139011600Y-97736996D01*
X139030813Y-97677865D01*
X139081113Y-97641320D01*
X139143287Y-97641320D01*
X139193587Y-97677865D01*
X139207154Y-97703769D01*
X139251617Y-97830834D01*
X139342458Y-97975407D01*
X139463193Y-98096142D01*
X139607766Y-98186983D01*
X139768929Y-98243377D01*
X139802863Y-98247200D01*
X139938596Y-98262494D01*
X139938600Y-98262494D01*
X139938604Y-98262494D01*
X140051713Y-98249749D01*
X140108271Y-98243377D01*
X140269434Y-98186983D01*
X140414007Y-98096142D01*
X140534742Y-97975407D01*
X140625583Y-97830834D01*
X140681977Y-97669671D01*
X140701094Y-97500000D01*
X140701094Y-97499995D01*
X140681978Y-97330332D01*
X140675371Y-97311451D01*
X140673975Y-97249292D01*
X140699190Y-97207089D01*
X140796859Y-97109421D01*
X141052095Y-96854185D01*
X141194366Y-96711915D01*
X141249764Y-96683689D01*
X141265501Y-96682450D01*
X142054500Y-96682450D01*
X142113631Y-96701663D01*
X142150176Y-96751963D01*
X142150176Y-96814137D01*
X142125636Y-96854182D01*
X142031929Y-96947890D01*
X141762173Y-97217645D01*
X141762172Y-97217647D01*
X141728517Y-97268016D01*
X141716699Y-97327430D01*
X141716699Y-97872573D01*
X141728517Y-97931983D01*
X141728517Y-97931984D01*
X141728518Y-97931985D01*
X141762175Y-97982356D01*
X142147646Y-98367826D01*
X142198015Y-98401482D01*
X142257430Y-98413300D01*
X142802570Y-98413301D01*
X142810758Y-98411672D01*
X142872501Y-98418977D01*
X142901523Y-98439203D01*
X143984390Y-99522070D01*
X143987355Y-99525306D01*
X144001007Y-99541575D01*
X144014151Y-99557239D01*
X144050245Y-99578078D01*
X144053947Y-99580437D01*
X144088084Y-99604340D01*
X144089411Y-99604695D01*
X144089558Y-99604735D01*
X144113827Y-99614788D01*
X144115148Y-99615551D01*
X144124558Y-99617209D01*
X144156202Y-99622788D01*
X144160477Y-99623737D01*
X144168528Y-99625894D01*
X144200733Y-99634524D01*
X144242267Y-99630890D01*
X144246638Y-99630700D01*
X146657333Y-99630700D01*
X146716464Y-99649913D01*
X146742513Y-99677777D01*
X146803858Y-99775407D01*
X146924593Y-99896142D01*
X147069166Y-99986983D01*
X147230329Y-100043377D01*
X147264263Y-100047200D01*
X147399996Y-100062494D01*
X147400000Y-100062494D01*
X147400004Y-100062494D01*
X147513114Y-100049749D01*
X147569671Y-100043377D01*
X147730834Y-99986983D01*
X147875407Y-99896142D01*
X147996142Y-99775407D01*
X148086983Y-99630834D01*
X148143377Y-99469671D01*
X148162494Y-99300000D01*
X148162494Y-99299995D01*
X148143377Y-99130330D01*
X148086983Y-98969167D01*
X148086983Y-98969166D01*
X147996142Y-98824593D01*
X147875407Y-98703858D01*
X147730834Y-98613017D01*
X147730833Y-98613016D01*
X147730832Y-98613016D01*
X147569669Y-98556622D01*
X147400004Y-98537506D01*
X147399996Y-98537506D01*
X147230330Y-98556622D01*
X147069167Y-98613016D01*
X146924594Y-98703857D01*
X146924591Y-98703859D01*
X146803859Y-98824591D01*
X146803857Y-98824594D01*
X146742514Y-98922222D01*
X146694786Y-98962068D01*
X146657333Y-98969300D01*
X144408650Y-98969300D01*
X144349519Y-98950087D01*
X144337515Y-98939835D01*
X143369202Y-97971522D01*
X143340976Y-97916124D01*
X143341671Y-97880758D01*
X143343300Y-97872569D01*
X143343300Y-97641320D01*
X143343301Y-97327430D01*
X143331482Y-97268015D01*
X143297825Y-97217644D01*
X142934364Y-96854184D01*
X142906139Y-96798787D01*
X142915865Y-96737379D01*
X142959829Y-96693415D01*
X143005500Y-96682450D01*
X144594500Y-96682450D01*
X144653631Y-96701663D01*
X144690176Y-96751963D01*
X144690176Y-96814137D01*
X144665636Y-96854182D01*
X144571929Y-96947890D01*
X144302173Y-97217645D01*
X144302172Y-97217647D01*
X144268517Y-97268016D01*
X144256699Y-97327430D01*
X144256699Y-97872573D01*
X144268517Y-97931983D01*
X144268517Y-97931984D01*
X144268518Y-97931985D01*
X144302175Y-97982356D01*
X144687646Y-98367826D01*
X144738015Y-98401482D01*
X144797430Y-98413300D01*
X145342570Y-98413301D01*
X145401985Y-98401482D01*
X145452356Y-98367825D01*
X145837826Y-97982354D01*
X145871482Y-97931985D01*
X145883300Y-97872570D01*
X145883301Y-97327430D01*
X145871482Y-97268015D01*
X145837825Y-97217644D01*
X145784998Y-97164817D01*
X145756773Y-97109421D01*
X145766499Y-97048013D01*
X145810463Y-97004049D01*
X145871871Y-96994323D01*
X145909656Y-97008503D01*
X145957766Y-97038733D01*
X146118929Y-97095127D01*
X146152863Y-97098950D01*
X146288596Y-97114244D01*
X146288600Y-97114244D01*
X146288604Y-97114244D01*
X146401714Y-97101499D01*
X146458271Y-97095127D01*
X146619434Y-97038733D01*
X146764007Y-96947892D01*
X146884742Y-96827157D01*
X146975583Y-96682584D01*
X147031977Y-96521421D01*
X147051094Y-96351750D01*
X147051094Y-96351745D01*
X147031977Y-96182080D01*
X147013639Y-96129672D01*
X146975583Y-96020916D01*
X146884742Y-95876343D01*
X146764007Y-95755608D01*
X146619434Y-95664767D01*
X146619433Y-95664766D01*
X146619432Y-95664766D01*
X146458269Y-95608372D01*
X146288604Y-95589256D01*
X146288596Y-95589256D01*
X146118930Y-95608372D01*
X145957767Y-95664766D01*
X145813194Y-95755607D01*
X145813191Y-95755609D01*
X145692459Y-95876341D01*
X145692457Y-95876344D01*
X145631114Y-95973972D01*
X145583386Y-96013818D01*
X145545933Y-96021050D01*
X141103488Y-96021050D01*
X141099117Y-96020859D01*
X141057583Y-96017226D01*
X141057582Y-96017226D01*
X141057581Y-96017226D01*
X141017338Y-96028009D01*
X141013053Y-96028959D01*
X140971999Y-96036199D01*
X140970667Y-96036968D01*
X140946418Y-96047012D01*
X140944937Y-96047408D01*
X140944934Y-96047410D01*
X140910798Y-96071311D01*
X140907099Y-96073667D01*
X140871002Y-96094510D01*
X140871000Y-96094512D01*
X140844211Y-96126437D01*
X140841246Y-96129672D01*
X140231510Y-96739408D01*
X140176112Y-96767634D01*
X140127152Y-96763229D01*
X140108271Y-96756622D01*
X140108266Y-96756621D01*
X139938604Y-96737506D01*
X139938596Y-96737506D01*
X139768930Y-96756622D01*
X139607767Y-96813016D01*
X139463194Y-96903857D01*
X139463191Y-96903859D01*
X139342459Y-97024591D01*
X139342457Y-97024594D01*
X139251616Y-97169167D01*
X139207155Y-97296229D01*
X139169490Y-97345697D01*
X139109942Y-97363578D01*
X139051257Y-97343043D01*
X139015850Y-97291935D01*
X139011600Y-97263003D01*
X139011600Y-90412182D01*
X142482599Y-90412182D01*
X142491017Y-90481090D01*
X142543665Y-90608198D01*
X142586428Y-90662861D01*
X142586436Y-90662870D01*
X143166886Y-91243318D01*
X143166893Y-91243324D01*
X143221554Y-91286084D01*
X143348661Y-91338733D01*
X143417557Y-91347149D01*
X143417562Y-91347150D01*
X143599800Y-91347150D01*
X143599800Y-90456002D01*
X143683408Y-90494185D01*
X143791666Y-90509750D01*
X143864334Y-90509750D01*
X143972592Y-90494185D01*
X144056200Y-90456002D01*
X144056200Y-91347150D01*
X144238431Y-91347150D01*
X144307340Y-91338732D01*
X144434448Y-91286084D01*
X144489111Y-91243321D01*
X144489120Y-91243313D01*
X145069568Y-90662863D01*
X145069574Y-90662856D01*
X145112334Y-90608195D01*
X145164983Y-90481088D01*
X145173399Y-90412192D01*
X145173400Y-90412187D01*
X145173400Y-90412182D01*
X151848899Y-90412182D01*
X151857317Y-90481090D01*
X151909965Y-90608198D01*
X151952728Y-90662861D01*
X151952736Y-90662870D01*
X152533186Y-91243318D01*
X152533193Y-91243324D01*
X152587854Y-91286084D01*
X152714961Y-91338733D01*
X152783857Y-91347149D01*
X152783862Y-91347150D01*
X152966100Y-91347150D01*
X152966100Y-90456002D01*
X153049708Y-90494185D01*
X153157966Y-90509750D01*
X153230634Y-90509750D01*
X153338892Y-90494185D01*
X153422500Y-90456002D01*
X153422500Y-91347150D01*
X153604731Y-91347150D01*
X153673640Y-91338732D01*
X153800748Y-91286084D01*
X153855411Y-91243321D01*
X153855420Y-91243313D01*
X154435868Y-90662863D01*
X154435874Y-90662856D01*
X154478634Y-90608195D01*
X154531283Y-90481088D01*
X154539699Y-90412192D01*
X154539700Y-90412187D01*
X154539700Y-90229950D01*
X153651506Y-90229950D01*
X153661145Y-90214951D01*
X153702300Y-90074789D01*
X153702300Y-89928711D01*
X153661145Y-89788549D01*
X153651506Y-89773550D01*
X154539701Y-89773550D01*
X154539701Y-89591319D01*
X154539700Y-89591317D01*
X154531282Y-89522409D01*
X154478634Y-89395301D01*
X154435871Y-89340638D01*
X154435863Y-89340629D01*
X153855413Y-88760181D01*
X153855406Y-88760175D01*
X153800746Y-88717416D01*
X153715004Y-88681900D01*
X153667727Y-88641521D01*
X153653213Y-88581064D01*
X153677007Y-88523623D01*
X153689691Y-88511187D01*
X153692380Y-88508979D01*
X153692387Y-88508975D01*
X154241526Y-87959836D01*
X154275181Y-87909466D01*
X154287000Y-87850050D01*
X154287001Y-87073449D01*
X154275182Y-87014034D01*
X154241525Y-86963663D01*
X153692386Y-86414524D01*
X153642016Y-86380869D01*
X153642015Y-86380868D01*
X153582595Y-86369049D01*
X152805995Y-86369049D01*
X152746585Y-86380867D01*
X152696214Y-86414524D01*
X152696212Y-86414524D01*
X152147073Y-86963664D01*
X152113418Y-87014034D01*
X152101599Y-87073450D01*
X152101599Y-87850054D01*
X152113417Y-87909464D01*
X152147074Y-87959835D01*
X152147074Y-87959837D01*
X152696217Y-88508979D01*
X152698917Y-88511195D01*
X152732436Y-88563561D01*
X152728774Y-88625627D01*
X152689330Y-88673687D01*
X152673593Y-88681900D01*
X152587854Y-88717414D01*
X152587852Y-88717415D01*
X152533188Y-88760178D01*
X152533179Y-88760186D01*
X151952731Y-89340636D01*
X151952725Y-89340643D01*
X151909965Y-89395304D01*
X151857316Y-89522411D01*
X151848900Y-89591307D01*
X151848900Y-89773550D01*
X152737094Y-89773550D01*
X152727455Y-89788549D01*
X152686300Y-89928711D01*
X152686300Y-90074789D01*
X152727455Y-90214951D01*
X152737094Y-90229950D01*
X151848899Y-90229950D01*
X151848899Y-90412182D01*
X145173400Y-90412182D01*
X145173400Y-90229950D01*
X144285206Y-90229950D01*
X144294845Y-90214951D01*
X144336000Y-90074789D01*
X144336000Y-89928711D01*
X144294845Y-89788549D01*
X144285206Y-89773550D01*
X145173401Y-89773550D01*
X145173401Y-89591319D01*
X145173400Y-89591317D01*
X145164982Y-89522409D01*
X145112334Y-89395301D01*
X145069571Y-89340638D01*
X145069563Y-89340629D01*
X144489113Y-88760181D01*
X144489106Y-88760175D01*
X144434446Y-88717416D01*
X144348704Y-88681900D01*
X144301427Y-88641521D01*
X144286913Y-88581064D01*
X144310707Y-88523623D01*
X144323391Y-88511187D01*
X144326080Y-88508979D01*
X144326087Y-88508975D01*
X144875226Y-87959836D01*
X144908881Y-87909466D01*
X144920700Y-87850050D01*
X144920701Y-87073449D01*
X144908882Y-87014034D01*
X144875225Y-86963663D01*
X144875225Y-86963662D01*
X144326085Y-86414523D01*
X144275715Y-86380868D01*
X144216295Y-86369049D01*
X143439695Y-86369049D01*
X143380285Y-86380867D01*
X143329914Y-86414524D01*
X143329912Y-86414525D01*
X142780773Y-86963664D01*
X142747118Y-87014034D01*
X142735299Y-87073450D01*
X142735299Y-87850054D01*
X142747117Y-87909464D01*
X142747117Y-87909465D01*
X142747118Y-87909466D01*
X142780775Y-87959837D01*
X143329917Y-88508979D01*
X143332617Y-88511195D01*
X143366136Y-88563561D01*
X143362474Y-88625627D01*
X143323030Y-88673687D01*
X143307293Y-88681900D01*
X143221554Y-88717414D01*
X143221552Y-88717415D01*
X143166888Y-88760178D01*
X143166879Y-88760186D01*
X142586431Y-89340636D01*
X142586425Y-89340643D01*
X142543665Y-89395304D01*
X142491016Y-89522411D01*
X142482600Y-89591307D01*
X142482600Y-89773550D01*
X143370794Y-89773550D01*
X143361155Y-89788549D01*
X143320000Y-89928711D01*
X143320000Y-90074789D01*
X143361155Y-90214951D01*
X143370794Y-90229950D01*
X142482599Y-90229950D01*
X142482599Y-90412182D01*
X139011600Y-90412182D01*
X139011600Y-84286750D01*
X142472341Y-84286750D01*
X142492937Y-84522158D01*
X142554097Y-84750413D01*
X142653965Y-84964579D01*
X142789505Y-85158151D01*
X142956599Y-85325245D01*
X143150171Y-85460785D01*
X143364337Y-85560653D01*
X143592592Y-85621813D01*
X143769034Y-85637250D01*
X143769046Y-85637250D01*
X143886954Y-85637250D01*
X143886966Y-85637250D01*
X144063408Y-85621813D01*
X144291663Y-85560653D01*
X144505829Y-85460785D01*
X144699401Y-85325245D01*
X144866495Y-85158151D01*
X145002035Y-84964580D01*
X145101903Y-84750413D01*
X145163063Y-84522158D01*
X145183659Y-84286750D01*
X151838641Y-84286750D01*
X151859237Y-84522158D01*
X151920397Y-84750413D01*
X152020265Y-84964579D01*
X152155805Y-85158151D01*
X152322899Y-85325245D01*
X152516471Y-85460785D01*
X152730637Y-85560653D01*
X152958892Y-85621813D01*
X153135334Y-85637250D01*
X153135346Y-85637250D01*
X153253254Y-85637250D01*
X153253266Y-85637250D01*
X153429708Y-85621813D01*
X153657963Y-85560653D01*
X153872129Y-85460785D01*
X154065701Y-85325245D01*
X154232795Y-85158151D01*
X154368335Y-84964580D01*
X154468203Y-84750413D01*
X154529363Y-84522158D01*
X154549959Y-84286750D01*
X154529363Y-84051342D01*
X154468203Y-83823087D01*
X154368335Y-83608921D01*
X154232795Y-83415349D01*
X154065701Y-83248255D01*
X153872129Y-83112715D01*
X153872123Y-83112712D01*
X153657966Y-83012848D01*
X153657963Y-83012847D01*
X153429708Y-82951687D01*
X153429709Y-82951687D01*
X153253270Y-82936250D01*
X153253266Y-82936250D01*
X153135334Y-82936250D01*
X153135329Y-82936250D01*
X152958890Y-82951687D01*
X152730633Y-83012848D01*
X152516476Y-83112712D01*
X152516468Y-83112717D01*
X152322896Y-83248257D01*
X152155807Y-83415346D01*
X152020267Y-83608917D01*
X152020262Y-83608925D01*
X151920398Y-83823083D01*
X151859237Y-84051340D01*
X151859236Y-84051342D01*
X151859237Y-84051342D01*
X151838641Y-84286750D01*
X145183659Y-84286750D01*
X145163063Y-84051342D01*
X145101903Y-83823087D01*
X145002035Y-83608921D01*
X144866495Y-83415349D01*
X144699401Y-83248255D01*
X144505829Y-83112715D01*
X144505823Y-83112712D01*
X144291666Y-83012848D01*
X144291663Y-83012847D01*
X144063408Y-82951687D01*
X144063409Y-82951687D01*
X143886970Y-82936250D01*
X143886966Y-82936250D01*
X143769034Y-82936250D01*
X143769029Y-82936250D01*
X143592590Y-82951687D01*
X143364333Y-83012848D01*
X143150176Y-83112712D01*
X143150168Y-83112717D01*
X142956596Y-83248257D01*
X142789507Y-83415346D01*
X142653967Y-83608917D01*
X142653962Y-83608925D01*
X142554098Y-83823083D01*
X142492937Y-84051340D01*
X142492936Y-84051342D01*
X142492937Y-84051342D01*
X142472341Y-84286750D01*
X139011600Y-84286750D01*
X139011600Y-77712182D01*
X142482599Y-77712182D01*
X142491017Y-77781090D01*
X142543665Y-77908198D01*
X142586428Y-77962861D01*
X142586436Y-77962870D01*
X143166886Y-78543318D01*
X143166893Y-78543324D01*
X143221554Y-78586084D01*
X143307294Y-78621599D01*
X143354572Y-78661978D01*
X143369086Y-78722434D01*
X143345293Y-78779876D01*
X143332621Y-78792302D01*
X143329914Y-78794523D01*
X142780773Y-79343664D01*
X142747118Y-79394034D01*
X142735299Y-79453450D01*
X142735299Y-80230054D01*
X142747117Y-80289464D01*
X142747117Y-80289465D01*
X142747118Y-80289466D01*
X142780775Y-80339837D01*
X143329914Y-80888976D01*
X143380284Y-80922631D01*
X143439700Y-80934450D01*
X144216301Y-80934451D01*
X144275716Y-80922632D01*
X144326087Y-80888975D01*
X144875226Y-80339836D01*
X144908881Y-80289466D01*
X144920700Y-80230050D01*
X144920701Y-79453449D01*
X144908882Y-79394034D01*
X144875225Y-79343663D01*
X144875225Y-79343662D01*
X144326085Y-78794523D01*
X144323380Y-78792303D01*
X144289862Y-78739937D01*
X144293526Y-78677871D01*
X144332971Y-78629811D01*
X144348707Y-78621598D01*
X144434448Y-78586083D01*
X144489111Y-78543321D01*
X144489120Y-78543313D01*
X145069568Y-77962863D01*
X145069574Y-77962856D01*
X145112334Y-77908195D01*
X145164983Y-77781088D01*
X145173399Y-77712192D01*
X145173400Y-77712187D01*
X145173400Y-77712182D01*
X151848899Y-77712182D01*
X151857317Y-77781090D01*
X151909965Y-77908198D01*
X151952728Y-77962861D01*
X151952736Y-77962870D01*
X152533186Y-78543318D01*
X152533193Y-78543324D01*
X152587854Y-78586084D01*
X152673594Y-78621599D01*
X152720872Y-78661978D01*
X152735386Y-78722434D01*
X152711593Y-78779876D01*
X152698921Y-78792302D01*
X152696214Y-78794523D01*
X152147073Y-79343664D01*
X152113418Y-79394034D01*
X152101599Y-79453450D01*
X152101599Y-80230054D01*
X152113417Y-80289464D01*
X152147074Y-80339835D01*
X152147074Y-80339837D01*
X152696212Y-80888974D01*
X152696214Y-80888976D01*
X152746584Y-80922631D01*
X152806000Y-80934450D01*
X153582601Y-80934451D01*
X153642016Y-80922632D01*
X153692387Y-80888975D01*
X154241526Y-80339836D01*
X154275181Y-80289466D01*
X154287000Y-80230050D01*
X154287001Y-79453449D01*
X154275182Y-79394034D01*
X154241525Y-79343663D01*
X153692386Y-78794524D01*
X153692385Y-78794523D01*
X153689680Y-78792303D01*
X153656162Y-78739937D01*
X153659826Y-78677871D01*
X153699271Y-78629811D01*
X153715007Y-78621598D01*
X153800748Y-78586083D01*
X153855411Y-78543321D01*
X153855420Y-78543313D01*
X154435868Y-77962863D01*
X154435874Y-77962856D01*
X154478634Y-77908195D01*
X154531283Y-77781088D01*
X154539699Y-77712192D01*
X154539700Y-77712187D01*
X154539700Y-77529950D01*
X153651506Y-77529950D01*
X153661145Y-77514951D01*
X153702300Y-77374789D01*
X153702300Y-77228711D01*
X153661145Y-77088549D01*
X153651506Y-77073550D01*
X154539701Y-77073550D01*
X154539701Y-76891319D01*
X154539700Y-76891317D01*
X154531282Y-76822409D01*
X154478634Y-76695301D01*
X154435871Y-76640638D01*
X154435863Y-76640629D01*
X153855413Y-76060181D01*
X153855406Y-76060175D01*
X153800746Y-76017416D01*
X153715004Y-75981900D01*
X153667727Y-75941521D01*
X153653213Y-75881064D01*
X153677007Y-75823623D01*
X153689691Y-75811187D01*
X153692380Y-75808979D01*
X153692387Y-75808975D01*
X154241526Y-75259836D01*
X154275181Y-75209466D01*
X154287000Y-75150050D01*
X154287001Y-74373449D01*
X154275182Y-74314034D01*
X154241525Y-74263663D01*
X153692386Y-73714524D01*
X153642016Y-73680869D01*
X153642015Y-73680868D01*
X153582595Y-73669049D01*
X152805995Y-73669049D01*
X152746585Y-73680867D01*
X152696214Y-73714524D01*
X152696212Y-73714525D01*
X152147073Y-74263664D01*
X152113418Y-74314034D01*
X152101599Y-74373450D01*
X152101599Y-75150054D01*
X152113417Y-75209464D01*
X152113417Y-75209465D01*
X152113418Y-75209466D01*
X152143299Y-75254185D01*
X152147074Y-75259835D01*
X152147074Y-75259837D01*
X152696217Y-75808979D01*
X152698917Y-75811195D01*
X152732436Y-75863561D01*
X152728774Y-75925627D01*
X152689330Y-75973687D01*
X152673593Y-75981900D01*
X152587854Y-76017414D01*
X152587852Y-76017415D01*
X152533188Y-76060178D01*
X152533179Y-76060186D01*
X151952731Y-76640636D01*
X151952725Y-76640643D01*
X151909965Y-76695304D01*
X151857316Y-76822411D01*
X151848900Y-76891307D01*
X151848900Y-77073550D01*
X152737094Y-77073550D01*
X152727455Y-77088549D01*
X152686300Y-77228711D01*
X152686300Y-77374789D01*
X152727455Y-77514951D01*
X152737094Y-77529950D01*
X151848899Y-77529950D01*
X151848899Y-77712182D01*
X145173400Y-77712182D01*
X145173400Y-77529950D01*
X144285206Y-77529950D01*
X144294845Y-77514951D01*
X144336000Y-77374789D01*
X144336000Y-77228711D01*
X144294845Y-77088549D01*
X144285206Y-77073550D01*
X145173401Y-77073550D01*
X145173401Y-76891319D01*
X145173400Y-76891317D01*
X145164982Y-76822409D01*
X145112334Y-76695301D01*
X145069571Y-76640638D01*
X145069563Y-76640629D01*
X144531818Y-76102885D01*
X144503592Y-76047487D01*
X144513318Y-75986079D01*
X144531818Y-75960615D01*
X145069568Y-75422863D01*
X145069574Y-75422856D01*
X145112334Y-75368195D01*
X145164983Y-75241088D01*
X145173399Y-75172192D01*
X145173400Y-75172187D01*
X145173400Y-74989950D01*
X144285206Y-74989950D01*
X144294845Y-74974951D01*
X144336000Y-74834789D01*
X144336000Y-74688711D01*
X144294845Y-74548549D01*
X144285206Y-74533550D01*
X145173401Y-74533550D01*
X145173401Y-74351319D01*
X145173400Y-74351317D01*
X145164982Y-74282409D01*
X145112334Y-74155301D01*
X145069571Y-74100638D01*
X145069563Y-74100629D01*
X144489113Y-73520181D01*
X144489106Y-73520175D01*
X144434445Y-73477415D01*
X144307338Y-73424766D01*
X144238442Y-73416350D01*
X144238437Y-73416349D01*
X144056200Y-73416349D01*
X144056200Y-74307497D01*
X143972592Y-74269315D01*
X143864334Y-74253750D01*
X143791666Y-74253750D01*
X143683408Y-74269315D01*
X143599800Y-74307497D01*
X143599800Y-73416349D01*
X143417567Y-73416349D01*
X143348659Y-73424767D01*
X143221551Y-73477415D01*
X143166888Y-73520178D01*
X143166879Y-73520186D01*
X142586431Y-74100636D01*
X142586425Y-74100643D01*
X142543665Y-74155304D01*
X142491016Y-74282411D01*
X142482600Y-74351307D01*
X142482600Y-74533550D01*
X143370794Y-74533550D01*
X143361155Y-74548549D01*
X143320000Y-74688711D01*
X143320000Y-74834789D01*
X143361155Y-74974951D01*
X143370794Y-74989950D01*
X142482599Y-74989950D01*
X142482599Y-75172182D01*
X142491017Y-75241090D01*
X142543665Y-75368198D01*
X142586428Y-75422861D01*
X142586436Y-75422870D01*
X143124181Y-75960614D01*
X143152407Y-76016012D01*
X143142681Y-76077420D01*
X143124181Y-76102884D01*
X142586431Y-76640636D01*
X142586425Y-76640643D01*
X142543665Y-76695304D01*
X142491016Y-76822411D01*
X142482600Y-76891307D01*
X142482600Y-77073550D01*
X143370794Y-77073550D01*
X143361155Y-77088549D01*
X143320000Y-77228711D01*
X143320000Y-77374789D01*
X143361155Y-77514951D01*
X143370794Y-77529950D01*
X142482599Y-77529950D01*
X142482599Y-77712182D01*
X139011600Y-77712182D01*
X139011600Y-71586750D01*
X142472341Y-71586750D01*
X142492937Y-71822158D01*
X142554097Y-72050413D01*
X142653965Y-72264579D01*
X142789505Y-72458151D01*
X142956599Y-72625245D01*
X143150171Y-72760785D01*
X143364337Y-72860653D01*
X143592592Y-72921813D01*
X143769034Y-72937250D01*
X143769046Y-72937250D01*
X143886954Y-72937250D01*
X143886966Y-72937250D01*
X144063408Y-72921813D01*
X144291663Y-72860653D01*
X144505829Y-72760785D01*
X144699401Y-72625245D01*
X144866495Y-72458151D01*
X145002035Y-72264580D01*
X145101903Y-72050413D01*
X145163063Y-71822158D01*
X145183659Y-71586750D01*
X151838641Y-71586750D01*
X151859237Y-71822158D01*
X151920397Y-72050413D01*
X152020265Y-72264579D01*
X152155805Y-72458151D01*
X152322899Y-72625245D01*
X152516471Y-72760785D01*
X152730637Y-72860653D01*
X152958892Y-72921813D01*
X153135334Y-72937250D01*
X153135346Y-72937250D01*
X153253254Y-72937250D01*
X153253266Y-72937250D01*
X153429708Y-72921813D01*
X153657963Y-72860653D01*
X153872129Y-72760785D01*
X154065701Y-72625245D01*
X154232795Y-72458151D01*
X154368335Y-72264580D01*
X154468203Y-72050413D01*
X154529363Y-71822158D01*
X154549959Y-71586750D01*
X154529363Y-71351342D01*
X154468203Y-71123087D01*
X154368335Y-70908921D01*
X154232795Y-70715349D01*
X154065701Y-70548255D01*
X153872129Y-70412715D01*
X153872123Y-70412712D01*
X153657966Y-70312848D01*
X153657963Y-70312847D01*
X153429708Y-70251687D01*
X153429709Y-70251687D01*
X153253270Y-70236250D01*
X153253266Y-70236250D01*
X153135334Y-70236250D01*
X153135329Y-70236250D01*
X152958890Y-70251687D01*
X152730633Y-70312848D01*
X152516476Y-70412712D01*
X152516468Y-70412717D01*
X152322896Y-70548257D01*
X152155807Y-70715346D01*
X152020267Y-70908917D01*
X152020262Y-70908925D01*
X151920398Y-71123083D01*
X151859237Y-71351340D01*
X151859236Y-71351342D01*
X151859237Y-71351342D01*
X151838641Y-71586750D01*
X145183659Y-71586750D01*
X145163063Y-71351342D01*
X145101903Y-71123087D01*
X145002035Y-70908921D01*
X144866495Y-70715349D01*
X144699401Y-70548255D01*
X144505829Y-70412715D01*
X144505823Y-70412712D01*
X144291666Y-70312848D01*
X144291663Y-70312847D01*
X144063408Y-70251687D01*
X144063409Y-70251687D01*
X143886970Y-70236250D01*
X143886966Y-70236250D01*
X143769034Y-70236250D01*
X143769029Y-70236250D01*
X143592590Y-70251687D01*
X143364333Y-70312848D01*
X143150176Y-70412712D01*
X143150168Y-70412717D01*
X142956596Y-70548257D01*
X142789507Y-70715346D01*
X142653967Y-70908917D01*
X142653962Y-70908925D01*
X142554098Y-71123083D01*
X142492937Y-71351340D01*
X142492936Y-71351342D01*
X142492937Y-71351342D01*
X142472341Y-71586750D01*
X139011600Y-71586750D01*
X139011600Y-67530054D01*
X142735299Y-67530054D01*
X142747117Y-67589464D01*
X142747117Y-67589465D01*
X142747118Y-67589466D01*
X142780775Y-67639837D01*
X143329914Y-68188976D01*
X143380284Y-68222631D01*
X143439700Y-68234450D01*
X144216301Y-68234451D01*
X144275716Y-68222632D01*
X144326087Y-68188975D01*
X144875226Y-67639836D01*
X144908881Y-67589466D01*
X144920699Y-67530054D01*
X152101599Y-67530054D01*
X152113417Y-67589464D01*
X152147074Y-67639835D01*
X152147074Y-67639837D01*
X152696212Y-68188974D01*
X152696214Y-68188976D01*
X152746584Y-68222631D01*
X152806000Y-68234450D01*
X153582601Y-68234451D01*
X153642016Y-68222632D01*
X153692387Y-68188975D01*
X154241526Y-67639836D01*
X154275181Y-67589466D01*
X154287000Y-67530050D01*
X154287001Y-66753449D01*
X154275182Y-66694034D01*
X154241525Y-66643663D01*
X153692386Y-66094524D01*
X153642016Y-66060869D01*
X153642015Y-66060868D01*
X153582595Y-66049049D01*
X152805995Y-66049049D01*
X152746585Y-66060867D01*
X152696214Y-66094524D01*
X152696212Y-66094524D01*
X152147073Y-66643664D01*
X152113418Y-66694034D01*
X152101599Y-66753450D01*
X152101599Y-67530054D01*
X144920699Y-67530054D01*
X144920700Y-67530050D01*
X144920701Y-66753449D01*
X144908882Y-66694034D01*
X144875225Y-66643663D01*
X144875225Y-66643662D01*
X144326085Y-66094523D01*
X144275715Y-66060868D01*
X144216295Y-66049049D01*
X143439695Y-66049049D01*
X143380285Y-66060867D01*
X143329914Y-66094524D01*
X143329912Y-66094525D01*
X142780773Y-66643664D01*
X142747118Y-66694034D01*
X142735299Y-66753450D01*
X142735299Y-67530054D01*
X139011600Y-67530054D01*
X139011600Y-64126019D01*
X139030813Y-64066888D01*
X139081113Y-64030343D01*
X139143287Y-64030343D01*
X139183335Y-64054884D01*
X139224593Y-64096142D01*
X139369166Y-64186983D01*
X139530329Y-64243377D01*
X139548213Y-64245392D01*
X139699996Y-64262494D01*
X139700000Y-64262494D01*
X139700004Y-64262494D01*
X139813114Y-64249749D01*
X139869671Y-64243377D01*
X140030834Y-64186983D01*
X140175407Y-64096142D01*
X140296142Y-63975407D01*
X140386983Y-63830834D01*
X140443377Y-63669671D01*
X140454317Y-63572573D01*
X141716699Y-63572573D01*
X141728517Y-63631983D01*
X141728517Y-63631984D01*
X141728518Y-63631985D01*
X141762175Y-63682356D01*
X142147646Y-64067826D01*
X142198015Y-64101482D01*
X142257430Y-64113300D01*
X142802570Y-64113301D01*
X142861985Y-64101482D01*
X142912356Y-64067825D01*
X143297826Y-63682354D01*
X143331482Y-63631985D01*
X143343299Y-63572573D01*
X144256699Y-63572573D01*
X144268517Y-63631983D01*
X144268517Y-63631984D01*
X144268518Y-63631985D01*
X144302175Y-63682356D01*
X144687646Y-64067826D01*
X144738015Y-64101482D01*
X144797430Y-64113300D01*
X145342570Y-64113301D01*
X145401985Y-64101482D01*
X145452356Y-64067825D01*
X145837826Y-63682354D01*
X145871482Y-63631985D01*
X145883300Y-63572570D01*
X145883301Y-63027430D01*
X145871482Y-62968015D01*
X145837825Y-62917644D01*
X145452354Y-62532174D01*
X145452354Y-62532173D01*
X145452352Y-62532172D01*
X145418926Y-62509837D01*
X145401985Y-62498518D01*
X145401984Y-62498517D01*
X145401983Y-62498517D01*
X145342567Y-62486699D01*
X144797426Y-62486699D01*
X144738016Y-62498517D01*
X144687647Y-62532172D01*
X144302173Y-62917645D01*
X144302172Y-62917647D01*
X144268517Y-62968016D01*
X144256699Y-63027430D01*
X144256699Y-63572573D01*
X143343299Y-63572573D01*
X143343300Y-63572570D01*
X143343301Y-63027430D01*
X143331482Y-62968015D01*
X143297825Y-62917644D01*
X142912354Y-62532174D01*
X142912354Y-62532173D01*
X142912352Y-62532172D01*
X142878926Y-62509837D01*
X142861985Y-62498518D01*
X142861984Y-62498517D01*
X142861983Y-62498517D01*
X142802567Y-62486699D01*
X142257426Y-62486699D01*
X142198016Y-62498517D01*
X142147647Y-62532172D01*
X141762173Y-62917645D01*
X141762172Y-62917647D01*
X141728517Y-62968016D01*
X141716699Y-63027430D01*
X141716699Y-63572573D01*
X140454317Y-63572573D01*
X140462494Y-63500004D01*
X140462494Y-63499995D01*
X140443377Y-63330330D01*
X140439400Y-63318963D01*
X140386983Y-63169166D01*
X140360919Y-63127685D01*
X140345500Y-63074163D01*
X140345500Y-58569254D01*
X146796106Y-58569254D01*
X146815222Y-58738919D01*
X146858347Y-58862160D01*
X146871617Y-58900084D01*
X146962458Y-59044657D01*
X147083193Y-59165392D01*
X147227766Y-59256233D01*
X147388929Y-59312627D01*
X147422863Y-59316450D01*
X147558596Y-59331744D01*
X147558600Y-59331744D01*
X147558604Y-59331744D01*
X147728265Y-59312628D01*
X147728266Y-59312627D01*
X147728271Y-59312627D01*
X147747149Y-59306020D01*
X147809306Y-59304625D01*
X147851510Y-59329840D01*
X150805490Y-62283820D01*
X150808455Y-62287056D01*
X150822107Y-62303325D01*
X150835251Y-62318989D01*
X150871345Y-62339828D01*
X150875047Y-62342187D01*
X150909184Y-62366090D01*
X150910511Y-62366445D01*
X150910658Y-62366485D01*
X150934927Y-62376538D01*
X150936248Y-62377301D01*
X150945658Y-62378959D01*
X150977302Y-62384538D01*
X150981577Y-62385487D01*
X150989627Y-62387644D01*
X151021833Y-62396274D01*
X151063367Y-62392640D01*
X151067738Y-62392450D01*
X152618650Y-62392450D01*
X152677781Y-62411663D01*
X152689785Y-62421915D01*
X153624209Y-63356339D01*
X153652435Y-63411737D01*
X153648029Y-63460700D01*
X153641422Y-63479581D01*
X153622306Y-63649245D01*
X153622306Y-63649254D01*
X153641422Y-63818919D01*
X153696181Y-63975408D01*
X153697817Y-63980084D01*
X153788658Y-64124657D01*
X153909393Y-64245392D01*
X154053966Y-64336233D01*
X154215129Y-64392627D01*
X154249063Y-64396450D01*
X154384796Y-64411744D01*
X154384800Y-64411744D01*
X154384804Y-64411744D01*
X154497913Y-64398999D01*
X154554471Y-64392627D01*
X154715634Y-64336233D01*
X154860207Y-64245392D01*
X154980942Y-64124657D01*
X155071783Y-63980084D01*
X155128177Y-63818921D01*
X155143564Y-63682354D01*
X155147294Y-63649254D01*
X155147294Y-63649245D01*
X155128177Y-63479580D01*
X155104438Y-63411737D01*
X155071783Y-63318416D01*
X154980942Y-63173843D01*
X154860207Y-63053108D01*
X154715634Y-62962267D01*
X154715633Y-62962266D01*
X154715632Y-62962266D01*
X154554469Y-62905872D01*
X154384804Y-62886756D01*
X154384796Y-62886756D01*
X154215131Y-62905872D01*
X154196250Y-62912479D01*
X154134091Y-62913874D01*
X154091889Y-62888659D01*
X153077076Y-61873846D01*
X153048850Y-61818448D01*
X153058576Y-61757040D01*
X153094689Y-61717530D01*
X153114007Y-61705392D01*
X153234742Y-61584657D01*
X153325583Y-61440084D01*
X153381977Y-61278921D01*
X153401094Y-61109250D01*
X153401094Y-61109245D01*
X153381977Y-60939580D01*
X153325583Y-60778417D01*
X153325583Y-60778416D01*
X153234742Y-60633843D01*
X153114007Y-60513108D01*
X152969434Y-60422267D01*
X152969433Y-60422266D01*
X152969432Y-60422266D01*
X152808269Y-60365872D01*
X152638604Y-60346756D01*
X152638596Y-60346756D01*
X152468930Y-60365872D01*
X152307767Y-60422266D01*
X152163194Y-60513107D01*
X152163186Y-60513113D01*
X152090299Y-60586000D01*
X152034902Y-60614227D01*
X151973493Y-60604500D01*
X151948030Y-60586000D01*
X150224190Y-58862160D01*
X150195964Y-58806762D01*
X150200370Y-58757799D01*
X150206977Y-58738921D01*
X150226094Y-58569250D01*
X150226094Y-58569245D01*
X150206977Y-58399580D01*
X150150583Y-58238417D01*
X150150583Y-58238416D01*
X150059742Y-58093843D01*
X149939007Y-57973108D01*
X149794434Y-57882267D01*
X149794433Y-57882266D01*
X149794432Y-57882266D01*
X149633269Y-57825872D01*
X149463604Y-57806756D01*
X149463596Y-57806756D01*
X149293930Y-57825872D01*
X149132767Y-57882266D01*
X148988194Y-57973107D01*
X148988191Y-57973109D01*
X148867459Y-58093841D01*
X148867457Y-58093844D01*
X148776616Y-58238417D01*
X148720222Y-58399580D01*
X148701106Y-58569245D01*
X148701106Y-58569254D01*
X148720222Y-58738919D01*
X148763347Y-58862160D01*
X148776617Y-58900084D01*
X148867458Y-59044657D01*
X148988193Y-59165392D01*
X149132766Y-59256233D01*
X149293929Y-59312627D01*
X149327863Y-59316450D01*
X149463596Y-59331744D01*
X149463600Y-59331744D01*
X149463604Y-59331744D01*
X149633265Y-59312628D01*
X149633266Y-59312627D01*
X149633271Y-59312627D01*
X149652149Y-59306020D01*
X149714306Y-59304625D01*
X149756510Y-59329840D01*
X151757990Y-61331320D01*
X151760955Y-61334556D01*
X151787751Y-61366489D01*
X151823835Y-61387322D01*
X151827534Y-61389677D01*
X151861683Y-61413590D01*
X151862511Y-61413811D01*
X151863153Y-61413984D01*
X151887427Y-61424038D01*
X151888749Y-61424801D01*
X151904685Y-61427611D01*
X151959582Y-61456798D01*
X151972399Y-61473160D01*
X152037601Y-61576927D01*
X152052793Y-61637217D01*
X152029646Y-61694922D01*
X151977002Y-61728001D01*
X151952421Y-61731050D01*
X151229750Y-61731050D01*
X151170619Y-61711837D01*
X151158615Y-61701585D01*
X148319190Y-58862160D01*
X148290964Y-58806762D01*
X148295370Y-58757799D01*
X148301977Y-58738921D01*
X148321094Y-58569250D01*
X148321094Y-58569245D01*
X148301977Y-58399580D01*
X148245583Y-58238417D01*
X148245583Y-58238416D01*
X148154742Y-58093843D01*
X148034007Y-57973108D01*
X147889434Y-57882267D01*
X147889433Y-57882266D01*
X147889432Y-57882266D01*
X147728269Y-57825872D01*
X147558604Y-57806756D01*
X147558596Y-57806756D01*
X147388930Y-57825872D01*
X147227767Y-57882266D01*
X147083194Y-57973107D01*
X147083191Y-57973109D01*
X146962459Y-58093841D01*
X146962457Y-58093844D01*
X146871616Y-58238417D01*
X146815222Y-58399580D01*
X146796106Y-58569245D01*
X146796106Y-58569254D01*
X140345500Y-58569254D01*
X140345500Y-58144463D01*
X140364713Y-58085332D01*
X140374965Y-58073328D01*
X141030179Y-57418115D01*
X141085577Y-57389889D01*
X141101314Y-57388650D01*
X151626312Y-57388650D01*
X151685443Y-57407863D01*
X151711492Y-57435727D01*
X151724954Y-57457152D01*
X151724957Y-57457155D01*
X151724958Y-57457157D01*
X151845693Y-57577892D01*
X151990266Y-57668733D01*
X152151429Y-57725127D01*
X152171470Y-57727385D01*
X152321096Y-57744244D01*
X152321100Y-57744244D01*
X152321104Y-57744244D01*
X152434213Y-57731499D01*
X152490771Y-57725127D01*
X152651934Y-57668733D01*
X152796507Y-57577892D01*
X152917242Y-57457157D01*
X153008083Y-57312584D01*
X153064477Y-57151421D01*
X153083594Y-56981750D01*
X153064477Y-56812079D01*
X153064476Y-56812078D01*
X153063873Y-56806720D01*
X153076344Y-56745809D01*
X153122236Y-56703862D01*
X153176682Y-56697578D01*
X153176841Y-56695966D01*
X153181754Y-56696450D01*
X153181758Y-56696450D01*
X154000443Y-56696451D01*
X154059858Y-56684632D01*
X154110229Y-56650975D01*
X154689126Y-56072078D01*
X154722781Y-56021708D01*
X154734600Y-55962292D01*
X154734601Y-55143607D01*
X154722782Y-55084192D01*
X154689125Y-55033821D01*
X154689125Y-55033820D01*
X154110227Y-54454923D01*
X154059857Y-54421268D01*
X154000437Y-54409449D01*
X153181753Y-54409449D01*
X153122343Y-54421267D01*
X153071972Y-54454924D01*
X153071970Y-54454925D01*
X152555725Y-54971170D01*
X152500327Y-54999396D01*
X152438918Y-54989670D01*
X152394955Y-54945706D01*
X152391647Y-54938530D01*
X152386234Y-54925461D01*
X152343465Y-54870790D01*
X152343458Y-54870782D01*
X151826760Y-54354084D01*
X151798534Y-54298686D01*
X151808260Y-54237278D01*
X151826760Y-54211814D01*
X152343465Y-53695109D01*
X152343470Y-53695103D01*
X152386234Y-53640437D01*
X152391647Y-53627369D01*
X152432024Y-53580090D01*
X152492480Y-53565574D01*
X152549922Y-53589365D01*
X152555725Y-53594729D01*
X153071972Y-54110976D01*
X153122342Y-54144631D01*
X153181758Y-54156450D01*
X154000443Y-54156451D01*
X154059858Y-54144632D01*
X154110229Y-54110975D01*
X154689126Y-53532078D01*
X154722781Y-53481708D01*
X154734600Y-53422292D01*
X154734601Y-52603607D01*
X154722782Y-52544192D01*
X154689125Y-52493821D01*
X154689125Y-52493820D01*
X154110227Y-51914923D01*
X154059857Y-51881268D01*
X154000437Y-51869449D01*
X153181753Y-51869449D01*
X153122343Y-51881267D01*
X153071972Y-51914924D01*
X153071970Y-51914925D01*
X152555725Y-52431170D01*
X152500327Y-52459396D01*
X152438918Y-52449670D01*
X152394955Y-52405706D01*
X152391647Y-52398530D01*
X152386234Y-52385461D01*
X152343465Y-52330790D01*
X152343458Y-52330782D01*
X151733255Y-51720581D01*
X151733248Y-51720575D01*
X151678587Y-51677815D01*
X151551480Y-51625166D01*
X151482584Y-51616750D01*
X151482579Y-51616749D01*
X151279300Y-51616749D01*
X151279300Y-52558697D01*
X151195692Y-52520515D01*
X151087434Y-52504950D01*
X151014766Y-52504950D01*
X150906508Y-52520515D01*
X150822900Y-52558697D01*
X150822900Y-51616749D01*
X150619626Y-51616749D01*
X150550716Y-51625167D01*
X150550714Y-51625167D01*
X150423611Y-51677815D01*
X150368940Y-51720584D01*
X150368931Y-51720592D01*
X149852234Y-52237289D01*
X149796836Y-52265515D01*
X149735427Y-52255789D01*
X149709964Y-52237289D01*
X149193255Y-51720581D01*
X149193248Y-51720575D01*
X149138587Y-51677815D01*
X149011480Y-51625166D01*
X148942584Y-51616750D01*
X148942579Y-51616749D01*
X148739300Y-51616749D01*
X148739300Y-52558697D01*
X148655692Y-52520515D01*
X148547434Y-52504950D01*
X148474766Y-52504950D01*
X148366508Y-52520515D01*
X148282900Y-52558697D01*
X148282900Y-51616749D01*
X148079626Y-51616749D01*
X148010716Y-51625167D01*
X148010714Y-51625167D01*
X147883611Y-51677815D01*
X147828940Y-51720584D01*
X147828931Y-51720592D01*
X147312234Y-52237289D01*
X147256836Y-52265515D01*
X147195427Y-52255789D01*
X147169964Y-52237289D01*
X146653255Y-51720581D01*
X146653248Y-51720575D01*
X146598587Y-51677815D01*
X146471480Y-51625166D01*
X146402584Y-51616750D01*
X146402579Y-51616749D01*
X146199300Y-51616749D01*
X146199300Y-52558697D01*
X146115692Y-52520515D01*
X146007434Y-52504950D01*
X145934766Y-52504950D01*
X145826508Y-52520515D01*
X145742900Y-52558697D01*
X145742900Y-51616749D01*
X145539626Y-51616749D01*
X145470716Y-51625167D01*
X145470714Y-51625167D01*
X145343611Y-51677815D01*
X145288940Y-51720584D01*
X145288932Y-51720591D01*
X144678731Y-52330794D01*
X144678725Y-52330801D01*
X144635965Y-52385462D01*
X144630550Y-52398536D01*
X144590170Y-52445812D01*
X144529713Y-52460325D01*
X144472272Y-52436530D01*
X144466474Y-52431170D01*
X143950227Y-51914923D01*
X143899857Y-51881268D01*
X143840437Y-51869449D01*
X143021753Y-51869449D01*
X142962343Y-51881267D01*
X142911972Y-51914924D01*
X142911971Y-51914925D01*
X142333073Y-52493822D01*
X142299418Y-52544192D01*
X142287599Y-52603608D01*
X142287599Y-53422296D01*
X142299417Y-53481706D01*
X142333074Y-53532077D01*
X142333074Y-53532079D01*
X142911971Y-54110975D01*
X142911972Y-54110976D01*
X142962342Y-54144631D01*
X143021758Y-54156450D01*
X143840443Y-54156451D01*
X143899858Y-54144632D01*
X143950229Y-54110975D01*
X144466476Y-53594727D01*
X144521872Y-53566503D01*
X144583280Y-53576229D01*
X144627244Y-53620192D01*
X144630551Y-53627367D01*
X144635964Y-53640437D01*
X144635965Y-53640438D01*
X144678734Y-53695109D01*
X144678741Y-53695117D01*
X145195439Y-54211814D01*
X145223665Y-54267212D01*
X145213939Y-54328620D01*
X145195439Y-54354084D01*
X144678731Y-54870794D01*
X144678725Y-54870801D01*
X144635965Y-54925462D01*
X144630550Y-54938536D01*
X144590170Y-54985812D01*
X144529713Y-55000325D01*
X144472272Y-54976530D01*
X144466474Y-54971170D01*
X143950227Y-54454923D01*
X143899857Y-54421268D01*
X143840437Y-54409449D01*
X143021753Y-54409449D01*
X142962343Y-54421267D01*
X142911972Y-54454924D01*
X142911971Y-54454924D01*
X142333073Y-55033822D01*
X142299418Y-55084192D01*
X142287599Y-55143608D01*
X142287599Y-55962296D01*
X142299417Y-56021706D01*
X142299417Y-56021707D01*
X142299418Y-56021708D01*
X142333075Y-56072079D01*
X142664111Y-56403115D01*
X142692337Y-56458513D01*
X142682611Y-56519921D01*
X142638647Y-56563885D01*
X142592976Y-56574850D01*
X140857023Y-56574850D01*
X140856999Y-56574851D01*
X140826650Y-56574851D01*
X140803345Y-56582423D01*
X140788002Y-56586106D01*
X140763793Y-56589940D01*
X140763791Y-56589941D01*
X140741952Y-56601068D01*
X140727378Y-56607105D01*
X140704070Y-56614679D01*
X140704067Y-56614681D01*
X140684235Y-56629088D01*
X140670787Y-56637328D01*
X140648953Y-56648454D01*
X140648949Y-56648457D01*
X139605307Y-57692099D01*
X139594181Y-57713934D01*
X139585938Y-57727385D01*
X139571532Y-57747214D01*
X139571528Y-57747221D01*
X139563955Y-57770529D01*
X139557916Y-57785107D01*
X139546793Y-57806938D01*
X139546791Y-57806942D01*
X139546791Y-57806944D01*
X139543793Y-57825873D01*
X139542956Y-57831154D01*
X139539273Y-57846495D01*
X139531700Y-57869805D01*
X139531700Y-62684764D01*
X139512487Y-62743895D01*
X139464326Y-62779718D01*
X139434655Y-62790100D01*
X139369167Y-62813016D01*
X139224594Y-62903857D01*
X139224591Y-62903859D01*
X139183334Y-62945116D01*
X139127936Y-62973342D01*
X139066528Y-62963615D01*
X139022564Y-62919650D01*
X139011600Y-62873980D01*
X139011600Y-50916550D01*
X139030813Y-50857419D01*
X139081113Y-50820874D01*
X139112200Y-50815950D01*
X157890000Y-50815950D01*
X157949131Y-50835163D01*
G37*
%TD.AperFunction*%
%TA.AperFunction,Conductor*%
G36*
X144056100Y-136537497D02*
G01*
X143972492Y-136499315D01*
X143864234Y-136483750D01*
X143791566Y-136483750D01*
X143683308Y-136499315D01*
X143599700Y-136537497D01*
X143599700Y-134906002D01*
X143683308Y-134944185D01*
X143791566Y-134959750D01*
X143864234Y-134959750D01*
X143972492Y-134944185D01*
X144056100Y-134906002D01*
X144056100Y-136537497D01*
G37*
%TD.AperFunction*%
%TA.AperFunction,Conductor*%
G36*
X148044255Y-55339749D02*
G01*
X148003100Y-55479911D01*
X148003100Y-55625989D01*
X148044255Y-55766151D01*
X148053894Y-55781150D01*
X146428306Y-55781150D01*
X146437945Y-55766151D01*
X146479100Y-55625989D01*
X146479100Y-55479911D01*
X146437945Y-55339749D01*
X146428306Y-55324750D01*
X148053894Y-55324750D01*
X148044255Y-55339749D01*
G37*
%TD.AperFunction*%
%TA.AperFunction,Conductor*%
G36*
X150584255Y-55339749D02*
G01*
X150543100Y-55479911D01*
X150543100Y-55625989D01*
X150584255Y-55766151D01*
X150593894Y-55781150D01*
X148968306Y-55781150D01*
X148977945Y-55766151D01*
X149019100Y-55625989D01*
X149019100Y-55479911D01*
X148977945Y-55339749D01*
X148968306Y-55324750D01*
X150593894Y-55324750D01*
X150584255Y-55339749D01*
G37*
%TD.AperFunction*%
%TA.AperFunction,Conductor*%
G36*
X146199300Y-55098697D02*
G01*
X146115692Y-55060515D01*
X146007434Y-55044950D01*
X145934766Y-55044950D01*
X145826508Y-55060515D01*
X145742900Y-55098697D01*
X145742900Y-53467202D01*
X145826508Y-53505385D01*
X145934766Y-53520950D01*
X146007434Y-53520950D01*
X146115692Y-53505385D01*
X146199300Y-53467202D01*
X146199300Y-55098697D01*
G37*
%TD.AperFunction*%
%TA.AperFunction,Conductor*%
G36*
X148739300Y-55098697D02*
G01*
X148655692Y-55060515D01*
X148547434Y-55044950D01*
X148474766Y-55044950D01*
X148366508Y-55060515D01*
X148282900Y-55098697D01*
X148282900Y-53467202D01*
X148366508Y-53505385D01*
X148474766Y-53520950D01*
X148547434Y-53520950D01*
X148655692Y-53505385D01*
X148739300Y-53467202D01*
X148739300Y-55098697D01*
G37*
%TD.AperFunction*%
%TA.AperFunction,Conductor*%
G36*
X151279300Y-55098697D02*
G01*
X151195692Y-55060515D01*
X151087434Y-55044950D01*
X151014766Y-55044950D01*
X150906508Y-55060515D01*
X150822900Y-55098697D01*
X150822900Y-53467202D01*
X150906508Y-53505385D01*
X151014766Y-53520950D01*
X151087434Y-53520950D01*
X151195692Y-53505385D01*
X151279300Y-53467202D01*
X151279300Y-55098697D01*
G37*
%TD.AperFunction*%
%TA.AperFunction,Conductor*%
G36*
X148044255Y-52799749D02*
G01*
X148003100Y-52939911D01*
X148003100Y-53085989D01*
X148044255Y-53226151D01*
X148053894Y-53241150D01*
X146428306Y-53241150D01*
X146437945Y-53226151D01*
X146479100Y-53085989D01*
X146479100Y-52939911D01*
X146437945Y-52799749D01*
X146428306Y-52784750D01*
X148053894Y-52784750D01*
X148044255Y-52799749D01*
G37*
%TD.AperFunction*%
%TA.AperFunction,Conductor*%
G36*
X150584255Y-52799749D02*
G01*
X150543100Y-52939911D01*
X150543100Y-53085989D01*
X150584255Y-53226151D01*
X150593894Y-53241150D01*
X148968306Y-53241150D01*
X148977945Y-53226151D01*
X149019100Y-53085989D01*
X149019100Y-52939911D01*
X148977945Y-52799749D01*
X148968306Y-52784750D01*
X150593894Y-52784750D01*
X150584255Y-52799749D01*
G37*
%TD.AperFunction*%
%TD*%
M02*
