M48
; DRILL file {KiCad (6.0.11-0)} date 2023 May 02, Tuesday 23:36:09
; FORMAT={-:-/ absolute / inch / decimal}
; #@! TF.CreationDate,2023-05-02T23:36:09+02:00
; #@! TF.GenerationSoftware,Kicad,Pcbnew,(6.0.11-0)
; #@! TF.FileFunction,Plated,1,2,PTH
FMAT,2
INCH
; #@! TA.AperFunction,Plated,PTH,ViaDrill
T1C0.0236
; #@! TA.AperFunction,Plated,PTH,ComponentDrill
T2C0.0320
; #@! TA.AperFunction,Plated,PTH,ComponentDrill
T3C0.0400
%
G90
G05
T1
X5.5219Y-2.4684
X5.5469Y-3.8434
X5.5469Y-5.1559
X5.5469Y-6.1934
X5.5781Y-2.2934
X5.5781Y-2.6184
X5.7594Y-3.7934
X5.7594Y-5.2809
X5.7719Y-5.1184
X5.7781Y-3.4309
X5.8094Y-2.3059
X5.8156Y-3.6684
X5.8219Y-5.0059
X5.8469Y-4.7434
X5.8469Y-5.1559
X5.8844Y-2.3059
X5.8906Y-3.9059
X5.9969Y-2.2434
X6.0094Y-2.4059
X6.0781Y-2.5059
X6.1281Y-2.4809
X6.1469Y-6.1934
X6.1781Y-2.9684
X6.1781Y-3.0996
X6.1781Y-4.3309
X6.1781Y-4.4621
T2
X5.7969Y-2.4934
X5.7969Y-3.8434
X5.7969Y-5.1934
X5.8969Y-2.4934
X5.8969Y-3.8434
X5.8969Y-5.1934
T3
X5.6469Y-2.0871
X5.6469Y-2.1871
X5.6625Y-3.9934
X5.6625Y-4.2934
X5.6625Y-4.3934
X5.6625Y-5.2934
X5.6625Y-5.3934
X5.6625Y-5.6934
X5.6625Y-2.6434
X5.6625Y-2.9434
X5.6625Y-3.0434
X5.6625Y-3.1434
X5.6625Y-3.4434
X5.6625Y-3.5434
X5.6625Y-4.4934
X5.6625Y-4.7934
X5.6625Y-4.8934
X5.6625Y-5.7965
X5.6625Y-5.8965
X5.6625Y-6.1965
X5.7469Y-2.0871
X5.7469Y-2.1871
X5.8469Y-2.0871
X5.8469Y-2.1871
X5.9469Y-2.0871
X5.9469Y-2.1871
X6.0313Y-3.9934
X6.0313Y-4.2934
X6.0313Y-4.3934
X6.0313Y-4.4934
X6.0313Y-4.7934
X6.0313Y-4.8934
X6.0313Y-2.6434
X6.0313Y-2.9434
X6.0313Y-3.0434
X6.0313Y-3.1434
X6.0313Y-3.4434
X6.0313Y-3.5434
X6.0313Y-5.2934
X6.0313Y-5.3934
X6.0313Y-5.6934
X6.0313Y-5.7934
X6.0313Y-5.8934
X6.0313Y-6.1934
X6.0469Y-2.0871
X6.0469Y-2.1871
T0
M30
