%TF.GenerationSoftware,KiCad,Pcbnew,7.0.5-0*%
%TF.CreationDate,2023-09-10T13:20:23+02:00*%
%TF.ProjectId,links,6c696e6b-732e-46b6-9963-61645f706362,rev?*%
%TF.SameCoordinates,Original*%
%TF.FileFunction,Legend,Top*%
%TF.FilePolarity,Positive*%
%FSLAX46Y46*%
G04 Gerber Fmt 4.6, Leading zero omitted, Abs format (unit mm)*
G04 Created by KiCad (PCBNEW 7.0.5-0) date 2023-09-10 13:20:23*
%MOMM*%
%LPD*%
G01*
G04 APERTURE LIST*
G04 Aperture macros list*
%AMRoundRect*
0 Rectangle with rounded corners*
0 $1 Rounding radius*
0 $2 $3 $4 $5 $6 $7 $8 $9 X,Y pos of 4 corners*
0 Add a 4 corners polygon primitive as box body*
4,1,4,$2,$3,$4,$5,$6,$7,$8,$9,$2,$3,0*
0 Add four circle primitives for the rounded corners*
1,1,$1+$1,$2,$3*
1,1,$1+$1,$4,$5*
1,1,$1+$1,$6,$7*
1,1,$1+$1,$8,$9*
0 Add four rect primitives between the rounded corners*
20,1,$1+$1,$2,$3,$4,$5,0*
20,1,$1+$1,$4,$5,$6,$7,0*
20,1,$1+$1,$6,$7,$8,$9,0*
20,1,$1+$1,$8,$9,$2,$3,0*%
%AMFreePoly0*
4,1,25,0.301485,0.667973,0.306387,0.663482,0.663482,0.306387,0.685510,0.259146,0.685800,0.252505,0.685800,-0.252505,0.667973,-0.301485,0.663482,-0.306387,0.306387,-0.663482,0.259146,-0.685510,0.252505,-0.685800,-0.252505,-0.685800,-0.301485,-0.667973,-0.306387,-0.663482,-0.663482,-0.306387,-0.685510,-0.259146,-0.685800,-0.252505,-0.685800,0.252505,-0.667973,0.301485,-0.663482,0.306387,
-0.306387,0.663482,-0.259146,0.685510,-0.252505,0.685800,0.252505,0.685800,0.301485,0.667973,0.301485,0.667973,$1*%
%AMFreePoly1*
4,1,25,0.417216,0.947373,0.422118,0.942882,0.942882,0.422118,0.964910,0.374877,0.965200,0.368236,0.965200,-0.368236,0.947373,-0.417216,0.942882,-0.422118,0.422118,-0.942882,0.374877,-0.964910,0.368236,-0.965200,-0.368236,-0.965200,-0.417216,-0.947373,-0.422118,-0.942882,-0.942882,-0.422118,-0.964910,-0.374877,-0.965200,-0.368236,-0.965200,0.368236,-0.947373,0.417216,-0.942882,0.422118,
-0.422118,0.942882,-0.374877,0.964910,-0.368236,0.965200,0.368236,0.965200,0.417216,0.947373,0.417216,0.947373,$1*%
%AMFreePoly2*
4,1,25,0.438258,0.998173,0.443160,0.993682,0.993682,0.443160,1.015710,0.395919,1.016000,0.389278,1.016000,-0.389278,0.998173,-0.438258,0.993682,-0.443160,0.443160,-0.993682,0.395919,-1.015710,0.389278,-1.016000,-0.389278,-1.016000,-0.438258,-0.998173,-0.443160,-0.993682,-0.993682,-0.443160,-1.015710,-0.395919,-1.016000,-0.389278,-1.016000,0.389278,-0.998173,0.438258,-0.993682,0.443160,
-0.443160,0.993682,-0.395919,1.015710,-0.389278,1.016000,0.389278,1.016000,0.438258,0.998173,0.438258,0.998173,$1*%
G04 Aperture macros list end*
%ADD10C,0.093472*%
%ADD11C,0.150000*%
%ADD12C,0.171450*%
%ADD13C,0.114300*%
%ADD14C,0.175260*%
%ADD15C,0.118110*%
%ADD16C,0.163576*%
%ADD17C,0.100000*%
%ADD18C,0.120000*%
%ADD19C,0.152400*%
%ADD20C,0.254000*%
%ADD21C,0.127000*%
%ADD22C,0.203200*%
%ADD23C,0.325000*%
%ADD24C,0.050800*%
%ADD25RoundRect,0.076200X0.700000X-0.700000X0.700000X0.700000X-0.700000X0.700000X-0.700000X-0.700000X0*%
%ADD26RoundRect,0.076200X-0.700000X0.700000X-0.700000X-0.700000X0.700000X-0.700000X0.700000X0.700000X0*%
%ADD27R,1.600000X2.200000*%
%ADD28RoundRect,0.076200X0.500000X0.550000X-0.500000X0.550000X-0.500000X-0.550000X0.500000X-0.550000X0*%
%ADD29RoundRect,0.076200X0.550000X0.500000X-0.550000X0.500000X-0.550000X-0.500000X0.550000X-0.500000X0*%
%ADD30RoundRect,0.076200X0.300000X0.600000X-0.300000X0.600000X-0.300000X-0.600000X0.300000X-0.600000X0*%
%ADD31FreePoly0,180.000000*%
%ADD32RoundRect,0.076200X0.500000X-0.550000X0.500000X0.550000X-0.500000X0.550000X-0.500000X-0.550000X0*%
%ADD33RoundRect,0.076200X-0.550000X0.500000X-0.550000X-0.500000X0.550000X-0.500000X0.550000X0.500000X0*%
%ADD34RoundRect,0.076200X-0.500000X-0.550000X0.500000X-0.550000X0.500000X0.550000X-0.500000X0.550000X0*%
%ADD35C,2.200000*%
%ADD36FreePoly1,180.000000*%
%ADD37RoundRect,0.076200X0.550000X-0.500000X0.550000X0.500000X-0.550000X0.500000X-0.550000X-0.500000X0*%
%ADD38RoundRect,0.076200X-0.600000X0.175000X-0.600000X-0.175000X0.600000X-0.175000X0.600000X0.175000X0*%
%ADD39FreePoly1,0.000000*%
%ADD40RoundRect,0.076200X-0.495300X0.152400X-0.495300X-0.152400X0.495300X-0.152400X0.495300X0.152400X0*%
%ADD41FreePoly2,0.000000*%
G04 APERTURE END LIST*
D10*
%TO.C,D1*%
X139807610Y-55516168D02*
X139291482Y-55516168D01*
X139291482Y-55516168D02*
X139291482Y-55393280D01*
X139291482Y-55393280D02*
X139316060Y-55319548D01*
X139316060Y-55319548D02*
X139365215Y-55270393D01*
X139365215Y-55270393D02*
X139414370Y-55245815D01*
X139414370Y-55245815D02*
X139512680Y-55221238D01*
X139512680Y-55221238D02*
X139586412Y-55221238D01*
X139586412Y-55221238D02*
X139684722Y-55245815D01*
X139684722Y-55245815D02*
X139733877Y-55270393D01*
X139733877Y-55270393D02*
X139783033Y-55319548D01*
X139783033Y-55319548D02*
X139807610Y-55393280D01*
X139807610Y-55393280D02*
X139807610Y-55516168D01*
X139807610Y-54729687D02*
X139807610Y-55024617D01*
X139807610Y-54877152D02*
X139291482Y-54877152D01*
X139291482Y-54877152D02*
X139365215Y-54926307D01*
X139365215Y-54926307D02*
X139414370Y-54975462D01*
X139414370Y-54975462D02*
X139438947Y-55024617D01*
%TO.C,D2*%
X155682510Y-55515868D02*
X155166382Y-55515868D01*
X155166382Y-55515868D02*
X155166382Y-55392980D01*
X155166382Y-55392980D02*
X155190960Y-55319248D01*
X155190960Y-55319248D02*
X155240115Y-55270093D01*
X155240115Y-55270093D02*
X155289270Y-55245515D01*
X155289270Y-55245515D02*
X155387580Y-55220938D01*
X155387580Y-55220938D02*
X155461312Y-55220938D01*
X155461312Y-55220938D02*
X155559622Y-55245515D01*
X155559622Y-55245515D02*
X155608777Y-55270093D01*
X155608777Y-55270093D02*
X155657933Y-55319248D01*
X155657933Y-55319248D02*
X155682510Y-55392980D01*
X155682510Y-55392980D02*
X155682510Y-55515868D01*
X155215537Y-55024317D02*
X155190960Y-54999740D01*
X155190960Y-54999740D02*
X155166382Y-54950585D01*
X155166382Y-54950585D02*
X155166382Y-54827697D01*
X155166382Y-54827697D02*
X155190960Y-54778542D01*
X155190960Y-54778542D02*
X155215537Y-54753965D01*
X155215537Y-54753965D02*
X155264692Y-54729387D01*
X155264692Y-54729387D02*
X155313847Y-54729387D01*
X155313847Y-54729387D02*
X155387580Y-54753965D01*
X155387580Y-54753965D02*
X155682510Y-55048895D01*
X155682510Y-55048895D02*
X155682510Y-54729387D01*
D11*
%TO.C,C1*%
X142233333Y-57459580D02*
X142185714Y-57507200D01*
X142185714Y-57507200D02*
X142042857Y-57554819D01*
X142042857Y-57554819D02*
X141947619Y-57554819D01*
X141947619Y-57554819D02*
X141804762Y-57507200D01*
X141804762Y-57507200D02*
X141709524Y-57411961D01*
X141709524Y-57411961D02*
X141661905Y-57316723D01*
X141661905Y-57316723D02*
X141614286Y-57126247D01*
X141614286Y-57126247D02*
X141614286Y-56983390D01*
X141614286Y-56983390D02*
X141661905Y-56792914D01*
X141661905Y-56792914D02*
X141709524Y-56697676D01*
X141709524Y-56697676D02*
X141804762Y-56602438D01*
X141804762Y-56602438D02*
X141947619Y-56554819D01*
X141947619Y-56554819D02*
X142042857Y-56554819D01*
X142042857Y-56554819D02*
X142185714Y-56602438D01*
X142185714Y-56602438D02*
X142233333Y-56650057D01*
X143185714Y-57554819D02*
X142614286Y-57554819D01*
X142900000Y-57554819D02*
X142900000Y-56554819D01*
X142900000Y-56554819D02*
X142804762Y-56697676D01*
X142804762Y-56697676D02*
X142709524Y-56792914D01*
X142709524Y-56792914D02*
X142614286Y-56840533D01*
D10*
%TO.C,R21*%
X157317610Y-147659654D02*
X157071835Y-147831696D01*
X157317610Y-147954584D02*
X156801482Y-147954584D01*
X156801482Y-147954584D02*
X156801482Y-147757964D01*
X156801482Y-147757964D02*
X156826060Y-147708809D01*
X156826060Y-147708809D02*
X156850637Y-147684231D01*
X156850637Y-147684231D02*
X156899792Y-147659654D01*
X156899792Y-147659654D02*
X156973525Y-147659654D01*
X156973525Y-147659654D02*
X157022680Y-147684231D01*
X157022680Y-147684231D02*
X157047257Y-147708809D01*
X157047257Y-147708809D02*
X157071835Y-147757964D01*
X157071835Y-147757964D02*
X157071835Y-147954584D01*
X156850637Y-147463033D02*
X156826060Y-147438456D01*
X156826060Y-147438456D02*
X156801482Y-147389301D01*
X156801482Y-147389301D02*
X156801482Y-147266413D01*
X156801482Y-147266413D02*
X156826060Y-147217258D01*
X156826060Y-147217258D02*
X156850637Y-147192681D01*
X156850637Y-147192681D02*
X156899792Y-147168103D01*
X156899792Y-147168103D02*
X156948947Y-147168103D01*
X156948947Y-147168103D02*
X157022680Y-147192681D01*
X157022680Y-147192681D02*
X157317610Y-147487611D01*
X157317610Y-147487611D02*
X157317610Y-147168103D01*
X157317610Y-146676553D02*
X157317610Y-146971483D01*
X157317610Y-146824018D02*
X156801482Y-146824018D01*
X156801482Y-146824018D02*
X156875215Y-146873173D01*
X156875215Y-146873173D02*
X156924370Y-146922328D01*
X156924370Y-146922328D02*
X156948947Y-146971483D01*
%TO.C,C7*%
X146907245Y-95584005D02*
X146882668Y-95608583D01*
X146882668Y-95608583D02*
X146808935Y-95633160D01*
X146808935Y-95633160D02*
X146759780Y-95633160D01*
X146759780Y-95633160D02*
X146686048Y-95608583D01*
X146686048Y-95608583D02*
X146636893Y-95559427D01*
X146636893Y-95559427D02*
X146612315Y-95510272D01*
X146612315Y-95510272D02*
X146587738Y-95411962D01*
X146587738Y-95411962D02*
X146587738Y-95338230D01*
X146587738Y-95338230D02*
X146612315Y-95239920D01*
X146612315Y-95239920D02*
X146636893Y-95190765D01*
X146636893Y-95190765D02*
X146686048Y-95141610D01*
X146686048Y-95141610D02*
X146759780Y-95117032D01*
X146759780Y-95117032D02*
X146808935Y-95117032D01*
X146808935Y-95117032D02*
X146882668Y-95141610D01*
X146882668Y-95141610D02*
X146907245Y-95166187D01*
X147079288Y-95117032D02*
X147423373Y-95117032D01*
X147423373Y-95117032D02*
X147202176Y-95633160D01*
D12*
%TO.C,IC3*%
X154200137Y-99146439D02*
X154200137Y-98301889D01*
X155084904Y-99066006D02*
X155044687Y-99106223D01*
X155044687Y-99106223D02*
X154924037Y-99146439D01*
X154924037Y-99146439D02*
X154843604Y-99146439D01*
X154843604Y-99146439D02*
X154722954Y-99106223D01*
X154722954Y-99106223D02*
X154642521Y-99025789D01*
X154642521Y-99025789D02*
X154602304Y-98945356D01*
X154602304Y-98945356D02*
X154562087Y-98784489D01*
X154562087Y-98784489D02*
X154562087Y-98663839D01*
X154562087Y-98663839D02*
X154602304Y-98502973D01*
X154602304Y-98502973D02*
X154642521Y-98422539D01*
X154642521Y-98422539D02*
X154722954Y-98342106D01*
X154722954Y-98342106D02*
X154843604Y-98301889D01*
X154843604Y-98301889D02*
X154924037Y-98301889D01*
X154924037Y-98301889D02*
X155044687Y-98342106D01*
X155044687Y-98342106D02*
X155084904Y-98382323D01*
X155366421Y-98301889D02*
X155889237Y-98301889D01*
X155889237Y-98301889D02*
X155607721Y-98623623D01*
X155607721Y-98623623D02*
X155728371Y-98623623D01*
X155728371Y-98623623D02*
X155808804Y-98663839D01*
X155808804Y-98663839D02*
X155849021Y-98704056D01*
X155849021Y-98704056D02*
X155889237Y-98784489D01*
X155889237Y-98784489D02*
X155889237Y-98985573D01*
X155889237Y-98985573D02*
X155849021Y-99066006D01*
X155849021Y-99066006D02*
X155808804Y-99106223D01*
X155808804Y-99106223D02*
X155728371Y-99146439D01*
X155728371Y-99146439D02*
X155487071Y-99146439D01*
X155487071Y-99146439D02*
X155406637Y-99106223D01*
X155406637Y-99106223D02*
X155366421Y-99066006D01*
D13*
%TO.C,LED2*%
X140516288Y-98680391D02*
X140280431Y-98680391D01*
X140280431Y-98680391D02*
X140280431Y-98185091D01*
X140681388Y-98420948D02*
X140846488Y-98420948D01*
X140917245Y-98680391D02*
X140681388Y-98680391D01*
X140681388Y-98680391D02*
X140681388Y-98185091D01*
X140681388Y-98185091D02*
X140917245Y-98185091D01*
X141129517Y-98680391D02*
X141129517Y-98185091D01*
X141129517Y-98185091D02*
X141247446Y-98185091D01*
X141247446Y-98185091D02*
X141318203Y-98208677D01*
X141318203Y-98208677D02*
X141365374Y-98255848D01*
X141365374Y-98255848D02*
X141388960Y-98303020D01*
X141388960Y-98303020D02*
X141412546Y-98397363D01*
X141412546Y-98397363D02*
X141412546Y-98468120D01*
X141412546Y-98468120D02*
X141388960Y-98562463D01*
X141388960Y-98562463D02*
X141365374Y-98609634D01*
X141365374Y-98609634D02*
X141318203Y-98656806D01*
X141318203Y-98656806D02*
X141247446Y-98680391D01*
X141247446Y-98680391D02*
X141129517Y-98680391D01*
X141601231Y-98232263D02*
X141624817Y-98208677D01*
X141624817Y-98208677D02*
X141671989Y-98185091D01*
X141671989Y-98185091D02*
X141789917Y-98185091D01*
X141789917Y-98185091D02*
X141837089Y-98208677D01*
X141837089Y-98208677D02*
X141860674Y-98232263D01*
X141860674Y-98232263D02*
X141884260Y-98279434D01*
X141884260Y-98279434D02*
X141884260Y-98326606D01*
X141884260Y-98326606D02*
X141860674Y-98397363D01*
X141860674Y-98397363D02*
X141577646Y-98680391D01*
X141577646Y-98680391D02*
X141884260Y-98680391D01*
D10*
%TO.C,C10*%
X147514755Y-132625404D02*
X147539333Y-132649981D01*
X147539333Y-132649981D02*
X147563910Y-132723714D01*
X147563910Y-132723714D02*
X147563910Y-132772869D01*
X147563910Y-132772869D02*
X147539333Y-132846601D01*
X147539333Y-132846601D02*
X147490177Y-132895756D01*
X147490177Y-132895756D02*
X147441022Y-132920334D01*
X147441022Y-132920334D02*
X147342712Y-132944911D01*
X147342712Y-132944911D02*
X147268980Y-132944911D01*
X147268980Y-132944911D02*
X147170670Y-132920334D01*
X147170670Y-132920334D02*
X147121515Y-132895756D01*
X147121515Y-132895756D02*
X147072360Y-132846601D01*
X147072360Y-132846601D02*
X147047782Y-132772869D01*
X147047782Y-132772869D02*
X147047782Y-132723714D01*
X147047782Y-132723714D02*
X147072360Y-132649981D01*
X147072360Y-132649981D02*
X147096937Y-132625404D01*
X147563910Y-132133853D02*
X147563910Y-132428783D01*
X147563910Y-132281318D02*
X147047782Y-132281318D01*
X147047782Y-132281318D02*
X147121515Y-132330473D01*
X147121515Y-132330473D02*
X147170670Y-132379628D01*
X147170670Y-132379628D02*
X147195247Y-132428783D01*
X147047782Y-131814346D02*
X147047782Y-131765191D01*
X147047782Y-131765191D02*
X147072360Y-131716036D01*
X147072360Y-131716036D02*
X147096937Y-131691458D01*
X147096937Y-131691458D02*
X147146092Y-131666881D01*
X147146092Y-131666881D02*
X147244402Y-131642303D01*
X147244402Y-131642303D02*
X147367290Y-131642303D01*
X147367290Y-131642303D02*
X147465600Y-131666881D01*
X147465600Y-131666881D02*
X147514755Y-131691458D01*
X147514755Y-131691458D02*
X147539333Y-131716036D01*
X147539333Y-131716036D02*
X147563910Y-131765191D01*
X147563910Y-131765191D02*
X147563910Y-131814346D01*
X147563910Y-131814346D02*
X147539333Y-131863501D01*
X147539333Y-131863501D02*
X147514755Y-131888078D01*
X147514755Y-131888078D02*
X147465600Y-131912656D01*
X147465600Y-131912656D02*
X147367290Y-131937233D01*
X147367290Y-131937233D02*
X147244402Y-131937233D01*
X147244402Y-131937233D02*
X147146092Y-131912656D01*
X147146092Y-131912656D02*
X147096937Y-131888078D01*
X147096937Y-131888078D02*
X147072360Y-131863501D01*
X147072360Y-131863501D02*
X147047782Y-131814346D01*
D11*
%TO.C,C2*%
X156133333Y-62559580D02*
X156085714Y-62607200D01*
X156085714Y-62607200D02*
X155942857Y-62654819D01*
X155942857Y-62654819D02*
X155847619Y-62654819D01*
X155847619Y-62654819D02*
X155704762Y-62607200D01*
X155704762Y-62607200D02*
X155609524Y-62511961D01*
X155609524Y-62511961D02*
X155561905Y-62416723D01*
X155561905Y-62416723D02*
X155514286Y-62226247D01*
X155514286Y-62226247D02*
X155514286Y-62083390D01*
X155514286Y-62083390D02*
X155561905Y-61892914D01*
X155561905Y-61892914D02*
X155609524Y-61797676D01*
X155609524Y-61797676D02*
X155704762Y-61702438D01*
X155704762Y-61702438D02*
X155847619Y-61654819D01*
X155847619Y-61654819D02*
X155942857Y-61654819D01*
X155942857Y-61654819D02*
X156085714Y-61702438D01*
X156085714Y-61702438D02*
X156133333Y-61750057D01*
X156514286Y-61750057D02*
X156561905Y-61702438D01*
X156561905Y-61702438D02*
X156657143Y-61654819D01*
X156657143Y-61654819D02*
X156895238Y-61654819D01*
X156895238Y-61654819D02*
X156990476Y-61702438D01*
X156990476Y-61702438D02*
X157038095Y-61750057D01*
X157038095Y-61750057D02*
X157085714Y-61845295D01*
X157085714Y-61845295D02*
X157085714Y-61940533D01*
X157085714Y-61940533D02*
X157038095Y-62083390D01*
X157038095Y-62083390D02*
X156466667Y-62654819D01*
X156466667Y-62654819D02*
X157085714Y-62654819D01*
D10*
%TO.C,C6*%
X152622245Y-94314005D02*
X152597668Y-94338583D01*
X152597668Y-94338583D02*
X152523935Y-94363160D01*
X152523935Y-94363160D02*
X152474780Y-94363160D01*
X152474780Y-94363160D02*
X152401048Y-94338583D01*
X152401048Y-94338583D02*
X152351893Y-94289427D01*
X152351893Y-94289427D02*
X152327315Y-94240272D01*
X152327315Y-94240272D02*
X152302738Y-94141962D01*
X152302738Y-94141962D02*
X152302738Y-94068230D01*
X152302738Y-94068230D02*
X152327315Y-93969920D01*
X152327315Y-93969920D02*
X152351893Y-93920765D01*
X152351893Y-93920765D02*
X152401048Y-93871610D01*
X152401048Y-93871610D02*
X152474780Y-93847032D01*
X152474780Y-93847032D02*
X152523935Y-93847032D01*
X152523935Y-93847032D02*
X152597668Y-93871610D01*
X152597668Y-93871610D02*
X152622245Y-93896187D01*
X153064641Y-93847032D02*
X152966331Y-93847032D01*
X152966331Y-93847032D02*
X152917176Y-93871610D01*
X152917176Y-93871610D02*
X152892598Y-93896187D01*
X152892598Y-93896187D02*
X152843443Y-93969920D01*
X152843443Y-93969920D02*
X152818866Y-94068230D01*
X152818866Y-94068230D02*
X152818866Y-94264850D01*
X152818866Y-94264850D02*
X152843443Y-94314005D01*
X152843443Y-94314005D02*
X152868021Y-94338583D01*
X152868021Y-94338583D02*
X152917176Y-94363160D01*
X152917176Y-94363160D02*
X153015486Y-94363160D01*
X153015486Y-94363160D02*
X153064641Y-94338583D01*
X153064641Y-94338583D02*
X153089218Y-94314005D01*
X153089218Y-94314005D02*
X153113796Y-94264850D01*
X153113796Y-94264850D02*
X153113796Y-94141962D01*
X153113796Y-94141962D02*
X153089218Y-94092807D01*
X153089218Y-94092807D02*
X153064641Y-94068230D01*
X153064641Y-94068230D02*
X153015486Y-94043652D01*
X153015486Y-94043652D02*
X152917176Y-94043652D01*
X152917176Y-94043652D02*
X152868021Y-94068230D01*
X152868021Y-94068230D02*
X152843443Y-94092807D01*
X152843443Y-94092807D02*
X152818866Y-94141962D01*
%TO.C,R3*%
X148027610Y-63857554D02*
X147781835Y-64029596D01*
X148027610Y-64152484D02*
X147511482Y-64152484D01*
X147511482Y-64152484D02*
X147511482Y-63955864D01*
X147511482Y-63955864D02*
X147536060Y-63906709D01*
X147536060Y-63906709D02*
X147560637Y-63882131D01*
X147560637Y-63882131D02*
X147609792Y-63857554D01*
X147609792Y-63857554D02*
X147683525Y-63857554D01*
X147683525Y-63857554D02*
X147732680Y-63882131D01*
X147732680Y-63882131D02*
X147757257Y-63906709D01*
X147757257Y-63906709D02*
X147781835Y-63955864D01*
X147781835Y-63955864D02*
X147781835Y-64152484D01*
X147511482Y-63685511D02*
X147511482Y-63366003D01*
X147511482Y-63366003D02*
X147708102Y-63538046D01*
X147708102Y-63538046D02*
X147708102Y-63464313D01*
X147708102Y-63464313D02*
X147732680Y-63415158D01*
X147732680Y-63415158D02*
X147757257Y-63390581D01*
X147757257Y-63390581D02*
X147806412Y-63366003D01*
X147806412Y-63366003D02*
X147929300Y-63366003D01*
X147929300Y-63366003D02*
X147978455Y-63390581D01*
X147978455Y-63390581D02*
X148003033Y-63415158D01*
X148003033Y-63415158D02*
X148027610Y-63464313D01*
X148027610Y-63464313D02*
X148027610Y-63611778D01*
X148027610Y-63611778D02*
X148003033Y-63660933D01*
X148003033Y-63660933D02*
X147978455Y-63685511D01*
%TO.C,R14*%
X145304495Y-125478160D02*
X145132453Y-125232385D01*
X145009565Y-125478160D02*
X145009565Y-124962032D01*
X145009565Y-124962032D02*
X145206185Y-124962032D01*
X145206185Y-124962032D02*
X145255340Y-124986610D01*
X145255340Y-124986610D02*
X145279918Y-125011187D01*
X145279918Y-125011187D02*
X145304495Y-125060342D01*
X145304495Y-125060342D02*
X145304495Y-125134075D01*
X145304495Y-125134075D02*
X145279918Y-125183230D01*
X145279918Y-125183230D02*
X145255340Y-125207807D01*
X145255340Y-125207807D02*
X145206185Y-125232385D01*
X145206185Y-125232385D02*
X145009565Y-125232385D01*
X145796046Y-125478160D02*
X145501116Y-125478160D01*
X145648581Y-125478160D02*
X145648581Y-124962032D01*
X145648581Y-124962032D02*
X145599426Y-125035765D01*
X145599426Y-125035765D02*
X145550271Y-125084920D01*
X145550271Y-125084920D02*
X145501116Y-125109497D01*
X146238441Y-125134075D02*
X146238441Y-125478160D01*
X146115553Y-124937455D02*
X145992666Y-125306117D01*
X145992666Y-125306117D02*
X146312173Y-125306117D01*
%TO.C,R5*%
X157317510Y-77318004D02*
X157071735Y-77490046D01*
X157317510Y-77612934D02*
X156801382Y-77612934D01*
X156801382Y-77612934D02*
X156801382Y-77416314D01*
X156801382Y-77416314D02*
X156825960Y-77367159D01*
X156825960Y-77367159D02*
X156850537Y-77342581D01*
X156850537Y-77342581D02*
X156899692Y-77318004D01*
X156899692Y-77318004D02*
X156973425Y-77318004D01*
X156973425Y-77318004D02*
X157022580Y-77342581D01*
X157022580Y-77342581D02*
X157047157Y-77367159D01*
X157047157Y-77367159D02*
X157071735Y-77416314D01*
X157071735Y-77416314D02*
X157071735Y-77612934D01*
X156801382Y-76851031D02*
X156801382Y-77096806D01*
X156801382Y-77096806D02*
X157047157Y-77121383D01*
X157047157Y-77121383D02*
X157022580Y-77096806D01*
X157022580Y-77096806D02*
X156998002Y-77047651D01*
X156998002Y-77047651D02*
X156998002Y-76924763D01*
X156998002Y-76924763D02*
X157022580Y-76875608D01*
X157022580Y-76875608D02*
X157047157Y-76851031D01*
X157047157Y-76851031D02*
X157096312Y-76826453D01*
X157096312Y-76826453D02*
X157219200Y-76826453D01*
X157219200Y-76826453D02*
X157268355Y-76851031D01*
X157268355Y-76851031D02*
X157292933Y-76875608D01*
X157292933Y-76875608D02*
X157317510Y-76924763D01*
X157317510Y-76924763D02*
X157317510Y-77047651D01*
X157317510Y-77047651D02*
X157292933Y-77096806D01*
X157292933Y-77096806D02*
X157268355Y-77121383D01*
%TO.C,R15*%
X142005311Y-126113160D02*
X141833269Y-125867385D01*
X141710381Y-126113160D02*
X141710381Y-125597032D01*
X141710381Y-125597032D02*
X141907001Y-125597032D01*
X141907001Y-125597032D02*
X141956156Y-125621610D01*
X141956156Y-125621610D02*
X141980734Y-125646187D01*
X141980734Y-125646187D02*
X142005311Y-125695342D01*
X142005311Y-125695342D02*
X142005311Y-125769075D01*
X142005311Y-125769075D02*
X141980734Y-125818230D01*
X141980734Y-125818230D02*
X141956156Y-125842807D01*
X141956156Y-125842807D02*
X141907001Y-125867385D01*
X141907001Y-125867385D02*
X141710381Y-125867385D01*
X142496862Y-126113160D02*
X142201932Y-126113160D01*
X142349397Y-126113160D02*
X142349397Y-125597032D01*
X142349397Y-125597032D02*
X142300242Y-125670765D01*
X142300242Y-125670765D02*
X142251087Y-125719920D01*
X142251087Y-125719920D02*
X142201932Y-125744497D01*
X142963834Y-125597032D02*
X142718059Y-125597032D01*
X142718059Y-125597032D02*
X142693482Y-125842807D01*
X142693482Y-125842807D02*
X142718059Y-125818230D01*
X142718059Y-125818230D02*
X142767214Y-125793652D01*
X142767214Y-125793652D02*
X142890102Y-125793652D01*
X142890102Y-125793652D02*
X142939257Y-125818230D01*
X142939257Y-125818230D02*
X142963834Y-125842807D01*
X142963834Y-125842807D02*
X142988412Y-125891962D01*
X142988412Y-125891962D02*
X142988412Y-126014850D01*
X142988412Y-126014850D02*
X142963834Y-126064005D01*
X142963834Y-126064005D02*
X142939257Y-126088583D01*
X142939257Y-126088583D02*
X142890102Y-126113160D01*
X142890102Y-126113160D02*
X142767214Y-126113160D01*
X142767214Y-126113160D02*
X142718059Y-126088583D01*
X142718059Y-126088583D02*
X142693482Y-126064005D01*
%TO.C,J10*%
X149530870Y-134688346D02*
X149530870Y-135528723D01*
X149530870Y-135528723D02*
X149474845Y-135696798D01*
X149474845Y-135696798D02*
X149362795Y-135808849D01*
X149362795Y-135808849D02*
X149194719Y-135864874D01*
X149194719Y-135864874D02*
X149082669Y-135864874D01*
X150707398Y-135864874D02*
X150035096Y-135864874D01*
X150371247Y-135864874D02*
X150371247Y-134688346D01*
X150371247Y-134688346D02*
X150259197Y-134856421D01*
X150259197Y-134856421D02*
X150147146Y-134968471D01*
X150147146Y-134968471D02*
X150035096Y-135024497D01*
X151435725Y-134688346D02*
X151547775Y-134688346D01*
X151547775Y-134688346D02*
X151659825Y-134744371D01*
X151659825Y-134744371D02*
X151715851Y-134800396D01*
X151715851Y-134800396D02*
X151771876Y-134912446D01*
X151771876Y-134912446D02*
X151827901Y-135136547D01*
X151827901Y-135136547D02*
X151827901Y-135416673D01*
X151827901Y-135416673D02*
X151771876Y-135640773D01*
X151771876Y-135640773D02*
X151715851Y-135752823D01*
X151715851Y-135752823D02*
X151659825Y-135808849D01*
X151659825Y-135808849D02*
X151547775Y-135864874D01*
X151547775Y-135864874D02*
X151435725Y-135864874D01*
X151435725Y-135864874D02*
X151323675Y-135808849D01*
X151323675Y-135808849D02*
X151267649Y-135752823D01*
X151267649Y-135752823D02*
X151211624Y-135640773D01*
X151211624Y-135640773D02*
X151155599Y-135416673D01*
X151155599Y-135416673D02*
X151155599Y-135136547D01*
X151155599Y-135136547D02*
X151211624Y-134912446D01*
X151211624Y-134912446D02*
X151267649Y-134800396D01*
X151267649Y-134800396D02*
X151323675Y-134744371D01*
X151323675Y-134744371D02*
X151435725Y-134688346D01*
D13*
%TO.C,LED3*%
X141945088Y-134409191D02*
X141709231Y-134409191D01*
X141709231Y-134409191D02*
X141709231Y-133913891D01*
X142110188Y-134149748D02*
X142275288Y-134149748D01*
X142346045Y-134409191D02*
X142110188Y-134409191D01*
X142110188Y-134409191D02*
X142110188Y-133913891D01*
X142110188Y-133913891D02*
X142346045Y-133913891D01*
X142558317Y-134409191D02*
X142558317Y-133913891D01*
X142558317Y-133913891D02*
X142676246Y-133913891D01*
X142676246Y-133913891D02*
X142747003Y-133937477D01*
X142747003Y-133937477D02*
X142794174Y-133984648D01*
X142794174Y-133984648D02*
X142817760Y-134031820D01*
X142817760Y-134031820D02*
X142841346Y-134126163D01*
X142841346Y-134126163D02*
X142841346Y-134196920D01*
X142841346Y-134196920D02*
X142817760Y-134291263D01*
X142817760Y-134291263D02*
X142794174Y-134338434D01*
X142794174Y-134338434D02*
X142747003Y-134385606D01*
X142747003Y-134385606D02*
X142676246Y-134409191D01*
X142676246Y-134409191D02*
X142558317Y-134409191D01*
X143006446Y-133913891D02*
X143313060Y-133913891D01*
X143313060Y-133913891D02*
X143147960Y-134102577D01*
X143147960Y-134102577D02*
X143218717Y-134102577D01*
X143218717Y-134102577D02*
X143265889Y-134126163D01*
X143265889Y-134126163D02*
X143289474Y-134149748D01*
X143289474Y-134149748D02*
X143313060Y-134196920D01*
X143313060Y-134196920D02*
X143313060Y-134314848D01*
X143313060Y-134314848D02*
X143289474Y-134362020D01*
X143289474Y-134362020D02*
X143265889Y-134385606D01*
X143265889Y-134385606D02*
X143218717Y-134409191D01*
X143218717Y-134409191D02*
X143077203Y-134409191D01*
X143077203Y-134409191D02*
X143030031Y-134385606D01*
X143030031Y-134385606D02*
X143006446Y-134362020D01*
D10*
%TO.C,R7*%
X155888810Y-92558004D02*
X155643035Y-92730046D01*
X155888810Y-92852934D02*
X155372682Y-92852934D01*
X155372682Y-92852934D02*
X155372682Y-92656314D01*
X155372682Y-92656314D02*
X155397260Y-92607159D01*
X155397260Y-92607159D02*
X155421837Y-92582581D01*
X155421837Y-92582581D02*
X155470992Y-92558004D01*
X155470992Y-92558004D02*
X155544725Y-92558004D01*
X155544725Y-92558004D02*
X155593880Y-92582581D01*
X155593880Y-92582581D02*
X155618457Y-92607159D01*
X155618457Y-92607159D02*
X155643035Y-92656314D01*
X155643035Y-92656314D02*
X155643035Y-92852934D01*
X155372682Y-92385961D02*
X155372682Y-92041876D01*
X155372682Y-92041876D02*
X155888810Y-92263073D01*
%TO.C,C4*%
X157585955Y-59855604D02*
X157610533Y-59880181D01*
X157610533Y-59880181D02*
X157635110Y-59953914D01*
X157635110Y-59953914D02*
X157635110Y-60003069D01*
X157635110Y-60003069D02*
X157610533Y-60076801D01*
X157610533Y-60076801D02*
X157561377Y-60125956D01*
X157561377Y-60125956D02*
X157512222Y-60150534D01*
X157512222Y-60150534D02*
X157413912Y-60175111D01*
X157413912Y-60175111D02*
X157340180Y-60175111D01*
X157340180Y-60175111D02*
X157241870Y-60150534D01*
X157241870Y-60150534D02*
X157192715Y-60125956D01*
X157192715Y-60125956D02*
X157143560Y-60076801D01*
X157143560Y-60076801D02*
X157118982Y-60003069D01*
X157118982Y-60003069D02*
X157118982Y-59953914D01*
X157118982Y-59953914D02*
X157143560Y-59880181D01*
X157143560Y-59880181D02*
X157168137Y-59855604D01*
X157291025Y-59413208D02*
X157635110Y-59413208D01*
X157094405Y-59536096D02*
X157463067Y-59658983D01*
X157463067Y-59658983D02*
X157463067Y-59339476D01*
%TO.C,C5*%
X147561611Y-89868805D02*
X147537034Y-89893383D01*
X147537034Y-89893383D02*
X147463301Y-89917960D01*
X147463301Y-89917960D02*
X147414146Y-89917960D01*
X147414146Y-89917960D02*
X147340414Y-89893383D01*
X147340414Y-89893383D02*
X147291259Y-89844227D01*
X147291259Y-89844227D02*
X147266681Y-89795072D01*
X147266681Y-89795072D02*
X147242104Y-89696762D01*
X147242104Y-89696762D02*
X147242104Y-89623030D01*
X147242104Y-89623030D02*
X147266681Y-89524720D01*
X147266681Y-89524720D02*
X147291259Y-89475565D01*
X147291259Y-89475565D02*
X147340414Y-89426410D01*
X147340414Y-89426410D02*
X147414146Y-89401832D01*
X147414146Y-89401832D02*
X147463301Y-89401832D01*
X147463301Y-89401832D02*
X147537034Y-89426410D01*
X147537034Y-89426410D02*
X147561611Y-89450987D01*
X148028584Y-89401832D02*
X147782809Y-89401832D01*
X147782809Y-89401832D02*
X147758232Y-89647607D01*
X147758232Y-89647607D02*
X147782809Y-89623030D01*
X147782809Y-89623030D02*
X147831964Y-89598452D01*
X147831964Y-89598452D02*
X147954852Y-89598452D01*
X147954852Y-89598452D02*
X148004007Y-89623030D01*
X148004007Y-89623030D02*
X148028584Y-89647607D01*
X148028584Y-89647607D02*
X148053162Y-89696762D01*
X148053162Y-89696762D02*
X148053162Y-89819650D01*
X148053162Y-89819650D02*
X148028584Y-89868805D01*
X148028584Y-89868805D02*
X148004007Y-89893383D01*
X148004007Y-89893383D02*
X147954852Y-89917960D01*
X147954852Y-89917960D02*
X147831964Y-89917960D01*
X147831964Y-89917960D02*
X147782809Y-89893383D01*
X147782809Y-89893383D02*
X147758232Y-89868805D01*
%TO.C,C3*%
X143979311Y-58484755D02*
X143954734Y-58509333D01*
X143954734Y-58509333D02*
X143881001Y-58533910D01*
X143881001Y-58533910D02*
X143831846Y-58533910D01*
X143831846Y-58533910D02*
X143758114Y-58509333D01*
X143758114Y-58509333D02*
X143708959Y-58460177D01*
X143708959Y-58460177D02*
X143684381Y-58411022D01*
X143684381Y-58411022D02*
X143659804Y-58312712D01*
X143659804Y-58312712D02*
X143659804Y-58238980D01*
X143659804Y-58238980D02*
X143684381Y-58140670D01*
X143684381Y-58140670D02*
X143708959Y-58091515D01*
X143708959Y-58091515D02*
X143758114Y-58042360D01*
X143758114Y-58042360D02*
X143831846Y-58017782D01*
X143831846Y-58017782D02*
X143881001Y-58017782D01*
X143881001Y-58017782D02*
X143954734Y-58042360D01*
X143954734Y-58042360D02*
X143979311Y-58066937D01*
X144151354Y-58017782D02*
X144470862Y-58017782D01*
X144470862Y-58017782D02*
X144298819Y-58214402D01*
X144298819Y-58214402D02*
X144372552Y-58214402D01*
X144372552Y-58214402D02*
X144421707Y-58238980D01*
X144421707Y-58238980D02*
X144446284Y-58263557D01*
X144446284Y-58263557D02*
X144470862Y-58312712D01*
X144470862Y-58312712D02*
X144470862Y-58435600D01*
X144470862Y-58435600D02*
X144446284Y-58484755D01*
X144446284Y-58484755D02*
X144421707Y-58509333D01*
X144421707Y-58509333D02*
X144372552Y-58533910D01*
X144372552Y-58533910D02*
X144225087Y-58533910D01*
X144225087Y-58533910D02*
X144175932Y-58509333D01*
X144175932Y-58509333D02*
X144151354Y-58484755D01*
D13*
%TO.C,LED1*%
X141028982Y-65423191D02*
X140793125Y-65423191D01*
X140793125Y-65423191D02*
X140793125Y-64927891D01*
X141194082Y-65163748D02*
X141359182Y-65163748D01*
X141429939Y-65423191D02*
X141194082Y-65423191D01*
X141194082Y-65423191D02*
X141194082Y-64927891D01*
X141194082Y-64927891D02*
X141429939Y-64927891D01*
X141642211Y-65423191D02*
X141642211Y-64927891D01*
X141642211Y-64927891D02*
X141760140Y-64927891D01*
X141760140Y-64927891D02*
X141830897Y-64951477D01*
X141830897Y-64951477D02*
X141878068Y-64998648D01*
X141878068Y-64998648D02*
X141901654Y-65045820D01*
X141901654Y-65045820D02*
X141925240Y-65140163D01*
X141925240Y-65140163D02*
X141925240Y-65210920D01*
X141925240Y-65210920D02*
X141901654Y-65305263D01*
X141901654Y-65305263D02*
X141878068Y-65352434D01*
X141878068Y-65352434D02*
X141830897Y-65399606D01*
X141830897Y-65399606D02*
X141760140Y-65423191D01*
X141760140Y-65423191D02*
X141642211Y-65423191D01*
X142396954Y-65423191D02*
X142113925Y-65423191D01*
X142255440Y-65423191D02*
X142255440Y-64927891D01*
X142255440Y-64927891D02*
X142208268Y-64998648D01*
X142208268Y-64998648D02*
X142161097Y-65045820D01*
X142161097Y-65045820D02*
X142113925Y-65069406D01*
D12*
%TO.C,IC5*%
X154644637Y-134039639D02*
X154644637Y-133195089D01*
X155529404Y-133959206D02*
X155489187Y-133999423D01*
X155489187Y-133999423D02*
X155368537Y-134039639D01*
X155368537Y-134039639D02*
X155288104Y-134039639D01*
X155288104Y-134039639D02*
X155167454Y-133999423D01*
X155167454Y-133999423D02*
X155087021Y-133918989D01*
X155087021Y-133918989D02*
X155046804Y-133838556D01*
X155046804Y-133838556D02*
X155006587Y-133677689D01*
X155006587Y-133677689D02*
X155006587Y-133557039D01*
X155006587Y-133557039D02*
X155046804Y-133396173D01*
X155046804Y-133396173D02*
X155087021Y-133315739D01*
X155087021Y-133315739D02*
X155167454Y-133235306D01*
X155167454Y-133235306D02*
X155288104Y-133195089D01*
X155288104Y-133195089D02*
X155368537Y-133195089D01*
X155368537Y-133195089D02*
X155489187Y-133235306D01*
X155489187Y-133235306D02*
X155529404Y-133275523D01*
X156293521Y-133195089D02*
X155891354Y-133195089D01*
X155891354Y-133195089D02*
X155851137Y-133597256D01*
X155851137Y-133597256D02*
X155891354Y-133557039D01*
X155891354Y-133557039D02*
X155971787Y-133516823D01*
X155971787Y-133516823D02*
X156172871Y-133516823D01*
X156172871Y-133516823D02*
X156253304Y-133557039D01*
X156253304Y-133557039D02*
X156293521Y-133597256D01*
X156293521Y-133597256D02*
X156333737Y-133677689D01*
X156333737Y-133677689D02*
X156333737Y-133878773D01*
X156333737Y-133878773D02*
X156293521Y-133959206D01*
X156293521Y-133959206D02*
X156253304Y-133999423D01*
X156253304Y-133999423D02*
X156172871Y-134039639D01*
X156172871Y-134039639D02*
X155971787Y-134039639D01*
X155971787Y-134039639D02*
X155891354Y-133999423D01*
X155891354Y-133999423D02*
X155851137Y-133959206D01*
D10*
%TO.C,R11*%
X151443710Y-98571238D02*
X151197935Y-98743280D01*
X151443710Y-98866168D02*
X150927582Y-98866168D01*
X150927582Y-98866168D02*
X150927582Y-98669548D01*
X150927582Y-98669548D02*
X150952160Y-98620393D01*
X150952160Y-98620393D02*
X150976737Y-98595815D01*
X150976737Y-98595815D02*
X151025892Y-98571238D01*
X151025892Y-98571238D02*
X151099625Y-98571238D01*
X151099625Y-98571238D02*
X151148780Y-98595815D01*
X151148780Y-98595815D02*
X151173357Y-98620393D01*
X151173357Y-98620393D02*
X151197935Y-98669548D01*
X151197935Y-98669548D02*
X151197935Y-98866168D01*
X151443710Y-98079687D02*
X151443710Y-98374617D01*
X151443710Y-98227152D02*
X150927582Y-98227152D01*
X150927582Y-98227152D02*
X151001315Y-98276307D01*
X151001315Y-98276307D02*
X151050470Y-98325462D01*
X151050470Y-98325462D02*
X151075047Y-98374617D01*
X151443710Y-97588137D02*
X151443710Y-97883067D01*
X151443710Y-97735602D02*
X150927582Y-97735602D01*
X150927582Y-97735602D02*
X151001315Y-97784757D01*
X151001315Y-97784757D02*
X151050470Y-97833912D01*
X151050470Y-97833912D02*
X151075047Y-97883067D01*
%TO.C,C8*%
X149942911Y-124317805D02*
X149918334Y-124342383D01*
X149918334Y-124342383D02*
X149844601Y-124366960D01*
X149844601Y-124366960D02*
X149795446Y-124366960D01*
X149795446Y-124366960D02*
X149721714Y-124342383D01*
X149721714Y-124342383D02*
X149672559Y-124293227D01*
X149672559Y-124293227D02*
X149647981Y-124244072D01*
X149647981Y-124244072D02*
X149623404Y-124145762D01*
X149623404Y-124145762D02*
X149623404Y-124072030D01*
X149623404Y-124072030D02*
X149647981Y-123973720D01*
X149647981Y-123973720D02*
X149672559Y-123924565D01*
X149672559Y-123924565D02*
X149721714Y-123875410D01*
X149721714Y-123875410D02*
X149795446Y-123850832D01*
X149795446Y-123850832D02*
X149844601Y-123850832D01*
X149844601Y-123850832D02*
X149918334Y-123875410D01*
X149918334Y-123875410D02*
X149942911Y-123899987D01*
X150237842Y-124072030D02*
X150188687Y-124047452D01*
X150188687Y-124047452D02*
X150164109Y-124022875D01*
X150164109Y-124022875D02*
X150139532Y-123973720D01*
X150139532Y-123973720D02*
X150139532Y-123949142D01*
X150139532Y-123949142D02*
X150164109Y-123899987D01*
X150164109Y-123899987D02*
X150188687Y-123875410D01*
X150188687Y-123875410D02*
X150237842Y-123850832D01*
X150237842Y-123850832D02*
X150336152Y-123850832D01*
X150336152Y-123850832D02*
X150385307Y-123875410D01*
X150385307Y-123875410D02*
X150409884Y-123899987D01*
X150409884Y-123899987D02*
X150434462Y-123949142D01*
X150434462Y-123949142D02*
X150434462Y-123973720D01*
X150434462Y-123973720D02*
X150409884Y-124022875D01*
X150409884Y-124022875D02*
X150385307Y-124047452D01*
X150385307Y-124047452D02*
X150336152Y-124072030D01*
X150336152Y-124072030D02*
X150237842Y-124072030D01*
X150237842Y-124072030D02*
X150188687Y-124096607D01*
X150188687Y-124096607D02*
X150164109Y-124121185D01*
X150164109Y-124121185D02*
X150139532Y-124170340D01*
X150139532Y-124170340D02*
X150139532Y-124268650D01*
X150139532Y-124268650D02*
X150164109Y-124317805D01*
X150164109Y-124317805D02*
X150188687Y-124342383D01*
X150188687Y-124342383D02*
X150237842Y-124366960D01*
X150237842Y-124366960D02*
X150336152Y-124366960D01*
X150336152Y-124366960D02*
X150385307Y-124342383D01*
X150385307Y-124342383D02*
X150409884Y-124317805D01*
X150409884Y-124317805D02*
X150434462Y-124268650D01*
X150434462Y-124268650D02*
X150434462Y-124170340D01*
X150434462Y-124170340D02*
X150409884Y-124121185D01*
X150409884Y-124121185D02*
X150385307Y-124096607D01*
X150385307Y-124096607D02*
X150336152Y-124072030D01*
%TO.C,R6*%
X141827245Y-92458160D02*
X141655203Y-92212385D01*
X141532315Y-92458160D02*
X141532315Y-91942032D01*
X141532315Y-91942032D02*
X141728935Y-91942032D01*
X141728935Y-91942032D02*
X141778090Y-91966610D01*
X141778090Y-91966610D02*
X141802668Y-91991187D01*
X141802668Y-91991187D02*
X141827245Y-92040342D01*
X141827245Y-92040342D02*
X141827245Y-92114075D01*
X141827245Y-92114075D02*
X141802668Y-92163230D01*
X141802668Y-92163230D02*
X141778090Y-92187807D01*
X141778090Y-92187807D02*
X141728935Y-92212385D01*
X141728935Y-92212385D02*
X141532315Y-92212385D01*
X142269641Y-91942032D02*
X142171331Y-91942032D01*
X142171331Y-91942032D02*
X142122176Y-91966610D01*
X142122176Y-91966610D02*
X142097598Y-91991187D01*
X142097598Y-91991187D02*
X142048443Y-92064920D01*
X142048443Y-92064920D02*
X142023866Y-92163230D01*
X142023866Y-92163230D02*
X142023866Y-92359850D01*
X142023866Y-92359850D02*
X142048443Y-92409005D01*
X142048443Y-92409005D02*
X142073021Y-92433583D01*
X142073021Y-92433583D02*
X142122176Y-92458160D01*
X142122176Y-92458160D02*
X142220486Y-92458160D01*
X142220486Y-92458160D02*
X142269641Y-92433583D01*
X142269641Y-92433583D02*
X142294218Y-92409005D01*
X142294218Y-92409005D02*
X142318796Y-92359850D01*
X142318796Y-92359850D02*
X142318796Y-92236962D01*
X142318796Y-92236962D02*
X142294218Y-92187807D01*
X142294218Y-92187807D02*
X142269641Y-92163230D01*
X142269641Y-92163230D02*
X142220486Y-92138652D01*
X142220486Y-92138652D02*
X142122176Y-92138652D01*
X142122176Y-92138652D02*
X142073021Y-92163230D01*
X142073021Y-92163230D02*
X142048443Y-92187807D01*
X142048443Y-92187807D02*
X142023866Y-92236962D01*
D14*
%TO.C,IC4*%
X149779078Y-126449579D02*
X149779078Y-125608839D01*
X150659853Y-126369508D02*
X150619817Y-126409544D01*
X150619817Y-126409544D02*
X150499712Y-126449579D01*
X150499712Y-126449579D02*
X150419641Y-126449579D01*
X150419641Y-126449579D02*
X150299535Y-126409544D01*
X150299535Y-126409544D02*
X150219465Y-126329473D01*
X150219465Y-126329473D02*
X150179430Y-126249403D01*
X150179430Y-126249403D02*
X150139394Y-126089262D01*
X150139394Y-126089262D02*
X150139394Y-125969156D01*
X150139394Y-125969156D02*
X150179430Y-125809015D01*
X150179430Y-125809015D02*
X150219465Y-125728944D01*
X150219465Y-125728944D02*
X150299535Y-125648874D01*
X150299535Y-125648874D02*
X150419641Y-125608839D01*
X150419641Y-125608839D02*
X150499712Y-125608839D01*
X150499712Y-125608839D02*
X150619817Y-125648874D01*
X150619817Y-125648874D02*
X150659853Y-125688909D01*
X151380487Y-125889085D02*
X151380487Y-126449579D01*
X151180311Y-125568804D02*
X150980134Y-126169332D01*
X150980134Y-126169332D02*
X151500593Y-126169332D01*
D10*
%TO.C,R12*%
X148586310Y-111782154D02*
X148340535Y-111954196D01*
X148586310Y-112077084D02*
X148070182Y-112077084D01*
X148070182Y-112077084D02*
X148070182Y-111880464D01*
X148070182Y-111880464D02*
X148094760Y-111831309D01*
X148094760Y-111831309D02*
X148119337Y-111806731D01*
X148119337Y-111806731D02*
X148168492Y-111782154D01*
X148168492Y-111782154D02*
X148242225Y-111782154D01*
X148242225Y-111782154D02*
X148291380Y-111806731D01*
X148291380Y-111806731D02*
X148315957Y-111831309D01*
X148315957Y-111831309D02*
X148340535Y-111880464D01*
X148340535Y-111880464D02*
X148340535Y-112077084D01*
X148586310Y-111290603D02*
X148586310Y-111585533D01*
X148586310Y-111438068D02*
X148070182Y-111438068D01*
X148070182Y-111438068D02*
X148143915Y-111487223D01*
X148143915Y-111487223D02*
X148193070Y-111536378D01*
X148193070Y-111536378D02*
X148217647Y-111585533D01*
X148119337Y-111093983D02*
X148094760Y-111069406D01*
X148094760Y-111069406D02*
X148070182Y-111020251D01*
X148070182Y-111020251D02*
X148070182Y-110897363D01*
X148070182Y-110897363D02*
X148094760Y-110848208D01*
X148094760Y-110848208D02*
X148119337Y-110823631D01*
X148119337Y-110823631D02*
X148168492Y-110799053D01*
X148168492Y-110799053D02*
X148217647Y-110799053D01*
X148217647Y-110799053D02*
X148291380Y-110823631D01*
X148291380Y-110823631D02*
X148586310Y-111118561D01*
X148586310Y-111118561D02*
X148586310Y-110799053D01*
%TO.C,R1*%
X148740110Y-63838188D02*
X148494335Y-64010230D01*
X148740110Y-64133118D02*
X148223982Y-64133118D01*
X148223982Y-64133118D02*
X148223982Y-63936498D01*
X148223982Y-63936498D02*
X148248560Y-63887343D01*
X148248560Y-63887343D02*
X148273137Y-63862765D01*
X148273137Y-63862765D02*
X148322292Y-63838188D01*
X148322292Y-63838188D02*
X148396025Y-63838188D01*
X148396025Y-63838188D02*
X148445180Y-63862765D01*
X148445180Y-63862765D02*
X148469757Y-63887343D01*
X148469757Y-63887343D02*
X148494335Y-63936498D01*
X148494335Y-63936498D02*
X148494335Y-64133118D01*
X148740110Y-63346637D02*
X148740110Y-63641567D01*
X148740110Y-63494102D02*
X148223982Y-63494102D01*
X148223982Y-63494102D02*
X148297715Y-63543257D01*
X148297715Y-63543257D02*
X148346870Y-63592412D01*
X148346870Y-63592412D02*
X148371447Y-63641567D01*
%TO.C,J8*%
X156232077Y-122780946D02*
X156232077Y-123621323D01*
X156232077Y-123621323D02*
X156176052Y-123789398D01*
X156176052Y-123789398D02*
X156064002Y-123901449D01*
X156064002Y-123901449D02*
X155895926Y-123957474D01*
X155895926Y-123957474D02*
X155783876Y-123957474D01*
X156960404Y-123285172D02*
X156848353Y-123229147D01*
X156848353Y-123229147D02*
X156792328Y-123173122D01*
X156792328Y-123173122D02*
X156736303Y-123061071D01*
X156736303Y-123061071D02*
X156736303Y-123005046D01*
X156736303Y-123005046D02*
X156792328Y-122892996D01*
X156792328Y-122892996D02*
X156848353Y-122836971D01*
X156848353Y-122836971D02*
X156960404Y-122780946D01*
X156960404Y-122780946D02*
X157184504Y-122780946D01*
X157184504Y-122780946D02*
X157296555Y-122836971D01*
X157296555Y-122836971D02*
X157352580Y-122892996D01*
X157352580Y-122892996D02*
X157408605Y-123005046D01*
X157408605Y-123005046D02*
X157408605Y-123061071D01*
X157408605Y-123061071D02*
X157352580Y-123173122D01*
X157352580Y-123173122D02*
X157296555Y-123229147D01*
X157296555Y-123229147D02*
X157184504Y-123285172D01*
X157184504Y-123285172D02*
X156960404Y-123285172D01*
X156960404Y-123285172D02*
X156848353Y-123341197D01*
X156848353Y-123341197D02*
X156792328Y-123397222D01*
X156792328Y-123397222D02*
X156736303Y-123509273D01*
X156736303Y-123509273D02*
X156736303Y-123733373D01*
X156736303Y-123733373D02*
X156792328Y-123845423D01*
X156792328Y-123845423D02*
X156848353Y-123901449D01*
X156848353Y-123901449D02*
X156960404Y-123957474D01*
X156960404Y-123957474D02*
X157184504Y-123957474D01*
X157184504Y-123957474D02*
X157296555Y-123901449D01*
X157296555Y-123901449D02*
X157352580Y-123845423D01*
X157352580Y-123845423D02*
X157408605Y-123733373D01*
X157408605Y-123733373D02*
X157408605Y-123509273D01*
X157408605Y-123509273D02*
X157352580Y-123397222D01*
X157352580Y-123397222D02*
X157296555Y-123341197D01*
X157296555Y-123341197D02*
X157184504Y-123285172D01*
%TO.C,J12*%
X149372070Y-147388346D02*
X149372070Y-148228723D01*
X149372070Y-148228723D02*
X149316045Y-148396798D01*
X149316045Y-148396798D02*
X149203995Y-148508849D01*
X149203995Y-148508849D02*
X149035919Y-148564874D01*
X149035919Y-148564874D02*
X148923869Y-148564874D01*
X150548598Y-148564874D02*
X149876296Y-148564874D01*
X150212447Y-148564874D02*
X150212447Y-147388346D01*
X150212447Y-147388346D02*
X150100397Y-147556421D01*
X150100397Y-147556421D02*
X149988346Y-147668471D01*
X149988346Y-147668471D02*
X149876296Y-147724497D01*
X150996799Y-147500396D02*
X151052824Y-147444371D01*
X151052824Y-147444371D02*
X151164875Y-147388346D01*
X151164875Y-147388346D02*
X151445000Y-147388346D01*
X151445000Y-147388346D02*
X151557051Y-147444371D01*
X151557051Y-147444371D02*
X151613076Y-147500396D01*
X151613076Y-147500396D02*
X151669101Y-147612446D01*
X151669101Y-147612446D02*
X151669101Y-147724497D01*
X151669101Y-147724497D02*
X151613076Y-147892572D01*
X151613076Y-147892572D02*
X150940774Y-148564874D01*
X150940774Y-148564874D02*
X151669101Y-148564874D01*
%TO.C,R20*%
X140298910Y-132573188D02*
X140053135Y-132745230D01*
X140298910Y-132868118D02*
X139782782Y-132868118D01*
X139782782Y-132868118D02*
X139782782Y-132671498D01*
X139782782Y-132671498D02*
X139807360Y-132622343D01*
X139807360Y-132622343D02*
X139831937Y-132597765D01*
X139831937Y-132597765D02*
X139881092Y-132573188D01*
X139881092Y-132573188D02*
X139954825Y-132573188D01*
X139954825Y-132573188D02*
X140003980Y-132597765D01*
X140003980Y-132597765D02*
X140028557Y-132622343D01*
X140028557Y-132622343D02*
X140053135Y-132671498D01*
X140053135Y-132671498D02*
X140053135Y-132868118D01*
X139831937Y-132376567D02*
X139807360Y-132351990D01*
X139807360Y-132351990D02*
X139782782Y-132302835D01*
X139782782Y-132302835D02*
X139782782Y-132179947D01*
X139782782Y-132179947D02*
X139807360Y-132130792D01*
X139807360Y-132130792D02*
X139831937Y-132106215D01*
X139831937Y-132106215D02*
X139881092Y-132081637D01*
X139881092Y-132081637D02*
X139930247Y-132081637D01*
X139930247Y-132081637D02*
X140003980Y-132106215D01*
X140003980Y-132106215D02*
X140298910Y-132401145D01*
X140298910Y-132401145D02*
X140298910Y-132081637D01*
X139782782Y-131762130D02*
X139782782Y-131712975D01*
X139782782Y-131712975D02*
X139807360Y-131663820D01*
X139807360Y-131663820D02*
X139831937Y-131639242D01*
X139831937Y-131639242D02*
X139881092Y-131614665D01*
X139881092Y-131614665D02*
X139979402Y-131590087D01*
X139979402Y-131590087D02*
X140102290Y-131590087D01*
X140102290Y-131590087D02*
X140200600Y-131614665D01*
X140200600Y-131614665D02*
X140249755Y-131639242D01*
X140249755Y-131639242D02*
X140274333Y-131663820D01*
X140274333Y-131663820D02*
X140298910Y-131712975D01*
X140298910Y-131712975D02*
X140298910Y-131762130D01*
X140298910Y-131762130D02*
X140274333Y-131811285D01*
X140274333Y-131811285D02*
X140249755Y-131835862D01*
X140249755Y-131835862D02*
X140200600Y-131860440D01*
X140200600Y-131860440D02*
X140102290Y-131885017D01*
X140102290Y-131885017D02*
X139979402Y-131885017D01*
X139979402Y-131885017D02*
X139881092Y-131860440D01*
X139881092Y-131860440D02*
X139831937Y-131835862D01*
X139831937Y-131835862D02*
X139807360Y-131811285D01*
X139807360Y-131811285D02*
X139782782Y-131762130D01*
%TO.C,R17*%
X141125010Y-129051238D02*
X140879235Y-129223280D01*
X141125010Y-129346168D02*
X140608882Y-129346168D01*
X140608882Y-129346168D02*
X140608882Y-129149548D01*
X140608882Y-129149548D02*
X140633460Y-129100393D01*
X140633460Y-129100393D02*
X140658037Y-129075815D01*
X140658037Y-129075815D02*
X140707192Y-129051238D01*
X140707192Y-129051238D02*
X140780925Y-129051238D01*
X140780925Y-129051238D02*
X140830080Y-129075815D01*
X140830080Y-129075815D02*
X140854657Y-129100393D01*
X140854657Y-129100393D02*
X140879235Y-129149548D01*
X140879235Y-129149548D02*
X140879235Y-129346168D01*
X141125010Y-128559687D02*
X141125010Y-128854617D01*
X141125010Y-128707152D02*
X140608882Y-128707152D01*
X140608882Y-128707152D02*
X140682615Y-128756307D01*
X140682615Y-128756307D02*
X140731770Y-128805462D01*
X140731770Y-128805462D02*
X140756347Y-128854617D01*
X140608882Y-128387645D02*
X140608882Y-128043560D01*
X140608882Y-128043560D02*
X141125010Y-128264757D01*
%TO.C,R18*%
X143347610Y-129051138D02*
X143101835Y-129223180D01*
X143347610Y-129346068D02*
X142831482Y-129346068D01*
X142831482Y-129346068D02*
X142831482Y-129149448D01*
X142831482Y-129149448D02*
X142856060Y-129100293D01*
X142856060Y-129100293D02*
X142880637Y-129075715D01*
X142880637Y-129075715D02*
X142929792Y-129051138D01*
X142929792Y-129051138D02*
X143003525Y-129051138D01*
X143003525Y-129051138D02*
X143052680Y-129075715D01*
X143052680Y-129075715D02*
X143077257Y-129100293D01*
X143077257Y-129100293D02*
X143101835Y-129149448D01*
X143101835Y-129149448D02*
X143101835Y-129346068D01*
X143347610Y-128559587D02*
X143347610Y-128854517D01*
X143347610Y-128707052D02*
X142831482Y-128707052D01*
X142831482Y-128707052D02*
X142905215Y-128756207D01*
X142905215Y-128756207D02*
X142954370Y-128805362D01*
X142954370Y-128805362D02*
X142978947Y-128854517D01*
X143052680Y-128264657D02*
X143028102Y-128313812D01*
X143028102Y-128313812D02*
X143003525Y-128338390D01*
X143003525Y-128338390D02*
X142954370Y-128362967D01*
X142954370Y-128362967D02*
X142929792Y-128362967D01*
X142929792Y-128362967D02*
X142880637Y-128338390D01*
X142880637Y-128338390D02*
X142856060Y-128313812D01*
X142856060Y-128313812D02*
X142831482Y-128264657D01*
X142831482Y-128264657D02*
X142831482Y-128166347D01*
X142831482Y-128166347D02*
X142856060Y-128117192D01*
X142856060Y-128117192D02*
X142880637Y-128092615D01*
X142880637Y-128092615D02*
X142929792Y-128068037D01*
X142929792Y-128068037D02*
X142954370Y-128068037D01*
X142954370Y-128068037D02*
X143003525Y-128092615D01*
X143003525Y-128092615D02*
X143028102Y-128117192D01*
X143028102Y-128117192D02*
X143052680Y-128166347D01*
X143052680Y-128166347D02*
X143052680Y-128264657D01*
X143052680Y-128264657D02*
X143077257Y-128313812D01*
X143077257Y-128313812D02*
X143101835Y-128338390D01*
X143101835Y-128338390D02*
X143150990Y-128362967D01*
X143150990Y-128362967D02*
X143249300Y-128362967D01*
X143249300Y-128362967D02*
X143298455Y-128338390D01*
X143298455Y-128338390D02*
X143323033Y-128313812D01*
X143323033Y-128313812D02*
X143347610Y-128264657D01*
X143347610Y-128264657D02*
X143347610Y-128166347D01*
X143347610Y-128166347D02*
X143323033Y-128117192D01*
X143323033Y-128117192D02*
X143298455Y-128092615D01*
X143298455Y-128092615D02*
X143249300Y-128068037D01*
X143249300Y-128068037D02*
X143150990Y-128068037D01*
X143150990Y-128068037D02*
X143101835Y-128092615D01*
X143101835Y-128092615D02*
X143077257Y-128117192D01*
X143077257Y-128117192D02*
X143052680Y-128166347D01*
%TO.C,R2*%
X152396310Y-63824404D02*
X152150535Y-63996446D01*
X152396310Y-64119334D02*
X151880182Y-64119334D01*
X151880182Y-64119334D02*
X151880182Y-63922714D01*
X151880182Y-63922714D02*
X151904760Y-63873559D01*
X151904760Y-63873559D02*
X151929337Y-63848981D01*
X151929337Y-63848981D02*
X151978492Y-63824404D01*
X151978492Y-63824404D02*
X152052225Y-63824404D01*
X152052225Y-63824404D02*
X152101380Y-63848981D01*
X152101380Y-63848981D02*
X152125957Y-63873559D01*
X152125957Y-63873559D02*
X152150535Y-63922714D01*
X152150535Y-63922714D02*
X152150535Y-64119334D01*
X151929337Y-63627783D02*
X151904760Y-63603206D01*
X151904760Y-63603206D02*
X151880182Y-63554051D01*
X151880182Y-63554051D02*
X151880182Y-63431163D01*
X151880182Y-63431163D02*
X151904760Y-63382008D01*
X151904760Y-63382008D02*
X151929337Y-63357431D01*
X151929337Y-63357431D02*
X151978492Y-63332853D01*
X151978492Y-63332853D02*
X152027647Y-63332853D01*
X152027647Y-63332853D02*
X152101380Y-63357431D01*
X152101380Y-63357431D02*
X152396310Y-63652361D01*
X152396310Y-63652361D02*
X152396310Y-63332853D01*
%TO.C,R10*%
X150895511Y-96268160D02*
X150723469Y-96022385D01*
X150600581Y-96268160D02*
X150600581Y-95752032D01*
X150600581Y-95752032D02*
X150797201Y-95752032D01*
X150797201Y-95752032D02*
X150846356Y-95776610D01*
X150846356Y-95776610D02*
X150870934Y-95801187D01*
X150870934Y-95801187D02*
X150895511Y-95850342D01*
X150895511Y-95850342D02*
X150895511Y-95924075D01*
X150895511Y-95924075D02*
X150870934Y-95973230D01*
X150870934Y-95973230D02*
X150846356Y-95997807D01*
X150846356Y-95997807D02*
X150797201Y-96022385D01*
X150797201Y-96022385D02*
X150600581Y-96022385D01*
X151387062Y-96268160D02*
X151092132Y-96268160D01*
X151239597Y-96268160D02*
X151239597Y-95752032D01*
X151239597Y-95752032D02*
X151190442Y-95825765D01*
X151190442Y-95825765D02*
X151141287Y-95874920D01*
X151141287Y-95874920D02*
X151092132Y-95899497D01*
X151706569Y-95752032D02*
X151755724Y-95752032D01*
X151755724Y-95752032D02*
X151804879Y-95776610D01*
X151804879Y-95776610D02*
X151829457Y-95801187D01*
X151829457Y-95801187D02*
X151854034Y-95850342D01*
X151854034Y-95850342D02*
X151878612Y-95948652D01*
X151878612Y-95948652D02*
X151878612Y-96071540D01*
X151878612Y-96071540D02*
X151854034Y-96169850D01*
X151854034Y-96169850D02*
X151829457Y-96219005D01*
X151829457Y-96219005D02*
X151804879Y-96243583D01*
X151804879Y-96243583D02*
X151755724Y-96268160D01*
X151755724Y-96268160D02*
X151706569Y-96268160D01*
X151706569Y-96268160D02*
X151657414Y-96243583D01*
X151657414Y-96243583D02*
X151632837Y-96219005D01*
X151632837Y-96219005D02*
X151608259Y-96169850D01*
X151608259Y-96169850D02*
X151583682Y-96071540D01*
X151583682Y-96071540D02*
X151583682Y-95948652D01*
X151583682Y-95948652D02*
X151608259Y-95850342D01*
X151608259Y-95850342D02*
X151632837Y-95801187D01*
X151632837Y-95801187D02*
X151657414Y-95776610D01*
X151657414Y-95776610D02*
X151706569Y-95752032D01*
%TO.C,R13*%
X157317510Y-111782154D02*
X157071735Y-111954196D01*
X157317510Y-112077084D02*
X156801382Y-112077084D01*
X156801382Y-112077084D02*
X156801382Y-111880464D01*
X156801382Y-111880464D02*
X156825960Y-111831309D01*
X156825960Y-111831309D02*
X156850537Y-111806731D01*
X156850537Y-111806731D02*
X156899692Y-111782154D01*
X156899692Y-111782154D02*
X156973425Y-111782154D01*
X156973425Y-111782154D02*
X157022580Y-111806731D01*
X157022580Y-111806731D02*
X157047157Y-111831309D01*
X157047157Y-111831309D02*
X157071735Y-111880464D01*
X157071735Y-111880464D02*
X157071735Y-112077084D01*
X157317510Y-111290603D02*
X157317510Y-111585533D01*
X157317510Y-111438068D02*
X156801382Y-111438068D01*
X156801382Y-111438068D02*
X156875115Y-111487223D01*
X156875115Y-111487223D02*
X156924270Y-111536378D01*
X156924270Y-111536378D02*
X156948847Y-111585533D01*
X156801382Y-111118561D02*
X156801382Y-110799053D01*
X156801382Y-110799053D02*
X156998002Y-110971096D01*
X156998002Y-110971096D02*
X156998002Y-110897363D01*
X156998002Y-110897363D02*
X157022580Y-110848208D01*
X157022580Y-110848208D02*
X157047157Y-110823631D01*
X157047157Y-110823631D02*
X157096312Y-110799053D01*
X157096312Y-110799053D02*
X157219200Y-110799053D01*
X157219200Y-110799053D02*
X157268355Y-110823631D01*
X157268355Y-110823631D02*
X157292933Y-110848208D01*
X157292933Y-110848208D02*
X157317510Y-110897363D01*
X157317510Y-110897363D02*
X157317510Y-111044828D01*
X157317510Y-111044828D02*
X157292933Y-111093983D01*
X157292933Y-111093983D02*
X157268355Y-111118561D01*
%TO.C,J1*%
X140039577Y-75791046D02*
X140039577Y-76631423D01*
X140039577Y-76631423D02*
X139983552Y-76799498D01*
X139983552Y-76799498D02*
X139871502Y-76911549D01*
X139871502Y-76911549D02*
X139703426Y-76967574D01*
X139703426Y-76967574D02*
X139591376Y-76967574D01*
X141216105Y-76967574D02*
X140543803Y-76967574D01*
X140879954Y-76967574D02*
X140879954Y-75791046D01*
X140879954Y-75791046D02*
X140767904Y-75959121D01*
X140767904Y-75959121D02*
X140655853Y-76071171D01*
X140655853Y-76071171D02*
X140543803Y-76127197D01*
%TO.C,J5*%
X140039477Y-110080946D02*
X140039477Y-110921323D01*
X140039477Y-110921323D02*
X139983452Y-111089398D01*
X139983452Y-111089398D02*
X139871402Y-111201449D01*
X139871402Y-111201449D02*
X139703326Y-111257474D01*
X139703326Y-111257474D02*
X139591276Y-111257474D01*
X141159980Y-110080946D02*
X140599728Y-110080946D01*
X140599728Y-110080946D02*
X140543703Y-110641197D01*
X140543703Y-110641197D02*
X140599728Y-110585172D01*
X140599728Y-110585172D02*
X140711779Y-110529147D01*
X140711779Y-110529147D02*
X140991904Y-110529147D01*
X140991904Y-110529147D02*
X141103955Y-110585172D01*
X141103955Y-110585172D02*
X141159980Y-110641197D01*
X141159980Y-110641197D02*
X141216005Y-110753247D01*
X141216005Y-110753247D02*
X141216005Y-111033373D01*
X141216005Y-111033373D02*
X141159980Y-111145423D01*
X141159980Y-111145423D02*
X141103955Y-111201449D01*
X141103955Y-111201449D02*
X140991904Y-111257474D01*
X140991904Y-111257474D02*
X140711779Y-111257474D01*
X140711779Y-111257474D02*
X140599728Y-111201449D01*
X140599728Y-111201449D02*
X140543703Y-111145423D01*
%TO.C,J7*%
X140198377Y-122780946D02*
X140198377Y-123621323D01*
X140198377Y-123621323D02*
X140142352Y-123789398D01*
X140142352Y-123789398D02*
X140030302Y-123901449D01*
X140030302Y-123901449D02*
X139862226Y-123957474D01*
X139862226Y-123957474D02*
X139750176Y-123957474D01*
X140646578Y-122780946D02*
X141430930Y-122780946D01*
X141430930Y-122780946D02*
X140926704Y-123957474D01*
%TO.C,C9*%
X152622245Y-129080205D02*
X152597668Y-129104783D01*
X152597668Y-129104783D02*
X152523935Y-129129360D01*
X152523935Y-129129360D02*
X152474780Y-129129360D01*
X152474780Y-129129360D02*
X152401048Y-129104783D01*
X152401048Y-129104783D02*
X152351893Y-129055627D01*
X152351893Y-129055627D02*
X152327315Y-129006472D01*
X152327315Y-129006472D02*
X152302738Y-128908162D01*
X152302738Y-128908162D02*
X152302738Y-128834430D01*
X152302738Y-128834430D02*
X152327315Y-128736120D01*
X152327315Y-128736120D02*
X152351893Y-128686965D01*
X152351893Y-128686965D02*
X152401048Y-128637810D01*
X152401048Y-128637810D02*
X152474780Y-128613232D01*
X152474780Y-128613232D02*
X152523935Y-128613232D01*
X152523935Y-128613232D02*
X152597668Y-128637810D01*
X152597668Y-128637810D02*
X152622245Y-128662387D01*
X152868021Y-129129360D02*
X152966331Y-129129360D01*
X152966331Y-129129360D02*
X153015486Y-129104783D01*
X153015486Y-129104783D02*
X153040063Y-129080205D01*
X153040063Y-129080205D02*
X153089218Y-129006472D01*
X153089218Y-129006472D02*
X153113796Y-128908162D01*
X153113796Y-128908162D02*
X153113796Y-128711542D01*
X153113796Y-128711542D02*
X153089218Y-128662387D01*
X153089218Y-128662387D02*
X153064641Y-128637810D01*
X153064641Y-128637810D02*
X153015486Y-128613232D01*
X153015486Y-128613232D02*
X152917176Y-128613232D01*
X152917176Y-128613232D02*
X152868021Y-128637810D01*
X152868021Y-128637810D02*
X152843443Y-128662387D01*
X152843443Y-128662387D02*
X152818866Y-128711542D01*
X152818866Y-128711542D02*
X152818866Y-128834430D01*
X152818866Y-128834430D02*
X152843443Y-128883585D01*
X152843443Y-128883585D02*
X152868021Y-128908162D01*
X152868021Y-128908162D02*
X152917176Y-128932740D01*
X152917176Y-128932740D02*
X153015486Y-128932740D01*
X153015486Y-128932740D02*
X153064641Y-128908162D01*
X153064641Y-128908162D02*
X153089218Y-128883585D01*
X153089218Y-128883585D02*
X153113796Y-128834430D01*
%TO.C,J2*%
X150517277Y-75790946D02*
X150517277Y-76631323D01*
X150517277Y-76631323D02*
X150461252Y-76799398D01*
X150461252Y-76799398D02*
X150349202Y-76911449D01*
X150349202Y-76911449D02*
X150181126Y-76967474D01*
X150181126Y-76967474D02*
X150069076Y-76967474D01*
X151021503Y-75902996D02*
X151077528Y-75846971D01*
X151077528Y-75846971D02*
X151189579Y-75790946D01*
X151189579Y-75790946D02*
X151469704Y-75790946D01*
X151469704Y-75790946D02*
X151581755Y-75846971D01*
X151581755Y-75846971D02*
X151637780Y-75902996D01*
X151637780Y-75902996D02*
X151693805Y-76015046D01*
X151693805Y-76015046D02*
X151693805Y-76127097D01*
X151693805Y-76127097D02*
X151637780Y-76295172D01*
X151637780Y-76295172D02*
X150965478Y-76967474D01*
X150965478Y-76967474D02*
X151693805Y-76967474D01*
%TO.C,J6*%
X150675777Y-110080946D02*
X150675777Y-110921323D01*
X150675777Y-110921323D02*
X150619752Y-111089398D01*
X150619752Y-111089398D02*
X150507702Y-111201449D01*
X150507702Y-111201449D02*
X150339626Y-111257474D01*
X150339626Y-111257474D02*
X150227576Y-111257474D01*
X151740255Y-110080946D02*
X151516154Y-110080946D01*
X151516154Y-110080946D02*
X151404104Y-110136971D01*
X151404104Y-110136971D02*
X151348079Y-110192996D01*
X151348079Y-110192996D02*
X151236028Y-110361071D01*
X151236028Y-110361071D02*
X151180003Y-110585172D01*
X151180003Y-110585172D02*
X151180003Y-111033373D01*
X151180003Y-111033373D02*
X151236028Y-111145423D01*
X151236028Y-111145423D02*
X151292053Y-111201449D01*
X151292053Y-111201449D02*
X151404104Y-111257474D01*
X151404104Y-111257474D02*
X151628204Y-111257474D01*
X151628204Y-111257474D02*
X151740255Y-111201449D01*
X151740255Y-111201449D02*
X151796280Y-111145423D01*
X151796280Y-111145423D02*
X151852305Y-111033373D01*
X151852305Y-111033373D02*
X151852305Y-110753247D01*
X151852305Y-110753247D02*
X151796280Y-110641197D01*
X151796280Y-110641197D02*
X151740255Y-110585172D01*
X151740255Y-110585172D02*
X151628204Y-110529147D01*
X151628204Y-110529147D02*
X151404104Y-110529147D01*
X151404104Y-110529147D02*
X151292053Y-110585172D01*
X151292053Y-110585172D02*
X151236028Y-110641197D01*
X151236028Y-110641197D02*
X151180003Y-110753247D01*
D15*
%TO.C,IC1*%
X146605788Y-57416368D02*
X146605788Y-56943928D01*
X147100725Y-57371373D02*
X147078228Y-57393871D01*
X147078228Y-57393871D02*
X147010736Y-57416368D01*
X147010736Y-57416368D02*
X146965742Y-57416368D01*
X146965742Y-57416368D02*
X146898251Y-57393871D01*
X146898251Y-57393871D02*
X146853256Y-57348876D01*
X146853256Y-57348876D02*
X146830759Y-57303882D01*
X146830759Y-57303882D02*
X146808262Y-57213893D01*
X146808262Y-57213893D02*
X146808262Y-57146402D01*
X146808262Y-57146402D02*
X146830759Y-57056413D01*
X146830759Y-57056413D02*
X146853256Y-57011419D01*
X146853256Y-57011419D02*
X146898251Y-56966425D01*
X146898251Y-56966425D02*
X146965742Y-56943928D01*
X146965742Y-56943928D02*
X147010736Y-56943928D01*
X147010736Y-56943928D02*
X147078228Y-56966425D01*
X147078228Y-56966425D02*
X147100725Y-56988922D01*
X147550668Y-57416368D02*
X147280702Y-57416368D01*
X147415685Y-57416368D02*
X147415685Y-56943928D01*
X147415685Y-56943928D02*
X147370691Y-57011419D01*
X147370691Y-57011419D02*
X147325696Y-57056413D01*
X147325696Y-57056413D02*
X147280702Y-57078911D01*
D10*
%TO.C,R8*%
X143188710Y-97003104D02*
X142942935Y-97175146D01*
X143188710Y-97298034D02*
X142672582Y-97298034D01*
X142672582Y-97298034D02*
X142672582Y-97101414D01*
X142672582Y-97101414D02*
X142697160Y-97052259D01*
X142697160Y-97052259D02*
X142721737Y-97027681D01*
X142721737Y-97027681D02*
X142770892Y-97003104D01*
X142770892Y-97003104D02*
X142844625Y-97003104D01*
X142844625Y-97003104D02*
X142893780Y-97027681D01*
X142893780Y-97027681D02*
X142918357Y-97052259D01*
X142918357Y-97052259D02*
X142942935Y-97101414D01*
X142942935Y-97101414D02*
X142942935Y-97298034D01*
X142893780Y-96708173D02*
X142869202Y-96757328D01*
X142869202Y-96757328D02*
X142844625Y-96781906D01*
X142844625Y-96781906D02*
X142795470Y-96806483D01*
X142795470Y-96806483D02*
X142770892Y-96806483D01*
X142770892Y-96806483D02*
X142721737Y-96781906D01*
X142721737Y-96781906D02*
X142697160Y-96757328D01*
X142697160Y-96757328D02*
X142672582Y-96708173D01*
X142672582Y-96708173D02*
X142672582Y-96609863D01*
X142672582Y-96609863D02*
X142697160Y-96560708D01*
X142697160Y-96560708D02*
X142721737Y-96536131D01*
X142721737Y-96536131D02*
X142770892Y-96511553D01*
X142770892Y-96511553D02*
X142795470Y-96511553D01*
X142795470Y-96511553D02*
X142844625Y-96536131D01*
X142844625Y-96536131D02*
X142869202Y-96560708D01*
X142869202Y-96560708D02*
X142893780Y-96609863D01*
X142893780Y-96609863D02*
X142893780Y-96708173D01*
X142893780Y-96708173D02*
X142918357Y-96757328D01*
X142918357Y-96757328D02*
X142942935Y-96781906D01*
X142942935Y-96781906D02*
X142992090Y-96806483D01*
X142992090Y-96806483D02*
X143090400Y-96806483D01*
X143090400Y-96806483D02*
X143139555Y-96781906D01*
X143139555Y-96781906D02*
X143164133Y-96757328D01*
X143164133Y-96757328D02*
X143188710Y-96708173D01*
X143188710Y-96708173D02*
X143188710Y-96609863D01*
X143188710Y-96609863D02*
X143164133Y-96560708D01*
X143164133Y-96560708D02*
X143139555Y-96536131D01*
X143139555Y-96536131D02*
X143090400Y-96511553D01*
X143090400Y-96511553D02*
X142992090Y-96511553D01*
X142992090Y-96511553D02*
X142942935Y-96536131D01*
X142942935Y-96536131D02*
X142918357Y-96560708D01*
X142918357Y-96560708D02*
X142893780Y-96609863D01*
%TO.C,J9*%
X140005670Y-134688346D02*
X140005670Y-135528723D01*
X140005670Y-135528723D02*
X139949645Y-135696798D01*
X139949645Y-135696798D02*
X139837595Y-135808849D01*
X139837595Y-135808849D02*
X139669519Y-135864874D01*
X139669519Y-135864874D02*
X139557469Y-135864874D01*
X140621946Y-135864874D02*
X140846047Y-135864874D01*
X140846047Y-135864874D02*
X140958097Y-135808849D01*
X140958097Y-135808849D02*
X141014122Y-135752823D01*
X141014122Y-135752823D02*
X141126173Y-135584748D01*
X141126173Y-135584748D02*
X141182198Y-135360647D01*
X141182198Y-135360647D02*
X141182198Y-134912446D01*
X141182198Y-134912446D02*
X141126173Y-134800396D01*
X141126173Y-134800396D02*
X141070148Y-134744371D01*
X141070148Y-134744371D02*
X140958097Y-134688346D01*
X140958097Y-134688346D02*
X140733997Y-134688346D01*
X140733997Y-134688346D02*
X140621946Y-134744371D01*
X140621946Y-134744371D02*
X140565921Y-134800396D01*
X140565921Y-134800396D02*
X140509896Y-134912446D01*
X140509896Y-134912446D02*
X140509896Y-135192572D01*
X140509896Y-135192572D02*
X140565921Y-135304622D01*
X140565921Y-135304622D02*
X140621946Y-135360647D01*
X140621946Y-135360647D02*
X140733997Y-135416673D01*
X140733997Y-135416673D02*
X140958097Y-135416673D01*
X140958097Y-135416673D02*
X141070148Y-135360647D01*
X141070148Y-135360647D02*
X141126173Y-135304622D01*
X141126173Y-135304622D02*
X141182198Y-135192572D01*
%TO.C,R4*%
X148586310Y-77318104D02*
X148340535Y-77490146D01*
X148586310Y-77613034D02*
X148070182Y-77613034D01*
X148070182Y-77613034D02*
X148070182Y-77416414D01*
X148070182Y-77416414D02*
X148094760Y-77367259D01*
X148094760Y-77367259D02*
X148119337Y-77342681D01*
X148119337Y-77342681D02*
X148168492Y-77318104D01*
X148168492Y-77318104D02*
X148242225Y-77318104D01*
X148242225Y-77318104D02*
X148291380Y-77342681D01*
X148291380Y-77342681D02*
X148315957Y-77367259D01*
X148315957Y-77367259D02*
X148340535Y-77416414D01*
X148340535Y-77416414D02*
X148340535Y-77613034D01*
X148242225Y-76875708D02*
X148586310Y-76875708D01*
X148045605Y-76998596D02*
X148414267Y-77121483D01*
X148414267Y-77121483D02*
X148414267Y-76801976D01*
%TO.C,R9*%
X144617410Y-97003104D02*
X144371635Y-97175146D01*
X144617410Y-97298034D02*
X144101282Y-97298034D01*
X144101282Y-97298034D02*
X144101282Y-97101414D01*
X144101282Y-97101414D02*
X144125860Y-97052259D01*
X144125860Y-97052259D02*
X144150437Y-97027681D01*
X144150437Y-97027681D02*
X144199592Y-97003104D01*
X144199592Y-97003104D02*
X144273325Y-97003104D01*
X144273325Y-97003104D02*
X144322480Y-97027681D01*
X144322480Y-97027681D02*
X144347057Y-97052259D01*
X144347057Y-97052259D02*
X144371635Y-97101414D01*
X144371635Y-97101414D02*
X144371635Y-97298034D01*
X144617410Y-96757328D02*
X144617410Y-96659018D01*
X144617410Y-96659018D02*
X144592833Y-96609863D01*
X144592833Y-96609863D02*
X144568255Y-96585286D01*
X144568255Y-96585286D02*
X144494522Y-96536131D01*
X144494522Y-96536131D02*
X144396212Y-96511553D01*
X144396212Y-96511553D02*
X144199592Y-96511553D01*
X144199592Y-96511553D02*
X144150437Y-96536131D01*
X144150437Y-96536131D02*
X144125860Y-96560708D01*
X144125860Y-96560708D02*
X144101282Y-96609863D01*
X144101282Y-96609863D02*
X144101282Y-96708173D01*
X144101282Y-96708173D02*
X144125860Y-96757328D01*
X144125860Y-96757328D02*
X144150437Y-96781906D01*
X144150437Y-96781906D02*
X144199592Y-96806483D01*
X144199592Y-96806483D02*
X144322480Y-96806483D01*
X144322480Y-96806483D02*
X144371635Y-96781906D01*
X144371635Y-96781906D02*
X144396212Y-96757328D01*
X144396212Y-96757328D02*
X144420790Y-96708173D01*
X144420790Y-96708173D02*
X144420790Y-96609863D01*
X144420790Y-96609863D02*
X144396212Y-96560708D01*
X144396212Y-96560708D02*
X144371635Y-96536131D01*
X144371635Y-96536131D02*
X144322480Y-96511553D01*
%TO.C,J11*%
X140005770Y-147467846D02*
X140005770Y-148308223D01*
X140005770Y-148308223D02*
X139949745Y-148476298D01*
X139949745Y-148476298D02*
X139837695Y-148588349D01*
X139837695Y-148588349D02*
X139669619Y-148644374D01*
X139669619Y-148644374D02*
X139557569Y-148644374D01*
X141182298Y-148644374D02*
X140509996Y-148644374D01*
X140846147Y-148644374D02*
X140846147Y-147467846D01*
X140846147Y-147467846D02*
X140734097Y-147635921D01*
X140734097Y-147635921D02*
X140622046Y-147747971D01*
X140622046Y-147747971D02*
X140509996Y-147803997D01*
X142302801Y-148644374D02*
X141630499Y-148644374D01*
X141966650Y-148644374D02*
X141966650Y-147467846D01*
X141966650Y-147467846D02*
X141854600Y-147635921D01*
X141854600Y-147635921D02*
X141742549Y-147747971D01*
X141742549Y-147747971D02*
X141630499Y-147803997D01*
%TO.C,R19*%
X152078810Y-131591138D02*
X151833035Y-131763180D01*
X152078810Y-131886068D02*
X151562682Y-131886068D01*
X151562682Y-131886068D02*
X151562682Y-131689448D01*
X151562682Y-131689448D02*
X151587260Y-131640293D01*
X151587260Y-131640293D02*
X151611837Y-131615715D01*
X151611837Y-131615715D02*
X151660992Y-131591138D01*
X151660992Y-131591138D02*
X151734725Y-131591138D01*
X151734725Y-131591138D02*
X151783880Y-131615715D01*
X151783880Y-131615715D02*
X151808457Y-131640293D01*
X151808457Y-131640293D02*
X151833035Y-131689448D01*
X151833035Y-131689448D02*
X151833035Y-131886068D01*
X152078810Y-131099587D02*
X152078810Y-131394517D01*
X152078810Y-131247052D02*
X151562682Y-131247052D01*
X151562682Y-131247052D02*
X151636415Y-131296207D01*
X151636415Y-131296207D02*
X151685570Y-131345362D01*
X151685570Y-131345362D02*
X151710147Y-131394517D01*
X152078810Y-130853812D02*
X152078810Y-130755502D01*
X152078810Y-130755502D02*
X152054233Y-130706347D01*
X152054233Y-130706347D02*
X152029655Y-130681770D01*
X152029655Y-130681770D02*
X151955922Y-130632615D01*
X151955922Y-130632615D02*
X151857612Y-130608037D01*
X151857612Y-130608037D02*
X151660992Y-130608037D01*
X151660992Y-130608037D02*
X151611837Y-130632615D01*
X151611837Y-130632615D02*
X151587260Y-130657192D01*
X151587260Y-130657192D02*
X151562682Y-130706347D01*
X151562682Y-130706347D02*
X151562682Y-130804657D01*
X151562682Y-130804657D02*
X151587260Y-130853812D01*
X151587260Y-130853812D02*
X151611837Y-130878390D01*
X151611837Y-130878390D02*
X151660992Y-130902967D01*
X151660992Y-130902967D02*
X151783880Y-130902967D01*
X151783880Y-130902967D02*
X151833035Y-130878390D01*
X151833035Y-130878390D02*
X151857612Y-130853812D01*
X151857612Y-130853812D02*
X151882190Y-130804657D01*
X151882190Y-130804657D02*
X151882190Y-130706347D01*
X151882190Y-130706347D02*
X151857612Y-130657192D01*
X151857612Y-130657192D02*
X151833035Y-130632615D01*
X151833035Y-130632615D02*
X151783880Y-130608037D01*
%TO.C,R16*%
X155253810Y-127498354D02*
X155008035Y-127670396D01*
X155253810Y-127793284D02*
X154737682Y-127793284D01*
X154737682Y-127793284D02*
X154737682Y-127596664D01*
X154737682Y-127596664D02*
X154762260Y-127547509D01*
X154762260Y-127547509D02*
X154786837Y-127522931D01*
X154786837Y-127522931D02*
X154835992Y-127498354D01*
X154835992Y-127498354D02*
X154909725Y-127498354D01*
X154909725Y-127498354D02*
X154958880Y-127522931D01*
X154958880Y-127522931D02*
X154983457Y-127547509D01*
X154983457Y-127547509D02*
X155008035Y-127596664D01*
X155008035Y-127596664D02*
X155008035Y-127793284D01*
X155253810Y-127006803D02*
X155253810Y-127301733D01*
X155253810Y-127154268D02*
X154737682Y-127154268D01*
X154737682Y-127154268D02*
X154811415Y-127203423D01*
X154811415Y-127203423D02*
X154860570Y-127252578D01*
X154860570Y-127252578D02*
X154885147Y-127301733D01*
X154737682Y-126564408D02*
X154737682Y-126662718D01*
X154737682Y-126662718D02*
X154762260Y-126711873D01*
X154762260Y-126711873D02*
X154786837Y-126736451D01*
X154786837Y-126736451D02*
X154860570Y-126785606D01*
X154860570Y-126785606D02*
X154958880Y-126810183D01*
X154958880Y-126810183D02*
X155155500Y-126810183D01*
X155155500Y-126810183D02*
X155204655Y-126785606D01*
X155204655Y-126785606D02*
X155229233Y-126761028D01*
X155229233Y-126761028D02*
X155253810Y-126711873D01*
X155253810Y-126711873D02*
X155253810Y-126613563D01*
X155253810Y-126613563D02*
X155229233Y-126564408D01*
X155229233Y-126564408D02*
X155204655Y-126539831D01*
X155204655Y-126539831D02*
X155155500Y-126515253D01*
X155155500Y-126515253D02*
X155032612Y-126515253D01*
X155032612Y-126515253D02*
X154983457Y-126539831D01*
X154983457Y-126539831D02*
X154958880Y-126564408D01*
X154958880Y-126564408D02*
X154934302Y-126613563D01*
X154934302Y-126613563D02*
X154934302Y-126711873D01*
X154934302Y-126711873D02*
X154958880Y-126761028D01*
X154958880Y-126761028D02*
X154983457Y-126785606D01*
X154983457Y-126785606D02*
X155032612Y-126810183D01*
%TO.C,J4*%
X156232177Y-88490946D02*
X156232177Y-89331323D01*
X156232177Y-89331323D02*
X156176152Y-89499398D01*
X156176152Y-89499398D02*
X156064102Y-89611449D01*
X156064102Y-89611449D02*
X155896026Y-89667474D01*
X155896026Y-89667474D02*
X155783976Y-89667474D01*
X157296655Y-88883122D02*
X157296655Y-89667474D01*
X157016529Y-88434921D02*
X156736403Y-89275298D01*
X156736403Y-89275298D02*
X157464730Y-89275298D01*
%TO.C,J3*%
X140198377Y-88490946D02*
X140198377Y-89331323D01*
X140198377Y-89331323D02*
X140142352Y-89499398D01*
X140142352Y-89499398D02*
X140030302Y-89611449D01*
X140030302Y-89611449D02*
X139862226Y-89667474D01*
X139862226Y-89667474D02*
X139750176Y-89667474D01*
X140646578Y-88490946D02*
X141374905Y-88490946D01*
X141374905Y-88490946D02*
X140982729Y-88939147D01*
X140982729Y-88939147D02*
X141150804Y-88939147D01*
X141150804Y-88939147D02*
X141262855Y-88995172D01*
X141262855Y-88995172D02*
X141318880Y-89051197D01*
X141318880Y-89051197D02*
X141374905Y-89163247D01*
X141374905Y-89163247D02*
X141374905Y-89443373D01*
X141374905Y-89443373D02*
X141318880Y-89555423D01*
X141318880Y-89555423D02*
X141262855Y-89611449D01*
X141262855Y-89611449D02*
X141150804Y-89667474D01*
X141150804Y-89667474D02*
X140814653Y-89667474D01*
X140814653Y-89667474D02*
X140702603Y-89611449D01*
X140702603Y-89611449D02*
X140646578Y-89555423D01*
D16*
%TO.C,IC2*%
X149456673Y-91213091D02*
X149456673Y-90360667D01*
X150349688Y-91131908D02*
X150309096Y-91172500D01*
X150309096Y-91172500D02*
X150187322Y-91213091D01*
X150187322Y-91213091D02*
X150106138Y-91213091D01*
X150106138Y-91213091D02*
X149984363Y-91172500D01*
X149984363Y-91172500D02*
X149903180Y-91091316D01*
X149903180Y-91091316D02*
X149862589Y-91010133D01*
X149862589Y-91010133D02*
X149821997Y-90847767D01*
X149821997Y-90847767D02*
X149821997Y-90725992D01*
X149821997Y-90725992D02*
X149862589Y-90563625D01*
X149862589Y-90563625D02*
X149903180Y-90482442D01*
X149903180Y-90482442D02*
X149984363Y-90401259D01*
X149984363Y-90401259D02*
X150106138Y-90360667D01*
X150106138Y-90360667D02*
X150187322Y-90360667D01*
X150187322Y-90360667D02*
X150309096Y-90401259D01*
X150309096Y-90401259D02*
X150349688Y-90441850D01*
X150674421Y-90441850D02*
X150715013Y-90401259D01*
X150715013Y-90401259D02*
X150796196Y-90360667D01*
X150796196Y-90360667D02*
X150999154Y-90360667D01*
X150999154Y-90360667D02*
X151080337Y-90401259D01*
X151080337Y-90401259D02*
X151120929Y-90441850D01*
X151120929Y-90441850D02*
X151161520Y-90523034D01*
X151161520Y-90523034D02*
X151161520Y-90604217D01*
X151161520Y-90604217D02*
X151120929Y-90725992D01*
X151120929Y-90725992D02*
X150633829Y-91213091D01*
X150633829Y-91213091D02*
X151161520Y-91213091D01*
D17*
%TO.C,D1*%
X141773600Y-55600450D02*
X141773600Y-55100450D01*
X141473600Y-55100450D02*
X142073600Y-55100450D01*
X141773600Y-55100450D02*
X141773600Y-55600450D01*
X141773600Y-55100450D02*
X141473600Y-55100450D01*
X141773600Y-55100450D02*
X141473600Y-54300450D01*
X141473600Y-54300450D02*
X142073600Y-54300450D01*
X141773600Y-54300450D02*
X141773600Y-53600450D01*
X142073600Y-54300450D02*
X141773600Y-55100450D01*
%TO.C,D2*%
X155248600Y-53600450D02*
X155248600Y-54100450D01*
X155548600Y-54100450D02*
X154948600Y-54100450D01*
X155248600Y-54100450D02*
X155248600Y-53600450D01*
X155248600Y-54100450D02*
X155548600Y-54100450D01*
X155248600Y-54100450D02*
X155548600Y-54900450D01*
X155548600Y-54900450D02*
X154948600Y-54900450D01*
X155248600Y-54900450D02*
X155248600Y-55600450D01*
X154948600Y-54900450D02*
X155248600Y-54100450D01*
D18*
%TO.C,C1*%
X139565000Y-62675000D02*
X139565000Y-62300000D01*
X139377500Y-62487500D02*
X139752500Y-62487500D01*
X139940000Y-61870563D02*
X139240000Y-61170563D01*
X142060000Y-61870563D02*
X142760000Y-61170563D01*
X139240000Y-61170563D02*
X139240000Y-58540000D01*
X142760000Y-61170563D02*
X142760000Y-58540000D01*
X139240000Y-58540000D02*
X139940000Y-58540000D01*
X142760000Y-58540000D02*
X142060000Y-58540000D01*
D19*
%TO.C,IC3*%
X156405100Y-95957150D02*
X156405100Y-97382150D01*
X153317100Y-97382150D02*
X153317100Y-95957150D01*
D20*
%TO.C,LED2*%
X143800000Y-99632000D02*
G75*
G03*
X145592900Y-98556200I-60J2032000D01*
G01*
D19*
X143800000Y-99124000D02*
G75*
G03*
X145019200Y-98514400I1J1523998D01*
G01*
D20*
X142239000Y-98900900D02*
G75*
G03*
X143800000Y-99632000I1560986J1300897D01*
G01*
D19*
X142559900Y-98485801D02*
G75*
G03*
X143800000Y-99124000I1240133J885800D01*
G01*
X145003000Y-96664400D02*
G75*
G03*
X143800000Y-96076000I-1203008J-935600D01*
G01*
D20*
X145564300Y-96591800D02*
G75*
G03*
X143800000Y-95568000I-1764241J-1008196D01*
G01*
D19*
X143800000Y-96076001D02*
G75*
G03*
X142597001Y-96664401I8J-1523999D01*
G01*
D20*
X143800000Y-95568000D02*
G75*
G03*
X142248800Y-96287400I-36J-2032003D01*
G01*
D18*
%TO.C,C2*%
X152791100Y-62531750D02*
X152791100Y-62156750D01*
X152603600Y-62344250D02*
X152978600Y-62344250D01*
X153166100Y-61727313D02*
X152466100Y-61027313D01*
X155286100Y-61727313D02*
X155986100Y-61027313D01*
X152466100Y-61027313D02*
X152466100Y-58396750D01*
X155986100Y-61027313D02*
X155986100Y-58396750D01*
X152466100Y-58396750D02*
X153166100Y-58396750D01*
X155986100Y-58396750D02*
X155286100Y-58396750D01*
D21*
%TO.C,J10*%
X157690100Y-146161150D02*
X148698500Y-146161150D01*
X157690100Y-135670950D02*
X157690100Y-146161150D01*
X148698500Y-146161150D02*
X148698500Y-135670950D01*
X148698500Y-135670950D02*
X157690100Y-135670950D01*
D20*
%TO.C,LED3*%
X143800000Y-133932000D02*
G75*
G03*
X145592900Y-132856200I-60J2032000D01*
G01*
D19*
X143800000Y-133424000D02*
G75*
G03*
X145019200Y-132814400I1J1523998D01*
G01*
D20*
X142239000Y-133200900D02*
G75*
G03*
X143800000Y-133932000I1560986J1300897D01*
G01*
D19*
X142559900Y-132785801D02*
G75*
G03*
X143800000Y-133424000I1240133J885800D01*
G01*
X145003000Y-130964400D02*
G75*
G03*
X143800000Y-130376000I-1203008J-935600D01*
G01*
D20*
X145564300Y-130891800D02*
G75*
G03*
X143800000Y-129868000I-1764241J-1008196D01*
G01*
D19*
X143800000Y-130376001D02*
G75*
G03*
X142597001Y-130964401I8J-1523999D01*
G01*
D20*
X143800000Y-129868000D02*
G75*
G03*
X142248800Y-130587400I-36J-2032003D01*
G01*
%TO.C,LED1*%
X143800000Y-65332000D02*
G75*
G03*
X145592900Y-64256200I-60J2032000D01*
G01*
D19*
X143800000Y-64824000D02*
G75*
G03*
X145019200Y-64214400I1J1523998D01*
G01*
D20*
X142239000Y-64600900D02*
G75*
G03*
X143800000Y-65332000I1560986J1300897D01*
G01*
D19*
X142559900Y-64185801D02*
G75*
G03*
X143800000Y-64824000I1240133J885800D01*
G01*
X145003000Y-62364400D02*
G75*
G03*
X143800000Y-61776000I-1203008J-935600D01*
G01*
D20*
X145564300Y-62291800D02*
G75*
G03*
X143800000Y-61268000I-1764241J-1008196D01*
G01*
D19*
X143800000Y-61776001D02*
G75*
G03*
X142597001Y-62364401I8J-1523999D01*
G01*
D20*
X143800000Y-61268000D02*
G75*
G03*
X142248800Y-61987400I-36J-2032003D01*
G01*
D19*
%TO.C,IC5*%
X156722600Y-130882250D02*
X156722600Y-132307250D01*
X153634600Y-132307250D02*
X153634600Y-130882250D01*
D22*
%TO.C,IC4*%
X150343600Y-126384250D02*
X146043600Y-126384250D01*
X146043600Y-126384250D02*
X146043600Y-129184250D01*
X150343600Y-129184250D02*
X150343600Y-126384250D01*
X146043600Y-129184250D02*
X150343600Y-129184250D01*
D23*
X146731100Y-127134250D02*
G75*
G03*
X146731100Y-127134250I-162500J0D01*
G01*
D21*
%TO.C,J8*%
X148698400Y-112582350D02*
X157690000Y-112582350D01*
X148698400Y-123072550D02*
X148698400Y-112582350D01*
X157690000Y-112582350D02*
X157690000Y-123072550D01*
X157690000Y-123072550D02*
X148698400Y-123072550D01*
%TO.C,J12*%
X157690100Y-158861150D02*
X148698500Y-158861150D01*
X157690100Y-148370950D02*
X157690100Y-158861150D01*
X148698500Y-158861150D02*
X148698500Y-148370950D01*
X148698500Y-148370950D02*
X157690100Y-148370950D01*
%TO.C,J1*%
X139332200Y-65592350D02*
X148323800Y-65592350D01*
X139332200Y-76082550D02*
X139332200Y-65592350D01*
X148323800Y-65592350D02*
X148323800Y-76082550D01*
X148323800Y-76082550D02*
X139332200Y-76082550D01*
%TO.C,J5*%
X139332100Y-99882350D02*
X148323700Y-99882350D01*
X139332100Y-110372550D02*
X139332100Y-99882350D01*
X148323700Y-99882350D02*
X148323700Y-110372550D01*
X148323700Y-110372550D02*
X139332100Y-110372550D01*
%TO.C,J7*%
X139332200Y-112582350D02*
X148323800Y-112582350D01*
X139332200Y-123072550D02*
X139332200Y-112582350D01*
X148323800Y-112582350D02*
X148323800Y-123072550D01*
X148323800Y-123072550D02*
X139332200Y-123072550D01*
%TO.C,J2*%
X148698500Y-65592350D02*
X157690100Y-65592350D01*
X148698500Y-76082550D02*
X148698500Y-65592350D01*
X157690100Y-65592350D02*
X157690100Y-76082550D01*
X157690100Y-76082550D02*
X148698500Y-76082550D01*
%TO.C,J6*%
X148698300Y-99882350D02*
X157689900Y-99882350D01*
X148698300Y-110372550D02*
X148698300Y-99882350D01*
X157689900Y-99882350D02*
X157689900Y-110372550D01*
X157689900Y-110372550D02*
X148698300Y-110372550D01*
D19*
%TO.C,IC1*%
X146428300Y-57324650D02*
X150593900Y-57324650D01*
X146428300Y-57324650D02*
X146428300Y-62353850D01*
D24*
X146656900Y-57553250D02*
X150365300Y-57553250D01*
X146656900Y-57553250D02*
X146656900Y-62125250D01*
X150365300Y-62125250D02*
X150365300Y-57553250D01*
X150365300Y-62125250D02*
X146656900Y-62125250D01*
D19*
X150593900Y-62353850D02*
X150593900Y-57324650D01*
X150593900Y-62353850D02*
X146428300Y-62353850D01*
X147749100Y-58213650D02*
G75*
G03*
X147749100Y-58213650I-457200J0D01*
G01*
D21*
%TO.C,J9*%
X148323700Y-146161150D02*
X139332100Y-146161150D01*
X148323700Y-135670950D02*
X148323700Y-146161150D01*
X139332100Y-146161150D02*
X139332100Y-135670950D01*
X139332100Y-135670950D02*
X148323700Y-135670950D01*
%TO.C,J11*%
X148323800Y-158940550D02*
X139332200Y-158940550D01*
X148323800Y-148450350D02*
X148323800Y-158940550D01*
X139332200Y-158940550D02*
X139332200Y-148450350D01*
X139332200Y-148450350D02*
X148323800Y-148450350D01*
%TO.C,J4*%
X148698500Y-78292350D02*
X157690100Y-78292350D01*
X148698500Y-88782550D02*
X148698500Y-78292350D01*
X157690100Y-78292350D02*
X157690100Y-88782550D01*
X157690100Y-88782550D02*
X148698500Y-88782550D01*
%TO.C,J3*%
X139332200Y-78292350D02*
X148323800Y-78292350D01*
X139332200Y-88782550D02*
X139332200Y-78292350D01*
X148323800Y-78292350D02*
X148323800Y-88782550D01*
X148323800Y-88782550D02*
X139332200Y-88782550D01*
D22*
%TO.C,IC2*%
X151296100Y-91141750D02*
X146996100Y-91141750D01*
X146996100Y-91141750D02*
X146996100Y-93941750D01*
X151296100Y-93941750D02*
X151296100Y-91141750D01*
X146996100Y-93941750D02*
X151296100Y-93941750D01*
D23*
X147683600Y-91891750D02*
G75*
G03*
X147683600Y-91891750I-162500J0D01*
G01*
%TD*%
%LPC*%
D25*
%TO.C,D1*%
X140573600Y-52700450D03*
X140573600Y-56500450D03*
%TD*%
D26*
%TO.C,D2*%
X156448600Y-56500450D03*
X156448600Y-52700450D03*
%TD*%
D27*
%TO.C,C1*%
X141000000Y-61800000D03*
X141000000Y-58800000D03*
%TD*%
D28*
%TO.C,R21*%
X156504900Y-147151750D03*
X154804900Y-147151750D03*
%TD*%
D29*
%TO.C,C7*%
X147773600Y-94764250D03*
X146073600Y-94764250D03*
%TD*%
D30*
%TO.C,IC3*%
X155811100Y-95363150D03*
X154861100Y-95363150D03*
X153911100Y-95363150D03*
X153911100Y-97975150D03*
X155811100Y-97975150D03*
%TD*%
D31*
%TO.C,LED2*%
X145070000Y-97600000D03*
X142530000Y-97600000D03*
%TD*%
D32*
%TO.C,C10*%
X148600000Y-132650000D03*
X148600000Y-130950000D03*
%TD*%
D27*
%TO.C,C2*%
X154226100Y-61656750D03*
X154226100Y-58656750D03*
%TD*%
D32*
%TO.C,C6*%
X153432400Y-93391750D03*
X153432400Y-91691750D03*
%TD*%
D33*
%TO.C,R3*%
X147000000Y-63150000D03*
X147000000Y-64850000D03*
%TD*%
D34*
%TO.C,R14*%
X147026100Y-125402950D03*
X148726100Y-125402950D03*
%TD*%
D28*
%TO.C,R5*%
X156504900Y-77301750D03*
X154804900Y-77301750D03*
%TD*%
%TO.C,R15*%
X143646100Y-126673050D03*
X141946100Y-126673050D03*
%TD*%
D35*
%TO.C,J10*%
X153194300Y-140166750D03*
D36*
X153194300Y-134451750D03*
X153194300Y-136991750D03*
X153194300Y-144611750D03*
%TD*%
D31*
%TO.C,LED3*%
X145070000Y-131900000D03*
X142530000Y-131900000D03*
%TD*%
D37*
%TO.C,R7*%
X154861100Y-93391750D03*
X154861100Y-91691750D03*
%TD*%
D32*
%TO.C,C4*%
X156766100Y-60689250D03*
X156766100Y-58989250D03*
%TD*%
D29*
%TO.C,C5*%
X148408600Y-90319250D03*
X146708600Y-90319250D03*
%TD*%
D32*
%TO.C,C3*%
X143800000Y-61100000D03*
X143800000Y-59400000D03*
%TD*%
D31*
%TO.C,LED1*%
X145070000Y-63300000D03*
X142530000Y-63300000D03*
%TD*%
D30*
%TO.C,IC5*%
X156128600Y-130288250D03*
X155178600Y-130288250D03*
X154228600Y-130288250D03*
X154228600Y-132900250D03*
X156128600Y-132900250D03*
%TD*%
D33*
%TO.C,R11*%
X152003600Y-97406650D03*
X152003600Y-99106650D03*
%TD*%
D29*
%TO.C,C8*%
X148726100Y-123974250D03*
X147026100Y-123974250D03*
%TD*%
D28*
%TO.C,R6*%
X144916100Y-92541750D03*
X143216100Y-92541750D03*
%TD*%
D38*
%TO.C,IC4*%
X145268600Y-126809250D03*
X145268600Y-127459250D03*
X145268600Y-128109250D03*
X145268600Y-128759250D03*
X151118600Y-128759250D03*
X151118600Y-128109250D03*
X151118600Y-127459250D03*
X151118600Y-126809250D03*
%TD*%
D28*
%TO.C,R12*%
X147773600Y-111591750D03*
X146073600Y-111591750D03*
%TD*%
D37*
%TO.C,R1*%
X149300000Y-64850000D03*
X149300000Y-63150000D03*
%TD*%
D35*
%TO.C,J8*%
X153194200Y-118576750D03*
D39*
X153194200Y-124291750D03*
X153194200Y-121751750D03*
X153194200Y-114131750D03*
%TD*%
D35*
%TO.C,J12*%
X153194300Y-152866750D03*
D36*
X153194300Y-147151750D03*
X153194300Y-149691750D03*
X153194300Y-157311750D03*
%TD*%
D37*
%TO.C,R20*%
X140700000Y-132950000D03*
X140700000Y-131250000D03*
%TD*%
%TO.C,R17*%
X141843600Y-129745450D03*
X141843600Y-128045450D03*
%TD*%
%TO.C,R18*%
X143748500Y-129745450D03*
X143748500Y-128045450D03*
%TD*%
D33*
%TO.C,R2*%
X151368600Y-62799250D03*
X151368600Y-64499250D03*
%TD*%
D34*
%TO.C,R10*%
X149248600Y-94764250D03*
X150948600Y-94764250D03*
%TD*%
%TO.C,R13*%
X154804800Y-111591750D03*
X156504800Y-111591750D03*
%TD*%
D35*
%TO.C,J1*%
X143828000Y-71586750D03*
D39*
X143828000Y-77301750D03*
X143828000Y-74761750D03*
X143828000Y-67141750D03*
%TD*%
D35*
%TO.C,J5*%
X143827900Y-105876750D03*
D39*
X143827900Y-111591750D03*
X143827900Y-109051750D03*
X143827900Y-101431750D03*
%TD*%
D35*
%TO.C,J7*%
X143828000Y-118576750D03*
D39*
X143828000Y-124291750D03*
X143828000Y-121751750D03*
X143828000Y-114131750D03*
%TD*%
D32*
%TO.C,C9*%
X152797400Y-128157950D03*
X152797400Y-126457950D03*
%TD*%
D35*
%TO.C,J2*%
X153194300Y-71586750D03*
D39*
X153194300Y-77301750D03*
X153194300Y-74761750D03*
X153194300Y-67141750D03*
%TD*%
D35*
%TO.C,J6*%
X153194100Y-105876750D03*
D39*
X153194100Y-111591750D03*
X153194100Y-109051750D03*
X153194100Y-101431750D03*
%TD*%
D40*
%TO.C,IC1*%
X145793300Y-57934250D03*
X145793300Y-58569250D03*
X145793300Y-59204250D03*
X145793300Y-59839250D03*
X145793300Y-60474250D03*
X145793300Y-61109250D03*
X145793300Y-61744250D03*
X151228900Y-61744250D03*
X151228900Y-61109250D03*
X151228900Y-60474250D03*
X151228900Y-59839250D03*
X151228900Y-59204250D03*
X151228900Y-58569250D03*
X151228900Y-57934250D03*
%TD*%
D37*
%TO.C,R8*%
X143272400Y-95614250D03*
X143272400Y-93914250D03*
%TD*%
D35*
%TO.C,J9*%
X143827900Y-140166750D03*
D36*
X143827900Y-134451750D03*
X143827900Y-136991750D03*
X143827900Y-144611750D03*
%TD*%
D28*
%TO.C,R4*%
X147773600Y-77301750D03*
X146073600Y-77301750D03*
%TD*%
D37*
%TO.C,R9*%
X144701100Y-95614250D03*
X144701100Y-93914250D03*
%TD*%
D35*
%TO.C,J11*%
X143828000Y-152946150D03*
D36*
X143828000Y-147231150D03*
X143828000Y-149771150D03*
X143828000Y-157391150D03*
%TD*%
D33*
%TO.C,R19*%
X152638600Y-130426750D03*
X152638600Y-132126750D03*
%TD*%
D37*
%TO.C,R16*%
X154226100Y-128157950D03*
X154226100Y-126457950D03*
%TD*%
D35*
%TO.C,J4*%
X153194300Y-84286750D03*
D39*
X153194300Y-90001750D03*
X153194300Y-87461750D03*
X153194300Y-79841750D03*
%TD*%
D35*
%TO.C,J3*%
X143828000Y-84286750D03*
D39*
X143828000Y-90001750D03*
X143828000Y-87461750D03*
X143828000Y-79841750D03*
%TD*%
D38*
%TO.C,IC2*%
X146221100Y-91566750D03*
X146221100Y-92216750D03*
X146221100Y-92866750D03*
X146221100Y-93516750D03*
X152071100Y-93516750D03*
X152071100Y-92866750D03*
X152071100Y-92216750D03*
X152071100Y-91566750D03*
%TD*%
D41*
%TO.C,JP1*%
X143431100Y-53012950D03*
X143431100Y-55552950D03*
X145971100Y-53012950D03*
X145971100Y-55552950D03*
X148511100Y-53012950D03*
X148511100Y-55552950D03*
X151051100Y-53012950D03*
X151051100Y-55552950D03*
X153591100Y-53012950D03*
X153591100Y-55552950D03*
%TD*%
%LPD*%
M02*
