M48
; DRILL file {KiCad 7.0.5-0} date 2023 September 10, Sunday 13:20:23
; FORMAT={-:-/ absolute / inch / decimal}
; #@! TF.CreationDate,2023-09-10T13:20:23+02:00
; #@! TF.GenerationSoftware,Kicad,Pcbnew,7.0.5-0
; #@! TF.FileFunction,Plated,1,2,PTH
FMAT,2
INCH
; #@! TA.AperFunction,Plated,PTH,ViaDrill
T1C0.0236
; #@! TA.AperFunction,Plated,PTH,ComponentDrill
T2C0.0320
; #@! TA.AperFunction,Plated,PTH,ComponentDrill
T3C0.0400
%
G90
G05
T1
X5.5Y-2.5
X5.5094Y-3.8386
X5.5094Y-4.9803
X5.5469Y-6.1934
X5.5781Y-2.6184
X5.6004Y-5.3425
X5.6102Y-2.2874
X5.6614Y-5.1575
X5.7594Y-3.7934
X5.7719Y-5.1184
X5.7781Y-3.4309
X5.8031Y-3.9094
X5.8094Y-2.3059
X5.811Y-5.3819
X5.815Y-5.0394
X5.8156Y-3.6684
X5.8469Y-4.7434
X5.8844Y-2.3059
X5.8906Y-3.9059
X5.9134Y-5.1654
X5.9449Y-5.2717
X5.9969Y-2.2434
X6.0094Y-2.4059
X6.0781Y-2.5059
X6.1281Y-2.4809
X6.1469Y-6.1934
X6.1781Y-2.9684
X6.1781Y-3.0996
X6.1781Y-4.3309
X6.1781Y-4.4621
T2
X5.6114Y-2.4921
X5.6114Y-3.8425
X5.6114Y-5.1929
X5.7114Y-2.4921
X5.7114Y-3.8425
X5.7114Y-5.1929
T3
X5.6469Y-2.0871
X5.6469Y-2.1871
X5.6625Y-3.9934
X5.6625Y-4.2934
X5.6625Y-4.3934
X5.6625Y-5.2934
X5.6625Y-5.3934
X5.6625Y-5.6934
X5.6625Y-2.6434
X5.6625Y-2.9434
X5.6625Y-3.0434
X5.6625Y-3.1434
X5.6625Y-3.4434
X5.6625Y-3.5434
X5.6625Y-4.4934
X5.6625Y-4.7934
X5.6625Y-4.8934
X5.6625Y-5.7965
X5.6625Y-5.8965
X5.6625Y-6.1965
X5.7469Y-2.0871
X5.7469Y-2.1871
X5.8469Y-2.0871
X5.8469Y-2.1871
X5.9469Y-2.0871
X5.9469Y-2.1871
X6.0313Y-3.9934
X6.0313Y-4.2934
X6.0313Y-4.3934
X6.0313Y-4.4934
X6.0313Y-4.7934
X6.0313Y-4.8934
X6.0313Y-2.6434
X6.0313Y-2.9434
X6.0313Y-3.0434
X6.0313Y-3.1434
X6.0313Y-3.4434
X6.0313Y-3.5434
X6.0313Y-5.2934
X6.0313Y-5.3934
X6.0313Y-5.6934
X6.0313Y-5.7934
X6.0313Y-5.8934
X6.0313Y-6.1934
X6.0469Y-2.0871
X6.0469Y-2.1871
T0
M30
