%TF.GenerationSoftware,KiCad,Pcbnew,(6.0.11-0)*%
%TF.CreationDate,2023-05-02T23:36:09+02:00*%
%TF.ProjectId,links,6c696e6b-732e-46b6-9963-61645f706362,rev?*%
%TF.SameCoordinates,Original*%
%TF.FileFunction,Legend,Top*%
%TF.FilePolarity,Positive*%
%FSLAX46Y46*%
G04 Gerber Fmt 4.6, Leading zero omitted, Abs format (unit mm)*
G04 Created by KiCad (PCBNEW (6.0.11-0)) date 2023-05-02 23:36:09*
%MOMM*%
%LPD*%
G01*
G04 APERTURE LIST*
G04 Aperture macros list*
%AMRoundRect*
0 Rectangle with rounded corners*
0 $1 Rounding radius*
0 $2 $3 $4 $5 $6 $7 $8 $9 X,Y pos of 4 corners*
0 Add a 4 corners polygon primitive as box body*
4,1,4,$2,$3,$4,$5,$6,$7,$8,$9,$2,$3,0*
0 Add four circle primitives for the rounded corners*
1,1,$1+$1,$2,$3*
1,1,$1+$1,$4,$5*
1,1,$1+$1,$6,$7*
1,1,$1+$1,$8,$9*
0 Add four rect primitives between the rounded corners*
20,1,$1+$1,$2,$3,$4,$5,0*
20,1,$1+$1,$4,$5,$6,$7,0*
20,1,$1+$1,$6,$7,$8,$9,0*
20,1,$1+$1,$8,$9,$2,$3,0*%
%AMFreePoly0*
4,1,25,0.438258,0.998173,0.443160,0.993682,0.993682,0.443160,1.015710,0.395919,1.016000,0.389278,1.016000,-0.389278,0.998173,-0.438258,0.993682,-0.443160,0.443160,-0.993682,0.395919,-1.015710,0.389278,-1.016000,-0.389278,-1.016000,-0.438258,-0.998173,-0.443160,-0.993682,-0.993682,-0.443160,-1.015710,-0.395919,-1.016000,-0.389278,-1.016000,0.389278,-0.998173,0.438258,-0.993682,0.443160,
-0.443160,0.993682,-0.395919,1.015710,-0.389278,1.016000,0.389278,1.016000,0.438258,0.998173,0.438258,0.998173,$1*%
%AMFreePoly1*
4,1,25,0.301485,0.667973,0.306387,0.663482,0.663482,0.306387,0.685510,0.259146,0.685800,0.252505,0.685800,-0.252505,0.667973,-0.301485,0.663482,-0.306387,0.306387,-0.663482,0.259146,-0.685510,0.252505,-0.685800,-0.252505,-0.685800,-0.301485,-0.667973,-0.306387,-0.663482,-0.663482,-0.306387,-0.685510,-0.259146,-0.685800,-0.252505,-0.685800,0.252505,-0.667973,0.301485,-0.663482,0.306387,
-0.306387,0.663482,-0.259146,0.685510,-0.252505,0.685800,0.252505,0.685800,0.301485,0.667973,0.301485,0.667973,$1*%
%AMFreePoly2*
4,1,25,0.417216,0.947373,0.422118,0.942882,0.942882,0.422118,0.964910,0.374877,0.965200,0.368236,0.965200,-0.368236,0.947373,-0.417216,0.942882,-0.422118,0.422118,-0.942882,0.374877,-0.964910,0.368236,-0.965200,-0.368236,-0.965200,-0.417216,-0.947373,-0.422118,-0.942882,-0.942882,-0.422118,-0.964910,-0.374877,-0.965200,-0.368236,-0.965200,0.368236,-0.947373,0.417216,-0.942882,0.422118,
-0.422118,0.942882,-0.374877,0.964910,-0.368236,0.965200,0.368236,0.965200,0.417216,0.947373,0.417216,0.947373,$1*%
G04 Aperture macros list end*
%ADD10C,0.093472*%
%ADD11C,0.074778*%
%ADD12C,0.114300*%
%ADD13C,0.118110*%
%ADD14C,0.163576*%
%ADD15C,0.175260*%
%ADD16C,0.171450*%
%ADD17C,0.101600*%
%ADD18C,0.254000*%
%ADD19C,0.152400*%
%ADD20C,0.050800*%
%ADD21C,0.325000*%
%ADD22C,0.203200*%
%ADD23C,0.127000*%
%ADD24FreePoly0,-0.000000*%
%ADD25RoundRect,0.076200X0.500000X0.550000X-0.500000X0.550000X-0.500000X-0.550000X0.500000X-0.550000X0*%
%ADD26RoundRect,0.076200X-0.750000X1.000000X-0.750000X-1.000000X0.750000X-1.000000X0.750000X1.000000X0*%
%ADD27RoundRect,0.076200X0.500000X-0.550000X0.500000X0.550000X-0.500000X0.550000X-0.500000X-0.550000X0*%
%ADD28RoundRect,0.076200X-0.700000X0.700000X-0.700000X-0.700000X0.700000X-0.700000X0.700000X0.700000X0*%
%ADD29RoundRect,0.076200X0.700000X-0.700000X0.700000X0.700000X-0.700000X0.700000X-0.700000X-0.700000X0*%
%ADD30FreePoly1,180.000000*%
%ADD31RoundRect,0.076200X-0.495300X0.152400X-0.495300X-0.152400X0.495300X-0.152400X0.495300X0.152400X0*%
%ADD32RoundRect,0.076200X-0.550000X0.500000X-0.550000X-0.500000X0.550000X-0.500000X0.550000X0.500000X0*%
%ADD33RoundRect,0.076200X0.550000X-0.500000X0.550000X0.500000X-0.550000X0.500000X-0.550000X-0.500000X0*%
%ADD34RoundRect,0.076200X-0.500000X-0.550000X0.500000X-0.550000X0.500000X0.550000X-0.500000X0.550000X0*%
%ADD35RoundRect,0.076200X-0.600000X0.175000X-0.600000X-0.175000X0.600000X-0.175000X0.600000X0.175000X0*%
%ADD36RoundRect,0.076200X0.550000X0.500000X-0.550000X0.500000X-0.550000X-0.500000X0.550000X-0.500000X0*%
%ADD37RoundRect,0.076200X0.300000X0.600000X-0.300000X0.600000X-0.300000X-0.600000X0.300000X-0.600000X0*%
%ADD38C,2.200000*%
%ADD39FreePoly2,0.000000*%
%ADD40FreePoly2,180.000000*%
G04 APERTURE END LIST*
D10*
%TO.C,R5*%
X157317086Y-77317267D02*
X157071311Y-77489310D01*
X157317086Y-77612197D02*
X156800958Y-77612197D01*
X156800958Y-77415577D01*
X156825536Y-77366422D01*
X156850113Y-77341844D01*
X156899268Y-77317267D01*
X156973001Y-77317267D01*
X157022156Y-77341844D01*
X157046733Y-77366422D01*
X157071311Y-77415577D01*
X157071311Y-77612197D01*
X156800958Y-76850294D02*
X156800958Y-77096069D01*
X157046733Y-77120647D01*
X157022156Y-77096069D01*
X156997578Y-77046914D01*
X156997578Y-76924026D01*
X157022156Y-76874871D01*
X157046733Y-76850294D01*
X157095888Y-76825716D01*
X157218776Y-76825716D01*
X157267931Y-76850294D01*
X157292508Y-76874871D01*
X157317086Y-76924026D01*
X157317086Y-77046914D01*
X157292508Y-77096069D01*
X157267931Y-77120647D01*
D11*
%TO.C,C1*%
X143277656Y-57807757D02*
X143252189Y-57833225D01*
X143175785Y-57858693D01*
X143124850Y-57858693D01*
X143048447Y-57833225D01*
X142997511Y-57782290D01*
X142972044Y-57731354D01*
X142946576Y-57629483D01*
X142946576Y-57553080D01*
X142972044Y-57451209D01*
X142997511Y-57400274D01*
X143048447Y-57349339D01*
X143124850Y-57323871D01*
X143175785Y-57323871D01*
X143252189Y-57349339D01*
X143277656Y-57374806D01*
X143787011Y-57858693D02*
X143481398Y-57858693D01*
X143634204Y-57858693D02*
X143634204Y-57323871D01*
X143583269Y-57400274D01*
X143532333Y-57451209D01*
X143481398Y-57476677D01*
%TO.C,C2*%
X154072656Y-57807757D02*
X154047189Y-57833225D01*
X153970785Y-57858693D01*
X153919850Y-57858693D01*
X153843447Y-57833225D01*
X153792511Y-57782290D01*
X153767044Y-57731354D01*
X153741576Y-57629483D01*
X153741576Y-57553080D01*
X153767044Y-57451209D01*
X153792511Y-57400274D01*
X153843447Y-57349339D01*
X153919850Y-57323871D01*
X153970785Y-57323871D01*
X154047189Y-57349339D01*
X154072656Y-57374806D01*
X154276398Y-57374806D02*
X154301866Y-57349339D01*
X154352801Y-57323871D01*
X154480140Y-57323871D01*
X154531075Y-57349339D01*
X154556543Y-57374806D01*
X154582011Y-57425742D01*
X154582011Y-57476677D01*
X154556543Y-57553080D01*
X154250930Y-57858693D01*
X154582011Y-57858693D01*
D10*
%TO.C,C4*%
X157585531Y-59854867D02*
X157610108Y-59879444D01*
X157634686Y-59953177D01*
X157634686Y-60002332D01*
X157610108Y-60076065D01*
X157560953Y-60125220D01*
X157511798Y-60149797D01*
X157413488Y-60174375D01*
X157339756Y-60174375D01*
X157241446Y-60149797D01*
X157192291Y-60125220D01*
X157143136Y-60076065D01*
X157118558Y-60002332D01*
X157118558Y-59953177D01*
X157143136Y-59879444D01*
X157167713Y-59854867D01*
X157290601Y-59412471D02*
X157634686Y-59412471D01*
X157093980Y-59535359D02*
X157462643Y-59658247D01*
X157462643Y-59338739D01*
%TO.C,C3*%
X140440531Y-60313175D02*
X140465108Y-60337752D01*
X140489686Y-60411485D01*
X140489686Y-60460640D01*
X140465108Y-60534373D01*
X140415953Y-60583528D01*
X140366798Y-60608105D01*
X140268488Y-60632683D01*
X140194756Y-60632683D01*
X140096446Y-60608105D01*
X140047291Y-60583528D01*
X139998136Y-60534373D01*
X139973558Y-60460640D01*
X139973558Y-60411485D01*
X139998136Y-60337752D01*
X140022713Y-60313175D01*
X139973558Y-60141132D02*
X139973558Y-59821624D01*
X140170178Y-59993667D01*
X140170178Y-59919934D01*
X140194756Y-59870779D01*
X140219333Y-59846202D01*
X140268488Y-59821624D01*
X140391376Y-59821624D01*
X140440531Y-59846202D01*
X140465108Y-59870779D01*
X140489686Y-59919934D01*
X140489686Y-60067400D01*
X140465108Y-60116555D01*
X140440531Y-60141132D01*
%TO.C,D2*%
X155682086Y-55516605D02*
X155165958Y-55516605D01*
X155165958Y-55393717D01*
X155190536Y-55319985D01*
X155239691Y-55270830D01*
X155288846Y-55246252D01*
X155387156Y-55221675D01*
X155460888Y-55221675D01*
X155559198Y-55246252D01*
X155608353Y-55270830D01*
X155657508Y-55319985D01*
X155682086Y-55393717D01*
X155682086Y-55516605D01*
X155215113Y-55025055D02*
X155190536Y-55000477D01*
X155165958Y-54951322D01*
X155165958Y-54828434D01*
X155190536Y-54779279D01*
X155215113Y-54754702D01*
X155264268Y-54730124D01*
X155313423Y-54730124D01*
X155387156Y-54754702D01*
X155682086Y-55049632D01*
X155682086Y-54730124D01*
%TO.C,D1*%
X139807186Y-55516905D02*
X139291058Y-55516905D01*
X139291058Y-55394017D01*
X139315636Y-55320285D01*
X139364791Y-55271130D01*
X139413946Y-55246552D01*
X139512256Y-55221975D01*
X139585988Y-55221975D01*
X139684298Y-55246552D01*
X139733453Y-55271130D01*
X139782608Y-55320285D01*
X139807186Y-55394017D01*
X139807186Y-55516905D01*
X139807186Y-54730424D02*
X139807186Y-55025355D01*
X139807186Y-54877889D02*
X139291058Y-54877889D01*
X139364791Y-54927045D01*
X139413946Y-54976200D01*
X139438523Y-55025355D01*
D12*
%TO.C,LED1*%
X152749180Y-65556014D02*
X152513323Y-65556014D01*
X152513323Y-65060714D01*
X152914280Y-65296571D02*
X153079380Y-65296571D01*
X153150137Y-65556014D02*
X152914280Y-65556014D01*
X152914280Y-65060714D01*
X153150137Y-65060714D01*
X153362409Y-65556014D02*
X153362409Y-65060714D01*
X153480337Y-65060714D01*
X153551095Y-65084300D01*
X153598266Y-65131471D01*
X153621852Y-65178642D01*
X153645437Y-65272985D01*
X153645437Y-65343742D01*
X153621852Y-65438085D01*
X153598266Y-65485257D01*
X153551095Y-65532428D01*
X153480337Y-65556014D01*
X153362409Y-65556014D01*
X154117152Y-65556014D02*
X153834123Y-65556014D01*
X153975637Y-65556014D02*
X153975637Y-65060714D01*
X153928466Y-65131471D01*
X153881295Y-65178642D01*
X153834123Y-65202228D01*
%TO.C,LED2*%
X145228290Y-98703014D02*
X144992433Y-98703014D01*
X144992433Y-98207714D01*
X145393390Y-98443571D02*
X145558490Y-98443571D01*
X145629247Y-98703014D02*
X145393390Y-98703014D01*
X145393390Y-98207714D01*
X145629247Y-98207714D01*
X145841519Y-98703014D02*
X145841519Y-98207714D01*
X145959447Y-98207714D01*
X146030205Y-98231300D01*
X146077376Y-98278471D01*
X146100962Y-98325642D01*
X146124547Y-98419985D01*
X146124547Y-98490742D01*
X146100962Y-98585085D01*
X146077376Y-98632257D01*
X146030205Y-98679428D01*
X145959447Y-98703014D01*
X145841519Y-98703014D01*
X146313233Y-98254885D02*
X146336819Y-98231300D01*
X146383990Y-98207714D01*
X146501919Y-98207714D01*
X146549090Y-98231300D01*
X146572676Y-98254885D01*
X146596262Y-98302057D01*
X146596262Y-98349228D01*
X146572676Y-98419985D01*
X146289647Y-98703014D01*
X146596262Y-98703014D01*
D13*
%TO.C,IC1*%
X146604857Y-57417672D02*
X146604857Y-56945232D01*
X147099794Y-57372678D02*
X147077297Y-57395175D01*
X147009805Y-57417672D01*
X146964811Y-57417672D01*
X146897320Y-57395175D01*
X146852325Y-57350181D01*
X146829828Y-57305187D01*
X146807331Y-57215198D01*
X146807331Y-57147707D01*
X146829828Y-57057718D01*
X146852325Y-57012724D01*
X146897320Y-56967730D01*
X146964811Y-56945232D01*
X147009805Y-56945232D01*
X147077297Y-56967730D01*
X147099794Y-56990227D01*
X147549737Y-57417672D02*
X147279771Y-57417672D01*
X147414754Y-57417672D02*
X147414754Y-56945232D01*
X147369760Y-57012724D01*
X147324765Y-57057718D01*
X147279771Y-57080215D01*
D10*
%TO.C,R2*%
X152395886Y-63823667D02*
X152150111Y-63995710D01*
X152395886Y-64118597D02*
X151879758Y-64118597D01*
X151879758Y-63921977D01*
X151904336Y-63872822D01*
X151928913Y-63848244D01*
X151978068Y-63823667D01*
X152051801Y-63823667D01*
X152100956Y-63848244D01*
X152125533Y-63872822D01*
X152150111Y-63921977D01*
X152150111Y-64118597D01*
X151928913Y-63627047D02*
X151904336Y-63602469D01*
X151879758Y-63553314D01*
X151879758Y-63430426D01*
X151904336Y-63381271D01*
X151928913Y-63356694D01*
X151978068Y-63332116D01*
X152027223Y-63332116D01*
X152100956Y-63356694D01*
X152395886Y-63651624D01*
X152395886Y-63332116D01*
%TO.C,R4*%
X148585886Y-77317367D02*
X148340111Y-77489410D01*
X148585886Y-77612297D02*
X148069758Y-77612297D01*
X148069758Y-77415677D01*
X148094336Y-77366522D01*
X148118913Y-77341944D01*
X148168068Y-77317367D01*
X148241801Y-77317367D01*
X148290956Y-77341944D01*
X148315533Y-77366522D01*
X148340111Y-77415677D01*
X148340111Y-77612297D01*
X148241801Y-76874971D02*
X148585886Y-76874971D01*
X148045180Y-76997859D02*
X148413843Y-77120747D01*
X148413843Y-76801239D01*
%TO.C,R3*%
X145252186Y-64281975D02*
X145006411Y-64454017D01*
X145252186Y-64576905D02*
X144736058Y-64576905D01*
X144736058Y-64380285D01*
X144760636Y-64331130D01*
X144785213Y-64306552D01*
X144834368Y-64281975D01*
X144908101Y-64281975D01*
X144957256Y-64306552D01*
X144981833Y-64331130D01*
X145006411Y-64380285D01*
X145006411Y-64576905D01*
X144736058Y-64109932D02*
X144736058Y-63790424D01*
X144932678Y-63962467D01*
X144932678Y-63888734D01*
X144957256Y-63839579D01*
X144981833Y-63815002D01*
X145030988Y-63790424D01*
X145153876Y-63790424D01*
X145203031Y-63815002D01*
X145227608Y-63839579D01*
X145252186Y-63888734D01*
X145252186Y-64036200D01*
X145227608Y-64085355D01*
X145203031Y-64109932D01*
%TO.C,R1*%
X142957174Y-64200236D02*
X142785132Y-63954461D01*
X142662244Y-64200236D02*
X142662244Y-63684108D01*
X142858864Y-63684108D01*
X142908019Y-63708686D01*
X142932597Y-63733263D01*
X142957174Y-63782418D01*
X142957174Y-63856151D01*
X142932597Y-63905306D01*
X142908019Y-63929883D01*
X142858864Y-63954461D01*
X142662244Y-63954461D01*
X143448725Y-64200236D02*
X143153794Y-64200236D01*
X143301260Y-64200236D02*
X143301260Y-63684108D01*
X143252104Y-63757841D01*
X143202949Y-63806996D01*
X143153794Y-63831573D01*
D14*
%TO.C,IC2*%
X149455382Y-91212870D02*
X149455382Y-90360446D01*
X150348398Y-91131687D02*
X150307806Y-91172278D01*
X150186031Y-91212870D01*
X150104848Y-91212870D01*
X149983073Y-91172278D01*
X149901890Y-91091095D01*
X149861298Y-91009912D01*
X149820707Y-90847545D01*
X149820707Y-90725770D01*
X149861298Y-90563404D01*
X149901890Y-90482221D01*
X149983073Y-90401038D01*
X150104848Y-90360446D01*
X150186031Y-90360446D01*
X150307806Y-90401038D01*
X150348398Y-90441629D01*
X150673131Y-90441629D02*
X150713722Y-90401038D01*
X150794905Y-90360446D01*
X150997864Y-90360446D01*
X151079047Y-90401038D01*
X151119638Y-90441629D01*
X151160230Y-90522812D01*
X151160230Y-90603996D01*
X151119638Y-90725770D01*
X150632539Y-91212870D01*
X151160230Y-91212870D01*
D10*
%TO.C,R9*%
X144616986Y-97002367D02*
X144371211Y-97174410D01*
X144616986Y-97297297D02*
X144100858Y-97297297D01*
X144100858Y-97100677D01*
X144125436Y-97051522D01*
X144150013Y-97026944D01*
X144199168Y-97002367D01*
X144272901Y-97002367D01*
X144322056Y-97026944D01*
X144346633Y-97051522D01*
X144371211Y-97100677D01*
X144371211Y-97297297D01*
X144616986Y-96756592D02*
X144616986Y-96658282D01*
X144592408Y-96609126D01*
X144567831Y-96584549D01*
X144494098Y-96535394D01*
X144395788Y-96510816D01*
X144199168Y-96510816D01*
X144150013Y-96535394D01*
X144125436Y-96559971D01*
X144100858Y-96609126D01*
X144100858Y-96707437D01*
X144125436Y-96756592D01*
X144150013Y-96781169D01*
X144199168Y-96805747D01*
X144322056Y-96805747D01*
X144371211Y-96781169D01*
X144395788Y-96756592D01*
X144420366Y-96707437D01*
X144420366Y-96609126D01*
X144395788Y-96559971D01*
X144371211Y-96535394D01*
X144322056Y-96510816D01*
%TO.C,R8*%
X143188286Y-97002367D02*
X142942511Y-97174410D01*
X143188286Y-97297297D02*
X142672158Y-97297297D01*
X142672158Y-97100677D01*
X142696736Y-97051522D01*
X142721313Y-97026944D01*
X142770468Y-97002367D01*
X142844201Y-97002367D01*
X142893356Y-97026944D01*
X142917933Y-97051522D01*
X142942511Y-97100677D01*
X142942511Y-97297297D01*
X142893356Y-96707437D02*
X142868778Y-96756592D01*
X142844201Y-96781169D01*
X142795046Y-96805747D01*
X142770468Y-96805747D01*
X142721313Y-96781169D01*
X142696736Y-96756592D01*
X142672158Y-96707437D01*
X142672158Y-96609126D01*
X142696736Y-96559971D01*
X142721313Y-96535394D01*
X142770468Y-96510816D01*
X142795046Y-96510816D01*
X142844201Y-96535394D01*
X142868778Y-96559971D01*
X142893356Y-96609126D01*
X142893356Y-96707437D01*
X142917933Y-96756592D01*
X142942511Y-96781169D01*
X142991666Y-96805747D01*
X143089976Y-96805747D01*
X143139131Y-96781169D01*
X143163708Y-96756592D01*
X143188286Y-96707437D01*
X143188286Y-96609126D01*
X143163708Y-96559971D01*
X143139131Y-96535394D01*
X143089976Y-96510816D01*
X142991666Y-96510816D01*
X142942511Y-96535394D01*
X142917933Y-96559971D01*
X142893356Y-96609126D01*
%TO.C,R7*%
X155888386Y-92557267D02*
X155642611Y-92729310D01*
X155888386Y-92852197D02*
X155372258Y-92852197D01*
X155372258Y-92655577D01*
X155396836Y-92606422D01*
X155421413Y-92581844D01*
X155470568Y-92557267D01*
X155544301Y-92557267D01*
X155593456Y-92581844D01*
X155618033Y-92606422D01*
X155642611Y-92655577D01*
X155642611Y-92852197D01*
X155372258Y-92385224D02*
X155372258Y-92041139D01*
X155888386Y-92262337D01*
%TO.C,R12*%
X148585886Y-111781417D02*
X148340111Y-111953460D01*
X148585886Y-112076348D02*
X148069758Y-112076348D01*
X148069758Y-111879727D01*
X148094336Y-111830572D01*
X148118913Y-111805995D01*
X148168068Y-111781417D01*
X148241801Y-111781417D01*
X148290956Y-111805995D01*
X148315533Y-111830572D01*
X148340111Y-111879727D01*
X148340111Y-112076348D01*
X148585886Y-111289867D02*
X148585886Y-111584797D01*
X148585886Y-111437332D02*
X148069758Y-111437332D01*
X148143491Y-111486487D01*
X148192646Y-111535642D01*
X148217223Y-111584797D01*
X148118913Y-111093247D02*
X148094336Y-111068669D01*
X148069758Y-111019514D01*
X148069758Y-110896626D01*
X148094336Y-110847471D01*
X148118913Y-110822894D01*
X148168068Y-110798316D01*
X148217223Y-110798316D01*
X148290956Y-110822894D01*
X148585886Y-111117824D01*
X148585886Y-110798316D01*
%TO.C,R11*%
X151443286Y-98571975D02*
X151197511Y-98744017D01*
X151443286Y-98866905D02*
X150927158Y-98866905D01*
X150927158Y-98670285D01*
X150951736Y-98621130D01*
X150976313Y-98596552D01*
X151025468Y-98571975D01*
X151099201Y-98571975D01*
X151148356Y-98596552D01*
X151172933Y-98621130D01*
X151197511Y-98670285D01*
X151197511Y-98866905D01*
X151443286Y-98080424D02*
X151443286Y-98375355D01*
X151443286Y-98227889D02*
X150927158Y-98227889D01*
X151000891Y-98277045D01*
X151050046Y-98326200D01*
X151074623Y-98375355D01*
X151443286Y-97588874D02*
X151443286Y-97883804D01*
X151443286Y-97736339D02*
X150927158Y-97736339D01*
X151000891Y-97785494D01*
X151050046Y-97834649D01*
X151074623Y-97883804D01*
%TO.C,R13*%
X157317086Y-111781417D02*
X157071311Y-111953460D01*
X157317086Y-112076348D02*
X156800958Y-112076348D01*
X156800958Y-111879727D01*
X156825536Y-111830572D01*
X156850113Y-111805995D01*
X156899268Y-111781417D01*
X156973001Y-111781417D01*
X157022156Y-111805995D01*
X157046733Y-111830572D01*
X157071311Y-111879727D01*
X157071311Y-112076348D01*
X157317086Y-111289867D02*
X157317086Y-111584797D01*
X157317086Y-111437332D02*
X156800958Y-111437332D01*
X156874691Y-111486487D01*
X156923846Y-111535642D01*
X156948423Y-111584797D01*
X156800958Y-111117824D02*
X156800958Y-110798316D01*
X156997578Y-110970359D01*
X156997578Y-110896626D01*
X157022156Y-110847471D01*
X157046733Y-110822894D01*
X157095888Y-110798316D01*
X157218776Y-110798316D01*
X157267931Y-110822894D01*
X157292508Y-110847471D01*
X157317086Y-110896626D01*
X157317086Y-111044092D01*
X157292508Y-111093247D01*
X157267931Y-111117824D01*
D15*
%TO.C,IC4*%
X149777695Y-126450084D02*
X149777695Y-125609344D01*
X150658470Y-126370014D02*
X150618435Y-126410049D01*
X150498329Y-126450084D01*
X150418259Y-126450084D01*
X150298153Y-126410049D01*
X150218082Y-126329979D01*
X150178047Y-126249908D01*
X150138012Y-126089767D01*
X150138012Y-125969661D01*
X150178047Y-125809520D01*
X150218082Y-125729450D01*
X150298153Y-125649380D01*
X150418259Y-125609344D01*
X150498329Y-125609344D01*
X150618435Y-125649380D01*
X150658470Y-125689415D01*
X151379104Y-125889591D02*
X151379104Y-126450084D01*
X151178928Y-125569309D02*
X150978752Y-126169838D01*
X151499210Y-126169838D01*
D10*
%TO.C,C5*%
X147560874Y-89868381D02*
X147536297Y-89892958D01*
X147462564Y-89917536D01*
X147413409Y-89917536D01*
X147339676Y-89892958D01*
X147290521Y-89843803D01*
X147265944Y-89794648D01*
X147241366Y-89696338D01*
X147241366Y-89622606D01*
X147265944Y-89524296D01*
X147290521Y-89475141D01*
X147339676Y-89425986D01*
X147413409Y-89401408D01*
X147462564Y-89401408D01*
X147536297Y-89425986D01*
X147560874Y-89450563D01*
X148027847Y-89401408D02*
X147782072Y-89401408D01*
X147757494Y-89647183D01*
X147782072Y-89622606D01*
X147831227Y-89598028D01*
X147954115Y-89598028D01*
X148003270Y-89622606D01*
X148027847Y-89647183D01*
X148052425Y-89696338D01*
X148052425Y-89819226D01*
X148027847Y-89868381D01*
X148003270Y-89892958D01*
X147954115Y-89917536D01*
X147831227Y-89917536D01*
X147782072Y-89892958D01*
X147757494Y-89868381D01*
%TO.C,C7*%
X146907982Y-95583581D02*
X146883405Y-95608158D01*
X146809672Y-95632736D01*
X146760517Y-95632736D01*
X146686784Y-95608158D01*
X146637629Y-95559003D01*
X146613052Y-95509848D01*
X146588474Y-95411538D01*
X146588474Y-95337806D01*
X146613052Y-95239496D01*
X146637629Y-95190341D01*
X146686784Y-95141186D01*
X146760517Y-95116608D01*
X146809672Y-95116608D01*
X146883405Y-95141186D01*
X146907982Y-95165763D01*
X147080025Y-95116608D02*
X147424110Y-95116608D01*
X147202912Y-95632736D01*
%TO.C,C6*%
X152622982Y-94313581D02*
X152598405Y-94338158D01*
X152524672Y-94362736D01*
X152475517Y-94362736D01*
X152401784Y-94338158D01*
X152352629Y-94289003D01*
X152328052Y-94239848D01*
X152303474Y-94141538D01*
X152303474Y-94067806D01*
X152328052Y-93969496D01*
X152352629Y-93920341D01*
X152401784Y-93871186D01*
X152475517Y-93846608D01*
X152524672Y-93846608D01*
X152598405Y-93871186D01*
X152622982Y-93895763D01*
X153065378Y-93846608D02*
X152967067Y-93846608D01*
X152917912Y-93871186D01*
X152893335Y-93895763D01*
X152844180Y-93969496D01*
X152819602Y-94067806D01*
X152819602Y-94264426D01*
X152844180Y-94313581D01*
X152868757Y-94338158D01*
X152917912Y-94362736D01*
X153016223Y-94362736D01*
X153065378Y-94338158D01*
X153089955Y-94313581D01*
X153114533Y-94264426D01*
X153114533Y-94141538D01*
X153089955Y-94092383D01*
X153065378Y-94067806D01*
X153016223Y-94043228D01*
X152917912Y-94043228D01*
X152868757Y-94067806D01*
X152844180Y-94092383D01*
X152819602Y-94141538D01*
%TO.C,R6*%
X141827982Y-92457736D02*
X141655939Y-92211961D01*
X141533052Y-92457736D02*
X141533052Y-91941608D01*
X141729672Y-91941608D01*
X141778827Y-91966186D01*
X141803405Y-91990763D01*
X141827982Y-92039918D01*
X141827982Y-92113651D01*
X141803405Y-92162806D01*
X141778827Y-92187383D01*
X141729672Y-92211961D01*
X141533052Y-92211961D01*
X142270378Y-91941608D02*
X142172067Y-91941608D01*
X142122912Y-91966186D01*
X142098335Y-91990763D01*
X142049180Y-92064496D01*
X142024602Y-92162806D01*
X142024602Y-92359426D01*
X142049180Y-92408581D01*
X142073757Y-92433158D01*
X142122912Y-92457736D01*
X142221223Y-92457736D01*
X142270378Y-92433158D01*
X142294955Y-92408581D01*
X142319533Y-92359426D01*
X142319533Y-92236538D01*
X142294955Y-92187383D01*
X142270378Y-92162806D01*
X142221223Y-92138228D01*
X142122912Y-92138228D01*
X142073757Y-92162806D01*
X142049180Y-92187383D01*
X142024602Y-92236538D01*
%TO.C,R10*%
X150894774Y-96267736D02*
X150722732Y-96021961D01*
X150599844Y-96267736D02*
X150599844Y-95751608D01*
X150796464Y-95751608D01*
X150845619Y-95776186D01*
X150870197Y-95800763D01*
X150894774Y-95849918D01*
X150894774Y-95923651D01*
X150870197Y-95972806D01*
X150845619Y-95997383D01*
X150796464Y-96021961D01*
X150599844Y-96021961D01*
X151386325Y-96267736D02*
X151091394Y-96267736D01*
X151238860Y-96267736D02*
X151238860Y-95751608D01*
X151189704Y-95825341D01*
X151140549Y-95874496D01*
X151091394Y-95899073D01*
X151705832Y-95751608D02*
X151754988Y-95751608D01*
X151804143Y-95776186D01*
X151828720Y-95800763D01*
X151853298Y-95849918D01*
X151877875Y-95948228D01*
X151877875Y-96071116D01*
X151853298Y-96169426D01*
X151828720Y-96218581D01*
X151804143Y-96243158D01*
X151754988Y-96267736D01*
X151705832Y-96267736D01*
X151656677Y-96243158D01*
X151632100Y-96218581D01*
X151607522Y-96169426D01*
X151582945Y-96071116D01*
X151582945Y-95948228D01*
X151607522Y-95849918D01*
X151632100Y-95800763D01*
X151656677Y-95776186D01*
X151705832Y-95751608D01*
D12*
%TO.C,LED3*%
X146657090Y-134421814D02*
X146421233Y-134421814D01*
X146421233Y-133926514D01*
X146822190Y-134162371D02*
X146987290Y-134162371D01*
X147058047Y-134421814D02*
X146822190Y-134421814D01*
X146822190Y-133926514D01*
X147058047Y-133926514D01*
X147270319Y-134421814D02*
X147270319Y-133926514D01*
X147388247Y-133926514D01*
X147459005Y-133950100D01*
X147506176Y-133997271D01*
X147529762Y-134044442D01*
X147553347Y-134138785D01*
X147553347Y-134209542D01*
X147529762Y-134303885D01*
X147506176Y-134351057D01*
X147459005Y-134398228D01*
X147388247Y-134421814D01*
X147270319Y-134421814D01*
X147718447Y-133926514D02*
X148025062Y-133926514D01*
X147859962Y-134115200D01*
X147930719Y-134115200D01*
X147977890Y-134138785D01*
X148001476Y-134162371D01*
X148025062Y-134209542D01*
X148025062Y-134327471D01*
X148001476Y-134374642D01*
X147977890Y-134398228D01*
X147930719Y-134421814D01*
X147789205Y-134421814D01*
X147742033Y-134398228D01*
X147718447Y-134374642D01*
D10*
%TO.C,R17*%
X141124586Y-129051975D02*
X140878811Y-129224017D01*
X141124586Y-129346905D02*
X140608458Y-129346905D01*
X140608458Y-129150285D01*
X140633036Y-129101130D01*
X140657613Y-129076552D01*
X140706768Y-129051975D01*
X140780501Y-129051975D01*
X140829656Y-129076552D01*
X140854233Y-129101130D01*
X140878811Y-129150285D01*
X140878811Y-129346905D01*
X141124586Y-128560424D02*
X141124586Y-128855355D01*
X141124586Y-128707889D02*
X140608458Y-128707889D01*
X140682191Y-128757045D01*
X140731346Y-128806200D01*
X140755923Y-128855355D01*
X140608458Y-128388382D02*
X140608458Y-128044296D01*
X141124586Y-128265494D01*
%TO.C,R20*%
X142394586Y-132385675D02*
X142148811Y-132557717D01*
X142394586Y-132680605D02*
X141878458Y-132680605D01*
X141878458Y-132483985D01*
X141903036Y-132434830D01*
X141927613Y-132410252D01*
X141976768Y-132385675D01*
X142050501Y-132385675D01*
X142099656Y-132410252D01*
X142124233Y-132434830D01*
X142148811Y-132483985D01*
X142148811Y-132680605D01*
X141927613Y-132189055D02*
X141903036Y-132164477D01*
X141878458Y-132115322D01*
X141878458Y-131992434D01*
X141903036Y-131943279D01*
X141927613Y-131918702D01*
X141976768Y-131894124D01*
X142025923Y-131894124D01*
X142099656Y-131918702D01*
X142394586Y-132213632D01*
X142394586Y-131894124D01*
X141878458Y-131574617D02*
X141878458Y-131525461D01*
X141903036Y-131476306D01*
X141927613Y-131451729D01*
X141976768Y-131427151D01*
X142075078Y-131402574D01*
X142197966Y-131402574D01*
X142296276Y-131427151D01*
X142345431Y-131451729D01*
X142370008Y-131476306D01*
X142394586Y-131525461D01*
X142394586Y-131574617D01*
X142370008Y-131623772D01*
X142345431Y-131648349D01*
X142296276Y-131672927D01*
X142197966Y-131697504D01*
X142075078Y-131697504D01*
X141976768Y-131672927D01*
X141927613Y-131648349D01*
X141903036Y-131623772D01*
X141878458Y-131574617D01*
%TO.C,R16*%
X155253386Y-127497617D02*
X155007611Y-127669660D01*
X155253386Y-127792548D02*
X154737258Y-127792548D01*
X154737258Y-127595927D01*
X154761836Y-127546772D01*
X154786413Y-127522195D01*
X154835568Y-127497617D01*
X154909301Y-127497617D01*
X154958456Y-127522195D01*
X154983033Y-127546772D01*
X155007611Y-127595927D01*
X155007611Y-127792548D01*
X155253386Y-127006067D02*
X155253386Y-127300997D01*
X155253386Y-127153532D02*
X154737258Y-127153532D01*
X154810991Y-127202687D01*
X154860146Y-127251842D01*
X154884723Y-127300997D01*
X154737258Y-126563671D02*
X154737258Y-126661982D01*
X154761836Y-126711137D01*
X154786413Y-126735714D01*
X154860146Y-126784869D01*
X154958456Y-126809447D01*
X155155076Y-126809447D01*
X155204231Y-126784869D01*
X155228808Y-126760292D01*
X155253386Y-126711137D01*
X155253386Y-126612826D01*
X155228808Y-126563671D01*
X155204231Y-126539094D01*
X155155076Y-126514516D01*
X155032188Y-126514516D01*
X154983033Y-126539094D01*
X154958456Y-126563671D01*
X154933878Y-126612826D01*
X154933878Y-126711137D01*
X154958456Y-126760292D01*
X154983033Y-126784869D01*
X155032188Y-126809447D01*
%TO.C,R18*%
X143347186Y-129051875D02*
X143101411Y-129223917D01*
X143347186Y-129346805D02*
X142831058Y-129346805D01*
X142831058Y-129150185D01*
X142855636Y-129101030D01*
X142880213Y-129076452D01*
X142929368Y-129051875D01*
X143003101Y-129051875D01*
X143052256Y-129076452D01*
X143076833Y-129101030D01*
X143101411Y-129150185D01*
X143101411Y-129346805D01*
X143347186Y-128560324D02*
X143347186Y-128855255D01*
X143347186Y-128707789D02*
X142831058Y-128707789D01*
X142904791Y-128756945D01*
X142953946Y-128806100D01*
X142978523Y-128855255D01*
X143052256Y-128265394D02*
X143027678Y-128314549D01*
X143003101Y-128339127D01*
X142953946Y-128363704D01*
X142929368Y-128363704D01*
X142880213Y-128339127D01*
X142855636Y-128314549D01*
X142831058Y-128265394D01*
X142831058Y-128167084D01*
X142855636Y-128117929D01*
X142880213Y-128093351D01*
X142929368Y-128068774D01*
X142953946Y-128068774D01*
X143003101Y-128093351D01*
X143027678Y-128117929D01*
X143052256Y-128167084D01*
X143052256Y-128265394D01*
X143076833Y-128314549D01*
X143101411Y-128339127D01*
X143150566Y-128363704D01*
X143248876Y-128363704D01*
X143298031Y-128339127D01*
X143322608Y-128314549D01*
X143347186Y-128265394D01*
X143347186Y-128167084D01*
X143322608Y-128117929D01*
X143298031Y-128093351D01*
X143248876Y-128068774D01*
X143150566Y-128068774D01*
X143101411Y-128093351D01*
X143076833Y-128117929D01*
X143052256Y-128167084D01*
%TO.C,R19*%
X152078386Y-131591875D02*
X151832611Y-131763917D01*
X152078386Y-131886805D02*
X151562258Y-131886805D01*
X151562258Y-131690185D01*
X151586836Y-131641030D01*
X151611413Y-131616452D01*
X151660568Y-131591875D01*
X151734301Y-131591875D01*
X151783456Y-131616452D01*
X151808033Y-131641030D01*
X151832611Y-131690185D01*
X151832611Y-131886805D01*
X152078386Y-131100324D02*
X152078386Y-131395255D01*
X152078386Y-131247789D02*
X151562258Y-131247789D01*
X151635991Y-131296945D01*
X151685146Y-131346100D01*
X151709723Y-131395255D01*
X152078386Y-130854549D02*
X152078386Y-130756239D01*
X152053808Y-130707084D01*
X152029231Y-130682506D01*
X151955498Y-130633351D01*
X151857188Y-130608774D01*
X151660568Y-130608774D01*
X151611413Y-130633351D01*
X151586836Y-130657929D01*
X151562258Y-130707084D01*
X151562258Y-130805394D01*
X151586836Y-130854549D01*
X151611413Y-130879127D01*
X151660568Y-130903704D01*
X151783456Y-130903704D01*
X151832611Y-130879127D01*
X151857188Y-130854549D01*
X151881766Y-130805394D01*
X151881766Y-130707084D01*
X151857188Y-130657929D01*
X151832611Y-130633351D01*
X151783456Y-130608774D01*
%TO.C,R21*%
X157317186Y-147658917D02*
X157071411Y-147830960D01*
X157317186Y-147953848D02*
X156801058Y-147953848D01*
X156801058Y-147757227D01*
X156825636Y-147708072D01*
X156850213Y-147683495D01*
X156899368Y-147658917D01*
X156973101Y-147658917D01*
X157022256Y-147683495D01*
X157046833Y-147708072D01*
X157071411Y-147757227D01*
X157071411Y-147953848D01*
X156850213Y-147462297D02*
X156825636Y-147437720D01*
X156801058Y-147388565D01*
X156801058Y-147265677D01*
X156825636Y-147216522D01*
X156850213Y-147191944D01*
X156899368Y-147167367D01*
X156948523Y-147167367D01*
X157022256Y-147191944D01*
X157317186Y-147486875D01*
X157317186Y-147167367D01*
X157317186Y-146675816D02*
X157317186Y-146970747D01*
X157317186Y-146823282D02*
X156801058Y-146823282D01*
X156874791Y-146872437D01*
X156923946Y-146921592D01*
X156948523Y-146970747D01*
%TO.C,C9*%
X152622982Y-129079781D02*
X152598405Y-129104358D01*
X152524672Y-129128936D01*
X152475517Y-129128936D01*
X152401784Y-129104358D01*
X152352629Y-129055203D01*
X152328052Y-129006048D01*
X152303474Y-128907738D01*
X152303474Y-128834006D01*
X152328052Y-128735696D01*
X152352629Y-128686541D01*
X152401784Y-128637386D01*
X152475517Y-128612808D01*
X152524672Y-128612808D01*
X152598405Y-128637386D01*
X152622982Y-128661963D01*
X152868757Y-129128936D02*
X152967067Y-129128936D01*
X153016223Y-129104358D01*
X153040800Y-129079781D01*
X153089955Y-129006048D01*
X153114533Y-128907738D01*
X153114533Y-128711118D01*
X153089955Y-128661963D01*
X153065378Y-128637386D01*
X153016223Y-128612808D01*
X152917912Y-128612808D01*
X152868757Y-128637386D01*
X152844180Y-128661963D01*
X152819602Y-128711118D01*
X152819602Y-128834006D01*
X152844180Y-128883161D01*
X152868757Y-128907738D01*
X152917912Y-128932316D01*
X153016223Y-128932316D01*
X153065378Y-128907738D01*
X153089955Y-128883161D01*
X153114533Y-128834006D01*
%TO.C,R15*%
X142004574Y-126112736D02*
X141832532Y-125866961D01*
X141709644Y-126112736D02*
X141709644Y-125596608D01*
X141906264Y-125596608D01*
X141955419Y-125621186D01*
X141979997Y-125645763D01*
X142004574Y-125694918D01*
X142004574Y-125768651D01*
X141979997Y-125817806D01*
X141955419Y-125842383D01*
X141906264Y-125866961D01*
X141709644Y-125866961D01*
X142496125Y-126112736D02*
X142201194Y-126112736D01*
X142348660Y-126112736D02*
X142348660Y-125596608D01*
X142299504Y-125670341D01*
X142250349Y-125719496D01*
X142201194Y-125744073D01*
X142963098Y-125596608D02*
X142717322Y-125596608D01*
X142692745Y-125842383D01*
X142717322Y-125817806D01*
X142766477Y-125793228D01*
X142889365Y-125793228D01*
X142938520Y-125817806D01*
X142963098Y-125842383D01*
X142987675Y-125891538D01*
X142987675Y-126014426D01*
X142963098Y-126063581D01*
X142938520Y-126088158D01*
X142889365Y-126112736D01*
X142766477Y-126112736D01*
X142717322Y-126088158D01*
X142692745Y-126063581D01*
%TO.C,R14*%
X145305232Y-125477736D02*
X145133189Y-125231961D01*
X145010301Y-125477736D02*
X145010301Y-124961608D01*
X145206922Y-124961608D01*
X145256077Y-124986186D01*
X145280654Y-125010763D01*
X145305232Y-125059918D01*
X145305232Y-125133651D01*
X145280654Y-125182806D01*
X145256077Y-125207383D01*
X145206922Y-125231961D01*
X145010301Y-125231961D01*
X145796782Y-125477736D02*
X145501852Y-125477736D01*
X145649317Y-125477736D02*
X145649317Y-124961608D01*
X145600162Y-125035341D01*
X145551007Y-125084496D01*
X145501852Y-125109073D01*
X146239178Y-125133651D02*
X146239178Y-125477736D01*
X146116290Y-124937030D02*
X145993402Y-125305693D01*
X146312910Y-125305693D01*
D16*
%TO.C,IC3*%
X154201490Y-99146708D02*
X154201490Y-98302158D01*
X155086257Y-99066275D02*
X155046040Y-99106491D01*
X154925390Y-99146708D01*
X154844957Y-99146708D01*
X154724307Y-99106491D01*
X154643874Y-99026058D01*
X154603657Y-98945625D01*
X154563440Y-98784758D01*
X154563440Y-98664108D01*
X154603657Y-98503241D01*
X154643874Y-98422808D01*
X154724307Y-98342375D01*
X154844957Y-98302158D01*
X154925390Y-98302158D01*
X155046040Y-98342375D01*
X155086257Y-98382591D01*
X155367774Y-98302158D02*
X155890590Y-98302158D01*
X155609074Y-98623891D01*
X155729724Y-98623891D01*
X155810157Y-98664108D01*
X155850374Y-98704325D01*
X155890590Y-98784758D01*
X155890590Y-98985841D01*
X155850374Y-99066275D01*
X155810157Y-99106491D01*
X155729724Y-99146708D01*
X155488424Y-99146708D01*
X155407990Y-99106491D01*
X155367774Y-99066275D01*
%TO.C,IC5*%
X154645990Y-134039908D02*
X154645990Y-133195358D01*
X155530757Y-133959475D02*
X155490540Y-133999691D01*
X155369890Y-134039908D01*
X155289457Y-134039908D01*
X155168807Y-133999691D01*
X155088374Y-133919258D01*
X155048157Y-133838825D01*
X155007940Y-133677958D01*
X155007940Y-133557308D01*
X155048157Y-133396441D01*
X155088374Y-133316008D01*
X155168807Y-133235575D01*
X155289457Y-133195358D01*
X155369890Y-133195358D01*
X155490540Y-133235575D01*
X155530757Y-133275791D01*
X156294874Y-133195358D02*
X155892707Y-133195358D01*
X155852490Y-133597525D01*
X155892707Y-133557308D01*
X155973140Y-133517091D01*
X156174224Y-133517091D01*
X156254657Y-133557308D01*
X156294874Y-133597525D01*
X156335090Y-133677958D01*
X156335090Y-133879041D01*
X156294874Y-133959475D01*
X156254657Y-133999691D01*
X156174224Y-134039908D01*
X155973140Y-134039908D01*
X155892707Y-133999691D01*
X155852490Y-133959475D01*
D10*
%TO.C,C8*%
X149942174Y-124317381D02*
X149917597Y-124341958D01*
X149843864Y-124366536D01*
X149794709Y-124366536D01*
X149720976Y-124341958D01*
X149671821Y-124292803D01*
X149647244Y-124243648D01*
X149622666Y-124145338D01*
X149622666Y-124071606D01*
X149647244Y-123973296D01*
X149671821Y-123924141D01*
X149720976Y-123874986D01*
X149794709Y-123850408D01*
X149843864Y-123850408D01*
X149917597Y-123874986D01*
X149942174Y-123899563D01*
X150237104Y-124071606D02*
X150187949Y-124047028D01*
X150163372Y-124022451D01*
X150138794Y-123973296D01*
X150138794Y-123948718D01*
X150163372Y-123899563D01*
X150187949Y-123874986D01*
X150237104Y-123850408D01*
X150335415Y-123850408D01*
X150384570Y-123874986D01*
X150409147Y-123899563D01*
X150433725Y-123948718D01*
X150433725Y-123973296D01*
X150409147Y-124022451D01*
X150384570Y-124047028D01*
X150335415Y-124071606D01*
X150237104Y-124071606D01*
X150187949Y-124096183D01*
X150163372Y-124120761D01*
X150138794Y-124169916D01*
X150138794Y-124268226D01*
X150163372Y-124317381D01*
X150187949Y-124341958D01*
X150237104Y-124366536D01*
X150335415Y-124366536D01*
X150384570Y-124341958D01*
X150409147Y-124317381D01*
X150433725Y-124268226D01*
X150433725Y-124169916D01*
X150409147Y-124120761D01*
X150384570Y-124096183D01*
X150335415Y-124071606D01*
%TO.C,C10*%
X144250431Y-131783917D02*
X144275008Y-131808495D01*
X144299586Y-131882227D01*
X144299586Y-131931382D01*
X144275008Y-132005115D01*
X144225853Y-132054270D01*
X144176698Y-132078848D01*
X144078388Y-132103425D01*
X144004656Y-132103425D01*
X143906346Y-132078848D01*
X143857191Y-132054270D01*
X143808036Y-132005115D01*
X143783458Y-131931382D01*
X143783458Y-131882227D01*
X143808036Y-131808495D01*
X143832613Y-131783917D01*
X144299586Y-131292367D02*
X144299586Y-131587297D01*
X144299586Y-131439832D02*
X143783458Y-131439832D01*
X143857191Y-131488987D01*
X143906346Y-131538142D01*
X143930923Y-131587297D01*
X143783458Y-130972859D02*
X143783458Y-130923704D01*
X143808036Y-130874549D01*
X143832613Y-130849971D01*
X143881768Y-130825394D01*
X143980078Y-130800816D01*
X144102966Y-130800816D01*
X144201276Y-130825394D01*
X144250431Y-130849971D01*
X144275008Y-130874549D01*
X144299586Y-130923704D01*
X144299586Y-130972859D01*
X144275008Y-131022014D01*
X144250431Y-131046592D01*
X144201276Y-131071169D01*
X144102966Y-131095747D01*
X143980078Y-131095747D01*
X143881768Y-131071169D01*
X143832613Y-131046592D01*
X143808036Y-131022014D01*
X143783458Y-130972859D01*
%TO.C,J1*%
X140040314Y-75783860D02*
X140040314Y-76624238D01*
X139984289Y-76792313D01*
X139872239Y-76904363D01*
X139704163Y-76960388D01*
X139592113Y-76960388D01*
X141216842Y-76960388D02*
X140544540Y-76960388D01*
X140880691Y-76960388D02*
X140880691Y-75783860D01*
X140768641Y-75951936D01*
X140656591Y-76063986D01*
X140544540Y-76120011D01*
%TO.C,J4*%
X156232914Y-88483760D02*
X156232914Y-89324138D01*
X156176889Y-89492213D01*
X156064839Y-89604263D01*
X155896763Y-89660288D01*
X155784713Y-89660288D01*
X157297392Y-88875936D02*
X157297392Y-89660288D01*
X157017266Y-88427735D02*
X156737140Y-89268112D01*
X157465467Y-89268112D01*
%TO.C,J2*%
X150518014Y-75783760D02*
X150518014Y-76624138D01*
X150461989Y-76792213D01*
X150349939Y-76904263D01*
X150181863Y-76960288D01*
X150069813Y-76960288D01*
X151022240Y-75895811D02*
X151078266Y-75839786D01*
X151190316Y-75783760D01*
X151470442Y-75783760D01*
X151582492Y-75839786D01*
X151638517Y-75895811D01*
X151694542Y-76007861D01*
X151694542Y-76119911D01*
X151638517Y-76287987D01*
X150966215Y-76960288D01*
X151694542Y-76960288D01*
%TO.C,J3*%
X140199114Y-88483760D02*
X140199114Y-89324138D01*
X140143089Y-89492213D01*
X140031039Y-89604263D01*
X139862963Y-89660288D01*
X139750913Y-89660288D01*
X140647315Y-88483760D02*
X141375642Y-88483760D01*
X140983466Y-88931962D01*
X141151542Y-88931962D01*
X141263592Y-88987987D01*
X141319617Y-89044012D01*
X141375642Y-89156062D01*
X141375642Y-89436188D01*
X141319617Y-89548238D01*
X141263592Y-89604263D01*
X141151542Y-89660288D01*
X140815391Y-89660288D01*
X140703340Y-89604263D01*
X140647315Y-89548238D01*
%TO.C,J8*%
X156232814Y-122773760D02*
X156232814Y-123614138D01*
X156176789Y-123782213D01*
X156064739Y-123894263D01*
X155896663Y-123950288D01*
X155784613Y-123950288D01*
X156961141Y-123277987D02*
X156849091Y-123221962D01*
X156793066Y-123165936D01*
X156737040Y-123053886D01*
X156737040Y-122997861D01*
X156793066Y-122885811D01*
X156849091Y-122829786D01*
X156961141Y-122773760D01*
X157185242Y-122773760D01*
X157297292Y-122829786D01*
X157353317Y-122885811D01*
X157409342Y-122997861D01*
X157409342Y-123053886D01*
X157353317Y-123165936D01*
X157297292Y-123221962D01*
X157185242Y-123277987D01*
X156961141Y-123277987D01*
X156849091Y-123334012D01*
X156793066Y-123390037D01*
X156737040Y-123502087D01*
X156737040Y-123726188D01*
X156793066Y-123838238D01*
X156849091Y-123894263D01*
X156961141Y-123950288D01*
X157185242Y-123950288D01*
X157297292Y-123894263D01*
X157353317Y-123838238D01*
X157409342Y-123726188D01*
X157409342Y-123502087D01*
X157353317Y-123390037D01*
X157297292Y-123334012D01*
X157185242Y-123277987D01*
%TO.C,J7*%
X140199114Y-122773760D02*
X140199114Y-123614138D01*
X140143089Y-123782213D01*
X140031039Y-123894263D01*
X139862963Y-123950288D01*
X139750913Y-123950288D01*
X140647315Y-122773760D02*
X141431667Y-122773760D01*
X140927441Y-123950288D01*
%TO.C,J5*%
X140040214Y-110073760D02*
X140040214Y-110914138D01*
X139984189Y-111082213D01*
X139872139Y-111194263D01*
X139704063Y-111250288D01*
X139592013Y-111250288D01*
X141160717Y-110073760D02*
X140600466Y-110073760D01*
X140544440Y-110634012D01*
X140600466Y-110577987D01*
X140712516Y-110521962D01*
X140992642Y-110521962D01*
X141104692Y-110577987D01*
X141160717Y-110634012D01*
X141216742Y-110746062D01*
X141216742Y-111026188D01*
X141160717Y-111138238D01*
X141104692Y-111194263D01*
X140992642Y-111250288D01*
X140712516Y-111250288D01*
X140600466Y-111194263D01*
X140544440Y-111138238D01*
%TO.C,J6*%
X150676514Y-110073760D02*
X150676514Y-110914138D01*
X150620489Y-111082213D01*
X150508439Y-111194263D01*
X150340363Y-111250288D01*
X150228313Y-111250288D01*
X151740992Y-110073760D02*
X151516891Y-110073760D01*
X151404841Y-110129786D01*
X151348816Y-110185811D01*
X151236766Y-110353886D01*
X151180740Y-110577987D01*
X151180740Y-111026188D01*
X151236766Y-111138238D01*
X151292791Y-111194263D01*
X151404841Y-111250288D01*
X151628942Y-111250288D01*
X151740992Y-111194263D01*
X151797017Y-111138238D01*
X151853042Y-111026188D01*
X151853042Y-110746062D01*
X151797017Y-110634012D01*
X151740992Y-110577987D01*
X151628942Y-110521962D01*
X151404841Y-110521962D01*
X151292791Y-110577987D01*
X151236766Y-110634012D01*
X151180740Y-110746062D01*
%TO.C,J12*%
X149371333Y-147381160D02*
X149371333Y-148221538D01*
X149315308Y-148389613D01*
X149203257Y-148501663D01*
X149035182Y-148557688D01*
X148923132Y-148557688D01*
X150547861Y-148557688D02*
X149875559Y-148557688D01*
X150211710Y-148557688D02*
X150211710Y-147381160D01*
X150099660Y-147549236D01*
X149987609Y-147661286D01*
X149875559Y-147717311D01*
X150996062Y-147493211D02*
X151052087Y-147437186D01*
X151164137Y-147381160D01*
X151444263Y-147381160D01*
X151556313Y-147437186D01*
X151612339Y-147493211D01*
X151668364Y-147605261D01*
X151668364Y-147717311D01*
X151612339Y-147885387D01*
X150940037Y-148557688D01*
X151668364Y-148557688D01*
%TO.C,J9*%
X140004933Y-134681160D02*
X140004933Y-135521538D01*
X139948908Y-135689613D01*
X139836857Y-135801663D01*
X139668782Y-135857688D01*
X139556732Y-135857688D01*
X140621209Y-135857688D02*
X140845310Y-135857688D01*
X140957360Y-135801663D01*
X141013385Y-135745638D01*
X141125436Y-135577563D01*
X141181461Y-135353462D01*
X141181461Y-134905261D01*
X141125436Y-134793211D01*
X141069411Y-134737186D01*
X140957360Y-134681160D01*
X140733260Y-134681160D01*
X140621209Y-134737186D01*
X140565184Y-134793211D01*
X140509159Y-134905261D01*
X140509159Y-135185387D01*
X140565184Y-135297437D01*
X140621209Y-135353462D01*
X140733260Y-135409487D01*
X140957360Y-135409487D01*
X141069411Y-135353462D01*
X141125436Y-135297437D01*
X141181461Y-135185387D01*
%TO.C,J10*%
X149530133Y-134681160D02*
X149530133Y-135521538D01*
X149474108Y-135689613D01*
X149362057Y-135801663D01*
X149193982Y-135857688D01*
X149081932Y-135857688D01*
X150706661Y-135857688D02*
X150034359Y-135857688D01*
X150370510Y-135857688D02*
X150370510Y-134681160D01*
X150258460Y-134849236D01*
X150146409Y-134961286D01*
X150034359Y-135017311D01*
X151434988Y-134681160D02*
X151547038Y-134681160D01*
X151659088Y-134737186D01*
X151715113Y-134793211D01*
X151771139Y-134905261D01*
X151827164Y-135129362D01*
X151827164Y-135409487D01*
X151771139Y-135633588D01*
X151715113Y-135745638D01*
X151659088Y-135801663D01*
X151547038Y-135857688D01*
X151434988Y-135857688D01*
X151322937Y-135801663D01*
X151266912Y-135745638D01*
X151210887Y-135633588D01*
X151154862Y-135409487D01*
X151154862Y-135129362D01*
X151210887Y-134905261D01*
X151266912Y-134793211D01*
X151322937Y-134737186D01*
X151434988Y-134681160D01*
%TO.C,J11*%
X140005033Y-147460660D02*
X140005033Y-148301038D01*
X139949008Y-148469113D01*
X139836957Y-148581163D01*
X139668882Y-148637188D01*
X139556832Y-148637188D01*
X141181561Y-148637188D02*
X140509259Y-148637188D01*
X140845410Y-148637188D02*
X140845410Y-147460660D01*
X140733360Y-147628736D01*
X140621309Y-147740786D01*
X140509259Y-147796811D01*
X142302064Y-148637188D02*
X141629762Y-148637188D01*
X141965913Y-148637188D02*
X141965913Y-147460660D01*
X141853863Y-147628736D01*
X141741812Y-147740786D01*
X141629762Y-147796811D01*
D17*
%TO.C,C1*%
X141831100Y-58556750D02*
X142481100Y-58556750D01*
X141831100Y-60956750D02*
X141831100Y-58556750D01*
X142531100Y-61656750D02*
X141831100Y-60956750D01*
X145031100Y-60956750D02*
X144331100Y-61656750D01*
X145031100Y-58556750D02*
X145031100Y-60956750D01*
X144381100Y-58556750D02*
X145031100Y-58556750D01*
X142481100Y-59056750D02*
G75*
G03*
X142531100Y-61306749I950000J-1104444D01*
G01*
X144381100Y-61256750D02*
G75*
G03*
X144381100Y-59056750I-950000J1100000D01*
G01*
%TO.C,C2*%
X152626100Y-58556750D02*
X153276100Y-58556750D01*
X152626100Y-60956750D02*
X152626100Y-58556750D01*
X153326100Y-61656750D02*
X152626100Y-60956750D01*
X155826100Y-60956750D02*
X155126100Y-61656750D01*
X155826100Y-58556750D02*
X155826100Y-60956750D01*
X155176100Y-58556750D02*
X155826100Y-58556750D01*
X153276100Y-59056750D02*
G75*
G03*
X153326100Y-61306749I950000J-1104444D01*
G01*
X155176100Y-61256750D02*
G75*
G03*
X155176100Y-59056750I-950000J1100000D01*
G01*
D18*
%TO.C,LED1*%
X150275400Y-62323550D02*
G75*
G03*
X148511100Y-61299750I-1764244J-1008200D01*
G01*
X148511100Y-61299750D02*
G75*
G03*
X146959900Y-62019150I-37J-2032000D01*
G01*
X148511100Y-65363750D02*
G75*
G03*
X150304000Y-64287950I-60J2032000D01*
G01*
X146950100Y-64632650D02*
G75*
G03*
X148511100Y-65363750I1560988J1300900D01*
G01*
D19*
X149714100Y-62396150D02*
G75*
G03*
X148511100Y-61807750I-1203008J-935600D01*
G01*
X148511100Y-61807750D02*
G75*
G03*
X147308100Y-62396150I8J-1524000D01*
G01*
X148511100Y-64855750D02*
G75*
G03*
X149730300Y-64246150I0J1524000D01*
G01*
X147271000Y-64217551D02*
G75*
G03*
X148511100Y-64855750I1240134J885801D01*
G01*
D18*
%TO.C,LED2*%
X150275400Y-96613550D02*
G75*
G03*
X148511100Y-95589750I-1764244J-1008200D01*
G01*
X148511100Y-95589750D02*
G75*
G03*
X146959900Y-96309150I-37J-2032000D01*
G01*
X148511100Y-99653750D02*
G75*
G03*
X150304000Y-98577950I-60J2032000D01*
G01*
X146950100Y-98922650D02*
G75*
G03*
X148511100Y-99653750I1560988J1300900D01*
G01*
D19*
X149714100Y-96686150D02*
G75*
G03*
X148511100Y-96097750I-1203008J-935600D01*
G01*
X148511100Y-96097750D02*
G75*
G03*
X147308100Y-96686150I8J-1524000D01*
G01*
X148511100Y-99145750D02*
G75*
G03*
X149730300Y-98536150I0J1524000D01*
G01*
X147271000Y-98507551D02*
G75*
G03*
X148511100Y-99145750I1240134J885801D01*
G01*
%TO.C,IC1*%
X147749100Y-58213650D02*
G75*
G03*
X147749100Y-58213650I-457200J0D01*
G01*
D20*
X146656900Y-57553250D02*
X150365300Y-57553250D01*
X150365300Y-62125250D02*
X150365300Y-57553250D01*
X150365300Y-62125250D02*
X146656900Y-62125250D01*
X146656900Y-57553250D02*
X146656900Y-62125250D01*
D19*
X146428300Y-57324650D02*
X150593900Y-57324650D01*
X150593900Y-62353850D02*
X150593900Y-57324650D01*
X150593900Y-62353850D02*
X146428300Y-62353850D01*
X146428300Y-57324650D02*
X146428300Y-62353850D01*
%TO.C,IC2*%
D21*
X147683600Y-91891750D02*
G75*
G03*
X147683600Y-91891750I-162500J0D01*
G01*
D22*
X146996100Y-91141750D02*
X146996100Y-93941750D01*
X151296100Y-91141750D02*
X146996100Y-91141750D01*
X151296100Y-93941750D02*
X151296100Y-91141750D01*
X146996100Y-93941750D02*
X151296100Y-93941750D01*
%TO.C,IC4*%
D21*
X146731100Y-127134250D02*
G75*
G03*
X146731100Y-127134250I-162500J0D01*
G01*
D22*
X146043600Y-126384250D02*
X146043600Y-129184250D01*
X150343600Y-126384250D02*
X146043600Y-126384250D01*
X150343600Y-129184250D02*
X150343600Y-126384250D01*
X146043600Y-129184250D02*
X150343600Y-129184250D01*
D18*
%TO.C,LED3*%
X150275400Y-130903550D02*
G75*
G03*
X148511100Y-129879750I-1764244J-1008200D01*
G01*
X148511100Y-129879750D02*
G75*
G03*
X146959900Y-130599150I-37J-2032000D01*
G01*
X148511100Y-133943750D02*
G75*
G03*
X150304000Y-132867950I-60J2032000D01*
G01*
X146950100Y-133212650D02*
G75*
G03*
X148511100Y-133943750I1560988J1300900D01*
G01*
D19*
X149714100Y-130976150D02*
G75*
G03*
X148511100Y-130387750I-1203008J-935600D01*
G01*
X148511100Y-130387750D02*
G75*
G03*
X147308100Y-130976150I8J-1524000D01*
G01*
X148511100Y-133435750D02*
G75*
G03*
X149730300Y-132826150I0J1524000D01*
G01*
X147271000Y-132797551D02*
G75*
G03*
X148511100Y-133435750I1240134J885801D01*
G01*
%TO.C,IC3*%
X156405100Y-95957150D02*
X156405100Y-97382150D01*
X153317100Y-97382150D02*
X153317100Y-95957150D01*
%TO.C,IC5*%
X156722600Y-130882250D02*
X156722600Y-132307250D01*
X153634600Y-132307250D02*
X153634600Y-130882250D01*
D23*
%TO.C,J1*%
X139332200Y-65592350D02*
X148323800Y-65592350D01*
X139332200Y-76082550D02*
X139332200Y-65592350D01*
X148323800Y-76082550D02*
X139332200Y-76082550D01*
X148323800Y-65592350D02*
X148323800Y-76082550D01*
%TO.C,J4*%
X148698500Y-78292350D02*
X157690100Y-78292350D01*
X148698500Y-88782550D02*
X148698500Y-78292350D01*
X157690100Y-88782550D02*
X148698500Y-88782550D01*
X157690100Y-78292350D02*
X157690100Y-88782550D01*
%TO.C,J2*%
X148698500Y-65592350D02*
X157690100Y-65592350D01*
X148698500Y-76082550D02*
X148698500Y-65592350D01*
X157690100Y-76082550D02*
X148698500Y-76082550D01*
X157690100Y-65592350D02*
X157690100Y-76082550D01*
%TO.C,J3*%
X139332200Y-78292350D02*
X148323800Y-78292350D01*
X139332200Y-88782550D02*
X139332200Y-78292350D01*
X148323800Y-88782550D02*
X139332200Y-88782550D01*
X148323800Y-78292350D02*
X148323800Y-88782550D01*
%TO.C,J8*%
X148698400Y-112582350D02*
X157690000Y-112582350D01*
X148698400Y-123072550D02*
X148698400Y-112582350D01*
X157690000Y-123072550D02*
X148698400Y-123072550D01*
X157690000Y-112582350D02*
X157690000Y-123072550D01*
%TO.C,J7*%
X139332200Y-112582350D02*
X148323800Y-112582350D01*
X139332200Y-123072550D02*
X139332200Y-112582350D01*
X148323800Y-123072550D02*
X139332200Y-123072550D01*
X148323800Y-112582350D02*
X148323800Y-123072550D01*
%TO.C,J5*%
X139332100Y-99882350D02*
X148323700Y-99882350D01*
X139332100Y-110372550D02*
X139332100Y-99882350D01*
X148323700Y-110372550D02*
X139332100Y-110372550D01*
X148323700Y-99882350D02*
X148323700Y-110372550D01*
%TO.C,J6*%
X148698300Y-99882350D02*
X157689900Y-99882350D01*
X148698300Y-110372550D02*
X148698300Y-99882350D01*
X157689900Y-110372550D02*
X148698300Y-110372550D01*
X157689900Y-99882350D02*
X157689900Y-110372550D01*
%TO.C,J12*%
X157690100Y-158861150D02*
X148698500Y-158861150D01*
X157690100Y-148370950D02*
X157690100Y-158861150D01*
X148698500Y-148370950D02*
X157690100Y-148370950D01*
X148698500Y-158861150D02*
X148698500Y-148370950D01*
%TO.C,J9*%
X148323700Y-146161150D02*
X139332100Y-146161150D01*
X148323700Y-135670950D02*
X148323700Y-146161150D01*
X139332100Y-135670950D02*
X148323700Y-135670950D01*
X139332100Y-146161150D02*
X139332100Y-135670950D01*
%TO.C,J10*%
X157690100Y-146161150D02*
X148698500Y-146161150D01*
X157690100Y-135670950D02*
X157690100Y-146161150D01*
X148698500Y-135670950D02*
X157690100Y-135670950D01*
X148698500Y-146161150D02*
X148698500Y-135670950D01*
%TO.C,J11*%
X148323800Y-158940550D02*
X139332200Y-158940550D01*
X148323800Y-148450350D02*
X148323800Y-158940550D01*
X139332200Y-148450350D02*
X148323800Y-148450350D01*
X139332200Y-158940550D02*
X139332200Y-148450350D01*
%TD*%
%LPC*%
D24*
%TO.C,JP1*%
X153591100Y-55552950D03*
X153591100Y-53012950D03*
X151051100Y-55552950D03*
X151051100Y-53012950D03*
X148511100Y-55552950D03*
X148511100Y-53012950D03*
X145971100Y-55552950D03*
X145971100Y-53012950D03*
X143431100Y-55552950D03*
X143431100Y-53012950D03*
%TD*%
D25*
%TO.C,R5*%
X154804900Y-77301750D03*
X156504900Y-77301750D03*
%TD*%
D26*
%TO.C,C1*%
X143431100Y-61456750D03*
X143431100Y-58856750D03*
%TD*%
%TO.C,C2*%
X154226100Y-61456750D03*
X154226100Y-58856750D03*
%TD*%
D27*
%TO.C,C4*%
X156766100Y-58989250D03*
X156766100Y-60689250D03*
%TD*%
%TO.C,C3*%
X140891100Y-59624250D03*
X140891100Y-61324250D03*
%TD*%
D28*
%TO.C,D2*%
X156448600Y-56500450D03*
X156448600Y-52700450D03*
%TD*%
D29*
%TO.C,D1*%
X140573600Y-52700450D03*
X140573600Y-56500450D03*
%TD*%
D30*
%TO.C,LED1*%
X147241100Y-63331750D03*
X149781100Y-63331750D03*
%TD*%
%TO.C,LED2*%
X147241100Y-97621750D03*
X149781100Y-97621750D03*
%TD*%
D31*
%TO.C,IC1*%
X151228900Y-61744250D03*
X151228900Y-61109250D03*
X151228900Y-60474250D03*
X151228900Y-59839250D03*
X151228900Y-59204250D03*
X151228900Y-58569250D03*
X151228900Y-57934250D03*
X145793300Y-61744250D03*
X145793300Y-61109250D03*
X145793300Y-60474250D03*
X145793300Y-59839250D03*
X145793300Y-59204250D03*
X145793300Y-58569250D03*
X145793300Y-57934250D03*
%TD*%
D32*
%TO.C,R2*%
X151368600Y-64499250D03*
X151368600Y-62799250D03*
%TD*%
D25*
%TO.C,R4*%
X146073600Y-77301750D03*
X147773600Y-77301750D03*
%TD*%
D33*
%TO.C,R3*%
X145812400Y-63116750D03*
X145812400Y-64816750D03*
%TD*%
D34*
%TO.C,R1*%
X143646100Y-64760550D03*
X141946100Y-64760550D03*
%TD*%
D35*
%TO.C,IC2*%
X152071100Y-91566750D03*
X152071100Y-92216750D03*
X152071100Y-92866750D03*
X152071100Y-93516750D03*
X146221100Y-93516750D03*
X146221100Y-92866750D03*
X146221100Y-92216750D03*
X146221100Y-91566750D03*
%TD*%
D33*
%TO.C,R9*%
X144701100Y-93914250D03*
X144701100Y-95614250D03*
%TD*%
%TO.C,R8*%
X143272400Y-93914250D03*
X143272400Y-95614250D03*
%TD*%
%TO.C,R7*%
X154861100Y-91691750D03*
X154861100Y-93391750D03*
%TD*%
D25*
%TO.C,R12*%
X146073600Y-111591750D03*
X147773600Y-111591750D03*
%TD*%
D32*
%TO.C,R11*%
X152003600Y-99106650D03*
X152003600Y-97406650D03*
%TD*%
D34*
%TO.C,R13*%
X156504800Y-111591750D03*
X154804800Y-111591750D03*
%TD*%
D35*
%TO.C,IC4*%
X151118600Y-126809250D03*
X151118600Y-127459250D03*
X151118600Y-128109250D03*
X151118600Y-128759250D03*
X145268600Y-128759250D03*
X145268600Y-128109250D03*
X145268600Y-127459250D03*
X145268600Y-126809250D03*
%TD*%
D36*
%TO.C,C5*%
X146708600Y-90319250D03*
X148408600Y-90319250D03*
%TD*%
%TO.C,C7*%
X146073600Y-94764250D03*
X147773600Y-94764250D03*
%TD*%
D27*
%TO.C,C6*%
X153432400Y-91691750D03*
X153432400Y-93391750D03*
%TD*%
D25*
%TO.C,R6*%
X143216100Y-92541750D03*
X144916100Y-92541750D03*
%TD*%
D34*
%TO.C,R10*%
X150948600Y-94764250D03*
X149248600Y-94764250D03*
%TD*%
D30*
%TO.C,LED3*%
X147241100Y-131911750D03*
X149781100Y-131911750D03*
%TD*%
D33*
%TO.C,R17*%
X141843600Y-128045450D03*
X141843600Y-129745450D03*
%TD*%
%TO.C,R20*%
X142796100Y-131061750D03*
X142796100Y-132761750D03*
%TD*%
%TO.C,R16*%
X154226100Y-126457950D03*
X154226100Y-128157950D03*
%TD*%
%TO.C,R18*%
X143748500Y-128045450D03*
X143748500Y-129745450D03*
%TD*%
D32*
%TO.C,R19*%
X152638600Y-132126750D03*
X152638600Y-130426750D03*
%TD*%
D25*
%TO.C,R21*%
X154804900Y-147151750D03*
X156504900Y-147151750D03*
%TD*%
D27*
%TO.C,C9*%
X152797400Y-126457950D03*
X152797400Y-128157950D03*
%TD*%
D25*
%TO.C,R15*%
X141946100Y-126673050D03*
X143646100Y-126673050D03*
%TD*%
D34*
%TO.C,R14*%
X148726100Y-125402950D03*
X147026100Y-125402950D03*
%TD*%
D37*
%TO.C,IC3*%
X153911100Y-95363150D03*
X154861100Y-95363150D03*
X155811100Y-95363150D03*
X153911100Y-97975150D03*
X155811100Y-97975150D03*
%TD*%
%TO.C,IC5*%
X154228600Y-130288250D03*
X155178600Y-130288250D03*
X156128600Y-130288250D03*
X154228600Y-132900250D03*
X156128600Y-132900250D03*
%TD*%
D36*
%TO.C,C8*%
X147026100Y-123974250D03*
X148726100Y-123974250D03*
%TD*%
D27*
%TO.C,C10*%
X145336100Y-130109250D03*
X145336100Y-131809250D03*
%TD*%
D38*
%TO.C,J1*%
X143828000Y-71586750D03*
D39*
X143828000Y-77301750D03*
X143828000Y-67141750D03*
X143828000Y-74761750D03*
%TD*%
D38*
%TO.C,J4*%
X153194300Y-84286750D03*
D39*
X153194300Y-90001750D03*
X153194300Y-79841750D03*
X153194300Y-87461750D03*
%TD*%
D38*
%TO.C,J2*%
X153194300Y-71586750D03*
D39*
X153194300Y-77301750D03*
X153194300Y-67141750D03*
X153194300Y-74761750D03*
%TD*%
D38*
%TO.C,J3*%
X143828000Y-84286750D03*
D39*
X143828000Y-90001750D03*
X143828000Y-79841750D03*
X143828000Y-87461750D03*
%TD*%
D38*
%TO.C,J8*%
X153194200Y-118576750D03*
D39*
X153194200Y-124291750D03*
X153194200Y-114131750D03*
X153194200Y-121751750D03*
%TD*%
D38*
%TO.C,J7*%
X143828000Y-118576750D03*
D39*
X143828000Y-124291750D03*
X143828000Y-114131750D03*
X143828000Y-121751750D03*
%TD*%
D38*
%TO.C,J5*%
X143827900Y-105876750D03*
D39*
X143827900Y-111591750D03*
X143827900Y-101431750D03*
X143827900Y-109051750D03*
%TD*%
D38*
%TO.C,J6*%
X153194100Y-105876750D03*
D39*
X153194100Y-111591750D03*
X153194100Y-101431750D03*
X153194100Y-109051750D03*
%TD*%
D38*
%TO.C,J12*%
X153194300Y-152866750D03*
D40*
X153194300Y-147151750D03*
X153194300Y-157311750D03*
X153194300Y-149691750D03*
%TD*%
D38*
%TO.C,J9*%
X143827900Y-140166750D03*
D40*
X143827900Y-134451750D03*
X143827900Y-144611750D03*
X143827900Y-136991750D03*
%TD*%
D38*
%TO.C,J10*%
X153194300Y-140166750D03*
D40*
X153194300Y-134451750D03*
X153194300Y-144611750D03*
X153194300Y-136991750D03*
%TD*%
D38*
%TO.C,J11*%
X143828000Y-152946150D03*
D40*
X143828000Y-147231150D03*
X143828000Y-157391150D03*
X143828000Y-149771150D03*
%TD*%
M02*
