%TF.GenerationSoftware,KiCad,Pcbnew,(6.0.11-0)*%
%TF.CreationDate,2023-05-02T23:36:09+02:00*%
%TF.ProjectId,links,6c696e6b-732e-46b6-9963-61645f706362,rev?*%
%TF.SameCoordinates,Original*%
%TF.FileFunction,Copper,L2,Bot*%
%TF.FilePolarity,Positive*%
%FSLAX46Y46*%
G04 Gerber Fmt 4.6, Leading zero omitted, Abs format (unit mm)*
G04 Created by KiCad (PCBNEW (6.0.11-0)) date 2023-05-02 23:36:09*
%MOMM*%
%LPD*%
G01*
G04 APERTURE LIST*
G04 Aperture macros list*
%AMOutline5P*
0 Free polygon, 5 corners , with rotation*
0 The origin of the aperture is its center*
0 number of corners: always 5*
0 $1 to $10 corner X, Y*
0 $11 Rotation angle, in degrees counterclockwise*
0 create outline with 5 corners*
4,1,5,$1,$2,$3,$4,$5,$6,$7,$8,$9,$10,$1,$2,$11*%
%AMOutline6P*
0 Free polygon, 6 corners , with rotation*
0 The origin of the aperture is its center*
0 number of corners: always 6*
0 $1 to $12 corner X, Y*
0 $13 Rotation angle, in degrees counterclockwise*
0 create outline with 6 corners*
4,1,6,$1,$2,$3,$4,$5,$6,$7,$8,$9,$10,$11,$12,$1,$2,$13*%
%AMOutline7P*
0 Free polygon, 7 corners , with rotation*
0 The origin of the aperture is its center*
0 number of corners: always 7*
0 $1 to $14 corner X, Y*
0 $15 Rotation angle, in degrees counterclockwise*
0 create outline with 7 corners*
4,1,7,$1,$2,$3,$4,$5,$6,$7,$8,$9,$10,$11,$12,$13,$14,$1,$2,$15*%
%AMOutline8P*
0 Free polygon, 8 corners , with rotation*
0 The origin of the aperture is its center*
0 number of corners: always 8*
0 $1 to $16 corner X, Y*
0 $17 Rotation angle, in degrees counterclockwise*
0 create outline with 8 corners*
4,1,8,$1,$2,$3,$4,$5,$6,$7,$8,$9,$10,$11,$12,$13,$14,$15,$16,$1,$2,$17*%
G04 Aperture macros list end*
%TA.AperFunction,ComponentPad*%
%ADD10Outline8P,-0.939800X0.389278X-0.389278X0.939800X0.389278X0.939800X0.939800X0.389278X0.939800X-0.389278X0.389278X-0.939800X-0.389278X-0.939800X-0.939800X-0.389278X-0.000000*%
%TD*%
%TA.AperFunction,ComponentPad*%
%ADD11Outline8P,-0.609600X0.252505X-0.252505X0.609600X0.252505X0.609600X0.609600X0.252505X0.609600X-0.252505X0.252505X-0.609600X-0.252505X-0.609600X-0.609600X-0.252505X180.000000*%
%TD*%
%TA.AperFunction,ComponentPad*%
%ADD12Outline8P,-0.889000X0.368236X-0.368236X0.889000X0.368236X0.889000X0.889000X0.368236X0.889000X-0.368236X0.368236X-0.889000X-0.368236X-0.889000X-0.889000X-0.368236X0.000000*%
%TD*%
%TA.AperFunction,ComponentPad*%
%ADD13Outline8P,-0.889000X0.368236X-0.368236X0.889000X0.368236X0.889000X0.889000X0.368236X0.889000X-0.368236X0.368236X-0.889000X-0.368236X-0.889000X-0.889000X-0.368236X180.000000*%
%TD*%
%TA.AperFunction,ViaPad*%
%ADD14C,1.108000*%
%TD*%
%TA.AperFunction,Conductor*%
%ADD15C,0.254000*%
%TD*%
%TA.AperFunction,Conductor*%
%ADD16C,0.406400*%
%TD*%
G04 APERTURE END LIST*
D10*
%TO.P,JP1,10*%
%TO.N,N$20*%
X153591100Y-55552950D03*
%TO.P,JP1,9*%
X153591100Y-53012950D03*
%TO.P,JP1,8*%
%TO.N,GND*%
X151051100Y-55552950D03*
%TO.P,JP1,7*%
X151051100Y-53012950D03*
%TO.P,JP1,6*%
X148511100Y-55552950D03*
%TO.P,JP1,5*%
X148511100Y-53012950D03*
%TO.P,JP1,4*%
X145971100Y-55552950D03*
%TO.P,JP1,3*%
X145971100Y-53012950D03*
%TO.P,JP1,2*%
%TO.N,N$6*%
X143431100Y-55552950D03*
%TO.P,JP1,1*%
X143431100Y-53012950D03*
%TD*%
D11*
%TO.P,LED1,K*%
%TO.N,N$8*%
X147241100Y-63331750D03*
%TO.P,LED1,A*%
%TO.N,N$21*%
X149781100Y-63331750D03*
%TD*%
%TO.P,LED2,K*%
%TO.N,N$14*%
X147241100Y-97621750D03*
%TO.P,LED2,A*%
%TO.N,N$29*%
X149781100Y-97621750D03*
%TD*%
%TO.P,LED3,K*%
%TO.N,N$30*%
X147241100Y-131911750D03*
%TO.P,LED3,A*%
%TO.N,N$19*%
X149781100Y-131911750D03*
%TD*%
D12*
%TO.P,J1,P1*%
%TO.N,GND*%
X143828000Y-77301750D03*
%TO.P,J1,P3*%
%TO.N,N$7*%
X143828000Y-67141750D03*
%TO.P,J1,P2*%
%TO.N,GND*%
X143828000Y-74761750D03*
%TD*%
%TO.P,J4,P1*%
%TO.N,GND*%
X153194300Y-90001750D03*
%TO.P,J4,P3*%
%TO.N,N$11*%
X153194300Y-79841750D03*
%TO.P,J4,P2*%
%TO.N,N/C*%
X153194300Y-87461750D03*
%TD*%
%TO.P,J2,P1*%
%TO.N,GND*%
X153194300Y-77301750D03*
%TO.P,J2,P3*%
%TO.N,N$12*%
X153194300Y-67141750D03*
%TO.P,J2,P2*%
%TO.N,N/C*%
X153194300Y-74761750D03*
%TD*%
%TO.P,J3,P1*%
%TO.N,GND*%
X143828000Y-90001750D03*
%TO.P,J3,P3*%
%TO.N,N$13*%
X143828000Y-79841750D03*
%TO.P,J3,P2*%
%TO.N,N/C*%
X143828000Y-87461750D03*
%TD*%
%TO.P,J8,P1*%
%TO.N,GND*%
X153194200Y-124291750D03*
%TO.P,J8,P3*%
%TO.N,N$17*%
X153194200Y-114131750D03*
%TO.P,J8,P2*%
%TO.N,N/C*%
X153194200Y-121751750D03*
%TD*%
%TO.P,J7,P1*%
%TO.N,GND*%
X143828000Y-124291750D03*
%TO.P,J7,P3*%
%TO.N,N$16*%
X143828000Y-114131750D03*
%TO.P,J7,P2*%
%TO.N,N/C*%
X143828000Y-121751750D03*
%TD*%
%TO.P,J5,P1*%
%TO.N,GND*%
X143827900Y-111591750D03*
%TO.P,J5,P3*%
%TO.N,N$15*%
X143827900Y-101431750D03*
%TO.P,J5,P2*%
%TO.N,GND*%
X143827900Y-109051750D03*
%TD*%
%TO.P,J6,P1*%
%TO.N,GND*%
X153194100Y-111591750D03*
%TO.P,J6,P3*%
%TO.N,N$10*%
X153194100Y-101431750D03*
%TO.P,J6,P2*%
%TO.N,GND*%
X153194100Y-109051750D03*
%TD*%
D13*
%TO.P,J12,P1*%
%TO.N,GND*%
X153194300Y-147151750D03*
%TO.P,J12,P3*%
%TO.N,N$23*%
X153194300Y-157311750D03*
%TO.P,J12,P2*%
%TO.N,N/C*%
X153194300Y-149691750D03*
%TD*%
%TO.P,J9,P1*%
%TO.N,GND*%
X143827900Y-134451750D03*
%TO.P,J9,P3*%
%TO.N,N$22*%
X143827900Y-144611750D03*
%TO.P,J9,P2*%
%TO.N,GND*%
X143827900Y-136991750D03*
%TD*%
%TO.P,J10,P1*%
%TO.N,GND*%
X153194300Y-134451750D03*
%TO.P,J10,P3*%
%TO.N,N$9*%
X153194300Y-144611750D03*
%TO.P,J10,P2*%
%TO.N,GND*%
X153194300Y-136991750D03*
%TD*%
%TO.P,J11,P1*%
%TO.N,GND*%
X143828000Y-147231150D03*
%TO.P,J11,P3*%
%TO.N,N$2*%
X143828000Y-157391150D03*
%TO.P,J11,P2*%
%TO.N,GND*%
X143828000Y-149771150D03*
%TD*%
D14*
%TO.N,N$5*%
X149463600Y-58569250D03*
X152638600Y-61109250D03*
%TO.N,N$3*%
X147558600Y-58569250D03*
X154384800Y-63649250D03*
%TO.N,VEE*%
X140256100Y-62696750D03*
X152321100Y-56981750D03*
X140891100Y-97621750D03*
X146606100Y-130006750D03*
X140891100Y-130959250D03*
X146288600Y-96351750D03*
%TO.N,GND*%
X156925000Y-110004250D03*
X156925000Y-113337950D03*
X156924900Y-75396750D03*
X156925000Y-78730550D03*
X155654900Y-63014250D03*
X141684900Y-58251750D03*
X156131100Y-157311750D03*
X140891100Y-157311750D03*
X149622400Y-99209250D03*
X141684900Y-66506750D03*
X148511100Y-120481750D03*
X148511100Y-130959250D03*
X146288600Y-134134250D03*
X147876100Y-127149250D03*
X146764900Y-87144250D03*
X147717400Y-93176750D03*
%TD*%
D15*
%TO.N,N$5*%
X152003600Y-61109250D02*
X149463600Y-58569250D01*
X152638600Y-61109250D02*
X152003600Y-61109250D01*
%TO.N,N$3*%
X151051100Y-62061750D02*
X147558600Y-58569250D01*
X152797300Y-62061750D02*
X151051100Y-62061750D01*
X154384800Y-63649250D02*
X152797300Y-62061750D01*
D16*
%TO.N,VEE*%
X139938600Y-62379250D02*
X139938600Y-57934250D01*
X140256100Y-62696750D02*
X139938600Y-62379250D01*
X139938600Y-57934250D02*
X140891100Y-56981750D01*
X140891100Y-56981750D02*
X152321100Y-56981750D01*
D15*
X140891100Y-97621750D02*
X142161100Y-96351750D01*
X145653600Y-130959250D02*
X146606100Y-130006750D01*
X140891100Y-130959250D02*
X145653600Y-130959250D01*
X142161100Y-96351750D02*
X146288600Y-96351750D01*
%TD*%
%TA.AperFunction,Conductor*%
%TO.N,GND*%
G36*
X157949131Y-50835163D02*
G01*
X157985676Y-50885463D01*
X157990600Y-50916550D01*
X157990600Y-159090650D01*
X157971387Y-159149781D01*
X157921087Y-159186326D01*
X157890000Y-159191250D01*
X139112200Y-159191250D01*
X139053069Y-159172037D01*
X139016524Y-159121737D01*
X139011600Y-159090650D01*
X139011600Y-157779542D01*
X142735300Y-157779542D01*
X142747257Y-157839201D01*
X142780710Y-157889172D01*
X143329980Y-158438440D01*
X143380619Y-158472170D01*
X143422733Y-158480509D01*
X143434779Y-158482894D01*
X143434781Y-158482894D01*
X143439608Y-158483850D01*
X144216392Y-158483850D01*
X144276051Y-158471893D01*
X144326022Y-158438440D01*
X144875290Y-157889170D01*
X144891682Y-157864561D01*
X144903537Y-157846763D01*
X144903537Y-157846762D01*
X144909020Y-157838531D01*
X144920700Y-157779542D01*
X144920700Y-157700142D01*
X152101600Y-157700142D01*
X152113557Y-157759801D01*
X152147010Y-157809772D01*
X152696280Y-158359040D01*
X152746919Y-158392770D01*
X152789033Y-158401109D01*
X152801079Y-158403494D01*
X152801081Y-158403494D01*
X152805908Y-158404450D01*
X153582692Y-158404450D01*
X153642351Y-158392493D01*
X153692322Y-158359040D01*
X154241590Y-157809770D01*
X154258508Y-157784371D01*
X154269837Y-157767363D01*
X154269837Y-157767362D01*
X154275320Y-157759131D01*
X154287000Y-157700142D01*
X154287000Y-156923358D01*
X154275043Y-156863699D01*
X154241590Y-156813728D01*
X153692320Y-156264460D01*
X153641681Y-156230730D01*
X153599567Y-156222391D01*
X153587521Y-156220006D01*
X153587519Y-156220006D01*
X153582692Y-156219050D01*
X152805908Y-156219050D01*
X152746249Y-156231007D01*
X152696278Y-156264460D01*
X152147010Y-156813730D01*
X152144250Y-156817874D01*
X152119202Y-156855479D01*
X152113280Y-156864369D01*
X152101600Y-156923358D01*
X152101600Y-157700142D01*
X144920700Y-157700142D01*
X144920700Y-157002758D01*
X144908743Y-156943099D01*
X144875290Y-156893128D01*
X144326020Y-156343860D01*
X144275381Y-156310130D01*
X144233267Y-156301791D01*
X144221221Y-156299406D01*
X144221219Y-156299406D01*
X144216392Y-156298450D01*
X143439608Y-156298450D01*
X143379949Y-156310407D01*
X143329978Y-156343860D01*
X142780710Y-156893130D01*
X142777950Y-156897274D01*
X142752902Y-156934879D01*
X142746980Y-156943769D01*
X142735300Y-157002758D01*
X142735300Y-157779542D01*
X139011600Y-157779542D01*
X139011600Y-152946150D01*
X142472341Y-152946150D01*
X142492937Y-153181558D01*
X142494075Y-153185803D01*
X142494075Y-153185806D01*
X142533890Y-153334399D01*
X142554097Y-153409813D01*
X142653965Y-153623979D01*
X142656480Y-153627571D01*
X142656483Y-153627576D01*
X142786986Y-153813954D01*
X142789505Y-153817551D01*
X142956599Y-153984645D01*
X142960193Y-153987162D01*
X142960196Y-153987164D01*
X143146574Y-154117667D01*
X143146579Y-154117670D01*
X143150171Y-154120185D01*
X143364337Y-154220053D01*
X143368584Y-154221191D01*
X143588344Y-154280075D01*
X143588347Y-154280075D01*
X143592592Y-154281213D01*
X143688343Y-154289590D01*
X143766848Y-154296459D01*
X143766854Y-154296459D01*
X143769034Y-154296650D01*
X143886966Y-154296650D01*
X143889146Y-154296459D01*
X143889152Y-154296459D01*
X143967657Y-154289590D01*
X144063408Y-154281213D01*
X144067653Y-154280075D01*
X144067656Y-154280075D01*
X144287416Y-154221191D01*
X144291663Y-154220053D01*
X144505829Y-154120185D01*
X144509421Y-154117670D01*
X144509426Y-154117667D01*
X144695804Y-153987164D01*
X144695807Y-153987162D01*
X144699401Y-153984645D01*
X144866495Y-153817551D01*
X145002035Y-153623980D01*
X145101903Y-153409813D01*
X145163063Y-153181558D01*
X145183659Y-152946150D01*
X145176712Y-152866750D01*
X151838641Y-152866750D01*
X151859237Y-153102158D01*
X151920397Y-153330413D01*
X152020265Y-153544579D01*
X152022780Y-153548171D01*
X152022783Y-153548176D01*
X152153286Y-153734554D01*
X152155805Y-153738151D01*
X152322899Y-153905245D01*
X152326493Y-153907762D01*
X152326496Y-153907764D01*
X152512874Y-154038267D01*
X152512879Y-154038270D01*
X152516471Y-154040785D01*
X152730637Y-154140653D01*
X152734884Y-154141791D01*
X152954644Y-154200675D01*
X152954647Y-154200675D01*
X152958892Y-154201813D01*
X153054643Y-154210190D01*
X153133148Y-154217059D01*
X153133154Y-154217059D01*
X153135334Y-154217250D01*
X153253266Y-154217250D01*
X153255446Y-154217059D01*
X153255452Y-154217059D01*
X153333957Y-154210190D01*
X153429708Y-154201813D01*
X153433953Y-154200675D01*
X153433956Y-154200675D01*
X153653716Y-154141791D01*
X153657963Y-154140653D01*
X153872129Y-154040785D01*
X153875721Y-154038270D01*
X153875726Y-154038267D01*
X154062104Y-153907764D01*
X154062107Y-153907762D01*
X154065701Y-153905245D01*
X154232795Y-153738151D01*
X154368335Y-153544580D01*
X154468203Y-153330413D01*
X154529363Y-153102158D01*
X154549959Y-152866750D01*
X154529363Y-152631342D01*
X154488412Y-152478507D01*
X154469341Y-152407334D01*
X154469340Y-152407332D01*
X154468203Y-152403087D01*
X154368335Y-152188921D01*
X154365820Y-152185329D01*
X154365817Y-152185324D01*
X154235314Y-151998946D01*
X154235312Y-151998943D01*
X154232795Y-151995349D01*
X154065701Y-151828255D01*
X154062107Y-151825738D01*
X154062104Y-151825736D01*
X153875726Y-151695233D01*
X153875721Y-151695230D01*
X153872129Y-151692715D01*
X153657963Y-151592847D01*
X153653716Y-151591709D01*
X153433956Y-151532825D01*
X153433953Y-151532825D01*
X153429708Y-151531687D01*
X153333957Y-151523310D01*
X153255452Y-151516441D01*
X153255446Y-151516441D01*
X153253266Y-151516250D01*
X153135334Y-151516250D01*
X153133154Y-151516441D01*
X153133148Y-151516441D01*
X153054643Y-151523310D01*
X152958892Y-151531687D01*
X152954647Y-151532825D01*
X152954644Y-151532825D01*
X152734884Y-151591709D01*
X152730637Y-151592847D01*
X152516471Y-151692715D01*
X152512879Y-151695230D01*
X152512874Y-151695233D01*
X152326496Y-151825736D01*
X152326493Y-151825738D01*
X152322899Y-151828255D01*
X152155805Y-151995349D01*
X152020265Y-152188920D01*
X151920397Y-152403087D01*
X151859237Y-152631342D01*
X151838641Y-152866750D01*
X145176712Y-152866750D01*
X145163063Y-152710742D01*
X145101903Y-152482487D01*
X145002035Y-152268321D01*
X144999520Y-152264729D01*
X144999517Y-152264724D01*
X144869014Y-152078346D01*
X144869012Y-152078343D01*
X144866495Y-152074749D01*
X144699401Y-151907655D01*
X144695807Y-151905138D01*
X144695804Y-151905136D01*
X144509426Y-151774633D01*
X144509421Y-151774630D01*
X144505829Y-151772115D01*
X144291663Y-151672247D01*
X144287416Y-151671109D01*
X144067656Y-151612225D01*
X144067653Y-151612225D01*
X144063408Y-151611087D01*
X143967657Y-151602710D01*
X143889152Y-151595841D01*
X143889146Y-151595841D01*
X143886966Y-151595650D01*
X143769034Y-151595650D01*
X143766854Y-151595841D01*
X143766848Y-151595841D01*
X143688343Y-151602710D01*
X143592592Y-151611087D01*
X143588347Y-151612225D01*
X143588344Y-151612225D01*
X143368584Y-151671109D01*
X143364337Y-151672247D01*
X143150171Y-151772115D01*
X143146579Y-151774630D01*
X143146574Y-151774633D01*
X142960196Y-151905136D01*
X142960193Y-151905138D01*
X142956599Y-151907655D01*
X142789505Y-152074749D01*
X142653965Y-152268320D01*
X142554097Y-152482487D01*
X142492937Y-152710742D01*
X142472341Y-152946150D01*
X139011600Y-152946150D01*
X139011600Y-150178596D01*
X142482599Y-150178596D01*
X142482977Y-150184738D01*
X142490320Y-150244275D01*
X142493771Y-150257345D01*
X142541173Y-150371503D01*
X142547984Y-150383160D01*
X142584499Y-150429812D01*
X142588525Y-150434359D01*
X143164763Y-151010596D01*
X143169379Y-151014677D01*
X143216668Y-151051583D01*
X143228349Y-151058384D01*
X143342591Y-151105588D01*
X143355648Y-151109013D01*
X143414450Y-151116181D01*
X143420524Y-151116550D01*
X143583867Y-151116550D01*
X143596757Y-151112362D01*
X143599800Y-151108173D01*
X143599800Y-151100618D01*
X144056200Y-151100618D01*
X144060388Y-151113508D01*
X144064577Y-151116551D01*
X144235446Y-151116551D01*
X144241588Y-151116173D01*
X144301125Y-151108830D01*
X144314195Y-151105379D01*
X144428353Y-151057977D01*
X144440010Y-151051166D01*
X144486662Y-151014651D01*
X144491209Y-151010625D01*
X145067446Y-150434387D01*
X145071527Y-150429771D01*
X145108433Y-150382482D01*
X145115234Y-150370801D01*
X145162438Y-150256559D01*
X145165863Y-150243502D01*
X145173031Y-150184700D01*
X145173400Y-150178626D01*
X145173400Y-150015283D01*
X145169212Y-150002393D01*
X145165023Y-149999350D01*
X144072133Y-149999350D01*
X144059243Y-150003538D01*
X144056200Y-150007727D01*
X144056200Y-151100618D01*
X143599800Y-151100618D01*
X143599800Y-150015283D01*
X143595612Y-150002393D01*
X143591423Y-149999350D01*
X142498532Y-149999350D01*
X142485642Y-150003538D01*
X142482599Y-150007727D01*
X142482599Y-150178596D01*
X139011600Y-150178596D01*
X139011600Y-147638596D01*
X142482599Y-147638596D01*
X142482977Y-147644738D01*
X142490320Y-147704275D01*
X142493771Y-147717345D01*
X142541173Y-147831503D01*
X142547984Y-147843160D01*
X142584499Y-147889812D01*
X142588525Y-147894359D01*
X143124181Y-148430015D01*
X143152407Y-148485413D01*
X143142681Y-148546821D01*
X143124181Y-148572285D01*
X142588554Y-149107913D01*
X142584473Y-149112529D01*
X142547567Y-149159818D01*
X142540766Y-149171499D01*
X142493562Y-149285741D01*
X142490137Y-149298798D01*
X142482969Y-149357600D01*
X142482600Y-149363674D01*
X142482600Y-149527017D01*
X142486788Y-149539907D01*
X142490977Y-149542950D01*
X143583867Y-149542950D01*
X143596757Y-149538762D01*
X143599800Y-149534573D01*
X143599800Y-149527017D01*
X144056200Y-149527017D01*
X144060388Y-149539907D01*
X144064577Y-149542950D01*
X145157468Y-149542950D01*
X145170358Y-149538762D01*
X145173401Y-149534573D01*
X145173401Y-149363704D01*
X145173023Y-149357562D01*
X145165680Y-149298025D01*
X145162229Y-149284955D01*
X145114827Y-149170797D01*
X145108016Y-149159140D01*
X145071501Y-149112488D01*
X145067475Y-149107941D01*
X144531819Y-148572285D01*
X144503593Y-148516887D01*
X144513319Y-148455479D01*
X144531819Y-148430015D01*
X145067446Y-147894387D01*
X145071527Y-147889771D01*
X145108433Y-147842482D01*
X145115234Y-147830801D01*
X145162438Y-147716559D01*
X145165863Y-147703502D01*
X145173031Y-147644700D01*
X145173400Y-147638626D01*
X145173400Y-147559196D01*
X151848899Y-147559196D01*
X151849277Y-147565338D01*
X151856620Y-147624875D01*
X151860071Y-147637945D01*
X151907473Y-147752103D01*
X151914284Y-147763760D01*
X151950799Y-147810412D01*
X151954825Y-147814959D01*
X152531063Y-148391196D01*
X152535679Y-148395277D01*
X152582968Y-148432183D01*
X152594649Y-148438985D01*
X152674001Y-148471772D01*
X152721314Y-148512110D01*
X152735881Y-148572554D01*
X152712138Y-148630016D01*
X152699891Y-148642042D01*
X152696278Y-148644460D01*
X152147010Y-149193730D01*
X152144250Y-149197874D01*
X152119202Y-149235479D01*
X152113280Y-149244369D01*
X152101600Y-149303358D01*
X152101600Y-150080142D01*
X152113557Y-150139801D01*
X152147010Y-150189772D01*
X152696280Y-150739040D01*
X152746919Y-150772770D01*
X152789033Y-150781109D01*
X152801079Y-150783494D01*
X152801081Y-150783494D01*
X152805908Y-150784450D01*
X153582692Y-150784450D01*
X153642351Y-150772493D01*
X153692322Y-150739040D01*
X154241590Y-150189770D01*
X154257982Y-150165161D01*
X154269837Y-150147363D01*
X154269837Y-150147362D01*
X154275320Y-150139131D01*
X154287000Y-150080142D01*
X154287000Y-149303358D01*
X154275043Y-149243699D01*
X154241590Y-149193728D01*
X153692320Y-148644460D01*
X153689085Y-148642306D01*
X153655714Y-148590258D01*
X153659329Y-148528189D01*
X153698737Y-148480099D01*
X153714457Y-148471878D01*
X153794653Y-148438578D01*
X153806310Y-148431766D01*
X153852962Y-148395251D01*
X153857509Y-148391225D01*
X154433746Y-147814987D01*
X154437827Y-147810371D01*
X154474733Y-147763082D01*
X154481534Y-147751401D01*
X154528738Y-147637159D01*
X154532163Y-147624102D01*
X154539331Y-147565300D01*
X154539700Y-147559226D01*
X154539700Y-147395883D01*
X154535512Y-147382993D01*
X154531323Y-147379950D01*
X151864832Y-147379950D01*
X151851942Y-147384138D01*
X151848899Y-147388327D01*
X151848899Y-147559196D01*
X145173400Y-147559196D01*
X145173400Y-147475283D01*
X145169212Y-147462393D01*
X145165023Y-147459350D01*
X144072133Y-147459350D01*
X144059243Y-147463538D01*
X144056200Y-147467727D01*
X144056200Y-149527017D01*
X143599800Y-149527017D01*
X143599800Y-147475283D01*
X143595612Y-147462393D01*
X143591423Y-147459350D01*
X142498532Y-147459350D01*
X142485642Y-147463538D01*
X142482599Y-147467727D01*
X142482599Y-147638596D01*
X139011600Y-147638596D01*
X139011600Y-146987017D01*
X142482600Y-146987017D01*
X142486788Y-146999907D01*
X142490977Y-147002950D01*
X145157468Y-147002950D01*
X145170358Y-146998762D01*
X145173401Y-146994573D01*
X145173401Y-146907617D01*
X151848900Y-146907617D01*
X151853088Y-146920507D01*
X151857277Y-146923550D01*
X154523768Y-146923550D01*
X154536658Y-146919362D01*
X154539701Y-146915173D01*
X154539701Y-146744304D01*
X154539323Y-146738162D01*
X154531980Y-146678625D01*
X154528529Y-146665555D01*
X154481127Y-146551397D01*
X154474316Y-146539740D01*
X154437801Y-146493088D01*
X154433775Y-146488541D01*
X153857537Y-145912304D01*
X153852921Y-145908223D01*
X153805632Y-145871317D01*
X153793951Y-145864515D01*
X153714599Y-145831728D01*
X153667286Y-145791390D01*
X153652719Y-145730946D01*
X153676462Y-145673484D01*
X153688709Y-145661458D01*
X153692322Y-145659040D01*
X154241590Y-145109770D01*
X154257982Y-145085161D01*
X154269837Y-145067363D01*
X154269837Y-145067362D01*
X154275320Y-145059131D01*
X154287000Y-145000142D01*
X154287000Y-144223358D01*
X154275043Y-144163699D01*
X154241590Y-144113728D01*
X153692320Y-143564460D01*
X153641681Y-143530730D01*
X153599567Y-143522391D01*
X153587521Y-143520006D01*
X153587519Y-143520006D01*
X153582692Y-143519050D01*
X152805908Y-143519050D01*
X152746249Y-143531007D01*
X152696278Y-143564460D01*
X152147010Y-144113730D01*
X152144250Y-144117874D01*
X152119202Y-144155479D01*
X152113280Y-144164369D01*
X152101600Y-144223358D01*
X152101600Y-145000142D01*
X152113557Y-145059801D01*
X152147010Y-145109772D01*
X152696280Y-145659040D01*
X152699515Y-145661194D01*
X152732886Y-145713242D01*
X152729271Y-145775311D01*
X152689863Y-145823401D01*
X152674143Y-145831622D01*
X152593947Y-145864922D01*
X152582290Y-145871734D01*
X152535638Y-145908249D01*
X152531091Y-145912275D01*
X151954854Y-146488513D01*
X151950773Y-146493129D01*
X151913867Y-146540418D01*
X151907066Y-146552099D01*
X151859862Y-146666341D01*
X151856437Y-146679398D01*
X151849269Y-146738200D01*
X151848900Y-146744274D01*
X151848900Y-146907617D01*
X145173401Y-146907617D01*
X145173401Y-146823704D01*
X145173023Y-146817562D01*
X145165680Y-146758025D01*
X145162229Y-146744955D01*
X145114827Y-146630797D01*
X145108016Y-146619140D01*
X145071501Y-146572488D01*
X145067475Y-146567941D01*
X144491237Y-145991704D01*
X144486621Y-145987623D01*
X144439332Y-145950717D01*
X144427651Y-145943916D01*
X144313409Y-145896712D01*
X144300352Y-145893287D01*
X144282783Y-145891145D01*
X144226411Y-145864918D01*
X144196221Y-145810565D01*
X144203745Y-145748848D01*
X144246108Y-145703340D01*
X144257498Y-145699152D01*
X144257116Y-145698233D01*
X144266250Y-145694437D01*
X144275951Y-145692493D01*
X144325922Y-145659040D01*
X144875190Y-145109770D01*
X144891582Y-145085161D01*
X144903437Y-145067363D01*
X144903437Y-145067362D01*
X144908920Y-145059131D01*
X144920600Y-145000142D01*
X144920600Y-144223358D01*
X144908643Y-144163699D01*
X144875190Y-144113728D01*
X144325920Y-143564460D01*
X144275281Y-143530730D01*
X144233167Y-143522391D01*
X144221121Y-143520006D01*
X144221119Y-143520006D01*
X144216292Y-143519050D01*
X143439508Y-143519050D01*
X143379849Y-143531007D01*
X143329878Y-143564460D01*
X142780610Y-144113730D01*
X142777850Y-144117874D01*
X142752802Y-144155479D01*
X142746880Y-144164369D01*
X142735200Y-144223358D01*
X142735200Y-145000142D01*
X142747157Y-145059801D01*
X142780610Y-145109772D01*
X143329880Y-145659040D01*
X143380519Y-145692770D01*
X143390223Y-145694691D01*
X143399184Y-145698391D01*
X143446509Y-145738715D01*
X143461093Y-145799155D01*
X143437367Y-145856624D01*
X143384392Y-145889171D01*
X143373108Y-145891221D01*
X143354876Y-145893470D01*
X143341805Y-145896921D01*
X143227647Y-145944323D01*
X143215990Y-145951134D01*
X143169338Y-145987649D01*
X143164791Y-145991675D01*
X142588554Y-146567913D01*
X142584473Y-146572529D01*
X142547567Y-146619818D01*
X142540766Y-146631499D01*
X142493562Y-146745741D01*
X142490137Y-146758798D01*
X142482969Y-146817600D01*
X142482600Y-146823674D01*
X142482600Y-146987017D01*
X139011600Y-146987017D01*
X139011600Y-140166750D01*
X142472241Y-140166750D01*
X142492837Y-140402158D01*
X142553997Y-140630413D01*
X142653865Y-140844579D01*
X142656380Y-140848171D01*
X142656383Y-140848176D01*
X142656384Y-140848177D01*
X142789405Y-141038151D01*
X142956499Y-141205245D01*
X142960093Y-141207762D01*
X142960096Y-141207764D01*
X143146474Y-141338267D01*
X143146479Y-141338270D01*
X143150071Y-141340785D01*
X143364237Y-141440653D01*
X143368484Y-141441791D01*
X143588244Y-141500675D01*
X143588247Y-141500675D01*
X143592492Y-141501813D01*
X143688243Y-141510190D01*
X143766748Y-141517059D01*
X143766754Y-141517059D01*
X143768934Y-141517250D01*
X143886866Y-141517250D01*
X143889046Y-141517059D01*
X143889052Y-141517059D01*
X143967557Y-141510190D01*
X144063308Y-141501813D01*
X144067553Y-141500675D01*
X144067556Y-141500675D01*
X144287316Y-141441791D01*
X144291563Y-141440653D01*
X144505729Y-141340785D01*
X144509321Y-141338270D01*
X144509326Y-141338267D01*
X144695704Y-141207764D01*
X144695707Y-141207762D01*
X144699301Y-141205245D01*
X144866395Y-141038151D01*
X145001935Y-140844580D01*
X145101803Y-140630413D01*
X145162963Y-140402158D01*
X145183559Y-140166750D01*
X151838641Y-140166750D01*
X151859237Y-140402158D01*
X151920397Y-140630413D01*
X152020265Y-140844579D01*
X152022780Y-140848171D01*
X152022783Y-140848176D01*
X152022784Y-140848177D01*
X152155805Y-141038151D01*
X152322899Y-141205245D01*
X152326493Y-141207762D01*
X152326496Y-141207764D01*
X152512874Y-141338267D01*
X152512879Y-141338270D01*
X152516471Y-141340785D01*
X152730637Y-141440653D01*
X152734884Y-141441791D01*
X152954644Y-141500675D01*
X152954647Y-141500675D01*
X152958892Y-141501813D01*
X153054643Y-141510190D01*
X153133148Y-141517059D01*
X153133154Y-141517059D01*
X153135334Y-141517250D01*
X153253266Y-141517250D01*
X153255446Y-141517059D01*
X153255452Y-141517059D01*
X153333957Y-141510190D01*
X153429708Y-141501813D01*
X153433953Y-141500675D01*
X153433956Y-141500675D01*
X153653716Y-141441791D01*
X153657963Y-141440653D01*
X153872129Y-141340785D01*
X153875721Y-141338270D01*
X153875726Y-141338267D01*
X154062104Y-141207764D01*
X154062107Y-141207762D01*
X154065701Y-141205245D01*
X154232795Y-141038151D01*
X154368335Y-140844580D01*
X154468203Y-140630413D01*
X154529363Y-140402158D01*
X154549959Y-140166750D01*
X154529363Y-139931342D01*
X154468203Y-139703087D01*
X154368335Y-139488921D01*
X154365820Y-139485329D01*
X154365817Y-139485324D01*
X154235314Y-139298946D01*
X154235312Y-139298943D01*
X154232795Y-139295349D01*
X154065701Y-139128255D01*
X154062107Y-139125738D01*
X154062104Y-139125736D01*
X153875726Y-138995233D01*
X153875721Y-138995230D01*
X153872129Y-138992715D01*
X153657963Y-138892847D01*
X153653716Y-138891709D01*
X153433956Y-138832825D01*
X153433953Y-138832825D01*
X153429708Y-138831687D01*
X153333957Y-138823310D01*
X153255452Y-138816441D01*
X153255446Y-138816441D01*
X153253266Y-138816250D01*
X153135334Y-138816250D01*
X153133154Y-138816441D01*
X153133148Y-138816441D01*
X153054643Y-138823310D01*
X152958892Y-138831687D01*
X152954647Y-138832825D01*
X152954644Y-138832825D01*
X152734884Y-138891709D01*
X152730637Y-138892847D01*
X152516471Y-138992715D01*
X152512879Y-138995230D01*
X152512874Y-138995233D01*
X152326496Y-139125736D01*
X152326493Y-139125738D01*
X152322899Y-139128255D01*
X152155805Y-139295349D01*
X152020265Y-139488920D01*
X151920397Y-139703087D01*
X151859237Y-139931342D01*
X151838641Y-140166750D01*
X145183559Y-140166750D01*
X145162963Y-139931342D01*
X145101803Y-139703087D01*
X145001935Y-139488921D01*
X144999420Y-139485329D01*
X144999417Y-139485324D01*
X144868914Y-139298946D01*
X144868912Y-139298943D01*
X144866395Y-139295349D01*
X144699301Y-139128255D01*
X144695707Y-139125738D01*
X144695704Y-139125736D01*
X144509326Y-138995233D01*
X144509321Y-138995230D01*
X144505729Y-138992715D01*
X144291563Y-138892847D01*
X144287316Y-138891709D01*
X144067556Y-138832825D01*
X144067553Y-138832825D01*
X144063308Y-138831687D01*
X143967557Y-138823310D01*
X143889052Y-138816441D01*
X143889046Y-138816441D01*
X143886866Y-138816250D01*
X143768934Y-138816250D01*
X143766754Y-138816441D01*
X143766748Y-138816441D01*
X143688243Y-138823310D01*
X143592492Y-138831687D01*
X143588247Y-138832825D01*
X143588244Y-138832825D01*
X143368484Y-138891709D01*
X143364237Y-138892847D01*
X143150071Y-138992715D01*
X143146479Y-138995230D01*
X143146474Y-138995233D01*
X142960096Y-139125736D01*
X142960093Y-139125738D01*
X142956499Y-139128255D01*
X142789405Y-139295349D01*
X142653865Y-139488920D01*
X142553997Y-139703087D01*
X142492837Y-139931342D01*
X142472241Y-140166750D01*
X139011600Y-140166750D01*
X139011600Y-137399196D01*
X142482499Y-137399196D01*
X142482877Y-137405338D01*
X142490220Y-137464875D01*
X142493671Y-137477945D01*
X142541073Y-137592103D01*
X142547884Y-137603760D01*
X142584399Y-137650412D01*
X142588425Y-137654959D01*
X143164663Y-138231196D01*
X143169279Y-138235277D01*
X143216568Y-138272183D01*
X143228249Y-138278984D01*
X143342491Y-138326188D01*
X143355548Y-138329613D01*
X143414350Y-138336781D01*
X143420424Y-138337150D01*
X143583767Y-138337150D01*
X143596657Y-138332962D01*
X143599700Y-138328773D01*
X143599700Y-138321218D01*
X144056100Y-138321218D01*
X144060288Y-138334108D01*
X144064477Y-138337151D01*
X144235346Y-138337151D01*
X144241488Y-138336773D01*
X144301025Y-138329430D01*
X144314095Y-138325979D01*
X144428253Y-138278577D01*
X144439910Y-138271766D01*
X144486562Y-138235251D01*
X144491109Y-138231225D01*
X145067346Y-137654987D01*
X145071427Y-137650371D01*
X145108333Y-137603082D01*
X145115134Y-137591401D01*
X145162338Y-137477159D01*
X145165763Y-137464102D01*
X145172931Y-137405300D01*
X145173300Y-137399226D01*
X145173300Y-137399196D01*
X151848899Y-137399196D01*
X151849277Y-137405338D01*
X151856620Y-137464875D01*
X151860071Y-137477945D01*
X151907473Y-137592103D01*
X151914284Y-137603760D01*
X151950799Y-137650412D01*
X151954825Y-137654959D01*
X152531063Y-138231196D01*
X152535679Y-138235277D01*
X152582968Y-138272183D01*
X152594649Y-138278984D01*
X152708891Y-138326188D01*
X152721948Y-138329613D01*
X152780750Y-138336781D01*
X152786824Y-138337150D01*
X152950167Y-138337150D01*
X152963057Y-138332962D01*
X152966100Y-138328773D01*
X152966100Y-138321218D01*
X153422500Y-138321218D01*
X153426688Y-138334108D01*
X153430877Y-138337151D01*
X153601746Y-138337151D01*
X153607888Y-138336773D01*
X153667425Y-138329430D01*
X153680495Y-138325979D01*
X153794653Y-138278577D01*
X153806310Y-138271766D01*
X153852962Y-138235251D01*
X153857509Y-138231225D01*
X154433746Y-137654987D01*
X154437827Y-137650371D01*
X154474733Y-137603082D01*
X154481534Y-137591401D01*
X154528738Y-137477159D01*
X154532163Y-137464102D01*
X154539331Y-137405300D01*
X154539700Y-137399226D01*
X154539700Y-137235883D01*
X154535512Y-137222993D01*
X154531323Y-137219950D01*
X153438433Y-137219950D01*
X153425543Y-137224138D01*
X153422500Y-137228327D01*
X153422500Y-138321218D01*
X152966100Y-138321218D01*
X152966100Y-137235883D01*
X152961912Y-137222993D01*
X152957723Y-137219950D01*
X151864832Y-137219950D01*
X151851942Y-137224138D01*
X151848899Y-137228327D01*
X151848899Y-137399196D01*
X145173300Y-137399196D01*
X145173300Y-137235883D01*
X145169112Y-137222993D01*
X145164923Y-137219950D01*
X144072033Y-137219950D01*
X144059143Y-137224138D01*
X144056100Y-137228327D01*
X144056100Y-138321218D01*
X143599700Y-138321218D01*
X143599700Y-137235883D01*
X143595512Y-137222993D01*
X143591323Y-137219950D01*
X142498432Y-137219950D01*
X142485542Y-137224138D01*
X142482499Y-137228327D01*
X142482499Y-137399196D01*
X139011600Y-137399196D01*
X139011600Y-134859196D01*
X142482499Y-134859196D01*
X142482877Y-134865338D01*
X142490220Y-134924875D01*
X142493671Y-134937945D01*
X142541073Y-135052103D01*
X142547884Y-135063760D01*
X142584399Y-135110412D01*
X142588425Y-135114959D01*
X143124081Y-135650615D01*
X143152307Y-135706013D01*
X143142581Y-135767421D01*
X143124081Y-135792885D01*
X142588454Y-136328513D01*
X142584373Y-136333129D01*
X142547467Y-136380418D01*
X142540666Y-136392099D01*
X142493462Y-136506341D01*
X142490037Y-136519398D01*
X142482869Y-136578200D01*
X142482500Y-136584274D01*
X142482500Y-136747617D01*
X142486688Y-136760507D01*
X142490877Y-136763550D01*
X143583767Y-136763550D01*
X143596657Y-136759362D01*
X143599700Y-136755173D01*
X143599700Y-136747617D01*
X144056100Y-136747617D01*
X144060288Y-136760507D01*
X144064477Y-136763550D01*
X145157368Y-136763550D01*
X145170258Y-136759362D01*
X145173301Y-136755173D01*
X145173301Y-136584304D01*
X145172923Y-136578162D01*
X145165580Y-136518625D01*
X145162129Y-136505555D01*
X145114727Y-136391397D01*
X145107916Y-136379740D01*
X145071401Y-136333088D01*
X145067375Y-136328541D01*
X144531719Y-135792885D01*
X144503493Y-135737487D01*
X144513219Y-135676079D01*
X144531719Y-135650615D01*
X145067346Y-135114987D01*
X145071427Y-135110371D01*
X145108333Y-135063082D01*
X145115134Y-135051401D01*
X145162338Y-134937159D01*
X145165763Y-134924102D01*
X145172931Y-134865300D01*
X145173300Y-134859226D01*
X145173300Y-134859196D01*
X151848899Y-134859196D01*
X151849277Y-134865338D01*
X151856620Y-134924875D01*
X151860071Y-134937945D01*
X151907473Y-135052103D01*
X151914284Y-135063760D01*
X151950799Y-135110412D01*
X151954825Y-135114959D01*
X152490481Y-135650615D01*
X152518707Y-135706013D01*
X152508981Y-135767421D01*
X152490481Y-135792885D01*
X151954854Y-136328513D01*
X151950773Y-136333129D01*
X151913867Y-136380418D01*
X151907066Y-136392099D01*
X151859862Y-136506341D01*
X151856437Y-136519398D01*
X151849269Y-136578200D01*
X151848900Y-136584274D01*
X151848900Y-136747617D01*
X151853088Y-136760507D01*
X151857277Y-136763550D01*
X152950167Y-136763550D01*
X152963057Y-136759362D01*
X152966100Y-136755173D01*
X152966100Y-136747617D01*
X153422500Y-136747617D01*
X153426688Y-136760507D01*
X153430877Y-136763550D01*
X154523768Y-136763550D01*
X154536658Y-136759362D01*
X154539701Y-136755173D01*
X154539701Y-136584304D01*
X154539323Y-136578162D01*
X154531980Y-136518625D01*
X154528529Y-136505555D01*
X154481127Y-136391397D01*
X154474316Y-136379740D01*
X154437801Y-136333088D01*
X154433775Y-136328541D01*
X153898119Y-135792885D01*
X153869893Y-135737487D01*
X153879619Y-135676079D01*
X153898119Y-135650615D01*
X154433746Y-135114987D01*
X154437827Y-135110371D01*
X154474733Y-135063082D01*
X154481534Y-135051401D01*
X154528738Y-134937159D01*
X154532163Y-134924102D01*
X154539331Y-134865300D01*
X154539700Y-134859226D01*
X154539700Y-134695883D01*
X154535512Y-134682993D01*
X154531323Y-134679950D01*
X153438433Y-134679950D01*
X153425543Y-134684138D01*
X153422500Y-134688327D01*
X153422500Y-136747617D01*
X152966100Y-136747617D01*
X152966100Y-134695883D01*
X152961912Y-134682993D01*
X152957723Y-134679950D01*
X151864832Y-134679950D01*
X151851942Y-134684138D01*
X151848899Y-134688327D01*
X151848899Y-134859196D01*
X145173300Y-134859196D01*
X145173300Y-134695883D01*
X145169112Y-134682993D01*
X145164923Y-134679950D01*
X144072033Y-134679950D01*
X144059143Y-134684138D01*
X144056100Y-134688327D01*
X144056100Y-136747617D01*
X143599700Y-136747617D01*
X143599700Y-134695883D01*
X143595512Y-134682993D01*
X143591323Y-134679950D01*
X142498432Y-134679950D01*
X142485542Y-134684138D01*
X142482499Y-134688327D01*
X142482499Y-134859196D01*
X139011600Y-134859196D01*
X139011600Y-134207617D01*
X142482500Y-134207617D01*
X142486688Y-134220507D01*
X142490877Y-134223550D01*
X143583767Y-134223550D01*
X143596657Y-134219362D01*
X143599700Y-134215173D01*
X143599700Y-134207617D01*
X144056100Y-134207617D01*
X144060288Y-134220507D01*
X144064477Y-134223550D01*
X145157368Y-134223550D01*
X145170258Y-134219362D01*
X145173301Y-134215173D01*
X145173301Y-134207617D01*
X151848900Y-134207617D01*
X151853088Y-134220507D01*
X151857277Y-134223550D01*
X152950167Y-134223550D01*
X152963057Y-134219362D01*
X152966100Y-134215173D01*
X152966100Y-134207617D01*
X153422500Y-134207617D01*
X153426688Y-134220507D01*
X153430877Y-134223550D01*
X154523768Y-134223550D01*
X154536658Y-134219362D01*
X154539701Y-134215173D01*
X154539701Y-134044304D01*
X154539323Y-134038162D01*
X154531980Y-133978625D01*
X154528529Y-133965555D01*
X154481127Y-133851397D01*
X154474316Y-133839740D01*
X154437801Y-133793088D01*
X154433775Y-133788541D01*
X153857537Y-133212304D01*
X153852921Y-133208223D01*
X153805632Y-133171317D01*
X153793951Y-133164516D01*
X153679709Y-133117312D01*
X153666652Y-133113887D01*
X153607850Y-133106719D01*
X153601776Y-133106350D01*
X153438433Y-133106350D01*
X153425543Y-133110538D01*
X153422500Y-133114727D01*
X153422500Y-134207617D01*
X152966100Y-134207617D01*
X152966100Y-133122282D01*
X152961912Y-133109392D01*
X152957723Y-133106349D01*
X152786854Y-133106349D01*
X152780712Y-133106727D01*
X152721175Y-133114070D01*
X152708105Y-133117521D01*
X152593947Y-133164923D01*
X152582290Y-133171734D01*
X152535638Y-133208249D01*
X152531091Y-133212275D01*
X151954854Y-133788513D01*
X151950773Y-133793129D01*
X151913867Y-133840418D01*
X151907066Y-133852099D01*
X151859862Y-133966341D01*
X151856437Y-133979398D01*
X151849269Y-134038200D01*
X151848900Y-134044274D01*
X151848900Y-134207617D01*
X145173301Y-134207617D01*
X145173301Y-134044304D01*
X145172923Y-134038162D01*
X145165580Y-133978625D01*
X145162129Y-133965555D01*
X145114727Y-133851397D01*
X145107916Y-133839740D01*
X145071401Y-133793088D01*
X145067375Y-133788541D01*
X144491137Y-133212304D01*
X144486521Y-133208223D01*
X144439232Y-133171317D01*
X144427551Y-133164516D01*
X144313309Y-133117312D01*
X144300252Y-133113887D01*
X144241450Y-133106719D01*
X144235376Y-133106350D01*
X144072033Y-133106350D01*
X144059143Y-133110538D01*
X144056100Y-133114727D01*
X144056100Y-134207617D01*
X143599700Y-134207617D01*
X143599700Y-133122282D01*
X143595512Y-133109392D01*
X143591323Y-133106349D01*
X143420454Y-133106349D01*
X143414312Y-133106727D01*
X143354775Y-133114070D01*
X143341705Y-133117521D01*
X143227547Y-133164923D01*
X143215890Y-133171734D01*
X143169238Y-133208249D01*
X143164691Y-133212275D01*
X142588454Y-133788513D01*
X142584373Y-133793129D01*
X142547467Y-133840418D01*
X142540666Y-133852099D01*
X142493462Y-133966341D01*
X142490037Y-133979398D01*
X142482869Y-134038200D01*
X142482500Y-134044274D01*
X142482500Y-134207617D01*
X139011600Y-134207617D01*
X139011600Y-132184411D01*
X146427800Y-132184411D01*
X146439757Y-132244070D01*
X146473210Y-132294041D01*
X146858811Y-132679640D01*
X146909450Y-132713370D01*
X146951564Y-132721709D01*
X146963610Y-132724094D01*
X146963612Y-132724094D01*
X146968439Y-132725050D01*
X147513761Y-132725050D01*
X147573420Y-132713093D01*
X147623391Y-132679640D01*
X148008990Y-132294039D01*
X148025382Y-132269430D01*
X148037237Y-132251632D01*
X148037237Y-132251631D01*
X148042720Y-132243400D01*
X148054400Y-132184411D01*
X148967800Y-132184411D01*
X148979757Y-132244070D01*
X149013210Y-132294041D01*
X149398811Y-132679640D01*
X149449450Y-132713370D01*
X149491564Y-132721709D01*
X149503610Y-132724094D01*
X149503612Y-132724094D01*
X149508439Y-132725050D01*
X150053761Y-132725050D01*
X150113420Y-132713093D01*
X150163391Y-132679640D01*
X150548990Y-132294039D01*
X150565382Y-132269430D01*
X150577237Y-132251632D01*
X150577237Y-132251631D01*
X150582720Y-132243400D01*
X150594400Y-132184411D01*
X150594400Y-131639089D01*
X150582443Y-131579430D01*
X150548990Y-131529459D01*
X150163389Y-131143860D01*
X150132255Y-131123122D01*
X150120982Y-131115613D01*
X150120981Y-131115613D01*
X150112750Y-131110130D01*
X150070636Y-131101791D01*
X150058590Y-131099406D01*
X150058588Y-131099406D01*
X150053761Y-131098450D01*
X149508439Y-131098450D01*
X149448780Y-131110407D01*
X149398809Y-131143860D01*
X149395332Y-131147337D01*
X149284129Y-131258541D01*
X149013210Y-131529461D01*
X148996818Y-131554070D01*
X148985402Y-131571210D01*
X148979480Y-131580100D01*
X148967800Y-131639089D01*
X148967800Y-132184411D01*
X148054400Y-132184411D01*
X148054400Y-131639089D01*
X148042443Y-131579430D01*
X148008990Y-131529459D01*
X147623389Y-131143860D01*
X147592255Y-131123122D01*
X147580982Y-131115613D01*
X147580981Y-131115613D01*
X147572750Y-131110130D01*
X147530636Y-131101791D01*
X147518590Y-131099406D01*
X147518588Y-131099406D01*
X147513761Y-131098450D01*
X146968439Y-131098450D01*
X146908780Y-131110407D01*
X146858809Y-131143860D01*
X146855332Y-131147337D01*
X146744129Y-131258541D01*
X146473210Y-131529461D01*
X146456818Y-131554070D01*
X146445402Y-131571210D01*
X146439480Y-131580100D01*
X146427800Y-131639089D01*
X146427800Y-132184411D01*
X139011600Y-132184411D01*
X139011600Y-130948604D01*
X140128680Y-130948604D01*
X140145268Y-131117781D01*
X140198925Y-131279080D01*
X140286984Y-131424482D01*
X140290886Y-131428522D01*
X140290887Y-131428524D01*
X140401163Y-131542719D01*
X140401167Y-131542722D01*
X140405068Y-131546762D01*
X140409771Y-131549840D01*
X140409774Y-131549842D01*
X140505038Y-131612180D01*
X140547309Y-131639841D01*
X140552582Y-131641802D01*
X140552584Y-131641803D01*
X140653853Y-131679465D01*
X140706636Y-131699095D01*
X140712214Y-131699839D01*
X140712217Y-131699840D01*
X140869554Y-131720833D01*
X140869556Y-131720833D01*
X140875132Y-131721577D01*
X140959776Y-131713874D01*
X141038819Y-131706680D01*
X141038820Y-131706680D01*
X141044421Y-131706170D01*
X141206090Y-131653641D01*
X141210923Y-131650760D01*
X141347274Y-131569478D01*
X141347276Y-131569477D01*
X141352103Y-131566599D01*
X141475204Y-131449372D01*
X141551273Y-131334879D01*
X141599999Y-131296259D01*
X141635065Y-131289950D01*
X145634767Y-131289950D01*
X145643535Y-131290333D01*
X145674099Y-131293007D01*
X145682867Y-131293774D01*
X145691369Y-131291496D01*
X145720992Y-131283559D01*
X145729558Y-131281659D01*
X145759787Y-131276329D01*
X145759789Y-131276328D01*
X145768451Y-131274801D01*
X145776069Y-131270403D01*
X145781643Y-131268374D01*
X145787018Y-131265867D01*
X145795516Y-131263590D01*
X145802727Y-131258541D01*
X145827858Y-131240945D01*
X145835257Y-131236231D01*
X145861825Y-131220891D01*
X145861826Y-131220890D01*
X145869449Y-131216489D01*
X145894832Y-131186239D01*
X145900761Y-131179769D01*
X146312041Y-130768489D01*
X146367439Y-130740263D01*
X146410583Y-130744567D01*
X146410905Y-130743274D01*
X146416370Y-130744636D01*
X146421636Y-130746595D01*
X146427205Y-130747338D01*
X146427209Y-130747339D01*
X146584554Y-130768333D01*
X146584556Y-130768333D01*
X146590132Y-130769077D01*
X146674777Y-130761373D01*
X146753819Y-130754180D01*
X146753820Y-130754180D01*
X146759421Y-130753670D01*
X146921090Y-130701141D01*
X146925923Y-130698260D01*
X147062274Y-130616978D01*
X147062276Y-130616977D01*
X147067103Y-130614099D01*
X147190204Y-130496872D01*
X147284275Y-130355284D01*
X147337050Y-130216354D01*
X147342641Y-130201635D01*
X147342641Y-130201634D01*
X147344639Y-130196375D01*
X147368297Y-130028040D01*
X147368594Y-130006750D01*
X147349646Y-129837821D01*
X147293742Y-129677287D01*
X147203662Y-129533129D01*
X147083882Y-129412509D01*
X146940355Y-129321425D01*
X146935057Y-129319538D01*
X146935054Y-129319537D01*
X146785513Y-129266288D01*
X146785512Y-129266288D01*
X146780216Y-129264402D01*
X146760433Y-129262043D01*
X146755501Y-129261455D01*
X146611423Y-129244275D01*
X146605828Y-129244863D01*
X146605825Y-129244863D01*
X146447957Y-129261455D01*
X146447954Y-129261456D01*
X146442366Y-129262043D01*
X146437049Y-129263853D01*
X146437045Y-129263854D01*
X146286771Y-129315012D01*
X146286769Y-129315013D01*
X146281446Y-129316825D01*
X146136662Y-129405897D01*
X146015209Y-129524831D01*
X145923125Y-129667718D01*
X145864986Y-129827456D01*
X145864281Y-129833033D01*
X145864281Y-129833035D01*
X145863677Y-129837821D01*
X145843680Y-129996104D01*
X145860268Y-130165281D01*
X145862044Y-130170621D01*
X145862045Y-130170624D01*
X145870515Y-130196085D01*
X145870950Y-130258258D01*
X145846194Y-130298976D01*
X145546085Y-130599085D01*
X145490687Y-130627311D01*
X145474950Y-130628550D01*
X141633733Y-130628550D01*
X141574602Y-130609337D01*
X141548419Y-130581260D01*
X141491644Y-130490401D01*
X141491643Y-130490400D01*
X141488662Y-130485629D01*
X141368882Y-130365009D01*
X141225355Y-130273925D01*
X141220057Y-130272038D01*
X141220054Y-130272037D01*
X141070513Y-130218788D01*
X141070512Y-130218788D01*
X141065216Y-130216902D01*
X141045433Y-130214543D01*
X141040501Y-130213955D01*
X140896423Y-130196775D01*
X140890828Y-130197363D01*
X140890825Y-130197363D01*
X140732957Y-130213955D01*
X140732954Y-130213956D01*
X140727366Y-130214543D01*
X140722049Y-130216353D01*
X140722045Y-130216354D01*
X140571771Y-130267512D01*
X140571769Y-130267513D01*
X140566446Y-130269325D01*
X140421662Y-130358397D01*
X140300209Y-130477331D01*
X140297163Y-130482058D01*
X140297161Y-130482060D01*
X140285118Y-130500747D01*
X140208125Y-130620218D01*
X140184349Y-130685543D01*
X140153946Y-130769077D01*
X140149986Y-130779956D01*
X140128680Y-130948604D01*
X139011600Y-130948604D01*
X139011600Y-124699196D01*
X142482599Y-124699196D01*
X142482977Y-124705338D01*
X142490320Y-124764875D01*
X142493771Y-124777945D01*
X142541173Y-124892103D01*
X142547984Y-124903760D01*
X142584499Y-124950412D01*
X142588525Y-124954959D01*
X143164763Y-125531196D01*
X143169379Y-125535277D01*
X143216668Y-125572183D01*
X143228349Y-125578984D01*
X143342591Y-125626188D01*
X143355648Y-125629613D01*
X143414450Y-125636781D01*
X143420524Y-125637150D01*
X143583867Y-125637150D01*
X143596757Y-125632962D01*
X143599800Y-125628773D01*
X143599800Y-125621218D01*
X144056200Y-125621218D01*
X144060388Y-125634108D01*
X144064577Y-125637151D01*
X144235446Y-125637151D01*
X144241588Y-125636773D01*
X144301125Y-125629430D01*
X144314195Y-125625979D01*
X144428353Y-125578577D01*
X144440010Y-125571766D01*
X144486662Y-125535251D01*
X144491209Y-125531225D01*
X145067446Y-124954987D01*
X145071527Y-124950371D01*
X145108433Y-124903082D01*
X145115234Y-124891401D01*
X145162438Y-124777159D01*
X145165863Y-124764102D01*
X145173031Y-124705300D01*
X145173400Y-124699226D01*
X145173400Y-124699196D01*
X151848799Y-124699196D01*
X151849177Y-124705338D01*
X151856520Y-124764875D01*
X151859971Y-124777945D01*
X151907373Y-124892103D01*
X151914184Y-124903760D01*
X151950699Y-124950412D01*
X151954725Y-124954959D01*
X152530963Y-125531196D01*
X152535579Y-125535277D01*
X152582868Y-125572183D01*
X152594549Y-125578984D01*
X152708791Y-125626188D01*
X152721848Y-125629613D01*
X152780650Y-125636781D01*
X152786724Y-125637150D01*
X152950067Y-125637150D01*
X152962957Y-125632962D01*
X152966000Y-125628773D01*
X152966000Y-125621218D01*
X153422400Y-125621218D01*
X153426588Y-125634108D01*
X153430777Y-125637151D01*
X153601646Y-125637151D01*
X153607788Y-125636773D01*
X153667325Y-125629430D01*
X153680395Y-125625979D01*
X153794553Y-125578577D01*
X153806210Y-125571766D01*
X153852862Y-125535251D01*
X153857409Y-125531225D01*
X154433646Y-124954987D01*
X154437727Y-124950371D01*
X154474633Y-124903082D01*
X154481434Y-124891401D01*
X154528638Y-124777159D01*
X154532063Y-124764102D01*
X154539231Y-124705300D01*
X154539600Y-124699226D01*
X154539600Y-124535883D01*
X154535412Y-124522993D01*
X154531223Y-124519950D01*
X153438333Y-124519950D01*
X153425443Y-124524138D01*
X153422400Y-124528327D01*
X153422400Y-125621218D01*
X152966000Y-125621218D01*
X152966000Y-124535883D01*
X152961812Y-124522993D01*
X152957623Y-124519950D01*
X151864732Y-124519950D01*
X151851842Y-124524138D01*
X151848799Y-124528327D01*
X151848799Y-124699196D01*
X145173400Y-124699196D01*
X145173400Y-124535883D01*
X145169212Y-124522993D01*
X145165023Y-124519950D01*
X144072133Y-124519950D01*
X144059243Y-124524138D01*
X144056200Y-124528327D01*
X144056200Y-125621218D01*
X143599800Y-125621218D01*
X143599800Y-124535883D01*
X143595612Y-124522993D01*
X143591423Y-124519950D01*
X142498532Y-124519950D01*
X142485642Y-124524138D01*
X142482599Y-124528327D01*
X142482599Y-124699196D01*
X139011600Y-124699196D01*
X139011600Y-124047617D01*
X142482600Y-124047617D01*
X142486788Y-124060507D01*
X142490977Y-124063550D01*
X145157468Y-124063550D01*
X145170358Y-124059362D01*
X145173401Y-124055173D01*
X145173401Y-124047617D01*
X151848800Y-124047617D01*
X151852988Y-124060507D01*
X151857177Y-124063550D01*
X154523668Y-124063550D01*
X154536558Y-124059362D01*
X154539601Y-124055173D01*
X154539601Y-123884304D01*
X154539223Y-123878162D01*
X154531880Y-123818625D01*
X154528429Y-123805555D01*
X154481027Y-123691397D01*
X154474216Y-123679740D01*
X154437701Y-123633088D01*
X154433675Y-123628541D01*
X153857437Y-123052304D01*
X153852821Y-123048223D01*
X153805532Y-123011317D01*
X153793851Y-123004515D01*
X153714499Y-122971728D01*
X153667186Y-122931390D01*
X153652619Y-122870946D01*
X153676362Y-122813484D01*
X153688609Y-122801458D01*
X153692222Y-122799040D01*
X154241490Y-122249770D01*
X154257882Y-122225161D01*
X154269737Y-122207363D01*
X154269737Y-122207362D01*
X154275220Y-122199131D01*
X154286900Y-122140142D01*
X154286900Y-121363358D01*
X154274943Y-121303699D01*
X154241490Y-121253728D01*
X153692220Y-120704460D01*
X153641581Y-120670730D01*
X153599467Y-120662391D01*
X153587421Y-120660006D01*
X153587419Y-120660006D01*
X153582592Y-120659050D01*
X152805808Y-120659050D01*
X152746149Y-120671007D01*
X152696178Y-120704460D01*
X152146910Y-121253730D01*
X152144150Y-121257874D01*
X152119102Y-121295479D01*
X152113180Y-121304369D01*
X152101500Y-121363358D01*
X152101500Y-122140142D01*
X152113457Y-122199801D01*
X152146910Y-122249772D01*
X152696180Y-122799040D01*
X152699415Y-122801194D01*
X152732786Y-122853242D01*
X152729171Y-122915311D01*
X152689763Y-122963401D01*
X152674043Y-122971622D01*
X152593847Y-123004922D01*
X152582190Y-123011734D01*
X152535538Y-123048249D01*
X152530991Y-123052275D01*
X151954754Y-123628513D01*
X151950673Y-123633129D01*
X151913767Y-123680418D01*
X151906966Y-123692099D01*
X151859762Y-123806341D01*
X151856337Y-123819398D01*
X151849169Y-123878200D01*
X151848800Y-123884274D01*
X151848800Y-124047617D01*
X145173401Y-124047617D01*
X145173401Y-123884304D01*
X145173023Y-123878162D01*
X145165680Y-123818625D01*
X145162229Y-123805555D01*
X145114827Y-123691397D01*
X145108016Y-123679740D01*
X145071501Y-123633088D01*
X145067475Y-123628541D01*
X144491237Y-123052304D01*
X144486621Y-123048223D01*
X144439332Y-123011317D01*
X144427651Y-123004515D01*
X144348299Y-122971728D01*
X144300986Y-122931390D01*
X144286419Y-122870946D01*
X144310162Y-122813484D01*
X144322409Y-122801458D01*
X144326022Y-122799040D01*
X144875290Y-122249770D01*
X144891682Y-122225161D01*
X144903537Y-122207363D01*
X144903537Y-122207362D01*
X144909020Y-122199131D01*
X144920700Y-122140142D01*
X144920700Y-121363358D01*
X144908743Y-121303699D01*
X144875290Y-121253728D01*
X144326020Y-120704460D01*
X144275381Y-120670730D01*
X144233267Y-120662391D01*
X144221221Y-120660006D01*
X144221219Y-120660006D01*
X144216392Y-120659050D01*
X143439608Y-120659050D01*
X143379949Y-120671007D01*
X143329978Y-120704460D01*
X142780710Y-121253730D01*
X142777950Y-121257874D01*
X142752902Y-121295479D01*
X142746980Y-121304369D01*
X142735300Y-121363358D01*
X142735300Y-122140142D01*
X142747257Y-122199801D01*
X142780710Y-122249772D01*
X143329980Y-122799040D01*
X143333215Y-122801194D01*
X143366586Y-122853242D01*
X143362971Y-122915311D01*
X143323563Y-122963401D01*
X143307843Y-122971622D01*
X143227647Y-123004922D01*
X143215990Y-123011734D01*
X143169338Y-123048249D01*
X143164791Y-123052275D01*
X142588554Y-123628513D01*
X142584473Y-123633129D01*
X142547567Y-123680418D01*
X142540766Y-123692099D01*
X142493562Y-123806341D01*
X142490137Y-123819398D01*
X142482969Y-123878200D01*
X142482600Y-123884274D01*
X142482600Y-124047617D01*
X139011600Y-124047617D01*
X139011600Y-118576750D01*
X142472341Y-118576750D01*
X142492937Y-118812158D01*
X142554097Y-119040413D01*
X142653965Y-119254579D01*
X142656480Y-119258171D01*
X142656483Y-119258176D01*
X142656484Y-119258177D01*
X142789505Y-119448151D01*
X142956599Y-119615245D01*
X142960193Y-119617762D01*
X142960196Y-119617764D01*
X143146574Y-119748267D01*
X143146579Y-119748270D01*
X143150171Y-119750785D01*
X143364337Y-119850653D01*
X143368584Y-119851791D01*
X143588344Y-119910675D01*
X143588347Y-119910675D01*
X143592592Y-119911813D01*
X143688343Y-119920190D01*
X143766848Y-119927059D01*
X143766854Y-119927059D01*
X143769034Y-119927250D01*
X143886966Y-119927250D01*
X143889146Y-119927059D01*
X143889152Y-119927059D01*
X143967657Y-119920190D01*
X144063408Y-119911813D01*
X144067653Y-119910675D01*
X144067656Y-119910675D01*
X144287416Y-119851791D01*
X144291663Y-119850653D01*
X144505829Y-119750785D01*
X144509421Y-119748270D01*
X144509426Y-119748267D01*
X144695804Y-119617764D01*
X144695807Y-119617762D01*
X144699401Y-119615245D01*
X144866495Y-119448151D01*
X145002035Y-119254580D01*
X145101903Y-119040413D01*
X145163063Y-118812158D01*
X145183659Y-118576750D01*
X151838541Y-118576750D01*
X151859137Y-118812158D01*
X151920297Y-119040413D01*
X152020165Y-119254579D01*
X152022680Y-119258171D01*
X152022683Y-119258176D01*
X152022684Y-119258177D01*
X152155705Y-119448151D01*
X152322799Y-119615245D01*
X152326393Y-119617762D01*
X152326396Y-119617764D01*
X152512774Y-119748267D01*
X152512779Y-119748270D01*
X152516371Y-119750785D01*
X152730537Y-119850653D01*
X152734784Y-119851791D01*
X152954544Y-119910675D01*
X152954547Y-119910675D01*
X152958792Y-119911813D01*
X153054543Y-119920190D01*
X153133048Y-119927059D01*
X153133054Y-119927059D01*
X153135234Y-119927250D01*
X153253166Y-119927250D01*
X153255346Y-119927059D01*
X153255352Y-119927059D01*
X153333857Y-119920190D01*
X153429608Y-119911813D01*
X153433853Y-119910675D01*
X153433856Y-119910675D01*
X153653616Y-119851791D01*
X153657863Y-119850653D01*
X153872029Y-119750785D01*
X153875621Y-119748270D01*
X153875626Y-119748267D01*
X154062004Y-119617764D01*
X154062007Y-119617762D01*
X154065601Y-119615245D01*
X154232695Y-119448151D01*
X154368235Y-119254580D01*
X154468103Y-119040413D01*
X154529263Y-118812158D01*
X154549859Y-118576750D01*
X154529263Y-118341342D01*
X154468103Y-118113087D01*
X154368235Y-117898921D01*
X154365720Y-117895329D01*
X154365717Y-117895324D01*
X154235214Y-117708946D01*
X154235212Y-117708943D01*
X154232695Y-117705349D01*
X154065601Y-117538255D01*
X154062007Y-117535738D01*
X154062004Y-117535736D01*
X153875626Y-117405233D01*
X153875621Y-117405230D01*
X153872029Y-117402715D01*
X153657863Y-117302847D01*
X153653616Y-117301709D01*
X153433856Y-117242825D01*
X153433853Y-117242825D01*
X153429608Y-117241687D01*
X153333857Y-117233310D01*
X153255352Y-117226441D01*
X153255346Y-117226441D01*
X153253166Y-117226250D01*
X153135234Y-117226250D01*
X153133054Y-117226441D01*
X153133048Y-117226441D01*
X153054543Y-117233310D01*
X152958792Y-117241687D01*
X152954547Y-117242825D01*
X152954544Y-117242825D01*
X152734784Y-117301709D01*
X152730537Y-117302847D01*
X152516371Y-117402715D01*
X152512779Y-117405230D01*
X152512774Y-117405233D01*
X152326396Y-117535736D01*
X152326393Y-117535738D01*
X152322799Y-117538255D01*
X152155705Y-117705349D01*
X152020165Y-117898920D01*
X151920297Y-118113087D01*
X151859137Y-118341342D01*
X151838541Y-118576750D01*
X145183659Y-118576750D01*
X145163063Y-118341342D01*
X145101903Y-118113087D01*
X145002035Y-117898921D01*
X144999520Y-117895329D01*
X144999517Y-117895324D01*
X144869014Y-117708946D01*
X144869012Y-117708943D01*
X144866495Y-117705349D01*
X144699401Y-117538255D01*
X144695807Y-117535738D01*
X144695804Y-117535736D01*
X144509426Y-117405233D01*
X144509421Y-117405230D01*
X144505829Y-117402715D01*
X144291663Y-117302847D01*
X144287416Y-117301709D01*
X144067656Y-117242825D01*
X144067653Y-117242825D01*
X144063408Y-117241687D01*
X143967657Y-117233310D01*
X143889152Y-117226441D01*
X143889146Y-117226441D01*
X143886966Y-117226250D01*
X143769034Y-117226250D01*
X143766854Y-117226441D01*
X143766848Y-117226441D01*
X143688343Y-117233310D01*
X143592592Y-117241687D01*
X143588347Y-117242825D01*
X143588344Y-117242825D01*
X143368584Y-117301709D01*
X143364337Y-117302847D01*
X143150171Y-117402715D01*
X143146579Y-117405230D01*
X143146574Y-117405233D01*
X142960196Y-117535736D01*
X142960193Y-117535738D01*
X142956599Y-117538255D01*
X142789505Y-117705349D01*
X142653965Y-117898920D01*
X142554097Y-118113087D01*
X142492937Y-118341342D01*
X142472341Y-118576750D01*
X139011600Y-118576750D01*
X139011600Y-111999196D01*
X142482499Y-111999196D01*
X142482877Y-112005338D01*
X142490220Y-112064875D01*
X142493671Y-112077945D01*
X142541073Y-112192103D01*
X142547884Y-112203760D01*
X142584399Y-112250412D01*
X142588425Y-112254959D01*
X143164663Y-112831196D01*
X143169279Y-112835277D01*
X143216568Y-112872183D01*
X143228252Y-112878986D01*
X143307667Y-112911799D01*
X143354980Y-112952136D01*
X143369548Y-113012580D01*
X143345805Y-113070042D01*
X143333570Y-113082055D01*
X143329978Y-113084460D01*
X142780710Y-113633730D01*
X142777950Y-113637874D01*
X142752902Y-113675479D01*
X142746980Y-113684369D01*
X142735300Y-113743358D01*
X142735300Y-114520142D01*
X142747257Y-114579801D01*
X142780710Y-114629772D01*
X143329980Y-115179040D01*
X143380619Y-115212770D01*
X143422733Y-115221109D01*
X143434779Y-115223494D01*
X143434781Y-115223494D01*
X143439608Y-115224450D01*
X144216392Y-115224450D01*
X144276051Y-115212493D01*
X144326022Y-115179040D01*
X144875290Y-114629770D01*
X144891682Y-114605161D01*
X144903537Y-114587363D01*
X144903537Y-114587362D01*
X144909020Y-114579131D01*
X144920700Y-114520142D01*
X144920700Y-113743358D01*
X144908743Y-113683699D01*
X144875290Y-113633728D01*
X144326020Y-113084460D01*
X144322756Y-113082286D01*
X144289380Y-113030230D01*
X144292995Y-112968161D01*
X144332404Y-112920071D01*
X144348123Y-112911850D01*
X144428253Y-112878577D01*
X144439910Y-112871766D01*
X144486562Y-112835251D01*
X144491109Y-112831225D01*
X145067346Y-112254987D01*
X145071427Y-112250371D01*
X145108333Y-112203082D01*
X145115134Y-112191401D01*
X145162338Y-112077159D01*
X145165763Y-112064102D01*
X145172931Y-112005300D01*
X145173300Y-111999226D01*
X145173300Y-111999196D01*
X151848699Y-111999196D01*
X151849077Y-112005338D01*
X151856420Y-112064875D01*
X151859871Y-112077945D01*
X151907273Y-112192103D01*
X151914084Y-112203760D01*
X151950599Y-112250412D01*
X151954625Y-112254959D01*
X152530863Y-112831196D01*
X152535479Y-112835277D01*
X152582768Y-112872183D01*
X152594452Y-112878986D01*
X152673867Y-112911799D01*
X152721180Y-112952136D01*
X152735748Y-113012580D01*
X152712005Y-113070042D01*
X152699770Y-113082055D01*
X152696178Y-113084460D01*
X152146910Y-113633730D01*
X152144150Y-113637874D01*
X152119102Y-113675479D01*
X152113180Y-113684369D01*
X152101500Y-113743358D01*
X152101500Y-114520142D01*
X152113457Y-114579801D01*
X152146910Y-114629772D01*
X152696180Y-115179040D01*
X152746819Y-115212770D01*
X152788933Y-115221109D01*
X152800979Y-115223494D01*
X152800981Y-115223494D01*
X152805808Y-115224450D01*
X153582592Y-115224450D01*
X153642251Y-115212493D01*
X153692222Y-115179040D01*
X154241490Y-114629770D01*
X154257882Y-114605161D01*
X154269737Y-114587363D01*
X154269737Y-114587362D01*
X154275220Y-114579131D01*
X154286900Y-114520142D01*
X154286900Y-113743358D01*
X154274943Y-113683699D01*
X154241490Y-113633728D01*
X153692220Y-113084460D01*
X153688956Y-113082286D01*
X153655580Y-113030230D01*
X153659195Y-112968161D01*
X153698604Y-112920071D01*
X153714323Y-112911850D01*
X153794453Y-112878577D01*
X153806110Y-112871766D01*
X153852762Y-112835251D01*
X153857309Y-112831225D01*
X154433546Y-112254987D01*
X154437627Y-112250371D01*
X154474533Y-112203082D01*
X154481334Y-112191401D01*
X154528538Y-112077159D01*
X154531963Y-112064102D01*
X154539131Y-112005300D01*
X154539500Y-111999226D01*
X154539500Y-111835883D01*
X154535312Y-111822993D01*
X154531123Y-111819950D01*
X151864632Y-111819950D01*
X151851742Y-111824138D01*
X151848699Y-111828327D01*
X151848699Y-111999196D01*
X145173300Y-111999196D01*
X145173300Y-111835883D01*
X145169112Y-111822993D01*
X145164923Y-111819950D01*
X142498432Y-111819950D01*
X142485542Y-111824138D01*
X142482499Y-111828327D01*
X142482499Y-111999196D01*
X139011600Y-111999196D01*
X139011600Y-109459196D01*
X142482499Y-109459196D01*
X142482877Y-109465338D01*
X142490220Y-109524875D01*
X142493671Y-109537945D01*
X142541073Y-109652103D01*
X142547884Y-109663760D01*
X142584399Y-109710412D01*
X142588425Y-109714959D01*
X143124081Y-110250615D01*
X143152307Y-110306013D01*
X143142581Y-110367421D01*
X143124081Y-110392885D01*
X142588454Y-110928513D01*
X142584373Y-110933129D01*
X142547467Y-110980418D01*
X142540666Y-110992099D01*
X142493462Y-111106341D01*
X142490037Y-111119398D01*
X142482869Y-111178200D01*
X142482500Y-111184274D01*
X142482500Y-111347617D01*
X142486688Y-111360507D01*
X142490877Y-111363550D01*
X143583767Y-111363550D01*
X143596657Y-111359362D01*
X143599700Y-111355173D01*
X143599700Y-111347617D01*
X144056100Y-111347617D01*
X144060288Y-111360507D01*
X144064477Y-111363550D01*
X145157368Y-111363550D01*
X145170258Y-111359362D01*
X145173301Y-111355173D01*
X145173301Y-111184304D01*
X145172923Y-111178162D01*
X145165580Y-111118625D01*
X145162129Y-111105555D01*
X145114727Y-110991397D01*
X145107916Y-110979740D01*
X145071401Y-110933088D01*
X145067375Y-110928541D01*
X144531719Y-110392885D01*
X144503493Y-110337487D01*
X144513219Y-110276079D01*
X144531719Y-110250615D01*
X145067346Y-109714987D01*
X145071427Y-109710371D01*
X145108333Y-109663082D01*
X145115134Y-109651401D01*
X145162338Y-109537159D01*
X145165763Y-109524102D01*
X145172931Y-109465300D01*
X145173300Y-109459226D01*
X145173300Y-109459196D01*
X151848699Y-109459196D01*
X151849077Y-109465338D01*
X151856420Y-109524875D01*
X151859871Y-109537945D01*
X151907273Y-109652103D01*
X151914084Y-109663760D01*
X151950599Y-109710412D01*
X151954625Y-109714959D01*
X152490281Y-110250615D01*
X152518507Y-110306013D01*
X152508781Y-110367421D01*
X152490281Y-110392885D01*
X151954654Y-110928513D01*
X151950573Y-110933129D01*
X151913667Y-110980418D01*
X151906866Y-110992099D01*
X151859662Y-111106341D01*
X151856237Y-111119398D01*
X151849069Y-111178200D01*
X151848700Y-111184274D01*
X151848700Y-111347617D01*
X151852888Y-111360507D01*
X151857077Y-111363550D01*
X152949967Y-111363550D01*
X152962857Y-111359362D01*
X152965900Y-111355173D01*
X152965900Y-111347617D01*
X153422300Y-111347617D01*
X153426488Y-111360507D01*
X153430677Y-111363550D01*
X154523568Y-111363550D01*
X154536458Y-111359362D01*
X154539501Y-111355173D01*
X154539501Y-111184304D01*
X154539123Y-111178162D01*
X154531780Y-111118625D01*
X154528329Y-111105555D01*
X154480927Y-110991397D01*
X154474116Y-110979740D01*
X154437601Y-110933088D01*
X154433575Y-110928541D01*
X153897919Y-110392885D01*
X153869693Y-110337487D01*
X153879419Y-110276079D01*
X153897919Y-110250615D01*
X154433546Y-109714987D01*
X154437627Y-109710371D01*
X154474533Y-109663082D01*
X154481334Y-109651401D01*
X154528538Y-109537159D01*
X154531963Y-109524102D01*
X154539131Y-109465300D01*
X154539500Y-109459226D01*
X154539500Y-109295883D01*
X154535312Y-109282993D01*
X154531123Y-109279950D01*
X153438233Y-109279950D01*
X153425343Y-109284138D01*
X153422300Y-109288327D01*
X153422300Y-111347617D01*
X152965900Y-111347617D01*
X152965900Y-109295883D01*
X152961712Y-109282993D01*
X152957523Y-109279950D01*
X151864632Y-109279950D01*
X151851742Y-109284138D01*
X151848699Y-109288327D01*
X151848699Y-109459196D01*
X145173300Y-109459196D01*
X145173300Y-109295883D01*
X145169112Y-109282993D01*
X145164923Y-109279950D01*
X144072033Y-109279950D01*
X144059143Y-109284138D01*
X144056100Y-109288327D01*
X144056100Y-111347617D01*
X143599700Y-111347617D01*
X143599700Y-109295883D01*
X143595512Y-109282993D01*
X143591323Y-109279950D01*
X142498432Y-109279950D01*
X142485542Y-109284138D01*
X142482499Y-109288327D01*
X142482499Y-109459196D01*
X139011600Y-109459196D01*
X139011600Y-108807617D01*
X142482500Y-108807617D01*
X142486688Y-108820507D01*
X142490877Y-108823550D01*
X143583767Y-108823550D01*
X143596657Y-108819362D01*
X143599700Y-108815173D01*
X143599700Y-108807617D01*
X144056100Y-108807617D01*
X144060288Y-108820507D01*
X144064477Y-108823550D01*
X145157368Y-108823550D01*
X145170258Y-108819362D01*
X145173301Y-108815173D01*
X145173301Y-108807617D01*
X151848700Y-108807617D01*
X151852888Y-108820507D01*
X151857077Y-108823550D01*
X152949967Y-108823550D01*
X152962857Y-108819362D01*
X152965900Y-108815173D01*
X152965900Y-108807617D01*
X153422300Y-108807617D01*
X153426488Y-108820507D01*
X153430677Y-108823550D01*
X154523568Y-108823550D01*
X154536458Y-108819362D01*
X154539501Y-108815173D01*
X154539501Y-108644304D01*
X154539123Y-108638162D01*
X154531780Y-108578625D01*
X154528329Y-108565555D01*
X154480927Y-108451397D01*
X154474116Y-108439740D01*
X154437601Y-108393088D01*
X154433575Y-108388541D01*
X153857337Y-107812304D01*
X153852721Y-107808223D01*
X153805432Y-107771317D01*
X153793751Y-107764516D01*
X153679509Y-107717312D01*
X153666452Y-107713887D01*
X153607650Y-107706719D01*
X153601576Y-107706350D01*
X153438233Y-107706350D01*
X153425343Y-107710538D01*
X153422300Y-107714727D01*
X153422300Y-108807617D01*
X152965900Y-108807617D01*
X152965900Y-107722282D01*
X152961712Y-107709392D01*
X152957523Y-107706349D01*
X152786654Y-107706349D01*
X152780512Y-107706727D01*
X152720975Y-107714070D01*
X152707905Y-107717521D01*
X152593747Y-107764923D01*
X152582090Y-107771734D01*
X152535438Y-107808249D01*
X152530891Y-107812275D01*
X151954654Y-108388513D01*
X151950573Y-108393129D01*
X151913667Y-108440418D01*
X151906866Y-108452099D01*
X151859662Y-108566341D01*
X151856237Y-108579398D01*
X151849069Y-108638200D01*
X151848700Y-108644274D01*
X151848700Y-108807617D01*
X145173301Y-108807617D01*
X145173301Y-108644304D01*
X145172923Y-108638162D01*
X145165580Y-108578625D01*
X145162129Y-108565555D01*
X145114727Y-108451397D01*
X145107916Y-108439740D01*
X145071401Y-108393088D01*
X145067375Y-108388541D01*
X144491137Y-107812304D01*
X144486521Y-107808223D01*
X144439232Y-107771317D01*
X144427551Y-107764516D01*
X144313309Y-107717312D01*
X144300252Y-107713887D01*
X144241450Y-107706719D01*
X144235376Y-107706350D01*
X144072033Y-107706350D01*
X144059143Y-107710538D01*
X144056100Y-107714727D01*
X144056100Y-108807617D01*
X143599700Y-108807617D01*
X143599700Y-107722282D01*
X143595512Y-107709392D01*
X143591323Y-107706349D01*
X143420454Y-107706349D01*
X143414312Y-107706727D01*
X143354775Y-107714070D01*
X143341705Y-107717521D01*
X143227547Y-107764923D01*
X143215890Y-107771734D01*
X143169238Y-107808249D01*
X143164691Y-107812275D01*
X142588454Y-108388513D01*
X142584373Y-108393129D01*
X142547467Y-108440418D01*
X142540666Y-108452099D01*
X142493462Y-108566341D01*
X142490037Y-108579398D01*
X142482869Y-108638200D01*
X142482500Y-108644274D01*
X142482500Y-108807617D01*
X139011600Y-108807617D01*
X139011600Y-105876750D01*
X142472241Y-105876750D01*
X142492837Y-106112158D01*
X142553997Y-106340413D01*
X142653865Y-106554579D01*
X142656380Y-106558171D01*
X142656383Y-106558176D01*
X142656384Y-106558177D01*
X142789405Y-106748151D01*
X142956499Y-106915245D01*
X142960093Y-106917762D01*
X142960096Y-106917764D01*
X143146474Y-107048267D01*
X143146479Y-107048270D01*
X143150071Y-107050785D01*
X143364237Y-107150653D01*
X143368484Y-107151791D01*
X143588244Y-107210675D01*
X143588247Y-107210675D01*
X143592492Y-107211813D01*
X143688243Y-107220190D01*
X143766748Y-107227059D01*
X143766754Y-107227059D01*
X143768934Y-107227250D01*
X143886866Y-107227250D01*
X143889046Y-107227059D01*
X143889052Y-107227059D01*
X143967557Y-107220190D01*
X144063308Y-107211813D01*
X144067553Y-107210675D01*
X144067556Y-107210675D01*
X144287316Y-107151791D01*
X144291563Y-107150653D01*
X144505729Y-107050785D01*
X144509321Y-107048270D01*
X144509326Y-107048267D01*
X144695704Y-106917764D01*
X144695707Y-106917762D01*
X144699301Y-106915245D01*
X144866395Y-106748151D01*
X145001935Y-106554580D01*
X145101803Y-106340413D01*
X145162963Y-106112158D01*
X145183559Y-105876750D01*
X151838441Y-105876750D01*
X151859037Y-106112158D01*
X151920197Y-106340413D01*
X152020065Y-106554579D01*
X152022580Y-106558171D01*
X152022583Y-106558176D01*
X152022584Y-106558177D01*
X152155605Y-106748151D01*
X152322699Y-106915245D01*
X152326293Y-106917762D01*
X152326296Y-106917764D01*
X152512674Y-107048267D01*
X152512679Y-107048270D01*
X152516271Y-107050785D01*
X152730437Y-107150653D01*
X152734684Y-107151791D01*
X152954444Y-107210675D01*
X152954447Y-107210675D01*
X152958692Y-107211813D01*
X153054443Y-107220190D01*
X153132948Y-107227059D01*
X153132954Y-107227059D01*
X153135134Y-107227250D01*
X153253066Y-107227250D01*
X153255246Y-107227059D01*
X153255252Y-107227059D01*
X153333757Y-107220190D01*
X153429508Y-107211813D01*
X153433753Y-107210675D01*
X153433756Y-107210675D01*
X153653516Y-107151791D01*
X153657763Y-107150653D01*
X153871929Y-107050785D01*
X153875521Y-107048270D01*
X153875526Y-107048267D01*
X154061904Y-106917764D01*
X154061907Y-106917762D01*
X154065501Y-106915245D01*
X154232595Y-106748151D01*
X154368135Y-106554580D01*
X154468003Y-106340413D01*
X154529163Y-106112158D01*
X154549759Y-105876750D01*
X154529163Y-105641342D01*
X154468003Y-105413087D01*
X154368135Y-105198921D01*
X154365620Y-105195329D01*
X154365617Y-105195324D01*
X154235114Y-105008946D01*
X154235112Y-105008943D01*
X154232595Y-105005349D01*
X154065501Y-104838255D01*
X154061907Y-104835738D01*
X154061904Y-104835736D01*
X153875526Y-104705233D01*
X153875521Y-104705230D01*
X153871929Y-104702715D01*
X153657763Y-104602847D01*
X153653516Y-104601709D01*
X153433756Y-104542825D01*
X153433753Y-104542825D01*
X153429508Y-104541687D01*
X153333757Y-104533310D01*
X153255252Y-104526441D01*
X153255246Y-104526441D01*
X153253066Y-104526250D01*
X153135134Y-104526250D01*
X153132954Y-104526441D01*
X153132948Y-104526441D01*
X153054443Y-104533310D01*
X152958692Y-104541687D01*
X152954447Y-104542825D01*
X152954444Y-104542825D01*
X152734684Y-104601709D01*
X152730437Y-104602847D01*
X152516271Y-104702715D01*
X152512679Y-104705230D01*
X152512674Y-104705233D01*
X152326296Y-104835736D01*
X152326293Y-104835738D01*
X152322699Y-104838255D01*
X152155605Y-105005349D01*
X152020065Y-105198920D01*
X151920197Y-105413087D01*
X151859037Y-105641342D01*
X151838441Y-105876750D01*
X145183559Y-105876750D01*
X145162963Y-105641342D01*
X145101803Y-105413087D01*
X145001935Y-105198921D01*
X144999420Y-105195329D01*
X144999417Y-105195324D01*
X144868914Y-105008946D01*
X144868912Y-105008943D01*
X144866395Y-105005349D01*
X144699301Y-104838255D01*
X144695707Y-104835738D01*
X144695704Y-104835736D01*
X144509326Y-104705233D01*
X144509321Y-104705230D01*
X144505729Y-104702715D01*
X144291563Y-104602847D01*
X144287316Y-104601709D01*
X144067556Y-104542825D01*
X144067553Y-104542825D01*
X144063308Y-104541687D01*
X143967557Y-104533310D01*
X143889052Y-104526441D01*
X143889046Y-104526441D01*
X143886866Y-104526250D01*
X143768934Y-104526250D01*
X143766754Y-104526441D01*
X143766748Y-104526441D01*
X143688243Y-104533310D01*
X143592492Y-104541687D01*
X143588247Y-104542825D01*
X143588244Y-104542825D01*
X143368484Y-104601709D01*
X143364237Y-104602847D01*
X143150071Y-104702715D01*
X143146479Y-104705230D01*
X143146474Y-104705233D01*
X142960096Y-104835736D01*
X142960093Y-104835738D01*
X142956499Y-104838255D01*
X142789405Y-105005349D01*
X142653865Y-105198920D01*
X142553997Y-105413087D01*
X142492837Y-105641342D01*
X142472241Y-105876750D01*
X139011600Y-105876750D01*
X139011600Y-101820142D01*
X142735200Y-101820142D01*
X142747157Y-101879801D01*
X142780610Y-101929772D01*
X143329880Y-102479040D01*
X143380519Y-102512770D01*
X143422633Y-102521109D01*
X143434679Y-102523494D01*
X143434681Y-102523494D01*
X143439508Y-102524450D01*
X144216292Y-102524450D01*
X144275951Y-102512493D01*
X144325922Y-102479040D01*
X144875190Y-101929770D01*
X144891582Y-101905161D01*
X144903437Y-101887363D01*
X144903437Y-101887362D01*
X144908920Y-101879131D01*
X144920600Y-101820142D01*
X152101400Y-101820142D01*
X152113357Y-101879801D01*
X152146810Y-101929772D01*
X152696080Y-102479040D01*
X152746719Y-102512770D01*
X152788833Y-102521109D01*
X152800879Y-102523494D01*
X152800881Y-102523494D01*
X152805708Y-102524450D01*
X153582492Y-102524450D01*
X153642151Y-102512493D01*
X153692122Y-102479040D01*
X154241390Y-101929770D01*
X154257782Y-101905161D01*
X154269637Y-101887363D01*
X154269637Y-101887362D01*
X154275120Y-101879131D01*
X154286800Y-101820142D01*
X154286800Y-101043358D01*
X154274843Y-100983699D01*
X154241390Y-100933728D01*
X153692120Y-100384460D01*
X153641481Y-100350730D01*
X153599367Y-100342391D01*
X153587321Y-100340006D01*
X153587319Y-100340006D01*
X153582492Y-100339050D01*
X152805708Y-100339050D01*
X152746049Y-100351007D01*
X152696078Y-100384460D01*
X152146810Y-100933730D01*
X152144050Y-100937874D01*
X152119002Y-100975479D01*
X152113080Y-100984369D01*
X152101400Y-101043358D01*
X152101400Y-101820142D01*
X144920600Y-101820142D01*
X144920600Y-101043358D01*
X144908643Y-100983699D01*
X144875190Y-100933728D01*
X144325920Y-100384460D01*
X144275281Y-100350730D01*
X144233167Y-100342391D01*
X144221121Y-100340006D01*
X144221119Y-100340006D01*
X144216292Y-100339050D01*
X143439508Y-100339050D01*
X143379849Y-100351007D01*
X143329878Y-100384460D01*
X142780610Y-100933730D01*
X142777850Y-100937874D01*
X142752802Y-100975479D01*
X142746880Y-100984369D01*
X142735200Y-101043358D01*
X142735200Y-101820142D01*
X139011600Y-101820142D01*
X139011600Y-97611104D01*
X140128680Y-97611104D01*
X140145268Y-97780281D01*
X140198925Y-97941580D01*
X140286984Y-98086982D01*
X140290886Y-98091022D01*
X140290887Y-98091024D01*
X140401163Y-98205219D01*
X140401167Y-98205222D01*
X140405068Y-98209262D01*
X140409771Y-98212340D01*
X140409774Y-98212342D01*
X140505038Y-98274680D01*
X140547309Y-98302341D01*
X140552582Y-98304302D01*
X140552584Y-98304303D01*
X140653853Y-98341965D01*
X140706636Y-98361595D01*
X140712214Y-98362339D01*
X140712217Y-98362340D01*
X140869554Y-98383333D01*
X140869556Y-98383333D01*
X140875132Y-98384077D01*
X140959776Y-98376374D01*
X141038819Y-98369180D01*
X141038820Y-98369180D01*
X141044421Y-98368670D01*
X141206090Y-98316141D01*
X141234408Y-98299260D01*
X141347274Y-98231978D01*
X141347276Y-98231977D01*
X141352103Y-98229099D01*
X141475204Y-98111872D01*
X141569275Y-97970284D01*
X141629639Y-97811375D01*
X141653297Y-97643040D01*
X141653594Y-97621750D01*
X141634646Y-97452821D01*
X141627778Y-97433099D01*
X141626477Y-97370939D01*
X141651648Y-97328882D01*
X142268615Y-96711915D01*
X142324013Y-96683689D01*
X142339750Y-96682450D01*
X145546323Y-96682450D01*
X145605454Y-96701663D01*
X145632372Y-96730936D01*
X145681571Y-96812173D01*
X145681574Y-96812176D01*
X145684484Y-96816982D01*
X145688386Y-96821022D01*
X145688387Y-96821024D01*
X145798663Y-96935219D01*
X145798667Y-96935222D01*
X145802568Y-96939262D01*
X145807271Y-96942340D01*
X145807274Y-96942342D01*
X145832882Y-96959099D01*
X145944809Y-97032341D01*
X145950082Y-97034302D01*
X145950084Y-97034303D01*
X146051353Y-97071965D01*
X146104136Y-97091595D01*
X146109714Y-97092339D01*
X146109717Y-97092340D01*
X146267054Y-97113333D01*
X146267056Y-97113333D01*
X146272632Y-97114077D01*
X146365641Y-97105612D01*
X146426269Y-97119386D01*
X146467223Y-97166167D01*
X146472858Y-97228085D01*
X146458485Y-97261566D01*
X146444965Y-97281865D01*
X146439480Y-97290100D01*
X146427800Y-97349089D01*
X146427800Y-97894411D01*
X146439757Y-97954070D01*
X146473210Y-98004041D01*
X146858811Y-98389640D01*
X146909450Y-98423370D01*
X146951564Y-98431709D01*
X146963610Y-98434094D01*
X146963612Y-98434094D01*
X146968439Y-98435050D01*
X147513761Y-98435050D01*
X147573420Y-98423093D01*
X147623391Y-98389640D01*
X148008990Y-98004039D01*
X148025382Y-97979430D01*
X148037237Y-97961632D01*
X148037237Y-97961631D01*
X148042720Y-97953400D01*
X148054400Y-97894411D01*
X148967800Y-97894411D01*
X148979757Y-97954070D01*
X149013210Y-98004041D01*
X149398811Y-98389640D01*
X149449450Y-98423370D01*
X149491564Y-98431709D01*
X149503610Y-98434094D01*
X149503612Y-98434094D01*
X149508439Y-98435050D01*
X150053761Y-98435050D01*
X150113420Y-98423093D01*
X150163391Y-98389640D01*
X150548990Y-98004039D01*
X150565382Y-97979430D01*
X150577237Y-97961632D01*
X150577237Y-97961631D01*
X150582720Y-97953400D01*
X150594400Y-97894411D01*
X150594400Y-97349089D01*
X150582443Y-97289430D01*
X150548990Y-97239459D01*
X150163389Y-96853860D01*
X150112750Y-96820130D01*
X150070636Y-96811791D01*
X150058590Y-96809406D01*
X150058588Y-96809406D01*
X150053761Y-96808450D01*
X149508439Y-96808450D01*
X149448780Y-96820407D01*
X149398809Y-96853860D01*
X149013210Y-97239461D01*
X149010450Y-97243605D01*
X148985402Y-97281210D01*
X148979480Y-97290100D01*
X148967800Y-97349089D01*
X148967800Y-97894411D01*
X148054400Y-97894411D01*
X148054400Y-97349089D01*
X148042443Y-97289430D01*
X148008990Y-97239459D01*
X147623389Y-96853860D01*
X147572750Y-96820130D01*
X147530636Y-96811791D01*
X147518590Y-96809406D01*
X147518588Y-96809406D01*
X147513761Y-96808450D01*
X147071514Y-96808450D01*
X147012383Y-96789237D01*
X146975838Y-96738937D01*
X146977471Y-96672126D01*
X147025141Y-96546635D01*
X147025141Y-96546634D01*
X147027139Y-96541375D01*
X147050797Y-96373040D01*
X147051094Y-96351750D01*
X147032146Y-96182821D01*
X146980555Y-96034671D01*
X146978093Y-96027602D01*
X146978093Y-96027601D01*
X146976242Y-96022287D01*
X146886162Y-95878129D01*
X146766382Y-95757509D01*
X146622855Y-95666425D01*
X146617557Y-95664538D01*
X146617554Y-95664537D01*
X146468013Y-95611288D01*
X146468012Y-95611288D01*
X146462716Y-95609402D01*
X146442933Y-95607043D01*
X146438001Y-95606455D01*
X146293923Y-95589275D01*
X146288328Y-95589863D01*
X146288325Y-95589863D01*
X146130457Y-95606455D01*
X146130454Y-95606456D01*
X146124866Y-95607043D01*
X146119549Y-95608853D01*
X146119545Y-95608854D01*
X145969271Y-95660012D01*
X145969269Y-95660013D01*
X145963946Y-95661825D01*
X145819162Y-95750897D01*
X145697709Y-95869831D01*
X145694663Y-95874558D01*
X145694661Y-95874560D01*
X145629967Y-95974946D01*
X145581785Y-96014242D01*
X145545406Y-96021050D01*
X142179933Y-96021050D01*
X142171165Y-96020667D01*
X142140601Y-96017993D01*
X142131833Y-96017226D01*
X142123331Y-96019504D01*
X142093708Y-96027441D01*
X142085142Y-96029341D01*
X142054913Y-96034671D01*
X142054911Y-96034672D01*
X142046249Y-96036199D01*
X142038631Y-96040597D01*
X142033057Y-96042626D01*
X142027682Y-96045133D01*
X142019184Y-96047410D01*
X142011974Y-96052459D01*
X142011973Y-96052459D01*
X141986842Y-96070055D01*
X141979443Y-96074769D01*
X141952875Y-96090109D01*
X141945251Y-96094511D01*
X141939594Y-96101253D01*
X141919868Y-96124761D01*
X141913939Y-96131231D01*
X141184334Y-96860836D01*
X141128936Y-96889062D01*
X141079452Y-96884471D01*
X141065216Y-96879402D01*
X141045433Y-96877043D01*
X141040501Y-96876455D01*
X140896423Y-96859275D01*
X140890828Y-96859863D01*
X140890825Y-96859863D01*
X140732957Y-96876455D01*
X140732954Y-96876456D01*
X140727366Y-96877043D01*
X140722049Y-96878853D01*
X140722045Y-96878854D01*
X140571771Y-96930012D01*
X140571769Y-96930013D01*
X140566446Y-96931825D01*
X140421662Y-97020897D01*
X140300209Y-97139831D01*
X140297163Y-97144558D01*
X140297161Y-97144560D01*
X140250037Y-97217683D01*
X140208125Y-97282718D01*
X140149986Y-97442456D01*
X140149281Y-97448033D01*
X140149281Y-97448035D01*
X140148677Y-97452821D01*
X140128680Y-97611104D01*
X139011600Y-97611104D01*
X139011600Y-90409196D01*
X142482599Y-90409196D01*
X142482977Y-90415338D01*
X142490320Y-90474875D01*
X142493771Y-90487945D01*
X142541173Y-90602103D01*
X142547984Y-90613760D01*
X142584499Y-90660412D01*
X142588525Y-90664959D01*
X143164763Y-91241196D01*
X143169379Y-91245277D01*
X143216668Y-91282183D01*
X143228349Y-91288984D01*
X143342591Y-91336188D01*
X143355648Y-91339613D01*
X143414450Y-91346781D01*
X143420524Y-91347150D01*
X143583867Y-91347150D01*
X143596757Y-91342962D01*
X143599800Y-91338773D01*
X143599800Y-91331218D01*
X144056200Y-91331218D01*
X144060388Y-91344108D01*
X144064577Y-91347151D01*
X144235446Y-91347151D01*
X144241588Y-91346773D01*
X144301125Y-91339430D01*
X144314195Y-91335979D01*
X144428353Y-91288577D01*
X144440010Y-91281766D01*
X144486662Y-91245251D01*
X144491209Y-91241225D01*
X145067446Y-90664987D01*
X145071527Y-90660371D01*
X145108433Y-90613082D01*
X145115234Y-90601401D01*
X145162438Y-90487159D01*
X145165863Y-90474102D01*
X145173031Y-90415300D01*
X145173400Y-90409226D01*
X145173400Y-90409196D01*
X151848899Y-90409196D01*
X151849277Y-90415338D01*
X151856620Y-90474875D01*
X151860071Y-90487945D01*
X151907473Y-90602103D01*
X151914284Y-90613760D01*
X151950799Y-90660412D01*
X151954825Y-90664959D01*
X152531063Y-91241196D01*
X152535679Y-91245277D01*
X152582968Y-91282183D01*
X152594649Y-91288984D01*
X152708891Y-91336188D01*
X152721948Y-91339613D01*
X152780750Y-91346781D01*
X152786824Y-91347150D01*
X152950167Y-91347150D01*
X152963057Y-91342962D01*
X152966100Y-91338773D01*
X152966100Y-91331218D01*
X153422500Y-91331218D01*
X153426688Y-91344108D01*
X153430877Y-91347151D01*
X153601746Y-91347151D01*
X153607888Y-91346773D01*
X153667425Y-91339430D01*
X153680495Y-91335979D01*
X153794653Y-91288577D01*
X153806310Y-91281766D01*
X153852962Y-91245251D01*
X153857509Y-91241225D01*
X154433746Y-90664987D01*
X154437827Y-90660371D01*
X154474733Y-90613082D01*
X154481534Y-90601401D01*
X154528738Y-90487159D01*
X154532163Y-90474102D01*
X154539331Y-90415300D01*
X154539700Y-90409226D01*
X154539700Y-90245883D01*
X154535512Y-90232993D01*
X154531323Y-90229950D01*
X153438433Y-90229950D01*
X153425543Y-90234138D01*
X153422500Y-90238327D01*
X153422500Y-91331218D01*
X152966100Y-91331218D01*
X152966100Y-90245883D01*
X152961912Y-90232993D01*
X152957723Y-90229950D01*
X151864832Y-90229950D01*
X151851942Y-90234138D01*
X151848899Y-90238327D01*
X151848899Y-90409196D01*
X145173400Y-90409196D01*
X145173400Y-90245883D01*
X145169212Y-90232993D01*
X145165023Y-90229950D01*
X144072133Y-90229950D01*
X144059243Y-90234138D01*
X144056200Y-90238327D01*
X144056200Y-91331218D01*
X143599800Y-91331218D01*
X143599800Y-90245883D01*
X143595612Y-90232993D01*
X143591423Y-90229950D01*
X142498532Y-90229950D01*
X142485642Y-90234138D01*
X142482599Y-90238327D01*
X142482599Y-90409196D01*
X139011600Y-90409196D01*
X139011600Y-89757617D01*
X142482600Y-89757617D01*
X142486788Y-89770507D01*
X142490977Y-89773550D01*
X145157468Y-89773550D01*
X145170358Y-89769362D01*
X145173401Y-89765173D01*
X145173401Y-89757617D01*
X151848900Y-89757617D01*
X151853088Y-89770507D01*
X151857277Y-89773550D01*
X154523768Y-89773550D01*
X154536658Y-89769362D01*
X154539701Y-89765173D01*
X154539701Y-89594304D01*
X154539323Y-89588162D01*
X154531980Y-89528625D01*
X154528529Y-89515555D01*
X154481127Y-89401397D01*
X154474316Y-89389740D01*
X154437801Y-89343088D01*
X154433775Y-89338541D01*
X153857537Y-88762304D01*
X153852921Y-88758223D01*
X153805632Y-88721317D01*
X153793951Y-88714515D01*
X153714599Y-88681728D01*
X153667286Y-88641390D01*
X153652719Y-88580946D01*
X153676462Y-88523484D01*
X153688709Y-88511458D01*
X153692322Y-88509040D01*
X154241590Y-87959770D01*
X154257982Y-87935161D01*
X154269837Y-87917363D01*
X154269837Y-87917362D01*
X154275320Y-87909131D01*
X154287000Y-87850142D01*
X154287000Y-87073358D01*
X154275043Y-87013699D01*
X154241590Y-86963728D01*
X153692320Y-86414460D01*
X153641681Y-86380730D01*
X153599567Y-86372391D01*
X153587521Y-86370006D01*
X153587519Y-86370006D01*
X153582692Y-86369050D01*
X152805908Y-86369050D01*
X152746249Y-86381007D01*
X152696278Y-86414460D01*
X152147010Y-86963730D01*
X152144250Y-86967874D01*
X152119202Y-87005479D01*
X152113280Y-87014369D01*
X152101600Y-87073358D01*
X152101600Y-87850142D01*
X152113557Y-87909801D01*
X152147010Y-87959772D01*
X152696280Y-88509040D01*
X152699515Y-88511194D01*
X152732886Y-88563242D01*
X152729271Y-88625311D01*
X152689863Y-88673401D01*
X152674143Y-88681622D01*
X152593947Y-88714922D01*
X152582290Y-88721734D01*
X152535638Y-88758249D01*
X152531091Y-88762275D01*
X151954854Y-89338513D01*
X151950773Y-89343129D01*
X151913867Y-89390418D01*
X151907066Y-89402099D01*
X151859862Y-89516341D01*
X151856437Y-89529398D01*
X151849269Y-89588200D01*
X151848900Y-89594274D01*
X151848900Y-89757617D01*
X145173401Y-89757617D01*
X145173401Y-89594304D01*
X145173023Y-89588162D01*
X145165680Y-89528625D01*
X145162229Y-89515555D01*
X145114827Y-89401397D01*
X145108016Y-89389740D01*
X145071501Y-89343088D01*
X145067475Y-89338541D01*
X144491237Y-88762304D01*
X144486621Y-88758223D01*
X144439332Y-88721317D01*
X144427651Y-88714515D01*
X144348299Y-88681728D01*
X144300986Y-88641390D01*
X144286419Y-88580946D01*
X144310162Y-88523484D01*
X144322409Y-88511458D01*
X144326022Y-88509040D01*
X144875290Y-87959770D01*
X144891682Y-87935161D01*
X144903537Y-87917363D01*
X144903537Y-87917362D01*
X144909020Y-87909131D01*
X144920700Y-87850142D01*
X144920700Y-87073358D01*
X144908743Y-87013699D01*
X144875290Y-86963728D01*
X144326020Y-86414460D01*
X144275381Y-86380730D01*
X144233267Y-86372391D01*
X144221221Y-86370006D01*
X144221219Y-86370006D01*
X144216392Y-86369050D01*
X143439608Y-86369050D01*
X143379949Y-86381007D01*
X143329978Y-86414460D01*
X142780710Y-86963730D01*
X142777950Y-86967874D01*
X142752902Y-87005479D01*
X142746980Y-87014369D01*
X142735300Y-87073358D01*
X142735300Y-87850142D01*
X142747257Y-87909801D01*
X142780710Y-87959772D01*
X143329980Y-88509040D01*
X143333215Y-88511194D01*
X143366586Y-88563242D01*
X143362971Y-88625311D01*
X143323563Y-88673401D01*
X143307843Y-88681622D01*
X143227647Y-88714922D01*
X143215990Y-88721734D01*
X143169338Y-88758249D01*
X143164791Y-88762275D01*
X142588554Y-89338513D01*
X142584473Y-89343129D01*
X142547567Y-89390418D01*
X142540766Y-89402099D01*
X142493562Y-89516341D01*
X142490137Y-89529398D01*
X142482969Y-89588200D01*
X142482600Y-89594274D01*
X142482600Y-89757617D01*
X139011600Y-89757617D01*
X139011600Y-84286750D01*
X142472341Y-84286750D01*
X142492937Y-84522158D01*
X142554097Y-84750413D01*
X142653965Y-84964579D01*
X142656480Y-84968171D01*
X142656483Y-84968176D01*
X142656484Y-84968177D01*
X142789505Y-85158151D01*
X142956599Y-85325245D01*
X142960193Y-85327762D01*
X142960196Y-85327764D01*
X143146574Y-85458267D01*
X143146579Y-85458270D01*
X143150171Y-85460785D01*
X143364337Y-85560653D01*
X143368584Y-85561791D01*
X143588344Y-85620675D01*
X143588347Y-85620675D01*
X143592592Y-85621813D01*
X143688343Y-85630190D01*
X143766848Y-85637059D01*
X143766854Y-85637059D01*
X143769034Y-85637250D01*
X143886966Y-85637250D01*
X143889146Y-85637059D01*
X143889152Y-85637059D01*
X143967657Y-85630190D01*
X144063408Y-85621813D01*
X144067653Y-85620675D01*
X144067656Y-85620675D01*
X144287416Y-85561791D01*
X144291663Y-85560653D01*
X144505829Y-85460785D01*
X144509421Y-85458270D01*
X144509426Y-85458267D01*
X144695804Y-85327764D01*
X144695807Y-85327762D01*
X144699401Y-85325245D01*
X144866495Y-85158151D01*
X145002035Y-84964580D01*
X145101903Y-84750413D01*
X145163063Y-84522158D01*
X145183659Y-84286750D01*
X151838641Y-84286750D01*
X151859237Y-84522158D01*
X151920397Y-84750413D01*
X152020265Y-84964579D01*
X152022780Y-84968171D01*
X152022783Y-84968176D01*
X152022784Y-84968177D01*
X152155805Y-85158151D01*
X152322899Y-85325245D01*
X152326493Y-85327762D01*
X152326496Y-85327764D01*
X152512874Y-85458267D01*
X152512879Y-85458270D01*
X152516471Y-85460785D01*
X152730637Y-85560653D01*
X152734884Y-85561791D01*
X152954644Y-85620675D01*
X152954647Y-85620675D01*
X152958892Y-85621813D01*
X153054643Y-85630190D01*
X153133148Y-85637059D01*
X153133154Y-85637059D01*
X153135334Y-85637250D01*
X153253266Y-85637250D01*
X153255446Y-85637059D01*
X153255452Y-85637059D01*
X153333957Y-85630190D01*
X153429708Y-85621813D01*
X153433953Y-85620675D01*
X153433956Y-85620675D01*
X153653716Y-85561791D01*
X153657963Y-85560653D01*
X153872129Y-85460785D01*
X153875721Y-85458270D01*
X153875726Y-85458267D01*
X154062104Y-85327764D01*
X154062107Y-85327762D01*
X154065701Y-85325245D01*
X154232795Y-85158151D01*
X154368335Y-84964580D01*
X154468203Y-84750413D01*
X154529363Y-84522158D01*
X154549959Y-84286750D01*
X154529363Y-84051342D01*
X154468203Y-83823087D01*
X154368335Y-83608921D01*
X154365820Y-83605329D01*
X154365817Y-83605324D01*
X154235314Y-83418946D01*
X154235312Y-83418943D01*
X154232795Y-83415349D01*
X154065701Y-83248255D01*
X154062107Y-83245738D01*
X154062104Y-83245736D01*
X153875726Y-83115233D01*
X153875721Y-83115230D01*
X153872129Y-83112715D01*
X153657963Y-83012847D01*
X153653716Y-83011709D01*
X153433956Y-82952825D01*
X153433953Y-82952825D01*
X153429708Y-82951687D01*
X153333957Y-82943310D01*
X153255452Y-82936441D01*
X153255446Y-82936441D01*
X153253266Y-82936250D01*
X153135334Y-82936250D01*
X153133154Y-82936441D01*
X153133148Y-82936441D01*
X153054643Y-82943310D01*
X152958892Y-82951687D01*
X152954647Y-82952825D01*
X152954644Y-82952825D01*
X152734884Y-83011709D01*
X152730637Y-83012847D01*
X152516471Y-83112715D01*
X152512879Y-83115230D01*
X152512874Y-83115233D01*
X152326496Y-83245736D01*
X152326493Y-83245738D01*
X152322899Y-83248255D01*
X152155805Y-83415349D01*
X152020265Y-83608920D01*
X151920397Y-83823087D01*
X151859237Y-84051342D01*
X151838641Y-84286750D01*
X145183659Y-84286750D01*
X145163063Y-84051342D01*
X145101903Y-83823087D01*
X145002035Y-83608921D01*
X144999520Y-83605329D01*
X144999517Y-83605324D01*
X144869014Y-83418946D01*
X144869012Y-83418943D01*
X144866495Y-83415349D01*
X144699401Y-83248255D01*
X144695807Y-83245738D01*
X144695804Y-83245736D01*
X144509426Y-83115233D01*
X144509421Y-83115230D01*
X144505829Y-83112715D01*
X144291663Y-83012847D01*
X144287416Y-83011709D01*
X144067656Y-82952825D01*
X144067653Y-82952825D01*
X144063408Y-82951687D01*
X143967657Y-82943310D01*
X143889152Y-82936441D01*
X143889146Y-82936441D01*
X143886966Y-82936250D01*
X143769034Y-82936250D01*
X143766854Y-82936441D01*
X143766848Y-82936441D01*
X143688343Y-82943310D01*
X143592592Y-82951687D01*
X143588347Y-82952825D01*
X143588344Y-82952825D01*
X143368584Y-83011709D01*
X143364337Y-83012847D01*
X143150171Y-83112715D01*
X143146579Y-83115230D01*
X143146574Y-83115233D01*
X142960196Y-83245736D01*
X142960193Y-83245738D01*
X142956599Y-83248255D01*
X142789505Y-83415349D01*
X142653965Y-83608920D01*
X142554097Y-83823087D01*
X142492937Y-84051342D01*
X142472341Y-84286750D01*
X139011600Y-84286750D01*
X139011600Y-77709196D01*
X142482599Y-77709196D01*
X142482977Y-77715338D01*
X142490320Y-77774875D01*
X142493771Y-77787945D01*
X142541173Y-77902103D01*
X142547984Y-77913760D01*
X142584499Y-77960412D01*
X142588525Y-77964959D01*
X143164763Y-78541196D01*
X143169379Y-78545277D01*
X143216668Y-78582183D01*
X143228349Y-78588985D01*
X143307701Y-78621772D01*
X143355014Y-78662110D01*
X143369581Y-78722554D01*
X143345838Y-78780016D01*
X143333591Y-78792042D01*
X143329978Y-78794460D01*
X142780710Y-79343730D01*
X142777950Y-79347874D01*
X142752902Y-79385479D01*
X142746980Y-79394369D01*
X142735300Y-79453358D01*
X142735300Y-80230142D01*
X142747257Y-80289801D01*
X142780710Y-80339772D01*
X143329980Y-80889040D01*
X143380619Y-80922770D01*
X143422733Y-80931109D01*
X143434779Y-80933494D01*
X143434781Y-80933494D01*
X143439608Y-80934450D01*
X144216392Y-80934450D01*
X144276051Y-80922493D01*
X144326022Y-80889040D01*
X144875290Y-80339770D01*
X144891682Y-80315161D01*
X144903537Y-80297363D01*
X144903537Y-80297362D01*
X144909020Y-80289131D01*
X144920700Y-80230142D01*
X144920700Y-79453358D01*
X144908743Y-79393699D01*
X144875290Y-79343728D01*
X144326020Y-78794460D01*
X144322785Y-78792306D01*
X144289414Y-78740258D01*
X144293029Y-78678189D01*
X144332437Y-78630099D01*
X144348157Y-78621878D01*
X144428353Y-78588578D01*
X144440010Y-78581766D01*
X144486662Y-78545251D01*
X144491209Y-78541225D01*
X145067446Y-77964987D01*
X145071527Y-77960371D01*
X145108433Y-77913082D01*
X145115234Y-77901401D01*
X145162438Y-77787159D01*
X145165863Y-77774102D01*
X145173031Y-77715300D01*
X145173400Y-77709226D01*
X145173400Y-77709196D01*
X151848899Y-77709196D01*
X151849277Y-77715338D01*
X151856620Y-77774875D01*
X151860071Y-77787945D01*
X151907473Y-77902103D01*
X151914284Y-77913760D01*
X151950799Y-77960412D01*
X151954825Y-77964959D01*
X152531063Y-78541196D01*
X152535679Y-78545277D01*
X152582968Y-78582183D01*
X152594649Y-78588985D01*
X152674001Y-78621772D01*
X152721314Y-78662110D01*
X152735881Y-78722554D01*
X152712138Y-78780016D01*
X152699891Y-78792042D01*
X152696278Y-78794460D01*
X152147010Y-79343730D01*
X152144250Y-79347874D01*
X152119202Y-79385479D01*
X152113280Y-79394369D01*
X152101600Y-79453358D01*
X152101600Y-80230142D01*
X152113557Y-80289801D01*
X152147010Y-80339772D01*
X152696280Y-80889040D01*
X152746919Y-80922770D01*
X152789033Y-80931109D01*
X152801079Y-80933494D01*
X152801081Y-80933494D01*
X152805908Y-80934450D01*
X153582692Y-80934450D01*
X153642351Y-80922493D01*
X153692322Y-80889040D01*
X154241590Y-80339770D01*
X154257982Y-80315161D01*
X154269837Y-80297363D01*
X154269837Y-80297362D01*
X154275320Y-80289131D01*
X154287000Y-80230142D01*
X154287000Y-79453358D01*
X154275043Y-79393699D01*
X154241590Y-79343728D01*
X153692320Y-78794460D01*
X153689085Y-78792306D01*
X153655714Y-78740258D01*
X153659329Y-78678189D01*
X153698737Y-78630099D01*
X153714457Y-78621878D01*
X153794653Y-78588578D01*
X153806310Y-78581766D01*
X153852962Y-78545251D01*
X153857509Y-78541225D01*
X154433746Y-77964987D01*
X154437827Y-77960371D01*
X154474733Y-77913082D01*
X154481534Y-77901401D01*
X154528738Y-77787159D01*
X154532163Y-77774102D01*
X154539331Y-77715300D01*
X154539700Y-77709226D01*
X154539700Y-77545883D01*
X154535512Y-77532993D01*
X154531323Y-77529950D01*
X151864832Y-77529950D01*
X151851942Y-77534138D01*
X151848899Y-77538327D01*
X151848899Y-77709196D01*
X145173400Y-77709196D01*
X145173400Y-77545883D01*
X145169212Y-77532993D01*
X145165023Y-77529950D01*
X142498532Y-77529950D01*
X142485642Y-77534138D01*
X142482599Y-77538327D01*
X142482599Y-77709196D01*
X139011600Y-77709196D01*
X139011600Y-75169196D01*
X142482599Y-75169196D01*
X142482977Y-75175338D01*
X142490320Y-75234875D01*
X142493771Y-75247945D01*
X142541173Y-75362103D01*
X142547984Y-75373760D01*
X142584499Y-75420412D01*
X142588525Y-75424959D01*
X143124181Y-75960615D01*
X143152407Y-76016013D01*
X143142681Y-76077421D01*
X143124181Y-76102885D01*
X142588554Y-76638513D01*
X142584473Y-76643129D01*
X142547567Y-76690418D01*
X142540766Y-76702099D01*
X142493562Y-76816341D01*
X142490137Y-76829398D01*
X142482969Y-76888200D01*
X142482600Y-76894274D01*
X142482600Y-77057617D01*
X142486788Y-77070507D01*
X142490977Y-77073550D01*
X143583867Y-77073550D01*
X143596757Y-77069362D01*
X143599800Y-77065173D01*
X143599800Y-77057617D01*
X144056200Y-77057617D01*
X144060388Y-77070507D01*
X144064577Y-77073550D01*
X145157468Y-77073550D01*
X145170358Y-77069362D01*
X145173401Y-77065173D01*
X145173401Y-77057617D01*
X151848900Y-77057617D01*
X151853088Y-77070507D01*
X151857277Y-77073550D01*
X154523768Y-77073550D01*
X154536658Y-77069362D01*
X154539701Y-77065173D01*
X154539701Y-76894304D01*
X154539323Y-76888162D01*
X154531980Y-76828625D01*
X154528529Y-76815555D01*
X154481127Y-76701397D01*
X154474316Y-76689740D01*
X154437801Y-76643088D01*
X154433775Y-76638541D01*
X153857537Y-76062304D01*
X153852921Y-76058223D01*
X153805632Y-76021317D01*
X153793951Y-76014515D01*
X153714599Y-75981728D01*
X153667286Y-75941390D01*
X153652719Y-75880946D01*
X153676462Y-75823484D01*
X153688709Y-75811458D01*
X153692322Y-75809040D01*
X154241590Y-75259770D01*
X154258687Y-75234102D01*
X154269837Y-75217363D01*
X154269837Y-75217362D01*
X154275320Y-75209131D01*
X154287000Y-75150142D01*
X154287000Y-74373358D01*
X154275043Y-74313699D01*
X154241590Y-74263728D01*
X153692320Y-73714460D01*
X153641681Y-73680730D01*
X153599567Y-73672391D01*
X153587521Y-73670006D01*
X153587519Y-73670006D01*
X153582692Y-73669050D01*
X152805908Y-73669050D01*
X152746249Y-73681007D01*
X152696278Y-73714460D01*
X152147010Y-74263730D01*
X152144250Y-74267874D01*
X152119202Y-74305479D01*
X152113280Y-74314369D01*
X152101600Y-74373358D01*
X152101600Y-75150142D01*
X152113557Y-75209801D01*
X152147010Y-75259772D01*
X152696280Y-75809040D01*
X152699515Y-75811194D01*
X152732886Y-75863242D01*
X152729271Y-75925311D01*
X152689863Y-75973401D01*
X152674143Y-75981622D01*
X152593947Y-76014922D01*
X152582290Y-76021734D01*
X152535638Y-76058249D01*
X152531091Y-76062275D01*
X151954854Y-76638513D01*
X151950773Y-76643129D01*
X151913867Y-76690418D01*
X151907066Y-76702099D01*
X151859862Y-76816341D01*
X151856437Y-76829398D01*
X151849269Y-76888200D01*
X151848900Y-76894274D01*
X151848900Y-77057617D01*
X145173401Y-77057617D01*
X145173401Y-76894304D01*
X145173023Y-76888162D01*
X145165680Y-76828625D01*
X145162229Y-76815555D01*
X145114827Y-76701397D01*
X145108016Y-76689740D01*
X145071501Y-76643088D01*
X145067475Y-76638541D01*
X144531819Y-76102885D01*
X144503593Y-76047487D01*
X144513319Y-75986079D01*
X144531819Y-75960615D01*
X145067446Y-75424987D01*
X145071527Y-75420371D01*
X145108433Y-75373082D01*
X145115234Y-75361401D01*
X145162438Y-75247159D01*
X145165863Y-75234102D01*
X145173031Y-75175300D01*
X145173400Y-75169226D01*
X145173400Y-75005883D01*
X145169212Y-74992993D01*
X145165023Y-74989950D01*
X144072133Y-74989950D01*
X144059243Y-74994138D01*
X144056200Y-74998327D01*
X144056200Y-77057617D01*
X143599800Y-77057617D01*
X143599800Y-75005883D01*
X143595612Y-74992993D01*
X143591423Y-74989950D01*
X142498532Y-74989950D01*
X142485642Y-74994138D01*
X142482599Y-74998327D01*
X142482599Y-75169196D01*
X139011600Y-75169196D01*
X139011600Y-74517617D01*
X142482600Y-74517617D01*
X142486788Y-74530507D01*
X142490977Y-74533550D01*
X143583867Y-74533550D01*
X143596757Y-74529362D01*
X143599800Y-74525173D01*
X143599800Y-74517617D01*
X144056200Y-74517617D01*
X144060388Y-74530507D01*
X144064577Y-74533550D01*
X145157468Y-74533550D01*
X145170358Y-74529362D01*
X145173401Y-74525173D01*
X145173401Y-74354304D01*
X145173023Y-74348162D01*
X145165680Y-74288625D01*
X145162229Y-74275555D01*
X145114827Y-74161397D01*
X145108016Y-74149740D01*
X145071501Y-74103088D01*
X145067475Y-74098541D01*
X144491237Y-73522304D01*
X144486621Y-73518223D01*
X144439332Y-73481317D01*
X144427651Y-73474516D01*
X144313409Y-73427312D01*
X144300352Y-73423887D01*
X144241550Y-73416719D01*
X144235476Y-73416350D01*
X144072133Y-73416350D01*
X144059243Y-73420538D01*
X144056200Y-73424727D01*
X144056200Y-74517617D01*
X143599800Y-74517617D01*
X143599800Y-73432282D01*
X143595612Y-73419392D01*
X143591423Y-73416349D01*
X143420554Y-73416349D01*
X143414412Y-73416727D01*
X143354875Y-73424070D01*
X143341805Y-73427521D01*
X143227647Y-73474923D01*
X143215990Y-73481734D01*
X143169338Y-73518249D01*
X143164791Y-73522275D01*
X142588554Y-74098513D01*
X142584473Y-74103129D01*
X142547567Y-74150418D01*
X142540766Y-74162099D01*
X142493562Y-74276341D01*
X142490137Y-74289398D01*
X142482969Y-74348200D01*
X142482600Y-74354274D01*
X142482600Y-74517617D01*
X139011600Y-74517617D01*
X139011600Y-71586750D01*
X142472341Y-71586750D01*
X142492937Y-71822158D01*
X142554097Y-72050413D01*
X142653965Y-72264579D01*
X142656480Y-72268171D01*
X142656483Y-72268176D01*
X142656484Y-72268177D01*
X142789505Y-72458151D01*
X142956599Y-72625245D01*
X142960193Y-72627762D01*
X142960196Y-72627764D01*
X143146574Y-72758267D01*
X143146579Y-72758270D01*
X143150171Y-72760785D01*
X143364337Y-72860653D01*
X143368584Y-72861791D01*
X143588344Y-72920675D01*
X143588347Y-72920675D01*
X143592592Y-72921813D01*
X143688343Y-72930190D01*
X143766848Y-72937059D01*
X143766854Y-72937059D01*
X143769034Y-72937250D01*
X143886966Y-72937250D01*
X143889146Y-72937059D01*
X143889152Y-72937059D01*
X143967657Y-72930190D01*
X144063408Y-72921813D01*
X144067653Y-72920675D01*
X144067656Y-72920675D01*
X144287416Y-72861791D01*
X144291663Y-72860653D01*
X144505829Y-72760785D01*
X144509421Y-72758270D01*
X144509426Y-72758267D01*
X144695804Y-72627764D01*
X144695807Y-72627762D01*
X144699401Y-72625245D01*
X144866495Y-72458151D01*
X145002035Y-72264580D01*
X145101903Y-72050413D01*
X145163063Y-71822158D01*
X145183659Y-71586750D01*
X151838641Y-71586750D01*
X151859237Y-71822158D01*
X151920397Y-72050413D01*
X152020265Y-72264579D01*
X152022780Y-72268171D01*
X152022783Y-72268176D01*
X152022784Y-72268177D01*
X152155805Y-72458151D01*
X152322899Y-72625245D01*
X152326493Y-72627762D01*
X152326496Y-72627764D01*
X152512874Y-72758267D01*
X152512879Y-72758270D01*
X152516471Y-72760785D01*
X152730637Y-72860653D01*
X152734884Y-72861791D01*
X152954644Y-72920675D01*
X152954647Y-72920675D01*
X152958892Y-72921813D01*
X153054643Y-72930190D01*
X153133148Y-72937059D01*
X153133154Y-72937059D01*
X153135334Y-72937250D01*
X153253266Y-72937250D01*
X153255446Y-72937059D01*
X153255452Y-72937059D01*
X153333957Y-72930190D01*
X153429708Y-72921813D01*
X153433953Y-72920675D01*
X153433956Y-72920675D01*
X153653716Y-72861791D01*
X153657963Y-72860653D01*
X153872129Y-72760785D01*
X153875721Y-72758270D01*
X153875726Y-72758267D01*
X154062104Y-72627764D01*
X154062107Y-72627762D01*
X154065701Y-72625245D01*
X154232795Y-72458151D01*
X154368335Y-72264580D01*
X154468203Y-72050413D01*
X154529363Y-71822158D01*
X154549959Y-71586750D01*
X154529363Y-71351342D01*
X154468203Y-71123087D01*
X154368335Y-70908921D01*
X154365820Y-70905329D01*
X154365817Y-70905324D01*
X154235314Y-70718946D01*
X154235312Y-70718943D01*
X154232795Y-70715349D01*
X154065701Y-70548255D01*
X154062107Y-70545738D01*
X154062104Y-70545736D01*
X153875726Y-70415233D01*
X153875721Y-70415230D01*
X153872129Y-70412715D01*
X153657963Y-70312847D01*
X153653716Y-70311709D01*
X153433956Y-70252825D01*
X153433953Y-70252825D01*
X153429708Y-70251687D01*
X153333957Y-70243310D01*
X153255452Y-70236441D01*
X153255446Y-70236441D01*
X153253266Y-70236250D01*
X153135334Y-70236250D01*
X153133154Y-70236441D01*
X153133148Y-70236441D01*
X153054643Y-70243310D01*
X152958892Y-70251687D01*
X152954647Y-70252825D01*
X152954644Y-70252825D01*
X152734884Y-70311709D01*
X152730637Y-70312847D01*
X152516471Y-70412715D01*
X152512879Y-70415230D01*
X152512874Y-70415233D01*
X152326496Y-70545736D01*
X152326493Y-70545738D01*
X152322899Y-70548255D01*
X152155805Y-70715349D01*
X152020265Y-70908920D01*
X151920397Y-71123087D01*
X151859237Y-71351342D01*
X151838641Y-71586750D01*
X145183659Y-71586750D01*
X145163063Y-71351342D01*
X145101903Y-71123087D01*
X145002035Y-70908921D01*
X144999520Y-70905329D01*
X144999517Y-70905324D01*
X144869014Y-70718946D01*
X144869012Y-70718943D01*
X144866495Y-70715349D01*
X144699401Y-70548255D01*
X144695807Y-70545738D01*
X144695804Y-70545736D01*
X144509426Y-70415233D01*
X144509421Y-70415230D01*
X144505829Y-70412715D01*
X144291663Y-70312847D01*
X144287416Y-70311709D01*
X144067656Y-70252825D01*
X144067653Y-70252825D01*
X144063408Y-70251687D01*
X143967657Y-70243310D01*
X143889152Y-70236441D01*
X143889146Y-70236441D01*
X143886966Y-70236250D01*
X143769034Y-70236250D01*
X143766854Y-70236441D01*
X143766848Y-70236441D01*
X143688343Y-70243310D01*
X143592592Y-70251687D01*
X143588347Y-70252825D01*
X143588344Y-70252825D01*
X143368584Y-70311709D01*
X143364337Y-70312847D01*
X143150171Y-70412715D01*
X143146579Y-70415230D01*
X143146574Y-70415233D01*
X142960196Y-70545736D01*
X142960193Y-70545738D01*
X142956599Y-70548255D01*
X142789505Y-70715349D01*
X142653965Y-70908920D01*
X142554097Y-71123087D01*
X142492937Y-71351342D01*
X142472341Y-71586750D01*
X139011600Y-71586750D01*
X139011600Y-67530142D01*
X142735300Y-67530142D01*
X142747257Y-67589801D01*
X142780710Y-67639772D01*
X143329980Y-68189040D01*
X143380619Y-68222770D01*
X143422733Y-68231109D01*
X143434779Y-68233494D01*
X143434781Y-68233494D01*
X143439608Y-68234450D01*
X144216392Y-68234450D01*
X144276051Y-68222493D01*
X144326022Y-68189040D01*
X144875290Y-67639770D01*
X144891682Y-67615161D01*
X144903537Y-67597363D01*
X144903537Y-67597362D01*
X144909020Y-67589131D01*
X144920700Y-67530142D01*
X152101600Y-67530142D01*
X152113557Y-67589801D01*
X152147010Y-67639772D01*
X152696280Y-68189040D01*
X152746919Y-68222770D01*
X152789033Y-68231109D01*
X152801079Y-68233494D01*
X152801081Y-68233494D01*
X152805908Y-68234450D01*
X153582692Y-68234450D01*
X153642351Y-68222493D01*
X153692322Y-68189040D01*
X154241590Y-67639770D01*
X154257982Y-67615161D01*
X154269837Y-67597363D01*
X154269837Y-67597362D01*
X154275320Y-67589131D01*
X154287000Y-67530142D01*
X154287000Y-66753358D01*
X154275043Y-66693699D01*
X154241590Y-66643728D01*
X153692320Y-66094460D01*
X153641681Y-66060730D01*
X153599567Y-66052391D01*
X153587521Y-66050006D01*
X153587519Y-66050006D01*
X153582692Y-66049050D01*
X152805908Y-66049050D01*
X152746249Y-66061007D01*
X152696278Y-66094460D01*
X152147010Y-66643730D01*
X152144250Y-66647874D01*
X152119202Y-66685479D01*
X152113280Y-66694369D01*
X152101600Y-66753358D01*
X152101600Y-67530142D01*
X144920700Y-67530142D01*
X144920700Y-66753358D01*
X144908743Y-66693699D01*
X144875290Y-66643728D01*
X144326020Y-66094460D01*
X144275381Y-66060730D01*
X144233267Y-66052391D01*
X144221221Y-66050006D01*
X144221219Y-66050006D01*
X144216392Y-66049050D01*
X143439608Y-66049050D01*
X143379949Y-66061007D01*
X143329978Y-66094460D01*
X142780710Y-66643730D01*
X142777950Y-66647874D01*
X142752902Y-66685479D01*
X142746980Y-66694369D01*
X142735300Y-66753358D01*
X142735300Y-67530142D01*
X139011600Y-67530142D01*
X139011600Y-63604411D01*
X146427800Y-63604411D01*
X146439757Y-63664070D01*
X146473210Y-63714041D01*
X146858811Y-64099640D01*
X146909450Y-64133370D01*
X146939763Y-64139372D01*
X146963610Y-64144094D01*
X146963612Y-64144094D01*
X146968439Y-64145050D01*
X147513761Y-64145050D01*
X147573420Y-64133093D01*
X147623391Y-64099640D01*
X147720561Y-64002470D01*
X148005469Y-63717560D01*
X148008990Y-63714039D01*
X148035875Y-63673676D01*
X148037237Y-63671632D01*
X148037237Y-63671631D01*
X148042720Y-63663400D01*
X148054400Y-63604411D01*
X148967800Y-63604411D01*
X148979757Y-63664070D01*
X149013210Y-63714041D01*
X149398811Y-64099640D01*
X149449450Y-64133370D01*
X149479763Y-64139372D01*
X149503610Y-64144094D01*
X149503612Y-64144094D01*
X149508439Y-64145050D01*
X150053761Y-64145050D01*
X150113420Y-64133093D01*
X150163391Y-64099640D01*
X150260561Y-64002470D01*
X150545469Y-63717560D01*
X150548990Y-63714039D01*
X150575875Y-63673676D01*
X150577237Y-63671632D01*
X150577237Y-63671631D01*
X150582720Y-63663400D01*
X150594400Y-63604411D01*
X150594400Y-63059089D01*
X150582443Y-62999430D01*
X150548990Y-62949459D01*
X150163389Y-62563860D01*
X150112750Y-62530130D01*
X150070636Y-62521791D01*
X150058590Y-62519406D01*
X150058588Y-62519406D01*
X150053761Y-62518450D01*
X149508439Y-62518450D01*
X149448780Y-62530407D01*
X149398809Y-62563860D01*
X149013210Y-62949461D01*
X149010450Y-62953605D01*
X148985402Y-62991210D01*
X148979480Y-63000100D01*
X148977559Y-63009804D01*
X148969606Y-63049970D01*
X148967800Y-63059089D01*
X148967800Y-63604411D01*
X148054400Y-63604411D01*
X148054400Y-63059089D01*
X148042443Y-62999430D01*
X148008990Y-62949459D01*
X147623389Y-62563860D01*
X147572750Y-62530130D01*
X147530636Y-62521791D01*
X147518590Y-62519406D01*
X147518588Y-62519406D01*
X147513761Y-62518450D01*
X146968439Y-62518450D01*
X146908780Y-62530407D01*
X146858809Y-62563860D01*
X146473210Y-62949461D01*
X146470450Y-62953605D01*
X146445402Y-62991210D01*
X146439480Y-63000100D01*
X146437559Y-63009804D01*
X146429606Y-63049970D01*
X146427800Y-63059089D01*
X146427800Y-63604411D01*
X139011600Y-63604411D01*
X139011600Y-62686104D01*
X139493680Y-62686104D01*
X139510268Y-62855281D01*
X139563925Y-63016580D01*
X139651984Y-63161982D01*
X139655886Y-63166022D01*
X139655887Y-63166024D01*
X139766163Y-63280219D01*
X139766167Y-63280222D01*
X139770068Y-63284262D01*
X139774771Y-63287340D01*
X139774774Y-63287342D01*
X139870038Y-63349680D01*
X139912309Y-63377341D01*
X139917582Y-63379302D01*
X139917584Y-63379303D01*
X139975756Y-63400937D01*
X140071636Y-63436595D01*
X140077214Y-63437339D01*
X140077217Y-63437340D01*
X140234554Y-63458333D01*
X140234556Y-63458333D01*
X140240132Y-63459077D01*
X140324776Y-63451374D01*
X140403819Y-63444180D01*
X140403820Y-63444180D01*
X140409421Y-63443670D01*
X140571090Y-63391141D01*
X140630678Y-63355619D01*
X140712274Y-63306978D01*
X140712276Y-63306977D01*
X140717103Y-63304099D01*
X140840204Y-63186872D01*
X140934275Y-63045284D01*
X140987049Y-62906355D01*
X140992641Y-62891635D01*
X140992641Y-62891634D01*
X140994639Y-62886375D01*
X141018297Y-62718040D01*
X141018594Y-62696750D01*
X140999646Y-62527821D01*
X140971694Y-62447554D01*
X140945593Y-62372602D01*
X140945593Y-62372601D01*
X140943742Y-62367287D01*
X140853662Y-62223129D01*
X140733882Y-62102509D01*
X140590355Y-62011425D01*
X140585057Y-62009538D01*
X140585054Y-62009537D01*
X140503247Y-61980407D01*
X140430216Y-61954402D01*
X140424622Y-61953735D01*
X140423130Y-61953385D01*
X140369948Y-61921178D01*
X140345853Y-61863863D01*
X140345500Y-61855442D01*
X140345500Y-58558604D01*
X146796180Y-58558604D01*
X146812768Y-58727781D01*
X146866425Y-58889080D01*
X146954484Y-59034482D01*
X146958386Y-59038522D01*
X146958387Y-59038524D01*
X147068663Y-59152719D01*
X147068667Y-59152722D01*
X147072568Y-59156762D01*
X147077271Y-59159840D01*
X147077274Y-59159842D01*
X147172538Y-59222180D01*
X147214809Y-59249841D01*
X147220082Y-59251802D01*
X147220084Y-59251803D01*
X147310127Y-59285290D01*
X147374136Y-59309095D01*
X147379714Y-59309839D01*
X147379717Y-59309840D01*
X147537054Y-59330833D01*
X147537056Y-59330833D01*
X147542632Y-59331577D01*
X147627276Y-59323874D01*
X147706319Y-59316680D01*
X147706320Y-59316680D01*
X147711921Y-59316170D01*
X147748330Y-59304340D01*
X147810502Y-59304339D01*
X147850551Y-59328881D01*
X150803939Y-62282269D01*
X150809868Y-62288739D01*
X150835251Y-62318989D01*
X150842874Y-62323390D01*
X150842875Y-62323391D01*
X150869443Y-62338731D01*
X150876842Y-62343445D01*
X150901973Y-62361041D01*
X150909184Y-62366090D01*
X150917682Y-62368367D01*
X150923057Y-62370874D01*
X150928631Y-62372903D01*
X150936249Y-62377301D01*
X150944911Y-62378828D01*
X150944913Y-62378829D01*
X150975142Y-62384159D01*
X150983708Y-62386059D01*
X151013331Y-62393996D01*
X151021833Y-62396274D01*
X151030601Y-62395507D01*
X151061165Y-62392833D01*
X151069933Y-62392450D01*
X152618650Y-62392450D01*
X152677781Y-62411663D01*
X152689785Y-62421915D01*
X153623489Y-63355619D01*
X153651715Y-63411017D01*
X153646887Y-63461160D01*
X153643686Y-63469956D01*
X153642981Y-63475533D01*
X153642981Y-63475535D01*
X153626083Y-63609294D01*
X153622380Y-63638604D01*
X153638968Y-63807781D01*
X153692625Y-63969080D01*
X153695540Y-63973893D01*
X153773352Y-64102375D01*
X153780684Y-64114482D01*
X153784586Y-64118522D01*
X153784587Y-64118524D01*
X153894863Y-64232719D01*
X153894867Y-64232722D01*
X153898768Y-64236762D01*
X153903471Y-64239840D01*
X153903474Y-64239842D01*
X153998738Y-64302180D01*
X154041009Y-64329841D01*
X154046282Y-64331802D01*
X154046284Y-64331803D01*
X154147553Y-64369465D01*
X154200336Y-64389095D01*
X154205914Y-64389839D01*
X154205917Y-64389840D01*
X154363254Y-64410833D01*
X154363256Y-64410833D01*
X154368832Y-64411577D01*
X154453476Y-64403874D01*
X154532519Y-64396680D01*
X154532520Y-64396680D01*
X154538121Y-64396170D01*
X154699790Y-64343641D01*
X154728108Y-64326760D01*
X154840974Y-64259478D01*
X154840976Y-64259477D01*
X154845803Y-64256599D01*
X154968904Y-64139372D01*
X155062975Y-63997784D01*
X155123339Y-63838875D01*
X155146997Y-63670540D01*
X155147294Y-63649250D01*
X155128346Y-63480321D01*
X155093168Y-63379303D01*
X155074293Y-63325102D01*
X155074293Y-63325101D01*
X155072442Y-63319787D01*
X154991809Y-63190747D01*
X154985344Y-63180401D01*
X154985343Y-63180400D01*
X154982362Y-63175629D01*
X154862582Y-63055009D01*
X154719055Y-62963925D01*
X154713757Y-62962038D01*
X154713754Y-62962037D01*
X154564213Y-62908788D01*
X154564212Y-62908788D01*
X154558916Y-62906902D01*
X154539133Y-62904543D01*
X154534201Y-62903955D01*
X154390123Y-62886775D01*
X154384528Y-62887363D01*
X154384525Y-62887363D01*
X154226657Y-62903955D01*
X154226654Y-62903956D01*
X154221066Y-62904543D01*
X154215747Y-62906354D01*
X154215741Y-62906355D01*
X154195822Y-62913136D01*
X154133653Y-62914004D01*
X154092268Y-62889038D01*
X153078348Y-61875118D01*
X153050122Y-61819720D01*
X153059848Y-61758312D01*
X153091508Y-61724477D01*
X153090294Y-61722878D01*
X153094773Y-61719478D01*
X153099603Y-61716599D01*
X153222704Y-61599372D01*
X153316775Y-61457784D01*
X153377139Y-61298875D01*
X153400797Y-61130540D01*
X153401094Y-61109250D01*
X153382146Y-60940321D01*
X153326242Y-60779787D01*
X153259814Y-60673480D01*
X153239144Y-60640401D01*
X153239143Y-60640400D01*
X153236162Y-60635629D01*
X153204578Y-60603823D01*
X153120344Y-60518999D01*
X153116382Y-60515009D01*
X152972855Y-60423925D01*
X152967557Y-60422038D01*
X152967554Y-60422037D01*
X152818013Y-60368788D01*
X152818012Y-60368788D01*
X152812716Y-60366902D01*
X152792933Y-60364543D01*
X152788001Y-60363955D01*
X152643923Y-60346775D01*
X152638328Y-60347363D01*
X152638325Y-60347363D01*
X152480457Y-60363955D01*
X152480454Y-60363956D01*
X152474866Y-60364543D01*
X152469549Y-60366353D01*
X152469545Y-60366354D01*
X152319271Y-60417512D01*
X152319269Y-60417513D01*
X152313946Y-60419325D01*
X152169162Y-60508397D01*
X152089357Y-60586547D01*
X152033666Y-60614192D01*
X151972363Y-60603823D01*
X151947836Y-60585806D01*
X150225602Y-58863572D01*
X150197376Y-58808174D01*
X150199298Y-58767416D01*
X150200139Y-58764139D01*
X150202139Y-58758875D01*
X150225797Y-58590540D01*
X150226094Y-58569250D01*
X150207146Y-58400321D01*
X150151242Y-58239787D01*
X150061162Y-58095629D01*
X149941382Y-57975009D01*
X149797855Y-57883925D01*
X149792557Y-57882038D01*
X149792554Y-57882037D01*
X149643013Y-57828788D01*
X149643012Y-57828788D01*
X149637716Y-57826902D01*
X149617933Y-57824543D01*
X149613001Y-57823955D01*
X149468923Y-57806775D01*
X149463328Y-57807363D01*
X149463325Y-57807363D01*
X149305457Y-57823955D01*
X149305454Y-57823956D01*
X149299866Y-57824543D01*
X149294549Y-57826353D01*
X149294545Y-57826354D01*
X149144271Y-57877512D01*
X149144269Y-57877513D01*
X149138946Y-57879325D01*
X148994162Y-57968397D01*
X148872709Y-58087331D01*
X148780625Y-58230218D01*
X148722486Y-58389956D01*
X148721781Y-58395533D01*
X148721781Y-58395535D01*
X148721177Y-58400321D01*
X148701180Y-58558604D01*
X148717768Y-58727781D01*
X148771425Y-58889080D01*
X148859484Y-59034482D01*
X148863386Y-59038522D01*
X148863387Y-59038524D01*
X148973663Y-59152719D01*
X148973667Y-59152722D01*
X148977568Y-59156762D01*
X148982271Y-59159840D01*
X148982274Y-59159842D01*
X149077538Y-59222180D01*
X149119809Y-59249841D01*
X149125082Y-59251802D01*
X149125084Y-59251803D01*
X149215127Y-59285290D01*
X149279136Y-59309095D01*
X149284714Y-59309839D01*
X149284717Y-59309840D01*
X149442054Y-59330833D01*
X149442056Y-59330833D01*
X149447632Y-59331577D01*
X149532276Y-59323874D01*
X149611319Y-59316680D01*
X149611320Y-59316680D01*
X149616921Y-59316170D01*
X149653330Y-59304340D01*
X149715502Y-59304339D01*
X149755551Y-59328881D01*
X151756439Y-61329769D01*
X151762368Y-61336239D01*
X151787751Y-61366489D01*
X151795371Y-61370888D01*
X151795374Y-61370891D01*
X151821941Y-61386229D01*
X151829336Y-61390940D01*
X151861683Y-61413590D01*
X151870181Y-61415867D01*
X151875557Y-61418374D01*
X151881130Y-61420402D01*
X151888749Y-61424801D01*
X151897413Y-61426329D01*
X151897414Y-61426329D01*
X151905479Y-61427751D01*
X151960376Y-61456941D01*
X151974055Y-61474702D01*
X152034484Y-61574482D01*
X152033292Y-61575205D01*
X152051964Y-61627641D01*
X152034410Y-61687285D01*
X151985150Y-61725221D01*
X151951403Y-61731050D01*
X151229750Y-61731050D01*
X151170619Y-61711837D01*
X151158615Y-61701585D01*
X148320602Y-58863572D01*
X148292376Y-58808174D01*
X148294298Y-58767416D01*
X148295139Y-58764139D01*
X148297139Y-58758875D01*
X148320797Y-58590540D01*
X148321094Y-58569250D01*
X148302146Y-58400321D01*
X148246242Y-58239787D01*
X148156162Y-58095629D01*
X148036382Y-57975009D01*
X147892855Y-57883925D01*
X147887557Y-57882038D01*
X147887554Y-57882037D01*
X147738013Y-57828788D01*
X147738012Y-57828788D01*
X147732716Y-57826902D01*
X147712933Y-57824543D01*
X147708001Y-57823955D01*
X147563923Y-57806775D01*
X147558328Y-57807363D01*
X147558325Y-57807363D01*
X147400457Y-57823955D01*
X147400454Y-57823956D01*
X147394866Y-57824543D01*
X147389549Y-57826353D01*
X147389545Y-57826354D01*
X147239271Y-57877512D01*
X147239269Y-57877513D01*
X147233946Y-57879325D01*
X147089162Y-57968397D01*
X146967709Y-58087331D01*
X146875625Y-58230218D01*
X146817486Y-58389956D01*
X146816781Y-58395533D01*
X146816781Y-58395535D01*
X146816177Y-58400321D01*
X146796180Y-58558604D01*
X140345500Y-58558604D01*
X140345500Y-58144463D01*
X140364713Y-58085332D01*
X140374965Y-58073328D01*
X141030179Y-57418115D01*
X141085577Y-57389889D01*
X141101314Y-57388650D01*
X151624972Y-57388650D01*
X151684103Y-57407863D01*
X151711023Y-57437139D01*
X151716984Y-57446982D01*
X151736498Y-57467189D01*
X151831163Y-57565219D01*
X151831167Y-57565222D01*
X151835068Y-57569262D01*
X151839771Y-57572340D01*
X151839774Y-57572342D01*
X151883505Y-57600958D01*
X151977309Y-57662341D01*
X151982582Y-57664302D01*
X151982584Y-57664303D01*
X152057325Y-57692099D01*
X152136636Y-57721595D01*
X152142214Y-57722339D01*
X152142217Y-57722340D01*
X152299554Y-57743333D01*
X152299556Y-57743333D01*
X152305132Y-57744077D01*
X152389777Y-57736373D01*
X152468819Y-57729180D01*
X152468820Y-57729180D01*
X152474421Y-57728670D01*
X152636090Y-57676141D01*
X152762210Y-57600958D01*
X152777274Y-57591978D01*
X152777276Y-57591977D01*
X152782103Y-57589099D01*
X152905204Y-57471872D01*
X152999275Y-57330284D01*
X153059639Y-57171375D01*
X153083297Y-57003040D01*
X153083594Y-56981750D01*
X153064646Y-56812821D01*
X153065508Y-56812724D01*
X153070708Y-56755603D01*
X153111663Y-56708824D01*
X153172987Y-56695117D01*
X153176843Y-56695495D01*
X153181666Y-56696450D01*
X154000534Y-56696450D01*
X154060193Y-56684493D01*
X154110164Y-56651040D01*
X154255867Y-56505337D01*
X154685669Y-56075533D01*
X154689190Y-56072012D01*
X154705582Y-56047403D01*
X154717437Y-56029605D01*
X154717437Y-56029604D01*
X154722920Y-56021373D01*
X154734600Y-55962384D01*
X154734600Y-55143516D01*
X154722643Y-55083857D01*
X154689190Y-55033886D01*
X154110162Y-54454860D01*
X154059523Y-54421130D01*
X154017409Y-54412791D01*
X154005363Y-54410406D01*
X154005361Y-54410406D01*
X154000534Y-54409450D01*
X153181666Y-54409450D01*
X153122007Y-54421407D01*
X153072036Y-54454860D01*
X152653611Y-54873287D01*
X152555710Y-54971188D01*
X152500312Y-54999414D01*
X152438904Y-54989688D01*
X152394940Y-54945725D01*
X152391666Y-54938630D01*
X152388730Y-54931559D01*
X152381916Y-54919898D01*
X152345401Y-54873246D01*
X152341375Y-54868699D01*
X151826761Y-54354085D01*
X151798535Y-54298687D01*
X151808261Y-54237279D01*
X151826761Y-54211815D01*
X152341346Y-53697229D01*
X152345427Y-53692613D01*
X152382333Y-53645324D01*
X152389135Y-53633642D01*
X152391671Y-53627504D01*
X152432009Y-53580191D01*
X152492453Y-53565624D01*
X152549915Y-53589367D01*
X152555782Y-53594786D01*
X152721382Y-53760385D01*
X153072038Y-54111040D01*
X153122677Y-54144770D01*
X153164791Y-54153109D01*
X153176837Y-54155494D01*
X153176839Y-54155494D01*
X153181666Y-54156450D01*
X154000534Y-54156450D01*
X154060193Y-54144493D01*
X154110164Y-54111040D01*
X154689190Y-53532012D01*
X154705582Y-53507403D01*
X154717437Y-53489605D01*
X154717437Y-53489604D01*
X154722920Y-53481373D01*
X154734600Y-53422384D01*
X154734600Y-52603516D01*
X154722643Y-52543857D01*
X154689190Y-52493886D01*
X154110162Y-51914860D01*
X154059523Y-51881130D01*
X154017409Y-51872791D01*
X154005363Y-51870406D01*
X154005361Y-51870406D01*
X154000534Y-51869450D01*
X153181666Y-51869450D01*
X153122007Y-51881407D01*
X153072036Y-51914860D01*
X152653611Y-52333287D01*
X152555710Y-52431188D01*
X152500312Y-52459414D01*
X152438904Y-52449688D01*
X152394940Y-52405725D01*
X152391666Y-52398630D01*
X152388730Y-52391559D01*
X152381916Y-52379898D01*
X152345401Y-52333246D01*
X152341375Y-52328699D01*
X151735379Y-51722704D01*
X151730763Y-51718623D01*
X151683474Y-51681717D01*
X151671793Y-51674916D01*
X151557551Y-51627712D01*
X151544494Y-51624287D01*
X151485692Y-51617119D01*
X151479618Y-51616750D01*
X151295233Y-51616750D01*
X151282343Y-51620938D01*
X151279300Y-51625127D01*
X151279300Y-55680550D01*
X151260087Y-55739681D01*
X151209787Y-55776226D01*
X151178700Y-55781150D01*
X145843500Y-55781150D01*
X145784369Y-55761937D01*
X145747824Y-55711637D01*
X145742900Y-55680550D01*
X145742900Y-55308817D01*
X146199300Y-55308817D01*
X146203488Y-55321707D01*
X146207677Y-55324750D01*
X148266967Y-55324750D01*
X148279857Y-55320562D01*
X148282900Y-55316373D01*
X148282900Y-55308817D01*
X148739300Y-55308817D01*
X148743488Y-55321707D01*
X148747677Y-55324750D01*
X150806967Y-55324750D01*
X150819857Y-55320562D01*
X150822900Y-55316373D01*
X150822900Y-53257083D01*
X150818712Y-53244193D01*
X150814523Y-53241150D01*
X148755233Y-53241150D01*
X148742343Y-53245338D01*
X148739300Y-53249527D01*
X148739300Y-55308817D01*
X148282900Y-55308817D01*
X148282900Y-53257083D01*
X148278712Y-53244193D01*
X148274523Y-53241150D01*
X146215233Y-53241150D01*
X146202343Y-53245338D01*
X146199300Y-53249527D01*
X146199300Y-55308817D01*
X145742900Y-55308817D01*
X145742900Y-52768817D01*
X146199300Y-52768817D01*
X146203488Y-52781707D01*
X146207677Y-52784750D01*
X148266967Y-52784750D01*
X148279857Y-52780562D01*
X148282900Y-52776373D01*
X148282900Y-52768817D01*
X148739300Y-52768817D01*
X148743488Y-52781707D01*
X148747677Y-52784750D01*
X150806967Y-52784750D01*
X150819857Y-52780562D01*
X150822900Y-52776373D01*
X150822900Y-51632682D01*
X150818712Y-51619792D01*
X150814523Y-51616749D01*
X150622612Y-51616749D01*
X150616470Y-51617127D01*
X150556933Y-51624470D01*
X150543863Y-51627921D01*
X150429705Y-51675323D01*
X150418048Y-51682134D01*
X150371396Y-51718649D01*
X150366849Y-51722675D01*
X149852235Y-52237289D01*
X149796837Y-52265515D01*
X149735429Y-52255789D01*
X149709965Y-52237289D01*
X149195379Y-51722704D01*
X149190763Y-51718623D01*
X149143474Y-51681717D01*
X149131793Y-51674916D01*
X149017551Y-51627712D01*
X149004494Y-51624287D01*
X148945692Y-51617119D01*
X148939618Y-51616750D01*
X148755233Y-51616750D01*
X148742343Y-51620938D01*
X148739300Y-51625127D01*
X148739300Y-52768817D01*
X148282900Y-52768817D01*
X148282900Y-51632682D01*
X148278712Y-51619792D01*
X148274523Y-51616749D01*
X148082612Y-51616749D01*
X148076470Y-51617127D01*
X148016933Y-51624470D01*
X148003863Y-51627921D01*
X147889705Y-51675323D01*
X147878048Y-51682134D01*
X147831396Y-51718649D01*
X147826849Y-51722675D01*
X147312235Y-52237289D01*
X147256837Y-52265515D01*
X147195429Y-52255789D01*
X147169965Y-52237289D01*
X146655379Y-51722704D01*
X146650763Y-51718623D01*
X146603474Y-51681717D01*
X146591793Y-51674916D01*
X146477551Y-51627712D01*
X146464494Y-51624287D01*
X146405692Y-51617119D01*
X146399618Y-51616750D01*
X146215233Y-51616750D01*
X146202343Y-51620938D01*
X146199300Y-51625127D01*
X146199300Y-52768817D01*
X145742900Y-52768817D01*
X145742900Y-51632682D01*
X145738712Y-51619792D01*
X145734523Y-51616749D01*
X145542612Y-51616749D01*
X145536470Y-51617127D01*
X145476933Y-51624470D01*
X145463863Y-51627921D01*
X145349705Y-51675323D01*
X145338048Y-51682134D01*
X145291396Y-51718649D01*
X145286849Y-51722675D01*
X144680854Y-52328671D01*
X144676773Y-52333287D01*
X144639867Y-52380576D01*
X144633065Y-52392258D01*
X144630529Y-52398396D01*
X144590191Y-52445709D01*
X144529747Y-52460276D01*
X144472285Y-52436533D01*
X144466418Y-52431114D01*
X143953683Y-51918381D01*
X143950162Y-51914860D01*
X143899523Y-51881130D01*
X143857409Y-51872791D01*
X143845363Y-51870406D01*
X143845361Y-51870406D01*
X143840534Y-51869450D01*
X143021666Y-51869450D01*
X142962007Y-51881407D01*
X142912036Y-51914860D01*
X142333010Y-52493888D01*
X142330250Y-52498032D01*
X142305202Y-52535637D01*
X142299280Y-52544527D01*
X142287600Y-52603516D01*
X142287600Y-53422384D01*
X142299557Y-53482043D01*
X142333010Y-53532014D01*
X142912038Y-54111040D01*
X142962677Y-54144770D01*
X143004791Y-54153109D01*
X143016837Y-54155494D01*
X143016839Y-54155494D01*
X143021666Y-54156450D01*
X143840534Y-54156450D01*
X143900193Y-54144493D01*
X143950164Y-54111040D01*
X144466490Y-53594712D01*
X144521888Y-53566486D01*
X144583296Y-53576212D01*
X144627260Y-53620175D01*
X144630534Y-53627270D01*
X144633470Y-53634341D01*
X144640284Y-53646002D01*
X144676799Y-53692654D01*
X144680825Y-53697201D01*
X145195439Y-54211815D01*
X145223665Y-54267213D01*
X145213939Y-54328621D01*
X145195439Y-54354085D01*
X144680854Y-54868671D01*
X144676773Y-54873287D01*
X144639867Y-54920576D01*
X144633065Y-54932258D01*
X144630529Y-54938396D01*
X144590191Y-54985709D01*
X144529747Y-55000276D01*
X144472285Y-54976533D01*
X144466418Y-54971114D01*
X143953683Y-54458381D01*
X143950162Y-54454860D01*
X143899523Y-54421130D01*
X143857409Y-54412791D01*
X143845363Y-54410406D01*
X143845361Y-54410406D01*
X143840534Y-54409450D01*
X143021666Y-54409450D01*
X142962007Y-54421407D01*
X142912036Y-54454860D01*
X142333010Y-55033888D01*
X142330250Y-55038032D01*
X142305202Y-55075637D01*
X142299280Y-55084527D01*
X142287600Y-55143516D01*
X142287600Y-55962384D01*
X142299557Y-56022043D01*
X142333010Y-56072014D01*
X142336487Y-56075491D01*
X142664112Y-56403115D01*
X142692338Y-56458513D01*
X142682612Y-56519921D01*
X142638649Y-56563885D01*
X142592977Y-56574850D01*
X140859076Y-56574850D01*
X140859072Y-56574851D01*
X140826653Y-56574851D01*
X140804906Y-56581917D01*
X140803348Y-56582423D01*
X140788000Y-56586107D01*
X140771613Y-56588702D01*
X140771610Y-56588703D01*
X140763794Y-56589941D01*
X140756740Y-56593536D01*
X140756738Y-56593536D01*
X140741957Y-56601067D01*
X140727373Y-56607108D01*
X140711601Y-56612233D01*
X140711599Y-56612234D01*
X140704068Y-56614681D01*
X140697663Y-56619334D01*
X140697662Y-56619335D01*
X140684241Y-56629086D01*
X140670785Y-56637332D01*
X140648949Y-56648458D01*
X140626026Y-56671381D01*
X140626022Y-56671384D01*
X139696449Y-57600958D01*
X139605308Y-57692099D01*
X139594181Y-57713937D01*
X139585936Y-57727391D01*
X139571530Y-57747218D01*
X139563956Y-57770529D01*
X139557917Y-57785108D01*
X139546791Y-57806944D01*
X139545553Y-57814761D01*
X139542957Y-57831152D01*
X139539273Y-57846498D01*
X139531700Y-57869804D01*
X139531700Y-62443696D01*
X139530738Y-62443696D01*
X139526748Y-62485139D01*
X139514986Y-62517456D01*
X139514281Y-62523033D01*
X139514281Y-62523035D01*
X139509124Y-62563860D01*
X139493680Y-62686104D01*
X139011600Y-62686104D01*
X139011600Y-50916550D01*
X139030813Y-50857419D01*
X139081113Y-50820874D01*
X139112200Y-50815950D01*
X157890000Y-50815950D01*
X157949131Y-50835163D01*
G37*
%TD.AperFunction*%
%TD*%
M02*
