%TF.GenerationSoftware,KiCad,Pcbnew,(6.0.11-0)*%
%TF.CreationDate,2023-03-06T23:16:56+01:00*%
%TF.ProjectId,braids,62726169-6473-42e6-9b69-6361645f7063,rev?*%
%TF.SameCoordinates,Original*%
%TF.FileFunction,Legend,Bot*%
%TF.FilePolarity,Positive*%
%FSLAX46Y46*%
G04 Gerber Fmt 4.6, Leading zero omitted, Abs format (unit mm)*
G04 Created by KiCad (PCBNEW (6.0.11-0)) date 2023-03-06 23:16:56*
%MOMM*%
%LPD*%
G01*
G04 APERTURE LIST*
G04 Aperture macros list*
%AMRoundRect*
0 Rectangle with rounded corners*
0 $1 Rounding radius*
0 $2 $3 $4 $5 $6 $7 $8 $9 X,Y pos of 4 corners*
0 Add a 4 corners polygon primitive as box body*
4,1,4,$2,$3,$4,$5,$6,$7,$8,$9,$2,$3,0*
0 Add four circle primitives for the rounded corners*
1,1,$1+$1,$2,$3*
1,1,$1+$1,$4,$5*
1,1,$1+$1,$6,$7*
1,1,$1+$1,$8,$9*
0 Add four rect primitives between the rounded corners*
20,1,$1+$1,$2,$3,$4,$5,0*
20,1,$1+$1,$4,$5,$6,$7,0*
20,1,$1+$1,$6,$7,$8,$9,0*
20,1,$1+$1,$8,$9,$2,$3,0*%
%AMFreePoly0*
4,1,25,0.575031,1.328373,0.579933,1.323882,1.323882,0.579933,1.345910,0.532692,1.346200,0.526051,1.346200,-0.526051,1.328373,-0.575031,1.323882,-0.579933,0.579933,-1.323882,0.532692,-1.345910,0.526051,-1.346200,-0.526051,-1.346200,-0.575031,-1.328373,-0.579933,-1.323882,-1.323882,-0.579933,-1.345910,-0.532692,-1.346200,-0.526051,-1.346200,0.526051,-1.328373,0.575031,-1.323882,0.579933,
-0.579933,1.323882,-0.532692,1.345910,-0.526051,1.346200,0.526051,1.346200,0.575031,1.328373,0.575031,1.328373,$1*%
%AMFreePoly1*
4,1,25,0.417216,0.947373,0.422118,0.942882,0.942882,0.422118,0.964910,0.374877,0.965200,0.368236,0.965200,-0.368236,0.947373,-0.417216,0.942882,-0.422118,0.422118,-0.942882,0.374877,-0.964910,0.368236,-0.965200,-0.368236,-0.965200,-0.417216,-0.947373,-0.422118,-0.942882,-0.942882,-0.422118,-0.964910,-0.374877,-0.965200,-0.368236,-0.965200,0.368236,-0.947373,0.417216,-0.942882,0.422118,
-0.422118,0.942882,-0.374877,0.964910,-0.368236,0.965200,0.368236,0.965200,0.417216,0.947373,0.417216,0.947373,$1*%
%AMFreePoly2*
4,1,25,0.839299,1.966373,0.844201,1.961882,1.961882,0.844201,1.983910,0.796960,1.984200,0.790319,1.984200,-0.790319,1.966373,-0.839299,1.961882,-0.844201,0.844201,-1.961882,0.796960,-1.983910,0.790319,-1.984200,-0.790319,-1.984200,-0.839299,-1.966373,-0.844201,-1.961882,-1.961882,-0.844201,-1.983910,-0.796960,-1.984200,-0.790319,-1.984200,0.790319,-1.966373,0.839299,-1.961882,0.844201,
-0.844201,1.961882,-0.796960,1.983910,-0.790319,1.984200,0.790319,1.984200,0.839299,1.966373,0.839299,1.966373,$1*%
%AMFreePoly3*
4,1,25,0.438258,0.998173,0.443160,0.993682,0.993682,0.443160,1.015710,0.395919,1.016000,0.389278,1.016000,-0.389278,0.998173,-0.438258,0.993682,-0.443160,0.443160,-0.993682,0.395919,-1.015710,0.389278,-1.016000,-0.389278,-1.016000,-0.438258,-0.998173,-0.443160,-0.993682,-0.993682,-0.443160,-1.015710,-0.395919,-1.016000,-0.389278,-1.016000,0.389278,-0.998173,0.438258,-0.993682,0.443160,
-0.443160,0.993682,-0.395919,1.015710,-0.389278,1.016000,0.389278,1.016000,0.438258,0.998173,0.438258,0.998173,$1*%
G04 Aperture macros list end*
%ADD10C,0.203200*%
%ADD11C,0.406400*%
%ADD12C,0.065024*%
%ADD13C,0.571500*%
%ADD14C,0.152400*%
%ADD15C,0.029911*%
%ADD16C,0.032512*%
%ADD17RoundRect,0.076200X0.939800X-0.939800X0.939800X0.939800X-0.939800X0.939800X-0.939800X-0.939800X0*%
%ADD18FreePoly0,90.000000*%
%ADD19C,2.200000*%
%ADD20FreePoly1,90.000000*%
%ADD21RoundRect,0.076200X-0.750000X-0.750000X0.750000X-0.750000X0.750000X0.750000X-0.750000X0.750000X0*%
%ADD22FreePoly2,0.000000*%
%ADD23C,1.574800*%
%ADD24FreePoly1,270.000000*%
%ADD25FreePoly3,270.000000*%
%ADD26FreePoly3,90.000000*%
G04 APERTURE END LIST*
D10*
X187246100Y-145961100D02*
X187246100Y-131991100D01*
X187246100Y-131991100D02*
X180896100Y-131991100D01*
X180896100Y-131991100D02*
X180896100Y-145961100D01*
X180896100Y-145961100D02*
X187246100Y-145961100D01*
D11*
X180896100Y-146913600D02*
X187246100Y-146913600D01*
D12*
X127261600Y-77903324D02*
X127332817Y-77867715D01*
X127439642Y-77867715D01*
X127546467Y-77903324D01*
X127617684Y-77974540D01*
X127653292Y-78045757D01*
X127688900Y-78188191D01*
X127688900Y-78295016D01*
X127653292Y-78437449D01*
X127617684Y-78508666D01*
X127546467Y-78579883D01*
X127439642Y-78615491D01*
X127368425Y-78615491D01*
X127261600Y-78579883D01*
X127225991Y-78544274D01*
X127225991Y-78295016D01*
X127368425Y-78295016D01*
X126905516Y-78615491D02*
X126905516Y-77867715D01*
X126478215Y-78615491D01*
X126478215Y-77867715D01*
X126122132Y-78615491D02*
X126122132Y-77867715D01*
X125944090Y-77867715D01*
X125837265Y-77903324D01*
X125766048Y-77974540D01*
X125730439Y-78045757D01*
X125694831Y-78188191D01*
X125694831Y-78295016D01*
X125730439Y-78437449D01*
X125766048Y-78508666D01*
X125837265Y-78579883D01*
X125944090Y-78615491D01*
X126122132Y-78615491D01*
X119288491Y-78615491D02*
X119537750Y-78259407D01*
X119715792Y-78615491D02*
X119715792Y-77867715D01*
X119430925Y-77867715D01*
X119359708Y-77903324D01*
X119324100Y-77938932D01*
X119288491Y-78010149D01*
X119288491Y-78116974D01*
X119324100Y-78188191D01*
X119359708Y-78223799D01*
X119430925Y-78259407D01*
X119715792Y-78259407D01*
X119039233Y-77867715D02*
X118540715Y-78615491D01*
X118540715Y-77867715D02*
X119039233Y-78615491D01*
D13*
X184706553Y-56163028D02*
X184243910Y-56317242D01*
X184089696Y-56471457D01*
X183935482Y-56779885D01*
X183935482Y-57242528D01*
X184089696Y-57550957D01*
X184243910Y-57705171D01*
X184552339Y-57859385D01*
X185786053Y-57859385D01*
X185786053Y-54620885D01*
X184706553Y-54620885D01*
X184398125Y-54775100D01*
X184243910Y-54929314D01*
X184089696Y-55237742D01*
X184089696Y-55546171D01*
X184243910Y-55854600D01*
X184398125Y-56008814D01*
X184706553Y-56163028D01*
X185786053Y-56163028D01*
X182547553Y-57859385D02*
X182547553Y-55700385D01*
X182547553Y-56317242D02*
X182393339Y-56008814D01*
X182239125Y-55854600D01*
X181930696Y-55700385D01*
X181622267Y-55700385D01*
X179154839Y-57859385D02*
X179154839Y-56163028D01*
X179309053Y-55854600D01*
X179617482Y-55700385D01*
X180234339Y-55700385D01*
X180542767Y-55854600D01*
X179154839Y-57705171D02*
X179463267Y-57859385D01*
X180234339Y-57859385D01*
X180542767Y-57705171D01*
X180696982Y-57396742D01*
X180696982Y-57088314D01*
X180542767Y-56779885D01*
X180234339Y-56625671D01*
X179463267Y-56625671D01*
X179154839Y-56471457D01*
X177612696Y-57859385D02*
X177612696Y-55700385D01*
X177612696Y-54620885D02*
X177766910Y-54775100D01*
X177612696Y-54929314D01*
X177458482Y-54775100D01*
X177612696Y-54620885D01*
X177612696Y-54929314D01*
X174682625Y-57859385D02*
X174682625Y-54620885D01*
X174682625Y-57705171D02*
X174991053Y-57859385D01*
X175607910Y-57859385D01*
X175916339Y-57705171D01*
X176070553Y-57550957D01*
X176224767Y-57242528D01*
X176224767Y-56317242D01*
X176070553Y-56008814D01*
X175916339Y-55854600D01*
X175607910Y-55700385D01*
X174991053Y-55700385D01*
X174682625Y-55854600D01*
X173294696Y-57705171D02*
X172986267Y-57859385D01*
X172369410Y-57859385D01*
X172060982Y-57705171D01*
X171906767Y-57396742D01*
X171906767Y-57242528D01*
X172060982Y-56934100D01*
X172369410Y-56779885D01*
X172832053Y-56779885D01*
X173140482Y-56625671D01*
X173294696Y-56317242D01*
X173294696Y-56163028D01*
X173140482Y-55854600D01*
X172832053Y-55700385D01*
X172369410Y-55700385D01*
X172060982Y-55854600D01*
D14*
X179504059Y-140970000D02*
X179586306Y-140928876D01*
X179709678Y-140928876D01*
X179833049Y-140970000D01*
X179915297Y-141052247D01*
X179956420Y-141134495D01*
X179997544Y-141298990D01*
X179997544Y-141422361D01*
X179956420Y-141586857D01*
X179915297Y-141669104D01*
X179833049Y-141751352D01*
X179709678Y-141792476D01*
X179627430Y-141792476D01*
X179504059Y-141751352D01*
X179462935Y-141710228D01*
X179462935Y-141422361D01*
X179627430Y-141422361D01*
X179092820Y-141792476D02*
X179092820Y-140928876D01*
X178599335Y-141792476D01*
X178599335Y-140928876D01*
X178188097Y-141792476D02*
X178188097Y-140928876D01*
X177982478Y-140928876D01*
X177859106Y-140970000D01*
X177776859Y-141052247D01*
X177735735Y-141134495D01*
X177694611Y-141298990D01*
X177694611Y-141422361D01*
X177735735Y-141586857D01*
X177776859Y-141669104D01*
X177859106Y-141751352D01*
X177982478Y-141792476D01*
X178188097Y-141792476D01*
X186242316Y-148765380D02*
X186614849Y-148233190D01*
X186880944Y-148765380D02*
X186880944Y-147647780D01*
X186455192Y-147647780D01*
X186348754Y-147701000D01*
X186295535Y-147754219D01*
X186242316Y-147860657D01*
X186242316Y-148020314D01*
X186295535Y-148126752D01*
X186348754Y-148179971D01*
X186455192Y-148233190D01*
X186880944Y-148233190D01*
X185337592Y-148712161D02*
X185444030Y-148765380D01*
X185656906Y-148765380D01*
X185763344Y-148712161D01*
X185816563Y-148605723D01*
X185816563Y-148179971D01*
X185763344Y-148073533D01*
X185656906Y-148020314D01*
X185444030Y-148020314D01*
X185337592Y-148073533D01*
X185284373Y-148179971D01*
X185284373Y-148286409D01*
X185816563Y-148392847D01*
X184326430Y-148765380D02*
X184326430Y-147647780D01*
X184326430Y-148712161D02*
X184432868Y-148765380D01*
X184645744Y-148765380D01*
X184752182Y-148712161D01*
X184805401Y-148658942D01*
X184858620Y-148552504D01*
X184858620Y-148233190D01*
X184805401Y-148126752D01*
X184752182Y-148073533D01*
X184645744Y-148020314D01*
X184432868Y-148020314D01*
X184326430Y-148073533D01*
X182995954Y-148712161D02*
X182889516Y-148765380D01*
X182676640Y-148765380D01*
X182570201Y-148712161D01*
X182516982Y-148605723D01*
X182516982Y-148552504D01*
X182570201Y-148446066D01*
X182676640Y-148392847D01*
X182836297Y-148392847D01*
X182942735Y-148339628D01*
X182995954Y-148233190D01*
X182995954Y-148179971D01*
X182942735Y-148073533D01*
X182836297Y-148020314D01*
X182676640Y-148020314D01*
X182570201Y-148073533D01*
X182197668Y-148020314D02*
X181771916Y-148020314D01*
X182038011Y-147647780D02*
X182038011Y-148605723D01*
X181984792Y-148712161D01*
X181878354Y-148765380D01*
X181771916Y-148765380D01*
X181399382Y-148765380D02*
X181399382Y-148020314D01*
X181399382Y-148233190D02*
X181346163Y-148126752D01*
X181292944Y-148073533D01*
X181186506Y-148020314D01*
X181080068Y-148020314D01*
X180707535Y-148765380D02*
X180707535Y-148020314D01*
X180707535Y-147647780D02*
X180760754Y-147701000D01*
X180707535Y-147754219D01*
X180654316Y-147701000D01*
X180707535Y-147647780D01*
X180707535Y-147754219D01*
X180175344Y-148020314D02*
X180175344Y-149137914D01*
X180175344Y-148073533D02*
X180068906Y-148020314D01*
X179856030Y-148020314D01*
X179749592Y-148073533D01*
X179696373Y-148126752D01*
X179643154Y-148233190D01*
X179643154Y-148552504D01*
X179696373Y-148658942D01*
X179749592Y-148712161D01*
X179856030Y-148765380D01*
X180068906Y-148765380D01*
X180175344Y-148712161D01*
X178738430Y-148712161D02*
X178844868Y-148765380D01*
X179057744Y-148765380D01*
X179164182Y-148712161D01*
X179217401Y-148605723D01*
X179217401Y-148179971D01*
X179164182Y-148073533D01*
X179057744Y-148020314D01*
X178844868Y-148020314D01*
X178738430Y-148073533D01*
X178685211Y-148179971D01*
X178685211Y-148286409D01*
X179217401Y-148392847D01*
X179956420Y-144003485D02*
X179298440Y-144003485D01*
X178434840Y-144332476D02*
X178928325Y-144332476D01*
X178681582Y-144332476D02*
X178681582Y-143468876D01*
X178763830Y-143592247D01*
X178846078Y-143674495D01*
X178928325Y-143715619D01*
X178105849Y-143551123D02*
X178064725Y-143510000D01*
X177982478Y-143468876D01*
X177776859Y-143468876D01*
X177694611Y-143510000D01*
X177653487Y-143551123D01*
X177612363Y-143633371D01*
X177612363Y-143715619D01*
X177653487Y-143838990D01*
X178146973Y-144332476D01*
X177612363Y-144332476D01*
X177365620Y-143468876D02*
X177077754Y-144332476D01*
X176789887Y-143468876D01*
X179504059Y-135890000D02*
X179586306Y-135848876D01*
X179709678Y-135848876D01*
X179833049Y-135890000D01*
X179915297Y-135972247D01*
X179956420Y-136054495D01*
X179997544Y-136218990D01*
X179997544Y-136342361D01*
X179956420Y-136506857D01*
X179915297Y-136589104D01*
X179833049Y-136671352D01*
X179709678Y-136712476D01*
X179627430Y-136712476D01*
X179504059Y-136671352D01*
X179462935Y-136630228D01*
X179462935Y-136342361D01*
X179627430Y-136342361D01*
X179092820Y-136712476D02*
X179092820Y-135848876D01*
X178599335Y-136712476D01*
X178599335Y-135848876D01*
X178188097Y-136712476D02*
X178188097Y-135848876D01*
X177982478Y-135848876D01*
X177859106Y-135890000D01*
X177776859Y-135972247D01*
X177735735Y-136054495D01*
X177694611Y-136218990D01*
X177694611Y-136342361D01*
X177735735Y-136506857D01*
X177776859Y-136589104D01*
X177859106Y-136671352D01*
X177982478Y-136712476D01*
X178188097Y-136712476D01*
X179504059Y-138430000D02*
X179586306Y-138388876D01*
X179709678Y-138388876D01*
X179833049Y-138430000D01*
X179915297Y-138512247D01*
X179956420Y-138594495D01*
X179997544Y-138758990D01*
X179997544Y-138882361D01*
X179956420Y-139046857D01*
X179915297Y-139129104D01*
X179833049Y-139211352D01*
X179709678Y-139252476D01*
X179627430Y-139252476D01*
X179504059Y-139211352D01*
X179462935Y-139170228D01*
X179462935Y-138882361D01*
X179627430Y-138882361D01*
X179092820Y-139252476D02*
X179092820Y-138388876D01*
X178599335Y-139252476D01*
X178599335Y-138388876D01*
X178188097Y-139252476D02*
X178188097Y-138388876D01*
X177982478Y-138388876D01*
X177859106Y-138430000D01*
X177776859Y-138512247D01*
X177735735Y-138594495D01*
X177694611Y-138758990D01*
X177694611Y-138882361D01*
X177735735Y-139046857D01*
X177776859Y-139129104D01*
X177859106Y-139211352D01*
X177982478Y-139252476D01*
X178188097Y-139252476D01*
X186253806Y-59518852D02*
X186336054Y-59559976D01*
X186500549Y-59559976D01*
X186582797Y-59518852D01*
X186623920Y-59477728D01*
X186665044Y-59395480D01*
X186665044Y-59148738D01*
X186623920Y-59066490D01*
X186582797Y-59025366D01*
X186500549Y-58984242D01*
X186336054Y-58984242D01*
X186253806Y-59025366D01*
X185513578Y-59518852D02*
X185595825Y-59559976D01*
X185760320Y-59559976D01*
X185842568Y-59518852D01*
X185883692Y-59477728D01*
X185924816Y-59395480D01*
X185924816Y-59148738D01*
X185883692Y-59066490D01*
X185842568Y-59025366D01*
X185760320Y-58984242D01*
X185595825Y-58984242D01*
X185513578Y-59025366D01*
X185143463Y-59230985D02*
X184485482Y-59230985D01*
X184074244Y-59559976D02*
X184074244Y-58696376D01*
X184074244Y-59025366D02*
X183991997Y-58984242D01*
X183827501Y-58984242D01*
X183745254Y-59025366D01*
X183704130Y-59066490D01*
X183663006Y-59148738D01*
X183663006Y-59395480D01*
X183704130Y-59477728D01*
X183745254Y-59518852D01*
X183827501Y-59559976D01*
X183991997Y-59559976D01*
X184074244Y-59518852D01*
X183375140Y-58984242D02*
X183169520Y-59559976D01*
X182963901Y-58984242D02*
X183169520Y-59559976D01*
X183251768Y-59765595D01*
X183292892Y-59806719D01*
X183375140Y-59847842D01*
X182634911Y-59230985D02*
X181976930Y-59230985D01*
X181606816Y-59518852D02*
X181524568Y-59559976D01*
X181360073Y-59559976D01*
X181277825Y-59518852D01*
X181236701Y-59436604D01*
X181236701Y-59395480D01*
X181277825Y-59313233D01*
X181360073Y-59272109D01*
X181483444Y-59272109D01*
X181565692Y-59230985D01*
X181606816Y-59148738D01*
X181606816Y-59107614D01*
X181565692Y-59025366D01*
X181483444Y-58984242D01*
X181360073Y-58984242D01*
X181277825Y-59025366D01*
X180496473Y-59559976D02*
X180496473Y-59107614D01*
X180537597Y-59025366D01*
X180619844Y-58984242D01*
X180784340Y-58984242D01*
X180866587Y-59025366D01*
X180496473Y-59518852D02*
X180578720Y-59559976D01*
X180784340Y-59559976D01*
X180866587Y-59518852D01*
X180907711Y-59436604D01*
X180907711Y-59354357D01*
X180866587Y-59272109D01*
X180784340Y-59230985D01*
X180578720Y-59230985D01*
X180496473Y-59189861D01*
X179427254Y-59107614D02*
X179139387Y-59107614D01*
X179016016Y-59559976D02*
X179427254Y-59559976D01*
X179427254Y-58696376D01*
X179016016Y-58696376D01*
X179139387Y-58367385D02*
X179262759Y-58490757D01*
X178645901Y-59559976D02*
X178645901Y-58984242D01*
X178645901Y-59066490D02*
X178604778Y-59025366D01*
X178522530Y-58984242D01*
X178399159Y-58984242D01*
X178316911Y-59025366D01*
X178275787Y-59107614D01*
X178275787Y-59559976D01*
X178275787Y-59107614D02*
X178234663Y-59025366D01*
X178152416Y-58984242D01*
X178029044Y-58984242D01*
X177946797Y-59025366D01*
X177905673Y-59107614D01*
X177905673Y-59559976D01*
X177494435Y-59559976D02*
X177494435Y-58984242D01*
X177494435Y-58696376D02*
X177535559Y-58737500D01*
X177494435Y-58778623D01*
X177453311Y-58737500D01*
X177494435Y-58696376D01*
X177494435Y-58778623D01*
X176959825Y-59559976D02*
X177042073Y-59518852D01*
X177083197Y-59436604D01*
X177083197Y-58696376D01*
X176630835Y-59559976D02*
X176630835Y-58984242D01*
X176630835Y-58696376D02*
X176671959Y-58737500D01*
X176630835Y-58778623D01*
X176589711Y-58737500D01*
X176630835Y-58696376D01*
X176630835Y-58778623D01*
X175890606Y-59518852D02*
X175972854Y-59559976D01*
X176137349Y-59559976D01*
X176219597Y-59518852D01*
X176260720Y-59436604D01*
X176260720Y-59107614D01*
X176219597Y-59025366D01*
X176137349Y-58984242D01*
X175972854Y-58984242D01*
X175890606Y-59025366D01*
X175849482Y-59107614D01*
X175849482Y-59189861D01*
X176260720Y-59272109D01*
X174369025Y-58737500D02*
X174451273Y-58696376D01*
X174574644Y-58696376D01*
X174698016Y-58737500D01*
X174780263Y-58819747D01*
X174821387Y-58901995D01*
X174862511Y-59066490D01*
X174862511Y-59189861D01*
X174821387Y-59354357D01*
X174780263Y-59436604D01*
X174698016Y-59518852D01*
X174574644Y-59559976D01*
X174492397Y-59559976D01*
X174369025Y-59518852D01*
X174327901Y-59477728D01*
X174327901Y-59189861D01*
X174492397Y-59189861D01*
X173957787Y-59559976D02*
X173957787Y-58984242D01*
X173957787Y-58696376D02*
X173998911Y-58737500D01*
X173957787Y-58778623D01*
X173916663Y-58737500D01*
X173957787Y-58696376D01*
X173957787Y-58778623D01*
X173423178Y-59559976D02*
X173505425Y-59518852D01*
X173546549Y-59436604D01*
X173546549Y-58696376D01*
X172970816Y-59559976D02*
X173053063Y-59518852D01*
X173094187Y-59436604D01*
X173094187Y-58696376D01*
X172312835Y-59518852D02*
X172395082Y-59559976D01*
X172559578Y-59559976D01*
X172641825Y-59518852D01*
X172682949Y-59436604D01*
X172682949Y-59107614D01*
X172641825Y-59025366D01*
X172559578Y-58984242D01*
X172395082Y-58984242D01*
X172312835Y-59025366D01*
X172271711Y-59107614D01*
X172271711Y-59189861D01*
X172682949Y-59272109D01*
X172024968Y-58984242D02*
X171695978Y-58984242D01*
X171901597Y-58696376D02*
X171901597Y-59436604D01*
X171860473Y-59518852D01*
X171778225Y-59559976D01*
X171695978Y-59559976D01*
X171366987Y-59518852D02*
X171366987Y-59559976D01*
X171408111Y-59642223D01*
X171449235Y-59683347D01*
X170380016Y-58778623D02*
X170338892Y-58737500D01*
X170256644Y-58696376D01*
X170051025Y-58696376D01*
X169968778Y-58737500D01*
X169927654Y-58778623D01*
X169886530Y-58860871D01*
X169886530Y-58943119D01*
X169927654Y-59066490D01*
X170421140Y-59559976D01*
X169886530Y-59559976D01*
X169351920Y-58696376D02*
X169269673Y-58696376D01*
X169187425Y-58737500D01*
X169146301Y-58778623D01*
X169105178Y-58860871D01*
X169064054Y-59025366D01*
X169064054Y-59230985D01*
X169105178Y-59395480D01*
X169146301Y-59477728D01*
X169187425Y-59518852D01*
X169269673Y-59559976D01*
X169351920Y-59559976D01*
X169434168Y-59518852D01*
X169475292Y-59477728D01*
X169516416Y-59395480D01*
X169557540Y-59230985D01*
X169557540Y-59025366D01*
X169516416Y-58860871D01*
X169475292Y-58778623D01*
X169434168Y-58737500D01*
X169351920Y-58696376D01*
X168241578Y-59559976D02*
X168735063Y-59559976D01*
X168488320Y-59559976D02*
X168488320Y-58696376D01*
X168570568Y-58819747D01*
X168652816Y-58901995D01*
X168735063Y-58943119D01*
X167460225Y-58696376D02*
X167871463Y-58696376D01*
X167912587Y-59107614D01*
X167871463Y-59066490D01*
X167789216Y-59025366D01*
X167583597Y-59025366D01*
X167501349Y-59066490D01*
X167460225Y-59107614D01*
X167419101Y-59189861D01*
X167419101Y-59395480D01*
X167460225Y-59477728D01*
X167501349Y-59518852D01*
X167583597Y-59559976D01*
X167789216Y-59559976D01*
X167871463Y-59518852D01*
X167912587Y-59477728D01*
X167048987Y-59477728D02*
X167007863Y-59518852D01*
X167048987Y-59559976D01*
X167090111Y-59518852D01*
X167048987Y-59477728D01*
X167048987Y-59559976D01*
X166062016Y-58984242D02*
X165856397Y-59559976D01*
X165650778Y-58984242D01*
X164910549Y-58696376D02*
X165321787Y-58696376D01*
X165362911Y-59107614D01*
X165321787Y-59066490D01*
X165239540Y-59025366D01*
X165033920Y-59025366D01*
X164951673Y-59066490D01*
X164910549Y-59107614D01*
X164869425Y-59189861D01*
X164869425Y-59395480D01*
X164910549Y-59477728D01*
X164951673Y-59518852D01*
X165033920Y-59559976D01*
X165239540Y-59559976D01*
X165321787Y-59518852D01*
X165362911Y-59477728D01*
X179956420Y-133843485D02*
X179298440Y-133843485D01*
X179627430Y-134172476D02*
X179627430Y-133514495D01*
X178434840Y-134172476D02*
X178928325Y-134172476D01*
X178681582Y-134172476D02*
X178681582Y-133308876D01*
X178763830Y-133432247D01*
X178846078Y-133514495D01*
X178928325Y-133555619D01*
X178105849Y-133391123D02*
X178064725Y-133350000D01*
X177982478Y-133308876D01*
X177776859Y-133308876D01*
X177694611Y-133350000D01*
X177653487Y-133391123D01*
X177612363Y-133473371D01*
X177612363Y-133555619D01*
X177653487Y-133678990D01*
X178146973Y-134172476D01*
X177612363Y-134172476D01*
X177365620Y-133308876D02*
X177077754Y-134172476D01*
X176789887Y-133308876D01*
D12*
X117282617Y-77867715D02*
X116855317Y-77867715D01*
X117068967Y-78615491D02*
X117068967Y-77867715D01*
X116677275Y-77867715D02*
X116178757Y-78615491D01*
X116178757Y-77867715D02*
X116677275Y-78615491D01*
D15*
%TO.C,JP1*%
X186658927Y-142494750D02*
X186927848Y-142494750D01*
X186981632Y-142476822D01*
X187017488Y-142440966D01*
X187035416Y-142387182D01*
X187035416Y-142351326D01*
X187035416Y-142674031D02*
X186658927Y-142674031D01*
X186658927Y-142817455D01*
X186676855Y-142853311D01*
X186694783Y-142871239D01*
X186730639Y-142889167D01*
X186784423Y-142889167D01*
X186820279Y-142871239D01*
X186838207Y-142853311D01*
X186856135Y-142817455D01*
X186856135Y-142674031D01*
X187035416Y-143247728D02*
X187035416Y-143032592D01*
X187035416Y-143140160D02*
X186658927Y-143140160D01*
X186712711Y-143104304D01*
X186748567Y-143068448D01*
X186766495Y-143032592D01*
D16*
%TO.C,JP2*%
X115108307Y-81159874D02*
X115375370Y-81159874D01*
X115428783Y-81142070D01*
X115464391Y-81106461D01*
X115482195Y-81053049D01*
X115482195Y-81017440D01*
X115482195Y-81337916D02*
X115108307Y-81337916D01*
X115108307Y-81480349D01*
X115126112Y-81515958D01*
X115143916Y-81533762D01*
X115179524Y-81551566D01*
X115232937Y-81551566D01*
X115268545Y-81533762D01*
X115286349Y-81515958D01*
X115304153Y-81480349D01*
X115304153Y-81337916D01*
X115143916Y-81694000D02*
X115126112Y-81711804D01*
X115108307Y-81747412D01*
X115108307Y-81836433D01*
X115126112Y-81872042D01*
X115143916Y-81889846D01*
X115179524Y-81907650D01*
X115215132Y-81907650D01*
X115268545Y-81889846D01*
X115482195Y-81676195D01*
X115482195Y-81907650D01*
D14*
%TO.C,JP1*%
X182166100Y-135166100D02*
X185976100Y-135166100D01*
X182166100Y-137706100D02*
X185976100Y-137706100D01*
X182166100Y-140246100D02*
X185976100Y-140246100D01*
X186611100Y-142151100D02*
X185976100Y-142786100D01*
X186611100Y-135801100D02*
X186611100Y-137071100D01*
X186611100Y-134531100D02*
X185976100Y-135166100D01*
X185976100Y-142786100D02*
X186611100Y-143421100D01*
X182166100Y-132626100D02*
X181531100Y-133261100D01*
X185976100Y-135166100D02*
X186611100Y-135801100D01*
X186611100Y-133261100D02*
X186611100Y-134531100D01*
X182166100Y-137706100D02*
X181531100Y-138341100D01*
X181531100Y-140881100D02*
X181531100Y-142151100D01*
D10*
X187246100Y-133261100D02*
X187246100Y-134531100D01*
D14*
X181531100Y-139611100D02*
X182166100Y-140246100D01*
X182166100Y-140246100D02*
X181531100Y-140881100D01*
X185976100Y-132626100D02*
X182166100Y-132626100D01*
X186611100Y-140881100D02*
X186611100Y-142151100D01*
X181531100Y-134531100D02*
X182166100Y-135166100D01*
X182166100Y-145326100D02*
X185976100Y-145326100D01*
X181531100Y-135801100D02*
X181531100Y-137071100D01*
X182166100Y-142786100D02*
X185976100Y-142786100D01*
X181531100Y-143421100D02*
X181531100Y-144691100D01*
X186611100Y-138341100D02*
X186611100Y-139611100D01*
X182166100Y-142786100D02*
X181531100Y-143421100D01*
X186611100Y-137071100D02*
X185976100Y-137706100D01*
X185976100Y-137706100D02*
X186611100Y-138341100D01*
X181531100Y-137071100D02*
X182166100Y-137706100D01*
X185976100Y-132626100D02*
X186611100Y-133261100D01*
X181531100Y-142151100D02*
X182166100Y-142786100D01*
X181531100Y-144691100D02*
X182166100Y-145326100D01*
X181531100Y-133261100D02*
X181531100Y-134531100D01*
X186611100Y-144691100D02*
X185976100Y-145326100D01*
X182166100Y-135166100D02*
X181531100Y-135801100D01*
X181531100Y-138341100D02*
X181531100Y-139611100D01*
X186611100Y-139611100D02*
X185976100Y-140246100D01*
X186611100Y-143421100D02*
X186611100Y-144691100D01*
X185976100Y-140246100D02*
X186611100Y-140881100D01*
G36*
X185595100Y-139230100D02*
G01*
X185087100Y-139230100D01*
X185087100Y-138722100D01*
X185595100Y-138722100D01*
X185595100Y-139230100D01*
G37*
%TO.C,JP2*%
X110095000Y-93390000D02*
X109460000Y-92755000D01*
X109460000Y-90215000D02*
X109460000Y-88945000D01*
X109460000Y-86405000D02*
X110095000Y-85770000D01*
X113905000Y-85770000D02*
X114540000Y-85135000D01*
X109460000Y-81325000D02*
X110095000Y-80690000D01*
X113905000Y-88310000D02*
X114540000Y-87675000D01*
X114540000Y-81325000D02*
X113905000Y-80690000D01*
X110095000Y-85770000D02*
X109460000Y-85135000D01*
X114540000Y-91485000D02*
X113905000Y-90850000D01*
X109460000Y-83865000D02*
X110095000Y-83230000D01*
X113905000Y-90850000D02*
X114540000Y-90215000D01*
X114540000Y-82595000D02*
X114540000Y-81325000D01*
X110095000Y-83230000D02*
X109460000Y-82595000D01*
X114540000Y-90215000D02*
X114540000Y-88945000D01*
X113905000Y-88310000D02*
X110095000Y-88310000D01*
X109460000Y-82595000D02*
X109460000Y-81325000D01*
X109460000Y-85135000D02*
X109460000Y-83865000D01*
X114540000Y-88945000D02*
X113905000Y-88310000D01*
X109460000Y-91485000D02*
X110095000Y-90850000D01*
X110095000Y-90850000D02*
X109460000Y-90215000D01*
X110095000Y-88310000D02*
X109460000Y-87675000D01*
X109460000Y-88945000D02*
X110095000Y-88310000D01*
X114540000Y-83865000D02*
X113905000Y-83230000D01*
X114540000Y-92755000D02*
X114540000Y-91485000D01*
X110095000Y-93390000D02*
X113905000Y-93390000D01*
X114540000Y-85135000D02*
X114540000Y-83865000D01*
D10*
X108825000Y-92755000D02*
X108825000Y-91485000D01*
D14*
X114540000Y-86405000D02*
X113905000Y-85770000D01*
X113905000Y-90850000D02*
X110095000Y-90850000D01*
X113905000Y-80690000D02*
X110095000Y-80690000D01*
X113905000Y-83230000D02*
X114540000Y-82595000D01*
X114540000Y-87675000D02*
X114540000Y-86405000D01*
X109460000Y-92755000D02*
X109460000Y-91485000D01*
X113905000Y-93390000D02*
X114540000Y-92755000D01*
X109460000Y-87675000D02*
X109460000Y-86405000D01*
X113905000Y-83230000D02*
X110095000Y-83230000D01*
X113905000Y-85770000D02*
X110095000Y-85770000D01*
G36*
X110984000Y-87294000D02*
G01*
X110476000Y-87294000D01*
X110476000Y-86786000D01*
X110984000Y-86786000D01*
X110984000Y-87294000D01*
G37*
%TD*%
%LPC*%
D17*
%TO.C,R19*%
X124341100Y-102478600D03*
X121841100Y-102478600D03*
X119341100Y-102478600D03*
D18*
X126541100Y-95478600D03*
X117141100Y-95478600D03*
%TD*%
D17*
%TO.C,R36*%
X124341100Y-129148600D03*
X121841100Y-129148600D03*
X119341100Y-129148600D03*
D18*
X126541100Y-122148600D03*
X117141100Y-122148600D03*
%TD*%
D19*
%TO.C,J4*%
X153591100Y-151993600D03*
D20*
X159306100Y-151993600D03*
X156766100Y-151993600D03*
X149146100Y-151993600D03*
%TD*%
D19*
%TO.C,J3*%
X140891100Y-151993600D03*
D20*
X146606100Y-151993600D03*
X144066100Y-151993600D03*
X136446100Y-151993600D03*
%TD*%
D19*
%TO.C,J5*%
X166291100Y-151993600D03*
D20*
X172006100Y-151993600D03*
X169466100Y-151993600D03*
X161846100Y-151993600D03*
%TD*%
D19*
%TO.C,J1*%
X115491100Y-151993600D03*
D20*
X121206100Y-151993600D03*
X118666100Y-151993600D03*
X111046100Y-151993600D03*
%TD*%
D19*
%TO.C,J2*%
X128191100Y-151993600D03*
D20*
X133906100Y-151993600D03*
X131366100Y-151993600D03*
X123746100Y-151993600D03*
%TD*%
D21*
%TO.C,SW1*%
X172681100Y-75673600D03*
X177681100Y-75673600D03*
X175181100Y-75673600D03*
X172681100Y-61173600D03*
X177681100Y-61173600D03*
D22*
X170281100Y-68173600D03*
X180081100Y-68173600D03*
%TD*%
D17*
%TO.C,R20*%
X151011100Y-102478600D03*
X148511100Y-102478600D03*
X146011100Y-102478600D03*
D18*
X153211100Y-95478600D03*
X143811100Y-95478600D03*
%TD*%
D23*
%TO.C,DISP1*%
X115173600Y-75793600D03*
X117713600Y-75793600D03*
X120253600Y-75793600D03*
X122793600Y-75793600D03*
X125333600Y-75793600D03*
X127873600Y-75793600D03*
X130413600Y-75793600D03*
X132953600Y-75793600D03*
X135493600Y-75793600D03*
X135493600Y-60553600D03*
X132953600Y-60553600D03*
X130413600Y-60553600D03*
X127873600Y-60553600D03*
X125333600Y-60553600D03*
X122793600Y-60553600D03*
X120253600Y-60553600D03*
X117713600Y-60553600D03*
X115173600Y-60553600D03*
%TD*%
D17*
%TO.C,R38*%
X177681100Y-129148600D03*
X175181100Y-129148600D03*
X172681100Y-129148600D03*
D18*
X179881100Y-122148600D03*
X170481100Y-122148600D03*
%TD*%
D17*
%TO.C,R37*%
X151011100Y-129148600D03*
X148511100Y-129148600D03*
X146011100Y-129148600D03*
D18*
X153211100Y-122148600D03*
X143811100Y-122148600D03*
%TD*%
D17*
%TO.C,R21*%
X177681100Y-102478600D03*
X175181100Y-102478600D03*
X172681100Y-102478600D03*
D18*
X179881100Y-95478600D03*
X170481100Y-95478600D03*
%TD*%
D19*
%TO.C,J6*%
X181531100Y-151993600D03*
D24*
X175816100Y-151993600D03*
X178356100Y-151993600D03*
X185976100Y-151993600D03*
%TD*%
D23*
%TO.C,DISP2*%
X140573600Y-75793600D03*
X143113600Y-75793600D03*
X145653600Y-75793600D03*
X148193600Y-75793600D03*
X150733600Y-75793600D03*
X153273600Y-75793600D03*
X155813600Y-75793600D03*
X158353600Y-75793600D03*
X160893600Y-75793600D03*
X160893600Y-60553600D03*
X158353600Y-60553600D03*
X155813600Y-60553600D03*
X153273600Y-60553600D03*
X150733600Y-60553600D03*
X148193600Y-60553600D03*
X145653600Y-60553600D03*
X143113600Y-60553600D03*
X140573600Y-60553600D03*
%TD*%
D25*
%TO.C,JP1*%
X185341100Y-133896100D03*
X182801100Y-133896100D03*
X185341100Y-136436100D03*
X182801100Y-136436100D03*
X185341100Y-138976100D03*
X182801100Y-138976100D03*
X185341100Y-141516100D03*
X182801100Y-141516100D03*
X185341100Y-144056100D03*
X182801100Y-144056100D03*
%TD*%
D26*
%TO.C,JP2*%
X110730000Y-92120000D03*
X113270000Y-92120000D03*
X110730000Y-89580000D03*
X113270000Y-89580000D03*
X110730000Y-87040000D03*
X113270000Y-87040000D03*
X110730000Y-84500000D03*
X113270000Y-84500000D03*
X110730000Y-81960000D03*
X113270000Y-81960000D03*
%TD*%
M02*
