%TF.GenerationSoftware,KiCad,Pcbnew,(6.0.11-0)*%
%TF.CreationDate,2023-03-06T23:16:56+01:00*%
%TF.ProjectId,braids,62726169-6473-42e6-9b69-6361645f7063,rev?*%
%TF.SameCoordinates,Original*%
%TF.FileFunction,Legend,Top*%
%TF.FilePolarity,Positive*%
%FSLAX46Y46*%
G04 Gerber Fmt 4.6, Leading zero omitted, Abs format (unit mm)*
G04 Created by KiCad (PCBNEW (6.0.11-0)) date 2023-03-06 23:16:56*
%MOMM*%
%LPD*%
G01*
G04 APERTURE LIST*
G04 Aperture macros list*
%AMRoundRect*
0 Rectangle with rounded corners*
0 $1 Rounding radius*
0 $2 $3 $4 $5 $6 $7 $8 $9 X,Y pos of 4 corners*
0 Add a 4 corners polygon primitive as box body*
4,1,4,$2,$3,$4,$5,$6,$7,$8,$9,$2,$3,0*
0 Add four circle primitives for the rounded corners*
1,1,$1+$1,$2,$3*
1,1,$1+$1,$4,$5*
1,1,$1+$1,$6,$7*
1,1,$1+$1,$8,$9*
0 Add four rect primitives between the rounded corners*
20,1,$1+$1,$2,$3,$4,$5,0*
20,1,$1+$1,$4,$5,$6,$7,0*
20,1,$1+$1,$6,$7,$8,$9,0*
20,1,$1+$1,$8,$9,$2,$3,0*%
%AMFreePoly0*
4,1,25,0.575031,1.328373,0.579933,1.323882,1.323882,0.579933,1.345910,0.532692,1.346200,0.526051,1.346200,-0.526051,1.328373,-0.575031,1.323882,-0.579933,0.579933,-1.323882,0.532692,-1.345910,0.526051,-1.346200,-0.526051,-1.346200,-0.575031,-1.328373,-0.579933,-1.323882,-1.323882,-0.579933,-1.345910,-0.532692,-1.346200,-0.526051,-1.346200,0.526051,-1.328373,0.575031,-1.323882,0.579933,
-0.579933,1.323882,-0.532692,1.345910,-0.526051,1.346200,0.526051,1.346200,0.575031,1.328373,0.575031,1.328373,$1*%
%AMFreePoly1*
4,1,25,0.417216,0.947373,0.422118,0.942882,0.942882,0.422118,0.964910,0.374877,0.965200,0.368236,0.965200,-0.368236,0.947373,-0.417216,0.942882,-0.422118,0.422118,-0.942882,0.374877,-0.964910,0.368236,-0.965200,-0.368236,-0.965200,-0.417216,-0.947373,-0.422118,-0.942882,-0.942882,-0.422118,-0.964910,-0.374877,-0.965200,-0.368236,-0.965200,0.368236,-0.947373,0.417216,-0.942882,0.422118,
-0.422118,0.942882,-0.374877,0.964910,-0.368236,0.965200,0.368236,0.965200,0.417216,0.947373,0.417216,0.947373,$1*%
%AMFreePoly2*
4,1,25,0.839299,1.966373,0.844201,1.961882,1.961882,0.844201,1.983910,0.796960,1.984200,0.790319,1.984200,-0.790319,1.966373,-0.839299,1.961882,-0.844201,0.844201,-1.961882,0.796960,-1.983910,0.790319,-1.984200,-0.790319,-1.984200,-0.839299,-1.966373,-0.844201,-1.961882,-1.961882,-0.844201,-1.983910,-0.796960,-1.984200,-0.790319,-1.984200,0.790319,-1.966373,0.839299,-1.961882,0.844201,
-0.844201,1.961882,-0.796960,1.983910,-0.790319,1.984200,0.790319,1.984200,0.839299,1.966373,0.839299,1.966373,$1*%
%AMFreePoly3*
4,1,25,0.438258,0.998173,0.443160,0.993682,0.993682,0.443160,1.015710,0.395919,1.016000,0.389278,1.016000,-0.389278,0.998173,-0.438258,0.993682,-0.443160,0.443160,-0.993682,0.395919,-1.015710,0.389278,-1.016000,-0.389278,-1.016000,-0.438258,-0.998173,-0.443160,-0.993682,-0.993682,-0.443160,-1.015710,-0.395919,-1.016000,-0.389278,-1.016000,0.389278,-0.998173,0.438258,-0.993682,0.443160,
-0.443160,0.993682,-0.395919,1.015710,-0.389278,1.016000,0.389278,1.016000,0.438258,0.998173,0.438258,0.998173,$1*%
G04 Aperture macros list end*
%ADD10C,0.571500*%
%ADD11C,0.065024*%
%ADD12C,0.152400*%
%ADD13C,0.093472*%
%ADD14C,0.114300*%
%ADD15C,0.167640*%
%ADD16C,0.175260*%
%ADD17C,0.074778*%
%ADD18C,0.171450*%
%ADD19C,0.101600*%
%ADD20C,0.056083*%
%ADD21C,0.150000*%
%ADD22C,0.160020*%
%ADD23C,0.127000*%
%ADD24C,0.203200*%
%ADD25C,0.050800*%
%ADD26C,0.254000*%
%ADD27C,0.120000*%
%ADD28C,0.840000*%
%ADD29RoundRect,0.076200X0.550000X0.500000X-0.550000X0.500000X-0.550000X-0.500000X0.550000X-0.500000X0*%
%ADD30RoundRect,0.076200X-0.550000X0.500000X-0.550000X-0.500000X0.550000X-0.500000X0.550000X0.500000X0*%
%ADD31RoundRect,0.076200X-0.500000X-0.550000X0.500000X-0.550000X0.500000X0.550000X-0.500000X0.550000X0*%
%ADD32RoundRect,0.076200X0.939800X-0.939800X0.939800X0.939800X-0.939800X0.939800X-0.939800X-0.939800X0*%
%ADD33FreePoly0,90.000000*%
%ADD34RoundRect,0.076200X-0.500000X0.550000X-0.500000X-0.550000X0.500000X-0.550000X0.500000X0.550000X0*%
%ADD35RoundRect,0.076200X0.700000X-0.500000X0.700000X0.500000X-0.700000X0.500000X-0.700000X-0.500000X0*%
%ADD36RoundRect,0.076200X0.550000X-0.500000X0.550000X0.500000X-0.550000X0.500000X-0.550000X-0.500000X0*%
%ADD37RoundRect,0.076200X-0.550000X-0.500000X0.550000X-0.500000X0.550000X0.500000X-0.550000X0.500000X0*%
%ADD38RoundRect,0.076200X2.667000X0.965200X-2.667000X0.965200X-2.667000X-0.965200X2.667000X-0.965200X0*%
%ADD39RoundRect,0.076200X-0.330200X-1.016000X0.330200X-1.016000X0.330200X1.016000X-0.330200X1.016000X0*%
%ADD40RoundRect,0.076200X0.500000X0.550000X-0.500000X0.550000X-0.500000X-0.550000X0.500000X-0.550000X0*%
%ADD41RoundRect,0.076200X0.500000X-0.550000X0.500000X0.550000X-0.500000X0.550000X-0.500000X-0.550000X0*%
%ADD42RoundRect,0.076200X-0.350000X-0.500000X0.350000X-0.500000X0.350000X0.500000X-0.350000X0.500000X0*%
%ADD43RoundRect,0.076200X1.500000X0.700000X-1.500000X0.700000X-1.500000X-0.700000X1.500000X-0.700000X0*%
%ADD44RoundRect,0.076200X-0.500000X-0.700000X0.500000X-0.700000X0.500000X0.700000X-0.500000X0.700000X0*%
%ADD45C,2.200000*%
%ADD46FreePoly1,90.000000*%
%ADD47RoundRect,0.076200X-0.600000X1.600000X-0.600000X-1.600000X0.600000X-1.600000X0.600000X1.600000X0*%
%ADD48RoundRect,0.076200X-0.300000X-1.100000X0.300000X-1.100000X0.300000X1.100000X-0.300000X1.100000X0*%
%ADD49RoundRect,0.076200X-0.205000X-0.510000X0.205000X-0.510000X0.205000X0.510000X-0.205000X0.510000X0*%
%ADD50RoundRect,0.076200X-0.127000X-0.500000X0.127000X-0.500000X0.127000X0.500000X-0.127000X0.500000X0*%
%ADD51RoundRect,0.076200X-0.500000X-0.127000X0.500000X-0.127000X0.500000X0.127000X-0.500000X0.127000X0*%
%ADD52RoundRect,0.076200X-0.750000X-0.750000X0.750000X-0.750000X0.750000X0.750000X-0.750000X0.750000X0*%
%ADD53FreePoly2,0.000000*%
%ADD54R,3.150000X1.000000*%
%ADD55C,1.574800*%
%ADD56RoundRect,0.076200X0.700000X-1.300000X0.700000X1.300000X-0.700000X1.300000X-0.700000X-1.300000X0*%
%ADD57RoundRect,0.076200X-0.901500X0.800000X-0.901500X-0.800000X0.901500X-0.800000X0.901500X0.800000X0*%
%ADD58RoundRect,0.076200X-0.500000X-0.800000X0.500000X-0.800000X0.500000X0.800000X-0.500000X0.800000X0*%
%ADD59RoundRect,0.076200X-2.700000X-3.100000X2.700000X-3.100000X2.700000X3.100000X-2.700000X3.100000X0*%
%ADD60RoundRect,0.076200X0.700000X-0.700000X0.700000X0.700000X-0.700000X0.700000X-0.700000X-0.700000X0*%
%ADD61FreePoly1,270.000000*%
%ADD62RoundRect,0.076200X0.700000X-1.100000X0.700000X1.100000X-0.700000X1.100000X-0.700000X-1.100000X0*%
%ADD63FreePoly3,270.000000*%
%ADD64FreePoly3,90.000000*%
G04 APERTURE END LIST*
D10*
X170100646Y-57115528D02*
X170563289Y-57269742D01*
X170717503Y-57423957D01*
X170871717Y-57732385D01*
X170871717Y-58195028D01*
X170717503Y-58503457D01*
X170563289Y-58657671D01*
X170254860Y-58811885D01*
X169021146Y-58811885D01*
X169021146Y-55573385D01*
X170100646Y-55573385D01*
X170409075Y-55727600D01*
X170563289Y-55881814D01*
X170717503Y-56190242D01*
X170717503Y-56498671D01*
X170563289Y-56807100D01*
X170409075Y-56961314D01*
X170100646Y-57115528D01*
X169021146Y-57115528D01*
X172259646Y-58811885D02*
X172259646Y-56652885D01*
X172259646Y-57269742D02*
X172413860Y-56961314D01*
X172568075Y-56807100D01*
X172876503Y-56652885D01*
X173184932Y-56652885D01*
X175652360Y-58811885D02*
X175652360Y-57115528D01*
X175498146Y-56807100D01*
X175189717Y-56652885D01*
X174572860Y-56652885D01*
X174264432Y-56807100D01*
X175652360Y-58657671D02*
X175343932Y-58811885D01*
X174572860Y-58811885D01*
X174264432Y-58657671D01*
X174110217Y-58349242D01*
X174110217Y-58040814D01*
X174264432Y-57732385D01*
X174572860Y-57578171D01*
X175343932Y-57578171D01*
X175652360Y-57423957D01*
X177194503Y-58811885D02*
X177194503Y-56652885D01*
X177194503Y-55573385D02*
X177040289Y-55727600D01*
X177194503Y-55881814D01*
X177348717Y-55727600D01*
X177194503Y-55573385D01*
X177194503Y-55881814D01*
X180124575Y-58811885D02*
X180124575Y-55573385D01*
X180124575Y-58657671D02*
X179816146Y-58811885D01*
X179199289Y-58811885D01*
X178890860Y-58657671D01*
X178736646Y-58503457D01*
X178582432Y-58195028D01*
X178582432Y-57269742D01*
X178736646Y-56961314D01*
X178890860Y-56807100D01*
X179199289Y-56652885D01*
X179816146Y-56652885D01*
X180124575Y-56807100D01*
X181512503Y-58657671D02*
X181820932Y-58811885D01*
X182437789Y-58811885D01*
X182746217Y-58657671D01*
X182900432Y-58349242D01*
X182900432Y-58195028D01*
X182746217Y-57886600D01*
X182437789Y-57732385D01*
X181975146Y-57732385D01*
X181666717Y-57578171D01*
X181512503Y-57269742D01*
X181512503Y-57115528D01*
X181666717Y-56807100D01*
X181975146Y-56652885D01*
X182437789Y-56652885D01*
X182746217Y-56807100D01*
D11*
X108943716Y-113313499D02*
X108908108Y-113420324D01*
X108908108Y-113598366D01*
X108943716Y-113669582D01*
X108979325Y-113705191D01*
X109050541Y-113740799D01*
X109121758Y-113740799D01*
X109192975Y-113705191D01*
X109228583Y-113669582D01*
X109264192Y-113598366D01*
X109299800Y-113455932D01*
X109335408Y-113384715D01*
X109371017Y-113349107D01*
X109442234Y-113313499D01*
X109513450Y-113313499D01*
X109584667Y-113349107D01*
X109620276Y-113384715D01*
X109655884Y-113455932D01*
X109655884Y-113633974D01*
X109620276Y-113740799D01*
X109264192Y-114203708D02*
X108908108Y-114203708D01*
X109655884Y-113954449D02*
X109264192Y-114203708D01*
X109655884Y-114452967D01*
X108943716Y-114666617D02*
X108908108Y-114773442D01*
X108908108Y-114951484D01*
X108943716Y-115022701D01*
X108979325Y-115058309D01*
X109050541Y-115093918D01*
X109121758Y-115093918D01*
X109192975Y-115058309D01*
X109228583Y-115022701D01*
X109264192Y-114951484D01*
X109299800Y-114809051D01*
X109335408Y-114737834D01*
X109371017Y-114702225D01*
X109442234Y-114666617D01*
X109513450Y-114666617D01*
X109584667Y-114702225D01*
X109620276Y-114737834D01*
X109655884Y-114809051D01*
X109655884Y-114987093D01*
X109620276Y-115093918D01*
X109299800Y-115663652D02*
X109264192Y-115770477D01*
X109228583Y-115806085D01*
X109157367Y-115841694D01*
X109050541Y-115841694D01*
X108979325Y-115806085D01*
X108943716Y-115770477D01*
X108908108Y-115699260D01*
X108908108Y-115414393D01*
X109655884Y-115414393D01*
X109655884Y-115663652D01*
X109620276Y-115734869D01*
X109584667Y-115770477D01*
X109513450Y-115806085D01*
X109442234Y-115806085D01*
X109371017Y-115770477D01*
X109335408Y-115734869D01*
X109299800Y-115663652D01*
X109299800Y-115414393D01*
X109655884Y-116304603D02*
X109655884Y-116447036D01*
X109620276Y-116518253D01*
X109549059Y-116589470D01*
X109406625Y-116625078D01*
X109157367Y-116625078D01*
X109014933Y-116589470D01*
X108943716Y-116518253D01*
X108908108Y-116447036D01*
X108908108Y-116304603D01*
X108943716Y-116233386D01*
X109014933Y-116162169D01*
X109157367Y-116126561D01*
X109406625Y-116126561D01*
X109549059Y-116162169D01*
X109620276Y-116233386D01*
X109655884Y-116304603D01*
X109655884Y-117087987D02*
X109655884Y-117230421D01*
X109620276Y-117301637D01*
X109549059Y-117372854D01*
X109406625Y-117408462D01*
X109157367Y-117408462D01*
X109014933Y-117372854D01*
X108943716Y-117301637D01*
X108908108Y-117230421D01*
X108908108Y-117087987D01*
X108943716Y-117016770D01*
X109014933Y-116945553D01*
X109157367Y-116909945D01*
X109406625Y-116909945D01*
X109549059Y-116945553D01*
X109620276Y-117016770D01*
X109655884Y-117087987D01*
X109655884Y-117622113D02*
X109655884Y-118049413D01*
X108908108Y-117835763D02*
X109655884Y-117835763D01*
X108908108Y-103933908D02*
X109264192Y-103684649D01*
X108908108Y-103506607D02*
X109655884Y-103506607D01*
X109655884Y-103791474D01*
X109620276Y-103862691D01*
X109584667Y-103898299D01*
X109513450Y-103933908D01*
X109406625Y-103933908D01*
X109335408Y-103898299D01*
X109299800Y-103862691D01*
X109264192Y-103791474D01*
X109264192Y-103506607D01*
X109299800Y-104254383D02*
X109299800Y-104503642D01*
X108908108Y-104610467D02*
X108908108Y-104254383D01*
X109655884Y-104254383D01*
X109655884Y-104610467D01*
X108943716Y-104895334D02*
X108908108Y-105002159D01*
X108908108Y-105180201D01*
X108943716Y-105251418D01*
X108979325Y-105287026D01*
X109050541Y-105322634D01*
X109121758Y-105322634D01*
X109192975Y-105287026D01*
X109228583Y-105251418D01*
X109264192Y-105180201D01*
X109299800Y-105037767D01*
X109335408Y-104966551D01*
X109371017Y-104930942D01*
X109442234Y-104895334D01*
X109513450Y-104895334D01*
X109584667Y-104930942D01*
X109620276Y-104966551D01*
X109655884Y-105037767D01*
X109655884Y-105215809D01*
X109620276Y-105322634D01*
X109299800Y-105643110D02*
X109299800Y-105892369D01*
X108908108Y-105999194D02*
X108908108Y-105643110D01*
X109655884Y-105643110D01*
X109655884Y-105999194D01*
X109655884Y-106212844D02*
X109655884Y-106640145D01*
X108908108Y-106426494D02*
X109655884Y-106426494D01*
D12*
X184623852Y-91311306D02*
X184664976Y-91393554D01*
X184664976Y-91558049D01*
X184623852Y-91640297D01*
X184582728Y-91681420D01*
X184500480Y-91722544D01*
X184253738Y-91722544D01*
X184171490Y-91681420D01*
X184130366Y-91640297D01*
X184089242Y-91558049D01*
X184089242Y-91393554D01*
X184130366Y-91311306D01*
X184623852Y-90571078D02*
X184664976Y-90653325D01*
X184664976Y-90817820D01*
X184623852Y-90900068D01*
X184582728Y-90941192D01*
X184500480Y-90982316D01*
X184253738Y-90982316D01*
X184171490Y-90941192D01*
X184130366Y-90900068D01*
X184089242Y-90817820D01*
X184089242Y-90653325D01*
X184130366Y-90571078D01*
X184335985Y-90200963D02*
X184335985Y-89542982D01*
X184664976Y-89131744D02*
X183801376Y-89131744D01*
X184130366Y-89131744D02*
X184089242Y-89049497D01*
X184089242Y-88885001D01*
X184130366Y-88802754D01*
X184171490Y-88761630D01*
X184253738Y-88720506D01*
X184500480Y-88720506D01*
X184582728Y-88761630D01*
X184623852Y-88802754D01*
X184664976Y-88885001D01*
X184664976Y-89049497D01*
X184623852Y-89131744D01*
X184089242Y-88432640D02*
X184664976Y-88227020D01*
X184089242Y-88021401D02*
X184664976Y-88227020D01*
X184870595Y-88309268D01*
X184911719Y-88350392D01*
X184952842Y-88432640D01*
X184335985Y-87692411D02*
X184335985Y-87034430D01*
X184623852Y-86664316D02*
X184664976Y-86582068D01*
X184664976Y-86417573D01*
X184623852Y-86335325D01*
X184541604Y-86294201D01*
X184500480Y-86294201D01*
X184418233Y-86335325D01*
X184377109Y-86417573D01*
X184377109Y-86540944D01*
X184335985Y-86623192D01*
X184253738Y-86664316D01*
X184212614Y-86664316D01*
X184130366Y-86623192D01*
X184089242Y-86540944D01*
X184089242Y-86417573D01*
X184130366Y-86335325D01*
X184664976Y-85553973D02*
X184212614Y-85553973D01*
X184130366Y-85595097D01*
X184089242Y-85677344D01*
X184089242Y-85841840D01*
X184130366Y-85924087D01*
X184623852Y-85553973D02*
X184664976Y-85636220D01*
X184664976Y-85841840D01*
X184623852Y-85924087D01*
X184541604Y-85965211D01*
X184459357Y-85965211D01*
X184377109Y-85924087D01*
X184335985Y-85841840D01*
X184335985Y-85636220D01*
X184294861Y-85553973D01*
X184212614Y-84484754D02*
X184212614Y-84196887D01*
X184664976Y-84073516D02*
X184664976Y-84484754D01*
X183801376Y-84484754D01*
X183801376Y-84073516D01*
X183472385Y-84196887D02*
X183595757Y-84320259D01*
X184664976Y-83703401D02*
X184089242Y-83703401D01*
X184171490Y-83703401D02*
X184130366Y-83662278D01*
X184089242Y-83580030D01*
X184089242Y-83456659D01*
X184130366Y-83374411D01*
X184212614Y-83333287D01*
X184664976Y-83333287D01*
X184212614Y-83333287D02*
X184130366Y-83292163D01*
X184089242Y-83209916D01*
X184089242Y-83086544D01*
X184130366Y-83004297D01*
X184212614Y-82963173D01*
X184664976Y-82963173D01*
X184664976Y-82551935D02*
X184089242Y-82551935D01*
X183801376Y-82551935D02*
X183842500Y-82593059D01*
X183883623Y-82551935D01*
X183842500Y-82510811D01*
X183801376Y-82551935D01*
X183883623Y-82551935D01*
X184664976Y-82017325D02*
X184623852Y-82099573D01*
X184541604Y-82140697D01*
X183801376Y-82140697D01*
X184664976Y-81688335D02*
X184089242Y-81688335D01*
X183801376Y-81688335D02*
X183842500Y-81729459D01*
X183883623Y-81688335D01*
X183842500Y-81647211D01*
X183801376Y-81688335D01*
X183883623Y-81688335D01*
X184623852Y-80948106D02*
X184664976Y-81030354D01*
X184664976Y-81194849D01*
X184623852Y-81277097D01*
X184541604Y-81318220D01*
X184212614Y-81318220D01*
X184130366Y-81277097D01*
X184089242Y-81194849D01*
X184089242Y-81030354D01*
X184130366Y-80948106D01*
X184212614Y-80906982D01*
X184294861Y-80906982D01*
X184377109Y-81318220D01*
X183842500Y-79426525D02*
X183801376Y-79508773D01*
X183801376Y-79632144D01*
X183842500Y-79755516D01*
X183924747Y-79837763D01*
X184006995Y-79878887D01*
X184171490Y-79920011D01*
X184294861Y-79920011D01*
X184459357Y-79878887D01*
X184541604Y-79837763D01*
X184623852Y-79755516D01*
X184664976Y-79632144D01*
X184664976Y-79549897D01*
X184623852Y-79426525D01*
X184582728Y-79385401D01*
X184294861Y-79385401D01*
X184294861Y-79549897D01*
X184664976Y-79015287D02*
X184089242Y-79015287D01*
X183801376Y-79015287D02*
X183842500Y-79056411D01*
X183883623Y-79015287D01*
X183842500Y-78974163D01*
X183801376Y-79015287D01*
X183883623Y-79015287D01*
X184664976Y-78480678D02*
X184623852Y-78562925D01*
X184541604Y-78604049D01*
X183801376Y-78604049D01*
X184664976Y-78028316D02*
X184623852Y-78110563D01*
X184541604Y-78151687D01*
X183801376Y-78151687D01*
X184623852Y-77370335D02*
X184664976Y-77452582D01*
X184664976Y-77617078D01*
X184623852Y-77699325D01*
X184541604Y-77740449D01*
X184212614Y-77740449D01*
X184130366Y-77699325D01*
X184089242Y-77617078D01*
X184089242Y-77452582D01*
X184130366Y-77370335D01*
X184212614Y-77329211D01*
X184294861Y-77329211D01*
X184377109Y-77740449D01*
X184089242Y-77082468D02*
X184089242Y-76753478D01*
X183801376Y-76959097D02*
X184541604Y-76959097D01*
X184623852Y-76917973D01*
X184664976Y-76835725D01*
X184664976Y-76753478D01*
X184623852Y-76424487D02*
X184664976Y-76424487D01*
X184747223Y-76465611D01*
X184788347Y-76506735D01*
X183883623Y-75437516D02*
X183842500Y-75396392D01*
X183801376Y-75314144D01*
X183801376Y-75108525D01*
X183842500Y-75026278D01*
X183883623Y-74985154D01*
X183965871Y-74944030D01*
X184048119Y-74944030D01*
X184171490Y-74985154D01*
X184664976Y-75478640D01*
X184664976Y-74944030D01*
X183801376Y-74409420D02*
X183801376Y-74327173D01*
X183842500Y-74244925D01*
X183883623Y-74203801D01*
X183965871Y-74162678D01*
X184130366Y-74121554D01*
X184335985Y-74121554D01*
X184500480Y-74162678D01*
X184582728Y-74203801D01*
X184623852Y-74244925D01*
X184664976Y-74327173D01*
X184664976Y-74409420D01*
X184623852Y-74491668D01*
X184582728Y-74532792D01*
X184500480Y-74573916D01*
X184335985Y-74615040D01*
X184130366Y-74615040D01*
X183965871Y-74573916D01*
X183883623Y-74532792D01*
X183842500Y-74491668D01*
X183801376Y-74409420D01*
X184664976Y-73299078D02*
X184664976Y-73792563D01*
X184664976Y-73545820D02*
X183801376Y-73545820D01*
X183924747Y-73628068D01*
X184006995Y-73710316D01*
X184048119Y-73792563D01*
X183801376Y-72517725D02*
X183801376Y-72928963D01*
X184212614Y-72970087D01*
X184171490Y-72928963D01*
X184130366Y-72846716D01*
X184130366Y-72641097D01*
X184171490Y-72558849D01*
X184212614Y-72517725D01*
X184294861Y-72476601D01*
X184500480Y-72476601D01*
X184582728Y-72517725D01*
X184623852Y-72558849D01*
X184664976Y-72641097D01*
X184664976Y-72846716D01*
X184623852Y-72928963D01*
X184582728Y-72970087D01*
X184582728Y-72106487D02*
X184623852Y-72065363D01*
X184664976Y-72106487D01*
X184623852Y-72147611D01*
X184582728Y-72106487D01*
X184664976Y-72106487D01*
X184089242Y-71119516D02*
X184664976Y-70913897D01*
X184089242Y-70708278D01*
X183801376Y-69968049D02*
X183801376Y-70379287D01*
X184212614Y-70420411D01*
X184171490Y-70379287D01*
X184130366Y-70297040D01*
X184130366Y-70091420D01*
X184171490Y-70009173D01*
X184212614Y-69968049D01*
X184294861Y-69926925D01*
X184500480Y-69926925D01*
X184582728Y-69968049D01*
X184623852Y-70009173D01*
X184664976Y-70091420D01*
X184664976Y-70297040D01*
X184623852Y-70379287D01*
X184582728Y-70420411D01*
D13*
%TO.C,C16*%
X154671432Y-119792931D02*
X154646854Y-119817508D01*
X154573122Y-119842086D01*
X154523967Y-119842086D01*
X154450234Y-119817508D01*
X154401079Y-119768353D01*
X154376501Y-119719198D01*
X154351924Y-119620888D01*
X154351924Y-119547156D01*
X154376501Y-119448846D01*
X154401079Y-119399691D01*
X154450234Y-119350536D01*
X154523967Y-119325958D01*
X154573122Y-119325958D01*
X154646854Y-119350536D01*
X154671432Y-119375113D01*
X155162982Y-119842086D02*
X154868052Y-119842086D01*
X155015517Y-119842086D02*
X155015517Y-119325958D01*
X154966362Y-119399691D01*
X154917207Y-119448846D01*
X154868052Y-119473423D01*
X155605378Y-119325958D02*
X155507067Y-119325958D01*
X155457912Y-119350536D01*
X155433335Y-119375113D01*
X155384180Y-119448846D01*
X155359602Y-119547156D01*
X155359602Y-119743776D01*
X155384180Y-119792931D01*
X155408757Y-119817508D01*
X155457912Y-119842086D01*
X155556223Y-119842086D01*
X155605378Y-119817508D01*
X155629955Y-119792931D01*
X155654533Y-119743776D01*
X155654533Y-119620888D01*
X155629955Y-119571733D01*
X155605378Y-119547156D01*
X155556223Y-119522578D01*
X155457912Y-119522578D01*
X155408757Y-119547156D01*
X155384180Y-119571733D01*
X155359602Y-119620888D01*
%TO.C,R5*%
X144391669Y-54846510D02*
X144151893Y-54503973D01*
X143980625Y-54846510D02*
X143980625Y-54127182D01*
X144254655Y-54127182D01*
X144323162Y-54161436D01*
X144357416Y-54195689D01*
X144391669Y-54264197D01*
X144391669Y-54366958D01*
X144357416Y-54435465D01*
X144323162Y-54469719D01*
X144254655Y-54503973D01*
X143980625Y-54503973D01*
X145042490Y-54127182D02*
X144699953Y-54127182D01*
X144665699Y-54469719D01*
X144699953Y-54435465D01*
X144768460Y-54401212D01*
X144939729Y-54401212D01*
X145008236Y-54435465D01*
X145042490Y-54469719D01*
X145076744Y-54538226D01*
X145076744Y-54709495D01*
X145042490Y-54778002D01*
X145008236Y-54812256D01*
X144939729Y-54846510D01*
X144768460Y-54846510D01*
X144699953Y-54812256D01*
X144665699Y-54778002D01*
%TO.C,R41*%
X157211432Y-125239586D02*
X157039389Y-124993811D01*
X156916501Y-125239586D02*
X156916501Y-124723458D01*
X157113122Y-124723458D01*
X157162277Y-124748036D01*
X157186854Y-124772613D01*
X157211432Y-124821768D01*
X157211432Y-124895501D01*
X157186854Y-124944656D01*
X157162277Y-124969233D01*
X157113122Y-124993811D01*
X156916501Y-124993811D01*
X157653827Y-124895501D02*
X157653827Y-125239586D01*
X157530939Y-124698880D02*
X157408052Y-125067543D01*
X157727560Y-125067543D01*
X158194533Y-125239586D02*
X157899602Y-125239586D01*
X158047067Y-125239586D02*
X158047067Y-124723458D01*
X157997912Y-124797191D01*
X157948757Y-124846346D01*
X157899602Y-124870923D01*
%TO.C,R19*%
X119044284Y-92200838D02*
X118652108Y-91640587D01*
X118371982Y-92200838D02*
X118371982Y-91024310D01*
X118820183Y-91024310D01*
X118932233Y-91080336D01*
X118988259Y-91136361D01*
X119044284Y-91248411D01*
X119044284Y-91416486D01*
X118988259Y-91528537D01*
X118932233Y-91584562D01*
X118820183Y-91640587D01*
X118371982Y-91640587D01*
X120164787Y-92200838D02*
X119492485Y-92200838D01*
X119828636Y-92200838D02*
X119828636Y-91024310D01*
X119716585Y-91192386D01*
X119604535Y-91304436D01*
X119492485Y-91360461D01*
X120725038Y-92200838D02*
X120949139Y-92200838D01*
X121061189Y-92144813D01*
X121117214Y-92088788D01*
X121229264Y-91920713D01*
X121285289Y-91696612D01*
X121285289Y-91248411D01*
X121229264Y-91136361D01*
X121173239Y-91080336D01*
X121061189Y-91024310D01*
X120837088Y-91024310D01*
X120725038Y-91080336D01*
X120669013Y-91136361D01*
X120612988Y-91248411D01*
X120612988Y-91528537D01*
X120669013Y-91640587D01*
X120725038Y-91696612D01*
X120837088Y-91752637D01*
X121061189Y-91752637D01*
X121173239Y-91696612D01*
X121229264Y-91640587D01*
X121285289Y-91528537D01*
X118988259Y-93724838D02*
X118315957Y-93724838D01*
X118652108Y-93724838D02*
X118652108Y-92548310D01*
X118540057Y-92716386D01*
X118428007Y-92828436D01*
X118315957Y-92884461D01*
X119716585Y-92548310D02*
X119828636Y-92548310D01*
X119940686Y-92604336D01*
X119996711Y-92660361D01*
X120052736Y-92772411D01*
X120108761Y-92996512D01*
X120108761Y-93276637D01*
X120052736Y-93500738D01*
X119996711Y-93612788D01*
X119940686Y-93668813D01*
X119828636Y-93724838D01*
X119716585Y-93724838D01*
X119604535Y-93668813D01*
X119548510Y-93612788D01*
X119492485Y-93500738D01*
X119436460Y-93276637D01*
X119436460Y-92996512D01*
X119492485Y-92772411D01*
X119548510Y-92660361D01*
X119604535Y-92604336D01*
X119716585Y-92548310D01*
X120612988Y-93724838D02*
X120612988Y-92548310D01*
X120725038Y-93276637D02*
X121061189Y-93724838D01*
X121061189Y-92940486D02*
X120612988Y-93388688D01*
X121957591Y-93108562D02*
X122125667Y-93164587D01*
X122181692Y-93220612D01*
X122237717Y-93332662D01*
X122237717Y-93500738D01*
X122181692Y-93612788D01*
X122125667Y-93668813D01*
X122013616Y-93724838D01*
X121565415Y-93724838D01*
X121565415Y-92548310D01*
X121957591Y-92548310D01*
X122069641Y-92604336D01*
X122125667Y-92660361D01*
X122181692Y-92772411D01*
X122181692Y-92884461D01*
X122125667Y-92996512D01*
X122069641Y-93052537D01*
X121957591Y-93108562D01*
X121565415Y-93108562D01*
%TO.C,R36*%
X119044284Y-118870838D02*
X118652108Y-118310587D01*
X118371982Y-118870838D02*
X118371982Y-117694310D01*
X118820183Y-117694310D01*
X118932233Y-117750336D01*
X118988259Y-117806361D01*
X119044284Y-117918411D01*
X119044284Y-118086486D01*
X118988259Y-118198537D01*
X118932233Y-118254562D01*
X118820183Y-118310587D01*
X118371982Y-118310587D01*
X119436460Y-117694310D02*
X120164787Y-117694310D01*
X119772611Y-118142512D01*
X119940686Y-118142512D01*
X120052736Y-118198537D01*
X120108761Y-118254562D01*
X120164787Y-118366612D01*
X120164787Y-118646738D01*
X120108761Y-118758788D01*
X120052736Y-118814813D01*
X119940686Y-118870838D01*
X119604535Y-118870838D01*
X119492485Y-118814813D01*
X119436460Y-118758788D01*
X121173239Y-117694310D02*
X120949139Y-117694310D01*
X120837088Y-117750336D01*
X120781063Y-117806361D01*
X120669013Y-117974436D01*
X120612988Y-118198537D01*
X120612988Y-118646738D01*
X120669013Y-118758788D01*
X120725038Y-118814813D01*
X120837088Y-118870838D01*
X121061189Y-118870838D01*
X121173239Y-118814813D01*
X121229264Y-118758788D01*
X121285289Y-118646738D01*
X121285289Y-118366612D01*
X121229264Y-118254562D01*
X121173239Y-118198537D01*
X121061189Y-118142512D01*
X120837088Y-118142512D01*
X120725038Y-118198537D01*
X120669013Y-118254562D01*
X120612988Y-118366612D01*
X118988259Y-120394838D02*
X118315957Y-120394838D01*
X118652108Y-120394838D02*
X118652108Y-119218310D01*
X118540057Y-119386386D01*
X118428007Y-119498436D01*
X118315957Y-119554461D01*
X119716585Y-119218310D02*
X119828636Y-119218310D01*
X119940686Y-119274336D01*
X119996711Y-119330361D01*
X120052736Y-119442411D01*
X120108761Y-119666512D01*
X120108761Y-119946637D01*
X120052736Y-120170738D01*
X119996711Y-120282788D01*
X119940686Y-120338813D01*
X119828636Y-120394838D01*
X119716585Y-120394838D01*
X119604535Y-120338813D01*
X119548510Y-120282788D01*
X119492485Y-120170738D01*
X119436460Y-119946637D01*
X119436460Y-119666512D01*
X119492485Y-119442411D01*
X119548510Y-119330361D01*
X119604535Y-119274336D01*
X119716585Y-119218310D01*
X120612988Y-120394838D02*
X120612988Y-119218310D01*
X120725038Y-119946637D02*
X121061189Y-120394838D01*
X121061189Y-119610486D02*
X120612988Y-120058688D01*
X121957591Y-119778562D02*
X122125667Y-119834587D01*
X122181692Y-119890612D01*
X122237717Y-120002662D01*
X122237717Y-120170738D01*
X122181692Y-120282788D01*
X122125667Y-120338813D01*
X122013616Y-120394838D01*
X121565415Y-120394838D01*
X121565415Y-119218310D01*
X121957591Y-119218310D01*
X122069641Y-119274336D01*
X122125667Y-119330361D01*
X122181692Y-119442411D01*
X122181692Y-119554461D01*
X122125667Y-119666512D01*
X122069641Y-119722537D01*
X121957591Y-119778562D01*
X121565415Y-119778562D01*
%TO.C,R3*%
X137406669Y-54846510D02*
X137166893Y-54503973D01*
X136995625Y-54846510D02*
X136995625Y-54127182D01*
X137269655Y-54127182D01*
X137338162Y-54161436D01*
X137372416Y-54195689D01*
X137406669Y-54264197D01*
X137406669Y-54366958D01*
X137372416Y-54435465D01*
X137338162Y-54469719D01*
X137269655Y-54503973D01*
X136995625Y-54503973D01*
X137646445Y-54127182D02*
X138091744Y-54127182D01*
X137851968Y-54401212D01*
X137954729Y-54401212D01*
X138023236Y-54435465D01*
X138057490Y-54469719D01*
X138091744Y-54538226D01*
X138091744Y-54709495D01*
X138057490Y-54778002D01*
X138023236Y-54812256D01*
X137954729Y-54846510D01*
X137749207Y-54846510D01*
X137680699Y-54812256D01*
X137646445Y-54778002D01*
%TO.C,R32*%
X154036432Y-117302086D02*
X153864389Y-117056311D01*
X153741501Y-117302086D02*
X153741501Y-116785958D01*
X153938122Y-116785958D01*
X153987277Y-116810536D01*
X154011854Y-116835113D01*
X154036432Y-116884268D01*
X154036432Y-116958001D01*
X154011854Y-117007156D01*
X153987277Y-117031733D01*
X153938122Y-117056311D01*
X153741501Y-117056311D01*
X154208474Y-116785958D02*
X154527982Y-116785958D01*
X154355939Y-116982578D01*
X154429672Y-116982578D01*
X154478827Y-117007156D01*
X154503405Y-117031733D01*
X154527982Y-117080888D01*
X154527982Y-117203776D01*
X154503405Y-117252931D01*
X154478827Y-117277508D01*
X154429672Y-117302086D01*
X154282207Y-117302086D01*
X154233052Y-117277508D01*
X154208474Y-117252931D01*
X154724602Y-116835113D02*
X154749180Y-116810536D01*
X154798335Y-116785958D01*
X154921223Y-116785958D01*
X154970378Y-116810536D01*
X154994955Y-116835113D01*
X155019533Y-116884268D01*
X155019533Y-116933423D01*
X154994955Y-117007156D01*
X154700025Y-117302086D01*
X155019533Y-117302086D01*
%TO.C,C11*%
X167745431Y-107700025D02*
X167770008Y-107724602D01*
X167794586Y-107798335D01*
X167794586Y-107847490D01*
X167770008Y-107921223D01*
X167720853Y-107970378D01*
X167671698Y-107994955D01*
X167573388Y-108019533D01*
X167499656Y-108019533D01*
X167401346Y-107994955D01*
X167352191Y-107970378D01*
X167303036Y-107921223D01*
X167278458Y-107847490D01*
X167278458Y-107798335D01*
X167303036Y-107724602D01*
X167327613Y-107700025D01*
X167794586Y-107208474D02*
X167794586Y-107503405D01*
X167794586Y-107355939D02*
X167278458Y-107355939D01*
X167352191Y-107405095D01*
X167401346Y-107454250D01*
X167425923Y-107503405D01*
X167794586Y-106716924D02*
X167794586Y-107011854D01*
X167794586Y-106864389D02*
X167278458Y-106864389D01*
X167352191Y-106913544D01*
X167401346Y-106962699D01*
X167425923Y-107011854D01*
%TO.C,Q2*%
X126045177Y-54915017D02*
X125976669Y-54880764D01*
X125908162Y-54812256D01*
X125805401Y-54709495D01*
X125736893Y-54675241D01*
X125668386Y-54675241D01*
X125702640Y-54846510D02*
X125634132Y-54812256D01*
X125565625Y-54743749D01*
X125531371Y-54606734D01*
X125531371Y-54366958D01*
X125565625Y-54229943D01*
X125634132Y-54161436D01*
X125702640Y-54127182D01*
X125839655Y-54127182D01*
X125908162Y-54161436D01*
X125976669Y-54229943D01*
X126010923Y-54366958D01*
X126010923Y-54606734D01*
X125976669Y-54743749D01*
X125908162Y-54812256D01*
X125839655Y-54846510D01*
X125702640Y-54846510D01*
X126284953Y-54195689D02*
X126319207Y-54161436D01*
X126387714Y-54127182D01*
X126558983Y-54127182D01*
X126627490Y-54161436D01*
X126661744Y-54195689D01*
X126695997Y-54264197D01*
X126695997Y-54332704D01*
X126661744Y-54435465D01*
X126250699Y-54846510D01*
X126695997Y-54846510D01*
%TO.C,R18*%
X155515679Y-82151510D02*
X155275903Y-81808973D01*
X155104635Y-82151510D02*
X155104635Y-81432182D01*
X155378664Y-81432182D01*
X155447172Y-81466436D01*
X155481426Y-81500689D01*
X155515679Y-81569197D01*
X155515679Y-81671958D01*
X155481426Y-81740465D01*
X155447172Y-81774719D01*
X155378664Y-81808973D01*
X155104635Y-81808973D01*
X156200754Y-82151510D02*
X155789709Y-82151510D01*
X155995231Y-82151510D02*
X155995231Y-81432182D01*
X155926724Y-81534943D01*
X155858216Y-81603450D01*
X155789709Y-81637704D01*
X156611798Y-81740465D02*
X156543291Y-81706212D01*
X156509037Y-81671958D01*
X156474783Y-81603450D01*
X156474783Y-81569197D01*
X156509037Y-81500689D01*
X156543291Y-81466436D01*
X156611798Y-81432182D01*
X156748813Y-81432182D01*
X156817320Y-81466436D01*
X156851574Y-81500689D01*
X156885828Y-81569197D01*
X156885828Y-81603450D01*
X156851574Y-81671958D01*
X156817320Y-81706212D01*
X156748813Y-81740465D01*
X156611798Y-81740465D01*
X156543291Y-81774719D01*
X156509037Y-81808973D01*
X156474783Y-81877480D01*
X156474783Y-82014495D01*
X156509037Y-82083002D01*
X156543291Y-82117256D01*
X156611798Y-82151510D01*
X156748813Y-82151510D01*
X156817320Y-82117256D01*
X156851574Y-82083002D01*
X156885828Y-82014495D01*
X156885828Y-81877480D01*
X156851574Y-81808973D01*
X156817320Y-81774719D01*
X156748813Y-81740465D01*
%TO.C,C22*%
X165182174Y-133127931D02*
X165157597Y-133152508D01*
X165083864Y-133177086D01*
X165034709Y-133177086D01*
X164960976Y-133152508D01*
X164911821Y-133103353D01*
X164887244Y-133054198D01*
X164862666Y-132955888D01*
X164862666Y-132882156D01*
X164887244Y-132783846D01*
X164911821Y-132734691D01*
X164960976Y-132685536D01*
X165034709Y-132660958D01*
X165083864Y-132660958D01*
X165157597Y-132685536D01*
X165182174Y-132710113D01*
X165378794Y-132710113D02*
X165403372Y-132685536D01*
X165452527Y-132660958D01*
X165575415Y-132660958D01*
X165624570Y-132685536D01*
X165649147Y-132710113D01*
X165673725Y-132759268D01*
X165673725Y-132808423D01*
X165649147Y-132882156D01*
X165354217Y-133177086D01*
X165673725Y-133177086D01*
X165870345Y-132710113D02*
X165894922Y-132685536D01*
X165944077Y-132660958D01*
X166066965Y-132660958D01*
X166116120Y-132685536D01*
X166140698Y-132710113D01*
X166165275Y-132759268D01*
X166165275Y-132808423D01*
X166140698Y-132882156D01*
X165845767Y-133177086D01*
X166165275Y-133177086D01*
D14*
%TO.C,Q5*%
X141279871Y-103544611D02*
X141213347Y-103511350D01*
X141146823Y-103444826D01*
X141047037Y-103345040D01*
X140980514Y-103311778D01*
X140913990Y-103311778D01*
X140947252Y-103478088D02*
X140880728Y-103444826D01*
X140814204Y-103378302D01*
X140780942Y-103245254D01*
X140780942Y-103012421D01*
X140814204Y-102879373D01*
X140880728Y-102812850D01*
X140947252Y-102779588D01*
X141080299Y-102779588D01*
X141146823Y-102812850D01*
X141213347Y-102879373D01*
X141246609Y-103012421D01*
X141246609Y-103245254D01*
X141213347Y-103378302D01*
X141146823Y-103444826D01*
X141080299Y-103478088D01*
X140947252Y-103478088D01*
X141878585Y-102779588D02*
X141545966Y-102779588D01*
X141512704Y-103112207D01*
X141545966Y-103078945D01*
X141612490Y-103045683D01*
X141778799Y-103045683D01*
X141845323Y-103078945D01*
X141878585Y-103112207D01*
X141911847Y-103178730D01*
X141911847Y-103345040D01*
X141878585Y-103411564D01*
X141845323Y-103444826D01*
X141778799Y-103478088D01*
X141612490Y-103478088D01*
X141545966Y-103444826D01*
X141512704Y-103411564D01*
D13*
%TO.C,R13*%
X141863179Y-82151510D02*
X141623403Y-81808973D01*
X141452135Y-82151510D02*
X141452135Y-81432182D01*
X141726164Y-81432182D01*
X141794672Y-81466436D01*
X141828926Y-81500689D01*
X141863179Y-81569197D01*
X141863179Y-81671958D01*
X141828926Y-81740465D01*
X141794672Y-81774719D01*
X141726164Y-81808973D01*
X141452135Y-81808973D01*
X142548254Y-82151510D02*
X142137209Y-82151510D01*
X142342731Y-82151510D02*
X142342731Y-81432182D01*
X142274224Y-81534943D01*
X142205716Y-81603450D01*
X142137209Y-81637704D01*
X142788030Y-81432182D02*
X143233328Y-81432182D01*
X142993552Y-81706212D01*
X143096313Y-81706212D01*
X143164820Y-81740465D01*
X143199074Y-81774719D01*
X143233328Y-81843226D01*
X143233328Y-82014495D01*
X143199074Y-82083002D01*
X143164820Y-82117256D01*
X143096313Y-82151510D01*
X142890791Y-82151510D01*
X142822283Y-82117256D01*
X142788030Y-82083002D01*
D15*
%TO.C,IC9*%
X130860881Y-135680643D02*
X130012521Y-135680643D01*
X130780085Y-134791885D02*
X130820483Y-134832283D01*
X130860881Y-134953477D01*
X130860881Y-135034274D01*
X130820483Y-135155468D01*
X130739687Y-135236264D01*
X130658891Y-135276662D01*
X130497299Y-135317060D01*
X130376104Y-135317060D01*
X130214512Y-135276662D01*
X130133716Y-135236264D01*
X130052920Y-135155468D01*
X130012521Y-135034274D01*
X130012521Y-134953477D01*
X130052920Y-134832283D01*
X130093318Y-134791885D01*
X130860881Y-134387904D02*
X130860881Y-134226312D01*
X130820483Y-134145515D01*
X130780085Y-134105117D01*
X130658891Y-134024321D01*
X130497299Y-133983923D01*
X130174114Y-133983923D01*
X130093318Y-134024321D01*
X130052920Y-134064719D01*
X130012521Y-134145515D01*
X130012521Y-134307108D01*
X130052920Y-134387904D01*
X130093318Y-134428302D01*
X130174114Y-134468700D01*
X130376104Y-134468700D01*
X130456900Y-134428302D01*
X130497299Y-134387904D01*
X130537697Y-134307108D01*
X130537697Y-134145515D01*
X130497299Y-134064719D01*
X130456900Y-134024321D01*
X130376104Y-133983923D01*
D13*
%TO.C,R51*%
X122286432Y-136352086D02*
X122114389Y-136106311D01*
X121991501Y-136352086D02*
X121991501Y-135835958D01*
X122188122Y-135835958D01*
X122237277Y-135860536D01*
X122261854Y-135885113D01*
X122286432Y-135934268D01*
X122286432Y-136008001D01*
X122261854Y-136057156D01*
X122237277Y-136081733D01*
X122188122Y-136106311D01*
X121991501Y-136106311D01*
X122753405Y-135835958D02*
X122507629Y-135835958D01*
X122483052Y-136081733D01*
X122507629Y-136057156D01*
X122556784Y-136032578D01*
X122679672Y-136032578D01*
X122728827Y-136057156D01*
X122753405Y-136081733D01*
X122777982Y-136130888D01*
X122777982Y-136253776D01*
X122753405Y-136302931D01*
X122728827Y-136327508D01*
X122679672Y-136352086D01*
X122556784Y-136352086D01*
X122507629Y-136327508D01*
X122483052Y-136302931D01*
X123269533Y-136352086D02*
X122974602Y-136352086D01*
X123122067Y-136352086D02*
X123122067Y-135835958D01*
X123072912Y-135909691D01*
X123023757Y-135958846D01*
X122974602Y-135983423D01*
%TO.C,C6*%
X153848002Y-102076445D02*
X153882256Y-102110699D01*
X153916510Y-102213460D01*
X153916510Y-102281968D01*
X153882256Y-102384729D01*
X153813749Y-102453236D01*
X153745241Y-102487490D01*
X153608226Y-102521744D01*
X153505465Y-102521744D01*
X153368450Y-102487490D01*
X153299943Y-102453236D01*
X153231436Y-102384729D01*
X153197182Y-102281968D01*
X153197182Y-102213460D01*
X153231436Y-102110699D01*
X153265689Y-102076445D01*
X153197182Y-101459879D02*
X153197182Y-101596893D01*
X153231436Y-101665401D01*
X153265689Y-101699655D01*
X153368450Y-101768162D01*
X153505465Y-101802416D01*
X153779495Y-101802416D01*
X153848002Y-101768162D01*
X153882256Y-101733908D01*
X153916510Y-101665401D01*
X153916510Y-101528386D01*
X153882256Y-101459879D01*
X153848002Y-101425625D01*
X153779495Y-101391371D01*
X153608226Y-101391371D01*
X153539719Y-101425625D01*
X153505465Y-101459879D01*
X153471212Y-101528386D01*
X153471212Y-101665401D01*
X153505465Y-101733908D01*
X153539719Y-101768162D01*
X153608226Y-101802416D01*
D16*
%TO.C,IC3*%
X182162695Y-95858934D02*
X182162695Y-95018194D01*
X183043470Y-95778864D02*
X183003435Y-95818899D01*
X182883329Y-95858934D01*
X182803259Y-95858934D01*
X182683153Y-95818899D01*
X182603082Y-95738829D01*
X182563047Y-95658758D01*
X182523012Y-95498617D01*
X182523012Y-95378511D01*
X182563047Y-95218370D01*
X182603082Y-95138300D01*
X182683153Y-95058230D01*
X182803259Y-95018194D01*
X182883329Y-95018194D01*
X183003435Y-95058230D01*
X183043470Y-95098265D01*
X183323717Y-95018194D02*
X183844175Y-95018194D01*
X183563928Y-95338476D01*
X183684034Y-95338476D01*
X183764104Y-95378511D01*
X183804139Y-95418547D01*
X183844175Y-95498617D01*
X183844175Y-95698793D01*
X183804139Y-95778864D01*
X183764104Y-95818899D01*
X183684034Y-95858934D01*
X183443822Y-95858934D01*
X183363752Y-95818899D01*
X183323717Y-95778864D01*
D13*
%TO.C,R17*%
X152658179Y-82151510D02*
X152418403Y-81808973D01*
X152247135Y-82151510D02*
X152247135Y-81432182D01*
X152521164Y-81432182D01*
X152589672Y-81466436D01*
X152623926Y-81500689D01*
X152658179Y-81569197D01*
X152658179Y-81671958D01*
X152623926Y-81740465D01*
X152589672Y-81774719D01*
X152521164Y-81808973D01*
X152247135Y-81808973D01*
X153343254Y-82151510D02*
X152932209Y-82151510D01*
X153137731Y-82151510D02*
X153137731Y-81432182D01*
X153069224Y-81534943D01*
X153000716Y-81603450D01*
X152932209Y-81637704D01*
X153583030Y-81432182D02*
X154062582Y-81432182D01*
X153754298Y-82151510D01*
%TO.C,C4*%
X130670502Y-96423030D02*
X130704756Y-96457283D01*
X130739010Y-96560044D01*
X130739010Y-96628552D01*
X130704756Y-96731313D01*
X130636249Y-96799820D01*
X130567741Y-96834074D01*
X130430726Y-96868328D01*
X130327965Y-96868328D01*
X130190950Y-96834074D01*
X130122443Y-96799820D01*
X130053936Y-96731313D01*
X130019682Y-96628552D01*
X130019682Y-96560044D01*
X130053936Y-96457283D01*
X130088189Y-96423030D01*
X130259458Y-95806463D02*
X130739010Y-95806463D01*
X129985428Y-95977731D02*
X130499234Y-96149000D01*
X130499234Y-95703702D01*
%TO.C,C28*%
X135042931Y-143293267D02*
X135067508Y-143317845D01*
X135092086Y-143391577D01*
X135092086Y-143440732D01*
X135067508Y-143514465D01*
X135018353Y-143563620D01*
X134969198Y-143588198D01*
X134870888Y-143612775D01*
X134797156Y-143612775D01*
X134698846Y-143588198D01*
X134649691Y-143563620D01*
X134600536Y-143514465D01*
X134575958Y-143440732D01*
X134575958Y-143391577D01*
X134600536Y-143317845D01*
X134625113Y-143293267D01*
X134625113Y-143096647D02*
X134600536Y-143072070D01*
X134575958Y-143022915D01*
X134575958Y-142900027D01*
X134600536Y-142850872D01*
X134625113Y-142826294D01*
X134674268Y-142801717D01*
X134723423Y-142801717D01*
X134797156Y-142826294D01*
X135092086Y-143121225D01*
X135092086Y-142801717D01*
X134797156Y-142506787D02*
X134772578Y-142555942D01*
X134748001Y-142580519D01*
X134698846Y-142605097D01*
X134674268Y-142605097D01*
X134625113Y-142580519D01*
X134600536Y-142555942D01*
X134575958Y-142506787D01*
X134575958Y-142408476D01*
X134600536Y-142359321D01*
X134625113Y-142334744D01*
X134674268Y-142310166D01*
X134698846Y-142310166D01*
X134748001Y-142334744D01*
X134772578Y-142359321D01*
X134797156Y-142408476D01*
X134797156Y-142506787D01*
X134821733Y-142555942D01*
X134846311Y-142580519D01*
X134895466Y-142605097D01*
X134993776Y-142605097D01*
X135042931Y-142580519D01*
X135067508Y-142555942D01*
X135092086Y-142506787D01*
X135092086Y-142408476D01*
X135067508Y-142359321D01*
X135042931Y-142334744D01*
X134993776Y-142310166D01*
X134895466Y-142310166D01*
X134846311Y-142334744D01*
X134821733Y-142359321D01*
X134797156Y-142408476D01*
D17*
%TO.C,C30*%
X172796162Y-146907179D02*
X172761018Y-146942323D01*
X172655586Y-146977467D01*
X172585299Y-146977467D01*
X172479867Y-146942323D01*
X172409579Y-146872035D01*
X172374435Y-146801747D01*
X172339291Y-146661171D01*
X172339291Y-146555740D01*
X172374435Y-146415164D01*
X172409579Y-146344876D01*
X172479867Y-146274589D01*
X172585299Y-146239445D01*
X172655586Y-146239445D01*
X172761018Y-146274589D01*
X172796162Y-146309732D01*
X173042169Y-146239445D02*
X173499040Y-146239445D01*
X173253033Y-146520596D01*
X173358464Y-146520596D01*
X173428752Y-146555740D01*
X173463896Y-146590884D01*
X173499040Y-146661171D01*
X173499040Y-146836891D01*
X173463896Y-146907179D01*
X173428752Y-146942323D01*
X173358464Y-146977467D01*
X173147601Y-146977467D01*
X173077313Y-146942323D01*
X173042169Y-146907179D01*
X173955911Y-146239445D02*
X174026199Y-146239445D01*
X174096486Y-146274589D01*
X174131630Y-146309732D01*
X174166774Y-146380020D01*
X174201918Y-146520596D01*
X174201918Y-146696315D01*
X174166774Y-146836891D01*
X174131630Y-146907179D01*
X174096486Y-146942323D01*
X174026199Y-146977467D01*
X173955911Y-146977467D01*
X173885623Y-146942323D01*
X173850479Y-146907179D01*
X173815335Y-146836891D01*
X173780191Y-146696315D01*
X173780191Y-146520596D01*
X173815335Y-146380020D01*
X173850479Y-146309732D01*
X173885623Y-146274589D01*
X173955911Y-146239445D01*
D13*
%TO.C,Q6*%
X134617677Y-109525017D02*
X134549169Y-109490764D01*
X134480662Y-109422256D01*
X134377901Y-109319495D01*
X134309393Y-109285241D01*
X134240886Y-109285241D01*
X134275140Y-109456510D02*
X134206632Y-109422256D01*
X134138125Y-109353749D01*
X134103871Y-109216734D01*
X134103871Y-108976958D01*
X134138125Y-108839943D01*
X134206632Y-108771436D01*
X134275140Y-108737182D01*
X134412155Y-108737182D01*
X134480662Y-108771436D01*
X134549169Y-108839943D01*
X134583423Y-108976958D01*
X134583423Y-109216734D01*
X134549169Y-109353749D01*
X134480662Y-109422256D01*
X134412155Y-109456510D01*
X134275140Y-109456510D01*
X135199990Y-108737182D02*
X135062975Y-108737182D01*
X134994468Y-108771436D01*
X134960214Y-108805689D01*
X134891707Y-108908450D01*
X134857453Y-109045465D01*
X134857453Y-109319495D01*
X134891707Y-109388002D01*
X134925960Y-109422256D01*
X134994468Y-109456510D01*
X135131483Y-109456510D01*
X135199990Y-109422256D01*
X135234244Y-109388002D01*
X135268497Y-109319495D01*
X135268497Y-109148226D01*
X135234244Y-109079719D01*
X135199990Y-109045465D01*
X135131483Y-109011212D01*
X134994468Y-109011212D01*
X134925960Y-109045465D01*
X134891707Y-109079719D01*
X134857453Y-109148226D01*
%TO.C,C7*%
X155118002Y-102076445D02*
X155152256Y-102110699D01*
X155186510Y-102213460D01*
X155186510Y-102281968D01*
X155152256Y-102384729D01*
X155083749Y-102453236D01*
X155015241Y-102487490D01*
X154878226Y-102521744D01*
X154775465Y-102521744D01*
X154638450Y-102487490D01*
X154569943Y-102453236D01*
X154501436Y-102384729D01*
X154467182Y-102281968D01*
X154467182Y-102213460D01*
X154501436Y-102110699D01*
X154535689Y-102076445D01*
X154467182Y-101836669D02*
X154467182Y-101357117D01*
X155186510Y-101665401D01*
D18*
%TO.C,IC2*%
X171372158Y-86911074D02*
X170527608Y-86911074D01*
X171291725Y-86026307D02*
X171331941Y-86066524D01*
X171372158Y-86187174D01*
X171372158Y-86267607D01*
X171331941Y-86388257D01*
X171251508Y-86468690D01*
X171171075Y-86508907D01*
X171010208Y-86549124D01*
X170889558Y-86549124D01*
X170728691Y-86508907D01*
X170648258Y-86468690D01*
X170567825Y-86388257D01*
X170527608Y-86267607D01*
X170527608Y-86187174D01*
X170567825Y-86066524D01*
X170608041Y-86026307D01*
X170608041Y-85704574D02*
X170567825Y-85664357D01*
X170527608Y-85583924D01*
X170527608Y-85382840D01*
X170567825Y-85302407D01*
X170608041Y-85262190D01*
X170688475Y-85221974D01*
X170768908Y-85221974D01*
X170889558Y-85262190D01*
X171372158Y-85744790D01*
X171372158Y-85221974D01*
D13*
%TO.C,R55*%
X159857086Y-144880767D02*
X159611311Y-145052810D01*
X159857086Y-145175698D02*
X159340958Y-145175698D01*
X159340958Y-144979077D01*
X159365536Y-144929922D01*
X159390113Y-144905345D01*
X159439268Y-144880767D01*
X159513001Y-144880767D01*
X159562156Y-144905345D01*
X159586733Y-144929922D01*
X159611311Y-144979077D01*
X159611311Y-145175698D01*
X159340958Y-144413794D02*
X159340958Y-144659570D01*
X159586733Y-144684147D01*
X159562156Y-144659570D01*
X159537578Y-144610415D01*
X159537578Y-144487527D01*
X159562156Y-144438372D01*
X159586733Y-144413794D01*
X159635888Y-144389217D01*
X159758776Y-144389217D01*
X159807931Y-144413794D01*
X159832508Y-144438372D01*
X159857086Y-144487527D01*
X159857086Y-144610415D01*
X159832508Y-144659570D01*
X159807931Y-144684147D01*
X159340958Y-143922244D02*
X159340958Y-144168019D01*
X159586733Y-144192597D01*
X159562156Y-144168019D01*
X159537578Y-144118864D01*
X159537578Y-143995976D01*
X159562156Y-143946821D01*
X159586733Y-143922244D01*
X159635888Y-143897666D01*
X159758776Y-143897666D01*
X159807931Y-143922244D01*
X159832508Y-143946821D01*
X159857086Y-143995976D01*
X159857086Y-144118864D01*
X159832508Y-144168019D01*
X159807931Y-144192597D01*
D16*
%TO.C,IC8*%
X119568060Y-132053934D02*
X119568060Y-131213194D01*
X120448835Y-131973864D02*
X120408800Y-132013899D01*
X120288694Y-132053934D01*
X120208623Y-132053934D01*
X120088518Y-132013899D01*
X120008447Y-131933829D01*
X119968412Y-131853758D01*
X119928377Y-131693617D01*
X119928377Y-131573511D01*
X119968412Y-131413370D01*
X120008447Y-131333300D01*
X120088518Y-131253230D01*
X120208623Y-131213194D01*
X120288694Y-131213194D01*
X120408800Y-131253230D01*
X120448835Y-131293265D01*
X120929258Y-131573511D02*
X120849187Y-131533476D01*
X120809152Y-131493441D01*
X120769117Y-131413370D01*
X120769117Y-131373335D01*
X120809152Y-131293265D01*
X120849187Y-131253230D01*
X120929258Y-131213194D01*
X121089399Y-131213194D01*
X121169469Y-131253230D01*
X121209504Y-131293265D01*
X121249540Y-131373335D01*
X121249540Y-131413370D01*
X121209504Y-131493441D01*
X121169469Y-131533476D01*
X121089399Y-131573511D01*
X120929258Y-131573511D01*
X120849187Y-131613547D01*
X120809152Y-131653582D01*
X120769117Y-131733652D01*
X120769117Y-131893793D01*
X120809152Y-131973864D01*
X120849187Y-132013899D01*
X120929258Y-132053934D01*
X121089399Y-132053934D01*
X121169469Y-132013899D01*
X121209504Y-131973864D01*
X121249540Y-131893793D01*
X121249540Y-131733652D01*
X121209504Y-131653582D01*
X121169469Y-131613547D01*
X121089399Y-131573511D01*
D13*
%TO.C,R27*%
X129786510Y-110393030D02*
X129443973Y-110632806D01*
X129786510Y-110804074D02*
X129067182Y-110804074D01*
X129067182Y-110530044D01*
X129101436Y-110461537D01*
X129135689Y-110427283D01*
X129204197Y-110393030D01*
X129306958Y-110393030D01*
X129375465Y-110427283D01*
X129409719Y-110461537D01*
X129443973Y-110530044D01*
X129443973Y-110804074D01*
X129135689Y-110119000D02*
X129101436Y-110084746D01*
X129067182Y-110016239D01*
X129067182Y-109844970D01*
X129101436Y-109776463D01*
X129135689Y-109742209D01*
X129204197Y-109707955D01*
X129272704Y-109707955D01*
X129375465Y-109742209D01*
X129786510Y-110153254D01*
X129786510Y-109707955D01*
X129067182Y-109468179D02*
X129067182Y-108988627D01*
X129786510Y-109296911D01*
%TO.C,R23*%
X181221669Y-104059010D02*
X180981893Y-103716473D01*
X180810625Y-104059010D02*
X180810625Y-103339682D01*
X181084655Y-103339682D01*
X181153162Y-103373936D01*
X181187416Y-103408189D01*
X181221669Y-103476697D01*
X181221669Y-103579458D01*
X181187416Y-103647965D01*
X181153162Y-103682219D01*
X181084655Y-103716473D01*
X180810625Y-103716473D01*
X181495699Y-103408189D02*
X181529953Y-103373936D01*
X181598460Y-103339682D01*
X181769729Y-103339682D01*
X181838236Y-103373936D01*
X181872490Y-103408189D01*
X181906744Y-103476697D01*
X181906744Y-103545204D01*
X181872490Y-103647965D01*
X181461445Y-104059010D01*
X181906744Y-104059010D01*
X182146520Y-103339682D02*
X182591818Y-103339682D01*
X182352042Y-103613712D01*
X182454803Y-103613712D01*
X182523311Y-103647965D01*
X182557564Y-103682219D01*
X182591818Y-103750726D01*
X182591818Y-103921995D01*
X182557564Y-103990502D01*
X182523311Y-104024756D01*
X182454803Y-104059010D01*
X182249281Y-104059010D01*
X182180773Y-104024756D01*
X182146520Y-103990502D01*
%TO.C,R22*%
X113007910Y-100420730D02*
X112665373Y-100660506D01*
X113007910Y-100831774D02*
X112288582Y-100831774D01*
X112288582Y-100557744D01*
X112322836Y-100489237D01*
X112357089Y-100454983D01*
X112425597Y-100420730D01*
X112528358Y-100420730D01*
X112596865Y-100454983D01*
X112631119Y-100489237D01*
X112665373Y-100557744D01*
X112665373Y-100831774D01*
X112357089Y-100146700D02*
X112322836Y-100112446D01*
X112288582Y-100043939D01*
X112288582Y-99872670D01*
X112322836Y-99804163D01*
X112357089Y-99769909D01*
X112425597Y-99735655D01*
X112494104Y-99735655D01*
X112596865Y-99769909D01*
X113007910Y-100180954D01*
X113007910Y-99735655D01*
X112357089Y-99461626D02*
X112322836Y-99427372D01*
X112288582Y-99358864D01*
X112288582Y-99187596D01*
X112322836Y-99119088D01*
X112357089Y-99084835D01*
X112425597Y-99050581D01*
X112494104Y-99050581D01*
X112596865Y-99084835D01*
X113007910Y-99495879D01*
X113007910Y-99050581D01*
D19*
%TO.C,C1*%
X169616685Y-81131712D02*
X169672323Y-81187350D01*
X169727961Y-81354264D01*
X169727961Y-81465540D01*
X169672323Y-81632455D01*
X169561047Y-81743731D01*
X169449771Y-81799369D01*
X169227219Y-81855007D01*
X169060304Y-81855007D01*
X168837752Y-81799369D01*
X168726476Y-81743731D01*
X168615200Y-81632455D01*
X168559561Y-81465540D01*
X168559561Y-81354264D01*
X168615200Y-81187350D01*
X168670838Y-81131712D01*
X169727961Y-80018950D02*
X169727961Y-80686607D01*
X169727961Y-80352779D02*
X168559561Y-80352779D01*
X168726476Y-80464055D01*
X168837752Y-80575331D01*
X168893390Y-80686607D01*
D13*
%TO.C,R1*%
X120896669Y-54846510D02*
X120656893Y-54503973D01*
X120485625Y-54846510D02*
X120485625Y-54127182D01*
X120759655Y-54127182D01*
X120828162Y-54161436D01*
X120862416Y-54195689D01*
X120896669Y-54264197D01*
X120896669Y-54366958D01*
X120862416Y-54435465D01*
X120828162Y-54469719D01*
X120759655Y-54503973D01*
X120485625Y-54503973D01*
X121581744Y-54846510D02*
X121170699Y-54846510D01*
X121376221Y-54846510D02*
X121376221Y-54127182D01*
X121307714Y-54229943D01*
X121239207Y-54298450D01*
X121170699Y-54332704D01*
%TO.C,R12*%
X165346669Y-74849010D02*
X165106893Y-74506473D01*
X164935625Y-74849010D02*
X164935625Y-74129682D01*
X165209655Y-74129682D01*
X165278162Y-74163936D01*
X165312416Y-74198189D01*
X165346669Y-74266697D01*
X165346669Y-74369458D01*
X165312416Y-74437965D01*
X165278162Y-74472219D01*
X165209655Y-74506473D01*
X164935625Y-74506473D01*
X166031744Y-74849010D02*
X165620699Y-74849010D01*
X165826221Y-74849010D02*
X165826221Y-74129682D01*
X165757714Y-74232443D01*
X165689207Y-74300950D01*
X165620699Y-74335204D01*
X166305773Y-74198189D02*
X166340027Y-74163936D01*
X166408535Y-74129682D01*
X166579803Y-74129682D01*
X166648311Y-74163936D01*
X166682564Y-74198189D01*
X166716818Y-74266697D01*
X166716818Y-74335204D01*
X166682564Y-74437965D01*
X166271520Y-74849010D01*
X166716818Y-74849010D01*
%TO.C,J4*%
X156753133Y-146666810D02*
X156753133Y-147507188D01*
X156697108Y-147675263D01*
X156585057Y-147787313D01*
X156416982Y-147843338D01*
X156304932Y-147843338D01*
X157817611Y-147058986D02*
X157817611Y-147843338D01*
X157537485Y-146610785D02*
X157257359Y-147451162D01*
X157985686Y-147451162D01*
%TO.C,R53*%
X140417174Y-139844586D02*
X140245132Y-139598811D01*
X140122244Y-139844586D02*
X140122244Y-139328458D01*
X140318864Y-139328458D01*
X140368019Y-139353036D01*
X140392597Y-139377613D01*
X140417174Y-139426768D01*
X140417174Y-139500501D01*
X140392597Y-139549656D01*
X140368019Y-139574233D01*
X140318864Y-139598811D01*
X140122244Y-139598811D01*
X140884147Y-139328458D02*
X140638372Y-139328458D01*
X140613794Y-139574233D01*
X140638372Y-139549656D01*
X140687527Y-139525078D01*
X140810415Y-139525078D01*
X140859570Y-139549656D01*
X140884147Y-139574233D01*
X140908725Y-139623388D01*
X140908725Y-139746276D01*
X140884147Y-139795431D01*
X140859570Y-139820008D01*
X140810415Y-139844586D01*
X140687527Y-139844586D01*
X140638372Y-139820008D01*
X140613794Y-139795431D01*
X141080767Y-139328458D02*
X141400275Y-139328458D01*
X141228232Y-139525078D01*
X141301965Y-139525078D01*
X141351120Y-139549656D01*
X141375698Y-139574233D01*
X141400275Y-139623388D01*
X141400275Y-139746276D01*
X141375698Y-139795431D01*
X141351120Y-139820008D01*
X141301965Y-139844586D01*
X141154500Y-139844586D01*
X141105345Y-139820008D01*
X141080767Y-139795431D01*
%TO.C,J3*%
X144053133Y-146666810D02*
X144053133Y-147507188D01*
X143997108Y-147675263D01*
X143885057Y-147787313D01*
X143716982Y-147843338D01*
X143604932Y-147843338D01*
X144501334Y-146666810D02*
X145229661Y-146666810D01*
X144837485Y-147115012D01*
X145005560Y-147115012D01*
X145117611Y-147171037D01*
X145173636Y-147227062D01*
X145229661Y-147339112D01*
X145229661Y-147619238D01*
X145173636Y-147731288D01*
X145117611Y-147787313D01*
X145005560Y-147843338D01*
X144669409Y-147843338D01*
X144557359Y-147787313D01*
X144501334Y-147731288D01*
%TO.C,SW2*%
X112102771Y-109919956D02*
X112205532Y-109954210D01*
X112376801Y-109954210D01*
X112445308Y-109919956D01*
X112479562Y-109885702D01*
X112513816Y-109817195D01*
X112513816Y-109748688D01*
X112479562Y-109680180D01*
X112445308Y-109645926D01*
X112376801Y-109611673D01*
X112239786Y-109577419D01*
X112171279Y-109543165D01*
X112137025Y-109508912D01*
X112102771Y-109440404D01*
X112102771Y-109371897D01*
X112137025Y-109303389D01*
X112171279Y-109269136D01*
X112239786Y-109234882D01*
X112411055Y-109234882D01*
X112513816Y-109269136D01*
X112753592Y-109234882D02*
X112924860Y-109954210D01*
X113061875Y-109440404D01*
X113198890Y-109954210D01*
X113370159Y-109234882D01*
X113609935Y-109303389D02*
X113644188Y-109269136D01*
X113712696Y-109234882D01*
X113883964Y-109234882D01*
X113952472Y-109269136D01*
X113986725Y-109303389D01*
X114020979Y-109371897D01*
X114020979Y-109440404D01*
X113986725Y-109543165D01*
X113575681Y-109954210D01*
X114020979Y-109954210D01*
D16*
%TO.C,IC4*%
X162795195Y-98271934D02*
X162795195Y-97431194D01*
X163675970Y-98191864D02*
X163635935Y-98231899D01*
X163515829Y-98271934D01*
X163435759Y-98271934D01*
X163315653Y-98231899D01*
X163235582Y-98151829D01*
X163195547Y-98071758D01*
X163155512Y-97911617D01*
X163155512Y-97791511D01*
X163195547Y-97631370D01*
X163235582Y-97551300D01*
X163315653Y-97471230D01*
X163435759Y-97431194D01*
X163515829Y-97431194D01*
X163635935Y-97471230D01*
X163675970Y-97511265D01*
X164396604Y-97711441D02*
X164396604Y-98271934D01*
X164196428Y-97391159D02*
X163996252Y-97991688D01*
X164516710Y-97991688D01*
D13*
%TO.C,Q3*%
X134300177Y-54915017D02*
X134231669Y-54880764D01*
X134163162Y-54812256D01*
X134060401Y-54709495D01*
X133991893Y-54675241D01*
X133923386Y-54675241D01*
X133957640Y-54846510D02*
X133889132Y-54812256D01*
X133820625Y-54743749D01*
X133786371Y-54606734D01*
X133786371Y-54366958D01*
X133820625Y-54229943D01*
X133889132Y-54161436D01*
X133957640Y-54127182D01*
X134094655Y-54127182D01*
X134163162Y-54161436D01*
X134231669Y-54229943D01*
X134265923Y-54366958D01*
X134265923Y-54606734D01*
X134231669Y-54743749D01*
X134163162Y-54812256D01*
X134094655Y-54846510D01*
X133957640Y-54846510D01*
X134505699Y-54127182D02*
X134950997Y-54127182D01*
X134711221Y-54401212D01*
X134813983Y-54401212D01*
X134882490Y-54435465D01*
X134916744Y-54469719D01*
X134950997Y-54538226D01*
X134950997Y-54709495D01*
X134916744Y-54778002D01*
X134882490Y-54812256D01*
X134813983Y-54846510D01*
X134608460Y-54846510D01*
X134539953Y-54812256D01*
X134505699Y-54778002D01*
%TO.C,R50*%
X157528932Y-139844586D02*
X157356889Y-139598811D01*
X157234001Y-139844586D02*
X157234001Y-139328458D01*
X157430622Y-139328458D01*
X157479777Y-139353036D01*
X157504354Y-139377613D01*
X157528932Y-139426768D01*
X157528932Y-139500501D01*
X157504354Y-139549656D01*
X157479777Y-139574233D01*
X157430622Y-139598811D01*
X157234001Y-139598811D01*
X157995905Y-139328458D02*
X157750129Y-139328458D01*
X157725552Y-139574233D01*
X157750129Y-139549656D01*
X157799284Y-139525078D01*
X157922172Y-139525078D01*
X157971327Y-139549656D01*
X157995905Y-139574233D01*
X158020482Y-139623388D01*
X158020482Y-139746276D01*
X157995905Y-139795431D01*
X157971327Y-139820008D01*
X157922172Y-139844586D01*
X157799284Y-139844586D01*
X157750129Y-139820008D01*
X157725552Y-139795431D01*
X158339990Y-139328458D02*
X158389145Y-139328458D01*
X158438300Y-139353036D01*
X158462878Y-139377613D01*
X158487455Y-139426768D01*
X158512033Y-139525078D01*
X158512033Y-139647966D01*
X158487455Y-139746276D01*
X158462878Y-139795431D01*
X158438300Y-139820008D01*
X158389145Y-139844586D01*
X158339990Y-139844586D01*
X158290835Y-139820008D01*
X158266257Y-139795431D01*
X158241680Y-139746276D01*
X158217102Y-139647966D01*
X158217102Y-139525078D01*
X158241680Y-139426768D01*
X158266257Y-139377613D01*
X158290835Y-139353036D01*
X158339990Y-139328458D01*
%TO.C,J5*%
X160880633Y-146666810D02*
X160880633Y-147507188D01*
X160824608Y-147675263D01*
X160712557Y-147787313D01*
X160544482Y-147843338D01*
X160432432Y-147843338D01*
X162001136Y-146666810D02*
X161440884Y-146666810D01*
X161384859Y-147227062D01*
X161440884Y-147171037D01*
X161552935Y-147115012D01*
X161833060Y-147115012D01*
X161945111Y-147171037D01*
X162001136Y-147227062D01*
X162057161Y-147339112D01*
X162057161Y-147619238D01*
X162001136Y-147731288D01*
X161945111Y-147787313D01*
X161833060Y-147843338D01*
X161552935Y-147843338D01*
X161440884Y-147787313D01*
X161384859Y-147731288D01*
%TO.C,R42*%
X163243932Y-125239586D02*
X163071889Y-124993811D01*
X162949001Y-125239586D02*
X162949001Y-124723458D01*
X163145622Y-124723458D01*
X163194777Y-124748036D01*
X163219354Y-124772613D01*
X163243932Y-124821768D01*
X163243932Y-124895501D01*
X163219354Y-124944656D01*
X163194777Y-124969233D01*
X163145622Y-124993811D01*
X162949001Y-124993811D01*
X163686327Y-124895501D02*
X163686327Y-125239586D01*
X163563439Y-124698880D02*
X163440552Y-125067543D01*
X163760060Y-125067543D01*
X163932102Y-124772613D02*
X163956680Y-124748036D01*
X164005835Y-124723458D01*
X164128723Y-124723458D01*
X164177878Y-124748036D01*
X164202455Y-124772613D01*
X164227033Y-124821768D01*
X164227033Y-124870923D01*
X164202455Y-124944656D01*
X163907525Y-125239586D01*
X164227033Y-125239586D01*
%TO.C,R7*%
X149471669Y-54846510D02*
X149231893Y-54503973D01*
X149060625Y-54846510D02*
X149060625Y-54127182D01*
X149334655Y-54127182D01*
X149403162Y-54161436D01*
X149437416Y-54195689D01*
X149471669Y-54264197D01*
X149471669Y-54366958D01*
X149437416Y-54435465D01*
X149403162Y-54469719D01*
X149334655Y-54503973D01*
X149060625Y-54503973D01*
X149711445Y-54127182D02*
X150190997Y-54127182D01*
X149882714Y-54846510D01*
D20*
%TO.C,IC5*%
X168196105Y-99222848D02*
X168196105Y-98262931D01*
X169201732Y-99131427D02*
X169156022Y-99177137D01*
X169018891Y-99222848D01*
X168927470Y-99222848D01*
X168790339Y-99177137D01*
X168698919Y-99085717D01*
X168653208Y-98994296D01*
X168607498Y-98811455D01*
X168607498Y-98674324D01*
X168653208Y-98491482D01*
X168698919Y-98400062D01*
X168790339Y-98308641D01*
X168927470Y-98262931D01*
X169018891Y-98262931D01*
X169156022Y-98308641D01*
X169201732Y-98354351D01*
X170070229Y-98262931D02*
X169613125Y-98262931D01*
X169567415Y-98720034D01*
X169613125Y-98674324D01*
X169704546Y-98628613D01*
X169933098Y-98628613D01*
X170024518Y-98674324D01*
X170070229Y-98720034D01*
X170115939Y-98811455D01*
X170115939Y-99040006D01*
X170070229Y-99131427D01*
X170024518Y-99177137D01*
X169933098Y-99222848D01*
X169704546Y-99222848D01*
X169613125Y-99177137D01*
X169567415Y-99131427D01*
D13*
%TO.C,R28*%
X151496432Y-111269586D02*
X151324389Y-111023811D01*
X151201501Y-111269586D02*
X151201501Y-110753458D01*
X151398122Y-110753458D01*
X151447277Y-110778036D01*
X151471854Y-110802613D01*
X151496432Y-110851768D01*
X151496432Y-110925501D01*
X151471854Y-110974656D01*
X151447277Y-110999233D01*
X151398122Y-111023811D01*
X151201501Y-111023811D01*
X151693052Y-110802613D02*
X151717629Y-110778036D01*
X151766784Y-110753458D01*
X151889672Y-110753458D01*
X151938827Y-110778036D01*
X151963405Y-110802613D01*
X151987982Y-110851768D01*
X151987982Y-110900923D01*
X151963405Y-110974656D01*
X151668474Y-111269586D01*
X151987982Y-111269586D01*
X152282912Y-110974656D02*
X152233757Y-110950078D01*
X152209180Y-110925501D01*
X152184602Y-110876346D01*
X152184602Y-110851768D01*
X152209180Y-110802613D01*
X152233757Y-110778036D01*
X152282912Y-110753458D01*
X152381223Y-110753458D01*
X152430378Y-110778036D01*
X152454955Y-110802613D01*
X152479533Y-110851768D01*
X152479533Y-110876346D01*
X152454955Y-110925501D01*
X152430378Y-110950078D01*
X152381223Y-110974656D01*
X152282912Y-110974656D01*
X152233757Y-110999233D01*
X152209180Y-111023811D01*
X152184602Y-111072966D01*
X152184602Y-111171276D01*
X152209180Y-111220431D01*
X152233757Y-111245008D01*
X152282912Y-111269586D01*
X152381223Y-111269586D01*
X152430378Y-111245008D01*
X152454955Y-111220431D01*
X152479533Y-111171276D01*
X152479533Y-111072966D01*
X152454955Y-111023811D01*
X152430378Y-110999233D01*
X152381223Y-110974656D01*
%TO.C,J1*%
X118653133Y-146666810D02*
X118653133Y-147507188D01*
X118597108Y-147675263D01*
X118485057Y-147787313D01*
X118316982Y-147843338D01*
X118204932Y-147843338D01*
X119829661Y-147843338D02*
X119157359Y-147843338D01*
X119493510Y-147843338D02*
X119493510Y-146666810D01*
X119381460Y-146834886D01*
X119269409Y-146946936D01*
X119157359Y-147002961D01*
%TO.C,C18*%
X162347931Y-120433267D02*
X162372508Y-120457845D01*
X162397086Y-120531577D01*
X162397086Y-120580732D01*
X162372508Y-120654465D01*
X162323353Y-120703620D01*
X162274198Y-120728198D01*
X162175888Y-120752775D01*
X162102156Y-120752775D01*
X162003846Y-120728198D01*
X161954691Y-120703620D01*
X161905536Y-120654465D01*
X161880958Y-120580732D01*
X161880958Y-120531577D01*
X161905536Y-120457845D01*
X161930113Y-120433267D01*
X162397086Y-119941717D02*
X162397086Y-120236647D01*
X162397086Y-120089182D02*
X161880958Y-120089182D01*
X161954691Y-120138337D01*
X162003846Y-120187492D01*
X162028423Y-120236647D01*
X162102156Y-119646787D02*
X162077578Y-119695942D01*
X162053001Y-119720519D01*
X162003846Y-119745097D01*
X161979268Y-119745097D01*
X161930113Y-119720519D01*
X161905536Y-119695942D01*
X161880958Y-119646787D01*
X161880958Y-119548476D01*
X161905536Y-119499321D01*
X161930113Y-119474744D01*
X161979268Y-119450166D01*
X162003846Y-119450166D01*
X162053001Y-119474744D01*
X162077578Y-119499321D01*
X162102156Y-119548476D01*
X162102156Y-119646787D01*
X162126733Y-119695942D01*
X162151311Y-119720519D01*
X162200466Y-119745097D01*
X162298776Y-119745097D01*
X162347931Y-119720519D01*
X162372508Y-119695942D01*
X162397086Y-119646787D01*
X162397086Y-119548476D01*
X162372508Y-119499321D01*
X162347931Y-119474744D01*
X162298776Y-119450166D01*
X162200466Y-119450166D01*
X162151311Y-119474744D01*
X162126733Y-119499321D01*
X162102156Y-119548476D01*
%TO.C,R14*%
X144720679Y-82151510D02*
X144480903Y-81808973D01*
X144309635Y-82151510D02*
X144309635Y-81432182D01*
X144583664Y-81432182D01*
X144652172Y-81466436D01*
X144686426Y-81500689D01*
X144720679Y-81569197D01*
X144720679Y-81671958D01*
X144686426Y-81740465D01*
X144652172Y-81774719D01*
X144583664Y-81808973D01*
X144309635Y-81808973D01*
X145405754Y-82151510D02*
X144994709Y-82151510D01*
X145200231Y-82151510D02*
X145200231Y-81432182D01*
X145131724Y-81534943D01*
X145063216Y-81603450D01*
X144994709Y-81637704D01*
X146022320Y-81671958D02*
X146022320Y-82151510D01*
X145851052Y-81397928D02*
X145679783Y-81911734D01*
X146125082Y-81911734D01*
%TO.C,C3*%
X145026669Y-88115502D02*
X144992416Y-88149756D01*
X144889655Y-88184010D01*
X144821147Y-88184010D01*
X144718386Y-88149756D01*
X144649879Y-88081249D01*
X144615625Y-88012741D01*
X144581371Y-87875726D01*
X144581371Y-87772965D01*
X144615625Y-87635950D01*
X144649879Y-87567443D01*
X144718386Y-87498936D01*
X144821147Y-87464682D01*
X144889655Y-87464682D01*
X144992416Y-87498936D01*
X145026669Y-87533189D01*
X145266445Y-87464682D02*
X145711744Y-87464682D01*
X145471968Y-87738712D01*
X145574729Y-87738712D01*
X145643236Y-87772965D01*
X145677490Y-87807219D01*
X145711744Y-87875726D01*
X145711744Y-88046995D01*
X145677490Y-88115502D01*
X145643236Y-88149756D01*
X145574729Y-88184010D01*
X145369207Y-88184010D01*
X145300699Y-88149756D01*
X145266445Y-88115502D01*
%TO.C,J2*%
X131353133Y-146666810D02*
X131353133Y-147507188D01*
X131297108Y-147675263D01*
X131185057Y-147787313D01*
X131016982Y-147843338D01*
X130904932Y-147843338D01*
X131857359Y-146778861D02*
X131913384Y-146722836D01*
X132025435Y-146666810D01*
X132305560Y-146666810D01*
X132417611Y-146722836D01*
X132473636Y-146778861D01*
X132529661Y-146890911D01*
X132529661Y-147002961D01*
X132473636Y-147171037D01*
X131801334Y-147843338D01*
X132529661Y-147843338D01*
D17*
%TO.C,C25*%
X172807152Y-132524679D02*
X172772008Y-132559823D01*
X172666576Y-132594967D01*
X172596288Y-132594967D01*
X172490856Y-132559823D01*
X172420569Y-132489535D01*
X172385425Y-132419247D01*
X172350281Y-132278671D01*
X172350281Y-132173240D01*
X172385425Y-132032664D01*
X172420569Y-131962376D01*
X172490856Y-131892089D01*
X172596288Y-131856945D01*
X172666576Y-131856945D01*
X172772008Y-131892089D01*
X172807152Y-131927232D01*
X173088303Y-131927232D02*
X173123447Y-131892089D01*
X173193735Y-131856945D01*
X173369454Y-131856945D01*
X173439742Y-131892089D01*
X173474886Y-131927232D01*
X173510030Y-131997520D01*
X173510030Y-132067808D01*
X173474886Y-132173240D01*
X173053159Y-132594967D01*
X173510030Y-132594967D01*
X174177764Y-131856945D02*
X173826325Y-131856945D01*
X173791181Y-132208384D01*
X173826325Y-132173240D01*
X173896613Y-132138096D01*
X174072332Y-132138096D01*
X174142620Y-132173240D01*
X174177764Y-132208384D01*
X174212908Y-132278671D01*
X174212908Y-132454391D01*
X174177764Y-132524679D01*
X174142620Y-132559823D01*
X174072332Y-132594967D01*
X173896613Y-132594967D01*
X173826325Y-132559823D01*
X173791181Y-132524679D01*
D13*
%TO.C,C8*%
X183761669Y-103990502D02*
X183727416Y-104024756D01*
X183624655Y-104059010D01*
X183556147Y-104059010D01*
X183453386Y-104024756D01*
X183384879Y-103956249D01*
X183350625Y-103887741D01*
X183316371Y-103750726D01*
X183316371Y-103647965D01*
X183350625Y-103510950D01*
X183384879Y-103442443D01*
X183453386Y-103373936D01*
X183556147Y-103339682D01*
X183624655Y-103339682D01*
X183727416Y-103373936D01*
X183761669Y-103408189D01*
X184172714Y-103647965D02*
X184104207Y-103613712D01*
X184069953Y-103579458D01*
X184035699Y-103510950D01*
X184035699Y-103476697D01*
X184069953Y-103408189D01*
X184104207Y-103373936D01*
X184172714Y-103339682D01*
X184309729Y-103339682D01*
X184378236Y-103373936D01*
X184412490Y-103408189D01*
X184446744Y-103476697D01*
X184446744Y-103510950D01*
X184412490Y-103579458D01*
X184378236Y-103613712D01*
X184309729Y-103647965D01*
X184172714Y-103647965D01*
X184104207Y-103682219D01*
X184069953Y-103716473D01*
X184035699Y-103784980D01*
X184035699Y-103921995D01*
X184069953Y-103990502D01*
X184104207Y-104024756D01*
X184172714Y-104059010D01*
X184309729Y-104059010D01*
X184378236Y-104024756D01*
X184412490Y-103990502D01*
X184446744Y-103921995D01*
X184446744Y-103784980D01*
X184412490Y-103716473D01*
X184378236Y-103682219D01*
X184309729Y-103647965D01*
D16*
%TO.C,UC1*%
X133902695Y-83588194D02*
X133902695Y-84268793D01*
X133942730Y-84348864D01*
X133982765Y-84388899D01*
X134062836Y-84428934D01*
X134222977Y-84428934D01*
X134303047Y-84388899D01*
X134343082Y-84348864D01*
X134383118Y-84268793D01*
X134383118Y-83588194D01*
X135263893Y-84348864D02*
X135223858Y-84388899D01*
X135103752Y-84428934D01*
X135023681Y-84428934D01*
X134903576Y-84388899D01*
X134823505Y-84308829D01*
X134783470Y-84228758D01*
X134743435Y-84068617D01*
X134743435Y-83948511D01*
X134783470Y-83788370D01*
X134823505Y-83708300D01*
X134903576Y-83628230D01*
X135023681Y-83588194D01*
X135103752Y-83588194D01*
X135223858Y-83628230D01*
X135263893Y-83668265D01*
X136064598Y-84428934D02*
X135584175Y-84428934D01*
X135824386Y-84428934D02*
X135824386Y-83588194D01*
X135744316Y-83708300D01*
X135664245Y-83788370D01*
X135584175Y-83828406D01*
D13*
%TO.C,C26*%
X125494674Y-135350431D02*
X125470097Y-135375008D01*
X125396364Y-135399586D01*
X125347209Y-135399586D01*
X125273476Y-135375008D01*
X125224321Y-135325853D01*
X125199744Y-135276698D01*
X125175166Y-135178388D01*
X125175166Y-135104656D01*
X125199744Y-135006346D01*
X125224321Y-134957191D01*
X125273476Y-134908036D01*
X125347209Y-134883458D01*
X125396364Y-134883458D01*
X125470097Y-134908036D01*
X125494674Y-134932613D01*
X125691294Y-134932613D02*
X125715872Y-134908036D01*
X125765027Y-134883458D01*
X125887915Y-134883458D01*
X125937070Y-134908036D01*
X125961647Y-134932613D01*
X125986225Y-134981768D01*
X125986225Y-135030923D01*
X125961647Y-135104656D01*
X125666717Y-135399586D01*
X125986225Y-135399586D01*
X126428620Y-134883458D02*
X126330310Y-134883458D01*
X126281155Y-134908036D01*
X126256577Y-134932613D01*
X126207422Y-135006346D01*
X126182845Y-135104656D01*
X126182845Y-135301276D01*
X126207422Y-135350431D01*
X126232000Y-135375008D01*
X126281155Y-135399586D01*
X126379465Y-135399586D01*
X126428620Y-135375008D01*
X126453198Y-135350431D01*
X126477775Y-135301276D01*
X126477775Y-135178388D01*
X126453198Y-135129233D01*
X126428620Y-135104656D01*
X126379465Y-135080078D01*
X126281155Y-135080078D01*
X126232000Y-135104656D01*
X126207422Y-135129233D01*
X126182845Y-135178388D01*
%TO.C,C17*%
X165817174Y-120427931D02*
X165792597Y-120452508D01*
X165718864Y-120477086D01*
X165669709Y-120477086D01*
X165595976Y-120452508D01*
X165546821Y-120403353D01*
X165522244Y-120354198D01*
X165497666Y-120255888D01*
X165497666Y-120182156D01*
X165522244Y-120083846D01*
X165546821Y-120034691D01*
X165595976Y-119985536D01*
X165669709Y-119960958D01*
X165718864Y-119960958D01*
X165792597Y-119985536D01*
X165817174Y-120010113D01*
X166308725Y-120477086D02*
X166013794Y-120477086D01*
X166161260Y-120477086D02*
X166161260Y-119960958D01*
X166112104Y-120034691D01*
X166062949Y-120083846D01*
X166013794Y-120108423D01*
X166480767Y-119960958D02*
X166824853Y-119960958D01*
X166603655Y-120477086D01*
%TO.C,R2*%
X128834169Y-54846510D02*
X128594393Y-54503973D01*
X128423125Y-54846510D02*
X128423125Y-54127182D01*
X128697155Y-54127182D01*
X128765662Y-54161436D01*
X128799916Y-54195689D01*
X128834169Y-54264197D01*
X128834169Y-54366958D01*
X128799916Y-54435465D01*
X128765662Y-54469719D01*
X128697155Y-54503973D01*
X128423125Y-54503973D01*
X129108199Y-54195689D02*
X129142453Y-54161436D01*
X129210960Y-54127182D01*
X129382229Y-54127182D01*
X129450736Y-54161436D01*
X129484990Y-54195689D01*
X129519244Y-54264197D01*
X129519244Y-54332704D01*
X129484990Y-54435465D01*
X129073945Y-54846510D01*
X129519244Y-54846510D01*
%TO.C,C13*%
X154671432Y-109632931D02*
X154646854Y-109657508D01*
X154573122Y-109682086D01*
X154523967Y-109682086D01*
X154450234Y-109657508D01*
X154401079Y-109608353D01*
X154376501Y-109559198D01*
X154351924Y-109460888D01*
X154351924Y-109387156D01*
X154376501Y-109288846D01*
X154401079Y-109239691D01*
X154450234Y-109190536D01*
X154523967Y-109165958D01*
X154573122Y-109165958D01*
X154646854Y-109190536D01*
X154671432Y-109215113D01*
X155162982Y-109682086D02*
X154868052Y-109682086D01*
X155015517Y-109682086D02*
X155015517Y-109165958D01*
X154966362Y-109239691D01*
X154917207Y-109288846D01*
X154868052Y-109313423D01*
X155335025Y-109165958D02*
X155654533Y-109165958D01*
X155482490Y-109362578D01*
X155556223Y-109362578D01*
X155605378Y-109387156D01*
X155629955Y-109411733D01*
X155654533Y-109460888D01*
X155654533Y-109583776D01*
X155629955Y-109632931D01*
X155605378Y-109657508D01*
X155556223Y-109682086D01*
X155408757Y-109682086D01*
X155359602Y-109657508D01*
X155335025Y-109632931D01*
%TO.C,R16*%
X149800679Y-82151510D02*
X149560903Y-81808973D01*
X149389635Y-82151510D02*
X149389635Y-81432182D01*
X149663664Y-81432182D01*
X149732172Y-81466436D01*
X149766426Y-81500689D01*
X149800679Y-81569197D01*
X149800679Y-81671958D01*
X149766426Y-81740465D01*
X149732172Y-81774719D01*
X149663664Y-81808973D01*
X149389635Y-81808973D01*
X150485754Y-82151510D02*
X150074709Y-82151510D01*
X150280231Y-82151510D02*
X150280231Y-81432182D01*
X150211724Y-81534943D01*
X150143216Y-81603450D01*
X150074709Y-81637704D01*
X151102320Y-81432182D02*
X150965306Y-81432182D01*
X150896798Y-81466436D01*
X150862544Y-81500689D01*
X150794037Y-81603450D01*
X150759783Y-81740465D01*
X150759783Y-82014495D01*
X150794037Y-82083002D01*
X150828291Y-82117256D01*
X150896798Y-82151510D01*
X151033813Y-82151510D01*
X151102320Y-82117256D01*
X151136574Y-82083002D01*
X151170828Y-82014495D01*
X151170828Y-81843226D01*
X151136574Y-81774719D01*
X151102320Y-81740465D01*
X151033813Y-81706212D01*
X150896798Y-81706212D01*
X150828291Y-81740465D01*
X150794037Y-81774719D01*
X150759783Y-81843226D01*
%TO.C,C27*%
X166475431Y-139800767D02*
X166500008Y-139825345D01*
X166524586Y-139899077D01*
X166524586Y-139948232D01*
X166500008Y-140021965D01*
X166450853Y-140071120D01*
X166401698Y-140095698D01*
X166303388Y-140120275D01*
X166229656Y-140120275D01*
X166131346Y-140095698D01*
X166082191Y-140071120D01*
X166033036Y-140021965D01*
X166008458Y-139948232D01*
X166008458Y-139899077D01*
X166033036Y-139825345D01*
X166057613Y-139800767D01*
X166057613Y-139604147D02*
X166033036Y-139579570D01*
X166008458Y-139530415D01*
X166008458Y-139407527D01*
X166033036Y-139358372D01*
X166057613Y-139333794D01*
X166106768Y-139309217D01*
X166155923Y-139309217D01*
X166229656Y-139333794D01*
X166524586Y-139628725D01*
X166524586Y-139309217D01*
X166008458Y-139137174D02*
X166008458Y-138793089D01*
X166524586Y-139014287D01*
%TO.C,R35*%
X165817174Y-121747086D02*
X165645132Y-121501311D01*
X165522244Y-121747086D02*
X165522244Y-121230958D01*
X165718864Y-121230958D01*
X165768019Y-121255536D01*
X165792597Y-121280113D01*
X165817174Y-121329268D01*
X165817174Y-121403001D01*
X165792597Y-121452156D01*
X165768019Y-121476733D01*
X165718864Y-121501311D01*
X165522244Y-121501311D01*
X165989217Y-121230958D02*
X166308725Y-121230958D01*
X166136682Y-121427578D01*
X166210415Y-121427578D01*
X166259570Y-121452156D01*
X166284147Y-121476733D01*
X166308725Y-121525888D01*
X166308725Y-121648776D01*
X166284147Y-121697931D01*
X166259570Y-121722508D01*
X166210415Y-121747086D01*
X166062949Y-121747086D01*
X166013794Y-121722508D01*
X165989217Y-121697931D01*
X166775698Y-121230958D02*
X166529922Y-121230958D01*
X166505345Y-121476733D01*
X166529922Y-121452156D01*
X166579077Y-121427578D01*
X166701965Y-121427578D01*
X166751120Y-121452156D01*
X166775698Y-121476733D01*
X166800275Y-121525888D01*
X166800275Y-121648776D01*
X166775698Y-121697931D01*
X166751120Y-121722508D01*
X166701965Y-121747086D01*
X166579077Y-121747086D01*
X166529922Y-121722508D01*
X166505345Y-121697931D01*
%TO.C,R34*%
X154671432Y-121112086D02*
X154499389Y-120866311D01*
X154376501Y-121112086D02*
X154376501Y-120595958D01*
X154573122Y-120595958D01*
X154622277Y-120620536D01*
X154646854Y-120645113D01*
X154671432Y-120694268D01*
X154671432Y-120768001D01*
X154646854Y-120817156D01*
X154622277Y-120841733D01*
X154573122Y-120866311D01*
X154376501Y-120866311D01*
X154843474Y-120595958D02*
X155162982Y-120595958D01*
X154990939Y-120792578D01*
X155064672Y-120792578D01*
X155113827Y-120817156D01*
X155138405Y-120841733D01*
X155162982Y-120890888D01*
X155162982Y-121013776D01*
X155138405Y-121062931D01*
X155113827Y-121087508D01*
X155064672Y-121112086D01*
X154917207Y-121112086D01*
X154868052Y-121087508D01*
X154843474Y-121062931D01*
X155605378Y-120768001D02*
X155605378Y-121112086D01*
X155482490Y-120571380D02*
X155359602Y-120940043D01*
X155679110Y-120940043D01*
%TO.C,R8*%
X152011669Y-54846510D02*
X151771893Y-54503973D01*
X151600625Y-54846510D02*
X151600625Y-54127182D01*
X151874655Y-54127182D01*
X151943162Y-54161436D01*
X151977416Y-54195689D01*
X152011669Y-54264197D01*
X152011669Y-54366958D01*
X151977416Y-54435465D01*
X151943162Y-54469719D01*
X151874655Y-54503973D01*
X151600625Y-54503973D01*
X152422714Y-54435465D02*
X152354207Y-54401212D01*
X152319953Y-54366958D01*
X152285699Y-54298450D01*
X152285699Y-54264197D01*
X152319953Y-54195689D01*
X152354207Y-54161436D01*
X152422714Y-54127182D01*
X152559729Y-54127182D01*
X152628236Y-54161436D01*
X152662490Y-54195689D01*
X152696744Y-54264197D01*
X152696744Y-54298450D01*
X152662490Y-54366958D01*
X152628236Y-54401212D01*
X152559729Y-54435465D01*
X152422714Y-54435465D01*
X152354207Y-54469719D01*
X152319953Y-54503973D01*
X152285699Y-54572480D01*
X152285699Y-54709495D01*
X152319953Y-54778002D01*
X152354207Y-54812256D01*
X152422714Y-54846510D01*
X152559729Y-54846510D01*
X152628236Y-54812256D01*
X152662490Y-54778002D01*
X152696744Y-54709495D01*
X152696744Y-54572480D01*
X152662490Y-54503973D01*
X152628236Y-54469719D01*
X152559729Y-54435465D01*
%TO.C,C29*%
X161395431Y-144880767D02*
X161420008Y-144905345D01*
X161444586Y-144979077D01*
X161444586Y-145028232D01*
X161420008Y-145101965D01*
X161370853Y-145151120D01*
X161321698Y-145175698D01*
X161223388Y-145200275D01*
X161149656Y-145200275D01*
X161051346Y-145175698D01*
X161002191Y-145151120D01*
X160953036Y-145101965D01*
X160928458Y-145028232D01*
X160928458Y-144979077D01*
X160953036Y-144905345D01*
X160977613Y-144880767D01*
X160977613Y-144684147D02*
X160953036Y-144659570D01*
X160928458Y-144610415D01*
X160928458Y-144487527D01*
X160953036Y-144438372D01*
X160977613Y-144413794D01*
X161026768Y-144389217D01*
X161075923Y-144389217D01*
X161149656Y-144413794D01*
X161444586Y-144708725D01*
X161444586Y-144389217D01*
X161444586Y-144143442D02*
X161444586Y-144045132D01*
X161420008Y-143995976D01*
X161395431Y-143971399D01*
X161321698Y-143922244D01*
X161223388Y-143897666D01*
X161026768Y-143897666D01*
X160977613Y-143922244D01*
X160953036Y-143946821D01*
X160928458Y-143995976D01*
X160928458Y-144094287D01*
X160953036Y-144143442D01*
X160977613Y-144168019D01*
X161026768Y-144192597D01*
X161149656Y-144192597D01*
X161198811Y-144168019D01*
X161223388Y-144143442D01*
X161247966Y-144094287D01*
X161247966Y-143995976D01*
X161223388Y-143946821D01*
X161198811Y-143922244D01*
X161149656Y-143897666D01*
D18*
%TO.C,IC1*%
X158672158Y-86911074D02*
X157827608Y-86911074D01*
X158591725Y-86026307D02*
X158631941Y-86066524D01*
X158672158Y-86187174D01*
X158672158Y-86267607D01*
X158631941Y-86388257D01*
X158551508Y-86468690D01*
X158471075Y-86508907D01*
X158310208Y-86549124D01*
X158189558Y-86549124D01*
X158028691Y-86508907D01*
X157948258Y-86468690D01*
X157867825Y-86388257D01*
X157827608Y-86267607D01*
X157827608Y-86187174D01*
X157867825Y-86066524D01*
X157908041Y-86026307D01*
X158672158Y-85221974D02*
X158672158Y-85704574D01*
X158672158Y-85463274D02*
X157827608Y-85463274D01*
X157948258Y-85543707D01*
X158028691Y-85624140D01*
X158068908Y-85704574D01*
D13*
%TO.C,R6*%
X146931669Y-54846510D02*
X146691893Y-54503973D01*
X146520625Y-54846510D02*
X146520625Y-54127182D01*
X146794655Y-54127182D01*
X146863162Y-54161436D01*
X146897416Y-54195689D01*
X146931669Y-54264197D01*
X146931669Y-54366958D01*
X146897416Y-54435465D01*
X146863162Y-54469719D01*
X146794655Y-54503973D01*
X146520625Y-54503973D01*
X147548236Y-54127182D02*
X147411221Y-54127182D01*
X147342714Y-54161436D01*
X147308460Y-54195689D01*
X147239953Y-54298450D01*
X147205699Y-54435465D01*
X147205699Y-54709495D01*
X147239953Y-54778002D01*
X147274207Y-54812256D01*
X147342714Y-54846510D01*
X147479729Y-54846510D01*
X147548236Y-54812256D01*
X147582490Y-54778002D01*
X147616744Y-54709495D01*
X147616744Y-54538226D01*
X147582490Y-54469719D01*
X147548236Y-54435465D01*
X147479729Y-54401212D01*
X147342714Y-54401212D01*
X147274207Y-54435465D01*
X147239953Y-54469719D01*
X147205699Y-54538226D01*
%TO.C,Q4*%
X161287677Y-54915017D02*
X161219169Y-54880764D01*
X161150662Y-54812256D01*
X161047901Y-54709495D01*
X160979393Y-54675241D01*
X160910886Y-54675241D01*
X160945140Y-54846510D02*
X160876632Y-54812256D01*
X160808125Y-54743749D01*
X160773871Y-54606734D01*
X160773871Y-54366958D01*
X160808125Y-54229943D01*
X160876632Y-54161436D01*
X160945140Y-54127182D01*
X161082155Y-54127182D01*
X161150662Y-54161436D01*
X161219169Y-54229943D01*
X161253423Y-54366958D01*
X161253423Y-54606734D01*
X161219169Y-54743749D01*
X161150662Y-54812256D01*
X161082155Y-54846510D01*
X160945140Y-54846510D01*
X161869990Y-54366958D02*
X161869990Y-54846510D01*
X161698721Y-54092928D02*
X161527453Y-54606734D01*
X161972751Y-54606734D01*
%TO.C,R47*%
X142004674Y-131907086D02*
X141832632Y-131661311D01*
X141709744Y-131907086D02*
X141709744Y-131390958D01*
X141906364Y-131390958D01*
X141955519Y-131415536D01*
X141980097Y-131440113D01*
X142004674Y-131489268D01*
X142004674Y-131563001D01*
X141980097Y-131612156D01*
X141955519Y-131636733D01*
X141906364Y-131661311D01*
X141709744Y-131661311D01*
X142447070Y-131563001D02*
X142447070Y-131907086D01*
X142324182Y-131366380D02*
X142201294Y-131735043D01*
X142520802Y-131735043D01*
X142668267Y-131390958D02*
X143012353Y-131390958D01*
X142791155Y-131907086D01*
%TO.C,SW1*%
X180903457Y-63324813D02*
X181071532Y-63380838D01*
X181351658Y-63380838D01*
X181463708Y-63324813D01*
X181519733Y-63268788D01*
X181575759Y-63156738D01*
X181575759Y-63044688D01*
X181519733Y-62932637D01*
X181463708Y-62876612D01*
X181351658Y-62820587D01*
X181127557Y-62764562D01*
X181015507Y-62708537D01*
X180959482Y-62652512D01*
X180903457Y-62540461D01*
X180903457Y-62428411D01*
X180959482Y-62316361D01*
X181015507Y-62260336D01*
X181127557Y-62204310D01*
X181407683Y-62204310D01*
X181575759Y-62260336D01*
X181967935Y-62204310D02*
X182248060Y-63380838D01*
X182472161Y-62540461D01*
X182696261Y-63380838D01*
X182976387Y-62204310D01*
X184040865Y-63380838D02*
X183368563Y-63380838D01*
X183704714Y-63380838D02*
X183704714Y-62204310D01*
X183592664Y-62372386D01*
X183480613Y-62484436D01*
X183368563Y-62540461D01*
%TO.C,R20*%
X145714284Y-92200838D02*
X145322108Y-91640587D01*
X145041982Y-92200838D02*
X145041982Y-91024310D01*
X145490183Y-91024310D01*
X145602233Y-91080336D01*
X145658259Y-91136361D01*
X145714284Y-91248411D01*
X145714284Y-91416486D01*
X145658259Y-91528537D01*
X145602233Y-91584562D01*
X145490183Y-91640587D01*
X145041982Y-91640587D01*
X146162485Y-91136361D02*
X146218510Y-91080336D01*
X146330560Y-91024310D01*
X146610686Y-91024310D01*
X146722736Y-91080336D01*
X146778761Y-91136361D01*
X146834787Y-91248411D01*
X146834787Y-91360461D01*
X146778761Y-91528537D01*
X146106460Y-92200838D01*
X146834787Y-92200838D01*
X147563113Y-91024310D02*
X147675164Y-91024310D01*
X147787214Y-91080336D01*
X147843239Y-91136361D01*
X147899264Y-91248411D01*
X147955289Y-91472512D01*
X147955289Y-91752637D01*
X147899264Y-91976738D01*
X147843239Y-92088788D01*
X147787214Y-92144813D01*
X147675164Y-92200838D01*
X147563113Y-92200838D01*
X147451063Y-92144813D01*
X147395038Y-92088788D01*
X147339013Y-91976738D01*
X147282988Y-91752637D01*
X147282988Y-91472512D01*
X147339013Y-91248411D01*
X147395038Y-91136361D01*
X147451063Y-91080336D01*
X147563113Y-91024310D01*
X145658259Y-93724838D02*
X144985957Y-93724838D01*
X145322108Y-93724838D02*
X145322108Y-92548310D01*
X145210057Y-92716386D01*
X145098007Y-92828436D01*
X144985957Y-92884461D01*
X146386585Y-92548310D02*
X146498636Y-92548310D01*
X146610686Y-92604336D01*
X146666711Y-92660361D01*
X146722736Y-92772411D01*
X146778761Y-92996512D01*
X146778761Y-93276637D01*
X146722736Y-93500738D01*
X146666711Y-93612788D01*
X146610686Y-93668813D01*
X146498636Y-93724838D01*
X146386585Y-93724838D01*
X146274535Y-93668813D01*
X146218510Y-93612788D01*
X146162485Y-93500738D01*
X146106460Y-93276637D01*
X146106460Y-92996512D01*
X146162485Y-92772411D01*
X146218510Y-92660361D01*
X146274535Y-92604336D01*
X146386585Y-92548310D01*
X147282988Y-93724838D02*
X147282988Y-92548310D01*
X147395038Y-93276637D02*
X147731189Y-93724838D01*
X147731189Y-92940486D02*
X147282988Y-93388688D01*
X148627591Y-93108562D02*
X148795667Y-93164587D01*
X148851692Y-93220612D01*
X148907717Y-93332662D01*
X148907717Y-93500738D01*
X148851692Y-93612788D01*
X148795667Y-93668813D01*
X148683616Y-93724838D01*
X148235415Y-93724838D01*
X148235415Y-92548310D01*
X148627591Y-92548310D01*
X148739641Y-92604336D01*
X148795667Y-92660361D01*
X148851692Y-92772411D01*
X148851692Y-92884461D01*
X148795667Y-92996512D01*
X148739641Y-93052537D01*
X148627591Y-93108562D01*
X148235415Y-93108562D01*
D21*
%TO.C,J7*%
X120666666Y-146822380D02*
X120666666Y-147536666D01*
X120619047Y-147679523D01*
X120523809Y-147774761D01*
X120380952Y-147822380D01*
X120285714Y-147822380D01*
X121047619Y-146822380D02*
X121714285Y-146822380D01*
X121285714Y-147822380D01*
D22*
%TO.C,DISP1*%
X134165884Y-78403329D02*
X134165884Y-77547349D01*
X134369688Y-77547349D01*
X134491971Y-77588110D01*
X134573493Y-77669631D01*
X134614254Y-77751153D01*
X134655015Y-77914197D01*
X134655015Y-78036480D01*
X134614254Y-78199524D01*
X134573493Y-78281046D01*
X134491971Y-78362568D01*
X134369688Y-78403329D01*
X134165884Y-78403329D01*
X135021864Y-78403329D02*
X135021864Y-77547349D01*
X135388712Y-78362568D02*
X135510995Y-78403329D01*
X135714800Y-78403329D01*
X135796322Y-78362568D01*
X135837083Y-78321807D01*
X135877844Y-78240285D01*
X135877844Y-78158763D01*
X135837083Y-78077241D01*
X135796322Y-78036480D01*
X135714800Y-77995719D01*
X135551756Y-77954958D01*
X135470234Y-77914197D01*
X135429473Y-77873436D01*
X135388712Y-77791914D01*
X135388712Y-77710392D01*
X135429473Y-77628870D01*
X135470234Y-77588110D01*
X135551756Y-77547349D01*
X135755561Y-77547349D01*
X135877844Y-77588110D01*
X136244692Y-78403329D02*
X136244692Y-77547349D01*
X136570780Y-77547349D01*
X136652302Y-77588110D01*
X136693063Y-77628870D01*
X136733824Y-77710392D01*
X136733824Y-77832675D01*
X136693063Y-77914197D01*
X136652302Y-77954958D01*
X136570780Y-77995719D01*
X136244692Y-77995719D01*
X137549043Y-78403329D02*
X137059911Y-78403329D01*
X137304477Y-78403329D02*
X137304477Y-77547349D01*
X137222955Y-77669631D01*
X137141433Y-77751153D01*
X137059911Y-77791914D01*
D13*
%TO.C,R46*%
X163349586Y-128337525D02*
X163103811Y-128509567D01*
X163349586Y-128632455D02*
X162833458Y-128632455D01*
X162833458Y-128435835D01*
X162858036Y-128386680D01*
X162882613Y-128362102D01*
X162931768Y-128337525D01*
X163005501Y-128337525D01*
X163054656Y-128362102D01*
X163079233Y-128386680D01*
X163103811Y-128435835D01*
X163103811Y-128632455D01*
X163005501Y-127895129D02*
X163349586Y-127895129D01*
X162808880Y-128018017D02*
X163177543Y-128140905D01*
X163177543Y-127821397D01*
X162833458Y-127403579D02*
X162833458Y-127501889D01*
X162858036Y-127551044D01*
X162882613Y-127575622D01*
X162956346Y-127624777D01*
X163054656Y-127649354D01*
X163251276Y-127649354D01*
X163300431Y-127624777D01*
X163325008Y-127600199D01*
X163349586Y-127551044D01*
X163349586Y-127452734D01*
X163325008Y-127403579D01*
X163300431Y-127379001D01*
X163251276Y-127354424D01*
X163128388Y-127354424D01*
X163079233Y-127379001D01*
X163054656Y-127403579D01*
X163030078Y-127452734D01*
X163030078Y-127551044D01*
X163054656Y-127600199D01*
X163079233Y-127624777D01*
X163128388Y-127649354D01*
%TO.C,C5*%
X137655502Y-96740530D02*
X137689756Y-96774783D01*
X137724010Y-96877544D01*
X137724010Y-96946052D01*
X137689756Y-97048813D01*
X137621249Y-97117320D01*
X137552741Y-97151574D01*
X137415726Y-97185828D01*
X137312965Y-97185828D01*
X137175950Y-97151574D01*
X137107443Y-97117320D01*
X137038936Y-97048813D01*
X137004682Y-96946052D01*
X137004682Y-96877544D01*
X137038936Y-96774783D01*
X137073189Y-96740530D01*
X137004682Y-96089709D02*
X137004682Y-96432246D01*
X137347219Y-96466500D01*
X137312965Y-96432246D01*
X137278712Y-96363739D01*
X137278712Y-96192470D01*
X137312965Y-96123963D01*
X137347219Y-96089709D01*
X137415726Y-96055455D01*
X137586995Y-96055455D01*
X137655502Y-96089709D01*
X137689756Y-96123963D01*
X137724010Y-96192470D01*
X137724010Y-96363739D01*
X137689756Y-96432246D01*
X137655502Y-96466500D01*
%TO.C,R56*%
X163032086Y-144880767D02*
X162786311Y-145052810D01*
X163032086Y-145175698D02*
X162515958Y-145175698D01*
X162515958Y-144979077D01*
X162540536Y-144929922D01*
X162565113Y-144905345D01*
X162614268Y-144880767D01*
X162688001Y-144880767D01*
X162737156Y-144905345D01*
X162761733Y-144929922D01*
X162786311Y-144979077D01*
X162786311Y-145175698D01*
X162515958Y-144413794D02*
X162515958Y-144659570D01*
X162761733Y-144684147D01*
X162737156Y-144659570D01*
X162712578Y-144610415D01*
X162712578Y-144487527D01*
X162737156Y-144438372D01*
X162761733Y-144413794D01*
X162810888Y-144389217D01*
X162933776Y-144389217D01*
X162982931Y-144413794D01*
X163007508Y-144438372D01*
X163032086Y-144487527D01*
X163032086Y-144610415D01*
X163007508Y-144659570D01*
X162982931Y-144684147D01*
X162515958Y-143946821D02*
X162515958Y-144045132D01*
X162540536Y-144094287D01*
X162565113Y-144118864D01*
X162638846Y-144168019D01*
X162737156Y-144192597D01*
X162933776Y-144192597D01*
X162982931Y-144168019D01*
X163007508Y-144143442D01*
X163032086Y-144094287D01*
X163032086Y-143995976D01*
X163007508Y-143946821D01*
X162982931Y-143922244D01*
X162933776Y-143897666D01*
X162810888Y-143897666D01*
X162761733Y-143922244D01*
X162737156Y-143946821D01*
X162712578Y-143995976D01*
X162712578Y-144094287D01*
X162737156Y-144143442D01*
X162761733Y-144168019D01*
X162810888Y-144192597D01*
D17*
%TO.C,C19*%
X186557179Y-127871037D02*
X186592323Y-127906181D01*
X186627467Y-128011613D01*
X186627467Y-128081900D01*
X186592323Y-128187332D01*
X186522035Y-128257620D01*
X186451747Y-128292764D01*
X186311171Y-128327908D01*
X186205740Y-128327908D01*
X186065164Y-128292764D01*
X185994876Y-128257620D01*
X185924589Y-128187332D01*
X185889445Y-128081900D01*
X185889445Y-128011613D01*
X185924589Y-127906181D01*
X185959732Y-127871037D01*
X186627467Y-127168159D02*
X186627467Y-127589886D01*
X186627467Y-127379022D02*
X185889445Y-127379022D01*
X185994876Y-127449310D01*
X186065164Y-127519598D01*
X186100308Y-127589886D01*
X186627467Y-126816720D02*
X186627467Y-126676144D01*
X186592323Y-126605856D01*
X186557179Y-126570713D01*
X186451747Y-126500425D01*
X186311171Y-126465281D01*
X186030020Y-126465281D01*
X185959732Y-126500425D01*
X185924589Y-126535569D01*
X185889445Y-126605856D01*
X185889445Y-126746432D01*
X185924589Y-126816720D01*
X185959732Y-126851864D01*
X186030020Y-126887008D01*
X186205740Y-126887008D01*
X186276028Y-126851864D01*
X186311171Y-126816720D01*
X186346315Y-126746432D01*
X186346315Y-126605856D01*
X186311171Y-126535569D01*
X186276028Y-126500425D01*
X186205740Y-126465281D01*
D13*
%TO.C,R44*%
X140417174Y-129684586D02*
X140245132Y-129438811D01*
X140122244Y-129684586D02*
X140122244Y-129168458D01*
X140318864Y-129168458D01*
X140368019Y-129193036D01*
X140392597Y-129217613D01*
X140417174Y-129266768D01*
X140417174Y-129340501D01*
X140392597Y-129389656D01*
X140368019Y-129414233D01*
X140318864Y-129438811D01*
X140122244Y-129438811D01*
X140859570Y-129340501D02*
X140859570Y-129684586D01*
X140736682Y-129143880D02*
X140613794Y-129512543D01*
X140933302Y-129512543D01*
X141351120Y-129340501D02*
X141351120Y-129684586D01*
X141228232Y-129143880D02*
X141105345Y-129512543D01*
X141424853Y-129512543D01*
%TO.C,R52*%
X131493932Y-140479586D02*
X131321889Y-140233811D01*
X131199001Y-140479586D02*
X131199001Y-139963458D01*
X131395622Y-139963458D01*
X131444777Y-139988036D01*
X131469354Y-140012613D01*
X131493932Y-140061768D01*
X131493932Y-140135501D01*
X131469354Y-140184656D01*
X131444777Y-140209233D01*
X131395622Y-140233811D01*
X131199001Y-140233811D01*
X131960905Y-139963458D02*
X131715129Y-139963458D01*
X131690552Y-140209233D01*
X131715129Y-140184656D01*
X131764284Y-140160078D01*
X131887172Y-140160078D01*
X131936327Y-140184656D01*
X131960905Y-140209233D01*
X131985482Y-140258388D01*
X131985482Y-140381276D01*
X131960905Y-140430431D01*
X131936327Y-140455008D01*
X131887172Y-140479586D01*
X131764284Y-140479586D01*
X131715129Y-140455008D01*
X131690552Y-140430431D01*
X132182102Y-140012613D02*
X132206680Y-139988036D01*
X132255835Y-139963458D01*
X132378723Y-139963458D01*
X132427878Y-139988036D01*
X132452455Y-140012613D01*
X132477033Y-140061768D01*
X132477033Y-140110923D01*
X132452455Y-140184656D01*
X132157525Y-140479586D01*
X132477033Y-140479586D01*
%TO.C,R25*%
X156927174Y-108094586D02*
X156755132Y-107848811D01*
X156632244Y-108094586D02*
X156632244Y-107578458D01*
X156828864Y-107578458D01*
X156878019Y-107603036D01*
X156902597Y-107627613D01*
X156927174Y-107676768D01*
X156927174Y-107750501D01*
X156902597Y-107799656D01*
X156878019Y-107824233D01*
X156828864Y-107848811D01*
X156632244Y-107848811D01*
X157123794Y-107627613D02*
X157148372Y-107603036D01*
X157197527Y-107578458D01*
X157320415Y-107578458D01*
X157369570Y-107603036D01*
X157394147Y-107627613D01*
X157418725Y-107676768D01*
X157418725Y-107725923D01*
X157394147Y-107799656D01*
X157099217Y-108094586D01*
X157418725Y-108094586D01*
X157885698Y-107578458D02*
X157639922Y-107578458D01*
X157615345Y-107824233D01*
X157639922Y-107799656D01*
X157689077Y-107775078D01*
X157811965Y-107775078D01*
X157861120Y-107799656D01*
X157885698Y-107824233D01*
X157910275Y-107873388D01*
X157910275Y-107996276D01*
X157885698Y-108045431D01*
X157861120Y-108070008D01*
X157811965Y-108094586D01*
X157689077Y-108094586D01*
X157639922Y-108070008D01*
X157615345Y-108045431D01*
%TO.C,R24*%
X175097086Y-106463267D02*
X174851311Y-106635310D01*
X175097086Y-106758198D02*
X174580958Y-106758198D01*
X174580958Y-106561577D01*
X174605536Y-106512422D01*
X174630113Y-106487845D01*
X174679268Y-106463267D01*
X174753001Y-106463267D01*
X174802156Y-106487845D01*
X174826733Y-106512422D01*
X174851311Y-106561577D01*
X174851311Y-106758198D01*
X174630113Y-106266647D02*
X174605536Y-106242070D01*
X174580958Y-106192915D01*
X174580958Y-106070027D01*
X174605536Y-106020872D01*
X174630113Y-105996294D01*
X174679268Y-105971717D01*
X174728423Y-105971717D01*
X174802156Y-105996294D01*
X175097086Y-106291225D01*
X175097086Y-105971717D01*
X174753001Y-105529321D02*
X175097086Y-105529321D01*
X174556380Y-105652209D02*
X174925043Y-105775097D01*
X174925043Y-105455589D01*
%TO.C,R30*%
X151496432Y-112857086D02*
X151324389Y-112611311D01*
X151201501Y-112857086D02*
X151201501Y-112340958D01*
X151398122Y-112340958D01*
X151447277Y-112365536D01*
X151471854Y-112390113D01*
X151496432Y-112439268D01*
X151496432Y-112513001D01*
X151471854Y-112562156D01*
X151447277Y-112586733D01*
X151398122Y-112611311D01*
X151201501Y-112611311D01*
X151668474Y-112340958D02*
X151987982Y-112340958D01*
X151815939Y-112537578D01*
X151889672Y-112537578D01*
X151938827Y-112562156D01*
X151963405Y-112586733D01*
X151987982Y-112635888D01*
X151987982Y-112758776D01*
X151963405Y-112807931D01*
X151938827Y-112832508D01*
X151889672Y-112857086D01*
X151742207Y-112857086D01*
X151693052Y-112832508D01*
X151668474Y-112807931D01*
X152307490Y-112340958D02*
X152356645Y-112340958D01*
X152405800Y-112365536D01*
X152430378Y-112390113D01*
X152454955Y-112439268D01*
X152479533Y-112537578D01*
X152479533Y-112660466D01*
X152454955Y-112758776D01*
X152430378Y-112807931D01*
X152405800Y-112832508D01*
X152356645Y-112857086D01*
X152307490Y-112857086D01*
X152258335Y-112832508D01*
X152233757Y-112807931D01*
X152209180Y-112758776D01*
X152184602Y-112660466D01*
X152184602Y-112537578D01*
X152209180Y-112439268D01*
X152233757Y-112390113D01*
X152258335Y-112365536D01*
X152307490Y-112340958D01*
%TO.C,R43*%
X129271432Y-129049586D02*
X129099389Y-128803811D01*
X128976501Y-129049586D02*
X128976501Y-128533458D01*
X129173122Y-128533458D01*
X129222277Y-128558036D01*
X129246854Y-128582613D01*
X129271432Y-128631768D01*
X129271432Y-128705501D01*
X129246854Y-128754656D01*
X129222277Y-128779233D01*
X129173122Y-128803811D01*
X128976501Y-128803811D01*
X129713827Y-128705501D02*
X129713827Y-129049586D01*
X129590939Y-128508880D02*
X129468052Y-128877543D01*
X129787560Y-128877543D01*
X129935025Y-128533458D02*
X130254533Y-128533458D01*
X130082490Y-128730078D01*
X130156223Y-128730078D01*
X130205378Y-128754656D01*
X130229955Y-128779233D01*
X130254533Y-128828388D01*
X130254533Y-128951276D01*
X130229955Y-129000431D01*
X130205378Y-129025008D01*
X130156223Y-129049586D01*
X130008757Y-129049586D01*
X129959602Y-129025008D01*
X129935025Y-129000431D01*
%TO.C,C14*%
X165817174Y-110267931D02*
X165792597Y-110292508D01*
X165718864Y-110317086D01*
X165669709Y-110317086D01*
X165595976Y-110292508D01*
X165546821Y-110243353D01*
X165522244Y-110194198D01*
X165497666Y-110095888D01*
X165497666Y-110022156D01*
X165522244Y-109923846D01*
X165546821Y-109874691D01*
X165595976Y-109825536D01*
X165669709Y-109800958D01*
X165718864Y-109800958D01*
X165792597Y-109825536D01*
X165817174Y-109850113D01*
X166308725Y-110317086D02*
X166013794Y-110317086D01*
X166161260Y-110317086D02*
X166161260Y-109800958D01*
X166112104Y-109874691D01*
X166062949Y-109923846D01*
X166013794Y-109948423D01*
X166751120Y-109973001D02*
X166751120Y-110317086D01*
X166628232Y-109776380D02*
X166505345Y-110145043D01*
X166824853Y-110145043D01*
%TO.C,R38*%
X172384284Y-118870838D02*
X171992108Y-118310587D01*
X171711982Y-118870838D02*
X171711982Y-117694310D01*
X172160183Y-117694310D01*
X172272233Y-117750336D01*
X172328259Y-117806361D01*
X172384284Y-117918411D01*
X172384284Y-118086486D01*
X172328259Y-118198537D01*
X172272233Y-118254562D01*
X172160183Y-118310587D01*
X171711982Y-118310587D01*
X172776460Y-117694310D02*
X173504787Y-117694310D01*
X173112611Y-118142512D01*
X173280686Y-118142512D01*
X173392736Y-118198537D01*
X173448761Y-118254562D01*
X173504787Y-118366612D01*
X173504787Y-118646738D01*
X173448761Y-118758788D01*
X173392736Y-118814813D01*
X173280686Y-118870838D01*
X172944535Y-118870838D01*
X172832485Y-118814813D01*
X172776460Y-118758788D01*
X174177088Y-118198537D02*
X174065038Y-118142512D01*
X174009013Y-118086486D01*
X173952988Y-117974436D01*
X173952988Y-117918411D01*
X174009013Y-117806361D01*
X174065038Y-117750336D01*
X174177088Y-117694310D01*
X174401189Y-117694310D01*
X174513239Y-117750336D01*
X174569264Y-117806361D01*
X174625289Y-117918411D01*
X174625289Y-117974436D01*
X174569264Y-118086486D01*
X174513239Y-118142512D01*
X174401189Y-118198537D01*
X174177088Y-118198537D01*
X174065038Y-118254562D01*
X174009013Y-118310587D01*
X173952988Y-118422637D01*
X173952988Y-118646738D01*
X174009013Y-118758788D01*
X174065038Y-118814813D01*
X174177088Y-118870838D01*
X174401189Y-118870838D01*
X174513239Y-118814813D01*
X174569264Y-118758788D01*
X174625289Y-118646738D01*
X174625289Y-118422637D01*
X174569264Y-118310587D01*
X174513239Y-118254562D01*
X174401189Y-118198537D01*
X172328259Y-120394838D02*
X171655957Y-120394838D01*
X171992108Y-120394838D02*
X171992108Y-119218310D01*
X171880057Y-119386386D01*
X171768007Y-119498436D01*
X171655957Y-119554461D01*
X173056585Y-119218310D02*
X173168636Y-119218310D01*
X173280686Y-119274336D01*
X173336711Y-119330361D01*
X173392736Y-119442411D01*
X173448761Y-119666512D01*
X173448761Y-119946637D01*
X173392736Y-120170738D01*
X173336711Y-120282788D01*
X173280686Y-120338813D01*
X173168636Y-120394838D01*
X173056585Y-120394838D01*
X172944535Y-120338813D01*
X172888510Y-120282788D01*
X172832485Y-120170738D01*
X172776460Y-119946637D01*
X172776460Y-119666512D01*
X172832485Y-119442411D01*
X172888510Y-119330361D01*
X172944535Y-119274336D01*
X173056585Y-119218310D01*
X173952988Y-120394838D02*
X173952988Y-119218310D01*
X174065038Y-119946637D02*
X174401189Y-120394838D01*
X174401189Y-119610486D02*
X173952988Y-120058688D01*
X175297591Y-119778562D02*
X175465667Y-119834587D01*
X175521692Y-119890612D01*
X175577717Y-120002662D01*
X175577717Y-120170738D01*
X175521692Y-120282788D01*
X175465667Y-120338813D01*
X175353616Y-120394838D01*
X174905415Y-120394838D01*
X174905415Y-119218310D01*
X175297591Y-119218310D01*
X175409641Y-119274336D01*
X175465667Y-119330361D01*
X175521692Y-119442411D01*
X175521692Y-119554461D01*
X175465667Y-119666512D01*
X175409641Y-119722537D01*
X175297591Y-119778562D01*
X174905415Y-119778562D01*
%TO.C,R49*%
X177319586Y-133417525D02*
X177073811Y-133589567D01*
X177319586Y-133712455D02*
X176803458Y-133712455D01*
X176803458Y-133515835D01*
X176828036Y-133466680D01*
X176852613Y-133442102D01*
X176901768Y-133417525D01*
X176975501Y-133417525D01*
X177024656Y-133442102D01*
X177049233Y-133466680D01*
X177073811Y-133515835D01*
X177073811Y-133712455D01*
X176975501Y-132975129D02*
X177319586Y-132975129D01*
X176778880Y-133098017D02*
X177147543Y-133220905D01*
X177147543Y-132901397D01*
X177319586Y-132680199D02*
X177319586Y-132581889D01*
X177295008Y-132532734D01*
X177270431Y-132508156D01*
X177196698Y-132459001D01*
X177098388Y-132434424D01*
X176901768Y-132434424D01*
X176852613Y-132459001D01*
X176828036Y-132483579D01*
X176803458Y-132532734D01*
X176803458Y-132631044D01*
X176828036Y-132680199D01*
X176852613Y-132704777D01*
X176901768Y-132729354D01*
X177024656Y-132729354D01*
X177073811Y-132704777D01*
X177098388Y-132680199D01*
X177122966Y-132631044D01*
X177122966Y-132532734D01*
X177098388Y-132483579D01*
X177073811Y-132459001D01*
X177024656Y-132434424D01*
%TO.C,R37*%
X145714284Y-118870838D02*
X145322108Y-118310587D01*
X145041982Y-118870838D02*
X145041982Y-117694310D01*
X145490183Y-117694310D01*
X145602233Y-117750336D01*
X145658259Y-117806361D01*
X145714284Y-117918411D01*
X145714284Y-118086486D01*
X145658259Y-118198537D01*
X145602233Y-118254562D01*
X145490183Y-118310587D01*
X145041982Y-118310587D01*
X146106460Y-117694310D02*
X146834787Y-117694310D01*
X146442611Y-118142512D01*
X146610686Y-118142512D01*
X146722736Y-118198537D01*
X146778761Y-118254562D01*
X146834787Y-118366612D01*
X146834787Y-118646738D01*
X146778761Y-118758788D01*
X146722736Y-118814813D01*
X146610686Y-118870838D01*
X146274535Y-118870838D01*
X146162485Y-118814813D01*
X146106460Y-118758788D01*
X147226963Y-117694310D02*
X148011315Y-117694310D01*
X147507088Y-118870838D01*
X145658259Y-120394838D02*
X144985957Y-120394838D01*
X145322108Y-120394838D02*
X145322108Y-119218310D01*
X145210057Y-119386386D01*
X145098007Y-119498436D01*
X144985957Y-119554461D01*
X146386585Y-119218310D02*
X146498636Y-119218310D01*
X146610686Y-119274336D01*
X146666711Y-119330361D01*
X146722736Y-119442411D01*
X146778761Y-119666512D01*
X146778761Y-119946637D01*
X146722736Y-120170738D01*
X146666711Y-120282788D01*
X146610686Y-120338813D01*
X146498636Y-120394838D01*
X146386585Y-120394838D01*
X146274535Y-120338813D01*
X146218510Y-120282788D01*
X146162485Y-120170738D01*
X146106460Y-119946637D01*
X146106460Y-119666512D01*
X146162485Y-119442411D01*
X146218510Y-119330361D01*
X146274535Y-119274336D01*
X146386585Y-119218310D01*
X147282988Y-120394838D02*
X147282988Y-119218310D01*
X147395038Y-119946637D02*
X147731189Y-120394838D01*
X147731189Y-119610486D02*
X147282988Y-120058688D01*
X148627591Y-119778562D02*
X148795667Y-119834587D01*
X148851692Y-119890612D01*
X148907717Y-120002662D01*
X148907717Y-120170738D01*
X148851692Y-120282788D01*
X148795667Y-120338813D01*
X148683616Y-120394838D01*
X148235415Y-120394838D01*
X148235415Y-119218310D01*
X148627591Y-119218310D01*
X148739641Y-119274336D01*
X148795667Y-119330361D01*
X148851692Y-119442411D01*
X148851692Y-119554461D01*
X148795667Y-119666512D01*
X148739641Y-119722537D01*
X148627591Y-119778562D01*
X148235415Y-119778562D01*
D16*
%TO.C,IC6*%
X179498434Y-112944504D02*
X178657694Y-112944504D01*
X179418364Y-112063729D02*
X179458399Y-112103764D01*
X179498434Y-112223870D01*
X179498434Y-112303941D01*
X179458399Y-112424046D01*
X179378329Y-112504117D01*
X179298258Y-112544152D01*
X179138117Y-112584187D01*
X179018011Y-112584187D01*
X178857870Y-112544152D01*
X178777800Y-112504117D01*
X178697730Y-112424046D01*
X178657694Y-112303941D01*
X178657694Y-112223870D01*
X178697730Y-112103764D01*
X178737765Y-112063729D01*
X178657694Y-111343095D02*
X178657694Y-111503236D01*
X178697730Y-111583306D01*
X178737765Y-111623341D01*
X178857870Y-111703412D01*
X179018011Y-111743447D01*
X179338293Y-111743447D01*
X179418364Y-111703412D01*
X179458399Y-111663377D01*
X179498434Y-111583306D01*
X179498434Y-111423165D01*
X179458399Y-111343095D01*
X179418364Y-111303060D01*
X179338293Y-111263024D01*
X179138117Y-111263024D01*
X179058047Y-111303060D01*
X179018011Y-111343095D01*
X178977976Y-111423165D01*
X178977976Y-111583306D01*
X179018011Y-111663377D01*
X179058047Y-111703412D01*
X179138117Y-111743447D01*
D15*
%TO.C,IC7*%
X165658881Y-115035378D02*
X164810521Y-115035378D01*
X165578085Y-114146620D02*
X165618483Y-114187018D01*
X165658881Y-114308212D01*
X165658881Y-114389008D01*
X165618483Y-114510203D01*
X165537687Y-114590999D01*
X165456891Y-114631397D01*
X165295299Y-114671795D01*
X165174104Y-114671795D01*
X165012512Y-114631397D01*
X164931716Y-114590999D01*
X164850920Y-114510203D01*
X164810521Y-114389008D01*
X164810521Y-114308212D01*
X164850920Y-114187018D01*
X164891318Y-114146620D01*
X164810521Y-113863833D02*
X164810521Y-113298260D01*
X165658881Y-113661843D01*
D13*
%TO.C,R45*%
X164547174Y-129367086D02*
X164375132Y-129121311D01*
X164252244Y-129367086D02*
X164252244Y-128850958D01*
X164448864Y-128850958D01*
X164498019Y-128875536D01*
X164522597Y-128900113D01*
X164547174Y-128949268D01*
X164547174Y-129023001D01*
X164522597Y-129072156D01*
X164498019Y-129096733D01*
X164448864Y-129121311D01*
X164252244Y-129121311D01*
X164989570Y-129023001D02*
X164989570Y-129367086D01*
X164866682Y-128826380D02*
X164743794Y-129195043D01*
X165063302Y-129195043D01*
X165505698Y-128850958D02*
X165259922Y-128850958D01*
X165235345Y-129096733D01*
X165259922Y-129072156D01*
X165309077Y-129047578D01*
X165431965Y-129047578D01*
X165481120Y-129072156D01*
X165505698Y-129096733D01*
X165530275Y-129145888D01*
X165530275Y-129268776D01*
X165505698Y-129317931D01*
X165481120Y-129342508D01*
X165431965Y-129367086D01*
X165309077Y-129367086D01*
X165259922Y-129342508D01*
X165235345Y-129317931D01*
%TO.C,D2*%
X179344744Y-139479586D02*
X179344744Y-138963458D01*
X179467632Y-138963458D01*
X179541364Y-138988036D01*
X179590519Y-139037191D01*
X179615097Y-139086346D01*
X179639674Y-139184656D01*
X179639674Y-139258388D01*
X179615097Y-139356698D01*
X179590519Y-139405853D01*
X179541364Y-139455008D01*
X179467632Y-139479586D01*
X179344744Y-139479586D01*
X179836294Y-139012613D02*
X179860872Y-138988036D01*
X179910027Y-138963458D01*
X180032915Y-138963458D01*
X180082070Y-138988036D01*
X180106647Y-139012613D01*
X180131225Y-139061768D01*
X180131225Y-139110923D01*
X180106647Y-139184656D01*
X179811717Y-139479586D01*
X180131225Y-139479586D01*
%TO.C,R21*%
X172384284Y-92200838D02*
X171992108Y-91640587D01*
X171711982Y-92200838D02*
X171711982Y-91024310D01*
X172160183Y-91024310D01*
X172272233Y-91080336D01*
X172328259Y-91136361D01*
X172384284Y-91248411D01*
X172384284Y-91416486D01*
X172328259Y-91528537D01*
X172272233Y-91584562D01*
X172160183Y-91640587D01*
X171711982Y-91640587D01*
X172832485Y-91136361D02*
X172888510Y-91080336D01*
X173000560Y-91024310D01*
X173280686Y-91024310D01*
X173392736Y-91080336D01*
X173448761Y-91136361D01*
X173504787Y-91248411D01*
X173504787Y-91360461D01*
X173448761Y-91528537D01*
X172776460Y-92200838D01*
X173504787Y-92200838D01*
X174625289Y-92200838D02*
X173952988Y-92200838D01*
X174289139Y-92200838D02*
X174289139Y-91024310D01*
X174177088Y-91192386D01*
X174065038Y-91304436D01*
X173952988Y-91360461D01*
X172328259Y-93724838D02*
X171655957Y-93724838D01*
X171992108Y-93724838D02*
X171992108Y-92548310D01*
X171880057Y-92716386D01*
X171768007Y-92828436D01*
X171655957Y-92884461D01*
X173056585Y-92548310D02*
X173168636Y-92548310D01*
X173280686Y-92604336D01*
X173336711Y-92660361D01*
X173392736Y-92772411D01*
X173448761Y-92996512D01*
X173448761Y-93276637D01*
X173392736Y-93500738D01*
X173336711Y-93612788D01*
X173280686Y-93668813D01*
X173168636Y-93724838D01*
X173056585Y-93724838D01*
X172944535Y-93668813D01*
X172888510Y-93612788D01*
X172832485Y-93500738D01*
X172776460Y-93276637D01*
X172776460Y-92996512D01*
X172832485Y-92772411D01*
X172888510Y-92660361D01*
X172944535Y-92604336D01*
X173056585Y-92548310D01*
X173952988Y-93724838D02*
X173952988Y-92548310D01*
X174065038Y-93276637D02*
X174401189Y-93724838D01*
X174401189Y-92940486D02*
X173952988Y-93388688D01*
X175297591Y-93108562D02*
X175465667Y-93164587D01*
X175521692Y-93220612D01*
X175577717Y-93332662D01*
X175577717Y-93500738D01*
X175521692Y-93612788D01*
X175465667Y-93668813D01*
X175353616Y-93724838D01*
X174905415Y-93724838D01*
X174905415Y-92548310D01*
X175297591Y-92548310D01*
X175409641Y-92604336D01*
X175465667Y-92660361D01*
X175521692Y-92772411D01*
X175521692Y-92884461D01*
X175465667Y-92996512D01*
X175409641Y-93052537D01*
X175297591Y-93108562D01*
X174905415Y-93108562D01*
%TO.C,R31*%
X151496432Y-114762086D02*
X151324389Y-114516311D01*
X151201501Y-114762086D02*
X151201501Y-114245958D01*
X151398122Y-114245958D01*
X151447277Y-114270536D01*
X151471854Y-114295113D01*
X151496432Y-114344268D01*
X151496432Y-114418001D01*
X151471854Y-114467156D01*
X151447277Y-114491733D01*
X151398122Y-114516311D01*
X151201501Y-114516311D01*
X151668474Y-114245958D02*
X151987982Y-114245958D01*
X151815939Y-114442578D01*
X151889672Y-114442578D01*
X151938827Y-114467156D01*
X151963405Y-114491733D01*
X151987982Y-114540888D01*
X151987982Y-114663776D01*
X151963405Y-114712931D01*
X151938827Y-114737508D01*
X151889672Y-114762086D01*
X151742207Y-114762086D01*
X151693052Y-114737508D01*
X151668474Y-114712931D01*
X152479533Y-114762086D02*
X152184602Y-114762086D01*
X152332067Y-114762086D02*
X152332067Y-114245958D01*
X152282912Y-114319691D01*
X152233757Y-114368846D01*
X152184602Y-114393423D01*
%TO.C,SW3*%
X112102771Y-112459956D02*
X112205532Y-112494210D01*
X112376801Y-112494210D01*
X112445308Y-112459956D01*
X112479562Y-112425702D01*
X112513816Y-112357195D01*
X112513816Y-112288688D01*
X112479562Y-112220180D01*
X112445308Y-112185926D01*
X112376801Y-112151673D01*
X112239786Y-112117419D01*
X112171279Y-112083165D01*
X112137025Y-112048912D01*
X112102771Y-111980404D01*
X112102771Y-111911897D01*
X112137025Y-111843389D01*
X112171279Y-111809136D01*
X112239786Y-111774882D01*
X112411055Y-111774882D01*
X112513816Y-111809136D01*
X112753592Y-111774882D02*
X112924860Y-112494210D01*
X113061875Y-111980404D01*
X113198890Y-112494210D01*
X113370159Y-111774882D01*
X113575681Y-111774882D02*
X114020979Y-111774882D01*
X113781203Y-112048912D01*
X113883964Y-112048912D01*
X113952472Y-112083165D01*
X113986725Y-112117419D01*
X114020979Y-112185926D01*
X114020979Y-112357195D01*
X113986725Y-112425702D01*
X113952472Y-112459956D01*
X113883964Y-112494210D01*
X113678442Y-112494210D01*
X113609935Y-112459956D01*
X113575681Y-112425702D01*
%TO.C,R10*%
X158044169Y-54846510D02*
X157804393Y-54503973D01*
X157633125Y-54846510D02*
X157633125Y-54127182D01*
X157907155Y-54127182D01*
X157975662Y-54161436D01*
X158009916Y-54195689D01*
X158044169Y-54264197D01*
X158044169Y-54366958D01*
X158009916Y-54435465D01*
X157975662Y-54469719D01*
X157907155Y-54503973D01*
X157633125Y-54503973D01*
X158729244Y-54846510D02*
X158318199Y-54846510D01*
X158523721Y-54846510D02*
X158523721Y-54127182D01*
X158455214Y-54229943D01*
X158386707Y-54298450D01*
X158318199Y-54332704D01*
X159174542Y-54127182D02*
X159243049Y-54127182D01*
X159311557Y-54161436D01*
X159345811Y-54195689D01*
X159380064Y-54264197D01*
X159414318Y-54401212D01*
X159414318Y-54572480D01*
X159380064Y-54709495D01*
X159345811Y-54778002D01*
X159311557Y-54812256D01*
X159243049Y-54846510D01*
X159174542Y-54846510D01*
X159106035Y-54812256D01*
X159071781Y-54778002D01*
X159037527Y-54709495D01*
X159003273Y-54572480D01*
X159003273Y-54401212D01*
X159037527Y-54264197D01*
X159071781Y-54195689D01*
X159106035Y-54161436D01*
X159174542Y-54127182D01*
%TO.C,C12*%
X171237931Y-107733267D02*
X171262508Y-107757845D01*
X171287086Y-107831577D01*
X171287086Y-107880732D01*
X171262508Y-107954465D01*
X171213353Y-108003620D01*
X171164198Y-108028198D01*
X171065888Y-108052775D01*
X170992156Y-108052775D01*
X170893846Y-108028198D01*
X170844691Y-108003620D01*
X170795536Y-107954465D01*
X170770958Y-107880732D01*
X170770958Y-107831577D01*
X170795536Y-107757845D01*
X170820113Y-107733267D01*
X171287086Y-107241717D02*
X171287086Y-107536647D01*
X171287086Y-107389182D02*
X170770958Y-107389182D01*
X170844691Y-107438337D01*
X170893846Y-107487492D01*
X170918423Y-107536647D01*
X170820113Y-107045097D02*
X170795536Y-107020519D01*
X170770958Y-106971364D01*
X170770958Y-106848476D01*
X170795536Y-106799321D01*
X170820113Y-106774744D01*
X170869268Y-106750166D01*
X170918423Y-106750166D01*
X170992156Y-106774744D01*
X171287086Y-107069674D01*
X171287086Y-106750166D01*
%TO.C,R26*%
X163594674Y-108094586D02*
X163422632Y-107848811D01*
X163299744Y-108094586D02*
X163299744Y-107578458D01*
X163496364Y-107578458D01*
X163545519Y-107603036D01*
X163570097Y-107627613D01*
X163594674Y-107676768D01*
X163594674Y-107750501D01*
X163570097Y-107799656D01*
X163545519Y-107824233D01*
X163496364Y-107848811D01*
X163299744Y-107848811D01*
X163791294Y-107627613D02*
X163815872Y-107603036D01*
X163865027Y-107578458D01*
X163987915Y-107578458D01*
X164037070Y-107603036D01*
X164061647Y-107627613D01*
X164086225Y-107676768D01*
X164086225Y-107725923D01*
X164061647Y-107799656D01*
X163766717Y-108094586D01*
X164086225Y-108094586D01*
X164528620Y-107578458D02*
X164430310Y-107578458D01*
X164381155Y-107603036D01*
X164356577Y-107627613D01*
X164307422Y-107701346D01*
X164282845Y-107799656D01*
X164282845Y-107996276D01*
X164307422Y-108045431D01*
X164332000Y-108070008D01*
X164381155Y-108094586D01*
X164479465Y-108094586D01*
X164528620Y-108070008D01*
X164553198Y-108045431D01*
X164577775Y-107996276D01*
X164577775Y-107873388D01*
X164553198Y-107824233D01*
X164528620Y-107799656D01*
X164479465Y-107775078D01*
X164381155Y-107775078D01*
X164332000Y-107799656D01*
X164307422Y-107824233D01*
X164282845Y-107873388D01*
%TO.C,J6*%
X186280633Y-146666810D02*
X186280633Y-147507188D01*
X186224608Y-147675263D01*
X186112557Y-147787313D01*
X185944482Y-147843338D01*
X185832432Y-147843338D01*
X187345111Y-146666810D02*
X187121010Y-146666810D01*
X187008960Y-146722836D01*
X186952935Y-146778861D01*
X186840884Y-146946936D01*
X186784859Y-147171037D01*
X186784859Y-147619238D01*
X186840884Y-147731288D01*
X186896909Y-147787313D01*
X187008960Y-147843338D01*
X187233060Y-147843338D01*
X187345111Y-147787313D01*
X187401136Y-147731288D01*
X187457161Y-147619238D01*
X187457161Y-147339112D01*
X187401136Y-147227062D01*
X187345111Y-147171037D01*
X187233060Y-147115012D01*
X187008960Y-147115012D01*
X186896909Y-147171037D01*
X186840884Y-147227062D01*
X186784859Y-147339112D01*
D17*
%TO.C,C24*%
X151043662Y-138287179D02*
X151008518Y-138322323D01*
X150903086Y-138357467D01*
X150832799Y-138357467D01*
X150727367Y-138322323D01*
X150657079Y-138252035D01*
X150621935Y-138181747D01*
X150586791Y-138041171D01*
X150586791Y-137935740D01*
X150621935Y-137795164D01*
X150657079Y-137724876D01*
X150727367Y-137654589D01*
X150832799Y-137619445D01*
X150903086Y-137619445D01*
X151008518Y-137654589D01*
X151043662Y-137689732D01*
X151324813Y-137689732D02*
X151359957Y-137654589D01*
X151430245Y-137619445D01*
X151605964Y-137619445D01*
X151676252Y-137654589D01*
X151711396Y-137689732D01*
X151746540Y-137760020D01*
X151746540Y-137830308D01*
X151711396Y-137935740D01*
X151289669Y-138357467D01*
X151746540Y-138357467D01*
X152379130Y-137865452D02*
X152379130Y-138357467D01*
X152203411Y-137584301D02*
X152027691Y-138111459D01*
X152484562Y-138111459D01*
D13*
%TO.C,R33*%
X113007910Y-124221720D02*
X112665373Y-124461496D01*
X113007910Y-124632764D02*
X112288582Y-124632764D01*
X112288582Y-124358735D01*
X112322836Y-124290227D01*
X112357089Y-124255973D01*
X112425597Y-124221720D01*
X112528358Y-124221720D01*
X112596865Y-124255973D01*
X112631119Y-124290227D01*
X112665373Y-124358735D01*
X112665373Y-124632764D01*
X112288582Y-123981944D02*
X112288582Y-123536645D01*
X112562612Y-123776421D01*
X112562612Y-123673660D01*
X112596865Y-123605153D01*
X112631119Y-123570899D01*
X112699626Y-123536645D01*
X112870895Y-123536645D01*
X112939402Y-123570899D01*
X112973656Y-123605153D01*
X113007910Y-123673660D01*
X113007910Y-123879183D01*
X112973656Y-123947690D01*
X112939402Y-123981944D01*
X112288582Y-123296869D02*
X112288582Y-122851571D01*
X112562612Y-123091347D01*
X112562612Y-122988586D01*
X112596865Y-122920079D01*
X112631119Y-122885825D01*
X112699626Y-122851571D01*
X112870895Y-122851571D01*
X112939402Y-122885825D01*
X112973656Y-122920079D01*
X113007910Y-122988586D01*
X113007910Y-123194108D01*
X112973656Y-123262616D01*
X112939402Y-123296869D01*
%TO.C,C21*%
X161712931Y-128337525D02*
X161737508Y-128362102D01*
X161762086Y-128435835D01*
X161762086Y-128484990D01*
X161737508Y-128558723D01*
X161688353Y-128607878D01*
X161639198Y-128632455D01*
X161540888Y-128657033D01*
X161467156Y-128657033D01*
X161368846Y-128632455D01*
X161319691Y-128607878D01*
X161270536Y-128558723D01*
X161245958Y-128484990D01*
X161245958Y-128435835D01*
X161270536Y-128362102D01*
X161295113Y-128337525D01*
X161295113Y-128140905D02*
X161270536Y-128116327D01*
X161245958Y-128067172D01*
X161245958Y-127944284D01*
X161270536Y-127895129D01*
X161295113Y-127870552D01*
X161344268Y-127845974D01*
X161393423Y-127845974D01*
X161467156Y-127870552D01*
X161762086Y-128165482D01*
X161762086Y-127845974D01*
X161762086Y-127354424D02*
X161762086Y-127649354D01*
X161762086Y-127501889D02*
X161245958Y-127501889D01*
X161319691Y-127551044D01*
X161368846Y-127600199D01*
X161393423Y-127649354D01*
%TO.C,R4*%
X141851669Y-54846510D02*
X141611893Y-54503973D01*
X141440625Y-54846510D02*
X141440625Y-54127182D01*
X141714655Y-54127182D01*
X141783162Y-54161436D01*
X141817416Y-54195689D01*
X141851669Y-54264197D01*
X141851669Y-54366958D01*
X141817416Y-54435465D01*
X141783162Y-54469719D01*
X141714655Y-54503973D01*
X141440625Y-54503973D01*
X142468236Y-54366958D02*
X142468236Y-54846510D01*
X142296968Y-54092928D02*
X142125699Y-54606734D01*
X142570997Y-54606734D01*
%TO.C,R48*%
X148427086Y-138530767D02*
X148181311Y-138702810D01*
X148427086Y-138825698D02*
X147910958Y-138825698D01*
X147910958Y-138629077D01*
X147935536Y-138579922D01*
X147960113Y-138555345D01*
X148009268Y-138530767D01*
X148083001Y-138530767D01*
X148132156Y-138555345D01*
X148156733Y-138579922D01*
X148181311Y-138629077D01*
X148181311Y-138825698D01*
X148083001Y-138088372D02*
X148427086Y-138088372D01*
X147886380Y-138211260D02*
X148255043Y-138334147D01*
X148255043Y-138014639D01*
X148132156Y-137744287D02*
X148107578Y-137793442D01*
X148083001Y-137818019D01*
X148033846Y-137842597D01*
X148009268Y-137842597D01*
X147960113Y-137818019D01*
X147935536Y-137793442D01*
X147910958Y-137744287D01*
X147910958Y-137645976D01*
X147935536Y-137596821D01*
X147960113Y-137572244D01*
X148009268Y-137547666D01*
X148033846Y-137547666D01*
X148083001Y-137572244D01*
X148107578Y-137596821D01*
X148132156Y-137645976D01*
X148132156Y-137744287D01*
X148156733Y-137793442D01*
X148181311Y-137818019D01*
X148230466Y-137842597D01*
X148328776Y-137842597D01*
X148377931Y-137818019D01*
X148402508Y-137793442D01*
X148427086Y-137744287D01*
X148427086Y-137645976D01*
X148402508Y-137596821D01*
X148377931Y-137572244D01*
X148328776Y-137547666D01*
X148230466Y-137547666D01*
X148181311Y-137572244D01*
X148156733Y-137596821D01*
X148132156Y-137645976D01*
%TO.C,R40*%
X165817174Y-123334586D02*
X165645132Y-123088811D01*
X165522244Y-123334586D02*
X165522244Y-122818458D01*
X165718864Y-122818458D01*
X165768019Y-122843036D01*
X165792597Y-122867613D01*
X165817174Y-122916768D01*
X165817174Y-122990501D01*
X165792597Y-123039656D01*
X165768019Y-123064233D01*
X165718864Y-123088811D01*
X165522244Y-123088811D01*
X166259570Y-122990501D02*
X166259570Y-123334586D01*
X166136682Y-122793880D02*
X166013794Y-123162543D01*
X166333302Y-123162543D01*
X166628232Y-122818458D02*
X166677388Y-122818458D01*
X166726543Y-122843036D01*
X166751120Y-122867613D01*
X166775698Y-122916768D01*
X166800275Y-123015078D01*
X166800275Y-123137966D01*
X166775698Y-123236276D01*
X166751120Y-123285431D01*
X166726543Y-123310008D01*
X166677388Y-123334586D01*
X166628232Y-123334586D01*
X166579077Y-123310008D01*
X166554500Y-123285431D01*
X166529922Y-123236276D01*
X166505345Y-123137966D01*
X166505345Y-123015078D01*
X166529922Y-122916768D01*
X166554500Y-122867613D01*
X166579077Y-122843036D01*
X166628232Y-122818458D01*
%TO.C,D1*%
X179344744Y-133129586D02*
X179344744Y-132613458D01*
X179467632Y-132613458D01*
X179541364Y-132638036D01*
X179590519Y-132687191D01*
X179615097Y-132736346D01*
X179639674Y-132834656D01*
X179639674Y-132908388D01*
X179615097Y-133006698D01*
X179590519Y-133055853D01*
X179541364Y-133105008D01*
X179467632Y-133129586D01*
X179344744Y-133129586D01*
X180131225Y-133129586D02*
X179836294Y-133129586D01*
X179983760Y-133129586D02*
X179983760Y-132613458D01*
X179934604Y-132687191D01*
X179885449Y-132736346D01*
X179836294Y-132760923D01*
%TO.C,R9*%
X154551669Y-54846510D02*
X154311893Y-54503973D01*
X154140625Y-54846510D02*
X154140625Y-54127182D01*
X154414655Y-54127182D01*
X154483162Y-54161436D01*
X154517416Y-54195689D01*
X154551669Y-54264197D01*
X154551669Y-54366958D01*
X154517416Y-54435465D01*
X154483162Y-54469719D01*
X154414655Y-54503973D01*
X154140625Y-54503973D01*
X154894207Y-54846510D02*
X155031221Y-54846510D01*
X155099729Y-54812256D01*
X155133983Y-54778002D01*
X155202490Y-54675241D01*
X155236744Y-54538226D01*
X155236744Y-54264197D01*
X155202490Y-54195689D01*
X155168236Y-54161436D01*
X155099729Y-54127182D01*
X154962714Y-54127182D01*
X154894207Y-54161436D01*
X154859953Y-54195689D01*
X154825699Y-54264197D01*
X154825699Y-54435465D01*
X154859953Y-54503973D01*
X154894207Y-54538226D01*
X154962714Y-54572480D01*
X155099729Y-54572480D01*
X155168236Y-54538226D01*
X155202490Y-54503973D01*
X155236744Y-54435465D01*
D22*
%TO.C,DISP2*%
X159565884Y-78403329D02*
X159565884Y-77547349D01*
X159769688Y-77547349D01*
X159891971Y-77588110D01*
X159973493Y-77669631D01*
X160014254Y-77751153D01*
X160055015Y-77914197D01*
X160055015Y-78036480D01*
X160014254Y-78199524D01*
X159973493Y-78281046D01*
X159891971Y-78362568D01*
X159769688Y-78403329D01*
X159565884Y-78403329D01*
X160421864Y-78403329D02*
X160421864Y-77547349D01*
X160788712Y-78362568D02*
X160910995Y-78403329D01*
X161114800Y-78403329D01*
X161196322Y-78362568D01*
X161237083Y-78321807D01*
X161277844Y-78240285D01*
X161277844Y-78158763D01*
X161237083Y-78077241D01*
X161196322Y-78036480D01*
X161114800Y-77995719D01*
X160951756Y-77954958D01*
X160870234Y-77914197D01*
X160829473Y-77873436D01*
X160788712Y-77791914D01*
X160788712Y-77710392D01*
X160829473Y-77628870D01*
X160870234Y-77588110D01*
X160951756Y-77547349D01*
X161155561Y-77547349D01*
X161277844Y-77588110D01*
X161644692Y-78403329D02*
X161644692Y-77547349D01*
X161970780Y-77547349D01*
X162052302Y-77588110D01*
X162093063Y-77628870D01*
X162133824Y-77710392D01*
X162133824Y-77832675D01*
X162093063Y-77914197D01*
X162052302Y-77954958D01*
X161970780Y-77995719D01*
X161644692Y-77995719D01*
X162459911Y-77628870D02*
X162500672Y-77588110D01*
X162582194Y-77547349D01*
X162785999Y-77547349D01*
X162867521Y-77588110D01*
X162908282Y-77628870D01*
X162949043Y-77710392D01*
X162949043Y-77791914D01*
X162908282Y-77914197D01*
X162419150Y-78403329D01*
X162949043Y-78403329D01*
D13*
%TO.C,C10*%
X138053179Y-105895502D02*
X138018926Y-105929756D01*
X137916164Y-105964010D01*
X137847657Y-105964010D01*
X137744896Y-105929756D01*
X137676388Y-105861249D01*
X137642135Y-105792741D01*
X137607881Y-105655726D01*
X137607881Y-105552965D01*
X137642135Y-105415950D01*
X137676388Y-105347443D01*
X137744896Y-105278936D01*
X137847657Y-105244682D01*
X137916164Y-105244682D01*
X138018926Y-105278936D01*
X138053179Y-105313189D01*
X138738254Y-105964010D02*
X138327209Y-105964010D01*
X138532731Y-105964010D02*
X138532731Y-105244682D01*
X138464224Y-105347443D01*
X138395716Y-105415950D01*
X138327209Y-105450204D01*
X139183552Y-105244682D02*
X139252059Y-105244682D01*
X139320567Y-105278936D01*
X139354820Y-105313189D01*
X139389074Y-105381697D01*
X139423328Y-105518712D01*
X139423328Y-105689980D01*
X139389074Y-105826995D01*
X139354820Y-105895502D01*
X139320567Y-105929756D01*
X139252059Y-105964010D01*
X139183552Y-105964010D01*
X139115044Y-105929756D01*
X139080791Y-105895502D01*
X139046537Y-105826995D01*
X139012283Y-105689980D01*
X139012283Y-105518712D01*
X139046537Y-105381697D01*
X139080791Y-105313189D01*
X139115044Y-105278936D01*
X139183552Y-105244682D01*
%TO.C,C9*%
X131118254Y-105895502D02*
X131084000Y-105929756D01*
X130981239Y-105964010D01*
X130912731Y-105964010D01*
X130809970Y-105929756D01*
X130741463Y-105861249D01*
X130707209Y-105792741D01*
X130672955Y-105655726D01*
X130672955Y-105552965D01*
X130707209Y-105415950D01*
X130741463Y-105347443D01*
X130809970Y-105278936D01*
X130912731Y-105244682D01*
X130981239Y-105244682D01*
X131084000Y-105278936D01*
X131118254Y-105313189D01*
X131460791Y-105964010D02*
X131597806Y-105964010D01*
X131666313Y-105929756D01*
X131700567Y-105895502D01*
X131769074Y-105792741D01*
X131803328Y-105655726D01*
X131803328Y-105381697D01*
X131769074Y-105313189D01*
X131734820Y-105278936D01*
X131666313Y-105244682D01*
X131529298Y-105244682D01*
X131460791Y-105278936D01*
X131426537Y-105313189D01*
X131392283Y-105381697D01*
X131392283Y-105552965D01*
X131426537Y-105621473D01*
X131460791Y-105655726D01*
X131529298Y-105689980D01*
X131666313Y-105689980D01*
X131734820Y-105655726D01*
X131769074Y-105621473D01*
X131803328Y-105552965D01*
%TO.C,Q1*%
X117790177Y-54915017D02*
X117721669Y-54880764D01*
X117653162Y-54812256D01*
X117550401Y-54709495D01*
X117481893Y-54675241D01*
X117413386Y-54675241D01*
X117447640Y-54846510D02*
X117379132Y-54812256D01*
X117310625Y-54743749D01*
X117276371Y-54606734D01*
X117276371Y-54366958D01*
X117310625Y-54229943D01*
X117379132Y-54161436D01*
X117447640Y-54127182D01*
X117584655Y-54127182D01*
X117653162Y-54161436D01*
X117721669Y-54229943D01*
X117755923Y-54366958D01*
X117755923Y-54606734D01*
X117721669Y-54743749D01*
X117653162Y-54812256D01*
X117584655Y-54846510D01*
X117447640Y-54846510D01*
X118440997Y-54846510D02*
X118029953Y-54846510D01*
X118235475Y-54846510D02*
X118235475Y-54127182D01*
X118166968Y-54229943D01*
X118098460Y-54298450D01*
X118029953Y-54332704D01*
%TO.C,C31*%
X123119169Y-105260502D02*
X123084916Y-105294756D01*
X122982155Y-105329010D01*
X122913647Y-105329010D01*
X122810886Y-105294756D01*
X122742379Y-105226249D01*
X122708125Y-105157741D01*
X122673871Y-105020726D01*
X122673871Y-104917965D01*
X122708125Y-104780950D01*
X122742379Y-104712443D01*
X122810886Y-104643936D01*
X122913647Y-104609682D01*
X122982155Y-104609682D01*
X123084916Y-104643936D01*
X123119169Y-104678189D01*
X123358945Y-104609682D02*
X123804244Y-104609682D01*
X123564468Y-104883712D01*
X123667229Y-104883712D01*
X123735736Y-104917965D01*
X123769990Y-104952219D01*
X123804244Y-105020726D01*
X123804244Y-105191995D01*
X123769990Y-105260502D01*
X123735736Y-105294756D01*
X123667229Y-105329010D01*
X123461707Y-105329010D01*
X123393199Y-105294756D01*
X123358945Y-105260502D01*
X124489318Y-105329010D02*
X124078273Y-105329010D01*
X124283796Y-105329010D02*
X124283796Y-104609682D01*
X124215288Y-104712443D01*
X124146781Y-104780950D01*
X124078273Y-104815204D01*
%TO.C,R39*%
X156047086Y-122940025D02*
X155801311Y-123112067D01*
X156047086Y-123234955D02*
X155530958Y-123234955D01*
X155530958Y-123038335D01*
X155555536Y-122989180D01*
X155580113Y-122964602D01*
X155629268Y-122940025D01*
X155703001Y-122940025D01*
X155752156Y-122964602D01*
X155776733Y-122989180D01*
X155801311Y-123038335D01*
X155801311Y-123234955D01*
X155530958Y-122767982D02*
X155530958Y-122448474D01*
X155727578Y-122620517D01*
X155727578Y-122546784D01*
X155752156Y-122497629D01*
X155776733Y-122473052D01*
X155825888Y-122448474D01*
X155948776Y-122448474D01*
X155997931Y-122473052D01*
X156022508Y-122497629D01*
X156047086Y-122546784D01*
X156047086Y-122694250D01*
X156022508Y-122743405D01*
X155997931Y-122767982D01*
X156047086Y-122202699D02*
X156047086Y-122104389D01*
X156022508Y-122055234D01*
X155997931Y-122030656D01*
X155924198Y-121981501D01*
X155825888Y-121956924D01*
X155629268Y-121956924D01*
X155580113Y-121981501D01*
X155555536Y-122006079D01*
X155530958Y-122055234D01*
X155530958Y-122153544D01*
X155555536Y-122202699D01*
X155580113Y-122227277D01*
X155629268Y-122251854D01*
X155752156Y-122251854D01*
X155801311Y-122227277D01*
X155825888Y-122202699D01*
X155850466Y-122153544D01*
X155850466Y-122055234D01*
X155825888Y-122006079D01*
X155801311Y-121981501D01*
X155752156Y-121956924D01*
%TO.C,R29*%
X129480679Y-113584010D02*
X129240903Y-113241473D01*
X129069635Y-113584010D02*
X129069635Y-112864682D01*
X129343664Y-112864682D01*
X129412172Y-112898936D01*
X129446426Y-112933189D01*
X129480679Y-113001697D01*
X129480679Y-113104458D01*
X129446426Y-113172965D01*
X129412172Y-113207219D01*
X129343664Y-113241473D01*
X129069635Y-113241473D01*
X129754709Y-112933189D02*
X129788963Y-112898936D01*
X129857470Y-112864682D01*
X130028739Y-112864682D01*
X130097246Y-112898936D01*
X130131500Y-112933189D01*
X130165754Y-113001697D01*
X130165754Y-113070204D01*
X130131500Y-113172965D01*
X129720455Y-113584010D01*
X130165754Y-113584010D01*
X130508291Y-113584010D02*
X130645306Y-113584010D01*
X130713813Y-113549756D01*
X130748067Y-113515502D01*
X130816574Y-113412741D01*
X130850828Y-113275726D01*
X130850828Y-113001697D01*
X130816574Y-112933189D01*
X130782320Y-112898936D01*
X130713813Y-112864682D01*
X130576798Y-112864682D01*
X130508291Y-112898936D01*
X130474037Y-112933189D01*
X130439783Y-113001697D01*
X130439783Y-113172965D01*
X130474037Y-113241473D01*
X130508291Y-113275726D01*
X130576798Y-113309980D01*
X130713813Y-113309980D01*
X130782320Y-113275726D01*
X130816574Y-113241473D01*
X130850828Y-113172965D01*
%TO.C,C20*%
X135995431Y-125797525D02*
X136020008Y-125822102D01*
X136044586Y-125895835D01*
X136044586Y-125944990D01*
X136020008Y-126018723D01*
X135970853Y-126067878D01*
X135921698Y-126092455D01*
X135823388Y-126117033D01*
X135749656Y-126117033D01*
X135651346Y-126092455D01*
X135602191Y-126067878D01*
X135553036Y-126018723D01*
X135528458Y-125944990D01*
X135528458Y-125895835D01*
X135553036Y-125822102D01*
X135577613Y-125797525D01*
X135577613Y-125600905D02*
X135553036Y-125576327D01*
X135528458Y-125527172D01*
X135528458Y-125404284D01*
X135553036Y-125355129D01*
X135577613Y-125330552D01*
X135626768Y-125305974D01*
X135675923Y-125305974D01*
X135749656Y-125330552D01*
X136044586Y-125625482D01*
X136044586Y-125305974D01*
X135528458Y-124986467D02*
X135528458Y-124937311D01*
X135553036Y-124888156D01*
X135577613Y-124863579D01*
X135626768Y-124839001D01*
X135725078Y-124814424D01*
X135847966Y-124814424D01*
X135946276Y-124839001D01*
X135995431Y-124863579D01*
X136020008Y-124888156D01*
X136044586Y-124937311D01*
X136044586Y-124986467D01*
X136020008Y-125035622D01*
X135995431Y-125060199D01*
X135946276Y-125084777D01*
X135847966Y-125109354D01*
X135725078Y-125109354D01*
X135626768Y-125084777D01*
X135577613Y-125060199D01*
X135553036Y-125035622D01*
X135528458Y-124986467D01*
%TO.C,C23*%
X157562174Y-131222931D02*
X157537597Y-131247508D01*
X157463864Y-131272086D01*
X157414709Y-131272086D01*
X157340976Y-131247508D01*
X157291821Y-131198353D01*
X157267244Y-131149198D01*
X157242666Y-131050888D01*
X157242666Y-130977156D01*
X157267244Y-130878846D01*
X157291821Y-130829691D01*
X157340976Y-130780536D01*
X157414709Y-130755958D01*
X157463864Y-130755958D01*
X157537597Y-130780536D01*
X157562174Y-130805113D01*
X157758794Y-130805113D02*
X157783372Y-130780536D01*
X157832527Y-130755958D01*
X157955415Y-130755958D01*
X158004570Y-130780536D01*
X158029147Y-130805113D01*
X158053725Y-130854268D01*
X158053725Y-130903423D01*
X158029147Y-130977156D01*
X157734217Y-131272086D01*
X158053725Y-131272086D01*
X158225767Y-130755958D02*
X158545275Y-130755958D01*
X158373232Y-130952578D01*
X158446965Y-130952578D01*
X158496120Y-130977156D01*
X158520698Y-131001733D01*
X158545275Y-131050888D01*
X158545275Y-131173776D01*
X158520698Y-131222931D01*
X158496120Y-131247508D01*
X158446965Y-131272086D01*
X158299500Y-131272086D01*
X158250345Y-131247508D01*
X158225767Y-131222931D01*
D17*
%TO.C,C15*%
X176458352Y-115220979D02*
X176423208Y-115256123D01*
X176317776Y-115291267D01*
X176247488Y-115291267D01*
X176142056Y-115256123D01*
X176071769Y-115185835D01*
X176036625Y-115115547D01*
X176001481Y-114974971D01*
X176001481Y-114869540D01*
X176036625Y-114728964D01*
X176071769Y-114658676D01*
X176142056Y-114588389D01*
X176247488Y-114553245D01*
X176317776Y-114553245D01*
X176423208Y-114588389D01*
X176458352Y-114623532D01*
X177161230Y-115291267D02*
X176739503Y-115291267D01*
X176950366Y-115291267D02*
X176950366Y-114553245D01*
X176880078Y-114658676D01*
X176809791Y-114728964D01*
X176739503Y-114764108D01*
X177828964Y-114553245D02*
X177477525Y-114553245D01*
X177442381Y-114904684D01*
X177477525Y-114869540D01*
X177547813Y-114834396D01*
X177723532Y-114834396D01*
X177793820Y-114869540D01*
X177828964Y-114904684D01*
X177864108Y-114974971D01*
X177864108Y-115150691D01*
X177828964Y-115220979D01*
X177793820Y-115256123D01*
X177723532Y-115291267D01*
X177547813Y-115291267D01*
X177477525Y-115256123D01*
X177442381Y-115220979D01*
D13*
%TO.C,C2*%
X131940502Y-83723030D02*
X131974756Y-83757283D01*
X132009010Y-83860044D01*
X132009010Y-83928552D01*
X131974756Y-84031313D01*
X131906249Y-84099820D01*
X131837741Y-84134074D01*
X131700726Y-84168328D01*
X131597965Y-84168328D01*
X131460950Y-84134074D01*
X131392443Y-84099820D01*
X131323936Y-84031313D01*
X131289682Y-83928552D01*
X131289682Y-83860044D01*
X131323936Y-83757283D01*
X131358189Y-83723030D01*
X131358189Y-83449000D02*
X131323936Y-83414746D01*
X131289682Y-83346239D01*
X131289682Y-83174970D01*
X131323936Y-83106463D01*
X131358189Y-83072209D01*
X131426697Y-83037955D01*
X131495204Y-83037955D01*
X131597965Y-83072209D01*
X132009010Y-83483254D01*
X132009010Y-83037955D01*
%TO.C,R11*%
X164394169Y-54846510D02*
X164154393Y-54503973D01*
X163983125Y-54846510D02*
X163983125Y-54127182D01*
X164257155Y-54127182D01*
X164325662Y-54161436D01*
X164359916Y-54195689D01*
X164394169Y-54264197D01*
X164394169Y-54366958D01*
X164359916Y-54435465D01*
X164325662Y-54469719D01*
X164257155Y-54503973D01*
X163983125Y-54503973D01*
X165079244Y-54846510D02*
X164668199Y-54846510D01*
X164873721Y-54846510D02*
X164873721Y-54127182D01*
X164805214Y-54229943D01*
X164736707Y-54298450D01*
X164668199Y-54332704D01*
X165764318Y-54846510D02*
X165353273Y-54846510D01*
X165558796Y-54846510D02*
X165558796Y-54127182D01*
X165490288Y-54229943D01*
X165421781Y-54298450D01*
X165353273Y-54332704D01*
%TO.C,R15*%
X147260679Y-82151510D02*
X147020903Y-81808973D01*
X146849635Y-82151510D02*
X146849635Y-81432182D01*
X147123664Y-81432182D01*
X147192172Y-81466436D01*
X147226426Y-81500689D01*
X147260679Y-81569197D01*
X147260679Y-81671958D01*
X147226426Y-81740465D01*
X147192172Y-81774719D01*
X147123664Y-81808973D01*
X146849635Y-81808973D01*
X147945754Y-82151510D02*
X147534709Y-82151510D01*
X147740231Y-82151510D02*
X147740231Y-81432182D01*
X147671724Y-81534943D01*
X147603216Y-81603450D01*
X147534709Y-81637704D01*
X148596574Y-81432182D02*
X148254037Y-81432182D01*
X148219783Y-81774719D01*
X148254037Y-81740465D01*
X148322544Y-81706212D01*
X148493813Y-81706212D01*
X148562320Y-81740465D01*
X148596574Y-81774719D01*
X148630828Y-81843226D01*
X148630828Y-82014495D01*
X148596574Y-82083002D01*
X148562320Y-82117256D01*
X148493813Y-82151510D01*
X148322544Y-82151510D01*
X148254037Y-82117256D01*
X148219783Y-82083002D01*
%TO.C,R54*%
X140417174Y-141432086D02*
X140245132Y-141186311D01*
X140122244Y-141432086D02*
X140122244Y-140915958D01*
X140318864Y-140915958D01*
X140368019Y-140940536D01*
X140392597Y-140965113D01*
X140417174Y-141014268D01*
X140417174Y-141088001D01*
X140392597Y-141137156D01*
X140368019Y-141161733D01*
X140318864Y-141186311D01*
X140122244Y-141186311D01*
X140884147Y-140915958D02*
X140638372Y-140915958D01*
X140613794Y-141161733D01*
X140638372Y-141137156D01*
X140687527Y-141112578D01*
X140810415Y-141112578D01*
X140859570Y-141137156D01*
X140884147Y-141161733D01*
X140908725Y-141210888D01*
X140908725Y-141333776D01*
X140884147Y-141382931D01*
X140859570Y-141407508D01*
X140810415Y-141432086D01*
X140687527Y-141432086D01*
X140638372Y-141407508D01*
X140613794Y-141382931D01*
X141351120Y-141088001D02*
X141351120Y-141432086D01*
X141228232Y-140891380D02*
X141105345Y-141260043D01*
X141424853Y-141260043D01*
D16*
%TO.C,IC10*%
X164893434Y-136969844D02*
X164052694Y-136969844D01*
X164813364Y-136089069D02*
X164853399Y-136129104D01*
X164893434Y-136249210D01*
X164893434Y-136329280D01*
X164853399Y-136449386D01*
X164773329Y-136529457D01*
X164693258Y-136569492D01*
X164533117Y-136609527D01*
X164413011Y-136609527D01*
X164252870Y-136569492D01*
X164172800Y-136529457D01*
X164092730Y-136449386D01*
X164052694Y-136329280D01*
X164052694Y-136249210D01*
X164092730Y-136129104D01*
X164132765Y-136089069D01*
X164893434Y-135288364D02*
X164893434Y-135768787D01*
X164893434Y-135528576D02*
X164052694Y-135528576D01*
X164172800Y-135608646D01*
X164252870Y-135688717D01*
X164292906Y-135768787D01*
X164052694Y-134767906D02*
X164052694Y-134687836D01*
X164092730Y-134607765D01*
X164132765Y-134567730D01*
X164212835Y-134527695D01*
X164372976Y-134487659D01*
X164573152Y-134487659D01*
X164733293Y-134527695D01*
X164813364Y-134567730D01*
X164853399Y-134607765D01*
X164893434Y-134687836D01*
X164893434Y-134767906D01*
X164853399Y-134847977D01*
X164813364Y-134888012D01*
X164733293Y-134928047D01*
X164573152Y-134968082D01*
X164372976Y-134968082D01*
X164212835Y-134928047D01*
X164132765Y-134888012D01*
X164092730Y-134847977D01*
X164052694Y-134767906D01*
D23*
%TO.C,R19*%
X126136100Y-90018600D02*
X126136100Y-99808600D01*
X117546100Y-99808600D02*
X117546100Y-90018600D01*
X117546100Y-90018600D02*
X126136100Y-90018600D01*
D24*
X122941100Y-96103600D02*
X120741100Y-96103600D01*
X124291100Y-96103600D02*
X119416100Y-96103600D01*
D23*
X126136100Y-99808600D02*
X117546100Y-99808600D01*
D24*
X122941100Y-96103600D02*
G75*
G03*
X120741100Y-96103600I-1100000J625000D01*
G01*
X124381100Y-95478600D02*
G75*
G03*
X124381100Y-95478600I-2540000J0D01*
G01*
D23*
%TO.C,R36*%
X117546100Y-116688600D02*
X126136100Y-116688600D01*
D24*
X124291100Y-122773600D02*
X119416100Y-122773600D01*
D23*
X126136100Y-126478600D02*
X117546100Y-126478600D01*
X126136100Y-116688600D02*
X126136100Y-126478600D01*
X117546100Y-126478600D02*
X117546100Y-116688600D01*
D24*
X122941100Y-122773600D02*
X120741100Y-122773600D01*
X122941100Y-122773600D02*
G75*
G03*
X120741100Y-122773600I-1100000J625000D01*
G01*
X124381100Y-122148600D02*
G75*
G03*
X124381100Y-122148600I-2540000J0D01*
G01*
D12*
%TO.C,Q5*%
X135176100Y-100876100D02*
X135176100Y-100241100D01*
X133906100Y-100876100D02*
X133906100Y-100241100D01*
X134795100Y-101511100D02*
X134795100Y-100241100D01*
D25*
X135176100Y-100876100D02*
X135557100Y-100876100D01*
D12*
X128826100Y-102019100D02*
X128826100Y-103035100D01*
X134287100Y-100241100D02*
X134287100Y-101511100D01*
D25*
X133906100Y-100876100D02*
X133525100Y-100876100D01*
X131112100Y-99606100D02*
X137970100Y-99606100D01*
D12*
X135176100Y-101511100D02*
X135176100Y-100876100D01*
X129080100Y-98463100D02*
X140002100Y-98463100D01*
X128826100Y-98717100D02*
X128826100Y-99733100D01*
X134287100Y-101511100D02*
X134795100Y-101511100D01*
X134795100Y-100241100D02*
X134287100Y-100241100D01*
X140256100Y-98717100D02*
X140256100Y-99733100D01*
D25*
X137970100Y-102146100D02*
X131112100Y-102146100D01*
D12*
X133906100Y-101511100D02*
X133906100Y-100876100D01*
D25*
X137970100Y-102908100D02*
X131112100Y-102908100D01*
X131112100Y-98844100D02*
X137970100Y-98844100D01*
D12*
X129080100Y-103289100D02*
X140002100Y-103289100D01*
X140256100Y-102019100D02*
X140256100Y-103035100D01*
D25*
X138523700Y-99733100D02*
G75*
G03*
X137970100Y-99606100I-553581J-1143002D01*
G01*
X137970100Y-102146100D02*
G75*
G03*
X138523700Y-102019100I19J1270002D01*
G01*
D12*
X140256100Y-98717100D02*
G75*
G03*
X140002100Y-98463100I-254000J0D01*
G01*
X128826100Y-103035100D02*
G75*
G03*
X129080100Y-103289100I254000J0D01*
G01*
X129080100Y-98463100D02*
G75*
G03*
X128826100Y-98717100I0J-254000D01*
G01*
D25*
X129431998Y-102019100D02*
G75*
G03*
X131112100Y-102908100I1680052J1143000D01*
G01*
X130558504Y-102019092D02*
G75*
G03*
X131112100Y-102146100I553596J1142992D01*
G01*
D12*
X140002100Y-103289100D02*
G75*
G03*
X140256100Y-103035100I0J254000D01*
G01*
D25*
X131112100Y-99606091D02*
G75*
G03*
X130558500Y-99733100I0J-1270009D01*
G01*
X139650200Y-99733100D02*
G75*
G03*
X137970100Y-98844099I-1680052J-1142998D01*
G01*
X137970100Y-102908201D02*
G75*
G03*
X139650200Y-102019100I-75J2032102D01*
G01*
X131112100Y-98844101D02*
G75*
G03*
X129432100Y-99733201I120J-2031999D01*
G01*
D12*
%TO.C,IC9*%
X131112100Y-136169400D02*
X139240100Y-136169400D01*
X139240100Y-132257800D02*
X131112100Y-132257800D01*
X130731100Y-135813800D02*
X139621100Y-135813800D01*
X139621100Y-135788400D02*
X139621100Y-132638800D01*
X130731100Y-132638800D02*
X130731100Y-135788400D01*
X131112100Y-132257800D02*
G75*
G03*
X130731100Y-132638800I-1J-380999D01*
G01*
X130731100Y-135788400D02*
G75*
G03*
X131112100Y-136169400I380999J-1D01*
G01*
X139621100Y-132638800D02*
G75*
G03*
X139240100Y-132257800I-381000J0D01*
G01*
X130731100Y-134721600D02*
G75*
G03*
X130731100Y-133705600I0J508000D01*
G01*
X139240100Y-136169400D02*
G75*
G03*
X139621100Y-135788400I0J381000D01*
G01*
D19*
%TO.C,C30*%
X174303600Y-146353600D02*
X169503600Y-146353600D01*
X174303600Y-139853600D02*
X174303600Y-142153600D01*
X167803600Y-141553600D02*
X169503600Y-139853600D01*
X169503600Y-146353600D02*
X167803600Y-144653600D01*
X174303600Y-144053600D02*
X174303600Y-146353600D01*
X169503600Y-139853600D02*
X174303600Y-139853600D01*
X167803600Y-144653600D02*
X167803600Y-144053600D01*
X167803600Y-142153600D02*
X167803600Y-141553600D01*
X174003600Y-142153600D02*
G75*
G03*
X168103600Y-142153600I-2950000J-950001D01*
G01*
X168103600Y-144053600D02*
G75*
G03*
X174003600Y-144053600I2950000J950001D01*
G01*
D12*
%TO.C,IC2*%
X171371100Y-83743800D02*
X171371100Y-84810600D01*
D25*
X171371100Y-86918800D02*
X181531100Y-86918800D01*
D12*
X181531100Y-86893400D02*
X181531100Y-83743800D01*
X171371100Y-84810600D02*
X171371100Y-85826600D01*
X171371100Y-85826600D02*
X171371100Y-86893400D01*
X181150100Y-87274400D02*
G75*
G03*
X181531100Y-86893400I0J381000D01*
G01*
X171371100Y-86893400D02*
G75*
G03*
X171752100Y-87274400I380999J-1D01*
G01*
X171752100Y-83362800D02*
G75*
G03*
X171371100Y-83743800I-1J-380999D01*
G01*
X181531100Y-83743800D02*
G75*
G03*
X181150100Y-83362800I-381000J0D01*
G01*
X171371100Y-85826600D02*
G75*
G03*
X171371100Y-84810600I0J508000D01*
G01*
D23*
%TO.C,J4*%
X147596700Y-156489400D02*
X147596700Y-147497800D01*
X147596700Y-147497800D02*
X158086900Y-147497800D01*
X158086900Y-147497800D02*
X158086900Y-156489400D01*
X158086900Y-156489400D02*
X147596700Y-156489400D01*
%TO.C,J3*%
X145386900Y-147497800D02*
X145386900Y-156489400D01*
X145386900Y-156489400D02*
X134896700Y-156489400D01*
X134896700Y-156489400D02*
X134896700Y-147497800D01*
X134896700Y-147497800D02*
X145386900Y-147497800D01*
%TO.C,SW2*%
X116000000Y-108491300D02*
X110000000Y-108491300D01*
X110000000Y-101891300D02*
X116000000Y-101891300D01*
X110000000Y-108491300D02*
X110000000Y-101891300D01*
X116000000Y-101891300D02*
X116000000Y-108491300D01*
X114503300Y-105191300D02*
G75*
G03*
X114503300Y-105191300I-1503300J0D01*
G01*
X114000000Y-105191300D02*
G75*
G03*
X114000000Y-105191300I-1000000J0D01*
G01*
%TO.C,J5*%
X170786900Y-156489400D02*
X160296700Y-156489400D01*
X170786900Y-147497800D02*
X170786900Y-156489400D01*
X160296700Y-156489400D02*
X160296700Y-147497800D01*
X160296700Y-147497800D02*
X170786900Y-147497800D01*
D24*
%TO.C,IC5*%
X167331100Y-100646100D02*
X167331100Y-103646100D01*
X170331100Y-103646100D02*
X170331100Y-100646100D01*
X167971300Y-103136700D02*
G75*
G03*
X167971300Y-103136700I-143600J0D01*
G01*
D23*
%TO.C,J1*%
X119986900Y-147497800D02*
X119986900Y-156489400D01*
X109496700Y-147497800D02*
X119986900Y-147497800D01*
X119986900Y-156489400D02*
X109496700Y-156489400D01*
X109496700Y-156489400D02*
X109496700Y-147497800D01*
%TO.C,J2*%
X132686900Y-156489400D02*
X122196700Y-156489400D01*
X122196700Y-156489400D02*
X122196700Y-147497800D01*
X122196700Y-147497800D02*
X132686900Y-147497800D01*
X132686900Y-147497800D02*
X132686900Y-156489400D01*
D19*
%TO.C,C25*%
X167803600Y-134851100D02*
X167803600Y-134251100D01*
X174303600Y-136751100D02*
X174303600Y-139051100D01*
X174303600Y-132551100D02*
X174303600Y-134851100D01*
X169503600Y-139051100D02*
X167803600Y-137351100D01*
X167803600Y-137351100D02*
X167803600Y-136751100D01*
X167803600Y-134251100D02*
X169503600Y-132551100D01*
X169503600Y-132551100D02*
X174303600Y-132551100D01*
X174303600Y-139051100D02*
X169503600Y-139051100D01*
X174003600Y-134851100D02*
G75*
G03*
X168103600Y-134851100I-2950000J-950001D01*
G01*
X168103600Y-136751100D02*
G75*
G03*
X174003600Y-136751100I2950000J950001D01*
G01*
D26*
%TO.C,UC1*%
X132711100Y-87023600D02*
X138911100Y-87023600D01*
X138911100Y-93773600D02*
X132711100Y-93773600D01*
X132436100Y-87298600D02*
X132711100Y-87023600D01*
X139186100Y-87298600D02*
X139186100Y-93498600D01*
X139186100Y-93498600D02*
X138911100Y-93773600D01*
X138911100Y-87023600D02*
X139186100Y-87298600D01*
X132711100Y-93773600D02*
X132436100Y-93498600D01*
X132436100Y-93498600D02*
X132436100Y-87298600D01*
X134411100Y-92398600D02*
G75*
G03*
X134411100Y-92398600I-600000J0D01*
G01*
D12*
%TO.C,IC1*%
X158671100Y-84810600D02*
X158671100Y-85826600D01*
X158671100Y-83743800D02*
X158671100Y-84810600D01*
X168831100Y-86893400D02*
X168831100Y-83743800D01*
D25*
X158671100Y-86918800D02*
X168831100Y-86918800D01*
D12*
X158671100Y-85826600D02*
X158671100Y-86893400D01*
X159052100Y-83362800D02*
G75*
G03*
X158671100Y-83743800I-1J-380999D01*
G01*
X158671100Y-86893400D02*
G75*
G03*
X159052100Y-87274400I380999J-1D01*
G01*
X168831100Y-83743800D02*
G75*
G03*
X168450100Y-83362800I-381000J0D01*
G01*
X168450100Y-87274400D02*
G75*
G03*
X168831100Y-86893400I0J381000D01*
G01*
X158671100Y-85826600D02*
G75*
G03*
X158671100Y-84810600I0J508000D01*
G01*
D23*
%TO.C,SW1*%
X180111100Y-61573600D02*
X170251100Y-61573600D01*
X170251100Y-74773600D02*
X180111100Y-74773600D01*
X170251100Y-61573600D02*
X170251100Y-74773600D01*
X180111100Y-74773600D02*
X180111100Y-61573600D01*
X172581100Y-66673600D02*
X177781100Y-66673600D01*
X178181100Y-68173600D02*
G75*
G03*
X178181100Y-68173600I-3000000J0D01*
G01*
%TO.C,R20*%
X144216100Y-90018600D02*
X152806100Y-90018600D01*
X152806100Y-90018600D02*
X152806100Y-99808600D01*
D24*
X150961100Y-96103600D02*
X146086100Y-96103600D01*
D23*
X144216100Y-99808600D02*
X144216100Y-90018600D01*
X152806100Y-99808600D02*
X144216100Y-99808600D01*
D24*
X149611100Y-96103600D02*
X147411100Y-96103600D01*
X149611100Y-96103600D02*
G75*
G03*
X147411100Y-96103600I-1100000J625000D01*
G01*
X151051100Y-95478600D02*
G75*
G03*
X151051100Y-95478600I-2540000J0D01*
G01*
D27*
%TO.C,J7*%
X115642929Y-142900000D02*
X109642929Y-142900000D01*
X123600000Y-139200000D02*
X123600000Y-138630000D01*
X118400000Y-139200000D02*
X118400000Y-138630000D01*
X109642929Y-144680000D02*
X115642929Y-144680000D01*
X118400000Y-141740000D02*
X118400000Y-140720000D01*
X115642929Y-144900000D02*
X109642929Y-144900000D01*
X115642929Y-145260000D02*
X109642929Y-145260000D01*
X118302929Y-141250000D02*
X115642929Y-141250000D01*
X118700000Y-140360000D02*
X118302929Y-140360000D01*
X109642929Y-142900000D02*
X109642929Y-142140000D01*
X118302929Y-146390000D02*
X118302929Y-138650000D01*
X115642929Y-145020000D02*
X109642929Y-145020000D01*
X115642929Y-140360000D02*
X109642929Y-140360000D01*
X115642929Y-145140000D02*
X109642929Y-145140000D01*
X123552929Y-146330000D02*
X122282929Y-146330000D01*
X121172929Y-144680000D02*
X120785858Y-144680000D01*
X118400000Y-146370000D02*
X118400000Y-145800000D01*
X109642929Y-139600000D02*
X115642929Y-139600000D01*
X121240000Y-142140000D02*
X120785858Y-142140000D01*
X121172929Y-145440000D02*
X120785858Y-145440000D01*
X118700000Y-142140000D02*
X118302929Y-142140000D01*
X121240000Y-139600000D02*
X120785858Y-139600000D01*
X118302929Y-138650000D02*
X115642929Y-138650000D01*
X118700000Y-144680000D02*
X118302929Y-144680000D01*
X115642929Y-144780000D02*
X109642929Y-144780000D01*
X118700000Y-145440000D02*
X118302929Y-145440000D01*
X123600000Y-138630000D02*
X118400000Y-138630000D01*
X121240000Y-140360000D02*
X120785858Y-140360000D01*
X118700000Y-139600000D02*
X118302929Y-139600000D01*
X123600000Y-144280000D02*
X123600000Y-143260000D01*
X109642929Y-140360000D02*
X109642929Y-139600000D01*
X118302929Y-143790000D02*
X115642929Y-143790000D01*
X115642929Y-145380000D02*
X109642929Y-145380000D01*
X123600000Y-146370000D02*
X118400000Y-146370000D01*
X123600000Y-141740000D02*
X123600000Y-140720000D01*
X109642929Y-145440000D02*
X109642929Y-144680000D01*
X123600000Y-146370000D02*
X123600000Y-145800000D01*
X115642929Y-138650000D02*
X115642929Y-146390000D01*
X121240000Y-142900000D02*
X120785858Y-142900000D01*
X109642929Y-142140000D02*
X115642929Y-142140000D01*
X125040000Y-145800000D02*
X123600000Y-145800000D01*
X118400000Y-144280000D02*
X118400000Y-143260000D01*
X115642929Y-145440000D02*
X109642929Y-145440000D01*
X118700000Y-142900000D02*
X118302929Y-142900000D01*
X115642929Y-146390000D02*
X118302929Y-146390000D01*
X123552929Y-145060000D02*
X123552929Y-146330000D01*
D24*
%TO.C,DISP1*%
X112908600Y-77573600D02*
X112908600Y-58773600D01*
X137728600Y-58773600D02*
X137728600Y-77573600D01*
X137728600Y-77573600D02*
X112908600Y-77573600D01*
X112908600Y-58773600D02*
X137728600Y-58773600D01*
D28*
X124401900Y-74596700D02*
G75*
G03*
X124401900Y-74596700I-420000J0D01*
G01*
D19*
%TO.C,C19*%
X180677300Y-128399800D02*
X180677300Y-124549800D01*
X185877300Y-128399800D02*
X184227300Y-128399800D01*
X182327300Y-128399800D02*
X180677300Y-128399800D01*
X180677300Y-124549800D02*
X182027300Y-123199800D01*
X185877300Y-124549800D02*
X185877300Y-128399800D01*
X182027300Y-123199800D02*
X182327300Y-123199800D01*
X184527300Y-123199800D02*
X185877300Y-124549800D01*
X184227300Y-123199800D02*
X184527300Y-123199800D01*
X182427300Y-123499800D02*
G75*
G03*
X182427300Y-128099800I850000J-2300000D01*
G01*
X184127300Y-128099800D02*
G75*
G03*
X184127300Y-123499800I-850000J2300000D01*
G01*
D23*
%TO.C,R38*%
X179476100Y-116688600D02*
X179476100Y-126478600D01*
X179476100Y-126478600D02*
X170886100Y-126478600D01*
X170886100Y-116688600D02*
X179476100Y-116688600D01*
D24*
X177631100Y-122773600D02*
X172756100Y-122773600D01*
D23*
X170886100Y-126478600D02*
X170886100Y-116688600D01*
D24*
X176281100Y-122773600D02*
X174081100Y-122773600D01*
X176281100Y-122773600D02*
G75*
G03*
X174081100Y-122773600I-1100000J625000D01*
G01*
X177721100Y-122148600D02*
G75*
G03*
X177721100Y-122148600I-2540000J0D01*
G01*
D23*
%TO.C,R37*%
X152806100Y-126478600D02*
X144216100Y-126478600D01*
X144216100Y-116688600D02*
X152806100Y-116688600D01*
X152806100Y-116688600D02*
X152806100Y-126478600D01*
X144216100Y-126478600D02*
X144216100Y-116688600D01*
D24*
X149611100Y-122773600D02*
X147411100Y-122773600D01*
X150961100Y-122773600D02*
X146086100Y-122773600D01*
X149611100Y-122773600D02*
G75*
G03*
X147411100Y-122773600I-1100000J625000D01*
G01*
X151051100Y-122148600D02*
G75*
G03*
X151051100Y-122148600I-2540000J0D01*
G01*
%TO.C,IC6*%
X186078100Y-113195100D02*
X179524100Y-113195100D01*
X186077700Y-107200700D02*
X186078100Y-113195100D01*
X179524100Y-113195100D02*
X179524500Y-107200700D01*
G36*
X183232900Y-114058700D02*
G01*
X182369300Y-114058700D01*
X182369300Y-113296700D01*
X183232900Y-113296700D01*
X183232900Y-114058700D01*
G37*
D12*
%TO.C,IC7*%
X165021100Y-116420900D02*
X165021100Y-113271300D01*
X156512100Y-116801900D02*
X164640100Y-116801900D01*
X156131100Y-116446300D02*
X165021100Y-116446300D01*
X164640100Y-112890300D02*
X156512100Y-112890300D01*
X156131100Y-113271300D02*
X156131100Y-116420900D01*
X165021100Y-113271300D02*
G75*
G03*
X164640100Y-112890300I-381000J0D01*
G01*
X156512100Y-112890300D02*
G75*
G03*
X156131100Y-113271300I-1J-380999D01*
G01*
X156131100Y-115354100D02*
G75*
G03*
X156131100Y-114338100I0J508000D01*
G01*
X156131100Y-116420900D02*
G75*
G03*
X156512100Y-116801900I380999J-1D01*
G01*
X164640100Y-116801900D02*
G75*
G03*
X165021100Y-116420900I0J381000D01*
G01*
D23*
%TO.C,R21*%
X179476100Y-99808600D02*
X170886100Y-99808600D01*
D24*
X176281100Y-96103600D02*
X174081100Y-96103600D01*
D23*
X170886100Y-99808600D02*
X170886100Y-90018600D01*
X170886100Y-90018600D02*
X179476100Y-90018600D01*
X179476100Y-90018600D02*
X179476100Y-99808600D01*
D24*
X177631100Y-96103600D02*
X172756100Y-96103600D01*
X176281100Y-96103600D02*
G75*
G03*
X174081100Y-96103600I-1100000J625000D01*
G01*
X177721100Y-95478600D02*
G75*
G03*
X177721100Y-95478600I-2540000J0D01*
G01*
D23*
%TO.C,SW3*%
X116000000Y-118968800D02*
X110000000Y-118968800D01*
X110000000Y-112368800D02*
X116000000Y-112368800D01*
X116000000Y-112368800D02*
X116000000Y-118968800D01*
X110000000Y-118968800D02*
X110000000Y-112368800D01*
X114503300Y-115668800D02*
G75*
G03*
X114503300Y-115668800I-1503300J0D01*
G01*
X114000000Y-115668800D02*
G75*
G03*
X114000000Y-115668800I-1000000J0D01*
G01*
%TO.C,J6*%
X187525500Y-147497800D02*
X187525500Y-156489400D01*
X177035300Y-147497800D02*
X187525500Y-147497800D01*
X187525500Y-156489400D02*
X177035300Y-156489400D01*
X177035300Y-156489400D02*
X177035300Y-147497800D01*
D19*
%TO.C,C24*%
X154591100Y-133383600D02*
X155691100Y-134483600D01*
X151491100Y-134483600D02*
X152591100Y-133383600D01*
X155691100Y-137583600D02*
X154441100Y-137583600D01*
X151491100Y-137583600D02*
X151491100Y-134483600D01*
X152741100Y-137583600D02*
X151491100Y-137583600D01*
X155691100Y-134483600D02*
X155691100Y-137583600D01*
X154441100Y-137233600D02*
G75*
G03*
X154441100Y-133733600I-849999J1750000D01*
G01*
X152741100Y-133733600D02*
G75*
G03*
X152741100Y-137233600I849999J-1750000D01*
G01*
D24*
%TO.C,DISP2*%
X138308600Y-58773600D02*
X163128600Y-58773600D01*
X163128600Y-58773600D02*
X163128600Y-77573600D01*
X138308600Y-77573600D02*
X138308600Y-58773600D01*
X163128600Y-77573600D02*
X138308600Y-77573600D01*
D28*
X149801900Y-74596700D02*
G75*
G03*
X149801900Y-74596700I-420000J0D01*
G01*
D19*
%TO.C,C15*%
X177304800Y-113794900D02*
X175654800Y-113794900D01*
X173754800Y-113794900D02*
X172104800Y-113794900D01*
X175954800Y-108594900D02*
X177304800Y-109944900D01*
X175654800Y-108594900D02*
X175954800Y-108594900D01*
X172104800Y-113794900D02*
X172104800Y-109944900D01*
X177304800Y-109944900D02*
X177304800Y-113794900D01*
X172104800Y-109944900D02*
X173454800Y-108594900D01*
X173454800Y-108594900D02*
X173754800Y-108594900D01*
X173854800Y-108894900D02*
G75*
G03*
X173854800Y-113494900I850000J-2300000D01*
G01*
X175554800Y-113494900D02*
G75*
G03*
X175554800Y-108894900I-850000J2300000D01*
G01*
%TD*%
%LPC*%
D29*
%TO.C,C16*%
X158251100Y-119926100D03*
X156551100Y-119926100D03*
%TD*%
D30*
%TO.C,R5*%
X144383600Y-55258600D03*
X144383600Y-56958600D03*
%TD*%
D31*
%TO.C,R41*%
X156551100Y-124371100D03*
X158251100Y-124371100D03*
%TD*%
D32*
%TO.C,R19*%
X124341100Y-102478600D03*
X121841100Y-102478600D03*
X119341100Y-102478600D03*
D33*
X126541100Y-95478600D03*
X117141100Y-95478600D03*
%TD*%
D32*
%TO.C,R36*%
X124341100Y-129148600D03*
X121841100Y-129148600D03*
X119341100Y-129148600D03*
D33*
X126541100Y-122148600D03*
X117141100Y-122148600D03*
%TD*%
D30*
%TO.C,R3*%
X137398600Y-55258600D03*
X137398600Y-56958600D03*
%TD*%
D31*
%TO.C,R32*%
X153376100Y-116433600D03*
X155076100Y-116433600D03*
%TD*%
D34*
%TO.C,C11*%
X168513600Y-106376100D03*
X168513600Y-108076100D03*
%TD*%
D35*
%TO.C,Q2*%
X127068600Y-57058600D03*
X124868600Y-56108600D03*
X127068600Y-55158600D03*
%TD*%
D36*
%TO.C,R18*%
X155813600Y-81088600D03*
X155813600Y-79388600D03*
%TD*%
D37*
%TO.C,C22*%
X164488600Y-131673600D03*
X166188600Y-131673600D03*
%TD*%
D38*
%TO.C,Q5*%
X139367100Y-100876100D03*
X129715100Y-100876100D03*
%TD*%
D36*
%TO.C,R13*%
X143113600Y-81088600D03*
X143113600Y-79388600D03*
%TD*%
D39*
%TO.C,IC9*%
X131366100Y-137287000D03*
X132636100Y-137287000D03*
X133906100Y-137287000D03*
X135176100Y-137287000D03*
X136446100Y-137287000D03*
X137716100Y-137287000D03*
X138986100Y-137287000D03*
X138986100Y-131140200D03*
X137716100Y-131140200D03*
X136446100Y-131140200D03*
X135176100Y-131140200D03*
X133906100Y-131140200D03*
X132636100Y-131140200D03*
X131366100Y-131140200D03*
%TD*%
D40*
%TO.C,R51*%
X125866100Y-136436100D03*
X124166100Y-136436100D03*
%TD*%
D41*
%TO.C,C6*%
X153908600Y-100456100D03*
X153908600Y-98756100D03*
%TD*%
D42*
%TO.C,IC3*%
X181533600Y-98801100D03*
X183433600Y-98801100D03*
X182483600Y-96601100D03*
%TD*%
D36*
%TO.C,R17*%
X153273600Y-81088600D03*
X153273600Y-79388600D03*
%TD*%
D34*
%TO.C,C4*%
X131366100Y-94628600D03*
X131366100Y-96328600D03*
%TD*%
%TO.C,C28*%
X135176100Y-139713600D03*
X135176100Y-141413600D03*
%TD*%
D43*
%TO.C,C30*%
X168653600Y-143103600D03*
X173453600Y-143103600D03*
%TD*%
D44*
%TO.C,Q6*%
X132003600Y-111183600D03*
X132953600Y-108983600D03*
X133903600Y-111183600D03*
%TD*%
D41*
%TO.C,C7*%
X155178600Y-100456100D03*
X155178600Y-98756100D03*
%TD*%
D39*
%TO.C,IC2*%
X172006100Y-88392000D03*
X173276100Y-88392000D03*
X174546100Y-88392000D03*
X175816100Y-88392000D03*
X177086100Y-88392000D03*
X178356100Y-88392000D03*
X179626100Y-88392000D03*
X180896100Y-88392000D03*
X180896100Y-82245200D03*
X179626100Y-82245200D03*
X178356100Y-82245200D03*
X177086100Y-82245200D03*
X175816100Y-82245200D03*
X174546100Y-82245200D03*
X173276100Y-82245200D03*
X172006100Y-82245200D03*
%TD*%
D36*
%TO.C,R55*%
X159941100Y-143001100D03*
X159941100Y-141301100D03*
%TD*%
D42*
%TO.C,IC8*%
X122478600Y-133408600D03*
X124378600Y-133408600D03*
X123428600Y-131208600D03*
%TD*%
D30*
%TO.C,R27*%
X130413600Y-109233600D03*
X130413600Y-110933600D03*
%TD*%
D36*
%TO.C,R23*%
X181848600Y-102043600D03*
X181848600Y-100343600D03*
%TD*%
%TO.C,R22*%
X113635000Y-100961300D03*
X113635000Y-99261300D03*
%TD*%
D41*
%TO.C,C1*%
X170418600Y-82358600D03*
X170418600Y-80658600D03*
%TD*%
D30*
%TO.C,R1*%
X120888600Y-55258600D03*
X120888600Y-56958600D03*
%TD*%
D40*
%TO.C,R12*%
X166823600Y-75476100D03*
X165123600Y-75476100D03*
%TD*%
D45*
%TO.C,J4*%
X153591100Y-151993600D03*
D46*
X159306100Y-151993600D03*
X156766100Y-151993600D03*
X149146100Y-151993600D03*
%TD*%
D31*
%TO.C,R53*%
X137501100Y-139293600D03*
X139201100Y-139293600D03*
%TD*%
D45*
%TO.C,J3*%
X140891100Y-151993600D03*
D46*
X146606100Y-151993600D03*
X144066100Y-151993600D03*
X136446100Y-151993600D03*
%TD*%
D47*
%TO.C,SW2*%
X111000000Y-101791300D03*
X111000000Y-108591300D03*
X115000000Y-101791300D03*
X115000000Y-108591300D03*
%TD*%
D48*
%TO.C,IC4*%
X156766100Y-104746100D03*
X158036100Y-104746100D03*
X159306100Y-104746100D03*
X160576100Y-104746100D03*
X161846100Y-104746100D03*
X163116100Y-104746100D03*
X164386100Y-104746100D03*
X164386100Y-99546100D03*
X163116100Y-99546100D03*
X161846100Y-99546100D03*
X160576100Y-99546100D03*
X159306100Y-99546100D03*
X158036100Y-99546100D03*
X156766100Y-99546100D03*
%TD*%
D35*
%TO.C,Q3*%
X135323600Y-57058600D03*
X133123600Y-56108600D03*
X135323600Y-55158600D03*
%TD*%
D30*
%TO.C,R50*%
X158036100Y-137173600D03*
X158036100Y-138873600D03*
%TD*%
D45*
%TO.C,J5*%
X166291100Y-151993600D03*
D46*
X172006100Y-151993600D03*
X169466100Y-151993600D03*
X161846100Y-151993600D03*
%TD*%
D31*
%TO.C,R42*%
X162901100Y-124371100D03*
X164601100Y-124371100D03*
%TD*%
D30*
%TO.C,R7*%
X149463600Y-55258600D03*
X149463600Y-56958600D03*
%TD*%
D49*
%TO.C,IC5*%
X167856100Y-104546100D03*
X168506100Y-104546100D03*
X169156100Y-104546100D03*
X169806100Y-104546100D03*
X169806100Y-99746100D03*
X169156100Y-99746100D03*
X168506100Y-99746100D03*
X167856100Y-99746100D03*
%TD*%
D31*
%TO.C,R28*%
X153376100Y-111353600D03*
X155076100Y-111353600D03*
%TD*%
D45*
%TO.C,J1*%
X115491100Y-151993600D03*
D46*
X121206100Y-151993600D03*
X118666100Y-151993600D03*
X111046100Y-151993600D03*
%TD*%
D37*
%TO.C,C18*%
X159726100Y-119926100D03*
X161426100Y-119926100D03*
%TD*%
D36*
%TO.C,R14*%
X145653600Y-81088600D03*
X145653600Y-79388600D03*
%TD*%
D37*
%TO.C,C3*%
X141628600Y-87541100D03*
X143328600Y-87541100D03*
%TD*%
D45*
%TO.C,J2*%
X128191100Y-151993600D03*
D46*
X133906100Y-151993600D03*
X131366100Y-151993600D03*
X123746100Y-151993600D03*
%TD*%
D43*
%TO.C,C25*%
X168653600Y-135801100D03*
X173453600Y-135801100D03*
%TD*%
D34*
%TO.C,C8*%
X183436100Y-100343600D03*
X183436100Y-102043600D03*
%TD*%
D50*
%TO.C,UC1*%
X133061100Y-94648600D03*
X133561100Y-94648600D03*
X134061100Y-94648600D03*
X134561100Y-94648600D03*
X135061100Y-94648600D03*
X135561100Y-94648600D03*
X136061100Y-94648600D03*
X136561100Y-94648600D03*
X137061100Y-94648600D03*
X137561100Y-94648600D03*
X138061100Y-94648600D03*
X138561100Y-94648600D03*
D51*
X140061100Y-93148600D03*
X140061100Y-92648600D03*
X140061100Y-92148600D03*
X140061100Y-91648600D03*
X140061100Y-91148600D03*
X140061100Y-90648600D03*
X140061100Y-90148600D03*
X140061100Y-89648600D03*
X140061100Y-89148600D03*
X140061100Y-88648600D03*
X140061100Y-88148600D03*
X140061100Y-87648600D03*
D50*
X138561100Y-86148600D03*
X138061100Y-86148600D03*
X137561100Y-86148600D03*
X137061100Y-86148600D03*
X136561100Y-86148600D03*
X136061100Y-86148600D03*
X135561100Y-86148600D03*
X135061100Y-86148600D03*
X134561100Y-86148600D03*
X134061100Y-86148600D03*
X133561100Y-86148600D03*
X133061100Y-86148600D03*
D51*
X131561100Y-87648600D03*
X131561100Y-88148600D03*
X131561100Y-88648600D03*
X131561100Y-89148600D03*
X131561100Y-89648600D03*
X131561100Y-90148600D03*
X131561100Y-90648600D03*
X131561100Y-91148600D03*
X131561100Y-91648600D03*
X131561100Y-92148600D03*
X131561100Y-92648600D03*
X131561100Y-93148600D03*
%TD*%
D29*
%TO.C,C26*%
X124278600Y-134848600D03*
X122578600Y-134848600D03*
%TD*%
D37*
%TO.C,C17*%
X162901100Y-119926100D03*
X164601100Y-119926100D03*
%TD*%
D30*
%TO.C,R2*%
X129143600Y-55258600D03*
X129143600Y-56958600D03*
%TD*%
D29*
%TO.C,C13*%
X158251100Y-109766100D03*
X156551100Y-109766100D03*
%TD*%
D36*
%TO.C,R16*%
X150733600Y-81088600D03*
X150733600Y-79388600D03*
%TD*%
D41*
%TO.C,C27*%
X165338600Y-140461100D03*
X165338600Y-138761100D03*
%TD*%
D31*
%TO.C,R35*%
X162901100Y-121196100D03*
X164601100Y-121196100D03*
%TD*%
D40*
%TO.C,R34*%
X158251100Y-121196100D03*
X156551100Y-121196100D03*
%TD*%
D30*
%TO.C,R8*%
X152003600Y-55258600D03*
X152003600Y-56958600D03*
%TD*%
D34*
%TO.C,C29*%
X161528600Y-141301100D03*
X161528600Y-143001100D03*
%TD*%
D39*
%TO.C,IC1*%
X159306100Y-88392000D03*
X160576100Y-88392000D03*
X161846100Y-88392000D03*
X163116100Y-88392000D03*
X164386100Y-88392000D03*
X165656100Y-88392000D03*
X166926100Y-88392000D03*
X168196100Y-88392000D03*
X168196100Y-82245200D03*
X166926100Y-82245200D03*
X165656100Y-82245200D03*
X164386100Y-82245200D03*
X163116100Y-82245200D03*
X161846100Y-82245200D03*
X160576100Y-82245200D03*
X159306100Y-82245200D03*
%TD*%
D30*
%TO.C,R6*%
X146923600Y-55258600D03*
X146923600Y-56958600D03*
%TD*%
D35*
%TO.C,Q4*%
X162311100Y-57058600D03*
X160111100Y-56108600D03*
X162311100Y-55158600D03*
%TD*%
D40*
%TO.C,R47*%
X143646100Y-132308600D03*
X141946100Y-132308600D03*
%TD*%
D52*
%TO.C,SW1*%
X172681100Y-75673600D03*
X177681100Y-75673600D03*
X175181100Y-75673600D03*
X172681100Y-61173600D03*
X177681100Y-61173600D03*
D53*
X170281100Y-68173600D03*
X180081100Y-68173600D03*
%TD*%
D32*
%TO.C,R20*%
X151011100Y-102478600D03*
X148511100Y-102478600D03*
X146011100Y-102478600D03*
D33*
X153211100Y-95478600D03*
X143811100Y-95478600D03*
%TD*%
D54*
%TO.C,J7*%
X123525000Y-145040000D03*
X118475000Y-145040000D03*
X123525000Y-142500000D03*
X118475000Y-142500000D03*
X123525000Y-139960000D03*
X118475000Y-139960000D03*
%TD*%
D55*
%TO.C,DISP1*%
X115173600Y-75793600D03*
X117713600Y-75793600D03*
X120253600Y-75793600D03*
X122793600Y-75793600D03*
X125333600Y-75793600D03*
X127873600Y-75793600D03*
X130413600Y-75793600D03*
X132953600Y-75793600D03*
X135493600Y-75793600D03*
X135493600Y-60553600D03*
X132953600Y-60553600D03*
X130413600Y-60553600D03*
X127873600Y-60553600D03*
X125333600Y-60553600D03*
X122793600Y-60553600D03*
X120253600Y-60553600D03*
X117713600Y-60553600D03*
X115173600Y-60553600D03*
%TD*%
D36*
%TO.C,R46*%
X162798600Y-131571100D03*
X162798600Y-129871100D03*
%TD*%
D37*
%TO.C,C5*%
X138453600Y-96748600D03*
X140153600Y-96748600D03*
%TD*%
D36*
%TO.C,R56*%
X163116100Y-143001100D03*
X163116100Y-141301100D03*
%TD*%
D56*
%TO.C,C19*%
X183277300Y-123749800D03*
X183277300Y-127849800D03*
%TD*%
D31*
%TO.C,R44*%
X137501100Y-129133600D03*
X139201100Y-129133600D03*
%TD*%
D40*
%TO.C,R52*%
X132851100Y-139293600D03*
X131151100Y-139293600D03*
%TD*%
%TO.C,R25*%
X158251100Y-108496100D03*
X156551100Y-108496100D03*
%TD*%
D31*
%TO.C,R24*%
X173378600Y-104368600D03*
X175078600Y-104368600D03*
%TD*%
%TO.C,R30*%
X153376100Y-112941100D03*
X155076100Y-112941100D03*
%TD*%
D40*
%TO.C,R43*%
X132851100Y-129133600D03*
X131151100Y-129133600D03*
%TD*%
D37*
%TO.C,C14*%
X162901100Y-109766100D03*
X164601100Y-109766100D03*
%TD*%
D32*
%TO.C,R38*%
X177681100Y-129148600D03*
X175181100Y-129148600D03*
X172681100Y-129148600D03*
D33*
X179881100Y-122148600D03*
X170481100Y-122148600D03*
%TD*%
D57*
%TO.C,R49*%
X176768600Y-135014100D03*
X176768600Y-137858100D03*
%TD*%
D32*
%TO.C,R37*%
X151011100Y-129148600D03*
X148511100Y-129148600D03*
X146011100Y-129148600D03*
D33*
X153211100Y-122148600D03*
X143811100Y-122148600D03*
%TD*%
D58*
%TO.C,IC6*%
X180521100Y-115836100D03*
X185081100Y-115836100D03*
D59*
X182801100Y-108536100D03*
%TD*%
D39*
%TO.C,IC7*%
X156766100Y-117919500D03*
X158036100Y-117919500D03*
X159306100Y-117919500D03*
X160576100Y-117919500D03*
X161846100Y-117919500D03*
X163116100Y-117919500D03*
X164386100Y-117919500D03*
X164386100Y-111772700D03*
X163116100Y-111772700D03*
X161846100Y-111772700D03*
X160576100Y-111772700D03*
X159306100Y-111772700D03*
X158036100Y-111772700D03*
X156766100Y-111772700D03*
%TD*%
D31*
%TO.C,R45*%
X164488600Y-129768600D03*
X166188600Y-129768600D03*
%TD*%
D60*
%TO.C,D2*%
X179626100Y-140251100D03*
X179626100Y-144051100D03*
%TD*%
D32*
%TO.C,R21*%
X177681100Y-102478600D03*
X175181100Y-102478600D03*
X172681100Y-102478600D03*
D33*
X179881100Y-95478600D03*
X170481100Y-95478600D03*
%TD*%
D31*
%TO.C,R31*%
X153376100Y-114846100D03*
X155076100Y-114846100D03*
%TD*%
D47*
%TO.C,SW3*%
X111000000Y-112268800D03*
X111000000Y-119068800D03*
X115000000Y-112268800D03*
X115000000Y-119068800D03*
%TD*%
D30*
%TO.C,R10*%
X158036100Y-55258600D03*
X158036100Y-56958600D03*
%TD*%
D34*
%TO.C,C12*%
X170101100Y-106376100D03*
X170101100Y-108076100D03*
%TD*%
D31*
%TO.C,R26*%
X162901100Y-108496100D03*
X164601100Y-108496100D03*
%TD*%
D45*
%TO.C,J6*%
X181531100Y-151993600D03*
D61*
X175816100Y-151993600D03*
X178356100Y-151993600D03*
X185976100Y-151993600D03*
%TD*%
D62*
%TO.C,C24*%
X153591100Y-133883600D03*
X153591100Y-137083600D03*
%TD*%
D36*
%TO.C,R33*%
X113000000Y-121598800D03*
X113000000Y-119898800D03*
%TD*%
D34*
%TO.C,C21*%
X161211100Y-129871100D03*
X161211100Y-131571100D03*
%TD*%
D30*
%TO.C,R4*%
X141843600Y-55258600D03*
X141843600Y-56958600D03*
%TD*%
D36*
%TO.C,R48*%
X148511100Y-136651100D03*
X148511100Y-134951100D03*
%TD*%
D31*
%TO.C,R40*%
X162901100Y-122783600D03*
X164601100Y-122783600D03*
%TD*%
D60*
%TO.C,D1*%
X179626100Y-133901100D03*
X179626100Y-137701100D03*
%TD*%
D30*
%TO.C,R9*%
X154543600Y-55258600D03*
X154543600Y-56958600D03*
%TD*%
D55*
%TO.C,DISP2*%
X140573600Y-75793600D03*
X143113600Y-75793600D03*
X145653600Y-75793600D03*
X148193600Y-75793600D03*
X150733600Y-75793600D03*
X153273600Y-75793600D03*
X155813600Y-75793600D03*
X158353600Y-75793600D03*
X160893600Y-75793600D03*
X160893600Y-60553600D03*
X158353600Y-60553600D03*
X155813600Y-60553600D03*
X153273600Y-60553600D03*
X150733600Y-60553600D03*
X148193600Y-60553600D03*
X145653600Y-60553600D03*
X143113600Y-60553600D03*
X140573600Y-60553600D03*
%TD*%
D37*
%TO.C,C10*%
X137501100Y-104686100D03*
X139201100Y-104686100D03*
%TD*%
D29*
%TO.C,C9*%
X131581100Y-104686100D03*
X129881100Y-104686100D03*
%TD*%
D35*
%TO.C,Q1*%
X118813600Y-57058600D03*
X116613600Y-56108600D03*
X118813600Y-55158600D03*
%TD*%
D29*
%TO.C,C31*%
X121738600Y-104686100D03*
X120038600Y-104686100D03*
%TD*%
D31*
%TO.C,R39*%
X156551100Y-122783600D03*
X158251100Y-122783600D03*
%TD*%
%TO.C,R29*%
X128928600Y-112306100D03*
X130628600Y-112306100D03*
%TD*%
D34*
%TO.C,C20*%
X135493600Y-127013600D03*
X135493600Y-128713600D03*
%TD*%
D41*
%TO.C,C23*%
X158036100Y-133476100D03*
X158036100Y-131776100D03*
%TD*%
D56*
%TO.C,C15*%
X174704800Y-109144900D03*
X174704800Y-113244900D03*
%TD*%
D41*
%TO.C,C2*%
X132636100Y-84263600D03*
X132636100Y-82563600D03*
%TD*%
D30*
%TO.C,R11*%
X164386100Y-55258600D03*
X164386100Y-56958600D03*
%TD*%
D36*
%TO.C,R15*%
X148193600Y-81088600D03*
X148193600Y-79388600D03*
%TD*%
D40*
%TO.C,R54*%
X139201100Y-140881100D03*
X137501100Y-140881100D03*
%TD*%
D48*
%TO.C,IC10*%
X159941100Y-138718600D03*
X161211100Y-138718600D03*
X162481100Y-138718600D03*
X163751100Y-138718600D03*
X163751100Y-133518600D03*
X162481100Y-133518600D03*
X161211100Y-133518600D03*
X159941100Y-133518600D03*
%TD*%
D63*
%TO.C,JP1*%
X185341100Y-133896100D03*
X182801100Y-133896100D03*
X185341100Y-136436100D03*
X182801100Y-136436100D03*
X185341100Y-138976100D03*
X182801100Y-138976100D03*
X185341100Y-141516100D03*
X182801100Y-141516100D03*
X185341100Y-144056100D03*
X182801100Y-144056100D03*
%TD*%
D64*
%TO.C,JP2*%
X110730000Y-92120000D03*
X113270000Y-92120000D03*
X110730000Y-89580000D03*
X113270000Y-89580000D03*
X110730000Y-87040000D03*
X113270000Y-87040000D03*
X110730000Y-84500000D03*
X113270000Y-84500000D03*
X110730000Y-81960000D03*
X113270000Y-81960000D03*
%TD*%
M02*
