%TF.GenerationSoftware,KiCad,Pcbnew,(6.0.11-0)*%
%TF.CreationDate,2023-03-06T23:39:12+01:00*%
%TF.ProjectId,braids,62726169-6473-42e6-9b69-6361645f7063,rev?*%
%TF.SameCoordinates,Original*%
%TF.FileFunction,Paste,Top*%
%TF.FilePolarity,Positive*%
%FSLAX46Y46*%
G04 Gerber Fmt 4.6, Leading zero omitted, Abs format (unit mm)*
G04 Created by KiCad (PCBNEW (6.0.11-0)) date 2023-03-06 23:39:12*
%MOMM*%
%LPD*%
G01*
G04 APERTURE LIST*
G04 Aperture macros list*
%AMRoundRect*
0 Rectangle with rounded corners*
0 $1 Rounding radius*
0 $2 $3 $4 $5 $6 $7 $8 $9 X,Y pos of 4 corners*
0 Add a 4 corners polygon primitive as box body*
4,1,4,$2,$3,$4,$5,$6,$7,$8,$9,$2,$3,0*
0 Add four circle primitives for the rounded corners*
1,1,$1+$1,$2,$3*
1,1,$1+$1,$4,$5*
1,1,$1+$1,$6,$7*
1,1,$1+$1,$8,$9*
0 Add four rect primitives between the rounded corners*
20,1,$1+$1,$2,$3,$4,$5,0*
20,1,$1+$1,$4,$5,$6,$7,0*
20,1,$1+$1,$6,$7,$8,$9,0*
20,1,$1+$1,$8,$9,$2,$3,0*%
G04 Aperture macros list end*
%ADD10R,1.100000X1.000000*%
%ADD11R,1.000000X1.100000*%
%ADD12R,1.400000X1.000000*%
%ADD13R,5.334000X1.930400*%
%ADD14R,0.660400X2.032000*%
%ADD15R,0.700000X1.000000*%
%ADD16R,3.000000X1.400000*%
%ADD17R,1.000000X1.400000*%
%ADD18R,1.200000X3.200000*%
%ADD19RoundRect,0.150000X0.150000X-0.825000X0.150000X0.825000X-0.150000X0.825000X-0.150000X-0.825000X0*%
%ADD20R,0.410000X1.020000*%
%ADD21R,0.254000X1.000000*%
%ADD22R,1.000000X0.254000*%
%ADD23R,3.150000X1.000000*%
%ADD24R,1.400000X2.600000*%
%ADD25R,1.803000X1.600000*%
%ADD26R,1.000000X1.600000*%
%ADD27R,5.400000X6.200000*%
%ADD28R,1.400000X1.400000*%
%ADD29R,1.400000X2.200000*%
%ADD30R,0.600000X2.200000*%
G04 APERTURE END LIST*
D10*
%TO.C,C16*%
X158251100Y-119926100D03*
X156551100Y-119926100D03*
%TD*%
%TO.C,R5*%
X144383600Y-55258600D03*
X144383600Y-56958600D03*
%TD*%
D11*
%TO.C,R41*%
X156551100Y-124371100D03*
X158251100Y-124371100D03*
%TD*%
D10*
%TO.C,R3*%
X137398600Y-55258600D03*
X137398600Y-56958600D03*
%TD*%
D11*
%TO.C,R32*%
X153376100Y-116433600D03*
X155076100Y-116433600D03*
%TD*%
%TO.C,C11*%
X168513600Y-106376100D03*
X168513600Y-108076100D03*
%TD*%
D12*
%TO.C,Q2*%
X127068600Y-57058600D03*
X124868600Y-56108600D03*
X127068600Y-55158600D03*
%TD*%
D10*
%TO.C,R18*%
X155813600Y-81088600D03*
X155813600Y-79388600D03*
%TD*%
%TO.C,C22*%
X164488600Y-131673600D03*
X166188600Y-131673600D03*
%TD*%
D13*
%TO.C,Q5*%
X139367100Y-100876100D03*
X129715100Y-100876100D03*
%TD*%
D10*
%TO.C,R13*%
X143113600Y-81088600D03*
X143113600Y-79388600D03*
%TD*%
D14*
%TO.C,IC9*%
X131366100Y-137287000D03*
X132636100Y-137287000D03*
X133906100Y-137287000D03*
X135176100Y-137287000D03*
X136446100Y-137287000D03*
X137716100Y-137287000D03*
X138986100Y-137287000D03*
X138986100Y-131140200D03*
X137716100Y-131140200D03*
X136446100Y-131140200D03*
X135176100Y-131140200D03*
X133906100Y-131140200D03*
X132636100Y-131140200D03*
X131366100Y-131140200D03*
%TD*%
D11*
%TO.C,R51*%
X125866100Y-136436100D03*
X124166100Y-136436100D03*
%TD*%
%TO.C,C6*%
X153908600Y-100456100D03*
X153908600Y-98756100D03*
%TD*%
D15*
%TO.C,IC3*%
X181533600Y-98801100D03*
X183433600Y-98801100D03*
X182483600Y-96601100D03*
%TD*%
D10*
%TO.C,R17*%
X153273600Y-81088600D03*
X153273600Y-79388600D03*
%TD*%
D11*
%TO.C,C4*%
X131366100Y-94628600D03*
X131366100Y-96328600D03*
%TD*%
%TO.C,C28*%
X135176100Y-139713600D03*
X135176100Y-141413600D03*
%TD*%
D16*
%TO.C,C30*%
X168653600Y-143103600D03*
X173453600Y-143103600D03*
%TD*%
D17*
%TO.C,Q6*%
X132003600Y-111183600D03*
X132953600Y-108983600D03*
X133903600Y-111183600D03*
%TD*%
D11*
%TO.C,C7*%
X155178600Y-100456100D03*
X155178600Y-98756100D03*
%TD*%
D14*
%TO.C,IC2*%
X172006100Y-88392000D03*
X173276100Y-88392000D03*
X174546100Y-88392000D03*
X175816100Y-88392000D03*
X177086100Y-88392000D03*
X178356100Y-88392000D03*
X179626100Y-88392000D03*
X180896100Y-88392000D03*
X180896100Y-82245200D03*
X179626100Y-82245200D03*
X178356100Y-82245200D03*
X177086100Y-82245200D03*
X175816100Y-82245200D03*
X174546100Y-82245200D03*
X173276100Y-82245200D03*
X172006100Y-82245200D03*
%TD*%
D10*
%TO.C,R55*%
X159941100Y-143001100D03*
X159941100Y-141301100D03*
%TD*%
D15*
%TO.C,IC8*%
X122478600Y-133408600D03*
X124378600Y-133408600D03*
X123428600Y-131208600D03*
%TD*%
D10*
%TO.C,R27*%
X130413600Y-109233600D03*
X130413600Y-110933600D03*
%TD*%
%TO.C,R23*%
X181848600Y-102043600D03*
X181848600Y-100343600D03*
%TD*%
%TO.C,R22*%
X113635000Y-100961300D03*
X113635000Y-99261300D03*
%TD*%
D11*
%TO.C,C1*%
X170418600Y-82358600D03*
X170418600Y-80658600D03*
%TD*%
D10*
%TO.C,R1*%
X120888600Y-55258600D03*
X120888600Y-56958600D03*
%TD*%
D11*
%TO.C,R12*%
X166823600Y-75476100D03*
X165123600Y-75476100D03*
%TD*%
%TO.C,R53*%
X137501100Y-139293600D03*
X139201100Y-139293600D03*
%TD*%
D18*
%TO.C,SW2*%
X111000000Y-101791300D03*
X111000000Y-108591300D03*
X115000000Y-101791300D03*
X115000000Y-108591300D03*
%TD*%
D19*
%TO.C,IC4*%
X156855000Y-104621100D03*
X158125000Y-104621100D03*
X159395000Y-104621100D03*
X160665000Y-104621100D03*
X161935000Y-104621100D03*
X163205000Y-104621100D03*
X164475000Y-104621100D03*
X165745000Y-104621100D03*
X165745000Y-99671100D03*
X164475000Y-99671100D03*
X163205000Y-99671100D03*
X161935000Y-99671100D03*
X160665000Y-99671100D03*
X159395000Y-99671100D03*
X158125000Y-99671100D03*
X156855000Y-99671100D03*
%TD*%
D12*
%TO.C,Q3*%
X135323600Y-57058600D03*
X133123600Y-56108600D03*
X135323600Y-55158600D03*
%TD*%
D10*
%TO.C,R50*%
X158036100Y-137173600D03*
X158036100Y-138873600D03*
%TD*%
D11*
%TO.C,R42*%
X162901100Y-124371100D03*
X164601100Y-124371100D03*
%TD*%
D10*
%TO.C,R7*%
X149463600Y-55258600D03*
X149463600Y-56958600D03*
%TD*%
D20*
%TO.C,IC5*%
X167856100Y-104546100D03*
X168506100Y-104546100D03*
X169156100Y-104546100D03*
X169806100Y-104546100D03*
X169806100Y-99746100D03*
X169156100Y-99746100D03*
X168506100Y-99746100D03*
X167856100Y-99746100D03*
%TD*%
D11*
%TO.C,R28*%
X153376100Y-111353600D03*
X155076100Y-111353600D03*
%TD*%
D10*
%TO.C,C18*%
X159726100Y-119926100D03*
X161426100Y-119926100D03*
%TD*%
%TO.C,R14*%
X145653600Y-81088600D03*
X145653600Y-79388600D03*
%TD*%
%TO.C,C3*%
X141628600Y-87541100D03*
X143328600Y-87541100D03*
%TD*%
D16*
%TO.C,C25*%
X168653600Y-135801100D03*
X173453600Y-135801100D03*
%TD*%
D11*
%TO.C,C8*%
X183436100Y-100343600D03*
X183436100Y-102043600D03*
%TD*%
D21*
%TO.C,UC1*%
X133061100Y-94648600D03*
X133561100Y-94648600D03*
X134061100Y-94648600D03*
X134561100Y-94648600D03*
X135061100Y-94648600D03*
X135561100Y-94648600D03*
X136061100Y-94648600D03*
X136561100Y-94648600D03*
X137061100Y-94648600D03*
X137561100Y-94648600D03*
X138061100Y-94648600D03*
X138561100Y-94648600D03*
D22*
X140061100Y-93148600D03*
X140061100Y-92648600D03*
X140061100Y-92148600D03*
X140061100Y-91648600D03*
X140061100Y-91148600D03*
X140061100Y-90648600D03*
X140061100Y-90148600D03*
X140061100Y-89648600D03*
X140061100Y-89148600D03*
X140061100Y-88648600D03*
X140061100Y-88148600D03*
X140061100Y-87648600D03*
D21*
X138561100Y-86148600D03*
X138061100Y-86148600D03*
X137561100Y-86148600D03*
X137061100Y-86148600D03*
X136561100Y-86148600D03*
X136061100Y-86148600D03*
X135561100Y-86148600D03*
X135061100Y-86148600D03*
X134561100Y-86148600D03*
X134061100Y-86148600D03*
X133561100Y-86148600D03*
X133061100Y-86148600D03*
D22*
X131561100Y-87648600D03*
X131561100Y-88148600D03*
X131561100Y-88648600D03*
X131561100Y-89148600D03*
X131561100Y-89648600D03*
X131561100Y-90148600D03*
X131561100Y-90648600D03*
X131561100Y-91148600D03*
X131561100Y-91648600D03*
X131561100Y-92148600D03*
X131561100Y-92648600D03*
X131561100Y-93148600D03*
%TD*%
D10*
%TO.C,C26*%
X124278600Y-134848600D03*
X122578600Y-134848600D03*
%TD*%
%TO.C,C17*%
X162901100Y-119926100D03*
X164601100Y-119926100D03*
%TD*%
%TO.C,R2*%
X129143600Y-55258600D03*
X129143600Y-56958600D03*
%TD*%
%TO.C,C13*%
X158251100Y-109766100D03*
X156551100Y-109766100D03*
%TD*%
%TO.C,R16*%
X150733600Y-81088600D03*
X150733600Y-79388600D03*
%TD*%
D11*
%TO.C,C27*%
X165338600Y-140461100D03*
X165338600Y-138761100D03*
%TD*%
%TO.C,R35*%
X162901100Y-121196100D03*
X164601100Y-121196100D03*
%TD*%
%TO.C,R34*%
X158251100Y-121196100D03*
X156551100Y-121196100D03*
%TD*%
D10*
%TO.C,R8*%
X152003600Y-55258600D03*
X152003600Y-56958600D03*
%TD*%
D11*
%TO.C,C29*%
X161528600Y-141301100D03*
X161528600Y-143001100D03*
%TD*%
D14*
%TO.C,IC1*%
X159306100Y-88392000D03*
X160576100Y-88392000D03*
X161846100Y-88392000D03*
X163116100Y-88392000D03*
X164386100Y-88392000D03*
X165656100Y-88392000D03*
X166926100Y-88392000D03*
X168196100Y-88392000D03*
X168196100Y-82245200D03*
X166926100Y-82245200D03*
X165656100Y-82245200D03*
X164386100Y-82245200D03*
X163116100Y-82245200D03*
X161846100Y-82245200D03*
X160576100Y-82245200D03*
X159306100Y-82245200D03*
%TD*%
D10*
%TO.C,R6*%
X146923600Y-55258600D03*
X146923600Y-56958600D03*
%TD*%
D12*
%TO.C,Q4*%
X162311100Y-57058600D03*
X160111100Y-56108600D03*
X162311100Y-55158600D03*
%TD*%
D11*
%TO.C,R47*%
X143646100Y-132308600D03*
X141946100Y-132308600D03*
%TD*%
D23*
%TO.C,J7*%
X123525000Y-145040000D03*
X118475000Y-145040000D03*
X123525000Y-142500000D03*
X118475000Y-142500000D03*
X123525000Y-139960000D03*
X118475000Y-139960000D03*
%TD*%
D10*
%TO.C,R46*%
X162798600Y-131571100D03*
X162798600Y-129871100D03*
%TD*%
%TO.C,C5*%
X138453600Y-96748600D03*
X140153600Y-96748600D03*
%TD*%
%TO.C,R56*%
X163116100Y-143001100D03*
X163116100Y-141301100D03*
%TD*%
D24*
%TO.C,C19*%
X183277300Y-123749800D03*
X183277300Y-127849800D03*
%TD*%
D11*
%TO.C,R44*%
X137501100Y-129133600D03*
X139201100Y-129133600D03*
%TD*%
%TO.C,R52*%
X132851100Y-139293600D03*
X131151100Y-139293600D03*
%TD*%
%TO.C,R25*%
X158251100Y-108496100D03*
X156551100Y-108496100D03*
%TD*%
%TO.C,R24*%
X173378600Y-104368600D03*
X175078600Y-104368600D03*
%TD*%
%TO.C,R30*%
X153376100Y-112941100D03*
X155076100Y-112941100D03*
%TD*%
%TO.C,R43*%
X132851100Y-129133600D03*
X131151100Y-129133600D03*
%TD*%
D10*
%TO.C,C14*%
X162901100Y-109766100D03*
X164601100Y-109766100D03*
%TD*%
D25*
%TO.C,R49*%
X176768600Y-135014100D03*
X176768600Y-137858100D03*
%TD*%
D26*
%TO.C,IC6*%
X180521100Y-115836100D03*
X185081100Y-115836100D03*
D27*
X182801100Y-108536100D03*
%TD*%
D14*
%TO.C,IC7*%
X156766100Y-117919500D03*
X158036100Y-117919500D03*
X159306100Y-117919500D03*
X160576100Y-117919500D03*
X161846100Y-117919500D03*
X163116100Y-117919500D03*
X164386100Y-117919500D03*
X164386100Y-111772700D03*
X163116100Y-111772700D03*
X161846100Y-111772700D03*
X160576100Y-111772700D03*
X159306100Y-111772700D03*
X158036100Y-111772700D03*
X156766100Y-111772700D03*
%TD*%
D11*
%TO.C,R45*%
X164488600Y-129768600D03*
X166188600Y-129768600D03*
%TD*%
D28*
%TO.C,D2*%
X179626100Y-140251100D03*
X179626100Y-144051100D03*
%TD*%
D11*
%TO.C,R31*%
X153376100Y-114846100D03*
X155076100Y-114846100D03*
%TD*%
D18*
%TO.C,SW3*%
X111000000Y-112268800D03*
X111000000Y-119068800D03*
X115000000Y-112268800D03*
X115000000Y-119068800D03*
%TD*%
D10*
%TO.C,R10*%
X158036100Y-55258600D03*
X158036100Y-56958600D03*
%TD*%
D11*
%TO.C,C12*%
X170101100Y-106376100D03*
X170101100Y-108076100D03*
%TD*%
%TO.C,R26*%
X162901100Y-108496100D03*
X164601100Y-108496100D03*
%TD*%
D29*
%TO.C,C24*%
X153591100Y-133883600D03*
X153591100Y-137083600D03*
%TD*%
D10*
%TO.C,R33*%
X113000000Y-121598800D03*
X113000000Y-119898800D03*
%TD*%
D11*
%TO.C,C21*%
X161211100Y-129871100D03*
X161211100Y-131571100D03*
%TD*%
D10*
%TO.C,R4*%
X141843600Y-55258600D03*
X141843600Y-56958600D03*
%TD*%
%TO.C,R48*%
X148511100Y-136651100D03*
X148511100Y-134951100D03*
%TD*%
D11*
%TO.C,R40*%
X162901100Y-122783600D03*
X164601100Y-122783600D03*
%TD*%
D28*
%TO.C,D1*%
X179626100Y-133901100D03*
X179626100Y-137701100D03*
%TD*%
D10*
%TO.C,R9*%
X154543600Y-55258600D03*
X154543600Y-56958600D03*
%TD*%
%TO.C,C10*%
X137501100Y-104686100D03*
X139201100Y-104686100D03*
%TD*%
%TO.C,C9*%
X131581100Y-104686100D03*
X129881100Y-104686100D03*
%TD*%
D12*
%TO.C,Q1*%
X118813600Y-57058600D03*
X116613600Y-56108600D03*
X118813600Y-55158600D03*
%TD*%
D10*
%TO.C,C31*%
X121738600Y-104686100D03*
X120038600Y-104686100D03*
%TD*%
D11*
%TO.C,R39*%
X156551100Y-122783600D03*
X158251100Y-122783600D03*
%TD*%
%TO.C,R29*%
X128928600Y-112306100D03*
X130628600Y-112306100D03*
%TD*%
%TO.C,C20*%
X135493600Y-127013600D03*
X135493600Y-128713600D03*
%TD*%
%TO.C,C23*%
X158036100Y-133476100D03*
X158036100Y-131776100D03*
%TD*%
D24*
%TO.C,C15*%
X174704800Y-109144900D03*
X174704800Y-113244900D03*
%TD*%
D11*
%TO.C,C2*%
X132636100Y-84263600D03*
X132636100Y-82563600D03*
%TD*%
D10*
%TO.C,R11*%
X164386100Y-55258600D03*
X164386100Y-56958600D03*
%TD*%
%TO.C,R15*%
X148193600Y-81088600D03*
X148193600Y-79388600D03*
%TD*%
D11*
%TO.C,R54*%
X139201100Y-140881100D03*
X137501100Y-140881100D03*
%TD*%
D30*
%TO.C,IC10*%
X159941100Y-138718600D03*
X161211100Y-138718600D03*
X162481100Y-138718600D03*
X163751100Y-138718600D03*
X163751100Y-133518600D03*
X162481100Y-133518600D03*
X161211100Y-133518600D03*
X159941100Y-133518600D03*
%TD*%
M02*
