%TF.GenerationSoftware,KiCad,Pcbnew,(6.0.11-0)*%
%TF.CreationDate,2023-03-06T23:16:56+01:00*%
%TF.ProjectId,braids,62726169-6473-42e6-9b69-6361645f7063,rev?*%
%TF.SameCoordinates,Original*%
%TF.FileFunction,Soldermask,Top*%
%TF.FilePolarity,Negative*%
%FSLAX46Y46*%
G04 Gerber Fmt 4.6, Leading zero omitted, Abs format (unit mm)*
G04 Created by KiCad (PCBNEW (6.0.11-0)) date 2023-03-06 23:16:56*
%MOMM*%
%LPD*%
G01*
G04 APERTURE LIST*
G04 Aperture macros list*
%AMRoundRect*
0 Rectangle with rounded corners*
0 $1 Rounding radius*
0 $2 $3 $4 $5 $6 $7 $8 $9 X,Y pos of 4 corners*
0 Add a 4 corners polygon primitive as box body*
4,1,4,$2,$3,$4,$5,$6,$7,$8,$9,$2,$3,0*
0 Add four circle primitives for the rounded corners*
1,1,$1+$1,$2,$3*
1,1,$1+$1,$4,$5*
1,1,$1+$1,$6,$7*
1,1,$1+$1,$8,$9*
0 Add four rect primitives between the rounded corners*
20,1,$1+$1,$2,$3,$4,$5,0*
20,1,$1+$1,$4,$5,$6,$7,0*
20,1,$1+$1,$6,$7,$8,$9,0*
20,1,$1+$1,$8,$9,$2,$3,0*%
%AMFreePoly0*
4,1,25,0.575031,1.328373,0.579933,1.323882,1.323882,0.579933,1.345910,0.532692,1.346200,0.526051,1.346200,-0.526051,1.328373,-0.575031,1.323882,-0.579933,0.579933,-1.323882,0.532692,-1.345910,0.526051,-1.346200,-0.526051,-1.346200,-0.575031,-1.328373,-0.579933,-1.323882,-1.323882,-0.579933,-1.345910,-0.532692,-1.346200,-0.526051,-1.346200,0.526051,-1.328373,0.575031,-1.323882,0.579933,
-0.579933,1.323882,-0.532692,1.345910,-0.526051,1.346200,0.526051,1.346200,0.575031,1.328373,0.575031,1.328373,$1*%
%AMFreePoly1*
4,1,25,0.417216,0.947373,0.422118,0.942882,0.942882,0.422118,0.964910,0.374877,0.965200,0.368236,0.965200,-0.368236,0.947373,-0.417216,0.942882,-0.422118,0.422118,-0.942882,0.374877,-0.964910,0.368236,-0.965200,-0.368236,-0.965200,-0.417216,-0.947373,-0.422118,-0.942882,-0.942882,-0.422118,-0.964910,-0.374877,-0.965200,-0.368236,-0.965200,0.368236,-0.947373,0.417216,-0.942882,0.422118,
-0.422118,0.942882,-0.374877,0.964910,-0.368236,0.965200,0.368236,0.965200,0.417216,0.947373,0.417216,0.947373,$1*%
%AMFreePoly2*
4,1,25,0.839299,1.966373,0.844201,1.961882,1.961882,0.844201,1.983910,0.796960,1.984200,0.790319,1.984200,-0.790319,1.966373,-0.839299,1.961882,-0.844201,0.844201,-1.961882,0.796960,-1.983910,0.790319,-1.984200,-0.790319,-1.984200,-0.839299,-1.966373,-0.844201,-1.961882,-1.961882,-0.844201,-1.983910,-0.796960,-1.984200,-0.790319,-1.984200,0.790319,-1.966373,0.839299,-1.961882,0.844201,
-0.844201,1.961882,-0.796960,1.983910,-0.790319,1.984200,0.790319,1.984200,0.839299,1.966373,0.839299,1.966373,$1*%
%AMFreePoly3*
4,1,25,0.438258,0.998173,0.443160,0.993682,0.993682,0.443160,1.015710,0.395919,1.016000,0.389278,1.016000,-0.389278,0.998173,-0.438258,0.993682,-0.443160,0.443160,-0.993682,0.395919,-1.015710,0.389278,-1.016000,-0.389278,-1.016000,-0.438258,-0.998173,-0.443160,-0.993682,-0.993682,-0.443160,-1.015710,-0.395919,-1.016000,-0.389278,-1.016000,0.389278,-0.998173,0.438258,-0.993682,0.443160,
-0.443160,0.993682,-0.395919,1.015710,-0.389278,1.016000,0.389278,1.016000,0.438258,0.998173,0.438258,0.998173,$1*%
G04 Aperture macros list end*
%ADD10RoundRect,0.076200X0.550000X0.500000X-0.550000X0.500000X-0.550000X-0.500000X0.550000X-0.500000X0*%
%ADD11RoundRect,0.076200X-0.550000X0.500000X-0.550000X-0.500000X0.550000X-0.500000X0.550000X0.500000X0*%
%ADD12RoundRect,0.076200X-0.500000X-0.550000X0.500000X-0.550000X0.500000X0.550000X-0.500000X0.550000X0*%
%ADD13RoundRect,0.076200X0.939800X-0.939800X0.939800X0.939800X-0.939800X0.939800X-0.939800X-0.939800X0*%
%ADD14FreePoly0,90.000000*%
%ADD15RoundRect,0.076200X-0.500000X0.550000X-0.500000X-0.550000X0.500000X-0.550000X0.500000X0.550000X0*%
%ADD16RoundRect,0.076200X0.700000X-0.500000X0.700000X0.500000X-0.700000X0.500000X-0.700000X-0.500000X0*%
%ADD17RoundRect,0.076200X0.550000X-0.500000X0.550000X0.500000X-0.550000X0.500000X-0.550000X-0.500000X0*%
%ADD18RoundRect,0.076200X-0.550000X-0.500000X0.550000X-0.500000X0.550000X0.500000X-0.550000X0.500000X0*%
%ADD19RoundRect,0.076200X2.667000X0.965200X-2.667000X0.965200X-2.667000X-0.965200X2.667000X-0.965200X0*%
%ADD20RoundRect,0.076200X-0.330200X-1.016000X0.330200X-1.016000X0.330200X1.016000X-0.330200X1.016000X0*%
%ADD21RoundRect,0.076200X0.500000X0.550000X-0.500000X0.550000X-0.500000X-0.550000X0.500000X-0.550000X0*%
%ADD22RoundRect,0.076200X0.500000X-0.550000X0.500000X0.550000X-0.500000X0.550000X-0.500000X-0.550000X0*%
%ADD23RoundRect,0.076200X-0.350000X-0.500000X0.350000X-0.500000X0.350000X0.500000X-0.350000X0.500000X0*%
%ADD24RoundRect,0.076200X1.500000X0.700000X-1.500000X0.700000X-1.500000X-0.700000X1.500000X-0.700000X0*%
%ADD25RoundRect,0.076200X-0.500000X-0.700000X0.500000X-0.700000X0.500000X0.700000X-0.500000X0.700000X0*%
%ADD26C,2.200000*%
%ADD27FreePoly1,90.000000*%
%ADD28RoundRect,0.076200X-0.600000X1.600000X-0.600000X-1.600000X0.600000X-1.600000X0.600000X1.600000X0*%
%ADD29RoundRect,0.076200X-0.300000X-1.100000X0.300000X-1.100000X0.300000X1.100000X-0.300000X1.100000X0*%
%ADD30RoundRect,0.076200X-0.205000X-0.510000X0.205000X-0.510000X0.205000X0.510000X-0.205000X0.510000X0*%
%ADD31RoundRect,0.076200X-0.127000X-0.500000X0.127000X-0.500000X0.127000X0.500000X-0.127000X0.500000X0*%
%ADD32RoundRect,0.076200X-0.500000X-0.127000X0.500000X-0.127000X0.500000X0.127000X-0.500000X0.127000X0*%
%ADD33RoundRect,0.076200X-0.750000X-0.750000X0.750000X-0.750000X0.750000X0.750000X-0.750000X0.750000X0*%
%ADD34FreePoly2,0.000000*%
%ADD35R,3.150000X1.000000*%
%ADD36C,1.574800*%
%ADD37RoundRect,0.076200X0.700000X-1.300000X0.700000X1.300000X-0.700000X1.300000X-0.700000X-1.300000X0*%
%ADD38RoundRect,0.076200X-0.901500X0.800000X-0.901500X-0.800000X0.901500X-0.800000X0.901500X0.800000X0*%
%ADD39RoundRect,0.076200X-0.500000X-0.800000X0.500000X-0.800000X0.500000X0.800000X-0.500000X0.800000X0*%
%ADD40RoundRect,0.076200X-2.700000X-3.100000X2.700000X-3.100000X2.700000X3.100000X-2.700000X3.100000X0*%
%ADD41RoundRect,0.076200X0.700000X-0.700000X0.700000X0.700000X-0.700000X0.700000X-0.700000X-0.700000X0*%
%ADD42FreePoly1,270.000000*%
%ADD43RoundRect,0.076200X0.700000X-1.100000X0.700000X1.100000X-0.700000X1.100000X-0.700000X-1.100000X0*%
%ADD44FreePoly3,270.000000*%
%ADD45FreePoly3,90.000000*%
G04 APERTURE END LIST*
D10*
%TO.C,C16*%
X158251100Y-119926100D03*
X156551100Y-119926100D03*
%TD*%
D11*
%TO.C,R5*%
X144383600Y-55258600D03*
X144383600Y-56958600D03*
%TD*%
D12*
%TO.C,R41*%
X156551100Y-124371100D03*
X158251100Y-124371100D03*
%TD*%
D13*
%TO.C,R19*%
X124341100Y-102478600D03*
X121841100Y-102478600D03*
X119341100Y-102478600D03*
D14*
X126541100Y-95478600D03*
X117141100Y-95478600D03*
%TD*%
D13*
%TO.C,R36*%
X124341100Y-129148600D03*
X121841100Y-129148600D03*
X119341100Y-129148600D03*
D14*
X126541100Y-122148600D03*
X117141100Y-122148600D03*
%TD*%
D11*
%TO.C,R3*%
X137398600Y-55258600D03*
X137398600Y-56958600D03*
%TD*%
D12*
%TO.C,R32*%
X153376100Y-116433600D03*
X155076100Y-116433600D03*
%TD*%
D15*
%TO.C,C11*%
X168513600Y-106376100D03*
X168513600Y-108076100D03*
%TD*%
D16*
%TO.C,Q2*%
X127068600Y-57058600D03*
X124868600Y-56108600D03*
X127068600Y-55158600D03*
%TD*%
D17*
%TO.C,R18*%
X155813600Y-81088600D03*
X155813600Y-79388600D03*
%TD*%
D18*
%TO.C,C22*%
X164488600Y-131673600D03*
X166188600Y-131673600D03*
%TD*%
D19*
%TO.C,Q5*%
X139367100Y-100876100D03*
X129715100Y-100876100D03*
%TD*%
D17*
%TO.C,R13*%
X143113600Y-81088600D03*
X143113600Y-79388600D03*
%TD*%
D20*
%TO.C,IC9*%
X131366100Y-137287000D03*
X132636100Y-137287000D03*
X133906100Y-137287000D03*
X135176100Y-137287000D03*
X136446100Y-137287000D03*
X137716100Y-137287000D03*
X138986100Y-137287000D03*
X138986100Y-131140200D03*
X137716100Y-131140200D03*
X136446100Y-131140200D03*
X135176100Y-131140200D03*
X133906100Y-131140200D03*
X132636100Y-131140200D03*
X131366100Y-131140200D03*
%TD*%
D21*
%TO.C,R51*%
X125866100Y-136436100D03*
X124166100Y-136436100D03*
%TD*%
D22*
%TO.C,C6*%
X153908600Y-100456100D03*
X153908600Y-98756100D03*
%TD*%
D23*
%TO.C,IC3*%
X181533600Y-98801100D03*
X183433600Y-98801100D03*
X182483600Y-96601100D03*
%TD*%
D17*
%TO.C,R17*%
X153273600Y-81088600D03*
X153273600Y-79388600D03*
%TD*%
D15*
%TO.C,C4*%
X131366100Y-94628600D03*
X131366100Y-96328600D03*
%TD*%
%TO.C,C28*%
X135176100Y-139713600D03*
X135176100Y-141413600D03*
%TD*%
D24*
%TO.C,C30*%
X168653600Y-143103600D03*
X173453600Y-143103600D03*
%TD*%
D25*
%TO.C,Q6*%
X132003600Y-111183600D03*
X132953600Y-108983600D03*
X133903600Y-111183600D03*
%TD*%
D22*
%TO.C,C7*%
X155178600Y-100456100D03*
X155178600Y-98756100D03*
%TD*%
D20*
%TO.C,IC2*%
X172006100Y-88392000D03*
X173276100Y-88392000D03*
X174546100Y-88392000D03*
X175816100Y-88392000D03*
X177086100Y-88392000D03*
X178356100Y-88392000D03*
X179626100Y-88392000D03*
X180896100Y-88392000D03*
X180896100Y-82245200D03*
X179626100Y-82245200D03*
X178356100Y-82245200D03*
X177086100Y-82245200D03*
X175816100Y-82245200D03*
X174546100Y-82245200D03*
X173276100Y-82245200D03*
X172006100Y-82245200D03*
%TD*%
D17*
%TO.C,R55*%
X159941100Y-143001100D03*
X159941100Y-141301100D03*
%TD*%
D23*
%TO.C,IC8*%
X122478600Y-133408600D03*
X124378600Y-133408600D03*
X123428600Y-131208600D03*
%TD*%
D11*
%TO.C,R27*%
X130413600Y-109233600D03*
X130413600Y-110933600D03*
%TD*%
D17*
%TO.C,R23*%
X181848600Y-102043600D03*
X181848600Y-100343600D03*
%TD*%
%TO.C,R22*%
X113635000Y-100961300D03*
X113635000Y-99261300D03*
%TD*%
D22*
%TO.C,C1*%
X170418600Y-82358600D03*
X170418600Y-80658600D03*
%TD*%
D11*
%TO.C,R1*%
X120888600Y-55258600D03*
X120888600Y-56958600D03*
%TD*%
D21*
%TO.C,R12*%
X166823600Y-75476100D03*
X165123600Y-75476100D03*
%TD*%
D26*
%TO.C,J4*%
X153591100Y-151993600D03*
D27*
X159306100Y-151993600D03*
X156766100Y-151993600D03*
X149146100Y-151993600D03*
%TD*%
D12*
%TO.C,R53*%
X137501100Y-139293600D03*
X139201100Y-139293600D03*
%TD*%
D26*
%TO.C,J3*%
X140891100Y-151993600D03*
D27*
X146606100Y-151993600D03*
X144066100Y-151993600D03*
X136446100Y-151993600D03*
%TD*%
D28*
%TO.C,SW2*%
X111000000Y-101791300D03*
X111000000Y-108591300D03*
X115000000Y-101791300D03*
X115000000Y-108591300D03*
%TD*%
D29*
%TO.C,IC4*%
X156766100Y-104746100D03*
X158036100Y-104746100D03*
X159306100Y-104746100D03*
X160576100Y-104746100D03*
X161846100Y-104746100D03*
X163116100Y-104746100D03*
X164386100Y-104746100D03*
X164386100Y-99546100D03*
X163116100Y-99546100D03*
X161846100Y-99546100D03*
X160576100Y-99546100D03*
X159306100Y-99546100D03*
X158036100Y-99546100D03*
X156766100Y-99546100D03*
%TD*%
D16*
%TO.C,Q3*%
X135323600Y-57058600D03*
X133123600Y-56108600D03*
X135323600Y-55158600D03*
%TD*%
D11*
%TO.C,R50*%
X158036100Y-137173600D03*
X158036100Y-138873600D03*
%TD*%
D26*
%TO.C,J5*%
X166291100Y-151993600D03*
D27*
X172006100Y-151993600D03*
X169466100Y-151993600D03*
X161846100Y-151993600D03*
%TD*%
D12*
%TO.C,R42*%
X162901100Y-124371100D03*
X164601100Y-124371100D03*
%TD*%
D11*
%TO.C,R7*%
X149463600Y-55258600D03*
X149463600Y-56958600D03*
%TD*%
D30*
%TO.C,IC5*%
X167856100Y-104546100D03*
X168506100Y-104546100D03*
X169156100Y-104546100D03*
X169806100Y-104546100D03*
X169806100Y-99746100D03*
X169156100Y-99746100D03*
X168506100Y-99746100D03*
X167856100Y-99746100D03*
%TD*%
D12*
%TO.C,R28*%
X153376100Y-111353600D03*
X155076100Y-111353600D03*
%TD*%
D26*
%TO.C,J1*%
X115491100Y-151993600D03*
D27*
X121206100Y-151993600D03*
X118666100Y-151993600D03*
X111046100Y-151993600D03*
%TD*%
D18*
%TO.C,C18*%
X159726100Y-119926100D03*
X161426100Y-119926100D03*
%TD*%
D17*
%TO.C,R14*%
X145653600Y-81088600D03*
X145653600Y-79388600D03*
%TD*%
D18*
%TO.C,C3*%
X141628600Y-87541100D03*
X143328600Y-87541100D03*
%TD*%
D26*
%TO.C,J2*%
X128191100Y-151993600D03*
D27*
X133906100Y-151993600D03*
X131366100Y-151993600D03*
X123746100Y-151993600D03*
%TD*%
D24*
%TO.C,C25*%
X168653600Y-135801100D03*
X173453600Y-135801100D03*
%TD*%
D15*
%TO.C,C8*%
X183436100Y-100343600D03*
X183436100Y-102043600D03*
%TD*%
D31*
%TO.C,UC1*%
X133061100Y-94648600D03*
X133561100Y-94648600D03*
X134061100Y-94648600D03*
X134561100Y-94648600D03*
X135061100Y-94648600D03*
X135561100Y-94648600D03*
X136061100Y-94648600D03*
X136561100Y-94648600D03*
X137061100Y-94648600D03*
X137561100Y-94648600D03*
X138061100Y-94648600D03*
X138561100Y-94648600D03*
D32*
X140061100Y-93148600D03*
X140061100Y-92648600D03*
X140061100Y-92148600D03*
X140061100Y-91648600D03*
X140061100Y-91148600D03*
X140061100Y-90648600D03*
X140061100Y-90148600D03*
X140061100Y-89648600D03*
X140061100Y-89148600D03*
X140061100Y-88648600D03*
X140061100Y-88148600D03*
X140061100Y-87648600D03*
D31*
X138561100Y-86148600D03*
X138061100Y-86148600D03*
X137561100Y-86148600D03*
X137061100Y-86148600D03*
X136561100Y-86148600D03*
X136061100Y-86148600D03*
X135561100Y-86148600D03*
X135061100Y-86148600D03*
X134561100Y-86148600D03*
X134061100Y-86148600D03*
X133561100Y-86148600D03*
X133061100Y-86148600D03*
D32*
X131561100Y-87648600D03*
X131561100Y-88148600D03*
X131561100Y-88648600D03*
X131561100Y-89148600D03*
X131561100Y-89648600D03*
X131561100Y-90148600D03*
X131561100Y-90648600D03*
X131561100Y-91148600D03*
X131561100Y-91648600D03*
X131561100Y-92148600D03*
X131561100Y-92648600D03*
X131561100Y-93148600D03*
%TD*%
D10*
%TO.C,C26*%
X124278600Y-134848600D03*
X122578600Y-134848600D03*
%TD*%
D18*
%TO.C,C17*%
X162901100Y-119926100D03*
X164601100Y-119926100D03*
%TD*%
D11*
%TO.C,R2*%
X129143600Y-55258600D03*
X129143600Y-56958600D03*
%TD*%
D10*
%TO.C,C13*%
X158251100Y-109766100D03*
X156551100Y-109766100D03*
%TD*%
D17*
%TO.C,R16*%
X150733600Y-81088600D03*
X150733600Y-79388600D03*
%TD*%
D22*
%TO.C,C27*%
X165338600Y-140461100D03*
X165338600Y-138761100D03*
%TD*%
D12*
%TO.C,R35*%
X162901100Y-121196100D03*
X164601100Y-121196100D03*
%TD*%
D21*
%TO.C,R34*%
X158251100Y-121196100D03*
X156551100Y-121196100D03*
%TD*%
D11*
%TO.C,R8*%
X152003600Y-55258600D03*
X152003600Y-56958600D03*
%TD*%
D15*
%TO.C,C29*%
X161528600Y-141301100D03*
X161528600Y-143001100D03*
%TD*%
D20*
%TO.C,IC1*%
X159306100Y-88392000D03*
X160576100Y-88392000D03*
X161846100Y-88392000D03*
X163116100Y-88392000D03*
X164386100Y-88392000D03*
X165656100Y-88392000D03*
X166926100Y-88392000D03*
X168196100Y-88392000D03*
X168196100Y-82245200D03*
X166926100Y-82245200D03*
X165656100Y-82245200D03*
X164386100Y-82245200D03*
X163116100Y-82245200D03*
X161846100Y-82245200D03*
X160576100Y-82245200D03*
X159306100Y-82245200D03*
%TD*%
D11*
%TO.C,R6*%
X146923600Y-55258600D03*
X146923600Y-56958600D03*
%TD*%
D16*
%TO.C,Q4*%
X162311100Y-57058600D03*
X160111100Y-56108600D03*
X162311100Y-55158600D03*
%TD*%
D21*
%TO.C,R47*%
X143646100Y-132308600D03*
X141946100Y-132308600D03*
%TD*%
D33*
%TO.C,SW1*%
X172681100Y-75673600D03*
X177681100Y-75673600D03*
X175181100Y-75673600D03*
X172681100Y-61173600D03*
X177681100Y-61173600D03*
D34*
X170281100Y-68173600D03*
X180081100Y-68173600D03*
%TD*%
D13*
%TO.C,R20*%
X151011100Y-102478600D03*
X148511100Y-102478600D03*
X146011100Y-102478600D03*
D14*
X153211100Y-95478600D03*
X143811100Y-95478600D03*
%TD*%
D35*
%TO.C,J7*%
X123525000Y-145040000D03*
X118475000Y-145040000D03*
X123525000Y-142500000D03*
X118475000Y-142500000D03*
X123525000Y-139960000D03*
X118475000Y-139960000D03*
%TD*%
D36*
%TO.C,DISP1*%
X115173600Y-75793600D03*
X117713600Y-75793600D03*
X120253600Y-75793600D03*
X122793600Y-75793600D03*
X125333600Y-75793600D03*
X127873600Y-75793600D03*
X130413600Y-75793600D03*
X132953600Y-75793600D03*
X135493600Y-75793600D03*
X135493600Y-60553600D03*
X132953600Y-60553600D03*
X130413600Y-60553600D03*
X127873600Y-60553600D03*
X125333600Y-60553600D03*
X122793600Y-60553600D03*
X120253600Y-60553600D03*
X117713600Y-60553600D03*
X115173600Y-60553600D03*
%TD*%
D17*
%TO.C,R46*%
X162798600Y-131571100D03*
X162798600Y-129871100D03*
%TD*%
D18*
%TO.C,C5*%
X138453600Y-96748600D03*
X140153600Y-96748600D03*
%TD*%
D17*
%TO.C,R56*%
X163116100Y-143001100D03*
X163116100Y-141301100D03*
%TD*%
D37*
%TO.C,C19*%
X183277300Y-123749800D03*
X183277300Y-127849800D03*
%TD*%
D12*
%TO.C,R44*%
X137501100Y-129133600D03*
X139201100Y-129133600D03*
%TD*%
D21*
%TO.C,R52*%
X132851100Y-139293600D03*
X131151100Y-139293600D03*
%TD*%
%TO.C,R25*%
X158251100Y-108496100D03*
X156551100Y-108496100D03*
%TD*%
D12*
%TO.C,R24*%
X173378600Y-104368600D03*
X175078600Y-104368600D03*
%TD*%
%TO.C,R30*%
X153376100Y-112941100D03*
X155076100Y-112941100D03*
%TD*%
D21*
%TO.C,R43*%
X132851100Y-129133600D03*
X131151100Y-129133600D03*
%TD*%
D18*
%TO.C,C14*%
X162901100Y-109766100D03*
X164601100Y-109766100D03*
%TD*%
D13*
%TO.C,R38*%
X177681100Y-129148600D03*
X175181100Y-129148600D03*
X172681100Y-129148600D03*
D14*
X179881100Y-122148600D03*
X170481100Y-122148600D03*
%TD*%
D38*
%TO.C,R49*%
X176768600Y-135014100D03*
X176768600Y-137858100D03*
%TD*%
D13*
%TO.C,R37*%
X151011100Y-129148600D03*
X148511100Y-129148600D03*
X146011100Y-129148600D03*
D14*
X153211100Y-122148600D03*
X143811100Y-122148600D03*
%TD*%
D39*
%TO.C,IC6*%
X180521100Y-115836100D03*
X185081100Y-115836100D03*
D40*
X182801100Y-108536100D03*
%TD*%
D20*
%TO.C,IC7*%
X156766100Y-117919500D03*
X158036100Y-117919500D03*
X159306100Y-117919500D03*
X160576100Y-117919500D03*
X161846100Y-117919500D03*
X163116100Y-117919500D03*
X164386100Y-117919500D03*
X164386100Y-111772700D03*
X163116100Y-111772700D03*
X161846100Y-111772700D03*
X160576100Y-111772700D03*
X159306100Y-111772700D03*
X158036100Y-111772700D03*
X156766100Y-111772700D03*
%TD*%
D12*
%TO.C,R45*%
X164488600Y-129768600D03*
X166188600Y-129768600D03*
%TD*%
D41*
%TO.C,D2*%
X179626100Y-140251100D03*
X179626100Y-144051100D03*
%TD*%
D13*
%TO.C,R21*%
X177681100Y-102478600D03*
X175181100Y-102478600D03*
X172681100Y-102478600D03*
D14*
X179881100Y-95478600D03*
X170481100Y-95478600D03*
%TD*%
D12*
%TO.C,R31*%
X153376100Y-114846100D03*
X155076100Y-114846100D03*
%TD*%
D28*
%TO.C,SW3*%
X111000000Y-112268800D03*
X111000000Y-119068800D03*
X115000000Y-112268800D03*
X115000000Y-119068800D03*
%TD*%
D11*
%TO.C,R10*%
X158036100Y-55258600D03*
X158036100Y-56958600D03*
%TD*%
D15*
%TO.C,C12*%
X170101100Y-106376100D03*
X170101100Y-108076100D03*
%TD*%
D12*
%TO.C,R26*%
X162901100Y-108496100D03*
X164601100Y-108496100D03*
%TD*%
D26*
%TO.C,J6*%
X181531100Y-151993600D03*
D42*
X175816100Y-151993600D03*
X178356100Y-151993600D03*
X185976100Y-151993600D03*
%TD*%
D43*
%TO.C,C24*%
X153591100Y-133883600D03*
X153591100Y-137083600D03*
%TD*%
D17*
%TO.C,R33*%
X113000000Y-121598800D03*
X113000000Y-119898800D03*
%TD*%
D15*
%TO.C,C21*%
X161211100Y-129871100D03*
X161211100Y-131571100D03*
%TD*%
D11*
%TO.C,R4*%
X141843600Y-55258600D03*
X141843600Y-56958600D03*
%TD*%
D17*
%TO.C,R48*%
X148511100Y-136651100D03*
X148511100Y-134951100D03*
%TD*%
D12*
%TO.C,R40*%
X162901100Y-122783600D03*
X164601100Y-122783600D03*
%TD*%
D41*
%TO.C,D1*%
X179626100Y-133901100D03*
X179626100Y-137701100D03*
%TD*%
D11*
%TO.C,R9*%
X154543600Y-55258600D03*
X154543600Y-56958600D03*
%TD*%
D36*
%TO.C,DISP2*%
X140573600Y-75793600D03*
X143113600Y-75793600D03*
X145653600Y-75793600D03*
X148193600Y-75793600D03*
X150733600Y-75793600D03*
X153273600Y-75793600D03*
X155813600Y-75793600D03*
X158353600Y-75793600D03*
X160893600Y-75793600D03*
X160893600Y-60553600D03*
X158353600Y-60553600D03*
X155813600Y-60553600D03*
X153273600Y-60553600D03*
X150733600Y-60553600D03*
X148193600Y-60553600D03*
X145653600Y-60553600D03*
X143113600Y-60553600D03*
X140573600Y-60553600D03*
%TD*%
D18*
%TO.C,C10*%
X137501100Y-104686100D03*
X139201100Y-104686100D03*
%TD*%
D10*
%TO.C,C9*%
X131581100Y-104686100D03*
X129881100Y-104686100D03*
%TD*%
D16*
%TO.C,Q1*%
X118813600Y-57058600D03*
X116613600Y-56108600D03*
X118813600Y-55158600D03*
%TD*%
D10*
%TO.C,C31*%
X121738600Y-104686100D03*
X120038600Y-104686100D03*
%TD*%
D12*
%TO.C,R39*%
X156551100Y-122783600D03*
X158251100Y-122783600D03*
%TD*%
%TO.C,R29*%
X128928600Y-112306100D03*
X130628600Y-112306100D03*
%TD*%
D15*
%TO.C,C20*%
X135493600Y-127013600D03*
X135493600Y-128713600D03*
%TD*%
D22*
%TO.C,C23*%
X158036100Y-133476100D03*
X158036100Y-131776100D03*
%TD*%
D37*
%TO.C,C15*%
X174704800Y-109144900D03*
X174704800Y-113244900D03*
%TD*%
D22*
%TO.C,C2*%
X132636100Y-84263600D03*
X132636100Y-82563600D03*
%TD*%
D11*
%TO.C,R11*%
X164386100Y-55258600D03*
X164386100Y-56958600D03*
%TD*%
D17*
%TO.C,R15*%
X148193600Y-81088600D03*
X148193600Y-79388600D03*
%TD*%
D21*
%TO.C,R54*%
X139201100Y-140881100D03*
X137501100Y-140881100D03*
%TD*%
D29*
%TO.C,IC10*%
X159941100Y-138718600D03*
X161211100Y-138718600D03*
X162481100Y-138718600D03*
X163751100Y-138718600D03*
X163751100Y-133518600D03*
X162481100Y-133518600D03*
X161211100Y-133518600D03*
X159941100Y-133518600D03*
%TD*%
D44*
%TO.C,JP1*%
X185341100Y-133896100D03*
X182801100Y-133896100D03*
X185341100Y-136436100D03*
X182801100Y-136436100D03*
X185341100Y-138976100D03*
X182801100Y-138976100D03*
X185341100Y-141516100D03*
X182801100Y-141516100D03*
X185341100Y-144056100D03*
X182801100Y-144056100D03*
%TD*%
D45*
%TO.C,JP2*%
X110730000Y-92120000D03*
X113270000Y-92120000D03*
X110730000Y-89580000D03*
X113270000Y-89580000D03*
X110730000Y-87040000D03*
X113270000Y-87040000D03*
X110730000Y-84500000D03*
X113270000Y-84500000D03*
X110730000Y-81960000D03*
X113270000Y-81960000D03*
%TD*%
M02*
