M48
; DRILL file {KiCad (6.0.11-0)} date 2023 March 06, Monday 23:16:56
; FORMAT={-:-/ absolute / inch / decimal}
; #@! TF.CreationDate,2023-03-06T23:16:56+01:00
; #@! TF.GenerationSoftware,Kicad,Pcbnew,(6.0.11-0)
; #@! TF.FileFunction,Plated,1,2,PTH
FMAT,2
INCH
; #@! TA.AperFunction,Plated,PTH,ViaDrill
T1C0.0236
; #@! TA.AperFunction,Plated,PTH,ComponentDrill
T2C0.0315
; #@! TA.AperFunction,Plated,PTH,ComponentDrill
T3C0.0394
; #@! TA.AperFunction,Plated,PTH,ComponentDrill
T4C0.0400
; #@! TA.AperFunction,Plated,PTH,ComponentDrill
T5C0.0591
; #@! TA.AperFunction,Plated,PTH,ComponentDrill
T6C0.1102
%
G90
G05
T1
X4.3469Y-2.084
X4.3469Y-2.484
X4.3469Y-2.884
X4.3469Y-3.784
X4.3469Y-4.884
X4.3469Y-5.284
X4.3469Y-5.784
X4.3488Y-4.1289
X4.4488Y-4.4789
X4.4738Y-3.8242
X4.4738Y-4.0289
X4.4863Y-4.1289
X4.5469Y-6.184
X4.5594Y-2.284
X4.5844Y-2.8465
X4.6344Y-2.4715
X4.6654Y-3.3465
X4.6654Y-3.5827
X4.7244Y-3.3465
X4.7244Y-3.5827
X4.7344Y-2.559
X4.7469Y-4.384
X4.7594Y-5.309
X4.7821Y-3.584
X4.7835Y-3.3465
X4.7969Y-3.8189
X4.8344Y-2.209
X4.8344Y-2.4965
X4.8344Y-2.8965
X4.8425Y-3.3465
X4.8446Y-3.7393
X4.9007Y-3.5492
X4.9344Y-2.5215
X4.9344Y-2.8715
X4.9469Y-6.184
X4.9558Y-3.5384
X4.9719Y-4.2715
X4.9873Y-3.4281
X4.9969Y-5.009
X4.9969Y-5.209
X5.0219Y-4.134
X5.0219Y-4.3715
X5.0219Y-4.534
X5.0344Y-2.5465
X5.0344Y-2.8465
X5.0344Y-5.8715
X5.0391Y-3.4254
X5.0719Y-3.684
X5.0719Y-4.2715
X5.0844Y-4.1965
X5.0969Y-5.184
X5.1094Y-3.8965
X5.1219Y-3.359
X5.1219Y-3.7215
X5.1344Y-2.5715
X5.1344Y-2.8215
X5.1594Y-2.209
X5.1719Y-3.134
X5.1719Y-3.2465
X5.1772Y-4.626
X5.1844Y-2.784
X5.1969Y-3.384
X5.2094Y-3.8965
X5.2094Y-4.9965
X5.2344Y-3.834
X5.2362Y-4.1043
X5.2362Y-4.626
X5.2594Y-4.809
X5.2594Y-5.559
X5.2719Y-3.884
X5.2844Y-2.759
X5.2844Y-4.9965
X5.2969Y-5.334
X5.3094Y-3.8465
X5.3344Y-2.5965
X5.3344Y-2.7965
X5.3445Y-3.248
X5.3469Y-6.184
X5.3469Y-4.1617
X5.3719Y-3.134
X5.3719Y-5.659
X5.3844Y-2.759
X5.3937Y-3.2677
X5.3969Y-4.9965
X5.4035Y-3.5039
X5.4094Y-3.6465
X5.4469Y-2.084
X5.4469Y-4.284
X5.4469Y-5.884
X5.4594Y-3.859
X5.4719Y-4.709
X5.5219Y-3.734
X5.5219Y-5.159
X5.5719Y-3.3965
X5.5719Y-4.8715
X5.5844Y-2.309
X5.5844Y-2.6465
X5.5844Y-5.3465
X5.6094Y-4.909
X5.6344Y-2.134
X5.6344Y-3.384
X5.6469Y-4.959
X5.6469Y-5.284
X5.6594Y-5.3715
X5.6719Y-4.509
X5.6844Y-2.6715
X5.6844Y-3.534
X5.6969Y-3.909
X5.6969Y-4.984
X5.7219Y-3.484
X5.7219Y-4.309
X5.7219Y-5.3215
X5.7344Y-3.559
X5.7344Y-5.159
X5.7469Y-4.6715
X5.7469Y-4.759
X5.7469Y-5.484
X5.7469Y-6.184
X5.7844Y-3.059
X5.7844Y-3.2715
X5.7969Y-4.509
X5.8094Y-5.1965
X5.8469Y-4.309
X5.8594Y-3.3715
X5.8594Y-3.509
X5.8594Y-4.859
X5.8844Y-2.309
X5.8844Y-2.6965
X5.8844Y-3.059
X5.8844Y-3.2965
X5.8844Y-5.259
X5.8969Y-3.4715
X5.8969Y-4.6715
X5.8969Y-4.759
X5.9469Y-3.4465
X5.9469Y-4.309
X5.9469Y-4.634
X5.9719Y-5.3715
X5.9844Y-2.309
X5.9844Y-2.7215
X5.9844Y-3.059
X5.9844Y-3.334
X5.9969Y-3.884
X6.0344Y-4.6715
X6.0469Y-3.3965
X6.0469Y-5.684
X6.0594Y-4.159
X6.0844Y-2.309
X6.0844Y-3.059
X6.1094Y-4.659
X6.1094Y-5.0715
X6.1219Y-3.2715
X6.1469Y-2.084
X6.1469Y-6.184
X6.1594Y-5.184
X6.1844Y-2.309
X6.1844Y-2.5965
X6.1844Y-3.059
X6.2344Y-2.7215
X6.2598Y-3.1102
X6.2719Y-5.0465
X6.2969Y-3.6465
X6.2969Y-4.784
X6.3219Y-4.309
X6.3219Y-4.559
X6.3344Y-2.809
X6.3344Y-4.834
X6.3469Y-3.9965
X6.3469Y-4.9215
X6.4219Y-3.159
X6.4219Y-5.384
X6.4719Y-3.1215
X6.5094Y-2.409
X6.5094Y-5.5965
X6.5219Y-3.159
X6.5219Y-4.134
X6.5344Y-3.6215
X6.5344Y-4.6465
X6.5469Y-2.084
X6.5469Y-6.184
X6.5594Y-2.584
X6.5656Y-3.8778
X6.5844Y-2.4965
X6.5844Y-3.584
X6.5844Y-4.859
X6.5969Y-5.1215
X6.6094Y-3.1465
X6.6219Y-3.334
X6.6219Y-4.3215
X6.6219Y-5.4715
X6.6344Y-3.6715
X6.6344Y-5.559
X6.6469Y-4.609
X6.6594Y-3.0965
X6.6844Y-3.484
X6.6844Y-4.3965
X6.6969Y-4.909
X6.7094Y-2.9715
X6.7219Y-3.434
X6.7219Y-4.0715
X6.7344Y-4.134
X6.7344Y-4.434
X6.7469Y-5.4715
X6.7594Y-5.884
X6.7717Y-3.1102
X6.7719Y-4.484
X6.8094Y-4.1715
X6.8094Y-4.5465
X6.8344Y-5.2715
X6.8594Y-4.584
X6.8719Y-3.1215
X6.8719Y-3.6465
X6.8969Y-3.8465
X6.9219Y-3.159
X6.9219Y-5.884
X6.9469Y-2.084
X6.9469Y-3.6715
X6.9469Y-4.1465
X6.9469Y-6.184
X6.9594Y-4.3965
X6.9719Y-3.1215
X6.9969Y-3.6465
X6.9969Y-3.8465
X7.0219Y-2.909
X7.0219Y-3.159
X7.0219Y-3.3965
X7.0219Y-5.7465
X7.0344Y-4.509
X7.1219Y-3.384
X7.1719Y-4.559
X7.1844Y-5.134
X7.2594Y-3.8465
X7.3469Y-2.084
X7.3469Y-2.484
X7.3469Y-2.884
X7.3469Y-3.284
X7.3469Y-3.684
X7.3469Y-4.084
X7.3469Y-4.484
X7.3469Y-4.884
X7.3469Y-6.184
T2
X4.5344Y-2.384
X4.5344Y-2.984
X4.6344Y-2.384
X4.6344Y-2.984
X4.7344Y-2.384
X4.7344Y-2.984
X4.8344Y-2.384
X4.8344Y-2.984
X4.9344Y-2.384
X4.9344Y-2.984
X5.0344Y-2.384
X5.0344Y-2.984
X5.1344Y-2.384
X5.1344Y-2.984
X5.2344Y-2.384
X5.2344Y-2.984
X5.3344Y-2.384
X5.3344Y-2.984
X5.5344Y-2.384
X5.5344Y-2.984
X5.6344Y-2.384
X5.6344Y-2.984
X5.7344Y-2.384
X5.7344Y-2.984
X5.8344Y-2.384
X5.8344Y-2.984
X5.9344Y-2.384
X5.9344Y-2.984
X6.0344Y-2.384
X6.0344Y-2.984
X6.1344Y-2.384
X6.1344Y-2.984
X6.2344Y-2.384
X6.2344Y-2.984
X6.3344Y-2.384
X6.3344Y-2.984
T3
X4.6985Y-4.0346
X4.6985Y-5.0846
X4.7969Y-4.0346
X4.7969Y-5.0846
X4.8953Y-4.0346
X4.8953Y-5.0846
X5.7485Y-4.0346
X5.7485Y-5.0846
X5.8469Y-4.0346
X5.8469Y-5.0846
X5.9453Y-4.0346
X5.9453Y-5.0846
X6.7985Y-2.4084
X6.7985Y-2.9793
X6.7985Y-4.0346
X6.7985Y-5.0846
X6.8969Y-2.9793
X6.8969Y-4.0346
X6.8969Y-5.0846
X6.9953Y-2.4084
X6.9953Y-2.9793
X6.9953Y-4.0346
X6.9953Y-5.0846
T4
X4.3594Y-3.2268
X4.3594Y-3.3268
X4.3594Y-3.4268
X4.3594Y-3.5268
X4.3594Y-3.6268
X4.3719Y-5.984
X4.4594Y-3.2268
X4.4594Y-3.3268
X4.4594Y-3.4268
X4.4594Y-3.5268
X4.4594Y-3.6268
X4.6719Y-5.984
X4.7719Y-5.984
X4.8719Y-5.984
X5.1719Y-5.984
X5.2719Y-5.984
X5.3719Y-5.984
X5.6719Y-5.984
X5.7719Y-5.984
X5.8719Y-5.984
X6.1719Y-5.984
X6.2719Y-5.984
X6.3719Y-5.984
X6.6719Y-5.984
X6.7719Y-5.984
X6.9219Y-5.984
X7.0219Y-5.984
X7.1969Y-5.2715
X7.1969Y-5.3715
X7.1969Y-5.4715
X7.1969Y-5.5715
X7.1969Y-5.6715
X7.2969Y-5.2715
X7.2969Y-5.3715
X7.2969Y-5.4715
X7.2969Y-5.5715
X7.2969Y-5.6715
X7.3219Y-5.984
T5
X4.6119Y-3.759
X4.6119Y-4.809
X4.9819Y-3.759
X4.9819Y-4.809
X5.6619Y-3.759
X5.6619Y-4.809
X6.0319Y-3.759
X6.0319Y-4.809
X6.7119Y-3.759
X6.7119Y-4.809
X7.0819Y-3.759
X7.0819Y-4.809
T6
X6.704Y-2.684
X7.0898Y-2.684
T0
M30
