%TF.GenerationSoftware,KiCad,Pcbnew,(6.0.11-0)*%
%TF.CreationDate,2023-03-06T23:39:12+01:00*%
%TF.ProjectId,braids,62726169-6473-42e6-9b69-6361645f7063,rev?*%
%TF.SameCoordinates,Original*%
%TF.FileFunction,Soldermask,Bot*%
%TF.FilePolarity,Negative*%
%FSLAX46Y46*%
G04 Gerber Fmt 4.6, Leading zero omitted, Abs format (unit mm)*
G04 Created by KiCad (PCBNEW (6.0.11-0)) date 2023-03-06 23:39:12*
%MOMM*%
%LPD*%
G01*
G04 APERTURE LIST*
G04 Aperture macros list*
%AMRoundRect*
0 Rectangle with rounded corners*
0 $1 Rounding radius*
0 $2 $3 $4 $5 $6 $7 $8 $9 X,Y pos of 4 corners*
0 Add a 4 corners polygon primitive as box body*
4,1,4,$2,$3,$4,$5,$6,$7,$8,$9,$2,$3,0*
0 Add four circle primitives for the rounded corners*
1,1,$1+$1,$2,$3*
1,1,$1+$1,$4,$5*
1,1,$1+$1,$6,$7*
1,1,$1+$1,$8,$9*
0 Add four rect primitives between the rounded corners*
20,1,$1+$1,$2,$3,$4,$5,0*
20,1,$1+$1,$4,$5,$6,$7,0*
20,1,$1+$1,$6,$7,$8,$9,0*
20,1,$1+$1,$8,$9,$2,$3,0*%
%AMFreePoly0*
4,1,25,0.575031,1.328373,0.579933,1.323882,1.323882,0.579933,1.345910,0.532692,1.346200,0.526051,1.346200,-0.526051,1.328373,-0.575031,1.323882,-0.579933,0.579933,-1.323882,0.532692,-1.345910,0.526051,-1.346200,-0.526051,-1.346200,-0.575031,-1.328373,-0.579933,-1.323882,-1.323882,-0.579933,-1.345910,-0.532692,-1.346200,-0.526051,-1.346200,0.526051,-1.328373,0.575031,-1.323882,0.579933,
-0.579933,1.323882,-0.532692,1.345910,-0.526051,1.346200,0.526051,1.346200,0.575031,1.328373,0.575031,1.328373,$1*%
%AMFreePoly1*
4,1,25,0.417216,0.947373,0.422118,0.942882,0.942882,0.422118,0.964910,0.374877,0.965200,0.368236,0.965200,-0.368236,0.947373,-0.417216,0.942882,-0.422118,0.422118,-0.942882,0.374877,-0.964910,0.368236,-0.965200,-0.368236,-0.965200,-0.417216,-0.947373,-0.422118,-0.942882,-0.942882,-0.422118,-0.964910,-0.374877,-0.965200,-0.368236,-0.965200,0.368236,-0.947373,0.417216,-0.942882,0.422118,
-0.422118,0.942882,-0.374877,0.964910,-0.368236,0.965200,0.368236,0.965200,0.417216,0.947373,0.417216,0.947373,$1*%
%AMFreePoly2*
4,1,25,0.839299,1.966373,0.844201,1.961882,1.961882,0.844201,1.983910,0.796960,1.984200,0.790319,1.984200,-0.790319,1.966373,-0.839299,1.961882,-0.844201,0.844201,-1.961882,0.796960,-1.983910,0.790319,-1.984200,-0.790319,-1.984200,-0.839299,-1.966373,-0.844201,-1.961882,-1.961882,-0.844201,-1.983910,-0.796960,-1.984200,-0.790319,-1.984200,0.790319,-1.966373,0.839299,-1.961882,0.844201,
-0.844201,1.961882,-0.796960,1.983910,-0.790319,1.984200,0.790319,1.984200,0.839299,1.966373,0.839299,1.966373,$1*%
%AMFreePoly3*
4,1,25,0.438258,0.998173,0.443160,0.993682,0.993682,0.443160,1.015710,0.395919,1.016000,0.389278,1.016000,-0.389278,0.998173,-0.438258,0.993682,-0.443160,0.443160,-0.993682,0.395919,-1.015710,0.389278,-1.016000,-0.389278,-1.016000,-0.438258,-0.998173,-0.443160,-0.993682,-0.993682,-0.443160,-1.015710,-0.395919,-1.016000,-0.389278,-1.016000,0.389278,-0.998173,0.438258,-0.993682,0.443160,
-0.443160,0.993682,-0.395919,1.015710,-0.389278,1.016000,0.389278,1.016000,0.438258,0.998173,0.438258,0.998173,$1*%
G04 Aperture macros list end*
%ADD10RoundRect,0.076200X0.939800X-0.939800X0.939800X0.939800X-0.939800X0.939800X-0.939800X-0.939800X0*%
%ADD11FreePoly0,90.000000*%
%ADD12C,2.200000*%
%ADD13FreePoly1,90.000000*%
%ADD14RoundRect,0.076200X-0.750000X-0.750000X0.750000X-0.750000X0.750000X0.750000X-0.750000X0.750000X0*%
%ADD15FreePoly2,0.000000*%
%ADD16C,1.574800*%
%ADD17FreePoly1,270.000000*%
%ADD18FreePoly3,270.000000*%
%ADD19FreePoly3,90.000000*%
G04 APERTURE END LIST*
D10*
%TO.C,R19*%
X124341100Y-102478600D03*
X121841100Y-102478600D03*
X119341100Y-102478600D03*
D11*
X126541100Y-95478600D03*
X117141100Y-95478600D03*
%TD*%
D10*
%TO.C,R36*%
X124341100Y-129148600D03*
X121841100Y-129148600D03*
X119341100Y-129148600D03*
D11*
X126541100Y-122148600D03*
X117141100Y-122148600D03*
%TD*%
D12*
%TO.C,J4*%
X153591100Y-151993600D03*
D13*
X159306100Y-151993600D03*
X156766100Y-151993600D03*
X149146100Y-151993600D03*
%TD*%
D12*
%TO.C,J3*%
X140891100Y-151993600D03*
D13*
X146606100Y-151993600D03*
X144066100Y-151993600D03*
X136446100Y-151993600D03*
%TD*%
D12*
%TO.C,J5*%
X166291100Y-151993600D03*
D13*
X172006100Y-151993600D03*
X169466100Y-151993600D03*
X161846100Y-151993600D03*
%TD*%
D12*
%TO.C,J1*%
X115491100Y-151993600D03*
D13*
X121206100Y-151993600D03*
X118666100Y-151993600D03*
X111046100Y-151993600D03*
%TD*%
D12*
%TO.C,J2*%
X128191100Y-151993600D03*
D13*
X133906100Y-151993600D03*
X131366100Y-151993600D03*
X123746100Y-151993600D03*
%TD*%
D14*
%TO.C,SW1*%
X172681100Y-75673600D03*
X177681100Y-75673600D03*
X175181100Y-75673600D03*
X172681100Y-61173600D03*
X177681100Y-61173600D03*
D15*
X170281100Y-68173600D03*
X180081100Y-68173600D03*
%TD*%
D10*
%TO.C,R20*%
X151011100Y-102478600D03*
X148511100Y-102478600D03*
X146011100Y-102478600D03*
D11*
X153211100Y-95478600D03*
X143811100Y-95478600D03*
%TD*%
D16*
%TO.C,DISP1*%
X115173600Y-75793600D03*
X117713600Y-75793600D03*
X120253600Y-75793600D03*
X122793600Y-75793600D03*
X125333600Y-75793600D03*
X127873600Y-75793600D03*
X130413600Y-75793600D03*
X132953600Y-75793600D03*
X135493600Y-75793600D03*
X135493600Y-60553600D03*
X132953600Y-60553600D03*
X130413600Y-60553600D03*
X127873600Y-60553600D03*
X125333600Y-60553600D03*
X122793600Y-60553600D03*
X120253600Y-60553600D03*
X117713600Y-60553600D03*
X115173600Y-60553600D03*
%TD*%
D10*
%TO.C,R38*%
X177681100Y-129148600D03*
X175181100Y-129148600D03*
X172681100Y-129148600D03*
D11*
X179881100Y-122148600D03*
X170481100Y-122148600D03*
%TD*%
D10*
%TO.C,R37*%
X151011100Y-129148600D03*
X148511100Y-129148600D03*
X146011100Y-129148600D03*
D11*
X153211100Y-122148600D03*
X143811100Y-122148600D03*
%TD*%
D10*
%TO.C,R21*%
X177681100Y-102478600D03*
X175181100Y-102478600D03*
X172681100Y-102478600D03*
D11*
X179881100Y-95478600D03*
X170481100Y-95478600D03*
%TD*%
D12*
%TO.C,J6*%
X181531100Y-151993600D03*
D17*
X175816100Y-151993600D03*
X178356100Y-151993600D03*
X185976100Y-151993600D03*
%TD*%
D16*
%TO.C,DISP2*%
X140573600Y-75793600D03*
X143113600Y-75793600D03*
X145653600Y-75793600D03*
X148193600Y-75793600D03*
X150733600Y-75793600D03*
X153273600Y-75793600D03*
X155813600Y-75793600D03*
X158353600Y-75793600D03*
X160893600Y-75793600D03*
X160893600Y-60553600D03*
X158353600Y-60553600D03*
X155813600Y-60553600D03*
X153273600Y-60553600D03*
X150733600Y-60553600D03*
X148193600Y-60553600D03*
X145653600Y-60553600D03*
X143113600Y-60553600D03*
X140573600Y-60553600D03*
%TD*%
D18*
%TO.C,JP1*%
X185341100Y-133896100D03*
X182801100Y-133896100D03*
X185341100Y-136436100D03*
X182801100Y-136436100D03*
X185341100Y-138976100D03*
X182801100Y-138976100D03*
X185341100Y-141516100D03*
X182801100Y-141516100D03*
X185341100Y-144056100D03*
X182801100Y-144056100D03*
%TD*%
D19*
%TO.C,JP2*%
X110730000Y-92120000D03*
X113270000Y-92120000D03*
X110730000Y-89580000D03*
X113270000Y-89580000D03*
X110730000Y-87040000D03*
X113270000Y-87040000D03*
X110730000Y-84500000D03*
X113270000Y-84500000D03*
X110730000Y-81960000D03*
X113270000Y-81960000D03*
%TD*%
M02*
