M48
; DRILL file {KiCad (6.0.11-0)} date 2023 April 29, Saturday 13:53:27
; FORMAT={-:-/ absolute / inch / decimal}
; #@! TF.CreationDate,2023-04-29T13:53:27+02:00
; #@! TF.GenerationSoftware,Kicad,Pcbnew,(6.0.11-0)
; #@! TF.FileFunction,Plated,1,2,PTH
FMAT,2
INCH
; #@! TA.AperFunction,Plated,PTH,ViaDrill
T1C0.0236
; #@! TA.AperFunction,Plated,PTH,ComponentDrill
T2C0.0240
; #@! TA.AperFunction,Plated,PTH,ComponentDrill
T3C0.0276
; #@! TA.AperFunction,Plated,PTH,ComponentDrill
T4C0.0394
; #@! TA.AperFunction,Plated,PTH,ComponentDrill
T5C0.0400
; #@! TA.AperFunction,Plated,PTH,ComponentDrill
T6C0.0591
; #@! TA.AperFunction,Plated,PTH,ComponentDrill
T7C0.0866
%
G90
G05
T1
X4.534Y-2.234
X4.534Y-2.459
X4.534Y-2.534
X4.534Y-2.609
X4.534Y-2.684
X4.534Y-2.759
X4.534Y-2.834
X4.534Y-3.3215
X4.534Y-3.834
X4.534Y-4.034
X4.534Y-4.434
X4.534Y-5.634
X4.534Y-6.034
X4.584Y-2.309
X4.634Y-2.759
X4.634Y-2.834
X4.684Y-3.834
X4.684Y-4.234
X4.684Y-6.184
X4.6965Y-2.759
X4.6965Y-2.834
X4.7215Y-2.4215
X4.7215Y-3.459
X4.734Y-2.084
X4.759Y-2.834
X4.759Y-4.959
X4.7715Y-5.659
X4.809Y-3.7965
X4.884Y-4.634
X4.884Y-4.6965
X4.8965Y-2.734
X4.8965Y-3.409
X4.8965Y-3.559
X4.909Y-3.359
X4.909Y-4.859
X4.959Y-4.159
X4.984Y-3.709
X4.984Y-5.434
X4.9965Y-3.1215
X5.009Y-2.5715
X5.009Y-2.7965
X5.009Y-3.3715
X5.009Y-4.534
X5.034Y-2.7465
X5.034Y-3.809
X5.084Y-5.384
X5.084Y-6.009
X5.0965Y-2.609
X5.134Y-4.959
X5.2215Y-3.984
X5.2465Y-2.609
X5.284Y-2.784
X5.284Y-2.859
X5.2965Y-3.3715
X5.309Y-4.259
X5.309Y-4.534
X5.3215Y-3.7965
X5.334Y-3.4715
X5.334Y-4.0215
X5.384Y-2.609
X5.384Y-3.034
X5.384Y-3.5715
X5.384Y-3.7715
X5.384Y-4.259
X5.434Y-4.0215
X5.484Y-6.184
X5.5215Y-2.834
X5.534Y-2.609
X5.5465Y-3.409
X5.5715Y-3.1965
X5.5715Y-3.9965
X5.5715Y-4.4965
X5.584Y-5.034
X5.584Y-5.1965
X5.584Y-5.384
X5.584Y-6.009
X5.5965Y-2.9965
X5.634Y-2.8465
X5.684Y-3.084
X5.684Y-3.334
X5.6965Y-4.534
X5.734Y-3.159
X5.734Y-4.684
X5.7465Y-3.284
X5.759Y-2.559
X5.759Y-3.634
X5.759Y-4.534
X5.784Y-3.2215
X5.8153Y-3.3277
X5.834Y-3.0465
X5.834Y-3.534
X5.834Y-3.8215
X5.834Y-4.084
X5.8465Y-2.884
X5.8465Y-3.284
X5.859Y-2.7965
X5.859Y-3.634
X5.8715Y-3.0965
X5.884Y-3.5215
X5.884Y-4.734
X5.909Y-3.1965
X5.9215Y-2.734
X5.9215Y-3.659
X5.934Y-3.259
X5.9465Y-3.009
X5.9715Y-2.7965
X5.9715Y-3.3465
X5.9715Y-3.9215
X6.009Y-3.109
X6.009Y-4.584
X6.0215Y-3.059
X6.034Y-3.159
X6.0465Y-2.934
X6.059Y-2.584
X6.059Y-4.6215
X6.109Y-3.4965
X6.109Y-3.659
X6.109Y-5.034
X6.109Y-5.184
X6.109Y-5.384
X6.1465Y-3.534
X6.1965Y-2.234
X6.209Y-2.4715
X6.2215Y-3.0215
X6.2215Y-3.3715
X6.259Y-3.709
X6.2715Y-3.159
X6.309Y-4.334
X6.3215Y-3.2215
X6.3215Y-3.7715
X6.3465Y-3.834
X6.359Y-2.6965
X6.384Y-2.859
X6.384Y-2.9965
X6.384Y-3.8715
X6.384Y-4.3215
X6.3965Y-3.709
X6.434Y-3.009
X6.459Y-2.534
X6.459Y-4.709
X6.484Y-3.0215
X6.484Y-6.184
X6.534Y-2.6965
X6.5715Y-4.5621
X6.584Y-4.259
X6.584Y-6.009
X6.609Y-3.484
X6.609Y-5.034
X6.609Y-5.184
X6.609Y-5.384
X6.634Y-3.834
X6.684Y-3.234
X6.6965Y-4.359
X6.709Y-3.284
X6.734Y-2.784
X6.734Y-3.3965
X6.734Y-3.5965
X6.734Y-4.084
X6.734Y-4.509
X6.784Y-3.1465
X6.784Y-3.784
X6.784Y-4.8965
X6.8028Y-4.8215
X6.809Y-3.2215
X6.809Y-4.7527
X6.834Y-4.3965
X6.834Y-4.9215
X6.859Y-2.6965
X6.859Y-4.8465
X6.884Y-3.3965
X6.884Y-4.434
X6.884Y-4.9465
X6.8965Y-3.334
X6.8965Y-3.7715
X6.8965Y-3.8465
X6.934Y-2.084
X6.934Y-4.3965
X6.934Y-4.9715
X6.934Y-5.534
X6.934Y-5.7215
X6.9465Y-3.2715
X6.9465Y-3.5965
X6.959Y-3.334
X6.984Y-5.384
X7.009Y-5.5215
X7.009Y-5.6215
X7.009Y-5.7465
X7.084Y-3.3465
X7.109Y-3.2965
X7.1465Y-3.234
X7.159Y-2.234
X7.159Y-6.034
T2
X6.3465Y-3.359
X6.3465Y-3.409
X6.3465Y-3.459
X6.3465Y-3.509
X6.3465Y-3.559
X6.3965Y-3.359
X6.3965Y-3.409
X6.3965Y-3.459
X6.3965Y-3.509
X6.3965Y-3.559
T3
X4.9965Y-2.1678
X4.9965Y-2.2465
X4.9965Y-2.3252
X6.6965Y-2.1678
X6.6965Y-2.2465
X6.6965Y-2.3252
T4
X4.7231Y-5.0478
X4.8106Y-4.2721
X4.8215Y-5.0478
X4.909Y-4.2721
X4.9199Y-5.0478
X5.0074Y-4.2721
X5.0981Y-3.2021
X5.1965Y-3.2021
X5.2356Y-5.0478
X5.2949Y-3.2021
X5.334Y-5.0478
X5.4324Y-5.0478
X5.7481Y-4.2721
X5.7481Y-5.0478
X5.8465Y-4.2721
X5.8465Y-5.0478
X5.9449Y-4.2721
X5.9449Y-5.0478
X6.2606Y-5.0478
X6.359Y-5.0478
X6.3981Y-3.2021
X6.4574Y-5.0478
X6.4965Y-3.2021
X6.5949Y-3.2021
X6.6856Y-4.2721
X6.7731Y-5.0478
X6.784Y-4.2721
X6.8715Y-5.0478
X6.8824Y-4.2721
X6.9699Y-5.0478
T5
X4.6575Y-2.1185
X4.6575Y-2.3745
X4.8215Y-5.184
X4.8215Y-5.284
X4.8215Y-5.584
X4.8215Y-5.759
X4.8215Y-5.859
X4.8215Y-6.159
X4.8355Y-2.1185
X4.8355Y-2.3745
X5.334Y-5.184
X5.334Y-5.284
X5.334Y-5.584
X5.334Y-5.759
X5.334Y-5.859
X5.334Y-6.159
X5.409Y-2.1715
X5.409Y-2.2715
X5.509Y-2.1715
X5.509Y-2.2715
X5.609Y-2.1715
X5.609Y-2.2715
X5.709Y-2.1715
X5.709Y-2.2715
X5.809Y-2.1715
X5.809Y-2.2715
X5.8465Y-5.184
X5.8465Y-5.284
X5.8465Y-5.584
X5.8465Y-5.759
X5.8465Y-5.859
X5.8465Y-6.159
X6.359Y-5.184
X6.359Y-5.284
X6.359Y-5.584
X6.359Y-5.759
X6.359Y-5.859
X6.359Y-6.159
X6.8575Y-2.1185
X6.8575Y-2.3745
X6.8715Y-5.184
X6.8715Y-5.284
X6.8715Y-5.584
X6.8715Y-5.759
X6.8715Y-5.859
X6.8715Y-6.159
X7.0355Y-2.1185
X7.0355Y-2.3745
X7.0715Y-2.5215
X7.0715Y-2.6215
X7.0715Y-2.7215
X7.0715Y-2.8215
X7.0715Y-2.9215
X7.0715Y-3.0215
T6
X4.724Y-3.9965
X5.0115Y-2.9265
X5.094Y-3.9965
X5.3815Y-2.9265
X5.6615Y-3.9965
X6.0315Y-3.9965
X6.3115Y-2.9265
X6.599Y-3.9965
X6.6815Y-2.9265
X6.969Y-3.9965
T7
X4.6483Y-4.784
X4.9947Y-4.784
X5.1608Y-4.784
X5.5072Y-4.784
X5.6733Y-4.784
X6.0197Y-4.784
X6.1858Y-4.784
X6.5322Y-4.784
X6.6983Y-4.784
X7.0447Y-4.784
T0
M30
