%TF.GenerationSoftware,KiCad,Pcbnew,(6.0.11-0)*%
%TF.CreationDate,2023-04-29T13:53:26+02:00*%
%TF.ProjectId,rings,72696e67-732e-46b6-9963-61645f706362,rev?*%
%TF.SameCoordinates,Original*%
%TF.FileFunction,Legend,Top*%
%TF.FilePolarity,Positive*%
%FSLAX46Y46*%
G04 Gerber Fmt 4.6, Leading zero omitted, Abs format (unit mm)*
G04 Created by KiCad (PCBNEW (6.0.11-0)) date 2023-04-29 13:53:26*
%MOMM*%
%LPD*%
G01*
G04 APERTURE LIST*
G04 Aperture macros list*
%AMRoundRect*
0 Rectangle with rounded corners*
0 $1 Rounding radius*
0 $2 $3 $4 $5 $6 $7 $8 $9 X,Y pos of 4 corners*
0 Add a 4 corners polygon primitive as box body*
4,1,4,$2,$3,$4,$5,$6,$7,$8,$9,$2,$3,0*
0 Add four circle primitives for the rounded corners*
1,1,$1+$1,$2,$3*
1,1,$1+$1,$4,$5*
1,1,$1+$1,$6,$7*
1,1,$1+$1,$8,$9*
0 Add four rect primitives between the rounded corners*
20,1,$1+$1,$2,$3,$4,$5,0*
20,1,$1+$1,$4,$5,$6,$7,0*
20,1,$1+$1,$6,$7,$8,$9,0*
20,1,$1+$1,$8,$9,$2,$3,0*%
%AMFreePoly0*
4,1,25,0.269922,0.591773,0.274824,0.587282,0.587282,0.274824,0.609310,0.227583,0.609600,0.220942,0.609600,-0.220942,0.591773,-0.269922,0.587282,-0.274824,0.274824,-0.587282,0.227583,-0.609310,0.220942,-0.609600,-0.220942,-0.609600,-0.269922,-0.591773,-0.274824,-0.587282,-0.587282,-0.274824,-0.609310,-0.227583,-0.609600,-0.220942,-0.609600,0.220942,-0.591773,0.269922,-0.587282,0.274824,
-0.274824,0.587282,-0.227583,0.609310,-0.220942,0.609600,0.220942,0.609600,0.269922,0.591773,0.269922,0.591773,$1*%
%AMFreePoly1*
4,1,25,0.438258,0.998173,0.443160,0.993682,0.993682,0.443160,1.015710,0.395919,1.016000,0.389278,1.016000,-0.389278,0.998173,-0.438258,0.993682,-0.443160,0.443160,-0.993682,0.395919,-1.015710,0.389278,-1.016000,-0.389278,-1.016000,-0.438258,-0.998173,-0.443160,-0.993682,-0.993682,-0.443160,-1.015710,-0.395919,-1.016000,-0.389278,-1.016000,0.389278,-0.998173,0.438258,-0.993682,0.443160,
-0.443160,0.993682,-0.395919,1.015710,-0.389278,1.016000,0.389278,1.016000,0.438258,0.998173,0.438258,0.998173,$1*%
%AMFreePoly2*
4,1,25,0.706544,1.645873,0.711446,1.641382,1.641382,0.711446,1.663410,0.664205,1.663700,0.657564,1.663700,-0.657564,1.645873,-0.706544,1.641382,-0.711446,0.711446,-1.641382,0.664205,-1.663410,0.657564,-1.663700,-0.657564,-1.663700,-0.706544,-1.645873,-0.711446,-1.641382,-1.641382,-0.711446,-1.663410,-0.664205,-1.663700,-0.657564,-1.663700,0.657564,-1.645873,0.706544,-1.641382,0.711446,
-0.711446,1.641382,-0.664205,1.663410,-0.657564,1.663700,0.657564,1.663700,0.706544,1.645873,0.706544,1.645873,$1*%
%AMFreePoly3*
4,1,25,0.417216,0.947373,0.422118,0.942882,0.942882,0.422118,0.964910,0.374877,0.965200,0.368236,0.965200,-0.368236,0.947373,-0.417216,0.942882,-0.422118,0.422118,-0.942882,0.374877,-0.964910,0.368236,-0.965200,-0.368236,-0.965200,-0.417216,-0.947373,-0.422118,-0.942882,-0.942882,-0.422118,-0.964910,-0.374877,-0.965200,-0.368236,-0.965200,0.368236,-0.947373,0.417216,-0.942882,0.422118,
-0.422118,0.942882,-0.374877,0.964910,-0.368236,0.965200,0.368236,0.965200,0.417216,0.947373,0.417216,0.947373,$1*%
%AMFreePoly4*
4,1,25,0.575031,1.328373,0.579933,1.323882,1.323882,0.579933,1.345910,0.532692,1.346200,0.526051,1.346200,-0.526051,1.328373,-0.575031,1.323882,-0.579933,0.579933,-1.323882,0.532692,-1.345910,0.526051,-1.346200,-0.526051,-1.346200,-0.575031,-1.328373,-0.579933,-1.323882,-1.323882,-0.579933,-1.345910,-0.532692,-1.346200,-0.526051,-1.346200,0.526051,-1.328373,0.575031,-1.323882,0.579933,
-0.579933,1.323882,-0.532692,1.345910,-0.526051,1.346200,0.526051,1.346200,0.575031,1.328373,0.575031,1.328373,$1*%
G04 Aperture macros list end*
%ADD10C,0.162560*%
%ADD11C,0.266700*%
%ADD12C,0.091440*%
%ADD13C,0.114300*%
%ADD14C,0.093472*%
%ADD15C,0.167640*%
%ADD16C,0.159385*%
%ADD17C,0.074778*%
%ADD18C,0.175260*%
%ADD19C,0.193993*%
%ADD20C,0.044867*%
%ADD21C,0.059822*%
%ADD22C,0.108585*%
%ADD23C,0.029911*%
%ADD24C,0.050800*%
%ADD25C,0.152400*%
%ADD26C,0.127000*%
%ADD27C,0.101600*%
%ADD28C,0.203200*%
%ADD29C,0.070000*%
%ADD30C,0.375000*%
%ADD31RoundRect,0.076200X-2.667000X-0.965200X2.667000X-0.965200X2.667000X0.965200X-2.667000X0.965200X0*%
%ADD32RoundRect,0.076200X-0.500000X0.550000X-0.500000X-0.550000X0.500000X-0.550000X0.500000X0.550000X0*%
%ADD33RoundRect,0.076200X-0.600000X1.600000X-0.600000X-1.600000X0.600000X-1.600000X0.600000X1.600000X0*%
%ADD34RoundRect,0.076200X-0.500000X-0.550000X0.500000X-0.550000X0.500000X0.550000X-0.500000X0.550000X0*%
%ADD35RoundRect,0.076200X0.600000X-1.600000X0.600000X1.600000X-0.600000X1.600000X-0.600000X-1.600000X0*%
%ADD36RoundRect,0.076200X0.500000X-0.550000X0.500000X0.550000X-0.500000X0.550000X-0.500000X-0.550000X0*%
%ADD37RoundRect,0.076200X0.550000X0.500000X-0.550000X0.500000X-0.550000X-0.500000X0.550000X-0.500000X0*%
%ADD38FreePoly0,270.000000*%
%ADD39RoundRect,0.076200X-0.550000X-0.500000X0.550000X-0.500000X0.550000X0.500000X-0.550000X0.500000X0*%
%ADD40RoundRect,0.076200X0.600000X-0.150000X0.600000X0.150000X-0.600000X0.150000X-0.600000X-0.150000X0*%
%ADD41RoundRect,0.076200X-0.150000X-0.600000X0.150000X-0.600000X0.150000X0.600000X-0.150000X0.600000X0*%
%ADD42RoundRect,0.076200X-0.600000X0.150000X-0.600000X-0.150000X0.600000X-0.150000X0.600000X0.150000X0*%
%ADD43RoundRect,0.076200X0.150000X0.600000X-0.150000X0.600000X-0.150000X-0.600000X0.150000X-0.600000X0*%
%ADD44RoundRect,0.076200X0.750000X-0.650000X0.750000X0.650000X-0.750000X0.650000X-0.750000X-0.650000X0*%
%ADD45RoundRect,0.076200X-0.650000X-0.750000X0.650000X-0.750000X0.650000X0.750000X-0.650000X0.750000X0*%
%ADD46C,2.032000*%
%ADD47RoundRect,0.076200X-0.330200X-1.016000X0.330200X-1.016000X0.330200X1.016000X-0.330200X1.016000X0*%
%ADD48RoundRect,0.076200X-0.550000X0.500000X-0.550000X-0.500000X0.550000X-0.500000X0.550000X0.500000X0*%
%ADD49RoundRect,0.076200X0.550000X-0.500000X0.550000X0.500000X-0.550000X0.500000X-0.550000X-0.500000X0*%
%ADD50RoundRect,0.076200X0.500000X0.550000X-0.500000X0.550000X-0.500000X-0.550000X0.500000X-0.550000X0*%
%ADD51RoundRect,0.076200X0.350000X0.500000X-0.350000X0.500000X-0.350000X-0.500000X0.350000X-0.500000X0*%
%ADD52RoundRect,0.076200X-1.500000X-0.700000X1.500000X-0.700000X1.500000X0.700000X-1.500000X0.700000X0*%
%ADD53RoundRect,0.076200X0.800000X-0.500000X0.800000X0.500000X-0.800000X0.500000X-0.800000X-0.500000X0*%
%ADD54RoundRect,0.076200X3.100000X-2.700000X3.100000X2.700000X-3.100000X2.700000X-3.100000X-2.700000X0*%
%ADD55RoundRect,0.076200X0.700000X-0.700000X0.700000X0.700000X-0.700000X0.700000X-0.700000X-0.700000X0*%
%ADD56RoundRect,0.076200X-0.700000X0.700000X-0.700000X-0.700000X0.700000X-0.700000X0.700000X0.700000X0*%
%ADD57FreePoly1,-0.000000*%
%ADD58RoundRect,0.076200X-0.952500X-0.190500X0.952500X-0.190500X0.952500X0.190500X-0.952500X0.190500X0*%
%ADD59RoundRect,0.076200X-0.425000X-0.350000X0.425000X-0.350000X0.425000X0.350000X-0.425000X0.350000X0*%
%ADD60RoundRect,0.076200X0.750000X-1.000000X0.750000X1.000000X-0.750000X1.000000X-0.750000X-1.000000X0*%
%ADD61RoundRect,0.076200X-1.100000X0.300000X-1.100000X-0.300000X1.100000X-0.300000X1.100000X0.300000X0*%
%ADD62FreePoly2,90.000000*%
%ADD63RoundRect,0.076200X0.939800X-0.939800X0.939800X0.939800X-0.939800X0.939800X-0.939800X-0.939800X0*%
%ADD64C,2.200000*%
%ADD65FreePoly3,180.000000*%
%ADD66FreePoly4,90.000000*%
%ADD67RoundRect,0.076200X0.901500X-0.800000X0.901500X0.800000X-0.901500X0.800000X-0.901500X-0.800000X0*%
%ADD68RoundRect,0.076200X0.700000X-1.500000X0.700000X1.500000X-0.700000X1.500000X-0.700000X-1.500000X0*%
%ADD69RoundRect,0.076200X1.300000X0.700000X-1.300000X0.700000X-1.300000X-0.700000X1.300000X-0.700000X0*%
%ADD70RoundRect,0.576200X0.000000X0.000000X0.000000X0.000000X0.000000X0.000000X0.000000X0.000000X0*%
%ADD71C,1.258800*%
%ADD72RoundRect,0.076200X-0.500000X0.175000X-0.500000X-0.175000X0.500000X-0.175000X0.500000X0.175000X0*%
%ADD73RoundRect,0.076200X0.500000X-0.175000X0.500000X0.175000X-0.500000X0.175000X-0.500000X-0.175000X0*%
%ADD74RoundRect,0.076200X-0.750000X1.000000X-0.750000X-1.000000X0.750000X-1.000000X0.750000X1.000000X0*%
%ADD75RoundRect,0.076200X-0.300000X-1.100000X0.300000X-1.100000X0.300000X1.100000X-0.300000X1.100000X0*%
%ADD76RoundRect,0.076200X-0.700000X0.500000X-0.700000X-0.500000X0.700000X-0.500000X0.700000X0.500000X0*%
%ADD77RoundRect,0.076200X0.500000X0.700000X-0.500000X0.700000X-0.500000X-0.700000X0.500000X-0.700000X0*%
%ADD78RoundRect,0.076200X-0.350000X0.425000X-0.350000X-0.425000X0.350000X-0.425000X0.350000X0.425000X0*%
%ADD79RoundRect,0.076200X0.317500X0.635000X-0.317500X0.635000X-0.317500X-0.635000X0.317500X-0.635000X0*%
G04 APERTURE END LIST*
D10*
X158817056Y-52656740D02*
X159101536Y-53063140D01*
X159304736Y-52656740D02*
X159304736Y-53510180D01*
X158979616Y-53510180D01*
X158898336Y-53469540D01*
X158857696Y-53428900D01*
X158817056Y-53347620D01*
X158817056Y-53225700D01*
X158857696Y-53144420D01*
X158898336Y-53103780D01*
X158979616Y-53063140D01*
X159304736Y-53063140D01*
X158451296Y-53103780D02*
X158166816Y-53103780D01*
X158044896Y-52656740D02*
X158451296Y-52656740D01*
X158451296Y-53510180D01*
X158044896Y-53510180D01*
X157719776Y-52697380D02*
X157597856Y-52656740D01*
X157394656Y-52656740D01*
X157313376Y-52697380D01*
X157272736Y-52738020D01*
X157232096Y-52819300D01*
X157232096Y-52900580D01*
X157272736Y-52981860D01*
X157313376Y-53022500D01*
X157394656Y-53063140D01*
X157557216Y-53103780D01*
X157638496Y-53144420D01*
X157679136Y-53185060D01*
X157719776Y-53266340D01*
X157719776Y-53347620D01*
X157679136Y-53428900D01*
X157638496Y-53469540D01*
X157557216Y-53510180D01*
X157354016Y-53510180D01*
X157232096Y-53469540D01*
X156866336Y-53103780D02*
X156581856Y-53103780D01*
X156459936Y-52656740D02*
X156866336Y-52656740D01*
X156866336Y-53510180D01*
X156459936Y-53510180D01*
X156216096Y-53510180D02*
X155728416Y-53510180D01*
X155972256Y-52656740D02*
X155972256Y-53510180D01*
X166965376Y-52697380D02*
X166843456Y-52656740D01*
X166640256Y-52656740D01*
X166558976Y-52697380D01*
X166518336Y-52738020D01*
X166477696Y-52819300D01*
X166477696Y-52900580D01*
X166518336Y-52981860D01*
X166558976Y-53022500D01*
X166640256Y-53063140D01*
X166802816Y-53103780D01*
X166884096Y-53144420D01*
X166924736Y-53185060D01*
X166965376Y-53266340D01*
X166965376Y-53347620D01*
X166924736Y-53428900D01*
X166884096Y-53469540D01*
X166802816Y-53510180D01*
X166599616Y-53510180D01*
X166477696Y-53469540D01*
X165949376Y-53063140D02*
X165949376Y-52656740D01*
X166233856Y-53510180D02*
X165949376Y-53063140D01*
X165664896Y-53510180D01*
X165421056Y-52697380D02*
X165299136Y-52656740D01*
X165095936Y-52656740D01*
X165014656Y-52697380D01*
X164974016Y-52738020D01*
X164933376Y-52819300D01*
X164933376Y-52900580D01*
X164974016Y-52981860D01*
X165014656Y-53022500D01*
X165095936Y-53063140D01*
X165258496Y-53103780D01*
X165339776Y-53144420D01*
X165380416Y-53185060D01*
X165421056Y-53266340D01*
X165421056Y-53347620D01*
X165380416Y-53428900D01*
X165339776Y-53469540D01*
X165258496Y-53510180D01*
X165055296Y-53510180D01*
X164933376Y-53469540D01*
X164283136Y-53103780D02*
X164161216Y-53063140D01*
X164120576Y-53022500D01*
X164079936Y-52941220D01*
X164079936Y-52819300D01*
X164120576Y-52738020D01*
X164161216Y-52697380D01*
X164242496Y-52656740D01*
X164567616Y-52656740D01*
X164567616Y-53510180D01*
X164283136Y-53510180D01*
X164201856Y-53469540D01*
X164161216Y-53428900D01*
X164120576Y-53347620D01*
X164120576Y-53266340D01*
X164161216Y-53185060D01*
X164201856Y-53144420D01*
X164283136Y-53103780D01*
X164567616Y-53103780D01*
X163551616Y-53510180D02*
X163389056Y-53510180D01*
X163307776Y-53469540D01*
X163226496Y-53388260D01*
X163185856Y-53225700D01*
X163185856Y-52941220D01*
X163226496Y-52778660D01*
X163307776Y-52697380D01*
X163389056Y-52656740D01*
X163551616Y-52656740D01*
X163632896Y-52697380D01*
X163714176Y-52778660D01*
X163754816Y-52941220D01*
X163754816Y-53225700D01*
X163714176Y-53388260D01*
X163632896Y-53469540D01*
X163551616Y-53510180D01*
X162657536Y-53510180D02*
X162494976Y-53510180D01*
X162413696Y-53469540D01*
X162332416Y-53388260D01*
X162291776Y-53225700D01*
X162291776Y-52941220D01*
X162332416Y-52778660D01*
X162413696Y-52697380D01*
X162494976Y-52656740D01*
X162657536Y-52656740D01*
X162738816Y-52697380D01*
X162820096Y-52778660D01*
X162860736Y-52941220D01*
X162860736Y-53225700D01*
X162820096Y-53388260D01*
X162738816Y-53469540D01*
X162657536Y-53510180D01*
X162047936Y-53510180D02*
X161560256Y-53510180D01*
X161804096Y-52656740D02*
X161804096Y-53510180D01*
D11*
X119735388Y-112234133D02*
X119231621Y-111514466D01*
X118871788Y-112234133D02*
X118871788Y-110722833D01*
X119447521Y-110722833D01*
X119591455Y-110794800D01*
X119663421Y-110866766D01*
X119735388Y-111010700D01*
X119735388Y-111226600D01*
X119663421Y-111370533D01*
X119591455Y-111442500D01*
X119447521Y-111514466D01*
X118871788Y-111514466D01*
X120383088Y-112234133D02*
X120383088Y-111226600D01*
X120383088Y-110722833D02*
X120311121Y-110794800D01*
X120383088Y-110866766D01*
X120455055Y-110794800D01*
X120383088Y-110722833D01*
X120383088Y-110866766D01*
X121102755Y-111226600D02*
X121102755Y-112234133D01*
X121102755Y-111370533D02*
X121174721Y-111298566D01*
X121318655Y-111226600D01*
X121534555Y-111226600D01*
X121678488Y-111298566D01*
X121750455Y-111442500D01*
X121750455Y-112234133D01*
X123117821Y-111226600D02*
X123117821Y-112450033D01*
X123045855Y-112593966D01*
X122973888Y-112665933D01*
X122829955Y-112737900D01*
X122614055Y-112737900D01*
X122470121Y-112665933D01*
X123117821Y-112162166D02*
X122973888Y-112234133D01*
X122686021Y-112234133D01*
X122542088Y-112162166D01*
X122470121Y-112090200D01*
X122398155Y-111946266D01*
X122398155Y-111514466D01*
X122470121Y-111370533D01*
X122542088Y-111298566D01*
X122686021Y-111226600D01*
X122973888Y-111226600D01*
X123117821Y-111298566D01*
X123765521Y-112162166D02*
X123909455Y-112234133D01*
X124197321Y-112234133D01*
X124341255Y-112162166D01*
X124413221Y-112018233D01*
X124413221Y-111946266D01*
X124341255Y-111802333D01*
X124197321Y-111730366D01*
X123981421Y-111730366D01*
X123837488Y-111658400D01*
X123765521Y-111514466D01*
X123765521Y-111442500D01*
X123837488Y-111298566D01*
X123981421Y-111226600D01*
X124197321Y-111226600D01*
X124341255Y-111298566D01*
D12*
X118743476Y-113209251D02*
X118694127Y-113233925D01*
X118595430Y-113233925D01*
X118546081Y-113209251D01*
X118521407Y-113184577D01*
X118496733Y-113135228D01*
X118496733Y-112987182D01*
X118521407Y-112937834D01*
X118546081Y-112913160D01*
X118595430Y-112888485D01*
X118694127Y-112888485D01*
X118743476Y-112913160D01*
X119187613Y-113209251D02*
X119138264Y-113233925D01*
X119039567Y-113233925D01*
X118990218Y-113209251D01*
X118965544Y-113184577D01*
X118940870Y-113135228D01*
X118940870Y-112987182D01*
X118965544Y-112937834D01*
X118990218Y-112913160D01*
X119039567Y-112888485D01*
X119138264Y-112888485D01*
X119187613Y-112913160D01*
X119409681Y-113036531D02*
X119804470Y-113036531D01*
X120051213Y-113233925D02*
X120051213Y-112715765D01*
X120051213Y-112913160D02*
X120100561Y-112888485D01*
X120199258Y-112888485D01*
X120248607Y-112913160D01*
X120273281Y-112937834D01*
X120297956Y-112987182D01*
X120297956Y-113135228D01*
X120273281Y-113184577D01*
X120248607Y-113209251D01*
X120199258Y-113233925D01*
X120100561Y-113233925D01*
X120051213Y-113209251D01*
X120470676Y-112888485D02*
X120594047Y-113233925D01*
X120717418Y-112888485D02*
X120594047Y-113233925D01*
X120544698Y-113357297D01*
X120520024Y-113381971D01*
X120470676Y-113406645D01*
X120914813Y-113036531D02*
X121309601Y-113036531D01*
X121531670Y-113209251D02*
X121581018Y-113233925D01*
X121679716Y-113233925D01*
X121729064Y-113209251D01*
X121753738Y-113159902D01*
X121753738Y-113135228D01*
X121729064Y-113085880D01*
X121679716Y-113061205D01*
X121605693Y-113061205D01*
X121556344Y-113036531D01*
X121531670Y-112987182D01*
X121531670Y-112962508D01*
X121556344Y-112913160D01*
X121605693Y-112888485D01*
X121679716Y-112888485D01*
X121729064Y-112913160D01*
X122197876Y-113233925D02*
X122197876Y-112962508D01*
X122173201Y-112913160D01*
X122123853Y-112888485D01*
X122025156Y-112888485D01*
X121975807Y-112913160D01*
X122197876Y-113209251D02*
X122148527Y-113233925D01*
X122025156Y-113233925D01*
X121975807Y-113209251D01*
X121951133Y-113159902D01*
X121951133Y-113110554D01*
X121975807Y-113061205D01*
X122025156Y-113036531D01*
X122148527Y-113036531D01*
X122197876Y-113011857D01*
X118496733Y-114670114D02*
X118521407Y-114645440D01*
X118570756Y-114620765D01*
X118694127Y-114620765D01*
X118743476Y-114645440D01*
X118768150Y-114670114D01*
X118792824Y-114719462D01*
X118792824Y-114768811D01*
X118768150Y-114842834D01*
X118472058Y-115138925D01*
X118792824Y-115138925D01*
X119113590Y-114620765D02*
X119162938Y-114620765D01*
X119212287Y-114645440D01*
X119236961Y-114670114D01*
X119261636Y-114719462D01*
X119286310Y-114818160D01*
X119286310Y-114941531D01*
X119261636Y-115040228D01*
X119236961Y-115089577D01*
X119212287Y-115114251D01*
X119162938Y-115138925D01*
X119113590Y-115138925D01*
X119064241Y-115114251D01*
X119039567Y-115089577D01*
X119014893Y-115040228D01*
X118990218Y-114941531D01*
X118990218Y-114818160D01*
X119014893Y-114719462D01*
X119039567Y-114670114D01*
X119064241Y-114645440D01*
X119113590Y-114620765D01*
X119779796Y-115138925D02*
X119483704Y-115138925D01*
X119631750Y-115138925D02*
X119631750Y-114620765D01*
X119582401Y-114694788D01*
X119533053Y-114744137D01*
X119483704Y-114768811D01*
X120248607Y-114620765D02*
X120001864Y-114620765D01*
X119977190Y-114867508D01*
X120001864Y-114842834D01*
X120051213Y-114818160D01*
X120174584Y-114818160D01*
X120223933Y-114842834D01*
X120248607Y-114867508D01*
X120273281Y-114916857D01*
X120273281Y-115040228D01*
X120248607Y-115089577D01*
X120223933Y-115114251D01*
X120174584Y-115138925D01*
X120051213Y-115138925D01*
X120001864Y-115114251D01*
X119977190Y-115089577D01*
X120495350Y-115089577D02*
X120520024Y-115114251D01*
X120495350Y-115138925D01*
X120470676Y-115114251D01*
X120495350Y-115089577D01*
X120495350Y-115138925D01*
X121087533Y-114793485D02*
X121210904Y-115138925D01*
X121334276Y-114793485D01*
X121482321Y-114620765D02*
X121803087Y-114620765D01*
X121630367Y-114818160D01*
X121704390Y-114818160D01*
X121753738Y-114842834D01*
X121778413Y-114867508D01*
X121803087Y-114916857D01*
X121803087Y-115040228D01*
X121778413Y-115089577D01*
X121753738Y-115114251D01*
X121704390Y-115138925D01*
X121556344Y-115138925D01*
X121506996Y-115114251D01*
X121482321Y-115089577D01*
X118521407Y-113915008D02*
X118694127Y-113915008D01*
X118768150Y-114186425D02*
X118521407Y-114186425D01*
X118521407Y-113668265D01*
X118768150Y-113668265D01*
X118694127Y-113470871D02*
X118620104Y-113544894D01*
X118990218Y-114186425D02*
X118990218Y-113840985D01*
X118990218Y-113890334D02*
X119014893Y-113865660D01*
X119064241Y-113840985D01*
X119138264Y-113840985D01*
X119187613Y-113865660D01*
X119212287Y-113915008D01*
X119212287Y-114186425D01*
X119212287Y-113915008D02*
X119236961Y-113865660D01*
X119286310Y-113840985D01*
X119360333Y-113840985D01*
X119409681Y-113865660D01*
X119434356Y-113915008D01*
X119434356Y-114186425D01*
X119681098Y-114186425D02*
X119681098Y-113840985D01*
X119681098Y-113668265D02*
X119656424Y-113692940D01*
X119681098Y-113717614D01*
X119705773Y-113692940D01*
X119681098Y-113668265D01*
X119681098Y-113717614D01*
X120001864Y-114186425D02*
X119952516Y-114161751D01*
X119927841Y-114112402D01*
X119927841Y-113668265D01*
X120199258Y-114186425D02*
X120199258Y-113840985D01*
X120199258Y-113668265D02*
X120174584Y-113692940D01*
X120199258Y-113717614D01*
X120223933Y-113692940D01*
X120199258Y-113668265D01*
X120199258Y-113717614D01*
X120643396Y-114161751D02*
X120594047Y-114186425D01*
X120495350Y-114186425D01*
X120446001Y-114161751D01*
X120421327Y-114112402D01*
X120421327Y-113915008D01*
X120446001Y-113865660D01*
X120495350Y-113840985D01*
X120594047Y-113840985D01*
X120643396Y-113865660D01*
X120668070Y-113915008D01*
X120668070Y-113964357D01*
X120421327Y-114013705D01*
X121556344Y-113692940D02*
X121506996Y-113668265D01*
X121432973Y-113668265D01*
X121358950Y-113692940D01*
X121309601Y-113742288D01*
X121284927Y-113791637D01*
X121260253Y-113890334D01*
X121260253Y-113964357D01*
X121284927Y-114063054D01*
X121309601Y-114112402D01*
X121358950Y-114161751D01*
X121432973Y-114186425D01*
X121482321Y-114186425D01*
X121556344Y-114161751D01*
X121581018Y-114137077D01*
X121581018Y-113964357D01*
X121482321Y-113964357D01*
X121803087Y-114186425D02*
X121803087Y-113840985D01*
X121803087Y-113668265D02*
X121778413Y-113692940D01*
X121803087Y-113717614D01*
X121827761Y-113692940D01*
X121803087Y-113668265D01*
X121803087Y-113717614D01*
X122123853Y-114186425D02*
X122074504Y-114161751D01*
X122049830Y-114112402D01*
X122049830Y-113668265D01*
X122395270Y-114186425D02*
X122345921Y-114161751D01*
X122321247Y-114112402D01*
X122321247Y-113668265D01*
X122790058Y-114161751D02*
X122740710Y-114186425D01*
X122642013Y-114186425D01*
X122592664Y-114161751D01*
X122567990Y-114112402D01*
X122567990Y-113915008D01*
X122592664Y-113865660D01*
X122642013Y-113840985D01*
X122740710Y-113840985D01*
X122790058Y-113865660D01*
X122814733Y-113915008D01*
X122814733Y-113964357D01*
X122567990Y-114013705D01*
X122962778Y-113840985D02*
X123160173Y-113840985D01*
X123036801Y-113668265D02*
X123036801Y-114112402D01*
X123061476Y-114161751D01*
X123110824Y-114186425D01*
X123160173Y-114186425D01*
D13*
%TO.C,Q1*%
X156234281Y-71667611D02*
X156167757Y-71634350D01*
X156101233Y-71567826D01*
X156001447Y-71468040D01*
X155934924Y-71434778D01*
X155868400Y-71434778D01*
X155901662Y-71601088D02*
X155835138Y-71567826D01*
X155768614Y-71501302D01*
X155735352Y-71368254D01*
X155735352Y-71135421D01*
X155768614Y-71002373D01*
X155835138Y-70935850D01*
X155901662Y-70902588D01*
X156034709Y-70902588D01*
X156101233Y-70935850D01*
X156167757Y-71002373D01*
X156201019Y-71135421D01*
X156201019Y-71368254D01*
X156167757Y-71501302D01*
X156101233Y-71567826D01*
X156034709Y-71601088D01*
X155901662Y-71601088D01*
X156866257Y-71601088D02*
X156467114Y-71601088D01*
X156666685Y-71601088D02*
X156666685Y-70902588D01*
X156600162Y-71002373D01*
X156533638Y-71068897D01*
X156467114Y-71102159D01*
D14*
%TO.C,C4*%
X143605431Y-65790025D02*
X143630008Y-65814602D01*
X143654586Y-65888335D01*
X143654586Y-65937490D01*
X143630008Y-66011223D01*
X143580853Y-66060378D01*
X143531698Y-66084955D01*
X143433388Y-66109533D01*
X143359656Y-66109533D01*
X143261346Y-66084955D01*
X143212191Y-66060378D01*
X143163036Y-66011223D01*
X143138458Y-65937490D01*
X143138458Y-65888335D01*
X143163036Y-65814602D01*
X143187613Y-65790025D01*
X143310501Y-65347629D02*
X143654586Y-65347629D01*
X143113880Y-65470517D02*
X143482543Y-65593405D01*
X143482543Y-65273897D01*
%TO.C,SW3*%
X156493871Y-56074756D02*
X156596632Y-56109010D01*
X156767901Y-56109010D01*
X156836408Y-56074756D01*
X156870662Y-56040502D01*
X156904916Y-55971995D01*
X156904916Y-55903488D01*
X156870662Y-55834980D01*
X156836408Y-55800726D01*
X156767901Y-55766473D01*
X156630886Y-55732219D01*
X156562379Y-55697965D01*
X156528125Y-55663712D01*
X156493871Y-55595204D01*
X156493871Y-55526697D01*
X156528125Y-55458189D01*
X156562379Y-55423936D01*
X156630886Y-55389682D01*
X156802155Y-55389682D01*
X156904916Y-55423936D01*
X157144692Y-55389682D02*
X157315960Y-56109010D01*
X157452975Y-55595204D01*
X157589990Y-56109010D01*
X157761259Y-55389682D01*
X157966781Y-55389682D02*
X158412079Y-55389682D01*
X158172303Y-55663712D01*
X158275064Y-55663712D01*
X158343572Y-55697965D01*
X158377825Y-55732219D01*
X158412079Y-55800726D01*
X158412079Y-55971995D01*
X158377825Y-56040502D01*
X158343572Y-56074756D01*
X158275064Y-56109010D01*
X158069542Y-56109010D01*
X158001035Y-56074756D01*
X157966781Y-56040502D01*
%TO.C,R6*%
X160550482Y-67137086D02*
X160378439Y-66891311D01*
X160255552Y-67137086D02*
X160255552Y-66620958D01*
X160452172Y-66620958D01*
X160501327Y-66645536D01*
X160525905Y-66670113D01*
X160550482Y-66719268D01*
X160550482Y-66793001D01*
X160525905Y-66842156D01*
X160501327Y-66866733D01*
X160452172Y-66891311D01*
X160255552Y-66891311D01*
X160992878Y-66620958D02*
X160894567Y-66620958D01*
X160845412Y-66645536D01*
X160820835Y-66670113D01*
X160771680Y-66743846D01*
X160747102Y-66842156D01*
X160747102Y-67038776D01*
X160771680Y-67087931D01*
X160796257Y-67112508D01*
X160845412Y-67137086D01*
X160943723Y-67137086D01*
X160992878Y-67112508D01*
X161017455Y-67087931D01*
X161042033Y-67038776D01*
X161042033Y-66915888D01*
X161017455Y-66866733D01*
X160992878Y-66842156D01*
X160943723Y-66817578D01*
X160845412Y-66817578D01*
X160796257Y-66842156D01*
X160771680Y-66866733D01*
X160747102Y-66915888D01*
%TO.C,C5*%
X157257931Y-65155025D02*
X157282508Y-65179602D01*
X157307086Y-65253335D01*
X157307086Y-65302490D01*
X157282508Y-65376223D01*
X157233353Y-65425378D01*
X157184198Y-65449955D01*
X157085888Y-65474533D01*
X157012156Y-65474533D01*
X156913846Y-65449955D01*
X156864691Y-65425378D01*
X156815536Y-65376223D01*
X156790958Y-65302490D01*
X156790958Y-65253335D01*
X156815536Y-65179602D01*
X156840113Y-65155025D01*
X156790958Y-64688052D02*
X156790958Y-64933827D01*
X157036733Y-64958405D01*
X157012156Y-64933827D01*
X156987578Y-64884672D01*
X156987578Y-64761784D01*
X157012156Y-64712629D01*
X157036733Y-64688052D01*
X157085888Y-64663474D01*
X157208776Y-64663474D01*
X157257931Y-64688052D01*
X157282508Y-64712629D01*
X157307086Y-64761784D01*
X157307086Y-64884672D01*
X157282508Y-64933827D01*
X157257931Y-64958405D01*
%TO.C,SW4*%
X163161371Y-56074756D02*
X163264132Y-56109010D01*
X163435401Y-56109010D01*
X163503908Y-56074756D01*
X163538162Y-56040502D01*
X163572416Y-55971995D01*
X163572416Y-55903488D01*
X163538162Y-55834980D01*
X163503908Y-55800726D01*
X163435401Y-55766473D01*
X163298386Y-55732219D01*
X163229879Y-55697965D01*
X163195625Y-55663712D01*
X163161371Y-55595204D01*
X163161371Y-55526697D01*
X163195625Y-55458189D01*
X163229879Y-55423936D01*
X163298386Y-55389682D01*
X163469655Y-55389682D01*
X163572416Y-55423936D01*
X163812192Y-55389682D02*
X163983460Y-56109010D01*
X164120475Y-55595204D01*
X164257490Y-56109010D01*
X164428759Y-55389682D01*
X165011072Y-55629458D02*
X165011072Y-56109010D01*
X164839803Y-55355428D02*
X164668535Y-55869234D01*
X165113833Y-55869234D01*
%TO.C,R7*%
X164995482Y-67137086D02*
X164823439Y-66891311D01*
X164700552Y-67137086D02*
X164700552Y-66620958D01*
X164897172Y-66620958D01*
X164946327Y-66645536D01*
X164970905Y-66670113D01*
X164995482Y-66719268D01*
X164995482Y-66793001D01*
X164970905Y-66842156D01*
X164946327Y-66866733D01*
X164897172Y-66891311D01*
X164700552Y-66891311D01*
X165167525Y-66620958D02*
X165511610Y-66620958D01*
X165290412Y-67137086D01*
%TO.C,C18*%
X156622931Y-84332025D02*
X156647508Y-84356602D01*
X156672086Y-84430335D01*
X156672086Y-84479490D01*
X156647508Y-84553223D01*
X156598353Y-84602378D01*
X156549198Y-84626955D01*
X156450888Y-84651533D01*
X156377156Y-84651533D01*
X156278846Y-84626955D01*
X156229691Y-84602378D01*
X156180536Y-84553223D01*
X156155958Y-84479490D01*
X156155958Y-84430335D01*
X156180536Y-84356602D01*
X156205113Y-84332025D01*
X156672086Y-83840474D02*
X156672086Y-84135405D01*
X156672086Y-83987939D02*
X156155958Y-83987939D01*
X156229691Y-84037095D01*
X156278846Y-84086250D01*
X156303423Y-84135405D01*
X156377156Y-83545544D02*
X156352578Y-83594699D01*
X156328001Y-83619277D01*
X156278846Y-83643854D01*
X156254268Y-83643854D01*
X156205113Y-83619277D01*
X156180536Y-83594699D01*
X156155958Y-83545544D01*
X156155958Y-83447234D01*
X156180536Y-83398079D01*
X156205113Y-83373501D01*
X156254268Y-83348924D01*
X156278846Y-83348924D01*
X156328001Y-83373501D01*
X156352578Y-83398079D01*
X156377156Y-83447234D01*
X156377156Y-83545544D01*
X156401733Y-83594699D01*
X156426311Y-83619277D01*
X156475466Y-83643854D01*
X156573776Y-83643854D01*
X156622931Y-83619277D01*
X156647508Y-83594699D01*
X156672086Y-83545544D01*
X156672086Y-83447234D01*
X156647508Y-83398079D01*
X156622931Y-83373501D01*
X156573776Y-83348924D01*
X156475466Y-83348924D01*
X156426311Y-83373501D01*
X156401733Y-83398079D01*
X156377156Y-83447234D01*
%TO.C,C11*%
X140113031Y-77029525D02*
X140137608Y-77054102D01*
X140162186Y-77127835D01*
X140162186Y-77176990D01*
X140137608Y-77250723D01*
X140088453Y-77299878D01*
X140039298Y-77324455D01*
X139940988Y-77349033D01*
X139867256Y-77349033D01*
X139768946Y-77324455D01*
X139719791Y-77299878D01*
X139670636Y-77250723D01*
X139646058Y-77176990D01*
X139646058Y-77127835D01*
X139670636Y-77054102D01*
X139695213Y-77029525D01*
X140162186Y-76537974D02*
X140162186Y-76832905D01*
X140162186Y-76685439D02*
X139646058Y-76685439D01*
X139719791Y-76734595D01*
X139768946Y-76783750D01*
X139793523Y-76832905D01*
X140162186Y-76046424D02*
X140162186Y-76341354D01*
X140162186Y-76193889D02*
X139646058Y-76193889D01*
X139719791Y-76243044D01*
X139768946Y-76292199D01*
X139793523Y-76341354D01*
%TO.C,C20*%
X142652931Y-89953267D02*
X142677508Y-89977845D01*
X142702086Y-90051577D01*
X142702086Y-90100732D01*
X142677508Y-90174465D01*
X142628353Y-90223620D01*
X142579198Y-90248198D01*
X142480888Y-90272775D01*
X142407156Y-90272775D01*
X142308846Y-90248198D01*
X142259691Y-90223620D01*
X142210536Y-90174465D01*
X142185958Y-90100732D01*
X142185958Y-90051577D01*
X142210536Y-89977845D01*
X142235113Y-89953267D01*
X142235113Y-89756647D02*
X142210536Y-89732070D01*
X142185958Y-89682915D01*
X142185958Y-89560027D01*
X142210536Y-89510872D01*
X142235113Y-89486294D01*
X142284268Y-89461717D01*
X142333423Y-89461717D01*
X142407156Y-89486294D01*
X142702086Y-89781225D01*
X142702086Y-89461717D01*
X142185958Y-89142209D02*
X142185958Y-89093054D01*
X142210536Y-89043899D01*
X142235113Y-89019321D01*
X142284268Y-88994744D01*
X142382578Y-88970166D01*
X142505466Y-88970166D01*
X142603776Y-88994744D01*
X142652931Y-89019321D01*
X142677508Y-89043899D01*
X142702086Y-89093054D01*
X142702086Y-89142209D01*
X142677508Y-89191364D01*
X142652931Y-89215942D01*
X142603776Y-89240519D01*
X142505466Y-89265097D01*
X142382578Y-89265097D01*
X142284268Y-89240519D01*
X142235113Y-89215942D01*
X142210536Y-89191364D01*
X142185958Y-89142209D01*
%TO.C,C9*%
X147392174Y-73755431D02*
X147367597Y-73780008D01*
X147293864Y-73804586D01*
X147244709Y-73804586D01*
X147170976Y-73780008D01*
X147121821Y-73730853D01*
X147097244Y-73681698D01*
X147072666Y-73583388D01*
X147072666Y-73509656D01*
X147097244Y-73411346D01*
X147121821Y-73362191D01*
X147170976Y-73313036D01*
X147244709Y-73288458D01*
X147293864Y-73288458D01*
X147367597Y-73313036D01*
X147392174Y-73337613D01*
X147637949Y-73804586D02*
X147736260Y-73804586D01*
X147785415Y-73780008D01*
X147809992Y-73755431D01*
X147859147Y-73681698D01*
X147883725Y-73583388D01*
X147883725Y-73386768D01*
X147859147Y-73337613D01*
X147834570Y-73313036D01*
X147785415Y-73288458D01*
X147687104Y-73288458D01*
X147637949Y-73313036D01*
X147613372Y-73337613D01*
X147588794Y-73386768D01*
X147588794Y-73509656D01*
X147613372Y-73558811D01*
X147637949Y-73583388D01*
X147687104Y-73607966D01*
X147785415Y-73607966D01*
X147834570Y-73583388D01*
X147859147Y-73558811D01*
X147883725Y-73509656D01*
%TO.C,C7*%
X147392174Y-72485431D02*
X147367597Y-72510008D01*
X147293864Y-72534586D01*
X147244709Y-72534586D01*
X147170976Y-72510008D01*
X147121821Y-72460853D01*
X147097244Y-72411698D01*
X147072666Y-72313388D01*
X147072666Y-72239656D01*
X147097244Y-72141346D01*
X147121821Y-72092191D01*
X147170976Y-72043036D01*
X147244709Y-72018458D01*
X147293864Y-72018458D01*
X147367597Y-72043036D01*
X147392174Y-72067613D01*
X147564217Y-72018458D02*
X147908302Y-72018458D01*
X147687104Y-72534586D01*
%TO.C,C30*%
X154400431Y-96270025D02*
X154425008Y-96294602D01*
X154449586Y-96368335D01*
X154449586Y-96417490D01*
X154425008Y-96491223D01*
X154375853Y-96540378D01*
X154326698Y-96564955D01*
X154228388Y-96589533D01*
X154154656Y-96589533D01*
X154056346Y-96564955D01*
X154007191Y-96540378D01*
X153958036Y-96491223D01*
X153933458Y-96417490D01*
X153933458Y-96368335D01*
X153958036Y-96294602D01*
X153982613Y-96270025D01*
X153933458Y-96097982D02*
X153933458Y-95778474D01*
X154130078Y-95950517D01*
X154130078Y-95876784D01*
X154154656Y-95827629D01*
X154179233Y-95803052D01*
X154228388Y-95778474D01*
X154351276Y-95778474D01*
X154400431Y-95803052D01*
X154425008Y-95827629D01*
X154449586Y-95876784D01*
X154449586Y-96024250D01*
X154425008Y-96073405D01*
X154400431Y-96097982D01*
X153933458Y-95458967D02*
X153933458Y-95409811D01*
X153958036Y-95360656D01*
X153982613Y-95336079D01*
X154031768Y-95311501D01*
X154130078Y-95286924D01*
X154252966Y-95286924D01*
X154351276Y-95311501D01*
X154400431Y-95336079D01*
X154425008Y-95360656D01*
X154449586Y-95409811D01*
X154449586Y-95458967D01*
X154425008Y-95508122D01*
X154400431Y-95532699D01*
X154351276Y-95557277D01*
X154252966Y-95581854D01*
X154130078Y-95581854D01*
X154031768Y-95557277D01*
X153982613Y-95532699D01*
X153958036Y-95508122D01*
X153933458Y-95458967D01*
%TO.C,C31*%
X155670431Y-96270025D02*
X155695008Y-96294602D01*
X155719586Y-96368335D01*
X155719586Y-96417490D01*
X155695008Y-96491223D01*
X155645853Y-96540378D01*
X155596698Y-96564955D01*
X155498388Y-96589533D01*
X155424656Y-96589533D01*
X155326346Y-96564955D01*
X155277191Y-96540378D01*
X155228036Y-96491223D01*
X155203458Y-96417490D01*
X155203458Y-96368335D01*
X155228036Y-96294602D01*
X155252613Y-96270025D01*
X155203458Y-96097982D02*
X155203458Y-95778474D01*
X155400078Y-95950517D01*
X155400078Y-95876784D01*
X155424656Y-95827629D01*
X155449233Y-95803052D01*
X155498388Y-95778474D01*
X155621276Y-95778474D01*
X155670431Y-95803052D01*
X155695008Y-95827629D01*
X155719586Y-95876784D01*
X155719586Y-96024250D01*
X155695008Y-96073405D01*
X155670431Y-96097982D01*
X155719586Y-95286924D02*
X155719586Y-95581854D01*
X155719586Y-95434389D02*
X155203458Y-95434389D01*
X155277191Y-95483544D01*
X155326346Y-95532699D01*
X155350923Y-95581854D01*
%TO.C,C10*%
X155647074Y-75025431D02*
X155622497Y-75050008D01*
X155548764Y-75074586D01*
X155499609Y-75074586D01*
X155425876Y-75050008D01*
X155376721Y-75000853D01*
X155352144Y-74951698D01*
X155327566Y-74853388D01*
X155327566Y-74779656D01*
X155352144Y-74681346D01*
X155376721Y-74632191D01*
X155425876Y-74583036D01*
X155499609Y-74558458D01*
X155548764Y-74558458D01*
X155622497Y-74583036D01*
X155647074Y-74607613D01*
X156138625Y-75074586D02*
X155843694Y-75074586D01*
X155991160Y-75074586D02*
X155991160Y-74558458D01*
X155942004Y-74632191D01*
X155892849Y-74681346D01*
X155843694Y-74705923D01*
X156458132Y-74558458D02*
X156507288Y-74558458D01*
X156556443Y-74583036D01*
X156581020Y-74607613D01*
X156605598Y-74656768D01*
X156630175Y-74755078D01*
X156630175Y-74877966D01*
X156605598Y-74976276D01*
X156581020Y-75025431D01*
X156556443Y-75050008D01*
X156507288Y-75074586D01*
X156458132Y-75074586D01*
X156408977Y-75050008D01*
X156384400Y-75025431D01*
X156359822Y-74976276D01*
X156335245Y-74877966D01*
X156335245Y-74755078D01*
X156359822Y-74656768D01*
X156384400Y-74607613D01*
X156408977Y-74583036D01*
X156458132Y-74558458D01*
%TO.C,C16*%
X140112931Y-83887525D02*
X140137508Y-83912102D01*
X140162086Y-83985835D01*
X140162086Y-84034990D01*
X140137508Y-84108723D01*
X140088353Y-84157878D01*
X140039198Y-84182455D01*
X139940888Y-84207033D01*
X139867156Y-84207033D01*
X139768846Y-84182455D01*
X139719691Y-84157878D01*
X139670536Y-84108723D01*
X139645958Y-84034990D01*
X139645958Y-83985835D01*
X139670536Y-83912102D01*
X139695113Y-83887525D01*
X140162086Y-83395974D02*
X140162086Y-83690905D01*
X140162086Y-83543439D02*
X139645958Y-83543439D01*
X139719691Y-83592595D01*
X139768846Y-83641750D01*
X139793423Y-83690905D01*
X139645958Y-82953579D02*
X139645958Y-83051889D01*
X139670536Y-83101044D01*
X139695113Y-83125622D01*
X139768846Y-83174777D01*
X139867156Y-83199354D01*
X140063776Y-83199354D01*
X140112931Y-83174777D01*
X140137508Y-83150199D01*
X140162086Y-83101044D01*
X140162086Y-83002734D01*
X140137508Y-82953579D01*
X140112931Y-82929001D01*
X140063776Y-82904424D01*
X139940888Y-82904424D01*
X139891733Y-82929001D01*
X139867156Y-82953579D01*
X139842578Y-83002734D01*
X139842578Y-83101044D01*
X139867156Y-83150199D01*
X139891733Y-83174777D01*
X139940888Y-83199354D01*
%TO.C,C22*%
X152438932Y-90265431D02*
X152414354Y-90290008D01*
X152340622Y-90314586D01*
X152291467Y-90314586D01*
X152217734Y-90290008D01*
X152168579Y-90240853D01*
X152144001Y-90191698D01*
X152119424Y-90093388D01*
X152119424Y-90019656D01*
X152144001Y-89921346D01*
X152168579Y-89872191D01*
X152217734Y-89823036D01*
X152291467Y-89798458D01*
X152340622Y-89798458D01*
X152414354Y-89823036D01*
X152438932Y-89847613D01*
X152635552Y-89847613D02*
X152660129Y-89823036D01*
X152709284Y-89798458D01*
X152832172Y-89798458D01*
X152881327Y-89823036D01*
X152905905Y-89847613D01*
X152930482Y-89896768D01*
X152930482Y-89945923D01*
X152905905Y-90019656D01*
X152610974Y-90314586D01*
X152930482Y-90314586D01*
X153127102Y-89847613D02*
X153151680Y-89823036D01*
X153200835Y-89798458D01*
X153323723Y-89798458D01*
X153372878Y-89823036D01*
X153397455Y-89847613D01*
X153422033Y-89896768D01*
X153422033Y-89945923D01*
X153397455Y-90019656D01*
X153102525Y-90314586D01*
X153422033Y-90314586D01*
%TO.C,C27*%
X152756432Y-93757931D02*
X152731854Y-93782508D01*
X152658122Y-93807086D01*
X152608967Y-93807086D01*
X152535234Y-93782508D01*
X152486079Y-93733353D01*
X152461501Y-93684198D01*
X152436924Y-93585888D01*
X152436924Y-93512156D01*
X152461501Y-93413846D01*
X152486079Y-93364691D01*
X152535234Y-93315536D01*
X152608967Y-93290958D01*
X152658122Y-93290958D01*
X152731854Y-93315536D01*
X152756432Y-93340113D01*
X152953052Y-93340113D02*
X152977629Y-93315536D01*
X153026784Y-93290958D01*
X153149672Y-93290958D01*
X153198827Y-93315536D01*
X153223405Y-93340113D01*
X153247982Y-93389268D01*
X153247982Y-93438423D01*
X153223405Y-93512156D01*
X152928474Y-93807086D01*
X153247982Y-93807086D01*
X153420025Y-93290958D02*
X153764110Y-93290958D01*
X153542912Y-93807086D01*
D15*
%TO.C,IC7*%
X131485881Y-99168143D02*
X130637521Y-99168143D01*
X131405085Y-98279385D02*
X131445483Y-98319783D01*
X131485881Y-98440977D01*
X131485881Y-98521774D01*
X131445483Y-98642968D01*
X131364687Y-98723764D01*
X131283891Y-98764162D01*
X131122299Y-98804560D01*
X131001104Y-98804560D01*
X130839512Y-98764162D01*
X130758716Y-98723764D01*
X130677920Y-98642968D01*
X130637521Y-98521774D01*
X130637521Y-98440977D01*
X130677920Y-98319783D01*
X130718318Y-98279385D01*
X130637521Y-97996598D02*
X130637521Y-97431025D01*
X131485881Y-97794608D01*
D14*
%TO.C,R19*%
X123228932Y-95394586D02*
X123056889Y-95148811D01*
X122934001Y-95394586D02*
X122934001Y-94878458D01*
X123130622Y-94878458D01*
X123179777Y-94903036D01*
X123204354Y-94927613D01*
X123228932Y-94976768D01*
X123228932Y-95050501D01*
X123204354Y-95099656D01*
X123179777Y-95124233D01*
X123130622Y-95148811D01*
X122934001Y-95148811D01*
X123720482Y-95394586D02*
X123425552Y-95394586D01*
X123573017Y-95394586D02*
X123573017Y-94878458D01*
X123523862Y-94952191D01*
X123474707Y-95001346D01*
X123425552Y-95025923D01*
X123966257Y-95394586D02*
X124064567Y-95394586D01*
X124113723Y-95370008D01*
X124138300Y-95345431D01*
X124187455Y-95271698D01*
X124212033Y-95173388D01*
X124212033Y-94976768D01*
X124187455Y-94927613D01*
X124162878Y-94903036D01*
X124113723Y-94878458D01*
X124015412Y-94878458D01*
X123966257Y-94903036D01*
X123941680Y-94927613D01*
X123917102Y-94976768D01*
X123917102Y-95099656D01*
X123941680Y-95148811D01*
X123966257Y-95173388D01*
X124015412Y-95197966D01*
X124113723Y-95197966D01*
X124162878Y-95173388D01*
X124187455Y-95148811D01*
X124212033Y-95099656D01*
%TO.C,R18*%
X121323932Y-95394586D02*
X121151889Y-95148811D01*
X121029001Y-95394586D02*
X121029001Y-94878458D01*
X121225622Y-94878458D01*
X121274777Y-94903036D01*
X121299354Y-94927613D01*
X121323932Y-94976768D01*
X121323932Y-95050501D01*
X121299354Y-95099656D01*
X121274777Y-95124233D01*
X121225622Y-95148811D01*
X121029001Y-95148811D01*
X121815482Y-95394586D02*
X121520552Y-95394586D01*
X121668017Y-95394586D02*
X121668017Y-94878458D01*
X121618862Y-94952191D01*
X121569707Y-95001346D01*
X121520552Y-95025923D01*
X122110412Y-95099656D02*
X122061257Y-95075078D01*
X122036680Y-95050501D01*
X122012102Y-95001346D01*
X122012102Y-94976768D01*
X122036680Y-94927613D01*
X122061257Y-94903036D01*
X122110412Y-94878458D01*
X122208723Y-94878458D01*
X122257878Y-94903036D01*
X122282455Y-94927613D01*
X122307033Y-94976768D01*
X122307033Y-95001346D01*
X122282455Y-95050501D01*
X122257878Y-95075078D01*
X122208723Y-95099656D01*
X122110412Y-95099656D01*
X122061257Y-95124233D01*
X122036680Y-95148811D01*
X122012102Y-95197966D01*
X122012102Y-95296276D01*
X122036680Y-95345431D01*
X122061257Y-95370008D01*
X122110412Y-95394586D01*
X122208723Y-95394586D01*
X122257878Y-95370008D01*
X122282455Y-95345431D01*
X122307033Y-95296276D01*
X122307033Y-95197966D01*
X122282455Y-95148811D01*
X122257878Y-95124233D01*
X122208723Y-95099656D01*
%TO.C,R20*%
X125133932Y-95394586D02*
X124961889Y-95148811D01*
X124839001Y-95394586D02*
X124839001Y-94878458D01*
X125035622Y-94878458D01*
X125084777Y-94903036D01*
X125109354Y-94927613D01*
X125133932Y-94976768D01*
X125133932Y-95050501D01*
X125109354Y-95099656D01*
X125084777Y-95124233D01*
X125035622Y-95148811D01*
X124839001Y-95148811D01*
X125330552Y-94927613D02*
X125355129Y-94903036D01*
X125404284Y-94878458D01*
X125527172Y-94878458D01*
X125576327Y-94903036D01*
X125600905Y-94927613D01*
X125625482Y-94976768D01*
X125625482Y-95025923D01*
X125600905Y-95099656D01*
X125305974Y-95394586D01*
X125625482Y-95394586D01*
X125944990Y-94878458D02*
X125994145Y-94878458D01*
X126043300Y-94903036D01*
X126067878Y-94927613D01*
X126092455Y-94976768D01*
X126117033Y-95075078D01*
X126117033Y-95197966D01*
X126092455Y-95296276D01*
X126067878Y-95345431D01*
X126043300Y-95370008D01*
X125994145Y-95394586D01*
X125944990Y-95394586D01*
X125895835Y-95370008D01*
X125871257Y-95345431D01*
X125846680Y-95296276D01*
X125822102Y-95197966D01*
X125822102Y-95075078D01*
X125846680Y-94976768D01*
X125871257Y-94927613D01*
X125895835Y-94903036D01*
X125944990Y-94878458D01*
%TO.C,C26*%
X119418932Y-95345431D02*
X119394354Y-95370008D01*
X119320622Y-95394586D01*
X119271467Y-95394586D01*
X119197734Y-95370008D01*
X119148579Y-95320853D01*
X119124001Y-95271698D01*
X119099424Y-95173388D01*
X119099424Y-95099656D01*
X119124001Y-95001346D01*
X119148579Y-94952191D01*
X119197734Y-94903036D01*
X119271467Y-94878458D01*
X119320622Y-94878458D01*
X119394354Y-94903036D01*
X119418932Y-94927613D01*
X119615552Y-94927613D02*
X119640129Y-94903036D01*
X119689284Y-94878458D01*
X119812172Y-94878458D01*
X119861327Y-94903036D01*
X119885905Y-94927613D01*
X119910482Y-94976768D01*
X119910482Y-95025923D01*
X119885905Y-95099656D01*
X119590974Y-95394586D01*
X119910482Y-95394586D01*
X120352878Y-94878458D02*
X120254567Y-94878458D01*
X120205412Y-94903036D01*
X120180835Y-94927613D01*
X120131680Y-95001346D01*
X120107102Y-95099656D01*
X120107102Y-95296276D01*
X120131680Y-95345431D01*
X120156257Y-95370008D01*
X120205412Y-95394586D01*
X120303723Y-95394586D01*
X120352878Y-95370008D01*
X120377455Y-95345431D01*
X120402033Y-95296276D01*
X120402033Y-95173388D01*
X120377455Y-95124233D01*
X120352878Y-95099656D01*
X120303723Y-95075078D01*
X120205412Y-95075078D01*
X120156257Y-95099656D01*
X120131680Y-95124233D01*
X120107102Y-95173388D01*
%TO.C,R22*%
X141042174Y-93489586D02*
X140870132Y-93243811D01*
X140747244Y-93489586D02*
X140747244Y-92973458D01*
X140943864Y-92973458D01*
X140993019Y-92998036D01*
X141017597Y-93022613D01*
X141042174Y-93071768D01*
X141042174Y-93145501D01*
X141017597Y-93194656D01*
X140993019Y-93219233D01*
X140943864Y-93243811D01*
X140747244Y-93243811D01*
X141238794Y-93022613D02*
X141263372Y-92998036D01*
X141312527Y-92973458D01*
X141435415Y-92973458D01*
X141484570Y-92998036D01*
X141509147Y-93022613D01*
X141533725Y-93071768D01*
X141533725Y-93120923D01*
X141509147Y-93194656D01*
X141214217Y-93489586D01*
X141533725Y-93489586D01*
X141730345Y-93022613D02*
X141754922Y-92998036D01*
X141804077Y-92973458D01*
X141926965Y-92973458D01*
X141976120Y-92998036D01*
X142000698Y-93022613D01*
X142025275Y-93071768D01*
X142025275Y-93120923D01*
X142000698Y-93194656D01*
X141705767Y-93489586D01*
X142025275Y-93489586D01*
%TO.C,R26*%
X141042174Y-95077086D02*
X140870132Y-94831311D01*
X140747244Y-95077086D02*
X140747244Y-94560958D01*
X140943864Y-94560958D01*
X140993019Y-94585536D01*
X141017597Y-94610113D01*
X141042174Y-94659268D01*
X141042174Y-94733001D01*
X141017597Y-94782156D01*
X140993019Y-94806733D01*
X140943864Y-94831311D01*
X140747244Y-94831311D01*
X141238794Y-94610113D02*
X141263372Y-94585536D01*
X141312527Y-94560958D01*
X141435415Y-94560958D01*
X141484570Y-94585536D01*
X141509147Y-94610113D01*
X141533725Y-94659268D01*
X141533725Y-94708423D01*
X141509147Y-94782156D01*
X141214217Y-95077086D01*
X141533725Y-95077086D01*
X141976120Y-94560958D02*
X141877810Y-94560958D01*
X141828655Y-94585536D01*
X141804077Y-94610113D01*
X141754922Y-94683846D01*
X141730345Y-94782156D01*
X141730345Y-94978776D01*
X141754922Y-95027931D01*
X141779500Y-95052508D01*
X141828655Y-95077086D01*
X141926965Y-95077086D01*
X141976120Y-95052508D01*
X142000698Y-95027931D01*
X142025275Y-94978776D01*
X142025275Y-94855888D01*
X142000698Y-94806733D01*
X141976120Y-94782156D01*
X141926965Y-94757578D01*
X141828655Y-94757578D01*
X141779500Y-94782156D01*
X141754922Y-94806733D01*
X141730345Y-94855888D01*
%TO.C,R24*%
X137939586Y-91507525D02*
X137693811Y-91679567D01*
X137939586Y-91802455D02*
X137423458Y-91802455D01*
X137423458Y-91605835D01*
X137448036Y-91556680D01*
X137472613Y-91532102D01*
X137521768Y-91507525D01*
X137595501Y-91507525D01*
X137644656Y-91532102D01*
X137669233Y-91556680D01*
X137693811Y-91605835D01*
X137693811Y-91802455D01*
X137472613Y-91310905D02*
X137448036Y-91286327D01*
X137423458Y-91237172D01*
X137423458Y-91114284D01*
X137448036Y-91065129D01*
X137472613Y-91040552D01*
X137521768Y-91015974D01*
X137570923Y-91015974D01*
X137644656Y-91040552D01*
X137939586Y-91335482D01*
X137939586Y-91015974D01*
X137595501Y-90573579D02*
X137939586Y-90573579D01*
X137398880Y-90696467D02*
X137767543Y-90819354D01*
X137767543Y-90499846D01*
%TO.C,C29*%
X141042174Y-96615431D02*
X141017597Y-96640008D01*
X140943864Y-96664586D01*
X140894709Y-96664586D01*
X140820976Y-96640008D01*
X140771821Y-96590853D01*
X140747244Y-96541698D01*
X140722666Y-96443388D01*
X140722666Y-96369656D01*
X140747244Y-96271346D01*
X140771821Y-96222191D01*
X140820976Y-96173036D01*
X140894709Y-96148458D01*
X140943864Y-96148458D01*
X141017597Y-96173036D01*
X141042174Y-96197613D01*
X141238794Y-96197613D02*
X141263372Y-96173036D01*
X141312527Y-96148458D01*
X141435415Y-96148458D01*
X141484570Y-96173036D01*
X141509147Y-96197613D01*
X141533725Y-96246768D01*
X141533725Y-96295923D01*
X141509147Y-96369656D01*
X141214217Y-96664586D01*
X141533725Y-96664586D01*
X141779500Y-96664586D02*
X141877810Y-96664586D01*
X141926965Y-96640008D01*
X141951543Y-96615431D01*
X142000698Y-96541698D01*
X142025275Y-96443388D01*
X142025275Y-96246768D01*
X142000698Y-96197613D01*
X141976120Y-96173036D01*
X141926965Y-96148458D01*
X141828655Y-96148458D01*
X141779500Y-96173036D01*
X141754922Y-96197613D01*
X141730345Y-96246768D01*
X141730345Y-96369656D01*
X141754922Y-96418811D01*
X141779500Y-96443388D01*
X141828655Y-96467966D01*
X141926965Y-96467966D01*
X141976120Y-96443388D01*
X142000698Y-96418811D01*
X142025275Y-96369656D01*
%TO.C,R21*%
X129896432Y-92854586D02*
X129724389Y-92608811D01*
X129601501Y-92854586D02*
X129601501Y-92338458D01*
X129798122Y-92338458D01*
X129847277Y-92363036D01*
X129871854Y-92387613D01*
X129896432Y-92436768D01*
X129896432Y-92510501D01*
X129871854Y-92559656D01*
X129847277Y-92584233D01*
X129798122Y-92608811D01*
X129601501Y-92608811D01*
X130093052Y-92387613D02*
X130117629Y-92363036D01*
X130166784Y-92338458D01*
X130289672Y-92338458D01*
X130338827Y-92363036D01*
X130363405Y-92387613D01*
X130387982Y-92436768D01*
X130387982Y-92485923D01*
X130363405Y-92559656D01*
X130068474Y-92854586D01*
X130387982Y-92854586D01*
X130879533Y-92854586D02*
X130584602Y-92854586D01*
X130732067Y-92854586D02*
X130732067Y-92338458D01*
X130682912Y-92412191D01*
X130633757Y-92461346D01*
X130584602Y-92485923D01*
%TO.C,R25*%
X129896432Y-94442086D02*
X129724389Y-94196311D01*
X129601501Y-94442086D02*
X129601501Y-93925958D01*
X129798122Y-93925958D01*
X129847277Y-93950536D01*
X129871854Y-93975113D01*
X129896432Y-94024268D01*
X129896432Y-94098001D01*
X129871854Y-94147156D01*
X129847277Y-94171733D01*
X129798122Y-94196311D01*
X129601501Y-94196311D01*
X130093052Y-93975113D02*
X130117629Y-93950536D01*
X130166784Y-93925958D01*
X130289672Y-93925958D01*
X130338827Y-93950536D01*
X130363405Y-93975113D01*
X130387982Y-94024268D01*
X130387982Y-94073423D01*
X130363405Y-94147156D01*
X130068474Y-94442086D01*
X130387982Y-94442086D01*
X130854955Y-93925958D02*
X130609180Y-93925958D01*
X130584602Y-94171733D01*
X130609180Y-94147156D01*
X130658335Y-94122578D01*
X130781223Y-94122578D01*
X130830378Y-94147156D01*
X130854955Y-94171733D01*
X130879533Y-94220888D01*
X130879533Y-94343776D01*
X130854955Y-94392931D01*
X130830378Y-94417508D01*
X130781223Y-94442086D01*
X130658335Y-94442086D01*
X130609180Y-94417508D01*
X130584602Y-94392931D01*
%TO.C,R23*%
X134374674Y-92219586D02*
X134202632Y-91973811D01*
X134079744Y-92219586D02*
X134079744Y-91703458D01*
X134276364Y-91703458D01*
X134325519Y-91728036D01*
X134350097Y-91752613D01*
X134374674Y-91801768D01*
X134374674Y-91875501D01*
X134350097Y-91924656D01*
X134325519Y-91949233D01*
X134276364Y-91973811D01*
X134079744Y-91973811D01*
X134571294Y-91752613D02*
X134595872Y-91728036D01*
X134645027Y-91703458D01*
X134767915Y-91703458D01*
X134817070Y-91728036D01*
X134841647Y-91752613D01*
X134866225Y-91801768D01*
X134866225Y-91850923D01*
X134841647Y-91924656D01*
X134546717Y-92219586D01*
X134866225Y-92219586D01*
X135038267Y-91703458D02*
X135357775Y-91703458D01*
X135185732Y-91900078D01*
X135259465Y-91900078D01*
X135308620Y-91924656D01*
X135333198Y-91949233D01*
X135357775Y-91998388D01*
X135357775Y-92121276D01*
X135333198Y-92170431D01*
X135308620Y-92195008D01*
X135259465Y-92219586D01*
X135112000Y-92219586D01*
X135062845Y-92195008D01*
X135038267Y-92170431D01*
%TO.C,C28*%
X129896432Y-95980431D02*
X129871854Y-96005008D01*
X129798122Y-96029586D01*
X129748967Y-96029586D01*
X129675234Y-96005008D01*
X129626079Y-95955853D01*
X129601501Y-95906698D01*
X129576924Y-95808388D01*
X129576924Y-95734656D01*
X129601501Y-95636346D01*
X129626079Y-95587191D01*
X129675234Y-95538036D01*
X129748967Y-95513458D01*
X129798122Y-95513458D01*
X129871854Y-95538036D01*
X129896432Y-95562613D01*
X130093052Y-95562613D02*
X130117629Y-95538036D01*
X130166784Y-95513458D01*
X130289672Y-95513458D01*
X130338827Y-95538036D01*
X130363405Y-95562613D01*
X130387982Y-95611768D01*
X130387982Y-95660923D01*
X130363405Y-95734656D01*
X130068474Y-96029586D01*
X130387982Y-96029586D01*
X130682912Y-95734656D02*
X130633757Y-95710078D01*
X130609180Y-95685501D01*
X130584602Y-95636346D01*
X130584602Y-95611768D01*
X130609180Y-95562613D01*
X130633757Y-95538036D01*
X130682912Y-95513458D01*
X130781223Y-95513458D01*
X130830378Y-95538036D01*
X130854955Y-95562613D01*
X130879533Y-95611768D01*
X130879533Y-95636346D01*
X130854955Y-95685501D01*
X130830378Y-95710078D01*
X130781223Y-95734656D01*
X130682912Y-95734656D01*
X130633757Y-95759233D01*
X130609180Y-95783811D01*
X130584602Y-95832966D01*
X130584602Y-95931276D01*
X130609180Y-95980431D01*
X130633757Y-96005008D01*
X130682912Y-96029586D01*
X130781223Y-96029586D01*
X130830378Y-96005008D01*
X130854955Y-95980431D01*
X130879533Y-95931276D01*
X130879533Y-95832966D01*
X130854955Y-95783811D01*
X130830378Y-95759233D01*
X130781223Y-95734656D01*
%TO.C,R34*%
X129896432Y-109999586D02*
X129724389Y-109753811D01*
X129601501Y-109999586D02*
X129601501Y-109483458D01*
X129798122Y-109483458D01*
X129847277Y-109508036D01*
X129871854Y-109532613D01*
X129896432Y-109581768D01*
X129896432Y-109655501D01*
X129871854Y-109704656D01*
X129847277Y-109729233D01*
X129798122Y-109753811D01*
X129601501Y-109753811D01*
X130068474Y-109483458D02*
X130387982Y-109483458D01*
X130215939Y-109680078D01*
X130289672Y-109680078D01*
X130338827Y-109704656D01*
X130363405Y-109729233D01*
X130387982Y-109778388D01*
X130387982Y-109901276D01*
X130363405Y-109950431D01*
X130338827Y-109975008D01*
X130289672Y-109999586D01*
X130142207Y-109999586D01*
X130093052Y-109975008D01*
X130068474Y-109950431D01*
X130830378Y-109655501D02*
X130830378Y-109999586D01*
X130707490Y-109458880D02*
X130584602Y-109827543D01*
X130904110Y-109827543D01*
%TO.C,R31*%
X129896432Y-108412086D02*
X129724389Y-108166311D01*
X129601501Y-108412086D02*
X129601501Y-107895958D01*
X129798122Y-107895958D01*
X129847277Y-107920536D01*
X129871854Y-107945113D01*
X129896432Y-107994268D01*
X129896432Y-108068001D01*
X129871854Y-108117156D01*
X129847277Y-108141733D01*
X129798122Y-108166311D01*
X129601501Y-108166311D01*
X130068474Y-107895958D02*
X130387982Y-107895958D01*
X130215939Y-108092578D01*
X130289672Y-108092578D01*
X130338827Y-108117156D01*
X130363405Y-108141733D01*
X130387982Y-108190888D01*
X130387982Y-108313776D01*
X130363405Y-108362931D01*
X130338827Y-108387508D01*
X130289672Y-108412086D01*
X130142207Y-108412086D01*
X130093052Y-108387508D01*
X130068474Y-108362931D01*
X130879533Y-108412086D02*
X130584602Y-108412086D01*
X130732067Y-108412086D02*
X130732067Y-107895958D01*
X130682912Y-107969691D01*
X130633757Y-108018846D01*
X130584602Y-108043423D01*
%TO.C,C36*%
X129896432Y-106775431D02*
X129871854Y-106800008D01*
X129798122Y-106824586D01*
X129748967Y-106824586D01*
X129675234Y-106800008D01*
X129626079Y-106750853D01*
X129601501Y-106701698D01*
X129576924Y-106603388D01*
X129576924Y-106529656D01*
X129601501Y-106431346D01*
X129626079Y-106382191D01*
X129675234Y-106333036D01*
X129748967Y-106308458D01*
X129798122Y-106308458D01*
X129871854Y-106333036D01*
X129896432Y-106357613D01*
X130068474Y-106308458D02*
X130387982Y-106308458D01*
X130215939Y-106505078D01*
X130289672Y-106505078D01*
X130338827Y-106529656D01*
X130363405Y-106554233D01*
X130387982Y-106603388D01*
X130387982Y-106726276D01*
X130363405Y-106775431D01*
X130338827Y-106800008D01*
X130289672Y-106824586D01*
X130142207Y-106824586D01*
X130093052Y-106800008D01*
X130068474Y-106775431D01*
X130830378Y-106308458D02*
X130732067Y-106308458D01*
X130682912Y-106333036D01*
X130658335Y-106357613D01*
X130609180Y-106431346D01*
X130584602Y-106529656D01*
X130584602Y-106726276D01*
X130609180Y-106775431D01*
X130633757Y-106800008D01*
X130682912Y-106824586D01*
X130781223Y-106824586D01*
X130830378Y-106800008D01*
X130854955Y-106775431D01*
X130879533Y-106726276D01*
X130879533Y-106603388D01*
X130854955Y-106554233D01*
X130830378Y-106529656D01*
X130781223Y-106505078D01*
X130682912Y-106505078D01*
X130633757Y-106529656D01*
X130609180Y-106554233D01*
X130584602Y-106603388D01*
D16*
%TO.C,IC3*%
X127834510Y-86183716D02*
X127196970Y-86183716D01*
X127773792Y-85515817D02*
X127804151Y-85546176D01*
X127834510Y-85637253D01*
X127834510Y-85697971D01*
X127804151Y-85789048D01*
X127743433Y-85849766D01*
X127682715Y-85880125D01*
X127561279Y-85910485D01*
X127470202Y-85910485D01*
X127348766Y-85880125D01*
X127288048Y-85849766D01*
X127227330Y-85789048D01*
X127196970Y-85697971D01*
X127196970Y-85637253D01*
X127227330Y-85546176D01*
X127257689Y-85515817D01*
X127196970Y-85303304D02*
X127196970Y-84908636D01*
X127439843Y-85121149D01*
X127439843Y-85030072D01*
X127470202Y-84969354D01*
X127500561Y-84938995D01*
X127561279Y-84908636D01*
X127713074Y-84908636D01*
X127773792Y-84938995D01*
X127804151Y-84969354D01*
X127834510Y-85030072D01*
X127834510Y-85212226D01*
X127804151Y-85272945D01*
X127773792Y-85303304D01*
D14*
%TO.C,R12*%
X127779586Y-81063267D02*
X127533811Y-81235310D01*
X127779586Y-81358198D02*
X127263458Y-81358198D01*
X127263458Y-81161577D01*
X127288036Y-81112422D01*
X127312613Y-81087845D01*
X127361768Y-81063267D01*
X127435501Y-81063267D01*
X127484656Y-81087845D01*
X127509233Y-81112422D01*
X127533811Y-81161577D01*
X127533811Y-81358198D01*
X127779586Y-80571717D02*
X127779586Y-80866647D01*
X127779586Y-80719182D02*
X127263458Y-80719182D01*
X127337191Y-80768337D01*
X127386346Y-80817492D01*
X127410923Y-80866647D01*
X127312613Y-80375097D02*
X127288036Y-80350519D01*
X127263458Y-80301364D01*
X127263458Y-80178476D01*
X127288036Y-80129321D01*
X127312613Y-80104744D01*
X127361768Y-80080166D01*
X127410923Y-80080166D01*
X127484656Y-80104744D01*
X127779586Y-80399674D01*
X127779586Y-80080166D01*
%TO.C,C15*%
X127730431Y-83285767D02*
X127755008Y-83310345D01*
X127779586Y-83384077D01*
X127779586Y-83433232D01*
X127755008Y-83506965D01*
X127705853Y-83556120D01*
X127656698Y-83580698D01*
X127558388Y-83605275D01*
X127484656Y-83605275D01*
X127386346Y-83580698D01*
X127337191Y-83556120D01*
X127288036Y-83506965D01*
X127263458Y-83433232D01*
X127263458Y-83384077D01*
X127288036Y-83310345D01*
X127312613Y-83285767D01*
X127779586Y-82794217D02*
X127779586Y-83089147D01*
X127779586Y-82941682D02*
X127263458Y-82941682D01*
X127337191Y-82990837D01*
X127386346Y-83039992D01*
X127410923Y-83089147D01*
X127263458Y-82327244D02*
X127263458Y-82573019D01*
X127509233Y-82597597D01*
X127484656Y-82573019D01*
X127460078Y-82523864D01*
X127460078Y-82400976D01*
X127484656Y-82351821D01*
X127509233Y-82327244D01*
X127558388Y-82302666D01*
X127681276Y-82302666D01*
X127730431Y-82327244D01*
X127755008Y-82351821D01*
X127779586Y-82400976D01*
X127779586Y-82523864D01*
X127755008Y-82573019D01*
X127730431Y-82597597D01*
D17*
%TO.C,C8*%
X116379679Y-76100047D02*
X116414823Y-76135191D01*
X116449967Y-76240623D01*
X116449967Y-76310911D01*
X116414823Y-76416343D01*
X116344535Y-76486630D01*
X116274247Y-76521774D01*
X116133671Y-76556918D01*
X116028240Y-76556918D01*
X115887664Y-76521774D01*
X115817376Y-76486630D01*
X115747089Y-76416343D01*
X115711945Y-76310911D01*
X115711945Y-76240623D01*
X115747089Y-76135191D01*
X115782232Y-76100047D01*
X116028240Y-75678321D02*
X115993096Y-75748608D01*
X115957952Y-75783752D01*
X115887664Y-75818896D01*
X115852520Y-75818896D01*
X115782232Y-75783752D01*
X115747089Y-75748608D01*
X115711945Y-75678321D01*
X115711945Y-75537745D01*
X115747089Y-75467457D01*
X115782232Y-75432313D01*
X115852520Y-75397169D01*
X115887664Y-75397169D01*
X115957952Y-75432313D01*
X115993096Y-75467457D01*
X116028240Y-75537745D01*
X116028240Y-75678321D01*
X116063384Y-75748608D01*
X116098528Y-75783752D01*
X116168815Y-75818896D01*
X116309391Y-75818896D01*
X116379679Y-75783752D01*
X116414823Y-75748608D01*
X116449967Y-75678321D01*
X116449967Y-75537745D01*
X116414823Y-75467457D01*
X116379679Y-75432313D01*
X116309391Y-75397169D01*
X116168815Y-75397169D01*
X116098528Y-75432313D01*
X116063384Y-75467457D01*
X116028240Y-75537745D01*
D14*
%TO.C,C6*%
X124672982Y-72167931D02*
X124648405Y-72192508D01*
X124574672Y-72217086D01*
X124525517Y-72217086D01*
X124451784Y-72192508D01*
X124402629Y-72143353D01*
X124378052Y-72094198D01*
X124353474Y-71995888D01*
X124353474Y-71922156D01*
X124378052Y-71823846D01*
X124402629Y-71774691D01*
X124451784Y-71725536D01*
X124525517Y-71700958D01*
X124574672Y-71700958D01*
X124648405Y-71725536D01*
X124672982Y-71750113D01*
X125115378Y-71700958D02*
X125017067Y-71700958D01*
X124967912Y-71725536D01*
X124943335Y-71750113D01*
X124894180Y-71823846D01*
X124869602Y-71922156D01*
X124869602Y-72118776D01*
X124894180Y-72167931D01*
X124918757Y-72192508D01*
X124967912Y-72217086D01*
X125066223Y-72217086D01*
X125115378Y-72192508D01*
X125139955Y-72167931D01*
X125164533Y-72118776D01*
X125164533Y-71995888D01*
X125139955Y-71946733D01*
X125115378Y-71922156D01*
X125066223Y-71897578D01*
X124967912Y-71897578D01*
X124918757Y-71922156D01*
X124894180Y-71946733D01*
X124869602Y-71995888D01*
D18*
%TO.C,IC1*%
X125576934Y-66001639D02*
X124736194Y-66001639D01*
X125496864Y-65120864D02*
X125536899Y-65160899D01*
X125576934Y-65281005D01*
X125576934Y-65361076D01*
X125536899Y-65481181D01*
X125456829Y-65561252D01*
X125376758Y-65601287D01*
X125216617Y-65641322D01*
X125096511Y-65641322D01*
X124936370Y-65601287D01*
X124856300Y-65561252D01*
X124776230Y-65481181D01*
X124736194Y-65361076D01*
X124736194Y-65281005D01*
X124776230Y-65160899D01*
X124816265Y-65120864D01*
X125576934Y-64320159D02*
X125576934Y-64800582D01*
X125576934Y-64560371D02*
X124736194Y-64560371D01*
X124856300Y-64640441D01*
X124936370Y-64720512D01*
X124976406Y-64800582D01*
D14*
%TO.C,D1*%
X132540625Y-54529010D02*
X132540625Y-53809682D01*
X132711893Y-53809682D01*
X132814655Y-53843936D01*
X132883162Y-53912443D01*
X132917416Y-53980950D01*
X132951669Y-54117965D01*
X132951669Y-54220726D01*
X132917416Y-54357741D01*
X132883162Y-54426249D01*
X132814655Y-54494756D01*
X132711893Y-54529010D01*
X132540625Y-54529010D01*
X133636744Y-54529010D02*
X133225699Y-54529010D01*
X133431221Y-54529010D02*
X133431221Y-53809682D01*
X133362714Y-53912443D01*
X133294207Y-53980950D01*
X133225699Y-54015204D01*
%TO.C,D2*%
X152543125Y-54529010D02*
X152543125Y-53809682D01*
X152714393Y-53809682D01*
X152817155Y-53843936D01*
X152885662Y-53912443D01*
X152919916Y-53980950D01*
X152954169Y-54117965D01*
X152954169Y-54220726D01*
X152919916Y-54357741D01*
X152885662Y-54426249D01*
X152817155Y-54494756D01*
X152714393Y-54529010D01*
X152543125Y-54529010D01*
X153228199Y-53878189D02*
X153262453Y-53843936D01*
X153330960Y-53809682D01*
X153502229Y-53809682D01*
X153570736Y-53843936D01*
X153604990Y-53878189D01*
X153639244Y-53946697D01*
X153639244Y-54015204D01*
X153604990Y-54117965D01*
X153193945Y-54529010D01*
X153639244Y-54529010D01*
%TO.C,R36*%
X134658932Y-112222086D02*
X134486889Y-111976311D01*
X134364001Y-112222086D02*
X134364001Y-111705958D01*
X134560622Y-111705958D01*
X134609777Y-111730536D01*
X134634354Y-111755113D01*
X134658932Y-111804268D01*
X134658932Y-111878001D01*
X134634354Y-111927156D01*
X134609777Y-111951733D01*
X134560622Y-111976311D01*
X134364001Y-111976311D01*
X134830974Y-111705958D02*
X135150482Y-111705958D01*
X134978439Y-111902578D01*
X135052172Y-111902578D01*
X135101327Y-111927156D01*
X135125905Y-111951733D01*
X135150482Y-112000888D01*
X135150482Y-112123776D01*
X135125905Y-112172931D01*
X135101327Y-112197508D01*
X135052172Y-112222086D01*
X134904707Y-112222086D01*
X134855552Y-112197508D01*
X134830974Y-112172931D01*
X135592878Y-111705958D02*
X135494567Y-111705958D01*
X135445412Y-111730536D01*
X135420835Y-111755113D01*
X135371680Y-111828846D01*
X135347102Y-111927156D01*
X135347102Y-112123776D01*
X135371680Y-112172931D01*
X135396257Y-112197508D01*
X135445412Y-112222086D01*
X135543723Y-112222086D01*
X135592878Y-112197508D01*
X135617455Y-112172931D01*
X135642033Y-112123776D01*
X135642033Y-112000888D01*
X135617455Y-111951733D01*
X135592878Y-111927156D01*
X135543723Y-111902578D01*
X135445412Y-111902578D01*
X135396257Y-111927156D01*
X135371680Y-111951733D01*
X135347102Y-112000888D01*
%TO.C,C37*%
X135611432Y-107727931D02*
X135586854Y-107752508D01*
X135513122Y-107777086D01*
X135463967Y-107777086D01*
X135390234Y-107752508D01*
X135341079Y-107703353D01*
X135316501Y-107654198D01*
X135291924Y-107555888D01*
X135291924Y-107482156D01*
X135316501Y-107383846D01*
X135341079Y-107334691D01*
X135390234Y-107285536D01*
X135463967Y-107260958D01*
X135513122Y-107260958D01*
X135586854Y-107285536D01*
X135611432Y-107310113D01*
X135783474Y-107260958D02*
X136102982Y-107260958D01*
X135930939Y-107457578D01*
X136004672Y-107457578D01*
X136053827Y-107482156D01*
X136078405Y-107506733D01*
X136102982Y-107555888D01*
X136102982Y-107678776D01*
X136078405Y-107727931D01*
X136053827Y-107752508D01*
X136004672Y-107777086D01*
X135857207Y-107777086D01*
X135808052Y-107752508D01*
X135783474Y-107727931D01*
X136275025Y-107260958D02*
X136619110Y-107260958D01*
X136397912Y-107777086D01*
D19*
%TO.C,IC6*%
X156241450Y-92617634D02*
X156241450Y-91841664D01*
X157054371Y-92543732D02*
X157017420Y-92580683D01*
X156906567Y-92617634D01*
X156832665Y-92617634D01*
X156721812Y-92580683D01*
X156647910Y-92506781D01*
X156610959Y-92432879D01*
X156574008Y-92285075D01*
X156574008Y-92174222D01*
X156610959Y-92026418D01*
X156647910Y-91952516D01*
X156721812Y-91878615D01*
X156832665Y-91841664D01*
X156906567Y-91841664D01*
X157017420Y-91878615D01*
X157054371Y-91915565D01*
X157719488Y-91841664D02*
X157571684Y-91841664D01*
X157497782Y-91878615D01*
X157460831Y-91915565D01*
X157386929Y-92026418D01*
X157349978Y-92174222D01*
X157349978Y-92469830D01*
X157386929Y-92543732D01*
X157423880Y-92580683D01*
X157497782Y-92617634D01*
X157645586Y-92617634D01*
X157719488Y-92580683D01*
X157756439Y-92543732D01*
X157793390Y-92469830D01*
X157793390Y-92285075D01*
X157756439Y-92211173D01*
X157719488Y-92174222D01*
X157645586Y-92137271D01*
X157497782Y-92137271D01*
X157423880Y-92174222D01*
X157386929Y-92211173D01*
X157349978Y-92285075D01*
D20*
%TO.C,L3*%
X140996144Y-70334074D02*
X140727223Y-70334074D01*
X140727223Y-69769341D01*
X141130604Y-69769341D02*
X141480201Y-69769341D01*
X141291956Y-69984477D01*
X141372632Y-69984477D01*
X141426417Y-70011369D01*
X141453309Y-70038261D01*
X141480201Y-70092046D01*
X141480201Y-70226506D01*
X141453309Y-70280290D01*
X141426417Y-70307182D01*
X141372632Y-70334074D01*
X141211280Y-70334074D01*
X141157496Y-70307182D01*
X141130604Y-70280290D01*
D14*
%TO.C,C35*%
X166759674Y-103282931D02*
X166735097Y-103307508D01*
X166661364Y-103332086D01*
X166612209Y-103332086D01*
X166538476Y-103307508D01*
X166489321Y-103258353D01*
X166464744Y-103209198D01*
X166440166Y-103110888D01*
X166440166Y-103037156D01*
X166464744Y-102938846D01*
X166489321Y-102889691D01*
X166538476Y-102840536D01*
X166612209Y-102815958D01*
X166661364Y-102815958D01*
X166735097Y-102840536D01*
X166759674Y-102865113D01*
X166931717Y-102815958D02*
X167251225Y-102815958D01*
X167079182Y-103012578D01*
X167152915Y-103012578D01*
X167202070Y-103037156D01*
X167226647Y-103061733D01*
X167251225Y-103110888D01*
X167251225Y-103233776D01*
X167226647Y-103282931D01*
X167202070Y-103307508D01*
X167152915Y-103332086D01*
X167005449Y-103332086D01*
X166956294Y-103307508D01*
X166931717Y-103282931D01*
X167718198Y-102815958D02*
X167472422Y-102815958D01*
X167447845Y-103061733D01*
X167472422Y-103037156D01*
X167521577Y-103012578D01*
X167644465Y-103012578D01*
X167693620Y-103037156D01*
X167718198Y-103061733D01*
X167742775Y-103110888D01*
X167742775Y-103233776D01*
X167718198Y-103282931D01*
X167693620Y-103307508D01*
X167644465Y-103332086D01*
X167521577Y-103332086D01*
X167472422Y-103307508D01*
X167447845Y-103282931D01*
D17*
%TO.C,C34*%
X161828662Y-107172179D02*
X161793518Y-107207323D01*
X161688086Y-107242467D01*
X161617799Y-107242467D01*
X161512367Y-107207323D01*
X161442079Y-107137035D01*
X161406935Y-107066747D01*
X161371791Y-106926171D01*
X161371791Y-106820740D01*
X161406935Y-106680164D01*
X161442079Y-106609876D01*
X161512367Y-106539589D01*
X161617799Y-106504445D01*
X161688086Y-106504445D01*
X161793518Y-106539589D01*
X161828662Y-106574732D01*
X162074669Y-106504445D02*
X162531540Y-106504445D01*
X162285533Y-106785596D01*
X162390964Y-106785596D01*
X162461252Y-106820740D01*
X162496396Y-106855884D01*
X162531540Y-106926171D01*
X162531540Y-107101891D01*
X162496396Y-107172179D01*
X162461252Y-107207323D01*
X162390964Y-107242467D01*
X162180101Y-107242467D01*
X162109813Y-107207323D01*
X162074669Y-107172179D01*
X163164130Y-106750452D02*
X163164130Y-107242467D01*
X162988411Y-106469301D02*
X162812691Y-106996459D01*
X163269562Y-106996459D01*
D14*
%TO.C,R27*%
X166442174Y-96982086D02*
X166270132Y-96736311D01*
X166147244Y-96982086D02*
X166147244Y-96465958D01*
X166343864Y-96465958D01*
X166393019Y-96490536D01*
X166417597Y-96515113D01*
X166442174Y-96564268D01*
X166442174Y-96638001D01*
X166417597Y-96687156D01*
X166393019Y-96711733D01*
X166343864Y-96736311D01*
X166147244Y-96736311D01*
X166638794Y-96515113D02*
X166663372Y-96490536D01*
X166712527Y-96465958D01*
X166835415Y-96465958D01*
X166884570Y-96490536D01*
X166909147Y-96515113D01*
X166933725Y-96564268D01*
X166933725Y-96613423D01*
X166909147Y-96687156D01*
X166614217Y-96982086D01*
X166933725Y-96982086D01*
X167105767Y-96465958D02*
X167449853Y-96465958D01*
X167228655Y-96982086D01*
%TO.C,R54*%
X154449586Y-153102525D02*
X154203811Y-153274567D01*
X154449586Y-153397455D02*
X153933458Y-153397455D01*
X153933458Y-153200835D01*
X153958036Y-153151680D01*
X153982613Y-153127102D01*
X154031768Y-153102525D01*
X154105501Y-153102525D01*
X154154656Y-153127102D01*
X154179233Y-153151680D01*
X154203811Y-153200835D01*
X154203811Y-153397455D01*
X153933458Y-152635552D02*
X153933458Y-152881327D01*
X154179233Y-152905905D01*
X154154656Y-152881327D01*
X154130078Y-152832172D01*
X154130078Y-152709284D01*
X154154656Y-152660129D01*
X154179233Y-152635552D01*
X154228388Y-152610974D01*
X154351276Y-152610974D01*
X154400431Y-152635552D01*
X154425008Y-152660129D01*
X154449586Y-152709284D01*
X154449586Y-152832172D01*
X154425008Y-152881327D01*
X154400431Y-152905905D01*
X154105501Y-152168579D02*
X154449586Y-152168579D01*
X153908880Y-152291467D02*
X154277543Y-152414354D01*
X154277543Y-152094846D01*
%TO.C,R51*%
X153742174Y-146829586D02*
X153570132Y-146583811D01*
X153447244Y-146829586D02*
X153447244Y-146313458D01*
X153643864Y-146313458D01*
X153693019Y-146338036D01*
X153717597Y-146362613D01*
X153742174Y-146411768D01*
X153742174Y-146485501D01*
X153717597Y-146534656D01*
X153693019Y-146559233D01*
X153643864Y-146583811D01*
X153447244Y-146583811D01*
X154209147Y-146313458D02*
X153963372Y-146313458D01*
X153938794Y-146559233D01*
X153963372Y-146534656D01*
X154012527Y-146510078D01*
X154135415Y-146510078D01*
X154184570Y-146534656D01*
X154209147Y-146559233D01*
X154233725Y-146608388D01*
X154233725Y-146731276D01*
X154209147Y-146780431D01*
X154184570Y-146805008D01*
X154135415Y-146829586D01*
X154012527Y-146829586D01*
X153963372Y-146805008D01*
X153938794Y-146780431D01*
X154725275Y-146829586D02*
X154430345Y-146829586D01*
X154577810Y-146829586D02*
X154577810Y-146313458D01*
X154528655Y-146387191D01*
X154479500Y-146436346D01*
X154430345Y-146460923D01*
%TO.C,C49*%
X153742174Y-145192931D02*
X153717597Y-145217508D01*
X153643864Y-145242086D01*
X153594709Y-145242086D01*
X153520976Y-145217508D01*
X153471821Y-145168353D01*
X153447244Y-145119198D01*
X153422666Y-145020888D01*
X153422666Y-144947156D01*
X153447244Y-144848846D01*
X153471821Y-144799691D01*
X153520976Y-144750536D01*
X153594709Y-144725958D01*
X153643864Y-144725958D01*
X153717597Y-144750536D01*
X153742174Y-144775113D01*
X154184570Y-144898001D02*
X154184570Y-145242086D01*
X154061682Y-144701380D02*
X153938794Y-145070043D01*
X154258302Y-145070043D01*
X154479500Y-145242086D02*
X154577810Y-145242086D01*
X154626965Y-145217508D01*
X154651543Y-145192931D01*
X154700698Y-145119198D01*
X154725275Y-145020888D01*
X154725275Y-144824268D01*
X154700698Y-144775113D01*
X154676120Y-144750536D01*
X154626965Y-144725958D01*
X154528655Y-144725958D01*
X154479500Y-144750536D01*
X154454922Y-144775113D01*
X154430345Y-144824268D01*
X154430345Y-144947156D01*
X154454922Y-144996311D01*
X154479500Y-145020888D01*
X154528655Y-145045466D01*
X154626965Y-145045466D01*
X154676120Y-145020888D01*
X154700698Y-144996311D01*
X154725275Y-144947156D01*
D17*
%TO.C,C40*%
X170174652Y-113127179D02*
X170139508Y-113162323D01*
X170034076Y-113197467D01*
X169963788Y-113197467D01*
X169858356Y-113162323D01*
X169788069Y-113092035D01*
X169752925Y-113021747D01*
X169717781Y-112881171D01*
X169717781Y-112775740D01*
X169752925Y-112635164D01*
X169788069Y-112564876D01*
X169858356Y-112494589D01*
X169963788Y-112459445D01*
X170034076Y-112459445D01*
X170139508Y-112494589D01*
X170174652Y-112529732D01*
X170807242Y-112705452D02*
X170807242Y-113197467D01*
X170631522Y-112424301D02*
X170455803Y-112951459D01*
X170912674Y-112951459D01*
X171334400Y-112459445D02*
X171404688Y-112459445D01*
X171474976Y-112494589D01*
X171510120Y-112529732D01*
X171545264Y-112600020D01*
X171580408Y-112740596D01*
X171580408Y-112916315D01*
X171545264Y-113056891D01*
X171510120Y-113127179D01*
X171474976Y-113162323D01*
X171404688Y-113197467D01*
X171334400Y-113197467D01*
X171264113Y-113162323D01*
X171228969Y-113127179D01*
X171193825Y-113056891D01*
X171158681Y-112916315D01*
X171158681Y-112740596D01*
X171193825Y-112600020D01*
X171228969Y-112529732D01*
X171264113Y-112494589D01*
X171334400Y-112459445D01*
%TO.C,C33*%
X157311162Y-107249679D02*
X157276018Y-107284823D01*
X157170586Y-107319967D01*
X157100299Y-107319967D01*
X156994867Y-107284823D01*
X156924579Y-107214535D01*
X156889435Y-107144247D01*
X156854291Y-107003671D01*
X156854291Y-106898240D01*
X156889435Y-106757664D01*
X156924579Y-106687376D01*
X156994867Y-106617089D01*
X157100299Y-106581945D01*
X157170586Y-106581945D01*
X157276018Y-106617089D01*
X157311162Y-106652232D01*
X157557169Y-106581945D02*
X158014040Y-106581945D01*
X157768033Y-106863096D01*
X157873464Y-106863096D01*
X157943752Y-106898240D01*
X157978896Y-106933384D01*
X158014040Y-107003671D01*
X158014040Y-107179391D01*
X157978896Y-107249679D01*
X157943752Y-107284823D01*
X157873464Y-107319967D01*
X157662601Y-107319967D01*
X157592313Y-107284823D01*
X157557169Y-107249679D01*
X158260047Y-106581945D02*
X158716918Y-106581945D01*
X158470911Y-106863096D01*
X158576343Y-106863096D01*
X158646630Y-106898240D01*
X158681774Y-106933384D01*
X158716918Y-107003671D01*
X158716918Y-107179391D01*
X158681774Y-107249679D01*
X158646630Y-107284823D01*
X158576343Y-107319967D01*
X158365479Y-107319967D01*
X158295191Y-107284823D01*
X158260047Y-107249679D01*
D14*
%TO.C,R38*%
X164854674Y-110317086D02*
X164682632Y-110071311D01*
X164559744Y-110317086D02*
X164559744Y-109800958D01*
X164756364Y-109800958D01*
X164805519Y-109825536D01*
X164830097Y-109850113D01*
X164854674Y-109899268D01*
X164854674Y-109973001D01*
X164830097Y-110022156D01*
X164805519Y-110046733D01*
X164756364Y-110071311D01*
X164559744Y-110071311D01*
X165026717Y-109800958D02*
X165346225Y-109800958D01*
X165174182Y-109997578D01*
X165247915Y-109997578D01*
X165297070Y-110022156D01*
X165321647Y-110046733D01*
X165346225Y-110095888D01*
X165346225Y-110218776D01*
X165321647Y-110267931D01*
X165297070Y-110292508D01*
X165247915Y-110317086D01*
X165100449Y-110317086D01*
X165051294Y-110292508D01*
X165026717Y-110267931D01*
X165641155Y-110022156D02*
X165592000Y-109997578D01*
X165567422Y-109973001D01*
X165542845Y-109923846D01*
X165542845Y-109899268D01*
X165567422Y-109850113D01*
X165592000Y-109825536D01*
X165641155Y-109800958D01*
X165739465Y-109800958D01*
X165788620Y-109825536D01*
X165813198Y-109850113D01*
X165837775Y-109899268D01*
X165837775Y-109923846D01*
X165813198Y-109973001D01*
X165788620Y-109997578D01*
X165739465Y-110022156D01*
X165641155Y-110022156D01*
X165592000Y-110046733D01*
X165567422Y-110071311D01*
X165542845Y-110120466D01*
X165542845Y-110218776D01*
X165567422Y-110267931D01*
X165592000Y-110292508D01*
X165641155Y-110317086D01*
X165739465Y-110317086D01*
X165788620Y-110292508D01*
X165813198Y-110267931D01*
X165837775Y-110218776D01*
X165837775Y-110120466D01*
X165813198Y-110071311D01*
X165788620Y-110046733D01*
X165739465Y-110022156D01*
%TO.C,R43*%
X163551432Y-115397086D02*
X163379389Y-115151311D01*
X163256501Y-115397086D02*
X163256501Y-114880958D01*
X163453122Y-114880958D01*
X163502277Y-114905536D01*
X163526854Y-114930113D01*
X163551432Y-114979268D01*
X163551432Y-115053001D01*
X163526854Y-115102156D01*
X163502277Y-115126733D01*
X163453122Y-115151311D01*
X163256501Y-115151311D01*
X163993827Y-115053001D02*
X163993827Y-115397086D01*
X163870939Y-114856380D02*
X163748052Y-115225043D01*
X164067560Y-115225043D01*
X164215025Y-114880958D02*
X164534533Y-114880958D01*
X164362490Y-115077578D01*
X164436223Y-115077578D01*
X164485378Y-115102156D01*
X164509955Y-115126733D01*
X164534533Y-115175888D01*
X164534533Y-115298776D01*
X164509955Y-115347931D01*
X164485378Y-115372508D01*
X164436223Y-115397086D01*
X164288757Y-115397086D01*
X164239602Y-115372508D01*
X164215025Y-115347931D01*
D15*
%TO.C,IC8*%
X154788821Y-116309381D02*
X154788821Y-115461021D01*
X155677579Y-116228585D02*
X155637181Y-116268983D01*
X155515987Y-116309381D01*
X155435191Y-116309381D01*
X155313996Y-116268983D01*
X155233200Y-116188187D01*
X155192802Y-116107391D01*
X155152404Y-115945799D01*
X155152404Y-115824604D01*
X155192802Y-115663012D01*
X155233200Y-115582216D01*
X155313996Y-115501420D01*
X155435191Y-115461021D01*
X155515987Y-115461021D01*
X155637181Y-115501420D01*
X155677579Y-115541818D01*
X156162356Y-115824604D02*
X156081560Y-115784206D01*
X156041162Y-115743808D01*
X156000764Y-115663012D01*
X156000764Y-115622614D01*
X156041162Y-115541818D01*
X156081560Y-115501420D01*
X156162356Y-115461021D01*
X156323949Y-115461021D01*
X156404745Y-115501420D01*
X156445143Y-115541818D01*
X156485541Y-115622614D01*
X156485541Y-115663012D01*
X156445143Y-115743808D01*
X156404745Y-115784206D01*
X156323949Y-115824604D01*
X156162356Y-115824604D01*
X156081560Y-115865002D01*
X156041162Y-115905400D01*
X156000764Y-115986197D01*
X156000764Y-116147789D01*
X156041162Y-116228585D01*
X156081560Y-116268983D01*
X156162356Y-116309381D01*
X156323949Y-116309381D01*
X156404745Y-116268983D01*
X156445143Y-116228585D01*
X156485541Y-116147789D01*
X156485541Y-115986197D01*
X156445143Y-115905400D01*
X156404745Y-115865002D01*
X156323949Y-115824604D01*
D14*
%TO.C,R42*%
X161646432Y-115397086D02*
X161474389Y-115151311D01*
X161351501Y-115397086D02*
X161351501Y-114880958D01*
X161548122Y-114880958D01*
X161597277Y-114905536D01*
X161621854Y-114930113D01*
X161646432Y-114979268D01*
X161646432Y-115053001D01*
X161621854Y-115102156D01*
X161597277Y-115126733D01*
X161548122Y-115151311D01*
X161351501Y-115151311D01*
X162088827Y-115053001D02*
X162088827Y-115397086D01*
X161965939Y-114856380D02*
X161843052Y-115225043D01*
X162162560Y-115225043D01*
X162334602Y-114930113D02*
X162359180Y-114905536D01*
X162408335Y-114880958D01*
X162531223Y-114880958D01*
X162580378Y-114905536D01*
X162604955Y-114930113D01*
X162629533Y-114979268D01*
X162629533Y-115028423D01*
X162604955Y-115102156D01*
X162310025Y-115397086D01*
X162629533Y-115397086D01*
%TO.C,C43*%
X159741432Y-115347931D02*
X159716854Y-115372508D01*
X159643122Y-115397086D01*
X159593967Y-115397086D01*
X159520234Y-115372508D01*
X159471079Y-115323353D01*
X159446501Y-115274198D01*
X159421924Y-115175888D01*
X159421924Y-115102156D01*
X159446501Y-115003846D01*
X159471079Y-114954691D01*
X159520234Y-114905536D01*
X159593967Y-114880958D01*
X159643122Y-114880958D01*
X159716854Y-114905536D01*
X159741432Y-114930113D01*
X160183827Y-115053001D02*
X160183827Y-115397086D01*
X160060939Y-114856380D02*
X159938052Y-115225043D01*
X160257560Y-115225043D01*
X160405025Y-114880958D02*
X160724533Y-114880958D01*
X160552490Y-115077578D01*
X160626223Y-115077578D01*
X160675378Y-115102156D01*
X160699955Y-115126733D01*
X160724533Y-115175888D01*
X160724533Y-115298776D01*
X160699955Y-115347931D01*
X160675378Y-115372508D01*
X160626223Y-115397086D01*
X160478757Y-115397086D01*
X160429602Y-115372508D01*
X160405025Y-115347931D01*
%TO.C,R56*%
X169689586Y-153102525D02*
X169443811Y-153274567D01*
X169689586Y-153397455D02*
X169173458Y-153397455D01*
X169173458Y-153200835D01*
X169198036Y-153151680D01*
X169222613Y-153127102D01*
X169271768Y-153102525D01*
X169345501Y-153102525D01*
X169394656Y-153127102D01*
X169419233Y-153151680D01*
X169443811Y-153200835D01*
X169443811Y-153397455D01*
X169173458Y-152635552D02*
X169173458Y-152881327D01*
X169419233Y-152905905D01*
X169394656Y-152881327D01*
X169370078Y-152832172D01*
X169370078Y-152709284D01*
X169394656Y-152660129D01*
X169419233Y-152635552D01*
X169468388Y-152610974D01*
X169591276Y-152610974D01*
X169640431Y-152635552D01*
X169665008Y-152660129D01*
X169689586Y-152709284D01*
X169689586Y-152832172D01*
X169665008Y-152881327D01*
X169640431Y-152905905D01*
X169173458Y-152168579D02*
X169173458Y-152266889D01*
X169198036Y-152316044D01*
X169222613Y-152340622D01*
X169296346Y-152389777D01*
X169394656Y-152414354D01*
X169591276Y-152414354D01*
X169640431Y-152389777D01*
X169665008Y-152365199D01*
X169689586Y-152316044D01*
X169689586Y-152217734D01*
X169665008Y-152168579D01*
X169640431Y-152144001D01*
X169591276Y-152119424D01*
X169468388Y-152119424D01*
X169419233Y-152144001D01*
X169394656Y-152168579D01*
X169370078Y-152217734D01*
X169370078Y-152316044D01*
X169394656Y-152365199D01*
X169419233Y-152389777D01*
X169468388Y-152414354D01*
D17*
%TO.C,C32*%
X152866162Y-107249679D02*
X152831018Y-107284823D01*
X152725586Y-107319967D01*
X152655299Y-107319967D01*
X152549867Y-107284823D01*
X152479579Y-107214535D01*
X152444435Y-107144247D01*
X152409291Y-107003671D01*
X152409291Y-106898240D01*
X152444435Y-106757664D01*
X152479579Y-106687376D01*
X152549867Y-106617089D01*
X152655299Y-106581945D01*
X152725586Y-106581945D01*
X152831018Y-106617089D01*
X152866162Y-106652232D01*
X153112169Y-106581945D02*
X153569040Y-106581945D01*
X153323033Y-106863096D01*
X153428464Y-106863096D01*
X153498752Y-106898240D01*
X153533896Y-106933384D01*
X153569040Y-107003671D01*
X153569040Y-107179391D01*
X153533896Y-107249679D01*
X153498752Y-107284823D01*
X153428464Y-107319967D01*
X153217601Y-107319967D01*
X153147313Y-107284823D01*
X153112169Y-107249679D01*
X153850191Y-106652232D02*
X153885335Y-106617089D01*
X153955623Y-106581945D01*
X154131343Y-106581945D01*
X154201630Y-106617089D01*
X154236774Y-106652232D01*
X154271918Y-106722520D01*
X154271918Y-106792808D01*
X154236774Y-106898240D01*
X153815047Y-107319967D01*
X154271918Y-107319967D01*
D14*
%TO.C,R33*%
X158504674Y-109999586D02*
X158332632Y-109753811D01*
X158209744Y-109999586D02*
X158209744Y-109483458D01*
X158406364Y-109483458D01*
X158455519Y-109508036D01*
X158480097Y-109532613D01*
X158504674Y-109581768D01*
X158504674Y-109655501D01*
X158480097Y-109704656D01*
X158455519Y-109729233D01*
X158406364Y-109753811D01*
X158209744Y-109753811D01*
X158676717Y-109483458D02*
X158996225Y-109483458D01*
X158824182Y-109680078D01*
X158897915Y-109680078D01*
X158947070Y-109704656D01*
X158971647Y-109729233D01*
X158996225Y-109778388D01*
X158996225Y-109901276D01*
X158971647Y-109950431D01*
X158947070Y-109975008D01*
X158897915Y-109999586D01*
X158750449Y-109999586D01*
X158701294Y-109975008D01*
X158676717Y-109950431D01*
X159168267Y-109483458D02*
X159487775Y-109483458D01*
X159315732Y-109680078D01*
X159389465Y-109680078D01*
X159438620Y-109704656D01*
X159463198Y-109729233D01*
X159487775Y-109778388D01*
X159487775Y-109901276D01*
X159463198Y-109950431D01*
X159438620Y-109975008D01*
X159389465Y-109999586D01*
X159242000Y-109999586D01*
X159192845Y-109975008D01*
X159168267Y-109950431D01*
%TO.C,R40*%
X147074674Y-110952086D02*
X146902632Y-110706311D01*
X146779744Y-110952086D02*
X146779744Y-110435958D01*
X146976364Y-110435958D01*
X147025519Y-110460536D01*
X147050097Y-110485113D01*
X147074674Y-110534268D01*
X147074674Y-110608001D01*
X147050097Y-110657156D01*
X147025519Y-110681733D01*
X146976364Y-110706311D01*
X146779744Y-110706311D01*
X147517070Y-110608001D02*
X147517070Y-110952086D01*
X147394182Y-110411380D02*
X147271294Y-110780043D01*
X147590802Y-110780043D01*
X147885732Y-110435958D02*
X147934888Y-110435958D01*
X147984043Y-110460536D01*
X148008620Y-110485113D01*
X148033198Y-110534268D01*
X148057775Y-110632578D01*
X148057775Y-110755466D01*
X148033198Y-110853776D01*
X148008620Y-110902931D01*
X147984043Y-110927508D01*
X147934888Y-110952086D01*
X147885732Y-110952086D01*
X147836577Y-110927508D01*
X147812000Y-110902931D01*
X147787422Y-110853776D01*
X147762845Y-110755466D01*
X147762845Y-110632578D01*
X147787422Y-110534268D01*
X147812000Y-110485113D01*
X147836577Y-110460536D01*
X147885732Y-110435958D01*
%TO.C,R41*%
X148979674Y-110952086D02*
X148807632Y-110706311D01*
X148684744Y-110952086D02*
X148684744Y-110435958D01*
X148881364Y-110435958D01*
X148930519Y-110460536D01*
X148955097Y-110485113D01*
X148979674Y-110534268D01*
X148979674Y-110608001D01*
X148955097Y-110657156D01*
X148930519Y-110681733D01*
X148881364Y-110706311D01*
X148684744Y-110706311D01*
X149422070Y-110608001D02*
X149422070Y-110952086D01*
X149299182Y-110411380D02*
X149176294Y-110780043D01*
X149495802Y-110780043D01*
X149962775Y-110952086D02*
X149667845Y-110952086D01*
X149815310Y-110952086D02*
X149815310Y-110435958D01*
X149766155Y-110509691D01*
X149717000Y-110558846D01*
X149667845Y-110583423D01*
%TO.C,C42*%
X150884674Y-110902931D02*
X150860097Y-110927508D01*
X150786364Y-110952086D01*
X150737209Y-110952086D01*
X150663476Y-110927508D01*
X150614321Y-110878353D01*
X150589744Y-110829198D01*
X150565166Y-110730888D01*
X150565166Y-110657156D01*
X150589744Y-110558846D01*
X150614321Y-110509691D01*
X150663476Y-110460536D01*
X150737209Y-110435958D01*
X150786364Y-110435958D01*
X150860097Y-110460536D01*
X150884674Y-110485113D01*
X151327070Y-110608001D02*
X151327070Y-110952086D01*
X151204182Y-110411380D02*
X151081294Y-110780043D01*
X151400802Y-110780043D01*
X151572845Y-110485113D02*
X151597422Y-110460536D01*
X151646577Y-110435958D01*
X151769465Y-110435958D01*
X151818620Y-110460536D01*
X151843198Y-110485113D01*
X151867775Y-110534268D01*
X151867775Y-110583423D01*
X151843198Y-110657156D01*
X151548267Y-110952086D01*
X151867775Y-110952086D01*
%TO.C,R55*%
X156672086Y-153102525D02*
X156426311Y-153274567D01*
X156672086Y-153397455D02*
X156155958Y-153397455D01*
X156155958Y-153200835D01*
X156180536Y-153151680D01*
X156205113Y-153127102D01*
X156254268Y-153102525D01*
X156328001Y-153102525D01*
X156377156Y-153127102D01*
X156401733Y-153151680D01*
X156426311Y-153200835D01*
X156426311Y-153397455D01*
X156155958Y-152635552D02*
X156155958Y-152881327D01*
X156401733Y-152905905D01*
X156377156Y-152881327D01*
X156352578Y-152832172D01*
X156352578Y-152709284D01*
X156377156Y-152660129D01*
X156401733Y-152635552D01*
X156450888Y-152610974D01*
X156573776Y-152610974D01*
X156622931Y-152635552D01*
X156647508Y-152660129D01*
X156672086Y-152709284D01*
X156672086Y-152832172D01*
X156647508Y-152881327D01*
X156622931Y-152905905D01*
X156155958Y-152144001D02*
X156155958Y-152389777D01*
X156401733Y-152414354D01*
X156377156Y-152389777D01*
X156352578Y-152340622D01*
X156352578Y-152217734D01*
X156377156Y-152168579D01*
X156401733Y-152144001D01*
X156450888Y-152119424D01*
X156573776Y-152119424D01*
X156622931Y-152144001D01*
X156647508Y-152168579D01*
X156672086Y-152217734D01*
X156672086Y-152340622D01*
X156647508Y-152389777D01*
X156622931Y-152414354D01*
%TO.C,C39*%
X163267174Y-111855431D02*
X163242597Y-111880008D01*
X163168864Y-111904586D01*
X163119709Y-111904586D01*
X163045976Y-111880008D01*
X162996821Y-111830853D01*
X162972244Y-111781698D01*
X162947666Y-111683388D01*
X162947666Y-111609656D01*
X162972244Y-111511346D01*
X162996821Y-111462191D01*
X163045976Y-111413036D01*
X163119709Y-111388458D01*
X163168864Y-111388458D01*
X163242597Y-111413036D01*
X163267174Y-111437613D01*
X163439217Y-111388458D02*
X163758725Y-111388458D01*
X163586682Y-111585078D01*
X163660415Y-111585078D01*
X163709570Y-111609656D01*
X163734147Y-111634233D01*
X163758725Y-111683388D01*
X163758725Y-111806276D01*
X163734147Y-111855431D01*
X163709570Y-111880008D01*
X163660415Y-111904586D01*
X163512949Y-111904586D01*
X163463794Y-111880008D01*
X163439217Y-111855431D01*
X164004500Y-111904586D02*
X164102810Y-111904586D01*
X164151965Y-111880008D01*
X164176543Y-111855431D01*
X164225698Y-111781698D01*
X164250275Y-111683388D01*
X164250275Y-111486768D01*
X164225698Y-111437613D01*
X164201120Y-111413036D01*
X164151965Y-111388458D01*
X164053655Y-111388458D01*
X164004500Y-111413036D01*
X163979922Y-111437613D01*
X163955345Y-111486768D01*
X163955345Y-111609656D01*
X163979922Y-111658811D01*
X164004500Y-111683388D01*
X164053655Y-111707966D01*
X164151965Y-111707966D01*
X164201120Y-111683388D01*
X164225698Y-111658811D01*
X164250275Y-111609656D01*
%TO.C,C45*%
X147041432Y-115030431D02*
X147016854Y-115055008D01*
X146943122Y-115079586D01*
X146893967Y-115079586D01*
X146820234Y-115055008D01*
X146771079Y-115005853D01*
X146746501Y-114956698D01*
X146721924Y-114858388D01*
X146721924Y-114784656D01*
X146746501Y-114686346D01*
X146771079Y-114637191D01*
X146820234Y-114588036D01*
X146893967Y-114563458D01*
X146943122Y-114563458D01*
X147016854Y-114588036D01*
X147041432Y-114612613D01*
X147483827Y-114735501D02*
X147483827Y-115079586D01*
X147360939Y-114538880D02*
X147238052Y-114907543D01*
X147557560Y-114907543D01*
X147999955Y-114563458D02*
X147754180Y-114563458D01*
X147729602Y-114809233D01*
X147754180Y-114784656D01*
X147803335Y-114760078D01*
X147926223Y-114760078D01*
X147975378Y-114784656D01*
X147999955Y-114809233D01*
X148024533Y-114858388D01*
X148024533Y-114981276D01*
X147999955Y-115030431D01*
X147975378Y-115055008D01*
X147926223Y-115079586D01*
X147803335Y-115079586D01*
X147754180Y-115055008D01*
X147729602Y-115030431D01*
%TO.C,R16*%
X157075974Y-88409586D02*
X156903932Y-88163811D01*
X156781044Y-88409586D02*
X156781044Y-87893458D01*
X156977664Y-87893458D01*
X157026819Y-87918036D01*
X157051397Y-87942613D01*
X157075974Y-87991768D01*
X157075974Y-88065501D01*
X157051397Y-88114656D01*
X157026819Y-88139233D01*
X156977664Y-88163811D01*
X156781044Y-88163811D01*
X157567525Y-88409586D02*
X157272594Y-88409586D01*
X157420060Y-88409586D02*
X157420060Y-87893458D01*
X157370904Y-87967191D01*
X157321749Y-88016346D01*
X157272594Y-88040923D01*
X158009920Y-87893458D02*
X157911610Y-87893458D01*
X157862455Y-87918036D01*
X157837877Y-87942613D01*
X157788722Y-88016346D01*
X157764145Y-88114656D01*
X157764145Y-88311276D01*
X157788722Y-88360431D01*
X157813300Y-88385008D01*
X157862455Y-88409586D01*
X157960765Y-88409586D01*
X158009920Y-88385008D01*
X158034498Y-88360431D01*
X158059075Y-88311276D01*
X158059075Y-88188388D01*
X158034498Y-88139233D01*
X158009920Y-88114656D01*
X157960765Y-88090078D01*
X157862455Y-88090078D01*
X157813300Y-88114656D01*
X157788722Y-88139233D01*
X157764145Y-88188388D01*
%TO.C,R17*%
X159139674Y-88409586D02*
X158967632Y-88163811D01*
X158844744Y-88409586D02*
X158844744Y-87893458D01*
X159041364Y-87893458D01*
X159090519Y-87918036D01*
X159115097Y-87942613D01*
X159139674Y-87991768D01*
X159139674Y-88065501D01*
X159115097Y-88114656D01*
X159090519Y-88139233D01*
X159041364Y-88163811D01*
X158844744Y-88163811D01*
X159631225Y-88409586D02*
X159336294Y-88409586D01*
X159483760Y-88409586D02*
X159483760Y-87893458D01*
X159434604Y-87967191D01*
X159385449Y-88016346D01*
X159336294Y-88040923D01*
X159803267Y-87893458D02*
X160147353Y-87893458D01*
X159926155Y-88409586D01*
%TO.C,C25*%
X163551432Y-91217931D02*
X163526854Y-91242508D01*
X163453122Y-91267086D01*
X163403967Y-91267086D01*
X163330234Y-91242508D01*
X163281079Y-91193353D01*
X163256501Y-91144198D01*
X163231924Y-91045888D01*
X163231924Y-90972156D01*
X163256501Y-90873846D01*
X163281079Y-90824691D01*
X163330234Y-90775536D01*
X163403967Y-90750958D01*
X163453122Y-90750958D01*
X163526854Y-90775536D01*
X163551432Y-90800113D01*
X163748052Y-90800113D02*
X163772629Y-90775536D01*
X163821784Y-90750958D01*
X163944672Y-90750958D01*
X163993827Y-90775536D01*
X164018405Y-90800113D01*
X164042982Y-90849268D01*
X164042982Y-90898423D01*
X164018405Y-90972156D01*
X163723474Y-91267086D01*
X164042982Y-91267086D01*
X164509955Y-90750958D02*
X164264180Y-90750958D01*
X164239602Y-90996733D01*
X164264180Y-90972156D01*
X164313335Y-90947578D01*
X164436223Y-90947578D01*
X164485378Y-90972156D01*
X164509955Y-90996733D01*
X164534533Y-91045888D01*
X164534533Y-91168776D01*
X164509955Y-91217931D01*
X164485378Y-91242508D01*
X164436223Y-91267086D01*
X164313335Y-91267086D01*
X164264180Y-91242508D01*
X164239602Y-91217931D01*
%TO.C,R45*%
X119669284Y-118235838D02*
X119277108Y-117675587D01*
X118996982Y-118235838D02*
X118996982Y-117059310D01*
X119445183Y-117059310D01*
X119557233Y-117115336D01*
X119613259Y-117171361D01*
X119669284Y-117283411D01*
X119669284Y-117451486D01*
X119613259Y-117563537D01*
X119557233Y-117619562D01*
X119445183Y-117675587D01*
X118996982Y-117675587D01*
X120677736Y-117451486D02*
X120677736Y-118235838D01*
X120397611Y-117003285D02*
X120117485Y-117843662D01*
X120845812Y-117843662D01*
X121854264Y-117059310D02*
X121294013Y-117059310D01*
X121237988Y-117619562D01*
X121294013Y-117563537D01*
X121406063Y-117507512D01*
X121686189Y-117507512D01*
X121798239Y-117563537D01*
X121854264Y-117619562D01*
X121910289Y-117731612D01*
X121910289Y-118011738D01*
X121854264Y-118123788D01*
X121798239Y-118179813D01*
X121686189Y-118235838D01*
X121406063Y-118235838D01*
X121294013Y-118179813D01*
X121237988Y-118123788D01*
%TO.C,J8*%
X144733133Y-146586810D02*
X144733133Y-147427188D01*
X144677108Y-147595263D01*
X144565057Y-147707313D01*
X144396982Y-147763338D01*
X144284932Y-147763338D01*
X145461460Y-147091037D02*
X145349409Y-147035012D01*
X145293384Y-146978986D01*
X145237359Y-146866936D01*
X145237359Y-146810911D01*
X145293384Y-146698861D01*
X145349409Y-146642836D01*
X145461460Y-146586810D01*
X145685560Y-146586810D01*
X145797611Y-146642836D01*
X145853636Y-146698861D01*
X145909661Y-146810911D01*
X145909661Y-146866936D01*
X145853636Y-146978986D01*
X145797611Y-147035012D01*
X145685560Y-147091037D01*
X145461460Y-147091037D01*
X145349409Y-147147062D01*
X145293384Y-147203087D01*
X145237359Y-147315137D01*
X145237359Y-147539238D01*
X145293384Y-147651288D01*
X145349409Y-147707313D01*
X145461460Y-147763338D01*
X145685560Y-147763338D01*
X145797611Y-147707313D01*
X145853636Y-147651288D01*
X145909661Y-147539238D01*
X145909661Y-147315137D01*
X145853636Y-147203087D01*
X145797611Y-147147062D01*
X145685560Y-147091037D01*
%TO.C,J10*%
X170768133Y-146586810D02*
X170768133Y-147427188D01*
X170712108Y-147595263D01*
X170600057Y-147707313D01*
X170431982Y-147763338D01*
X170319932Y-147763338D01*
X171944661Y-147763338D02*
X171272359Y-147763338D01*
X171608510Y-147763338D02*
X171608510Y-146586810D01*
X171496460Y-146754886D01*
X171384409Y-146866936D01*
X171272359Y-146922961D01*
X172672988Y-146586810D02*
X172785038Y-146586810D01*
X172897088Y-146642836D01*
X172953113Y-146698861D01*
X173009139Y-146810911D01*
X173065164Y-147035012D01*
X173065164Y-147315137D01*
X173009139Y-147539238D01*
X172953113Y-147651288D01*
X172897088Y-147707313D01*
X172785038Y-147763338D01*
X172672988Y-147763338D01*
X172560937Y-147707313D01*
X172504912Y-147651288D01*
X172448887Y-147539238D01*
X172392862Y-147315137D01*
X172392862Y-147035012D01*
X172448887Y-146810911D01*
X172504912Y-146698861D01*
X172560937Y-146642836D01*
X172672988Y-146586810D01*
%TO.C,J9*%
X157750633Y-146586810D02*
X157750633Y-147427188D01*
X157694608Y-147595263D01*
X157582557Y-147707313D01*
X157414482Y-147763338D01*
X157302432Y-147763338D01*
X158366909Y-147763338D02*
X158591010Y-147763338D01*
X158703060Y-147707313D01*
X158759085Y-147651288D01*
X158871136Y-147483213D01*
X158927161Y-147259112D01*
X158927161Y-146810911D01*
X158871136Y-146698861D01*
X158815111Y-146642836D01*
X158703060Y-146586810D01*
X158478960Y-146586810D01*
X158366909Y-146642836D01*
X158310884Y-146698861D01*
X158254859Y-146810911D01*
X158254859Y-147091037D01*
X158310884Y-147203087D01*
X158366909Y-147259112D01*
X158478960Y-147315137D01*
X158703060Y-147315137D01*
X158815111Y-147259112D01*
X158871136Y-147203087D01*
X158927161Y-147091037D01*
%TO.C,J1*%
X118698133Y-131981810D02*
X118698133Y-132822188D01*
X118642108Y-132990263D01*
X118530057Y-133102313D01*
X118361982Y-133158338D01*
X118249932Y-133158338D01*
X119874661Y-133158338D02*
X119202359Y-133158338D01*
X119538510Y-133158338D02*
X119538510Y-131981810D01*
X119426460Y-132149886D01*
X119314409Y-132261936D01*
X119202359Y-132317961D01*
%TO.C,J2*%
X131715633Y-131981810D02*
X131715633Y-132822188D01*
X131659608Y-132990263D01*
X131547557Y-133102313D01*
X131379482Y-133158338D01*
X131267432Y-133158338D01*
X132219859Y-132093861D02*
X132275884Y-132037836D01*
X132387935Y-131981810D01*
X132668060Y-131981810D01*
X132780111Y-132037836D01*
X132836136Y-132093861D01*
X132892161Y-132205911D01*
X132892161Y-132317961D01*
X132836136Y-132486037D01*
X132163834Y-133158338D01*
X132892161Y-133158338D01*
%TO.C,J3*%
X144733133Y-131981810D02*
X144733133Y-132822188D01*
X144677108Y-132990263D01*
X144565057Y-133102313D01*
X144396982Y-133158338D01*
X144284932Y-133158338D01*
X145181334Y-131981810D02*
X145909661Y-131981810D01*
X145517485Y-132430012D01*
X145685560Y-132430012D01*
X145797611Y-132486037D01*
X145853636Y-132542062D01*
X145909661Y-132654112D01*
X145909661Y-132934238D01*
X145853636Y-133046288D01*
X145797611Y-133102313D01*
X145685560Y-133158338D01*
X145349409Y-133158338D01*
X145237359Y-133102313D01*
X145181334Y-133046288D01*
%TO.C,J4*%
X157750633Y-131981810D02*
X157750633Y-132822188D01*
X157694608Y-132990263D01*
X157582557Y-133102313D01*
X157414482Y-133158338D01*
X157302432Y-133158338D01*
X158815111Y-132373986D02*
X158815111Y-133158338D01*
X158534985Y-131925785D02*
X158254859Y-132766162D01*
X158983186Y-132766162D01*
%TO.C,R46*%
X132686784Y-118235838D02*
X132294608Y-117675587D01*
X132014482Y-118235838D02*
X132014482Y-117059310D01*
X132462683Y-117059310D01*
X132574733Y-117115336D01*
X132630759Y-117171361D01*
X132686784Y-117283411D01*
X132686784Y-117451486D01*
X132630759Y-117563537D01*
X132574733Y-117619562D01*
X132462683Y-117675587D01*
X132014482Y-117675587D01*
X133695236Y-117451486D02*
X133695236Y-118235838D01*
X133415111Y-117003285D02*
X133134985Y-117843662D01*
X133863312Y-117843662D01*
X134815739Y-117059310D02*
X134591639Y-117059310D01*
X134479588Y-117115336D01*
X134423563Y-117171361D01*
X134311513Y-117339436D01*
X134255488Y-117563537D01*
X134255488Y-118011738D01*
X134311513Y-118123788D01*
X134367538Y-118179813D01*
X134479588Y-118235838D01*
X134703689Y-118235838D01*
X134815739Y-118179813D01*
X134871764Y-118123788D01*
X134927789Y-118011738D01*
X134927789Y-117731612D01*
X134871764Y-117619562D01*
X134815739Y-117563537D01*
X134703689Y-117507512D01*
X134479588Y-117507512D01*
X134367538Y-117563537D01*
X134311513Y-117619562D01*
X134255488Y-117731612D01*
%TO.C,R28*%
X121891784Y-98233338D02*
X121499608Y-97673087D01*
X121219482Y-98233338D02*
X121219482Y-97056810D01*
X121667683Y-97056810D01*
X121779733Y-97112836D01*
X121835759Y-97168861D01*
X121891784Y-97280911D01*
X121891784Y-97448986D01*
X121835759Y-97561037D01*
X121779733Y-97617062D01*
X121667683Y-97673087D01*
X121219482Y-97673087D01*
X122339985Y-97168861D02*
X122396010Y-97112836D01*
X122508060Y-97056810D01*
X122788186Y-97056810D01*
X122900236Y-97112836D01*
X122956261Y-97168861D01*
X123012287Y-97280911D01*
X123012287Y-97392961D01*
X122956261Y-97561037D01*
X122283960Y-98233338D01*
X123012287Y-98233338D01*
X123684588Y-97561037D02*
X123572538Y-97505012D01*
X123516513Y-97448986D01*
X123460488Y-97336936D01*
X123460488Y-97280911D01*
X123516513Y-97168861D01*
X123572538Y-97112836D01*
X123684588Y-97056810D01*
X123908689Y-97056810D01*
X124020739Y-97112836D01*
X124076764Y-97168861D01*
X124132789Y-97280911D01*
X124132789Y-97336936D01*
X124076764Y-97448986D01*
X124020739Y-97505012D01*
X123908689Y-97561037D01*
X123684588Y-97561037D01*
X123572538Y-97617062D01*
X123516513Y-97673087D01*
X123460488Y-97785137D01*
X123460488Y-98009238D01*
X123516513Y-98121288D01*
X123572538Y-98177313D01*
X123684588Y-98233338D01*
X123908689Y-98233338D01*
X124020739Y-98177313D01*
X124076764Y-98121288D01*
X124132789Y-98009238D01*
X124132789Y-97785137D01*
X124076764Y-97673087D01*
X124020739Y-97617062D01*
X123908689Y-97561037D01*
D13*
%TO.C,SW1*%
X117536383Y-57084171D02*
X117591416Y-56919071D01*
X117591416Y-56643905D01*
X117536383Y-56533838D01*
X117481350Y-56478805D01*
X117371283Y-56423771D01*
X117261216Y-56423771D01*
X117151150Y-56478805D01*
X117096116Y-56533838D01*
X117041083Y-56643905D01*
X116986050Y-56864038D01*
X116931016Y-56974105D01*
X116875983Y-57029138D01*
X116765916Y-57084171D01*
X116655850Y-57084171D01*
X116545783Y-57029138D01*
X116490750Y-56974105D01*
X116435716Y-56864038D01*
X116435716Y-56588871D01*
X116490750Y-56423771D01*
X116435716Y-56038538D02*
X117591416Y-55763371D01*
X116765916Y-55543238D01*
X117591416Y-55323105D01*
X116435716Y-55047938D01*
X117591416Y-54002305D02*
X117591416Y-54662705D01*
X117591416Y-54332505D02*
X116435716Y-54332505D01*
X116600816Y-54442571D01*
X116710883Y-54552638D01*
X116765916Y-54662705D01*
D14*
%TO.C,R2*%
X130729169Y-54846510D02*
X130489393Y-54503973D01*
X130318125Y-54846510D02*
X130318125Y-54127182D01*
X130592155Y-54127182D01*
X130660662Y-54161436D01*
X130694916Y-54195689D01*
X130729169Y-54264197D01*
X130729169Y-54366958D01*
X130694916Y-54435465D01*
X130660662Y-54469719D01*
X130592155Y-54503973D01*
X130318125Y-54503973D01*
X131003199Y-54195689D02*
X131037453Y-54161436D01*
X131105960Y-54127182D01*
X131277229Y-54127182D01*
X131345736Y-54161436D01*
X131379990Y-54195689D01*
X131414244Y-54264197D01*
X131414244Y-54332704D01*
X131379990Y-54435465D01*
X130968945Y-54846510D01*
X131414244Y-54846510D01*
D17*
%TO.C,C2*%
X134482152Y-61877179D02*
X134447008Y-61912323D01*
X134341576Y-61947467D01*
X134271288Y-61947467D01*
X134165856Y-61912323D01*
X134095569Y-61842035D01*
X134060425Y-61771747D01*
X134025281Y-61631171D01*
X134025281Y-61525740D01*
X134060425Y-61385164D01*
X134095569Y-61314876D01*
X134165856Y-61244589D01*
X134271288Y-61209445D01*
X134341576Y-61209445D01*
X134447008Y-61244589D01*
X134482152Y-61279732D01*
X134763303Y-61279732D02*
X134798447Y-61244589D01*
X134868735Y-61209445D01*
X135044454Y-61209445D01*
X135114742Y-61244589D01*
X135149886Y-61279732D01*
X135185030Y-61350020D01*
X135185030Y-61420308D01*
X135149886Y-61525740D01*
X134728159Y-61947467D01*
X135185030Y-61947467D01*
%TO.C,C3*%
X141784652Y-61877179D02*
X141749508Y-61912323D01*
X141644076Y-61947467D01*
X141573788Y-61947467D01*
X141468356Y-61912323D01*
X141398069Y-61842035D01*
X141362925Y-61771747D01*
X141327781Y-61631171D01*
X141327781Y-61525740D01*
X141362925Y-61385164D01*
X141398069Y-61314876D01*
X141468356Y-61244589D01*
X141573788Y-61209445D01*
X141644076Y-61209445D01*
X141749508Y-61244589D01*
X141784652Y-61279732D01*
X142030659Y-61209445D02*
X142487530Y-61209445D01*
X142241522Y-61490596D01*
X142346954Y-61490596D01*
X142417242Y-61525740D01*
X142452386Y-61560884D01*
X142487530Y-61631171D01*
X142487530Y-61806891D01*
X142452386Y-61877179D01*
X142417242Y-61912323D01*
X142346954Y-61947467D01*
X142136091Y-61947467D01*
X142065803Y-61912323D01*
X142030659Y-61877179D01*
%TO.C,C1*%
X151627152Y-61877179D02*
X151592008Y-61912323D01*
X151486576Y-61947467D01*
X151416288Y-61947467D01*
X151310856Y-61912323D01*
X151240569Y-61842035D01*
X151205425Y-61771747D01*
X151170281Y-61631171D01*
X151170281Y-61525740D01*
X151205425Y-61385164D01*
X151240569Y-61314876D01*
X151310856Y-61244589D01*
X151416288Y-61209445D01*
X151486576Y-61209445D01*
X151592008Y-61244589D01*
X151627152Y-61279732D01*
X152330030Y-61947467D02*
X151908303Y-61947467D01*
X152119166Y-61947467D02*
X152119166Y-61209445D01*
X152048878Y-61314876D01*
X151978591Y-61385164D01*
X151908303Y-61420308D01*
D14*
%TO.C,R47*%
X145704284Y-118235838D02*
X145312108Y-117675587D01*
X145031982Y-118235838D02*
X145031982Y-117059310D01*
X145480183Y-117059310D01*
X145592233Y-117115336D01*
X145648259Y-117171361D01*
X145704284Y-117283411D01*
X145704284Y-117451486D01*
X145648259Y-117563537D01*
X145592233Y-117619562D01*
X145480183Y-117675587D01*
X145031982Y-117675587D01*
X146712736Y-117451486D02*
X146712736Y-118235838D01*
X146432611Y-117003285D02*
X146152485Y-117843662D01*
X146880812Y-117843662D01*
X147216963Y-117059310D02*
X148001315Y-117059310D01*
X147497088Y-118235838D01*
%TO.C,R48*%
X158721784Y-118235838D02*
X158329608Y-117675587D01*
X158049482Y-118235838D02*
X158049482Y-117059310D01*
X158497683Y-117059310D01*
X158609733Y-117115336D01*
X158665759Y-117171361D01*
X158721784Y-117283411D01*
X158721784Y-117451486D01*
X158665759Y-117563537D01*
X158609733Y-117619562D01*
X158497683Y-117675587D01*
X158049482Y-117675587D01*
X159730236Y-117451486D02*
X159730236Y-118235838D01*
X159450111Y-117003285D02*
X159169985Y-117843662D01*
X159898312Y-117843662D01*
X160514588Y-117563537D02*
X160402538Y-117507512D01*
X160346513Y-117451486D01*
X160290488Y-117339436D01*
X160290488Y-117283411D01*
X160346513Y-117171361D01*
X160402538Y-117115336D01*
X160514588Y-117059310D01*
X160738689Y-117059310D01*
X160850739Y-117115336D01*
X160906764Y-117171361D01*
X160962789Y-117283411D01*
X160962789Y-117339436D01*
X160906764Y-117451486D01*
X160850739Y-117507512D01*
X160738689Y-117563537D01*
X160514588Y-117563537D01*
X160402538Y-117619562D01*
X160346513Y-117675587D01*
X160290488Y-117787637D01*
X160290488Y-118011738D01*
X160346513Y-118123788D01*
X160402538Y-118179813D01*
X160514588Y-118235838D01*
X160738689Y-118235838D01*
X160850739Y-118179813D01*
X160906764Y-118123788D01*
X160962789Y-118011738D01*
X160962789Y-117787637D01*
X160906764Y-117675587D01*
X160850739Y-117619562D01*
X160738689Y-117563537D01*
%TO.C,R49*%
X171739284Y-118235838D02*
X171347108Y-117675587D01*
X171066982Y-118235838D02*
X171066982Y-117059310D01*
X171515183Y-117059310D01*
X171627233Y-117115336D01*
X171683259Y-117171361D01*
X171739284Y-117283411D01*
X171739284Y-117451486D01*
X171683259Y-117563537D01*
X171627233Y-117619562D01*
X171515183Y-117675587D01*
X171066982Y-117675587D01*
X172747736Y-117451486D02*
X172747736Y-118235838D01*
X172467611Y-117003285D02*
X172187485Y-117843662D01*
X172915812Y-117843662D01*
X173420038Y-118235838D02*
X173644139Y-118235838D01*
X173756189Y-118179813D01*
X173812214Y-118123788D01*
X173924264Y-117955713D01*
X173980289Y-117731612D01*
X173980289Y-117283411D01*
X173924264Y-117171361D01*
X173868239Y-117115336D01*
X173756189Y-117059310D01*
X173532088Y-117059310D01*
X173420038Y-117115336D01*
X173364013Y-117171361D01*
X173307988Y-117283411D01*
X173307988Y-117563537D01*
X173364013Y-117675587D01*
X173420038Y-117731612D01*
X173532088Y-117787637D01*
X173756189Y-117787637D01*
X173868239Y-117731612D01*
X173924264Y-117675587D01*
X173980289Y-117563537D01*
%TO.C,R9*%
X129194284Y-71055338D02*
X128802108Y-70495087D01*
X128521982Y-71055338D02*
X128521982Y-69878810D01*
X128970183Y-69878810D01*
X129082233Y-69934836D01*
X129138259Y-69990861D01*
X129194284Y-70102911D01*
X129194284Y-70270986D01*
X129138259Y-70383037D01*
X129082233Y-70439062D01*
X128970183Y-70495087D01*
X128521982Y-70495087D01*
X129754535Y-71055338D02*
X129978636Y-71055338D01*
X130090686Y-70999313D01*
X130146711Y-70943288D01*
X130258761Y-70775213D01*
X130314787Y-70551112D01*
X130314787Y-70102911D01*
X130258761Y-69990861D01*
X130202736Y-69934836D01*
X130090686Y-69878810D01*
X129866585Y-69878810D01*
X129754535Y-69934836D01*
X129698510Y-69990861D01*
X129642485Y-70102911D01*
X129642485Y-70383037D01*
X129698510Y-70495087D01*
X129754535Y-70551112D01*
X129866585Y-70607137D01*
X130090686Y-70607137D01*
X130202736Y-70551112D01*
X130258761Y-70495087D01*
X130314787Y-70383037D01*
%TO.C,R29*%
X145704284Y-98233338D02*
X145312108Y-97673087D01*
X145031982Y-98233338D02*
X145031982Y-97056810D01*
X145480183Y-97056810D01*
X145592233Y-97112836D01*
X145648259Y-97168861D01*
X145704284Y-97280911D01*
X145704284Y-97448986D01*
X145648259Y-97561037D01*
X145592233Y-97617062D01*
X145480183Y-97673087D01*
X145031982Y-97673087D01*
X146152485Y-97168861D02*
X146208510Y-97112836D01*
X146320560Y-97056810D01*
X146600686Y-97056810D01*
X146712736Y-97112836D01*
X146768761Y-97168861D01*
X146824787Y-97280911D01*
X146824787Y-97392961D01*
X146768761Y-97561037D01*
X146096460Y-98233338D01*
X146824787Y-98233338D01*
X147385038Y-98233338D02*
X147609139Y-98233338D01*
X147721189Y-98177313D01*
X147777214Y-98121288D01*
X147889264Y-97953213D01*
X147945289Y-97729112D01*
X147945289Y-97280911D01*
X147889264Y-97168861D01*
X147833239Y-97112836D01*
X147721189Y-97056810D01*
X147497088Y-97056810D01*
X147385038Y-97112836D01*
X147329013Y-97168861D01*
X147272988Y-97280911D01*
X147272988Y-97561037D01*
X147329013Y-97673087D01*
X147385038Y-97729112D01*
X147497088Y-97785137D01*
X147721189Y-97785137D01*
X147833239Y-97729112D01*
X147889264Y-97673087D01*
X147945289Y-97561037D01*
%TO.C,R10*%
X162214284Y-71055338D02*
X161822108Y-70495087D01*
X161541982Y-71055338D02*
X161541982Y-69878810D01*
X161990183Y-69878810D01*
X162102233Y-69934836D01*
X162158259Y-69990861D01*
X162214284Y-70102911D01*
X162214284Y-70270986D01*
X162158259Y-70383037D01*
X162102233Y-70439062D01*
X161990183Y-70495087D01*
X161541982Y-70495087D01*
X163334787Y-71055338D02*
X162662485Y-71055338D01*
X162998636Y-71055338D02*
X162998636Y-69878810D01*
X162886585Y-70046886D01*
X162774535Y-70158936D01*
X162662485Y-70214961D01*
X164063113Y-69878810D02*
X164175164Y-69878810D01*
X164287214Y-69934836D01*
X164343239Y-69990861D01*
X164399264Y-70102911D01*
X164455289Y-70327012D01*
X164455289Y-70607137D01*
X164399264Y-70831238D01*
X164343239Y-70943288D01*
X164287214Y-70999313D01*
X164175164Y-71055338D01*
X164063113Y-71055338D01*
X163951063Y-70999313D01*
X163895038Y-70943288D01*
X163839013Y-70831238D01*
X163782988Y-70607137D01*
X163782988Y-70327012D01*
X163839013Y-70102911D01*
X163895038Y-69990861D01*
X163951063Y-69934836D01*
X164063113Y-69878810D01*
%TO.C,R30*%
X169516784Y-98233338D02*
X169124608Y-97673087D01*
X168844482Y-98233338D02*
X168844482Y-97056810D01*
X169292683Y-97056810D01*
X169404733Y-97112836D01*
X169460759Y-97168861D01*
X169516784Y-97280911D01*
X169516784Y-97448986D01*
X169460759Y-97561037D01*
X169404733Y-97617062D01*
X169292683Y-97673087D01*
X168844482Y-97673087D01*
X169908960Y-97056810D02*
X170637287Y-97056810D01*
X170245111Y-97505012D01*
X170413186Y-97505012D01*
X170525236Y-97561037D01*
X170581261Y-97617062D01*
X170637287Y-97729112D01*
X170637287Y-98009238D01*
X170581261Y-98121288D01*
X170525236Y-98177313D01*
X170413186Y-98233338D01*
X170077035Y-98233338D01*
X169964985Y-98177313D01*
X169908960Y-98121288D01*
X171365613Y-97056810D02*
X171477664Y-97056810D01*
X171589714Y-97112836D01*
X171645739Y-97168861D01*
X171701764Y-97280911D01*
X171757789Y-97505012D01*
X171757789Y-97785137D01*
X171701764Y-98009238D01*
X171645739Y-98121288D01*
X171589714Y-98177313D01*
X171477664Y-98233338D01*
X171365613Y-98233338D01*
X171253563Y-98177313D01*
X171197538Y-98121288D01*
X171141513Y-98009238D01*
X171085488Y-97785137D01*
X171085488Y-97505012D01*
X171141513Y-97280911D01*
X171197538Y-97168861D01*
X171253563Y-97112836D01*
X171365613Y-97056810D01*
%TO.C,R14*%
X122382086Y-79760025D02*
X122136311Y-79932067D01*
X122382086Y-80054955D02*
X121865958Y-80054955D01*
X121865958Y-79858335D01*
X121890536Y-79809180D01*
X121915113Y-79784602D01*
X121964268Y-79760025D01*
X122038001Y-79760025D01*
X122087156Y-79784602D01*
X122111733Y-79809180D01*
X122136311Y-79858335D01*
X122136311Y-80054955D01*
X122382086Y-79268474D02*
X122382086Y-79563405D01*
X122382086Y-79415939D02*
X121865958Y-79415939D01*
X121939691Y-79465095D01*
X121988846Y-79514250D01*
X122013423Y-79563405D01*
X122038001Y-78826079D02*
X122382086Y-78826079D01*
X121841380Y-78948967D02*
X122210043Y-79071854D01*
X122210043Y-78752346D01*
%TO.C,R13*%
X120794586Y-79760025D02*
X120548811Y-79932067D01*
X120794586Y-80054955D02*
X120278458Y-80054955D01*
X120278458Y-79858335D01*
X120303036Y-79809180D01*
X120327613Y-79784602D01*
X120376768Y-79760025D01*
X120450501Y-79760025D01*
X120499656Y-79784602D01*
X120524233Y-79809180D01*
X120548811Y-79858335D01*
X120548811Y-80054955D01*
X120794586Y-79268474D02*
X120794586Y-79563405D01*
X120794586Y-79415939D02*
X120278458Y-79415939D01*
X120352191Y-79465095D01*
X120401346Y-79514250D01*
X120425923Y-79563405D01*
X120278458Y-79096432D02*
X120278458Y-78776924D01*
X120475078Y-78948967D01*
X120475078Y-78875234D01*
X120499656Y-78826079D01*
X120524233Y-78801501D01*
X120573388Y-78776924D01*
X120696276Y-78776924D01*
X120745431Y-78801501D01*
X120770008Y-78826079D01*
X120794586Y-78875234D01*
X120794586Y-79022699D01*
X120770008Y-79071854D01*
X120745431Y-79096432D01*
%TO.C,R15*%
X123969586Y-79760025D02*
X123723811Y-79932067D01*
X123969586Y-80054955D02*
X123453458Y-80054955D01*
X123453458Y-79858335D01*
X123478036Y-79809180D01*
X123502613Y-79784602D01*
X123551768Y-79760025D01*
X123625501Y-79760025D01*
X123674656Y-79784602D01*
X123699233Y-79809180D01*
X123723811Y-79858335D01*
X123723811Y-80054955D01*
X123969586Y-79268474D02*
X123969586Y-79563405D01*
X123969586Y-79415939D02*
X123453458Y-79415939D01*
X123527191Y-79465095D01*
X123576346Y-79514250D01*
X123600923Y-79563405D01*
X123453458Y-78801501D02*
X123453458Y-79047277D01*
X123699233Y-79071854D01*
X123674656Y-79047277D01*
X123650078Y-78998122D01*
X123650078Y-78875234D01*
X123674656Y-78826079D01*
X123699233Y-78801501D01*
X123748388Y-78776924D01*
X123871276Y-78776924D01*
X123920431Y-78801501D01*
X123945008Y-78826079D01*
X123969586Y-78875234D01*
X123969586Y-78998122D01*
X123945008Y-79047277D01*
X123920431Y-79071854D01*
%TO.C,C14*%
X119157931Y-79760025D02*
X119182508Y-79784602D01*
X119207086Y-79858335D01*
X119207086Y-79907490D01*
X119182508Y-79981223D01*
X119133353Y-80030378D01*
X119084198Y-80054955D01*
X118985888Y-80079533D01*
X118912156Y-80079533D01*
X118813846Y-80054955D01*
X118764691Y-80030378D01*
X118715536Y-79981223D01*
X118690958Y-79907490D01*
X118690958Y-79858335D01*
X118715536Y-79784602D01*
X118740113Y-79760025D01*
X119207086Y-79268474D02*
X119207086Y-79563405D01*
X119207086Y-79415939D02*
X118690958Y-79415939D01*
X118764691Y-79465095D01*
X118813846Y-79514250D01*
X118838423Y-79563405D01*
X118863001Y-78826079D02*
X119207086Y-78826079D01*
X118666380Y-78948967D02*
X119035043Y-79071854D01*
X119035043Y-78752346D01*
%TO.C,J7*%
X131660633Y-146666810D02*
X131660633Y-147507188D01*
X131604608Y-147675263D01*
X131492557Y-147787313D01*
X131324482Y-147843338D01*
X131212432Y-147843338D01*
X132108834Y-146666810D02*
X132893186Y-146666810D01*
X132388960Y-147843338D01*
%TO.C,R35*%
X138786432Y-110952086D02*
X138614389Y-110706311D01*
X138491501Y-110952086D02*
X138491501Y-110435958D01*
X138688122Y-110435958D01*
X138737277Y-110460536D01*
X138761854Y-110485113D01*
X138786432Y-110534268D01*
X138786432Y-110608001D01*
X138761854Y-110657156D01*
X138737277Y-110681733D01*
X138688122Y-110706311D01*
X138491501Y-110706311D01*
X138958474Y-110435958D02*
X139277982Y-110435958D01*
X139105939Y-110632578D01*
X139179672Y-110632578D01*
X139228827Y-110657156D01*
X139253405Y-110681733D01*
X139277982Y-110730888D01*
X139277982Y-110853776D01*
X139253405Y-110902931D01*
X139228827Y-110927508D01*
X139179672Y-110952086D01*
X139032207Y-110952086D01*
X138983052Y-110927508D01*
X138958474Y-110902931D01*
X139744955Y-110435958D02*
X139499180Y-110435958D01*
X139474602Y-110681733D01*
X139499180Y-110657156D01*
X139548335Y-110632578D01*
X139671223Y-110632578D01*
X139720378Y-110657156D01*
X139744955Y-110681733D01*
X139769533Y-110730888D01*
X139769533Y-110853776D01*
X139744955Y-110902931D01*
X139720378Y-110927508D01*
X139671223Y-110952086D01*
X139548335Y-110952086D01*
X139499180Y-110927508D01*
X139474602Y-110902931D01*
%TO.C,R32*%
X141042174Y-109047086D02*
X140870132Y-108801311D01*
X140747244Y-109047086D02*
X140747244Y-108530958D01*
X140943864Y-108530958D01*
X140993019Y-108555536D01*
X141017597Y-108580113D01*
X141042174Y-108629268D01*
X141042174Y-108703001D01*
X141017597Y-108752156D01*
X140993019Y-108776733D01*
X140943864Y-108801311D01*
X140747244Y-108801311D01*
X141214217Y-108530958D02*
X141533725Y-108530958D01*
X141361682Y-108727578D01*
X141435415Y-108727578D01*
X141484570Y-108752156D01*
X141509147Y-108776733D01*
X141533725Y-108825888D01*
X141533725Y-108948776D01*
X141509147Y-108997931D01*
X141484570Y-109022508D01*
X141435415Y-109047086D01*
X141287949Y-109047086D01*
X141238794Y-109022508D01*
X141214217Y-108997931D01*
X141730345Y-108580113D02*
X141754922Y-108555536D01*
X141804077Y-108530958D01*
X141926965Y-108530958D01*
X141976120Y-108555536D01*
X142000698Y-108580113D01*
X142025275Y-108629268D01*
X142025275Y-108678423D01*
X142000698Y-108752156D01*
X141705767Y-109047086D01*
X142025275Y-109047086D01*
%TO.C,C38*%
X141042174Y-108045431D02*
X141017597Y-108070008D01*
X140943864Y-108094586D01*
X140894709Y-108094586D01*
X140820976Y-108070008D01*
X140771821Y-108020853D01*
X140747244Y-107971698D01*
X140722666Y-107873388D01*
X140722666Y-107799656D01*
X140747244Y-107701346D01*
X140771821Y-107652191D01*
X140820976Y-107603036D01*
X140894709Y-107578458D01*
X140943864Y-107578458D01*
X141017597Y-107603036D01*
X141042174Y-107627613D01*
X141214217Y-107578458D02*
X141533725Y-107578458D01*
X141361682Y-107775078D01*
X141435415Y-107775078D01*
X141484570Y-107799656D01*
X141509147Y-107824233D01*
X141533725Y-107873388D01*
X141533725Y-107996276D01*
X141509147Y-108045431D01*
X141484570Y-108070008D01*
X141435415Y-108094586D01*
X141287949Y-108094586D01*
X141238794Y-108070008D01*
X141214217Y-108045431D01*
X141828655Y-107799656D02*
X141779500Y-107775078D01*
X141754922Y-107750501D01*
X141730345Y-107701346D01*
X141730345Y-107676768D01*
X141754922Y-107627613D01*
X141779500Y-107603036D01*
X141828655Y-107578458D01*
X141926965Y-107578458D01*
X141976120Y-107603036D01*
X142000698Y-107627613D01*
X142025275Y-107676768D01*
X142025275Y-107701346D01*
X142000698Y-107750501D01*
X141976120Y-107775078D01*
X141926965Y-107799656D01*
X141828655Y-107799656D01*
X141779500Y-107824233D01*
X141754922Y-107848811D01*
X141730345Y-107897966D01*
X141730345Y-107996276D01*
X141754922Y-108045431D01*
X141779500Y-108070008D01*
X141828655Y-108094586D01*
X141926965Y-108094586D01*
X141976120Y-108070008D01*
X142000698Y-108045431D01*
X142025275Y-107996276D01*
X142025275Y-107897966D01*
X142000698Y-107848811D01*
X141976120Y-107824233D01*
X141926965Y-107799656D01*
%TO.C,R37*%
X136563932Y-112222086D02*
X136391889Y-111976311D01*
X136269001Y-112222086D02*
X136269001Y-111705958D01*
X136465622Y-111705958D01*
X136514777Y-111730536D01*
X136539354Y-111755113D01*
X136563932Y-111804268D01*
X136563932Y-111878001D01*
X136539354Y-111927156D01*
X136514777Y-111951733D01*
X136465622Y-111976311D01*
X136269001Y-111976311D01*
X136735974Y-111705958D02*
X137055482Y-111705958D01*
X136883439Y-111902578D01*
X136957172Y-111902578D01*
X137006327Y-111927156D01*
X137030905Y-111951733D01*
X137055482Y-112000888D01*
X137055482Y-112123776D01*
X137030905Y-112172931D01*
X137006327Y-112197508D01*
X136957172Y-112222086D01*
X136809707Y-112222086D01*
X136760552Y-112197508D01*
X136735974Y-112172931D01*
X137227525Y-111705958D02*
X137571610Y-111705958D01*
X137350412Y-112222086D01*
%TO.C,J5*%
X170713133Y-132061810D02*
X170713133Y-132902188D01*
X170657108Y-133070263D01*
X170545057Y-133182313D01*
X170376982Y-133238338D01*
X170264932Y-133238338D01*
X171833636Y-132061810D02*
X171273384Y-132061810D01*
X171217359Y-132622062D01*
X171273384Y-132566037D01*
X171385435Y-132510012D01*
X171665560Y-132510012D01*
X171777611Y-132566037D01*
X171833636Y-132622062D01*
X171889661Y-132734112D01*
X171889661Y-133014238D01*
X171833636Y-133126288D01*
X171777611Y-133182313D01*
X171665560Y-133238338D01*
X171385435Y-133238338D01*
X171273384Y-133182313D01*
X171217359Y-133126288D01*
%TO.C,C19*%
X117252931Y-88332525D02*
X117277508Y-88357102D01*
X117302086Y-88430835D01*
X117302086Y-88479990D01*
X117277508Y-88553723D01*
X117228353Y-88602878D01*
X117179198Y-88627455D01*
X117080888Y-88652033D01*
X117007156Y-88652033D01*
X116908846Y-88627455D01*
X116859691Y-88602878D01*
X116810536Y-88553723D01*
X116785958Y-88479990D01*
X116785958Y-88430835D01*
X116810536Y-88357102D01*
X116835113Y-88332525D01*
X117302086Y-87840974D02*
X117302086Y-88135905D01*
X117302086Y-87988439D02*
X116785958Y-87988439D01*
X116859691Y-88037595D01*
X116908846Y-88086750D01*
X116933423Y-88135905D01*
X117302086Y-87595199D02*
X117302086Y-87496889D01*
X117277508Y-87447734D01*
X117252931Y-87423156D01*
X117179198Y-87374001D01*
X117080888Y-87349424D01*
X116884268Y-87349424D01*
X116835113Y-87374001D01*
X116810536Y-87398579D01*
X116785958Y-87447734D01*
X116785958Y-87546044D01*
X116810536Y-87595199D01*
X116835113Y-87619777D01*
X116884268Y-87644354D01*
X117007156Y-87644354D01*
X117056311Y-87619777D01*
X117080888Y-87595199D01*
X117105466Y-87546044D01*
X117105466Y-87447734D01*
X117080888Y-87398579D01*
X117056311Y-87374001D01*
X117007156Y-87349424D01*
D13*
%TO.C,SW2*%
X180401383Y-57262395D02*
X180456416Y-57097295D01*
X180456416Y-56822128D01*
X180401383Y-56712061D01*
X180346350Y-56657028D01*
X180236283Y-56601995D01*
X180126216Y-56601995D01*
X180016150Y-56657028D01*
X179961116Y-56712061D01*
X179906083Y-56822128D01*
X179851050Y-57042261D01*
X179796016Y-57152328D01*
X179740983Y-57207361D01*
X179630916Y-57262395D01*
X179520850Y-57262395D01*
X179410783Y-57207361D01*
X179355750Y-57152328D01*
X179300716Y-57042261D01*
X179300716Y-56767095D01*
X179355750Y-56601995D01*
X179300716Y-56216761D02*
X180456416Y-55941595D01*
X179630916Y-55721461D01*
X180456416Y-55501328D01*
X179300716Y-55226161D01*
X179410783Y-54840928D02*
X179355750Y-54785895D01*
X179300716Y-54675828D01*
X179300716Y-54400661D01*
X179355750Y-54290595D01*
X179410783Y-54235561D01*
X179520850Y-54180528D01*
X179630916Y-54180528D01*
X179796016Y-54235561D01*
X180456416Y-54895961D01*
X180456416Y-54180528D01*
D21*
%TO.C,LED2*%
X172019232Y-57735562D02*
X172019232Y-58094123D01*
X171266254Y-58094123D01*
X171624815Y-57484569D02*
X171624815Y-57233576D01*
X172019232Y-57126008D02*
X172019232Y-57484569D01*
X171266254Y-57484569D01*
X171266254Y-57126008D01*
X172019232Y-56803303D02*
X171266254Y-56803303D01*
X171266254Y-56624023D01*
X171302111Y-56516454D01*
X171373823Y-56444742D01*
X171445535Y-56408886D01*
X171588959Y-56373030D01*
X171696528Y-56373030D01*
X171839952Y-56408886D01*
X171911664Y-56444742D01*
X171983376Y-56516454D01*
X172019232Y-56624023D01*
X172019232Y-56803303D01*
X171337967Y-56086181D02*
X171302111Y-56050325D01*
X171266254Y-55978613D01*
X171266254Y-55799333D01*
X171302111Y-55727620D01*
X171337967Y-55691764D01*
X171409679Y-55655908D01*
X171481391Y-55655908D01*
X171588959Y-55691764D01*
X172019232Y-56122037D01*
X172019232Y-55655908D01*
%TO.C,LED1*%
X129791732Y-57754374D02*
X129791732Y-58112935D01*
X129038754Y-58112935D01*
X129397315Y-57503381D02*
X129397315Y-57252388D01*
X129791732Y-57144820D02*
X129791732Y-57503381D01*
X129038754Y-57503381D01*
X129038754Y-57144820D01*
X129791732Y-56822115D02*
X129038754Y-56822115D01*
X129038754Y-56642835D01*
X129074611Y-56535267D01*
X129146323Y-56463554D01*
X129218035Y-56427698D01*
X129361459Y-56391842D01*
X129469028Y-56391842D01*
X129612452Y-56427698D01*
X129684164Y-56463554D01*
X129755876Y-56535267D01*
X129791732Y-56642835D01*
X129791732Y-56822115D01*
X129791732Y-55674720D02*
X129791732Y-56104993D01*
X129791732Y-55889857D02*
X129038754Y-55889857D01*
X129146323Y-55961569D01*
X129218035Y-56033281D01*
X129253891Y-56104993D01*
D14*
%TO.C,R4*%
X168102086Y-63744217D02*
X167856311Y-63916260D01*
X168102086Y-64039147D02*
X167585958Y-64039147D01*
X167585958Y-63842527D01*
X167610536Y-63793372D01*
X167635113Y-63768794D01*
X167684268Y-63744217D01*
X167758001Y-63744217D01*
X167807156Y-63768794D01*
X167831733Y-63793372D01*
X167856311Y-63842527D01*
X167856311Y-64039147D01*
X167758001Y-63301821D02*
X168102086Y-63301821D01*
X167561380Y-63424709D02*
X167930043Y-63547597D01*
X167930043Y-63228089D01*
%TO.C,R5*%
X169689586Y-63744217D02*
X169443811Y-63916260D01*
X169689586Y-64039147D02*
X169173458Y-64039147D01*
X169173458Y-63842527D01*
X169198036Y-63793372D01*
X169222613Y-63768794D01*
X169271768Y-63744217D01*
X169345501Y-63744217D01*
X169394656Y-63768794D01*
X169419233Y-63793372D01*
X169443811Y-63842527D01*
X169443811Y-64039147D01*
X169173458Y-63277244D02*
X169173458Y-63523019D01*
X169419233Y-63547597D01*
X169394656Y-63523019D01*
X169370078Y-63473864D01*
X169370078Y-63350976D01*
X169394656Y-63301821D01*
X169419233Y-63277244D01*
X169468388Y-63252666D01*
X169591276Y-63252666D01*
X169640431Y-63277244D01*
X169665008Y-63301821D01*
X169689586Y-63350976D01*
X169689586Y-63473864D01*
X169665008Y-63523019D01*
X169640431Y-63547597D01*
%TO.C,R3*%
X124604586Y-61204217D02*
X124358811Y-61376260D01*
X124604586Y-61499147D02*
X124088458Y-61499147D01*
X124088458Y-61302527D01*
X124113036Y-61253372D01*
X124137613Y-61228794D01*
X124186768Y-61204217D01*
X124260501Y-61204217D01*
X124309656Y-61228794D01*
X124334233Y-61253372D01*
X124358811Y-61302527D01*
X124358811Y-61499147D01*
X124088458Y-61032174D02*
X124088458Y-60712666D01*
X124285078Y-60884709D01*
X124285078Y-60810976D01*
X124309656Y-60761821D01*
X124334233Y-60737244D01*
X124383388Y-60712666D01*
X124506276Y-60712666D01*
X124555431Y-60737244D01*
X124580008Y-60761821D01*
X124604586Y-60810976D01*
X124604586Y-60958442D01*
X124580008Y-61007597D01*
X124555431Y-61032174D01*
%TO.C,R1*%
X125239586Y-53090025D02*
X124993811Y-53262067D01*
X125239586Y-53384955D02*
X124723458Y-53384955D01*
X124723458Y-53188335D01*
X124748036Y-53139180D01*
X124772613Y-53114602D01*
X124821768Y-53090025D01*
X124895501Y-53090025D01*
X124944656Y-53114602D01*
X124969233Y-53139180D01*
X124993811Y-53188335D01*
X124993811Y-53384955D01*
X125239586Y-52598474D02*
X125239586Y-52893405D01*
X125239586Y-52745939D02*
X124723458Y-52745939D01*
X124797191Y-52795095D01*
X124846346Y-52844250D01*
X124870923Y-52893405D01*
D18*
%TO.C,IC4*%
X179552695Y-88178934D02*
X179552695Y-87338194D01*
X180433470Y-88098864D02*
X180393435Y-88138899D01*
X180273329Y-88178934D01*
X180193259Y-88178934D01*
X180073153Y-88138899D01*
X179993082Y-88058829D01*
X179953047Y-87978758D01*
X179913012Y-87818617D01*
X179913012Y-87698511D01*
X179953047Y-87538370D01*
X179993082Y-87458300D01*
X180073153Y-87378230D01*
X180193259Y-87338194D01*
X180273329Y-87338194D01*
X180393435Y-87378230D01*
X180433470Y-87418265D01*
X181154104Y-87618441D02*
X181154104Y-88178934D01*
X180953928Y-87298159D02*
X180753752Y-87898688D01*
X181274210Y-87898688D01*
D14*
%TO.C,C13*%
X178603002Y-81171520D02*
X178637256Y-81205773D01*
X178671510Y-81308535D01*
X178671510Y-81377042D01*
X178637256Y-81479803D01*
X178568749Y-81548311D01*
X178500241Y-81582564D01*
X178363226Y-81616818D01*
X178260465Y-81616818D01*
X178123450Y-81582564D01*
X178054943Y-81548311D01*
X177986436Y-81479803D01*
X177952182Y-81377042D01*
X177952182Y-81308535D01*
X177986436Y-81205773D01*
X178020689Y-81171520D01*
X178671510Y-80486445D02*
X178671510Y-80897490D01*
X178671510Y-80691968D02*
X177952182Y-80691968D01*
X178054943Y-80760475D01*
X178123450Y-80828983D01*
X178157704Y-80897490D01*
X177952182Y-80246669D02*
X177952182Y-79801371D01*
X178226212Y-80041147D01*
X178226212Y-79938386D01*
X178260465Y-79869879D01*
X178294719Y-79835625D01*
X178363226Y-79801371D01*
X178534495Y-79801371D01*
X178603002Y-79835625D01*
X178637256Y-79869879D01*
X178671510Y-79938386D01*
X178671510Y-80143908D01*
X178637256Y-80212416D01*
X178603002Y-80246669D01*
D17*
%TO.C,C21*%
X167499652Y-86689679D02*
X167464508Y-86724823D01*
X167359076Y-86759967D01*
X167288788Y-86759967D01*
X167183356Y-86724823D01*
X167113069Y-86654535D01*
X167077925Y-86584247D01*
X167042781Y-86443671D01*
X167042781Y-86338240D01*
X167077925Y-86197664D01*
X167113069Y-86127376D01*
X167183356Y-86057089D01*
X167288788Y-86021945D01*
X167359076Y-86021945D01*
X167464508Y-86057089D01*
X167499652Y-86092232D01*
X167780803Y-86092232D02*
X167815947Y-86057089D01*
X167886235Y-86021945D01*
X168061954Y-86021945D01*
X168132242Y-86057089D01*
X168167386Y-86092232D01*
X168202530Y-86162520D01*
X168202530Y-86232808D01*
X168167386Y-86338240D01*
X167745659Y-86759967D01*
X168202530Y-86759967D01*
X168905408Y-86759967D02*
X168483681Y-86759967D01*
X168694544Y-86759967D02*
X168694544Y-86021945D01*
X168624257Y-86127376D01*
X168553969Y-86197664D01*
X168483681Y-86232808D01*
%TO.C,C41*%
X139666162Y-113367179D02*
X139631018Y-113402323D01*
X139525586Y-113437467D01*
X139455299Y-113437467D01*
X139349867Y-113402323D01*
X139279579Y-113332035D01*
X139244435Y-113261747D01*
X139209291Y-113121171D01*
X139209291Y-113015740D01*
X139244435Y-112875164D01*
X139279579Y-112804876D01*
X139349867Y-112734589D01*
X139455299Y-112699445D01*
X139525586Y-112699445D01*
X139631018Y-112734589D01*
X139666162Y-112769732D01*
X140298752Y-112945452D02*
X140298752Y-113437467D01*
X140123033Y-112664301D02*
X139947313Y-113191459D01*
X140404184Y-113191459D01*
X141071918Y-113437467D02*
X140650191Y-113437467D01*
X140861055Y-113437467D02*
X140861055Y-112699445D01*
X140790767Y-112804876D01*
X140720479Y-112875164D01*
X140650191Y-112910308D01*
D13*
%TO.C,Q3*%
X180639871Y-92432111D02*
X180573347Y-92398850D01*
X180506823Y-92332326D01*
X180407037Y-92232540D01*
X180340514Y-92199278D01*
X180273990Y-92199278D01*
X180307252Y-92365588D02*
X180240728Y-92332326D01*
X180174204Y-92265802D01*
X180140942Y-92132754D01*
X180140942Y-91899921D01*
X180174204Y-91766873D01*
X180240728Y-91700350D01*
X180307252Y-91667088D01*
X180440299Y-91667088D01*
X180506823Y-91700350D01*
X180573347Y-91766873D01*
X180606609Y-91899921D01*
X180606609Y-92132754D01*
X180573347Y-92265802D01*
X180506823Y-92332326D01*
X180440299Y-92365588D01*
X180307252Y-92365588D01*
X180839442Y-91667088D02*
X181271847Y-91667088D01*
X181039014Y-91933183D01*
X181138799Y-91933183D01*
X181205323Y-91966445D01*
X181238585Y-91999707D01*
X181271847Y-92066230D01*
X181271847Y-92232540D01*
X181238585Y-92299064D01*
X181205323Y-92332326D01*
X181138799Y-92365588D01*
X180939228Y-92365588D01*
X180872704Y-92332326D01*
X180839442Y-92299064D01*
D14*
%TO.C,C23*%
X171204674Y-90582931D02*
X171180097Y-90607508D01*
X171106364Y-90632086D01*
X171057209Y-90632086D01*
X170983476Y-90607508D01*
X170934321Y-90558353D01*
X170909744Y-90509198D01*
X170885166Y-90410888D01*
X170885166Y-90337156D01*
X170909744Y-90238846D01*
X170934321Y-90189691D01*
X170983476Y-90140536D01*
X171057209Y-90115958D01*
X171106364Y-90115958D01*
X171180097Y-90140536D01*
X171204674Y-90165113D01*
X171401294Y-90165113D02*
X171425872Y-90140536D01*
X171475027Y-90115958D01*
X171597915Y-90115958D01*
X171647070Y-90140536D01*
X171671647Y-90165113D01*
X171696225Y-90214268D01*
X171696225Y-90263423D01*
X171671647Y-90337156D01*
X171376717Y-90632086D01*
X171696225Y-90632086D01*
X171868267Y-90115958D02*
X172187775Y-90115958D01*
X172015732Y-90312578D01*
X172089465Y-90312578D01*
X172138620Y-90337156D01*
X172163198Y-90361733D01*
X172187775Y-90410888D01*
X172187775Y-90533776D01*
X172163198Y-90582931D01*
X172138620Y-90607508D01*
X172089465Y-90632086D01*
X171942000Y-90632086D01*
X171892845Y-90607508D01*
X171868267Y-90582931D01*
%TO.C,C24*%
X175616432Y-89947931D02*
X175591854Y-89972508D01*
X175518122Y-89997086D01*
X175468967Y-89997086D01*
X175395234Y-89972508D01*
X175346079Y-89923353D01*
X175321501Y-89874198D01*
X175296924Y-89775888D01*
X175296924Y-89702156D01*
X175321501Y-89603846D01*
X175346079Y-89554691D01*
X175395234Y-89505536D01*
X175468967Y-89480958D01*
X175518122Y-89480958D01*
X175591854Y-89505536D01*
X175616432Y-89530113D01*
X175813052Y-89530113D02*
X175837629Y-89505536D01*
X175886784Y-89480958D01*
X176009672Y-89480958D01*
X176058827Y-89505536D01*
X176083405Y-89530113D01*
X176107982Y-89579268D01*
X176107982Y-89628423D01*
X176083405Y-89702156D01*
X175788474Y-89997086D01*
X176107982Y-89997086D01*
X176550378Y-89653001D02*
X176550378Y-89997086D01*
X176427490Y-89456380D02*
X176304602Y-89825043D01*
X176624110Y-89825043D01*
%TO.C,R44*%
X168029674Y-115079586D02*
X167857632Y-114833811D01*
X167734744Y-115079586D02*
X167734744Y-114563458D01*
X167931364Y-114563458D01*
X167980519Y-114588036D01*
X168005097Y-114612613D01*
X168029674Y-114661768D01*
X168029674Y-114735501D01*
X168005097Y-114784656D01*
X167980519Y-114809233D01*
X167931364Y-114833811D01*
X167734744Y-114833811D01*
X168472070Y-114735501D02*
X168472070Y-115079586D01*
X168349182Y-114538880D02*
X168226294Y-114907543D01*
X168545802Y-114907543D01*
X168963620Y-114735501D02*
X168963620Y-115079586D01*
X168840732Y-114538880D02*
X168717845Y-114907543D01*
X169037353Y-114907543D01*
%TO.C,R39*%
X145169674Y-110952086D02*
X144997632Y-110706311D01*
X144874744Y-110952086D02*
X144874744Y-110435958D01*
X145071364Y-110435958D01*
X145120519Y-110460536D01*
X145145097Y-110485113D01*
X145169674Y-110534268D01*
X145169674Y-110608001D01*
X145145097Y-110657156D01*
X145120519Y-110681733D01*
X145071364Y-110706311D01*
X144874744Y-110706311D01*
X145341717Y-110435958D02*
X145661225Y-110435958D01*
X145489182Y-110632578D01*
X145562915Y-110632578D01*
X145612070Y-110657156D01*
X145636647Y-110681733D01*
X145661225Y-110730888D01*
X145661225Y-110853776D01*
X145636647Y-110902931D01*
X145612070Y-110927508D01*
X145562915Y-110952086D01*
X145415449Y-110952086D01*
X145366294Y-110927508D01*
X145341717Y-110902931D01*
X145907000Y-110952086D02*
X146005310Y-110952086D01*
X146054465Y-110927508D01*
X146079043Y-110902931D01*
X146128198Y-110829198D01*
X146152775Y-110730888D01*
X146152775Y-110534268D01*
X146128198Y-110485113D01*
X146103620Y-110460536D01*
X146054465Y-110435958D01*
X145956155Y-110435958D01*
X145907000Y-110460536D01*
X145882422Y-110485113D01*
X145857845Y-110534268D01*
X145857845Y-110657156D01*
X145882422Y-110706311D01*
X145907000Y-110730888D01*
X145956155Y-110755466D01*
X146054465Y-110755466D01*
X146103620Y-110730888D01*
X146128198Y-110706311D01*
X146152775Y-110657156D01*
%TO.C,J6*%
X118643133Y-146666810D02*
X118643133Y-147507188D01*
X118587108Y-147675263D01*
X118475057Y-147787313D01*
X118306982Y-147843338D01*
X118194932Y-147843338D01*
X119707611Y-146666810D02*
X119483510Y-146666810D01*
X119371460Y-146722836D01*
X119315435Y-146778861D01*
X119203384Y-146946936D01*
X119147359Y-147171037D01*
X119147359Y-147619238D01*
X119203384Y-147731288D01*
X119259409Y-147787313D01*
X119371460Y-147843338D01*
X119595560Y-147843338D01*
X119707611Y-147787313D01*
X119763636Y-147731288D01*
X119819661Y-147619238D01*
X119819661Y-147339112D01*
X119763636Y-147227062D01*
X119707611Y-147171037D01*
X119595560Y-147115012D01*
X119371460Y-147115012D01*
X119259409Y-147171037D01*
X119203384Y-147227062D01*
X119147359Y-147339112D01*
D15*
%TO.C,IC5*%
X124246881Y-89190878D02*
X123398521Y-89190878D01*
X124166085Y-88302120D02*
X124206483Y-88342518D01*
X124246881Y-88463712D01*
X124246881Y-88544508D01*
X124206483Y-88665703D01*
X124125687Y-88746499D01*
X124044891Y-88786897D01*
X123883299Y-88827295D01*
X123762104Y-88827295D01*
X123600512Y-88786897D01*
X123519716Y-88746499D01*
X123438920Y-88665703D01*
X123398521Y-88544508D01*
X123398521Y-88463712D01*
X123438920Y-88342518D01*
X123479318Y-88302120D01*
X123398521Y-87534556D02*
X123398521Y-87938537D01*
X123802502Y-87978935D01*
X123762104Y-87938537D01*
X123721706Y-87857741D01*
X123721706Y-87655750D01*
X123762104Y-87574954D01*
X123802502Y-87534556D01*
X123883299Y-87494158D01*
X124085289Y-87494158D01*
X124166085Y-87534556D01*
X124206483Y-87574954D01*
X124246881Y-87655750D01*
X124246881Y-87857741D01*
X124206483Y-87938537D01*
X124166085Y-87978935D01*
D22*
%TO.C,Q2*%
X126739654Y-77618952D02*
X126698288Y-77598270D01*
X126656923Y-77556904D01*
X126594874Y-77494855D01*
X126553508Y-77474172D01*
X126512143Y-77474172D01*
X126532825Y-77577587D02*
X126491460Y-77556904D01*
X126450094Y-77515538D01*
X126429411Y-77432807D01*
X126429411Y-77288027D01*
X126450094Y-77205295D01*
X126491460Y-77163930D01*
X126532825Y-77143247D01*
X126615557Y-77143247D01*
X126656923Y-77163930D01*
X126698288Y-77205295D01*
X126718971Y-77288027D01*
X126718971Y-77432807D01*
X126698288Y-77515538D01*
X126656923Y-77556904D01*
X126615557Y-77577587D01*
X126532825Y-77577587D01*
X126884434Y-77184612D02*
X126905117Y-77163930D01*
X126946483Y-77143247D01*
X127049897Y-77143247D01*
X127091263Y-77163930D01*
X127111945Y-77184612D01*
X127132628Y-77225978D01*
X127132628Y-77267344D01*
X127111945Y-77329392D01*
X126863751Y-77577587D01*
X127132628Y-77577587D01*
D14*
%TO.C,R11*%
X118783932Y-77614586D02*
X118611889Y-77368811D01*
X118489001Y-77614586D02*
X118489001Y-77098458D01*
X118685622Y-77098458D01*
X118734777Y-77123036D01*
X118759354Y-77147613D01*
X118783932Y-77196768D01*
X118783932Y-77270501D01*
X118759354Y-77319656D01*
X118734777Y-77344233D01*
X118685622Y-77368811D01*
X118489001Y-77368811D01*
X119275482Y-77614586D02*
X118980552Y-77614586D01*
X119128017Y-77614586D02*
X119128017Y-77098458D01*
X119078862Y-77172191D01*
X119029707Y-77221346D01*
X118980552Y-77245923D01*
X119767033Y-77614586D02*
X119472102Y-77614586D01*
X119619567Y-77614586D02*
X119619567Y-77098458D01*
X119570412Y-77172191D01*
X119521257Y-77221346D01*
X119472102Y-77245923D01*
%TO.C,R8*%
X124287086Y-74680025D02*
X124041311Y-74852067D01*
X124287086Y-74974955D02*
X123770958Y-74974955D01*
X123770958Y-74778335D01*
X123795536Y-74729180D01*
X123820113Y-74704602D01*
X123869268Y-74680025D01*
X123943001Y-74680025D01*
X123992156Y-74704602D01*
X124016733Y-74729180D01*
X124041311Y-74778335D01*
X124041311Y-74974955D01*
X123992156Y-74385095D02*
X123967578Y-74434250D01*
X123943001Y-74458827D01*
X123893846Y-74483405D01*
X123869268Y-74483405D01*
X123820113Y-74458827D01*
X123795536Y-74434250D01*
X123770958Y-74385095D01*
X123770958Y-74286784D01*
X123795536Y-74237629D01*
X123820113Y-74213052D01*
X123869268Y-74188474D01*
X123893846Y-74188474D01*
X123943001Y-74213052D01*
X123967578Y-74237629D01*
X123992156Y-74286784D01*
X123992156Y-74385095D01*
X124016733Y-74434250D01*
X124041311Y-74458827D01*
X124090466Y-74483405D01*
X124188776Y-74483405D01*
X124237931Y-74458827D01*
X124262508Y-74434250D01*
X124287086Y-74385095D01*
X124287086Y-74286784D01*
X124262508Y-74237629D01*
X124237931Y-74213052D01*
X124188776Y-74188474D01*
X124090466Y-74188474D01*
X124041311Y-74213052D01*
X124016733Y-74237629D01*
X123992156Y-74286784D01*
%TO.C,R53*%
X141432086Y-149325767D02*
X141186311Y-149497810D01*
X141432086Y-149620698D02*
X140915958Y-149620698D01*
X140915958Y-149424077D01*
X140940536Y-149374922D01*
X140965113Y-149350345D01*
X141014268Y-149325767D01*
X141088001Y-149325767D01*
X141137156Y-149350345D01*
X141161733Y-149374922D01*
X141186311Y-149424077D01*
X141186311Y-149620698D01*
X140915958Y-148858794D02*
X140915958Y-149104570D01*
X141161733Y-149129147D01*
X141137156Y-149104570D01*
X141112578Y-149055415D01*
X141112578Y-148932527D01*
X141137156Y-148883372D01*
X141161733Y-148858794D01*
X141210888Y-148834217D01*
X141333776Y-148834217D01*
X141382931Y-148858794D01*
X141407508Y-148883372D01*
X141432086Y-148932527D01*
X141432086Y-149055415D01*
X141407508Y-149104570D01*
X141382931Y-149129147D01*
X140915958Y-148662174D02*
X140915958Y-148342666D01*
X141112578Y-148514709D01*
X141112578Y-148440976D01*
X141137156Y-148391821D01*
X141161733Y-148367244D01*
X141210888Y-148342666D01*
X141333776Y-148342666D01*
X141382931Y-148367244D01*
X141407508Y-148391821D01*
X141432086Y-148440976D01*
X141432086Y-148588442D01*
X141407508Y-148637597D01*
X141382931Y-148662174D01*
D16*
%TO.C,D3*%
X140818995Y-103387010D02*
X140818995Y-102749470D01*
X140970790Y-102749470D01*
X141061867Y-102779830D01*
X141122585Y-102840548D01*
X141152945Y-102901266D01*
X141183304Y-103022702D01*
X141183304Y-103113779D01*
X141152945Y-103235215D01*
X141122585Y-103295933D01*
X141061867Y-103356651D01*
X140970790Y-103387010D01*
X140818995Y-103387010D01*
X141395817Y-102749470D02*
X141790485Y-102749470D01*
X141577971Y-102992343D01*
X141669048Y-102992343D01*
X141729766Y-103022702D01*
X141760125Y-103053061D01*
X141790485Y-103113779D01*
X141790485Y-103265574D01*
X141760125Y-103326292D01*
X141729766Y-103356651D01*
X141669048Y-103387010D01*
X141486894Y-103387010D01*
X141426176Y-103356651D01*
X141395817Y-103326292D01*
D14*
%TO.C,R52*%
X128414586Y-146752525D02*
X128168811Y-146924567D01*
X128414586Y-147047455D02*
X127898458Y-147047455D01*
X127898458Y-146850835D01*
X127923036Y-146801680D01*
X127947613Y-146777102D01*
X127996768Y-146752525D01*
X128070501Y-146752525D01*
X128119656Y-146777102D01*
X128144233Y-146801680D01*
X128168811Y-146850835D01*
X128168811Y-147047455D01*
X127898458Y-146285552D02*
X127898458Y-146531327D01*
X128144233Y-146555905D01*
X128119656Y-146531327D01*
X128095078Y-146482172D01*
X128095078Y-146359284D01*
X128119656Y-146310129D01*
X128144233Y-146285552D01*
X128193388Y-146260974D01*
X128316276Y-146260974D01*
X128365431Y-146285552D01*
X128390008Y-146310129D01*
X128414586Y-146359284D01*
X128414586Y-146482172D01*
X128390008Y-146531327D01*
X128365431Y-146555905D01*
X127947613Y-146064354D02*
X127923036Y-146039777D01*
X127898458Y-145990622D01*
X127898458Y-145867734D01*
X127923036Y-145818579D01*
X127947613Y-145794001D01*
X127996768Y-145769424D01*
X128045923Y-145769424D01*
X128119656Y-145794001D01*
X128414586Y-146088932D01*
X128414586Y-145769424D01*
D20*
%TO.C,L1*%
X134646144Y-54459074D02*
X134377223Y-54459074D01*
X134377223Y-53894341D01*
X135130201Y-54459074D02*
X134807496Y-54459074D01*
X134968848Y-54459074D02*
X134968848Y-53894341D01*
X134915064Y-53975017D01*
X134861280Y-54028801D01*
X134807496Y-54055693D01*
%TO.C,L2*%
X151156144Y-54459074D02*
X150887223Y-54459074D01*
X150887223Y-53894341D01*
X151317496Y-53948125D02*
X151344388Y-53921233D01*
X151398172Y-53894341D01*
X151532632Y-53894341D01*
X151586417Y-53921233D01*
X151613309Y-53948125D01*
X151640201Y-54001909D01*
X151640201Y-54055693D01*
X151613309Y-54136369D01*
X151290604Y-54459074D01*
X151640201Y-54459074D01*
D14*
%TO.C,C48*%
X125825431Y-131512525D02*
X125850008Y-131537102D01*
X125874586Y-131610835D01*
X125874586Y-131659990D01*
X125850008Y-131733723D01*
X125800853Y-131782878D01*
X125751698Y-131807455D01*
X125653388Y-131832033D01*
X125579656Y-131832033D01*
X125481346Y-131807455D01*
X125432191Y-131782878D01*
X125383036Y-131733723D01*
X125358458Y-131659990D01*
X125358458Y-131610835D01*
X125383036Y-131537102D01*
X125407613Y-131512525D01*
X125530501Y-131070129D02*
X125874586Y-131070129D01*
X125333880Y-131193017D02*
X125702543Y-131315905D01*
X125702543Y-130996397D01*
X125579656Y-130726044D02*
X125555078Y-130775199D01*
X125530501Y-130799777D01*
X125481346Y-130824354D01*
X125456768Y-130824354D01*
X125407613Y-130799777D01*
X125383036Y-130775199D01*
X125358458Y-130726044D01*
X125358458Y-130627734D01*
X125383036Y-130578579D01*
X125407613Y-130554001D01*
X125456768Y-130529424D01*
X125481346Y-130529424D01*
X125530501Y-130554001D01*
X125555078Y-130578579D01*
X125579656Y-130627734D01*
X125579656Y-130726044D01*
X125604233Y-130775199D01*
X125628811Y-130799777D01*
X125677966Y-130824354D01*
X125776276Y-130824354D01*
X125825431Y-130799777D01*
X125850008Y-130775199D01*
X125874586Y-130726044D01*
X125874586Y-130627734D01*
X125850008Y-130578579D01*
X125825431Y-130554001D01*
X125776276Y-130529424D01*
X125677966Y-130529424D01*
X125628811Y-130554001D01*
X125604233Y-130578579D01*
X125579656Y-130627734D01*
D17*
%TO.C,C46*%
X131457656Y-127892107D02*
X131432189Y-127917575D01*
X131355785Y-127943043D01*
X131304850Y-127943043D01*
X131228447Y-127917575D01*
X131177511Y-127866640D01*
X131152044Y-127815704D01*
X131126576Y-127713833D01*
X131126576Y-127637430D01*
X131152044Y-127535559D01*
X131177511Y-127484624D01*
X131228447Y-127433689D01*
X131304850Y-127408221D01*
X131355785Y-127408221D01*
X131432189Y-127433689D01*
X131457656Y-127459156D01*
X131916075Y-127586495D02*
X131916075Y-127943043D01*
X131788737Y-127382753D02*
X131661398Y-127764769D01*
X131992478Y-127764769D01*
X132425429Y-127408221D02*
X132323559Y-127408221D01*
X132272623Y-127433689D01*
X132247155Y-127459156D01*
X132196220Y-127535559D01*
X132170752Y-127637430D01*
X132170752Y-127841172D01*
X132196220Y-127892107D01*
X132221688Y-127917575D01*
X132272623Y-127943043D01*
X132374494Y-127943043D01*
X132425429Y-127917575D01*
X132450897Y-127892107D01*
X132476365Y-127841172D01*
X132476365Y-127713833D01*
X132450897Y-127662898D01*
X132425429Y-127637430D01*
X132374494Y-127611963D01*
X132272623Y-127611963D01*
X132221688Y-127637430D01*
X132196220Y-127662898D01*
X132170752Y-127713833D01*
D14*
%TO.C,C47*%
X169299674Y-127730431D02*
X169275097Y-127755008D01*
X169201364Y-127779586D01*
X169152209Y-127779586D01*
X169078476Y-127755008D01*
X169029321Y-127705853D01*
X169004744Y-127656698D01*
X168980166Y-127558388D01*
X168980166Y-127484656D01*
X169004744Y-127386346D01*
X169029321Y-127337191D01*
X169078476Y-127288036D01*
X169152209Y-127263458D01*
X169201364Y-127263458D01*
X169275097Y-127288036D01*
X169299674Y-127312613D01*
X169742070Y-127435501D02*
X169742070Y-127779586D01*
X169619182Y-127238880D02*
X169496294Y-127607543D01*
X169815802Y-127607543D01*
X169963267Y-127263458D02*
X170307353Y-127263458D01*
X170086155Y-127779586D01*
%TO.C,C44*%
X175332174Y-114395431D02*
X175307597Y-114420008D01*
X175233864Y-114444586D01*
X175184709Y-114444586D01*
X175110976Y-114420008D01*
X175061821Y-114370853D01*
X175037244Y-114321698D01*
X175012666Y-114223388D01*
X175012666Y-114149656D01*
X175037244Y-114051346D01*
X175061821Y-114002191D01*
X175110976Y-113953036D01*
X175184709Y-113928458D01*
X175233864Y-113928458D01*
X175307597Y-113953036D01*
X175332174Y-113977613D01*
X175774570Y-114100501D02*
X175774570Y-114444586D01*
X175651682Y-113903880D02*
X175528794Y-114272543D01*
X175848302Y-114272543D01*
X176266120Y-114100501D02*
X176266120Y-114444586D01*
X176143232Y-113903880D02*
X176020345Y-114272543D01*
X176339853Y-114272543D01*
%TO.C,C17*%
X155352931Y-84205025D02*
X155377508Y-84229602D01*
X155402086Y-84303335D01*
X155402086Y-84352490D01*
X155377508Y-84426223D01*
X155328353Y-84475378D01*
X155279198Y-84499955D01*
X155180888Y-84524533D01*
X155107156Y-84524533D01*
X155008846Y-84499955D01*
X154959691Y-84475378D01*
X154910536Y-84426223D01*
X154885958Y-84352490D01*
X154885958Y-84303335D01*
X154910536Y-84229602D01*
X154935113Y-84205025D01*
X155402086Y-83713474D02*
X155402086Y-84008405D01*
X155402086Y-83860939D02*
X154885958Y-83860939D01*
X154959691Y-83910095D01*
X155008846Y-83959250D01*
X155033423Y-84008405D01*
X154885958Y-83541432D02*
X154885958Y-83197346D01*
X155402086Y-83418544D01*
D17*
%TO.C,C12*%
X174484652Y-77482179D02*
X174449508Y-77517323D01*
X174344076Y-77552467D01*
X174273788Y-77552467D01*
X174168356Y-77517323D01*
X174098069Y-77447035D01*
X174062925Y-77376747D01*
X174027781Y-77236171D01*
X174027781Y-77130740D01*
X174062925Y-76990164D01*
X174098069Y-76919876D01*
X174168356Y-76849589D01*
X174273788Y-76814445D01*
X174344076Y-76814445D01*
X174449508Y-76849589D01*
X174484652Y-76884732D01*
X175187530Y-77552467D02*
X174765803Y-77552467D01*
X174976666Y-77552467D02*
X174976666Y-76814445D01*
X174906378Y-76919876D01*
X174836091Y-76990164D01*
X174765803Y-77025308D01*
X175468681Y-76884732D02*
X175503825Y-76849589D01*
X175574113Y-76814445D01*
X175749832Y-76814445D01*
X175820120Y-76849589D01*
X175855264Y-76884732D01*
X175890408Y-76955020D01*
X175890408Y-77025308D01*
X175855264Y-77130740D01*
X175433537Y-77552467D01*
X175890408Y-77552467D01*
D14*
%TO.C,R50*%
X129049586Y-134370025D02*
X128803811Y-134542067D01*
X129049586Y-134664955D02*
X128533458Y-134664955D01*
X128533458Y-134468335D01*
X128558036Y-134419180D01*
X128582613Y-134394602D01*
X128631768Y-134370025D01*
X128705501Y-134370025D01*
X128754656Y-134394602D01*
X128779233Y-134419180D01*
X128803811Y-134468335D01*
X128803811Y-134664955D01*
X128533458Y-133903052D02*
X128533458Y-134148827D01*
X128779233Y-134173405D01*
X128754656Y-134148827D01*
X128730078Y-134099672D01*
X128730078Y-133976784D01*
X128754656Y-133927629D01*
X128779233Y-133903052D01*
X128828388Y-133878474D01*
X128951276Y-133878474D01*
X129000431Y-133903052D01*
X129025008Y-133927629D01*
X129049586Y-133976784D01*
X129049586Y-134099672D01*
X129025008Y-134148827D01*
X129000431Y-134173405D01*
X128533458Y-133558967D02*
X128533458Y-133509811D01*
X128558036Y-133460656D01*
X128582613Y-133436079D01*
X128631768Y-133411501D01*
X128730078Y-133386924D01*
X128852966Y-133386924D01*
X128951276Y-133411501D01*
X129000431Y-133436079D01*
X129025008Y-133460656D01*
X129049586Y-133509811D01*
X129049586Y-133558967D01*
X129025008Y-133608122D01*
X129000431Y-133632699D01*
X128951276Y-133657277D01*
X128852966Y-133681854D01*
X128730078Y-133681854D01*
X128631768Y-133657277D01*
X128582613Y-133632699D01*
X128558036Y-133608122D01*
X128533458Y-133558967D01*
%TO.C,R57*%
X130319586Y-148022525D02*
X130073811Y-148194567D01*
X130319586Y-148317455D02*
X129803458Y-148317455D01*
X129803458Y-148120835D01*
X129828036Y-148071680D01*
X129852613Y-148047102D01*
X129901768Y-148022525D01*
X129975501Y-148022525D01*
X130024656Y-148047102D01*
X130049233Y-148071680D01*
X130073811Y-148120835D01*
X130073811Y-148317455D01*
X129803458Y-147555552D02*
X129803458Y-147801327D01*
X130049233Y-147825905D01*
X130024656Y-147801327D01*
X130000078Y-147752172D01*
X130000078Y-147629284D01*
X130024656Y-147580129D01*
X130049233Y-147555552D01*
X130098388Y-147530974D01*
X130221276Y-147530974D01*
X130270431Y-147555552D01*
X130295008Y-147580129D01*
X130319586Y-147629284D01*
X130319586Y-147752172D01*
X130295008Y-147801327D01*
X130270431Y-147825905D01*
X129803458Y-147358932D02*
X129803458Y-147014846D01*
X130319586Y-147236044D01*
D23*
%TO.C,SJ1*%
X166750988Y-146187445D02*
X166768916Y-146133661D01*
X166768916Y-146044021D01*
X166750988Y-146008165D01*
X166733060Y-145990237D01*
X166697204Y-145972309D01*
X166661348Y-145972309D01*
X166625492Y-145990237D01*
X166607564Y-146008165D01*
X166589635Y-146044021D01*
X166571707Y-146115733D01*
X166553779Y-146151589D01*
X166535851Y-146169517D01*
X166499995Y-146187445D01*
X166464139Y-146187445D01*
X166428283Y-146169517D01*
X166410355Y-146151589D01*
X166392427Y-146115733D01*
X166392427Y-146026093D01*
X166410355Y-145972309D01*
X166392427Y-145703388D02*
X166661348Y-145703388D01*
X166715132Y-145721316D01*
X166750988Y-145757172D01*
X166768916Y-145810956D01*
X166768916Y-145846812D01*
X166768916Y-145326899D02*
X166768916Y-145542035D01*
X166768916Y-145434467D02*
X166392427Y-145434467D01*
X166446211Y-145470323D01*
X166482067Y-145506179D01*
X166499995Y-145542035D01*
D24*
%TO.C,Q1*%
X151676100Y-68491100D02*
X152057100Y-68491100D01*
D25*
X151676100Y-68491100D02*
X151676100Y-69126100D01*
X151676100Y-67856100D02*
X151676100Y-68491100D01*
D24*
X150406100Y-68491100D02*
X150025100Y-68491100D01*
D25*
X150406100Y-68491100D02*
X150406100Y-69126100D01*
X150406100Y-67856100D02*
X150406100Y-68491100D01*
X151295100Y-67856100D02*
X150787100Y-67856100D01*
X151295100Y-69126100D02*
X151295100Y-67856100D01*
X150787100Y-69126100D02*
X151295100Y-69126100D01*
X150787100Y-67856100D02*
X150787100Y-69126100D01*
X145580100Y-66078100D02*
G75*
G03*
X145326100Y-66332100I0J-254000D01*
G01*
X156756100Y-66332100D02*
G75*
G03*
X156502100Y-66078100I-254000J0D01*
G01*
X156502100Y-66078100D02*
X145580100Y-66078100D01*
D24*
X147612100Y-66459100D02*
X154470100Y-66459100D01*
D25*
X145326100Y-70650100D02*
G75*
G03*
X145580100Y-70904100I254000J0D01*
G01*
X145326100Y-70650100D02*
X145326100Y-69634100D01*
D24*
X147612100Y-67221100D02*
G75*
G03*
X147058500Y-67348100I-19J-1270000D01*
G01*
X147058500Y-69634100D02*
G75*
G03*
X147612100Y-69761100I553581J1143000D01*
G01*
X145932000Y-69634100D02*
G75*
G03*
X147612100Y-70523101I1680053J1143000D01*
G01*
X154470100Y-70523100D02*
G75*
G03*
X156150100Y-69633999I-121J2032000D01*
G01*
X155023700Y-67348100D02*
G75*
G03*
X154470100Y-67221100I-553581J-1143000D01*
G01*
X154470100Y-69761100D02*
G75*
G03*
X155023700Y-69634100I19J1270000D01*
G01*
D25*
X156756100Y-70650100D02*
X156756100Y-69634100D01*
X156502100Y-70904100D02*
G75*
G03*
X156756100Y-70650100I0J254000D01*
G01*
X156502100Y-70904100D02*
X145580100Y-70904100D01*
D24*
X147612100Y-67221100D02*
X154470100Y-67221100D01*
X154470100Y-70523100D02*
X147612100Y-70523100D01*
X154470100Y-69761100D02*
X147612100Y-69761100D01*
D25*
X156756100Y-67348100D02*
X156756100Y-66332100D01*
D24*
X156150200Y-67348101D02*
G75*
G03*
X154470100Y-66459100I-1680053J-1142999D01*
G01*
D25*
X145326100Y-67348100D02*
X145326100Y-66332100D01*
D24*
X147612100Y-66458999D02*
G75*
G03*
X145932000Y-67348100I74J-2032101D01*
G01*
D26*
%TO.C,SW3*%
X158391100Y-59283600D02*
G75*
G03*
X158391100Y-59283600I-1000000J0D01*
G01*
X158894400Y-59283600D02*
G75*
G03*
X158894400Y-59283600I-1503300J0D01*
G01*
X154391100Y-55983600D02*
X160391100Y-55983600D01*
X154391100Y-62583600D02*
X154391100Y-55983600D01*
X160391100Y-62583600D02*
X154391100Y-62583600D01*
X160391100Y-55983600D02*
X160391100Y-62583600D01*
%TO.C,SW4*%
X165058600Y-59283600D02*
G75*
G03*
X165058600Y-59283600I-1000000J0D01*
G01*
X165561900Y-59283600D02*
G75*
G03*
X165561900Y-59283600I-1503300J0D01*
G01*
X167058600Y-62583600D02*
X161058600Y-62583600D01*
X167058600Y-55983600D02*
X167058600Y-62583600D01*
X161058600Y-55983600D02*
X167058600Y-55983600D01*
X161058600Y-62583600D02*
X161058600Y-55983600D01*
%TO.C,IC2*%
X153241800Y-76809600D02*
G75*
G03*
X153241800Y-76809600I-359200J0D01*
G01*
X143818600Y-85873600D02*
X153818600Y-85873600D01*
X143818600Y-75873600D02*
X143818600Y-85873600D01*
X153818600Y-75873600D02*
X143818600Y-75873600D01*
X153818600Y-85873600D02*
X153818600Y-75873600D01*
D25*
%TO.C,IC7*%
X131356100Y-103111300D02*
X140246100Y-103111300D01*
X131356100Y-102019100D02*
G75*
G03*
X131356100Y-101003100I0J508000D01*
G01*
X131356100Y-99936300D02*
X131356100Y-103085900D01*
X140246100Y-103085900D02*
X140246100Y-99936300D01*
X131737100Y-103466900D02*
X139865100Y-103466900D01*
X131356100Y-103085900D02*
G75*
G03*
X131737100Y-103466900I381000J0D01*
G01*
X140246100Y-99936300D02*
G75*
G03*
X139865100Y-99555300I-381000J0D01*
G01*
X131737100Y-99555300D02*
G75*
G03*
X131356100Y-99936300I0J-381000D01*
G01*
X139865100Y-103466900D02*
G75*
G03*
X140246100Y-103085900I0J381000D01*
G01*
X139865100Y-99555300D02*
X131737100Y-99555300D01*
D27*
%TO.C,C8*%
X116658600Y-74521100D02*
G75*
G03*
X122558600Y-74521100I2950000J950000D01*
G01*
X122558600Y-72621100D02*
G75*
G03*
X116658600Y-72621100I-2950000J-950000D01*
G01*
X116358600Y-76821100D02*
X116358600Y-74521100D01*
X121158600Y-76821100D02*
X116358600Y-76821100D01*
X122858600Y-75121100D02*
X121158600Y-76821100D01*
X122858600Y-74521100D02*
X122858600Y-75121100D01*
X122858600Y-72021100D02*
X122858600Y-72621100D01*
X121158600Y-70321100D02*
X122858600Y-72021100D01*
X116358600Y-70321100D02*
X121158600Y-70321100D01*
X116358600Y-72621100D02*
X116358600Y-70321100D01*
%TO.C,IC1*%
G36*
X124853700Y-65747900D02*
G01*
X124091700Y-65747900D01*
X124091700Y-64884300D01*
X124853700Y-64884300D01*
X124853700Y-65747900D01*
G37*
D28*
X123990100Y-68593100D02*
X117995700Y-68592700D01*
X123990100Y-62039100D02*
X123990100Y-68593100D01*
X117995700Y-62039500D02*
X123990100Y-62039100D01*
D25*
%TO.C,IC6*%
X159842200Y-93155600D02*
G75*
G03*
X159842200Y-93155600I-533400J0D01*
G01*
X163429800Y-92215600D02*
X158337400Y-92215600D01*
X163429800Y-101926600D02*
X163429800Y-92215600D01*
X158337400Y-101926600D02*
X163429800Y-101926600D01*
X158337400Y-92215600D02*
X158337400Y-101926600D01*
%TO.C,L3*%
G36*
X141298600Y-70813600D02*
G01*
X140898600Y-70813600D01*
X140898600Y-70613600D01*
X141298600Y-70613600D01*
X141298600Y-70813600D01*
G37*
D29*
X141998600Y-71113600D02*
X140398600Y-71113600D01*
X140398600Y-70313600D02*
X141998600Y-70313600D01*
D27*
%TO.C,C34*%
X165976100Y-106603600D02*
X165326100Y-106603600D01*
X165976100Y-104203600D02*
X165976100Y-106603600D01*
X165276100Y-103503600D02*
X165976100Y-104203600D01*
X162776100Y-104203600D02*
X163476100Y-103503600D01*
X162776100Y-106603600D02*
X162776100Y-104203600D01*
X163426100Y-106603600D02*
X162776100Y-106603600D01*
X165326100Y-106103600D02*
G75*
G03*
X165276100Y-103853601I-950000J1104444D01*
G01*
X163426100Y-103903600D02*
G75*
G03*
X163426100Y-106103600I950000J-1100000D01*
G01*
%TO.C,C40*%
X169151100Y-112953600D02*
X168501100Y-112953600D01*
X169151100Y-110553600D02*
X169151100Y-112953600D01*
X168451100Y-109853600D02*
X169151100Y-110553600D01*
X165951100Y-110553600D02*
X166651100Y-109853600D01*
X165951100Y-112953600D02*
X165951100Y-110553600D01*
X166601100Y-112953600D02*
X165951100Y-112953600D01*
X168501100Y-112453600D02*
G75*
G03*
X168451100Y-110203601I-950000J1104444D01*
G01*
X166601100Y-110253600D02*
G75*
G03*
X166601100Y-112453600I950000J-1100000D01*
G01*
%TO.C,C33*%
X161531100Y-106603600D02*
X160881100Y-106603600D01*
X161531100Y-104203600D02*
X161531100Y-106603600D01*
X160831100Y-103503600D02*
X161531100Y-104203600D01*
X158331100Y-104203600D02*
X159031100Y-103503600D01*
X158331100Y-106603600D02*
X158331100Y-104203600D01*
X158981100Y-106603600D02*
X158331100Y-106603600D01*
X160881100Y-106103600D02*
G75*
G03*
X160831100Y-103853601I-950000J1104444D01*
G01*
X158981100Y-103903600D02*
G75*
G03*
X158981100Y-106103600I950000J-1100000D01*
G01*
%TO.C,C32*%
X157086100Y-106603600D02*
X156436100Y-106603600D01*
X157086100Y-104203600D02*
X157086100Y-106603600D01*
X156386100Y-103503600D02*
X157086100Y-104203600D01*
X153886100Y-104203600D02*
X154586100Y-103503600D01*
X153886100Y-106603600D02*
X153886100Y-104203600D01*
X154536100Y-106603600D02*
X153886100Y-106603600D01*
X156436100Y-106103600D02*
G75*
G03*
X156386100Y-103853601I-950000J1104444D01*
G01*
X154536100Y-103903600D02*
G75*
G03*
X154536100Y-106103600I950000J-1100000D01*
G01*
D28*
%TO.C,R45*%
X125006100Y-121513600D02*
G75*
G03*
X125006100Y-121513600I-2540000J0D01*
G01*
X124916100Y-122138600D02*
X120041100Y-122138600D01*
X123566100Y-122138600D02*
X121366100Y-122138600D01*
X123566100Y-122138600D02*
G75*
G03*
X121366100Y-122138600I-1100000J625000D01*
G01*
D26*
X118171100Y-125843600D02*
X118171100Y-116053600D01*
X126761100Y-125843600D02*
X118171100Y-125843600D01*
X126761100Y-116053600D02*
X126761100Y-125843600D01*
X118171100Y-116053600D02*
X126761100Y-116053600D01*
%TO.C,J8*%
X152996900Y-157988000D02*
X144005300Y-157988000D01*
X152996900Y-147497800D02*
X152996900Y-157988000D01*
X144005300Y-147497800D02*
X152996900Y-147497800D01*
X144005300Y-157988000D02*
X144005300Y-147497800D01*
%TO.C,J10*%
X179031900Y-157988000D02*
X170040300Y-157988000D01*
X179031900Y-147497800D02*
X179031900Y-157988000D01*
X170040300Y-147497800D02*
X179031900Y-147497800D01*
X170040300Y-157988000D02*
X170040300Y-147497800D01*
%TO.C,J9*%
X166014400Y-157988000D02*
X157022800Y-157988000D01*
X166014400Y-147497800D02*
X166014400Y-157988000D01*
X157022800Y-147497800D02*
X166014400Y-147497800D01*
X157022800Y-157988000D02*
X157022800Y-147497800D01*
%TO.C,J1*%
X126961900Y-143383000D02*
X117970300Y-143383000D01*
X126961900Y-132892800D02*
X126961900Y-143383000D01*
X117970300Y-132892800D02*
X126961900Y-132892800D01*
X117970300Y-143383000D02*
X117970300Y-132892800D01*
%TO.C,J2*%
X139979400Y-143383000D02*
X130987800Y-143383000D01*
X139979400Y-132892800D02*
X139979400Y-143383000D01*
X130987800Y-132892800D02*
X139979400Y-132892800D01*
X130987800Y-143383000D02*
X130987800Y-132892800D01*
%TO.C,J3*%
X152996900Y-143383000D02*
X144005300Y-143383000D01*
X152996900Y-132892800D02*
X152996900Y-143383000D01*
X144005300Y-132892800D02*
X152996900Y-132892800D01*
X144005300Y-143383000D02*
X144005300Y-132892800D01*
%TO.C,J4*%
X166014400Y-143383000D02*
X157022800Y-143383000D01*
X166014400Y-132892800D02*
X166014400Y-143383000D01*
X157022800Y-132892800D02*
X166014400Y-132892800D01*
X157022800Y-143383000D02*
X157022800Y-132892800D01*
D28*
%TO.C,R46*%
X138023600Y-121513600D02*
G75*
G03*
X138023600Y-121513600I-2540000J0D01*
G01*
X137933600Y-122138600D02*
X133058600Y-122138600D01*
X136583600Y-122138600D02*
X134383600Y-122138600D01*
X136583600Y-122138600D02*
G75*
G03*
X134383600Y-122138600I-1100000J625000D01*
G01*
D26*
X131188600Y-125843600D02*
X131188600Y-116053600D01*
X139778600Y-125843600D02*
X131188600Y-125843600D01*
X139778600Y-116053600D02*
X139778600Y-125843600D01*
X131188600Y-116053600D02*
X139778600Y-116053600D01*
D28*
%TO.C,R28*%
X127228600Y-101511100D02*
G75*
G03*
X127228600Y-101511100I-2540000J0D01*
G01*
X127138600Y-102136100D02*
X122263600Y-102136100D01*
X125788600Y-102136100D02*
X123588600Y-102136100D01*
X125788600Y-102136100D02*
G75*
G03*
X123588600Y-102136100I-1100000J625000D01*
G01*
D26*
X120393600Y-105841100D02*
X120393600Y-96051100D01*
X128983600Y-105841100D02*
X120393600Y-105841100D01*
X128983600Y-96051100D02*
X128983600Y-105841100D01*
X120393600Y-96051100D02*
X128983600Y-96051100D01*
D28*
%TO.C,SW1*%
X122339100Y-57061100D02*
G75*
G03*
X122339100Y-57061100I-1778000J0D01*
G01*
X119533100Y-60109100D02*
X121577100Y-60109100D01*
X119563100Y-54013100D02*
X121577100Y-54013100D01*
X123609100Y-59220100D02*
X123609100Y-54902100D01*
X117513100Y-54902100D02*
X117513100Y-59220100D01*
D27*
%TO.C,C2*%
X132306100Y-66996100D02*
G75*
G03*
X132306100Y-61096100I-950000J2950000D01*
G01*
X130406100Y-61096100D02*
G75*
G03*
X130406100Y-66996100I950000J-2950000D01*
G01*
X134606100Y-67296100D02*
X132306100Y-67296100D01*
X134606100Y-62496100D02*
X134606100Y-67296100D01*
X132906100Y-60796100D02*
X134606100Y-62496100D01*
X132306100Y-60796100D02*
X132906100Y-60796100D01*
X129806100Y-60796100D02*
X130406100Y-60796100D01*
X128106100Y-62496100D02*
X129806100Y-60796100D01*
X128106100Y-67296100D02*
X128106100Y-62496100D01*
X130406100Y-67296100D02*
X128106100Y-67296100D01*
%TO.C,C3*%
X139608600Y-66996100D02*
G75*
G03*
X139608600Y-61096100I-950000J2950000D01*
G01*
X137708600Y-61096100D02*
G75*
G03*
X137708600Y-66996100I950000J-2950000D01*
G01*
X141908600Y-67296100D02*
X139608600Y-67296100D01*
X141908600Y-62496100D02*
X141908600Y-67296100D01*
X140208600Y-60796100D02*
X141908600Y-62496100D01*
X139608600Y-60796100D02*
X140208600Y-60796100D01*
X137108600Y-60796100D02*
X137708600Y-60796100D01*
X135408600Y-62496100D02*
X137108600Y-60796100D01*
X135408600Y-67296100D02*
X135408600Y-62496100D01*
X137708600Y-67296100D02*
X135408600Y-67296100D01*
%TO.C,C1*%
X150483600Y-61926100D02*
G75*
G03*
X145883600Y-61926100I-2300000J-850000D01*
G01*
X145883600Y-63626100D02*
G75*
G03*
X150483600Y-63626100I2300000J850000D01*
G01*
X150783600Y-60176100D02*
X150783600Y-61826100D01*
X146933600Y-60176100D02*
X150783600Y-60176100D01*
X145583600Y-61526100D02*
X146933600Y-60176100D01*
X145583600Y-61826100D02*
X145583600Y-61526100D01*
X145583600Y-64026100D02*
X145583600Y-63726100D01*
X146933600Y-65376100D02*
X145583600Y-64026100D01*
X150783600Y-65376100D02*
X146933600Y-65376100D01*
X150783600Y-63726100D02*
X150783600Y-65376100D01*
D28*
%TO.C,R47*%
X151041100Y-121513600D02*
G75*
G03*
X151041100Y-121513600I-2540000J0D01*
G01*
X150951100Y-122138600D02*
X146076100Y-122138600D01*
X149601100Y-122138600D02*
X147401100Y-122138600D01*
X149601100Y-122138600D02*
G75*
G03*
X147401100Y-122138600I-1100000J625000D01*
G01*
D26*
X144206100Y-125843600D02*
X144206100Y-116053600D01*
X152796100Y-125843600D02*
X144206100Y-125843600D01*
X152796100Y-116053600D02*
X152796100Y-125843600D01*
X144206100Y-116053600D02*
X152796100Y-116053600D01*
D28*
%TO.C,R48*%
X164058600Y-121513600D02*
G75*
G03*
X164058600Y-121513600I-2540000J0D01*
G01*
X163968600Y-122138600D02*
X159093600Y-122138600D01*
X162618600Y-122138600D02*
X160418600Y-122138600D01*
X162618600Y-122138600D02*
G75*
G03*
X160418600Y-122138600I-1100000J625000D01*
G01*
D26*
X157223600Y-125843600D02*
X157223600Y-116053600D01*
X165813600Y-125843600D02*
X157223600Y-125843600D01*
X165813600Y-116053600D02*
X165813600Y-125843600D01*
X157223600Y-116053600D02*
X165813600Y-116053600D01*
D28*
%TO.C,R49*%
X177076100Y-121513600D02*
G75*
G03*
X177076100Y-121513600I-2540000J0D01*
G01*
X176986100Y-122138600D02*
X172111100Y-122138600D01*
X175636100Y-122138600D02*
X173436100Y-122138600D01*
X175636100Y-122138600D02*
G75*
G03*
X173436100Y-122138600I-1100000J625000D01*
G01*
D26*
X170241100Y-125843600D02*
X170241100Y-116053600D01*
X178831100Y-125843600D02*
X170241100Y-125843600D01*
X178831100Y-116053600D02*
X178831100Y-125843600D01*
X170241100Y-116053600D02*
X178831100Y-116053600D01*
D28*
%TO.C,R9*%
X134531100Y-74333100D02*
G75*
G03*
X134531100Y-74333100I-2540000J0D01*
G01*
X134441100Y-74958100D02*
X129566100Y-74958100D01*
X133091100Y-74958100D02*
X130891100Y-74958100D01*
X133091100Y-74958100D02*
G75*
G03*
X130891100Y-74958100I-1100000J625000D01*
G01*
D26*
X127696100Y-78663100D02*
X127696100Y-68873100D01*
X136286100Y-78663100D02*
X127696100Y-78663100D01*
X136286100Y-68873100D02*
X136286100Y-78663100D01*
X127696100Y-68873100D02*
X136286100Y-68873100D01*
D28*
%TO.C,R29*%
X151041100Y-101511100D02*
G75*
G03*
X151041100Y-101511100I-2540000J0D01*
G01*
X150951100Y-102136100D02*
X146076100Y-102136100D01*
X149601100Y-102136100D02*
X147401100Y-102136100D01*
X149601100Y-102136100D02*
G75*
G03*
X147401100Y-102136100I-1100000J625000D01*
G01*
D26*
X144206100Y-105841100D02*
X144206100Y-96051100D01*
X152796100Y-105841100D02*
X144206100Y-105841100D01*
X152796100Y-96051100D02*
X152796100Y-105841100D01*
X144206100Y-96051100D02*
X152796100Y-96051100D01*
D28*
%TO.C,R10*%
X167551100Y-74333100D02*
G75*
G03*
X167551100Y-74333100I-2540000J0D01*
G01*
X167461100Y-74958100D02*
X162586100Y-74958100D01*
X166111100Y-74958100D02*
X163911100Y-74958100D01*
X166111100Y-74958100D02*
G75*
G03*
X163911100Y-74958100I-1100000J625000D01*
G01*
D26*
X160716100Y-78663100D02*
X160716100Y-68873100D01*
X169306100Y-78663100D02*
X160716100Y-78663100D01*
X169306100Y-68873100D02*
X169306100Y-78663100D01*
X160716100Y-68873100D02*
X169306100Y-68873100D01*
D28*
%TO.C,R30*%
X174853600Y-101511100D02*
G75*
G03*
X174853600Y-101511100I-2540000J0D01*
G01*
X174763600Y-102136100D02*
X169888600Y-102136100D01*
X173413600Y-102136100D02*
X171213600Y-102136100D01*
X173413600Y-102136100D02*
G75*
G03*
X171213600Y-102136100I-1100000J625000D01*
G01*
D26*
X168018600Y-105841100D02*
X168018600Y-96051100D01*
X176608600Y-105841100D02*
X168018600Y-105841100D01*
X176608600Y-96051100D02*
X176608600Y-105841100D01*
X168018600Y-96051100D02*
X176608600Y-96051100D01*
%TO.C,J7*%
X139979400Y-157988000D02*
X130987800Y-157988000D01*
X139979400Y-147497800D02*
X139979400Y-157988000D01*
X130987800Y-147497800D02*
X139979400Y-147497800D01*
X130987800Y-157988000D02*
X130987800Y-147497800D01*
%TO.C,J5*%
X179031900Y-143383000D02*
X170040300Y-143383000D01*
X179031900Y-132892800D02*
X179031900Y-143383000D01*
X170040300Y-132892800D02*
X179031900Y-132892800D01*
X170040300Y-143383000D02*
X170040300Y-132892800D01*
D28*
%TO.C,SW2*%
X178219100Y-57061100D02*
G75*
G03*
X178219100Y-57061100I-1778000J0D01*
G01*
X175413100Y-60109100D02*
X177457100Y-60109100D01*
X175443100Y-54013100D02*
X177457100Y-54013100D01*
X179489100Y-59220100D02*
X179489100Y-54902100D01*
X173393100Y-54902100D02*
X173393100Y-59220100D01*
D26*
%TO.C,LED2*%
X171391100Y-57061100D02*
G75*
G03*
X171391100Y-57061100I-1300000J0D01*
G01*
X171361100Y-58331100D02*
X171361100Y-55791100D01*
X171361100Y-55791100D02*
G75*
G03*
X171361100Y-58331100I-1270000J-1270000D01*
G01*
%TO.C,LED1*%
X128211100Y-57061100D02*
G75*
G03*
X128211100Y-57061100I-1300000J0D01*
G01*
X128181100Y-58331100D02*
X128181100Y-55791100D01*
X128181100Y-55791100D02*
G75*
G03*
X128181100Y-58331100I-1270000J-1270000D01*
G01*
%TO.C,IC4*%
D30*
X174151100Y-83176100D02*
G75*
G03*
X174151100Y-83176100I-187500J0D01*
G01*
D28*
X177638600Y-82546100D02*
X177638600Y-88156100D01*
X177638600Y-88156100D02*
X173338600Y-88156100D01*
X173338600Y-82546100D02*
X177638600Y-82546100D01*
X173338600Y-88156100D02*
X173338600Y-82546100D01*
D27*
%TO.C,C21*%
X164363600Y-86576100D02*
X165013600Y-86576100D01*
X164363600Y-88976100D02*
X164363600Y-86576100D01*
X165063600Y-89676100D02*
X164363600Y-88976100D01*
X167563600Y-88976100D02*
X166863600Y-89676100D01*
X167563600Y-86576100D02*
X167563600Y-88976100D01*
X166913600Y-86576100D02*
X167563600Y-86576100D01*
X165013600Y-87076100D02*
G75*
G03*
X165063600Y-89326099I950000J-1104444D01*
G01*
X166913600Y-89276100D02*
G75*
G03*
X166913600Y-87076100I-950000J1100000D01*
G01*
%TO.C,C41*%
X144703600Y-113906100D02*
X144053600Y-113906100D01*
X144703600Y-111506100D02*
X144703600Y-113906100D01*
X144003600Y-110806100D02*
X144703600Y-111506100D01*
X141503600Y-111506100D02*
X142203600Y-110806100D01*
X141503600Y-113906100D02*
X141503600Y-111506100D01*
X142153600Y-113906100D02*
X141503600Y-113906100D01*
X144053600Y-113406100D02*
G75*
G03*
X144003600Y-111156101I-950000J1104444D01*
G01*
X142153600Y-111206100D02*
G75*
G03*
X142153600Y-113406100I950000J-1100000D01*
G01*
D24*
%TO.C,Q3*%
X174536100Y-93256100D02*
X174917100Y-93256100D01*
D25*
X174536100Y-93256100D02*
X174536100Y-93891100D01*
X174536100Y-92621100D02*
X174536100Y-93256100D01*
D24*
X173266100Y-93256100D02*
X172885100Y-93256100D01*
D25*
X173266100Y-93256100D02*
X173266100Y-93891100D01*
X173266100Y-92621100D02*
X173266100Y-93256100D01*
X174155100Y-92621100D02*
X173647100Y-92621100D01*
X174155100Y-93891100D02*
X174155100Y-92621100D01*
X173647100Y-93891100D02*
X174155100Y-93891100D01*
X173647100Y-92621100D02*
X173647100Y-93891100D01*
X168440100Y-90843100D02*
G75*
G03*
X168186100Y-91097100I0J-254000D01*
G01*
X179616100Y-91097100D02*
G75*
G03*
X179362100Y-90843100I-254000J0D01*
G01*
X179362100Y-90843100D02*
X168440100Y-90843100D01*
D24*
X170472100Y-91224100D02*
X177330100Y-91224100D01*
D25*
X168186100Y-95415100D02*
G75*
G03*
X168440100Y-95669100I254000J0D01*
G01*
X168186100Y-95415100D02*
X168186100Y-94399100D01*
D24*
X170472100Y-91986100D02*
G75*
G03*
X169918500Y-92113100I-19J-1270000D01*
G01*
X169918500Y-94399100D02*
G75*
G03*
X170472100Y-94526100I553581J1143000D01*
G01*
X168792000Y-94399100D02*
G75*
G03*
X170472100Y-95288101I1680053J1143000D01*
G01*
X177330100Y-95288100D02*
G75*
G03*
X179010100Y-94398999I-121J2032000D01*
G01*
X177883700Y-92113100D02*
G75*
G03*
X177330100Y-91986100I-553581J-1143000D01*
G01*
X177330100Y-94526100D02*
G75*
G03*
X177883700Y-94399100I19J1270000D01*
G01*
D25*
X179616100Y-95415100D02*
X179616100Y-94399100D01*
X179362100Y-95669100D02*
G75*
G03*
X179616100Y-95415100I0J254000D01*
G01*
X179362100Y-95669100D02*
X168440100Y-95669100D01*
D24*
X170472100Y-91986100D02*
X177330100Y-91986100D01*
X177330100Y-95288100D02*
X170472100Y-95288100D01*
X177330100Y-94526100D02*
X170472100Y-94526100D01*
D25*
X179616100Y-92113100D02*
X179616100Y-91097100D01*
D24*
X179010200Y-92113101D02*
G75*
G03*
X177330100Y-91224100I-1680053J-1142999D01*
G01*
D25*
X168186100Y-92113100D02*
X168186100Y-91097100D01*
D24*
X170472100Y-91223999D02*
G75*
G03*
X168792000Y-92113100I74J-2032101D01*
G01*
D26*
%TO.C,J6*%
X126961900Y-157988000D02*
X117970300Y-157988000D01*
X126961900Y-147497800D02*
X126961900Y-157988000D01*
X117970300Y-147497800D02*
X126961900Y-147497800D01*
X117970300Y-157988000D02*
X117970300Y-147497800D01*
D25*
%TO.C,D3*%
X140970000Y-105981500D02*
X140411200Y-105981500D01*
X140411200Y-105981500D02*
X140411200Y-105168700D01*
X143256000Y-105981500D02*
X142697200Y-105981500D01*
X143256000Y-105168700D02*
X143256000Y-105981500D01*
%TO.C,L1*%
G36*
X134631100Y-55891100D02*
G01*
X134431100Y-55891100D01*
X134431100Y-55491100D01*
X134631100Y-55491100D01*
X134631100Y-55891100D01*
G37*
D29*
X134131100Y-56591100D02*
X134131100Y-54991100D01*
X134931100Y-54991100D02*
X134931100Y-56591100D01*
%TO.C,L2*%
G36*
X151458600Y-55891100D02*
G01*
X151258600Y-55891100D01*
X151258600Y-55491100D01*
X151458600Y-55491100D01*
X151458600Y-55891100D01*
G37*
X150958600Y-56591100D02*
X150958600Y-54991100D01*
X151758600Y-54991100D02*
X151758600Y-56591100D01*
D27*
%TO.C,C46*%
X127533600Y-127216100D02*
X128183600Y-127216100D01*
X127533600Y-129616100D02*
X127533600Y-127216100D01*
X128233600Y-130316100D02*
X127533600Y-129616100D01*
X130733600Y-129616100D02*
X130033600Y-130316100D01*
X130733600Y-127216100D02*
X130733600Y-129616100D01*
X130083600Y-127216100D02*
X130733600Y-127216100D01*
X128183600Y-127716100D02*
G75*
G03*
X128233600Y-129966099I950000J-1104444D01*
G01*
X130083600Y-129916100D02*
G75*
G03*
X130083600Y-127716100I-950000J1100000D01*
G01*
%TO.C,C12*%
X173253600Y-78321100D02*
X173903600Y-78321100D01*
X173253600Y-80721100D02*
X173253600Y-78321100D01*
X173953600Y-81421100D02*
X173253600Y-80721100D01*
X176453600Y-80721100D02*
X175753600Y-81421100D01*
X176453600Y-78321100D02*
X176453600Y-80721100D01*
X175803600Y-78321100D02*
X176453600Y-78321100D01*
X173903600Y-78821100D02*
G75*
G03*
X173953600Y-81071099I950000J-1104444D01*
G01*
X175803600Y-81021100D02*
G75*
G03*
X175803600Y-78821100I-950000J1100000D01*
G01*
D28*
%TO.C,SJ1*%
X168668600Y-146961100D02*
X167068600Y-146961100D01*
X167068600Y-144961100D02*
G75*
G03*
X166868599Y-145261101I49900J-249934D01*
G01*
X168868599Y-145261100D02*
G75*
G03*
X168668599Y-144961101I-249899J50066D01*
G01*
X168668599Y-146961100D02*
G75*
G03*
X168868600Y-146661100I-49899J249934D01*
G01*
X166868600Y-146661099D02*
G75*
G03*
X167068600Y-146961100I249801J-50134D01*
G01*
X167068600Y-144961100D02*
X168668600Y-144961100D01*
%TD*%
%LPC*%
D31*
%TO.C,Q1*%
X155867100Y-68491100D03*
X146215100Y-68491100D03*
%TD*%
D32*
%TO.C,C4*%
X144056100Y-66483600D03*
X144056100Y-64783600D03*
%TD*%
D33*
%TO.C,SW3*%
X155391100Y-55883600D03*
X155391100Y-62683600D03*
X159391100Y-62683600D03*
X159391100Y-55883600D03*
%TD*%
D34*
%TO.C,R6*%
X161416100Y-65951100D03*
X159716100Y-65951100D03*
%TD*%
D32*
%TO.C,C5*%
X157708600Y-66483600D03*
X157708600Y-64783600D03*
%TD*%
D35*
%TO.C,SW4*%
X166058600Y-62683600D03*
X166058600Y-55883600D03*
X162058600Y-55883600D03*
X162058600Y-62683600D03*
%TD*%
D34*
%TO.C,R7*%
X165861100Y-65951100D03*
X164161100Y-65951100D03*
%TD*%
D32*
%TO.C,C18*%
X156121100Y-87438600D03*
X156121100Y-85738600D03*
%TD*%
D36*
%TO.C,C11*%
X140881200Y-76023100D03*
X140881200Y-77723100D03*
%TD*%
D32*
%TO.C,C20*%
X142786100Y-87756100D03*
X142786100Y-86056100D03*
%TD*%
D37*
%TO.C,C9*%
X144476100Y-73253600D03*
X146176100Y-73253600D03*
%TD*%
%TO.C,C7*%
X144476100Y-71983600D03*
X146176100Y-71983600D03*
%TD*%
D32*
%TO.C,C30*%
X153898600Y-99186100D03*
X153898600Y-97486100D03*
%TD*%
%TO.C,C31*%
X155168600Y-99186100D03*
X155168600Y-97486100D03*
%TD*%
D38*
%TO.C,JP1*%
X161201100Y-90398600D03*
X162471100Y-90398600D03*
X161201100Y-89128600D03*
X162471100Y-89128600D03*
X161201100Y-87858600D03*
X162471100Y-87858600D03*
X161201100Y-86588600D03*
X162471100Y-86588600D03*
X161201100Y-85318600D03*
X162471100Y-85318600D03*
%TD*%
D39*
%TO.C,C10*%
X156653600Y-75793500D03*
X154953600Y-75793500D03*
%TD*%
D40*
%TO.C,IC2*%
X154755000Y-77123600D03*
X154755000Y-77623600D03*
X154755000Y-78123600D03*
X154755000Y-78623600D03*
X154755000Y-79123600D03*
X154755000Y-79623600D03*
X154755000Y-80123600D03*
X154755000Y-80623600D03*
X154755000Y-81123600D03*
X154755000Y-81623600D03*
X154755000Y-82123600D03*
X154755000Y-82623600D03*
X154755000Y-83123600D03*
X154755000Y-83623600D03*
X154755000Y-84123600D03*
X154755000Y-84623600D03*
D41*
X152568600Y-86759200D03*
X152068600Y-86759200D03*
X151568600Y-86759200D03*
X151068600Y-86759200D03*
X150568600Y-86759200D03*
X150068600Y-86759200D03*
X149568600Y-86759200D03*
X149068600Y-86759200D03*
X148568600Y-86759200D03*
X148068600Y-86759200D03*
X147568600Y-86759200D03*
X147068600Y-86759200D03*
X146568600Y-86759200D03*
X146068600Y-86759200D03*
X145568600Y-86759200D03*
X145068600Y-86759200D03*
D42*
X142907600Y-84623600D03*
X142907600Y-84123600D03*
X142907600Y-83623600D03*
X142907600Y-83123600D03*
X142907600Y-82623600D03*
X142907600Y-82123600D03*
X142907600Y-81623600D03*
X142907600Y-81123600D03*
X142907600Y-80623600D03*
X142907600Y-80123600D03*
X142907600Y-79623600D03*
X142907600Y-79123600D03*
X142907600Y-78623600D03*
X142907600Y-78123600D03*
X142907600Y-77623600D03*
X142907600Y-77123600D03*
D43*
X145068600Y-74937200D03*
X145568600Y-74937200D03*
X146068600Y-74937200D03*
X146568600Y-74937200D03*
X147068600Y-74937200D03*
X147568600Y-74937200D03*
X148068600Y-74937200D03*
X148568600Y-74937200D03*
X149068600Y-74937200D03*
X149568600Y-74937200D03*
X150068600Y-74937200D03*
X150568600Y-74937200D03*
X151068600Y-74937200D03*
X151568600Y-74937200D03*
X152068600Y-74937200D03*
X152568600Y-74937200D03*
%TD*%
D44*
%TO.C,C16*%
X140881100Y-82781100D03*
X140881100Y-84681100D03*
%TD*%
D45*
%TO.C,C22*%
X153578600Y-89128600D03*
X151678600Y-89128600D03*
%TD*%
D37*
%TO.C,C27*%
X152096100Y-92938600D03*
X153796100Y-92938600D03*
%TD*%
D46*
%TO.C,JP2*%
X179616100Y-76746100D03*
X179616100Y-74206100D03*
X179616100Y-71666100D03*
X179616100Y-69126100D03*
X179616100Y-66586100D03*
X179616100Y-64046100D03*
%TD*%
D47*
%TO.C,IC7*%
X139611100Y-98437700D03*
X139611100Y-104584500D03*
X138341100Y-98437700D03*
X137071100Y-98437700D03*
X138341100Y-104584500D03*
X137071100Y-104584500D03*
X135801100Y-98437700D03*
X135801100Y-104584500D03*
X134531100Y-98437700D03*
X133261100Y-98437700D03*
X134531100Y-104584500D03*
X133261100Y-104584500D03*
X131991100Y-98437700D03*
X131991100Y-104584500D03*
%TD*%
D48*
%TO.C,R19*%
X123418600Y-94423600D03*
X123418600Y-92723600D03*
%TD*%
D49*
%TO.C,R18*%
X121831100Y-92723600D03*
X121831100Y-94423600D03*
%TD*%
D48*
%TO.C,R20*%
X125006100Y-94423600D03*
X125006100Y-92723600D03*
%TD*%
D32*
%TO.C,C26*%
X120243600Y-94423600D03*
X120243600Y-92723600D03*
%TD*%
D34*
%TO.C,R22*%
X139826100Y-92938600D03*
X138126100Y-92938600D03*
%TD*%
D50*
%TO.C,R26*%
X138126100Y-94526100D03*
X139826100Y-94526100D03*
%TD*%
D48*
%TO.C,R24*%
X136753600Y-94423600D03*
X136753600Y-92723600D03*
%TD*%
D39*
%TO.C,C29*%
X139826100Y-96113600D03*
X138126100Y-96113600D03*
%TD*%
D50*
%TO.C,R21*%
X131776100Y-92938600D03*
X133476100Y-92938600D03*
%TD*%
D34*
%TO.C,R25*%
X133476100Y-94526100D03*
X131776100Y-94526100D03*
%TD*%
D48*
%TO.C,R23*%
X134848600Y-94423600D03*
X134848600Y-92723600D03*
%TD*%
D37*
%TO.C,C28*%
X131776100Y-96113600D03*
X133476100Y-96113600D03*
%TD*%
D50*
%TO.C,R34*%
X131776100Y-110083600D03*
X133476100Y-110083600D03*
%TD*%
D34*
%TO.C,R31*%
X133476100Y-108496100D03*
X131776100Y-108496100D03*
%TD*%
D37*
%TO.C,C36*%
X131776100Y-106908600D03*
X133476100Y-106908600D03*
%TD*%
D51*
%TO.C,IC3*%
X126908600Y-83901100D03*
X125008600Y-83901100D03*
X125958600Y-86101100D03*
%TD*%
D50*
%TO.C,R12*%
X125108600Y-80873600D03*
X126808600Y-80873600D03*
%TD*%
D39*
%TO.C,C15*%
X126808600Y-82461100D03*
X125108600Y-82461100D03*
%TD*%
D52*
%TO.C,C8*%
X122008600Y-73571100D03*
X117208600Y-73571100D03*
%TD*%
D39*
%TO.C,C6*%
X125538600Y-71031100D03*
X123838600Y-71031100D03*
%TD*%
D53*
%TO.C,IC1*%
X126631100Y-63036100D03*
X126631100Y-67596100D03*
D54*
X119331100Y-65316100D03*
%TD*%
D55*
%TO.C,D1*%
X132943600Y-55161100D03*
X132943600Y-58961100D03*
%TD*%
D56*
%TO.C,D2*%
X152946100Y-58961100D03*
X152946100Y-55161100D03*
%TD*%
D57*
%TO.C,JP3*%
X147548600Y-57696100D03*
X147548600Y-55156100D03*
X145008600Y-57696100D03*
X145008600Y-55156100D03*
X142468600Y-57696100D03*
X142468600Y-55156100D03*
X139928600Y-57696100D03*
X139928600Y-55156100D03*
X137388600Y-57696100D03*
X137388600Y-55156100D03*
%TD*%
D49*
%TO.C,R36*%
X134848600Y-109551100D03*
X134848600Y-111251100D03*
%TD*%
D39*
%TO.C,C37*%
X136651100Y-106908600D03*
X134951100Y-106908600D03*
%TD*%
D58*
%TO.C,IC6*%
X164635800Y-92833600D03*
X164635800Y-93483600D03*
X164635800Y-94133600D03*
X164635800Y-94783600D03*
X164635800Y-95433600D03*
X164635800Y-96083600D03*
X164635800Y-96733600D03*
X164635800Y-97383600D03*
X164635800Y-98033600D03*
X164635800Y-98683600D03*
X164635800Y-99333600D03*
X164635800Y-99983600D03*
X164635800Y-100633600D03*
X164635800Y-101283600D03*
X157131400Y-101283600D03*
X157131400Y-100633600D03*
X157131400Y-99983600D03*
X157131400Y-99333600D03*
X157131400Y-98683600D03*
X157131400Y-98033600D03*
X157131400Y-97383600D03*
X157131400Y-96733600D03*
X157131400Y-96083600D03*
X157131400Y-95433600D03*
X157131400Y-94783600D03*
X157131400Y-94133600D03*
X157131400Y-93483600D03*
X157131400Y-92833600D03*
%TD*%
D59*
%TO.C,L3*%
X141898600Y-70713600D03*
X140298600Y-70713600D03*
%TD*%
D32*
%TO.C,C35*%
X166916100Y-105853600D03*
X166916100Y-104153600D03*
%TD*%
D60*
%TO.C,C34*%
X164376100Y-103703600D03*
X164376100Y-106303600D03*
%TD*%
D48*
%TO.C,R27*%
X166598600Y-99186100D03*
X166598600Y-97486100D03*
%TD*%
%TO.C,R54*%
X153898600Y-156336100D03*
X153898600Y-154636100D03*
%TD*%
D34*
%TO.C,R51*%
X152526100Y-146278600D03*
X150826100Y-146278600D03*
%TD*%
D37*
%TO.C,C49*%
X150826100Y-144691100D03*
X152526100Y-144691100D03*
%TD*%
D60*
%TO.C,C40*%
X167551100Y-110053600D03*
X167551100Y-112653600D03*
%TD*%
%TO.C,C33*%
X159931100Y-103703600D03*
X159931100Y-106303600D03*
%TD*%
D48*
%TO.C,R38*%
X165011100Y-112521100D03*
X165011100Y-110821100D03*
%TD*%
D49*
%TO.C,R43*%
X163423600Y-112726100D03*
X163423600Y-114426100D03*
%TD*%
D61*
%TO.C,IC8*%
X158086100Y-115163600D03*
X158086100Y-113893600D03*
X158086100Y-111353600D03*
X152886100Y-115163600D03*
X152886100Y-113893600D03*
X152886100Y-111353600D03*
X158086100Y-112623600D03*
X152886100Y-112623600D03*
%TD*%
D48*
%TO.C,R42*%
X161836100Y-114426100D03*
X161836100Y-112726100D03*
%TD*%
D36*
%TO.C,C43*%
X160248600Y-112726100D03*
X160248600Y-114426100D03*
%TD*%
D49*
%TO.C,R56*%
X169138600Y-154636100D03*
X169138600Y-156336100D03*
%TD*%
D60*
%TO.C,C32*%
X155486100Y-103703600D03*
X155486100Y-106303600D03*
%TD*%
D50*
%TO.C,R33*%
X155271100Y-109448600D03*
X156971100Y-109448600D03*
%TD*%
D49*
%TO.C,R40*%
X147548600Y-111456100D03*
X147548600Y-113156100D03*
%TD*%
D48*
%TO.C,R41*%
X149136100Y-113156100D03*
X149136100Y-111456100D03*
%TD*%
D36*
%TO.C,C42*%
X150723600Y-111456100D03*
X150723600Y-113156100D03*
%TD*%
D49*
%TO.C,R55*%
X156121100Y-154636100D03*
X156121100Y-156336100D03*
%TD*%
D39*
%TO.C,C39*%
X162051100Y-111353600D03*
X160351100Y-111353600D03*
%TD*%
%TO.C,C45*%
X150621100Y-115163600D03*
X148921100Y-115163600D03*
%TD*%
D49*
%TO.C,R16*%
X157549900Y-88913600D03*
X157549900Y-90613600D03*
%TD*%
%TO.C,R17*%
X158978600Y-88913600D03*
X158978600Y-90613600D03*
%TD*%
D39*
%TO.C,C25*%
X167131100Y-91351100D03*
X165431100Y-91351100D03*
%TD*%
D62*
%TO.C,R45*%
X118066100Y-121513600D03*
X126866100Y-121513600D03*
D63*
X119966100Y-128213600D03*
X122466100Y-128213600D03*
X124966100Y-128213600D03*
%TD*%
D64*
%TO.C,J8*%
X148501100Y-151993600D03*
D65*
X148501100Y-146278600D03*
X148501100Y-156438600D03*
X148501100Y-148818600D03*
%TD*%
D64*
%TO.C,J10*%
X174536100Y-151993600D03*
D65*
X174536100Y-146278600D03*
X174536100Y-156438600D03*
X174536100Y-148818600D03*
%TD*%
D64*
%TO.C,J9*%
X161518600Y-151993600D03*
D65*
X161518600Y-146278600D03*
X161518600Y-156438600D03*
X161518600Y-148818600D03*
%TD*%
D64*
%TO.C,J1*%
X122466100Y-137388600D03*
D65*
X122466100Y-131673600D03*
X122466100Y-141833600D03*
X122466100Y-134213600D03*
%TD*%
D64*
%TO.C,J2*%
X135483600Y-137388600D03*
D65*
X135483600Y-131673600D03*
X135483600Y-141833600D03*
X135483600Y-134213600D03*
%TD*%
D64*
%TO.C,J3*%
X148501100Y-137388600D03*
D65*
X148501100Y-131673600D03*
X148501100Y-141833600D03*
X148501100Y-134213600D03*
%TD*%
D64*
%TO.C,J4*%
X161518600Y-137388600D03*
D65*
X161518600Y-131673600D03*
X161518600Y-141833600D03*
X161518600Y-134213600D03*
%TD*%
D62*
%TO.C,R46*%
X131083600Y-121513600D03*
X139883600Y-121513600D03*
D63*
X132983600Y-128213600D03*
X135483600Y-128213600D03*
X137983600Y-128213600D03*
%TD*%
D66*
%TO.C,R28*%
X119988600Y-101511100D03*
X129388600Y-101511100D03*
D63*
X122188600Y-108511100D03*
X124688600Y-108511100D03*
X127188600Y-108511100D03*
%TD*%
D46*
%TO.C,SW1*%
X122821700Y-53809900D03*
X122821700Y-60312300D03*
X118300500Y-53809900D03*
X118300500Y-60312300D03*
%TD*%
D67*
%TO.C,R2*%
X130721100Y-58483100D03*
X130721100Y-55639100D03*
%TD*%
D68*
%TO.C,C2*%
X131356100Y-61646100D03*
X131356100Y-66446100D03*
%TD*%
%TO.C,C3*%
X138658600Y-61646100D03*
X138658600Y-66446100D03*
%TD*%
D69*
%TO.C,C1*%
X146133600Y-62776100D03*
X150233600Y-62776100D03*
%TD*%
D70*
%TO.C,F1*%
X115481100Y-53251100D03*
%TD*%
%TO.C,F4*%
X181521100Y-156756100D03*
%TD*%
%TO.C,F2*%
X181521100Y-53251100D03*
%TD*%
%TO.C,F3*%
X115481100Y-156756100D03*
%TD*%
D62*
%TO.C,R47*%
X144101100Y-121513600D03*
X152901100Y-121513600D03*
D63*
X146001100Y-128213600D03*
X148501100Y-128213600D03*
X151001100Y-128213600D03*
%TD*%
D62*
%TO.C,R48*%
X157118600Y-121513600D03*
X165918600Y-121513600D03*
D63*
X159018600Y-128213600D03*
X161518600Y-128213600D03*
X164018600Y-128213600D03*
%TD*%
D62*
%TO.C,R49*%
X170136100Y-121513600D03*
X178936100Y-121513600D03*
D63*
X172036100Y-128213600D03*
X174536100Y-128213600D03*
X177036100Y-128213600D03*
%TD*%
D66*
%TO.C,R9*%
X127291100Y-74333100D03*
X136691100Y-74333100D03*
D63*
X129491100Y-81333100D03*
X131991100Y-81333100D03*
X134491100Y-81333100D03*
%TD*%
D66*
%TO.C,R29*%
X143801100Y-101511100D03*
X153201100Y-101511100D03*
D63*
X146001100Y-108511100D03*
X148501100Y-108511100D03*
X151001100Y-108511100D03*
%TD*%
D66*
%TO.C,R10*%
X160311100Y-74333100D03*
X169711100Y-74333100D03*
D63*
X162511100Y-81333100D03*
X165011100Y-81333100D03*
X167511100Y-81333100D03*
%TD*%
D66*
%TO.C,R30*%
X167613600Y-101511100D03*
X177013600Y-101511100D03*
D63*
X169813600Y-108511100D03*
X172313600Y-108511100D03*
X174813600Y-108511100D03*
%TD*%
D49*
%TO.C,R14*%
X121831100Y-80976100D03*
X121831100Y-82676100D03*
%TD*%
D48*
%TO.C,R13*%
X120243600Y-82676100D03*
X120243600Y-80976100D03*
%TD*%
D49*
%TO.C,R15*%
X123418600Y-80976100D03*
X123418600Y-82676100D03*
%TD*%
D36*
%TO.C,C14*%
X118656100Y-80976100D03*
X118656100Y-82676100D03*
%TD*%
D64*
%TO.C,J7*%
X135483600Y-151993600D03*
D65*
X135483600Y-146278600D03*
X135483600Y-156438600D03*
X135483600Y-148818600D03*
%TD*%
D34*
%TO.C,R35*%
X139826100Y-110083600D03*
X138126100Y-110083600D03*
%TD*%
D50*
%TO.C,R32*%
X138126100Y-108496100D03*
X139826100Y-108496100D03*
%TD*%
D39*
%TO.C,C38*%
X139826100Y-106908600D03*
X138126100Y-106908600D03*
%TD*%
D49*
%TO.C,R37*%
X136753600Y-109551100D03*
X136753600Y-111251100D03*
%TD*%
D64*
%TO.C,J5*%
X174536100Y-137388600D03*
D65*
X174536100Y-131673600D03*
X174536100Y-141833600D03*
X174536100Y-134213600D03*
%TD*%
D32*
%TO.C,C19*%
X118021100Y-88708600D03*
X118021100Y-87008600D03*
%TD*%
D46*
%TO.C,SW2*%
X178701700Y-53809900D03*
X178701700Y-60312300D03*
X174180500Y-53809900D03*
X174180500Y-60312300D03*
%TD*%
D71*
%TO.C,LED2*%
X170091100Y-59061100D03*
X170091100Y-55061100D03*
X170091100Y-57061100D03*
%TD*%
%TO.C,LED1*%
X126911100Y-59061100D03*
X126911100Y-55061100D03*
X126911100Y-57061100D03*
%TD*%
D49*
%TO.C,R4*%
X168186100Y-60656100D03*
X168186100Y-62356100D03*
%TD*%
%TO.C,R5*%
X169773600Y-60656100D03*
X169773600Y-62356100D03*
%TD*%
%TO.C,R3*%
X124688600Y-57798600D03*
X124688600Y-59498600D03*
%TD*%
D48*
%TO.C,R1*%
X124688600Y-56323600D03*
X124688600Y-54623600D03*
%TD*%
D72*
%TO.C,IC4*%
X172663600Y-87601100D03*
D73*
X178313600Y-87601100D03*
X178313600Y-83051100D03*
X178313600Y-83701100D03*
X178313600Y-84351100D03*
X178313600Y-85001100D03*
X178313600Y-85651100D03*
X178313600Y-86301100D03*
X178313600Y-86951100D03*
D72*
X172663600Y-86951100D03*
X172663600Y-86301100D03*
X172663600Y-85651100D03*
X172663600Y-85001100D03*
X172663600Y-84351100D03*
X172663600Y-83701100D03*
X172663600Y-83051100D03*
%TD*%
D36*
%TO.C,C13*%
X177393600Y-79706100D03*
X177393600Y-81406100D03*
%TD*%
D74*
%TO.C,C21*%
X165963600Y-89476100D03*
X165963600Y-86876100D03*
%TD*%
D60*
%TO.C,C41*%
X143103600Y-111006100D03*
X143103600Y-113606100D03*
%TD*%
D31*
%TO.C,Q3*%
X178727100Y-93256100D03*
X169075100Y-93256100D03*
%TD*%
D37*
%TO.C,C23*%
X168288600Y-90081100D03*
X169988600Y-90081100D03*
%TD*%
D39*
%TO.C,C24*%
X179196100Y-90081100D03*
X177496100Y-90081100D03*
%TD*%
D34*
%TO.C,R44*%
X166813600Y-114528600D03*
X165113600Y-114528600D03*
%TD*%
D49*
%TO.C,R39*%
X145961100Y-111456100D03*
X145961100Y-113156100D03*
%TD*%
D64*
%TO.C,J6*%
X122466100Y-151993600D03*
D65*
X122466100Y-146278600D03*
X122466100Y-156438600D03*
X122466100Y-148818600D03*
%TD*%
D75*
%TO.C,IC5*%
X123101100Y-85258600D03*
X121831100Y-85258600D03*
X119291100Y-85258600D03*
X123101100Y-90458600D03*
X121831100Y-90458600D03*
X119291100Y-90458600D03*
X120561100Y-85258600D03*
X120561100Y-90458600D03*
%TD*%
D76*
%TO.C,Q2*%
X124223600Y-77066100D03*
X124223600Y-78966100D03*
X126423600Y-78016100D03*
%TD*%
D34*
%TO.C,R11*%
X122363600Y-77698600D03*
X120663600Y-77698600D03*
%TD*%
D49*
%TO.C,R8*%
X124688600Y-73673600D03*
X124688600Y-75373600D03*
%TD*%
D48*
%TO.C,R53*%
X142786100Y-149668600D03*
X142786100Y-147968600D03*
%TD*%
D77*
%TO.C,D3*%
X142783600Y-104221100D03*
X140883600Y-104221100D03*
X141833600Y-106421100D03*
%TD*%
D48*
%TO.C,R52*%
X128181100Y-149668600D03*
X128181100Y-147968600D03*
%TD*%
D78*
%TO.C,L1*%
X134531100Y-56491100D03*
X134531100Y-54891100D03*
%TD*%
%TO.C,L2*%
X151358600Y-56491100D03*
X151358600Y-54891100D03*
%TD*%
D32*
%TO.C,C48*%
X126593600Y-131888600D03*
X126593600Y-130188600D03*
%TD*%
D74*
%TO.C,C46*%
X129133600Y-130116100D03*
X129133600Y-127516100D03*
%TD*%
D36*
%TO.C,C47*%
X169773600Y-128283600D03*
X169773600Y-129983600D03*
%TD*%
D39*
%TO.C,C44*%
X176338600Y-114846100D03*
X174638600Y-114846100D03*
%TD*%
D32*
%TO.C,C17*%
X154851100Y-87438600D03*
X154851100Y-85738600D03*
%TD*%
D74*
%TO.C,C12*%
X174853600Y-81221100D03*
X174853600Y-78621100D03*
%TD*%
D49*
%TO.C,R50*%
X129768600Y-133363600D03*
X129768600Y-135063600D03*
%TD*%
D48*
%TO.C,R57*%
X130086100Y-150938600D03*
X130086100Y-149238600D03*
%TD*%
D79*
%TO.C,SJ1*%
X167468600Y-145961100D03*
X168318600Y-145961100D03*
%TD*%
M02*
