%TF.GenerationSoftware,KiCad,Pcbnew,(6.0.11-0)*%
%TF.CreationDate,2023-04-29T13:53:27+02:00*%
%TF.ProjectId,rings,72696e67-732e-46b6-9963-61645f706362,rev?*%
%TF.SameCoordinates,Original*%
%TF.FileFunction,Soldermask,Bot*%
%TF.FilePolarity,Negative*%
%FSLAX46Y46*%
G04 Gerber Fmt 4.6, Leading zero omitted, Abs format (unit mm)*
G04 Created by KiCad (PCBNEW (6.0.11-0)) date 2023-04-29 13:53:27*
%MOMM*%
%LPD*%
G01*
G04 APERTURE LIST*
G04 Aperture macros list*
%AMRoundRect*
0 Rectangle with rounded corners*
0 $1 Rounding radius*
0 $2 $3 $4 $5 $6 $7 $8 $9 X,Y pos of 4 corners*
0 Add a 4 corners polygon primitive as box body*
4,1,4,$2,$3,$4,$5,$6,$7,$8,$9,$2,$3,0*
0 Add four circle primitives for the rounded corners*
1,1,$1+$1,$2,$3*
1,1,$1+$1,$4,$5*
1,1,$1+$1,$6,$7*
1,1,$1+$1,$8,$9*
0 Add four rect primitives between the rounded corners*
20,1,$1+$1,$2,$3,$4,$5,0*
20,1,$1+$1,$4,$5,$6,$7,0*
20,1,$1+$1,$6,$7,$8,$9,0*
20,1,$1+$1,$8,$9,$2,$3,0*%
%AMFreePoly0*
4,1,25,0.269922,0.591773,0.274824,0.587282,0.587282,0.274824,0.609310,0.227583,0.609600,0.220942,0.609600,-0.220942,0.591773,-0.269922,0.587282,-0.274824,0.274824,-0.587282,0.227583,-0.609310,0.220942,-0.609600,-0.220942,-0.609600,-0.269922,-0.591773,-0.274824,-0.587282,-0.587282,-0.274824,-0.609310,-0.227583,-0.609600,-0.220942,-0.609600,0.220942,-0.591773,0.269922,-0.587282,0.274824,
-0.274824,0.587282,-0.227583,0.609310,-0.220942,0.609600,0.220942,0.609600,0.269922,0.591773,0.269922,0.591773,$1*%
%AMFreePoly1*
4,1,25,0.438258,0.998173,0.443160,0.993682,0.993682,0.443160,1.015710,0.395919,1.016000,0.389278,1.016000,-0.389278,0.998173,-0.438258,0.993682,-0.443160,0.443160,-0.993682,0.395919,-1.015710,0.389278,-1.016000,-0.389278,-1.016000,-0.438258,-0.998173,-0.443160,-0.993682,-0.993682,-0.443160,-1.015710,-0.395919,-1.016000,-0.389278,-1.016000,0.389278,-0.998173,0.438258,-0.993682,0.443160,
-0.443160,0.993682,-0.395919,1.015710,-0.389278,1.016000,0.389278,1.016000,0.438258,0.998173,0.438258,0.998173,$1*%
%AMFreePoly2*
4,1,25,0.706544,1.645873,0.711446,1.641382,1.641382,0.711446,1.663410,0.664205,1.663700,0.657564,1.663700,-0.657564,1.645873,-0.706544,1.641382,-0.711446,0.711446,-1.641382,0.664205,-1.663410,0.657564,-1.663700,-0.657564,-1.663700,-0.706544,-1.645873,-0.711446,-1.641382,-1.641382,-0.711446,-1.663410,-0.664205,-1.663700,-0.657564,-1.663700,0.657564,-1.645873,0.706544,-1.641382,0.711446,
-0.711446,1.641382,-0.664205,1.663410,-0.657564,1.663700,0.657564,1.663700,0.706544,1.645873,0.706544,1.645873,$1*%
%AMFreePoly3*
4,1,25,0.417216,0.947373,0.422118,0.942882,0.942882,0.422118,0.964910,0.374877,0.965200,0.368236,0.965200,-0.368236,0.947373,-0.417216,0.942882,-0.422118,0.422118,-0.942882,0.374877,-0.964910,0.368236,-0.965200,-0.368236,-0.965200,-0.417216,-0.947373,-0.422118,-0.942882,-0.942882,-0.422118,-0.964910,-0.374877,-0.965200,-0.368236,-0.965200,0.368236,-0.947373,0.417216,-0.942882,0.422118,
-0.422118,0.942882,-0.374877,0.964910,-0.368236,0.965200,0.368236,0.965200,0.417216,0.947373,0.417216,0.947373,$1*%
%AMFreePoly4*
4,1,25,0.575031,1.328373,0.579933,1.323882,1.323882,0.579933,1.345910,0.532692,1.346200,0.526051,1.346200,-0.526051,1.328373,-0.575031,1.323882,-0.579933,0.579933,-1.323882,0.532692,-1.345910,0.526051,-1.346200,-0.526051,-1.346200,-0.575031,-1.328373,-0.579933,-1.323882,-1.323882,-0.579933,-1.345910,-0.532692,-1.346200,-0.526051,-1.346200,0.526051,-1.328373,0.575031,-1.323882,0.579933,
-0.579933,1.323882,-0.532692,1.345910,-0.526051,1.346200,0.526051,1.346200,0.575031,1.328373,0.575031,1.328373,$1*%
G04 Aperture macros list end*
%ADD10FreePoly0,270.000000*%
%ADD11C,2.032000*%
%ADD12FreePoly1,-0.000000*%
%ADD13FreePoly2,90.000000*%
%ADD14RoundRect,0.076200X0.939800X-0.939800X0.939800X0.939800X-0.939800X0.939800X-0.939800X-0.939800X0*%
%ADD15C,2.200000*%
%ADD16FreePoly3,180.000000*%
%ADD17FreePoly4,90.000000*%
%ADD18C,1.258800*%
G04 APERTURE END LIST*
D10*
%TO.C,JP1*%
X161201100Y-90398600D03*
X162471100Y-90398600D03*
X161201100Y-89128600D03*
X162471100Y-89128600D03*
X161201100Y-87858600D03*
X162471100Y-87858600D03*
X161201100Y-86588600D03*
X162471100Y-86588600D03*
X161201100Y-85318600D03*
X162471100Y-85318600D03*
%TD*%
D11*
%TO.C,JP2*%
X179616100Y-76746100D03*
X179616100Y-74206100D03*
X179616100Y-71666100D03*
X179616100Y-69126100D03*
X179616100Y-66586100D03*
X179616100Y-64046100D03*
%TD*%
D12*
%TO.C,JP3*%
X147548600Y-57696100D03*
X147548600Y-55156100D03*
X145008600Y-57696100D03*
X145008600Y-55156100D03*
X142468600Y-57696100D03*
X142468600Y-55156100D03*
X139928600Y-57696100D03*
X139928600Y-55156100D03*
X137388600Y-57696100D03*
X137388600Y-55156100D03*
%TD*%
D13*
%TO.C,R45*%
X118066100Y-121513600D03*
X126866100Y-121513600D03*
D14*
X119966100Y-128213600D03*
X122466100Y-128213600D03*
X124966100Y-128213600D03*
%TD*%
D15*
%TO.C,J8*%
X148501100Y-151993600D03*
D16*
X148501100Y-146278600D03*
X148501100Y-156438600D03*
X148501100Y-148818600D03*
%TD*%
D15*
%TO.C,J10*%
X174536100Y-151993600D03*
D16*
X174536100Y-146278600D03*
X174536100Y-156438600D03*
X174536100Y-148818600D03*
%TD*%
D15*
%TO.C,J9*%
X161518600Y-151993600D03*
D16*
X161518600Y-146278600D03*
X161518600Y-156438600D03*
X161518600Y-148818600D03*
%TD*%
D15*
%TO.C,J1*%
X122466100Y-137388600D03*
D16*
X122466100Y-131673600D03*
X122466100Y-141833600D03*
X122466100Y-134213600D03*
%TD*%
D15*
%TO.C,J2*%
X135483600Y-137388600D03*
D16*
X135483600Y-131673600D03*
X135483600Y-141833600D03*
X135483600Y-134213600D03*
%TD*%
D15*
%TO.C,J3*%
X148501100Y-137388600D03*
D16*
X148501100Y-131673600D03*
X148501100Y-141833600D03*
X148501100Y-134213600D03*
%TD*%
D15*
%TO.C,J4*%
X161518600Y-137388600D03*
D16*
X161518600Y-131673600D03*
X161518600Y-141833600D03*
X161518600Y-134213600D03*
%TD*%
D13*
%TO.C,R46*%
X131083600Y-121513600D03*
X139883600Y-121513600D03*
D14*
X132983600Y-128213600D03*
X135483600Y-128213600D03*
X137983600Y-128213600D03*
%TD*%
D17*
%TO.C,R28*%
X119988600Y-101511100D03*
X129388600Y-101511100D03*
D14*
X122188600Y-108511100D03*
X124688600Y-108511100D03*
X127188600Y-108511100D03*
%TD*%
D11*
%TO.C,SW1*%
X122821700Y-53809900D03*
X122821700Y-60312300D03*
X118300500Y-53809900D03*
X118300500Y-60312300D03*
%TD*%
D13*
%TO.C,R47*%
X144101100Y-121513600D03*
X152901100Y-121513600D03*
D14*
X146001100Y-128213600D03*
X148501100Y-128213600D03*
X151001100Y-128213600D03*
%TD*%
D13*
%TO.C,R48*%
X157118600Y-121513600D03*
X165918600Y-121513600D03*
D14*
X159018600Y-128213600D03*
X161518600Y-128213600D03*
X164018600Y-128213600D03*
%TD*%
D13*
%TO.C,R49*%
X170136100Y-121513600D03*
X178936100Y-121513600D03*
D14*
X172036100Y-128213600D03*
X174536100Y-128213600D03*
X177036100Y-128213600D03*
%TD*%
D17*
%TO.C,R9*%
X127291100Y-74333100D03*
X136691100Y-74333100D03*
D14*
X129491100Y-81333100D03*
X131991100Y-81333100D03*
X134491100Y-81333100D03*
%TD*%
D17*
%TO.C,R29*%
X143801100Y-101511100D03*
X153201100Y-101511100D03*
D14*
X146001100Y-108511100D03*
X148501100Y-108511100D03*
X151001100Y-108511100D03*
%TD*%
D17*
%TO.C,R10*%
X160311100Y-74333100D03*
X169711100Y-74333100D03*
D14*
X162511100Y-81333100D03*
X165011100Y-81333100D03*
X167511100Y-81333100D03*
%TD*%
D17*
%TO.C,R30*%
X167613600Y-101511100D03*
X177013600Y-101511100D03*
D14*
X169813600Y-108511100D03*
X172313600Y-108511100D03*
X174813600Y-108511100D03*
%TD*%
D15*
%TO.C,J7*%
X135483600Y-151993600D03*
D16*
X135483600Y-146278600D03*
X135483600Y-156438600D03*
X135483600Y-148818600D03*
%TD*%
D15*
%TO.C,J5*%
X174536100Y-137388600D03*
D16*
X174536100Y-131673600D03*
X174536100Y-141833600D03*
X174536100Y-134213600D03*
%TD*%
D11*
%TO.C,SW2*%
X178701700Y-53809900D03*
X178701700Y-60312300D03*
X174180500Y-53809900D03*
X174180500Y-60312300D03*
%TD*%
D18*
%TO.C,LED2*%
X170091100Y-59061100D03*
X170091100Y-55061100D03*
X170091100Y-57061100D03*
%TD*%
%TO.C,LED1*%
X126911100Y-59061100D03*
X126911100Y-55061100D03*
X126911100Y-57061100D03*
%TD*%
D15*
%TO.C,J6*%
X122466100Y-151993600D03*
D16*
X122466100Y-146278600D03*
X122466100Y-156438600D03*
X122466100Y-148818600D03*
%TD*%
M02*
