%TF.GenerationSoftware,KiCad,Pcbnew,(6.0.11-0)*%
%TF.CreationDate,2023-03-06T21:55:09+01:00*%
%TF.ProjectId,marbles,6d617262-6c65-4732-9e6b-696361645f70,rev?*%
%TF.SameCoordinates,Original*%
%TF.FileFunction,Paste,Top*%
%TF.FilePolarity,Positive*%
%FSLAX46Y46*%
G04 Gerber Fmt 4.6, Leading zero omitted, Abs format (unit mm)*
G04 Created by KiCad (PCBNEW (6.0.11-0)) date 2023-03-06 21:55:09*
%MOMM*%
%LPD*%
G01*
G04 APERTURE LIST*
G04 Aperture macros list*
%AMRoundRect*
0 Rectangle with rounded corners*
0 $1 Rounding radius*
0 $2 $3 $4 $5 $6 $7 $8 $9 X,Y pos of 4 corners*
0 Add a 4 corners polygon primitive as box body*
4,1,4,$2,$3,$4,$5,$6,$7,$8,$9,$2,$3,0*
0 Add four circle primitives for the rounded corners*
1,1,$1+$1,$2,$3*
1,1,$1+$1,$4,$5*
1,1,$1+$1,$6,$7*
1,1,$1+$1,$8,$9*
0 Add four rect primitives between the rounded corners*
20,1,$1+$1,$2,$3,$4,$5,0*
20,1,$1+$1,$4,$5,$6,$7,0*
20,1,$1+$1,$6,$7,$8,$9,0*
20,1,$1+$1,$8,$9,$2,$3,0*%
%AMRotRect*
0 Rectangle, with rotation*
0 The origin of the aperture is its center*
0 $1 length*
0 $2 width*
0 $3 Rotation angle, in degrees counterclockwise*
0 Add horizontal line*
21,1,$1,$2,0,0,$3*%
G04 Aperture macros list end*
%ADD10R,2.510000X1.000000*%
%ADD11RoundRect,0.100000X0.100000X-0.637500X0.100000X0.637500X-0.100000X0.637500X-0.100000X-0.637500X0*%
%ADD12RoundRect,0.150000X-0.825000X-0.150000X0.825000X-0.150000X0.825000X0.150000X-0.825000X0.150000X0*%
%ADD13R,1.300000X1.500000*%
%ADD14R,2.600000X1.400000*%
%ADD15R,0.750000X0.650000*%
%ADD16R,0.850000X0.640000*%
%ADD17R,0.650000X0.750000*%
%ADD18R,1.000000X1.100000*%
%ADD19R,1.600000X1.800000*%
%ADD20R,1.000000X0.700000*%
%ADD21R,1.900000X1.400000*%
%ADD22R,1.100000X1.000000*%
%ADD23R,1.500000X1.300000*%
%ADD24R,1.400000X1.400000*%
%ADD25R,1.400000X2.600000*%
%ADD26R,0.990600X0.304800*%
%ADD27R,0.500000X0.700000*%
%ADD28RotRect,0.650000X0.750000X135.000000*%
%ADD29R,1.000000X1.400000*%
%ADD30R,0.300000X1.200000*%
%ADD31R,1.200000X0.300000*%
%ADD32RotRect,0.650000X0.750000X45.000000*%
%ADD33R,0.700000X0.850000*%
%ADD34R,0.900000X1.250000*%
%ADD35R,0.304800X0.990600*%
%ADD36R,0.850000X0.700000*%
%ADD37RotRect,0.650000X0.750000X225.000000*%
G04 APERTURE END LIST*
%TO.C,IC3*%
G36*
X118103700Y-82768600D02*
G01*
X117303700Y-82768600D01*
X117303700Y-81368600D01*
X118103700Y-81368600D01*
X118103700Y-82768600D01*
G37*
G36*
X118603700Y-86248600D02*
G01*
X116803700Y-86248600D01*
X116803700Y-84048600D01*
X118603700Y-84048600D01*
X118603700Y-86248600D01*
G37*
G36*
X119603700Y-82768600D02*
G01*
X118803700Y-82768600D01*
X118803700Y-81368600D01*
X119603700Y-81368600D01*
X119603700Y-82768600D01*
G37*
G36*
X116603700Y-82768600D02*
G01*
X115803700Y-82768600D01*
X115803700Y-81368600D01*
X116603700Y-81368600D01*
X116603700Y-82768600D01*
G37*
%TD*%
D10*
%TO.C,J17*%
X181355000Y-91710000D03*
X178045000Y-89170000D03*
X181355000Y-86630000D03*
X178045000Y-84090000D03*
%TD*%
D11*
%TO.C,IC4*%
X159243600Y-95801100D03*
X159893600Y-95801100D03*
X160543600Y-95801100D03*
X161193600Y-95801100D03*
X161843600Y-95801100D03*
X162493600Y-95801100D03*
X163143600Y-95801100D03*
X163793600Y-95801100D03*
X163793600Y-90076100D03*
X163143600Y-90076100D03*
X162493600Y-90076100D03*
X161843600Y-90076100D03*
X161193600Y-90076100D03*
X160543600Y-90076100D03*
X159893600Y-90076100D03*
X159243600Y-90076100D03*
%TD*%
D12*
%TO.C,IC7*%
X171325000Y-119690000D03*
X171325000Y-120960000D03*
X171325000Y-122230000D03*
X171325000Y-123500000D03*
X171325000Y-124770000D03*
X171325000Y-126040000D03*
X171325000Y-127310000D03*
X176275000Y-127310000D03*
X176275000Y-126040000D03*
X176275000Y-124770000D03*
X176275000Y-123500000D03*
X176275000Y-122230000D03*
X176275000Y-120960000D03*
X176275000Y-119690000D03*
%TD*%
D13*
%TO.C,C10*%
X150244900Y-71983600D03*
X148344900Y-71983600D03*
%TD*%
D14*
%TO.C,C22*%
X108033600Y-89446100D03*
X112133600Y-89446100D03*
%TD*%
D15*
%TO.C,R82*%
X106900000Y-149800000D03*
X106900000Y-148600000D03*
%TD*%
D16*
%TO.C,LED4-2*%
X168125000Y-96350000D03*
X166875000Y-96350000D03*
X168125000Y-94150000D03*
X166875000Y-94150000D03*
%TD*%
D17*
%TO.C,C34*%
X168221100Y-118098000D03*
X169421100Y-118098000D03*
%TD*%
D15*
%TO.C,R28*%
X121037400Y-112271100D03*
X121037400Y-111071100D03*
%TD*%
%TO.C,R31*%
X125958600Y-113699800D03*
X125958600Y-112499800D03*
%TD*%
D17*
%TO.C,R24*%
X140687400Y-107543700D03*
X139487400Y-107543700D03*
%TD*%
D16*
%TO.C,LED7-2*%
X121625000Y-146400000D03*
X120375000Y-146400000D03*
X121625000Y-144200000D03*
X120375000Y-144200000D03*
%TD*%
D17*
%TO.C,C38*%
X134337400Y-123101100D03*
X133137400Y-123101100D03*
%TD*%
%TO.C,R66*%
X126628600Y-126911100D03*
X127828600Y-126911100D03*
%TD*%
D15*
%TO.C,R36*%
X153250000Y-112750000D03*
X153250000Y-113950000D03*
%TD*%
D17*
%TO.C,R26*%
X140687400Y-108654900D03*
X139487400Y-108654900D03*
%TD*%
D18*
%TO.C,R63*%
X179250000Y-130200000D03*
X177550000Y-130200000D03*
%TD*%
D15*
%TO.C,R19*%
X133750000Y-94650000D03*
X133750000Y-95850000D03*
%TD*%
D17*
%TO.C,C18*%
X170691100Y-84842300D03*
X169491100Y-84842300D03*
%TD*%
%TO.C,R59*%
X127828600Y-125641100D03*
X126628600Y-125641100D03*
%TD*%
D15*
%TO.C,C7*%
X171678600Y-67256100D03*
X171678600Y-68456100D03*
%TD*%
D19*
%TO.C,C14*%
X117833600Y-79286100D03*
X115033600Y-79286100D03*
%TD*%
D17*
%TO.C,R42*%
X127193600Y-114846100D03*
X125993600Y-114846100D03*
%TD*%
D20*
%TO.C,IC8*%
X134066100Y-124373600D03*
X134066100Y-126273600D03*
X136266100Y-125323600D03*
%TD*%
D21*
%TO.C,Q1*%
X158683600Y-66198600D03*
X163083600Y-66198600D03*
X163083600Y-63798600D03*
X158683600Y-63798600D03*
%TD*%
D22*
%TO.C,C53*%
X109981100Y-129609800D03*
X108281100Y-129609800D03*
%TD*%
D15*
%TO.C,R84*%
X131000000Y-149850000D03*
X131000000Y-148650000D03*
%TD*%
%TO.C,R32*%
X127228600Y-113699800D03*
X127228600Y-112499800D03*
%TD*%
D16*
%TO.C,LED5-2*%
X149125000Y-117850000D03*
X147875000Y-117850000D03*
X149125000Y-115650000D03*
X147875000Y-115650000D03*
%TD*%
D15*
%TO.C,C48*%
X154374900Y-126876100D03*
X154374900Y-125676100D03*
%TD*%
D23*
%TO.C,C20*%
X158661100Y-86591100D03*
X158661100Y-88491100D03*
%TD*%
D17*
%TO.C,R27*%
X144179800Y-108655000D03*
X142979800Y-108655000D03*
%TD*%
%TO.C,R69*%
X149488700Y-128498500D03*
X150688700Y-128498500D03*
%TD*%
%TO.C,R41*%
X123453600Y-114846100D03*
X124653600Y-114846100D03*
%TD*%
D15*
%TO.C,R61*%
X179200000Y-126300000D03*
X179200000Y-127500000D03*
%TD*%
D24*
%TO.C,D2*%
X111666100Y-85001100D03*
X107866100Y-85001100D03*
%TD*%
D17*
%TO.C,R54*%
X167800000Y-124400000D03*
X166600000Y-124400000D03*
%TD*%
D15*
%TO.C,R17*%
X168600000Y-89300000D03*
X168600000Y-90500000D03*
%TD*%
D25*
%TO.C,C27*%
X158343700Y-100889900D03*
X158343700Y-104989900D03*
%TD*%
D16*
%TO.C,LED9-2*%
X145725000Y-146350000D03*
X144475000Y-146350000D03*
X145725000Y-144150000D03*
X144475000Y-144150000D03*
%TD*%
D22*
%TO.C,R85*%
X118000000Y-153350000D03*
X118000000Y-151650000D03*
%TD*%
D26*
%TO.C,IC10*%
X156102100Y-124961100D03*
X156102100Y-125611100D03*
X156102100Y-126261100D03*
X156102100Y-126911100D03*
X156102100Y-127561100D03*
X156102100Y-128211100D03*
X156102100Y-128861100D03*
X161537700Y-128861100D03*
X161537700Y-128211100D03*
X161537700Y-127561100D03*
X161537700Y-126911100D03*
X161537700Y-126261100D03*
X161537700Y-125611100D03*
X161537700Y-124961100D03*
%TD*%
D15*
%TO.C,R55*%
X151199900Y-125288400D03*
X151199900Y-124088400D03*
%TD*%
D27*
%TO.C,D5*%
X141833500Y-108878500D03*
X141833500Y-107578500D03*
%TD*%
D18*
%TO.C,C55*%
X165963600Y-137200000D03*
X165963600Y-135500000D03*
%TD*%
D17*
%TO.C,C40*%
X118779900Y-124371100D03*
X117579900Y-124371100D03*
%TD*%
%TO.C,R57*%
X117579900Y-125641100D03*
X118779900Y-125641100D03*
%TD*%
D15*
%TO.C,C8*%
X144056100Y-68526100D03*
X144056100Y-69726100D03*
%TD*%
%TO.C,C47*%
X125323600Y-125676100D03*
X125323600Y-126876100D03*
%TD*%
D28*
%TO.C,R1*%
X125424264Y-63924264D03*
X124575736Y-63075736D03*
%TD*%
D17*
%TO.C,R22*%
X139963600Y-102146200D03*
X141163600Y-102146200D03*
%TD*%
D15*
%TO.C,R67*%
X151200000Y-126311100D03*
X151200000Y-127511100D03*
%TD*%
D22*
%TO.C,R87*%
X130900000Y-157050000D03*
X130900000Y-155350000D03*
%TD*%
D25*
%TO.C,C2*%
X131038600Y-61361100D03*
X131038600Y-65461100D03*
%TD*%
D17*
%TO.C,R33*%
X118462400Y-113576100D03*
X117262400Y-113576100D03*
%TD*%
%TO.C,C41*%
X124018600Y-124371100D03*
X122818600Y-124371100D03*
%TD*%
D29*
%TO.C,Q3*%
X142471100Y-105944900D03*
X143421100Y-103744900D03*
X144371100Y-105944900D03*
%TD*%
D30*
%TO.C,IC2*%
X158918600Y-73032200D03*
X158418600Y-73032200D03*
X157918600Y-73032200D03*
X157418600Y-73032200D03*
X156918600Y-73032200D03*
X156418600Y-73032200D03*
X155918600Y-73032200D03*
X155418600Y-73032200D03*
X154918600Y-73032200D03*
X154418600Y-73032200D03*
X153918600Y-73032200D03*
X153418600Y-73032200D03*
X152918600Y-73032200D03*
X152418600Y-73032200D03*
X151918600Y-73032200D03*
X151418600Y-73032200D03*
D31*
X149257600Y-75218600D03*
X149257600Y-75718600D03*
X149257600Y-76218600D03*
X149257600Y-76718600D03*
X149257600Y-77218600D03*
X149257600Y-77718600D03*
X149257600Y-78218600D03*
X149257600Y-78718600D03*
X149257600Y-79218600D03*
X149257600Y-79718600D03*
X149257600Y-80218600D03*
X149257600Y-80718600D03*
X149257600Y-81218600D03*
X149257600Y-81718600D03*
X149257600Y-82218600D03*
X149257600Y-82718600D03*
D30*
X151418600Y-84854200D03*
X151918600Y-84854200D03*
X152418600Y-84854200D03*
X152918600Y-84854200D03*
X153418600Y-84854200D03*
X153918600Y-84854200D03*
X154418600Y-84854200D03*
X154918600Y-84854200D03*
X155418600Y-84854200D03*
X155918600Y-84854200D03*
X156418600Y-84854200D03*
X156918600Y-84854200D03*
X157418600Y-84854200D03*
X157918600Y-84854200D03*
X158418600Y-84854200D03*
X158918600Y-84854200D03*
D31*
X161105000Y-82718600D03*
X161105000Y-82218600D03*
X161105000Y-81718600D03*
X161105000Y-81218600D03*
X161105000Y-80718600D03*
X161105000Y-80218600D03*
X161105000Y-79718600D03*
X161105000Y-79218600D03*
X161105000Y-78718600D03*
X161105000Y-78218600D03*
X161105000Y-77718600D03*
X161105000Y-77218600D03*
X161105000Y-76718600D03*
X161105000Y-76218600D03*
X161105000Y-75718600D03*
X161105000Y-75218600D03*
%TD*%
D18*
%TO.C,R46*%
X173686100Y-117463000D03*
X175386100Y-117463000D03*
%TD*%
D32*
%TO.C,R5*%
X182825736Y-63174264D03*
X183674264Y-62325736D03*
%TD*%
D29*
%TO.C,D3*%
X138338700Y-101998600D03*
X136438700Y-101998600D03*
X137388700Y-104198600D03*
%TD*%
D15*
%TO.C,C9*%
X152787400Y-71789800D03*
X152787400Y-70589800D03*
%TD*%
D18*
%TO.C,C54*%
X153898600Y-136651100D03*
X153898600Y-134951100D03*
%TD*%
D15*
%TO.C,C4*%
X165011200Y-64963600D03*
X165011200Y-63763600D03*
%TD*%
D18*
%TO.C,R62*%
X167332500Y-127570000D03*
X169032500Y-127570000D03*
%TD*%
D17*
%TO.C,R65*%
X124018600Y-126911100D03*
X122818600Y-126911100D03*
%TD*%
%TO.C,C28*%
X112271100Y-108178600D03*
X111071100Y-108178600D03*
%TD*%
D15*
%TO.C,C36*%
X157708600Y-119643600D03*
X157708600Y-120843600D03*
%TD*%
%TO.C,R72*%
X126593600Y-128216100D03*
X126593600Y-129416100D03*
%TD*%
D33*
%TO.C,L3*%
X119608600Y-80027400D03*
X119608600Y-78427400D03*
%TD*%
D17*
%TO.C,R58*%
X122818600Y-125641100D03*
X124018600Y-125641100D03*
%TD*%
D15*
%TO.C,C37*%
X179200000Y-121600000D03*
X179200000Y-122800000D03*
%TD*%
D34*
%TO.C,L1*%
X114150000Y-66000000D03*
X112250000Y-66000000D03*
%TD*%
D16*
%TO.C,LED3-2*%
X130125000Y-96350000D03*
X128875000Y-96350000D03*
X130125000Y-94150000D03*
X128875000Y-94150000D03*
%TD*%
D15*
%TO.C,R77*%
X179298600Y-132978600D03*
X179298600Y-134178600D03*
%TD*%
D17*
%TO.C,R47*%
X169000000Y-121200000D03*
X167800000Y-121200000D03*
%TD*%
D29*
%TO.C,Q2*%
X138978600Y-105944900D03*
X139928600Y-103744900D03*
X140878600Y-105944900D03*
%TD*%
D17*
%TO.C,R64*%
X118779900Y-126911100D03*
X117579900Y-126911100D03*
%TD*%
D24*
%TO.C,D1*%
X127228500Y-55795900D03*
X127228500Y-59595900D03*
%TD*%
D15*
%TO.C,R53*%
X179200000Y-123900000D03*
X179200000Y-125100000D03*
%TD*%
%TO.C,R79*%
X155000000Y-148900000D03*
X155000000Y-150100000D03*
%TD*%
D22*
%TO.C,C58*%
X128237200Y-144056100D03*
X126537200Y-144056100D03*
%TD*%
D15*
%TO.C,R56*%
X142310000Y-125288500D03*
X142310000Y-124088500D03*
%TD*%
%TO.C,C19*%
X160248600Y-85036100D03*
X160248600Y-86236100D03*
%TD*%
D17*
%TO.C,R51*%
X144656300Y-122624600D03*
X143456300Y-122624600D03*
%TD*%
D15*
%TO.C,R15*%
X167200000Y-89300000D03*
X167200000Y-90500000D03*
%TD*%
%TO.C,R48*%
X179400000Y-118700000D03*
X179400000Y-117500000D03*
%TD*%
D17*
%TO.C,C31*%
X121072400Y-116116100D03*
X122272400Y-116116100D03*
%TD*%
D18*
%TO.C,C45*%
X190093600Y-126808600D03*
X190093600Y-125108600D03*
%TD*%
D17*
%TO.C,R11*%
X186566100Y-73253600D03*
X185366100Y-73253600D03*
%TD*%
D15*
%TO.C,R70*%
X119132400Y-128216100D03*
X119132400Y-129416100D03*
%TD*%
D17*
%TO.C,R34*%
X121072400Y-113576100D03*
X122272400Y-113576100D03*
%TD*%
D15*
%TO.C,R3*%
X156914800Y-61223600D03*
X156914800Y-62423600D03*
%TD*%
D17*
%TO.C,R75*%
X150688500Y-129451200D03*
X149488500Y-129451200D03*
%TD*%
%TO.C,R10*%
X110436100Y-72936100D03*
X111636100Y-72936100D03*
%TD*%
%TO.C,R40*%
X122272400Y-114846100D03*
X121072400Y-114846100D03*
%TD*%
D16*
%TO.C,LED6-2*%
X109625000Y-146400000D03*
X108375000Y-146400000D03*
X109625000Y-144200000D03*
X108375000Y-144200000D03*
%TD*%
D15*
%TO.C,R83*%
X119000000Y-149850000D03*
X119000000Y-148650000D03*
%TD*%
D17*
%TO.C,R35*%
X124653600Y-113576100D03*
X123453600Y-113576100D03*
%TD*%
D15*
%TO.C,C16*%
X149136100Y-83766100D03*
X149136100Y-84966100D03*
%TD*%
D18*
%TO.C,R45*%
X172211200Y-117463000D03*
X170511200Y-117463000D03*
%TD*%
D15*
%TO.C,C46*%
X119767400Y-125676100D03*
X119767400Y-126876100D03*
%TD*%
D35*
%TO.C,IC5*%
X117817400Y-122961400D03*
X118467400Y-122961400D03*
X119117400Y-122961400D03*
X119767400Y-122961400D03*
X120417400Y-122961400D03*
X121067400Y-122961400D03*
X121717400Y-122961400D03*
X121717400Y-117525800D03*
X121067400Y-117525800D03*
X120417400Y-117525800D03*
X119767400Y-117525800D03*
X119117400Y-117525800D03*
X118467400Y-117525800D03*
X117817400Y-117525800D03*
%TD*%
D16*
%TO.C,LED2-2*%
X187825000Y-71500000D03*
X186575000Y-71500000D03*
X187825000Y-69300000D03*
X186575000Y-69300000D03*
%TD*%
D36*
%TO.C,L2*%
X119343600Y-71190000D03*
X120943600Y-71190000D03*
%TD*%
D15*
%TO.C,R6*%
X170726100Y-67256100D03*
X170726100Y-68456100D03*
%TD*%
D16*
%TO.C,LED1-2*%
X110425000Y-71500000D03*
X109175000Y-71500000D03*
X110425000Y-69300000D03*
X109175000Y-69300000D03*
%TD*%
D17*
%TO.C,R12*%
X187906100Y-73253600D03*
X189106100Y-73253600D03*
%TD*%
D27*
%TO.C,D4*%
X137864900Y-106208600D03*
X137864900Y-107508600D03*
%TD*%
D18*
%TO.C,C57*%
X165963600Y-140375000D03*
X165963600Y-138675000D03*
%TD*%
D26*
%TO.C,IC9*%
X144037100Y-123849800D03*
X144037100Y-124499800D03*
X144037100Y-125149800D03*
X144037100Y-125799800D03*
X144037100Y-126449800D03*
X144037100Y-127099800D03*
X144037100Y-127749800D03*
X149472700Y-127749800D03*
X149472700Y-127099800D03*
X149472700Y-126449800D03*
X149472700Y-125799800D03*
X149472700Y-125149800D03*
X149472700Y-124499800D03*
X149472700Y-123849800D03*
%TD*%
D17*
%TO.C,R68*%
X135448600Y-127863600D03*
X134248600Y-127863600D03*
%TD*%
D19*
%TO.C,C5*%
X116600000Y-66000000D03*
X119400000Y-66000000D03*
%TD*%
D17*
%TO.C,R49*%
X150053500Y-121672200D03*
X148853500Y-121672200D03*
%TD*%
D15*
%TO.C,R30*%
X119767400Y-113541100D03*
X119767400Y-112341100D03*
%TD*%
D17*
%TO.C,C51*%
X181100000Y-131400000D03*
X182300000Y-131400000D03*
%TD*%
%TO.C,R76*%
X115763600Y-131356100D03*
X114563600Y-131356100D03*
%TD*%
D33*
%TO.C,L4*%
X113576100Y-87329900D03*
X113576100Y-85729900D03*
%TD*%
D17*
%TO.C,R44*%
X176476000Y-116828000D03*
X177676000Y-116828000D03*
%TD*%
%TO.C,C17*%
X126241100Y-84683600D03*
X125041100Y-84683600D03*
%TD*%
%TO.C,C33*%
X125993600Y-116116100D03*
X127193600Y-116116100D03*
%TD*%
D19*
%TO.C,C3*%
X109900000Y-66000000D03*
X107100000Y-66000000D03*
%TD*%
D15*
%TO.C,C12*%
X162788600Y-74241100D03*
X162788600Y-75441100D03*
%TD*%
D25*
%TO.C,C11*%
X116910000Y-72156300D03*
X116910000Y-76256300D03*
%TD*%
D15*
%TO.C,R78*%
X143000000Y-148650000D03*
X143000000Y-149850000D03*
%TD*%
%TO.C,C1*%
X134531100Y-61541100D03*
X134531100Y-62741100D03*
%TD*%
D16*
%TO.C,LED11-2*%
X169825000Y-146400000D03*
X168575000Y-146400000D03*
X169825000Y-144200000D03*
X168575000Y-144200000D03*
%TD*%
D17*
%TO.C,R43*%
X169421100Y-116828000D03*
X168221100Y-116828000D03*
%TD*%
D16*
%TO.C,LED10-2*%
X157825000Y-146400000D03*
X156575000Y-146400000D03*
X157825000Y-144200000D03*
X156575000Y-144200000D03*
%TD*%
D17*
%TO.C,C29*%
X184661100Y-108178600D03*
X183461100Y-108178600D03*
%TD*%
%TO.C,C26*%
X158308600Y-97383700D03*
X157108600Y-97383700D03*
%TD*%
%TO.C,C44*%
X179200000Y-128800000D03*
X178000000Y-128800000D03*
%TD*%
D15*
%TO.C,C24*%
X143421200Y-95196100D03*
X143421200Y-96396100D03*
%TD*%
D17*
%TO.C,C43*%
X167800000Y-126000000D03*
X169000000Y-126000000D03*
%TD*%
D15*
%TO.C,R71*%
X124053600Y-128216100D03*
X124053600Y-129416100D03*
%TD*%
D17*
%TO.C,R39*%
X117262400Y-114846100D03*
X118462400Y-114846100D03*
%TD*%
D15*
%TO.C,R2*%
X155803600Y-61223600D03*
X155803600Y-62423600D03*
%TD*%
D23*
%TO.C,C15*%
X147231100Y-82781100D03*
X147231100Y-84681100D03*
%TD*%
D16*
%TO.C,LED8-2*%
X133625000Y-146400000D03*
X132375000Y-146400000D03*
X133625000Y-144200000D03*
X132375000Y-144200000D03*
%TD*%
D17*
%TO.C,C42*%
X126628600Y-124371100D03*
X127828600Y-124371100D03*
%TD*%
%TO.C,C39*%
X167833600Y-123101100D03*
X166633600Y-123101100D03*
%TD*%
%TO.C,R52*%
X148853500Y-122624800D03*
X150053500Y-122624800D03*
%TD*%
D22*
%TO.C,R86*%
X129900000Y-153350000D03*
X129900000Y-151650000D03*
%TD*%
D15*
%TO.C,C6*%
X157073700Y-65033600D03*
X157073700Y-66233600D03*
%TD*%
%TO.C,R81*%
X179250000Y-148900000D03*
X179250000Y-150100000D03*
%TD*%
D17*
%TO.C,R7*%
X157743600Y-68332400D03*
X158943600Y-68332400D03*
%TD*%
D37*
%TO.C,R18*%
X131924264Y-89825736D03*
X131075736Y-90674264D03*
%TD*%
D15*
%TO.C,C13*%
X147548600Y-76076100D03*
X147548600Y-74876100D03*
%TD*%
D17*
%TO.C,R50*%
X143456100Y-121672500D03*
X144656100Y-121672500D03*
%TD*%
%TO.C,R23*%
X143386200Y-102146200D03*
X142186200Y-102146200D03*
%TD*%
D15*
%TO.C,C50*%
X142309900Y-126311000D03*
X142309900Y-127511000D03*
%TD*%
D14*
%TO.C,C23*%
X121023600Y-89446100D03*
X116923600Y-89446100D03*
%TD*%
D17*
%TO.C,C35*%
X177676100Y-118098000D03*
X176476100Y-118098000D03*
%TD*%
D15*
%TO.C,R60*%
X166200000Y-127535000D03*
X166200000Y-126335000D03*
%TD*%
D18*
%TO.C,C56*%
X118973600Y-141350000D03*
X118973600Y-139650000D03*
%TD*%
D17*
%TO.C,R25*%
X144179800Y-107543700D03*
X142979800Y-107543700D03*
%TD*%
%TO.C,C52*%
X134248600Y-129133600D03*
X135448600Y-129133600D03*
%TD*%
%TO.C,C32*%
X124653600Y-116116100D03*
X123453600Y-116116100D03*
%TD*%
%TO.C,R8*%
X159331200Y-69284800D03*
X160531200Y-69284800D03*
%TD*%
%TO.C,C30*%
X118462400Y-116116100D03*
X117262400Y-116116100D03*
%TD*%
%TO.C,R9*%
X109096100Y-72936100D03*
X107896100Y-72936100D03*
%TD*%
D16*
%TO.C,LED12-2*%
X181925000Y-146400000D03*
X180675000Y-146400000D03*
X181925000Y-144200000D03*
X180675000Y-144200000D03*
%TD*%
D17*
%TO.C,C21*%
X161642300Y-88652300D03*
X160442300Y-88652300D03*
%TD*%
%TO.C,R74*%
X181100000Y-129400000D03*
X182300000Y-129400000D03*
%TD*%
D15*
%TO.C,R80*%
X167250000Y-148900000D03*
X167250000Y-150100000D03*
%TD*%
%TO.C,C49*%
X163700000Y-127500000D03*
X163700000Y-126300000D03*
%TD*%
D35*
%TO.C,IC6*%
X123373600Y-122961400D03*
X124023600Y-122961400D03*
X124673600Y-122961400D03*
X125323600Y-122961400D03*
X125973600Y-122961400D03*
X126623600Y-122961400D03*
X127273600Y-122961400D03*
X127273600Y-117525800D03*
X126623600Y-117525800D03*
X125973600Y-117525800D03*
X125323600Y-117525800D03*
X124673600Y-117525800D03*
X124023600Y-117525800D03*
X123373600Y-117525800D03*
%TD*%
D17*
%TO.C,R73*%
X182300000Y-130400000D03*
X181100000Y-130400000D03*
%TD*%
%TO.C,C25*%
X160601100Y-97224800D03*
X161801100Y-97224800D03*
%TD*%
D15*
%TO.C,R29*%
X124688600Y-112271100D03*
X124688600Y-111071100D03*
%TD*%
M02*
