M48
; DRILL file {KiCad (6.0.11-0)} date 2023 March 06, Monday 19:20:54
; FORMAT={-:-/ absolute / inch / decimal}
; #@! TF.CreationDate,2023-03-06T19:20:54+01:00
; #@! TF.GenerationSoftware,Kicad,Pcbnew,(6.0.11-0)
; #@! TF.FileFunction,Plated,1,2,PTH
FMAT,2
INCH
; #@! TA.AperFunction,Plated,PTH,ViaDrill
T1C0.0197
; #@! TA.AperFunction,Plated,PTH,ViaDrill
T2C0.0236
; #@! TA.AperFunction,Plated,PTH,ComponentDrill
T3C0.0276
; #@! TA.AperFunction,Plated,PTH,ComponentDrill
T4C0.0320
; #@! TA.AperFunction,Plated,PTH,ComponentDrill
T5C0.0354
; #@! TA.AperFunction,Plated,PTH,ComponentDrill
T6C0.0394
; #@! TA.AperFunction,Plated,PTH,ComponentDrill
T7C0.0400
; #@! TA.AperFunction,Plated,PTH,ComponentDrill
T8C0.0591
%
G90
G05
T1
X4.1465Y-3.5215
X4.1465Y-4.3215
X4.1465Y-4.7215
X4.1465Y-5.1215
X4.1465Y-5.5215
X4.1465Y-5.9215
X4.185Y-2.1654
X4.209Y-4.959
X4.2215Y-3.4465
X4.2215Y-3.5965
X4.259Y-4.8465
X4.559Y-2.9215
X4.5652Y-3.2965
X4.5652Y-3.3465
X4.5652Y-3.3965
X4.5652Y-3.4465
X4.5715Y-3.5965
X4.5768Y-5.7215
X4.6152Y-3.4465
X4.6215Y-5.1715
X4.6215Y-5.2215
X4.659Y-2.9215
X4.6715Y-3.0465
X4.7153Y-4.5715
X4.7278Y-4.8965
X4.734Y-5.184
X4.734Y-5.284
X4.7465Y-3.2215
X4.7527Y-5.8215
X4.7528Y-5.1215
X4.7715Y-6.1215
X4.7778Y-5.0215
X4.784Y-2.509
X4.784Y-2.5965
X4.809Y-4.334
X4.809Y-4.409
X4.809Y-4.7902
X4.8465Y-5.4965
X4.859Y-4.334
X4.859Y-4.409
X4.934Y-4.7903
X4.934Y-4.8965
X4.934Y-5.0465
X4.934Y-4.6965
X4.984Y-5.1465
X4.9965Y-4.1215
X5.0465Y-5.284
X5.059Y-2.859
X5.0984Y-5.4232
X5.1027Y-5.1465
X5.1965Y-4.1215
X5.2153Y-5.8215
X5.2165Y-5.4134
X5.2165Y-5.4724
X5.2215Y-5.0465
X5.2461Y-3.4744
X5.2461Y-5.374
X5.259Y-5.284
X5.2965Y-2.5215
X5.2965Y-2.609
X5.2965Y-5.134
X5.3051Y-3.5335
X5.309Y-3.4715
X5.334Y-4.984
X5.3465Y-3.434
X5.3465Y-3.7215
X5.359Y-4.1027
X5.3715Y-4.6715
X5.384Y-3.684
X5.384Y-5.0215
X5.3965Y-2.8465
X5.3965Y-3.409
X5.4215Y-2.784
X5.434Y-3.059
X5.434Y-3.4465
X5.434Y-3.6465
X5.434Y-4.8465
X5.434Y-5.2215
X5.4528Y-2.7465
X5.4528Y-5.3642
X5.4626Y-5.4921
X5.4652Y-5.2652
X5.4715Y-3.384
X5.4715Y-3.7465
X5.484Y-4.634
X5.484Y-4.709
X5.4903Y-5.3152
X5.4921Y-6.0433
X5.4965Y-2.784
X5.4965Y-5.759
X5.509Y-5.0715
X5.5153Y-3.409
X5.5215Y-3.5965
X5.5215Y-3.684
X5.5217Y-5.5118
X5.534Y-2.7465
X5.5403Y-3.3652
X5.559Y-4.934
X5.5715Y-2.784
X5.5715Y-3.3153
X5.5777Y-4.3403
X5.5778Y-4.0715
X5.5807Y-5.5118
X5.584Y-2.634
X5.5965Y-5.0715
X5.5965Y-5.1715
X5.5965Y-5.2965
X5.6028Y-3.2715
X5.609Y-4.634
X5.609Y-4.709
X5.6299Y-5.5118
X5.634Y-6.1215
X5.6465Y-2.9777
X5.659Y-3.209
X5.6965Y-4.7402
X5.7215Y-3.3465
X5.7215Y-5.2965
X5.7278Y-2.9403
X5.734Y-2.634
X5.7382Y-5.187
X5.7465Y-2.1965
X5.748Y-5.5984
X5.7559Y-5.5315
X5.759Y-2.984
X5.784Y-4.859
X5.784Y-5.0153
X5.7965Y-5.6215
X5.809Y-4.784
X5.8403Y-5.0965
X5.8965Y-2.0965
X5.8965Y-4.2465
X5.8976Y-5.6772
X5.9055Y-4.7146
X5.909Y-3.559
X5.909Y-3.684
X5.9215Y-3.2965
X5.9215Y-3.3465
X5.9334Y-4.6161
X5.934Y-2.9965
X5.934Y-3.2215
X5.9715Y-5.7215
X5.984Y-3.684
X5.9961Y-5.6299
X5.9965Y-2.3215
X5.9965Y-5.1715
X5.9965Y-5.2965
X6.0215Y-2.7277
X6.0215Y-3.0715
X6.0215Y-3.2215
X6.034Y-2.9465
X6.034Y-4.934
X6.0465Y-4.3465
X6.0465Y-4.8465
X6.0531Y-4.7343
X6.0653Y-5.0465
X6.0728Y-4.5866
X6.084Y-4.0465
X6.0925Y-6.1024
X6.0965Y-3.184
X6.109Y-5.484
X6.134Y-2.6965
X6.1403Y-4.884
X6.1465Y-3.1715
X6.159Y-3.5465
X6.1715Y-2.659
X6.1715Y-4.6715
X6.189Y-5.6042
X6.1965Y-4.2215
X6.209Y-3.784
X6.2153Y-3.234
X6.234Y-2.984
X6.234Y-3.1215
X6.234Y-3.884
X6.2465Y-2.4153
X6.2528Y-5.009
X6.2903Y-2.8402
X6.2965Y-2.0965
X6.309Y-3.4403
X6.3287Y-3.6909
X6.359Y-3.359
X6.3715Y-3.8778
X6.3965Y-3.2965
X6.4173Y-3.6713
X6.4215Y-4.3215
X6.434Y-3.334
X6.437Y-5.6102
X6.4409Y-5.7598
X6.4528Y-2.984
X6.4528Y-4.8715
X6.459Y-2.9215
X6.4665Y-5.3445
X6.4777Y-5.0965
X6.484Y-2.8465
X6.4965Y-2.6027
X6.4965Y-4.9715
X6.5028Y-3.1777
X6.5215Y-4.6465
X6.5278Y-5.009
X6.5465Y-2.8965
X6.5551Y-3.4449
X6.565Y-6.0728
X6.5715Y-5.1715
X6.5945Y-3.3858
X6.5965Y-4.1215
X6.6215Y-2.234
X6.624Y-5.2953
X6.6437Y-5.4528
X6.6465Y-4.8215
X6.659Y-2.8465
X6.6715Y-2.5715
X6.6715Y-2.7215
X6.6715Y-4.5465
X6.6965Y-2.0965
X6.6965Y-2.8965
X6.7047Y-6.0748
X6.7215Y-2.9965
X6.734Y-4.9965
X6.7465Y-4.5965
X6.7465Y-4.934
X6.759Y-4.7715
X6.7715Y-2.784
X6.7965Y-3.7215
X6.809Y-3.184
X6.8215Y-2.6965
X6.8215Y-2.9965
X6.834Y-4.8715
X6.8406Y-5.6693
X6.8465Y-4.559
X6.859Y-4.7715
X6.8715Y-4.934
X6.8777Y-5.009
X6.8819Y-5.7362
X6.9215Y-5.059
X6.9215Y-5.4715
X6.9331Y-5.7717
X6.9715Y-4.8215
X6.9882Y-5.8071
X6.9965Y-3.259
X7.0039Y-5.5709
X7.009Y-2.834
X7.009Y-5.334
X7.0465Y-3.5215
X7.0465Y-6.0531
X7.059Y-2.559
X7.059Y-2.7777
X7.059Y-5.184
X7.0591Y-5.5984
X7.0715Y-4.7715
X7.0965Y-2.0965
X7.0965Y-4.934
X7.1465Y-4.634
X7.1715Y-4.7715
X7.184Y-4.6965
X7.1965Y-3.3215
X7.1965Y-3.6465
X7.2146Y-2.5715
X7.234Y-2.9215
X7.384Y-5.5215
X7.5465Y-2.3215
X7.5465Y-3.1215
X7.5465Y-3.5465
X7.5465Y-3.9215
X7.5465Y-4.3215
X7.5465Y-4.7215
X7.5465Y-5.1215
X7.5465Y-5.4965
X7.5465Y-5.9215
T2
X4.259Y-4.9215
X4.8715Y-2.634
X4.8715Y-2.809
X5.009Y-2.4215
T3
X4.2228Y-2.6811
X4.3228Y-2.6811
X4.4228Y-2.6811
X4.9984Y-3.6614
X5.0984Y-3.6614
X5.1984Y-3.6614
X5.7465Y-4.5079
X5.8465Y-4.5079
X5.9465Y-4.5079
X6.4945Y-3.6614
X6.5945Y-3.6614
X6.6945Y-3.6614
X7.2701Y-2.6811
X7.3701Y-2.6811
X7.4701Y-2.6811
T4
X4.2126Y-5.6705
X4.2126Y-5.7705
X4.685Y-5.6715
X4.685Y-5.7715
X5.1575Y-5.6705
X5.1575Y-5.7705
X5.6299Y-5.6685
X5.6299Y-5.7685
X6.1024Y-5.6715
X6.1024Y-5.7715
X6.5787Y-5.6685
X6.5787Y-5.7685
X7.0571Y-5.6705
X7.0571Y-5.7705
T5
X4.384Y-2.1965
X4.384Y-2.2965
X4.384Y-2.3965
X4.5784Y-2.2965
X4.5981Y-2.1981
X4.5981Y-2.3949
X4.7949Y-2.1981
X4.7949Y-2.3949
X4.8146Y-2.2965
X6.8784Y-2.2965
X6.8981Y-2.1981
X6.8981Y-2.3949
X7.0949Y-2.1981
X7.0949Y-2.3949
X7.1146Y-2.2965
T6
X4.3231Y-4.1721
X4.4215Y-4.1721
X4.5199Y-4.1721
X4.8731Y-3.2596
X4.9715Y-3.2596
X5.0699Y-3.2596
X5.1918Y-4.7721
X5.2903Y-4.7721
X5.3887Y-4.7721
X5.7481Y-2.7471
X5.7481Y-3.8846
X5.8465Y-2.7471
X5.8465Y-3.8846
X5.9449Y-2.7471
X5.9449Y-3.8846
X6.3043Y-4.7721
X6.4027Y-4.7721
X6.5012Y-4.7721
X6.6231Y-3.2596
X6.7215Y-3.2596
X6.8199Y-3.2596
X7.1731Y-4.1721
X7.2715Y-4.1721
X7.3699Y-4.1721
T7
X4.2325Y-2.9935
X4.2325Y-3.2495
X4.4105Y-2.9935
X4.4105Y-3.2495
X4.4215Y-4.5965
X4.4215Y-4.6965
X4.4215Y-4.9965
X4.4215Y-5.1715
X4.4215Y-5.2715
X4.4215Y-5.5715
X4.4215Y-5.7465
X4.4215Y-5.8465
X4.4215Y-6.1465
X4.8965Y-5.1715
X4.8965Y-5.2715
X4.8965Y-5.5715
X4.8965Y-5.7465
X4.8965Y-5.8465
X4.8965Y-6.1465
X4.9685Y-3.8575
X4.9685Y-4.0355
X5.1465Y-2.1715
X5.1465Y-2.2715
X5.2245Y-3.8575
X5.2245Y-4.0355
X5.2465Y-2.1715
X5.2465Y-2.2715
X5.3465Y-2.1715
X5.3465Y-2.2715
X5.3715Y-5.1715
X5.3715Y-5.2715
X5.3715Y-5.5715
X5.3715Y-5.7465
X5.3715Y-5.8465
X5.3715Y-6.1465
X5.4465Y-2.1715
X5.4465Y-2.2715
X5.5465Y-2.1715
X5.5465Y-2.2715
X5.7575Y-4.1185
X5.7575Y-4.3745
X5.8465Y-5.1715
X5.8465Y-5.2715
X5.8465Y-5.5715
X5.8465Y-5.7465
X5.8465Y-5.8465
X5.8465Y-6.1465
X5.9355Y-4.1185
X5.9355Y-4.3745
X6.3215Y-5.1715
X6.3215Y-5.2715
X6.3215Y-5.5715
X6.3215Y-5.7465
X6.3215Y-5.8465
X6.3215Y-6.1465
X6.4465Y-2.3715
X6.4685Y-3.8575
X6.4685Y-4.0355
X6.5465Y-2.3715
X6.7245Y-3.8575
X6.7245Y-4.0355
X6.7965Y-5.1715
X6.7965Y-5.2715
X6.7965Y-5.5715
X6.7965Y-5.7465
X6.7965Y-5.8465
X6.7965Y-6.1465
X7.134Y-2.8215
X7.134Y-2.9215
X7.134Y-3.0215
X7.134Y-3.1215
X7.2715Y-4.5965
X7.2715Y-4.6965
X7.2715Y-4.9965
X7.2715Y-5.1715
X7.2715Y-5.2715
X7.2715Y-5.5715
X7.2715Y-5.7465
X7.2715Y-5.8465
X7.2715Y-6.1465
X7.2825Y-2.9935
X7.2825Y-3.2495
X7.4605Y-2.9935
X7.4605Y-3.2495
T8
X4.2365Y-3.8965
X4.6065Y-3.8965
X4.7865Y-2.984
X5.1052Y-4.4965
X5.1565Y-2.984
X5.4753Y-4.4965
X5.6615Y-2.4715
X5.6615Y-3.609
X6.0315Y-2.4715
X6.0315Y-3.609
X6.2177Y-4.4965
X6.5365Y-2.984
X6.5878Y-4.4965
X6.9065Y-2.984
X7.0865Y-3.8965
X7.4565Y-3.8965
T0
M30
