%TF.GenerationSoftware,KiCad,Pcbnew,(6.0.11-0)*%
%TF.CreationDate,2023-04-24T20:50:08+02:00*%
%TF.ProjectId,marbles,6d617262-6c65-4732-9e6b-696361645f70,rev?*%
%TF.SameCoordinates,Original*%
%TF.FileFunction,Soldermask,Bot*%
%TF.FilePolarity,Negative*%
%FSLAX46Y46*%
G04 Gerber Fmt 4.6, Leading zero omitted, Abs format (unit mm)*
G04 Created by KiCad (PCBNEW (6.0.11-0)) date 2023-04-24 20:50:08*
%MOMM*%
%LPD*%
G01*
G04 APERTURE LIST*
G04 Aperture macros list*
%AMRoundRect*
0 Rectangle with rounded corners*
0 $1 Rounding radius*
0 $2 $3 $4 $5 $6 $7 $8 $9 X,Y pos of 4 corners*
0 Add a 4 corners polygon primitive as box body*
4,1,4,$2,$3,$4,$5,$6,$7,$8,$9,$2,$3,0*
0 Add four circle primitives for the rounded corners*
1,1,$1+$1,$2,$3*
1,1,$1+$1,$4,$5*
1,1,$1+$1,$6,$7*
1,1,$1+$1,$8,$9*
0 Add four rect primitives between the rounded corners*
20,1,$1+$1,$2,$3,$4,$5,0*
20,1,$1+$1,$4,$5,$6,$7,0*
20,1,$1+$1,$6,$7,$8,$9,0*
20,1,$1+$1,$8,$9,$2,$3,0*%
%AMFreePoly0*
4,1,25,0.575031,1.328373,0.579933,1.323882,1.323882,0.579933,1.345910,0.532692,1.346200,0.526051,1.346200,-0.526051,1.328373,-0.575031,1.323882,-0.579933,0.579933,-1.323882,0.532692,-1.345910,0.526051,-1.346200,-0.526051,-1.346200,-0.575031,-1.328373,-0.579933,-1.323882,-1.323882,-0.579933,-1.345910,-0.532692,-1.346200,-0.526051,-1.346200,0.526051,-1.328373,0.575031,-1.323882,0.579933,
-0.579933,1.323882,-0.532692,1.345910,-0.526051,1.346200,0.526051,1.346200,0.575031,1.328373,0.575031,1.328373,$1*%
%AMFreePoly1*
4,1,25,0.417216,0.947373,0.422118,0.942882,0.942882,0.422118,0.964910,0.374877,0.965200,0.368236,0.965200,-0.368236,0.947373,-0.417216,0.942882,-0.422118,0.422118,-0.942882,0.374877,-0.964910,0.368236,-0.965200,-0.368236,-0.965200,-0.417216,-0.947373,-0.422118,-0.942882,-0.942882,-0.422118,-0.964910,-0.374877,-0.965200,-0.368236,-0.965200,0.368236,-0.947373,0.417216,-0.942882,0.422118,
-0.422118,0.942882,-0.374877,0.964910,-0.368236,0.965200,0.368236,0.965200,0.417216,0.947373,0.417216,0.947373,$1*%
%AMFreePoly2*
4,1,25,0.301485,0.667973,0.306387,0.663482,0.663482,0.306387,0.685510,0.259146,0.685800,0.252505,0.685800,-0.252505,0.667973,-0.301485,0.663482,-0.306387,0.306387,-0.663482,0.259146,-0.685510,0.252505,-0.685800,-0.252505,-0.685800,-0.301485,-0.667973,-0.306387,-0.663482,-0.663482,-0.306387,-0.685510,-0.259146,-0.685800,-0.252505,-0.685800,0.252505,-0.667973,0.301485,-0.663482,0.306387,
-0.306387,0.663482,-0.259146,0.685510,-0.252505,0.685800,0.252505,0.685800,0.301485,0.667973,0.301485,0.667973,$1*%
%AMFreePoly3*
4,1,25,0.448779,1.023573,0.453681,1.019082,1.019082,0.453681,1.041110,0.406440,1.041400,0.399799,1.041400,-0.399799,1.023573,-0.448779,1.019082,-0.453681,0.453681,-1.019082,0.406440,-1.041110,0.399799,-1.041400,-0.399799,-1.041400,-0.448779,-1.023573,-0.453681,-1.019082,-1.019082,-0.453681,-1.041110,-0.406440,-1.041400,-0.399799,-1.041400,0.399799,-1.023573,0.448779,-1.019082,0.453681,
-0.453681,1.019082,-0.406440,1.041110,-0.399799,1.041400,0.399799,1.041400,0.448779,1.023573,0.448779,1.023573,$1*%
%AMFreePoly4*
4,1,25,0.438258,0.998173,0.443160,0.993682,0.993682,0.443160,1.015710,0.395919,1.016000,0.389278,1.016000,-0.389278,0.998173,-0.438258,0.993682,-0.443160,0.443160,-0.993682,0.395919,-1.015710,0.389278,-1.016000,-0.389278,-1.016000,-0.438258,-0.998173,-0.443160,-0.993682,-0.993682,-0.443160,-1.015710,-0.395919,-1.016000,-0.389278,-1.016000,0.389278,-0.998173,0.438258,-0.993682,0.443160,
-0.443160,0.993682,-0.395919,1.015710,-0.389278,1.016000,0.389278,1.016000,0.438258,0.998173,0.438258,0.998173,$1*%
G04 Aperture macros list end*
%ADD10RoundRect,0.076200X0.939800X-0.939800X0.939800X0.939800X-0.939800X0.939800X-0.939800X-0.939800X0*%
%ADD11FreePoly0,90.000000*%
%ADD12C,2.200000*%
%ADD13FreePoly1,180.000000*%
%ADD14C,1.258800*%
%ADD15FreePoly2,270.000000*%
%ADD16C,1.502400*%
%ADD17RoundRect,0.076200X0.675000X-0.675000X0.675000X0.675000X-0.675000X0.675000X-0.675000X-0.675000X0*%
%ADD18C,2.032000*%
%ADD19FreePoly3,180.000000*%
%ADD20C,3.000000*%
%ADD21FreePoly4,180.000000*%
%ADD22RoundRect,0.076200X-0.939800X-0.939800X0.939800X-0.939800X0.939800X0.939800X-0.939800X0.939800X0*%
G04 APERTURE END LIST*
D10*
%TO.C,R38*%
X165129800Y-121211100D03*
X162629800Y-121211100D03*
X160129800Y-121211100D03*
D11*
X167329800Y-114211100D03*
X157929800Y-114211100D03*
%TD*%
D10*
%TO.C,R14*%
X173226100Y-82793600D03*
X170726100Y-82793600D03*
X168226100Y-82793600D03*
D11*
X175426100Y-75793600D03*
X166026100Y-75793600D03*
%TD*%
D12*
%TO.C,J11*%
X124371100Y-151676100D03*
D13*
X124371100Y-145961100D03*
X124371100Y-148501100D03*
X124371100Y-156121100D03*
%TD*%
D12*
%TO.C,J7*%
X160566100Y-137071100D03*
D13*
X160566100Y-131356100D03*
X160566100Y-133896100D03*
X160566100Y-141516100D03*
%TD*%
D14*
%TO.C,LED5*%
X151040000Y-114500000D03*
X148500000Y-114500000D03*
X145960000Y-114500000D03*
%TD*%
D10*
%TO.C,R16*%
X151001100Y-98668600D03*
X148501100Y-98668600D03*
X146001100Y-98668600D03*
D11*
X153201100Y-91668600D03*
X143801100Y-91668600D03*
%TD*%
D10*
%TO.C,R13*%
X128776100Y-82793600D03*
X126276100Y-82793600D03*
X123776100Y-82793600D03*
D11*
X130976100Y-75793600D03*
X121576100Y-75793600D03*
%TD*%
D15*
%TO.C,LED10*%
X155000000Y-144056100D03*
X155000000Y-146596100D03*
%TD*%
D10*
%TO.C,R4*%
X151001100Y-69776100D03*
X148501100Y-69776100D03*
X146001100Y-69776100D03*
D11*
X153201100Y-62776100D03*
X143801100Y-62776100D03*
%TD*%
D15*
%TO.C,LED8*%
X131000000Y-144030000D03*
X131000000Y-146570000D03*
%TD*%
D12*
%TO.C,J16*%
X184696100Y-151676100D03*
D13*
X184696100Y-145961100D03*
X184696100Y-148501100D03*
X184696100Y-156121100D03*
%TD*%
D15*
%TO.C,LED6*%
X107000000Y-144030000D03*
X107000000Y-146570000D03*
%TD*%
D10*
%TO.C,R37*%
X136872400Y-121211100D03*
X134372400Y-121211100D03*
X131872400Y-121211100D03*
D11*
X139072400Y-114211100D03*
X129672400Y-114211100D03*
%TD*%
D16*
%TO.C,SW1*%
X121791100Y-55831100D03*
X121791100Y-60831100D03*
D17*
X116791100Y-55831100D03*
D16*
X116291100Y-58331100D03*
X122291100Y-58331100D03*
X116791100Y-60831100D03*
%TD*%
D12*
%TO.C,J4*%
X124371100Y-137071100D03*
D13*
X124371100Y-131356100D03*
X124371100Y-133896100D03*
X124371100Y-141516100D03*
%TD*%
D12*
%TO.C,J9*%
X184696100Y-137071100D03*
D13*
X184696100Y-131356100D03*
X184696100Y-133896100D03*
X184696100Y-141516100D03*
%TD*%
D15*
%TO.C,LED12*%
X179250000Y-144030000D03*
X179250000Y-146570000D03*
%TD*%
%TO.C,LED11*%
X167100000Y-143980000D03*
X167100000Y-146520000D03*
%TD*%
D12*
%TO.C,J1*%
X112306100Y-122466100D03*
D13*
X112306100Y-116751100D03*
X112306100Y-119291100D03*
X112306100Y-126911100D03*
%TD*%
D18*
%TO.C,SW6*%
X164299900Y-97980500D03*
X170802300Y-97980500D03*
X164299900Y-102501700D03*
X170802300Y-102501700D03*
%TD*%
D12*
%TO.C,J12*%
X136436100Y-151676100D03*
D13*
X136436100Y-145961100D03*
X136436100Y-148501100D03*
X136436100Y-156121100D03*
%TD*%
D15*
%TO.C,LED9*%
X143000000Y-143980000D03*
X143000000Y-146520000D03*
%TD*%
D18*
%TO.C,SW3*%
X112026700Y-76034900D03*
X112026700Y-82537300D03*
X107505500Y-76034900D03*
X107505500Y-82537300D03*
%TD*%
D14*
%TO.C,LED1*%
X112340000Y-68100000D03*
X109800000Y-68100000D03*
X107260000Y-68100000D03*
%TD*%
%TO.C,LED4*%
X170040000Y-93000000D03*
X167500000Y-93000000D03*
X164960000Y-93000000D03*
%TD*%
D18*
%TO.C,SW4*%
X184975500Y-82537300D03*
X184975500Y-76034900D03*
X189496700Y-82537300D03*
X189496700Y-76034900D03*
%TD*%
D14*
%TO.C,LED2*%
X189740000Y-68100000D03*
X187200000Y-68100000D03*
X184660000Y-68100000D03*
%TD*%
D18*
%TO.C,SW5*%
X126199900Y-97980500D03*
X132702300Y-97980500D03*
X126199900Y-102501700D03*
X132702300Y-102501700D03*
%TD*%
D12*
%TO.C,J6*%
X148501100Y-137071100D03*
D13*
X148501100Y-131356100D03*
X148501100Y-133896100D03*
X148501100Y-141516100D03*
%TD*%
D16*
%TO.C,SW2*%
X180211100Y-55831100D03*
X180211100Y-60831100D03*
D17*
X175211100Y-55831100D03*
D16*
X174711100Y-58331100D03*
X180711100Y-58331100D03*
X175211100Y-60831100D03*
%TD*%
D19*
%TO.C,IC1*%
X111353600Y-60871100D03*
X111353600Y-58331100D03*
X111353600Y-55791100D03*
%TD*%
D10*
%TO.C,R21*%
X187196100Y-105971100D03*
X184696100Y-105971100D03*
X182196100Y-105971100D03*
D11*
X189396100Y-98971100D03*
X179996100Y-98971100D03*
%TD*%
D20*
%TO.C,H3*%
X185331100Y-86906100D03*
%TD*%
D14*
%TO.C,LED3*%
X132040000Y-93000000D03*
X129500000Y-93000000D03*
X126960000Y-93000000D03*
%TD*%
D12*
%TO.C,J15*%
X172631100Y-151676100D03*
D13*
X172631100Y-145961100D03*
X172631100Y-148501100D03*
X172631100Y-156121100D03*
%TD*%
D12*
%TO.C,J8*%
X172631100Y-137071100D03*
D13*
X172631100Y-131356100D03*
X172631100Y-133896100D03*
X172631100Y-141516100D03*
%TD*%
D12*
%TO.C,J5*%
X136436100Y-137071100D03*
D13*
X136436100Y-131356100D03*
X136436100Y-133896100D03*
X136436100Y-141516100D03*
%TD*%
D12*
%TO.C,J14*%
X160566100Y-151676100D03*
D13*
X160566100Y-145961100D03*
X160566100Y-148501100D03*
X160566100Y-156121100D03*
%TD*%
D12*
%TO.C,J3*%
X112306100Y-137071100D03*
D13*
X112306100Y-131356100D03*
X112306100Y-133896100D03*
X112306100Y-141516100D03*
%TD*%
D18*
%TO.C,SW7*%
X146240500Y-111112300D03*
X146240500Y-104609900D03*
X150761700Y-111112300D03*
X150761700Y-104609900D03*
%TD*%
D10*
%TO.C,R20*%
X114806100Y-105971100D03*
X112306100Y-105971100D03*
X109806100Y-105971100D03*
D11*
X117006100Y-98971100D03*
X107606100Y-98971100D03*
%TD*%
D15*
%TO.C,LED7*%
X119000000Y-144056100D03*
X119000000Y-146596100D03*
%TD*%
D12*
%TO.C,J2*%
X184696100Y-122466100D03*
D13*
X184696100Y-116751100D03*
X184696100Y-119291100D03*
X184696100Y-126911100D03*
%TD*%
D20*
%TO.C,H5*%
X111036100Y-112306100D03*
%TD*%
D12*
%TO.C,J10*%
X112306100Y-151676100D03*
D13*
X112306100Y-145961100D03*
X112306100Y-148501100D03*
X112306100Y-156121100D03*
%TD*%
D12*
%TO.C,J13*%
X148501100Y-151676100D03*
D13*
X148501100Y-145961100D03*
X148501100Y-148501100D03*
X148501100Y-156121100D03*
%TD*%
D18*
%TO.C,JP2*%
X163741100Y-60236100D03*
X166281100Y-60236100D03*
%TD*%
D21*
%TO.C,JP4*%
X140881100Y-57696100D03*
X140881100Y-55156100D03*
X138341100Y-57696100D03*
X138341100Y-55156100D03*
X135801100Y-57696100D03*
X135801100Y-55156100D03*
X133261100Y-57696100D03*
X133261100Y-55156100D03*
X130721100Y-57696100D03*
X130721100Y-55156100D03*
%TD*%
D22*
%TO.C,JP1*%
X181203600Y-79286100D03*
D18*
X181203600Y-76746100D03*
X181203600Y-74206100D03*
X181203600Y-71666100D03*
%TD*%
M02*
