%TF.GenerationSoftware,KiCad,Pcbnew,7.0.5-0*%
%TF.CreationDate,2023-07-16T14:06:44+02:00*%
%TF.ProjectId,marbles,6d617262-6c65-4732-9e6b-696361645f70,rev?*%
%TF.SameCoordinates,Original*%
%TF.FileFunction,Soldermask,Top*%
%TF.FilePolarity,Negative*%
%FSLAX46Y46*%
G04 Gerber Fmt 4.6, Leading zero omitted, Abs format (unit mm)*
G04 Created by KiCad (PCBNEW 7.0.5-0) date 2023-07-16 14:06:44*
%MOMM*%
%LPD*%
G01*
G04 APERTURE LIST*
G04 Aperture macros list*
%AMRoundRect*
0 Rectangle with rounded corners*
0 $1 Rounding radius*
0 $2 $3 $4 $5 $6 $7 $8 $9 X,Y pos of 4 corners*
0 Add a 4 corners polygon primitive as box body*
4,1,4,$2,$3,$4,$5,$6,$7,$8,$9,$2,$3,0*
0 Add four circle primitives for the rounded corners*
1,1,$1+$1,$2,$3*
1,1,$1+$1,$4,$5*
1,1,$1+$1,$6,$7*
1,1,$1+$1,$8,$9*
0 Add four rect primitives between the rounded corners*
20,1,$1+$1,$2,$3,$4,$5,0*
20,1,$1+$1,$4,$5,$6,$7,0*
20,1,$1+$1,$6,$7,$8,$9,0*
20,1,$1+$1,$8,$9,$2,$3,0*%
%AMFreePoly0*
4,1,25,0.575031,1.328373,0.579933,1.323882,1.323882,0.579933,1.345910,0.532692,1.346200,0.526051,1.346200,-0.526051,1.328373,-0.575031,1.323882,-0.579933,0.579933,-1.323882,0.532692,-1.345910,0.526051,-1.346200,-0.526051,-1.346200,-0.575031,-1.328373,-0.579933,-1.323882,-1.323882,-0.579933,-1.345910,-0.532692,-1.346200,-0.526051,-1.346200,0.526051,-1.328373,0.575031,-1.323882,0.579933,
-0.579933,1.323882,-0.532692,1.345910,-0.526051,1.346200,0.526051,1.346200,0.575031,1.328373,0.575031,1.328373,$1*%
%AMFreePoly1*
4,1,25,0.417216,0.947373,0.422118,0.942882,0.942882,0.422118,0.964910,0.374877,0.965200,0.368236,0.965200,-0.368236,0.947373,-0.417216,0.942882,-0.422118,0.422118,-0.942882,0.374877,-0.964910,0.368236,-0.965200,-0.368236,-0.965200,-0.417216,-0.947373,-0.422118,-0.942882,-0.942882,-0.422118,-0.964910,-0.374877,-0.965200,-0.368236,-0.965200,0.368236,-0.947373,0.417216,-0.942882,0.422118,
-0.422118,0.942882,-0.374877,0.964910,-0.368236,0.965200,0.368236,0.965200,0.417216,0.947373,0.417216,0.947373,$1*%
%AMFreePoly2*
4,1,25,0.448980,0.858373,0.453882,0.853882,0.853882,0.453882,0.875910,0.406641,0.876200,0.400000,0.876200,-0.400000,0.858373,-0.448980,0.853882,-0.453882,0.453882,-0.853882,0.406641,-0.875910,0.400000,-0.876200,-0.400000,-0.876200,-0.448980,-0.858373,-0.453882,-0.853882,-0.853882,-0.453882,-0.875910,-0.406641,-0.876200,-0.400000,-0.876200,0.400000,-0.858373,0.448980,-0.853882,0.453882,
-0.453882,0.853882,-0.406641,0.875910,-0.400000,0.876200,0.400000,0.876200,0.448980,0.858373,0.448980,0.858373,$1*%
%AMFreePoly3*
4,1,25,0.421772,0.958373,0.426674,0.953882,0.953882,0.426674,0.975910,0.379433,0.976200,0.372792,0.976200,-0.372792,0.958373,-0.421772,0.953882,-0.426674,0.426674,-0.953882,0.379433,-0.975910,0.372792,-0.976200,-0.372792,-0.976200,-0.421772,-0.958373,-0.426674,-0.953882,-0.953882,-0.426674,-0.975910,-0.379433,-0.976200,-0.372792,-0.976200,0.372792,-0.958373,0.421772,-0.953882,0.426674,
-0.426674,0.953882,-0.379433,0.975910,-0.372792,0.976200,0.372792,0.976200,0.421772,0.958373,0.421772,0.958373,$1*%
%AMFreePoly4*
4,1,25,0.448779,1.023573,0.453681,1.019082,1.019082,0.453681,1.041110,0.406440,1.041400,0.399799,1.041400,-0.399799,1.023573,-0.448779,1.019082,-0.453681,0.453681,-1.019082,0.406440,-1.041110,0.399799,-1.041400,-0.399799,-1.041400,-0.448779,-1.023573,-0.453681,-1.019082,-1.019082,-0.453681,-1.041110,-0.406440,-1.041400,-0.399799,-1.041400,0.399799,-1.023573,0.448779,-1.019082,0.453681,
-0.453681,1.019082,-0.406440,1.041110,-0.399799,1.041400,0.399799,1.041400,0.448779,1.023573,0.448779,1.023573,$1*%
%AMFreePoly5*
4,1,25,0.438258,0.998173,0.443160,0.993682,0.993682,0.443160,1.015710,0.395919,1.016000,0.389278,1.016000,-0.389278,0.998173,-0.438258,0.993682,-0.443160,0.443160,-0.993682,0.395919,-1.015710,0.389278,-1.016000,-0.389278,-1.016000,-0.438258,-0.998173,-0.443160,-0.993682,-0.993682,-0.443160,-1.015710,-0.395919,-1.016000,-0.389278,-1.016000,0.389278,-0.998173,0.438258,-0.993682,0.443160,
-0.443160,0.993682,-0.395919,1.015710,-0.389278,1.016000,0.389278,1.016000,0.438258,0.998173,0.438258,0.998173,$1*%
G04 Aperture macros list end*
%ADD10C,0.121920*%
%ADD11C,0.365760*%
%ADD12RoundRect,0.076200X0.650000X0.750000X-0.650000X0.750000X-0.650000X-0.750000X0.650000X-0.750000X0*%
%ADD13RoundRect,0.076200X1.300000X0.700000X-1.300000X0.700000X-1.300000X-0.700000X1.300000X-0.700000X0*%
%ADD14RoundRect,0.576200X0.000000X0.000000X0.000000X0.000000X0.000000X0.000000X0.000000X0.000000X0*%
%ADD15RoundRect,0.076200X0.375000X-0.325000X0.375000X0.325000X-0.375000X0.325000X-0.375000X-0.325000X0*%
%ADD16RoundRect,0.076200X-0.325000X-0.375000X0.325000X-0.375000X0.325000X0.375000X-0.325000X0.375000X0*%
%ADD17RoundRect,0.076200X0.939800X-0.939800X0.939800X0.939800X-0.939800X0.939800X-0.939800X-0.939800X0*%
%ADD18FreePoly0,90.000000*%
%ADD19RoundRect,0.076200X0.325000X0.375000X-0.325000X0.375000X-0.325000X-0.375000X0.325000X-0.375000X0*%
%ADD20C,2.200000*%
%ADD21FreePoly1,180.000000*%
%ADD22RoundRect,0.076200X-0.375000X0.325000X-0.375000X-0.325000X0.375000X-0.325000X0.375000X0.325000X0*%
%ADD23RoundRect,0.076200X0.500000X0.550000X-0.500000X0.550000X-0.500000X-0.550000X0.500000X-0.550000X0*%
%ADD24R,2.510000X1.000000*%
%ADD25RoundRect,0.076200X0.800000X0.900000X-0.800000X0.900000X-0.800000X-0.900000X0.800000X-0.900000X0*%
%ADD26RoundRect,0.076200X-0.500000X0.350000X-0.500000X-0.350000X0.500000X-0.350000X0.500000X0.350000X0*%
%ADD27RoundRect,0.076200X-0.950000X-0.700000X0.950000X-0.700000X0.950000X0.700000X-0.950000X0.700000X0*%
%ADD28RoundRect,0.076200X0.550000X0.500000X-0.550000X0.500000X-0.550000X-0.500000X0.550000X-0.500000X0*%
%ADD29FreePoly2,180.000000*%
%ADD30RoundRect,0.076200X-0.750000X0.650000X-0.750000X-0.650000X0.750000X-0.650000X0.750000X0.650000X0*%
%ADD31RoundRect,0.076200X-0.700000X-0.700000X0.700000X-0.700000X0.700000X0.700000X-0.700000X0.700000X0*%
%ADD32RoundRect,0.076200X0.700000X-1.300000X0.700000X1.300000X-0.700000X1.300000X-0.700000X-1.300000X0*%
%ADD33RoundRect,0.076200X0.550000X-0.500000X0.550000X0.500000X-0.550000X0.500000X-0.550000X-0.500000X0*%
%ADD34FreePoly3,180.000000*%
%ADD35RoundRect,0.076200X-0.495300X0.152400X-0.495300X-0.152400X0.495300X-0.152400X0.495300X0.152400X0*%
%ADD36RoundRect,0.076200X-0.250000X0.350000X-0.250000X-0.350000X0.250000X-0.350000X0.250000X0.350000X0*%
%ADD37RoundRect,0.076200X0.500000X-0.550000X0.500000X0.550000X-0.500000X0.550000X-0.500000X-0.550000X0*%
%ADD38RoundRect,0.076200X0.742462X0.035355X0.035355X0.742462X-0.742462X-0.035355X-0.035355X-0.742462X0*%
%ADD39RoundRect,0.076200X-0.500000X-0.700000X0.500000X-0.700000X0.500000X0.700000X-0.500000X0.700000X0*%
%ADD40RoundRect,0.076200X0.150000X0.600000X-0.150000X0.600000X-0.150000X-0.600000X0.150000X-0.600000X0*%
%ADD41RoundRect,0.076200X-0.600000X0.150000X-0.600000X-0.150000X0.600000X-0.150000X0.600000X0.150000X0*%
%ADD42RoundRect,0.076200X-0.150000X-0.600000X0.150000X-0.600000X0.150000X0.600000X-0.150000X0.600000X0*%
%ADD43RoundRect,0.076200X0.600000X-0.150000X0.600000X0.150000X-0.600000X0.150000X-0.600000X-0.150000X0*%
%ADD44RoundRect,0.076200X-0.500000X-0.550000X0.500000X-0.550000X0.500000X0.550000X-0.500000X0.550000X0*%
%ADD45RoundRect,0.076200X0.035355X-0.742462X0.742462X-0.035355X-0.035355X0.742462X-0.742462X0.035355X0*%
%ADD46RoundRect,0.076200X0.500000X0.700000X-0.500000X0.700000X-0.500000X-0.700000X0.500000X-0.700000X0*%
%ADD47RoundRect,0.076200X0.350000X-0.425000X0.350000X0.425000X-0.350000X0.425000X-0.350000X-0.425000X0*%
%ADD48C,1.952400*%
%ADD49RoundRect,0.076200X0.900000X-0.900000X0.900000X0.900000X-0.900000X0.900000X-0.900000X-0.900000X0*%
%ADD50RoundRect,0.076200X0.450000X0.625000X-0.450000X0.625000X-0.450000X-0.625000X0.450000X-0.625000X0*%
%ADD51RoundRect,0.150000X-0.825000X-0.150000X0.825000X-0.150000X0.825000X0.150000X-0.825000X0.150000X0*%
%ADD52RoundRect,0.076200X0.700000X-0.700000X0.700000X0.700000X-0.700000X0.700000X-0.700000X-0.700000X0*%
%ADD53C,2.032000*%
%ADD54RoundRect,0.076200X-0.152400X-0.495300X0.152400X-0.495300X0.152400X0.495300X-0.152400X0.495300X0*%
%ADD55RoundRect,0.076200X-0.425000X-0.350000X0.425000X-0.350000X0.425000X0.350000X-0.425000X0.350000X0*%
%ADD56RoundRect,0.076200X0.250000X-0.350000X0.250000X0.350000X-0.250000X0.350000X-0.250000X-0.350000X0*%
%ADD57RoundRect,0.076200X-0.800000X-0.900000X0.800000X-0.900000X0.800000X0.900000X-0.800000X0.900000X0*%
%ADD58RoundRect,0.100000X0.100000X-0.637500X0.100000X0.637500X-0.100000X0.637500X-0.100000X-0.637500X0*%
%ADD59FreePoly4,180.000000*%
%ADD60C,3.000000*%
%ADD61RoundRect,0.076200X-0.035355X0.494975X-0.494975X0.035355X0.035355X-0.494975X0.494975X-0.035355X0*%
%ADD62RoundRect,0.076200X-1.300000X-0.700000X1.300000X-0.700000X1.300000X0.700000X-1.300000X0.700000X0*%
%ADD63RoundRect,0.076200X-1.000000X1.000000X-1.000000X-1.000000X1.000000X-1.000000X1.000000X1.000000X0*%
%ADD64FreePoly5,180.000000*%
%ADD65RoundRect,0.076200X-0.939800X-0.939800X0.939800X-0.939800X0.939800X0.939800X-0.939800X0.939800X0*%
G04 APERTURE END LIST*
D10*
X173171896Y-113134811D02*
X173106098Y-113167710D01*
X173106098Y-113167710D02*
X172974502Y-113167710D01*
X172974502Y-113167710D02*
X172908704Y-113134811D01*
X172908704Y-113134811D02*
X172875805Y-113101911D01*
X172875805Y-113101911D02*
X172842906Y-113036113D01*
X172842906Y-113036113D02*
X172842906Y-112838719D01*
X172842906Y-112838719D02*
X172875805Y-112772921D01*
X172875805Y-112772921D02*
X172908704Y-112740022D01*
X172908704Y-112740022D02*
X172974502Y-112707123D01*
X172974502Y-112707123D02*
X173106098Y-112707123D01*
X173106098Y-112707123D02*
X173171896Y-112740022D01*
X173764079Y-113134811D02*
X173698281Y-113167710D01*
X173698281Y-113167710D02*
X173566685Y-113167710D01*
X173566685Y-113167710D02*
X173500887Y-113134811D01*
X173500887Y-113134811D02*
X173467988Y-113101911D01*
X173467988Y-113101911D02*
X173435089Y-113036113D01*
X173435089Y-113036113D02*
X173435089Y-112838719D01*
X173435089Y-112838719D02*
X173467988Y-112772921D01*
X173467988Y-112772921D02*
X173500887Y-112740022D01*
X173500887Y-112740022D02*
X173566685Y-112707123D01*
X173566685Y-112707123D02*
X173698281Y-112707123D01*
X173698281Y-112707123D02*
X173764079Y-112740022D01*
X174060171Y-112904517D02*
X174586556Y-112904517D01*
X174915546Y-113167710D02*
X174915546Y-112476830D01*
X174915546Y-112740022D02*
X174981344Y-112707123D01*
X174981344Y-112707123D02*
X175112940Y-112707123D01*
X175112940Y-112707123D02*
X175178738Y-112740022D01*
X175178738Y-112740022D02*
X175211637Y-112772921D01*
X175211637Y-112772921D02*
X175244536Y-112838719D01*
X175244536Y-112838719D02*
X175244536Y-113036113D01*
X175244536Y-113036113D02*
X175211637Y-113101911D01*
X175211637Y-113101911D02*
X175178738Y-113134811D01*
X175178738Y-113134811D02*
X175112940Y-113167710D01*
X175112940Y-113167710D02*
X174981344Y-113167710D01*
X174981344Y-113167710D02*
X174915546Y-113134811D01*
X175474830Y-112707123D02*
X175639325Y-113167710D01*
X175803820Y-112707123D02*
X175639325Y-113167710D01*
X175639325Y-113167710D02*
X175573527Y-113332205D01*
X175573527Y-113332205D02*
X175540628Y-113365104D01*
X175540628Y-113365104D02*
X175474830Y-113398003D01*
X176067013Y-112904517D02*
X176593398Y-112904517D01*
X176889489Y-113134811D02*
X176955287Y-113167710D01*
X176955287Y-113167710D02*
X177086883Y-113167710D01*
X177086883Y-113167710D02*
X177152681Y-113134811D01*
X177152681Y-113134811D02*
X177185580Y-113069012D01*
X177185580Y-113069012D02*
X177185580Y-113036113D01*
X177185580Y-113036113D02*
X177152681Y-112970315D01*
X177152681Y-112970315D02*
X177086883Y-112937416D01*
X177086883Y-112937416D02*
X176988186Y-112937416D01*
X176988186Y-112937416D02*
X176922388Y-112904517D01*
X176922388Y-112904517D02*
X176889489Y-112838719D01*
X176889489Y-112838719D02*
X176889489Y-112805820D01*
X176889489Y-112805820D02*
X176922388Y-112740022D01*
X176922388Y-112740022D02*
X176988186Y-112707123D01*
X176988186Y-112707123D02*
X177086883Y-112707123D01*
X177086883Y-112707123D02*
X177152681Y-112740022D01*
X177777763Y-113167710D02*
X177777763Y-112805820D01*
X177777763Y-112805820D02*
X177744864Y-112740022D01*
X177744864Y-112740022D02*
X177679066Y-112707123D01*
X177679066Y-112707123D02*
X177547470Y-112707123D01*
X177547470Y-112707123D02*
X177481672Y-112740022D01*
X177777763Y-113134811D02*
X177711965Y-113167710D01*
X177711965Y-113167710D02*
X177547470Y-113167710D01*
X177547470Y-113167710D02*
X177481672Y-113134811D01*
X177481672Y-113134811D02*
X177448773Y-113069012D01*
X177448773Y-113069012D02*
X177448773Y-113003214D01*
X177448773Y-113003214D02*
X177481672Y-112937416D01*
X177481672Y-112937416D02*
X177547470Y-112904517D01*
X177547470Y-112904517D02*
X177711965Y-112904517D01*
X177711965Y-112904517D02*
X177777763Y-112871618D01*
X178633139Y-112805820D02*
X178863432Y-112805820D01*
X178962129Y-113167710D02*
X178633139Y-113167710D01*
X178633139Y-113167710D02*
X178633139Y-112476830D01*
X178633139Y-112476830D02*
X178962129Y-112476830D01*
X178863432Y-112213637D02*
X178764735Y-112312334D01*
X179258221Y-113167710D02*
X179258221Y-112707123D01*
X179258221Y-112772921D02*
X179291120Y-112740022D01*
X179291120Y-112740022D02*
X179356918Y-112707123D01*
X179356918Y-112707123D02*
X179455615Y-112707123D01*
X179455615Y-112707123D02*
X179521413Y-112740022D01*
X179521413Y-112740022D02*
X179554312Y-112805820D01*
X179554312Y-112805820D02*
X179554312Y-113167710D01*
X179554312Y-112805820D02*
X179587211Y-112740022D01*
X179587211Y-112740022D02*
X179653009Y-112707123D01*
X179653009Y-112707123D02*
X179751706Y-112707123D01*
X179751706Y-112707123D02*
X179817505Y-112740022D01*
X179817505Y-112740022D02*
X179850404Y-112805820D01*
X179850404Y-112805820D02*
X179850404Y-113167710D01*
X180179394Y-113167710D02*
X180179394Y-112707123D01*
X180179394Y-112476830D02*
X180146495Y-112509729D01*
X180146495Y-112509729D02*
X180179394Y-112542628D01*
X180179394Y-112542628D02*
X180212293Y-112509729D01*
X180212293Y-112509729D02*
X180179394Y-112476830D01*
X180179394Y-112476830D02*
X180179394Y-112542628D01*
X180607081Y-113167710D02*
X180541283Y-113134811D01*
X180541283Y-113134811D02*
X180508384Y-113069012D01*
X180508384Y-113069012D02*
X180508384Y-112476830D01*
X180870274Y-113167710D02*
X180870274Y-112707123D01*
X180870274Y-112476830D02*
X180837375Y-112509729D01*
X180837375Y-112509729D02*
X180870274Y-112542628D01*
X180870274Y-112542628D02*
X180903173Y-112509729D01*
X180903173Y-112509729D02*
X180870274Y-112476830D01*
X180870274Y-112476830D02*
X180870274Y-112542628D01*
X181462456Y-113134811D02*
X181396658Y-113167710D01*
X181396658Y-113167710D02*
X181265062Y-113167710D01*
X181265062Y-113167710D02*
X181199264Y-113134811D01*
X181199264Y-113134811D02*
X181166365Y-113069012D01*
X181166365Y-113069012D02*
X181166365Y-112805820D01*
X181166365Y-112805820D02*
X181199264Y-112740022D01*
X181199264Y-112740022D02*
X181265062Y-112707123D01*
X181265062Y-112707123D02*
X181396658Y-112707123D01*
X181396658Y-112707123D02*
X181462456Y-112740022D01*
X181462456Y-112740022D02*
X181495355Y-112805820D01*
X181495355Y-112805820D02*
X181495355Y-112871618D01*
X181495355Y-112871618D02*
X181166365Y-112937416D01*
X182679721Y-112509729D02*
X182613923Y-112476830D01*
X182613923Y-112476830D02*
X182515226Y-112476830D01*
X182515226Y-112476830D02*
X182416529Y-112509729D01*
X182416529Y-112509729D02*
X182350731Y-112575527D01*
X182350731Y-112575527D02*
X182317832Y-112641325D01*
X182317832Y-112641325D02*
X182284933Y-112772921D01*
X182284933Y-112772921D02*
X182284933Y-112871618D01*
X182284933Y-112871618D02*
X182317832Y-113003214D01*
X182317832Y-113003214D02*
X182350731Y-113069012D01*
X182350731Y-113069012D02*
X182416529Y-113134811D01*
X182416529Y-113134811D02*
X182515226Y-113167710D01*
X182515226Y-113167710D02*
X182581024Y-113167710D01*
X182581024Y-113167710D02*
X182679721Y-113134811D01*
X182679721Y-113134811D02*
X182712620Y-113101911D01*
X182712620Y-113101911D02*
X182712620Y-112871618D01*
X182712620Y-112871618D02*
X182581024Y-112871618D01*
X183008712Y-113167710D02*
X183008712Y-112707123D01*
X183008712Y-112476830D02*
X182975813Y-112509729D01*
X182975813Y-112509729D02*
X183008712Y-112542628D01*
X183008712Y-112542628D02*
X183041611Y-112509729D01*
X183041611Y-112509729D02*
X183008712Y-112476830D01*
X183008712Y-112476830D02*
X183008712Y-112542628D01*
X183436399Y-113167710D02*
X183370601Y-113134811D01*
X183370601Y-113134811D02*
X183337702Y-113069012D01*
X183337702Y-113069012D02*
X183337702Y-112476830D01*
X183798289Y-113167710D02*
X183732491Y-113134811D01*
X183732491Y-113134811D02*
X183699592Y-113069012D01*
X183699592Y-113069012D02*
X183699592Y-112476830D01*
X184324674Y-113134811D02*
X184258876Y-113167710D01*
X184258876Y-113167710D02*
X184127280Y-113167710D01*
X184127280Y-113167710D02*
X184061482Y-113134811D01*
X184061482Y-113134811D02*
X184028583Y-113069012D01*
X184028583Y-113069012D02*
X184028583Y-112805820D01*
X184028583Y-112805820D02*
X184061482Y-112740022D01*
X184061482Y-112740022D02*
X184127280Y-112707123D01*
X184127280Y-112707123D02*
X184258876Y-112707123D01*
X184258876Y-112707123D02*
X184324674Y-112740022D01*
X184324674Y-112740022D02*
X184357573Y-112805820D01*
X184357573Y-112805820D02*
X184357573Y-112871618D01*
X184357573Y-112871618D02*
X184028583Y-112937416D01*
X184554968Y-112707123D02*
X184818160Y-112707123D01*
X184653665Y-112476830D02*
X184653665Y-113069012D01*
X184653665Y-113069012D02*
X184686564Y-113134811D01*
X184686564Y-113134811D02*
X184752362Y-113167710D01*
X184752362Y-113167710D02*
X184818160Y-113167710D01*
D11*
X173365216Y-111715929D02*
X173365216Y-109643289D01*
X173365216Y-109643289D02*
X174056096Y-111123746D01*
X174056096Y-111123746D02*
X174746976Y-109643289D01*
X174746976Y-109643289D02*
X174746976Y-111715929D01*
X176622222Y-111715929D02*
X176622222Y-110630260D01*
X176622222Y-110630260D02*
X176523524Y-110432866D01*
X176523524Y-110432866D02*
X176326130Y-110334169D01*
X176326130Y-110334169D02*
X175931342Y-110334169D01*
X175931342Y-110334169D02*
X175733947Y-110432866D01*
X176622222Y-111617232D02*
X176424827Y-111715929D01*
X176424827Y-111715929D02*
X175931342Y-111715929D01*
X175931342Y-111715929D02*
X175733947Y-111617232D01*
X175733947Y-111617232D02*
X175635250Y-111419837D01*
X175635250Y-111419837D02*
X175635250Y-111222443D01*
X175635250Y-111222443D02*
X175733947Y-111025049D01*
X175733947Y-111025049D02*
X175931342Y-110926352D01*
X175931342Y-110926352D02*
X176424827Y-110926352D01*
X176424827Y-110926352D02*
X176622222Y-110827654D01*
X177609193Y-111715929D02*
X177609193Y-110334169D01*
X177609193Y-110728957D02*
X177707890Y-110531563D01*
X177707890Y-110531563D02*
X177806588Y-110432866D01*
X177806588Y-110432866D02*
X178003982Y-110334169D01*
X178003982Y-110334169D02*
X178201376Y-110334169D01*
X178892256Y-111715929D02*
X178892256Y-109643289D01*
X178892256Y-110432866D02*
X179089651Y-110334169D01*
X179089651Y-110334169D02*
X179484439Y-110334169D01*
X179484439Y-110334169D02*
X179681833Y-110432866D01*
X179681833Y-110432866D02*
X179780531Y-110531563D01*
X179780531Y-110531563D02*
X179879228Y-110728957D01*
X179879228Y-110728957D02*
X179879228Y-111321140D01*
X179879228Y-111321140D02*
X179780531Y-111518534D01*
X179780531Y-111518534D02*
X179681833Y-111617232D01*
X179681833Y-111617232D02*
X179484439Y-111715929D01*
X179484439Y-111715929D02*
X179089651Y-111715929D01*
X179089651Y-111715929D02*
X178892256Y-111617232D01*
X181063594Y-111715929D02*
X180866199Y-111617232D01*
X180866199Y-111617232D02*
X180767502Y-111419837D01*
X180767502Y-111419837D02*
X180767502Y-109643289D01*
X182642748Y-111617232D02*
X182445354Y-111715929D01*
X182445354Y-111715929D02*
X182050566Y-111715929D01*
X182050566Y-111715929D02*
X181853171Y-111617232D01*
X181853171Y-111617232D02*
X181754474Y-111419837D01*
X181754474Y-111419837D02*
X181754474Y-110630260D01*
X181754474Y-110630260D02*
X181853171Y-110432866D01*
X181853171Y-110432866D02*
X182050566Y-110334169D01*
X182050566Y-110334169D02*
X182445354Y-110334169D01*
X182445354Y-110334169D02*
X182642748Y-110432866D01*
X182642748Y-110432866D02*
X182741446Y-110630260D01*
X182741446Y-110630260D02*
X182741446Y-110827654D01*
X182741446Y-110827654D02*
X181754474Y-111025049D01*
X183531023Y-111617232D02*
X183728417Y-111715929D01*
X183728417Y-111715929D02*
X184123206Y-111715929D01*
X184123206Y-111715929D02*
X184320600Y-111617232D01*
X184320600Y-111617232D02*
X184419297Y-111419837D01*
X184419297Y-111419837D02*
X184419297Y-111321140D01*
X184419297Y-111321140D02*
X184320600Y-111123746D01*
X184320600Y-111123746D02*
X184123206Y-111025049D01*
X184123206Y-111025049D02*
X183827115Y-111025049D01*
X183827115Y-111025049D02*
X183629720Y-110926352D01*
X183629720Y-110926352D02*
X183531023Y-110728957D01*
X183531023Y-110728957D02*
X183531023Y-110630260D01*
X183531023Y-110630260D02*
X183629720Y-110432866D01*
X183629720Y-110432866D02*
X183827115Y-110334169D01*
X183827115Y-110334169D02*
X184123206Y-110334169D01*
X184123206Y-110334169D02*
X184320600Y-110432866D01*
D10*
X172842906Y-114130128D02*
X172875805Y-114097229D01*
X172875805Y-114097229D02*
X172941603Y-114064330D01*
X172941603Y-114064330D02*
X173106098Y-114064330D01*
X173106098Y-114064330D02*
X173171896Y-114097229D01*
X173171896Y-114097229D02*
X173204795Y-114130128D01*
X173204795Y-114130128D02*
X173237694Y-114195926D01*
X173237694Y-114195926D02*
X173237694Y-114261724D01*
X173237694Y-114261724D02*
X173204795Y-114360421D01*
X173204795Y-114360421D02*
X172810007Y-114755210D01*
X172810007Y-114755210D02*
X173237694Y-114755210D01*
X173665382Y-114064330D02*
X173731180Y-114064330D01*
X173731180Y-114064330D02*
X173796978Y-114097229D01*
X173796978Y-114097229D02*
X173829877Y-114130128D01*
X173829877Y-114130128D02*
X173862776Y-114195926D01*
X173862776Y-114195926D02*
X173895675Y-114327522D01*
X173895675Y-114327522D02*
X173895675Y-114492017D01*
X173895675Y-114492017D02*
X173862776Y-114623613D01*
X173862776Y-114623613D02*
X173829877Y-114689411D01*
X173829877Y-114689411D02*
X173796978Y-114722311D01*
X173796978Y-114722311D02*
X173731180Y-114755210D01*
X173731180Y-114755210D02*
X173665382Y-114755210D01*
X173665382Y-114755210D02*
X173599584Y-114722311D01*
X173599584Y-114722311D02*
X173566685Y-114689411D01*
X173566685Y-114689411D02*
X173533786Y-114623613D01*
X173533786Y-114623613D02*
X173500887Y-114492017D01*
X173500887Y-114492017D02*
X173500887Y-114327522D01*
X173500887Y-114327522D02*
X173533786Y-114195926D01*
X173533786Y-114195926D02*
X173566685Y-114130128D01*
X173566685Y-114130128D02*
X173599584Y-114097229D01*
X173599584Y-114097229D02*
X173665382Y-114064330D01*
X174553656Y-114755210D02*
X174158868Y-114755210D01*
X174356262Y-114755210D02*
X174356262Y-114064330D01*
X174356262Y-114064330D02*
X174290464Y-114163027D01*
X174290464Y-114163027D02*
X174224666Y-114228825D01*
X174224666Y-114228825D02*
X174158868Y-114261724D01*
X174783950Y-114064330D02*
X175244536Y-114064330D01*
X175244536Y-114064330D02*
X174948445Y-114755210D01*
X175507729Y-114689411D02*
X175540628Y-114722311D01*
X175540628Y-114722311D02*
X175507729Y-114755210D01*
X175507729Y-114755210D02*
X175474830Y-114722311D01*
X175474830Y-114722311D02*
X175507729Y-114689411D01*
X175507729Y-114689411D02*
X175507729Y-114755210D01*
X176297306Y-114294623D02*
X176461801Y-114755210D01*
X176461801Y-114755210D02*
X176626296Y-114294623D01*
X176823691Y-114064330D02*
X177284277Y-114064330D01*
X177284277Y-114064330D02*
X176988186Y-114755210D01*
%TO.C,IC3*%
G36*
X119728700Y-82848600D02*
G01*
X118678700Y-82848600D01*
X118678700Y-81273600D01*
X119728700Y-81273600D01*
X119728700Y-82848600D01*
G37*
G36*
X118228700Y-82848600D02*
G01*
X117178700Y-82848600D01*
X117178700Y-81273600D01*
X118228700Y-81273600D01*
X118228700Y-82848600D01*
G37*
G36*
X116728700Y-82848600D02*
G01*
X115678700Y-82848600D01*
X115678700Y-81273600D01*
X116728700Y-81273600D01*
X116728700Y-82848600D01*
G37*
%TD*%
D12*
%TO.C,C10*%
X150244900Y-71983600D03*
X148344900Y-71983600D03*
%TD*%
D13*
%TO.C,C22*%
X108033600Y-89446100D03*
X112133600Y-89446100D03*
%TD*%
D14*
%TO.C,F2*%
X191046100Y-152946100D03*
%TD*%
D15*
%TO.C,R82*%
X106900000Y-149800000D03*
X106900000Y-148600000D03*
%TD*%
D16*
%TO.C,C34*%
X168221100Y-118098000D03*
X169421100Y-118098000D03*
%TD*%
D15*
%TO.C,R28*%
X121037400Y-112271100D03*
X121037400Y-111071100D03*
%TD*%
%TO.C,R31*%
X125958600Y-113699800D03*
X125958600Y-112499800D03*
%TD*%
D17*
%TO.C,R38*%
X165129800Y-121211100D03*
X162629800Y-121211100D03*
X160129800Y-121211100D03*
D18*
X167329800Y-114211100D03*
X157929800Y-114211100D03*
%TD*%
D19*
%TO.C,R24*%
X140687400Y-107543700D03*
X139487400Y-107543700D03*
%TD*%
D17*
%TO.C,R14*%
X173226100Y-82793600D03*
X170726100Y-82793600D03*
X168226100Y-82793600D03*
D18*
X175426100Y-75793600D03*
X166026100Y-75793600D03*
%TD*%
D14*
%TO.C,F3*%
X106591100Y-155486100D03*
%TD*%
D19*
%TO.C,C38*%
X134337400Y-123101100D03*
X133137400Y-123101100D03*
%TD*%
D20*
%TO.C,J11*%
X124371100Y-151676100D03*
D21*
X124371100Y-145961100D03*
X124371100Y-148501100D03*
X124371100Y-156121100D03*
%TD*%
D16*
%TO.C,R66*%
X126628600Y-126911100D03*
X127828600Y-126911100D03*
%TD*%
D22*
%TO.C,R36*%
X153250000Y-112750000D03*
X153250000Y-113950000D03*
%TD*%
D19*
%TO.C,R26*%
X140687400Y-108654900D03*
X139487400Y-108654900D03*
%TD*%
D23*
%TO.C,R63*%
X179250000Y-130200000D03*
X177550000Y-130200000D03*
%TD*%
D22*
%TO.C,R19*%
X133750000Y-94650000D03*
X133750000Y-95850000D03*
%TD*%
D19*
%TO.C,C18*%
X170691100Y-84842300D03*
X169491100Y-84842300D03*
%TD*%
D24*
%TO.C,J17*%
X181355000Y-91710000D03*
X178045000Y-89170000D03*
X181355000Y-86630000D03*
X178045000Y-84090000D03*
%TD*%
D19*
%TO.C,R59*%
X127828600Y-125641100D03*
X126628600Y-125641100D03*
%TD*%
D22*
%TO.C,C7*%
X171678600Y-67256100D03*
X171678600Y-68456100D03*
%TD*%
D25*
%TO.C,C14*%
X117833600Y-79286100D03*
X115033600Y-79286100D03*
%TD*%
D19*
%TO.C,R42*%
X127193600Y-114846100D03*
X125993600Y-114846100D03*
%TD*%
D26*
%TO.C,IC8*%
X134066100Y-124373600D03*
X134066100Y-126273600D03*
X136266100Y-125323600D03*
%TD*%
D27*
%TO.C,Q1*%
X158683600Y-66198600D03*
X163083600Y-66198600D03*
X163083600Y-63798600D03*
X158683600Y-63798600D03*
%TD*%
D28*
%TO.C,C53*%
X109981100Y-129609800D03*
X108281100Y-129609800D03*
%TD*%
D15*
%TO.C,R84*%
X131000000Y-149850000D03*
X131000000Y-148650000D03*
%TD*%
D20*
%TO.C,J7*%
X160566100Y-137071100D03*
D21*
X160566100Y-131356100D03*
X160566100Y-133896100D03*
X160566100Y-141516100D03*
%TD*%
D29*
%TO.C,LED5*%
X150990000Y-116701975D03*
X148450000Y-116701975D03*
X145910000Y-116701975D03*
%TD*%
D15*
%TO.C,R32*%
X127228600Y-113699800D03*
X127228600Y-112499800D03*
%TD*%
%TO.C,C48*%
X154374900Y-126876100D03*
X154374900Y-125676100D03*
%TD*%
D30*
%TO.C,C20*%
X158661100Y-86591100D03*
X158661100Y-88491100D03*
%TD*%
D19*
%TO.C,R27*%
X144179800Y-108655000D03*
X142979800Y-108655000D03*
%TD*%
D16*
%TO.C,R69*%
X149488700Y-128498500D03*
X150688700Y-128498500D03*
%TD*%
%TO.C,R41*%
X123453600Y-114846100D03*
X124653600Y-114846100D03*
%TD*%
D22*
%TO.C,R61*%
X179200000Y-126300000D03*
X179200000Y-127500000D03*
%TD*%
D17*
%TO.C,R16*%
X151001100Y-98668600D03*
X148501100Y-98668600D03*
X146001100Y-98668600D03*
D18*
X153201100Y-91668600D03*
X143801100Y-91668600D03*
%TD*%
D31*
%TO.C,D2*%
X111666100Y-85001100D03*
X107866100Y-85001100D03*
%TD*%
D17*
%TO.C,R13*%
X128776100Y-82793600D03*
X126276100Y-82793600D03*
X123776100Y-82793600D03*
D18*
X130976100Y-75793600D03*
X121576100Y-75793600D03*
%TD*%
D19*
%TO.C,R54*%
X167800000Y-124400000D03*
X166600000Y-124400000D03*
%TD*%
D22*
%TO.C,R17*%
X168600000Y-89300000D03*
X168600000Y-90500000D03*
%TD*%
D32*
%TO.C,C27*%
X158343700Y-100889900D03*
X158343700Y-104989900D03*
%TD*%
D33*
%TO.C,R85*%
X118000000Y-153350000D03*
X118000000Y-151650000D03*
%TD*%
D34*
%TO.C,LED10*%
X158270000Y-145250000D03*
X155730000Y-145250000D03*
%TD*%
D35*
%TO.C,IC10*%
X156102100Y-124961100D03*
X156102100Y-125611100D03*
X156102100Y-126261100D03*
X156102100Y-126911100D03*
X156102100Y-127561100D03*
X156102100Y-128211100D03*
X156102100Y-128861100D03*
X161537700Y-128861100D03*
X161537700Y-128211100D03*
X161537700Y-127561100D03*
X161537700Y-126911100D03*
X161537700Y-126261100D03*
X161537700Y-125611100D03*
X161537700Y-124961100D03*
%TD*%
D15*
%TO.C,R55*%
X151199900Y-125288400D03*
X151199900Y-124088400D03*
%TD*%
D36*
%TO.C,D5*%
X141833500Y-108878500D03*
X141833500Y-107578500D03*
%TD*%
D37*
%TO.C,C55*%
X165963600Y-137200000D03*
X165963600Y-135500000D03*
%TD*%
D19*
%TO.C,C40*%
X118779900Y-124371100D03*
X117579900Y-124371100D03*
%TD*%
D16*
%TO.C,R57*%
X117579900Y-125641100D03*
X118779900Y-125641100D03*
%TD*%
D22*
%TO.C,C8*%
X144056100Y-68526100D03*
X144056100Y-69726100D03*
%TD*%
%TO.C,C47*%
X125323600Y-125676100D03*
X125323600Y-126876100D03*
%TD*%
D17*
%TO.C,R4*%
X151001100Y-69776100D03*
X148501100Y-69776100D03*
X146001100Y-69776100D03*
D18*
X153201100Y-62776100D03*
X143801100Y-62776100D03*
%TD*%
D34*
%TO.C,LED8*%
X134170000Y-145300000D03*
X131630000Y-145300000D03*
%TD*%
D38*
%TO.C,R1*%
X125601041Y-64101041D03*
X124398959Y-62898959D03*
%TD*%
D16*
%TO.C,R22*%
X139963600Y-102146200D03*
X141163600Y-102146200D03*
%TD*%
D22*
%TO.C,R67*%
X151200000Y-126311100D03*
X151200000Y-127511100D03*
%TD*%
D33*
%TO.C,R87*%
X130900000Y-157050000D03*
X130900000Y-155350000D03*
%TD*%
D32*
%TO.C,C2*%
X131038600Y-61361100D03*
X131038600Y-65461100D03*
%TD*%
D19*
%TO.C,R33*%
X118462400Y-113576100D03*
X117262400Y-113576100D03*
%TD*%
%TO.C,C41*%
X124018600Y-124371100D03*
X122818600Y-124371100D03*
%TD*%
D39*
%TO.C,Q3*%
X142471100Y-105944900D03*
X143421100Y-103744900D03*
X144371100Y-105944900D03*
%TD*%
D40*
%TO.C,IC2*%
X158918600Y-73032200D03*
X158418600Y-73032200D03*
X157918600Y-73032200D03*
X157418600Y-73032200D03*
X156918600Y-73032200D03*
X156418600Y-73032200D03*
X155918600Y-73032200D03*
X155418600Y-73032200D03*
X154918600Y-73032200D03*
X154418600Y-73032200D03*
X153918600Y-73032200D03*
X153418600Y-73032200D03*
X152918600Y-73032200D03*
X152418600Y-73032200D03*
X151918600Y-73032200D03*
X151418600Y-73032200D03*
D41*
X149257600Y-75218600D03*
X149257600Y-75718600D03*
X149257600Y-76218600D03*
X149257600Y-76718600D03*
X149257600Y-77218600D03*
X149257600Y-77718600D03*
X149257600Y-78218600D03*
X149257600Y-78718600D03*
X149257600Y-79218600D03*
X149257600Y-79718600D03*
X149257600Y-80218600D03*
X149257600Y-80718600D03*
X149257600Y-81218600D03*
X149257600Y-81718600D03*
X149257600Y-82218600D03*
X149257600Y-82718600D03*
D42*
X151418600Y-84854200D03*
X151918600Y-84854200D03*
X152418600Y-84854200D03*
X152918600Y-84854200D03*
X153418600Y-84854200D03*
X153918600Y-84854200D03*
X154418600Y-84854200D03*
X154918600Y-84854200D03*
X155418600Y-84854200D03*
X155918600Y-84854200D03*
X156418600Y-84854200D03*
X156918600Y-84854200D03*
X157418600Y-84854200D03*
X157918600Y-84854200D03*
X158418600Y-84854200D03*
X158918600Y-84854200D03*
D43*
X161105000Y-82718600D03*
X161105000Y-82218600D03*
X161105000Y-81718600D03*
X161105000Y-81218600D03*
X161105000Y-80718600D03*
X161105000Y-80218600D03*
X161105000Y-79718600D03*
X161105000Y-79218600D03*
X161105000Y-78718600D03*
X161105000Y-78218600D03*
X161105000Y-77718600D03*
X161105000Y-77218600D03*
X161105000Y-76718600D03*
X161105000Y-76218600D03*
X161105000Y-75718600D03*
X161105000Y-75218600D03*
%TD*%
D44*
%TO.C,R46*%
X173686100Y-117463000D03*
X175386100Y-117463000D03*
%TD*%
D20*
%TO.C,J16*%
X184696100Y-151676100D03*
D21*
X184696100Y-145961100D03*
X184696100Y-148501100D03*
X184696100Y-156121100D03*
%TD*%
D45*
%TO.C,R5*%
X182648959Y-63351041D03*
X183851041Y-62148959D03*
%TD*%
D46*
%TO.C,D3*%
X138338700Y-101998600D03*
X136438700Y-101998600D03*
X137388700Y-104198600D03*
%TD*%
D15*
%TO.C,C9*%
X152787400Y-71789800D03*
X152787400Y-70589800D03*
%TD*%
D37*
%TO.C,C54*%
X153898600Y-136651100D03*
X153898600Y-134951100D03*
%TD*%
D15*
%TO.C,C4*%
X165011200Y-64963600D03*
X165011200Y-63763600D03*
%TD*%
D44*
%TO.C,R62*%
X167332500Y-127570000D03*
X169032500Y-127570000D03*
%TD*%
D34*
%TO.C,LED6*%
X110070000Y-145300000D03*
X107530000Y-145300000D03*
%TD*%
D19*
%TO.C,R65*%
X124018600Y-126911100D03*
X122818600Y-126911100D03*
%TD*%
D17*
%TO.C,R37*%
X136872400Y-121211100D03*
X134372400Y-121211100D03*
X131872400Y-121211100D03*
D18*
X139072400Y-114211100D03*
X129672400Y-114211100D03*
%TD*%
D19*
%TO.C,C28*%
X112271100Y-108178600D03*
X111071100Y-108178600D03*
%TD*%
D22*
%TO.C,C36*%
X157708600Y-119643600D03*
X157708600Y-120843600D03*
%TD*%
%TO.C,R72*%
X126593600Y-128216100D03*
X126593600Y-129416100D03*
%TD*%
D47*
%TO.C,L3*%
X119608600Y-80027400D03*
X119608600Y-78427400D03*
%TD*%
D16*
%TO.C,R58*%
X122818600Y-125641100D03*
X124018600Y-125641100D03*
%TD*%
D22*
%TO.C,C37*%
X179200000Y-121600000D03*
X179200000Y-122800000D03*
%TD*%
D48*
%TO.C,SW1*%
X121791100Y-55831100D03*
X121791100Y-60831100D03*
D49*
X116791100Y-55831100D03*
D48*
X116291100Y-58331100D03*
X122291100Y-58331100D03*
X116791100Y-60831100D03*
%TD*%
D50*
%TO.C,L1*%
X114150000Y-66000000D03*
X112250000Y-66000000D03*
%TD*%
D22*
%TO.C,R77*%
X179298600Y-132978600D03*
X179298600Y-134178600D03*
%TD*%
D20*
%TO.C,J4*%
X124371100Y-137071100D03*
D21*
X124371100Y-131356100D03*
X124371100Y-133896100D03*
X124371100Y-141516100D03*
%TD*%
D51*
%TO.C,IC7*%
X171325000Y-119690000D03*
X171325000Y-120960000D03*
X171325000Y-122230000D03*
X171325000Y-123500000D03*
X171325000Y-124770000D03*
X171325000Y-126040000D03*
X171325000Y-127310000D03*
X176275000Y-127310000D03*
X176275000Y-126040000D03*
X176275000Y-124770000D03*
X176275000Y-123500000D03*
X176275000Y-122230000D03*
X176275000Y-120960000D03*
X176275000Y-119690000D03*
%TD*%
D19*
%TO.C,R47*%
X169000000Y-121200000D03*
X167800000Y-121200000D03*
%TD*%
D39*
%TO.C,Q2*%
X138978600Y-105944900D03*
X139928600Y-103744900D03*
X140878600Y-105944900D03*
%TD*%
D19*
%TO.C,R64*%
X118779900Y-126911100D03*
X117579900Y-126911100D03*
%TD*%
D52*
%TO.C,D1*%
X127228500Y-55795900D03*
X127228500Y-59595900D03*
%TD*%
D15*
%TO.C,R53*%
X179200000Y-125100000D03*
X179200000Y-123900000D03*
%TD*%
D22*
%TO.C,R79*%
X155000000Y-148900000D03*
X155000000Y-150100000D03*
%TD*%
D20*
%TO.C,J9*%
X184696100Y-137071100D03*
D21*
X184696100Y-131356100D03*
X184696100Y-133896100D03*
X184696100Y-141516100D03*
%TD*%
D34*
%TO.C,LED12*%
X182370000Y-145300000D03*
X179830000Y-145300000D03*
%TD*%
%TO.C,LED11*%
X170320000Y-145300000D03*
X167780000Y-145300000D03*
%TD*%
D20*
%TO.C,J1*%
X112306100Y-122466100D03*
D21*
X112306100Y-116751100D03*
X112306100Y-119291100D03*
X112306100Y-126911100D03*
%TD*%
D28*
%TO.C,C58*%
X128237200Y-144056100D03*
X126537200Y-144056100D03*
%TD*%
D15*
%TO.C,R56*%
X142310000Y-125288500D03*
X142310000Y-124088500D03*
%TD*%
D22*
%TO.C,C19*%
X160248600Y-85036100D03*
X160248600Y-86236100D03*
%TD*%
D53*
%TO.C,SW6*%
X164299900Y-97980500D03*
X170802300Y-97980500D03*
X164299900Y-102501700D03*
X170802300Y-102501700D03*
%TD*%
D19*
%TO.C,R51*%
X144656300Y-122624600D03*
X143456300Y-122624600D03*
%TD*%
D22*
%TO.C,R15*%
X167200000Y-89300000D03*
X167200000Y-90500000D03*
%TD*%
D15*
%TO.C,R48*%
X179400000Y-118700000D03*
X179400000Y-117500000D03*
%TD*%
D16*
%TO.C,C31*%
X121072400Y-116116100D03*
X122272400Y-116116100D03*
%TD*%
D37*
%TO.C,C45*%
X190093600Y-126808600D03*
X190093600Y-125108600D03*
%TD*%
D19*
%TO.C,R11*%
X186566100Y-73253600D03*
X185366100Y-73253600D03*
%TD*%
D20*
%TO.C,J12*%
X136436100Y-151676100D03*
D21*
X136436100Y-145961100D03*
X136436100Y-148501100D03*
X136436100Y-156121100D03*
%TD*%
D22*
%TO.C,R70*%
X119132400Y-128216100D03*
X119132400Y-129416100D03*
%TD*%
D16*
%TO.C,R34*%
X121072400Y-113576100D03*
X122272400Y-113576100D03*
%TD*%
D22*
%TO.C,R3*%
X156914800Y-61223600D03*
X156914800Y-62423600D03*
%TD*%
D19*
%TO.C,R75*%
X150688500Y-129451200D03*
X149488500Y-129451200D03*
%TD*%
D16*
%TO.C,R10*%
X110436100Y-72936100D03*
X111636100Y-72936100D03*
%TD*%
D19*
%TO.C,R40*%
X122272400Y-114846100D03*
X121072400Y-114846100D03*
%TD*%
D34*
%TO.C,LED9*%
X146220000Y-145300000D03*
X143680000Y-145300000D03*
%TD*%
D15*
%TO.C,R83*%
X119000000Y-149850000D03*
X119000000Y-148650000D03*
%TD*%
D53*
%TO.C,SW3*%
X112026700Y-76034900D03*
X112026700Y-82537300D03*
X107505500Y-76034900D03*
X107505500Y-82537300D03*
%TD*%
D19*
%TO.C,R35*%
X124653600Y-113576100D03*
X123453600Y-113576100D03*
%TD*%
D22*
%TO.C,C16*%
X149136100Y-83766100D03*
X149136100Y-84966100D03*
%TD*%
D23*
%TO.C,R45*%
X172211200Y-117463000D03*
X170511200Y-117463000D03*
%TD*%
D29*
%TO.C,LED1*%
X112240000Y-70401975D03*
X109700000Y-70401975D03*
X107160000Y-70401975D03*
%TD*%
D22*
%TO.C,C46*%
X119767400Y-125676100D03*
X119767400Y-126876100D03*
%TD*%
D54*
%TO.C,IC5*%
X117817400Y-122961400D03*
X118467400Y-122961400D03*
X119117400Y-122961400D03*
X119767400Y-122961400D03*
X120417400Y-122961400D03*
X121067400Y-122961400D03*
X121717400Y-122961400D03*
X121717400Y-117525800D03*
X121067400Y-117525800D03*
X120417400Y-117525800D03*
X119767400Y-117525800D03*
X119117400Y-117525800D03*
X118467400Y-117525800D03*
X117817400Y-117525800D03*
%TD*%
D55*
%TO.C,L2*%
X119343600Y-71190000D03*
X120943600Y-71190000D03*
%TD*%
D22*
%TO.C,R6*%
X170726100Y-67256100D03*
X170726100Y-68456100D03*
%TD*%
D29*
%TO.C,LED4*%
X170040000Y-94500000D03*
X167500000Y-94500000D03*
X164960000Y-94500000D03*
%TD*%
D53*
%TO.C,SW4*%
X184975500Y-82537300D03*
X184975500Y-76034900D03*
X189496700Y-82537300D03*
X189496700Y-76034900D03*
%TD*%
D16*
%TO.C,R12*%
X187906100Y-73253600D03*
X189106100Y-73253600D03*
%TD*%
D56*
%TO.C,D4*%
X137864900Y-106208600D03*
X137864900Y-107508600D03*
%TD*%
D29*
%TO.C,LED2*%
X189740000Y-70401975D03*
X187200000Y-70401975D03*
X184660000Y-70401975D03*
%TD*%
D37*
%TO.C,C57*%
X165963600Y-140375000D03*
X165963600Y-138675000D03*
%TD*%
D35*
%TO.C,IC9*%
X144037100Y-123849800D03*
X144037100Y-124499800D03*
X144037100Y-125149800D03*
X144037100Y-125799800D03*
X144037100Y-126449800D03*
X144037100Y-127099800D03*
X144037100Y-127749800D03*
X149472700Y-127749800D03*
X149472700Y-127099800D03*
X149472700Y-126449800D03*
X149472700Y-125799800D03*
X149472700Y-125149800D03*
X149472700Y-124499800D03*
X149472700Y-123849800D03*
%TD*%
D19*
%TO.C,R68*%
X135448600Y-127863600D03*
X134248600Y-127863600D03*
%TD*%
D57*
%TO.C,C5*%
X116600000Y-66000000D03*
X119400000Y-66000000D03*
%TD*%
D19*
%TO.C,R49*%
X150053500Y-121672200D03*
X148853500Y-121672200D03*
%TD*%
D15*
%TO.C,R30*%
X119767400Y-113541100D03*
X119767400Y-112341100D03*
%TD*%
D16*
%TO.C,C51*%
X181100000Y-131400000D03*
X182300000Y-131400000D03*
%TD*%
D53*
%TO.C,SW5*%
X126199900Y-97980500D03*
X132702300Y-97980500D03*
X126199900Y-102501700D03*
X132702300Y-102501700D03*
%TD*%
D19*
%TO.C,R76*%
X115763600Y-131356100D03*
X114563600Y-131356100D03*
%TD*%
D20*
%TO.C,J6*%
X148501100Y-137071100D03*
D21*
X148501100Y-131356100D03*
X148501100Y-133896100D03*
X148501100Y-141516100D03*
%TD*%
D47*
%TO.C,L4*%
X113576100Y-87329900D03*
X113576100Y-85729900D03*
%TD*%
D16*
%TO.C,R44*%
X176476000Y-116828000D03*
X177676000Y-116828000D03*
%TD*%
D19*
%TO.C,C17*%
X126241100Y-84683600D03*
X125041100Y-84683600D03*
%TD*%
D16*
%TO.C,C33*%
X125993600Y-116116100D03*
X127193600Y-116116100D03*
%TD*%
D48*
%TO.C,SW2*%
X180211100Y-55831100D03*
X180211100Y-60831100D03*
D49*
X175211100Y-55831100D03*
D48*
X174711100Y-58331100D03*
X180711100Y-58331100D03*
X175211100Y-60831100D03*
%TD*%
D58*
%TO.C,IC4*%
X159243600Y-95801100D03*
X159893600Y-95801100D03*
X160543600Y-95801100D03*
X161193600Y-95801100D03*
X161843600Y-95801100D03*
X162493600Y-95801100D03*
X163143600Y-95801100D03*
X163793600Y-95801100D03*
X163793600Y-90076100D03*
X163143600Y-90076100D03*
X162493600Y-90076100D03*
X161843600Y-90076100D03*
X161193600Y-90076100D03*
X160543600Y-90076100D03*
X159893600Y-90076100D03*
X159243600Y-90076100D03*
%TD*%
D25*
%TO.C,C3*%
X109900000Y-66000000D03*
X107100000Y-66000000D03*
%TD*%
D22*
%TO.C,C12*%
X162788600Y-74241100D03*
X162788600Y-75441100D03*
%TD*%
D14*
%TO.C,F1*%
X188823600Y-53886100D03*
%TD*%
D32*
%TO.C,C11*%
X116910000Y-72156300D03*
X116910000Y-76256300D03*
%TD*%
D59*
%TO.C,IC1*%
X111353600Y-60871100D03*
X111353600Y-58331100D03*
X111353600Y-55791100D03*
%TD*%
D22*
%TO.C,R78*%
X143000000Y-148650000D03*
X143000000Y-149850000D03*
%TD*%
%TO.C,C1*%
X134531100Y-61541100D03*
X134531100Y-62741100D03*
%TD*%
D19*
%TO.C,R43*%
X169421100Y-116828000D03*
X168221100Y-116828000D03*
%TD*%
%TO.C,C29*%
X184661100Y-108178600D03*
X183461100Y-108178600D03*
%TD*%
%TO.C,C26*%
X158308600Y-97383700D03*
X157108600Y-97383700D03*
%TD*%
D17*
%TO.C,R21*%
X187196100Y-105971100D03*
X184696100Y-105971100D03*
X182196100Y-105971100D03*
D18*
X189396100Y-98971100D03*
X179996100Y-98971100D03*
%TD*%
D60*
%TO.C,H3*%
X185331100Y-86906100D03*
%TD*%
D19*
%TO.C,C44*%
X179200000Y-128800000D03*
X178000000Y-128800000D03*
%TD*%
D29*
%TO.C,LED3*%
X131940000Y-94500000D03*
X129400000Y-94500000D03*
X126860000Y-94500000D03*
%TD*%
D22*
%TO.C,C24*%
X143421200Y-95196100D03*
X143421200Y-96396100D03*
%TD*%
D20*
%TO.C,J15*%
X172631100Y-151676100D03*
D21*
X172631100Y-145961100D03*
X172631100Y-148501100D03*
X172631100Y-156121100D03*
%TD*%
D16*
%TO.C,C43*%
X167800000Y-126000000D03*
X169000000Y-126000000D03*
%TD*%
D20*
%TO.C,J8*%
X172631100Y-137071100D03*
D21*
X172631100Y-131356100D03*
X172631100Y-133896100D03*
X172631100Y-141516100D03*
%TD*%
D20*
%TO.C,J5*%
X136436100Y-137071100D03*
D21*
X136436100Y-131356100D03*
X136436100Y-133896100D03*
X136436100Y-141516100D03*
%TD*%
D22*
%TO.C,R71*%
X124053600Y-128216100D03*
X124053600Y-129416100D03*
%TD*%
D16*
%TO.C,R39*%
X117262400Y-114846100D03*
X118462400Y-114846100D03*
%TD*%
D22*
%TO.C,R2*%
X155803600Y-61223600D03*
X155803600Y-62423600D03*
%TD*%
D30*
%TO.C,C15*%
X147231100Y-82781100D03*
X147231100Y-84681100D03*
%TD*%
D16*
%TO.C,C42*%
X126628600Y-124371100D03*
X127828600Y-124371100D03*
%TD*%
D20*
%TO.C,J14*%
X160566100Y-151676100D03*
D21*
X160566100Y-145961100D03*
X160566100Y-148501100D03*
X160566100Y-156121100D03*
%TD*%
D19*
%TO.C,C39*%
X167833600Y-123101100D03*
X166633600Y-123101100D03*
%TD*%
D16*
%TO.C,R52*%
X148853500Y-122624800D03*
X150053500Y-122624800D03*
%TD*%
D33*
%TO.C,R86*%
X129900000Y-153350000D03*
X129900000Y-151650000D03*
%TD*%
D22*
%TO.C,C6*%
X157073700Y-65033600D03*
X157073700Y-66233600D03*
%TD*%
%TO.C,R81*%
X179250000Y-148900000D03*
X179250000Y-150100000D03*
%TD*%
D16*
%TO.C,R7*%
X157743600Y-68332400D03*
X158943600Y-68332400D03*
%TD*%
D61*
%TO.C,R18*%
X131924264Y-89825736D03*
X131075736Y-90674264D03*
%TD*%
D15*
%TO.C,C13*%
X147548600Y-76076100D03*
X147548600Y-74876100D03*
%TD*%
D20*
%TO.C,J3*%
X112306100Y-137071100D03*
D21*
X112306100Y-131356100D03*
X112306100Y-133896100D03*
X112306100Y-141516100D03*
%TD*%
D16*
%TO.C,R50*%
X143456100Y-121672500D03*
X144656100Y-121672500D03*
%TD*%
D19*
%TO.C,R23*%
X143386200Y-102146200D03*
X142186200Y-102146200D03*
%TD*%
D22*
%TO.C,C50*%
X142309900Y-126311000D03*
X142309900Y-127511000D03*
%TD*%
D62*
%TO.C,C23*%
X121023600Y-89446100D03*
X116923600Y-89446100D03*
%TD*%
D53*
%TO.C,SW7*%
X146240500Y-111112300D03*
X146240500Y-104609900D03*
X150761700Y-111112300D03*
X150761700Y-104609900D03*
%TD*%
D19*
%TO.C,C35*%
X177676100Y-118098000D03*
X176476100Y-118098000D03*
%TD*%
D15*
%TO.C,R60*%
X166200000Y-127535000D03*
X166200000Y-126335000D03*
%TD*%
D17*
%TO.C,R20*%
X114806100Y-105971100D03*
X112306100Y-105971100D03*
X109806100Y-105971100D03*
D18*
X117006100Y-98971100D03*
X107606100Y-98971100D03*
%TD*%
D34*
%TO.C,LED7*%
X122070000Y-145283189D03*
X119530000Y-145283189D03*
%TD*%
D37*
%TO.C,C56*%
X118973600Y-141350000D03*
X118973600Y-139650000D03*
%TD*%
D19*
%TO.C,R25*%
X144179800Y-107543700D03*
X142979800Y-107543700D03*
%TD*%
D16*
%TO.C,C52*%
X134248600Y-129133600D03*
X135448600Y-129133600D03*
%TD*%
D19*
%TO.C,C32*%
X124653600Y-116116100D03*
X123453600Y-116116100D03*
%TD*%
D16*
%TO.C,R8*%
X159331200Y-69284800D03*
X160531200Y-69284800D03*
%TD*%
D20*
%TO.C,J2*%
X184696100Y-122466100D03*
D21*
X184696100Y-116751100D03*
X184696100Y-119291100D03*
X184696100Y-126911100D03*
%TD*%
D19*
%TO.C,C30*%
X118462400Y-116116100D03*
X117262400Y-116116100D03*
%TD*%
D60*
%TO.C,H5*%
X111036100Y-112306100D03*
%TD*%
D19*
%TO.C,R9*%
X109096100Y-72936100D03*
X107896100Y-72936100D03*
%TD*%
D20*
%TO.C,J10*%
X112306100Y-151676100D03*
D21*
X112306100Y-145961100D03*
X112306100Y-148501100D03*
X112306100Y-156121100D03*
%TD*%
D19*
%TO.C,C21*%
X161642300Y-88652300D03*
X160442300Y-88652300D03*
%TD*%
D16*
%TO.C,R74*%
X181100000Y-129400000D03*
X182300000Y-129400000D03*
%TD*%
D22*
%TO.C,R80*%
X167250000Y-148900000D03*
X167250000Y-150100000D03*
%TD*%
D63*
%TO.C,IC3*%
X117703700Y-85242600D03*
%TD*%
D15*
%TO.C,C49*%
X163700000Y-127500000D03*
X163700000Y-126300000D03*
%TD*%
D54*
%TO.C,IC6*%
X123373600Y-122961400D03*
X124023600Y-122961400D03*
X124673600Y-122961400D03*
X125323600Y-122961400D03*
X125973600Y-122961400D03*
X126623600Y-122961400D03*
X127273600Y-122961400D03*
X127273600Y-117525800D03*
X126623600Y-117525800D03*
X125973600Y-117525800D03*
X125323600Y-117525800D03*
X124673600Y-117525800D03*
X124023600Y-117525800D03*
X123373600Y-117525800D03*
%TD*%
D19*
%TO.C,R73*%
X182300000Y-130400000D03*
X181100000Y-130400000D03*
%TD*%
D16*
%TO.C,C25*%
X160601100Y-97224800D03*
X161801100Y-97224800D03*
%TD*%
D20*
%TO.C,J13*%
X148501100Y-151676100D03*
D21*
X148501100Y-145961100D03*
X148501100Y-148501100D03*
X148501100Y-156121100D03*
%TD*%
D15*
%TO.C,R29*%
X124688600Y-112271100D03*
X124688600Y-111071100D03*
%TD*%
D53*
%TO.C,JP2*%
X163741100Y-60236100D03*
X166281100Y-60236100D03*
%TD*%
D64*
%TO.C,JP4*%
X140881100Y-57696100D03*
X140881100Y-55156100D03*
X138341100Y-57696100D03*
X138341100Y-55156100D03*
X135801100Y-57696100D03*
X135801100Y-55156100D03*
X133261100Y-57696100D03*
X133261100Y-55156100D03*
X130721100Y-57696100D03*
X130721100Y-55156100D03*
%TD*%
D65*
%TO.C,JP1*%
X181203600Y-79286100D03*
D53*
X181203600Y-76746100D03*
X181203600Y-74206100D03*
X181203600Y-71666100D03*
%TD*%
M02*
