M48
; DRILL file {KiCad (6.0.11-0)} date 2023 May 02, Tuesday 23:37:46
; FORMAT={-:-/ absolute / inch / decimal}
; #@! TF.CreationDate,2023-05-02T23:37:46+02:00
; #@! TF.GenerationSoftware,Kicad,Pcbnew,(6.0.11-0)
; #@! TF.FileFunction,Plated,1,2,PTH
FMAT,2
INCH
; #@! TA.AperFunction,Plated,PTH,ViaDrill
T1C0.0197
; #@! TA.AperFunction,Plated,PTH,ComponentDrill
T2C0.0320
; #@! TA.AperFunction,Plated,PTH,ComponentDrill
T3C0.0400
%
G90
G05
T1
X5.5219Y-4.7746
X5.5219Y-2.2934
X5.5219Y-4.2684
X5.5219Y-4.5684
X5.5219Y-5.4684
X5.5219Y-5.6684
X5.5219Y-5.8684
X5.5219Y-6.2184
X5.5219Y-2.6684
X5.5219Y-2.8684
X5.5219Y-3.0684
X5.5219Y-3.2684
X5.5219Y-4.0684
X5.5469Y-4.1934
X5.5594Y-5.4059
X5.5844Y-2.3809
X5.5844Y-2.7184
X5.5844Y-3.5434
X5.5844Y-3.7434
X5.5969Y-2.1434
X5.5969Y-4.0434
X5.6281Y-2.4934
X5.6469Y-5.1246
X5.7094Y-3.8434
X5.7119Y-4.2434
X5.7156Y-3.0934
X5.7156Y-2.6809
X5.7156Y-3.2059
X5.7219Y-2.5934
X5.7344Y-4.0559
X5.7406Y-4.4684
X5.7406Y-4.5684
X5.7406Y-4.7434
X5.7406Y-4.9434
X5.7594Y-4.2934
X5.7594Y-5.4434
X5.7844Y-4.7934
X5.7844Y-2.5934
X5.7844Y-4.6809
X5.7969Y-5.0121
X5.7969Y-3.5059
X5.7969Y-3.7434
X5.7969Y-5.0934
X5.7969Y-5.3809
X5.7969Y-5.8684
X5.8156Y-2.3309
X5.8281Y-2.8684
X5.8281Y-3.0934
X5.8281Y-3.2059
X5.8344Y-4.2934
X5.8469Y-5.1809
X5.8469Y-2.2871
X5.8469Y-2.6809
X5.8469Y-5.4059
X5.8469Y-2.6059
X5.8594Y-4.0559
X5.8594Y-4.4684
X5.8594Y-4.5684
X5.8594Y-4.7434
X5.8594Y-3.5059
X5.8719Y-4.8184
X5.8906Y-2.3434
X5.8969Y-2.7809
X5.8969Y-3.6559
X5.8969Y-3.8184
X5.8969Y-5.0184
X5.8969Y-5.0934
X5.9094Y-4.2434
X5.9219Y-3.8934
X5.9219Y-3.9684
X5.9406Y-2.6809
X5.9469Y-2.6059
X5.9719Y-2.5059
X6.0969Y-2.1434
X6.1094Y-3.5434
X6.1094Y-3.7434
X6.1719Y-2.2934
X6.1719Y-4.2684
X6.1719Y-4.5684
X6.1719Y-4.7684
X6.1719Y-5.0684
X6.1719Y-5.2184
X6.1719Y-5.4684
X6.1719Y-5.6684
X6.1719Y-5.8684
X6.1719Y-6.2184
X6.1719Y-2.8684
X6.1719Y-3.2684
X6.1719Y-4.0684
T2
X5.624Y-5.2287
X5.6594Y-2.4434
X5.6594Y-2.5434
X5.6594Y-3.7934
X5.6594Y-3.8934
X5.6947Y-5.158
T3
X5.6469Y-2.0871
X5.6469Y-2.1871
X5.6594Y-2.6434
X5.6594Y-2.9434
X5.6594Y-3.0434
X5.6594Y-3.1434
X5.6594Y-3.4434
X5.6594Y-3.5434
X5.6594Y-3.9934
X5.6594Y-4.2934
X5.6594Y-4.3934
X5.6594Y-4.4934
X5.6594Y-4.7934
X5.6594Y-4.8934
X5.6594Y-5.2934
X5.6594Y-5.3934
X5.6594Y-5.6934
X5.6594Y-5.7934
X5.6594Y-5.8934
X5.6594Y-6.1934
X5.7469Y-2.0871
X5.7469Y-2.1871
X5.8469Y-2.0871
X5.8469Y-2.1871
X5.9469Y-2.0871
X5.9469Y-2.1871
X6.0344Y-2.6434
X6.0344Y-2.9434
X6.0344Y-3.0434
X6.0344Y-3.1434
X6.0344Y-3.4434
X6.0344Y-3.5434
X6.0344Y-3.9934
X6.0344Y-4.2934
X6.0344Y-4.3934
X6.0344Y-4.4934
X6.0344Y-4.7934
X6.0344Y-4.8934
X6.0344Y-5.2934
X6.0344Y-5.3934
X6.0344Y-5.6934
X6.0344Y-5.7934
X6.0344Y-5.8934
X6.0344Y-6.1934
X6.0469Y-2.0871
X6.0469Y-2.1871
T0
M30
