%TF.GenerationSoftware,KiCad,Pcbnew,(6.0.11-0)*%
%TF.CreationDate,2023-05-02T23:37:46+02:00*%
%TF.ProjectId,kinks,6b696e6b-732e-46b6-9963-61645f706362,rev?*%
%TF.SameCoordinates,Original*%
%TF.FileFunction,Soldermask,Top*%
%TF.FilePolarity,Negative*%
%FSLAX46Y46*%
G04 Gerber Fmt 4.6, Leading zero omitted, Abs format (unit mm)*
G04 Created by KiCad (PCBNEW (6.0.11-0)) date 2023-05-02 23:37:46*
%MOMM*%
%LPD*%
G01*
G04 APERTURE LIST*
G04 Aperture macros list*
%AMRoundRect*
0 Rectangle with rounded corners*
0 $1 Rounding radius*
0 $2 $3 $4 $5 $6 $7 $8 $9 X,Y pos of 4 corners*
0 Add a 4 corners polygon primitive as box body*
4,1,4,$2,$3,$4,$5,$6,$7,$8,$9,$2,$3,0*
0 Add four circle primitives for the rounded corners*
1,1,$1+$1,$2,$3*
1,1,$1+$1,$4,$5*
1,1,$1+$1,$6,$7*
1,1,$1+$1,$8,$9*
0 Add four rect primitives between the rounded corners*
20,1,$1+$1,$2,$3,$4,$5,0*
20,1,$1+$1,$4,$5,$6,$7,0*
20,1,$1+$1,$6,$7,$8,$9,0*
20,1,$1+$1,$8,$9,$2,$3,0*%
%AMFreePoly0*
4,1,25,0.438258,0.998173,0.443160,0.993682,0.993682,0.443160,1.015710,0.395919,1.016000,0.389278,1.016000,-0.389278,0.998173,-0.438258,0.993682,-0.443160,0.443160,-0.993682,0.395919,-1.015710,0.389278,-1.016000,-0.389278,-1.016000,-0.438258,-0.998173,-0.443160,-0.993682,-0.993682,-0.443160,-1.015710,-0.395919,-1.016000,-0.389278,-1.016000,0.389278,-0.998173,0.438258,-0.993682,0.443160,
-0.443160,0.993682,-0.395919,1.015710,-0.389278,1.016000,0.389278,1.016000,0.438258,0.998173,0.438258,0.998173,$1*%
%AMFreePoly1*
4,1,25,0.301485,0.667973,0.306387,0.663482,0.663482,0.306387,0.685510,0.259146,0.685800,0.252505,0.685800,-0.252505,0.667973,-0.301485,0.663482,-0.306387,0.306387,-0.663482,0.259146,-0.685510,0.252505,-0.685800,-0.252505,-0.685800,-0.301485,-0.667973,-0.306387,-0.663482,-0.663482,-0.306387,-0.685510,-0.259146,-0.685800,-0.252505,-0.685800,0.252505,-0.667973,0.301485,-0.663482,0.306387,
-0.306387,0.663482,-0.259146,0.685510,-0.252505,0.685800,0.252505,0.685800,0.301485,0.667973,0.301485,0.667973,$1*%
%AMFreePoly2*
4,1,25,0.417216,0.947373,0.422118,0.942882,0.942882,0.422118,0.964910,0.374877,0.965200,0.368236,0.965200,-0.368236,0.947373,-0.417216,0.942882,-0.422118,0.422118,-0.942882,0.374877,-0.964910,0.368236,-0.965200,-0.368236,-0.965200,-0.417216,-0.947373,-0.422118,-0.942882,-0.942882,-0.422118,-0.964910,-0.374877,-0.965200,-0.368236,-0.965200,0.368236,-0.947373,0.417216,-0.942882,0.422118,
-0.422118,0.942882,-0.374877,0.964910,-0.368236,0.965200,0.368236,0.965200,0.417216,0.947373,0.417216,0.947373,$1*%
G04 Aperture macros list end*
%ADD10FreePoly0,-0.000000*%
%ADD11RoundRect,0.076200X-0.500000X0.550000X-0.500000X-0.550000X0.500000X-0.550000X0.500000X0.550000X0*%
%ADD12RoundRect,0.076200X-0.350000X-0.250000X0.350000X-0.250000X0.350000X0.250000X-0.350000X0.250000X0*%
%ADD13FreePoly1,90.000000*%
%ADD14RoundRect,0.076200X0.450000X-0.350000X0.450000X0.350000X-0.450000X0.350000X-0.450000X-0.350000X0*%
%ADD15RoundRect,0.076200X0.350000X0.450000X-0.350000X0.450000X-0.350000X-0.450000X0.350000X-0.450000X0*%
%ADD16FreePoly1,225.000000*%
%ADD17RoundRect,0.076200X-0.350000X-0.450000X0.350000X-0.450000X0.350000X0.450000X-0.350000X0.450000X0*%
%ADD18RoundRect,0.076200X0.600000X-0.300000X0.600000X0.300000X-0.600000X0.300000X-0.600000X-0.300000X0*%
%ADD19C,2.200000*%
%ADD20FreePoly2,0.000000*%
%ADD21FreePoly2,180.000000*%
%ADD22RoundRect,0.076200X-0.495300X0.152400X-0.495300X-0.152400X0.495300X-0.152400X0.495300X0.152400X0*%
%ADD23RoundRect,0.076200X-0.250000X0.350000X-0.250000X-0.350000X0.250000X-0.350000X0.250000X0.350000X0*%
%ADD24RoundRect,0.076200X-0.450000X0.350000X-0.450000X-0.350000X0.450000X-0.350000X0.450000X0.350000X0*%
%ADD25RoundRect,0.076200X0.350000X0.250000X-0.350000X0.250000X-0.350000X-0.250000X0.350000X-0.250000X0*%
%ADD26RoundRect,0.076200X-0.500000X-0.700000X0.500000X-0.700000X0.500000X0.700000X-0.500000X0.700000X0*%
%ADD27RoundRect,0.076200X0.250000X-0.350000X0.250000X0.350000X-0.250000X0.350000X-0.250000X-0.350000X0*%
%ADD28RoundRect,0.076200X-0.750000X0.650000X-0.750000X-0.650000X0.750000X-0.650000X0.750000X0.650000X0*%
%ADD29RoundRect,0.076200X0.750000X-0.650000X0.750000X0.650000X-0.750000X0.650000X-0.750000X-0.650000X0*%
%ADD30RoundRect,0.076200X0.425000X0.350000X-0.425000X0.350000X-0.425000X-0.350000X0.425000X-0.350000X0*%
%ADD31RoundRect,0.076200X-0.425000X-0.350000X0.425000X-0.350000X0.425000X0.350000X-0.425000X0.350000X0*%
%ADD32RoundRect,0.076200X0.650000X0.750000X-0.650000X0.750000X-0.650000X-0.750000X0.650000X-0.750000X0*%
G04 APERTURE END LIST*
D10*
%TO.C,JP1*%
X153591100Y-55552950D03*
X153591100Y-53012950D03*
X151051100Y-55552950D03*
X151051100Y-53012950D03*
X148511100Y-55552950D03*
X148511100Y-53012950D03*
X145971100Y-55552950D03*
X145971100Y-53012950D03*
X143431100Y-55552950D03*
X143431100Y-53012950D03*
%TD*%
D11*
%TO.C,C9*%
X156607300Y-125617950D03*
X156607300Y-123917950D03*
%TD*%
D12*
%TO.C,D2*%
X155689800Y-52060450D03*
X156989800Y-52060450D03*
%TD*%
%TO.C,D1*%
X140132900Y-52060350D03*
X141432900Y-52060350D03*
%TD*%
D13*
%TO.C,LED2*%
X143748600Y-96351750D03*
X143748600Y-98891750D03*
%TD*%
D14*
%TO.C,R19*%
X146606100Y-97606750D03*
X146606100Y-98906750D03*
%TD*%
D15*
%TO.C,C3*%
X145956100Y-90636750D03*
X147256100Y-90636750D03*
%TD*%
%TO.C,C4*%
X148496200Y-90636750D03*
X149796200Y-90636750D03*
%TD*%
D16*
%TO.C,LED3*%
X142850574Y-132809776D03*
X144646626Y-131013724D03*
%TD*%
D17*
%TO.C,R31*%
X147414900Y-131594150D03*
X146114900Y-131594150D03*
%TD*%
D18*
%TO.C,IC5*%
X148229500Y-132866750D03*
X148229500Y-133816750D03*
X148229500Y-134766750D03*
X145617500Y-132866750D03*
X145617500Y-134766750D03*
%TD*%
D15*
%TO.C,C7*%
X146273600Y-123815450D03*
X147573600Y-123815450D03*
%TD*%
%TO.C,C8*%
X148813600Y-123974250D03*
X150113600Y-123974250D03*
%TD*%
D19*
%TO.C,J1*%
X143748600Y-71586750D03*
D20*
X143748600Y-77301750D03*
X143748600Y-67141750D03*
X143748600Y-74761750D03*
%TD*%
D19*
%TO.C,J4*%
X153273600Y-84286750D03*
D20*
X153273600Y-90001750D03*
X153273600Y-79841750D03*
X153273600Y-87461750D03*
%TD*%
D19*
%TO.C,J2*%
X153273600Y-71586750D03*
D20*
X153273600Y-77301750D03*
X153273600Y-67141750D03*
X153273600Y-74761750D03*
%TD*%
D19*
%TO.C,J3*%
X143748600Y-84286750D03*
D20*
X143748600Y-90001750D03*
X143748600Y-79841750D03*
X143748600Y-87461750D03*
%TD*%
D19*
%TO.C,J8*%
X153273600Y-118576750D03*
D20*
X153273600Y-124291750D03*
X153273600Y-114131750D03*
X153273600Y-121751750D03*
%TD*%
D19*
%TO.C,J7*%
X143748600Y-118576750D03*
D20*
X143748600Y-124291750D03*
X143748600Y-114131750D03*
X143748600Y-121751750D03*
%TD*%
D19*
%TO.C,J5*%
X143748600Y-105876750D03*
D20*
X143748600Y-111591750D03*
X143748600Y-101431750D03*
X143748600Y-109051750D03*
%TD*%
D19*
%TO.C,J6*%
X153273600Y-105876750D03*
D20*
X153273600Y-111591750D03*
X153273600Y-101431750D03*
X153273600Y-109051750D03*
%TD*%
D19*
%TO.C,J12*%
X153273600Y-152866750D03*
D21*
X153273600Y-147151750D03*
X153273600Y-157311750D03*
X153273600Y-149691750D03*
%TD*%
D19*
%TO.C,J9*%
X143748600Y-140166750D03*
D21*
X143748600Y-134451750D03*
X143748600Y-144611750D03*
X143748600Y-136991750D03*
%TD*%
D19*
%TO.C,J10*%
X153273600Y-140166750D03*
D21*
X153273600Y-134451750D03*
X153273600Y-144611750D03*
X153273600Y-136991750D03*
%TD*%
D19*
%TO.C,J11*%
X143748600Y-152866750D03*
D21*
X143748600Y-147151750D03*
X143748600Y-157311750D03*
X143748600Y-149691750D03*
%TD*%
D22*
%TO.C,IC3*%
X151228900Y-96034250D03*
X151228900Y-95399250D03*
X151228900Y-94764250D03*
X151228900Y-94129250D03*
X151228900Y-93494250D03*
X151228900Y-92859250D03*
X151228900Y-92224250D03*
X145793300Y-96034250D03*
X145793300Y-95399250D03*
X145793300Y-94764250D03*
X145793300Y-94129250D03*
X145793300Y-93494250D03*
X145793300Y-92859250D03*
X145793300Y-92224250D03*
%TD*%
D23*
%TO.C,D10*%
X155496100Y-97656750D03*
X155496100Y-98956750D03*
%TD*%
%TO.C,D9*%
X154226100Y-97656750D03*
X154226100Y-98956750D03*
%TD*%
D17*
%TO.C,R18*%
X155193600Y-93811750D03*
X153893600Y-93811750D03*
%TD*%
%TO.C,R22*%
X141858600Y-111591750D03*
X140558600Y-111591750D03*
%TD*%
D15*
%TO.C,R17*%
X141828600Y-93811750D03*
X143128600Y-93811750D03*
%TD*%
%TO.C,R23*%
X155163600Y-111591750D03*
X156463600Y-111591750D03*
%TD*%
D24*
%TO.C,R20*%
X151686100Y-98906750D03*
X151686100Y-97606750D03*
%TD*%
%TO.C,R21*%
X152956100Y-98906750D03*
X152956100Y-97606750D03*
%TD*%
D13*
%TO.C,LED1*%
X143748600Y-62061750D03*
X143748600Y-64601750D03*
%TD*%
D24*
%TO.C,R10*%
X141526100Y-64616750D03*
X141526100Y-63316750D03*
%TD*%
D18*
%TO.C,IC2*%
X148388300Y-62858050D03*
X148388300Y-63808050D03*
X148388300Y-64758050D03*
X145776300Y-62858050D03*
X145776300Y-64758050D03*
%TD*%
D22*
%TO.C,IC1*%
X151228900Y-61426750D03*
X151228900Y-60791750D03*
X151228900Y-60156750D03*
X151228900Y-59521750D03*
X151228900Y-58886750D03*
X151228900Y-58251750D03*
X151228900Y-57616750D03*
X145793300Y-61426750D03*
X145793300Y-60791750D03*
X145793300Y-60156750D03*
X145793300Y-59521750D03*
X145793300Y-58886750D03*
X145793300Y-58251750D03*
X145793300Y-57616750D03*
%TD*%
D15*
%TO.C,R6*%
X140558600Y-61744250D03*
X141858600Y-61744250D03*
%TD*%
D14*
%TO.C,R11*%
X150416100Y-63475450D03*
X150416100Y-64775450D03*
%TD*%
D24*
%TO.C,R2*%
X141843600Y-59377950D03*
X141843600Y-58077950D03*
%TD*%
D14*
%TO.C,R3*%
X143113600Y-58077950D03*
X143113600Y-59377950D03*
%TD*%
D23*
%TO.C,D3*%
X144383600Y-57334150D03*
X144383600Y-58634150D03*
%TD*%
D25*
%TO.C,D4*%
X144269200Y-60395050D03*
X142969200Y-60395050D03*
%TD*%
D17*
%TO.C,R4*%
X154241100Y-59839250D03*
X152941100Y-59839250D03*
%TD*%
D15*
%TO.C,R1*%
X152941100Y-58569250D03*
X154241100Y-58569250D03*
%TD*%
D17*
%TO.C,R14*%
X156463600Y-77301750D03*
X155163600Y-77301750D03*
%TD*%
%TO.C,R5*%
X154241100Y-61109250D03*
X152941100Y-61109250D03*
%TD*%
%TO.C,R7*%
X152971100Y-62379250D03*
X151671100Y-62379250D03*
%TD*%
D15*
%TO.C,R13*%
X149766100Y-77301750D03*
X151066100Y-77301750D03*
%TD*%
%TO.C,R12*%
X151671100Y-64919250D03*
X152971100Y-64919250D03*
%TD*%
D17*
%TO.C,R8*%
X155511100Y-62379250D03*
X154211100Y-62379250D03*
%TD*%
%TO.C,R9*%
X154241100Y-63649250D03*
X152941100Y-63649250D03*
%TD*%
D15*
%TO.C,R15*%
X141828600Y-92541750D03*
X143128600Y-92541750D03*
%TD*%
D22*
%TO.C,IC4*%
X151228900Y-130324350D03*
X151228900Y-129689350D03*
X151228900Y-129054350D03*
X151228900Y-128419350D03*
X151228900Y-127784350D03*
X151228900Y-127149350D03*
X151228900Y-126514350D03*
X145793300Y-130324350D03*
X145793300Y-129689350D03*
X145793300Y-129054350D03*
X145793300Y-128419350D03*
X145793300Y-127784350D03*
X145793300Y-127149350D03*
X145793300Y-126514350D03*
%TD*%
D24*
%TO.C,C10*%
X143431300Y-127799050D03*
X143431300Y-126499050D03*
%TD*%
%TO.C,R27*%
X144542300Y-127799150D03*
X144542300Y-126499150D03*
%TD*%
D15*
%TO.C,R29*%
X143416100Y-128895550D03*
X144716100Y-128895550D03*
%TD*%
%TO.C,R34*%
X140558600Y-147469250D03*
X141858600Y-147469250D03*
%TD*%
D17*
%TO.C,R37*%
X147414900Y-147469350D03*
X146114900Y-147469350D03*
%TD*%
D26*
%TO.C,Q3*%
X149624700Y-135234150D03*
X151524700Y-135234150D03*
X150574700Y-133034150D03*
%TD*%
D15*
%TO.C,R32*%
X149607200Y-131594150D03*
X150907200Y-131594150D03*
%TD*%
D25*
%TO.C,D11*%
X151174800Y-125085250D03*
X149874800Y-125085250D03*
%TD*%
D11*
%TO.C,C11*%
X153591100Y-132444250D03*
X153591100Y-130744250D03*
%TD*%
D15*
%TO.C,R35*%
X149448600Y-147469250D03*
X150748600Y-147469250D03*
%TD*%
%TO.C,R36*%
X155481100Y-147469250D03*
X156781100Y-147469250D03*
%TD*%
D14*
%TO.C,C12*%
X155337400Y-132055450D03*
X155337400Y-133355450D03*
%TD*%
D27*
%TO.C,D12*%
X156607500Y-131400750D03*
X156607500Y-130100750D03*
%TD*%
D14*
%TO.C,R30*%
X155337400Y-129515450D03*
X155337400Y-130815450D03*
%TD*%
D15*
%TO.C,R28*%
X154052400Y-128101850D03*
X155352400Y-128101850D03*
%TD*%
%TO.C,R26*%
X154052300Y-126831850D03*
X155352300Y-126831850D03*
%TD*%
D14*
%TO.C,R25*%
X155178700Y-124117950D03*
X155178700Y-125417950D03*
%TD*%
D28*
%TO.C,C2*%
X140573400Y-56662050D03*
X140573400Y-54762050D03*
%TD*%
D29*
%TO.C,C1*%
X156448600Y-54761650D03*
X156448600Y-56661650D03*
%TD*%
D30*
%TO.C,L2*%
X140032100Y-53330550D03*
X141632100Y-53330550D03*
%TD*%
D31*
%TO.C,L1*%
X156989800Y-53330450D03*
X155389800Y-53330450D03*
%TD*%
D26*
%TO.C,Q2*%
X140258700Y-131106650D03*
X142158700Y-131106650D03*
X141208700Y-128906650D03*
%TD*%
%TO.C,Q1*%
X140258600Y-127296750D03*
X142158600Y-127296750D03*
X141208600Y-125096750D03*
%TD*%
D14*
%TO.C,R33*%
X141526100Y-132849250D03*
X141526100Y-134149250D03*
%TD*%
D17*
%TO.C,R24*%
X141858600Y-123656850D03*
X140558600Y-123656850D03*
%TD*%
D11*
%TO.C,C13*%
X140256300Y-134666750D03*
X140256300Y-132966750D03*
%TD*%
D32*
%TO.C,C6*%
X145656100Y-111591650D03*
X147556100Y-111591650D03*
%TD*%
%TO.C,C5*%
X149466200Y-111591550D03*
X151366200Y-111591550D03*
%TD*%
D27*
%TO.C,D6*%
X152638600Y-92982950D03*
X152638600Y-91682950D03*
%TD*%
D17*
%TO.C,R16*%
X155193600Y-92541750D03*
X153893600Y-92541750D03*
%TD*%
D27*
%TO.C,D7*%
X140891100Y-97586750D03*
X140891100Y-96286750D03*
%TD*%
%TO.C,D8*%
X142161100Y-97586750D03*
X142161100Y-96286750D03*
%TD*%
D23*
%TO.C,D5*%
X144383600Y-91783050D03*
X144383600Y-93083050D03*
%TD*%
M02*
