%TF.GenerationSoftware,KiCad,Pcbnew,7.0.5-0*%
%TF.CreationDate,2023-09-10T13:34:50+02:00*%
%TF.ProjectId,kinks,6b696e6b-732e-46b6-9963-61645f706362,rev?*%
%TF.SameCoordinates,Original*%
%TF.FileFunction,Soldermask,Bot*%
%TF.FilePolarity,Negative*%
%FSLAX46Y46*%
G04 Gerber Fmt 4.6, Leading zero omitted, Abs format (unit mm)*
G04 Created by KiCad (PCBNEW 7.0.5-0) date 2023-09-10 13:34:50*
%MOMM*%
%LPD*%
G01*
G04 APERTURE LIST*
G04 Aperture macros list*
%AMFreePoly0*
4,1,25,0.417216,0.947373,0.422118,0.942882,0.942882,0.422118,0.964910,0.374877,0.965200,0.368236,0.965200,-0.368236,0.947373,-0.417216,0.942882,-0.422118,0.422118,-0.942882,0.374877,-0.964910,0.368236,-0.965200,-0.368236,-0.965200,-0.417216,-0.947373,-0.422118,-0.942882,-0.942882,-0.422118,-0.964910,-0.374877,-0.965200,-0.368236,-0.965200,0.368236,-0.947373,0.417216,-0.942882,0.422118,
-0.422118,0.942882,-0.374877,0.964910,-0.368236,0.965200,0.368236,0.965200,0.417216,0.947373,0.417216,0.947373,$1*%
%AMFreePoly1*
4,1,25,0.301485,0.667973,0.306387,0.663482,0.663482,0.306387,0.685510,0.259146,0.685800,0.252505,0.685800,-0.252505,0.667973,-0.301485,0.663482,-0.306387,0.306387,-0.663482,0.259146,-0.685510,0.252505,-0.685800,-0.252505,-0.685800,-0.301485,-0.667973,-0.306387,-0.663482,-0.663482,-0.306387,-0.685510,-0.259146,-0.685800,-0.252505,-0.685800,0.252505,-0.667973,0.301485,-0.663482,0.306387,
-0.306387,0.663482,-0.259146,0.685510,-0.252505,0.685800,0.252505,0.685800,0.301485,0.667973,0.301485,0.667973,$1*%
%AMFreePoly2*
4,1,25,0.438258,0.998173,0.443160,0.993682,0.993682,0.443160,1.015710,0.395919,1.016000,0.389278,1.016000,-0.389278,0.998173,-0.438258,0.993682,-0.443160,0.443160,-0.993682,0.395919,-1.015710,0.389278,-1.016000,-0.389278,-1.016000,-0.438258,-0.998173,-0.443160,-0.993682,-0.993682,-0.443160,-1.015710,-0.395919,-1.016000,-0.389278,-1.016000,0.389278,-0.998173,0.438258,-0.993682,0.443160,
-0.443160,0.993682,-0.395919,1.015710,-0.389278,1.016000,0.389278,1.016000,0.438258,0.998173,0.438258,0.998173,$1*%
G04 Aperture macros list end*
%ADD10C,2.200000*%
%ADD11FreePoly0,0.000000*%
%ADD12FreePoly0,180.000000*%
%ADD13FreePoly1,90.000000*%
%ADD14FreePoly1,225.000000*%
%ADD15FreePoly2,0.000000*%
G04 APERTURE END LIST*
D10*
%TO.C,J8*%
X153273600Y-118576750D03*
D11*
X153273600Y-124291750D03*
X153273600Y-121751750D03*
X153273600Y-114131750D03*
%TD*%
D10*
%TO.C,J11*%
X143748600Y-152866750D03*
D12*
X143748600Y-147151750D03*
X143748600Y-149691750D03*
X143748600Y-157311750D03*
%TD*%
D10*
%TO.C,J3*%
X143748600Y-84286750D03*
D11*
X143748600Y-90001750D03*
X143748600Y-87461750D03*
X143748600Y-79841750D03*
%TD*%
D10*
%TO.C,J10*%
X153273600Y-140166750D03*
D12*
X153273600Y-134451750D03*
X153273600Y-136991750D03*
X153273600Y-144611750D03*
%TD*%
D10*
%TO.C,J7*%
X143748600Y-118576750D03*
D11*
X143748600Y-124291750D03*
X143748600Y-121751750D03*
X143748600Y-114131750D03*
%TD*%
D13*
%TO.C,LED2*%
X143748600Y-98891750D03*
X143748600Y-96351750D03*
%TD*%
D10*
%TO.C,J6*%
X153273600Y-105876750D03*
D11*
X153273600Y-111591750D03*
X153273600Y-109051750D03*
X153273600Y-101431750D03*
%TD*%
D14*
%TO.C,LED3*%
X144646626Y-131013724D03*
X142850574Y-132809776D03*
%TD*%
D10*
%TO.C,J5*%
X143748600Y-105876750D03*
D11*
X143748600Y-111591750D03*
X143748600Y-109051750D03*
X143748600Y-101431750D03*
%TD*%
D10*
%TO.C,J2*%
X153273600Y-71586750D03*
D11*
X153273600Y-77301750D03*
X153273600Y-74761750D03*
X153273600Y-67141750D03*
%TD*%
D10*
%TO.C,J12*%
X153273600Y-152866750D03*
D12*
X153273600Y-147151750D03*
X153273600Y-149691750D03*
X153273600Y-157311750D03*
%TD*%
D13*
%TO.C,LED1*%
X143748600Y-64601750D03*
X143748600Y-62061750D03*
%TD*%
D10*
%TO.C,J9*%
X143748600Y-140166750D03*
D12*
X143748600Y-134451750D03*
X143748600Y-136991750D03*
X143748600Y-144611750D03*
%TD*%
D10*
%TO.C,J4*%
X153273600Y-84286750D03*
D11*
X153273600Y-90001750D03*
X153273600Y-87461750D03*
X153273600Y-79841750D03*
%TD*%
D10*
%TO.C,J1*%
X143748600Y-71586750D03*
D11*
X143748600Y-77301750D03*
X143748600Y-74761750D03*
X143748600Y-67141750D03*
%TD*%
D15*
%TO.C,JP1*%
X143431100Y-53012950D03*
X143431100Y-55552950D03*
X145971100Y-53012950D03*
X145971100Y-55552950D03*
X148511100Y-53012950D03*
X148511100Y-55552950D03*
X151051100Y-53012950D03*
X151051100Y-55552950D03*
X153591100Y-53012950D03*
X153591100Y-55552950D03*
%TD*%
M02*
