%TF.GenerationSoftware,KiCad,Pcbnew,(6.0.11-0)*%
%TF.CreationDate,2023-05-02T23:37:46+02:00*%
%TF.ProjectId,kinks,6b696e6b-732e-46b6-9963-61645f706362,rev?*%
%TF.SameCoordinates,Original*%
%TF.FileFunction,Copper,L2,Bot*%
%TF.FilePolarity,Positive*%
%FSLAX46Y46*%
G04 Gerber Fmt 4.6, Leading zero omitted, Abs format (unit mm)*
G04 Created by KiCad (PCBNEW (6.0.11-0)) date 2023-05-02 23:37:46*
%MOMM*%
%LPD*%
G01*
G04 APERTURE LIST*
G04 Aperture macros list*
%AMOutline5P*
0 Free polygon, 5 corners , with rotation*
0 The origin of the aperture is its center*
0 number of corners: always 5*
0 $1 to $10 corner X, Y*
0 $11 Rotation angle, in degrees counterclockwise*
0 create outline with 5 corners*
4,1,5,$1,$2,$3,$4,$5,$6,$7,$8,$9,$10,$1,$2,$11*%
%AMOutline6P*
0 Free polygon, 6 corners , with rotation*
0 The origin of the aperture is its center*
0 number of corners: always 6*
0 $1 to $12 corner X, Y*
0 $13 Rotation angle, in degrees counterclockwise*
0 create outline with 6 corners*
4,1,6,$1,$2,$3,$4,$5,$6,$7,$8,$9,$10,$11,$12,$1,$2,$13*%
%AMOutline7P*
0 Free polygon, 7 corners , with rotation*
0 The origin of the aperture is its center*
0 number of corners: always 7*
0 $1 to $14 corner X, Y*
0 $15 Rotation angle, in degrees counterclockwise*
0 create outline with 7 corners*
4,1,7,$1,$2,$3,$4,$5,$6,$7,$8,$9,$10,$11,$12,$13,$14,$1,$2,$15*%
%AMOutline8P*
0 Free polygon, 8 corners , with rotation*
0 The origin of the aperture is its center*
0 number of corners: always 8*
0 $1 to $16 corner X, Y*
0 $17 Rotation angle, in degrees counterclockwise*
0 create outline with 8 corners*
4,1,8,$1,$2,$3,$4,$5,$6,$7,$8,$9,$10,$11,$12,$13,$14,$15,$16,$1,$2,$17*%
G04 Aperture macros list end*
%TA.AperFunction,ComponentPad*%
%ADD10Outline8P,-0.939800X0.389278X-0.389278X0.939800X0.389278X0.939800X0.939800X0.389278X0.939800X-0.389278X0.389278X-0.939800X-0.389278X-0.939800X-0.939800X-0.389278X-0.000000*%
%TD*%
%TA.AperFunction,ComponentPad*%
%ADD11Outline8P,-0.609600X0.252505X-0.252505X0.609600X0.252505X0.609600X0.609600X0.252505X0.609600X-0.252505X0.252505X-0.609600X-0.252505X-0.609600X-0.609600X-0.252505X90.000000*%
%TD*%
%TA.AperFunction,ComponentPad*%
%ADD12Outline8P,-0.609600X0.252505X-0.252505X0.609600X0.252505X0.609600X0.609600X0.252505X0.609600X-0.252505X0.252505X-0.609600X-0.252505X-0.609600X-0.609600X-0.252505X225.000000*%
%TD*%
%TA.AperFunction,ComponentPad*%
%ADD13Outline8P,-0.889000X0.368236X-0.368236X0.889000X0.368236X0.889000X0.889000X0.368236X0.889000X-0.368236X0.368236X-0.889000X-0.368236X-0.889000X-0.889000X-0.368236X0.000000*%
%TD*%
%TA.AperFunction,ComponentPad*%
%ADD14Outline8P,-0.889000X0.368236X-0.368236X0.889000X0.368236X0.889000X0.889000X0.368236X0.889000X-0.368236X0.368236X-0.889000X-0.368236X-0.889000X-0.889000X-0.368236X180.000000*%
%TD*%
%TA.AperFunction,ViaPad*%
%ADD15C,1.008000*%
%TD*%
%TA.AperFunction,Conductor*%
%ADD16C,0.254000*%
%TD*%
%TA.AperFunction,Conductor*%
%ADD17C,0.406400*%
%TD*%
G04 APERTURE END LIST*
D10*
%TO.P,JP1,10*%
%TO.N,N$20*%
X153591100Y-55552950D03*
%TO.P,JP1,9*%
X153591100Y-53012950D03*
%TO.P,JP1,8*%
%TO.N,GND*%
X151051100Y-55552950D03*
%TO.P,JP1,7*%
X151051100Y-53012950D03*
%TO.P,JP1,6*%
X148511100Y-55552950D03*
%TO.P,JP1,5*%
X148511100Y-53012950D03*
%TO.P,JP1,4*%
X145971100Y-55552950D03*
%TO.P,JP1,3*%
X145971100Y-53012950D03*
%TO.P,JP1,2*%
%TO.N,N$6*%
X143431100Y-55552950D03*
%TO.P,JP1,1*%
X143431100Y-53012950D03*
%TD*%
D11*
%TO.P,LED2,K*%
%TO.N,N$14*%
X143748600Y-96351750D03*
%TO.P,LED2,A*%
%TO.N,N$29*%
X143748600Y-98891750D03*
%TD*%
D12*
%TO.P,LED3,K*%
%TO.N,N$30*%
X142850574Y-132809776D03*
%TO.P,LED3,A*%
%TO.N,N$19*%
X144646626Y-131013724D03*
%TD*%
D13*
%TO.P,J1,P1*%
%TO.N,GND*%
X143748600Y-77301750D03*
%TO.P,J1,P3*%
%TO.N,N$38*%
X143748600Y-67141750D03*
%TO.P,J1,P2*%
%TO.N,GND*%
X143748600Y-74761750D03*
%TD*%
%TO.P,J4,P1*%
%TO.N,GND*%
X153273600Y-90001750D03*
%TO.P,J4,P3*%
%TO.N,N$34*%
X153273600Y-79841750D03*
%TO.P,J4,P2*%
%TO.N,N/C*%
X153273600Y-87461750D03*
%TD*%
%TO.P,J2,P1*%
%TO.N,GND*%
X153273600Y-77301750D03*
%TO.P,J2,P3*%
%TO.N,N$24*%
X153273600Y-67141750D03*
%TO.P,J2,P2*%
%TO.N,N/C*%
X153273600Y-74761750D03*
%TD*%
%TO.P,J3,P1*%
%TO.N,GND*%
X143748600Y-90001750D03*
%TO.P,J3,P3*%
%TO.N,N$32*%
X143748600Y-79841750D03*
%TO.P,J3,P2*%
%TO.N,N/C*%
X143748600Y-87461750D03*
%TD*%
%TO.P,J8,P1*%
%TO.N,GND*%
X153273600Y-124291750D03*
%TO.P,J8,P3*%
%TO.N,N$17*%
X153273600Y-114131750D03*
%TO.P,J8,P2*%
%TO.N,N/C*%
X153273600Y-121751750D03*
%TD*%
%TO.P,J7,P1*%
%TO.N,GND*%
X143748600Y-124291750D03*
%TO.P,J7,P3*%
%TO.N,N$47*%
X143748600Y-114131750D03*
%TO.P,J7,P2*%
%TO.N,N/C*%
X143748600Y-121751750D03*
%TD*%
%TO.P,J5,P1*%
%TO.N,GND*%
X143748600Y-111591750D03*
%TO.P,J5,P3*%
%TO.N,A*%
X143748600Y-101431750D03*
%TO.P,J5,P2*%
%TO.N,GND*%
X143748600Y-109051750D03*
%TD*%
%TO.P,J6,P1*%
%TO.N,GND*%
X153273600Y-111591750D03*
%TO.P,J6,P3*%
%TO.N,B*%
X153273600Y-101431750D03*
%TO.P,J6,P2*%
%TO.N,GND*%
X153273600Y-109051750D03*
%TD*%
D14*
%TO.P,J12,P1*%
%TO.N,GND*%
X153273600Y-147151750D03*
%TO.P,J12,P3*%
%TO.N,N$48*%
X153273600Y-157311750D03*
%TO.P,J12,P2*%
%TO.N,N/C*%
X153273600Y-149691750D03*
%TD*%
%TO.P,J9,P1*%
%TO.N,GND*%
X143748600Y-134451750D03*
%TO.P,J9,P3*%
%TO.N,N$40*%
X143748600Y-144611750D03*
%TO.P,J9,P2*%
%TO.N,N$37*%
X143748600Y-136991750D03*
%TD*%
%TO.P,J10,P1*%
%TO.N,GND*%
X153273600Y-134451750D03*
%TO.P,J10,P3*%
%TO.N,N$49*%
X153273600Y-144611750D03*
%TO.P,J10,P2*%
%TO.N,GND*%
X153273600Y-136991750D03*
%TD*%
%TO.P,J11,P1*%
%TO.N,GND*%
X143748600Y-147151750D03*
%TO.P,J11,P3*%
%TO.N,N$37*%
X143748600Y-157311750D03*
%TO.P,J11,P2*%
%TO.N,N/C*%
X143748600Y-149691750D03*
%TD*%
D11*
%TO.P,LED1,K*%
%TO.N,N$9*%
X143748600Y-62061750D03*
%TO.P,LED1,A*%
%TO.N,N$11*%
X143748600Y-64601750D03*
%TD*%
D15*
%TO.N,N$2*%
X140891100Y-106511750D03*
X142161100Y-102701750D03*
%TO.N,N$42*%
X149781100Y-127466750D03*
X149781100Y-129371750D03*
%TO.N,N$40*%
X146288600Y-138261750D03*
X147241100Y-129371750D03*
%TO.N,N$36*%
X141208600Y-137309250D03*
X145812400Y-125561750D03*
%TO.N,N$39*%
X141843600Y-69046750D03*
X141843600Y-60474250D03*
%TO.N,N$35*%
X151686100Y-63649250D03*
X149781100Y-70634250D03*
%TO.N,A*%
X150416100Y-100796750D03*
X150416100Y-98891750D03*
%TO.N,VCC*%
X141843600Y-95081750D03*
X141843600Y-90001750D03*
X146288600Y-109051750D03*
X147241100Y-136674250D03*
X142161100Y-54441750D03*
X146923500Y-121751750D03*
X146923600Y-118894250D03*
X147717300Y-59204250D03*
X145336100Y-65871750D03*
X147241100Y-89049250D03*
%TO.N,VEE*%
X155178600Y-90001750D03*
X155178600Y-95081750D03*
X148193600Y-109051750D03*
X148511100Y-137309250D03*
X154861100Y-54441750D03*
X149622400Y-59521750D03*
X149146100Y-122386750D03*
X146923600Y-65871750D03*
X148828600Y-89049250D03*
%TO.N,GND*%
X145653500Y-103019350D03*
X149781100Y-96986750D03*
X145018600Y-97621750D03*
X151051100Y-66189250D03*
X148511200Y-66189250D03*
X145812300Y-113496850D03*
X148828500Y-103019350D03*
X143431000Y-130165650D03*
X148828500Y-120481850D03*
X145812300Y-120481850D03*
X140256000Y-121275650D03*
X148511000Y-131594450D03*
X148034800Y-72856750D03*
X156766200Y-72856650D03*
X140256200Y-67776650D03*
X140256200Y-72856650D03*
X140256200Y-77936650D03*
X156766200Y-83016650D03*
X150098500Y-107781850D03*
X145082100Y-107781850D03*
X156766100Y-108416750D03*
X140256100Y-108416750D03*
X145177400Y-81429250D03*
X156766200Y-103336650D03*
X150892400Y-68094250D03*
X148034800Y-78571750D03*
X145177400Y-68094250D03*
X147241000Y-127308150D03*
X148828500Y-116036850D03*
X156766100Y-58251750D03*
X140256100Y-58251750D03*
X140256200Y-83016650D03*
X140256100Y-116036750D03*
X156766100Y-116036750D03*
X156766100Y-121116750D03*
X156766100Y-132546750D03*
X156766100Y-138896750D03*
X140256100Y-138896750D03*
X140256100Y-143976750D03*
X156766100Y-143976750D03*
X140256100Y-149056750D03*
X156766100Y-149056750D03*
X156766100Y-157946750D03*
X140256100Y-157946750D03*
X148828500Y-113496850D03*
X145812300Y-116036850D03*
X147241100Y-149056750D03*
X156766100Y-128736750D03*
X148511100Y-68094250D03*
X140256200Y-103336650D03*
X145177300Y-78571750D03*
X148034900Y-81429250D03*
X148511100Y-58093050D03*
X142954900Y-63331650D03*
X149781100Y-92859250D03*
X147241100Y-95081750D03*
%TD*%
D16*
%TO.N,N$2*%
X140891100Y-106511750D02*
X140891100Y-103971750D01*
X140891100Y-103971750D02*
X142161100Y-102701750D01*
%TO.N,N$42*%
X149781100Y-129371750D02*
X149781100Y-127466750D01*
%TO.N,N$40*%
X146288600Y-138261750D02*
X146288500Y-138261750D01*
X146288500Y-138261750D02*
X145653600Y-137626850D01*
X145653600Y-137626850D02*
X145653600Y-132229250D01*
X145653600Y-132229250D02*
X147241100Y-130641750D01*
X147241100Y-130641750D02*
X147241100Y-129371750D01*
%TO.N,N$36*%
X141208600Y-137309250D02*
X141208600Y-130165450D01*
X145336100Y-126038050D02*
X145812400Y-125561750D01*
X141208600Y-130165450D02*
X145336100Y-126038050D01*
%TO.N,N$39*%
X141843600Y-69046750D02*
X141843600Y-60474250D01*
%TO.N,N$35*%
X149781100Y-70634250D02*
X149781100Y-65554250D01*
X149781100Y-65554250D02*
X151686100Y-63649250D01*
%TO.N,A*%
X150416100Y-100796750D02*
X150416100Y-98891750D01*
%TO.N,VCC*%
X141843600Y-90001750D02*
X141843600Y-95081750D01*
D17*
X146923600Y-109051750D02*
X146288600Y-109051750D01*
X146923600Y-121751650D02*
X146923600Y-118894250D01*
X146923500Y-121751750D02*
X146923600Y-121751650D01*
D16*
X147241100Y-136674250D02*
X147241100Y-134451750D01*
X147241100Y-134451750D02*
X149463600Y-132229250D01*
X149463600Y-132229250D02*
X149463600Y-130324250D01*
X149463600Y-130324250D02*
X148828600Y-129689250D01*
X148828600Y-129689250D02*
X148828600Y-123656850D01*
X148828600Y-123656850D02*
X146923500Y-121751750D01*
D17*
X141843600Y-54759250D02*
X142161100Y-54441750D01*
X141843600Y-56981750D02*
X141843600Y-54759250D01*
X143113600Y-58251750D02*
X141843600Y-56981750D01*
X144066100Y-58251750D02*
X143113600Y-58251750D01*
X145336100Y-59521750D02*
X144066100Y-58251750D01*
X148193600Y-90001750D02*
X147241100Y-89049250D01*
X148193600Y-97939250D02*
X148193600Y-90001750D01*
X147241100Y-89049250D02*
X147241100Y-88414250D01*
X147241100Y-88414250D02*
X146288600Y-87461750D01*
X146288600Y-87461750D02*
X146288600Y-66824250D01*
X146923600Y-118894250D02*
X146923500Y-118894350D01*
X146923500Y-121751750D02*
X146923500Y-121751850D01*
X146923600Y-109051750D02*
X146923600Y-99209250D01*
X146923600Y-118894250D02*
X146923600Y-109051750D01*
D16*
X147399800Y-59521750D02*
X147717300Y-59204250D01*
X145336100Y-59521750D02*
X147399800Y-59521750D01*
D17*
X146923600Y-99209250D02*
X148193600Y-97939250D01*
X146288600Y-66824250D02*
X145336100Y-65871750D01*
X145336100Y-65871750D02*
X145336100Y-59521750D01*
D16*
%TO.N,VEE*%
X155178600Y-90001750D02*
X155178600Y-95081750D01*
D17*
X147558600Y-109051750D02*
X148193600Y-109051750D01*
D16*
X148511100Y-137309250D02*
X148511100Y-134134250D01*
X150733600Y-131911750D02*
X150733600Y-126672950D01*
X150733600Y-126672950D02*
X149463600Y-125561750D01*
X149463600Y-125561750D02*
X149463600Y-122704250D01*
X149463600Y-122704250D02*
X149146100Y-122386750D01*
D17*
X149146100Y-122386750D02*
X147876100Y-121116750D01*
D16*
X148511100Y-134134250D02*
X150733600Y-131911750D01*
D17*
X154861100Y-54759250D02*
X154861100Y-54441750D01*
X155178600Y-55076750D02*
X154861100Y-54759250D01*
X155178600Y-56664250D02*
X155178600Y-55076750D01*
X153273600Y-58251750D02*
X155178600Y-56664250D01*
X150892400Y-58251750D02*
X153273600Y-58251750D01*
X146923600Y-62220550D02*
X149622400Y-59521750D01*
X149622400Y-59521750D02*
X150892400Y-58251750D01*
X147876100Y-121116750D02*
X147876100Y-118417950D01*
X147876100Y-118417950D02*
X147558600Y-118100450D01*
X147558600Y-109051750D02*
X147558600Y-101908050D01*
X147558600Y-118100450D02*
X147558600Y-109051750D01*
X147558600Y-101908050D02*
X147558700Y-99526750D01*
X148828600Y-98256650D02*
X148828600Y-89049250D01*
X148511100Y-98574150D02*
X148828600Y-98256650D01*
X148828600Y-89049250D02*
X146923600Y-87144250D01*
X147558700Y-99526750D02*
X148511100Y-98574150D01*
X146923600Y-87144250D02*
X146923600Y-65871750D01*
X146923600Y-65871750D02*
X146923600Y-62220550D01*
%TD*%
%TA.AperFunction,Conductor*%
%TO.N,GND*%
G36*
X157949131Y-50835163D02*
G01*
X157985676Y-50885463D01*
X157990600Y-50916550D01*
X157990600Y-159090650D01*
X157971387Y-159149781D01*
X157921087Y-159186326D01*
X157890000Y-159191250D01*
X139112200Y-159191250D01*
X139053069Y-159172037D01*
X139016524Y-159121737D01*
X139011600Y-159090650D01*
X139011600Y-157700142D01*
X142655900Y-157700142D01*
X142667857Y-157759801D01*
X142701310Y-157809772D01*
X143250580Y-158359040D01*
X143301219Y-158392770D01*
X143343333Y-158401109D01*
X143355379Y-158403494D01*
X143355381Y-158403494D01*
X143360208Y-158404450D01*
X144136992Y-158404450D01*
X144196651Y-158392493D01*
X144246622Y-158359040D01*
X144795890Y-157809770D01*
X144812282Y-157785161D01*
X144824137Y-157767363D01*
X144824137Y-157767362D01*
X144829620Y-157759131D01*
X144841300Y-157700142D01*
X152180900Y-157700142D01*
X152192857Y-157759801D01*
X152226310Y-157809772D01*
X152775580Y-158359040D01*
X152826219Y-158392770D01*
X152868333Y-158401109D01*
X152880379Y-158403494D01*
X152880381Y-158403494D01*
X152885208Y-158404450D01*
X153661992Y-158404450D01*
X153721651Y-158392493D01*
X153771622Y-158359040D01*
X154320890Y-157809770D01*
X154337282Y-157785161D01*
X154349137Y-157767363D01*
X154349137Y-157767362D01*
X154354620Y-157759131D01*
X154366300Y-157700142D01*
X154366300Y-156923358D01*
X154354343Y-156863699D01*
X154320890Y-156813728D01*
X153771620Y-156264460D01*
X153720981Y-156230730D01*
X153678867Y-156222391D01*
X153666821Y-156220006D01*
X153666819Y-156220006D01*
X153661992Y-156219050D01*
X152885208Y-156219050D01*
X152825549Y-156231007D01*
X152775578Y-156264460D01*
X152226310Y-156813730D01*
X152223550Y-156817874D01*
X152198502Y-156855479D01*
X152192580Y-156864369D01*
X152180900Y-156923358D01*
X152180900Y-157700142D01*
X144841300Y-157700142D01*
X144841300Y-156923358D01*
X144829343Y-156863699D01*
X144795890Y-156813728D01*
X144246620Y-156264460D01*
X144195981Y-156230730D01*
X144153867Y-156222391D01*
X144141821Y-156220006D01*
X144141819Y-156220006D01*
X144136992Y-156219050D01*
X143360208Y-156219050D01*
X143300549Y-156231007D01*
X143250578Y-156264460D01*
X142701310Y-156813730D01*
X142698550Y-156817874D01*
X142673502Y-156855479D01*
X142667580Y-156864369D01*
X142655900Y-156923358D01*
X142655900Y-157700142D01*
X139011600Y-157700142D01*
X139011600Y-152866750D01*
X142392941Y-152866750D01*
X142413537Y-153102158D01*
X142474697Y-153330413D01*
X142574565Y-153544579D01*
X142577080Y-153548171D01*
X142577083Y-153548176D01*
X142577084Y-153548177D01*
X142710105Y-153738151D01*
X142877199Y-153905245D01*
X142880793Y-153907762D01*
X142880796Y-153907764D01*
X143067174Y-154038267D01*
X143067179Y-154038270D01*
X143070771Y-154040785D01*
X143284937Y-154140653D01*
X143289184Y-154141791D01*
X143508944Y-154200675D01*
X143508947Y-154200675D01*
X143513192Y-154201813D01*
X143608943Y-154210190D01*
X143687448Y-154217059D01*
X143687454Y-154217059D01*
X143689634Y-154217250D01*
X143807566Y-154217250D01*
X143809746Y-154217059D01*
X143809752Y-154217059D01*
X143888257Y-154210190D01*
X143984008Y-154201813D01*
X143988253Y-154200675D01*
X143988256Y-154200675D01*
X144208016Y-154141791D01*
X144212263Y-154140653D01*
X144426429Y-154040785D01*
X144430021Y-154038270D01*
X144430026Y-154038267D01*
X144616404Y-153907764D01*
X144616407Y-153907762D01*
X144620001Y-153905245D01*
X144787095Y-153738151D01*
X144922635Y-153544580D01*
X145022503Y-153330413D01*
X145083663Y-153102158D01*
X145104259Y-152866750D01*
X151917941Y-152866750D01*
X151938537Y-153102158D01*
X151999697Y-153330413D01*
X152099565Y-153544579D01*
X152102080Y-153548171D01*
X152102083Y-153548176D01*
X152102084Y-153548177D01*
X152235105Y-153738151D01*
X152402199Y-153905245D01*
X152405793Y-153907762D01*
X152405796Y-153907764D01*
X152592174Y-154038267D01*
X152592179Y-154038270D01*
X152595771Y-154040785D01*
X152809937Y-154140653D01*
X152814184Y-154141791D01*
X153033944Y-154200675D01*
X153033947Y-154200675D01*
X153038192Y-154201813D01*
X153133943Y-154210190D01*
X153212448Y-154217059D01*
X153212454Y-154217059D01*
X153214634Y-154217250D01*
X153332566Y-154217250D01*
X153334746Y-154217059D01*
X153334752Y-154217059D01*
X153413257Y-154210190D01*
X153509008Y-154201813D01*
X153513253Y-154200675D01*
X153513256Y-154200675D01*
X153733016Y-154141791D01*
X153737263Y-154140653D01*
X153951429Y-154040785D01*
X153955021Y-154038270D01*
X153955026Y-154038267D01*
X154141404Y-153907764D01*
X154141407Y-153907762D01*
X154145001Y-153905245D01*
X154312095Y-153738151D01*
X154447635Y-153544580D01*
X154547503Y-153330413D01*
X154608663Y-153102158D01*
X154629259Y-152866750D01*
X154608663Y-152631342D01*
X154547503Y-152403087D01*
X154447635Y-152188921D01*
X154445120Y-152185329D01*
X154445117Y-152185324D01*
X154314614Y-151998946D01*
X154314612Y-151998943D01*
X154312095Y-151995349D01*
X154145001Y-151828255D01*
X154141407Y-151825738D01*
X154141404Y-151825736D01*
X153955026Y-151695233D01*
X153955021Y-151695230D01*
X153951429Y-151692715D01*
X153737263Y-151592847D01*
X153733016Y-151591709D01*
X153513256Y-151532825D01*
X153513253Y-151532825D01*
X153509008Y-151531687D01*
X153413257Y-151523310D01*
X153334752Y-151516441D01*
X153334746Y-151516441D01*
X153332566Y-151516250D01*
X153214634Y-151516250D01*
X153212454Y-151516441D01*
X153212448Y-151516441D01*
X153133943Y-151523310D01*
X153038192Y-151531687D01*
X153033947Y-151532825D01*
X153033944Y-151532825D01*
X152814184Y-151591709D01*
X152809937Y-151592847D01*
X152595771Y-151692715D01*
X152592179Y-151695230D01*
X152592174Y-151695233D01*
X152405796Y-151825736D01*
X152405793Y-151825738D01*
X152402199Y-151828255D01*
X152235105Y-151995349D01*
X152099565Y-152188920D01*
X151999697Y-152403087D01*
X151938537Y-152631342D01*
X151917941Y-152866750D01*
X145104259Y-152866750D01*
X145083663Y-152631342D01*
X145022503Y-152403087D01*
X144922635Y-152188921D01*
X144920120Y-152185329D01*
X144920117Y-152185324D01*
X144789614Y-151998946D01*
X144789612Y-151998943D01*
X144787095Y-151995349D01*
X144620001Y-151828255D01*
X144616407Y-151825738D01*
X144616404Y-151825736D01*
X144430026Y-151695233D01*
X144430021Y-151695230D01*
X144426429Y-151692715D01*
X144212263Y-151592847D01*
X144208016Y-151591709D01*
X143988256Y-151532825D01*
X143988253Y-151532825D01*
X143984008Y-151531687D01*
X143888257Y-151523310D01*
X143809752Y-151516441D01*
X143809746Y-151516441D01*
X143807566Y-151516250D01*
X143689634Y-151516250D01*
X143687454Y-151516441D01*
X143687448Y-151516441D01*
X143608943Y-151523310D01*
X143513192Y-151531687D01*
X143508947Y-151532825D01*
X143508944Y-151532825D01*
X143289184Y-151591709D01*
X143284937Y-151592847D01*
X143070771Y-151692715D01*
X143067179Y-151695230D01*
X143067174Y-151695233D01*
X142880796Y-151825736D01*
X142880793Y-151825738D01*
X142877199Y-151828255D01*
X142710105Y-151995349D01*
X142574565Y-152188920D01*
X142474697Y-152403087D01*
X142413537Y-152631342D01*
X142392941Y-152866750D01*
X139011600Y-152866750D01*
X139011600Y-147559196D01*
X142403199Y-147559196D01*
X142403577Y-147565338D01*
X142410920Y-147624875D01*
X142414371Y-147637945D01*
X142461773Y-147752103D01*
X142468584Y-147763760D01*
X142505099Y-147810412D01*
X142509125Y-147814959D01*
X143085363Y-148391196D01*
X143089979Y-148395277D01*
X143137268Y-148432183D01*
X143148949Y-148438985D01*
X143228301Y-148471772D01*
X143275614Y-148512110D01*
X143290181Y-148572554D01*
X143266438Y-148630016D01*
X143254191Y-148642042D01*
X143250578Y-148644460D01*
X142701310Y-149193730D01*
X142698550Y-149197874D01*
X142673502Y-149235479D01*
X142667580Y-149244369D01*
X142655900Y-149303358D01*
X142655900Y-150080142D01*
X142667857Y-150139801D01*
X142701310Y-150189772D01*
X143250580Y-150739040D01*
X143301219Y-150772770D01*
X143343333Y-150781109D01*
X143355379Y-150783494D01*
X143355381Y-150783494D01*
X143360208Y-150784450D01*
X144136992Y-150784450D01*
X144196651Y-150772493D01*
X144246622Y-150739040D01*
X144795890Y-150189770D01*
X144812282Y-150165161D01*
X144824137Y-150147363D01*
X144824137Y-150147362D01*
X144829620Y-150139131D01*
X144841300Y-150080142D01*
X144841300Y-149303358D01*
X144829343Y-149243699D01*
X144795890Y-149193728D01*
X144246620Y-148644460D01*
X144243385Y-148642306D01*
X144210014Y-148590258D01*
X144213629Y-148528189D01*
X144253037Y-148480099D01*
X144268757Y-148471878D01*
X144348953Y-148438578D01*
X144360610Y-148431766D01*
X144407262Y-148395251D01*
X144411809Y-148391225D01*
X144988046Y-147814987D01*
X144992127Y-147810371D01*
X145029033Y-147763082D01*
X145035834Y-147751401D01*
X145083038Y-147637159D01*
X145086463Y-147624102D01*
X145093631Y-147565300D01*
X145094000Y-147559226D01*
X145094000Y-147559196D01*
X151928199Y-147559196D01*
X151928577Y-147565338D01*
X151935920Y-147624875D01*
X151939371Y-147637945D01*
X151986773Y-147752103D01*
X151993584Y-147763760D01*
X152030099Y-147810412D01*
X152034125Y-147814959D01*
X152610363Y-148391196D01*
X152614979Y-148395277D01*
X152662268Y-148432183D01*
X152673949Y-148438985D01*
X152753301Y-148471772D01*
X152800614Y-148512110D01*
X152815181Y-148572554D01*
X152791438Y-148630016D01*
X152779191Y-148642042D01*
X152775578Y-148644460D01*
X152226310Y-149193730D01*
X152223550Y-149197874D01*
X152198502Y-149235479D01*
X152192580Y-149244369D01*
X152180900Y-149303358D01*
X152180900Y-150080142D01*
X152192857Y-150139801D01*
X152226310Y-150189772D01*
X152775580Y-150739040D01*
X152826219Y-150772770D01*
X152868333Y-150781109D01*
X152880379Y-150783494D01*
X152880381Y-150783494D01*
X152885208Y-150784450D01*
X153661992Y-150784450D01*
X153721651Y-150772493D01*
X153771622Y-150739040D01*
X154320890Y-150189770D01*
X154337282Y-150165161D01*
X154349137Y-150147363D01*
X154349137Y-150147362D01*
X154354620Y-150139131D01*
X154366300Y-150080142D01*
X154366300Y-149303358D01*
X154354343Y-149243699D01*
X154320890Y-149193728D01*
X153771620Y-148644460D01*
X153768385Y-148642306D01*
X153735014Y-148590258D01*
X153738629Y-148528189D01*
X153778037Y-148480099D01*
X153793757Y-148471878D01*
X153873953Y-148438578D01*
X153885610Y-148431766D01*
X153932262Y-148395251D01*
X153936809Y-148391225D01*
X154513046Y-147814987D01*
X154517127Y-147810371D01*
X154554033Y-147763082D01*
X154560834Y-147751401D01*
X154608038Y-147637159D01*
X154611463Y-147624102D01*
X154618631Y-147565300D01*
X154619000Y-147559226D01*
X154619000Y-147395883D01*
X154614812Y-147382993D01*
X154610623Y-147379950D01*
X151944132Y-147379950D01*
X151931242Y-147384138D01*
X151928199Y-147388327D01*
X151928199Y-147559196D01*
X145094000Y-147559196D01*
X145094000Y-147395883D01*
X145089812Y-147382993D01*
X145085623Y-147379950D01*
X142419132Y-147379950D01*
X142406242Y-147384138D01*
X142403199Y-147388327D01*
X142403199Y-147559196D01*
X139011600Y-147559196D01*
X139011600Y-146907617D01*
X142403200Y-146907617D01*
X142407388Y-146920507D01*
X142411577Y-146923550D01*
X145078068Y-146923550D01*
X145090958Y-146919362D01*
X145094001Y-146915173D01*
X145094001Y-146907617D01*
X151928200Y-146907617D01*
X151932388Y-146920507D01*
X151936577Y-146923550D01*
X154603068Y-146923550D01*
X154615958Y-146919362D01*
X154619001Y-146915173D01*
X154619001Y-146744304D01*
X154618623Y-146738162D01*
X154611280Y-146678625D01*
X154607829Y-146665555D01*
X154560427Y-146551397D01*
X154553616Y-146539740D01*
X154517101Y-146493088D01*
X154513075Y-146488541D01*
X153936837Y-145912304D01*
X153932221Y-145908223D01*
X153884932Y-145871317D01*
X153873251Y-145864515D01*
X153793899Y-145831728D01*
X153746586Y-145791390D01*
X153732019Y-145730946D01*
X153755762Y-145673484D01*
X153768009Y-145661458D01*
X153771622Y-145659040D01*
X154320890Y-145109770D01*
X154337282Y-145085161D01*
X154349137Y-145067363D01*
X154349137Y-145067362D01*
X154354620Y-145059131D01*
X154366300Y-145000142D01*
X154366300Y-144223358D01*
X154354343Y-144163699D01*
X154320890Y-144113728D01*
X153771620Y-143564460D01*
X153720981Y-143530730D01*
X153678867Y-143522391D01*
X153666821Y-143520006D01*
X153666819Y-143520006D01*
X153661992Y-143519050D01*
X152885208Y-143519050D01*
X152825549Y-143531007D01*
X152775578Y-143564460D01*
X152226310Y-144113730D01*
X152223550Y-144117874D01*
X152198502Y-144155479D01*
X152192580Y-144164369D01*
X152180900Y-144223358D01*
X152180900Y-145000142D01*
X152192857Y-145059801D01*
X152226310Y-145109772D01*
X152775580Y-145659040D01*
X152778815Y-145661194D01*
X152812186Y-145713242D01*
X152808571Y-145775311D01*
X152769163Y-145823401D01*
X152753443Y-145831622D01*
X152673247Y-145864922D01*
X152661590Y-145871734D01*
X152614938Y-145908249D01*
X152610391Y-145912275D01*
X152034154Y-146488513D01*
X152030073Y-146493129D01*
X151993167Y-146540418D01*
X151986366Y-146552099D01*
X151939162Y-146666341D01*
X151935737Y-146679398D01*
X151928569Y-146738200D01*
X151928200Y-146744274D01*
X151928200Y-146907617D01*
X145094001Y-146907617D01*
X145094001Y-146744304D01*
X145093623Y-146738162D01*
X145086280Y-146678625D01*
X145082829Y-146665555D01*
X145035427Y-146551397D01*
X145028616Y-146539740D01*
X144992101Y-146493088D01*
X144988075Y-146488541D01*
X144411837Y-145912304D01*
X144407221Y-145908223D01*
X144359932Y-145871317D01*
X144348251Y-145864515D01*
X144268899Y-145831728D01*
X144221586Y-145791390D01*
X144207019Y-145730946D01*
X144230762Y-145673484D01*
X144243009Y-145661458D01*
X144246622Y-145659040D01*
X144795890Y-145109770D01*
X144812282Y-145085161D01*
X144824137Y-145067363D01*
X144824137Y-145067362D01*
X144829620Y-145059131D01*
X144841300Y-145000142D01*
X144841300Y-144223358D01*
X144829343Y-144163699D01*
X144795890Y-144113728D01*
X144246620Y-143564460D01*
X144195981Y-143530730D01*
X144153867Y-143522391D01*
X144141821Y-143520006D01*
X144141819Y-143520006D01*
X144136992Y-143519050D01*
X143360208Y-143519050D01*
X143300549Y-143531007D01*
X143250578Y-143564460D01*
X142701310Y-144113730D01*
X142698550Y-144117874D01*
X142673502Y-144155479D01*
X142667580Y-144164369D01*
X142655900Y-144223358D01*
X142655900Y-145000142D01*
X142667857Y-145059801D01*
X142701310Y-145109772D01*
X143250580Y-145659040D01*
X143253815Y-145661194D01*
X143287186Y-145713242D01*
X143283571Y-145775311D01*
X143244163Y-145823401D01*
X143228443Y-145831622D01*
X143148247Y-145864922D01*
X143136590Y-145871734D01*
X143089938Y-145908249D01*
X143085391Y-145912275D01*
X142509154Y-146488513D01*
X142505073Y-146493129D01*
X142468167Y-146540418D01*
X142461366Y-146552099D01*
X142414162Y-146666341D01*
X142410737Y-146679398D01*
X142403569Y-146738200D01*
X142403200Y-146744274D01*
X142403200Y-146907617D01*
X139011600Y-146907617D01*
X139011600Y-140166750D01*
X142392941Y-140166750D01*
X142413537Y-140402158D01*
X142474697Y-140630413D01*
X142574565Y-140844579D01*
X142577080Y-140848171D01*
X142577083Y-140848176D01*
X142577084Y-140848177D01*
X142710105Y-141038151D01*
X142877199Y-141205245D01*
X142880793Y-141207762D01*
X142880796Y-141207764D01*
X143067174Y-141338267D01*
X143067179Y-141338270D01*
X143070771Y-141340785D01*
X143284937Y-141440653D01*
X143289184Y-141441791D01*
X143508944Y-141500675D01*
X143508947Y-141500675D01*
X143513192Y-141501813D01*
X143608943Y-141510190D01*
X143687448Y-141517059D01*
X143687454Y-141517059D01*
X143689634Y-141517250D01*
X143807566Y-141517250D01*
X143809746Y-141517059D01*
X143809752Y-141517059D01*
X143888257Y-141510190D01*
X143984008Y-141501813D01*
X143988253Y-141500675D01*
X143988256Y-141500675D01*
X144208016Y-141441791D01*
X144212263Y-141440653D01*
X144426429Y-141340785D01*
X144430021Y-141338270D01*
X144430026Y-141338267D01*
X144616404Y-141207764D01*
X144616407Y-141207762D01*
X144620001Y-141205245D01*
X144787095Y-141038151D01*
X144922635Y-140844580D01*
X145022503Y-140630413D01*
X145083663Y-140402158D01*
X145104259Y-140166750D01*
X151917941Y-140166750D01*
X151938537Y-140402158D01*
X151999697Y-140630413D01*
X152099565Y-140844579D01*
X152102080Y-140848171D01*
X152102083Y-140848176D01*
X152102084Y-140848177D01*
X152235105Y-141038151D01*
X152402199Y-141205245D01*
X152405793Y-141207762D01*
X152405796Y-141207764D01*
X152592174Y-141338267D01*
X152592179Y-141338270D01*
X152595771Y-141340785D01*
X152809937Y-141440653D01*
X152814184Y-141441791D01*
X153033944Y-141500675D01*
X153033947Y-141500675D01*
X153038192Y-141501813D01*
X153133943Y-141510190D01*
X153212448Y-141517059D01*
X153212454Y-141517059D01*
X153214634Y-141517250D01*
X153332566Y-141517250D01*
X153334746Y-141517059D01*
X153334752Y-141517059D01*
X153413257Y-141510190D01*
X153509008Y-141501813D01*
X153513253Y-141500675D01*
X153513256Y-141500675D01*
X153733016Y-141441791D01*
X153737263Y-141440653D01*
X153951429Y-141340785D01*
X153955021Y-141338270D01*
X153955026Y-141338267D01*
X154141404Y-141207764D01*
X154141407Y-141207762D01*
X154145001Y-141205245D01*
X154312095Y-141038151D01*
X154447635Y-140844580D01*
X154547503Y-140630413D01*
X154608663Y-140402158D01*
X154629259Y-140166750D01*
X154608663Y-139931342D01*
X154547503Y-139703087D01*
X154447635Y-139488921D01*
X154445120Y-139485329D01*
X154445117Y-139485324D01*
X154314614Y-139298946D01*
X154314612Y-139298943D01*
X154312095Y-139295349D01*
X154145001Y-139128255D01*
X154141407Y-139125738D01*
X154141404Y-139125736D01*
X153955026Y-138995233D01*
X153955021Y-138995230D01*
X153951429Y-138992715D01*
X153898540Y-138968052D01*
X153816459Y-138929777D01*
X153737263Y-138892847D01*
X153608200Y-138858265D01*
X153513256Y-138832825D01*
X153513253Y-138832825D01*
X153509008Y-138831687D01*
X153413257Y-138823310D01*
X153334752Y-138816441D01*
X153334746Y-138816441D01*
X153332566Y-138816250D01*
X153214634Y-138816250D01*
X153212454Y-138816441D01*
X153212448Y-138816441D01*
X153133943Y-138823310D01*
X153038192Y-138831687D01*
X153033947Y-138832825D01*
X153033944Y-138832825D01*
X152939000Y-138858265D01*
X152809937Y-138892847D01*
X152730741Y-138929777D01*
X152648661Y-138968052D01*
X152595771Y-138992715D01*
X152592179Y-138995230D01*
X152592174Y-138995233D01*
X152405796Y-139125736D01*
X152405793Y-139125738D01*
X152402199Y-139128255D01*
X152235105Y-139295349D01*
X152099565Y-139488920D01*
X151999697Y-139703087D01*
X151938537Y-139931342D01*
X151917941Y-140166750D01*
X145104259Y-140166750D01*
X145083663Y-139931342D01*
X145022503Y-139703087D01*
X144922635Y-139488921D01*
X144920120Y-139485329D01*
X144920117Y-139485324D01*
X144789614Y-139298946D01*
X144789612Y-139298943D01*
X144787095Y-139295349D01*
X144620001Y-139128255D01*
X144616407Y-139125738D01*
X144616404Y-139125736D01*
X144430026Y-138995233D01*
X144430021Y-138995230D01*
X144426429Y-138992715D01*
X144373540Y-138968052D01*
X144291459Y-138929777D01*
X144212263Y-138892847D01*
X144083200Y-138858265D01*
X143988256Y-138832825D01*
X143988253Y-138832825D01*
X143984008Y-138831687D01*
X143888257Y-138823310D01*
X143809752Y-138816441D01*
X143809746Y-138816441D01*
X143807566Y-138816250D01*
X143689634Y-138816250D01*
X143687454Y-138816441D01*
X143687448Y-138816441D01*
X143608943Y-138823310D01*
X143513192Y-138831687D01*
X143508947Y-138832825D01*
X143508944Y-138832825D01*
X143414000Y-138858265D01*
X143284937Y-138892847D01*
X143205741Y-138929777D01*
X143123661Y-138968052D01*
X143070771Y-138992715D01*
X143067179Y-138995230D01*
X143067174Y-138995233D01*
X142880796Y-139125736D01*
X142880793Y-139125738D01*
X142877199Y-139128255D01*
X142710105Y-139295349D01*
X142574565Y-139488920D01*
X142474697Y-139703087D01*
X142413537Y-139931342D01*
X142392941Y-140166750D01*
X139011600Y-140166750D01*
X139011600Y-137301785D01*
X140495741Y-137301785D01*
X140496406Y-137307809D01*
X140496406Y-137307813D01*
X140504267Y-137379013D01*
X140514538Y-137472041D01*
X140522487Y-137493762D01*
X140564298Y-137608017D01*
X140573403Y-137632899D01*
X140614624Y-137694242D01*
X140664703Y-137768766D01*
X140668940Y-137775072D01*
X140795632Y-137890353D01*
X140946165Y-137972086D01*
X140952035Y-137973626D01*
X141105982Y-138014013D01*
X141105983Y-138014013D01*
X141111849Y-138015552D01*
X141195029Y-138016859D01*
X141277055Y-138018148D01*
X141277057Y-138018148D01*
X141283118Y-138018243D01*
X141289029Y-138016889D01*
X141289031Y-138016889D01*
X141444176Y-137981356D01*
X141444179Y-137981355D01*
X141450086Y-137980002D01*
X141603112Y-137903038D01*
X141607724Y-137899099D01*
X141607727Y-137899097D01*
X141728750Y-137795733D01*
X141733362Y-137791794D01*
X141824746Y-137664619D01*
X141829780Y-137657614D01*
X141829782Y-137657611D01*
X141833317Y-137652691D01*
X141841274Y-137632899D01*
X141894945Y-137499389D01*
X141894945Y-137499388D01*
X141897207Y-137493762D01*
X141898357Y-137485686D01*
X141920877Y-137327447D01*
X141921342Y-137324180D01*
X141921498Y-137309250D01*
X141900920Y-137139200D01*
X141845374Y-136992200D01*
X141842518Y-136984643D01*
X141842517Y-136984641D01*
X141840373Y-136978967D01*
X141743353Y-136837802D01*
X141615461Y-136723854D01*
X141610101Y-136721016D01*
X141610098Y-136721014D01*
X141592825Y-136711868D01*
X141549558Y-136667219D01*
X141539300Y-136622962D01*
X141539300Y-134859196D01*
X142403199Y-134859196D01*
X142403577Y-134865338D01*
X142410920Y-134924875D01*
X142414371Y-134937945D01*
X142461773Y-135052103D01*
X142468584Y-135063760D01*
X142505099Y-135110412D01*
X142509125Y-135114959D01*
X143085363Y-135691196D01*
X143089979Y-135695277D01*
X143137268Y-135732183D01*
X143148949Y-135738985D01*
X143228301Y-135771772D01*
X143275614Y-135812110D01*
X143290181Y-135872554D01*
X143266438Y-135930016D01*
X143254191Y-135942042D01*
X143250578Y-135944460D01*
X143247098Y-135947940D01*
X143110413Y-136084626D01*
X142701310Y-136493730D01*
X142698550Y-136497874D01*
X142673502Y-136535479D01*
X142667580Y-136544369D01*
X142655900Y-136603358D01*
X142655900Y-137380142D01*
X142667857Y-137439801D01*
X142701310Y-137489772D01*
X142704787Y-137493249D01*
X142844438Y-137632899D01*
X143250580Y-138039040D01*
X143301219Y-138072770D01*
X143343333Y-138081109D01*
X143355379Y-138083494D01*
X143355381Y-138083494D01*
X143360208Y-138084450D01*
X144136992Y-138084450D01*
X144196651Y-138072493D01*
X144246622Y-138039040D01*
X144629544Y-137656117D01*
X145319076Y-137656117D01*
X145321354Y-137664619D01*
X145329291Y-137694242D01*
X145331191Y-137702808D01*
X145338049Y-137741701D01*
X145342447Y-137749319D01*
X145344476Y-137754893D01*
X145346983Y-137760268D01*
X145349260Y-137768766D01*
X145354309Y-137775976D01*
X145354309Y-137775977D01*
X145371905Y-137801108D01*
X145376619Y-137808507D01*
X145391959Y-137835075D01*
X145396361Y-137842699D01*
X145403103Y-137848356D01*
X145426611Y-137868082D01*
X145433081Y-137874011D01*
X145568305Y-138009235D01*
X145596531Y-138064633D01*
X145596909Y-138093498D01*
X145575741Y-138254285D01*
X145576406Y-138260309D01*
X145576406Y-138260313D01*
X145584427Y-138332962D01*
X145594538Y-138424541D01*
X145653403Y-138585399D01*
X145748940Y-138727572D01*
X145875632Y-138842853D01*
X146026165Y-138924586D01*
X146032035Y-138926126D01*
X146185982Y-138966513D01*
X146185983Y-138966513D01*
X146191849Y-138968052D01*
X146275029Y-138969359D01*
X146357055Y-138970648D01*
X146357057Y-138970648D01*
X146363118Y-138970743D01*
X146369029Y-138969389D01*
X146369031Y-138969389D01*
X146524176Y-138933856D01*
X146524179Y-138933855D01*
X146530086Y-138932502D01*
X146683112Y-138855538D01*
X146687724Y-138851599D01*
X146687727Y-138851597D01*
X146808750Y-138748233D01*
X146813362Y-138744294D01*
X146845717Y-138699268D01*
X146909780Y-138610114D01*
X146909782Y-138610111D01*
X146913317Y-138605191D01*
X146921274Y-138585399D01*
X146974945Y-138451889D01*
X146974945Y-138451888D01*
X146977207Y-138446262D01*
X146980299Y-138424541D01*
X147000877Y-138279947D01*
X147001342Y-138276680D01*
X147001498Y-138261750D01*
X146980920Y-138091700D01*
X146978181Y-138084450D01*
X146922518Y-137937143D01*
X146922517Y-137937141D01*
X146920373Y-137931467D01*
X146823353Y-137790302D01*
X146695461Y-137676354D01*
X146544080Y-137596202D01*
X146489828Y-137582575D01*
X146383836Y-137555951D01*
X146383832Y-137555951D01*
X146377950Y-137554473D01*
X146371885Y-137554441D01*
X146371883Y-137554441D01*
X146294603Y-137554037D01*
X146206662Y-137553577D01*
X146133505Y-137571141D01*
X146071524Y-137566264D01*
X146038886Y-137544456D01*
X146013765Y-137519335D01*
X145985539Y-137463937D01*
X145984300Y-137448200D01*
X145984300Y-132407900D01*
X146003513Y-132348769D01*
X146013765Y-132336765D01*
X147461619Y-130888911D01*
X147468089Y-130882982D01*
X147491597Y-130863256D01*
X147498339Y-130857599D01*
X147502741Y-130849975D01*
X147518081Y-130823407D01*
X147522795Y-130816008D01*
X147540391Y-130790877D01*
X147540391Y-130790876D01*
X147545440Y-130783666D01*
X147547717Y-130775168D01*
X147550224Y-130769793D01*
X147552253Y-130764219D01*
X147556651Y-130756601D01*
X147558513Y-130746045D01*
X147563509Y-130717708D01*
X147565409Y-130709142D01*
X147573346Y-130679519D01*
X147575624Y-130671017D01*
X147572183Y-130631685D01*
X147571800Y-130622917D01*
X147571800Y-130059642D01*
X147591013Y-130000511D01*
X147627200Y-129969769D01*
X147635612Y-129965538D01*
X147640224Y-129961599D01*
X147640227Y-129961597D01*
X147761250Y-129858233D01*
X147765862Y-129854294D01*
X147808155Y-129795437D01*
X147862280Y-129720114D01*
X147862282Y-129720111D01*
X147865817Y-129715191D01*
X147873774Y-129695399D01*
X147927445Y-129561889D01*
X147927445Y-129561888D01*
X147929707Y-129556262D01*
X147932799Y-129534541D01*
X147953377Y-129389947D01*
X147953842Y-129386680D01*
X147953998Y-129371750D01*
X147933420Y-129201700D01*
X147872873Y-129041467D01*
X147775853Y-128900302D01*
X147647961Y-128786354D01*
X147496580Y-128706202D01*
X147411001Y-128684706D01*
X147336336Y-128665951D01*
X147336332Y-128665951D01*
X147330450Y-128664473D01*
X147324385Y-128664441D01*
X147324383Y-128664441D01*
X147247103Y-128664037D01*
X147159162Y-128663577D01*
X147153265Y-128664993D01*
X147153263Y-128664993D01*
X147071153Y-128684706D01*
X146992604Y-128703564D01*
X146840392Y-128782126D01*
X146805436Y-128812620D01*
X146715886Y-128890739D01*
X146715884Y-128890742D01*
X146711314Y-128894728D01*
X146707826Y-128899691D01*
X146707825Y-128899692D01*
X146635704Y-129002311D01*
X146612821Y-129034870D01*
X146550599Y-129194459D01*
X146528241Y-129364285D01*
X146528906Y-129370309D01*
X146528906Y-129370313D01*
X146531074Y-129389947D01*
X146547038Y-129534541D01*
X146549122Y-129540235D01*
X146599970Y-129679185D01*
X146605903Y-129695399D01*
X146701440Y-129837572D01*
X146796664Y-129924219D01*
X146810063Y-129936411D01*
X146828132Y-129952853D01*
X146833464Y-129955748D01*
X146857803Y-129968964D01*
X146900601Y-130014064D01*
X146910400Y-130057372D01*
X146910400Y-130463100D01*
X146891187Y-130522231D01*
X146880935Y-130534235D01*
X145433081Y-131982089D01*
X145426611Y-131988018D01*
X145396361Y-132013401D01*
X145391960Y-132021024D01*
X145391959Y-132021025D01*
X145376619Y-132047593D01*
X145371905Y-132054992D01*
X145367787Y-132060874D01*
X145349260Y-132087334D01*
X145346983Y-132095832D01*
X145344476Y-132101207D01*
X145342447Y-132106781D01*
X145338049Y-132114399D01*
X145336522Y-132123061D01*
X145336521Y-132123063D01*
X145331191Y-132153292D01*
X145329291Y-132161858D01*
X145319076Y-132199983D01*
X145319843Y-132208751D01*
X145322517Y-132239315D01*
X145322900Y-132248083D01*
X145322900Y-137608017D01*
X145322517Y-137616785D01*
X145319076Y-137656117D01*
X144629544Y-137656117D01*
X144795890Y-137489770D01*
X144823579Y-137448200D01*
X144824137Y-137447363D01*
X144824137Y-137447362D01*
X144829620Y-137439131D01*
X144841300Y-137380142D01*
X144841300Y-136603358D01*
X144829343Y-136543699D01*
X144795890Y-136493728D01*
X144246620Y-135944460D01*
X144243385Y-135942306D01*
X144210014Y-135890258D01*
X144213629Y-135828189D01*
X144253037Y-135780099D01*
X144268757Y-135771878D01*
X144348953Y-135738578D01*
X144360610Y-135731766D01*
X144407262Y-135695251D01*
X144411809Y-135691225D01*
X144988046Y-135114987D01*
X144992127Y-135110371D01*
X145029033Y-135063082D01*
X145035834Y-135051401D01*
X145083038Y-134937159D01*
X145086463Y-134924102D01*
X145093631Y-134865300D01*
X145094000Y-134859226D01*
X145094000Y-134695883D01*
X145089812Y-134682993D01*
X145085623Y-134679950D01*
X142419132Y-134679950D01*
X142406242Y-134684138D01*
X142403199Y-134688327D01*
X142403199Y-134859196D01*
X141539300Y-134859196D01*
X141539300Y-132537116D01*
X142037273Y-132537116D01*
X142037275Y-133082437D01*
X142049231Y-133142095D01*
X142082684Y-133192066D01*
X142468284Y-133577666D01*
X142472425Y-133580424D01*
X142472432Y-133580430D01*
X142517194Y-133610244D01*
X142555757Y-133659014D01*
X142558289Y-133721136D01*
X142532561Y-133765106D01*
X142509154Y-133788513D01*
X142505073Y-133793129D01*
X142468167Y-133840418D01*
X142461366Y-133852099D01*
X142414162Y-133966341D01*
X142410737Y-133979398D01*
X142403569Y-134038200D01*
X142403200Y-134044274D01*
X142403200Y-134207617D01*
X142407388Y-134220507D01*
X142411577Y-134223550D01*
X143504467Y-134223550D01*
X143517357Y-134219362D01*
X143520400Y-134215173D01*
X143520400Y-134207617D01*
X143976800Y-134207617D01*
X143980988Y-134220507D01*
X143985177Y-134223550D01*
X145078068Y-134223550D01*
X145090958Y-134219362D01*
X145094001Y-134215173D01*
X145094001Y-134044304D01*
X145093623Y-134038162D01*
X145086280Y-133978625D01*
X145082829Y-133965555D01*
X145035427Y-133851397D01*
X145028616Y-133839740D01*
X144992101Y-133793088D01*
X144988075Y-133788541D01*
X144411837Y-133212304D01*
X144407221Y-133208223D01*
X144359932Y-133171317D01*
X144348251Y-133164516D01*
X144234009Y-133117312D01*
X144220952Y-133113887D01*
X144162150Y-133106719D01*
X144156076Y-133106350D01*
X143992733Y-133106350D01*
X143979843Y-133110538D01*
X143976800Y-133114727D01*
X143976800Y-134207617D01*
X143520400Y-134207617D01*
X143520400Y-133331800D01*
X143539613Y-133272669D01*
X143549865Y-133260665D01*
X143618464Y-133192066D01*
X143652195Y-133141425D01*
X143663875Y-133082436D01*
X143663873Y-132537115D01*
X143651917Y-132477457D01*
X143618464Y-132427486D01*
X143232864Y-132041886D01*
X143182223Y-132008155D01*
X143140109Y-131999816D01*
X143128063Y-131997431D01*
X143128061Y-131997431D01*
X143123234Y-131996475D01*
X143118312Y-131996475D01*
X142852225Y-131996476D01*
X142577913Y-131996477D01*
X142518255Y-132008433D01*
X142468284Y-132041886D01*
X142082684Y-132427486D01*
X142048953Y-132478127D01*
X142037273Y-132537116D01*
X141539300Y-132537116D01*
X141539300Y-130741064D01*
X143833325Y-130741064D01*
X143833327Y-131286385D01*
X143845283Y-131346043D01*
X143878736Y-131396014D01*
X144264336Y-131781614D01*
X144314977Y-131815345D01*
X144357091Y-131823684D01*
X144369137Y-131826069D01*
X144369139Y-131826069D01*
X144373966Y-131827025D01*
X144378888Y-131827025D01*
X144644975Y-131827024D01*
X144919287Y-131827023D01*
X144978945Y-131815067D01*
X145028916Y-131781614D01*
X145414516Y-131396014D01*
X145448247Y-131345373D01*
X145459927Y-131286384D01*
X145459925Y-130741063D01*
X145447969Y-130681405D01*
X145414516Y-130631434D01*
X145028916Y-130245834D01*
X145002814Y-130228448D01*
X144986507Y-130217586D01*
X144986506Y-130217586D01*
X144978275Y-130212103D01*
X144936161Y-130203764D01*
X144924115Y-130201379D01*
X144924113Y-130201379D01*
X144919286Y-130200423D01*
X144914364Y-130200423D01*
X144648277Y-130200424D01*
X144373965Y-130200425D01*
X144314307Y-130212381D01*
X144264336Y-130245834D01*
X143878736Y-130631434D01*
X143875976Y-130635578D01*
X143852371Y-130671017D01*
X143845005Y-130682075D01*
X143833325Y-130741064D01*
X141539300Y-130741064D01*
X141539300Y-130344104D01*
X141558513Y-130284973D01*
X141568766Y-130272968D01*
X145562442Y-126279389D01*
X145617840Y-126251163D01*
X145659104Y-126253218D01*
X145709782Y-126266513D01*
X145709783Y-126266513D01*
X145715649Y-126268052D01*
X145798829Y-126269359D01*
X145880855Y-126270648D01*
X145880857Y-126270648D01*
X145886918Y-126270743D01*
X145892829Y-126269389D01*
X145892831Y-126269389D01*
X146047976Y-126233856D01*
X146047979Y-126233855D01*
X146053886Y-126232502D01*
X146206912Y-126155538D01*
X146211524Y-126151599D01*
X146211527Y-126151597D01*
X146332550Y-126048233D01*
X146337162Y-126044294D01*
X146400171Y-125956607D01*
X146433580Y-125910114D01*
X146433582Y-125910111D01*
X146437117Y-125905191D01*
X146440219Y-125897476D01*
X146498745Y-125751889D01*
X146498745Y-125751888D01*
X146501007Y-125746262D01*
X146504099Y-125724541D01*
X146524677Y-125579947D01*
X146525142Y-125576680D01*
X146525298Y-125561750D01*
X146510776Y-125441745D01*
X146505449Y-125397722D01*
X146505448Y-125397720D01*
X146504720Y-125391700D01*
X146444173Y-125231467D01*
X146347153Y-125090302D01*
X146219261Y-124976354D01*
X146067880Y-124896202D01*
X146013628Y-124882575D01*
X145907636Y-124855951D01*
X145907632Y-124855951D01*
X145901750Y-124854473D01*
X145895685Y-124854441D01*
X145895683Y-124854441D01*
X145818403Y-124854037D01*
X145730462Y-124853577D01*
X145724565Y-124854993D01*
X145724563Y-124854993D01*
X145569802Y-124892148D01*
X145563904Y-124893564D01*
X145411692Y-124972126D01*
X145402220Y-124980389D01*
X145287186Y-125080739D01*
X145287184Y-125080742D01*
X145282614Y-125084728D01*
X145279126Y-125089691D01*
X145279125Y-125089692D01*
X145207004Y-125192311D01*
X145184121Y-125224870D01*
X145121899Y-125384459D01*
X145099541Y-125554285D01*
X145100206Y-125560309D01*
X145100206Y-125560313D01*
X145115197Y-125696088D01*
X145118109Y-125722468D01*
X145118109Y-125722470D01*
X145118338Y-125724541D01*
X145117932Y-125724586D01*
X145113039Y-125782883D01*
X145091434Y-125815036D01*
X141536069Y-129370313D01*
X140988077Y-129918292D01*
X140981609Y-129924219D01*
X140967080Y-129936411D01*
X140951361Y-129949601D01*
X140946961Y-129957222D01*
X140931625Y-129983785D01*
X140926909Y-129991187D01*
X140904262Y-130023530D01*
X140901984Y-130032030D01*
X140899479Y-130037403D01*
X140897451Y-130042974D01*
X140893049Y-130050599D01*
X140891521Y-130059268D01*
X140886193Y-130089483D01*
X140884293Y-130098053D01*
X140876414Y-130127459D01*
X140874077Y-130136179D01*
X140875421Y-130151545D01*
X140877517Y-130175507D01*
X140877900Y-130184273D01*
X140877900Y-136622206D01*
X140858687Y-136681337D01*
X140823442Y-136711600D01*
X140807892Y-136719626D01*
X140798420Y-136727889D01*
X140683386Y-136828239D01*
X140683384Y-136828242D01*
X140678814Y-136832228D01*
X140675326Y-136837191D01*
X140675325Y-136837192D01*
X140603204Y-136939811D01*
X140580321Y-136972370D01*
X140578120Y-136978015D01*
X140578119Y-136978017D01*
X140537633Y-137081857D01*
X140518099Y-137131959D01*
X140495741Y-137301785D01*
X139011600Y-137301785D01*
X139011600Y-124699196D01*
X142403199Y-124699196D01*
X142403577Y-124705338D01*
X142410920Y-124764875D01*
X142414371Y-124777945D01*
X142461773Y-124892103D01*
X142468584Y-124903760D01*
X142505099Y-124950412D01*
X142509125Y-124954959D01*
X143085363Y-125531196D01*
X143089979Y-125535277D01*
X143137268Y-125572183D01*
X143148949Y-125578984D01*
X143263191Y-125626188D01*
X143276248Y-125629613D01*
X143335050Y-125636781D01*
X143341124Y-125637150D01*
X143504467Y-125637150D01*
X143517357Y-125632962D01*
X143520400Y-125628773D01*
X143520400Y-125621218D01*
X143976800Y-125621218D01*
X143980988Y-125634108D01*
X143985177Y-125637151D01*
X144156046Y-125637151D01*
X144162188Y-125636773D01*
X144221725Y-125629430D01*
X144234795Y-125625979D01*
X144348953Y-125578577D01*
X144360610Y-125571766D01*
X144407262Y-125535251D01*
X144411809Y-125531225D01*
X144988046Y-124954987D01*
X144992127Y-124950371D01*
X145029033Y-124903082D01*
X145035834Y-124891401D01*
X145083038Y-124777159D01*
X145086463Y-124764102D01*
X145093631Y-124705300D01*
X145094000Y-124699226D01*
X145094000Y-124535883D01*
X145089812Y-124522993D01*
X145085623Y-124519950D01*
X143992733Y-124519950D01*
X143979843Y-124524138D01*
X143976800Y-124528327D01*
X143976800Y-125621218D01*
X143520400Y-125621218D01*
X143520400Y-124535883D01*
X143516212Y-124522993D01*
X143512023Y-124519950D01*
X142419132Y-124519950D01*
X142406242Y-124524138D01*
X142403199Y-124528327D01*
X142403199Y-124699196D01*
X139011600Y-124699196D01*
X139011600Y-124047617D01*
X142403200Y-124047617D01*
X142407388Y-124060507D01*
X142411577Y-124063550D01*
X145078068Y-124063550D01*
X145090958Y-124059362D01*
X145094001Y-124055173D01*
X145094001Y-123884304D01*
X145093623Y-123878162D01*
X145086280Y-123818625D01*
X145082829Y-123805555D01*
X145035427Y-123691397D01*
X145028616Y-123679740D01*
X144992101Y-123633088D01*
X144988075Y-123628541D01*
X144411837Y-123052304D01*
X144407221Y-123048223D01*
X144359932Y-123011317D01*
X144348251Y-123004515D01*
X144268899Y-122971728D01*
X144221586Y-122931390D01*
X144207019Y-122870946D01*
X144230762Y-122813484D01*
X144243009Y-122801458D01*
X144246622Y-122799040D01*
X144795890Y-122249770D01*
X144821696Y-122211028D01*
X144824137Y-122207363D01*
X144824137Y-122207362D01*
X144829620Y-122199131D01*
X144841300Y-122140142D01*
X144841300Y-121363358D01*
X144829343Y-121303699D01*
X144795890Y-121253728D01*
X144246620Y-120704460D01*
X144195981Y-120670730D01*
X144153867Y-120662391D01*
X144141821Y-120660006D01*
X144141819Y-120660006D01*
X144136992Y-120659050D01*
X143360208Y-120659050D01*
X143300549Y-120671007D01*
X143250578Y-120704460D01*
X142701310Y-121253730D01*
X142684918Y-121278339D01*
X142673502Y-121295479D01*
X142667580Y-121304369D01*
X142655900Y-121363358D01*
X142655900Y-122140142D01*
X142667857Y-122199801D01*
X142701310Y-122249772D01*
X143250580Y-122799040D01*
X143253815Y-122801194D01*
X143287186Y-122853242D01*
X143283571Y-122915311D01*
X143244163Y-122963401D01*
X143228443Y-122971622D01*
X143148247Y-123004922D01*
X143136590Y-123011734D01*
X143089938Y-123048249D01*
X143085391Y-123052275D01*
X142509154Y-123628513D01*
X142505073Y-123633129D01*
X142468167Y-123680418D01*
X142461366Y-123692099D01*
X142414162Y-123806341D01*
X142410737Y-123819398D01*
X142403569Y-123878200D01*
X142403200Y-123884274D01*
X142403200Y-124047617D01*
X139011600Y-124047617D01*
X139011600Y-118576750D01*
X142392941Y-118576750D01*
X142413537Y-118812158D01*
X142474697Y-119040413D01*
X142574565Y-119254579D01*
X142577080Y-119258171D01*
X142577083Y-119258176D01*
X142707586Y-119444554D01*
X142710105Y-119448151D01*
X142877199Y-119615245D01*
X142880793Y-119617762D01*
X142880796Y-119617764D01*
X143067174Y-119748267D01*
X143067179Y-119748270D01*
X143070771Y-119750785D01*
X143284937Y-119850653D01*
X143289184Y-119851791D01*
X143508944Y-119910675D01*
X143508947Y-119910675D01*
X143513192Y-119911813D01*
X143608943Y-119920190D01*
X143687448Y-119927059D01*
X143687454Y-119927059D01*
X143689634Y-119927250D01*
X143807566Y-119927250D01*
X143809746Y-119927059D01*
X143809752Y-119927059D01*
X143888257Y-119920190D01*
X143984008Y-119911813D01*
X143988253Y-119910675D01*
X143988256Y-119910675D01*
X144208016Y-119851791D01*
X144212263Y-119850653D01*
X144426429Y-119750785D01*
X144430021Y-119748270D01*
X144430026Y-119748267D01*
X144616404Y-119617764D01*
X144616407Y-119617762D01*
X144620001Y-119615245D01*
X144787095Y-119448151D01*
X144922635Y-119254580D01*
X145022503Y-119040413D01*
X145083663Y-118812158D01*
X145104259Y-118576750D01*
X145103058Y-118563017D01*
X145101832Y-118549007D01*
X145083663Y-118341342D01*
X145078861Y-118323418D01*
X145023641Y-118117334D01*
X145023640Y-118117332D01*
X145022503Y-118113087D01*
X144922635Y-117898921D01*
X144920120Y-117895329D01*
X144920117Y-117895324D01*
X144789614Y-117708946D01*
X144789612Y-117708943D01*
X144787095Y-117705349D01*
X144620001Y-117538255D01*
X144616407Y-117535738D01*
X144616404Y-117535736D01*
X144430026Y-117405233D01*
X144430021Y-117405230D01*
X144426429Y-117402715D01*
X144212263Y-117302847D01*
X144208016Y-117301709D01*
X143988256Y-117242825D01*
X143988253Y-117242825D01*
X143984008Y-117241687D01*
X143888257Y-117233310D01*
X143809752Y-117226441D01*
X143809746Y-117226441D01*
X143807566Y-117226250D01*
X143689634Y-117226250D01*
X143687454Y-117226441D01*
X143687448Y-117226441D01*
X143608943Y-117233310D01*
X143513192Y-117241687D01*
X143508947Y-117242825D01*
X143508944Y-117242825D01*
X143289184Y-117301709D01*
X143284937Y-117302847D01*
X143070771Y-117402715D01*
X143067179Y-117405230D01*
X143067174Y-117405233D01*
X142880796Y-117535736D01*
X142880793Y-117535738D01*
X142877199Y-117538255D01*
X142710105Y-117705349D01*
X142574565Y-117898920D01*
X142474697Y-118113087D01*
X142450154Y-118204685D01*
X142418340Y-118323418D01*
X142413537Y-118341342D01*
X142395368Y-118549007D01*
X142394143Y-118563017D01*
X142392941Y-118576750D01*
X139011600Y-118576750D01*
X139011600Y-111999196D01*
X142403199Y-111999196D01*
X142403577Y-112005338D01*
X142410920Y-112064875D01*
X142414371Y-112077945D01*
X142461773Y-112192103D01*
X142468584Y-112203760D01*
X142505099Y-112250412D01*
X142509125Y-112254959D01*
X143085363Y-112831196D01*
X143089979Y-112835277D01*
X143137268Y-112872183D01*
X143148949Y-112878985D01*
X143228301Y-112911772D01*
X143275614Y-112952110D01*
X143290181Y-113012554D01*
X143266438Y-113070016D01*
X143254191Y-113082042D01*
X143250578Y-113084460D01*
X142701310Y-113633730D01*
X142698550Y-113637874D01*
X142673502Y-113675479D01*
X142667580Y-113684369D01*
X142655900Y-113743358D01*
X142655900Y-114520142D01*
X142667857Y-114579801D01*
X142701310Y-114629772D01*
X143250580Y-115179040D01*
X143301219Y-115212770D01*
X143343333Y-115221109D01*
X143355379Y-115223494D01*
X143355381Y-115223494D01*
X143360208Y-115224450D01*
X144136992Y-115224450D01*
X144196651Y-115212493D01*
X144246622Y-115179040D01*
X144795890Y-114629770D01*
X144812282Y-114605161D01*
X144824137Y-114587363D01*
X144824137Y-114587362D01*
X144829620Y-114579131D01*
X144841300Y-114520142D01*
X144841300Y-113743358D01*
X144829343Y-113683699D01*
X144795890Y-113633728D01*
X144246620Y-113084460D01*
X144243385Y-113082306D01*
X144210014Y-113030258D01*
X144213629Y-112968189D01*
X144253037Y-112920099D01*
X144268757Y-112911878D01*
X144348953Y-112878578D01*
X144360610Y-112871766D01*
X144407262Y-112835251D01*
X144411809Y-112831225D01*
X144988046Y-112254987D01*
X144992127Y-112250371D01*
X145029033Y-112203082D01*
X145035834Y-112191401D01*
X145083038Y-112077159D01*
X145086463Y-112064102D01*
X145093631Y-112005300D01*
X145094000Y-111999226D01*
X145094000Y-111835883D01*
X145089812Y-111822993D01*
X145085623Y-111819950D01*
X142419132Y-111819950D01*
X142406242Y-111824138D01*
X142403199Y-111828327D01*
X142403199Y-111999196D01*
X139011600Y-111999196D01*
X139011600Y-109459196D01*
X142403199Y-109459196D01*
X142403577Y-109465338D01*
X142410920Y-109524875D01*
X142414371Y-109537945D01*
X142461773Y-109652103D01*
X142468584Y-109663760D01*
X142505099Y-109710412D01*
X142509125Y-109714959D01*
X143044781Y-110250615D01*
X143073007Y-110306013D01*
X143063281Y-110367421D01*
X143044781Y-110392885D01*
X142509154Y-110928513D01*
X142505073Y-110933129D01*
X142468167Y-110980418D01*
X142461366Y-110992099D01*
X142414162Y-111106341D01*
X142410737Y-111119398D01*
X142403569Y-111178200D01*
X142403200Y-111184274D01*
X142403200Y-111347617D01*
X142407388Y-111360507D01*
X142411577Y-111363550D01*
X143504467Y-111363550D01*
X143517357Y-111359362D01*
X143520400Y-111355173D01*
X143520400Y-111347617D01*
X143976800Y-111347617D01*
X143980988Y-111360507D01*
X143985177Y-111363550D01*
X145078068Y-111363550D01*
X145090958Y-111359362D01*
X145094001Y-111355173D01*
X145094001Y-111184304D01*
X145093623Y-111178162D01*
X145086280Y-111118625D01*
X145082829Y-111105555D01*
X145035427Y-110991397D01*
X145028616Y-110979740D01*
X144992101Y-110933088D01*
X144988075Y-110928541D01*
X144452419Y-110392885D01*
X144424193Y-110337487D01*
X144433919Y-110276079D01*
X144452419Y-110250615D01*
X144988046Y-109714987D01*
X144992127Y-109710371D01*
X145029033Y-109663082D01*
X145035834Y-109651401D01*
X145083038Y-109537159D01*
X145086463Y-109524102D01*
X145093631Y-109465300D01*
X145094000Y-109459226D01*
X145094000Y-109295883D01*
X145089812Y-109282993D01*
X145085623Y-109279950D01*
X143992733Y-109279950D01*
X143979843Y-109284138D01*
X143976800Y-109288327D01*
X143976800Y-111347617D01*
X143520400Y-111347617D01*
X143520400Y-109295883D01*
X143516212Y-109282993D01*
X143512023Y-109279950D01*
X142419132Y-109279950D01*
X142406242Y-109284138D01*
X142403199Y-109288327D01*
X142403199Y-109459196D01*
X139011600Y-109459196D01*
X139011600Y-108807617D01*
X142403200Y-108807617D01*
X142407388Y-108820507D01*
X142411577Y-108823550D01*
X143504467Y-108823550D01*
X143517357Y-108819362D01*
X143520400Y-108815173D01*
X143520400Y-108807617D01*
X143976800Y-108807617D01*
X143980988Y-108820507D01*
X143985177Y-108823550D01*
X145078068Y-108823550D01*
X145090958Y-108819362D01*
X145094001Y-108815173D01*
X145094001Y-108644304D01*
X145093623Y-108638162D01*
X145086280Y-108578625D01*
X145082829Y-108565555D01*
X145035427Y-108451397D01*
X145028616Y-108439740D01*
X144992101Y-108393088D01*
X144988075Y-108388541D01*
X144411837Y-107812304D01*
X144407221Y-107808223D01*
X144359932Y-107771317D01*
X144348251Y-107764516D01*
X144234009Y-107717312D01*
X144220952Y-107713887D01*
X144162150Y-107706719D01*
X144156076Y-107706350D01*
X143992733Y-107706350D01*
X143979843Y-107710538D01*
X143976800Y-107714727D01*
X143976800Y-108807617D01*
X143520400Y-108807617D01*
X143520400Y-107722282D01*
X143516212Y-107709392D01*
X143512023Y-107706349D01*
X143341154Y-107706349D01*
X143335012Y-107706727D01*
X143275475Y-107714070D01*
X143262405Y-107717521D01*
X143148247Y-107764923D01*
X143136590Y-107771734D01*
X143089938Y-107808249D01*
X143085391Y-107812275D01*
X142509154Y-108388513D01*
X142505073Y-108393129D01*
X142468167Y-108440418D01*
X142461366Y-108452099D01*
X142414162Y-108566341D01*
X142410737Y-108579398D01*
X142403569Y-108638200D01*
X142403200Y-108644274D01*
X142403200Y-108807617D01*
X139011600Y-108807617D01*
X139011600Y-106504285D01*
X140178241Y-106504285D01*
X140178906Y-106510309D01*
X140178906Y-106510313D01*
X140183794Y-106554580D01*
X140197038Y-106674541D01*
X140255903Y-106835399D01*
X140351440Y-106977572D01*
X140478132Y-107092853D01*
X140628665Y-107174586D01*
X140634535Y-107176126D01*
X140788482Y-107216513D01*
X140788483Y-107216513D01*
X140794349Y-107218052D01*
X140877529Y-107219359D01*
X140959555Y-107220648D01*
X140959557Y-107220648D01*
X140965618Y-107220743D01*
X140971529Y-107219389D01*
X140971531Y-107219389D01*
X141126676Y-107183856D01*
X141126679Y-107183855D01*
X141132586Y-107182502D01*
X141285612Y-107105538D01*
X141290224Y-107101599D01*
X141290227Y-107101597D01*
X141411250Y-106998233D01*
X141415862Y-106994294D01*
X141474896Y-106912139D01*
X141512280Y-106860114D01*
X141512282Y-106860111D01*
X141515817Y-106855191D01*
X141523774Y-106835399D01*
X141577445Y-106701889D01*
X141577445Y-106701888D01*
X141579707Y-106696262D01*
X141582799Y-106674541D01*
X141603377Y-106529947D01*
X141603842Y-106526680D01*
X141603998Y-106511750D01*
X141583420Y-106341700D01*
X141522873Y-106181467D01*
X141425853Y-106040302D01*
X141297961Y-105926354D01*
X141292601Y-105923516D01*
X141292598Y-105923514D01*
X141275325Y-105914368D01*
X141238871Y-105876750D01*
X142392941Y-105876750D01*
X142413537Y-106112158D01*
X142414675Y-106116403D01*
X142414675Y-106116406D01*
X142432108Y-106181467D01*
X142474697Y-106340413D01*
X142574565Y-106554579D01*
X142577080Y-106558171D01*
X142577083Y-106558176D01*
X142669567Y-106690257D01*
X142710105Y-106748151D01*
X142877199Y-106915245D01*
X142880793Y-106917762D01*
X142880796Y-106917764D01*
X143067174Y-107048267D01*
X143067179Y-107048270D01*
X143070771Y-107050785D01*
X143284937Y-107150653D01*
X143289184Y-107151791D01*
X143508944Y-107210675D01*
X143508947Y-107210675D01*
X143513192Y-107211813D01*
X143608943Y-107220190D01*
X143687448Y-107227059D01*
X143687454Y-107227059D01*
X143689634Y-107227250D01*
X143807566Y-107227250D01*
X143809746Y-107227059D01*
X143809752Y-107227059D01*
X143888257Y-107220190D01*
X143984008Y-107211813D01*
X143988253Y-107210675D01*
X143988256Y-107210675D01*
X144208016Y-107151791D01*
X144212263Y-107150653D01*
X144426429Y-107050785D01*
X144430021Y-107048270D01*
X144430026Y-107048267D01*
X144616404Y-106917764D01*
X144616407Y-106917762D01*
X144620001Y-106915245D01*
X144787095Y-106748151D01*
X144922635Y-106554580D01*
X145022503Y-106340413D01*
X145065092Y-106181467D01*
X145082525Y-106116406D01*
X145082525Y-106116403D01*
X145083663Y-106112158D01*
X145104259Y-105876750D01*
X145083663Y-105641342D01*
X145022503Y-105413087D01*
X144922635Y-105198921D01*
X144920120Y-105195329D01*
X144920117Y-105195324D01*
X144789614Y-105008946D01*
X144789612Y-105008943D01*
X144787095Y-105005349D01*
X144620001Y-104838255D01*
X144616407Y-104835738D01*
X144616404Y-104835736D01*
X144430026Y-104705233D01*
X144430021Y-104705230D01*
X144426429Y-104702715D01*
X144212263Y-104602847D01*
X144208016Y-104601709D01*
X143988256Y-104542825D01*
X143988253Y-104542825D01*
X143984008Y-104541687D01*
X143888257Y-104533310D01*
X143809752Y-104526441D01*
X143809746Y-104526441D01*
X143807566Y-104526250D01*
X143689634Y-104526250D01*
X143687454Y-104526441D01*
X143687448Y-104526441D01*
X143608943Y-104533310D01*
X143513192Y-104541687D01*
X143508947Y-104542825D01*
X143508944Y-104542825D01*
X143289184Y-104601709D01*
X143284937Y-104602847D01*
X143070771Y-104702715D01*
X143067179Y-104705230D01*
X143067174Y-104705233D01*
X142880796Y-104835736D01*
X142880793Y-104835738D01*
X142877199Y-104838255D01*
X142710105Y-105005349D01*
X142574565Y-105198920D01*
X142474697Y-105413087D01*
X142413537Y-105641342D01*
X142392941Y-105876750D01*
X141238871Y-105876750D01*
X141232058Y-105869719D01*
X141221800Y-105825462D01*
X141221800Y-104150400D01*
X141241013Y-104091269D01*
X141251265Y-104079265D01*
X141911140Y-103419390D01*
X141966538Y-103391164D01*
X142007802Y-103393218D01*
X142058480Y-103406513D01*
X142058486Y-103406514D01*
X142064349Y-103408052D01*
X142147529Y-103409359D01*
X142229555Y-103410648D01*
X142229557Y-103410648D01*
X142235618Y-103410743D01*
X142241529Y-103409389D01*
X142241531Y-103409389D01*
X142396676Y-103373856D01*
X142396679Y-103373855D01*
X142402586Y-103372502D01*
X142555612Y-103295538D01*
X142560224Y-103291599D01*
X142560227Y-103291597D01*
X142681250Y-103188233D01*
X142685862Y-103184294D01*
X142718217Y-103139268D01*
X142782280Y-103050114D01*
X142782282Y-103050111D01*
X142785817Y-103045191D01*
X142849707Y-102886262D01*
X142852799Y-102864541D01*
X142873377Y-102719947D01*
X142873842Y-102716680D01*
X142873998Y-102701750D01*
X142853420Y-102531700D01*
X142850681Y-102524450D01*
X142795018Y-102377143D01*
X142795017Y-102377141D01*
X142792873Y-102371467D01*
X142695853Y-102230302D01*
X142567961Y-102116354D01*
X142416580Y-102036202D01*
X142362328Y-102022575D01*
X142256336Y-101995951D01*
X142256332Y-101995951D01*
X142250450Y-101994473D01*
X142244385Y-101994441D01*
X142244383Y-101994441D01*
X142167103Y-101994037D01*
X142079162Y-101993577D01*
X142073265Y-101994993D01*
X142073263Y-101994993D01*
X141918502Y-102032148D01*
X141912604Y-102033564D01*
X141760392Y-102112126D01*
X141750920Y-102120389D01*
X141635886Y-102220739D01*
X141635884Y-102220742D01*
X141631314Y-102224728D01*
X141627826Y-102229691D01*
X141627825Y-102229692D01*
X141555704Y-102332311D01*
X141532821Y-102364870D01*
X141470599Y-102524459D01*
X141448241Y-102694285D01*
X141448906Y-102700309D01*
X141448906Y-102700313D01*
X141451074Y-102719947D01*
X141466809Y-102862468D01*
X141466809Y-102862470D01*
X141467038Y-102864541D01*
X141466632Y-102864586D01*
X141461739Y-102922883D01*
X141440133Y-102955037D01*
X140670581Y-103724589D01*
X140664111Y-103730518D01*
X140633861Y-103755901D01*
X140629460Y-103763524D01*
X140629459Y-103763525D01*
X140614119Y-103790093D01*
X140609405Y-103797492D01*
X140591809Y-103822623D01*
X140586760Y-103829834D01*
X140584483Y-103838332D01*
X140581976Y-103843707D01*
X140579947Y-103849281D01*
X140575549Y-103856899D01*
X140574022Y-103865561D01*
X140574021Y-103865563D01*
X140568691Y-103895792D01*
X140566791Y-103904358D01*
X140556576Y-103942483D01*
X140557343Y-103951251D01*
X140560017Y-103981815D01*
X140560400Y-103990583D01*
X140560400Y-105824706D01*
X140541187Y-105883837D01*
X140505942Y-105914100D01*
X140490392Y-105922126D01*
X140480920Y-105930389D01*
X140365886Y-106030739D01*
X140365884Y-106030742D01*
X140361314Y-106034728D01*
X140357826Y-106039691D01*
X140357825Y-106039692D01*
X140303910Y-106116406D01*
X140262821Y-106174870D01*
X140200599Y-106334459D01*
X140178241Y-106504285D01*
X139011600Y-106504285D01*
X139011600Y-101820142D01*
X142655900Y-101820142D01*
X142667857Y-101879801D01*
X142701310Y-101929772D01*
X143250580Y-102479040D01*
X143301219Y-102512770D01*
X143331719Y-102518809D01*
X143355379Y-102523494D01*
X143355381Y-102523494D01*
X143360208Y-102524450D01*
X144136992Y-102524450D01*
X144196651Y-102512493D01*
X144246622Y-102479040D01*
X144795890Y-101929770D01*
X144812282Y-101905161D01*
X144824137Y-101887363D01*
X144824137Y-101887362D01*
X144829620Y-101879131D01*
X144841300Y-101820142D01*
X144841300Y-101043358D01*
X144829343Y-100983699D01*
X144795890Y-100933728D01*
X144657475Y-100795313D01*
X144250141Y-100387981D01*
X144246620Y-100384460D01*
X144195981Y-100350730D01*
X144153867Y-100342391D01*
X144141821Y-100340006D01*
X144141819Y-100340006D01*
X144136992Y-100339050D01*
X143360208Y-100339050D01*
X143300549Y-100351007D01*
X143250578Y-100384460D01*
X142701310Y-100933730D01*
X142698550Y-100937874D01*
X142673502Y-100975479D01*
X142667580Y-100984369D01*
X142655900Y-101043358D01*
X142655900Y-101820142D01*
X139011600Y-101820142D01*
X139011600Y-99164411D01*
X142935300Y-99164411D01*
X142947257Y-99224070D01*
X142980710Y-99274041D01*
X143366311Y-99659640D01*
X143416950Y-99693370D01*
X143459064Y-99701709D01*
X143471110Y-99704094D01*
X143471112Y-99704094D01*
X143475939Y-99705050D01*
X144021261Y-99705050D01*
X144080920Y-99693093D01*
X144130891Y-99659640D01*
X144516490Y-99274039D01*
X144542366Y-99235191D01*
X144544737Y-99231632D01*
X144544737Y-99231631D01*
X144550220Y-99223400D01*
X144561900Y-99164411D01*
X144561900Y-98619089D01*
X144549943Y-98559430D01*
X144516490Y-98509459D01*
X144419875Y-98412844D01*
X144134410Y-98127381D01*
X144130889Y-98123860D01*
X144080250Y-98090130D01*
X144038136Y-98081791D01*
X144026090Y-98079406D01*
X144026088Y-98079406D01*
X144021261Y-98078450D01*
X143475939Y-98078450D01*
X143416280Y-98090407D01*
X143366309Y-98123860D01*
X142980710Y-98509461D01*
X142977950Y-98513605D01*
X142952902Y-98551210D01*
X142946980Y-98560100D01*
X142935300Y-98619089D01*
X142935300Y-99164411D01*
X139011600Y-99164411D01*
X139011600Y-96624411D01*
X142935300Y-96624411D01*
X142947257Y-96684070D01*
X142980710Y-96734041D01*
X143366311Y-97119640D01*
X143416950Y-97153370D01*
X143459064Y-97161709D01*
X143471110Y-97164094D01*
X143471112Y-97164094D01*
X143475939Y-97165050D01*
X144021261Y-97165050D01*
X144080920Y-97153093D01*
X144130891Y-97119640D01*
X144516490Y-96734039D01*
X144532882Y-96709430D01*
X144544737Y-96691632D01*
X144544737Y-96691631D01*
X144550220Y-96683400D01*
X144561900Y-96624411D01*
X144561900Y-96079089D01*
X144549943Y-96019430D01*
X144516490Y-95969459D01*
X144130889Y-95583860D01*
X144106280Y-95567468D01*
X144088482Y-95555613D01*
X144088481Y-95555613D01*
X144080250Y-95550130D01*
X144038136Y-95541791D01*
X144026090Y-95539406D01*
X144026088Y-95539406D01*
X144021261Y-95538450D01*
X143475939Y-95538450D01*
X143416280Y-95550407D01*
X143366309Y-95583860D01*
X142980710Y-95969461D01*
X142977950Y-95973605D01*
X142952902Y-96011210D01*
X142946980Y-96020100D01*
X142935300Y-96079089D01*
X142935300Y-96624411D01*
X139011600Y-96624411D01*
X139011600Y-95074285D01*
X141130741Y-95074285D01*
X141131406Y-95080309D01*
X141131406Y-95080313D01*
X141133574Y-95099947D01*
X141149538Y-95244541D01*
X141208403Y-95405399D01*
X141221703Y-95425191D01*
X141298453Y-95539406D01*
X141303940Y-95547572D01*
X141430632Y-95662853D01*
X141581165Y-95744586D01*
X141587035Y-95746126D01*
X141740982Y-95786513D01*
X141740983Y-95786513D01*
X141746849Y-95788052D01*
X141830029Y-95789359D01*
X141912055Y-95790648D01*
X141912057Y-95790648D01*
X141918118Y-95790743D01*
X141924029Y-95789389D01*
X141924031Y-95789389D01*
X142079176Y-95753856D01*
X142079179Y-95753855D01*
X142085086Y-95752502D01*
X142238112Y-95675538D01*
X142242724Y-95671599D01*
X142242727Y-95671597D01*
X142363750Y-95568233D01*
X142368362Y-95564294D01*
X142400717Y-95519268D01*
X142464780Y-95430114D01*
X142464782Y-95430111D01*
X142468317Y-95425191D01*
X142476274Y-95405399D01*
X142529945Y-95271889D01*
X142529945Y-95271888D01*
X142532207Y-95266262D01*
X142535299Y-95244541D01*
X142555877Y-95099947D01*
X142556342Y-95096680D01*
X142556498Y-95081750D01*
X142535920Y-94911700D01*
X142475373Y-94751467D01*
X142378353Y-94610302D01*
X142250461Y-94496354D01*
X142245101Y-94493516D01*
X142245098Y-94493514D01*
X142227825Y-94484368D01*
X142184558Y-94439719D01*
X142174300Y-94395462D01*
X142174300Y-90689642D01*
X142193513Y-90630511D01*
X142229700Y-90599769D01*
X142238112Y-90595538D01*
X142242724Y-90591599D01*
X142242727Y-90591597D01*
X142296014Y-90546085D01*
X142353455Y-90522292D01*
X142413911Y-90536806D01*
X142454257Y-90584004D01*
X142461771Y-90602101D01*
X142468584Y-90613760D01*
X142505099Y-90660412D01*
X142509125Y-90664959D01*
X143085363Y-91241196D01*
X143089979Y-91245277D01*
X143137268Y-91282183D01*
X143148949Y-91288984D01*
X143263191Y-91336188D01*
X143276248Y-91339613D01*
X143335050Y-91346781D01*
X143341124Y-91347150D01*
X143504467Y-91347150D01*
X143517357Y-91342962D01*
X143520400Y-91338773D01*
X143520400Y-91331218D01*
X143976800Y-91331218D01*
X143980988Y-91344108D01*
X143985177Y-91347151D01*
X144156046Y-91347151D01*
X144162188Y-91346773D01*
X144221725Y-91339430D01*
X144234795Y-91335979D01*
X144348953Y-91288577D01*
X144360610Y-91281766D01*
X144407262Y-91245251D01*
X144411809Y-91241225D01*
X144988046Y-90664987D01*
X144992127Y-90660371D01*
X145029033Y-90613082D01*
X145035834Y-90601401D01*
X145083038Y-90487159D01*
X145086463Y-90474102D01*
X145093631Y-90415300D01*
X145094000Y-90409226D01*
X145094000Y-90245883D01*
X145089812Y-90232993D01*
X145085623Y-90229950D01*
X143992733Y-90229950D01*
X143979843Y-90234138D01*
X143976800Y-90238327D01*
X143976800Y-91331218D01*
X143520400Y-91331218D01*
X143520400Y-89874150D01*
X143539613Y-89815019D01*
X143589913Y-89778474D01*
X143621000Y-89773550D01*
X145078068Y-89773550D01*
X145090958Y-89769362D01*
X145094001Y-89765173D01*
X145094001Y-89594304D01*
X145093623Y-89588162D01*
X145086280Y-89528625D01*
X145082829Y-89515555D01*
X145035427Y-89401397D01*
X145028616Y-89389740D01*
X144992101Y-89343088D01*
X144988075Y-89338541D01*
X144411837Y-88762304D01*
X144407221Y-88758223D01*
X144359932Y-88721317D01*
X144348251Y-88714515D01*
X144268899Y-88681728D01*
X144221586Y-88641390D01*
X144207019Y-88580946D01*
X144230762Y-88523484D01*
X144243009Y-88511458D01*
X144246622Y-88509040D01*
X144795890Y-87959770D01*
X144812282Y-87935161D01*
X144824137Y-87917363D01*
X144824137Y-87917362D01*
X144829620Y-87909131D01*
X144841300Y-87850142D01*
X144841300Y-87073358D01*
X144829343Y-87013699D01*
X144795890Y-86963728D01*
X144246620Y-86414460D01*
X144195981Y-86380730D01*
X144153867Y-86372391D01*
X144141821Y-86370006D01*
X144141819Y-86370006D01*
X144136992Y-86369050D01*
X143360208Y-86369050D01*
X143300549Y-86381007D01*
X143250578Y-86414460D01*
X142701310Y-86963730D01*
X142698550Y-86967874D01*
X142673502Y-87005479D01*
X142667580Y-87014369D01*
X142655900Y-87073358D01*
X142655900Y-87850142D01*
X142667857Y-87909801D01*
X142701310Y-87959772D01*
X143250580Y-88509040D01*
X143253815Y-88511194D01*
X143287186Y-88563242D01*
X143283571Y-88625311D01*
X143244163Y-88673401D01*
X143228443Y-88681622D01*
X143148247Y-88714922D01*
X143136590Y-88721734D01*
X143089938Y-88758249D01*
X143085391Y-88762275D01*
X142509154Y-89338513D01*
X142505073Y-89343129D01*
X142468167Y-89390418D01*
X142461364Y-89402102D01*
X142454418Y-89418913D01*
X142414081Y-89466226D01*
X142353637Y-89480794D01*
X142294520Y-89455609D01*
X142254990Y-89420389D01*
X142254989Y-89420388D01*
X142250461Y-89416354D01*
X142099080Y-89336202D01*
X142044828Y-89322575D01*
X141938836Y-89295951D01*
X141938832Y-89295951D01*
X141932950Y-89294473D01*
X141926885Y-89294441D01*
X141926883Y-89294441D01*
X141849603Y-89294037D01*
X141761662Y-89293577D01*
X141755765Y-89294993D01*
X141755763Y-89294993D01*
X141601002Y-89332148D01*
X141595104Y-89333564D01*
X141442892Y-89412126D01*
X141435112Y-89418913D01*
X141318386Y-89520739D01*
X141318384Y-89520742D01*
X141313814Y-89524728D01*
X141310326Y-89529691D01*
X141310325Y-89529692D01*
X141306081Y-89535731D01*
X141215321Y-89664870D01*
X141213120Y-89670515D01*
X141213119Y-89670517D01*
X141179160Y-89757617D01*
X141153099Y-89824459D01*
X141130741Y-89994285D01*
X141131406Y-90000309D01*
X141131406Y-90000313D01*
X141133574Y-90019947D01*
X141149538Y-90164541D01*
X141155289Y-90180257D01*
X141176540Y-90238327D01*
X141208403Y-90325399D01*
X141303940Y-90467572D01*
X141430632Y-90582853D01*
X141435964Y-90585748D01*
X141460303Y-90598964D01*
X141503101Y-90644064D01*
X141512900Y-90687372D01*
X141512900Y-94394706D01*
X141493687Y-94453837D01*
X141458442Y-94484100D01*
X141442892Y-94492126D01*
X141433420Y-94500389D01*
X141318386Y-94600739D01*
X141318384Y-94600742D01*
X141313814Y-94604728D01*
X141310326Y-94609691D01*
X141310325Y-94609692D01*
X141238204Y-94712311D01*
X141215321Y-94744870D01*
X141153099Y-94904459D01*
X141130741Y-95074285D01*
X139011600Y-95074285D01*
X139011600Y-84286750D01*
X142392941Y-84286750D01*
X142413537Y-84522158D01*
X142474697Y-84750413D01*
X142574565Y-84964579D01*
X142577080Y-84968171D01*
X142577083Y-84968176D01*
X142577084Y-84968177D01*
X142710105Y-85158151D01*
X142877199Y-85325245D01*
X142880793Y-85327762D01*
X142880796Y-85327764D01*
X143067174Y-85458267D01*
X143067179Y-85458270D01*
X143070771Y-85460785D01*
X143284937Y-85560653D01*
X143289184Y-85561791D01*
X143508944Y-85620675D01*
X143508947Y-85620675D01*
X143513192Y-85621813D01*
X143608943Y-85630190D01*
X143687448Y-85637059D01*
X143687454Y-85637059D01*
X143689634Y-85637250D01*
X143807566Y-85637250D01*
X143809746Y-85637059D01*
X143809752Y-85637059D01*
X143888257Y-85630190D01*
X143984008Y-85621813D01*
X143988253Y-85620675D01*
X143988256Y-85620675D01*
X144208016Y-85561791D01*
X144212263Y-85560653D01*
X144426429Y-85460785D01*
X144430021Y-85458270D01*
X144430026Y-85458267D01*
X144616404Y-85327764D01*
X144616407Y-85327762D01*
X144620001Y-85325245D01*
X144787095Y-85158151D01*
X144922635Y-84964580D01*
X145022503Y-84750413D01*
X145083663Y-84522158D01*
X145104259Y-84286750D01*
X145083663Y-84051342D01*
X145022503Y-83823087D01*
X144922635Y-83608921D01*
X144920120Y-83605329D01*
X144920117Y-83605324D01*
X144789614Y-83418946D01*
X144789612Y-83418943D01*
X144787095Y-83415349D01*
X144620001Y-83248255D01*
X144616407Y-83245738D01*
X144616404Y-83245736D01*
X144430026Y-83115233D01*
X144430021Y-83115230D01*
X144426429Y-83112715D01*
X144212263Y-83012847D01*
X144208016Y-83011709D01*
X143988256Y-82952825D01*
X143988253Y-82952825D01*
X143984008Y-82951687D01*
X143888257Y-82943310D01*
X143809752Y-82936441D01*
X143809746Y-82936441D01*
X143807566Y-82936250D01*
X143689634Y-82936250D01*
X143687454Y-82936441D01*
X143687448Y-82936441D01*
X143608943Y-82943310D01*
X143513192Y-82951687D01*
X143508947Y-82952825D01*
X143508944Y-82952825D01*
X143289184Y-83011709D01*
X143284937Y-83012847D01*
X143070771Y-83112715D01*
X143067179Y-83115230D01*
X143067174Y-83115233D01*
X142880796Y-83245736D01*
X142880793Y-83245738D01*
X142877199Y-83248255D01*
X142710105Y-83415349D01*
X142574565Y-83608920D01*
X142474697Y-83823087D01*
X142413537Y-84051342D01*
X142392941Y-84286750D01*
X139011600Y-84286750D01*
X139011600Y-77709196D01*
X142403199Y-77709196D01*
X142403577Y-77715338D01*
X142410920Y-77774875D01*
X142414371Y-77787945D01*
X142461773Y-77902103D01*
X142468584Y-77913760D01*
X142505099Y-77960412D01*
X142509125Y-77964959D01*
X143085363Y-78541196D01*
X143089979Y-78545277D01*
X143137268Y-78582183D01*
X143148949Y-78588985D01*
X143228301Y-78621772D01*
X143275614Y-78662110D01*
X143290181Y-78722554D01*
X143266438Y-78780016D01*
X143254191Y-78792042D01*
X143250578Y-78794460D01*
X142701310Y-79343730D01*
X142698550Y-79347874D01*
X142673502Y-79385479D01*
X142667580Y-79394369D01*
X142655900Y-79453358D01*
X142655900Y-80230142D01*
X142667857Y-80289801D01*
X142701310Y-80339772D01*
X143250580Y-80889040D01*
X143301219Y-80922770D01*
X143343333Y-80931109D01*
X143355379Y-80933494D01*
X143355381Y-80933494D01*
X143360208Y-80934450D01*
X144136992Y-80934450D01*
X144196651Y-80922493D01*
X144246622Y-80889040D01*
X144795890Y-80339770D01*
X144812282Y-80315161D01*
X144824137Y-80297363D01*
X144824137Y-80297362D01*
X144829620Y-80289131D01*
X144841300Y-80230142D01*
X144841300Y-79453358D01*
X144829343Y-79393699D01*
X144795890Y-79343728D01*
X144246620Y-78794460D01*
X144243385Y-78792306D01*
X144210014Y-78740258D01*
X144213629Y-78678189D01*
X144253037Y-78630099D01*
X144268757Y-78621878D01*
X144348953Y-78588578D01*
X144360610Y-78581766D01*
X144407262Y-78545251D01*
X144411809Y-78541225D01*
X144988046Y-77964987D01*
X144992127Y-77960371D01*
X145029033Y-77913082D01*
X145035834Y-77901401D01*
X145083038Y-77787159D01*
X145086463Y-77774102D01*
X145093631Y-77715300D01*
X145094000Y-77709226D01*
X145094000Y-77545883D01*
X145089812Y-77532993D01*
X145085623Y-77529950D01*
X142419132Y-77529950D01*
X142406242Y-77534138D01*
X142403199Y-77538327D01*
X142403199Y-77709196D01*
X139011600Y-77709196D01*
X139011600Y-75169196D01*
X142403199Y-75169196D01*
X142403577Y-75175338D01*
X142410920Y-75234875D01*
X142414371Y-75247945D01*
X142461773Y-75362103D01*
X142468584Y-75373760D01*
X142505099Y-75420412D01*
X142509125Y-75424959D01*
X143044781Y-75960615D01*
X143073007Y-76016013D01*
X143063281Y-76077421D01*
X143044781Y-76102885D01*
X142509154Y-76638513D01*
X142505073Y-76643129D01*
X142468167Y-76690418D01*
X142461366Y-76702099D01*
X142414162Y-76816341D01*
X142410737Y-76829398D01*
X142403569Y-76888200D01*
X142403200Y-76894274D01*
X142403200Y-77057617D01*
X142407388Y-77070507D01*
X142411577Y-77073550D01*
X143504467Y-77073550D01*
X143517357Y-77069362D01*
X143520400Y-77065173D01*
X143520400Y-77057617D01*
X143976800Y-77057617D01*
X143980988Y-77070507D01*
X143985177Y-77073550D01*
X145078068Y-77073550D01*
X145090958Y-77069362D01*
X145094001Y-77065173D01*
X145094001Y-76894304D01*
X145093623Y-76888162D01*
X145086280Y-76828625D01*
X145082829Y-76815555D01*
X145035427Y-76701397D01*
X145028616Y-76689740D01*
X144992101Y-76643088D01*
X144988075Y-76638541D01*
X144452419Y-76102885D01*
X144424193Y-76047487D01*
X144433919Y-75986079D01*
X144452419Y-75960615D01*
X144988046Y-75424987D01*
X144992127Y-75420371D01*
X145029033Y-75373082D01*
X145035834Y-75361401D01*
X145083038Y-75247159D01*
X145086463Y-75234102D01*
X145093631Y-75175300D01*
X145094000Y-75169226D01*
X145094000Y-75005883D01*
X145089812Y-74992993D01*
X145085623Y-74989950D01*
X143992733Y-74989950D01*
X143979843Y-74994138D01*
X143976800Y-74998327D01*
X143976800Y-77057617D01*
X143520400Y-77057617D01*
X143520400Y-75005883D01*
X143516212Y-74992993D01*
X143512023Y-74989950D01*
X142419132Y-74989950D01*
X142406242Y-74994138D01*
X142403199Y-74998327D01*
X142403199Y-75169196D01*
X139011600Y-75169196D01*
X139011600Y-74517617D01*
X142403200Y-74517617D01*
X142407388Y-74530507D01*
X142411577Y-74533550D01*
X143504467Y-74533550D01*
X143517357Y-74529362D01*
X143520400Y-74525173D01*
X143520400Y-74517617D01*
X143976800Y-74517617D01*
X143980988Y-74530507D01*
X143985177Y-74533550D01*
X145078068Y-74533550D01*
X145090958Y-74529362D01*
X145094001Y-74525173D01*
X145094001Y-74354304D01*
X145093623Y-74348162D01*
X145086280Y-74288625D01*
X145082829Y-74275555D01*
X145035427Y-74161397D01*
X145028616Y-74149740D01*
X144992101Y-74103088D01*
X144988075Y-74098541D01*
X144411837Y-73522304D01*
X144407221Y-73518223D01*
X144359932Y-73481317D01*
X144348251Y-73474516D01*
X144234009Y-73427312D01*
X144220952Y-73423887D01*
X144162150Y-73416719D01*
X144156076Y-73416350D01*
X143992733Y-73416350D01*
X143979843Y-73420538D01*
X143976800Y-73424727D01*
X143976800Y-74517617D01*
X143520400Y-74517617D01*
X143520400Y-73432282D01*
X143516212Y-73419392D01*
X143512023Y-73416349D01*
X143341154Y-73416349D01*
X143335012Y-73416727D01*
X143275475Y-73424070D01*
X143262405Y-73427521D01*
X143148247Y-73474923D01*
X143136590Y-73481734D01*
X143089938Y-73518249D01*
X143085391Y-73522275D01*
X142509154Y-74098513D01*
X142505073Y-74103129D01*
X142468167Y-74150418D01*
X142461366Y-74162099D01*
X142414162Y-74276341D01*
X142410737Y-74289398D01*
X142403569Y-74348200D01*
X142403200Y-74354274D01*
X142403200Y-74517617D01*
X139011600Y-74517617D01*
X139011600Y-71586750D01*
X142392941Y-71586750D01*
X142413537Y-71822158D01*
X142474697Y-72050413D01*
X142574565Y-72264579D01*
X142577080Y-72268171D01*
X142577083Y-72268176D01*
X142577084Y-72268177D01*
X142710105Y-72458151D01*
X142877199Y-72625245D01*
X142880793Y-72627762D01*
X142880796Y-72627764D01*
X143067174Y-72758267D01*
X143067179Y-72758270D01*
X143070771Y-72760785D01*
X143284937Y-72860653D01*
X143289184Y-72861791D01*
X143508944Y-72920675D01*
X143508947Y-72920675D01*
X143513192Y-72921813D01*
X143608943Y-72930190D01*
X143687448Y-72937059D01*
X143687454Y-72937059D01*
X143689634Y-72937250D01*
X143807566Y-72937250D01*
X143809746Y-72937059D01*
X143809752Y-72937059D01*
X143888257Y-72930190D01*
X143984008Y-72921813D01*
X143988253Y-72920675D01*
X143988256Y-72920675D01*
X144208016Y-72861791D01*
X144212263Y-72860653D01*
X144426429Y-72760785D01*
X144430021Y-72758270D01*
X144430026Y-72758267D01*
X144616404Y-72627764D01*
X144616407Y-72627762D01*
X144620001Y-72625245D01*
X144787095Y-72458151D01*
X144922635Y-72264580D01*
X145022503Y-72050413D01*
X145083663Y-71822158D01*
X145104259Y-71586750D01*
X145083663Y-71351342D01*
X145081468Y-71343148D01*
X145023641Y-71127334D01*
X145023640Y-71127332D01*
X145022503Y-71123087D01*
X144945474Y-70957899D01*
X144924492Y-70912903D01*
X144924491Y-70912901D01*
X144922635Y-70908921D01*
X144920120Y-70905329D01*
X144920117Y-70905324D01*
X144789614Y-70718946D01*
X144789612Y-70718943D01*
X144787095Y-70715349D01*
X144620001Y-70548255D01*
X144616407Y-70545738D01*
X144616404Y-70545736D01*
X144430026Y-70415233D01*
X144430021Y-70415230D01*
X144426429Y-70412715D01*
X144212263Y-70312847D01*
X144208016Y-70311709D01*
X143988256Y-70252825D01*
X143988253Y-70252825D01*
X143984008Y-70251687D01*
X143888257Y-70243310D01*
X143809752Y-70236441D01*
X143809746Y-70236441D01*
X143807566Y-70236250D01*
X143689634Y-70236250D01*
X143687454Y-70236441D01*
X143687448Y-70236441D01*
X143608943Y-70243310D01*
X143513192Y-70251687D01*
X143508947Y-70252825D01*
X143508944Y-70252825D01*
X143289184Y-70311709D01*
X143284937Y-70312847D01*
X143070771Y-70412715D01*
X143067179Y-70415230D01*
X143067174Y-70415233D01*
X142880796Y-70545736D01*
X142880793Y-70545738D01*
X142877199Y-70548255D01*
X142710105Y-70715349D01*
X142574565Y-70908920D01*
X142474697Y-71123087D01*
X142473560Y-71127332D01*
X142415733Y-71343148D01*
X142413537Y-71351342D01*
X142392941Y-71586750D01*
X139011600Y-71586750D01*
X139011600Y-69039285D01*
X141130741Y-69039285D01*
X141131406Y-69045309D01*
X141131406Y-69045313D01*
X141133574Y-69064947D01*
X141149538Y-69209541D01*
X141208403Y-69370399D01*
X141303940Y-69512572D01*
X141430632Y-69627853D01*
X141581165Y-69709586D01*
X141587035Y-69711126D01*
X141740982Y-69751513D01*
X141740983Y-69751513D01*
X141746849Y-69753052D01*
X141830029Y-69754359D01*
X141912055Y-69755648D01*
X141912057Y-69755648D01*
X141918118Y-69755743D01*
X141924029Y-69754389D01*
X141924031Y-69754389D01*
X142079176Y-69718856D01*
X142079179Y-69718855D01*
X142085086Y-69717502D01*
X142238112Y-69640538D01*
X142242724Y-69636599D01*
X142242727Y-69636597D01*
X142363750Y-69533233D01*
X142368362Y-69529294D01*
X142400717Y-69484268D01*
X142464780Y-69395114D01*
X142464782Y-69395111D01*
X142468317Y-69390191D01*
X142476274Y-69370399D01*
X142529945Y-69236889D01*
X142529945Y-69236888D01*
X142532207Y-69231262D01*
X142535299Y-69209541D01*
X142555877Y-69064947D01*
X142556342Y-69061680D01*
X142556498Y-69046750D01*
X142535920Y-68876700D01*
X142475373Y-68716467D01*
X142378353Y-68575302D01*
X142250461Y-68461354D01*
X142245101Y-68458516D01*
X142245098Y-68458514D01*
X142227825Y-68449368D01*
X142184558Y-68404719D01*
X142174300Y-68360462D01*
X142174300Y-67530142D01*
X142655900Y-67530142D01*
X142667857Y-67589801D01*
X142701310Y-67639772D01*
X143250580Y-68189040D01*
X143301219Y-68222770D01*
X143343333Y-68231109D01*
X143355379Y-68233494D01*
X143355381Y-68233494D01*
X143360208Y-68234450D01*
X144136992Y-68234450D01*
X144196651Y-68222493D01*
X144246622Y-68189040D01*
X144795890Y-67639770D01*
X144812282Y-67615161D01*
X144824137Y-67597363D01*
X144824137Y-67597362D01*
X144829620Y-67589131D01*
X144841300Y-67530142D01*
X144841300Y-66753358D01*
X144829343Y-66693699D01*
X144795890Y-66643728D01*
X144246620Y-66094460D01*
X144195981Y-66060730D01*
X144153867Y-66052391D01*
X144141821Y-66050006D01*
X144141819Y-66050006D01*
X144136992Y-66049050D01*
X143360208Y-66049050D01*
X143300549Y-66061007D01*
X143250578Y-66094460D01*
X142701310Y-66643730D01*
X142698550Y-66647874D01*
X142673502Y-66685479D01*
X142667580Y-66694369D01*
X142655900Y-66753358D01*
X142655900Y-67530142D01*
X142174300Y-67530142D01*
X142174300Y-64874411D01*
X142935300Y-64874411D01*
X142947257Y-64934070D01*
X142980710Y-64984041D01*
X143366311Y-65369640D01*
X143376454Y-65376396D01*
X143403976Y-65394728D01*
X143416950Y-65403370D01*
X143459064Y-65411709D01*
X143471110Y-65414094D01*
X143471112Y-65414094D01*
X143475939Y-65415050D01*
X144021261Y-65415050D01*
X144080920Y-65403093D01*
X144130891Y-65369640D01*
X144516490Y-64984039D01*
X144532882Y-64959430D01*
X144544737Y-64941632D01*
X144544737Y-64941631D01*
X144550220Y-64933400D01*
X144561900Y-64874411D01*
X144561900Y-64329089D01*
X144549943Y-64269430D01*
X144516490Y-64219459D01*
X144130889Y-63833860D01*
X144092705Y-63808426D01*
X144088482Y-63805613D01*
X144088481Y-63805613D01*
X144080250Y-63800130D01*
X144038136Y-63791791D01*
X144026090Y-63789406D01*
X144026088Y-63789406D01*
X144021261Y-63788450D01*
X143475939Y-63788450D01*
X143416280Y-63800407D01*
X143366309Y-63833860D01*
X142980710Y-64219461D01*
X142977950Y-64223605D01*
X142952902Y-64261210D01*
X142946980Y-64270100D01*
X142935300Y-64329089D01*
X142935300Y-64874411D01*
X142174300Y-64874411D01*
X142174300Y-62334411D01*
X142935300Y-62334411D01*
X142947257Y-62394070D01*
X142980710Y-62444041D01*
X143366311Y-62829640D01*
X143416950Y-62863370D01*
X143459064Y-62871709D01*
X143471110Y-62874094D01*
X143471112Y-62874094D01*
X143475939Y-62875050D01*
X144021261Y-62875050D01*
X144080920Y-62863093D01*
X144130891Y-62829640D01*
X144516490Y-62444039D01*
X144532882Y-62419430D01*
X144544737Y-62401632D01*
X144544737Y-62401631D01*
X144550220Y-62393400D01*
X144561900Y-62334411D01*
X144561900Y-61789089D01*
X144549943Y-61729430D01*
X144516490Y-61679459D01*
X144130889Y-61293860D01*
X144080250Y-61260130D01*
X144038136Y-61251791D01*
X144026090Y-61249406D01*
X144026088Y-61249406D01*
X144021261Y-61248450D01*
X143475939Y-61248450D01*
X143416280Y-61260407D01*
X143366309Y-61293860D01*
X142980710Y-61679461D01*
X142977950Y-61683605D01*
X142952902Y-61721210D01*
X142946980Y-61730100D01*
X142935300Y-61789089D01*
X142935300Y-62334411D01*
X142174300Y-62334411D01*
X142174300Y-61162142D01*
X142193513Y-61103011D01*
X142229700Y-61072269D01*
X142238112Y-61068038D01*
X142242724Y-61064099D01*
X142242727Y-61064097D01*
X142363750Y-60960733D01*
X142368362Y-60956794D01*
X142400717Y-60911768D01*
X142464780Y-60822614D01*
X142464782Y-60822611D01*
X142468317Y-60817691D01*
X142476274Y-60797899D01*
X142529945Y-60664389D01*
X142529945Y-60664388D01*
X142532207Y-60658762D01*
X142535299Y-60637041D01*
X142555877Y-60492447D01*
X142556342Y-60489180D01*
X142556498Y-60474250D01*
X142535920Y-60304200D01*
X142507664Y-60229421D01*
X142477518Y-60149643D01*
X142477517Y-60149641D01*
X142475373Y-60143967D01*
X142378353Y-60002802D01*
X142250461Y-59888854D01*
X142219153Y-59872277D01*
X142104442Y-59811541D01*
X142099080Y-59808702D01*
X142040935Y-59794097D01*
X141938836Y-59768451D01*
X141938832Y-59768451D01*
X141932950Y-59766973D01*
X141926885Y-59766941D01*
X141926883Y-59766941D01*
X141849603Y-59766537D01*
X141761662Y-59766077D01*
X141755765Y-59767493D01*
X141755763Y-59767493D01*
X141644950Y-59794097D01*
X141595104Y-59806064D01*
X141442892Y-59884626D01*
X141413064Y-59910647D01*
X141318386Y-59993239D01*
X141318384Y-59993242D01*
X141313814Y-59997228D01*
X141310326Y-60002191D01*
X141310325Y-60002192D01*
X141238204Y-60104811D01*
X141215321Y-60137370D01*
X141213120Y-60143015D01*
X141213119Y-60143017D01*
X141193298Y-60193856D01*
X141153099Y-60296959D01*
X141130741Y-60466785D01*
X141131406Y-60472809D01*
X141131406Y-60472813D01*
X141133574Y-60492447D01*
X141149538Y-60637041D01*
X141208403Y-60797899D01*
X141303940Y-60940072D01*
X141430632Y-61055353D01*
X141435964Y-61058248D01*
X141460303Y-61071464D01*
X141503101Y-61116564D01*
X141512900Y-61159872D01*
X141512900Y-68359706D01*
X141493687Y-68418837D01*
X141458442Y-68449100D01*
X141442892Y-68457126D01*
X141433420Y-68465389D01*
X141318386Y-68565739D01*
X141318384Y-68565742D01*
X141313814Y-68569728D01*
X141310326Y-68574691D01*
X141310325Y-68574692D01*
X141238204Y-68677311D01*
X141215321Y-68709870D01*
X141153099Y-68869459D01*
X141130741Y-69039285D01*
X139011600Y-69039285D01*
X139011600Y-57046196D01*
X141436700Y-57046196D01*
X141444273Y-57069502D01*
X141447957Y-57084848D01*
X141451791Y-57109056D01*
X141455384Y-57116107D01*
X141455384Y-57116108D01*
X141462916Y-57130890D01*
X141468955Y-57145468D01*
X141476530Y-57168782D01*
X141481186Y-57175190D01*
X141490935Y-57188608D01*
X141499181Y-57202063D01*
X141510308Y-57223901D01*
X141533234Y-57246827D01*
X142848522Y-58562116D01*
X142848526Y-58562119D01*
X142871449Y-58585042D01*
X142878501Y-58588635D01*
X142878502Y-58588636D01*
X142893281Y-58596166D01*
X142906733Y-58604409D01*
X142926568Y-58618820D01*
X142939092Y-58622889D01*
X142949876Y-58626393D01*
X142964462Y-58632435D01*
X142971211Y-58635874D01*
X142986294Y-58643559D01*
X142994112Y-58644797D01*
X142994114Y-58644798D01*
X143010500Y-58647393D01*
X143025843Y-58651076D01*
X143037692Y-58654925D01*
X143041624Y-58656203D01*
X143041625Y-58656203D01*
X143049153Y-58658649D01*
X143081572Y-58658649D01*
X143081576Y-58658650D01*
X143855887Y-58658650D01*
X143915018Y-58677863D01*
X143927022Y-58688115D01*
X144899735Y-59660829D01*
X144927961Y-59716227D01*
X144929200Y-59731964D01*
X144929200Y-65241787D01*
X144909987Y-65300918D01*
X144894732Y-65317595D01*
X144810888Y-65390737D01*
X144810884Y-65390741D01*
X144806314Y-65394728D01*
X144802826Y-65399691D01*
X144802825Y-65399692D01*
X144744551Y-65482608D01*
X144707821Y-65534870D01*
X144705620Y-65540515D01*
X144705619Y-65540517D01*
X144694634Y-65568693D01*
X144645599Y-65694459D01*
X144623241Y-65864285D01*
X144623906Y-65870309D01*
X144623906Y-65870313D01*
X144626074Y-65889947D01*
X144642038Y-66034541D01*
X144700903Y-66195399D01*
X144796440Y-66337572D01*
X144923132Y-66452853D01*
X144928459Y-66455745D01*
X144928460Y-66455746D01*
X144960874Y-66473345D01*
X145073665Y-66534586D01*
X145079535Y-66536126D01*
X145233482Y-66576513D01*
X145233483Y-66576513D01*
X145239349Y-66578052D01*
X145336590Y-66579580D01*
X145404560Y-66580648D01*
X145404562Y-66580648D01*
X145410618Y-66580743D01*
X145415895Y-66579534D01*
X145476464Y-66592406D01*
X145497302Y-66608395D01*
X145852235Y-66963329D01*
X145880461Y-67018727D01*
X145881700Y-67034464D01*
X145881700Y-87526196D01*
X145889273Y-87549502D01*
X145892957Y-87564848D01*
X145896791Y-87589056D01*
X145900384Y-87596107D01*
X145900384Y-87596108D01*
X145907916Y-87610890D01*
X145913955Y-87625468D01*
X145921530Y-87648782D01*
X145926186Y-87655190D01*
X145935935Y-87668608D01*
X145944181Y-87682063D01*
X145955308Y-87703901D01*
X146697878Y-88446471D01*
X146726104Y-88501869D01*
X146716378Y-88563277D01*
X146709050Y-88575449D01*
X146612821Y-88712370D01*
X146610620Y-88718015D01*
X146610619Y-88718017D01*
X146593352Y-88762304D01*
X146550599Y-88871959D01*
X146528241Y-89041785D01*
X146528906Y-89047809D01*
X146528906Y-89047813D01*
X146531074Y-89067447D01*
X146547038Y-89212041D01*
X146549122Y-89217735D01*
X146595009Y-89343129D01*
X146605903Y-89372899D01*
X146701440Y-89515072D01*
X146828132Y-89630353D01*
X146833459Y-89633245D01*
X146833460Y-89633246D01*
X146865874Y-89650845D01*
X146978665Y-89712086D01*
X146984535Y-89713626D01*
X147138482Y-89754013D01*
X147138483Y-89754013D01*
X147144349Y-89755552D01*
X147241590Y-89757080D01*
X147309560Y-89758148D01*
X147309562Y-89758148D01*
X147315618Y-89758243D01*
X147320895Y-89757034D01*
X147381464Y-89769906D01*
X147402302Y-89785895D01*
X147757235Y-90140829D01*
X147785461Y-90196227D01*
X147786700Y-90211964D01*
X147786700Y-97729036D01*
X147767487Y-97788167D01*
X147757235Y-97800171D01*
X147213012Y-98344395D01*
X146590308Y-98967099D01*
X146579181Y-98988937D01*
X146570936Y-99002391D01*
X146556530Y-99022218D01*
X146548956Y-99045529D01*
X146542917Y-99060108D01*
X146531791Y-99081944D01*
X146530553Y-99089761D01*
X146527957Y-99106152D01*
X146524273Y-99121498D01*
X146516700Y-99144804D01*
X146516700Y-108250331D01*
X146497487Y-108309462D01*
X146447187Y-108346007D01*
X146391593Y-108347900D01*
X146377950Y-108344473D01*
X146371885Y-108344441D01*
X146371883Y-108344441D01*
X146294603Y-108344037D01*
X146206662Y-108343577D01*
X146200765Y-108344993D01*
X146200763Y-108344993D01*
X146060501Y-108378667D01*
X146040104Y-108383564D01*
X145887892Y-108462126D01*
X145878420Y-108470389D01*
X145763386Y-108570739D01*
X145763384Y-108570742D01*
X145758814Y-108574728D01*
X145755326Y-108579691D01*
X145755325Y-108579692D01*
X145714232Y-108638162D01*
X145660321Y-108714870D01*
X145598099Y-108874459D01*
X145575741Y-109044285D01*
X145576406Y-109050309D01*
X145576406Y-109050313D01*
X145578574Y-109069947D01*
X145594538Y-109214541D01*
X145596622Y-109220235D01*
X145621540Y-109288327D01*
X145653403Y-109375399D01*
X145748940Y-109517572D01*
X145875632Y-109632853D01*
X146026165Y-109714586D01*
X146032035Y-109716126D01*
X146185982Y-109756513D01*
X146185983Y-109756513D01*
X146191849Y-109758052D01*
X146275029Y-109759359D01*
X146357055Y-109760648D01*
X146357057Y-109760648D01*
X146363118Y-109760743D01*
X146393642Y-109753752D01*
X146455568Y-109759279D01*
X146502421Y-109800150D01*
X146516700Y-109851813D01*
X146516700Y-118264287D01*
X146497487Y-118323418D01*
X146482232Y-118340095D01*
X146398388Y-118413237D01*
X146398384Y-118413241D01*
X146393814Y-118417228D01*
X146295321Y-118557370D01*
X146233099Y-118716959D01*
X146210741Y-118886785D01*
X146211406Y-118892809D01*
X146211406Y-118892813D01*
X146220139Y-118971913D01*
X146229538Y-119057041D01*
X146288403Y-119217899D01*
X146383940Y-119360072D01*
X146483805Y-119450942D01*
X146514610Y-119504949D01*
X146516700Y-119525349D01*
X146516700Y-121121700D01*
X146497487Y-121180831D01*
X146482232Y-121197508D01*
X146398286Y-121270739D01*
X146398284Y-121270742D01*
X146393714Y-121274728D01*
X146390226Y-121279691D01*
X146390225Y-121279692D01*
X146372882Y-121304369D01*
X146295221Y-121414870D01*
X146232999Y-121574459D01*
X146232207Y-121580473D01*
X146232207Y-121580474D01*
X146230007Y-121597185D01*
X146210641Y-121744285D01*
X146211306Y-121750309D01*
X146211306Y-121750313D01*
X146217387Y-121805389D01*
X146229438Y-121914541D01*
X146288303Y-122075399D01*
X146331809Y-122140142D01*
X146379443Y-122211028D01*
X146383840Y-122217572D01*
X146510532Y-122332853D01*
X146661065Y-122414586D01*
X146666935Y-122416126D01*
X146820882Y-122456513D01*
X146820883Y-122456513D01*
X146826749Y-122458052D01*
X146909929Y-122459359D01*
X146991955Y-122460648D01*
X146991957Y-122460648D01*
X146998018Y-122460743D01*
X147003929Y-122459389D01*
X147003931Y-122459389D01*
X147025646Y-122454415D01*
X147079488Y-122442084D01*
X147141414Y-122447611D01*
X147173080Y-122469010D01*
X148468435Y-123764365D01*
X148496661Y-123819763D01*
X148497900Y-123835500D01*
X148497900Y-129670417D01*
X148497517Y-129679185D01*
X148494076Y-129718517D01*
X148496354Y-129727019D01*
X148504291Y-129756642D01*
X148506191Y-129765208D01*
X148513049Y-129804101D01*
X148517447Y-129811719D01*
X148519476Y-129817293D01*
X148521983Y-129822668D01*
X148524260Y-129831166D01*
X148529309Y-129838376D01*
X148529309Y-129838377D01*
X148546905Y-129863508D01*
X148551619Y-129870907D01*
X148566959Y-129897475D01*
X148571361Y-129905099D01*
X148587084Y-129918292D01*
X148601611Y-129930482D01*
X148608081Y-129936411D01*
X149103435Y-130431766D01*
X149131661Y-130487164D01*
X149132900Y-130502901D01*
X149132900Y-132050599D01*
X149113687Y-132109730D01*
X149103435Y-132121734D01*
X147020581Y-134204589D01*
X147014111Y-134210518D01*
X146983861Y-134235901D01*
X146979460Y-134243524D01*
X146979459Y-134243525D01*
X146964119Y-134270093D01*
X146959405Y-134277492D01*
X146941809Y-134302623D01*
X146936760Y-134309834D01*
X146934483Y-134318332D01*
X146931976Y-134323707D01*
X146929947Y-134329281D01*
X146925549Y-134336899D01*
X146924022Y-134345561D01*
X146924021Y-134345563D01*
X146918691Y-134375792D01*
X146916791Y-134384358D01*
X146906576Y-134422483D01*
X146907343Y-134431251D01*
X146910017Y-134461815D01*
X146910400Y-134470583D01*
X146910400Y-135987206D01*
X146891187Y-136046337D01*
X146855942Y-136076600D01*
X146840392Y-136084626D01*
X146830920Y-136092889D01*
X146715886Y-136193239D01*
X146715884Y-136193242D01*
X146711314Y-136197228D01*
X146707826Y-136202191D01*
X146707825Y-136202192D01*
X146635704Y-136304811D01*
X146612821Y-136337370D01*
X146550599Y-136496959D01*
X146528241Y-136666785D01*
X146528906Y-136672809D01*
X146528906Y-136672813D01*
X146534987Y-136727889D01*
X146547038Y-136837041D01*
X146554987Y-136858762D01*
X146596561Y-136972370D01*
X146605903Y-136997899D01*
X146620565Y-137019718D01*
X146697043Y-137133528D01*
X146701440Y-137140072D01*
X146828132Y-137255353D01*
X146978665Y-137337086D01*
X146984535Y-137338626D01*
X147138482Y-137379013D01*
X147138483Y-137379013D01*
X147144349Y-137380552D01*
X147227529Y-137381859D01*
X147309555Y-137383148D01*
X147309557Y-137383148D01*
X147315618Y-137383243D01*
X147321529Y-137381889D01*
X147321531Y-137381889D01*
X147476676Y-137346356D01*
X147476679Y-137346355D01*
X147482586Y-137345002D01*
X147635612Y-137268038D01*
X147640228Y-137264096D01*
X147645276Y-137260742D01*
X147646817Y-137263062D01*
X147693847Y-137243613D01*
X147754295Y-137258163D01*
X147794646Y-137305465D01*
X147801673Y-137332868D01*
X147803012Y-137345002D01*
X147816247Y-137464875D01*
X147817038Y-137472041D01*
X147824987Y-137493762D01*
X147866798Y-137608017D01*
X147875903Y-137632899D01*
X147917124Y-137694242D01*
X147967203Y-137768766D01*
X147971440Y-137775072D01*
X148098132Y-137890353D01*
X148248665Y-137972086D01*
X148254535Y-137973626D01*
X148408482Y-138014013D01*
X148408483Y-138014013D01*
X148414349Y-138015552D01*
X148497529Y-138016859D01*
X148579555Y-138018148D01*
X148579557Y-138018148D01*
X148585618Y-138018243D01*
X148591529Y-138016889D01*
X148591531Y-138016889D01*
X148746676Y-137981356D01*
X148746679Y-137981355D01*
X148752586Y-137980002D01*
X148905612Y-137903038D01*
X148910224Y-137899099D01*
X148910227Y-137899097D01*
X149031250Y-137795733D01*
X149035862Y-137791794D01*
X149127246Y-137664619D01*
X149132280Y-137657614D01*
X149132282Y-137657611D01*
X149135817Y-137652691D01*
X149143774Y-137632899D01*
X149197445Y-137499389D01*
X149197445Y-137499388D01*
X149199707Y-137493762D01*
X149200857Y-137485686D01*
X149213166Y-137399196D01*
X151928199Y-137399196D01*
X151928577Y-137405338D01*
X151935920Y-137464875D01*
X151939371Y-137477945D01*
X151986773Y-137592103D01*
X151993584Y-137603760D01*
X152030099Y-137650412D01*
X152034125Y-137654959D01*
X152610363Y-138231196D01*
X152614979Y-138235277D01*
X152662268Y-138272183D01*
X152673949Y-138278984D01*
X152788191Y-138326188D01*
X152801248Y-138329613D01*
X152860050Y-138336781D01*
X152866124Y-138337150D01*
X153029467Y-138337150D01*
X153042357Y-138332962D01*
X153045400Y-138328773D01*
X153045400Y-138321218D01*
X153501800Y-138321218D01*
X153505988Y-138334108D01*
X153510177Y-138337151D01*
X153681046Y-138337151D01*
X153687188Y-138336773D01*
X153746725Y-138329430D01*
X153759795Y-138325979D01*
X153873953Y-138278577D01*
X153885610Y-138271766D01*
X153932262Y-138235251D01*
X153936809Y-138231225D01*
X154513046Y-137654987D01*
X154517127Y-137650371D01*
X154554033Y-137603082D01*
X154560834Y-137591401D01*
X154608038Y-137477159D01*
X154611463Y-137464102D01*
X154618631Y-137405300D01*
X154619000Y-137399226D01*
X154619000Y-137235883D01*
X154614812Y-137222993D01*
X154610623Y-137219950D01*
X153517733Y-137219950D01*
X153504843Y-137224138D01*
X153501800Y-137228327D01*
X153501800Y-138321218D01*
X153045400Y-138321218D01*
X153045400Y-137235883D01*
X153041212Y-137222993D01*
X153037023Y-137219950D01*
X151944132Y-137219950D01*
X151931242Y-137224138D01*
X151928199Y-137228327D01*
X151928199Y-137399196D01*
X149213166Y-137399196D01*
X149223377Y-137327447D01*
X149223842Y-137324180D01*
X149223998Y-137309250D01*
X149203420Y-137139200D01*
X149147874Y-136992200D01*
X149145018Y-136984643D01*
X149145017Y-136984641D01*
X149142873Y-136978967D01*
X149045853Y-136837802D01*
X148917961Y-136723854D01*
X148912601Y-136721016D01*
X148912598Y-136721014D01*
X148895325Y-136711868D01*
X148852058Y-136667219D01*
X148841800Y-136622962D01*
X148841800Y-134859196D01*
X151928199Y-134859196D01*
X151928577Y-134865338D01*
X151935920Y-134924875D01*
X151939371Y-134937945D01*
X151986773Y-135052103D01*
X151993584Y-135063760D01*
X152030099Y-135110412D01*
X152034125Y-135114959D01*
X152569781Y-135650615D01*
X152598007Y-135706013D01*
X152588281Y-135767421D01*
X152569781Y-135792885D01*
X152034154Y-136328513D01*
X152030073Y-136333129D01*
X151993167Y-136380418D01*
X151986366Y-136392099D01*
X151939162Y-136506341D01*
X151935737Y-136519398D01*
X151928569Y-136578200D01*
X151928200Y-136584274D01*
X151928200Y-136747617D01*
X151932388Y-136760507D01*
X151936577Y-136763550D01*
X153029467Y-136763550D01*
X153042357Y-136759362D01*
X153045400Y-136755173D01*
X153045400Y-136747617D01*
X153501800Y-136747617D01*
X153505988Y-136760507D01*
X153510177Y-136763550D01*
X154603068Y-136763550D01*
X154615958Y-136759362D01*
X154619001Y-136755173D01*
X154619001Y-136584304D01*
X154618623Y-136578162D01*
X154611280Y-136518625D01*
X154607829Y-136505555D01*
X154560427Y-136391397D01*
X154553616Y-136379740D01*
X154517101Y-136333088D01*
X154513075Y-136328541D01*
X153977419Y-135792885D01*
X153949193Y-135737487D01*
X153958919Y-135676079D01*
X153977419Y-135650615D01*
X154513046Y-135114987D01*
X154517127Y-135110371D01*
X154554033Y-135063082D01*
X154560834Y-135051401D01*
X154608038Y-134937159D01*
X154611463Y-134924102D01*
X154618631Y-134865300D01*
X154619000Y-134859226D01*
X154619000Y-134695883D01*
X154614812Y-134682993D01*
X154610623Y-134679950D01*
X153517733Y-134679950D01*
X153504843Y-134684138D01*
X153501800Y-134688327D01*
X153501800Y-136747617D01*
X153045400Y-136747617D01*
X153045400Y-134695883D01*
X153041212Y-134682993D01*
X153037023Y-134679950D01*
X151944132Y-134679950D01*
X151931242Y-134684138D01*
X151928199Y-134688327D01*
X151928199Y-134859196D01*
X148841800Y-134859196D01*
X148841800Y-134312900D01*
X148861013Y-134253769D01*
X148871265Y-134241765D01*
X148905413Y-134207617D01*
X151928200Y-134207617D01*
X151932388Y-134220507D01*
X151936577Y-134223550D01*
X153029467Y-134223550D01*
X153042357Y-134219362D01*
X153045400Y-134215173D01*
X153045400Y-134207617D01*
X153501800Y-134207617D01*
X153505988Y-134220507D01*
X153510177Y-134223550D01*
X154603068Y-134223550D01*
X154615958Y-134219362D01*
X154619001Y-134215173D01*
X154619001Y-134044304D01*
X154618623Y-134038162D01*
X154611280Y-133978625D01*
X154607829Y-133965555D01*
X154560427Y-133851397D01*
X154553616Y-133839740D01*
X154517101Y-133793088D01*
X154513075Y-133788541D01*
X153936837Y-133212304D01*
X153932221Y-133208223D01*
X153884932Y-133171317D01*
X153873251Y-133164516D01*
X153759009Y-133117312D01*
X153745952Y-133113887D01*
X153687150Y-133106719D01*
X153681076Y-133106350D01*
X153517733Y-133106350D01*
X153504843Y-133110538D01*
X153501800Y-133114727D01*
X153501800Y-134207617D01*
X153045400Y-134207617D01*
X153045400Y-133122282D01*
X153041212Y-133109392D01*
X153037023Y-133106349D01*
X152866154Y-133106349D01*
X152860012Y-133106727D01*
X152800475Y-133114070D01*
X152787405Y-133117521D01*
X152673247Y-133164923D01*
X152661590Y-133171734D01*
X152614938Y-133208249D01*
X152610391Y-133212275D01*
X152034154Y-133788513D01*
X152030073Y-133793129D01*
X151993167Y-133840418D01*
X151986366Y-133852099D01*
X151939162Y-133966341D01*
X151935737Y-133979398D01*
X151928569Y-134038200D01*
X151928200Y-134044274D01*
X151928200Y-134207617D01*
X148905413Y-134207617D01*
X149900727Y-133212304D01*
X150954125Y-132158906D01*
X150960595Y-132152977D01*
X150984099Y-132133255D01*
X150984100Y-132133254D01*
X150990839Y-132127599D01*
X151010574Y-132093417D01*
X151015289Y-132086015D01*
X151032893Y-132060874D01*
X151032893Y-132060873D01*
X151037940Y-132053666D01*
X151040217Y-132045169D01*
X151042724Y-132039793D01*
X151044753Y-132034219D01*
X151049151Y-132026601D01*
X151052698Y-132006489D01*
X151056009Y-131987708D01*
X151057909Y-131979142D01*
X151065846Y-131949519D01*
X151068124Y-131941017D01*
X151064683Y-131901685D01*
X151064300Y-131892917D01*
X151064300Y-126677442D01*
X151064322Y-126675362D01*
X151065254Y-126630290D01*
X151065253Y-126630284D01*
X151065435Y-126621488D01*
X151057352Y-126597765D01*
X151053504Y-126582788D01*
X151050679Y-126566765D01*
X151049151Y-126558099D01*
X151044752Y-126550480D01*
X151044751Y-126550477D01*
X151041110Y-126544171D01*
X151033009Y-126526318D01*
X151027823Y-126511097D01*
X151012107Y-126491561D01*
X151003370Y-126478805D01*
X150995238Y-126464720D01*
X150990839Y-126457101D01*
X150984102Y-126451448D01*
X150984097Y-126451442D01*
X150949559Y-126422461D01*
X150947980Y-126421109D01*
X149828656Y-125441745D01*
X149796806Y-125388348D01*
X149794300Y-125366034D01*
X149794300Y-124699196D01*
X151928199Y-124699196D01*
X151928577Y-124705338D01*
X151935920Y-124764875D01*
X151939371Y-124777945D01*
X151986773Y-124892103D01*
X151993584Y-124903760D01*
X152030099Y-124950412D01*
X152034125Y-124954959D01*
X152610363Y-125531196D01*
X152614979Y-125535277D01*
X152662268Y-125572183D01*
X152673949Y-125578984D01*
X152788191Y-125626188D01*
X152801248Y-125629613D01*
X152860050Y-125636781D01*
X152866124Y-125637150D01*
X153029467Y-125637150D01*
X153042357Y-125632962D01*
X153045400Y-125628773D01*
X153045400Y-125621218D01*
X153501800Y-125621218D01*
X153505988Y-125634108D01*
X153510177Y-125637151D01*
X153681046Y-125637151D01*
X153687188Y-125636773D01*
X153746725Y-125629430D01*
X153759795Y-125625979D01*
X153873953Y-125578577D01*
X153885610Y-125571766D01*
X153932262Y-125535251D01*
X153936809Y-125531225D01*
X154513046Y-124954987D01*
X154517127Y-124950371D01*
X154554033Y-124903082D01*
X154560834Y-124891401D01*
X154608038Y-124777159D01*
X154611463Y-124764102D01*
X154618631Y-124705300D01*
X154619000Y-124699226D01*
X154619000Y-124535883D01*
X154614812Y-124522993D01*
X154610623Y-124519950D01*
X153517733Y-124519950D01*
X153504843Y-124524138D01*
X153501800Y-124528327D01*
X153501800Y-125621218D01*
X153045400Y-125621218D01*
X153045400Y-124535883D01*
X153041212Y-124522993D01*
X153037023Y-124519950D01*
X151944132Y-124519950D01*
X151931242Y-124524138D01*
X151928199Y-124528327D01*
X151928199Y-124699196D01*
X149794300Y-124699196D01*
X149794300Y-124047617D01*
X151928200Y-124047617D01*
X151932388Y-124060507D01*
X151936577Y-124063550D01*
X154603068Y-124063550D01*
X154615958Y-124059362D01*
X154619001Y-124055173D01*
X154619001Y-123884304D01*
X154618623Y-123878162D01*
X154611280Y-123818625D01*
X154607829Y-123805555D01*
X154560427Y-123691397D01*
X154553616Y-123679740D01*
X154517101Y-123633088D01*
X154513075Y-123628541D01*
X153936837Y-123052304D01*
X153932221Y-123048223D01*
X153884932Y-123011317D01*
X153873251Y-123004515D01*
X153793899Y-122971728D01*
X153746586Y-122931390D01*
X153732019Y-122870946D01*
X153755762Y-122813484D01*
X153768009Y-122801458D01*
X153771622Y-122799040D01*
X154320890Y-122249770D01*
X154346696Y-122211028D01*
X154349137Y-122207363D01*
X154349137Y-122207362D01*
X154354620Y-122199131D01*
X154366300Y-122140142D01*
X154366300Y-121363358D01*
X154354343Y-121303699D01*
X154320890Y-121253728D01*
X153771620Y-120704460D01*
X153720981Y-120670730D01*
X153678867Y-120662391D01*
X153666821Y-120660006D01*
X153666819Y-120660006D01*
X153661992Y-120659050D01*
X152885208Y-120659050D01*
X152825549Y-120671007D01*
X152775578Y-120704460D01*
X152226310Y-121253730D01*
X152209918Y-121278339D01*
X152198502Y-121295479D01*
X152192580Y-121304369D01*
X152180900Y-121363358D01*
X152180900Y-122140142D01*
X152192857Y-122199801D01*
X152226310Y-122249772D01*
X152775580Y-122799040D01*
X152778815Y-122801194D01*
X152812186Y-122853242D01*
X152808571Y-122915311D01*
X152769163Y-122963401D01*
X152753443Y-122971622D01*
X152673247Y-123004922D01*
X152661590Y-123011734D01*
X152614938Y-123048249D01*
X152610391Y-123052275D01*
X152034154Y-123628513D01*
X152030073Y-123633129D01*
X151993167Y-123680418D01*
X151986366Y-123692099D01*
X151939162Y-123806341D01*
X151935737Y-123819398D01*
X151928569Y-123878200D01*
X151928200Y-123884274D01*
X151928200Y-124047617D01*
X149794300Y-124047617D01*
X149794300Y-122723083D01*
X149794683Y-122714315D01*
X149798124Y-122674983D01*
X149800492Y-122675190D01*
X149804924Y-122645349D01*
X149832445Y-122576889D01*
X149834707Y-122571262D01*
X149837799Y-122549541D01*
X149858377Y-122404947D01*
X149858842Y-122401680D01*
X149858998Y-122386750D01*
X149841928Y-122245686D01*
X149839149Y-122222722D01*
X149839148Y-122222720D01*
X149838420Y-122216700D01*
X149835141Y-122208021D01*
X149780018Y-122062143D01*
X149780017Y-122062141D01*
X149777873Y-122056467D01*
X149680853Y-121915302D01*
X149552961Y-121801354D01*
X149401580Y-121721202D01*
X149319238Y-121700519D01*
X149241336Y-121680951D01*
X149241332Y-121680951D01*
X149235450Y-121679473D01*
X149229385Y-121679441D01*
X149229383Y-121679441D01*
X149152840Y-121679041D01*
X149064162Y-121678577D01*
X149064164Y-121678216D01*
X149006665Y-121666627D01*
X148984908Y-121650114D01*
X148312465Y-120977672D01*
X148284239Y-120922274D01*
X148283000Y-120906537D01*
X148283000Y-118576750D01*
X151917941Y-118576750D01*
X151938537Y-118812158D01*
X151999697Y-119040413D01*
X152099565Y-119254579D01*
X152102080Y-119258171D01*
X152102083Y-119258176D01*
X152232586Y-119444554D01*
X152235105Y-119448151D01*
X152402199Y-119615245D01*
X152405793Y-119617762D01*
X152405796Y-119617764D01*
X152592174Y-119748267D01*
X152592179Y-119748270D01*
X152595771Y-119750785D01*
X152809937Y-119850653D01*
X152814184Y-119851791D01*
X153033944Y-119910675D01*
X153033947Y-119910675D01*
X153038192Y-119911813D01*
X153133943Y-119920190D01*
X153212448Y-119927059D01*
X153212454Y-119927059D01*
X153214634Y-119927250D01*
X153332566Y-119927250D01*
X153334746Y-119927059D01*
X153334752Y-119927059D01*
X153413257Y-119920190D01*
X153509008Y-119911813D01*
X153513253Y-119910675D01*
X153513256Y-119910675D01*
X153733016Y-119851791D01*
X153737263Y-119850653D01*
X153951429Y-119750785D01*
X153955021Y-119748270D01*
X153955026Y-119748267D01*
X154141404Y-119617764D01*
X154141407Y-119617762D01*
X154145001Y-119615245D01*
X154312095Y-119448151D01*
X154447635Y-119254580D01*
X154547503Y-119040413D01*
X154608663Y-118812158D01*
X154629259Y-118576750D01*
X154628058Y-118563017D01*
X154626832Y-118549007D01*
X154608663Y-118341342D01*
X154603861Y-118323418D01*
X154548641Y-118117334D01*
X154548640Y-118117332D01*
X154547503Y-118113087D01*
X154447635Y-117898921D01*
X154445120Y-117895329D01*
X154445117Y-117895324D01*
X154314614Y-117708946D01*
X154314612Y-117708943D01*
X154312095Y-117705349D01*
X154145001Y-117538255D01*
X154141407Y-117535738D01*
X154141404Y-117535736D01*
X153955026Y-117405233D01*
X153955021Y-117405230D01*
X153951429Y-117402715D01*
X153737263Y-117302847D01*
X153733016Y-117301709D01*
X153513256Y-117242825D01*
X153513253Y-117242825D01*
X153509008Y-117241687D01*
X153413257Y-117233310D01*
X153334752Y-117226441D01*
X153334746Y-117226441D01*
X153332566Y-117226250D01*
X153214634Y-117226250D01*
X153212454Y-117226441D01*
X153212448Y-117226441D01*
X153133943Y-117233310D01*
X153038192Y-117241687D01*
X153033947Y-117242825D01*
X153033944Y-117242825D01*
X152814184Y-117301709D01*
X152809937Y-117302847D01*
X152595771Y-117402715D01*
X152592179Y-117405230D01*
X152592174Y-117405233D01*
X152405796Y-117535736D01*
X152405793Y-117535738D01*
X152402199Y-117538255D01*
X152235105Y-117705349D01*
X152099565Y-117898920D01*
X151999697Y-118113087D01*
X151975154Y-118204685D01*
X151943340Y-118323418D01*
X151938537Y-118341342D01*
X151920368Y-118549007D01*
X151919143Y-118563017D01*
X151917941Y-118576750D01*
X148283000Y-118576750D01*
X148283000Y-118353504D01*
X148275427Y-118330198D01*
X148271743Y-118314852D01*
X148269147Y-118298461D01*
X148267909Y-118290644D01*
X148256783Y-118268808D01*
X148250744Y-118254229D01*
X148243170Y-118230918D01*
X148228764Y-118211091D01*
X148220519Y-118197637D01*
X148209392Y-118175799D01*
X147994965Y-117961372D01*
X147966739Y-117905974D01*
X147965500Y-117890237D01*
X147965500Y-111999196D01*
X151928199Y-111999196D01*
X151928577Y-112005338D01*
X151935920Y-112064875D01*
X151939371Y-112077945D01*
X151986773Y-112192103D01*
X151993584Y-112203760D01*
X152030099Y-112250412D01*
X152034125Y-112254959D01*
X152610363Y-112831196D01*
X152614979Y-112835277D01*
X152662268Y-112872183D01*
X152673949Y-112878985D01*
X152753301Y-112911772D01*
X152800614Y-112952110D01*
X152815181Y-113012554D01*
X152791438Y-113070016D01*
X152779191Y-113082042D01*
X152775578Y-113084460D01*
X152226310Y-113633730D01*
X152223550Y-113637874D01*
X152198502Y-113675479D01*
X152192580Y-113684369D01*
X152180900Y-113743358D01*
X152180900Y-114520142D01*
X152192857Y-114579801D01*
X152226310Y-114629772D01*
X152775580Y-115179040D01*
X152826219Y-115212770D01*
X152868333Y-115221109D01*
X152880379Y-115223494D01*
X152880381Y-115223494D01*
X152885208Y-115224450D01*
X153661992Y-115224450D01*
X153721651Y-115212493D01*
X153771622Y-115179040D01*
X154320890Y-114629770D01*
X154337282Y-114605161D01*
X154349137Y-114587363D01*
X154349137Y-114587362D01*
X154354620Y-114579131D01*
X154366300Y-114520142D01*
X154366300Y-113743358D01*
X154354343Y-113683699D01*
X154320890Y-113633728D01*
X153771620Y-113084460D01*
X153768385Y-113082306D01*
X153735014Y-113030258D01*
X153738629Y-112968189D01*
X153778037Y-112920099D01*
X153793757Y-112911878D01*
X153873953Y-112878578D01*
X153885610Y-112871766D01*
X153932262Y-112835251D01*
X153936809Y-112831225D01*
X154513046Y-112254987D01*
X154517127Y-112250371D01*
X154554033Y-112203082D01*
X154560834Y-112191401D01*
X154608038Y-112077159D01*
X154611463Y-112064102D01*
X154618631Y-112005300D01*
X154619000Y-111999226D01*
X154619000Y-111835883D01*
X154614812Y-111822993D01*
X154610623Y-111819950D01*
X151944132Y-111819950D01*
X151931242Y-111824138D01*
X151928199Y-111828327D01*
X151928199Y-111999196D01*
X147965500Y-111999196D01*
X147965500Y-109853989D01*
X147984713Y-109794858D01*
X148035013Y-109758313D01*
X148084813Y-109756879D01*
X148084976Y-109755690D01*
X148090981Y-109756513D01*
X148096849Y-109758052D01*
X148180029Y-109759359D01*
X148262055Y-109760648D01*
X148262057Y-109760648D01*
X148268118Y-109760743D01*
X148274029Y-109759389D01*
X148274031Y-109759389D01*
X148429176Y-109723856D01*
X148429179Y-109723855D01*
X148435086Y-109722502D01*
X148588112Y-109645538D01*
X148592724Y-109641599D01*
X148592727Y-109641597D01*
X148713750Y-109538233D01*
X148718362Y-109534294D01*
X148767939Y-109465300D01*
X148772325Y-109459196D01*
X151928199Y-109459196D01*
X151928577Y-109465338D01*
X151935920Y-109524875D01*
X151939371Y-109537945D01*
X151986773Y-109652103D01*
X151993584Y-109663760D01*
X152030099Y-109710412D01*
X152034125Y-109714959D01*
X152569781Y-110250615D01*
X152598007Y-110306013D01*
X152588281Y-110367421D01*
X152569781Y-110392885D01*
X152034154Y-110928513D01*
X152030073Y-110933129D01*
X151993167Y-110980418D01*
X151986366Y-110992099D01*
X151939162Y-111106341D01*
X151935737Y-111119398D01*
X151928569Y-111178200D01*
X151928200Y-111184274D01*
X151928200Y-111347617D01*
X151932388Y-111360507D01*
X151936577Y-111363550D01*
X153029467Y-111363550D01*
X153042357Y-111359362D01*
X153045400Y-111355173D01*
X153045400Y-111347617D01*
X153501800Y-111347617D01*
X153505988Y-111360507D01*
X153510177Y-111363550D01*
X154603068Y-111363550D01*
X154615958Y-111359362D01*
X154619001Y-111355173D01*
X154619001Y-111184304D01*
X154618623Y-111178162D01*
X154611280Y-111118625D01*
X154607829Y-111105555D01*
X154560427Y-110991397D01*
X154553616Y-110979740D01*
X154517101Y-110933088D01*
X154513075Y-110928541D01*
X153977419Y-110392885D01*
X153949193Y-110337487D01*
X153958919Y-110276079D01*
X153977419Y-110250615D01*
X154513046Y-109714987D01*
X154517127Y-109710371D01*
X154554033Y-109663082D01*
X154560834Y-109651401D01*
X154608038Y-109537159D01*
X154611463Y-109524102D01*
X154618631Y-109465300D01*
X154619000Y-109459226D01*
X154619000Y-109295883D01*
X154614812Y-109282993D01*
X154610623Y-109279950D01*
X153517733Y-109279950D01*
X153504843Y-109284138D01*
X153501800Y-109288327D01*
X153501800Y-111347617D01*
X153045400Y-111347617D01*
X153045400Y-109295883D01*
X153041212Y-109282993D01*
X153037023Y-109279950D01*
X151944132Y-109279950D01*
X151931242Y-109284138D01*
X151928199Y-109288327D01*
X151928199Y-109459196D01*
X148772325Y-109459196D01*
X148814780Y-109400114D01*
X148814782Y-109400111D01*
X148818317Y-109395191D01*
X148826274Y-109375399D01*
X148879945Y-109241889D01*
X148879945Y-109241888D01*
X148882207Y-109236262D01*
X148885299Y-109214541D01*
X148905877Y-109069947D01*
X148906342Y-109066680D01*
X148906498Y-109051750D01*
X148885920Y-108881700D01*
X148862365Y-108819362D01*
X148857927Y-108807617D01*
X151928200Y-108807617D01*
X151932388Y-108820507D01*
X151936577Y-108823550D01*
X153029467Y-108823550D01*
X153042357Y-108819362D01*
X153045400Y-108815173D01*
X153045400Y-108807617D01*
X153501800Y-108807617D01*
X153505988Y-108820507D01*
X153510177Y-108823550D01*
X154603068Y-108823550D01*
X154615958Y-108819362D01*
X154619001Y-108815173D01*
X154619001Y-108644304D01*
X154618623Y-108638162D01*
X154611280Y-108578625D01*
X154607829Y-108565555D01*
X154560427Y-108451397D01*
X154553616Y-108439740D01*
X154517101Y-108393088D01*
X154513075Y-108388541D01*
X153936837Y-107812304D01*
X153932221Y-107808223D01*
X153884932Y-107771317D01*
X153873251Y-107764516D01*
X153759009Y-107717312D01*
X153745952Y-107713887D01*
X153687150Y-107706719D01*
X153681076Y-107706350D01*
X153517733Y-107706350D01*
X153504843Y-107710538D01*
X153501800Y-107714727D01*
X153501800Y-108807617D01*
X153045400Y-108807617D01*
X153045400Y-107722282D01*
X153041212Y-107709392D01*
X153037023Y-107706349D01*
X152866154Y-107706349D01*
X152860012Y-107706727D01*
X152800475Y-107714070D01*
X152787405Y-107717521D01*
X152673247Y-107764923D01*
X152661590Y-107771734D01*
X152614938Y-107808249D01*
X152610391Y-107812275D01*
X152034154Y-108388513D01*
X152030073Y-108393129D01*
X151993167Y-108440418D01*
X151986366Y-108452099D01*
X151939162Y-108566341D01*
X151935737Y-108579398D01*
X151928569Y-108638200D01*
X151928200Y-108644274D01*
X151928200Y-108807617D01*
X148857927Y-108807617D01*
X148827518Y-108727143D01*
X148827517Y-108727141D01*
X148825373Y-108721467D01*
X148728353Y-108580302D01*
X148600461Y-108466354D01*
X148449080Y-108386202D01*
X148394828Y-108372575D01*
X148288836Y-108345951D01*
X148288832Y-108345951D01*
X148282950Y-108344473D01*
X148276885Y-108344441D01*
X148276883Y-108344441D01*
X148198852Y-108344033D01*
X148111662Y-108343577D01*
X148089582Y-108348878D01*
X148027600Y-108343999D01*
X147980323Y-108303619D01*
X147965500Y-108251057D01*
X147965500Y-105876750D01*
X151917941Y-105876750D01*
X151938537Y-106112158D01*
X151939675Y-106116403D01*
X151939675Y-106116406D01*
X151957108Y-106181467D01*
X151999697Y-106340413D01*
X152099565Y-106554579D01*
X152102080Y-106558171D01*
X152102083Y-106558176D01*
X152194567Y-106690257D01*
X152235105Y-106748151D01*
X152402199Y-106915245D01*
X152405793Y-106917762D01*
X152405796Y-106917764D01*
X152592174Y-107048267D01*
X152592179Y-107048270D01*
X152595771Y-107050785D01*
X152809937Y-107150653D01*
X152814184Y-107151791D01*
X153033944Y-107210675D01*
X153033947Y-107210675D01*
X153038192Y-107211813D01*
X153133943Y-107220190D01*
X153212448Y-107227059D01*
X153212454Y-107227059D01*
X153214634Y-107227250D01*
X153332566Y-107227250D01*
X153334746Y-107227059D01*
X153334752Y-107227059D01*
X153413257Y-107220190D01*
X153509008Y-107211813D01*
X153513253Y-107210675D01*
X153513256Y-107210675D01*
X153733016Y-107151791D01*
X153737263Y-107150653D01*
X153951429Y-107050785D01*
X153955021Y-107048270D01*
X153955026Y-107048267D01*
X154141404Y-106917764D01*
X154141407Y-106917762D01*
X154145001Y-106915245D01*
X154312095Y-106748151D01*
X154447635Y-106554580D01*
X154547503Y-106340413D01*
X154590092Y-106181467D01*
X154607525Y-106116406D01*
X154607525Y-106116403D01*
X154608663Y-106112158D01*
X154629259Y-105876750D01*
X154608663Y-105641342D01*
X154547503Y-105413087D01*
X154447635Y-105198921D01*
X154445120Y-105195329D01*
X154445117Y-105195324D01*
X154314614Y-105008946D01*
X154314612Y-105008943D01*
X154312095Y-105005349D01*
X154145001Y-104838255D01*
X154141407Y-104835738D01*
X154141404Y-104835736D01*
X153955026Y-104705233D01*
X153955021Y-104705230D01*
X153951429Y-104702715D01*
X153737263Y-104602847D01*
X153733016Y-104601709D01*
X153513256Y-104542825D01*
X153513253Y-104542825D01*
X153509008Y-104541687D01*
X153413257Y-104533310D01*
X153334752Y-104526441D01*
X153334746Y-104526441D01*
X153332566Y-104526250D01*
X153214634Y-104526250D01*
X153212454Y-104526441D01*
X153212448Y-104526441D01*
X153133943Y-104533310D01*
X153038192Y-104541687D01*
X153033947Y-104542825D01*
X153033944Y-104542825D01*
X152814184Y-104601709D01*
X152809937Y-104602847D01*
X152595771Y-104702715D01*
X152592179Y-104705230D01*
X152592174Y-104705233D01*
X152405796Y-104835736D01*
X152405793Y-104835738D01*
X152402199Y-104838255D01*
X152235105Y-105005349D01*
X152099565Y-105198920D01*
X151999697Y-105413087D01*
X151938537Y-105641342D01*
X151917941Y-105876750D01*
X147965500Y-105876750D01*
X147965500Y-101916117D01*
X147965504Y-101820142D01*
X152180900Y-101820142D01*
X152192857Y-101879801D01*
X152226310Y-101929772D01*
X152775580Y-102479040D01*
X152826219Y-102512770D01*
X152856719Y-102518809D01*
X152880379Y-102523494D01*
X152880381Y-102523494D01*
X152885208Y-102524450D01*
X153661992Y-102524450D01*
X153721651Y-102512493D01*
X153771622Y-102479040D01*
X154320890Y-101929770D01*
X154337282Y-101905161D01*
X154349137Y-101887363D01*
X154349137Y-101887362D01*
X154354620Y-101879131D01*
X154366300Y-101820142D01*
X154366300Y-101043358D01*
X154354343Y-100983699D01*
X154320890Y-100933728D01*
X154182475Y-100795313D01*
X153775141Y-100387981D01*
X153771620Y-100384460D01*
X153720981Y-100350730D01*
X153678867Y-100342391D01*
X153666821Y-100340006D01*
X153666819Y-100340006D01*
X153661992Y-100339050D01*
X152885208Y-100339050D01*
X152825549Y-100351007D01*
X152775578Y-100384460D01*
X152226310Y-100933730D01*
X152223550Y-100937874D01*
X152198502Y-100975479D01*
X152192580Y-100984369D01*
X152180900Y-101043358D01*
X152180900Y-101820142D01*
X147965504Y-101820142D01*
X147965522Y-101380746D01*
X147965547Y-100789285D01*
X149703241Y-100789285D01*
X149703906Y-100795309D01*
X149703906Y-100795313D01*
X149706074Y-100814947D01*
X149722038Y-100959541D01*
X149780903Y-101120399D01*
X149876440Y-101262572D01*
X150003132Y-101377853D01*
X150153665Y-101459586D01*
X150159535Y-101461126D01*
X150313482Y-101501513D01*
X150313483Y-101501513D01*
X150319349Y-101503052D01*
X150402529Y-101504359D01*
X150484555Y-101505648D01*
X150484557Y-101505648D01*
X150490618Y-101505743D01*
X150496529Y-101504389D01*
X150496531Y-101504389D01*
X150651676Y-101468856D01*
X150651679Y-101468855D01*
X150657586Y-101467502D01*
X150810612Y-101390538D01*
X150815224Y-101386599D01*
X150815227Y-101386597D01*
X150936250Y-101283233D01*
X150940862Y-101279294D01*
X150973217Y-101234268D01*
X151037280Y-101145114D01*
X151037282Y-101145111D01*
X151040817Y-101140191D01*
X151048774Y-101120399D01*
X151102445Y-100986889D01*
X151102445Y-100986888D01*
X151104707Y-100981262D01*
X151107799Y-100959541D01*
X151128377Y-100814947D01*
X151128842Y-100811680D01*
X151128998Y-100796750D01*
X151108420Y-100626700D01*
X151047873Y-100466467D01*
X150950853Y-100325302D01*
X150822961Y-100211354D01*
X150817601Y-100208516D01*
X150817598Y-100208514D01*
X150800325Y-100199368D01*
X150757058Y-100154719D01*
X150746800Y-100110462D01*
X150746800Y-99579642D01*
X150766013Y-99520511D01*
X150802200Y-99489769D01*
X150810612Y-99485538D01*
X150815224Y-99481599D01*
X150815227Y-99481597D01*
X150936250Y-99378233D01*
X150940862Y-99374294D01*
X151015880Y-99269895D01*
X151037280Y-99240114D01*
X151037282Y-99240111D01*
X151040817Y-99235191D01*
X151048774Y-99215399D01*
X151102445Y-99081889D01*
X151102445Y-99081888D01*
X151104707Y-99076262D01*
X151107799Y-99054541D01*
X151128377Y-98909947D01*
X151128842Y-98906680D01*
X151128998Y-98891750D01*
X151108420Y-98721700D01*
X151071507Y-98624011D01*
X151050018Y-98567143D01*
X151050017Y-98567141D01*
X151047873Y-98561467D01*
X150950853Y-98420302D01*
X150839507Y-98321096D01*
X150827490Y-98310389D01*
X150827489Y-98310388D01*
X150822961Y-98306354D01*
X150671580Y-98226202D01*
X150617328Y-98212575D01*
X150511336Y-98185951D01*
X150511332Y-98185951D01*
X150505450Y-98184473D01*
X150499385Y-98184441D01*
X150499383Y-98184441D01*
X150422103Y-98184037D01*
X150334162Y-98183577D01*
X150328265Y-98184993D01*
X150328263Y-98184993D01*
X150173502Y-98222148D01*
X150167604Y-98223564D01*
X150015392Y-98302126D01*
X149985018Y-98328623D01*
X149890886Y-98410739D01*
X149890884Y-98410742D01*
X149886314Y-98414728D01*
X149882826Y-98419691D01*
X149882825Y-98419692D01*
X149871257Y-98436152D01*
X149787821Y-98554870D01*
X149785620Y-98560515D01*
X149785619Y-98560517D01*
X149764665Y-98614260D01*
X149725599Y-98714459D01*
X149703241Y-98884285D01*
X149703906Y-98890309D01*
X149703906Y-98890313D01*
X149706074Y-98909947D01*
X149722038Y-99054541D01*
X149729987Y-99076262D01*
X149760423Y-99159433D01*
X149780903Y-99215399D01*
X149876440Y-99357572D01*
X150003132Y-99472853D01*
X150008464Y-99475748D01*
X150032803Y-99488964D01*
X150075601Y-99534064D01*
X150085400Y-99577372D01*
X150085400Y-100109706D01*
X150066187Y-100168837D01*
X150030942Y-100199100D01*
X150015392Y-100207126D01*
X150005920Y-100215389D01*
X149890886Y-100315739D01*
X149890884Y-100315742D01*
X149886314Y-100319728D01*
X149882826Y-100324691D01*
X149882825Y-100324692D01*
X149842742Y-100381725D01*
X149787821Y-100459870D01*
X149725599Y-100619459D01*
X149703241Y-100789285D01*
X147965547Y-100789285D01*
X147965591Y-99736936D01*
X147984806Y-99677806D01*
X147995049Y-99665814D01*
X148802393Y-98858301D01*
X148802400Y-98858293D01*
X149161892Y-98498801D01*
X149173019Y-98476963D01*
X149181265Y-98463508D01*
X149191014Y-98450090D01*
X149195670Y-98443682D01*
X149203245Y-98420368D01*
X149209284Y-98405790D01*
X149216816Y-98391008D01*
X149216816Y-98391007D01*
X149220409Y-98383956D01*
X149224243Y-98359748D01*
X149227927Y-98344402D01*
X149235500Y-98321096D01*
X149235500Y-90409196D01*
X151928199Y-90409196D01*
X151928577Y-90415338D01*
X151935920Y-90474875D01*
X151939371Y-90487945D01*
X151986773Y-90602103D01*
X151993584Y-90613760D01*
X152030099Y-90660412D01*
X152034125Y-90664959D01*
X152610363Y-91241196D01*
X152614979Y-91245277D01*
X152662268Y-91282183D01*
X152673949Y-91288984D01*
X152788191Y-91336188D01*
X152801248Y-91339613D01*
X152860050Y-91346781D01*
X152866124Y-91347150D01*
X153029467Y-91347150D01*
X153042357Y-91342962D01*
X153045400Y-91338773D01*
X153045400Y-90245883D01*
X153041212Y-90232993D01*
X153037023Y-90229950D01*
X151944132Y-90229950D01*
X151931242Y-90234138D01*
X151928199Y-90238327D01*
X151928199Y-90409196D01*
X149235500Y-90409196D01*
X149235500Y-89757617D01*
X151928200Y-89757617D01*
X151932388Y-89770507D01*
X151936577Y-89773550D01*
X153401200Y-89773550D01*
X153460331Y-89792763D01*
X153496876Y-89843063D01*
X153501800Y-89874150D01*
X153501800Y-91331218D01*
X153505988Y-91344108D01*
X153510177Y-91347151D01*
X153681046Y-91347151D01*
X153687188Y-91346773D01*
X153746725Y-91339430D01*
X153759795Y-91335979D01*
X153873953Y-91288577D01*
X153885610Y-91281766D01*
X153932262Y-91245251D01*
X153936809Y-91241225D01*
X154513046Y-90664987D01*
X154517127Y-90660371D01*
X154554033Y-90613082D01*
X154560836Y-90601398D01*
X154567651Y-90584904D01*
X154607988Y-90537591D01*
X154668432Y-90523023D01*
X154728333Y-90548913D01*
X154765632Y-90582853D01*
X154770964Y-90585748D01*
X154795303Y-90598964D01*
X154838101Y-90644064D01*
X154847900Y-90687372D01*
X154847900Y-94394706D01*
X154828687Y-94453837D01*
X154793442Y-94484100D01*
X154777892Y-94492126D01*
X154768420Y-94500389D01*
X154653386Y-94600739D01*
X154653384Y-94600742D01*
X154648814Y-94604728D01*
X154645326Y-94609691D01*
X154645325Y-94609692D01*
X154573204Y-94712311D01*
X154550321Y-94744870D01*
X154488099Y-94904459D01*
X154465741Y-95074285D01*
X154466406Y-95080309D01*
X154466406Y-95080313D01*
X154468574Y-95099947D01*
X154484538Y-95244541D01*
X154543403Y-95405399D01*
X154556703Y-95425191D01*
X154633453Y-95539406D01*
X154638940Y-95547572D01*
X154765632Y-95662853D01*
X154916165Y-95744586D01*
X154922035Y-95746126D01*
X155075982Y-95786513D01*
X155075983Y-95786513D01*
X155081849Y-95788052D01*
X155165029Y-95789359D01*
X155247055Y-95790648D01*
X155247057Y-95790648D01*
X155253118Y-95790743D01*
X155259029Y-95789389D01*
X155259031Y-95789389D01*
X155414176Y-95753856D01*
X155414179Y-95753855D01*
X155420086Y-95752502D01*
X155573112Y-95675538D01*
X155577724Y-95671599D01*
X155577727Y-95671597D01*
X155698750Y-95568233D01*
X155703362Y-95564294D01*
X155735717Y-95519268D01*
X155799780Y-95430114D01*
X155799782Y-95430111D01*
X155803317Y-95425191D01*
X155811274Y-95405399D01*
X155864945Y-95271889D01*
X155864945Y-95271888D01*
X155867207Y-95266262D01*
X155870299Y-95244541D01*
X155890877Y-95099947D01*
X155891342Y-95096680D01*
X155891498Y-95081750D01*
X155870920Y-94911700D01*
X155810373Y-94751467D01*
X155713353Y-94610302D01*
X155585461Y-94496354D01*
X155580101Y-94493516D01*
X155580098Y-94493514D01*
X155562825Y-94484368D01*
X155519558Y-94439719D01*
X155509300Y-94395462D01*
X155509300Y-90689642D01*
X155528513Y-90630511D01*
X155564700Y-90599769D01*
X155573112Y-90595538D01*
X155577724Y-90591599D01*
X155577727Y-90591597D01*
X155698750Y-90488233D01*
X155703362Y-90484294D01*
X155752939Y-90415300D01*
X155799780Y-90350114D01*
X155799782Y-90350111D01*
X155803317Y-90345191D01*
X155811274Y-90325399D01*
X155864945Y-90191889D01*
X155864945Y-90191888D01*
X155867207Y-90186262D01*
X155870299Y-90164541D01*
X155890877Y-90019947D01*
X155891342Y-90016680D01*
X155891498Y-90001750D01*
X155870920Y-89831700D01*
X155847365Y-89769362D01*
X155812518Y-89677143D01*
X155812517Y-89677141D01*
X155810373Y-89671467D01*
X155713353Y-89530302D01*
X155585461Y-89416354D01*
X155434080Y-89336202D01*
X155379828Y-89322575D01*
X155273836Y-89295951D01*
X155273832Y-89295951D01*
X155267950Y-89294473D01*
X155261885Y-89294441D01*
X155261883Y-89294441D01*
X155184603Y-89294037D01*
X155096662Y-89293577D01*
X155090765Y-89294993D01*
X155090763Y-89294993D01*
X154936002Y-89332148D01*
X154930104Y-89333564D01*
X154777892Y-89412126D01*
X154726925Y-89456587D01*
X154669736Y-89480980D01*
X154609131Y-89467099D01*
X154567885Y-89419356D01*
X154560429Y-89401399D01*
X154553616Y-89389740D01*
X154517101Y-89343088D01*
X154513075Y-89338541D01*
X153936837Y-88762304D01*
X153932221Y-88758223D01*
X153884932Y-88721317D01*
X153873251Y-88714515D01*
X153793899Y-88681728D01*
X153746586Y-88641390D01*
X153732019Y-88580946D01*
X153755762Y-88523484D01*
X153768009Y-88511458D01*
X153771622Y-88509040D01*
X154320890Y-87959770D01*
X154337282Y-87935161D01*
X154349137Y-87917363D01*
X154349137Y-87917362D01*
X154354620Y-87909131D01*
X154366300Y-87850142D01*
X154366300Y-87073358D01*
X154354343Y-87013699D01*
X154320890Y-86963728D01*
X153771620Y-86414460D01*
X153720981Y-86380730D01*
X153678867Y-86372391D01*
X153666821Y-86370006D01*
X153666819Y-86370006D01*
X153661992Y-86369050D01*
X152885208Y-86369050D01*
X152825549Y-86381007D01*
X152775578Y-86414460D01*
X152226310Y-86963730D01*
X152223550Y-86967874D01*
X152198502Y-87005479D01*
X152192580Y-87014369D01*
X152180900Y-87073358D01*
X152180900Y-87850142D01*
X152192857Y-87909801D01*
X152226310Y-87959772D01*
X152775580Y-88509040D01*
X152778815Y-88511194D01*
X152812186Y-88563242D01*
X152808571Y-88625311D01*
X152769163Y-88673401D01*
X152753443Y-88681622D01*
X152673247Y-88714922D01*
X152661590Y-88721734D01*
X152614938Y-88758249D01*
X152610391Y-88762275D01*
X152034154Y-89338513D01*
X152030073Y-89343129D01*
X151993167Y-89390418D01*
X151986366Y-89402099D01*
X151939162Y-89516341D01*
X151935737Y-89529398D01*
X151928569Y-89588200D01*
X151928200Y-89594274D01*
X151928200Y-89757617D01*
X149235500Y-89757617D01*
X149235500Y-89678836D01*
X149254713Y-89619705D01*
X149270765Y-89602339D01*
X149348753Y-89535731D01*
X149348755Y-89535729D01*
X149353362Y-89531794D01*
X149357334Y-89526267D01*
X149449780Y-89397614D01*
X149449782Y-89397611D01*
X149453317Y-89392691D01*
X149461274Y-89372899D01*
X149514945Y-89239389D01*
X149514945Y-89239388D01*
X149517207Y-89233762D01*
X149520299Y-89212041D01*
X149540877Y-89067447D01*
X149541342Y-89064180D01*
X149541498Y-89049250D01*
X149520920Y-88879200D01*
X149475217Y-88758249D01*
X149462518Y-88724643D01*
X149462517Y-88724641D01*
X149460373Y-88718967D01*
X149363353Y-88577802D01*
X149288266Y-88510902D01*
X149239990Y-88467889D01*
X149239989Y-88467888D01*
X149235461Y-88463854D01*
X149084080Y-88383702D01*
X149029828Y-88370075D01*
X148923836Y-88343451D01*
X148923832Y-88343451D01*
X148917950Y-88341973D01*
X148911885Y-88341941D01*
X148911883Y-88341941D01*
X148838150Y-88341556D01*
X148746662Y-88341077D01*
X148746664Y-88340719D01*
X148689151Y-88329119D01*
X148667406Y-88312613D01*
X147359965Y-87005172D01*
X147331739Y-86949774D01*
X147330500Y-86934037D01*
X147330500Y-84286750D01*
X151917941Y-84286750D01*
X151938537Y-84522158D01*
X151999697Y-84750413D01*
X152099565Y-84964579D01*
X152102080Y-84968171D01*
X152102083Y-84968176D01*
X152102084Y-84968177D01*
X152235105Y-85158151D01*
X152402199Y-85325245D01*
X152405793Y-85327762D01*
X152405796Y-85327764D01*
X152592174Y-85458267D01*
X152592179Y-85458270D01*
X152595771Y-85460785D01*
X152809937Y-85560653D01*
X152814184Y-85561791D01*
X153033944Y-85620675D01*
X153033947Y-85620675D01*
X153038192Y-85621813D01*
X153133943Y-85630190D01*
X153212448Y-85637059D01*
X153212454Y-85637059D01*
X153214634Y-85637250D01*
X153332566Y-85637250D01*
X153334746Y-85637059D01*
X153334752Y-85637059D01*
X153413257Y-85630190D01*
X153509008Y-85621813D01*
X153513253Y-85620675D01*
X153513256Y-85620675D01*
X153733016Y-85561791D01*
X153737263Y-85560653D01*
X153951429Y-85460785D01*
X153955021Y-85458270D01*
X153955026Y-85458267D01*
X154141404Y-85327764D01*
X154141407Y-85327762D01*
X154145001Y-85325245D01*
X154312095Y-85158151D01*
X154447635Y-84964580D01*
X154547503Y-84750413D01*
X154608663Y-84522158D01*
X154629259Y-84286750D01*
X154608663Y-84051342D01*
X154547503Y-83823087D01*
X154447635Y-83608921D01*
X154445120Y-83605329D01*
X154445117Y-83605324D01*
X154314614Y-83418946D01*
X154314612Y-83418943D01*
X154312095Y-83415349D01*
X154145001Y-83248255D01*
X154141407Y-83245738D01*
X154141404Y-83245736D01*
X153955026Y-83115233D01*
X153955021Y-83115230D01*
X153951429Y-83112715D01*
X153737263Y-83012847D01*
X153733016Y-83011709D01*
X153513256Y-82952825D01*
X153513253Y-82952825D01*
X153509008Y-82951687D01*
X153413257Y-82943310D01*
X153334752Y-82936441D01*
X153334746Y-82936441D01*
X153332566Y-82936250D01*
X153214634Y-82936250D01*
X153212454Y-82936441D01*
X153212448Y-82936441D01*
X153133943Y-82943310D01*
X153038192Y-82951687D01*
X153033947Y-82952825D01*
X153033944Y-82952825D01*
X152814184Y-83011709D01*
X152809937Y-83012847D01*
X152595771Y-83112715D01*
X152592179Y-83115230D01*
X152592174Y-83115233D01*
X152405796Y-83245736D01*
X152405793Y-83245738D01*
X152402199Y-83248255D01*
X152235105Y-83415349D01*
X152099565Y-83608920D01*
X151999697Y-83823087D01*
X151938537Y-84051342D01*
X151917941Y-84286750D01*
X147330500Y-84286750D01*
X147330500Y-77709196D01*
X151928199Y-77709196D01*
X151928577Y-77715338D01*
X151935920Y-77774875D01*
X151939371Y-77787945D01*
X151986773Y-77902103D01*
X151993584Y-77913760D01*
X152030099Y-77960412D01*
X152034125Y-77964959D01*
X152610363Y-78541196D01*
X152614979Y-78545277D01*
X152662268Y-78582183D01*
X152673949Y-78588985D01*
X152753301Y-78621772D01*
X152800614Y-78662110D01*
X152815181Y-78722554D01*
X152791438Y-78780016D01*
X152779191Y-78792042D01*
X152775578Y-78794460D01*
X152226310Y-79343730D01*
X152223550Y-79347874D01*
X152198502Y-79385479D01*
X152192580Y-79394369D01*
X152180900Y-79453358D01*
X152180900Y-80230142D01*
X152192857Y-80289801D01*
X152226310Y-80339772D01*
X152775580Y-80889040D01*
X152826219Y-80922770D01*
X152868333Y-80931109D01*
X152880379Y-80933494D01*
X152880381Y-80933494D01*
X152885208Y-80934450D01*
X153661992Y-80934450D01*
X153721651Y-80922493D01*
X153771622Y-80889040D01*
X154320890Y-80339770D01*
X154337282Y-80315161D01*
X154349137Y-80297363D01*
X154349137Y-80297362D01*
X154354620Y-80289131D01*
X154366300Y-80230142D01*
X154366300Y-79453358D01*
X154354343Y-79393699D01*
X154320890Y-79343728D01*
X153771620Y-78794460D01*
X153768385Y-78792306D01*
X153735014Y-78740258D01*
X153738629Y-78678189D01*
X153778037Y-78630099D01*
X153793757Y-78621878D01*
X153873953Y-78588578D01*
X153885610Y-78581766D01*
X153932262Y-78545251D01*
X153936809Y-78541225D01*
X154513046Y-77964987D01*
X154517127Y-77960371D01*
X154554033Y-77913082D01*
X154560834Y-77901401D01*
X154608038Y-77787159D01*
X154611463Y-77774102D01*
X154618631Y-77715300D01*
X154619000Y-77709226D01*
X154619000Y-77545883D01*
X154614812Y-77532993D01*
X154610623Y-77529950D01*
X151944132Y-77529950D01*
X151931242Y-77534138D01*
X151928199Y-77538327D01*
X151928199Y-77709196D01*
X147330500Y-77709196D01*
X147330500Y-77057617D01*
X151928200Y-77057617D01*
X151932388Y-77070507D01*
X151936577Y-77073550D01*
X154603068Y-77073550D01*
X154615958Y-77069362D01*
X154619001Y-77065173D01*
X154619001Y-76894304D01*
X154618623Y-76888162D01*
X154611280Y-76828625D01*
X154607829Y-76815555D01*
X154560427Y-76701397D01*
X154553616Y-76689740D01*
X154517101Y-76643088D01*
X154513075Y-76638541D01*
X153936837Y-76062304D01*
X153932221Y-76058223D01*
X153884932Y-76021317D01*
X153873251Y-76014515D01*
X153793899Y-75981728D01*
X153746586Y-75941390D01*
X153732019Y-75880946D01*
X153755762Y-75823484D01*
X153768009Y-75811458D01*
X153771622Y-75809040D01*
X154320890Y-75259770D01*
X154337987Y-75234102D01*
X154349137Y-75217363D01*
X154349137Y-75217362D01*
X154354620Y-75209131D01*
X154366300Y-75150142D01*
X154366300Y-74373358D01*
X154354343Y-74313699D01*
X154320890Y-74263728D01*
X153771620Y-73714460D01*
X153720981Y-73680730D01*
X153678867Y-73672391D01*
X153666821Y-73670006D01*
X153666819Y-73670006D01*
X153661992Y-73669050D01*
X152885208Y-73669050D01*
X152825549Y-73681007D01*
X152775578Y-73714460D01*
X152226310Y-74263730D01*
X152223550Y-74267874D01*
X152198502Y-74305479D01*
X152192580Y-74314369D01*
X152180900Y-74373358D01*
X152180900Y-75150142D01*
X152192857Y-75209801D01*
X152226310Y-75259772D01*
X152775580Y-75809040D01*
X152778815Y-75811194D01*
X152812186Y-75863242D01*
X152808571Y-75925311D01*
X152769163Y-75973401D01*
X152753443Y-75981622D01*
X152673247Y-76014922D01*
X152661590Y-76021734D01*
X152614938Y-76058249D01*
X152610391Y-76062275D01*
X152034154Y-76638513D01*
X152030073Y-76643129D01*
X151993167Y-76690418D01*
X151986366Y-76702099D01*
X151939162Y-76816341D01*
X151935737Y-76829398D01*
X151928569Y-76888200D01*
X151928200Y-76894274D01*
X151928200Y-77057617D01*
X147330500Y-77057617D01*
X147330500Y-71586750D01*
X151917941Y-71586750D01*
X151938537Y-71822158D01*
X151999697Y-72050413D01*
X152099565Y-72264579D01*
X152102080Y-72268171D01*
X152102083Y-72268176D01*
X152102084Y-72268177D01*
X152235105Y-72458151D01*
X152402199Y-72625245D01*
X152405793Y-72627762D01*
X152405796Y-72627764D01*
X152592174Y-72758267D01*
X152592179Y-72758270D01*
X152595771Y-72760785D01*
X152809937Y-72860653D01*
X152814184Y-72861791D01*
X153033944Y-72920675D01*
X153033947Y-72920675D01*
X153038192Y-72921813D01*
X153133943Y-72930190D01*
X153212448Y-72937059D01*
X153212454Y-72937059D01*
X153214634Y-72937250D01*
X153332566Y-72937250D01*
X153334746Y-72937059D01*
X153334752Y-72937059D01*
X153413257Y-72930190D01*
X153509008Y-72921813D01*
X153513253Y-72920675D01*
X153513256Y-72920675D01*
X153733016Y-72861791D01*
X153737263Y-72860653D01*
X153951429Y-72760785D01*
X153955021Y-72758270D01*
X153955026Y-72758267D01*
X154141404Y-72627764D01*
X154141407Y-72627762D01*
X154145001Y-72625245D01*
X154312095Y-72458151D01*
X154447635Y-72264580D01*
X154547503Y-72050413D01*
X154608663Y-71822158D01*
X154629259Y-71586750D01*
X154608663Y-71351342D01*
X154606468Y-71343148D01*
X154548641Y-71127334D01*
X154548640Y-71127332D01*
X154547503Y-71123087D01*
X154470474Y-70957899D01*
X154449492Y-70912903D01*
X154449491Y-70912901D01*
X154447635Y-70908921D01*
X154445120Y-70905329D01*
X154445117Y-70905324D01*
X154314614Y-70718946D01*
X154314612Y-70718943D01*
X154312095Y-70715349D01*
X154145001Y-70548255D01*
X154141407Y-70545738D01*
X154141404Y-70545736D01*
X153955026Y-70415233D01*
X153955021Y-70415230D01*
X153951429Y-70412715D01*
X153737263Y-70312847D01*
X153733016Y-70311709D01*
X153513256Y-70252825D01*
X153513253Y-70252825D01*
X153509008Y-70251687D01*
X153413257Y-70243310D01*
X153334752Y-70236441D01*
X153334746Y-70236441D01*
X153332566Y-70236250D01*
X153214634Y-70236250D01*
X153212454Y-70236441D01*
X153212448Y-70236441D01*
X153133943Y-70243310D01*
X153038192Y-70251687D01*
X153033947Y-70252825D01*
X153033944Y-70252825D01*
X152814184Y-70311709D01*
X152809937Y-70312847D01*
X152595771Y-70412715D01*
X152592179Y-70415230D01*
X152592174Y-70415233D01*
X152405796Y-70545736D01*
X152405793Y-70545738D01*
X152402199Y-70548255D01*
X152235105Y-70715349D01*
X152099565Y-70908920D01*
X151999697Y-71123087D01*
X151998560Y-71127332D01*
X151940733Y-71343148D01*
X151938537Y-71351342D01*
X151917941Y-71586750D01*
X147330500Y-71586750D01*
X147330500Y-70626785D01*
X149068241Y-70626785D01*
X149068906Y-70632809D01*
X149068906Y-70632813D01*
X149071074Y-70652447D01*
X149087038Y-70797041D01*
X149089122Y-70802735D01*
X149126664Y-70905324D01*
X149145903Y-70957899D01*
X149241440Y-71100072D01*
X149368132Y-71215353D01*
X149518665Y-71297086D01*
X149524535Y-71298626D01*
X149678482Y-71339013D01*
X149678483Y-71339013D01*
X149684349Y-71340552D01*
X149767529Y-71341859D01*
X149849555Y-71343148D01*
X149849557Y-71343148D01*
X149855618Y-71343243D01*
X149861529Y-71341889D01*
X149861531Y-71341889D01*
X150016676Y-71306356D01*
X150016679Y-71306355D01*
X150022586Y-71305002D01*
X150175612Y-71228038D01*
X150180224Y-71224099D01*
X150180227Y-71224097D01*
X150301250Y-71120733D01*
X150305862Y-71116794D01*
X150338217Y-71071768D01*
X150402280Y-70982614D01*
X150402282Y-70982611D01*
X150405817Y-70977691D01*
X150413774Y-70957899D01*
X150467445Y-70824389D01*
X150467445Y-70824388D01*
X150469707Y-70818762D01*
X150472799Y-70797041D01*
X150493377Y-70652447D01*
X150493842Y-70649180D01*
X150493998Y-70634250D01*
X150473420Y-70464200D01*
X150453966Y-70412715D01*
X150415018Y-70309643D01*
X150415017Y-70309641D01*
X150412873Y-70303967D01*
X150315853Y-70162802D01*
X150187961Y-70048854D01*
X150182601Y-70046016D01*
X150182598Y-70046014D01*
X150165325Y-70036868D01*
X150122058Y-69992219D01*
X150111800Y-69947962D01*
X150111800Y-67530142D01*
X152180900Y-67530142D01*
X152192857Y-67589801D01*
X152226310Y-67639772D01*
X152775580Y-68189040D01*
X152826219Y-68222770D01*
X152868333Y-68231109D01*
X152880379Y-68233494D01*
X152880381Y-68233494D01*
X152885208Y-68234450D01*
X153661992Y-68234450D01*
X153721651Y-68222493D01*
X153771622Y-68189040D01*
X154320890Y-67639770D01*
X154337282Y-67615161D01*
X154349137Y-67597363D01*
X154349137Y-67597362D01*
X154354620Y-67589131D01*
X154366300Y-67530142D01*
X154366300Y-66753358D01*
X154354343Y-66693699D01*
X154320890Y-66643728D01*
X153771620Y-66094460D01*
X153720981Y-66060730D01*
X153678867Y-66052391D01*
X153666821Y-66050006D01*
X153666819Y-66050006D01*
X153661992Y-66049050D01*
X152885208Y-66049050D01*
X152825549Y-66061007D01*
X152775578Y-66094460D01*
X152226310Y-66643730D01*
X152223550Y-66647874D01*
X152198502Y-66685479D01*
X152192580Y-66694369D01*
X152180900Y-66753358D01*
X152180900Y-67530142D01*
X150111800Y-67530142D01*
X150111800Y-65732900D01*
X150131013Y-65673769D01*
X150141265Y-65661765D01*
X151436140Y-64366890D01*
X151491538Y-64338664D01*
X151532802Y-64340718D01*
X151583480Y-64354013D01*
X151583486Y-64354014D01*
X151589349Y-64355552D01*
X151672529Y-64356859D01*
X151754555Y-64358148D01*
X151754557Y-64358148D01*
X151760618Y-64358243D01*
X151766529Y-64356889D01*
X151766531Y-64356889D01*
X151921676Y-64321356D01*
X151921679Y-64321355D01*
X151927586Y-64320002D01*
X152080612Y-64243038D01*
X152085224Y-64239099D01*
X152085227Y-64239097D01*
X152206250Y-64135733D01*
X152210862Y-64131794D01*
X152243217Y-64086768D01*
X152307280Y-63997614D01*
X152307282Y-63997611D01*
X152310817Y-63992691D01*
X152374707Y-63833762D01*
X152377799Y-63812041D01*
X152398377Y-63667447D01*
X152398842Y-63664180D01*
X152398998Y-63649250D01*
X152378420Y-63479200D01*
X152317873Y-63318967D01*
X152220853Y-63177802D01*
X152092961Y-63063854D01*
X151941580Y-62983702D01*
X151887328Y-62970075D01*
X151781336Y-62943451D01*
X151781332Y-62943451D01*
X151775450Y-62941973D01*
X151769385Y-62941941D01*
X151769383Y-62941941D01*
X151692103Y-62941537D01*
X151604162Y-62941077D01*
X151598265Y-62942493D01*
X151598263Y-62942493D01*
X151443502Y-62979648D01*
X151437604Y-62981064D01*
X151285392Y-63059626D01*
X151275920Y-63067889D01*
X151160886Y-63168239D01*
X151160884Y-63168242D01*
X151156314Y-63172228D01*
X151152826Y-63177191D01*
X151152825Y-63177192D01*
X151080704Y-63279811D01*
X151057821Y-63312370D01*
X150995599Y-63471959D01*
X150973241Y-63641785D01*
X150973906Y-63647809D01*
X150973906Y-63647813D01*
X150991328Y-63805613D01*
X150991809Y-63809968D01*
X150991809Y-63809970D01*
X150992038Y-63812041D01*
X150991632Y-63812086D01*
X150986739Y-63870383D01*
X150965133Y-63902537D01*
X149560581Y-65307089D01*
X149554111Y-65313018D01*
X149523861Y-65338401D01*
X149519460Y-65346024D01*
X149519459Y-65346025D01*
X149504119Y-65372593D01*
X149499405Y-65379992D01*
X149481869Y-65405037D01*
X149476760Y-65412334D01*
X149474483Y-65420832D01*
X149471976Y-65426207D01*
X149469947Y-65431781D01*
X149465549Y-65439399D01*
X149464022Y-65448061D01*
X149464021Y-65448063D01*
X149458691Y-65478292D01*
X149456791Y-65486858D01*
X149446576Y-65524983D01*
X149447343Y-65533751D01*
X149450017Y-65564315D01*
X149450400Y-65573083D01*
X149450400Y-69947206D01*
X149431187Y-70006337D01*
X149395942Y-70036600D01*
X149380392Y-70044626D01*
X149370920Y-70052889D01*
X149255886Y-70153239D01*
X149255884Y-70153242D01*
X149251314Y-70157228D01*
X149247826Y-70162191D01*
X149247825Y-70162192D01*
X149195777Y-70236250D01*
X149152821Y-70297370D01*
X149150620Y-70303015D01*
X149150619Y-70303017D01*
X149146062Y-70314706D01*
X149090599Y-70456959D01*
X149068241Y-70626785D01*
X147330500Y-70626785D01*
X147330500Y-66501336D01*
X147349713Y-66442205D01*
X147365765Y-66424839D01*
X147443753Y-66358231D01*
X147443755Y-66358229D01*
X147448362Y-66354294D01*
X147460378Y-66337572D01*
X147544780Y-66220114D01*
X147544782Y-66220111D01*
X147548317Y-66215191D01*
X147556274Y-66195399D01*
X147609945Y-66061889D01*
X147609945Y-66061888D01*
X147612207Y-66056262D01*
X147613098Y-66050006D01*
X147635877Y-65889947D01*
X147636342Y-65886680D01*
X147636498Y-65871750D01*
X147624743Y-65774608D01*
X147616649Y-65707722D01*
X147616648Y-65707720D01*
X147615920Y-65701700D01*
X147555373Y-65541467D01*
X147458353Y-65400302D01*
X147364178Y-65316395D01*
X147332809Y-65262714D01*
X147330500Y-65241283D01*
X147330500Y-62430763D01*
X147349713Y-62371632D01*
X147359965Y-62359628D01*
X149461946Y-60257647D01*
X149517344Y-60229421D01*
X149534661Y-60228194D01*
X149690855Y-60230648D01*
X149690857Y-60230648D01*
X149696918Y-60230743D01*
X149702829Y-60229389D01*
X149702831Y-60229389D01*
X149857976Y-60193856D01*
X149857979Y-60193855D01*
X149863886Y-60192502D01*
X150016912Y-60115538D01*
X150021524Y-60111599D01*
X150021527Y-60111597D01*
X150142550Y-60008233D01*
X150147162Y-60004294D01*
X150183984Y-59953050D01*
X150243580Y-59870114D01*
X150243582Y-59870111D01*
X150247117Y-59865191D01*
X150250260Y-59857374D01*
X150308745Y-59711889D01*
X150308745Y-59711888D01*
X150311007Y-59706262D01*
X150314479Y-59681870D01*
X150334677Y-59539947D01*
X150335142Y-59536680D01*
X150335298Y-59521750D01*
X150333667Y-59508273D01*
X150326342Y-59447735D01*
X150338312Y-59386724D01*
X150355078Y-59364515D01*
X150691066Y-59028528D01*
X151031479Y-58688115D01*
X151086877Y-58659889D01*
X151102614Y-58658650D01*
X153250583Y-58658650D01*
X153259690Y-58659063D01*
X153268493Y-58659863D01*
X153300943Y-58662813D01*
X153347340Y-58652267D01*
X153353892Y-58651005D01*
X153393089Y-58644797D01*
X153400906Y-58643559D01*
X153407960Y-58639965D01*
X153413491Y-58638168D01*
X153418909Y-58636000D01*
X153426631Y-58634245D01*
X153467514Y-58609868D01*
X153473360Y-58606641D01*
X153486865Y-58599760D01*
X153515751Y-58585042D01*
X153545034Y-58555759D01*
X153551766Y-58549611D01*
X154281628Y-57941392D01*
X155395343Y-57013295D01*
X155412857Y-57001746D01*
X155413696Y-57001137D01*
X155420751Y-56997542D01*
X155450042Y-56968251D01*
X155456774Y-56962103D01*
X155460661Y-56958864D01*
X155460662Y-56958863D01*
X155463692Y-56956338D01*
X155466289Y-56953371D01*
X155466293Y-56953367D01*
X155473678Y-56944929D01*
X155478242Y-56940051D01*
X155511892Y-56906401D01*
X155515485Y-56899349D01*
X155518913Y-56894631D01*
X155522015Y-56889704D01*
X155527229Y-56883747D01*
X155545974Y-56839999D01*
X155548805Y-56833956D01*
X155566814Y-56798612D01*
X155566814Y-56798611D01*
X155570409Y-56791556D01*
X155571648Y-56783736D01*
X155573448Y-56778196D01*
X155574877Y-56772546D01*
X155577994Y-56765271D01*
X155582303Y-56717870D01*
X155583125Y-56711271D01*
X155585500Y-56696274D01*
X155585500Y-56687267D01*
X155585913Y-56678160D01*
X155588127Y-56653800D01*
X155589663Y-56636907D01*
X155587909Y-56629190D01*
X155587840Y-56628151D01*
X155585500Y-56607303D01*
X155585500Y-55012304D01*
X155577927Y-54988998D01*
X155574243Y-54973652D01*
X155571647Y-54957261D01*
X155570409Y-54949444D01*
X155559283Y-54927608D01*
X155553244Y-54913029D01*
X155545670Y-54889718D01*
X155531264Y-54869891D01*
X155523019Y-54856437D01*
X155511892Y-54834599D01*
X155511891Y-54834598D01*
X155512532Y-54834271D01*
X155495270Y-54781136D01*
X155502530Y-54743618D01*
X155547445Y-54631889D01*
X155547445Y-54631888D01*
X155549707Y-54626262D01*
X155557350Y-54572564D01*
X155573377Y-54459947D01*
X155573842Y-54456680D01*
X155573998Y-54441750D01*
X155553420Y-54271700D01*
X155540414Y-54237279D01*
X155495018Y-54117143D01*
X155495017Y-54117141D01*
X155492873Y-54111467D01*
X155395853Y-53970302D01*
X155267961Y-53856354D01*
X155116580Y-53776202D01*
X155053610Y-53760385D01*
X154956336Y-53735951D01*
X154956332Y-53735951D01*
X154950450Y-53734473D01*
X154944385Y-53734441D01*
X154944383Y-53734441D01*
X154867103Y-53734037D01*
X154779162Y-53733577D01*
X154773265Y-53734993D01*
X154773263Y-53734993D01*
X154742366Y-53742411D01*
X154680383Y-53737533D01*
X154633105Y-53697154D01*
X154618591Y-53636698D01*
X154642384Y-53579257D01*
X154647746Y-53573456D01*
X154689190Y-53532012D01*
X154705582Y-53507403D01*
X154717437Y-53489605D01*
X154717437Y-53489604D01*
X154722920Y-53481373D01*
X154734600Y-53422384D01*
X154734600Y-52603516D01*
X154722643Y-52543857D01*
X154689190Y-52493886D01*
X154110162Y-51914860D01*
X154059523Y-51881130D01*
X154017409Y-51872791D01*
X154005363Y-51870406D01*
X154005361Y-51870406D01*
X154000534Y-51869450D01*
X153181666Y-51869450D01*
X153122007Y-51881407D01*
X153072036Y-51914860D01*
X152653611Y-52333287D01*
X152555710Y-52431188D01*
X152500312Y-52459414D01*
X152438904Y-52449688D01*
X152394940Y-52405725D01*
X152391666Y-52398630D01*
X152388730Y-52391559D01*
X152381916Y-52379898D01*
X152345401Y-52333246D01*
X152341375Y-52328699D01*
X151735379Y-51722704D01*
X151730763Y-51718623D01*
X151683474Y-51681717D01*
X151671793Y-51674916D01*
X151557551Y-51627712D01*
X151544494Y-51624287D01*
X151485692Y-51617119D01*
X151479618Y-51616750D01*
X151295233Y-51616750D01*
X151282343Y-51620938D01*
X151279300Y-51625127D01*
X151279300Y-56933218D01*
X151283488Y-56946108D01*
X151287677Y-56949151D01*
X151479588Y-56949151D01*
X151485730Y-56948773D01*
X151545267Y-56941430D01*
X151558337Y-56937979D01*
X151672495Y-56890577D01*
X151684152Y-56883766D01*
X151730804Y-56847251D01*
X151735351Y-56843225D01*
X152341346Y-56237229D01*
X152345427Y-56232613D01*
X152382333Y-56185324D01*
X152389135Y-56173642D01*
X152391671Y-56167504D01*
X152432009Y-56120191D01*
X152492453Y-56105624D01*
X152549915Y-56129367D01*
X152555782Y-56134786D01*
X152721382Y-56300385D01*
X153072038Y-56651040D01*
X153122677Y-56684770D01*
X153164791Y-56693109D01*
X153176837Y-56695494D01*
X153176839Y-56695494D01*
X153181666Y-56696450D01*
X154000534Y-56696450D01*
X154060193Y-56684493D01*
X154110164Y-56651040D01*
X154599966Y-56161237D01*
X154655362Y-56133011D01*
X154716771Y-56142737D01*
X154760735Y-56186700D01*
X154771700Y-56232372D01*
X154771700Y-56426549D01*
X154752487Y-56485680D01*
X154735503Y-56503832D01*
X153154261Y-57821533D01*
X153096535Y-57844628D01*
X153089858Y-57844850D01*
X150860376Y-57844850D01*
X150860372Y-57844851D01*
X150827953Y-57844851D01*
X150820425Y-57847297D01*
X150820424Y-57847297D01*
X150816492Y-57848575D01*
X150804643Y-57852424D01*
X150789300Y-57856107D01*
X150772914Y-57858702D01*
X150772912Y-57858703D01*
X150765094Y-57859941D01*
X150758040Y-57863535D01*
X150758041Y-57863535D01*
X150743262Y-57871065D01*
X150728676Y-57877107D01*
X150720786Y-57879671D01*
X150705368Y-57884680D01*
X150685533Y-57899091D01*
X150672083Y-57907333D01*
X150650249Y-57918458D01*
X150627326Y-57941381D01*
X150627322Y-57941384D01*
X150627314Y-57941392D01*
X149783666Y-58785041D01*
X149728268Y-58813267D01*
X149711755Y-58813533D01*
X149711750Y-58814473D01*
X149540462Y-58813577D01*
X149534565Y-58814993D01*
X149534563Y-58814993D01*
X149379802Y-58852148D01*
X149373904Y-58853564D01*
X149221692Y-58932126D01*
X149217122Y-58936113D01*
X149097186Y-59040739D01*
X149097184Y-59040742D01*
X149092614Y-59044728D01*
X148994121Y-59184870D01*
X148931899Y-59344459D01*
X148909541Y-59514285D01*
X148910206Y-59520309D01*
X148910206Y-59520313D01*
X148918645Y-59596744D01*
X148906038Y-59657627D01*
X148889788Y-59678919D01*
X146590308Y-61978399D01*
X146579181Y-62000237D01*
X146570936Y-62013691D01*
X146556530Y-62033518D01*
X146548956Y-62056829D01*
X146542917Y-62071408D01*
X146531791Y-62093244D01*
X146530553Y-62101061D01*
X146527957Y-62117452D01*
X146524273Y-62132798D01*
X146516700Y-62156104D01*
X146516700Y-65241787D01*
X146497487Y-65300918D01*
X146482232Y-65317595D01*
X146398388Y-65390737D01*
X146398384Y-65390741D01*
X146393814Y-65394728D01*
X146390326Y-65399691D01*
X146390325Y-65399692D01*
X146332051Y-65482608D01*
X146295321Y-65534870D01*
X146293120Y-65540515D01*
X146293119Y-65540517D01*
X146282134Y-65568693D01*
X146233099Y-65694459D01*
X146232307Y-65700471D01*
X146232307Y-65700473D01*
X146229935Y-65718491D01*
X146203168Y-65774608D01*
X146148528Y-65804275D01*
X146086886Y-65796159D01*
X146041786Y-65753360D01*
X146030326Y-65717448D01*
X146028420Y-65701700D01*
X145967873Y-65541467D01*
X145870853Y-65400302D01*
X145776678Y-65316395D01*
X145745309Y-65262714D01*
X145743000Y-65241283D01*
X145743000Y-59953050D01*
X145762213Y-59893919D01*
X145812513Y-59857374D01*
X145843600Y-59852450D01*
X147380967Y-59852450D01*
X147389734Y-59852833D01*
X147415236Y-59855064D01*
X147443283Y-59863507D01*
X147443896Y-59861959D01*
X147449532Y-59864191D01*
X147454865Y-59867086D01*
X147460735Y-59868626D01*
X147614682Y-59909013D01*
X147614683Y-59909013D01*
X147620549Y-59910552D01*
X147703729Y-59911859D01*
X147785755Y-59913148D01*
X147785757Y-59913148D01*
X147791818Y-59913243D01*
X147797729Y-59911889D01*
X147797731Y-59911889D01*
X147952876Y-59876356D01*
X147952879Y-59876355D01*
X147958786Y-59875002D01*
X148111812Y-59798038D01*
X148116424Y-59794099D01*
X148116427Y-59794097D01*
X148237450Y-59690733D01*
X148242062Y-59686794D01*
X148306769Y-59596744D01*
X148338480Y-59552614D01*
X148338482Y-59552611D01*
X148342017Y-59547691D01*
X148346444Y-59536680D01*
X148403645Y-59394389D01*
X148403645Y-59394388D01*
X148405907Y-59388762D01*
X148413017Y-59338809D01*
X148429577Y-59222447D01*
X148430042Y-59219180D01*
X148430198Y-59204250D01*
X148410894Y-59044728D01*
X148410349Y-59040222D01*
X148410348Y-59040220D01*
X148409620Y-59034200D01*
X148371050Y-58932126D01*
X148351218Y-58879643D01*
X148351217Y-58879641D01*
X148349073Y-58873967D01*
X148252053Y-58732802D01*
X148170218Y-58659889D01*
X148128690Y-58622889D01*
X148128689Y-58622888D01*
X148124161Y-58618854D01*
X148049727Y-58579443D01*
X147978142Y-58541541D01*
X147972780Y-58538702D01*
X147918528Y-58525075D01*
X147812536Y-58498451D01*
X147812532Y-58498451D01*
X147806650Y-58496973D01*
X147800585Y-58496941D01*
X147800583Y-58496941D01*
X147723303Y-58496537D01*
X147635362Y-58496077D01*
X147629465Y-58497493D01*
X147629463Y-58497493D01*
X147474702Y-58534648D01*
X147468804Y-58536064D01*
X147366947Y-58588636D01*
X147325809Y-58609869D01*
X147316592Y-58614626D01*
X147274292Y-58651527D01*
X147192086Y-58723239D01*
X147192084Y-58723242D01*
X147187514Y-58727228D01*
X147184026Y-58732191D01*
X147184025Y-58732192D01*
X147127045Y-58813267D01*
X147089021Y-58867370D01*
X147086820Y-58873015D01*
X147086819Y-58873017D01*
X147063773Y-58932126D01*
X147026799Y-59026959D01*
X147026007Y-59032973D01*
X147026007Y-59032974D01*
X147016712Y-59103580D01*
X146989946Y-59159698D01*
X146935307Y-59189365D01*
X146916973Y-59191050D01*
X145622514Y-59191050D01*
X145563383Y-59171837D01*
X145551379Y-59161585D01*
X144331177Y-57941384D01*
X144308251Y-57918458D01*
X144286413Y-57907331D01*
X144272958Y-57899085D01*
X144259540Y-57889336D01*
X144259541Y-57889336D01*
X144253132Y-57884680D01*
X144229818Y-57877105D01*
X144215240Y-57871066D01*
X144200458Y-57863534D01*
X144200457Y-57863534D01*
X144193406Y-57859941D01*
X144169198Y-57856107D01*
X144153852Y-57852423D01*
X144130546Y-57844850D01*
X143323814Y-57844850D01*
X143264683Y-57825637D01*
X143252679Y-57815385D01*
X142279965Y-56842672D01*
X142251739Y-56787274D01*
X142250500Y-56771537D01*
X142250500Y-56232374D01*
X142269713Y-56173243D01*
X142320013Y-56136698D01*
X142382187Y-56136698D01*
X142422235Y-56161239D01*
X142561382Y-56300385D01*
X142912038Y-56651040D01*
X142962677Y-56684770D01*
X143004791Y-56693109D01*
X143016837Y-56695494D01*
X143016839Y-56695494D01*
X143021666Y-56696450D01*
X143840534Y-56696450D01*
X143900193Y-56684493D01*
X143950164Y-56651040D01*
X144466490Y-56134712D01*
X144521888Y-56106486D01*
X144583296Y-56116212D01*
X144627260Y-56160175D01*
X144630534Y-56167270D01*
X144633470Y-56174341D01*
X144640284Y-56186002D01*
X144676799Y-56232654D01*
X144680825Y-56237201D01*
X145286821Y-56843196D01*
X145291437Y-56847277D01*
X145338726Y-56884183D01*
X145350407Y-56890984D01*
X145464649Y-56938188D01*
X145477706Y-56941613D01*
X145536508Y-56948781D01*
X145542582Y-56949150D01*
X145726967Y-56949150D01*
X145739857Y-56944962D01*
X145742900Y-56940773D01*
X145742900Y-56933218D01*
X146199300Y-56933218D01*
X146203488Y-56946108D01*
X146207677Y-56949151D01*
X146399588Y-56949151D01*
X146405730Y-56948773D01*
X146465267Y-56941430D01*
X146478337Y-56937979D01*
X146592495Y-56890577D01*
X146604152Y-56883766D01*
X146650804Y-56847251D01*
X146655351Y-56843225D01*
X147169965Y-56328611D01*
X147225363Y-56300385D01*
X147286771Y-56310111D01*
X147312235Y-56328611D01*
X147826821Y-56843196D01*
X147831437Y-56847277D01*
X147878726Y-56884183D01*
X147890407Y-56890984D01*
X148004649Y-56938188D01*
X148017706Y-56941613D01*
X148076508Y-56948781D01*
X148082582Y-56949150D01*
X148266967Y-56949150D01*
X148279857Y-56944962D01*
X148282900Y-56940773D01*
X148282900Y-56933218D01*
X148739300Y-56933218D01*
X148743488Y-56946108D01*
X148747677Y-56949151D01*
X148939588Y-56949151D01*
X148945730Y-56948773D01*
X149005267Y-56941430D01*
X149018337Y-56937979D01*
X149132495Y-56890577D01*
X149144152Y-56883766D01*
X149190804Y-56847251D01*
X149195351Y-56843225D01*
X149709965Y-56328611D01*
X149765363Y-56300385D01*
X149826771Y-56310111D01*
X149852235Y-56328611D01*
X150366821Y-56843196D01*
X150371437Y-56847277D01*
X150418726Y-56884183D01*
X150430407Y-56890984D01*
X150544649Y-56938188D01*
X150557706Y-56941613D01*
X150616508Y-56948781D01*
X150622582Y-56949150D01*
X150806967Y-56949150D01*
X150819857Y-56944962D01*
X150822900Y-56940773D01*
X150822900Y-55797083D01*
X150818712Y-55784193D01*
X150814523Y-55781150D01*
X148755233Y-55781150D01*
X148742343Y-55785338D01*
X148739300Y-55789527D01*
X148739300Y-56933218D01*
X148282900Y-56933218D01*
X148282900Y-55797083D01*
X148278712Y-55784193D01*
X148274523Y-55781150D01*
X146215233Y-55781150D01*
X146202343Y-55785338D01*
X146199300Y-55789527D01*
X146199300Y-56933218D01*
X145742900Y-56933218D01*
X145742900Y-55308817D01*
X146199300Y-55308817D01*
X146203488Y-55321707D01*
X146207677Y-55324750D01*
X148266967Y-55324750D01*
X148279857Y-55320562D01*
X148282900Y-55316373D01*
X148282900Y-55308817D01*
X148739300Y-55308817D01*
X148743488Y-55321707D01*
X148747677Y-55324750D01*
X150806967Y-55324750D01*
X150819857Y-55320562D01*
X150822900Y-55316373D01*
X150822900Y-53257083D01*
X150818712Y-53244193D01*
X150814523Y-53241150D01*
X148755233Y-53241150D01*
X148742343Y-53245338D01*
X148739300Y-53249527D01*
X148739300Y-55308817D01*
X148282900Y-55308817D01*
X148282900Y-53257083D01*
X148278712Y-53244193D01*
X148274523Y-53241150D01*
X146215233Y-53241150D01*
X146202343Y-53245338D01*
X146199300Y-53249527D01*
X146199300Y-55308817D01*
X145742900Y-55308817D01*
X145742900Y-52768817D01*
X146199300Y-52768817D01*
X146203488Y-52781707D01*
X146207677Y-52784750D01*
X148266967Y-52784750D01*
X148279857Y-52780562D01*
X148282900Y-52776373D01*
X148282900Y-52768817D01*
X148739300Y-52768817D01*
X148743488Y-52781707D01*
X148747677Y-52784750D01*
X150806967Y-52784750D01*
X150819857Y-52780562D01*
X150822900Y-52776373D01*
X150822900Y-51632682D01*
X150818712Y-51619792D01*
X150814523Y-51616749D01*
X150622612Y-51616749D01*
X150616470Y-51617127D01*
X150556933Y-51624470D01*
X150543863Y-51627921D01*
X150429705Y-51675323D01*
X150418048Y-51682134D01*
X150371396Y-51718649D01*
X150366849Y-51722675D01*
X149852235Y-52237289D01*
X149796837Y-52265515D01*
X149735429Y-52255789D01*
X149709965Y-52237289D01*
X149195379Y-51722704D01*
X149190763Y-51718623D01*
X149143474Y-51681717D01*
X149131793Y-51674916D01*
X149017551Y-51627712D01*
X149004494Y-51624287D01*
X148945692Y-51617119D01*
X148939618Y-51616750D01*
X148755233Y-51616750D01*
X148742343Y-51620938D01*
X148739300Y-51625127D01*
X148739300Y-52768817D01*
X148282900Y-52768817D01*
X148282900Y-51632682D01*
X148278712Y-51619792D01*
X148274523Y-51616749D01*
X148082612Y-51616749D01*
X148076470Y-51617127D01*
X148016933Y-51624470D01*
X148003863Y-51627921D01*
X147889705Y-51675323D01*
X147878048Y-51682134D01*
X147831396Y-51718649D01*
X147826849Y-51722675D01*
X147312235Y-52237289D01*
X147256837Y-52265515D01*
X147195429Y-52255789D01*
X147169965Y-52237289D01*
X146655379Y-51722704D01*
X146650763Y-51718623D01*
X146603474Y-51681717D01*
X146591793Y-51674916D01*
X146477551Y-51627712D01*
X146464494Y-51624287D01*
X146405692Y-51617119D01*
X146399618Y-51616750D01*
X146215233Y-51616750D01*
X146202343Y-51620938D01*
X146199300Y-51625127D01*
X146199300Y-52768817D01*
X145742900Y-52768817D01*
X145742900Y-51632682D01*
X145738712Y-51619792D01*
X145734523Y-51616749D01*
X145542612Y-51616749D01*
X145536470Y-51617127D01*
X145476933Y-51624470D01*
X145463863Y-51627921D01*
X145349705Y-51675323D01*
X145338048Y-51682134D01*
X145291396Y-51718649D01*
X145286849Y-51722675D01*
X144680854Y-52328671D01*
X144676773Y-52333287D01*
X144639867Y-52380576D01*
X144633065Y-52392258D01*
X144630529Y-52398396D01*
X144590191Y-52445709D01*
X144529747Y-52460276D01*
X144472285Y-52436533D01*
X144466418Y-52431114D01*
X143953683Y-51918381D01*
X143950162Y-51914860D01*
X143899523Y-51881130D01*
X143857409Y-51872791D01*
X143845363Y-51870406D01*
X143845361Y-51870406D01*
X143840534Y-51869450D01*
X143021666Y-51869450D01*
X142962007Y-51881407D01*
X142912036Y-51914860D01*
X142333010Y-52493888D01*
X142330250Y-52498032D01*
X142305202Y-52535637D01*
X142299280Y-52544527D01*
X142287600Y-52603516D01*
X142287600Y-53422384D01*
X142299557Y-53482043D01*
X142333010Y-53532014D01*
X142373699Y-53572703D01*
X142401925Y-53628101D01*
X142392199Y-53689509D01*
X142348235Y-53733473D01*
X142286827Y-53743199D01*
X142278057Y-53741407D01*
X142256338Y-53735952D01*
X142250450Y-53734473D01*
X142244385Y-53734441D01*
X142244383Y-53734441D01*
X142167103Y-53734037D01*
X142079162Y-53733577D01*
X142073265Y-53734993D01*
X142073263Y-53734993D01*
X141926987Y-53770111D01*
X141912604Y-53773564D01*
X141760392Y-53852126D01*
X141750920Y-53860389D01*
X141635886Y-53960739D01*
X141635884Y-53960742D01*
X141631314Y-53964728D01*
X141627826Y-53969691D01*
X141627825Y-53969692D01*
X141555704Y-54072311D01*
X141532821Y-54104870D01*
X141530620Y-54110515D01*
X141530619Y-54110517D01*
X141511622Y-54159241D01*
X141470599Y-54264459D01*
X141448241Y-54434285D01*
X141448906Y-54440309D01*
X141448906Y-54440313D01*
X141463508Y-54572564D01*
X141455466Y-54616595D01*
X141457831Y-54617363D01*
X141455385Y-54624890D01*
X141451791Y-54631944D01*
X141450553Y-54639761D01*
X141447957Y-54656152D01*
X141444273Y-54671498D01*
X141436700Y-54694804D01*
X141436700Y-57046196D01*
X139011600Y-57046196D01*
X139011600Y-50916550D01*
X139030813Y-50857419D01*
X139081113Y-50820874D01*
X139112200Y-50815950D01*
X157890000Y-50815950D01*
X157949131Y-50835163D01*
G37*
%TD.AperFunction*%
%TD*%
M02*
