%TF.GenerationSoftware,KiCad,Pcbnew,(6.0.11-0)*%
%TF.CreationDate,2023-04-25T19:31:51+02:00*%
%TF.ProjectId,plaits,706c6169-7473-42e6-9b69-6361645f7063,rev?*%
%TF.SameCoordinates,Original*%
%TF.FileFunction,Paste,Top*%
%TF.FilePolarity,Positive*%
%FSLAX46Y46*%
G04 Gerber Fmt 4.6, Leading zero omitted, Abs format (unit mm)*
G04 Created by KiCad (PCBNEW (6.0.11-0)) date 2023-04-25 19:31:51*
%MOMM*%
%LPD*%
G01*
G04 APERTURE LIST*
%ADD10R,1.600000X1.800000*%
%ADD11R,0.750000X0.650000*%
%ADD12R,0.650000X0.750000*%
%ADD13R,2.000000X1.500000*%
%ADD14R,1.400000X1.000000*%
%ADD15R,1.100000X1.000000*%
%ADD16R,1.300000X1.500000*%
%ADD17R,0.700000X0.850000*%
%ADD18R,1.000000X1.100000*%
%ADD19R,1.400000X1.400000*%
%ADD20R,1.200000X0.350000*%
%ADD21R,0.330000X1.000000*%
%ADD22R,1.500000X2.000000*%
%ADD23R,0.355600X1.422400*%
%ADD24R,0.700000X1.000000*%
%ADD25R,1.800000X1.600000*%
%ADD26R,0.900000X1.250000*%
%ADD27R,1.000000X0.254000*%
%ADD28R,0.254000X1.000000*%
%ADD29R,1.400000X1.900000*%
%ADD30R,0.850000X0.700000*%
%ADD31R,0.990600X0.304800*%
%ADD32R,2.200000X1.400000*%
G04 APERTURE END LIST*
%TO.C,IC3*%
G36*
X172139600Y-86093800D02*
G01*
X171339600Y-86093800D01*
X171339600Y-84693800D01*
X172139600Y-84693800D01*
X172139600Y-86093800D01*
G37*
G36*
X169139600Y-86093800D02*
G01*
X168339600Y-86093800D01*
X168339600Y-84693800D01*
X169139600Y-84693800D01*
X169139600Y-86093800D01*
G37*
G36*
X170639600Y-86093800D02*
G01*
X169839600Y-86093800D01*
X169839600Y-84693800D01*
X170639600Y-84693800D01*
X170639600Y-86093800D01*
G37*
G36*
X171139600Y-83413800D02*
G01*
X169339600Y-83413800D01*
X169339600Y-81213800D01*
X171139600Y-81213800D01*
X171139600Y-83413800D01*
G37*
%TD*%
D10*
%TO.C,C13*%
X170268600Y-79603600D03*
X173068600Y-79603600D03*
%TD*%
D11*
%TO.C,R37*%
X162778600Y-114246100D03*
X162778600Y-115446100D03*
%TD*%
D12*
%TO.C,R5*%
X130358700Y-83254700D03*
X129158700Y-83254700D03*
%TD*%
%TO.C,R14*%
X135826100Y-110083600D03*
X137026100Y-110083600D03*
%TD*%
D11*
%TO.C,C51*%
X143728600Y-126946100D03*
X143728600Y-128146100D03*
%TD*%
%TO.C,C26*%
X136902400Y-92497300D03*
X136902400Y-93697300D03*
%TD*%
D13*
%TO.C,C22*%
X169574800Y-88811100D03*
X172174800Y-88811100D03*
%TD*%
D11*
%TO.C,C8*%
X153094900Y-71472400D03*
X153094900Y-70272400D03*
%TD*%
D12*
%TO.C,R3*%
X154241100Y-71031100D03*
X155441100Y-71031100D03*
%TD*%
D14*
%TO.C,D3*%
X145781000Y-101667200D03*
X145781000Y-99767200D03*
X143581000Y-100717200D03*
%TD*%
D11*
%TO.C,C6*%
X137061100Y-63376100D03*
X137061100Y-62176100D03*
%TD*%
%TO.C,R32*%
X134521100Y-115128600D03*
X134521100Y-113928600D03*
%TD*%
D15*
%TO.C,C55*%
X125528600Y-144373500D03*
X123828600Y-144373500D03*
%TD*%
D11*
%TO.C,R24*%
X121186100Y-111388600D03*
X121186100Y-112588600D03*
%TD*%
D16*
%TO.C,C31*%
X156267400Y-98336100D03*
X154367400Y-98336100D03*
%TD*%
D17*
%TO.C,L3*%
X175161100Y-62406100D03*
X175161100Y-60806100D03*
%TD*%
D11*
%TO.C,R11*%
X157222400Y-107191100D03*
X157222400Y-105991100D03*
%TD*%
D12*
%TO.C,C23*%
X141712600Y-90239800D03*
X140512600Y-90239800D03*
%TD*%
%TO.C,C36*%
X128771100Y-109131100D03*
X127571100Y-109131100D03*
%TD*%
D11*
%TO.C,R13*%
X156428600Y-110048600D03*
X156428600Y-108848600D03*
%TD*%
%TO.C,C33*%
X156111100Y-107191100D03*
X156111100Y-105991100D03*
%TD*%
%TO.C,C15*%
X131822500Y-81385000D03*
X131822500Y-82585000D03*
%TD*%
D15*
%TO.C,C56*%
X137163600Y-144373600D03*
X138863600Y-144373600D03*
%TD*%
D13*
%TO.C,C16*%
X155445900Y-82937300D03*
X158045900Y-82937300D03*
%TD*%
D11*
%TO.C,R48*%
X140871100Y-145361100D03*
X140871100Y-146561100D03*
%TD*%
%TO.C,R40*%
X122456100Y-116468600D03*
X122456100Y-117668600D03*
%TD*%
%TO.C,R22*%
X162778600Y-110436100D03*
X162778600Y-111636100D03*
%TD*%
D18*
%TO.C,R46*%
X162246100Y-145643600D03*
X163946100Y-145643600D03*
%TD*%
D19*
%TO.C,D2*%
X175161100Y-59278600D03*
X175161100Y-55478600D03*
%TD*%
D17*
%TO.C,L4*%
X150872400Y-66956100D03*
X150872400Y-68556100D03*
%TD*%
D11*
%TO.C,R19*%
X144363600Y-110118600D03*
X144363600Y-111318600D03*
%TD*%
D16*
%TO.C,C29*%
X154367600Y-96113600D03*
X156267600Y-96113600D03*
%TD*%
D11*
%TO.C,R27*%
X156428600Y-111388600D03*
X156428600Y-112588600D03*
%TD*%
%TO.C,R36*%
X156428700Y-115128600D03*
X156428700Y-113928600D03*
%TD*%
D12*
%TO.C,C37*%
X171386100Y-110401100D03*
X172586100Y-110401100D03*
%TD*%
D11*
%TO.C,R25*%
X122456100Y-111388600D03*
X122456100Y-112588600D03*
%TD*%
%TO.C,C40*%
X145633600Y-111318600D03*
X145633600Y-110118600D03*
%TD*%
D17*
%TO.C,L2*%
X159603600Y-62247400D03*
X159603600Y-60647400D03*
%TD*%
D12*
%TO.C,R6*%
X130358600Y-84207400D03*
X129158600Y-84207400D03*
%TD*%
D11*
%TO.C,C38*%
X124996100Y-111318600D03*
X124996100Y-110118600D03*
%TD*%
D18*
%TO.C,R47*%
X173676100Y-145643600D03*
X175376100Y-145643600D03*
%TD*%
D20*
%TO.C,IC8*%
X165568600Y-111648600D03*
X165568600Y-112298600D03*
X165568600Y-112948600D03*
X165568600Y-113598600D03*
X171418600Y-113598600D03*
X171418600Y-112948600D03*
X171418600Y-112298600D03*
X171418600Y-111648600D03*
%TD*%
D11*
%TO.C,R41*%
X135791100Y-116468600D03*
X135791100Y-117668600D03*
%TD*%
%TO.C,R35*%
X155158600Y-115128600D03*
X155158600Y-113928600D03*
%TD*%
%TO.C,C47*%
X133251100Y-113928600D03*
X133251100Y-115128600D03*
%TD*%
D21*
%TO.C,IC2*%
X153253600Y-78518600D03*
X153888600Y-78518600D03*
X154523600Y-78518600D03*
X155158600Y-78518600D03*
X155793600Y-78518600D03*
X156428600Y-78518600D03*
X157063600Y-78518600D03*
X157698600Y-78518600D03*
X158333600Y-78518600D03*
X158968600Y-78518600D03*
X159603600Y-78518600D03*
X160238600Y-78518600D03*
X160238600Y-73068600D03*
X159603600Y-73068600D03*
X158968600Y-73068600D03*
X158333600Y-73068600D03*
X157698600Y-73068600D03*
X157063600Y-73068600D03*
X156428600Y-73068600D03*
X155793600Y-73068600D03*
X155158600Y-73068600D03*
X154523600Y-73068600D03*
X153888600Y-73068600D03*
X153253600Y-73068600D03*
%TD*%
D11*
%TO.C,C49*%
X153888600Y-113928600D03*
X153888600Y-115128600D03*
%TD*%
D12*
%TO.C,C18*%
X156145800Y-85318700D03*
X157345800Y-85318700D03*
%TD*%
%TO.C,C14*%
X125278600Y-80238600D03*
X124078600Y-80238600D03*
%TD*%
D22*
%TO.C,C3*%
X134521100Y-63123600D03*
X134521100Y-60523600D03*
%TD*%
D15*
%TO.C,C57*%
X150022400Y-144373600D03*
X151722400Y-144373600D03*
%TD*%
D12*
%TO.C,C53*%
X129088600Y-130403600D03*
X127888600Y-130403600D03*
%TD*%
%TO.C,C10*%
X135032500Y-77539700D03*
X136232500Y-77539700D03*
%TD*%
D23*
%TO.C,IC5*%
X154762700Y-92925900D03*
X155423100Y-92925900D03*
X156083500Y-92925900D03*
X156718500Y-92925900D03*
X157378900Y-92925900D03*
X158013900Y-92925900D03*
X158678900Y-92925900D03*
X159313900Y-92925900D03*
X159974300Y-92925900D03*
X160634700Y-92925900D03*
X160634700Y-87236300D03*
X159974300Y-87236300D03*
X159313900Y-87236300D03*
X158678900Y-87236300D03*
X158013900Y-87236300D03*
X157378900Y-87236300D03*
X156718500Y-87236300D03*
X156083500Y-87236300D03*
X155423100Y-87236300D03*
X154762700Y-87236300D03*
%TD*%
D11*
%TO.C,R18*%
X134521100Y-110118600D03*
X134521100Y-111318600D03*
%TD*%
%TO.C,C52*%
X163096100Y-126946100D03*
X163096100Y-128146100D03*
%TD*%
%TO.C,R21*%
X161508600Y-111636100D03*
X161508600Y-110436100D03*
%TD*%
%TO.C,C45*%
X164048600Y-112976100D03*
X164048600Y-114176100D03*
%TD*%
D18*
%TO.C,C61*%
X142776200Y-156494900D03*
X142776200Y-154794900D03*
%TD*%
D11*
%TO.C,R12*%
X158651100Y-107191100D03*
X158651100Y-105991100D03*
%TD*%
D15*
%TO.C,C58*%
X169661300Y-144373600D03*
X167961300Y-144373600D03*
%TD*%
D12*
%TO.C,C9*%
X135032400Y-76269800D03*
X136232400Y-76269800D03*
%TD*%
%TO.C,C28*%
X159321100Y-94367300D03*
X160521100Y-94367300D03*
%TD*%
D11*
%TO.C,C41*%
X153888600Y-111318600D03*
X153888600Y-110118600D03*
%TD*%
%TO.C,R10*%
X124202400Y-106397300D03*
X124202400Y-105197300D03*
%TD*%
D12*
%TO.C,R29*%
X143058600Y-113893600D03*
X141858600Y-113893600D03*
%TD*%
%TO.C,C21*%
X125348600Y-88017300D03*
X126548600Y-88017300D03*
%TD*%
%TO.C,C34*%
X167823600Y-106591100D03*
X166623600Y-106591100D03*
%TD*%
%TO.C,R15*%
X143058600Y-110083600D03*
X141858600Y-110083600D03*
%TD*%
%TO.C,C32*%
X129088600Y-106591100D03*
X127888600Y-106591100D03*
%TD*%
%TO.C,C50*%
X161473600Y-115481100D03*
X160273600Y-115481100D03*
%TD*%
D11*
%TO.C,C19*%
X129123600Y-86394800D03*
X129123600Y-85194800D03*
%TD*%
D12*
%TO.C,R23*%
X143058600Y-111353600D03*
X141858600Y-111353600D03*
%TD*%
D24*
%TO.C,IC9*%
X159129900Y-114041100D03*
X161029900Y-114041100D03*
X160079900Y-111841100D03*
%TD*%
D25*
%TO.C,C2*%
X136743600Y-55343600D03*
X136743600Y-58143600D03*
%TD*%
D11*
%TO.C,R51*%
X142458600Y-147831100D03*
X142458600Y-146631100D03*
%TD*%
D12*
%TO.C,C11*%
X130358600Y-79286100D03*
X129158600Y-79286100D03*
%TD*%
D26*
%TO.C,L1*%
X136373600Y-53568600D03*
X134473600Y-53568600D03*
%TD*%
D27*
%TO.C,IC4*%
X133128600Y-81933600D03*
X133128600Y-82433600D03*
X133128600Y-82933600D03*
X133128600Y-83433600D03*
X133128600Y-83933600D03*
X133128600Y-84433600D03*
X133128600Y-84933600D03*
X133128600Y-85433600D03*
X133128600Y-85933600D03*
X133128600Y-86433600D03*
X133128600Y-86933600D03*
X133128600Y-87433600D03*
D28*
X134628600Y-88933600D03*
X135128600Y-88933600D03*
X135628600Y-88933600D03*
X136128600Y-88933600D03*
X136628600Y-88933600D03*
X137128600Y-88933600D03*
X137628600Y-88933600D03*
X138128600Y-88933600D03*
X138628600Y-88933600D03*
X139128600Y-88933600D03*
X139628600Y-88933600D03*
X140128600Y-88933600D03*
D27*
X141628600Y-87433600D03*
X141628600Y-86933600D03*
X141628600Y-86433600D03*
X141628600Y-85933600D03*
X141628600Y-85433600D03*
X141628600Y-84933600D03*
X141628600Y-84433600D03*
X141628600Y-83933600D03*
X141628600Y-83433600D03*
X141628600Y-82933600D03*
X141628600Y-82433600D03*
X141628600Y-81933600D03*
D28*
X140128600Y-80433600D03*
X139628600Y-80433600D03*
X139128600Y-80433600D03*
X138628600Y-80433600D03*
X138128600Y-80433600D03*
X137628600Y-80433600D03*
X137128600Y-80433600D03*
X136628600Y-80433600D03*
X136128600Y-80433600D03*
X135628600Y-80433600D03*
X135128600Y-80433600D03*
X134628600Y-80433600D03*
%TD*%
D12*
%TO.C,C24*%
X141712600Y-91509700D03*
X140512600Y-91509700D03*
%TD*%
D29*
%TO.C,Q1*%
X126463600Y-86243600D03*
X126463600Y-81843600D03*
X124063600Y-81843600D03*
X124063600Y-86243600D03*
%TD*%
D30*
%TO.C,L5*%
X172038600Y-77539900D03*
X173638600Y-77539900D03*
%TD*%
D11*
%TO.C,C39*%
X133251100Y-111318600D03*
X133251100Y-110118600D03*
%TD*%
D13*
%TO.C,C7*%
X152588700Y-67697400D03*
X155188700Y-67697400D03*
%TD*%
D12*
%TO.C,C12*%
X166553600Y-79286100D03*
X165353600Y-79286100D03*
%TD*%
D11*
%TO.C,R33*%
X135791100Y-115128600D03*
X135791100Y-113928600D03*
%TD*%
D31*
%TO.C,IC7*%
X147043300Y-110673600D03*
X147043300Y-111323600D03*
X147043300Y-111973600D03*
X147043300Y-112623600D03*
X147043300Y-113273600D03*
X147043300Y-113923600D03*
X147043300Y-114573600D03*
X152478900Y-114573600D03*
X152478900Y-113923600D03*
X152478900Y-113273600D03*
X152478900Y-112623600D03*
X152478900Y-111973600D03*
X152478900Y-111323600D03*
X152478900Y-110673600D03*
%TD*%
D11*
%TO.C,C27*%
X153571100Y-92973600D03*
X153571100Y-94173600D03*
%TD*%
%TO.C,R49*%
X144681100Y-145361100D03*
X144681100Y-146561100D03*
%TD*%
%TO.C,C43*%
X172938600Y-112906100D03*
X172938600Y-111706100D03*
%TD*%
D32*
%TO.C,C4*%
X162448600Y-61823600D03*
X165648600Y-61823600D03*
%TD*%
D11*
%TO.C,R28*%
X174208600Y-111706100D03*
X174208600Y-112906100D03*
%TD*%
%TO.C,R9*%
X124202400Y-103698600D03*
X124202400Y-102498600D03*
%TD*%
D12*
%TO.C,R38*%
X143058600Y-115163600D03*
X141858600Y-115163600D03*
%TD*%
D32*
%TO.C,C5*%
X168798600Y-61823600D03*
X171998600Y-61823600D03*
%TD*%
D18*
%TO.C,C59*%
X131346100Y-156494800D03*
X131346100Y-154794800D03*
%TD*%
D12*
%TO.C,C17*%
X153764900Y-85318600D03*
X154964900Y-85318600D03*
%TD*%
D11*
%TO.C,C35*%
X159762400Y-107191200D03*
X159762400Y-105991200D03*
%TD*%
%TO.C,R45*%
X154523600Y-144091100D03*
X154523600Y-145291100D03*
%TD*%
D12*
%TO.C,C44*%
X145598600Y-112623600D03*
X144398600Y-112623600D03*
%TD*%
%TO.C,R16*%
X170046100Y-110401100D03*
X168846100Y-110401100D03*
%TD*%
D11*
%TO.C,C46*%
X124996100Y-113928600D03*
X124996100Y-115128600D03*
%TD*%
%TO.C,R39*%
X156428600Y-116151100D03*
X156428600Y-117351100D03*
%TD*%
%TO.C,C25*%
X135791100Y-92497300D03*
X135791100Y-93697300D03*
%TD*%
D18*
%TO.C,C54*%
X165794800Y-142729800D03*
X165794800Y-144429800D03*
%TD*%
D22*
%TO.C,C30*%
X159921100Y-96242300D03*
X159921100Y-98842300D03*
%TD*%
D12*
%TO.C,R50*%
X133057300Y-146437300D03*
X131857300Y-146437300D03*
%TD*%
%TO.C,R4*%
X135597400Y-75158600D03*
X134397400Y-75158600D03*
%TD*%
D11*
%TO.C,R20*%
X155158600Y-110118600D03*
X155158600Y-111318600D03*
%TD*%
%TO.C,C48*%
X145633600Y-113928600D03*
X145633600Y-115128600D03*
%TD*%
D25*
%TO.C,C1*%
X134521100Y-55343600D03*
X134521100Y-58143600D03*
%TD*%
D11*
%TO.C,R17*%
X123726100Y-110118600D03*
X123726100Y-111318600D03*
%TD*%
D19*
%TO.C,D1*%
X159603600Y-55478600D03*
X159603600Y-59278600D03*
%TD*%
D11*
%TO.C,R31*%
X123726100Y-115128600D03*
X123726100Y-113928600D03*
%TD*%
%TO.C,R26*%
X135791100Y-111388600D03*
X135791100Y-112588600D03*
%TD*%
D18*
%TO.C,C60*%
X154047400Y-156494800D03*
X154047400Y-154794800D03*
%TD*%
D11*
%TO.C,R30*%
X122456100Y-115128600D03*
X122456100Y-113928600D03*
%TD*%
%TO.C,C42*%
X164048600Y-111636100D03*
X164048600Y-110436100D03*
%TD*%
%TO.C,C20*%
X130393600Y-86394800D03*
X130393600Y-85194800D03*
%TD*%
%TO.C,R34*%
X144363600Y-115128600D03*
X144363600Y-113928600D03*
%TD*%
D31*
%TO.C,IC6*%
X126405800Y-110673600D03*
X126405800Y-111323600D03*
X126405800Y-111973600D03*
X126405800Y-112623600D03*
X126405800Y-113273600D03*
X126405800Y-113923600D03*
X126405800Y-114573600D03*
X131841400Y-114573600D03*
X131841400Y-113923600D03*
X131841400Y-113273600D03*
X131841400Y-112623600D03*
X131841400Y-111973600D03*
X131841400Y-111323600D03*
X131841400Y-110673600D03*
%TD*%
M02*
