%TF.GenerationSoftware,KiCad,Pcbnew,7.0.5-0*%
%TF.CreationDate,2023-08-22T18:09:04+02:00*%
%TF.ProjectId,plaits,706c6169-7473-42e6-9b69-6361645f7063,rev?*%
%TF.SameCoordinates,Original*%
%TF.FileFunction,Soldermask,Top*%
%TF.FilePolarity,Negative*%
%FSLAX46Y46*%
G04 Gerber Fmt 4.6, Leading zero omitted, Abs format (unit mm)*
G04 Created by KiCad (PCBNEW 7.0.5-0) date 2023-08-22 18:09:04*
%MOMM*%
%LPD*%
G01*
G04 APERTURE LIST*
G04 Aperture macros list*
%AMRoundRect*
0 Rectangle with rounded corners*
0 $1 Rounding radius*
0 $2 $3 $4 $5 $6 $7 $8 $9 X,Y pos of 4 corners*
0 Add a 4 corners polygon primitive as box body*
4,1,4,$2,$3,$4,$5,$6,$7,$8,$9,$2,$3,0*
0 Add four circle primitives for the rounded corners*
1,1,$1+$1,$2,$3*
1,1,$1+$1,$4,$5*
1,1,$1+$1,$6,$7*
1,1,$1+$1,$8,$9*
0 Add four rect primitives between the rounded corners*
20,1,$1+$1,$2,$3,$4,$5,0*
20,1,$1+$1,$4,$5,$6,$7,0*
20,1,$1+$1,$6,$7,$8,$9,0*
20,1,$1+$1,$8,$9,$2,$3,0*%
%AMFreePoly0*
4,1,25,0.575031,1.328373,0.579933,1.323882,1.323882,0.579933,1.345910,0.532692,1.346200,0.526051,1.346200,-0.526051,1.328373,-0.575031,1.323882,-0.579933,0.579933,-1.323882,0.532692,-1.345910,0.526051,-1.346200,-0.526051,-1.346200,-0.575031,-1.328373,-0.579933,-1.323882,-1.323882,-0.579933,-1.345910,-0.532692,-1.346200,-0.526051,-1.346200,0.526051,-1.328373,0.575031,-1.323882,0.579933,
-0.579933,1.323882,-0.532692,1.345910,-0.526051,1.346200,0.526051,1.346200,0.575031,1.328373,0.575031,1.328373,$1*%
%AMFreePoly1*
4,1,25,0.417216,0.947373,0.422118,0.942882,0.942882,0.422118,0.964910,0.374877,0.965200,0.368236,0.965200,-0.368236,0.947373,-0.417216,0.942882,-0.422118,0.422118,-0.942882,0.374877,-0.964910,0.368236,-0.965200,-0.368236,-0.965200,-0.417216,-0.947373,-0.422118,-0.942882,-0.942882,-0.422118,-0.964910,-0.374877,-0.965200,-0.368236,-0.965200,0.368236,-0.947373,0.417216,-0.942882,0.422118,
-0.422118,0.942882,-0.374877,0.964910,-0.368236,0.965200,0.368236,0.965200,0.417216,0.947373,0.417216,0.947373,$1*%
%AMFreePoly2*
4,1,25,0.448779,1.023573,0.453681,1.019082,1.019082,0.453681,1.041110,0.406440,1.041400,0.399799,1.041400,-0.399799,1.023573,-0.448779,1.019082,-0.453681,0.453681,-1.019082,0.406440,-1.041110,0.399799,-1.041400,-0.399799,-1.041400,-0.448779,-1.023573,-0.453681,-1.019082,-1.019082,-0.453681,-1.041110,-0.406440,-1.041400,-0.399799,-1.041400,0.399799,-1.023573,0.448779,-1.019082,0.453681,
-0.453681,1.019082,-0.406440,1.041110,-0.399799,1.041400,0.399799,1.041400,0.448779,1.023573,0.448779,1.023573,$1*%
%AMFreePoly3*
4,1,25,0.706544,1.645873,0.711446,1.641382,1.641382,0.711446,1.663410,0.664205,1.663700,0.657564,1.663700,-0.657564,1.645873,-0.706544,1.641382,-0.711446,0.711446,-1.641382,0.664205,-1.663410,0.657564,-1.663700,-0.657564,-1.663700,-0.706544,-1.645873,-0.711446,-1.641382,-1.641382,-0.711446,-1.663410,-0.664205,-1.663700,-0.657564,-1.663700,0.657564,-1.645873,0.706544,-1.641382,0.711446,
-0.711446,1.641382,-0.664205,1.663410,-0.657564,1.663700,0.657564,1.663700,0.706544,1.645873,0.706544,1.645873,$1*%
%AMFreePoly4*
4,1,25,0.438258,0.998173,0.443160,0.993682,0.993682,0.443160,1.015710,0.395919,1.016000,0.389278,1.016000,-0.389278,0.998173,-0.438258,0.993682,-0.443160,0.443160,-0.993682,0.395919,-1.015710,0.389278,-1.016000,-0.389278,-1.016000,-0.438258,-0.998173,-0.443160,-0.993682,-0.993682,-0.443160,-1.015710,-0.395919,-1.016000,-0.389278,-1.016000,0.389278,-0.998173,0.438258,-0.993682,0.443160,
-0.443160,0.993682,-0.395919,1.015710,-0.389278,1.016000,0.389278,1.016000,0.438258,0.998173,0.438258,0.998173,$1*%
G04 Aperture macros list end*
%ADD10C,0.121920*%
%ADD11C,0.251460*%
%ADD12RoundRect,0.076200X-0.800000X-0.900000X0.800000X-0.900000X0.800000X0.900000X-0.800000X0.900000X0*%
%ADD13RoundRect,0.076200X-0.375000X0.325000X-0.375000X-0.325000X0.375000X-0.325000X0.375000X0.325000X0*%
%ADD14RoundRect,0.076200X0.325000X0.375000X-0.325000X0.375000X-0.325000X-0.375000X0.325000X-0.375000X0*%
%ADD15RoundRect,0.576200X0.000000X0.000000X0.000000X0.000000X0.000000X0.000000X0.000000X0.000000X0*%
%ADD16RoundRect,0.076200X-0.325000X-0.375000X0.325000X-0.375000X0.325000X0.375000X-0.325000X0.375000X0*%
%ADD17C,1.752400*%
%ADD18RoundRect,0.076200X1.100000X0.700000X-1.100000X0.700000X-1.100000X-0.700000X1.100000X-0.700000X0*%
%ADD19RoundRect,0.076200X0.375000X-0.325000X0.375000X0.325000X-0.375000X0.325000X-0.375000X-0.325000X0*%
%ADD20RoundRect,0.076200X0.939800X-0.939800X0.939800X0.939800X-0.939800X0.939800X-0.939800X-0.939800X0*%
%ADD21FreePoly0,90.000000*%
%ADD22C,2.032000*%
%ADD23RoundRect,0.076200X0.700000X-0.500000X0.700000X0.500000X-0.700000X0.500000X-0.700000X-0.500000X0*%
%ADD24RoundRect,0.076200X0.550000X0.500000X-0.550000X0.500000X-0.550000X-0.500000X0.550000X-0.500000X0*%
%ADD25C,2.200000*%
%ADD26FreePoly1,180.000000*%
%ADD27RoundRect,0.076200X0.650000X0.750000X-0.650000X0.750000X-0.650000X-0.750000X0.650000X-0.750000X0*%
%ADD28RoundRect,0.076200X0.350000X-0.425000X0.350000X0.425000X-0.350000X0.425000X-0.350000X-0.425000X0*%
%ADD29RoundRect,0.076200X-0.550000X-0.500000X0.550000X-0.500000X0.550000X0.500000X-0.550000X0.500000X0*%
%ADD30RoundRect,0.076200X-0.500000X-0.550000X0.500000X-0.550000X0.500000X0.550000X-0.500000X0.550000X0*%
%ADD31RoundRect,0.076200X-0.700000X0.700000X-0.700000X-0.700000X0.700000X-0.700000X0.700000X0.700000X0*%
%ADD32RoundRect,0.076200X-0.350000X0.425000X-0.350000X-0.425000X0.350000X-0.425000X0.350000X0.425000X0*%
%ADD33RoundRect,0.076200X-0.650000X-0.750000X0.650000X-0.750000X0.650000X0.750000X-0.650000X0.750000X0*%
%ADD34C,3.000000*%
%ADD35RoundRect,0.076200X-0.600000X0.175000X-0.600000X-0.175000X0.600000X-0.175000X0.600000X0.175000X0*%
%ADD36FreePoly2,0.000000*%
%ADD37RoundRect,0.076200X-0.165000X-0.500000X0.165000X-0.500000X0.165000X0.500000X-0.165000X0.500000X0*%
%ADD38RoundRect,0.076200X0.177800X-0.711200X0.177800X0.711200X-0.177800X0.711200X-0.177800X-0.711200X0*%
%ADD39RoundRect,0.076200X0.500000X-0.550000X0.500000X0.550000X-0.500000X0.550000X-0.500000X-0.550000X0*%
%ADD40FreePoly3,90.000000*%
%ADD41RoundRect,0.076200X-0.350000X-0.500000X0.350000X-0.500000X0.350000X0.500000X-0.350000X0.500000X0*%
%ADD42RoundRect,0.076200X-0.900000X0.800000X-0.900000X-0.800000X0.900000X-0.800000X0.900000X0.800000X0*%
%ADD43RoundRect,0.076200X0.450000X0.625000X-0.450000X0.625000X-0.450000X-0.625000X0.450000X-0.625000X0*%
%ADD44RoundRect,0.076200X-0.500000X0.127000X-0.500000X-0.127000X0.500000X-0.127000X0.500000X0.127000X0*%
%ADD45RoundRect,0.076200X-0.127000X0.500000X-0.127000X-0.500000X0.127000X-0.500000X0.127000X0.500000X0*%
%ADD46RoundRect,0.076200X0.700000X-0.950000X0.700000X0.950000X-0.700000X0.950000X-0.700000X-0.950000X0*%
%ADD47RoundRect,0.076200X-0.425000X-0.350000X0.425000X-0.350000X0.425000X0.350000X-0.425000X0.350000X0*%
%ADD48RoundRect,0.076200X-0.495300X0.152400X-0.495300X-0.152400X0.495300X-0.152400X0.495300X0.152400X0*%
%ADD49RoundRect,0.076200X-0.500000X0.550000X-0.500000X-0.550000X0.500000X-0.550000X0.500000X0.550000X0*%
%ADD50RoundRect,0.076200X0.700000X-1.100000X0.700000X1.100000X-0.700000X1.100000X-0.700000X-1.100000X0*%
%ADD51RoundRect,0.076200X0.700000X-0.700000X0.700000X0.700000X-0.700000X0.700000X-0.700000X-0.700000X0*%
%ADD52RoundRect,0.076200X1.000000X-1.000000X1.000000X1.000000X-1.000000X1.000000X-1.000000X-1.000000X0*%
%ADD53RoundRect,0.076200X-0.939800X-0.939800X0.939800X-0.939800X0.939800X0.939800X-0.939800X0.939800X0*%
%ADD54FreePoly4,180.000000*%
G04 APERTURE END LIST*
D10*
X165071827Y-131088140D02*
X165006029Y-131121039D01*
X165006029Y-131121039D02*
X164874433Y-131121039D01*
X164874433Y-131121039D02*
X164808635Y-131088140D01*
X164808635Y-131088140D02*
X164775736Y-131055240D01*
X164775736Y-131055240D02*
X164742837Y-130989442D01*
X164742837Y-130989442D02*
X164742837Y-130792048D01*
X164742837Y-130792048D02*
X164775736Y-130726250D01*
X164775736Y-130726250D02*
X164808635Y-130693351D01*
X164808635Y-130693351D02*
X164874433Y-130660452D01*
X164874433Y-130660452D02*
X165006029Y-130660452D01*
X165006029Y-130660452D02*
X165071827Y-130693351D01*
X165664010Y-131088140D02*
X165598212Y-131121039D01*
X165598212Y-131121039D02*
X165466616Y-131121039D01*
X165466616Y-131121039D02*
X165400818Y-131088140D01*
X165400818Y-131088140D02*
X165367919Y-131055240D01*
X165367919Y-131055240D02*
X165335020Y-130989442D01*
X165335020Y-130989442D02*
X165335020Y-130792048D01*
X165335020Y-130792048D02*
X165367919Y-130726250D01*
X165367919Y-130726250D02*
X165400818Y-130693351D01*
X165400818Y-130693351D02*
X165466616Y-130660452D01*
X165466616Y-130660452D02*
X165598212Y-130660452D01*
X165598212Y-130660452D02*
X165664010Y-130693351D01*
X165960102Y-130857846D02*
X166486487Y-130857846D01*
X166815477Y-131121039D02*
X166815477Y-130430159D01*
X166815477Y-130693351D02*
X166881275Y-130660452D01*
X166881275Y-130660452D02*
X167012871Y-130660452D01*
X167012871Y-130660452D02*
X167078669Y-130693351D01*
X167078669Y-130693351D02*
X167111568Y-130726250D01*
X167111568Y-130726250D02*
X167144467Y-130792048D01*
X167144467Y-130792048D02*
X167144467Y-130989442D01*
X167144467Y-130989442D02*
X167111568Y-131055240D01*
X167111568Y-131055240D02*
X167078669Y-131088140D01*
X167078669Y-131088140D02*
X167012871Y-131121039D01*
X167012871Y-131121039D02*
X166881275Y-131121039D01*
X166881275Y-131121039D02*
X166815477Y-131088140D01*
X167374761Y-130660452D02*
X167539256Y-131121039D01*
X167703751Y-130660452D02*
X167539256Y-131121039D01*
X167539256Y-131121039D02*
X167473458Y-131285534D01*
X167473458Y-131285534D02*
X167440559Y-131318433D01*
X167440559Y-131318433D02*
X167374761Y-131351332D01*
X167966944Y-130857846D02*
X168493329Y-130857846D01*
X168789420Y-131088140D02*
X168855218Y-131121039D01*
X168855218Y-131121039D02*
X168986814Y-131121039D01*
X168986814Y-131121039D02*
X169052612Y-131088140D01*
X169052612Y-131088140D02*
X169085511Y-131022341D01*
X169085511Y-131022341D02*
X169085511Y-130989442D01*
X169085511Y-130989442D02*
X169052612Y-130923644D01*
X169052612Y-130923644D02*
X168986814Y-130890745D01*
X168986814Y-130890745D02*
X168888117Y-130890745D01*
X168888117Y-130890745D02*
X168822319Y-130857846D01*
X168822319Y-130857846D02*
X168789420Y-130792048D01*
X168789420Y-130792048D02*
X168789420Y-130759149D01*
X168789420Y-130759149D02*
X168822319Y-130693351D01*
X168822319Y-130693351D02*
X168888117Y-130660452D01*
X168888117Y-130660452D02*
X168986814Y-130660452D01*
X168986814Y-130660452D02*
X169052612Y-130693351D01*
X169677694Y-131121039D02*
X169677694Y-130759149D01*
X169677694Y-130759149D02*
X169644795Y-130693351D01*
X169644795Y-130693351D02*
X169578997Y-130660452D01*
X169578997Y-130660452D02*
X169447401Y-130660452D01*
X169447401Y-130660452D02*
X169381603Y-130693351D01*
X169677694Y-131088140D02*
X169611896Y-131121039D01*
X169611896Y-131121039D02*
X169447401Y-131121039D01*
X169447401Y-131121039D02*
X169381603Y-131088140D01*
X169381603Y-131088140D02*
X169348704Y-131022341D01*
X169348704Y-131022341D02*
X169348704Y-130956543D01*
X169348704Y-130956543D02*
X169381603Y-130890745D01*
X169381603Y-130890745D02*
X169447401Y-130857846D01*
X169447401Y-130857846D02*
X169611896Y-130857846D01*
X169611896Y-130857846D02*
X169677694Y-130824947D01*
X142600921Y-131448557D02*
X142633820Y-131415658D01*
X142633820Y-131415658D02*
X142699618Y-131382759D01*
X142699618Y-131382759D02*
X142864113Y-131382759D01*
X142864113Y-131382759D02*
X142929911Y-131415658D01*
X142929911Y-131415658D02*
X142962810Y-131448557D01*
X142962810Y-131448557D02*
X142995709Y-131514355D01*
X142995709Y-131514355D02*
X142995709Y-131580153D01*
X142995709Y-131580153D02*
X142962810Y-131678850D01*
X142962810Y-131678850D02*
X142568022Y-132073639D01*
X142568022Y-132073639D02*
X142995709Y-132073639D01*
X143423397Y-131382759D02*
X143489195Y-131382759D01*
X143489195Y-131382759D02*
X143554993Y-131415658D01*
X143554993Y-131415658D02*
X143587892Y-131448557D01*
X143587892Y-131448557D02*
X143620791Y-131514355D01*
X143620791Y-131514355D02*
X143653690Y-131645951D01*
X143653690Y-131645951D02*
X143653690Y-131810446D01*
X143653690Y-131810446D02*
X143620791Y-131942042D01*
X143620791Y-131942042D02*
X143587892Y-132007840D01*
X143587892Y-132007840D02*
X143554993Y-132040740D01*
X143554993Y-132040740D02*
X143489195Y-132073639D01*
X143489195Y-132073639D02*
X143423397Y-132073639D01*
X143423397Y-132073639D02*
X143357599Y-132040740D01*
X143357599Y-132040740D02*
X143324700Y-132007840D01*
X143324700Y-132007840D02*
X143291801Y-131942042D01*
X143291801Y-131942042D02*
X143258902Y-131810446D01*
X143258902Y-131810446D02*
X143258902Y-131645951D01*
X143258902Y-131645951D02*
X143291801Y-131514355D01*
X143291801Y-131514355D02*
X143324700Y-131448557D01*
X143324700Y-131448557D02*
X143357599Y-131415658D01*
X143357599Y-131415658D02*
X143423397Y-131382759D01*
X144311671Y-132073639D02*
X143916883Y-132073639D01*
X144114277Y-132073639D02*
X144114277Y-131382759D01*
X144114277Y-131382759D02*
X144048479Y-131481456D01*
X144048479Y-131481456D02*
X143982681Y-131547254D01*
X143982681Y-131547254D02*
X143916883Y-131580153D01*
X144541965Y-131382759D02*
X145002551Y-131382759D01*
X145002551Y-131382759D02*
X144706460Y-132073639D01*
X145265744Y-132007840D02*
X145298643Y-132040740D01*
X145298643Y-132040740D02*
X145265744Y-132073639D01*
X145265744Y-132073639D02*
X145232845Y-132040740D01*
X145232845Y-132040740D02*
X145265744Y-132007840D01*
X145265744Y-132007840D02*
X145265744Y-132073639D01*
X146055321Y-131613052D02*
X146219816Y-132073639D01*
X146219816Y-132073639D02*
X146384311Y-131613052D01*
X146976494Y-131382759D02*
X146647504Y-131382759D01*
X146647504Y-131382759D02*
X146614605Y-131711749D01*
X146614605Y-131711749D02*
X146647504Y-131678850D01*
X146647504Y-131678850D02*
X146713302Y-131645951D01*
X146713302Y-131645951D02*
X146877797Y-131645951D01*
X146877797Y-131645951D02*
X146943595Y-131678850D01*
X146943595Y-131678850D02*
X146976494Y-131711749D01*
X146976494Y-131711749D02*
X147009393Y-131777547D01*
X147009393Y-131777547D02*
X147009393Y-131942042D01*
X147009393Y-131942042D02*
X146976494Y-132007840D01*
X146976494Y-132007840D02*
X146943595Y-132040740D01*
X146943595Y-132040740D02*
X146877797Y-132073639D01*
X146877797Y-132073639D02*
X146713302Y-132073639D01*
X146713302Y-132073639D02*
X146647504Y-132040740D01*
X146647504Y-132040740D02*
X146614605Y-132007840D01*
X163591270Y-131870349D02*
X163821563Y-131870349D01*
X163920260Y-132232239D02*
X163591270Y-132232239D01*
X163591270Y-132232239D02*
X163591270Y-131541359D01*
X163591270Y-131541359D02*
X163920260Y-131541359D01*
X163821563Y-131278166D02*
X163722866Y-131376863D01*
X164216352Y-132232239D02*
X164216352Y-131771652D01*
X164216352Y-131837450D02*
X164249251Y-131804551D01*
X164249251Y-131804551D02*
X164315049Y-131771652D01*
X164315049Y-131771652D02*
X164413746Y-131771652D01*
X164413746Y-131771652D02*
X164479544Y-131804551D01*
X164479544Y-131804551D02*
X164512443Y-131870349D01*
X164512443Y-131870349D02*
X164512443Y-132232239D01*
X164512443Y-131870349D02*
X164545342Y-131804551D01*
X164545342Y-131804551D02*
X164611140Y-131771652D01*
X164611140Y-131771652D02*
X164709837Y-131771652D01*
X164709837Y-131771652D02*
X164775636Y-131804551D01*
X164775636Y-131804551D02*
X164808535Y-131870349D01*
X164808535Y-131870349D02*
X164808535Y-132232239D01*
X165137525Y-132232239D02*
X165137525Y-131771652D01*
X165137525Y-131541359D02*
X165104626Y-131574258D01*
X165104626Y-131574258D02*
X165137525Y-131607157D01*
X165137525Y-131607157D02*
X165170424Y-131574258D01*
X165170424Y-131574258D02*
X165137525Y-131541359D01*
X165137525Y-131541359D02*
X165137525Y-131607157D01*
X165565212Y-132232239D02*
X165499414Y-132199340D01*
X165499414Y-132199340D02*
X165466515Y-132133541D01*
X165466515Y-132133541D02*
X165466515Y-131541359D01*
X165828405Y-132232239D02*
X165828405Y-131771652D01*
X165828405Y-131541359D02*
X165795506Y-131574258D01*
X165795506Y-131574258D02*
X165828405Y-131607157D01*
X165828405Y-131607157D02*
X165861304Y-131574258D01*
X165861304Y-131574258D02*
X165828405Y-131541359D01*
X165828405Y-131541359D02*
X165828405Y-131607157D01*
X166420587Y-132199340D02*
X166354789Y-132232239D01*
X166354789Y-132232239D02*
X166223193Y-132232239D01*
X166223193Y-132232239D02*
X166157395Y-132199340D01*
X166157395Y-132199340D02*
X166124496Y-132133541D01*
X166124496Y-132133541D02*
X166124496Y-131870349D01*
X166124496Y-131870349D02*
X166157395Y-131804551D01*
X166157395Y-131804551D02*
X166223193Y-131771652D01*
X166223193Y-131771652D02*
X166354789Y-131771652D01*
X166354789Y-131771652D02*
X166420587Y-131804551D01*
X166420587Y-131804551D02*
X166453486Y-131870349D01*
X166453486Y-131870349D02*
X166453486Y-131936147D01*
X166453486Y-131936147D02*
X166124496Y-132001945D01*
X167637852Y-131574258D02*
X167572054Y-131541359D01*
X167572054Y-131541359D02*
X167473357Y-131541359D01*
X167473357Y-131541359D02*
X167374660Y-131574258D01*
X167374660Y-131574258D02*
X167308862Y-131640056D01*
X167308862Y-131640056D02*
X167275963Y-131705854D01*
X167275963Y-131705854D02*
X167243064Y-131837450D01*
X167243064Y-131837450D02*
X167243064Y-131936147D01*
X167243064Y-131936147D02*
X167275963Y-132067743D01*
X167275963Y-132067743D02*
X167308862Y-132133541D01*
X167308862Y-132133541D02*
X167374660Y-132199340D01*
X167374660Y-132199340D02*
X167473357Y-132232239D01*
X167473357Y-132232239D02*
X167539155Y-132232239D01*
X167539155Y-132232239D02*
X167637852Y-132199340D01*
X167637852Y-132199340D02*
X167670751Y-132166440D01*
X167670751Y-132166440D02*
X167670751Y-131936147D01*
X167670751Y-131936147D02*
X167539155Y-131936147D01*
X167966843Y-132232239D02*
X167966843Y-131771652D01*
X167966843Y-131541359D02*
X167933944Y-131574258D01*
X167933944Y-131574258D02*
X167966843Y-131607157D01*
X167966843Y-131607157D02*
X167999742Y-131574258D01*
X167999742Y-131574258D02*
X167966843Y-131541359D01*
X167966843Y-131541359D02*
X167966843Y-131607157D01*
X168394530Y-132232239D02*
X168328732Y-132199340D01*
X168328732Y-132199340D02*
X168295833Y-132133541D01*
X168295833Y-132133541D02*
X168295833Y-131541359D01*
X168756420Y-132232239D02*
X168690622Y-132199340D01*
X168690622Y-132199340D02*
X168657723Y-132133541D01*
X168657723Y-132133541D02*
X168657723Y-131541359D01*
X169282805Y-132199340D02*
X169217007Y-132232239D01*
X169217007Y-132232239D02*
X169085411Y-132232239D01*
X169085411Y-132232239D02*
X169019613Y-132199340D01*
X169019613Y-132199340D02*
X168986714Y-132133541D01*
X168986714Y-132133541D02*
X168986714Y-131870349D01*
X168986714Y-131870349D02*
X169019613Y-131804551D01*
X169019613Y-131804551D02*
X169085411Y-131771652D01*
X169085411Y-131771652D02*
X169217007Y-131771652D01*
X169217007Y-131771652D02*
X169282805Y-131804551D01*
X169282805Y-131804551D02*
X169315704Y-131870349D01*
X169315704Y-131870349D02*
X169315704Y-131936147D01*
X169315704Y-131936147D02*
X168986714Y-132001945D01*
X169513099Y-131771652D02*
X169776291Y-131771652D01*
X169611796Y-131541359D02*
X169611796Y-132133541D01*
X169611796Y-132133541D02*
X169644695Y-132199340D01*
X169644695Y-132199340D02*
X169710493Y-132232239D01*
X169710493Y-132232239D02*
X169776291Y-132232239D01*
D11*
X152083052Y-132200818D02*
X152083052Y-130775878D01*
X152083052Y-130775878D02*
X152625886Y-130775878D01*
X152625886Y-130775878D02*
X152761595Y-130843732D01*
X152761595Y-130843732D02*
X152829449Y-130911586D01*
X152829449Y-130911586D02*
X152897303Y-131047295D01*
X152897303Y-131047295D02*
X152897303Y-131250858D01*
X152897303Y-131250858D02*
X152829449Y-131386566D01*
X152829449Y-131386566D02*
X152761595Y-131454421D01*
X152761595Y-131454421D02*
X152625886Y-131522275D01*
X152625886Y-131522275D02*
X152083052Y-131522275D01*
X153711555Y-132200818D02*
X153575846Y-132132964D01*
X153575846Y-132132964D02*
X153507992Y-131997255D01*
X153507992Y-131997255D02*
X153507992Y-130775878D01*
X154865078Y-132200818D02*
X154865078Y-131454421D01*
X154865078Y-131454421D02*
X154797223Y-131318712D01*
X154797223Y-131318712D02*
X154661515Y-131250858D01*
X154661515Y-131250858D02*
X154390098Y-131250858D01*
X154390098Y-131250858D02*
X154254389Y-131318712D01*
X154865078Y-132132964D02*
X154729369Y-132200818D01*
X154729369Y-132200818D02*
X154390098Y-132200818D01*
X154390098Y-132200818D02*
X154254389Y-132132964D01*
X154254389Y-132132964D02*
X154186535Y-131997255D01*
X154186535Y-131997255D02*
X154186535Y-131861546D01*
X154186535Y-131861546D02*
X154254389Y-131725838D01*
X154254389Y-131725838D02*
X154390098Y-131657984D01*
X154390098Y-131657984D02*
X154729369Y-131657984D01*
X154729369Y-131657984D02*
X154865078Y-131590129D01*
X155543620Y-132200818D02*
X155543620Y-131250858D01*
X155543620Y-130775878D02*
X155475766Y-130843732D01*
X155475766Y-130843732D02*
X155543620Y-130911586D01*
X155543620Y-130911586D02*
X155611474Y-130843732D01*
X155611474Y-130843732D02*
X155543620Y-130775878D01*
X155543620Y-130775878D02*
X155543620Y-130911586D01*
X156018600Y-131250858D02*
X156561434Y-131250858D01*
X156222163Y-130775878D02*
X156222163Y-131997255D01*
X156222163Y-131997255D02*
X156290017Y-132132964D01*
X156290017Y-132132964D02*
X156425726Y-132200818D01*
X156425726Y-132200818D02*
X156561434Y-132200818D01*
X156968560Y-132132964D02*
X157104268Y-132200818D01*
X157104268Y-132200818D02*
X157375685Y-132200818D01*
X157375685Y-132200818D02*
X157511394Y-132132964D01*
X157511394Y-132132964D02*
X157579248Y-131997255D01*
X157579248Y-131997255D02*
X157579248Y-131929401D01*
X157579248Y-131929401D02*
X157511394Y-131793692D01*
X157511394Y-131793692D02*
X157375685Y-131725838D01*
X157375685Y-131725838D02*
X157172123Y-131725838D01*
X157172123Y-131725838D02*
X157036414Y-131657984D01*
X157036414Y-131657984D02*
X156968560Y-131522275D01*
X156968560Y-131522275D02*
X156968560Y-131454421D01*
X156968560Y-131454421D02*
X157036414Y-131318712D01*
X157036414Y-131318712D02*
X157172123Y-131250858D01*
X157172123Y-131250858D02*
X157375685Y-131250858D01*
X157375685Y-131250858D02*
X157511394Y-131318712D01*
%TO.C,IC3*%
G36*
X170764600Y-86188800D02*
G01*
X169714600Y-86188800D01*
X169714600Y-84613800D01*
X170764600Y-84613800D01*
X170764600Y-86188800D01*
G37*
G36*
X169264600Y-86188800D02*
G01*
X168214600Y-86188800D01*
X168214600Y-84613800D01*
X169264600Y-84613800D01*
X169264600Y-86188800D01*
G37*
G36*
X172264600Y-86188800D02*
G01*
X171214600Y-86188800D01*
X171214600Y-84613800D01*
X172264600Y-84613800D01*
X172264600Y-86188800D01*
G37*
%TD*%
D12*
%TO.C,C13*%
X170268600Y-79603600D03*
X173068600Y-79603600D03*
%TD*%
D13*
%TO.C,R37*%
X162778600Y-114246100D03*
X162778600Y-115446100D03*
%TD*%
D14*
%TO.C,R5*%
X130358700Y-83254700D03*
X129158700Y-83254700D03*
%TD*%
D15*
%TO.C,JP3*%
X120868600Y-155803600D03*
%TD*%
D16*
%TO.C,R14*%
X135826100Y-110083600D03*
X137026100Y-110083600D03*
%TD*%
D13*
%TO.C,C51*%
X143728600Y-126946100D03*
X143728600Y-128146100D03*
%TD*%
D17*
%TO.C,LED8*%
X148491100Y-103416100D03*
X151031100Y-103416100D03*
X145951100Y-103416100D03*
%TD*%
D13*
%TO.C,C26*%
X136902400Y-92497300D03*
X136902400Y-93697300D03*
%TD*%
D18*
%TO.C,C22*%
X169274800Y-88811100D03*
X172474800Y-88811100D03*
%TD*%
D19*
%TO.C,C8*%
X153094900Y-71472400D03*
X153094900Y-70272400D03*
%TD*%
D16*
%TO.C,R3*%
X154241100Y-71031100D03*
X155441100Y-71031100D03*
%TD*%
D20*
%TO.C,R7*%
X131623600Y-104383600D03*
X129123600Y-104383600D03*
X126623600Y-104383600D03*
D21*
X133823600Y-97383600D03*
X124423600Y-97383600D03*
%TD*%
D22*
%TO.C,SW1*%
X140794900Y-55753000D03*
X147297300Y-55753000D03*
X140794900Y-60274200D03*
X147297300Y-60274200D03*
%TD*%
D23*
%TO.C,D3*%
X145781000Y-101667200D03*
X145781000Y-99767200D03*
X143581000Y-100717200D03*
%TD*%
D17*
%TO.C,LED3*%
X148491100Y-76428600D03*
X151031100Y-76428600D03*
X145951100Y-76428600D03*
%TD*%
D13*
%TO.C,C6*%
X138050000Y-64750000D03*
X138050000Y-65950000D03*
%TD*%
D19*
%TO.C,R32*%
X134521100Y-115128600D03*
X134521100Y-113928600D03*
%TD*%
D24*
%TO.C,C55*%
X125528600Y-144373500D03*
X123828600Y-144373500D03*
%TD*%
D13*
%TO.C,R24*%
X121186100Y-111388600D03*
X121186100Y-112588600D03*
%TD*%
D25*
%TO.C,J4*%
X159921100Y-137388600D03*
D26*
X159921100Y-131673600D03*
X159921100Y-134213600D03*
X159921100Y-141833600D03*
%TD*%
D27*
%TO.C,C31*%
X156267400Y-98336100D03*
X154367400Y-98336100D03*
%TD*%
D28*
%TO.C,L3*%
X175950000Y-62406100D03*
X175950000Y-60806100D03*
%TD*%
D19*
%TO.C,R11*%
X157222400Y-107191100D03*
X157222400Y-105991100D03*
%TD*%
D14*
%TO.C,C23*%
X141712600Y-90239800D03*
X140512600Y-90239800D03*
%TD*%
%TO.C,C36*%
X128771100Y-109131100D03*
X127571100Y-109131100D03*
%TD*%
D19*
%TO.C,R13*%
X156428600Y-110048600D03*
X156428600Y-108848600D03*
%TD*%
%TO.C,C33*%
X156111100Y-107191100D03*
X156111100Y-105991100D03*
%TD*%
D13*
%TO.C,C15*%
X131822500Y-81385000D03*
X131822500Y-82585000D03*
%TD*%
D29*
%TO.C,C56*%
X137163600Y-144373600D03*
X138863600Y-144373600D03*
%TD*%
D18*
%TO.C,C16*%
X155200000Y-82850000D03*
X158400000Y-82850000D03*
%TD*%
D13*
%TO.C,R48*%
X140871100Y-145361100D03*
X140871100Y-146561100D03*
%TD*%
%TO.C,R40*%
X122456100Y-116468600D03*
X122456100Y-117668600D03*
%TD*%
%TO.C,R22*%
X162778600Y-110436100D03*
X162778600Y-111636100D03*
%TD*%
D15*
%TO.C,JP1*%
X120868600Y-53568600D03*
%TD*%
D20*
%TO.C,R2*%
X169088600Y-77078600D03*
X166588600Y-77078600D03*
X164088600Y-77078600D03*
D21*
X171288600Y-70078600D03*
X161888600Y-70078600D03*
%TD*%
D30*
%TO.C,R46*%
X162246100Y-145643600D03*
X163946100Y-145643600D03*
%TD*%
D31*
%TO.C,D2*%
X175950000Y-59278600D03*
X175950000Y-55478600D03*
%TD*%
D17*
%TO.C,LED1*%
X148491100Y-65633600D03*
X151031100Y-65633600D03*
X145951100Y-65633600D03*
%TD*%
D32*
%TO.C,L4*%
X150750000Y-67300000D03*
X150750000Y-68900000D03*
%TD*%
D17*
%TO.C,LED2*%
X148491100Y-71031100D03*
X151031100Y-71031100D03*
X145951100Y-71031100D03*
%TD*%
D13*
%TO.C,R19*%
X144363600Y-110118600D03*
X144363600Y-111318600D03*
%TD*%
D33*
%TO.C,C29*%
X154367600Y-96113600D03*
X156267600Y-96113600D03*
%TD*%
D13*
%TO.C,R27*%
X156428600Y-111388600D03*
X156428600Y-112588600D03*
%TD*%
D19*
%TO.C,R36*%
X156428700Y-115128600D03*
X156428700Y-113928600D03*
%TD*%
D34*
%TO.C,H2*%
X158968600Y-127228500D03*
%TD*%
D16*
%TO.C,C37*%
X171386100Y-110401100D03*
X172586100Y-110401100D03*
%TD*%
D13*
%TO.C,R25*%
X122456100Y-111388600D03*
X122456100Y-112588600D03*
%TD*%
D19*
%TO.C,C40*%
X145633600Y-111318600D03*
X145633600Y-110118600D03*
%TD*%
D28*
%TO.C,L2*%
X158700000Y-62247400D03*
X158700000Y-60647400D03*
%TD*%
D14*
%TO.C,R6*%
X130358600Y-84207400D03*
X129158600Y-84207400D03*
%TD*%
D19*
%TO.C,C38*%
X124996100Y-111318600D03*
X124996100Y-110118600D03*
%TD*%
D25*
%TO.C,J2*%
X137061100Y-137388600D03*
D26*
X137061100Y-131673600D03*
X137061100Y-134213600D03*
X137061100Y-141833600D03*
%TD*%
D30*
%TO.C,R47*%
X173676100Y-145643600D03*
X175376100Y-145643600D03*
%TD*%
D34*
%TO.C,H3*%
X138013600Y-127228600D03*
%TD*%
D17*
%TO.C,LED4*%
X148491100Y-81826100D03*
X151031100Y-81826100D03*
X145951100Y-81826100D03*
%TD*%
D35*
%TO.C,IC8*%
X165568600Y-111648600D03*
X165568600Y-112298600D03*
X165568600Y-112948600D03*
X165568600Y-113598600D03*
X171418600Y-113598600D03*
X171418600Y-112948600D03*
X171418600Y-112298600D03*
X171418600Y-111648600D03*
%TD*%
D36*
%TO.C,IC1*%
X125948600Y-55473600D03*
X125948600Y-58013600D03*
X125948600Y-60553600D03*
%TD*%
D13*
%TO.C,R41*%
X135791100Y-116468600D03*
X135791100Y-117668600D03*
%TD*%
D19*
%TO.C,R35*%
X155158600Y-115128600D03*
X155158600Y-113928600D03*
%TD*%
D13*
%TO.C,C47*%
X133251100Y-113928600D03*
X133251100Y-115128600D03*
%TD*%
D37*
%TO.C,IC2*%
X153253600Y-78518600D03*
X153888600Y-78518600D03*
X154523600Y-78518600D03*
X155158600Y-78518600D03*
X155793600Y-78518600D03*
X156428600Y-78518600D03*
X157063600Y-78518600D03*
X157698600Y-78518600D03*
X158333600Y-78518600D03*
X158968600Y-78518600D03*
X159603600Y-78518600D03*
X160238600Y-78518600D03*
X160238600Y-73068600D03*
X159603600Y-73068600D03*
X158968600Y-73068600D03*
X158333600Y-73068600D03*
X157698600Y-73068600D03*
X157063600Y-73068600D03*
X156428600Y-73068600D03*
X155793600Y-73068600D03*
X155158600Y-73068600D03*
X154523600Y-73068600D03*
X153888600Y-73068600D03*
X153253600Y-73068600D03*
%TD*%
D13*
%TO.C,C49*%
X153888600Y-113928600D03*
X153888600Y-115128600D03*
%TD*%
D25*
%TO.C,J5*%
X171351100Y-137388600D03*
D26*
X171351100Y-131673600D03*
X171351100Y-134213600D03*
X171351100Y-141833600D03*
%TD*%
D16*
%TO.C,C18*%
X157100000Y-85550000D03*
X158300000Y-85550000D03*
%TD*%
D14*
%TO.C,C14*%
X125278600Y-80238600D03*
X124078600Y-80238600D03*
%TD*%
D18*
%TO.C,C3*%
X133990000Y-61660000D03*
X137190000Y-61660000D03*
%TD*%
D20*
%TO.C,R1*%
X132893600Y-77078600D03*
X130393600Y-77078600D03*
X127893600Y-77078600D03*
D21*
X135093600Y-70078600D03*
X125693600Y-70078600D03*
%TD*%
D29*
%TO.C,C57*%
X150022400Y-144373600D03*
X151722400Y-144373600D03*
%TD*%
D25*
%TO.C,J8*%
X148491100Y-151993600D03*
D26*
X148491100Y-146278600D03*
X148491100Y-148818600D03*
X148491100Y-156438600D03*
%TD*%
D14*
%TO.C,C53*%
X129088600Y-130403600D03*
X127888600Y-130403600D03*
%TD*%
D16*
%TO.C,C10*%
X135032500Y-77539700D03*
X136232500Y-77539700D03*
%TD*%
D38*
%TO.C,IC5*%
X154762700Y-92925900D03*
X155423100Y-92925900D03*
X156083500Y-92925900D03*
X156718500Y-92925900D03*
X157378900Y-92925900D03*
X158013900Y-92925900D03*
X158678900Y-92925900D03*
X159313900Y-92925900D03*
X159974300Y-92925900D03*
X160634700Y-92925900D03*
X160634700Y-87236300D03*
X159974300Y-87236300D03*
X159313900Y-87236300D03*
X158678900Y-87236300D03*
X158013900Y-87236300D03*
X157378900Y-87236300D03*
X156718500Y-87236300D03*
X156083500Y-87236300D03*
X155423100Y-87236300D03*
X154762700Y-87236300D03*
%TD*%
D13*
%TO.C,R18*%
X134521100Y-110118600D03*
X134521100Y-111318600D03*
%TD*%
%TO.C,C52*%
X163096100Y-126946100D03*
X163096100Y-128146100D03*
%TD*%
D19*
%TO.C,R21*%
X161508600Y-111636100D03*
X161508600Y-110436100D03*
%TD*%
D13*
%TO.C,C45*%
X164048600Y-112976100D03*
X164048600Y-114176100D03*
%TD*%
D39*
%TO.C,C61*%
X142776200Y-156494900D03*
X142776200Y-154794900D03*
%TD*%
D19*
%TO.C,R12*%
X158651100Y-107191100D03*
X158651100Y-105991100D03*
%TD*%
D24*
%TO.C,C58*%
X169661300Y-144373600D03*
X167961300Y-144373600D03*
%TD*%
D20*
%TO.C,R44*%
X170358600Y-128213600D03*
X167858600Y-128213600D03*
X165358600Y-128213600D03*
D40*
X172258600Y-121513600D03*
X163458600Y-121513600D03*
%TD*%
D16*
%TO.C,C9*%
X135032400Y-76269800D03*
X136232400Y-76269800D03*
%TD*%
%TO.C,C28*%
X159321100Y-94367300D03*
X160521100Y-94367300D03*
%TD*%
D15*
%TO.C,JP4*%
X176113600Y-155803600D03*
%TD*%
D19*
%TO.C,C41*%
X153888600Y-111318600D03*
X153888600Y-110118600D03*
%TD*%
%TO.C,R10*%
X124202400Y-106397300D03*
X124202400Y-105197300D03*
%TD*%
D14*
%TO.C,R29*%
X143058600Y-113893600D03*
X141858600Y-113893600D03*
%TD*%
D16*
%TO.C,C21*%
X125348600Y-88017300D03*
X126548600Y-88017300D03*
%TD*%
D14*
%TO.C,C34*%
X167823600Y-106591100D03*
X166623600Y-106591100D03*
%TD*%
%TO.C,R15*%
X143058600Y-110083600D03*
X141858600Y-110083600D03*
%TD*%
%TO.C,C32*%
X129088600Y-106591100D03*
X127888600Y-106591100D03*
%TD*%
%TO.C,C50*%
X161473600Y-115481100D03*
X160273600Y-115481100D03*
%TD*%
D19*
%TO.C,C19*%
X129123600Y-86394800D03*
X129123600Y-85194800D03*
%TD*%
D14*
%TO.C,R23*%
X143058600Y-111353600D03*
X141858600Y-111353600D03*
%TD*%
D41*
%TO.C,IC9*%
X159129900Y-114041100D03*
X161029900Y-114041100D03*
X160079900Y-111841100D03*
%TD*%
D42*
%TO.C,C2*%
X136743600Y-55343600D03*
X136743600Y-58143600D03*
%TD*%
D19*
%TO.C,R51*%
X142458600Y-147831100D03*
X142458600Y-146631100D03*
%TD*%
D14*
%TO.C,C11*%
X130358600Y-79286100D03*
X129158600Y-79286100D03*
%TD*%
D43*
%TO.C,L1*%
X136373600Y-53568600D03*
X134473600Y-53568600D03*
%TD*%
D44*
%TO.C,IC4*%
X133128600Y-81933600D03*
X133128600Y-82433600D03*
X133128600Y-82933600D03*
X133128600Y-83433600D03*
X133128600Y-83933600D03*
X133128600Y-84433600D03*
X133128600Y-84933600D03*
X133128600Y-85433600D03*
X133128600Y-85933600D03*
X133128600Y-86433600D03*
X133128600Y-86933600D03*
X133128600Y-87433600D03*
D45*
X134628600Y-88933600D03*
X135128600Y-88933600D03*
X135628600Y-88933600D03*
X136128600Y-88933600D03*
X136628600Y-88933600D03*
X137128600Y-88933600D03*
X137628600Y-88933600D03*
X138128600Y-88933600D03*
X138628600Y-88933600D03*
X139128600Y-88933600D03*
X139628600Y-88933600D03*
X140128600Y-88933600D03*
D44*
X141628600Y-87433600D03*
X141628600Y-86933600D03*
X141628600Y-86433600D03*
X141628600Y-85933600D03*
X141628600Y-85433600D03*
X141628600Y-84933600D03*
X141628600Y-84433600D03*
X141628600Y-83933600D03*
X141628600Y-83433600D03*
X141628600Y-82933600D03*
X141628600Y-82433600D03*
X141628600Y-81933600D03*
D45*
X140128600Y-80433600D03*
X139628600Y-80433600D03*
X139128600Y-80433600D03*
X138628600Y-80433600D03*
X138128600Y-80433600D03*
X137628600Y-80433600D03*
X137128600Y-80433600D03*
X136628600Y-80433600D03*
X136128600Y-80433600D03*
X135628600Y-80433600D03*
X135128600Y-80433600D03*
X134628600Y-80433600D03*
%TD*%
D14*
%TO.C,C24*%
X141712600Y-91509700D03*
X140512600Y-91509700D03*
%TD*%
D25*
%TO.C,J10*%
X171351100Y-151993600D03*
D26*
X171351100Y-146278600D03*
X171351100Y-148818600D03*
X171351100Y-156438600D03*
%TD*%
D46*
%TO.C,Q1*%
X126463600Y-86243600D03*
X126463600Y-81843600D03*
X124063600Y-81843600D03*
X124063600Y-86243600D03*
%TD*%
D47*
%TO.C,L5*%
X172038600Y-77539900D03*
X173638600Y-77539900D03*
%TD*%
D19*
%TO.C,C39*%
X133251100Y-111318600D03*
X133251100Y-110118600D03*
%TD*%
D18*
%TO.C,C7*%
X152800000Y-67300000D03*
X156000000Y-67300000D03*
%TD*%
D14*
%TO.C,C12*%
X166553600Y-79286100D03*
X165353600Y-79286100D03*
%TD*%
D19*
%TO.C,R33*%
X135791100Y-115128600D03*
X135791100Y-113928600D03*
%TD*%
D48*
%TO.C,IC7*%
X147043300Y-110673600D03*
X147043300Y-111323600D03*
X147043300Y-111973600D03*
X147043300Y-112623600D03*
X147043300Y-113273600D03*
X147043300Y-113923600D03*
X147043300Y-114573600D03*
X152478900Y-114573600D03*
X152478900Y-113923600D03*
X152478900Y-113273600D03*
X152478900Y-112623600D03*
X152478900Y-111973600D03*
X152478900Y-111323600D03*
X152478900Y-110673600D03*
%TD*%
D17*
%TO.C,LED7*%
X148491100Y-98018600D03*
X151031100Y-98018600D03*
X145951100Y-98018600D03*
%TD*%
D25*
%TO.C,J6*%
X125631100Y-151993600D03*
D26*
X125631100Y-146278600D03*
X125631100Y-148818600D03*
X125631100Y-156438600D03*
%TD*%
D13*
%TO.C,C27*%
X153571100Y-92973600D03*
X153571100Y-94173600D03*
%TD*%
%TO.C,R49*%
X144681100Y-145361100D03*
X144681100Y-146561100D03*
%TD*%
D19*
%TO.C,C43*%
X172938600Y-112906100D03*
X172938600Y-111706100D03*
%TD*%
D18*
%TO.C,C4*%
X162448600Y-61823600D03*
X165648600Y-61823600D03*
%TD*%
D13*
%TO.C,R28*%
X174208600Y-111706100D03*
X174208600Y-112906100D03*
%TD*%
D20*
%TO.C,R8*%
X170358600Y-104383600D03*
X167858600Y-104383600D03*
X165358600Y-104383600D03*
D21*
X172558600Y-97383600D03*
X163158600Y-97383600D03*
%TD*%
D19*
%TO.C,R9*%
X124202400Y-103698600D03*
X124202400Y-102498600D03*
%TD*%
D14*
%TO.C,R38*%
X143058600Y-115163600D03*
X141858600Y-115163600D03*
%TD*%
D18*
%TO.C,C5*%
X168798600Y-61823600D03*
X171998600Y-61823600D03*
%TD*%
D20*
%TO.C,R43*%
X150991100Y-128213600D03*
X148491100Y-128213600D03*
X145991100Y-128213600D03*
D40*
X152891100Y-121513600D03*
X144091100Y-121513600D03*
%TD*%
D17*
%TO.C,LED6*%
X148491100Y-92621100D03*
X151031100Y-92621100D03*
X145951100Y-92621100D03*
%TD*%
D25*
%TO.C,J3*%
X148491100Y-137388600D03*
D26*
X148491100Y-131673600D03*
X148491100Y-134213600D03*
X148491100Y-141833600D03*
%TD*%
D39*
%TO.C,C59*%
X131346100Y-156494800D03*
X131346100Y-154794800D03*
%TD*%
D16*
%TO.C,C17*%
X154150000Y-85550000D03*
X155350000Y-85550000D03*
%TD*%
D19*
%TO.C,C35*%
X159762400Y-107191200D03*
X159762400Y-105991200D03*
%TD*%
D13*
%TO.C,R45*%
X154523600Y-144091100D03*
X154523600Y-145291100D03*
%TD*%
D14*
%TO.C,C44*%
X145598600Y-112623600D03*
X144398600Y-112623600D03*
%TD*%
%TO.C,R16*%
X170046100Y-110401100D03*
X168846100Y-110401100D03*
%TD*%
D13*
%TO.C,C46*%
X124996100Y-113928600D03*
X124996100Y-115128600D03*
%TD*%
D20*
%TO.C,R42*%
X131623600Y-128213600D03*
X129123600Y-128213600D03*
X126623600Y-128213600D03*
D40*
X133523600Y-121513600D03*
X124723600Y-121513600D03*
%TD*%
D13*
%TO.C,R39*%
X156428600Y-116151100D03*
X156428600Y-117351100D03*
%TD*%
%TO.C,C25*%
X135791100Y-92497300D03*
X135791100Y-93697300D03*
%TD*%
D49*
%TO.C,C54*%
X165794800Y-142729800D03*
X165794800Y-144429800D03*
%TD*%
D50*
%TO.C,C30*%
X159500000Y-96200000D03*
X159500000Y-99400000D03*
%TD*%
D14*
%TO.C,R50*%
X133057300Y-146437300D03*
X131857300Y-146437300D03*
%TD*%
%TO.C,R4*%
X135597400Y-75158600D03*
X134397400Y-75158600D03*
%TD*%
D25*
%TO.C,J1*%
X125631100Y-137388600D03*
D26*
X125631100Y-131673600D03*
X125631100Y-134213600D03*
X125631100Y-141833600D03*
%TD*%
D13*
%TO.C,R20*%
X155158600Y-110118600D03*
X155158600Y-111318600D03*
%TD*%
%TO.C,C48*%
X145633600Y-113928600D03*
X145633600Y-115128600D03*
%TD*%
D42*
%TO.C,C1*%
X134521100Y-55343600D03*
X134521100Y-58143600D03*
%TD*%
D13*
%TO.C,R17*%
X123726100Y-110118600D03*
X123726100Y-111318600D03*
%TD*%
D17*
%TO.C,LED5*%
X148491100Y-87223600D03*
X151031100Y-87223600D03*
X145951100Y-87223600D03*
%TD*%
D25*
%TO.C,J7*%
X137061100Y-151993600D03*
D26*
X137061100Y-146278600D03*
X137061100Y-148818600D03*
X137061100Y-156438600D03*
%TD*%
D51*
%TO.C,D1*%
X158700000Y-55478600D03*
X158700000Y-59278600D03*
%TD*%
D15*
%TO.C,JP2*%
X176113600Y-53568600D03*
%TD*%
D19*
%TO.C,R31*%
X123726100Y-115128600D03*
X123726100Y-113928600D03*
%TD*%
D52*
%TO.C,IC3*%
X170239600Y-82219800D03*
%TD*%
D13*
%TO.C,R26*%
X135791100Y-111388600D03*
X135791100Y-112588600D03*
%TD*%
D22*
%TO.C,SW2*%
X149684900Y-55753000D03*
X156187300Y-55753000D03*
X149684900Y-60274200D03*
X156187300Y-60274200D03*
%TD*%
D25*
%TO.C,J9*%
X159921100Y-151993600D03*
D26*
X159921100Y-146278600D03*
X159921100Y-148818600D03*
X159921100Y-156438600D03*
%TD*%
D39*
%TO.C,C60*%
X154047400Y-156494800D03*
X154047400Y-154794800D03*
%TD*%
D19*
%TO.C,R30*%
X122456100Y-115128600D03*
X122456100Y-113928600D03*
%TD*%
%TO.C,C42*%
X164048600Y-111636100D03*
X164048600Y-110436100D03*
%TD*%
%TO.C,C20*%
X130393600Y-86394800D03*
X130393600Y-85194800D03*
%TD*%
%TO.C,R34*%
X144363600Y-115128600D03*
X144363600Y-113928600D03*
%TD*%
D48*
%TO.C,IC6*%
X126405800Y-110673600D03*
X126405800Y-111323600D03*
X126405800Y-111973600D03*
X126405800Y-112623600D03*
X126405800Y-113273600D03*
X126405800Y-113923600D03*
X126405800Y-114573600D03*
X131841400Y-114573600D03*
X131841400Y-113923600D03*
X131841400Y-113273600D03*
X131841400Y-112623600D03*
X131841400Y-111973600D03*
X131841400Y-111323600D03*
X131841400Y-110673600D03*
%TD*%
D53*
%TO.C,JP6*%
X121503600Y-73253600D03*
D22*
X121503600Y-70713600D03*
X121503600Y-68173600D03*
X121503600Y-65633600D03*
%TD*%
D54*
%TO.C,JP8*%
X172303600Y-57378600D03*
X172303600Y-54838600D03*
X169763600Y-57378600D03*
X169763600Y-54838600D03*
X167223600Y-57378600D03*
X167223600Y-54838600D03*
X164683600Y-57378600D03*
X164683600Y-54838600D03*
X162143600Y-57378600D03*
X162143600Y-54838600D03*
%TD*%
D22*
%TO.C,JP5*%
X121503600Y-103733600D03*
X121503600Y-106273600D03*
%TD*%
M02*
