%TF.GenerationSoftware,KiCad,Pcbnew,(6.0.11-0)*%
%TF.CreationDate,2023-04-25T16:51:11+02:00*%
%TF.ProjectId,plaits,706c6169-7473-42e6-9b69-6361645f7063,rev?*%
%TF.SameCoordinates,Original*%
%TF.FileFunction,Legend,Top*%
%TF.FilePolarity,Positive*%
%FSLAX46Y46*%
G04 Gerber Fmt 4.6, Leading zero omitted, Abs format (unit mm)*
G04 Created by KiCad (PCBNEW (6.0.11-0)) date 2023-04-25 16:51:11*
%MOMM*%
%LPD*%
G01*
G04 APERTURE LIST*
G04 Aperture macros list*
%AMRoundRect*
0 Rectangle with rounded corners*
0 $1 Rounding radius*
0 $2 $3 $4 $5 $6 $7 $8 $9 X,Y pos of 4 corners*
0 Add a 4 corners polygon primitive as box body*
4,1,4,$2,$3,$4,$5,$6,$7,$8,$9,$2,$3,0*
0 Add four circle primitives for the rounded corners*
1,1,$1+$1,$2,$3*
1,1,$1+$1,$4,$5*
1,1,$1+$1,$6,$7*
1,1,$1+$1,$8,$9*
0 Add four rect primitives between the rounded corners*
20,1,$1+$1,$2,$3,$4,$5,0*
20,1,$1+$1,$4,$5,$6,$7,0*
20,1,$1+$1,$6,$7,$8,$9,0*
20,1,$1+$1,$8,$9,$2,$3,0*%
%AMFreePoly0*
4,1,25,0.575031,1.328373,0.579933,1.323882,1.323882,0.579933,1.345910,0.532692,1.346200,0.526051,1.346200,-0.526051,1.328373,-0.575031,1.323882,-0.579933,0.579933,-1.323882,0.532692,-1.345910,0.526051,-1.346200,-0.526051,-1.346200,-0.575031,-1.328373,-0.579933,-1.323882,-1.323882,-0.579933,-1.345910,-0.532692,-1.346200,-0.526051,-1.346200,0.526051,-1.328373,0.575031,-1.323882,0.579933,
-0.579933,1.323882,-0.532692,1.345910,-0.526051,1.346200,0.526051,1.346200,0.575031,1.328373,0.575031,1.328373,$1*%
%AMFreePoly1*
4,1,25,0.417216,0.947373,0.422118,0.942882,0.942882,0.422118,0.964910,0.374877,0.965200,0.368236,0.965200,-0.368236,0.947373,-0.417216,0.942882,-0.422118,0.422118,-0.942882,0.374877,-0.964910,0.368236,-0.965200,-0.368236,-0.965200,-0.417216,-0.947373,-0.422118,-0.942882,-0.942882,-0.422118,-0.964910,-0.374877,-0.965200,-0.368236,-0.965200,0.368236,-0.947373,0.417216,-0.942882,0.422118,
-0.422118,0.942882,-0.374877,0.964910,-0.368236,0.965200,0.368236,0.965200,0.417216,0.947373,0.417216,0.947373,$1*%
%AMFreePoly2*
4,1,25,0.448779,1.023573,0.453681,1.019082,1.019082,0.453681,1.041110,0.406440,1.041400,0.399799,1.041400,-0.399799,1.023573,-0.448779,1.019082,-0.453681,0.453681,-1.019082,0.406440,-1.041110,0.399799,-1.041400,-0.399799,-1.041400,-0.448779,-1.023573,-0.453681,-1.019082,-1.019082,-0.453681,-1.041110,-0.406440,-1.041400,-0.399799,-1.041400,0.399799,-1.023573,0.448779,-1.019082,0.453681,
-0.453681,1.019082,-0.406440,1.041110,-0.399799,1.041400,0.399799,1.041400,0.448779,1.023573,0.448779,1.023573,$1*%
%AMFreePoly3*
4,1,25,0.706544,1.645873,0.711446,1.641382,1.641382,0.711446,1.663410,0.664205,1.663700,0.657564,1.663700,-0.657564,1.645873,-0.706544,1.641382,-0.711446,0.711446,-1.641382,0.664205,-1.663410,0.657564,-1.663700,-0.657564,-1.663700,-0.706544,-1.645873,-0.711446,-1.641382,-1.641382,-0.711446,-1.663410,-0.664205,-1.663700,-0.657564,-1.663700,0.657564,-1.645873,0.706544,-1.641382,0.711446,
-0.711446,1.641382,-0.664205,1.663410,-0.657564,1.663700,0.657564,1.663700,0.706544,1.645873,0.706544,1.645873,$1*%
%AMFreePoly4*
4,1,25,0.438258,0.998173,0.443160,0.993682,0.993682,0.443160,1.015710,0.395919,1.016000,0.389278,1.016000,-0.389278,0.998173,-0.438258,0.993682,-0.443160,0.443160,-0.993682,0.395919,-1.015710,0.389278,-1.016000,-0.389278,-1.016000,-0.438258,-0.998173,-0.443160,-0.993682,-0.993682,-0.443160,-1.015710,-0.395919,-1.016000,-0.389278,-1.016000,0.389278,-0.998173,0.438258,-0.993682,0.443160,
-0.443160,0.993682,-0.395919,1.015710,-0.389278,1.016000,0.389278,1.016000,0.438258,0.998173,0.438258,0.998173,$1*%
G04 Aperture macros list end*
%ADD10C,0.093472*%
%ADD11C,0.059822*%
%ADD12C,0.074778*%
%ADD13C,0.114300*%
%ADD14C,0.044867*%
%ADD15C,0.159385*%
%ADD16C,0.103632*%
%ADD17C,0.175260*%
%ADD18C,0.137160*%
%ADD19C,0.120000*%
%ADD20C,0.127000*%
%ADD21C,0.101600*%
%ADD22C,0.203200*%
%ADD23C,0.152400*%
%ADD24C,0.070000*%
%ADD25C,0.325000*%
%ADD26C,0.050800*%
%ADD27C,0.254000*%
%ADD28C,0.182000*%
%ADD29C,0.121920*%
%ADD30C,0.251460*%
%ADD31RoundRect,0.076200X-0.700000X0.700000X-0.700000X-0.700000X0.700000X-0.700000X0.700000X0.700000X0*%
%ADD32RoundRect,0.076200X0.700000X-0.700000X0.700000X0.700000X-0.700000X0.700000X-0.700000X-0.700000X0*%
%ADD33RoundRect,0.076200X-0.800000X-0.900000X0.800000X-0.900000X0.800000X0.900000X-0.800000X0.900000X0*%
%ADD34RoundRect,0.076200X-0.375000X0.325000X-0.375000X-0.325000X0.375000X-0.325000X0.375000X0.325000X0*%
%ADD35RoundRect,0.076200X0.325000X0.375000X-0.325000X0.375000X-0.325000X-0.375000X0.325000X-0.375000X0*%
%ADD36RoundRect,0.576200X0.000000X0.000000X0.000000X0.000000X0.000000X0.000000X0.000000X0.000000X0*%
%ADD37RoundRect,0.076200X-0.325000X-0.375000X0.325000X-0.375000X0.325000X0.375000X-0.325000X0.375000X0*%
%ADD38C,1.258800*%
%ADD39RoundRect,0.076200X1.000000X0.750000X-1.000000X0.750000X-1.000000X-0.750000X1.000000X-0.750000X0*%
%ADD40RoundRect,0.076200X0.375000X-0.325000X0.375000X0.325000X-0.375000X0.325000X-0.375000X-0.325000X0*%
%ADD41RoundRect,0.076200X0.939800X-0.939800X0.939800X0.939800X-0.939800X0.939800X-0.939800X-0.939800X0*%
%ADD42FreePoly0,90.000000*%
%ADD43C,2.032000*%
%ADD44RoundRect,0.076200X0.700000X-0.500000X0.700000X0.500000X-0.700000X0.500000X-0.700000X-0.500000X0*%
%ADD45RoundRect,0.076200X0.550000X0.500000X-0.550000X0.500000X-0.550000X-0.500000X0.550000X-0.500000X0*%
%ADD46C,2.200000*%
%ADD47FreePoly1,180.000000*%
%ADD48RoundRect,0.076200X0.650000X0.750000X-0.650000X0.750000X-0.650000X-0.750000X0.650000X-0.750000X0*%
%ADD49RoundRect,0.076200X0.350000X-0.425000X0.350000X0.425000X-0.350000X0.425000X-0.350000X-0.425000X0*%
%ADD50RoundRect,0.076200X-0.550000X-0.500000X0.550000X-0.500000X0.550000X0.500000X-0.550000X0.500000X0*%
%ADD51RoundRect,0.076200X-0.500000X-0.550000X0.500000X-0.550000X0.500000X0.550000X-0.500000X0.550000X0*%
%ADD52RoundRect,0.076200X-0.350000X0.425000X-0.350000X-0.425000X0.350000X-0.425000X0.350000X0.425000X0*%
%ADD53RoundRect,0.076200X-0.650000X-0.750000X0.650000X-0.750000X0.650000X0.750000X-0.650000X0.750000X0*%
%ADD54C,3.000000*%
%ADD55RoundRect,0.076200X-0.600000X0.175000X-0.600000X-0.175000X0.600000X-0.175000X0.600000X0.175000X0*%
%ADD56FreePoly2,0.000000*%
%ADD57RoundRect,0.076200X-0.165000X-0.500000X0.165000X-0.500000X0.165000X0.500000X-0.165000X0.500000X0*%
%ADD58RoundRect,0.076200X-0.750000X1.000000X-0.750000X-1.000000X0.750000X-1.000000X0.750000X1.000000X0*%
%ADD59RoundRect,0.076200X0.177800X-0.711200X0.177800X0.711200X-0.177800X0.711200X-0.177800X-0.711200X0*%
%ADD60RoundRect,0.076200X0.500000X-0.550000X0.500000X0.550000X-0.500000X0.550000X-0.500000X-0.550000X0*%
%ADD61FreePoly3,90.000000*%
%ADD62RoundRect,0.076200X-0.350000X-0.500000X0.350000X-0.500000X0.350000X0.500000X-0.350000X0.500000X0*%
%ADD63RoundRect,0.076200X-0.900000X0.800000X-0.900000X-0.800000X0.900000X-0.800000X0.900000X0.800000X0*%
%ADD64RoundRect,0.076200X0.450000X0.625000X-0.450000X0.625000X-0.450000X-0.625000X0.450000X-0.625000X0*%
%ADD65RoundRect,0.076200X-0.500000X0.127000X-0.500000X-0.127000X0.500000X-0.127000X0.500000X0.127000X0*%
%ADD66RoundRect,0.076200X-0.127000X0.500000X-0.127000X-0.500000X0.127000X-0.500000X0.127000X0.500000X0*%
%ADD67RoundRect,0.076200X0.700000X-0.950000X0.700000X0.950000X-0.700000X0.950000X-0.700000X-0.950000X0*%
%ADD68RoundRect,0.076200X-0.425000X-0.350000X0.425000X-0.350000X0.425000X0.350000X-0.425000X0.350000X0*%
%ADD69RoundRect,0.076200X-0.495300X0.152400X-0.495300X-0.152400X0.495300X-0.152400X0.495300X0.152400X0*%
%ADD70RoundRect,0.076200X1.100000X0.700000X-1.100000X0.700000X-1.100000X-0.700000X1.100000X-0.700000X0*%
%ADD71RoundRect,0.076200X-0.500000X0.550000X-0.500000X-0.550000X0.500000X-0.550000X0.500000X0.550000X0*%
%ADD72RoundRect,0.076200X0.750000X-1.000000X0.750000X1.000000X-0.750000X1.000000X-0.750000X-1.000000X0*%
%ADD73RoundRect,0.076200X1.000000X-1.000000X1.000000X1.000000X-1.000000X1.000000X-1.000000X-1.000000X0*%
%ADD74RoundRect,0.076200X-0.939800X-0.939800X0.939800X-0.939800X0.939800X0.939800X-0.939800X0.939800X0*%
%ADD75FreePoly4,180.000000*%
G04 APERTURE END LIST*
D10*
%TO.C,D2*%
X176486510Y-58366290D02*
X175767182Y-58366290D01*
X175767182Y-58195021D01*
X175801436Y-58092260D01*
X175869943Y-58023753D01*
X175938450Y-57989499D01*
X176075465Y-57955245D01*
X176178226Y-57955245D01*
X176315241Y-57989499D01*
X176383749Y-58023753D01*
X176452256Y-58092260D01*
X176486510Y-58195021D01*
X176486510Y-58366290D01*
X175835689Y-57681216D02*
X175801436Y-57646962D01*
X175767182Y-57578455D01*
X175767182Y-57407186D01*
X175801436Y-57338679D01*
X175835689Y-57304425D01*
X175904197Y-57270171D01*
X175972704Y-57270171D01*
X176075465Y-57304425D01*
X176486510Y-57715469D01*
X176486510Y-57270171D01*
%TO.C,D1*%
X158929010Y-58246674D02*
X158209682Y-58246674D01*
X158209682Y-58075406D01*
X158243936Y-57972644D01*
X158312443Y-57904137D01*
X158380950Y-57869883D01*
X158517965Y-57835630D01*
X158620726Y-57835630D01*
X158757741Y-57869883D01*
X158826249Y-57904137D01*
X158894756Y-57972644D01*
X158929010Y-58075406D01*
X158929010Y-58246674D01*
X158929010Y-57150555D02*
X158929010Y-57561600D01*
X158929010Y-57356078D02*
X158209682Y-57356078D01*
X158312443Y-57424585D01*
X158380950Y-57493092D01*
X158415204Y-57561600D01*
%TO.C,C13*%
X174687174Y-79787931D02*
X174662597Y-79812508D01*
X174588864Y-79837086D01*
X174539709Y-79837086D01*
X174465976Y-79812508D01*
X174416821Y-79763353D01*
X174392244Y-79714198D01*
X174367666Y-79615888D01*
X174367666Y-79542156D01*
X174392244Y-79443846D01*
X174416821Y-79394691D01*
X174465976Y-79345536D01*
X174539709Y-79320958D01*
X174588864Y-79320958D01*
X174662597Y-79345536D01*
X174687174Y-79370113D01*
X175178725Y-79837086D02*
X174883794Y-79837086D01*
X175031260Y-79837086D02*
X175031260Y-79320958D01*
X174982104Y-79394691D01*
X174932949Y-79443846D01*
X174883794Y-79468423D01*
X175350767Y-79320958D02*
X175670275Y-79320958D01*
X175498232Y-79517578D01*
X175571965Y-79517578D01*
X175621120Y-79542156D01*
X175645698Y-79566733D01*
X175670275Y-79615888D01*
X175670275Y-79738776D01*
X175645698Y-79787931D01*
X175621120Y-79812508D01*
X175571965Y-79837086D01*
X175424500Y-79837086D01*
X175375345Y-79812508D01*
X175350767Y-79787931D01*
%TO.C,R37*%
X162694586Y-117099467D02*
X162448811Y-117271510D01*
X162694586Y-117394398D02*
X162178458Y-117394398D01*
X162178458Y-117197777D01*
X162203036Y-117148622D01*
X162227613Y-117124045D01*
X162276768Y-117099467D01*
X162350501Y-117099467D01*
X162399656Y-117124045D01*
X162424233Y-117148622D01*
X162448811Y-117197777D01*
X162448811Y-117394398D01*
X162178458Y-116927425D02*
X162178458Y-116607917D01*
X162375078Y-116779960D01*
X162375078Y-116706227D01*
X162399656Y-116657072D01*
X162424233Y-116632494D01*
X162473388Y-116607917D01*
X162596276Y-116607917D01*
X162645431Y-116632494D01*
X162670008Y-116657072D01*
X162694586Y-116706227D01*
X162694586Y-116853692D01*
X162670008Y-116902847D01*
X162645431Y-116927425D01*
X162178458Y-116435874D02*
X162178458Y-116091789D01*
X162694586Y-116312987D01*
%TO.C,R5*%
X127996782Y-83170686D02*
X127824739Y-82924911D01*
X127701852Y-83170686D02*
X127701852Y-82654558D01*
X127898472Y-82654558D01*
X127947627Y-82679136D01*
X127972205Y-82703713D01*
X127996782Y-82752868D01*
X127996782Y-82826601D01*
X127972205Y-82875756D01*
X127947627Y-82900333D01*
X127898472Y-82924911D01*
X127701852Y-82924911D01*
X128463755Y-82654558D02*
X128217980Y-82654558D01*
X128193402Y-82900333D01*
X128217980Y-82875756D01*
X128267135Y-82851178D01*
X128390023Y-82851178D01*
X128439178Y-82875756D01*
X128463755Y-82900333D01*
X128488333Y-82949488D01*
X128488333Y-83072376D01*
X128463755Y-83121531D01*
X128439178Y-83146108D01*
X128390023Y-83170686D01*
X128267135Y-83170686D01*
X128217980Y-83146108D01*
X128193402Y-83121531D01*
%TO.C,R14*%
X136428474Y-109682086D02*
X136256432Y-109436311D01*
X136133544Y-109682086D02*
X136133544Y-109165958D01*
X136330164Y-109165958D01*
X136379319Y-109190536D01*
X136403897Y-109215113D01*
X136428474Y-109264268D01*
X136428474Y-109338001D01*
X136403897Y-109387156D01*
X136379319Y-109411733D01*
X136330164Y-109436311D01*
X136133544Y-109436311D01*
X136920025Y-109682086D02*
X136625094Y-109682086D01*
X136772560Y-109682086D02*
X136772560Y-109165958D01*
X136723404Y-109239691D01*
X136674249Y-109288846D01*
X136625094Y-109313423D01*
X137362420Y-109338001D02*
X137362420Y-109682086D01*
X137239532Y-109141380D02*
X137116645Y-109510043D01*
X137436153Y-109510043D01*
%TO.C,C51*%
X143595531Y-129958267D02*
X143620108Y-129982845D01*
X143644686Y-130056577D01*
X143644686Y-130105732D01*
X143620108Y-130179465D01*
X143570953Y-130228620D01*
X143521798Y-130253198D01*
X143423488Y-130277775D01*
X143349756Y-130277775D01*
X143251446Y-130253198D01*
X143202291Y-130228620D01*
X143153136Y-130179465D01*
X143128558Y-130105732D01*
X143128558Y-130056577D01*
X143153136Y-129982845D01*
X143177713Y-129958267D01*
X143128558Y-129491294D02*
X143128558Y-129737070D01*
X143374333Y-129761647D01*
X143349756Y-129737070D01*
X143325178Y-129687915D01*
X143325178Y-129565027D01*
X143349756Y-129515872D01*
X143374333Y-129491294D01*
X143423488Y-129466717D01*
X143546376Y-129466717D01*
X143595531Y-129491294D01*
X143620108Y-129515872D01*
X143644686Y-129565027D01*
X143644686Y-129687915D01*
X143620108Y-129737070D01*
X143595531Y-129761647D01*
X143644686Y-128975166D02*
X143644686Y-129270097D01*
X143644686Y-129122632D02*
X143128558Y-129122632D01*
X143202291Y-129171787D01*
X143251446Y-129220942D01*
X143276023Y-129270097D01*
D11*
%TO.C,LED8*%
X147480325Y-106614232D02*
X147121764Y-106614232D01*
X147121764Y-105861254D01*
X147731318Y-106219815D02*
X147982311Y-106219815D01*
X148089879Y-106614232D02*
X147731318Y-106614232D01*
X147731318Y-105861254D01*
X148089879Y-105861254D01*
X148412584Y-106614232D02*
X148412584Y-105861254D01*
X148591864Y-105861254D01*
X148699432Y-105897111D01*
X148771145Y-105968823D01*
X148807001Y-106040535D01*
X148842857Y-106183959D01*
X148842857Y-106291528D01*
X148807001Y-106434952D01*
X148771145Y-106506664D01*
X148699432Y-106578376D01*
X148591864Y-106614232D01*
X148412584Y-106614232D01*
X149273130Y-106183959D02*
X149201418Y-106148103D01*
X149165562Y-106112247D01*
X149129706Y-106040535D01*
X149129706Y-106004679D01*
X149165562Y-105932967D01*
X149201418Y-105897111D01*
X149273130Y-105861254D01*
X149416554Y-105861254D01*
X149488267Y-105897111D01*
X149524123Y-105932967D01*
X149559979Y-106004679D01*
X149559979Y-106040535D01*
X149524123Y-106112247D01*
X149488267Y-106148103D01*
X149416554Y-106183959D01*
X149273130Y-106183959D01*
X149201418Y-106219815D01*
X149165562Y-106255671D01*
X149129706Y-106327384D01*
X149129706Y-106470808D01*
X149165562Y-106542520D01*
X149201418Y-106578376D01*
X149273130Y-106614232D01*
X149416554Y-106614232D01*
X149488267Y-106578376D01*
X149524123Y-106542520D01*
X149559979Y-106470808D01*
X149559979Y-106327384D01*
X149524123Y-106255671D01*
X149488267Y-106219815D01*
X149416554Y-106183959D01*
D10*
%TO.C,C26*%
X137721731Y-93604467D02*
X137746308Y-93629045D01*
X137770886Y-93702777D01*
X137770886Y-93751932D01*
X137746308Y-93825665D01*
X137697153Y-93874820D01*
X137647998Y-93899398D01*
X137549688Y-93923975D01*
X137475956Y-93923975D01*
X137377646Y-93899398D01*
X137328491Y-93874820D01*
X137279336Y-93825665D01*
X137254758Y-93751932D01*
X137254758Y-93702777D01*
X137279336Y-93629045D01*
X137303913Y-93604467D01*
X137303913Y-93407847D02*
X137279336Y-93383270D01*
X137254758Y-93334115D01*
X137254758Y-93211227D01*
X137279336Y-93162072D01*
X137303913Y-93137494D01*
X137353068Y-93112917D01*
X137402223Y-93112917D01*
X137475956Y-93137494D01*
X137770886Y-93432425D01*
X137770886Y-93112917D01*
X137254758Y-92670521D02*
X137254758Y-92768832D01*
X137279336Y-92817987D01*
X137303913Y-92842564D01*
X137377646Y-92891719D01*
X137475956Y-92916297D01*
X137672576Y-92916297D01*
X137721731Y-92891719D01*
X137746308Y-92867142D01*
X137770886Y-92817987D01*
X137770886Y-92719676D01*
X137746308Y-92670521D01*
X137721731Y-92645944D01*
X137672576Y-92621366D01*
X137549688Y-92621366D01*
X137500533Y-92645944D01*
X137475956Y-92670521D01*
X137451378Y-92719676D01*
X137451378Y-92817987D01*
X137475956Y-92867142D01*
X137500533Y-92891719D01*
X137549688Y-92916297D01*
D12*
%TO.C,C22*%
X171355614Y-90752007D02*
X171330147Y-90777475D01*
X171253744Y-90802943D01*
X171202808Y-90802943D01*
X171126405Y-90777475D01*
X171075470Y-90726540D01*
X171050002Y-90675604D01*
X171024534Y-90573733D01*
X171024534Y-90497330D01*
X171050002Y-90395459D01*
X171075470Y-90344524D01*
X171126405Y-90293589D01*
X171202808Y-90268121D01*
X171253744Y-90268121D01*
X171330147Y-90293589D01*
X171355614Y-90319056D01*
X171559356Y-90319056D02*
X171584824Y-90293589D01*
X171635759Y-90268121D01*
X171763098Y-90268121D01*
X171814033Y-90293589D01*
X171839501Y-90319056D01*
X171864969Y-90369992D01*
X171864969Y-90420927D01*
X171839501Y-90497330D01*
X171533888Y-90802943D01*
X171864969Y-90802943D01*
X172068710Y-90319056D02*
X172094178Y-90293589D01*
X172145114Y-90268121D01*
X172272452Y-90268121D01*
X172323388Y-90293589D01*
X172348855Y-90319056D01*
X172374323Y-90369992D01*
X172374323Y-90420927D01*
X172348855Y-90497330D01*
X172043243Y-90802943D01*
X172374323Y-90802943D01*
D10*
%TO.C,C8*%
X152126782Y-72326631D02*
X152102205Y-72351208D01*
X152028472Y-72375786D01*
X151979317Y-72375786D01*
X151905584Y-72351208D01*
X151856429Y-72302053D01*
X151831852Y-72252898D01*
X151807274Y-72154588D01*
X151807274Y-72080856D01*
X151831852Y-71982546D01*
X151856429Y-71933391D01*
X151905584Y-71884236D01*
X151979317Y-71859658D01*
X152028472Y-71859658D01*
X152102205Y-71884236D01*
X152126782Y-71908813D01*
X152421712Y-72080856D02*
X152372557Y-72056278D01*
X152347980Y-72031701D01*
X152323402Y-71982546D01*
X152323402Y-71957968D01*
X152347980Y-71908813D01*
X152372557Y-71884236D01*
X152421712Y-71859658D01*
X152520023Y-71859658D01*
X152569178Y-71884236D01*
X152593755Y-71908813D01*
X152618333Y-71957968D01*
X152618333Y-71982546D01*
X152593755Y-72031701D01*
X152569178Y-72056278D01*
X152520023Y-72080856D01*
X152421712Y-72080856D01*
X152372557Y-72105433D01*
X152347980Y-72130011D01*
X152323402Y-72179166D01*
X152323402Y-72277476D01*
X152347980Y-72326631D01*
X152372557Y-72351208D01*
X152421712Y-72375786D01*
X152520023Y-72375786D01*
X152569178Y-72351208D01*
X152593755Y-72326631D01*
X152618333Y-72277476D01*
X152618333Y-72179166D01*
X152593755Y-72130011D01*
X152569178Y-72105433D01*
X152520023Y-72080856D01*
%TO.C,R3*%
X154684574Y-70470786D02*
X154512532Y-70225011D01*
X154389644Y-70470786D02*
X154389644Y-69954658D01*
X154586264Y-69954658D01*
X154635419Y-69979236D01*
X154659997Y-70003813D01*
X154684574Y-70052968D01*
X154684574Y-70126701D01*
X154659997Y-70175856D01*
X154635419Y-70200433D01*
X154586264Y-70225011D01*
X154389644Y-70225011D01*
X154856617Y-69954658D02*
X155176125Y-69954658D01*
X155004082Y-70151278D01*
X155077815Y-70151278D01*
X155126970Y-70175856D01*
X155151547Y-70200433D01*
X155176125Y-70249588D01*
X155176125Y-70372476D01*
X155151547Y-70421631D01*
X155126970Y-70446208D01*
X155077815Y-70470786D01*
X154930349Y-70470786D01*
X154881194Y-70446208D01*
X154856617Y-70421631D01*
%TO.C,R7*%
X126326784Y-94105838D02*
X125934608Y-93545587D01*
X125654482Y-94105838D02*
X125654482Y-92929310D01*
X126102683Y-92929310D01*
X126214733Y-92985336D01*
X126270759Y-93041361D01*
X126326784Y-93153411D01*
X126326784Y-93321486D01*
X126270759Y-93433537D01*
X126214733Y-93489562D01*
X126102683Y-93545587D01*
X125654482Y-93545587D01*
X126718960Y-92929310D02*
X127503312Y-92929310D01*
X126999085Y-94105838D01*
D13*
%TO.C,SW1*%
X143209905Y-61973883D02*
X143375005Y-62028916D01*
X143650171Y-62028916D01*
X143760238Y-61973883D01*
X143815271Y-61918850D01*
X143870305Y-61808783D01*
X143870305Y-61698716D01*
X143815271Y-61588650D01*
X143760238Y-61533616D01*
X143650171Y-61478583D01*
X143430038Y-61423550D01*
X143319971Y-61368516D01*
X143264938Y-61313483D01*
X143209905Y-61203416D01*
X143209905Y-61093350D01*
X143264938Y-60983283D01*
X143319971Y-60928250D01*
X143430038Y-60873216D01*
X143705205Y-60873216D01*
X143870305Y-60928250D01*
X144255538Y-60873216D02*
X144530705Y-62028916D01*
X144750838Y-61203416D01*
X144970971Y-62028916D01*
X145246138Y-60873216D01*
X146291771Y-62028916D02*
X145631371Y-62028916D01*
X145961571Y-62028916D02*
X145961571Y-60873216D01*
X145851505Y-61038316D01*
X145741438Y-61148383D01*
X145631371Y-61203416D01*
D10*
%TO.C,D3*%
X142782952Y-101744686D02*
X142782952Y-101228558D01*
X142905839Y-101228558D01*
X142979572Y-101253136D01*
X143028727Y-101302291D01*
X143053305Y-101351446D01*
X143077882Y-101449756D01*
X143077882Y-101523488D01*
X143053305Y-101621798D01*
X143028727Y-101670953D01*
X142979572Y-101720108D01*
X142905839Y-101744686D01*
X142782952Y-101744686D01*
X143249925Y-101228558D02*
X143569433Y-101228558D01*
X143397390Y-101425178D01*
X143471123Y-101425178D01*
X143520278Y-101449756D01*
X143544855Y-101474333D01*
X143569433Y-101523488D01*
X143569433Y-101646376D01*
X143544855Y-101695531D01*
X143520278Y-101720108D01*
X143471123Y-101744686D01*
X143323657Y-101744686D01*
X143274502Y-101720108D01*
X143249925Y-101695531D01*
D11*
%TO.C,LED3*%
X147480325Y-79626732D02*
X147121764Y-79626732D01*
X147121764Y-78873754D01*
X147731318Y-79232315D02*
X147982311Y-79232315D01*
X148089879Y-79626732D02*
X147731318Y-79626732D01*
X147731318Y-78873754D01*
X148089879Y-78873754D01*
X148412584Y-79626732D02*
X148412584Y-78873754D01*
X148591864Y-78873754D01*
X148699432Y-78909611D01*
X148771145Y-78981323D01*
X148807001Y-79053035D01*
X148842857Y-79196459D01*
X148842857Y-79304028D01*
X148807001Y-79447452D01*
X148771145Y-79519164D01*
X148699432Y-79590876D01*
X148591864Y-79626732D01*
X148412584Y-79626732D01*
X149093850Y-78873754D02*
X149559979Y-78873754D01*
X149308986Y-79160603D01*
X149416554Y-79160603D01*
X149488267Y-79196459D01*
X149524123Y-79232315D01*
X149559979Y-79304028D01*
X149559979Y-79483308D01*
X149524123Y-79555020D01*
X149488267Y-79590876D01*
X149416554Y-79626732D01*
X149201418Y-79626732D01*
X149129706Y-79590876D01*
X149093850Y-79555020D01*
D10*
%TO.C,C6*%
X138039331Y-62791617D02*
X138063908Y-62816194D01*
X138088486Y-62889927D01*
X138088486Y-62939082D01*
X138063908Y-63012815D01*
X138014753Y-63061970D01*
X137965598Y-63086547D01*
X137867288Y-63111125D01*
X137793556Y-63111125D01*
X137695246Y-63086547D01*
X137646091Y-63061970D01*
X137596936Y-63012815D01*
X137572358Y-62939082D01*
X137572358Y-62889927D01*
X137596936Y-62816194D01*
X137621513Y-62791617D01*
X137572358Y-62349221D02*
X137572358Y-62447532D01*
X137596936Y-62496687D01*
X137621513Y-62521264D01*
X137695246Y-62570419D01*
X137793556Y-62594997D01*
X137990176Y-62594997D01*
X138039331Y-62570419D01*
X138063908Y-62545842D01*
X138088486Y-62496687D01*
X138088486Y-62398376D01*
X138063908Y-62349221D01*
X138039331Y-62324644D01*
X137990176Y-62300066D01*
X137867288Y-62300066D01*
X137818133Y-62324644D01*
X137793556Y-62349221D01*
X137768978Y-62398376D01*
X137768978Y-62496687D01*
X137793556Y-62545842D01*
X137818133Y-62570419D01*
X137867288Y-62594997D01*
%TO.C,R32*%
X134437186Y-117099667D02*
X134191411Y-117271710D01*
X134437186Y-117394598D02*
X133921058Y-117394598D01*
X133921058Y-117197977D01*
X133945636Y-117148822D01*
X133970213Y-117124245D01*
X134019368Y-117099667D01*
X134093101Y-117099667D01*
X134142256Y-117124245D01*
X134166833Y-117148822D01*
X134191411Y-117197977D01*
X134191411Y-117394598D01*
X133921058Y-116927625D02*
X133921058Y-116608117D01*
X134117678Y-116780160D01*
X134117678Y-116706427D01*
X134142256Y-116657272D01*
X134166833Y-116632694D01*
X134215988Y-116608117D01*
X134338876Y-116608117D01*
X134388031Y-116632694D01*
X134412608Y-116657272D01*
X134437186Y-116706427D01*
X134437186Y-116853892D01*
X134412608Y-116903047D01*
X134388031Y-116927625D01*
X133970213Y-116411497D02*
X133945636Y-116386919D01*
X133921058Y-116337764D01*
X133921058Y-116214876D01*
X133945636Y-116165721D01*
X133970213Y-116141144D01*
X134019368Y-116116566D01*
X134068523Y-116116566D01*
X134142256Y-116141144D01*
X134437186Y-116436074D01*
X134437186Y-116116566D01*
%TO.C,C55*%
X126903474Y-144875431D02*
X126878897Y-144900008D01*
X126805164Y-144924586D01*
X126756009Y-144924586D01*
X126682276Y-144900008D01*
X126633121Y-144850853D01*
X126608544Y-144801698D01*
X126583966Y-144703388D01*
X126583966Y-144629656D01*
X126608544Y-144531346D01*
X126633121Y-144482191D01*
X126682276Y-144433036D01*
X126756009Y-144408458D01*
X126805164Y-144408458D01*
X126878897Y-144433036D01*
X126903474Y-144457613D01*
X127370447Y-144408458D02*
X127124672Y-144408458D01*
X127100094Y-144654233D01*
X127124672Y-144629656D01*
X127173827Y-144605078D01*
X127296715Y-144605078D01*
X127345870Y-144629656D01*
X127370447Y-144654233D01*
X127395025Y-144703388D01*
X127395025Y-144826276D01*
X127370447Y-144875431D01*
X127345870Y-144900008D01*
X127296715Y-144924586D01*
X127173827Y-144924586D01*
X127124672Y-144900008D01*
X127100094Y-144875431D01*
X127861998Y-144408458D02*
X127616222Y-144408458D01*
X127591645Y-144654233D01*
X127616222Y-144629656D01*
X127665377Y-144605078D01*
X127788265Y-144605078D01*
X127837420Y-144629656D01*
X127861998Y-144654233D01*
X127886575Y-144703388D01*
X127886575Y-144826276D01*
X127861998Y-144875431D01*
X127837420Y-144900008D01*
X127788265Y-144924586D01*
X127665377Y-144924586D01*
X127616222Y-144900008D01*
X127591645Y-144875431D01*
%TO.C,R24*%
X120625886Y-112144925D02*
X120380111Y-112316967D01*
X120625886Y-112439855D02*
X120109758Y-112439855D01*
X120109758Y-112243235D01*
X120134336Y-112194080D01*
X120158913Y-112169502D01*
X120208068Y-112144925D01*
X120281801Y-112144925D01*
X120330956Y-112169502D01*
X120355533Y-112194080D01*
X120380111Y-112243235D01*
X120380111Y-112439855D01*
X120158913Y-111948305D02*
X120134336Y-111923727D01*
X120109758Y-111874572D01*
X120109758Y-111751684D01*
X120134336Y-111702529D01*
X120158913Y-111677952D01*
X120208068Y-111653374D01*
X120257223Y-111653374D01*
X120330956Y-111677952D01*
X120625886Y-111972882D01*
X120625886Y-111653374D01*
X120281801Y-111210979D02*
X120625886Y-111210979D01*
X120085180Y-111333867D02*
X120453843Y-111456754D01*
X120453843Y-111137246D01*
%TO.C,J4*%
X154435510Y-134226566D02*
X155275888Y-134226566D01*
X155443963Y-134282591D01*
X155556013Y-134394642D01*
X155612038Y-134562717D01*
X155612038Y-134674767D01*
X154827686Y-133162088D02*
X155612038Y-133162088D01*
X154379485Y-133442214D02*
X155219862Y-133722340D01*
X155219862Y-132994013D01*
%TO.C,C31*%
X152270232Y-98520431D02*
X152245654Y-98545008D01*
X152171922Y-98569586D01*
X152122767Y-98569586D01*
X152049034Y-98545008D01*
X151999879Y-98495853D01*
X151975301Y-98446698D01*
X151950724Y-98348388D01*
X151950724Y-98274656D01*
X151975301Y-98176346D01*
X151999879Y-98127191D01*
X152049034Y-98078036D01*
X152122767Y-98053458D01*
X152171922Y-98053458D01*
X152245654Y-98078036D01*
X152270232Y-98102613D01*
X152442274Y-98053458D02*
X152761782Y-98053458D01*
X152589739Y-98250078D01*
X152663472Y-98250078D01*
X152712627Y-98274656D01*
X152737205Y-98299233D01*
X152761782Y-98348388D01*
X152761782Y-98471276D01*
X152737205Y-98520431D01*
X152712627Y-98545008D01*
X152663472Y-98569586D01*
X152516007Y-98569586D01*
X152466852Y-98545008D01*
X152442274Y-98520431D01*
X153253333Y-98569586D02*
X152958402Y-98569586D01*
X153105867Y-98569586D02*
X153105867Y-98053458D01*
X153056712Y-98127191D01*
X153007557Y-98176346D01*
X152958402Y-98200923D01*
D14*
%TO.C,L3*%
X174781574Y-61549855D02*
X174781574Y-61818776D01*
X174216841Y-61818776D01*
X174216841Y-61415395D02*
X174216841Y-61065798D01*
X174431977Y-61254043D01*
X174431977Y-61173367D01*
X174458869Y-61119582D01*
X174485761Y-61092690D01*
X174539546Y-61065798D01*
X174674006Y-61065798D01*
X174727790Y-61092690D01*
X174754682Y-61119582D01*
X174781574Y-61173367D01*
X174781574Y-61334719D01*
X174754682Y-61388503D01*
X174727790Y-61415395D01*
D10*
%TO.C,R11*%
X157773386Y-104842525D02*
X157527611Y-105014567D01*
X157773386Y-105137455D02*
X157257258Y-105137455D01*
X157257258Y-104940835D01*
X157281836Y-104891680D01*
X157306413Y-104867102D01*
X157355568Y-104842525D01*
X157429301Y-104842525D01*
X157478456Y-104867102D01*
X157503033Y-104891680D01*
X157527611Y-104940835D01*
X157527611Y-105137455D01*
X157773386Y-104350974D02*
X157773386Y-104645905D01*
X157773386Y-104498439D02*
X157257258Y-104498439D01*
X157330991Y-104547595D01*
X157380146Y-104596750D01*
X157404723Y-104645905D01*
X157773386Y-103859424D02*
X157773386Y-104154354D01*
X157773386Y-104006889D02*
X157257258Y-104006889D01*
X157330991Y-104056044D01*
X157380146Y-104105199D01*
X157404723Y-104154354D01*
%TO.C,C23*%
X138859232Y-90106631D02*
X138834654Y-90131208D01*
X138760922Y-90155786D01*
X138711767Y-90155786D01*
X138638034Y-90131208D01*
X138588879Y-90082053D01*
X138564301Y-90032898D01*
X138539724Y-89934588D01*
X138539724Y-89860856D01*
X138564301Y-89762546D01*
X138588879Y-89713391D01*
X138638034Y-89664236D01*
X138711767Y-89639658D01*
X138760922Y-89639658D01*
X138834654Y-89664236D01*
X138859232Y-89688813D01*
X139055852Y-89688813D02*
X139080429Y-89664236D01*
X139129584Y-89639658D01*
X139252472Y-89639658D01*
X139301627Y-89664236D01*
X139326205Y-89688813D01*
X139350782Y-89737968D01*
X139350782Y-89787123D01*
X139326205Y-89860856D01*
X139031274Y-90155786D01*
X139350782Y-90155786D01*
X139522825Y-89639658D02*
X139842333Y-89639658D01*
X139670290Y-89836278D01*
X139744023Y-89836278D01*
X139793178Y-89860856D01*
X139817755Y-89885433D01*
X139842333Y-89934588D01*
X139842333Y-90057476D01*
X139817755Y-90106631D01*
X139793178Y-90131208D01*
X139744023Y-90155786D01*
X139596557Y-90155786D01*
X139547402Y-90131208D01*
X139522825Y-90106631D01*
%TO.C,C36*%
X128014774Y-108680331D02*
X127990197Y-108704908D01*
X127916464Y-108729486D01*
X127867309Y-108729486D01*
X127793576Y-108704908D01*
X127744421Y-108655753D01*
X127719844Y-108606598D01*
X127695266Y-108508288D01*
X127695266Y-108434556D01*
X127719844Y-108336246D01*
X127744421Y-108287091D01*
X127793576Y-108237936D01*
X127867309Y-108213358D01*
X127916464Y-108213358D01*
X127990197Y-108237936D01*
X128014774Y-108262513D01*
X128186817Y-108213358D02*
X128506325Y-108213358D01*
X128334282Y-108409978D01*
X128408015Y-108409978D01*
X128457170Y-108434556D01*
X128481747Y-108459133D01*
X128506325Y-108508288D01*
X128506325Y-108631176D01*
X128481747Y-108680331D01*
X128457170Y-108704908D01*
X128408015Y-108729486D01*
X128260549Y-108729486D01*
X128211394Y-108704908D01*
X128186817Y-108680331D01*
X128948720Y-108213358D02*
X128850410Y-108213358D01*
X128801255Y-108237936D01*
X128776677Y-108262513D01*
X128727522Y-108336246D01*
X128702945Y-108434556D01*
X128702945Y-108631176D01*
X128727522Y-108680331D01*
X128752100Y-108704908D01*
X128801255Y-108729486D01*
X128899565Y-108729486D01*
X128948720Y-108704908D01*
X128973298Y-108680331D01*
X128997875Y-108631176D01*
X128997875Y-108508288D01*
X128973298Y-108459133D01*
X128948720Y-108434556D01*
X128899565Y-108409978D01*
X128801255Y-108409978D01*
X128752100Y-108434556D01*
X128727522Y-108459133D01*
X128702945Y-108508288D01*
%TO.C,R13*%
X157455886Y-109955767D02*
X157210111Y-110127810D01*
X157455886Y-110250698D02*
X156939758Y-110250698D01*
X156939758Y-110054077D01*
X156964336Y-110004922D01*
X156988913Y-109980345D01*
X157038068Y-109955767D01*
X157111801Y-109955767D01*
X157160956Y-109980345D01*
X157185533Y-110004922D01*
X157210111Y-110054077D01*
X157210111Y-110250698D01*
X157455886Y-109464217D02*
X157455886Y-109759147D01*
X157455886Y-109611682D02*
X156939758Y-109611682D01*
X157013491Y-109660837D01*
X157062646Y-109709992D01*
X157087223Y-109759147D01*
X156939758Y-109292174D02*
X156939758Y-108972666D01*
X157136378Y-109144709D01*
X157136378Y-109070976D01*
X157160956Y-109021821D01*
X157185533Y-108997244D01*
X157234688Y-108972666D01*
X157357576Y-108972666D01*
X157406731Y-108997244D01*
X157431308Y-109021821D01*
X157455886Y-109070976D01*
X157455886Y-109218442D01*
X157431308Y-109267597D01*
X157406731Y-109292174D01*
%TO.C,C33*%
X156454131Y-104842525D02*
X156478708Y-104867102D01*
X156503286Y-104940835D01*
X156503286Y-104989990D01*
X156478708Y-105063723D01*
X156429553Y-105112878D01*
X156380398Y-105137455D01*
X156282088Y-105162033D01*
X156208356Y-105162033D01*
X156110046Y-105137455D01*
X156060891Y-105112878D01*
X156011736Y-105063723D01*
X155987158Y-104989990D01*
X155987158Y-104940835D01*
X156011736Y-104867102D01*
X156036313Y-104842525D01*
X155987158Y-104670482D02*
X155987158Y-104350974D01*
X156183778Y-104523017D01*
X156183778Y-104449284D01*
X156208356Y-104400129D01*
X156232933Y-104375552D01*
X156282088Y-104350974D01*
X156404976Y-104350974D01*
X156454131Y-104375552D01*
X156478708Y-104400129D01*
X156503286Y-104449284D01*
X156503286Y-104596750D01*
X156478708Y-104645905D01*
X156454131Y-104670482D01*
X155987158Y-104178932D02*
X155987158Y-103859424D01*
X156183778Y-104031467D01*
X156183778Y-103957734D01*
X156208356Y-103908579D01*
X156232933Y-103884001D01*
X156282088Y-103859424D01*
X156404976Y-103859424D01*
X156454131Y-103884001D01*
X156478708Y-103908579D01*
X156503286Y-103957734D01*
X156503286Y-104105199D01*
X156478708Y-104154354D01*
X156454131Y-104178932D01*
%TO.C,C15*%
X132165531Y-80077425D02*
X132190108Y-80102002D01*
X132214686Y-80175735D01*
X132214686Y-80224890D01*
X132190108Y-80298623D01*
X132140953Y-80347778D01*
X132091798Y-80372355D01*
X131993488Y-80396933D01*
X131919756Y-80396933D01*
X131821446Y-80372355D01*
X131772291Y-80347778D01*
X131723136Y-80298623D01*
X131698558Y-80224890D01*
X131698558Y-80175735D01*
X131723136Y-80102002D01*
X131747713Y-80077425D01*
X132214686Y-79585874D02*
X132214686Y-79880805D01*
X132214686Y-79733339D02*
X131698558Y-79733339D01*
X131772291Y-79782495D01*
X131821446Y-79831650D01*
X131846023Y-79880805D01*
X131698558Y-79118901D02*
X131698558Y-79364677D01*
X131944333Y-79389254D01*
X131919756Y-79364677D01*
X131895178Y-79315522D01*
X131895178Y-79192634D01*
X131919756Y-79143479D01*
X131944333Y-79118901D01*
X131993488Y-79094324D01*
X132116376Y-79094324D01*
X132165531Y-79118901D01*
X132190108Y-79143479D01*
X132214686Y-79192634D01*
X132214686Y-79315522D01*
X132190108Y-79364677D01*
X132165531Y-79389254D01*
%TO.C,C56*%
X135283932Y-144240431D02*
X135259354Y-144265008D01*
X135185622Y-144289586D01*
X135136467Y-144289586D01*
X135062734Y-144265008D01*
X135013579Y-144215853D01*
X134989001Y-144166698D01*
X134964424Y-144068388D01*
X134964424Y-143994656D01*
X134989001Y-143896346D01*
X135013579Y-143847191D01*
X135062734Y-143798036D01*
X135136467Y-143773458D01*
X135185622Y-143773458D01*
X135259354Y-143798036D01*
X135283932Y-143822613D01*
X135750905Y-143773458D02*
X135505129Y-143773458D01*
X135480552Y-144019233D01*
X135505129Y-143994656D01*
X135554284Y-143970078D01*
X135677172Y-143970078D01*
X135726327Y-143994656D01*
X135750905Y-144019233D01*
X135775482Y-144068388D01*
X135775482Y-144191276D01*
X135750905Y-144240431D01*
X135726327Y-144265008D01*
X135677172Y-144289586D01*
X135554284Y-144289586D01*
X135505129Y-144265008D01*
X135480552Y-144240431D01*
X136217878Y-143773458D02*
X136119567Y-143773458D01*
X136070412Y-143798036D01*
X136045835Y-143822613D01*
X135996680Y-143896346D01*
X135972102Y-143994656D01*
X135972102Y-144191276D01*
X135996680Y-144240431D01*
X136021257Y-144265008D01*
X136070412Y-144289586D01*
X136168723Y-144289586D01*
X136217878Y-144265008D01*
X136242455Y-144240431D01*
X136267033Y-144191276D01*
X136267033Y-144068388D01*
X136242455Y-144019233D01*
X136217878Y-143994656D01*
X136168723Y-143970078D01*
X136070412Y-143970078D01*
X136021257Y-143994656D01*
X135996680Y-144019233D01*
X135972102Y-144068388D01*
D12*
%TO.C,C16*%
X156371256Y-81378307D02*
X156345789Y-81403775D01*
X156269385Y-81429243D01*
X156218450Y-81429243D01*
X156142047Y-81403775D01*
X156091111Y-81352840D01*
X156065644Y-81301904D01*
X156040176Y-81200033D01*
X156040176Y-81123630D01*
X156065644Y-81021759D01*
X156091111Y-80970824D01*
X156142047Y-80919889D01*
X156218450Y-80894421D01*
X156269385Y-80894421D01*
X156345789Y-80919889D01*
X156371256Y-80945356D01*
X156880611Y-81429243D02*
X156574998Y-81429243D01*
X156727804Y-81429243D02*
X156727804Y-80894421D01*
X156676869Y-80970824D01*
X156625933Y-81021759D01*
X156574998Y-81047227D01*
X157339029Y-80894421D02*
X157237159Y-80894421D01*
X157186223Y-80919889D01*
X157160755Y-80945356D01*
X157109820Y-81021759D01*
X157084352Y-81123630D01*
X157084352Y-81327372D01*
X157109820Y-81378307D01*
X157135288Y-81403775D01*
X157186223Y-81429243D01*
X157288094Y-81429243D01*
X157339029Y-81403775D01*
X157364497Y-81378307D01*
X157389965Y-81327372D01*
X157389965Y-81200033D01*
X157364497Y-81149098D01*
X157339029Y-81123630D01*
X157288094Y-81098163D01*
X157186223Y-81098163D01*
X157135288Y-81123630D01*
X157109820Y-81149098D01*
X157084352Y-81200033D01*
D10*
%TO.C,R48*%
X140469686Y-146117425D02*
X140223911Y-146289467D01*
X140469686Y-146412355D02*
X139953558Y-146412355D01*
X139953558Y-146215735D01*
X139978136Y-146166580D01*
X140002713Y-146142002D01*
X140051868Y-146117425D01*
X140125601Y-146117425D01*
X140174756Y-146142002D01*
X140199333Y-146166580D01*
X140223911Y-146215735D01*
X140223911Y-146412355D01*
X140125601Y-145675029D02*
X140469686Y-145675029D01*
X139928980Y-145797917D02*
X140297643Y-145920805D01*
X140297643Y-145601297D01*
X140174756Y-145330944D02*
X140150178Y-145380099D01*
X140125601Y-145404677D01*
X140076446Y-145429254D01*
X140051868Y-145429254D01*
X140002713Y-145404677D01*
X139978136Y-145380099D01*
X139953558Y-145330944D01*
X139953558Y-145232634D01*
X139978136Y-145183479D01*
X140002713Y-145158901D01*
X140051868Y-145134324D01*
X140076446Y-145134324D01*
X140125601Y-145158901D01*
X140150178Y-145183479D01*
X140174756Y-145232634D01*
X140174756Y-145330944D01*
X140199333Y-145380099D01*
X140223911Y-145404677D01*
X140273066Y-145429254D01*
X140371376Y-145429254D01*
X140420531Y-145404677D01*
X140445108Y-145380099D01*
X140469686Y-145330944D01*
X140469686Y-145232634D01*
X140445108Y-145183479D01*
X140420531Y-145158901D01*
X140371376Y-145134324D01*
X140273066Y-145134324D01*
X140223911Y-145158901D01*
X140199333Y-145183479D01*
X140174756Y-145232634D01*
%TO.C,R40*%
X121895886Y-117383825D02*
X121650111Y-117555867D01*
X121895886Y-117678755D02*
X121379758Y-117678755D01*
X121379758Y-117482135D01*
X121404336Y-117432980D01*
X121428913Y-117408402D01*
X121478068Y-117383825D01*
X121551801Y-117383825D01*
X121600956Y-117408402D01*
X121625533Y-117432980D01*
X121650111Y-117482135D01*
X121650111Y-117678755D01*
X121551801Y-116941429D02*
X121895886Y-116941429D01*
X121355180Y-117064317D02*
X121723843Y-117187205D01*
X121723843Y-116867697D01*
X121379758Y-116572767D02*
X121379758Y-116523611D01*
X121404336Y-116474456D01*
X121428913Y-116449879D01*
X121478068Y-116425301D01*
X121576378Y-116400724D01*
X121699266Y-116400724D01*
X121797576Y-116425301D01*
X121846731Y-116449879D01*
X121871308Y-116474456D01*
X121895886Y-116523611D01*
X121895886Y-116572767D01*
X121871308Y-116621922D01*
X121846731Y-116646499D01*
X121797576Y-116671077D01*
X121699266Y-116695654D01*
X121576378Y-116695654D01*
X121478068Y-116671077D01*
X121428913Y-116646499D01*
X121404336Y-116621922D01*
X121379758Y-116572767D01*
%TO.C,R22*%
X163170786Y-109287525D02*
X162925011Y-109459567D01*
X163170786Y-109582455D02*
X162654658Y-109582455D01*
X162654658Y-109385835D01*
X162679236Y-109336680D01*
X162703813Y-109312102D01*
X162752968Y-109287525D01*
X162826701Y-109287525D01*
X162875856Y-109312102D01*
X162900433Y-109336680D01*
X162925011Y-109385835D01*
X162925011Y-109582455D01*
X162703813Y-109090905D02*
X162679236Y-109066327D01*
X162654658Y-109017172D01*
X162654658Y-108894284D01*
X162679236Y-108845129D01*
X162703813Y-108820552D01*
X162752968Y-108795974D01*
X162802123Y-108795974D01*
X162875856Y-108820552D01*
X163170786Y-109115482D01*
X163170786Y-108795974D01*
X162703813Y-108599354D02*
X162679236Y-108574777D01*
X162654658Y-108525622D01*
X162654658Y-108402734D01*
X162679236Y-108353579D01*
X162703813Y-108329001D01*
X162752968Y-108304424D01*
X162802123Y-108304424D01*
X162875856Y-108329001D01*
X163170786Y-108623932D01*
X163170786Y-108304424D01*
%TO.C,R2*%
X163791784Y-66800838D02*
X163399608Y-66240587D01*
X163119482Y-66800838D02*
X163119482Y-65624310D01*
X163567683Y-65624310D01*
X163679733Y-65680336D01*
X163735759Y-65736361D01*
X163791784Y-65848411D01*
X163791784Y-66016486D01*
X163735759Y-66128537D01*
X163679733Y-66184562D01*
X163567683Y-66240587D01*
X163119482Y-66240587D01*
X164239985Y-65736361D02*
X164296010Y-65680336D01*
X164408060Y-65624310D01*
X164688186Y-65624310D01*
X164800236Y-65680336D01*
X164856261Y-65736361D01*
X164912287Y-65848411D01*
X164912287Y-65960461D01*
X164856261Y-66128537D01*
X164183960Y-66800838D01*
X164912287Y-66800838D01*
%TO.C,R46*%
X162939674Y-145083386D02*
X162767632Y-144837611D01*
X162644744Y-145083386D02*
X162644744Y-144567258D01*
X162841364Y-144567258D01*
X162890519Y-144591836D01*
X162915097Y-144616413D01*
X162939674Y-144665568D01*
X162939674Y-144739301D01*
X162915097Y-144788456D01*
X162890519Y-144813033D01*
X162841364Y-144837611D01*
X162644744Y-144837611D01*
X163382070Y-144739301D02*
X163382070Y-145083386D01*
X163259182Y-144542680D02*
X163136294Y-144911343D01*
X163455802Y-144911343D01*
X163873620Y-144567258D02*
X163775310Y-144567258D01*
X163726155Y-144591836D01*
X163701577Y-144616413D01*
X163652422Y-144690146D01*
X163627845Y-144788456D01*
X163627845Y-144985076D01*
X163652422Y-145034231D01*
X163677000Y-145058808D01*
X163726155Y-145083386D01*
X163824465Y-145083386D01*
X163873620Y-145058808D01*
X163898198Y-145034231D01*
X163922775Y-144985076D01*
X163922775Y-144862188D01*
X163898198Y-144813033D01*
X163873620Y-144788456D01*
X163824465Y-144763878D01*
X163726155Y-144763878D01*
X163677000Y-144788456D01*
X163652422Y-144813033D01*
X163627845Y-144862188D01*
D11*
%TO.C,LED1*%
X147480325Y-68831732D02*
X147121764Y-68831732D01*
X147121764Y-68078754D01*
X147731318Y-68437315D02*
X147982311Y-68437315D01*
X148089879Y-68831732D02*
X147731318Y-68831732D01*
X147731318Y-68078754D01*
X148089879Y-68078754D01*
X148412584Y-68831732D02*
X148412584Y-68078754D01*
X148591864Y-68078754D01*
X148699432Y-68114611D01*
X148771145Y-68186323D01*
X148807001Y-68258035D01*
X148842857Y-68401459D01*
X148842857Y-68509028D01*
X148807001Y-68652452D01*
X148771145Y-68724164D01*
X148699432Y-68795876D01*
X148591864Y-68831732D01*
X148412584Y-68831732D01*
X149559979Y-68831732D02*
X149129706Y-68831732D01*
X149344842Y-68831732D02*
X149344842Y-68078754D01*
X149273130Y-68186323D01*
X149201418Y-68258035D01*
X149129706Y-68293891D01*
D14*
%TO.C,L4*%
X150492874Y-67741055D02*
X150492874Y-68009976D01*
X149928141Y-68009976D01*
X150116385Y-67310782D02*
X150492874Y-67310782D01*
X149901249Y-67445243D02*
X150304630Y-67579703D01*
X150304630Y-67230106D01*
D11*
%TO.C,LED2*%
X147480325Y-74229232D02*
X147121764Y-74229232D01*
X147121764Y-73476254D01*
X147731318Y-73834815D02*
X147982311Y-73834815D01*
X148089879Y-74229232D02*
X147731318Y-74229232D01*
X147731318Y-73476254D01*
X148089879Y-73476254D01*
X148412584Y-74229232D02*
X148412584Y-73476254D01*
X148591864Y-73476254D01*
X148699432Y-73512111D01*
X148771145Y-73583823D01*
X148807001Y-73655535D01*
X148842857Y-73798959D01*
X148842857Y-73906528D01*
X148807001Y-74049952D01*
X148771145Y-74121664D01*
X148699432Y-74193376D01*
X148591864Y-74229232D01*
X148412584Y-74229232D01*
X149129706Y-73547967D02*
X149165562Y-73512111D01*
X149237274Y-73476254D01*
X149416554Y-73476254D01*
X149488267Y-73512111D01*
X149524123Y-73547967D01*
X149559979Y-73619679D01*
X149559979Y-73691391D01*
X149524123Y-73798959D01*
X149093850Y-74229232D01*
X149559979Y-74229232D01*
D10*
%TO.C,R19*%
X144914586Y-108970125D02*
X144668811Y-109142167D01*
X144914586Y-109265055D02*
X144398458Y-109265055D01*
X144398458Y-109068435D01*
X144423036Y-109019280D01*
X144447613Y-108994702D01*
X144496768Y-108970125D01*
X144570501Y-108970125D01*
X144619656Y-108994702D01*
X144644233Y-109019280D01*
X144668811Y-109068435D01*
X144668811Y-109265055D01*
X144914586Y-108478574D02*
X144914586Y-108773505D01*
X144914586Y-108626039D02*
X144398458Y-108626039D01*
X144472191Y-108675195D01*
X144521346Y-108724350D01*
X144545923Y-108773505D01*
X144914586Y-108232799D02*
X144914586Y-108134489D01*
X144890008Y-108085334D01*
X144865431Y-108060756D01*
X144791698Y-108011601D01*
X144693388Y-107987024D01*
X144496768Y-107987024D01*
X144447613Y-108011601D01*
X144423036Y-108036179D01*
X144398458Y-108085334D01*
X144398458Y-108183644D01*
X144423036Y-108232799D01*
X144447613Y-108257377D01*
X144496768Y-108281954D01*
X144619656Y-108281954D01*
X144668811Y-108257377D01*
X144693388Y-108232799D01*
X144717966Y-108183644D01*
X144717966Y-108085334D01*
X144693388Y-108036179D01*
X144668811Y-108011601D01*
X144619656Y-107987024D01*
%TO.C,C29*%
X152270432Y-95980431D02*
X152245854Y-96005008D01*
X152172122Y-96029586D01*
X152122967Y-96029586D01*
X152049234Y-96005008D01*
X152000079Y-95955853D01*
X151975501Y-95906698D01*
X151950924Y-95808388D01*
X151950924Y-95734656D01*
X151975501Y-95636346D01*
X152000079Y-95587191D01*
X152049234Y-95538036D01*
X152122967Y-95513458D01*
X152172122Y-95513458D01*
X152245854Y-95538036D01*
X152270432Y-95562613D01*
X152467052Y-95562613D02*
X152491629Y-95538036D01*
X152540784Y-95513458D01*
X152663672Y-95513458D01*
X152712827Y-95538036D01*
X152737405Y-95562613D01*
X152761982Y-95611768D01*
X152761982Y-95660923D01*
X152737405Y-95734656D01*
X152442474Y-96029586D01*
X152761982Y-96029586D01*
X153007757Y-96029586D02*
X153106067Y-96029586D01*
X153155223Y-96005008D01*
X153179800Y-95980431D01*
X153228955Y-95906698D01*
X153253533Y-95808388D01*
X153253533Y-95611768D01*
X153228955Y-95562613D01*
X153204378Y-95538036D01*
X153155223Y-95513458D01*
X153056912Y-95513458D01*
X153007757Y-95538036D01*
X152983180Y-95562613D01*
X152958602Y-95611768D01*
X152958602Y-95734656D01*
X152983180Y-95783811D01*
X153007757Y-95808388D01*
X153056912Y-95832966D01*
X153155223Y-95832966D01*
X153204378Y-95808388D01*
X153228955Y-95783811D01*
X153253533Y-95734656D01*
%TO.C,R27*%
X157455886Y-112495867D02*
X157210111Y-112667910D01*
X157455886Y-112790798D02*
X156939758Y-112790798D01*
X156939758Y-112594177D01*
X156964336Y-112545022D01*
X156988913Y-112520445D01*
X157038068Y-112495867D01*
X157111801Y-112495867D01*
X157160956Y-112520445D01*
X157185533Y-112545022D01*
X157210111Y-112594177D01*
X157210111Y-112790798D01*
X156988913Y-112299247D02*
X156964336Y-112274670D01*
X156939758Y-112225515D01*
X156939758Y-112102627D01*
X156964336Y-112053472D01*
X156988913Y-112028894D01*
X157038068Y-112004317D01*
X157087223Y-112004317D01*
X157160956Y-112028894D01*
X157455886Y-112323825D01*
X157455886Y-112004317D01*
X156939758Y-111832274D02*
X156939758Y-111488189D01*
X157455886Y-111709387D01*
%TO.C,R36*%
X157455886Y-114718167D02*
X157210111Y-114890210D01*
X157455886Y-115013098D02*
X156939758Y-115013098D01*
X156939758Y-114816477D01*
X156964336Y-114767322D01*
X156988913Y-114742745D01*
X157038068Y-114718167D01*
X157111801Y-114718167D01*
X157160956Y-114742745D01*
X157185533Y-114767322D01*
X157210111Y-114816477D01*
X157210111Y-115013098D01*
X156939758Y-114546125D02*
X156939758Y-114226617D01*
X157136378Y-114398660D01*
X157136378Y-114324927D01*
X157160956Y-114275772D01*
X157185533Y-114251194D01*
X157234688Y-114226617D01*
X157357576Y-114226617D01*
X157406731Y-114251194D01*
X157431308Y-114275772D01*
X157455886Y-114324927D01*
X157455886Y-114472392D01*
X157431308Y-114521547D01*
X157406731Y-114546125D01*
X156939758Y-113784221D02*
X156939758Y-113882532D01*
X156964336Y-113931687D01*
X156988913Y-113956264D01*
X157062646Y-114005419D01*
X157160956Y-114029997D01*
X157357576Y-114029997D01*
X157406731Y-114005419D01*
X157431308Y-113980842D01*
X157455886Y-113931687D01*
X157455886Y-113833376D01*
X157431308Y-113784221D01*
X157406731Y-113759644D01*
X157357576Y-113735066D01*
X157234688Y-113735066D01*
X157185533Y-113759644D01*
X157160956Y-113784221D01*
X157136378Y-113833376D01*
X157136378Y-113931687D01*
X157160956Y-113980842D01*
X157185533Y-114005419D01*
X157234688Y-114029997D01*
%TO.C,C37*%
X171829674Y-109791631D02*
X171805097Y-109816208D01*
X171731364Y-109840786D01*
X171682209Y-109840786D01*
X171608476Y-109816208D01*
X171559321Y-109767053D01*
X171534744Y-109717898D01*
X171510166Y-109619588D01*
X171510166Y-109545856D01*
X171534744Y-109447546D01*
X171559321Y-109398391D01*
X171608476Y-109349236D01*
X171682209Y-109324658D01*
X171731364Y-109324658D01*
X171805097Y-109349236D01*
X171829674Y-109373813D01*
X172001717Y-109324658D02*
X172321225Y-109324658D01*
X172149182Y-109521278D01*
X172222915Y-109521278D01*
X172272070Y-109545856D01*
X172296647Y-109570433D01*
X172321225Y-109619588D01*
X172321225Y-109742476D01*
X172296647Y-109791631D01*
X172272070Y-109816208D01*
X172222915Y-109840786D01*
X172075449Y-109840786D01*
X172026294Y-109816208D01*
X172001717Y-109791631D01*
X172493267Y-109324658D02*
X172837353Y-109324658D01*
X172616155Y-109840786D01*
%TO.C,R25*%
X121823474Y-110952086D02*
X121651432Y-110706311D01*
X121528544Y-110952086D02*
X121528544Y-110435958D01*
X121725164Y-110435958D01*
X121774319Y-110460536D01*
X121798897Y-110485113D01*
X121823474Y-110534268D01*
X121823474Y-110608001D01*
X121798897Y-110657156D01*
X121774319Y-110681733D01*
X121725164Y-110706311D01*
X121528544Y-110706311D01*
X122020094Y-110485113D02*
X122044672Y-110460536D01*
X122093827Y-110435958D01*
X122216715Y-110435958D01*
X122265870Y-110460536D01*
X122290447Y-110485113D01*
X122315025Y-110534268D01*
X122315025Y-110583423D01*
X122290447Y-110657156D01*
X121995517Y-110952086D01*
X122315025Y-110952086D01*
X122781998Y-110435958D02*
X122536222Y-110435958D01*
X122511645Y-110681733D01*
X122536222Y-110657156D01*
X122585377Y-110632578D01*
X122708265Y-110632578D01*
X122757420Y-110657156D01*
X122781998Y-110681733D01*
X122806575Y-110730888D01*
X122806575Y-110853776D01*
X122781998Y-110902931D01*
X122757420Y-110927508D01*
X122708265Y-110952086D01*
X122585377Y-110952086D01*
X122536222Y-110927508D01*
X122511645Y-110902931D01*
%TO.C,C40*%
X146135331Y-108969925D02*
X146159908Y-108994502D01*
X146184486Y-109068235D01*
X146184486Y-109117390D01*
X146159908Y-109191123D01*
X146110753Y-109240278D01*
X146061598Y-109264855D01*
X145963288Y-109289433D01*
X145889556Y-109289433D01*
X145791246Y-109264855D01*
X145742091Y-109240278D01*
X145692936Y-109191123D01*
X145668358Y-109117390D01*
X145668358Y-109068235D01*
X145692936Y-108994502D01*
X145717513Y-108969925D01*
X145840401Y-108527529D02*
X146184486Y-108527529D01*
X145643780Y-108650417D02*
X146012443Y-108773305D01*
X146012443Y-108453797D01*
X145668358Y-108158867D02*
X145668358Y-108109711D01*
X145692936Y-108060556D01*
X145717513Y-108035979D01*
X145766668Y-108011401D01*
X145864978Y-107986824D01*
X145987866Y-107986824D01*
X146086176Y-108011401D01*
X146135331Y-108035979D01*
X146159908Y-108060556D01*
X146184486Y-108109711D01*
X146184486Y-108158867D01*
X146159908Y-108208022D01*
X146135331Y-108232599D01*
X146086176Y-108257177D01*
X145987866Y-108281754D01*
X145864978Y-108281754D01*
X145766668Y-108257177D01*
X145717513Y-108232599D01*
X145692936Y-108208022D01*
X145668358Y-108158867D01*
D14*
%TO.C,L2*%
X159223974Y-61391155D02*
X159223974Y-61660076D01*
X158659241Y-61660076D01*
X158713025Y-61229803D02*
X158686133Y-61202911D01*
X158659241Y-61149127D01*
X158659241Y-61014667D01*
X158686133Y-60960882D01*
X158713025Y-60933990D01*
X158766809Y-60907098D01*
X158820593Y-60907098D01*
X158901269Y-60933990D01*
X159223974Y-61256695D01*
X159223974Y-60907098D01*
D10*
%TO.C,R6*%
X127996682Y-84123386D02*
X127824639Y-83877611D01*
X127701752Y-84123386D02*
X127701752Y-83607258D01*
X127898372Y-83607258D01*
X127947527Y-83631836D01*
X127972105Y-83656413D01*
X127996682Y-83705568D01*
X127996682Y-83779301D01*
X127972105Y-83828456D01*
X127947527Y-83853033D01*
X127898372Y-83877611D01*
X127701752Y-83877611D01*
X128439078Y-83607258D02*
X128340767Y-83607258D01*
X128291612Y-83631836D01*
X128267035Y-83656413D01*
X128217880Y-83730146D01*
X128193302Y-83828456D01*
X128193302Y-84025076D01*
X128217880Y-84074231D01*
X128242457Y-84098808D01*
X128291612Y-84123386D01*
X128389923Y-84123386D01*
X128439078Y-84098808D01*
X128463655Y-84074231D01*
X128488233Y-84025076D01*
X128488233Y-83902188D01*
X128463655Y-83853033D01*
X128439078Y-83828456D01*
X128389923Y-83803878D01*
X128291612Y-83803878D01*
X128242457Y-83828456D01*
X128217880Y-83853033D01*
X128193302Y-83902188D01*
%TO.C,C38*%
X125497931Y-108811325D02*
X125522508Y-108835902D01*
X125547086Y-108909635D01*
X125547086Y-108958790D01*
X125522508Y-109032523D01*
X125473353Y-109081678D01*
X125424198Y-109106255D01*
X125325888Y-109130833D01*
X125252156Y-109130833D01*
X125153846Y-109106255D01*
X125104691Y-109081678D01*
X125055536Y-109032523D01*
X125030958Y-108958790D01*
X125030958Y-108909635D01*
X125055536Y-108835902D01*
X125080113Y-108811325D01*
X125030958Y-108639282D02*
X125030958Y-108319774D01*
X125227578Y-108491817D01*
X125227578Y-108418084D01*
X125252156Y-108368929D01*
X125276733Y-108344352D01*
X125325888Y-108319774D01*
X125448776Y-108319774D01*
X125497931Y-108344352D01*
X125522508Y-108368929D01*
X125547086Y-108418084D01*
X125547086Y-108565550D01*
X125522508Y-108614705D01*
X125497931Y-108639282D01*
X125252156Y-108024844D02*
X125227578Y-108073999D01*
X125203001Y-108098577D01*
X125153846Y-108123154D01*
X125129268Y-108123154D01*
X125080113Y-108098577D01*
X125055536Y-108073999D01*
X125030958Y-108024844D01*
X125030958Y-107926534D01*
X125055536Y-107877379D01*
X125080113Y-107852801D01*
X125129268Y-107828224D01*
X125153846Y-107828224D01*
X125203001Y-107852801D01*
X125227578Y-107877379D01*
X125252156Y-107926534D01*
X125252156Y-108024844D01*
X125276733Y-108073999D01*
X125301311Y-108098577D01*
X125350466Y-108123154D01*
X125448776Y-108123154D01*
X125497931Y-108098577D01*
X125522508Y-108073999D01*
X125547086Y-108024844D01*
X125547086Y-107926534D01*
X125522508Y-107877379D01*
X125497931Y-107852801D01*
X125448776Y-107828224D01*
X125350466Y-107828224D01*
X125301311Y-107852801D01*
X125276733Y-107877379D01*
X125252156Y-107926534D01*
%TO.C,J2*%
X131575610Y-134226566D02*
X132415988Y-134226566D01*
X132584063Y-134282591D01*
X132696113Y-134394642D01*
X132752138Y-134562717D01*
X132752138Y-134674767D01*
X131687661Y-133722340D02*
X131631636Y-133666315D01*
X131575610Y-133554264D01*
X131575610Y-133274139D01*
X131631636Y-133162088D01*
X131687661Y-133106063D01*
X131799711Y-133050038D01*
X131911761Y-133050038D01*
X132079837Y-133106063D01*
X132752138Y-133778365D01*
X132752138Y-133050038D01*
%TO.C,R47*%
X174211074Y-145083286D02*
X174039032Y-144837511D01*
X173916144Y-145083286D02*
X173916144Y-144567158D01*
X174112764Y-144567158D01*
X174161919Y-144591736D01*
X174186497Y-144616313D01*
X174211074Y-144665468D01*
X174211074Y-144739201D01*
X174186497Y-144788356D01*
X174161919Y-144812933D01*
X174112764Y-144837511D01*
X173916144Y-144837511D01*
X174653470Y-144739201D02*
X174653470Y-145083286D01*
X174530582Y-144542580D02*
X174407694Y-144911243D01*
X174727202Y-144911243D01*
X174874667Y-144567158D02*
X175218753Y-144567158D01*
X174997555Y-145083286D01*
D11*
%TO.C,LED4*%
X147480325Y-85024232D02*
X147121764Y-85024232D01*
X147121764Y-84271254D01*
X147731318Y-84629815D02*
X147982311Y-84629815D01*
X148089879Y-85024232D02*
X147731318Y-85024232D01*
X147731318Y-84271254D01*
X148089879Y-84271254D01*
X148412584Y-85024232D02*
X148412584Y-84271254D01*
X148591864Y-84271254D01*
X148699432Y-84307111D01*
X148771145Y-84378823D01*
X148807001Y-84450535D01*
X148842857Y-84593959D01*
X148842857Y-84701528D01*
X148807001Y-84844952D01*
X148771145Y-84916664D01*
X148699432Y-84988376D01*
X148591864Y-85024232D01*
X148412584Y-85024232D01*
X149488267Y-84522247D02*
X149488267Y-85024232D01*
X149308986Y-84235398D02*
X149129706Y-84773240D01*
X149595835Y-84773240D01*
D15*
%TO.C,IC8*%
X166458895Y-111287010D02*
X166458895Y-110649470D01*
X167126794Y-111226292D02*
X167096435Y-111256651D01*
X167005358Y-111287010D01*
X166944640Y-111287010D01*
X166853563Y-111256651D01*
X166792845Y-111195933D01*
X166762485Y-111135215D01*
X166732126Y-111013779D01*
X166732126Y-110922702D01*
X166762485Y-110801266D01*
X166792845Y-110740548D01*
X166853563Y-110679830D01*
X166944640Y-110649470D01*
X167005358Y-110649470D01*
X167096435Y-110679830D01*
X167126794Y-110710189D01*
X167491103Y-110922702D02*
X167430385Y-110892343D01*
X167400025Y-110861984D01*
X167369666Y-110801266D01*
X167369666Y-110770907D01*
X167400025Y-110710189D01*
X167430385Y-110679830D01*
X167491103Y-110649470D01*
X167612539Y-110649470D01*
X167673257Y-110679830D01*
X167703616Y-110710189D01*
X167733975Y-110770907D01*
X167733975Y-110801266D01*
X167703616Y-110861984D01*
X167673257Y-110892343D01*
X167612539Y-110922702D01*
X167491103Y-110922702D01*
X167430385Y-110953061D01*
X167400025Y-110983420D01*
X167369666Y-111044138D01*
X167369666Y-111165574D01*
X167400025Y-111226292D01*
X167430385Y-111256651D01*
X167491103Y-111287010D01*
X167612539Y-111287010D01*
X167673257Y-111256651D01*
X167703616Y-111226292D01*
X167733975Y-111165574D01*
X167733975Y-111044138D01*
X167703616Y-110983420D01*
X167673257Y-110953061D01*
X167612539Y-110922702D01*
D16*
%TO.C,IC1*%
X124046914Y-63492389D02*
X123337746Y-63492389D01*
X123979374Y-62749451D02*
X124013144Y-62783221D01*
X124046914Y-62884531D01*
X124046914Y-62952071D01*
X124013144Y-63053380D01*
X123945604Y-63120920D01*
X123878064Y-63154690D01*
X123742984Y-63188460D01*
X123641675Y-63188460D01*
X123506595Y-63154690D01*
X123439055Y-63120920D01*
X123371516Y-63053380D01*
X123337746Y-62952071D01*
X123337746Y-62884531D01*
X123371516Y-62783221D01*
X123405285Y-62749451D01*
X124046914Y-62074053D02*
X124046914Y-62479292D01*
X124046914Y-62276673D02*
X123337746Y-62276673D01*
X123439055Y-62344212D01*
X123506595Y-62411752D01*
X123540365Y-62479292D01*
D10*
%TO.C,R41*%
X136818386Y-117416967D02*
X136572611Y-117589010D01*
X136818386Y-117711898D02*
X136302258Y-117711898D01*
X136302258Y-117515277D01*
X136326836Y-117466122D01*
X136351413Y-117441545D01*
X136400568Y-117416967D01*
X136474301Y-117416967D01*
X136523456Y-117441545D01*
X136548033Y-117466122D01*
X136572611Y-117515277D01*
X136572611Y-117711898D01*
X136474301Y-116974572D02*
X136818386Y-116974572D01*
X136277680Y-117097460D02*
X136646343Y-117220347D01*
X136646343Y-116900839D01*
X136818386Y-116433866D02*
X136818386Y-116728797D01*
X136818386Y-116581332D02*
X136302258Y-116581332D01*
X136375991Y-116630487D01*
X136425146Y-116679642D01*
X136449723Y-116728797D01*
%TO.C,R35*%
X155233386Y-116940767D02*
X154987611Y-117112810D01*
X155233386Y-117235698D02*
X154717258Y-117235698D01*
X154717258Y-117039077D01*
X154741836Y-116989922D01*
X154766413Y-116965345D01*
X154815568Y-116940767D01*
X154889301Y-116940767D01*
X154938456Y-116965345D01*
X154963033Y-116989922D01*
X154987611Y-117039077D01*
X154987611Y-117235698D01*
X154717258Y-116768725D02*
X154717258Y-116449217D01*
X154913878Y-116621260D01*
X154913878Y-116547527D01*
X154938456Y-116498372D01*
X154963033Y-116473794D01*
X155012188Y-116449217D01*
X155135076Y-116449217D01*
X155184231Y-116473794D01*
X155208808Y-116498372D01*
X155233386Y-116547527D01*
X155233386Y-116694992D01*
X155208808Y-116744147D01*
X155184231Y-116768725D01*
X154717258Y-115982244D02*
X154717258Y-116228019D01*
X154963033Y-116252597D01*
X154938456Y-116228019D01*
X154913878Y-116178864D01*
X154913878Y-116055976D01*
X154938456Y-116006821D01*
X154963033Y-115982244D01*
X155012188Y-115957666D01*
X155135076Y-115957666D01*
X155184231Y-115982244D01*
X155208808Y-116006821D01*
X155233386Y-116055976D01*
X155233386Y-116178864D01*
X155208808Y-116228019D01*
X155184231Y-116252597D01*
%TO.C,C47*%
X133752731Y-112779825D02*
X133777308Y-112804402D01*
X133801886Y-112878135D01*
X133801886Y-112927290D01*
X133777308Y-113001023D01*
X133728153Y-113050178D01*
X133678998Y-113074755D01*
X133580688Y-113099333D01*
X133506956Y-113099333D01*
X133408646Y-113074755D01*
X133359491Y-113050178D01*
X133310336Y-113001023D01*
X133285758Y-112927290D01*
X133285758Y-112878135D01*
X133310336Y-112804402D01*
X133334913Y-112779825D01*
X133457801Y-112337429D02*
X133801886Y-112337429D01*
X133261180Y-112460317D02*
X133629843Y-112583205D01*
X133629843Y-112263697D01*
X133285758Y-112116232D02*
X133285758Y-111772146D01*
X133801886Y-111993344D01*
D16*
%TO.C,IC2*%
X152571314Y-78592689D02*
X151862146Y-78592689D01*
X152503774Y-77849751D02*
X152537544Y-77883521D01*
X152571314Y-77984831D01*
X152571314Y-78052371D01*
X152537544Y-78153680D01*
X152470004Y-78221220D01*
X152402464Y-78254990D01*
X152267384Y-78288760D01*
X152166075Y-78288760D01*
X152030995Y-78254990D01*
X151963455Y-78221220D01*
X151895916Y-78153680D01*
X151862146Y-78052371D01*
X151862146Y-77984831D01*
X151895916Y-77883521D01*
X151929685Y-77849751D01*
X151929685Y-77579592D02*
X151895916Y-77545822D01*
X151862146Y-77478282D01*
X151862146Y-77309433D01*
X151895916Y-77241893D01*
X151929685Y-77208123D01*
X151997225Y-77174353D01*
X152064765Y-77174353D01*
X152166075Y-77208123D01*
X152571314Y-77613362D01*
X152571314Y-77174353D01*
D10*
%TO.C,C49*%
X153755431Y-116940767D02*
X153780008Y-116965345D01*
X153804586Y-117039077D01*
X153804586Y-117088232D01*
X153780008Y-117161965D01*
X153730853Y-117211120D01*
X153681698Y-117235698D01*
X153583388Y-117260275D01*
X153509656Y-117260275D01*
X153411346Y-117235698D01*
X153362191Y-117211120D01*
X153313036Y-117161965D01*
X153288458Y-117088232D01*
X153288458Y-117039077D01*
X153313036Y-116965345D01*
X153337613Y-116940767D01*
X153460501Y-116498372D02*
X153804586Y-116498372D01*
X153263880Y-116621260D02*
X153632543Y-116744147D01*
X153632543Y-116424639D01*
X153804586Y-116203442D02*
X153804586Y-116105132D01*
X153780008Y-116055976D01*
X153755431Y-116031399D01*
X153681698Y-115982244D01*
X153583388Y-115957666D01*
X153386768Y-115957666D01*
X153337613Y-115982244D01*
X153313036Y-116006821D01*
X153288458Y-116055976D01*
X153288458Y-116154287D01*
X153313036Y-116203442D01*
X153337613Y-116228019D01*
X153386768Y-116252597D01*
X153509656Y-116252597D01*
X153558811Y-116228019D01*
X153583388Y-116203442D01*
X153607966Y-116154287D01*
X153607966Y-116055976D01*
X153583388Y-116006821D01*
X153558811Y-115982244D01*
X153509656Y-115957666D01*
%TO.C,J5*%
X165865510Y-134226466D02*
X166705888Y-134226466D01*
X166873963Y-134282491D01*
X166986013Y-134394542D01*
X167042038Y-134562617D01*
X167042038Y-134674667D01*
X165865510Y-133105963D02*
X165865510Y-133666215D01*
X166425762Y-133722240D01*
X166369737Y-133666215D01*
X166313712Y-133554164D01*
X166313712Y-133274039D01*
X166369737Y-133161988D01*
X166425762Y-133105963D01*
X166537812Y-133049938D01*
X166817938Y-133049938D01*
X166929988Y-133105963D01*
X166986013Y-133161988D01*
X167042038Y-133274039D01*
X167042038Y-133554164D01*
X166986013Y-133666215D01*
X166929988Y-133722240D01*
%TO.C,C18*%
X158495074Y-85820231D02*
X158470497Y-85844808D01*
X158396764Y-85869386D01*
X158347609Y-85869386D01*
X158273876Y-85844808D01*
X158224721Y-85795653D01*
X158200144Y-85746498D01*
X158175566Y-85648188D01*
X158175566Y-85574456D01*
X158200144Y-85476146D01*
X158224721Y-85426991D01*
X158273876Y-85377836D01*
X158347609Y-85353258D01*
X158396764Y-85353258D01*
X158470497Y-85377836D01*
X158495074Y-85402413D01*
X158986625Y-85869386D02*
X158691694Y-85869386D01*
X158839160Y-85869386D02*
X158839160Y-85353258D01*
X158790004Y-85426991D01*
X158740849Y-85476146D01*
X158691694Y-85500723D01*
X159281555Y-85574456D02*
X159232400Y-85549878D01*
X159207822Y-85525301D01*
X159183245Y-85476146D01*
X159183245Y-85451568D01*
X159207822Y-85402413D01*
X159232400Y-85377836D01*
X159281555Y-85353258D01*
X159379865Y-85353258D01*
X159429020Y-85377836D01*
X159453598Y-85402413D01*
X159478175Y-85451568D01*
X159478175Y-85476146D01*
X159453598Y-85525301D01*
X159429020Y-85549878D01*
X159379865Y-85574456D01*
X159281555Y-85574456D01*
X159232400Y-85599033D01*
X159207822Y-85623611D01*
X159183245Y-85672766D01*
X159183245Y-85771076D01*
X159207822Y-85820231D01*
X159232400Y-85844808D01*
X159281555Y-85869386D01*
X159379865Y-85869386D01*
X159429020Y-85844808D01*
X159453598Y-85820231D01*
X159478175Y-85771076D01*
X159478175Y-85672766D01*
X159453598Y-85623611D01*
X159429020Y-85599033D01*
X159379865Y-85574456D01*
%TO.C,C14*%
X124363474Y-79787931D02*
X124338897Y-79812508D01*
X124265164Y-79837086D01*
X124216009Y-79837086D01*
X124142276Y-79812508D01*
X124093121Y-79763353D01*
X124068544Y-79714198D01*
X124043966Y-79615888D01*
X124043966Y-79542156D01*
X124068544Y-79443846D01*
X124093121Y-79394691D01*
X124142276Y-79345536D01*
X124216009Y-79320958D01*
X124265164Y-79320958D01*
X124338897Y-79345536D01*
X124363474Y-79370113D01*
X124855025Y-79837086D02*
X124560094Y-79837086D01*
X124707560Y-79837086D02*
X124707560Y-79320958D01*
X124658404Y-79394691D01*
X124609249Y-79443846D01*
X124560094Y-79468423D01*
X125297420Y-79493001D02*
X125297420Y-79837086D01*
X125174532Y-79296380D02*
X125051645Y-79665043D01*
X125371153Y-79665043D01*
D12*
%TO.C,C3*%
X136051556Y-60105807D02*
X136026089Y-60131275D01*
X135949685Y-60156743D01*
X135898750Y-60156743D01*
X135822347Y-60131275D01*
X135771411Y-60080340D01*
X135745944Y-60029404D01*
X135720476Y-59927533D01*
X135720476Y-59851130D01*
X135745944Y-59749259D01*
X135771411Y-59698324D01*
X135822347Y-59647389D01*
X135898750Y-59621921D01*
X135949685Y-59621921D01*
X136026089Y-59647389D01*
X136051556Y-59672856D01*
X136229830Y-59621921D02*
X136560911Y-59621921D01*
X136382637Y-59825663D01*
X136459040Y-59825663D01*
X136509975Y-59851130D01*
X136535443Y-59876598D01*
X136560911Y-59927533D01*
X136560911Y-60054872D01*
X136535443Y-60105807D01*
X136509975Y-60131275D01*
X136459040Y-60156743D01*
X136306233Y-60156743D01*
X136255298Y-60131275D01*
X136229830Y-60105807D01*
D10*
%TO.C,R1*%
X127596784Y-66800838D02*
X127204608Y-66240587D01*
X126924482Y-66800838D02*
X126924482Y-65624310D01*
X127372683Y-65624310D01*
X127484733Y-65680336D01*
X127540759Y-65736361D01*
X127596784Y-65848411D01*
X127596784Y-66016486D01*
X127540759Y-66128537D01*
X127484733Y-66184562D01*
X127372683Y-66240587D01*
X126924482Y-66240587D01*
X128717287Y-66800838D02*
X128044985Y-66800838D01*
X128381136Y-66800838D02*
X128381136Y-65624310D01*
X128269085Y-65792386D01*
X128157035Y-65904436D01*
X128044985Y-65960461D01*
%TO.C,C57*%
X150682632Y-145510331D02*
X150658054Y-145534908D01*
X150584322Y-145559486D01*
X150535167Y-145559486D01*
X150461434Y-145534908D01*
X150412279Y-145485753D01*
X150387701Y-145436598D01*
X150363124Y-145338288D01*
X150363124Y-145264556D01*
X150387701Y-145166246D01*
X150412279Y-145117091D01*
X150461434Y-145067936D01*
X150535167Y-145043358D01*
X150584322Y-145043358D01*
X150658054Y-145067936D01*
X150682632Y-145092513D01*
X151149605Y-145043358D02*
X150903829Y-145043358D01*
X150879252Y-145289133D01*
X150903829Y-145264556D01*
X150952984Y-145239978D01*
X151075872Y-145239978D01*
X151125027Y-145264556D01*
X151149605Y-145289133D01*
X151174182Y-145338288D01*
X151174182Y-145461176D01*
X151149605Y-145510331D01*
X151125027Y-145534908D01*
X151075872Y-145559486D01*
X150952984Y-145559486D01*
X150903829Y-145534908D01*
X150879252Y-145510331D01*
X151346225Y-145043358D02*
X151690310Y-145043358D01*
X151469112Y-145559486D01*
%TO.C,J8*%
X143005710Y-148831566D02*
X143846088Y-148831566D01*
X144014163Y-148887591D01*
X144126213Y-148999642D01*
X144182238Y-149167717D01*
X144182238Y-149279767D01*
X143509937Y-148103239D02*
X143453912Y-148215290D01*
X143397886Y-148271315D01*
X143285836Y-148327340D01*
X143229811Y-148327340D01*
X143117761Y-148271315D01*
X143061736Y-148215290D01*
X143005710Y-148103239D01*
X143005710Y-147879139D01*
X143061736Y-147767088D01*
X143117761Y-147711063D01*
X143229811Y-147655038D01*
X143285836Y-147655038D01*
X143397886Y-147711063D01*
X143453912Y-147767088D01*
X143509937Y-147879139D01*
X143509937Y-148103239D01*
X143565962Y-148215290D01*
X143621987Y-148271315D01*
X143734037Y-148327340D01*
X143958138Y-148327340D01*
X144070188Y-148271315D01*
X144126213Y-148215290D01*
X144182238Y-148103239D01*
X144182238Y-147879139D01*
X144126213Y-147767088D01*
X144070188Y-147711063D01*
X143958138Y-147655038D01*
X143734037Y-147655038D01*
X143621987Y-147711063D01*
X143565962Y-147767088D01*
X143509937Y-147879139D01*
%TO.C,C53*%
X128140232Y-131222931D02*
X128115654Y-131247508D01*
X128041922Y-131272086D01*
X127992767Y-131272086D01*
X127919034Y-131247508D01*
X127869879Y-131198353D01*
X127845301Y-131149198D01*
X127820724Y-131050888D01*
X127820724Y-130977156D01*
X127845301Y-130878846D01*
X127869879Y-130829691D01*
X127919034Y-130780536D01*
X127992767Y-130755958D01*
X128041922Y-130755958D01*
X128115654Y-130780536D01*
X128140232Y-130805113D01*
X128607205Y-130755958D02*
X128361429Y-130755958D01*
X128336852Y-131001733D01*
X128361429Y-130977156D01*
X128410584Y-130952578D01*
X128533472Y-130952578D01*
X128582627Y-130977156D01*
X128607205Y-131001733D01*
X128631782Y-131050888D01*
X128631782Y-131173776D01*
X128607205Y-131222931D01*
X128582627Y-131247508D01*
X128533472Y-131272086D01*
X128410584Y-131272086D01*
X128361429Y-131247508D01*
X128336852Y-131222931D01*
X128803825Y-130755958D02*
X129123333Y-130755958D01*
X128951290Y-130952578D01*
X129025023Y-130952578D01*
X129074178Y-130977156D01*
X129098755Y-131001733D01*
X129123333Y-131050888D01*
X129123333Y-131173776D01*
X129098755Y-131222931D01*
X129074178Y-131247508D01*
X129025023Y-131272086D01*
X128877557Y-131272086D01*
X128828402Y-131247508D01*
X128803825Y-131222931D01*
%TO.C,C10*%
X137381174Y-78041331D02*
X137356597Y-78065908D01*
X137282864Y-78090486D01*
X137233709Y-78090486D01*
X137159976Y-78065908D01*
X137110821Y-78016753D01*
X137086244Y-77967598D01*
X137061666Y-77869288D01*
X137061666Y-77795556D01*
X137086244Y-77697246D01*
X137110821Y-77648091D01*
X137159976Y-77598936D01*
X137233709Y-77574358D01*
X137282864Y-77574358D01*
X137356597Y-77598936D01*
X137381174Y-77623513D01*
X137872725Y-78090486D02*
X137577794Y-78090486D01*
X137725260Y-78090486D02*
X137725260Y-77574358D01*
X137676104Y-77648091D01*
X137626949Y-77697246D01*
X137577794Y-77721823D01*
X138192232Y-77574358D02*
X138241388Y-77574358D01*
X138290543Y-77598936D01*
X138315120Y-77623513D01*
X138339698Y-77672668D01*
X138364275Y-77770978D01*
X138364275Y-77893866D01*
X138339698Y-77992176D01*
X138315120Y-78041331D01*
X138290543Y-78065908D01*
X138241388Y-78090486D01*
X138192232Y-78090486D01*
X138143077Y-78065908D01*
X138118500Y-78041331D01*
X138093922Y-77992176D01*
X138069345Y-77893866D01*
X138069345Y-77770978D01*
X138093922Y-77672668D01*
X138118500Y-77623513D01*
X138143077Y-77598936D01*
X138192232Y-77574358D01*
D16*
%TO.C,IC5*%
X154527014Y-92067389D02*
X153817846Y-92067389D01*
X154459474Y-91324451D02*
X154493244Y-91358221D01*
X154527014Y-91459531D01*
X154527014Y-91527071D01*
X154493244Y-91628380D01*
X154425704Y-91695920D01*
X154358164Y-91729690D01*
X154223084Y-91763460D01*
X154121775Y-91763460D01*
X153986695Y-91729690D01*
X153919155Y-91695920D01*
X153851616Y-91628380D01*
X153817846Y-91527071D01*
X153817846Y-91459531D01*
X153851616Y-91358221D01*
X153885385Y-91324451D01*
X153817846Y-90682823D02*
X153817846Y-91020522D01*
X154155545Y-91054292D01*
X154121775Y-91020522D01*
X154088005Y-90952982D01*
X154088005Y-90784133D01*
X154121775Y-90716593D01*
X154155545Y-90682823D01*
X154223084Y-90649053D01*
X154391934Y-90649053D01*
X154459474Y-90682823D01*
X154493244Y-90716593D01*
X154527014Y-90784133D01*
X154527014Y-90952982D01*
X154493244Y-91020522D01*
X154459474Y-91054292D01*
D10*
%TO.C,R18*%
X134913386Y-108969925D02*
X134667611Y-109141967D01*
X134913386Y-109264855D02*
X134397258Y-109264855D01*
X134397258Y-109068235D01*
X134421836Y-109019080D01*
X134446413Y-108994502D01*
X134495568Y-108969925D01*
X134569301Y-108969925D01*
X134618456Y-108994502D01*
X134643033Y-109019080D01*
X134667611Y-109068235D01*
X134667611Y-109264855D01*
X134913386Y-108478374D02*
X134913386Y-108773305D01*
X134913386Y-108625839D02*
X134397258Y-108625839D01*
X134470991Y-108674995D01*
X134520146Y-108724150D01*
X134544723Y-108773305D01*
X134618456Y-108183444D02*
X134593878Y-108232599D01*
X134569301Y-108257177D01*
X134520146Y-108281754D01*
X134495568Y-108281754D01*
X134446413Y-108257177D01*
X134421836Y-108232599D01*
X134397258Y-108183444D01*
X134397258Y-108085134D01*
X134421836Y-108035979D01*
X134446413Y-108011401D01*
X134495568Y-107986824D01*
X134520146Y-107986824D01*
X134569301Y-108011401D01*
X134593878Y-108035979D01*
X134618456Y-108085134D01*
X134618456Y-108183444D01*
X134643033Y-108232599D01*
X134667611Y-108257177D01*
X134716766Y-108281754D01*
X134815076Y-108281754D01*
X134864231Y-108257177D01*
X134888808Y-108232599D01*
X134913386Y-108183444D01*
X134913386Y-108085134D01*
X134888808Y-108035979D01*
X134864231Y-108011401D01*
X134815076Y-107986824D01*
X134716766Y-107986824D01*
X134667611Y-108011401D01*
X134643033Y-108035979D01*
X134618456Y-108085134D01*
%TO.C,C52*%
X163121831Y-129958367D02*
X163146408Y-129982945D01*
X163170986Y-130056677D01*
X163170986Y-130105832D01*
X163146408Y-130179565D01*
X163097253Y-130228720D01*
X163048098Y-130253298D01*
X162949788Y-130277875D01*
X162876056Y-130277875D01*
X162777746Y-130253298D01*
X162728591Y-130228720D01*
X162679436Y-130179565D01*
X162654858Y-130105832D01*
X162654858Y-130056677D01*
X162679436Y-129982945D01*
X162704013Y-129958367D01*
X162654858Y-129491394D02*
X162654858Y-129737170D01*
X162900633Y-129761747D01*
X162876056Y-129737170D01*
X162851478Y-129688015D01*
X162851478Y-129565127D01*
X162876056Y-129515972D01*
X162900633Y-129491394D01*
X162949788Y-129466817D01*
X163072676Y-129466817D01*
X163121831Y-129491394D01*
X163146408Y-129515972D01*
X163170986Y-129565127D01*
X163170986Y-129688015D01*
X163146408Y-129737170D01*
X163121831Y-129761747D01*
X162704013Y-129270197D02*
X162679436Y-129245619D01*
X162654858Y-129196464D01*
X162654858Y-129073576D01*
X162679436Y-129024421D01*
X162704013Y-128999844D01*
X162753168Y-128975266D01*
X162802323Y-128975266D01*
X162876056Y-128999844D01*
X163170986Y-129294774D01*
X163170986Y-128975266D01*
%TO.C,R21*%
X161900786Y-109287525D02*
X161655011Y-109459567D01*
X161900786Y-109582455D02*
X161384658Y-109582455D01*
X161384658Y-109385835D01*
X161409236Y-109336680D01*
X161433813Y-109312102D01*
X161482968Y-109287525D01*
X161556701Y-109287525D01*
X161605856Y-109312102D01*
X161630433Y-109336680D01*
X161655011Y-109385835D01*
X161655011Y-109582455D01*
X161433813Y-109090905D02*
X161409236Y-109066327D01*
X161384658Y-109017172D01*
X161384658Y-108894284D01*
X161409236Y-108845129D01*
X161433813Y-108820552D01*
X161482968Y-108795974D01*
X161532123Y-108795974D01*
X161605856Y-108820552D01*
X161900786Y-109115482D01*
X161900786Y-108795974D01*
X161900786Y-108304424D02*
X161900786Y-108599354D01*
X161900786Y-108451889D02*
X161384658Y-108451889D01*
X161458391Y-108501044D01*
X161507546Y-108550199D01*
X161532123Y-108599354D01*
%TO.C,C45*%
X165162274Y-115189231D02*
X165137697Y-115213808D01*
X165063964Y-115238386D01*
X165014809Y-115238386D01*
X164941076Y-115213808D01*
X164891921Y-115164653D01*
X164867344Y-115115498D01*
X164842766Y-115017188D01*
X164842766Y-114943456D01*
X164867344Y-114845146D01*
X164891921Y-114795991D01*
X164941076Y-114746836D01*
X165014809Y-114722258D01*
X165063964Y-114722258D01*
X165137697Y-114746836D01*
X165162274Y-114771413D01*
X165604670Y-114894301D02*
X165604670Y-115238386D01*
X165481782Y-114697680D02*
X165358894Y-115066343D01*
X165678402Y-115066343D01*
X166120798Y-114722258D02*
X165875022Y-114722258D01*
X165850445Y-114968033D01*
X165875022Y-114943456D01*
X165924177Y-114918878D01*
X166047065Y-114918878D01*
X166096220Y-114943456D01*
X166120798Y-114968033D01*
X166145375Y-115017188D01*
X166145375Y-115140076D01*
X166120798Y-115189231D01*
X166096220Y-115213808D01*
X166047065Y-115238386D01*
X165924177Y-115238386D01*
X165875022Y-115213808D01*
X165850445Y-115189231D01*
%TO.C,C61*%
X143278031Y-153420125D02*
X143302608Y-153444702D01*
X143327186Y-153518435D01*
X143327186Y-153567590D01*
X143302608Y-153641323D01*
X143253453Y-153690478D01*
X143204298Y-153715055D01*
X143105988Y-153739633D01*
X143032256Y-153739633D01*
X142933946Y-153715055D01*
X142884791Y-153690478D01*
X142835636Y-153641323D01*
X142811058Y-153567590D01*
X142811058Y-153518435D01*
X142835636Y-153444702D01*
X142860213Y-153420125D01*
X142811058Y-152977729D02*
X142811058Y-153076039D01*
X142835636Y-153125195D01*
X142860213Y-153149772D01*
X142933946Y-153198927D01*
X143032256Y-153223505D01*
X143228876Y-153223505D01*
X143278031Y-153198927D01*
X143302608Y-153174350D01*
X143327186Y-153125195D01*
X143327186Y-153026884D01*
X143302608Y-152977729D01*
X143278031Y-152953152D01*
X143228876Y-152928574D01*
X143105988Y-152928574D01*
X143056833Y-152953152D01*
X143032256Y-152977729D01*
X143007678Y-153026884D01*
X143007678Y-153125195D01*
X143032256Y-153174350D01*
X143056833Y-153198927D01*
X143105988Y-153223505D01*
X143327186Y-152437024D02*
X143327186Y-152731954D01*
X143327186Y-152584489D02*
X142811058Y-152584489D01*
X142884791Y-152633644D01*
X142933946Y-152682799D01*
X142958523Y-152731954D01*
%TO.C,R12*%
X159043186Y-104842525D02*
X158797411Y-105014567D01*
X159043186Y-105137455D02*
X158527058Y-105137455D01*
X158527058Y-104940835D01*
X158551636Y-104891680D01*
X158576213Y-104867102D01*
X158625368Y-104842525D01*
X158699101Y-104842525D01*
X158748256Y-104867102D01*
X158772833Y-104891680D01*
X158797411Y-104940835D01*
X158797411Y-105137455D01*
X159043186Y-104350974D02*
X159043186Y-104645905D01*
X159043186Y-104498439D02*
X158527058Y-104498439D01*
X158600791Y-104547595D01*
X158649946Y-104596750D01*
X158674523Y-104645905D01*
X158576213Y-104154354D02*
X158551636Y-104129777D01*
X158527058Y-104080622D01*
X158527058Y-103957734D01*
X158551636Y-103908579D01*
X158576213Y-103884001D01*
X158625368Y-103859424D01*
X158674523Y-103859424D01*
X158748256Y-103884001D01*
X159043186Y-104178932D01*
X159043186Y-103859424D01*
%TO.C,C58*%
X168304132Y-145351631D02*
X168279554Y-145376208D01*
X168205822Y-145400786D01*
X168156667Y-145400786D01*
X168082934Y-145376208D01*
X168033779Y-145327053D01*
X168009201Y-145277898D01*
X167984624Y-145179588D01*
X167984624Y-145105856D01*
X168009201Y-145007546D01*
X168033779Y-144958391D01*
X168082934Y-144909236D01*
X168156667Y-144884658D01*
X168205822Y-144884658D01*
X168279554Y-144909236D01*
X168304132Y-144933813D01*
X168771105Y-144884658D02*
X168525329Y-144884658D01*
X168500752Y-145130433D01*
X168525329Y-145105856D01*
X168574484Y-145081278D01*
X168697372Y-145081278D01*
X168746527Y-145105856D01*
X168771105Y-145130433D01*
X168795682Y-145179588D01*
X168795682Y-145302476D01*
X168771105Y-145351631D01*
X168746527Y-145376208D01*
X168697372Y-145400786D01*
X168574484Y-145400786D01*
X168525329Y-145376208D01*
X168500752Y-145351631D01*
X169090612Y-145105856D02*
X169041457Y-145081278D01*
X169016880Y-145056701D01*
X168992302Y-145007546D01*
X168992302Y-144982968D01*
X169016880Y-144933813D01*
X169041457Y-144909236D01*
X169090612Y-144884658D01*
X169188923Y-144884658D01*
X169238078Y-144909236D01*
X169262655Y-144933813D01*
X169287233Y-144982968D01*
X169287233Y-145007546D01*
X169262655Y-145056701D01*
X169238078Y-145081278D01*
X169188923Y-145105856D01*
X169090612Y-145105856D01*
X169041457Y-145130433D01*
X169016880Y-145155011D01*
X168992302Y-145204166D01*
X168992302Y-145302476D01*
X169016880Y-145351631D01*
X169041457Y-145376208D01*
X169090612Y-145400786D01*
X169188923Y-145400786D01*
X169238078Y-145376208D01*
X169262655Y-145351631D01*
X169287233Y-145302476D01*
X169287233Y-145204166D01*
X169262655Y-145155011D01*
X169238078Y-145130433D01*
X169188923Y-145105856D01*
%TO.C,R44*%
X165061784Y-118235838D02*
X164669608Y-117675587D01*
X164389482Y-118235838D02*
X164389482Y-117059310D01*
X164837683Y-117059310D01*
X164949733Y-117115336D01*
X165005759Y-117171361D01*
X165061784Y-117283411D01*
X165061784Y-117451486D01*
X165005759Y-117563537D01*
X164949733Y-117619562D01*
X164837683Y-117675587D01*
X164389482Y-117675587D01*
X166070236Y-117451486D02*
X166070236Y-118235838D01*
X165790111Y-117003285D02*
X165509985Y-117843662D01*
X166238312Y-117843662D01*
X167190739Y-117451486D02*
X167190739Y-118235838D01*
X166910613Y-117003285D02*
X166630488Y-117843662D01*
X167358815Y-117843662D01*
%TO.C,C9*%
X137380974Y-76771631D02*
X137356397Y-76796208D01*
X137282664Y-76820786D01*
X137233509Y-76820786D01*
X137159776Y-76796208D01*
X137110621Y-76747053D01*
X137086044Y-76697898D01*
X137061466Y-76599588D01*
X137061466Y-76525856D01*
X137086044Y-76427546D01*
X137110621Y-76378391D01*
X137159776Y-76329236D01*
X137233509Y-76304658D01*
X137282664Y-76304658D01*
X137356397Y-76329236D01*
X137380974Y-76353813D01*
X137626749Y-76820786D02*
X137725060Y-76820786D01*
X137774215Y-76796208D01*
X137798792Y-76771631D01*
X137847947Y-76697898D01*
X137872525Y-76599588D01*
X137872525Y-76402968D01*
X137847947Y-76353813D01*
X137823370Y-76329236D01*
X137774215Y-76304658D01*
X137675904Y-76304658D01*
X137626749Y-76329236D01*
X137602172Y-76353813D01*
X137577594Y-76402968D01*
X137577594Y-76525856D01*
X137602172Y-76575011D01*
X137626749Y-76599588D01*
X137675904Y-76624166D01*
X137774215Y-76624166D01*
X137823370Y-76599588D01*
X137847947Y-76575011D01*
X137872525Y-76525856D01*
%TO.C,C28*%
X161828374Y-94551631D02*
X161803797Y-94576208D01*
X161730064Y-94600786D01*
X161680909Y-94600786D01*
X161607176Y-94576208D01*
X161558021Y-94527053D01*
X161533444Y-94477898D01*
X161508866Y-94379588D01*
X161508866Y-94305856D01*
X161533444Y-94207546D01*
X161558021Y-94158391D01*
X161607176Y-94109236D01*
X161680909Y-94084658D01*
X161730064Y-94084658D01*
X161803797Y-94109236D01*
X161828374Y-94133813D01*
X162024994Y-94133813D02*
X162049572Y-94109236D01*
X162098727Y-94084658D01*
X162221615Y-94084658D01*
X162270770Y-94109236D01*
X162295347Y-94133813D01*
X162319925Y-94182968D01*
X162319925Y-94232123D01*
X162295347Y-94305856D01*
X162000417Y-94600786D01*
X162319925Y-94600786D01*
X162614855Y-94305856D02*
X162565700Y-94281278D01*
X162541122Y-94256701D01*
X162516545Y-94207546D01*
X162516545Y-94182968D01*
X162541122Y-94133813D01*
X162565700Y-94109236D01*
X162614855Y-94084658D01*
X162713165Y-94084658D01*
X162762320Y-94109236D01*
X162786898Y-94133813D01*
X162811475Y-94182968D01*
X162811475Y-94207546D01*
X162786898Y-94256701D01*
X162762320Y-94281278D01*
X162713165Y-94305856D01*
X162614855Y-94305856D01*
X162565700Y-94330433D01*
X162541122Y-94355011D01*
X162516545Y-94404166D01*
X162516545Y-94502476D01*
X162541122Y-94551631D01*
X162565700Y-94576208D01*
X162614855Y-94600786D01*
X162713165Y-94600786D01*
X162762320Y-94576208D01*
X162786898Y-94551631D01*
X162811475Y-94502476D01*
X162811475Y-94404166D01*
X162786898Y-94355011D01*
X162762320Y-94330433D01*
X162713165Y-94305856D01*
%TO.C,C41*%
X154390431Y-108970125D02*
X154415008Y-108994702D01*
X154439586Y-109068435D01*
X154439586Y-109117590D01*
X154415008Y-109191323D01*
X154365853Y-109240478D01*
X154316698Y-109265055D01*
X154218388Y-109289633D01*
X154144656Y-109289633D01*
X154046346Y-109265055D01*
X153997191Y-109240478D01*
X153948036Y-109191323D01*
X153923458Y-109117590D01*
X153923458Y-109068435D01*
X153948036Y-108994702D01*
X153972613Y-108970125D01*
X154095501Y-108527729D02*
X154439586Y-108527729D01*
X153898880Y-108650617D02*
X154267543Y-108773505D01*
X154267543Y-108453997D01*
X154439586Y-107987024D02*
X154439586Y-108281954D01*
X154439586Y-108134489D02*
X153923458Y-108134489D01*
X153997191Y-108183644D01*
X154046346Y-108232799D01*
X154070923Y-108281954D01*
%TO.C,R10*%
X123800886Y-105953725D02*
X123555111Y-106125767D01*
X123800886Y-106248655D02*
X123284758Y-106248655D01*
X123284758Y-106052035D01*
X123309336Y-106002880D01*
X123333913Y-105978302D01*
X123383068Y-105953725D01*
X123456801Y-105953725D01*
X123505956Y-105978302D01*
X123530533Y-106002880D01*
X123555111Y-106052035D01*
X123555111Y-106248655D01*
X123800886Y-105462174D02*
X123800886Y-105757105D01*
X123800886Y-105609639D02*
X123284758Y-105609639D01*
X123358491Y-105658795D01*
X123407646Y-105707950D01*
X123432223Y-105757105D01*
X123284758Y-105142667D02*
X123284758Y-105093511D01*
X123309336Y-105044356D01*
X123333913Y-105019779D01*
X123383068Y-104995201D01*
X123481378Y-104970624D01*
X123604266Y-104970624D01*
X123702576Y-104995201D01*
X123751731Y-105019779D01*
X123776308Y-105044356D01*
X123800886Y-105093511D01*
X123800886Y-105142667D01*
X123776308Y-105191822D01*
X123751731Y-105216399D01*
X123702576Y-105240977D01*
X123604266Y-105265554D01*
X123481378Y-105265554D01*
X123383068Y-105240977D01*
X123333913Y-105216399D01*
X123309336Y-105191822D01*
X123284758Y-105142667D01*
%TO.C,R29*%
X140046332Y-113809586D02*
X139874289Y-113563811D01*
X139751401Y-113809586D02*
X139751401Y-113293458D01*
X139948022Y-113293458D01*
X139997177Y-113318036D01*
X140021754Y-113342613D01*
X140046332Y-113391768D01*
X140046332Y-113465501D01*
X140021754Y-113514656D01*
X139997177Y-113539233D01*
X139948022Y-113563811D01*
X139751401Y-113563811D01*
X140242952Y-113342613D02*
X140267529Y-113318036D01*
X140316684Y-113293458D01*
X140439572Y-113293458D01*
X140488727Y-113318036D01*
X140513305Y-113342613D01*
X140537882Y-113391768D01*
X140537882Y-113440923D01*
X140513305Y-113514656D01*
X140218374Y-113809586D01*
X140537882Y-113809586D01*
X140783657Y-113809586D02*
X140881967Y-113809586D01*
X140931123Y-113785008D01*
X140955700Y-113760431D01*
X141004855Y-113686698D01*
X141029433Y-113588388D01*
X141029433Y-113391768D01*
X141004855Y-113342613D01*
X140980278Y-113318036D01*
X140931123Y-113293458D01*
X140832812Y-113293458D01*
X140783657Y-113318036D01*
X140759080Y-113342613D01*
X140734502Y-113391768D01*
X140734502Y-113514656D01*
X140759080Y-113563811D01*
X140783657Y-113588388D01*
X140832812Y-113612966D01*
X140931123Y-113612966D01*
X140980278Y-113588388D01*
X141004855Y-113563811D01*
X141029433Y-113514656D01*
%TO.C,C21*%
X125600232Y-88836731D02*
X125575654Y-88861308D01*
X125501922Y-88885886D01*
X125452767Y-88885886D01*
X125379034Y-88861308D01*
X125329879Y-88812153D01*
X125305301Y-88762998D01*
X125280724Y-88664688D01*
X125280724Y-88590956D01*
X125305301Y-88492646D01*
X125329879Y-88443491D01*
X125379034Y-88394336D01*
X125452767Y-88369758D01*
X125501922Y-88369758D01*
X125575654Y-88394336D01*
X125600232Y-88418913D01*
X125796852Y-88418913D02*
X125821429Y-88394336D01*
X125870584Y-88369758D01*
X125993472Y-88369758D01*
X126042627Y-88394336D01*
X126067205Y-88418913D01*
X126091782Y-88468068D01*
X126091782Y-88517223D01*
X126067205Y-88590956D01*
X125772274Y-88885886D01*
X126091782Y-88885886D01*
X126583333Y-88885886D02*
X126288402Y-88885886D01*
X126435867Y-88885886D02*
X126435867Y-88369758D01*
X126386712Y-88443491D01*
X126337557Y-88492646D01*
X126288402Y-88517223D01*
%TO.C,C34*%
X166875132Y-107569131D02*
X166850554Y-107593708D01*
X166776822Y-107618286D01*
X166727667Y-107618286D01*
X166653934Y-107593708D01*
X166604779Y-107544553D01*
X166580201Y-107495398D01*
X166555624Y-107397088D01*
X166555624Y-107323356D01*
X166580201Y-107225046D01*
X166604779Y-107175891D01*
X166653934Y-107126736D01*
X166727667Y-107102158D01*
X166776822Y-107102158D01*
X166850554Y-107126736D01*
X166875132Y-107151313D01*
X167047174Y-107102158D02*
X167366682Y-107102158D01*
X167194639Y-107298778D01*
X167268372Y-107298778D01*
X167317527Y-107323356D01*
X167342105Y-107347933D01*
X167366682Y-107397088D01*
X167366682Y-107519976D01*
X167342105Y-107569131D01*
X167317527Y-107593708D01*
X167268372Y-107618286D01*
X167120907Y-107618286D01*
X167071752Y-107593708D01*
X167047174Y-107569131D01*
X167809078Y-107274201D02*
X167809078Y-107618286D01*
X167686190Y-107077580D02*
X167563302Y-107446243D01*
X167882810Y-107446243D01*
%TO.C,R15*%
X140046432Y-109999586D02*
X139874389Y-109753811D01*
X139751501Y-109999586D02*
X139751501Y-109483458D01*
X139948122Y-109483458D01*
X139997277Y-109508036D01*
X140021854Y-109532613D01*
X140046432Y-109581768D01*
X140046432Y-109655501D01*
X140021854Y-109704656D01*
X139997277Y-109729233D01*
X139948122Y-109753811D01*
X139751501Y-109753811D01*
X140537982Y-109999586D02*
X140243052Y-109999586D01*
X140390517Y-109999586D02*
X140390517Y-109483458D01*
X140341362Y-109557191D01*
X140292207Y-109606346D01*
X140243052Y-109630923D01*
X141004955Y-109483458D02*
X140759180Y-109483458D01*
X140734602Y-109729233D01*
X140759180Y-109704656D01*
X140808335Y-109680078D01*
X140931223Y-109680078D01*
X140980378Y-109704656D01*
X141004955Y-109729233D01*
X141029533Y-109778388D01*
X141029533Y-109901276D01*
X141004955Y-109950431D01*
X140980378Y-109975008D01*
X140931223Y-109999586D01*
X140808335Y-109999586D01*
X140759180Y-109975008D01*
X140734602Y-109950431D01*
%TO.C,C32*%
X130237174Y-107092931D02*
X130212597Y-107117508D01*
X130138864Y-107142086D01*
X130089709Y-107142086D01*
X130015976Y-107117508D01*
X129966821Y-107068353D01*
X129942244Y-107019198D01*
X129917666Y-106920888D01*
X129917666Y-106847156D01*
X129942244Y-106748846D01*
X129966821Y-106699691D01*
X130015976Y-106650536D01*
X130089709Y-106625958D01*
X130138864Y-106625958D01*
X130212597Y-106650536D01*
X130237174Y-106675113D01*
X130409217Y-106625958D02*
X130728725Y-106625958D01*
X130556682Y-106822578D01*
X130630415Y-106822578D01*
X130679570Y-106847156D01*
X130704147Y-106871733D01*
X130728725Y-106920888D01*
X130728725Y-107043776D01*
X130704147Y-107092931D01*
X130679570Y-107117508D01*
X130630415Y-107142086D01*
X130482949Y-107142086D01*
X130433794Y-107117508D01*
X130409217Y-107092931D01*
X130925345Y-106675113D02*
X130949922Y-106650536D01*
X130999077Y-106625958D01*
X131121965Y-106625958D01*
X131171120Y-106650536D01*
X131195698Y-106675113D01*
X131220275Y-106724268D01*
X131220275Y-106773423D01*
X131195698Y-106847156D01*
X130900767Y-107142086D01*
X131220275Y-107142086D01*
%TO.C,C50*%
X160366432Y-116459131D02*
X160341854Y-116483708D01*
X160268122Y-116508286D01*
X160218967Y-116508286D01*
X160145234Y-116483708D01*
X160096079Y-116434553D01*
X160071501Y-116385398D01*
X160046924Y-116287088D01*
X160046924Y-116213356D01*
X160071501Y-116115046D01*
X160096079Y-116065891D01*
X160145234Y-116016736D01*
X160218967Y-115992158D01*
X160268122Y-115992158D01*
X160341854Y-116016736D01*
X160366432Y-116041313D01*
X160833405Y-115992158D02*
X160587629Y-115992158D01*
X160563052Y-116237933D01*
X160587629Y-116213356D01*
X160636784Y-116188778D01*
X160759672Y-116188778D01*
X160808827Y-116213356D01*
X160833405Y-116237933D01*
X160857982Y-116287088D01*
X160857982Y-116409976D01*
X160833405Y-116459131D01*
X160808827Y-116483708D01*
X160759672Y-116508286D01*
X160636784Y-116508286D01*
X160587629Y-116483708D01*
X160563052Y-116459131D01*
X161177490Y-115992158D02*
X161226645Y-115992158D01*
X161275800Y-116016736D01*
X161300378Y-116041313D01*
X161324955Y-116090468D01*
X161349533Y-116188778D01*
X161349533Y-116311666D01*
X161324955Y-116409976D01*
X161300378Y-116459131D01*
X161275800Y-116483708D01*
X161226645Y-116508286D01*
X161177490Y-116508286D01*
X161128335Y-116483708D01*
X161103757Y-116459131D01*
X161079180Y-116409976D01*
X161054602Y-116311666D01*
X161054602Y-116188778D01*
X161079180Y-116090468D01*
X161103757Y-116041313D01*
X161128335Y-116016736D01*
X161177490Y-115992158D01*
%TO.C,C19*%
X128990531Y-88048167D02*
X129015108Y-88072745D01*
X129039686Y-88146477D01*
X129039686Y-88195632D01*
X129015108Y-88269365D01*
X128965953Y-88318520D01*
X128916798Y-88343098D01*
X128818488Y-88367675D01*
X128744756Y-88367675D01*
X128646446Y-88343098D01*
X128597291Y-88318520D01*
X128548136Y-88269365D01*
X128523558Y-88195632D01*
X128523558Y-88146477D01*
X128548136Y-88072745D01*
X128572713Y-88048167D01*
X129039686Y-87556617D02*
X129039686Y-87851547D01*
X129039686Y-87704082D02*
X128523558Y-87704082D01*
X128597291Y-87753237D01*
X128646446Y-87802392D01*
X128671023Y-87851547D01*
X129039686Y-87310842D02*
X129039686Y-87212532D01*
X129015108Y-87163376D01*
X128990531Y-87138799D01*
X128916798Y-87089644D01*
X128818488Y-87065066D01*
X128621868Y-87065066D01*
X128572713Y-87089644D01*
X128548136Y-87114221D01*
X128523558Y-87163376D01*
X128523558Y-87261687D01*
X128548136Y-87310842D01*
X128572713Y-87335419D01*
X128621868Y-87359997D01*
X128744756Y-87359997D01*
X128793911Y-87335419D01*
X128818488Y-87310842D01*
X128843066Y-87261687D01*
X128843066Y-87163376D01*
X128818488Y-87114221D01*
X128793911Y-87089644D01*
X128744756Y-87065066D01*
%TO.C,R23*%
X140046432Y-111269586D02*
X139874389Y-111023811D01*
X139751501Y-111269586D02*
X139751501Y-110753458D01*
X139948122Y-110753458D01*
X139997277Y-110778036D01*
X140021854Y-110802613D01*
X140046432Y-110851768D01*
X140046432Y-110925501D01*
X140021854Y-110974656D01*
X139997277Y-110999233D01*
X139948122Y-111023811D01*
X139751501Y-111023811D01*
X140243052Y-110802613D02*
X140267629Y-110778036D01*
X140316784Y-110753458D01*
X140439672Y-110753458D01*
X140488827Y-110778036D01*
X140513405Y-110802613D01*
X140537982Y-110851768D01*
X140537982Y-110900923D01*
X140513405Y-110974656D01*
X140218474Y-111269586D01*
X140537982Y-111269586D01*
X140710025Y-110753458D02*
X141029533Y-110753458D01*
X140857490Y-110950078D01*
X140931223Y-110950078D01*
X140980378Y-110974656D01*
X141004955Y-110999233D01*
X141029533Y-111048388D01*
X141029533Y-111171276D01*
X141004955Y-111220431D01*
X140980378Y-111245008D01*
X140931223Y-111269586D01*
X140783757Y-111269586D01*
X140734602Y-111245008D01*
X140710025Y-111220431D01*
D15*
%TO.C,IC9*%
X159733310Y-111733204D02*
X159095770Y-111733204D01*
X159672592Y-111065305D02*
X159702951Y-111095664D01*
X159733310Y-111186741D01*
X159733310Y-111247459D01*
X159702951Y-111338536D01*
X159642233Y-111399254D01*
X159581515Y-111429614D01*
X159460079Y-111459973D01*
X159369002Y-111459973D01*
X159247566Y-111429614D01*
X159186848Y-111399254D01*
X159126130Y-111338536D01*
X159095770Y-111247459D01*
X159095770Y-111186741D01*
X159126130Y-111095664D01*
X159156489Y-111065305D01*
X159733310Y-110761714D02*
X159733310Y-110640278D01*
X159702951Y-110579560D01*
X159672592Y-110549201D01*
X159581515Y-110488483D01*
X159460079Y-110458124D01*
X159217207Y-110458124D01*
X159156489Y-110488483D01*
X159126130Y-110518842D01*
X159095770Y-110579560D01*
X159095770Y-110700996D01*
X159126130Y-110761714D01*
X159156489Y-110792074D01*
X159217207Y-110822433D01*
X159369002Y-110822433D01*
X159429720Y-110792074D01*
X159460079Y-110761714D01*
X159490438Y-110700996D01*
X159490438Y-110579560D01*
X159460079Y-110518842D01*
X159429720Y-110488483D01*
X159369002Y-110458124D01*
D10*
%TO.C,C2*%
X138039231Y-56759217D02*
X138063808Y-56783794D01*
X138088386Y-56857527D01*
X138088386Y-56906682D01*
X138063808Y-56980415D01*
X138014653Y-57029570D01*
X137965498Y-57054147D01*
X137867188Y-57078725D01*
X137793456Y-57078725D01*
X137695146Y-57054147D01*
X137645991Y-57029570D01*
X137596836Y-56980415D01*
X137572258Y-56906682D01*
X137572258Y-56857527D01*
X137596836Y-56783794D01*
X137621413Y-56759217D01*
X137621413Y-56562597D02*
X137596836Y-56538019D01*
X137572258Y-56488864D01*
X137572258Y-56365976D01*
X137596836Y-56316821D01*
X137621413Y-56292244D01*
X137670568Y-56267666D01*
X137719723Y-56267666D01*
X137793456Y-56292244D01*
X138088386Y-56587174D01*
X138088386Y-56267666D01*
%TO.C,R51*%
X143009586Y-145482525D02*
X142763811Y-145654567D01*
X143009586Y-145777455D02*
X142493458Y-145777455D01*
X142493458Y-145580835D01*
X142518036Y-145531680D01*
X142542613Y-145507102D01*
X142591768Y-145482525D01*
X142665501Y-145482525D01*
X142714656Y-145507102D01*
X142739233Y-145531680D01*
X142763811Y-145580835D01*
X142763811Y-145777455D01*
X142493458Y-145015552D02*
X142493458Y-145261327D01*
X142739233Y-145285905D01*
X142714656Y-145261327D01*
X142690078Y-145212172D01*
X142690078Y-145089284D01*
X142714656Y-145040129D01*
X142739233Y-145015552D01*
X142788388Y-144990974D01*
X142911276Y-144990974D01*
X142960431Y-145015552D01*
X142985008Y-145040129D01*
X143009586Y-145089284D01*
X143009586Y-145212172D01*
X142985008Y-145261327D01*
X142960431Y-145285905D01*
X143009586Y-144499424D02*
X143009586Y-144794354D01*
X143009586Y-144646889D02*
X142493458Y-144646889D01*
X142567191Y-144696044D01*
X142616346Y-144745199D01*
X142640923Y-144794354D01*
%TO.C,C11*%
X129410132Y-80264231D02*
X129385554Y-80288808D01*
X129311822Y-80313386D01*
X129262667Y-80313386D01*
X129188934Y-80288808D01*
X129139779Y-80239653D01*
X129115201Y-80190498D01*
X129090624Y-80092188D01*
X129090624Y-80018456D01*
X129115201Y-79920146D01*
X129139779Y-79870991D01*
X129188934Y-79821836D01*
X129262667Y-79797258D01*
X129311822Y-79797258D01*
X129385554Y-79821836D01*
X129410132Y-79846413D01*
X129901682Y-80313386D02*
X129606752Y-80313386D01*
X129754217Y-80313386D02*
X129754217Y-79797258D01*
X129705062Y-79870991D01*
X129655907Y-79920146D01*
X129606752Y-79944723D01*
X130393233Y-80313386D02*
X130098302Y-80313386D01*
X130245767Y-80313386D02*
X130245767Y-79797258D01*
X130196612Y-79870991D01*
X130147457Y-79920146D01*
X130098302Y-79944723D01*
%TO.C,L1*%
X134791719Y-52849586D02*
X134545944Y-52849586D01*
X134545944Y-52333458D01*
X135234115Y-52849586D02*
X134939184Y-52849586D01*
X135086649Y-52849586D02*
X135086649Y-52333458D01*
X135037494Y-52407191D01*
X134988339Y-52456346D01*
X134939184Y-52480923D01*
D17*
%TO.C,IC4*%
X131930660Y-88873934D02*
X131930660Y-88033194D01*
X132811435Y-88793864D02*
X132771400Y-88833899D01*
X132651294Y-88873934D01*
X132571223Y-88873934D01*
X132451118Y-88833899D01*
X132371047Y-88753829D01*
X132331012Y-88673758D01*
X132290977Y-88513617D01*
X132290977Y-88393511D01*
X132331012Y-88233370D01*
X132371047Y-88153300D01*
X132451118Y-88073230D01*
X132571223Y-88033194D01*
X132651294Y-88033194D01*
X132771400Y-88073230D01*
X132811435Y-88113265D01*
X133532069Y-88313441D02*
X133532069Y-88873934D01*
X133331893Y-87993159D02*
X133131717Y-88593688D01*
X133652175Y-88593688D01*
D10*
%TO.C,C24*%
X138859232Y-91217831D02*
X138834654Y-91242408D01*
X138760922Y-91266986D01*
X138711767Y-91266986D01*
X138638034Y-91242408D01*
X138588879Y-91193253D01*
X138564301Y-91144098D01*
X138539724Y-91045788D01*
X138539724Y-90972056D01*
X138564301Y-90873746D01*
X138588879Y-90824591D01*
X138638034Y-90775436D01*
X138711767Y-90750858D01*
X138760922Y-90750858D01*
X138834654Y-90775436D01*
X138859232Y-90800013D01*
X139055852Y-90800013D02*
X139080429Y-90775436D01*
X139129584Y-90750858D01*
X139252472Y-90750858D01*
X139301627Y-90775436D01*
X139326205Y-90800013D01*
X139350782Y-90849168D01*
X139350782Y-90898323D01*
X139326205Y-90972056D01*
X139031274Y-91266986D01*
X139350782Y-91266986D01*
X139793178Y-90922901D02*
X139793178Y-91266986D01*
X139670290Y-90726280D02*
X139547402Y-91094943D01*
X139866910Y-91094943D01*
%TO.C,J10*%
X165865610Y-150101566D02*
X166705988Y-150101566D01*
X166874063Y-150157591D01*
X166986113Y-150269642D01*
X167042138Y-150437717D01*
X167042138Y-150549767D01*
X167042138Y-148925038D02*
X167042138Y-149597340D01*
X167042138Y-149261189D02*
X165865610Y-149261189D01*
X166033686Y-149373239D01*
X166145736Y-149485290D01*
X166201761Y-149597340D01*
X165865610Y-148196711D02*
X165865610Y-148084661D01*
X165921636Y-147972611D01*
X165977661Y-147916586D01*
X166089711Y-147860560D01*
X166313812Y-147804535D01*
X166593937Y-147804535D01*
X166818038Y-147860560D01*
X166930088Y-147916586D01*
X166986113Y-147972611D01*
X167042138Y-148084661D01*
X167042138Y-148196711D01*
X166986113Y-148308762D01*
X166930088Y-148364787D01*
X166818038Y-148420812D01*
X166593937Y-148476837D01*
X166313812Y-148476837D01*
X166089711Y-148420812D01*
X165977661Y-148364787D01*
X165921636Y-148308762D01*
X165865610Y-148196711D01*
%TO.C,Q1*%
X123417517Y-85672022D02*
X123383264Y-85740530D01*
X123314756Y-85809037D01*
X123211995Y-85911798D01*
X123177741Y-85980306D01*
X123177741Y-86048813D01*
X123349010Y-86014559D02*
X123314756Y-86083067D01*
X123246249Y-86151574D01*
X123109234Y-86185828D01*
X122869458Y-86185828D01*
X122732443Y-86151574D01*
X122663936Y-86083067D01*
X122629682Y-86014559D01*
X122629682Y-85877544D01*
X122663936Y-85809037D01*
X122732443Y-85740530D01*
X122869458Y-85706276D01*
X123109234Y-85706276D01*
X123246249Y-85740530D01*
X123314756Y-85809037D01*
X123349010Y-85877544D01*
X123349010Y-86014559D01*
X123349010Y-85021202D02*
X123349010Y-85432246D01*
X123349010Y-85226724D02*
X122629682Y-85226724D01*
X122732443Y-85295231D01*
X122800950Y-85363739D01*
X122835204Y-85432246D01*
D14*
%TO.C,L5*%
X172736144Y-77160374D02*
X172467223Y-77160374D01*
X172467223Y-76595641D01*
X173193309Y-76595641D02*
X172924388Y-76595641D01*
X172897496Y-76864561D01*
X172924388Y-76837669D01*
X172978172Y-76810777D01*
X173112632Y-76810777D01*
X173166417Y-76837669D01*
X173193309Y-76864561D01*
X173220201Y-76918346D01*
X173220201Y-77052806D01*
X173193309Y-77106590D01*
X173166417Y-77133482D01*
X173112632Y-77160374D01*
X172978172Y-77160374D01*
X172924388Y-77133482D01*
X172897496Y-77106590D01*
D10*
%TO.C,C39*%
X133594231Y-108970025D02*
X133618808Y-108994602D01*
X133643386Y-109068335D01*
X133643386Y-109117490D01*
X133618808Y-109191223D01*
X133569653Y-109240378D01*
X133520498Y-109264955D01*
X133422188Y-109289533D01*
X133348456Y-109289533D01*
X133250146Y-109264955D01*
X133200991Y-109240378D01*
X133151836Y-109191223D01*
X133127258Y-109117490D01*
X133127258Y-109068335D01*
X133151836Y-108994602D01*
X133176413Y-108970025D01*
X133127258Y-108797982D02*
X133127258Y-108478474D01*
X133323878Y-108650517D01*
X133323878Y-108576784D01*
X133348456Y-108527629D01*
X133373033Y-108503052D01*
X133422188Y-108478474D01*
X133545076Y-108478474D01*
X133594231Y-108503052D01*
X133618808Y-108527629D01*
X133643386Y-108576784D01*
X133643386Y-108724250D01*
X133618808Y-108773405D01*
X133594231Y-108797982D01*
X133643386Y-108232699D02*
X133643386Y-108134389D01*
X133618808Y-108085234D01*
X133594231Y-108060656D01*
X133520498Y-108011501D01*
X133422188Y-107986924D01*
X133225568Y-107986924D01*
X133176413Y-108011501D01*
X133151836Y-108036079D01*
X133127258Y-108085234D01*
X133127258Y-108183544D01*
X133151836Y-108232699D01*
X133176413Y-108257277D01*
X133225568Y-108281854D01*
X133348456Y-108281854D01*
X133397611Y-108257277D01*
X133422188Y-108232699D01*
X133446766Y-108183544D01*
X133446766Y-108085234D01*
X133422188Y-108036079D01*
X133397611Y-108011501D01*
X133348456Y-107986924D01*
D12*
%TO.C,C7*%
X153672556Y-66138307D02*
X153647089Y-66163775D01*
X153570685Y-66189243D01*
X153519750Y-66189243D01*
X153443347Y-66163775D01*
X153392411Y-66112840D01*
X153366944Y-66061904D01*
X153341476Y-65960033D01*
X153341476Y-65883630D01*
X153366944Y-65781759D01*
X153392411Y-65730824D01*
X153443347Y-65679889D01*
X153519750Y-65654421D01*
X153570685Y-65654421D01*
X153647089Y-65679889D01*
X153672556Y-65705356D01*
X153850830Y-65654421D02*
X154207378Y-65654421D01*
X153978169Y-66189243D01*
D10*
%TO.C,C12*%
X165605232Y-80264231D02*
X165580654Y-80288808D01*
X165506922Y-80313386D01*
X165457767Y-80313386D01*
X165384034Y-80288808D01*
X165334879Y-80239653D01*
X165310301Y-80190498D01*
X165285724Y-80092188D01*
X165285724Y-80018456D01*
X165310301Y-79920146D01*
X165334879Y-79870991D01*
X165384034Y-79821836D01*
X165457767Y-79797258D01*
X165506922Y-79797258D01*
X165580654Y-79821836D01*
X165605232Y-79846413D01*
X166096782Y-80313386D02*
X165801852Y-80313386D01*
X165949317Y-80313386D02*
X165949317Y-79797258D01*
X165900162Y-79870991D01*
X165851007Y-79920146D01*
X165801852Y-79944723D01*
X166293402Y-79846413D02*
X166317980Y-79821836D01*
X166367135Y-79797258D01*
X166490023Y-79797258D01*
X166539178Y-79821836D01*
X166563755Y-79846413D01*
X166588333Y-79895568D01*
X166588333Y-79944723D01*
X166563755Y-80018456D01*
X166268825Y-80313386D01*
X166588333Y-80313386D01*
%TO.C,R33*%
X136659786Y-114877067D02*
X136414011Y-115049110D01*
X136659786Y-115171998D02*
X136143658Y-115171998D01*
X136143658Y-114975377D01*
X136168236Y-114926222D01*
X136192813Y-114901645D01*
X136241968Y-114877067D01*
X136315701Y-114877067D01*
X136364856Y-114901645D01*
X136389433Y-114926222D01*
X136414011Y-114975377D01*
X136414011Y-115171998D01*
X136143658Y-114705025D02*
X136143658Y-114385517D01*
X136340278Y-114557560D01*
X136340278Y-114483827D01*
X136364856Y-114434672D01*
X136389433Y-114410094D01*
X136438588Y-114385517D01*
X136561476Y-114385517D01*
X136610631Y-114410094D01*
X136635208Y-114434672D01*
X136659786Y-114483827D01*
X136659786Y-114631292D01*
X136635208Y-114680447D01*
X136610631Y-114705025D01*
X136143658Y-114213474D02*
X136143658Y-113893966D01*
X136340278Y-114066009D01*
X136340278Y-113992276D01*
X136364856Y-113943121D01*
X136389433Y-113918544D01*
X136438588Y-113893966D01*
X136561476Y-113893966D01*
X136610631Y-113918544D01*
X136635208Y-113943121D01*
X136659786Y-113992276D01*
X136659786Y-114139742D01*
X136635208Y-114188897D01*
X136610631Y-114213474D01*
D18*
%TO.C,IC7*%
X147928320Y-110192346D02*
X147928320Y-109516706D01*
X148636134Y-110128000D02*
X148603960Y-110160173D01*
X148507440Y-110192346D01*
X148443094Y-110192346D01*
X148346574Y-110160173D01*
X148282227Y-110095826D01*
X148250054Y-110031480D01*
X148217880Y-109902786D01*
X148217880Y-109806266D01*
X148250054Y-109677573D01*
X148282227Y-109613226D01*
X148346574Y-109548880D01*
X148443094Y-109516706D01*
X148507440Y-109516706D01*
X148603960Y-109548880D01*
X148636134Y-109581053D01*
X148861347Y-109516706D02*
X149311774Y-109516706D01*
X149022214Y-110192346D01*
D11*
%TO.C,LED7*%
X147480325Y-101216732D02*
X147121764Y-101216732D01*
X147121764Y-100463754D01*
X147731318Y-100822315D02*
X147982311Y-100822315D01*
X148089879Y-101216732D02*
X147731318Y-101216732D01*
X147731318Y-100463754D01*
X148089879Y-100463754D01*
X148412584Y-101216732D02*
X148412584Y-100463754D01*
X148591864Y-100463754D01*
X148699432Y-100499611D01*
X148771145Y-100571323D01*
X148807001Y-100643035D01*
X148842857Y-100786459D01*
X148842857Y-100894028D01*
X148807001Y-101037452D01*
X148771145Y-101109164D01*
X148699432Y-101180876D01*
X148591864Y-101216732D01*
X148412584Y-101216732D01*
X149093850Y-100463754D02*
X149595835Y-100463754D01*
X149273130Y-101216732D01*
D10*
%TO.C,J6*%
X120145610Y-148990366D02*
X120985988Y-148990366D01*
X121154063Y-149046391D01*
X121266113Y-149158442D01*
X121322138Y-149326517D01*
X121322138Y-149438567D01*
X120145610Y-147925888D02*
X120145610Y-148149989D01*
X120201636Y-148262039D01*
X120257661Y-148318064D01*
X120425736Y-148430115D01*
X120649837Y-148486140D01*
X121098038Y-148486140D01*
X121210088Y-148430115D01*
X121266113Y-148374090D01*
X121322138Y-148262039D01*
X121322138Y-148037939D01*
X121266113Y-147925888D01*
X121210088Y-147869863D01*
X121098038Y-147813838D01*
X120817912Y-147813838D01*
X120705862Y-147869863D01*
X120649837Y-147925888D01*
X120593812Y-148037939D01*
X120593812Y-148262039D01*
X120649837Y-148374090D01*
X120705862Y-148430115D01*
X120817912Y-148486140D01*
%TO.C,C27*%
X152961731Y-93888725D02*
X152986308Y-93913302D01*
X153010886Y-93987035D01*
X153010886Y-94036190D01*
X152986308Y-94109923D01*
X152937153Y-94159078D01*
X152887998Y-94183655D01*
X152789688Y-94208233D01*
X152715956Y-94208233D01*
X152617646Y-94183655D01*
X152568491Y-94159078D01*
X152519336Y-94109923D01*
X152494758Y-94036190D01*
X152494758Y-93987035D01*
X152519336Y-93913302D01*
X152543913Y-93888725D01*
X152543913Y-93692105D02*
X152519336Y-93667527D01*
X152494758Y-93618372D01*
X152494758Y-93495484D01*
X152519336Y-93446329D01*
X152543913Y-93421752D01*
X152593068Y-93397174D01*
X152642223Y-93397174D01*
X152715956Y-93421752D01*
X153010886Y-93716682D01*
X153010886Y-93397174D01*
X152494758Y-93225132D02*
X152494758Y-92881046D01*
X153010886Y-93102244D01*
%TO.C,R49*%
X144279586Y-146117425D02*
X144033811Y-146289467D01*
X144279586Y-146412355D02*
X143763458Y-146412355D01*
X143763458Y-146215735D01*
X143788036Y-146166580D01*
X143812613Y-146142002D01*
X143861768Y-146117425D01*
X143935501Y-146117425D01*
X143984656Y-146142002D01*
X144009233Y-146166580D01*
X144033811Y-146215735D01*
X144033811Y-146412355D01*
X143935501Y-145675029D02*
X144279586Y-145675029D01*
X143738880Y-145797917D02*
X144107543Y-145920805D01*
X144107543Y-145601297D01*
X144279586Y-145380099D02*
X144279586Y-145281789D01*
X144255008Y-145232634D01*
X144230431Y-145208056D01*
X144156698Y-145158901D01*
X144058388Y-145134324D01*
X143861768Y-145134324D01*
X143812613Y-145158901D01*
X143788036Y-145183479D01*
X143763458Y-145232634D01*
X143763458Y-145330944D01*
X143788036Y-145380099D01*
X143812613Y-145404677D01*
X143861768Y-145429254D01*
X143984656Y-145429254D01*
X144033811Y-145404677D01*
X144058388Y-145380099D01*
X144082966Y-145330944D01*
X144082966Y-145232634D01*
X144058388Y-145183479D01*
X144033811Y-145158901D01*
X143984656Y-145134324D01*
%TO.C,C43*%
X172805531Y-114718267D02*
X172830108Y-114742845D01*
X172854686Y-114816577D01*
X172854686Y-114865732D01*
X172830108Y-114939465D01*
X172780953Y-114988620D01*
X172731798Y-115013198D01*
X172633488Y-115037775D01*
X172559756Y-115037775D01*
X172461446Y-115013198D01*
X172412291Y-114988620D01*
X172363136Y-114939465D01*
X172338558Y-114865732D01*
X172338558Y-114816577D01*
X172363136Y-114742845D01*
X172387713Y-114718267D01*
X172510601Y-114275872D02*
X172854686Y-114275872D01*
X172313980Y-114398760D02*
X172682643Y-114521647D01*
X172682643Y-114202139D01*
X172338558Y-114054674D02*
X172338558Y-113735166D01*
X172535178Y-113907209D01*
X172535178Y-113833476D01*
X172559756Y-113784321D01*
X172584333Y-113759744D01*
X172633488Y-113735166D01*
X172756376Y-113735166D01*
X172805531Y-113759744D01*
X172830108Y-113784321D01*
X172854686Y-113833476D01*
X172854686Y-113980942D01*
X172830108Y-114030097D01*
X172805531Y-114054674D01*
D12*
%TO.C,C4*%
X163583452Y-59705879D02*
X163548308Y-59741023D01*
X163442876Y-59776167D01*
X163372588Y-59776167D01*
X163267156Y-59741023D01*
X163196869Y-59670735D01*
X163161725Y-59600447D01*
X163126581Y-59459871D01*
X163126581Y-59354440D01*
X163161725Y-59213864D01*
X163196869Y-59143576D01*
X163267156Y-59073289D01*
X163372588Y-59038145D01*
X163442876Y-59038145D01*
X163548308Y-59073289D01*
X163583452Y-59108432D01*
X164216042Y-59284152D02*
X164216042Y-59776167D01*
X164040322Y-59003001D02*
X163864603Y-59530159D01*
X164321474Y-59530159D01*
D10*
%TO.C,R28*%
X174283386Y-114718267D02*
X174037611Y-114890310D01*
X174283386Y-115013198D02*
X173767258Y-115013198D01*
X173767258Y-114816577D01*
X173791836Y-114767422D01*
X173816413Y-114742845D01*
X173865568Y-114718267D01*
X173939301Y-114718267D01*
X173988456Y-114742845D01*
X174013033Y-114767422D01*
X174037611Y-114816577D01*
X174037611Y-115013198D01*
X173816413Y-114521647D02*
X173791836Y-114497070D01*
X173767258Y-114447915D01*
X173767258Y-114325027D01*
X173791836Y-114275872D01*
X173816413Y-114251294D01*
X173865568Y-114226717D01*
X173914723Y-114226717D01*
X173988456Y-114251294D01*
X174283386Y-114546225D01*
X174283386Y-114226717D01*
X173988456Y-113931787D02*
X173963878Y-113980942D01*
X173939301Y-114005519D01*
X173890146Y-114030097D01*
X173865568Y-114030097D01*
X173816413Y-114005519D01*
X173791836Y-113980942D01*
X173767258Y-113931787D01*
X173767258Y-113833476D01*
X173791836Y-113784321D01*
X173816413Y-113759744D01*
X173865568Y-113735166D01*
X173890146Y-113735166D01*
X173939301Y-113759744D01*
X173963878Y-113784321D01*
X173988456Y-113833476D01*
X173988456Y-113931787D01*
X174013033Y-113980942D01*
X174037611Y-114005519D01*
X174086766Y-114030097D01*
X174185076Y-114030097D01*
X174234231Y-114005519D01*
X174258808Y-113980942D01*
X174283386Y-113931787D01*
X174283386Y-113833476D01*
X174258808Y-113784321D01*
X174234231Y-113759744D01*
X174185076Y-113735166D01*
X174086766Y-113735166D01*
X174037611Y-113759744D01*
X174013033Y-113784321D01*
X173988456Y-113833476D01*
%TO.C,R8*%
X165061784Y-94105838D02*
X164669608Y-93545587D01*
X164389482Y-94105838D02*
X164389482Y-92929310D01*
X164837683Y-92929310D01*
X164949733Y-92985336D01*
X165005759Y-93041361D01*
X165061784Y-93153411D01*
X165061784Y-93321486D01*
X165005759Y-93433537D01*
X164949733Y-93489562D01*
X164837683Y-93545587D01*
X164389482Y-93545587D01*
X165734085Y-93433537D02*
X165622035Y-93377512D01*
X165566010Y-93321486D01*
X165509985Y-93209436D01*
X165509985Y-93153411D01*
X165566010Y-93041361D01*
X165622035Y-92985336D01*
X165734085Y-92929310D01*
X165958186Y-92929310D01*
X166070236Y-92985336D01*
X166126261Y-93041361D01*
X166182287Y-93153411D01*
X166182287Y-93209436D01*
X166126261Y-93321486D01*
X166070236Y-93377512D01*
X165958186Y-93433537D01*
X165734085Y-93433537D01*
X165622035Y-93489562D01*
X165566010Y-93545587D01*
X165509985Y-93657637D01*
X165509985Y-93881738D01*
X165566010Y-93993788D01*
X165622035Y-94049813D01*
X165734085Y-94105838D01*
X165958186Y-94105838D01*
X166070236Y-94049813D01*
X166126261Y-93993788D01*
X166182287Y-93881738D01*
X166182287Y-93657637D01*
X166126261Y-93545587D01*
X166070236Y-93489562D01*
X165958186Y-93433537D01*
%TO.C,R9*%
X123800886Y-103255025D02*
X123555111Y-103427067D01*
X123800886Y-103549955D02*
X123284758Y-103549955D01*
X123284758Y-103353335D01*
X123309336Y-103304180D01*
X123333913Y-103279602D01*
X123383068Y-103255025D01*
X123456801Y-103255025D01*
X123505956Y-103279602D01*
X123530533Y-103304180D01*
X123555111Y-103353335D01*
X123555111Y-103549955D01*
X123800886Y-103009250D02*
X123800886Y-102910939D01*
X123776308Y-102861784D01*
X123751731Y-102837207D01*
X123677998Y-102788052D01*
X123579688Y-102763474D01*
X123383068Y-102763474D01*
X123333913Y-102788052D01*
X123309336Y-102812629D01*
X123284758Y-102861784D01*
X123284758Y-102960095D01*
X123309336Y-103009250D01*
X123333913Y-103033827D01*
X123383068Y-103058405D01*
X123505956Y-103058405D01*
X123555111Y-103033827D01*
X123579688Y-103009250D01*
X123604266Y-102960095D01*
X123604266Y-102861784D01*
X123579688Y-102812629D01*
X123555111Y-102788052D01*
X123505956Y-102763474D01*
%TO.C,R38*%
X140046532Y-115079586D02*
X139874489Y-114833811D01*
X139751601Y-115079586D02*
X139751601Y-114563458D01*
X139948222Y-114563458D01*
X139997377Y-114588036D01*
X140021954Y-114612613D01*
X140046532Y-114661768D01*
X140046532Y-114735501D01*
X140021954Y-114784656D01*
X139997377Y-114809233D01*
X139948222Y-114833811D01*
X139751601Y-114833811D01*
X140218574Y-114563458D02*
X140538082Y-114563458D01*
X140366039Y-114760078D01*
X140439772Y-114760078D01*
X140488927Y-114784656D01*
X140513505Y-114809233D01*
X140538082Y-114858388D01*
X140538082Y-114981276D01*
X140513505Y-115030431D01*
X140488927Y-115055008D01*
X140439772Y-115079586D01*
X140292307Y-115079586D01*
X140243152Y-115055008D01*
X140218574Y-115030431D01*
X140833012Y-114784656D02*
X140783857Y-114760078D01*
X140759280Y-114735501D01*
X140734702Y-114686346D01*
X140734702Y-114661768D01*
X140759280Y-114612613D01*
X140783857Y-114588036D01*
X140833012Y-114563458D01*
X140931323Y-114563458D01*
X140980478Y-114588036D01*
X141005055Y-114612613D01*
X141029633Y-114661768D01*
X141029633Y-114686346D01*
X141005055Y-114735501D01*
X140980478Y-114760078D01*
X140931323Y-114784656D01*
X140833012Y-114784656D01*
X140783857Y-114809233D01*
X140759280Y-114833811D01*
X140734702Y-114882966D01*
X140734702Y-114981276D01*
X140759280Y-115030431D01*
X140783857Y-115055008D01*
X140833012Y-115079586D01*
X140931323Y-115079586D01*
X140980478Y-115055008D01*
X141005055Y-115030431D01*
X141029633Y-114981276D01*
X141029633Y-114882966D01*
X141005055Y-114833811D01*
X140980478Y-114809233D01*
X140931323Y-114784656D01*
D12*
%TO.C,C5*%
X169933452Y-59705879D02*
X169898308Y-59741023D01*
X169792876Y-59776167D01*
X169722588Y-59776167D01*
X169617156Y-59741023D01*
X169546869Y-59670735D01*
X169511725Y-59600447D01*
X169476581Y-59459871D01*
X169476581Y-59354440D01*
X169511725Y-59213864D01*
X169546869Y-59143576D01*
X169617156Y-59073289D01*
X169722588Y-59038145D01*
X169792876Y-59038145D01*
X169898308Y-59073289D01*
X169933452Y-59108432D01*
X170601186Y-59038145D02*
X170249747Y-59038145D01*
X170214603Y-59389584D01*
X170249747Y-59354440D01*
X170320035Y-59319296D01*
X170495754Y-59319296D01*
X170566042Y-59354440D01*
X170601186Y-59389584D01*
X170636330Y-59459871D01*
X170636330Y-59635591D01*
X170601186Y-59705879D01*
X170566042Y-59741023D01*
X170495754Y-59776167D01*
X170320035Y-59776167D01*
X170249747Y-59741023D01*
X170214603Y-59705879D01*
D10*
%TO.C,R43*%
X145694284Y-118235838D02*
X145302108Y-117675587D01*
X145021982Y-118235838D02*
X145021982Y-117059310D01*
X145470183Y-117059310D01*
X145582233Y-117115336D01*
X145638259Y-117171361D01*
X145694284Y-117283411D01*
X145694284Y-117451486D01*
X145638259Y-117563537D01*
X145582233Y-117619562D01*
X145470183Y-117675587D01*
X145021982Y-117675587D01*
X146702736Y-117451486D02*
X146702736Y-118235838D01*
X146422611Y-117003285D02*
X146142485Y-117843662D01*
X146870812Y-117843662D01*
X147206963Y-117059310D02*
X147935289Y-117059310D01*
X147543113Y-117507512D01*
X147711189Y-117507512D01*
X147823239Y-117563537D01*
X147879264Y-117619562D01*
X147935289Y-117731612D01*
X147935289Y-118011738D01*
X147879264Y-118123788D01*
X147823239Y-118179813D01*
X147711189Y-118235838D01*
X147375038Y-118235838D01*
X147262988Y-118179813D01*
X147206963Y-118123788D01*
D11*
%TO.C,LED6*%
X147480325Y-95819232D02*
X147121764Y-95819232D01*
X147121764Y-95066254D01*
X147731318Y-95424815D02*
X147982311Y-95424815D01*
X148089879Y-95819232D02*
X147731318Y-95819232D01*
X147731318Y-95066254D01*
X148089879Y-95066254D01*
X148412584Y-95819232D02*
X148412584Y-95066254D01*
X148591864Y-95066254D01*
X148699432Y-95102111D01*
X148771145Y-95173823D01*
X148807001Y-95245535D01*
X148842857Y-95388959D01*
X148842857Y-95496528D01*
X148807001Y-95639952D01*
X148771145Y-95711664D01*
X148699432Y-95783376D01*
X148591864Y-95819232D01*
X148412584Y-95819232D01*
X149488267Y-95066254D02*
X149344842Y-95066254D01*
X149273130Y-95102111D01*
X149237274Y-95137967D01*
X149165562Y-95245535D01*
X149129706Y-95388959D01*
X149129706Y-95675808D01*
X149165562Y-95747520D01*
X149201418Y-95783376D01*
X149273130Y-95819232D01*
X149416554Y-95819232D01*
X149488267Y-95783376D01*
X149524123Y-95747520D01*
X149559979Y-95675808D01*
X149559979Y-95496528D01*
X149524123Y-95424815D01*
X149488267Y-95388959D01*
X149416554Y-95353103D01*
X149273130Y-95353103D01*
X149201418Y-95388959D01*
X149165562Y-95424815D01*
X149129706Y-95496528D01*
D10*
%TO.C,J3*%
X143005610Y-134226566D02*
X143845988Y-134226566D01*
X144014063Y-134282591D01*
X144126113Y-134394642D01*
X144182138Y-134562717D01*
X144182138Y-134674767D01*
X143005610Y-133778365D02*
X143005610Y-133050038D01*
X143453812Y-133442214D01*
X143453812Y-133274139D01*
X143509837Y-133162088D01*
X143565862Y-133106063D01*
X143677912Y-133050038D01*
X143958038Y-133050038D01*
X144070088Y-133106063D01*
X144126113Y-133162088D01*
X144182138Y-133274139D01*
X144182138Y-133610290D01*
X144126113Y-133722340D01*
X144070088Y-133778365D01*
%TO.C,C59*%
X131847931Y-153419925D02*
X131872508Y-153444502D01*
X131897086Y-153518235D01*
X131897086Y-153567390D01*
X131872508Y-153641123D01*
X131823353Y-153690278D01*
X131774198Y-153714855D01*
X131675888Y-153739433D01*
X131602156Y-153739433D01*
X131503846Y-153714855D01*
X131454691Y-153690278D01*
X131405536Y-153641123D01*
X131380958Y-153567390D01*
X131380958Y-153518235D01*
X131405536Y-153444502D01*
X131430113Y-153419925D01*
X131380958Y-152952952D02*
X131380958Y-153198727D01*
X131626733Y-153223305D01*
X131602156Y-153198727D01*
X131577578Y-153149572D01*
X131577578Y-153026684D01*
X131602156Y-152977529D01*
X131626733Y-152952952D01*
X131675888Y-152928374D01*
X131798776Y-152928374D01*
X131847931Y-152952952D01*
X131872508Y-152977529D01*
X131897086Y-153026684D01*
X131897086Y-153149572D01*
X131872508Y-153198727D01*
X131847931Y-153223305D01*
X131897086Y-152682599D02*
X131897086Y-152584289D01*
X131872508Y-152535134D01*
X131847931Y-152510556D01*
X131774198Y-152461401D01*
X131675888Y-152436824D01*
X131479268Y-152436824D01*
X131430113Y-152461401D01*
X131405536Y-152485979D01*
X131380958Y-152535134D01*
X131380958Y-152633444D01*
X131405536Y-152682599D01*
X131430113Y-152707177D01*
X131479268Y-152731754D01*
X131602156Y-152731754D01*
X131651311Y-152707177D01*
X131675888Y-152682599D01*
X131700466Y-152633444D01*
X131700466Y-152535134D01*
X131675888Y-152485979D01*
X131651311Y-152461401D01*
X131602156Y-152436824D01*
%TO.C,C17*%
X151952632Y-85185331D02*
X151928054Y-85209908D01*
X151854322Y-85234486D01*
X151805167Y-85234486D01*
X151731434Y-85209908D01*
X151682279Y-85160753D01*
X151657701Y-85111598D01*
X151633124Y-85013288D01*
X151633124Y-84939556D01*
X151657701Y-84841246D01*
X151682279Y-84792091D01*
X151731434Y-84742936D01*
X151805167Y-84718358D01*
X151854322Y-84718358D01*
X151928054Y-84742936D01*
X151952632Y-84767513D01*
X152444182Y-85234486D02*
X152149252Y-85234486D01*
X152296717Y-85234486D02*
X152296717Y-84718358D01*
X152247562Y-84792091D01*
X152198407Y-84841246D01*
X152149252Y-84865823D01*
X152616225Y-84718358D02*
X152960310Y-84718358D01*
X152739112Y-85234486D01*
%TO.C,C35*%
X160264131Y-104842625D02*
X160288708Y-104867202D01*
X160313286Y-104940935D01*
X160313286Y-104990090D01*
X160288708Y-105063823D01*
X160239553Y-105112978D01*
X160190398Y-105137555D01*
X160092088Y-105162133D01*
X160018356Y-105162133D01*
X159920046Y-105137555D01*
X159870891Y-105112978D01*
X159821736Y-105063823D01*
X159797158Y-104990090D01*
X159797158Y-104940935D01*
X159821736Y-104867202D01*
X159846313Y-104842625D01*
X159797158Y-104670582D02*
X159797158Y-104351074D01*
X159993778Y-104523117D01*
X159993778Y-104449384D01*
X160018356Y-104400229D01*
X160042933Y-104375652D01*
X160092088Y-104351074D01*
X160214976Y-104351074D01*
X160264131Y-104375652D01*
X160288708Y-104400229D01*
X160313286Y-104449384D01*
X160313286Y-104596850D01*
X160288708Y-104646005D01*
X160264131Y-104670582D01*
X159797158Y-103884101D02*
X159797158Y-104129877D01*
X160042933Y-104154454D01*
X160018356Y-104129877D01*
X159993778Y-104080722D01*
X159993778Y-103957834D01*
X160018356Y-103908679D01*
X160042933Y-103884101D01*
X160092088Y-103859524D01*
X160214976Y-103859524D01*
X160264131Y-103884101D01*
X160288708Y-103908679D01*
X160313286Y-103957834D01*
X160313286Y-104080722D01*
X160288708Y-104129877D01*
X160264131Y-104154454D01*
%TO.C,R45*%
X155550786Y-145198267D02*
X155305011Y-145370310D01*
X155550786Y-145493198D02*
X155034658Y-145493198D01*
X155034658Y-145296577D01*
X155059236Y-145247422D01*
X155083813Y-145222845D01*
X155132968Y-145198267D01*
X155206701Y-145198267D01*
X155255856Y-145222845D01*
X155280433Y-145247422D01*
X155305011Y-145296577D01*
X155305011Y-145493198D01*
X155206701Y-144755872D02*
X155550786Y-144755872D01*
X155010080Y-144878760D02*
X155378743Y-145001647D01*
X155378743Y-144682139D01*
X155034658Y-144239744D02*
X155034658Y-144485519D01*
X155280433Y-144510097D01*
X155255856Y-144485519D01*
X155231278Y-144436364D01*
X155231278Y-144313476D01*
X155255856Y-144264321D01*
X155280433Y-144239744D01*
X155329588Y-144215166D01*
X155452476Y-144215166D01*
X155501631Y-144239744D01*
X155526208Y-144264321D01*
X155550786Y-144313476D01*
X155550786Y-144436364D01*
X155526208Y-144485519D01*
X155501631Y-144510097D01*
%TO.C,C44*%
X142586332Y-112490431D02*
X142561754Y-112515008D01*
X142488022Y-112539586D01*
X142438867Y-112539586D01*
X142365134Y-112515008D01*
X142315979Y-112465853D01*
X142291401Y-112416698D01*
X142266824Y-112318388D01*
X142266824Y-112244656D01*
X142291401Y-112146346D01*
X142315979Y-112097191D01*
X142365134Y-112048036D01*
X142438867Y-112023458D01*
X142488022Y-112023458D01*
X142561754Y-112048036D01*
X142586332Y-112072613D01*
X143028727Y-112195501D02*
X143028727Y-112539586D01*
X142905839Y-111998880D02*
X142782952Y-112367543D01*
X143102460Y-112367543D01*
X143520278Y-112195501D02*
X143520278Y-112539586D01*
X143397390Y-111998880D02*
X143274502Y-112367543D01*
X143594010Y-112367543D01*
%TO.C,R16*%
X169130974Y-109840786D02*
X168958932Y-109595011D01*
X168836044Y-109840786D02*
X168836044Y-109324658D01*
X169032664Y-109324658D01*
X169081819Y-109349236D01*
X169106397Y-109373813D01*
X169130974Y-109422968D01*
X169130974Y-109496701D01*
X169106397Y-109545856D01*
X169081819Y-109570433D01*
X169032664Y-109595011D01*
X168836044Y-109595011D01*
X169622525Y-109840786D02*
X169327594Y-109840786D01*
X169475060Y-109840786D02*
X169475060Y-109324658D01*
X169425904Y-109398391D01*
X169376749Y-109447546D01*
X169327594Y-109472123D01*
X170064920Y-109324658D02*
X169966610Y-109324658D01*
X169917455Y-109349236D01*
X169892877Y-109373813D01*
X169843722Y-109447546D01*
X169819145Y-109545856D01*
X169819145Y-109742476D01*
X169843722Y-109791631D01*
X169868300Y-109816208D01*
X169917455Y-109840786D01*
X170015765Y-109840786D01*
X170064920Y-109816208D01*
X170089498Y-109791631D01*
X170114075Y-109742476D01*
X170114075Y-109619588D01*
X170089498Y-109570433D01*
X170064920Y-109545856D01*
X170015765Y-109521278D01*
X169917455Y-109521278D01*
X169868300Y-109545856D01*
X169843722Y-109570433D01*
X169819145Y-109619588D01*
%TO.C,C46*%
X126109674Y-116141531D02*
X126085097Y-116166108D01*
X126011364Y-116190686D01*
X125962209Y-116190686D01*
X125888476Y-116166108D01*
X125839321Y-116116953D01*
X125814744Y-116067798D01*
X125790166Y-115969488D01*
X125790166Y-115895756D01*
X125814744Y-115797446D01*
X125839321Y-115748291D01*
X125888476Y-115699136D01*
X125962209Y-115674558D01*
X126011364Y-115674558D01*
X126085097Y-115699136D01*
X126109674Y-115723713D01*
X126552070Y-115846601D02*
X126552070Y-116190686D01*
X126429182Y-115649980D02*
X126306294Y-116018643D01*
X126625802Y-116018643D01*
X127043620Y-115674558D02*
X126945310Y-115674558D01*
X126896155Y-115699136D01*
X126871577Y-115723713D01*
X126822422Y-115797446D01*
X126797845Y-115895756D01*
X126797845Y-116092376D01*
X126822422Y-116141531D01*
X126847000Y-116166108D01*
X126896155Y-116190686D01*
X126994465Y-116190686D01*
X127043620Y-116166108D01*
X127068198Y-116141531D01*
X127092775Y-116092376D01*
X127092775Y-115969488D01*
X127068198Y-115920333D01*
X127043620Y-115895756D01*
X126994465Y-115871178D01*
X126896155Y-115871178D01*
X126847000Y-115895756D01*
X126822422Y-115920333D01*
X126797845Y-115969488D01*
%TO.C,R42*%
X126326784Y-118235838D02*
X125934608Y-117675587D01*
X125654482Y-118235838D02*
X125654482Y-117059310D01*
X126102683Y-117059310D01*
X126214733Y-117115336D01*
X126270759Y-117171361D01*
X126326784Y-117283411D01*
X126326784Y-117451486D01*
X126270759Y-117563537D01*
X126214733Y-117619562D01*
X126102683Y-117675587D01*
X125654482Y-117675587D01*
X127335236Y-117451486D02*
X127335236Y-118235838D01*
X127055111Y-117003285D02*
X126774985Y-117843662D01*
X127503312Y-117843662D01*
X127895488Y-117171361D02*
X127951513Y-117115336D01*
X128063563Y-117059310D01*
X128343689Y-117059310D01*
X128455739Y-117115336D01*
X128511764Y-117171361D01*
X128567789Y-117283411D01*
X128567789Y-117395461D01*
X128511764Y-117563537D01*
X127839463Y-118235838D01*
X128567789Y-118235838D01*
%TO.C,R39*%
X157455886Y-116940767D02*
X157210111Y-117112810D01*
X157455886Y-117235698D02*
X156939758Y-117235698D01*
X156939758Y-117039077D01*
X156964336Y-116989922D01*
X156988913Y-116965345D01*
X157038068Y-116940767D01*
X157111801Y-116940767D01*
X157160956Y-116965345D01*
X157185533Y-116989922D01*
X157210111Y-117039077D01*
X157210111Y-117235698D01*
X156939758Y-116768725D02*
X156939758Y-116449217D01*
X157136378Y-116621260D01*
X157136378Y-116547527D01*
X157160956Y-116498372D01*
X157185533Y-116473794D01*
X157234688Y-116449217D01*
X157357576Y-116449217D01*
X157406731Y-116473794D01*
X157431308Y-116498372D01*
X157455886Y-116547527D01*
X157455886Y-116694992D01*
X157431308Y-116744147D01*
X157406731Y-116768725D01*
X157455886Y-116203442D02*
X157455886Y-116105132D01*
X157431308Y-116055976D01*
X157406731Y-116031399D01*
X157332998Y-115982244D01*
X157234688Y-115957666D01*
X157038068Y-115957666D01*
X156988913Y-115982244D01*
X156964336Y-116006821D01*
X156939758Y-116055976D01*
X156939758Y-116154287D01*
X156964336Y-116203442D01*
X156988913Y-116228019D01*
X157038068Y-116252597D01*
X157160956Y-116252597D01*
X157210111Y-116228019D01*
X157234688Y-116203442D01*
X157259266Y-116154287D01*
X157259266Y-116055976D01*
X157234688Y-116006821D01*
X157210111Y-115982244D01*
X157160956Y-115957666D01*
%TO.C,C25*%
X135340531Y-93412325D02*
X135365108Y-93436902D01*
X135389686Y-93510635D01*
X135389686Y-93559790D01*
X135365108Y-93633523D01*
X135315953Y-93682678D01*
X135266798Y-93707255D01*
X135168488Y-93731833D01*
X135094756Y-93731833D01*
X134996446Y-93707255D01*
X134947291Y-93682678D01*
X134898136Y-93633523D01*
X134873558Y-93559790D01*
X134873558Y-93510635D01*
X134898136Y-93436902D01*
X134922713Y-93412325D01*
X134922713Y-93215705D02*
X134898136Y-93191127D01*
X134873558Y-93141972D01*
X134873558Y-93019084D01*
X134898136Y-92969929D01*
X134922713Y-92945352D01*
X134971868Y-92920774D01*
X135021023Y-92920774D01*
X135094756Y-92945352D01*
X135389686Y-93240282D01*
X135389686Y-92920774D01*
X134873558Y-92453801D02*
X134873558Y-92699577D01*
X135119333Y-92724154D01*
X135094756Y-92699577D01*
X135070178Y-92650422D01*
X135070178Y-92527534D01*
X135094756Y-92478379D01*
X135119333Y-92453801D01*
X135168488Y-92429224D01*
X135291376Y-92429224D01*
X135340531Y-92453801D01*
X135365108Y-92478379D01*
X135389686Y-92527534D01*
X135389686Y-92650422D01*
X135365108Y-92699577D01*
X135340531Y-92724154D01*
%TO.C,C54*%
X166296831Y-141355025D02*
X166321408Y-141379602D01*
X166345986Y-141453335D01*
X166345986Y-141502490D01*
X166321408Y-141576223D01*
X166272253Y-141625378D01*
X166223098Y-141649955D01*
X166124788Y-141674533D01*
X166051056Y-141674533D01*
X165952746Y-141649955D01*
X165903591Y-141625378D01*
X165854436Y-141576223D01*
X165829858Y-141502490D01*
X165829858Y-141453335D01*
X165854436Y-141379602D01*
X165879013Y-141355025D01*
X165829858Y-140888052D02*
X165829858Y-141133827D01*
X166075633Y-141158405D01*
X166051056Y-141133827D01*
X166026478Y-141084672D01*
X166026478Y-140961784D01*
X166051056Y-140912629D01*
X166075633Y-140888052D01*
X166124788Y-140863474D01*
X166247676Y-140863474D01*
X166296831Y-140888052D01*
X166321408Y-140912629D01*
X166345986Y-140961784D01*
X166345986Y-141084672D01*
X166321408Y-141133827D01*
X166296831Y-141158405D01*
X166001901Y-140421079D02*
X166345986Y-140421079D01*
X165805280Y-140543967D02*
X166173943Y-140666854D01*
X166173943Y-140347346D01*
D12*
%TO.C,C30*%
X161227107Y-100554085D02*
X161252575Y-100579552D01*
X161278043Y-100655955D01*
X161278043Y-100706891D01*
X161252575Y-100783294D01*
X161201640Y-100834229D01*
X161150704Y-100859697D01*
X161048833Y-100885165D01*
X160972430Y-100885165D01*
X160870559Y-100859697D01*
X160819624Y-100834229D01*
X160768689Y-100783294D01*
X160743221Y-100706891D01*
X160743221Y-100655955D01*
X160768689Y-100579552D01*
X160794156Y-100554085D01*
X160743221Y-100375811D02*
X160743221Y-100044730D01*
X160946963Y-100223004D01*
X160946963Y-100146601D01*
X160972430Y-100095666D01*
X160997898Y-100070198D01*
X161048833Y-100044730D01*
X161176172Y-100044730D01*
X161227107Y-100070198D01*
X161252575Y-100095666D01*
X161278043Y-100146601D01*
X161278043Y-100299407D01*
X161252575Y-100350343D01*
X161227107Y-100375811D01*
X160743221Y-99713650D02*
X160743221Y-99662715D01*
X160768689Y-99611779D01*
X160794156Y-99586311D01*
X160845092Y-99560844D01*
X160946963Y-99535376D01*
X161074301Y-99535376D01*
X161176172Y-99560844D01*
X161227107Y-99586311D01*
X161252575Y-99611779D01*
X161278043Y-99662715D01*
X161278043Y-99713650D01*
X161252575Y-99764585D01*
X161227107Y-99790053D01*
X161176172Y-99815521D01*
X161074301Y-99840989D01*
X160946963Y-99840989D01*
X160845092Y-99815521D01*
X160794156Y-99790053D01*
X160768689Y-99764585D01*
X160743221Y-99713650D01*
D10*
%TO.C,R50*%
X132142274Y-146035786D02*
X131970232Y-145790011D01*
X131847344Y-146035786D02*
X131847344Y-145519658D01*
X132043964Y-145519658D01*
X132093119Y-145544236D01*
X132117697Y-145568813D01*
X132142274Y-145617968D01*
X132142274Y-145691701D01*
X132117697Y-145740856D01*
X132093119Y-145765433D01*
X132043964Y-145790011D01*
X131847344Y-145790011D01*
X132609247Y-145519658D02*
X132363472Y-145519658D01*
X132338894Y-145765433D01*
X132363472Y-145740856D01*
X132412627Y-145716278D01*
X132535515Y-145716278D01*
X132584670Y-145740856D01*
X132609247Y-145765433D01*
X132633825Y-145814588D01*
X132633825Y-145937476D01*
X132609247Y-145986631D01*
X132584670Y-146011208D01*
X132535515Y-146035786D01*
X132412627Y-146035786D01*
X132363472Y-146011208D01*
X132338894Y-145986631D01*
X132953332Y-145519658D02*
X133002488Y-145519658D01*
X133051643Y-145544236D01*
X133076220Y-145568813D01*
X133100798Y-145617968D01*
X133125375Y-145716278D01*
X133125375Y-145839166D01*
X133100798Y-145937476D01*
X133076220Y-145986631D01*
X133051643Y-146011208D01*
X133002488Y-146035786D01*
X132953332Y-146035786D01*
X132904177Y-146011208D01*
X132879600Y-145986631D01*
X132855022Y-145937476D01*
X132830445Y-145839166D01*
X132830445Y-145716278D01*
X132855022Y-145617968D01*
X132879600Y-145568813D01*
X132904177Y-145544236D01*
X132953332Y-145519658D01*
%TO.C,R4*%
X135475974Y-74757086D02*
X135303932Y-74511311D01*
X135181044Y-74757086D02*
X135181044Y-74240958D01*
X135377664Y-74240958D01*
X135426819Y-74265536D01*
X135451397Y-74290113D01*
X135475974Y-74339268D01*
X135475974Y-74413001D01*
X135451397Y-74462156D01*
X135426819Y-74486733D01*
X135377664Y-74511311D01*
X135181044Y-74511311D01*
X135918370Y-74413001D02*
X135918370Y-74757086D01*
X135795482Y-74216380D02*
X135672594Y-74585043D01*
X135992102Y-74585043D01*
%TO.C,J1*%
X120145610Y-134226466D02*
X120985988Y-134226466D01*
X121154063Y-134282491D01*
X121266113Y-134394542D01*
X121322138Y-134562617D01*
X121322138Y-134674667D01*
X121322138Y-133049938D02*
X121322138Y-133722240D01*
X121322138Y-133386089D02*
X120145610Y-133386089D01*
X120313686Y-133498139D01*
X120425736Y-133610190D01*
X120481761Y-133722240D01*
%TO.C,R20*%
X155709686Y-108970225D02*
X155463911Y-109142267D01*
X155709686Y-109265155D02*
X155193558Y-109265155D01*
X155193558Y-109068535D01*
X155218136Y-109019380D01*
X155242713Y-108994802D01*
X155291868Y-108970225D01*
X155365601Y-108970225D01*
X155414756Y-108994802D01*
X155439333Y-109019380D01*
X155463911Y-109068535D01*
X155463911Y-109265155D01*
X155242713Y-108773605D02*
X155218136Y-108749027D01*
X155193558Y-108699872D01*
X155193558Y-108576984D01*
X155218136Y-108527829D01*
X155242713Y-108503252D01*
X155291868Y-108478674D01*
X155341023Y-108478674D01*
X155414756Y-108503252D01*
X155709686Y-108798182D01*
X155709686Y-108478674D01*
X155193558Y-108159167D02*
X155193558Y-108110011D01*
X155218136Y-108060856D01*
X155242713Y-108036279D01*
X155291868Y-108011701D01*
X155390178Y-107987124D01*
X155513066Y-107987124D01*
X155611376Y-108011701D01*
X155660531Y-108036279D01*
X155685108Y-108060856D01*
X155709686Y-108110011D01*
X155709686Y-108159167D01*
X155685108Y-108208322D01*
X155660531Y-108232899D01*
X155611376Y-108257477D01*
X155513066Y-108282054D01*
X155390178Y-108282054D01*
X155291868Y-108257477D01*
X155242713Y-108232899D01*
X155218136Y-108208322D01*
X155193558Y-108159167D01*
%TO.C,C48*%
X146905974Y-116141331D02*
X146881397Y-116165908D01*
X146807664Y-116190486D01*
X146758509Y-116190486D01*
X146684776Y-116165908D01*
X146635621Y-116116753D01*
X146611044Y-116067598D01*
X146586466Y-115969288D01*
X146586466Y-115895556D01*
X146611044Y-115797246D01*
X146635621Y-115748091D01*
X146684776Y-115698936D01*
X146758509Y-115674358D01*
X146807664Y-115674358D01*
X146881397Y-115698936D01*
X146905974Y-115723513D01*
X147348370Y-115846401D02*
X147348370Y-116190486D01*
X147225482Y-115649780D02*
X147102594Y-116018443D01*
X147422102Y-116018443D01*
X147692455Y-115895556D02*
X147643300Y-115870978D01*
X147618722Y-115846401D01*
X147594145Y-115797246D01*
X147594145Y-115772668D01*
X147618722Y-115723513D01*
X147643300Y-115698936D01*
X147692455Y-115674358D01*
X147790765Y-115674358D01*
X147839920Y-115698936D01*
X147864498Y-115723513D01*
X147889075Y-115772668D01*
X147889075Y-115797246D01*
X147864498Y-115846401D01*
X147839920Y-115870978D01*
X147790765Y-115895556D01*
X147692455Y-115895556D01*
X147643300Y-115920133D01*
X147618722Y-115944711D01*
X147594145Y-115993866D01*
X147594145Y-116092176D01*
X147618722Y-116141331D01*
X147643300Y-116165908D01*
X147692455Y-116190486D01*
X147790765Y-116190486D01*
X147839920Y-116165908D01*
X147864498Y-116141331D01*
X147889075Y-116092176D01*
X147889075Y-115993866D01*
X147864498Y-115944711D01*
X147839920Y-115920133D01*
X147790765Y-115895556D01*
%TO.C,C1*%
X133594231Y-56741225D02*
X133618808Y-56765802D01*
X133643386Y-56839535D01*
X133643386Y-56888690D01*
X133618808Y-56962423D01*
X133569653Y-57011578D01*
X133520498Y-57036155D01*
X133422188Y-57060733D01*
X133348456Y-57060733D01*
X133250146Y-57036155D01*
X133200991Y-57011578D01*
X133151836Y-56962423D01*
X133127258Y-56888690D01*
X133127258Y-56839535D01*
X133151836Y-56765802D01*
X133176413Y-56741225D01*
X133643386Y-56249674D02*
X133643386Y-56544605D01*
X133643386Y-56397139D02*
X133127258Y-56397139D01*
X133200991Y-56446295D01*
X133250146Y-56495450D01*
X133274723Y-56544605D01*
%TO.C,R17*%
X124277186Y-108811225D02*
X124031411Y-108983267D01*
X124277186Y-109106155D02*
X123761058Y-109106155D01*
X123761058Y-108909535D01*
X123785636Y-108860380D01*
X123810213Y-108835802D01*
X123859368Y-108811225D01*
X123933101Y-108811225D01*
X123982256Y-108835802D01*
X124006833Y-108860380D01*
X124031411Y-108909535D01*
X124031411Y-109106155D01*
X124277186Y-108319674D02*
X124277186Y-108614605D01*
X124277186Y-108467139D02*
X123761058Y-108467139D01*
X123834791Y-108516295D01*
X123883946Y-108565450D01*
X123908523Y-108614605D01*
X123761058Y-108147632D02*
X123761058Y-107803546D01*
X124277186Y-108024744D01*
D11*
%TO.C,LED5*%
X147480325Y-90421732D02*
X147121764Y-90421732D01*
X147121764Y-89668754D01*
X147731318Y-90027315D02*
X147982311Y-90027315D01*
X148089879Y-90421732D02*
X147731318Y-90421732D01*
X147731318Y-89668754D01*
X148089879Y-89668754D01*
X148412584Y-90421732D02*
X148412584Y-89668754D01*
X148591864Y-89668754D01*
X148699432Y-89704611D01*
X148771145Y-89776323D01*
X148807001Y-89848035D01*
X148842857Y-89991459D01*
X148842857Y-90099028D01*
X148807001Y-90242452D01*
X148771145Y-90314164D01*
X148699432Y-90385876D01*
X148591864Y-90421732D01*
X148412584Y-90421732D01*
X149524123Y-89668754D02*
X149165562Y-89668754D01*
X149129706Y-90027315D01*
X149165562Y-89991459D01*
X149237274Y-89955603D01*
X149416554Y-89955603D01*
X149488267Y-89991459D01*
X149524123Y-90027315D01*
X149559979Y-90099028D01*
X149559979Y-90278308D01*
X149524123Y-90350020D01*
X149488267Y-90385876D01*
X149416554Y-90421732D01*
X149237274Y-90421732D01*
X149165562Y-90385876D01*
X149129706Y-90350020D01*
D10*
%TO.C,J7*%
X131575510Y-148831566D02*
X132415888Y-148831566D01*
X132583963Y-148887591D01*
X132696013Y-148999642D01*
X132752038Y-149167717D01*
X132752038Y-149279767D01*
X131575510Y-148383365D02*
X131575510Y-147599013D01*
X132752038Y-148103239D01*
%TO.C,R31*%
X123642186Y-116940667D02*
X123396411Y-117112710D01*
X123642186Y-117235598D02*
X123126058Y-117235598D01*
X123126058Y-117038977D01*
X123150636Y-116989822D01*
X123175213Y-116965245D01*
X123224368Y-116940667D01*
X123298101Y-116940667D01*
X123347256Y-116965245D01*
X123371833Y-116989822D01*
X123396411Y-117038977D01*
X123396411Y-117235598D01*
X123126058Y-116768625D02*
X123126058Y-116449117D01*
X123322678Y-116621160D01*
X123322678Y-116547427D01*
X123347256Y-116498272D01*
X123371833Y-116473694D01*
X123420988Y-116449117D01*
X123543876Y-116449117D01*
X123593031Y-116473694D01*
X123617608Y-116498272D01*
X123642186Y-116547427D01*
X123642186Y-116694892D01*
X123617608Y-116744047D01*
X123593031Y-116768625D01*
X123642186Y-115957566D02*
X123642186Y-116252497D01*
X123642186Y-116105032D02*
X123126058Y-116105032D01*
X123199791Y-116154187D01*
X123248946Y-116203342D01*
X123273523Y-116252497D01*
D15*
%TO.C,IC3*%
X167988210Y-84269704D02*
X167350670Y-84269704D01*
X167927492Y-83601805D02*
X167957851Y-83632164D01*
X167988210Y-83723241D01*
X167988210Y-83783959D01*
X167957851Y-83875036D01*
X167897133Y-83935754D01*
X167836415Y-83966114D01*
X167714979Y-83996473D01*
X167623902Y-83996473D01*
X167502466Y-83966114D01*
X167441748Y-83935754D01*
X167381030Y-83875036D01*
X167350670Y-83783959D01*
X167350670Y-83723241D01*
X167381030Y-83632164D01*
X167411389Y-83601805D01*
X167350670Y-83389292D02*
X167350670Y-82994624D01*
X167593543Y-83207137D01*
X167593543Y-83116060D01*
X167623902Y-83055342D01*
X167654261Y-83024983D01*
X167714979Y-82994624D01*
X167866774Y-82994624D01*
X167927492Y-83024983D01*
X167957851Y-83055342D01*
X167988210Y-83116060D01*
X167988210Y-83298214D01*
X167957851Y-83358933D01*
X167927492Y-83389292D01*
D10*
%TO.C,R26*%
X136818386Y-112495767D02*
X136572611Y-112667810D01*
X136818386Y-112790698D02*
X136302258Y-112790698D01*
X136302258Y-112594077D01*
X136326836Y-112544922D01*
X136351413Y-112520345D01*
X136400568Y-112495767D01*
X136474301Y-112495767D01*
X136523456Y-112520345D01*
X136548033Y-112544922D01*
X136572611Y-112594077D01*
X136572611Y-112790698D01*
X136351413Y-112299147D02*
X136326836Y-112274570D01*
X136302258Y-112225415D01*
X136302258Y-112102527D01*
X136326836Y-112053372D01*
X136351413Y-112028794D01*
X136400568Y-112004217D01*
X136449723Y-112004217D01*
X136523456Y-112028794D01*
X136818386Y-112323725D01*
X136818386Y-112004217D01*
X136302258Y-111561821D02*
X136302258Y-111660132D01*
X136326836Y-111709287D01*
X136351413Y-111733864D01*
X136425146Y-111783019D01*
X136523456Y-111807597D01*
X136720076Y-111807597D01*
X136769231Y-111783019D01*
X136793808Y-111758442D01*
X136818386Y-111709287D01*
X136818386Y-111610976D01*
X136793808Y-111561821D01*
X136769231Y-111537244D01*
X136720076Y-111512666D01*
X136597188Y-111512666D01*
X136548033Y-111537244D01*
X136523456Y-111561821D01*
X136498878Y-111610976D01*
X136498878Y-111709287D01*
X136523456Y-111758442D01*
X136548033Y-111783019D01*
X136597188Y-111807597D01*
D13*
%TO.C,SW2*%
X152099905Y-61973783D02*
X152265005Y-62028816D01*
X152540171Y-62028816D01*
X152650238Y-61973783D01*
X152705271Y-61918750D01*
X152760305Y-61808683D01*
X152760305Y-61698616D01*
X152705271Y-61588550D01*
X152650238Y-61533516D01*
X152540171Y-61478483D01*
X152320038Y-61423450D01*
X152209971Y-61368416D01*
X152154938Y-61313383D01*
X152099905Y-61203316D01*
X152099905Y-61093250D01*
X152154938Y-60983183D01*
X152209971Y-60928150D01*
X152320038Y-60873116D01*
X152595205Y-60873116D01*
X152760305Y-60928150D01*
X153145538Y-60873116D02*
X153420705Y-62028816D01*
X153640838Y-61203316D01*
X153860971Y-62028816D01*
X154136138Y-60873116D01*
X154521371Y-60983183D02*
X154576405Y-60928150D01*
X154686471Y-60873116D01*
X154961638Y-60873116D01*
X155071705Y-60928150D01*
X155126738Y-60983183D01*
X155181771Y-61093250D01*
X155181771Y-61203316D01*
X155126738Y-61368416D01*
X154466338Y-62028816D01*
X155181771Y-62028816D01*
D10*
%TO.C,J9*%
X154435610Y-148831466D02*
X155275988Y-148831466D01*
X155444063Y-148887491D01*
X155556113Y-148999542D01*
X155612138Y-149167617D01*
X155612138Y-149279667D01*
X155612138Y-148215190D02*
X155612138Y-147991089D01*
X155556113Y-147879039D01*
X155500088Y-147823014D01*
X155332013Y-147710963D01*
X155107912Y-147654938D01*
X154659711Y-147654938D01*
X154547661Y-147710963D01*
X154491636Y-147766988D01*
X154435610Y-147879039D01*
X154435610Y-148103139D01*
X154491636Y-148215190D01*
X154547661Y-148271215D01*
X154659711Y-148327240D01*
X154939837Y-148327240D01*
X155051887Y-148271215D01*
X155107912Y-148215190D01*
X155163937Y-148103139D01*
X155163937Y-147879039D01*
X155107912Y-147766988D01*
X155051887Y-147710963D01*
X154939837Y-147654938D01*
%TO.C,C60*%
X154549231Y-153419925D02*
X154573808Y-153444502D01*
X154598386Y-153518235D01*
X154598386Y-153567390D01*
X154573808Y-153641123D01*
X154524653Y-153690278D01*
X154475498Y-153714855D01*
X154377188Y-153739433D01*
X154303456Y-153739433D01*
X154205146Y-153714855D01*
X154155991Y-153690278D01*
X154106836Y-153641123D01*
X154082258Y-153567390D01*
X154082258Y-153518235D01*
X154106836Y-153444502D01*
X154131413Y-153419925D01*
X154082258Y-152977529D02*
X154082258Y-153075839D01*
X154106836Y-153124995D01*
X154131413Y-153149572D01*
X154205146Y-153198727D01*
X154303456Y-153223305D01*
X154500076Y-153223305D01*
X154549231Y-153198727D01*
X154573808Y-153174150D01*
X154598386Y-153124995D01*
X154598386Y-153026684D01*
X154573808Y-152977529D01*
X154549231Y-152952952D01*
X154500076Y-152928374D01*
X154377188Y-152928374D01*
X154328033Y-152952952D01*
X154303456Y-152977529D01*
X154278878Y-153026684D01*
X154278878Y-153124995D01*
X154303456Y-153174150D01*
X154328033Y-153198727D01*
X154377188Y-153223305D01*
X154082258Y-152608867D02*
X154082258Y-152559711D01*
X154106836Y-152510556D01*
X154131413Y-152485979D01*
X154180568Y-152461401D01*
X154278878Y-152436824D01*
X154401766Y-152436824D01*
X154500076Y-152461401D01*
X154549231Y-152485979D01*
X154573808Y-152510556D01*
X154598386Y-152559711D01*
X154598386Y-152608867D01*
X154573808Y-152658022D01*
X154549231Y-152682599D01*
X154500076Y-152707177D01*
X154401766Y-152731754D01*
X154278878Y-152731754D01*
X154180568Y-152707177D01*
X154131413Y-152682599D01*
X154106836Y-152658022D01*
X154082258Y-152608867D01*
%TO.C,R30*%
X121895786Y-114684825D02*
X121650011Y-114856867D01*
X121895786Y-114979755D02*
X121379658Y-114979755D01*
X121379658Y-114783135D01*
X121404236Y-114733980D01*
X121428813Y-114709402D01*
X121477968Y-114684825D01*
X121551701Y-114684825D01*
X121600856Y-114709402D01*
X121625433Y-114733980D01*
X121650011Y-114783135D01*
X121650011Y-114979755D01*
X121379658Y-114512782D02*
X121379658Y-114193274D01*
X121576278Y-114365317D01*
X121576278Y-114291584D01*
X121600856Y-114242429D01*
X121625433Y-114217852D01*
X121674588Y-114193274D01*
X121797476Y-114193274D01*
X121846631Y-114217852D01*
X121871208Y-114242429D01*
X121895786Y-114291584D01*
X121895786Y-114439050D01*
X121871208Y-114488205D01*
X121846631Y-114512782D01*
X121379658Y-113873767D02*
X121379658Y-113824611D01*
X121404236Y-113775456D01*
X121428813Y-113750879D01*
X121477968Y-113726301D01*
X121576278Y-113701724D01*
X121699166Y-113701724D01*
X121797476Y-113726301D01*
X121846631Y-113750879D01*
X121871208Y-113775456D01*
X121895786Y-113824611D01*
X121895786Y-113873767D01*
X121871208Y-113922922D01*
X121846631Y-113947499D01*
X121797476Y-113972077D01*
X121699166Y-113996654D01*
X121576278Y-113996654D01*
X121477968Y-113972077D01*
X121428813Y-113947499D01*
X121404236Y-113922922D01*
X121379658Y-113873767D01*
%TO.C,C42*%
X164391631Y-109287525D02*
X164416208Y-109312102D01*
X164440786Y-109385835D01*
X164440786Y-109434990D01*
X164416208Y-109508723D01*
X164367053Y-109557878D01*
X164317898Y-109582455D01*
X164219588Y-109607033D01*
X164145856Y-109607033D01*
X164047546Y-109582455D01*
X163998391Y-109557878D01*
X163949236Y-109508723D01*
X163924658Y-109434990D01*
X163924658Y-109385835D01*
X163949236Y-109312102D01*
X163973813Y-109287525D01*
X164096701Y-108845129D02*
X164440786Y-108845129D01*
X163900080Y-108968017D02*
X164268743Y-109090905D01*
X164268743Y-108771397D01*
X163973813Y-108599354D02*
X163949236Y-108574777D01*
X163924658Y-108525622D01*
X163924658Y-108402734D01*
X163949236Y-108353579D01*
X163973813Y-108329001D01*
X164022968Y-108304424D01*
X164072123Y-108304424D01*
X164145856Y-108329001D01*
X164440786Y-108623932D01*
X164440786Y-108304424D01*
%TO.C,C20*%
X130419131Y-88048167D02*
X130443708Y-88072745D01*
X130468286Y-88146477D01*
X130468286Y-88195632D01*
X130443708Y-88269365D01*
X130394553Y-88318520D01*
X130345398Y-88343098D01*
X130247088Y-88367675D01*
X130173356Y-88367675D01*
X130075046Y-88343098D01*
X130025891Y-88318520D01*
X129976736Y-88269365D01*
X129952158Y-88195632D01*
X129952158Y-88146477D01*
X129976736Y-88072745D01*
X130001313Y-88048167D01*
X130001313Y-87851547D02*
X129976736Y-87826970D01*
X129952158Y-87777815D01*
X129952158Y-87654927D01*
X129976736Y-87605772D01*
X130001313Y-87581194D01*
X130050468Y-87556617D01*
X130099623Y-87556617D01*
X130173356Y-87581194D01*
X130468286Y-87876125D01*
X130468286Y-87556617D01*
X129952158Y-87237109D02*
X129952158Y-87187954D01*
X129976736Y-87138799D01*
X130001313Y-87114221D01*
X130050468Y-87089644D01*
X130148778Y-87065066D01*
X130271666Y-87065066D01*
X130369976Y-87089644D01*
X130419131Y-87114221D01*
X130443708Y-87138799D01*
X130468286Y-87187954D01*
X130468286Y-87237109D01*
X130443708Y-87286264D01*
X130419131Y-87310842D01*
X130369976Y-87335419D01*
X130271666Y-87359997D01*
X130148778Y-87359997D01*
X130050468Y-87335419D01*
X130001313Y-87310842D01*
X129976736Y-87286264D01*
X129952158Y-87237109D01*
%TO.C,R34*%
X142903832Y-116190786D02*
X142731789Y-115945011D01*
X142608901Y-116190786D02*
X142608901Y-115674658D01*
X142805522Y-115674658D01*
X142854677Y-115699236D01*
X142879254Y-115723813D01*
X142903832Y-115772968D01*
X142903832Y-115846701D01*
X142879254Y-115895856D01*
X142854677Y-115920433D01*
X142805522Y-115945011D01*
X142608901Y-115945011D01*
X143075874Y-115674658D02*
X143395382Y-115674658D01*
X143223339Y-115871278D01*
X143297072Y-115871278D01*
X143346227Y-115895856D01*
X143370805Y-115920433D01*
X143395382Y-115969588D01*
X143395382Y-116092476D01*
X143370805Y-116141631D01*
X143346227Y-116166208D01*
X143297072Y-116190786D01*
X143149607Y-116190786D01*
X143100452Y-116166208D01*
X143075874Y-116141631D01*
X143837778Y-115846701D02*
X143837778Y-116190786D01*
X143714890Y-115650080D02*
X143592002Y-116018743D01*
X143911510Y-116018743D01*
D18*
%TO.C,IC6*%
X129671920Y-110192346D02*
X129671920Y-109516706D01*
X130379734Y-110128000D02*
X130347560Y-110160173D01*
X130251040Y-110192346D01*
X130186694Y-110192346D01*
X130090174Y-110160173D01*
X130025827Y-110095826D01*
X129993654Y-110031480D01*
X129961480Y-109902786D01*
X129961480Y-109806266D01*
X129993654Y-109677573D01*
X130025827Y-109613226D01*
X130090174Y-109548880D01*
X130186694Y-109516706D01*
X130251040Y-109516706D01*
X130347560Y-109548880D01*
X130379734Y-109581053D01*
X130958854Y-109516706D02*
X130830160Y-109516706D01*
X130765814Y-109548880D01*
X130733640Y-109581053D01*
X130669294Y-109677573D01*
X130637120Y-109806266D01*
X130637120Y-110063653D01*
X130669294Y-110128000D01*
X130701467Y-110160173D01*
X130765814Y-110192346D01*
X130894507Y-110192346D01*
X130958854Y-110160173D01*
X130991027Y-110128000D01*
X131023200Y-110063653D01*
X131023200Y-109902786D01*
X130991027Y-109838440D01*
X130958854Y-109806266D01*
X130894507Y-109774093D01*
X130765814Y-109774093D01*
X130701467Y-109806266D01*
X130669294Y-109838440D01*
X130637120Y-109902786D01*
D19*
%TO.C,D2*%
X173461100Y-56978600D02*
X174061100Y-56978600D01*
X174661100Y-57878600D02*
X174061100Y-56978600D01*
X173461100Y-57878600D02*
X174661100Y-57878600D01*
X174661100Y-56978600D02*
X173461100Y-56978600D01*
X174661100Y-57878600D02*
X174061100Y-57878600D01*
X174061100Y-56978600D02*
X173461100Y-57878600D01*
X174061100Y-56978600D02*
X174061100Y-56278600D01*
X174061100Y-57878600D02*
X174061100Y-58878600D01*
X174061100Y-56978600D02*
X174661100Y-57878600D01*
%TO.C,D1*%
X161303600Y-57778600D02*
X160703600Y-57778600D01*
X160103600Y-56878600D02*
X160703600Y-57778600D01*
X161303600Y-56878600D02*
X160103600Y-56878600D01*
X160103600Y-57778600D02*
X161303600Y-57778600D01*
X160103600Y-56878600D02*
X160703600Y-56878600D01*
X160703600Y-57778600D02*
X161303600Y-56878600D01*
X160703600Y-57778600D02*
X160703600Y-58478600D01*
X160703600Y-56878600D02*
X160703600Y-55878600D01*
X160703600Y-57778600D02*
X160103600Y-56878600D01*
D20*
%TO.C,LED8*%
X147221100Y-102146100D02*
X147221100Y-104686100D01*
X147221100Y-104686100D02*
G75*
G03*
X147221100Y-102146100I1270000J1270000D01*
G01*
X149791100Y-103416100D02*
G75*
G03*
X149791100Y-103416100I-1300000J0D01*
G01*
D21*
%TO.C,C22*%
X172474800Y-87211100D02*
X172474800Y-87861100D01*
X170074800Y-90411100D02*
X169374800Y-89711100D01*
X169374800Y-87911100D02*
X170074800Y-87211100D01*
X170074800Y-87211100D02*
X172474800Y-87211100D01*
X172474800Y-89761100D02*
X172474800Y-90411100D01*
X172474800Y-90411100D02*
X170074800Y-90411100D01*
X169774800Y-89761100D02*
G75*
G03*
X171974800Y-89761100I1100000J950001D01*
G01*
X171974800Y-87861100D02*
G75*
G03*
X169724801Y-87911100I-1104444J-949999D01*
G01*
D22*
%TO.C,R7*%
X131573600Y-98008600D02*
X126698600Y-98008600D01*
D20*
X124828600Y-101713600D02*
X124828600Y-91923600D01*
X124828600Y-91923600D02*
X133418600Y-91923600D01*
X133418600Y-91923600D02*
X133418600Y-101713600D01*
D22*
X130223600Y-98008600D02*
X128023600Y-98008600D01*
D20*
X133418600Y-101713600D02*
X124828600Y-101713600D01*
D22*
X130223600Y-98008600D02*
G75*
G03*
X128023600Y-98008600I-1100000J625000D01*
G01*
X131663600Y-97383600D02*
G75*
G03*
X131663600Y-97383600I-2540000J0D01*
G01*
%TO.C,SW1*%
X140998100Y-56985600D02*
X140998100Y-59029600D01*
X141887100Y-61061600D02*
X146205100Y-61061600D01*
X146205100Y-54965600D02*
X141887100Y-54965600D01*
X147094100Y-57015600D02*
X147094100Y-59029600D01*
X145824100Y-58013600D02*
G75*
G03*
X145824100Y-58013600I-1778000J0D01*
G01*
D23*
%TO.C,D3*%
X144020600Y-99294800D02*
X144833400Y-99294800D01*
X144020600Y-102139600D02*
X144020600Y-101580800D01*
X144833400Y-102139600D02*
X144020600Y-102139600D01*
X144020600Y-99853600D02*
X144020600Y-99294800D01*
D20*
%TO.C,LED3*%
X147221100Y-75158600D02*
X147221100Y-77698600D01*
X147221100Y-77698600D02*
G75*
G03*
X147221100Y-75158600I1270000J1270000D01*
G01*
X149791100Y-76428600D02*
G75*
G03*
X149791100Y-76428600I-1300000J0D01*
G01*
%TO.C,J4*%
X164416900Y-132892800D02*
X164416900Y-143383000D01*
X155425300Y-143383000D02*
X155425300Y-132892800D01*
X155425300Y-132892800D02*
X164416900Y-132892800D01*
X164416900Y-143383000D02*
X155425300Y-143383000D01*
D24*
%TO.C,L3*%
X174761100Y-62306100D02*
X174761100Y-60706100D01*
X175561100Y-60706100D02*
X175561100Y-62306100D01*
G36*
X175261100Y-61806100D02*
G01*
X175061100Y-61806100D01*
X175061100Y-61406100D01*
X175261100Y-61406100D01*
X175261100Y-61806100D01*
G37*
D21*
%TO.C,C16*%
X158345900Y-83887300D02*
X158345900Y-84537300D01*
X155245900Y-82037300D02*
X155945900Y-81337300D01*
X158345900Y-84537300D02*
X155945900Y-84537300D01*
X155945900Y-81337300D02*
X158345900Y-81337300D01*
X155945900Y-84537300D02*
X155245900Y-83837300D01*
X158345900Y-81337300D02*
X158345900Y-81987300D01*
X157845900Y-81987300D02*
G75*
G03*
X155595901Y-82037300I-1104444J-949999D01*
G01*
X155645900Y-83887300D02*
G75*
G03*
X157845900Y-83887300I1100000J950001D01*
G01*
D20*
%TO.C,R2*%
X170883600Y-64618600D02*
X170883600Y-74408600D01*
X162293600Y-64618600D02*
X170883600Y-64618600D01*
X162293600Y-74408600D02*
X162293600Y-64618600D01*
X170883600Y-74408600D02*
X162293600Y-74408600D01*
D22*
X167688600Y-70703600D02*
X165488600Y-70703600D01*
X169038600Y-70703600D02*
X164163600Y-70703600D01*
X167688600Y-70703600D02*
G75*
G03*
X165488600Y-70703600I-1100000J625000D01*
G01*
X169128600Y-70078600D02*
G75*
G03*
X169128600Y-70078600I-2540000J0D01*
G01*
D20*
%TO.C,LED1*%
X147221100Y-64363600D02*
X147221100Y-66903600D01*
X147221100Y-66903600D02*
G75*
G03*
X147221100Y-64363600I1270000J1270000D01*
G01*
X149791100Y-65633600D02*
G75*
G03*
X149791100Y-65633600I-1300000J0D01*
G01*
D24*
%TO.C,L4*%
X151272400Y-67056100D02*
X151272400Y-68656100D01*
X150472400Y-68656100D02*
X150472400Y-67056100D01*
G36*
X150972400Y-67956100D02*
G01*
X150772400Y-67956100D01*
X150772400Y-67556100D01*
X150972400Y-67556100D01*
X150972400Y-67956100D01*
G37*
D20*
%TO.C,LED2*%
X147221100Y-69761100D02*
X147221100Y-72301100D01*
X147221100Y-72301100D02*
G75*
G03*
X147221100Y-69761100I1270000J1270000D01*
G01*
X149791100Y-71031100D02*
G75*
G03*
X149791100Y-71031100I-1300000J0D01*
G01*
D22*
%TO.C,H2*%
X160468600Y-127228500D02*
G75*
G03*
X160468600Y-127228500I-1500000J0D01*
G01*
D23*
X160968600Y-127228500D02*
G75*
G03*
X160968600Y-127228500I-2000000J0D01*
G01*
D24*
%TO.C,L2*%
X159203600Y-62147400D02*
X159203600Y-60547400D01*
X160003600Y-60547400D02*
X160003600Y-62147400D01*
G36*
X159703600Y-61647400D02*
G01*
X159503600Y-61647400D01*
X159503600Y-61247400D01*
X159703600Y-61247400D01*
X159703600Y-61647400D01*
G37*
D20*
%TO.C,J2*%
X141556900Y-132892800D02*
X141556900Y-143383000D01*
X132565300Y-132892800D02*
X141556900Y-132892800D01*
X132565300Y-143383000D02*
X132565300Y-132892800D01*
X141556900Y-143383000D02*
X132565300Y-143383000D01*
D23*
%TO.C,H3*%
X140013600Y-127228600D02*
G75*
G03*
X140013600Y-127228600I-2000000J0D01*
G01*
D22*
X139513600Y-127228600D02*
G75*
G03*
X139513600Y-127228600I-1500000J0D01*
G01*
D20*
%TO.C,LED4*%
X147221100Y-80556100D02*
X147221100Y-83096100D01*
X147221100Y-83096100D02*
G75*
G03*
X147221100Y-80556100I1270000J1270000D01*
G01*
X149791100Y-81826100D02*
G75*
G03*
X149791100Y-81826100I-1300000J0D01*
G01*
D22*
%TO.C,IC8*%
X166343600Y-111223600D02*
X166343600Y-114023600D01*
X170643600Y-114023600D02*
X170643600Y-111223600D01*
X166343600Y-114023600D02*
X170643600Y-114023600D01*
X170643600Y-111223600D02*
X166343600Y-111223600D01*
D25*
X167031100Y-111973600D02*
G75*
G03*
X167031100Y-111973600I-162500J0D01*
G01*
D20*
%TO.C,IC1*%
X123948600Y-52213600D02*
X132548600Y-52213600D01*
X123948600Y-52213600D02*
X123948600Y-63813600D01*
X132548600Y-63813600D02*
X123948600Y-63813600D01*
X132548600Y-52213600D02*
X132548600Y-63813600D01*
D23*
%TO.C,IC2*%
X152446100Y-77793600D02*
X161046100Y-77793600D01*
D26*
X152746100Y-77493600D02*
X160746100Y-77493600D01*
D23*
X161046100Y-73793600D02*
X152446100Y-73793600D01*
X152446100Y-77793600D02*
X152446100Y-73793600D01*
X161046100Y-73793600D02*
X161046100Y-77793600D01*
D26*
X152746100Y-77493600D02*
X152746100Y-74093600D01*
X160746100Y-74093600D02*
X160746100Y-77493600D01*
X160746100Y-74093600D02*
X152746100Y-74093600D01*
D23*
X153977700Y-76712800D02*
G75*
G03*
X153977700Y-76712800I-457200J0D01*
G01*
D20*
%TO.C,J5*%
X166855300Y-132892800D02*
X175846900Y-132892800D01*
X175846900Y-143383000D02*
X166855300Y-143383000D01*
X166855300Y-143383000D02*
X166855300Y-132892800D01*
X175846900Y-132892800D02*
X175846900Y-143383000D01*
D21*
%TO.C,C3*%
X136121100Y-60223600D02*
X136121100Y-62623600D01*
X132921100Y-62623600D02*
X132921100Y-60223600D01*
X136121100Y-62623600D02*
X135421100Y-63323600D01*
X135471100Y-60223600D02*
X136121100Y-60223600D01*
X132921100Y-60223600D02*
X133571100Y-60223600D01*
X133621100Y-63323600D02*
X132921100Y-62623600D01*
X133571100Y-60723600D02*
G75*
G03*
X133621100Y-62973599I949999J-1104444D01*
G01*
X135471100Y-62923600D02*
G75*
G03*
X135471100Y-60723600I-950001J1100000D01*
G01*
D20*
%TO.C,R1*%
X134688600Y-74408600D02*
X126098600Y-74408600D01*
X126098600Y-64618600D02*
X134688600Y-64618600D01*
D22*
X131493600Y-70703600D02*
X129293600Y-70703600D01*
X132843600Y-70703600D02*
X127968600Y-70703600D01*
D20*
X126098600Y-74408600D02*
X126098600Y-64618600D01*
X134688600Y-64618600D02*
X134688600Y-74408600D01*
D22*
X131493600Y-70703600D02*
G75*
G03*
X129293600Y-70703600I-1100000J625000D01*
G01*
X132933600Y-70078600D02*
G75*
G03*
X132933600Y-70078600I-2540000J0D01*
G01*
D20*
%TO.C,J8*%
X152986900Y-147497800D02*
X152986900Y-157988000D01*
X143995300Y-147497800D02*
X152986900Y-147497800D01*
X143995300Y-157988000D02*
X143995300Y-147497800D01*
X152986900Y-157988000D02*
X143995300Y-157988000D01*
D23*
%TO.C,IC5*%
X154400700Y-90703400D02*
X154400700Y-91884500D01*
X160996700Y-91884500D02*
X160996700Y-88277700D01*
X154400700Y-89458800D02*
X154400700Y-90703400D01*
X154400700Y-88277700D02*
X154400700Y-89458800D01*
D20*
X155065700Y-91827400D02*
G75*
G03*
X155065700Y-91827400I-224500J0D01*
G01*
%TO.C,R44*%
X163563600Y-125843600D02*
X163563600Y-116053600D01*
X172153600Y-116053600D02*
X172153600Y-125843600D01*
D22*
X168958600Y-122138600D02*
X166758600Y-122138600D01*
D20*
X172153600Y-125843600D02*
X163563600Y-125843600D01*
D22*
X170308600Y-122138600D02*
X165433600Y-122138600D01*
D20*
X163563600Y-116053600D02*
X172153600Y-116053600D01*
D22*
X168958600Y-122138600D02*
G75*
G03*
X166758600Y-122138600I-1100000J625000D01*
G01*
X170398600Y-121513600D02*
G75*
G03*
X170398600Y-121513600I-2540000J0D01*
G01*
D27*
%TO.C,IC4*%
X140478600Y-88058600D02*
X134278600Y-88058600D01*
X140753600Y-81583600D02*
X140753600Y-87783600D01*
X134003600Y-87783600D02*
X134003600Y-81583600D01*
X134003600Y-81583600D02*
X134278600Y-81308600D01*
X140478600Y-81308600D02*
X140753600Y-81583600D01*
X140753600Y-87783600D02*
X140478600Y-88058600D01*
X134278600Y-88058600D02*
X134003600Y-87783600D01*
X134278600Y-81308600D02*
X140478600Y-81308600D01*
X135978600Y-82683600D02*
G75*
G03*
X135978600Y-82683600I-600000J0D01*
G01*
D20*
%TO.C,J10*%
X175846900Y-147497800D02*
X175846900Y-157988000D01*
X166855300Y-147497800D02*
X175846900Y-147497800D01*
X175846900Y-157988000D02*
X166855300Y-157988000D01*
X166855300Y-157988000D02*
X166855300Y-147497800D01*
D22*
%TO.C,Q1*%
X123613600Y-85093600D02*
X123613600Y-82993600D01*
X126913600Y-82993600D02*
X126913600Y-85093600D01*
X124963600Y-81143600D02*
X125563600Y-81143600D01*
X125563600Y-86943600D02*
X124963600Y-86943600D01*
D28*
X125554600Y-86093600D02*
G75*
G03*
X125554600Y-86093600I-91000J0D01*
G01*
D24*
%TO.C,L5*%
X173738600Y-77939900D02*
X172138600Y-77939900D01*
X172138600Y-77139900D02*
X173738600Y-77139900D01*
G36*
X173038600Y-77639900D02*
G01*
X172638600Y-77639900D01*
X172638600Y-77439900D01*
X173038600Y-77439900D01*
X173038600Y-77639900D01*
G37*
D21*
%TO.C,C7*%
X153088700Y-66097400D02*
X155488700Y-66097400D01*
X155488700Y-69297400D02*
X153088700Y-69297400D01*
X152388700Y-66797400D02*
X153088700Y-66097400D01*
X155488700Y-66097400D02*
X155488700Y-66747400D01*
X153088700Y-69297400D02*
X152388700Y-68597400D01*
X155488700Y-68647400D02*
X155488700Y-69297400D01*
X154988700Y-66747400D02*
G75*
G03*
X152738701Y-66797400I-1104444J-949999D01*
G01*
X152788700Y-68647400D02*
G75*
G03*
X154988700Y-68647400I1100000J950001D01*
G01*
D26*
%TO.C,IC7*%
X147906900Y-110337600D02*
X151615300Y-110337600D01*
D23*
X147678300Y-110109000D02*
X151843900Y-110109000D01*
X147678300Y-110109000D02*
X147678300Y-115138200D01*
X151843900Y-115138200D02*
X151843900Y-110109000D01*
D26*
X151615300Y-114909600D02*
X147906900Y-114909600D01*
X151615300Y-114909600D02*
X151615300Y-110337600D01*
X147906900Y-110337600D02*
X147906900Y-114909600D01*
D23*
X151843900Y-115138200D02*
X147678300Y-115138200D01*
X148999100Y-110998000D02*
G75*
G03*
X148999100Y-110998000I-457200J0D01*
G01*
D20*
%TO.C,LED7*%
X147221100Y-96748600D02*
X147221100Y-99288600D01*
X147221100Y-99288600D02*
G75*
G03*
X147221100Y-96748600I1270000J1270000D01*
G01*
X149791100Y-98018600D02*
G75*
G03*
X149791100Y-98018600I-1300000J0D01*
G01*
%TO.C,J6*%
X130126900Y-157988000D02*
X121135300Y-157988000D01*
X130126900Y-147497800D02*
X130126900Y-157988000D01*
X121135300Y-157988000D02*
X121135300Y-147497800D01*
X121135300Y-147497800D02*
X130126900Y-147497800D01*
D21*
%TO.C,C4*%
X166148600Y-62673600D02*
X166148600Y-63923600D01*
X166148600Y-59723600D02*
X166148600Y-60973600D01*
X163048600Y-63923600D02*
X161948600Y-62823600D01*
X166148600Y-63923600D02*
X163048600Y-63923600D01*
X163048600Y-59723600D02*
X166148600Y-59723600D01*
X161948600Y-60823600D02*
X163048600Y-59723600D01*
X162298600Y-62673600D02*
G75*
G03*
X165798600Y-62673600I1750000J849999D01*
G01*
X165798600Y-60973600D02*
G75*
G03*
X162298600Y-60973600I-1750000J-849999D01*
G01*
D20*
%TO.C,R8*%
X163563600Y-91923600D02*
X172153600Y-91923600D01*
X163563600Y-101713600D02*
X163563600Y-91923600D01*
D22*
X170308600Y-98008600D02*
X165433600Y-98008600D01*
D20*
X172153600Y-101713600D02*
X163563600Y-101713600D01*
X172153600Y-91923600D02*
X172153600Y-101713600D01*
D22*
X168958600Y-98008600D02*
X166758600Y-98008600D01*
X168958600Y-98008600D02*
G75*
G03*
X166758600Y-98008600I-1100000J625000D01*
G01*
X170398600Y-97383600D02*
G75*
G03*
X170398600Y-97383600I-2540000J0D01*
G01*
D21*
%TO.C,C5*%
X169398600Y-59723600D02*
X172498600Y-59723600D01*
X172498600Y-63923600D02*
X169398600Y-63923600D01*
X169398600Y-63923600D02*
X168298600Y-62823600D01*
X172498600Y-62673600D02*
X172498600Y-63923600D01*
X172498600Y-59723600D02*
X172498600Y-60973600D01*
X168298600Y-60823600D02*
X169398600Y-59723600D01*
X168648600Y-62673600D02*
G75*
G03*
X172148600Y-62673600I1750000J849999D01*
G01*
X172148600Y-60973600D02*
G75*
G03*
X168648600Y-60973600I-1750000J-849999D01*
G01*
D20*
%TO.C,R43*%
X144196100Y-125843600D02*
X144196100Y-116053600D01*
X152786100Y-125843600D02*
X144196100Y-125843600D01*
D22*
X150941100Y-122138600D02*
X146066100Y-122138600D01*
D20*
X144196100Y-116053600D02*
X152786100Y-116053600D01*
D22*
X149591100Y-122138600D02*
X147391100Y-122138600D01*
D20*
X152786100Y-116053600D02*
X152786100Y-125843600D01*
D22*
X149591100Y-122138600D02*
G75*
G03*
X147391100Y-122138600I-1100000J625000D01*
G01*
X151031100Y-121513600D02*
G75*
G03*
X151031100Y-121513600I-2540000J0D01*
G01*
D20*
%TO.C,LED6*%
X147221100Y-91351100D02*
X147221100Y-93891100D01*
X147221100Y-93891100D02*
G75*
G03*
X147221100Y-91351100I1270000J1270000D01*
G01*
X149791100Y-92621100D02*
G75*
G03*
X149791100Y-92621100I-1300000J0D01*
G01*
%TO.C,J3*%
X143995300Y-143383000D02*
X143995300Y-132892800D01*
X143995300Y-132892800D02*
X152986900Y-132892800D01*
X152986900Y-132892800D02*
X152986900Y-143383000D01*
X152986900Y-143383000D02*
X143995300Y-143383000D01*
%TO.C,R42*%
X133418600Y-125843600D02*
X124828600Y-125843600D01*
D22*
X130223600Y-122138600D02*
X128023600Y-122138600D01*
D20*
X124828600Y-125843600D02*
X124828600Y-116053600D01*
X124828600Y-116053600D02*
X133418600Y-116053600D01*
D22*
X131573600Y-122138600D02*
X126698600Y-122138600D01*
D20*
X133418600Y-116053600D02*
X133418600Y-125843600D01*
D22*
X130223600Y-122138600D02*
G75*
G03*
X128023600Y-122138600I-1100000J625000D01*
G01*
X131663600Y-121513600D02*
G75*
G03*
X131663600Y-121513600I-2540000J0D01*
G01*
D21*
%TO.C,C30*%
X158321100Y-99142300D02*
X158321100Y-96742300D01*
X161521100Y-99142300D02*
X160871100Y-99142300D01*
X158971100Y-99142300D02*
X158321100Y-99142300D01*
X161521100Y-96742300D02*
X161521100Y-99142300D01*
X160821100Y-96042300D02*
X161521100Y-96742300D01*
X158321100Y-96742300D02*
X159021100Y-96042300D01*
X158971100Y-96442300D02*
G75*
G03*
X158971100Y-98642300I950001J-1100000D01*
G01*
X160871100Y-98642300D02*
G75*
G03*
X160821100Y-96392301I-949999J1104444D01*
G01*
D20*
%TO.C,J1*%
X121135300Y-132892800D02*
X130126900Y-132892800D01*
X121135300Y-143383000D02*
X121135300Y-132892800D01*
X130126900Y-132892800D02*
X130126900Y-143383000D01*
X130126900Y-143383000D02*
X121135300Y-143383000D01*
%TO.C,LED5*%
X147221100Y-85953600D02*
X147221100Y-88493600D01*
X147221100Y-88493600D02*
G75*
G03*
X147221100Y-85953600I1270000J1270000D01*
G01*
X149791100Y-87223600D02*
G75*
G03*
X149791100Y-87223600I-1300000J0D01*
G01*
%TO.C,J7*%
X132565300Y-147497800D02*
X141556900Y-147497800D01*
X141556900Y-157988000D02*
X132565300Y-157988000D01*
X141556900Y-147497800D02*
X141556900Y-157988000D01*
X132565300Y-157988000D02*
X132565300Y-147497800D01*
%TO.C,IC3*%
X172474600Y-82194800D02*
X172474600Y-84658800D01*
X168004600Y-84658800D02*
X168004600Y-82194800D01*
D22*
%TO.C,SW2*%
X150777100Y-61061600D02*
X155095100Y-61061600D01*
X149888100Y-56985600D02*
X149888100Y-59029600D01*
X155095100Y-54965600D02*
X150777100Y-54965600D01*
X155984100Y-57015600D02*
X155984100Y-59029600D01*
X154714100Y-58013600D02*
G75*
G03*
X154714100Y-58013600I-1778000J0D01*
G01*
D20*
%TO.C,J9*%
X164416900Y-147497800D02*
X164416900Y-157988000D01*
X155425300Y-157988000D02*
X155425300Y-147497800D01*
X164416900Y-157988000D02*
X155425300Y-157988000D01*
X155425300Y-147497800D02*
X164416900Y-147497800D01*
D23*
%TO.C,IC6*%
X127040800Y-110109000D02*
X127040800Y-115138200D01*
D26*
X130977800Y-114909600D02*
X130977800Y-110337600D01*
X127269400Y-110337600D02*
X127269400Y-114909600D01*
X130977800Y-114909600D02*
X127269400Y-114909600D01*
D23*
X127040800Y-110109000D02*
X131206400Y-110109000D01*
D26*
X127269400Y-110337600D02*
X130977800Y-110337600D01*
D23*
X131206400Y-115138200D02*
X131206400Y-110109000D01*
X131206400Y-115138200D02*
X127040800Y-115138200D01*
X128361600Y-110998000D02*
G75*
G03*
X128361600Y-110998000I-457200J0D01*
G01*
%TD*%
%LPC*%
D29*
X165072790Y-131028681D02*
X165006992Y-131061580D01*
X164875395Y-131061580D01*
X164809597Y-131028681D01*
X164776698Y-130995782D01*
X164743799Y-130929984D01*
X164743799Y-130732590D01*
X164776698Y-130666792D01*
X164809597Y-130633893D01*
X164875395Y-130600994D01*
X165006992Y-130600994D01*
X165072790Y-130633893D01*
X165664972Y-131028681D02*
X165599174Y-131061580D01*
X165467578Y-131061580D01*
X165401780Y-131028681D01*
X165368881Y-130995782D01*
X165335982Y-130929984D01*
X165335982Y-130732590D01*
X165368881Y-130666792D01*
X165401780Y-130633893D01*
X165467578Y-130600994D01*
X165599174Y-130600994D01*
X165664972Y-130633893D01*
X165961064Y-130798388D02*
X166487449Y-130798388D01*
X166816439Y-131061580D02*
X166816439Y-130370700D01*
X166816439Y-130633893D02*
X166882237Y-130600994D01*
X167013833Y-130600994D01*
X167079632Y-130633893D01*
X167112531Y-130666792D01*
X167145430Y-130732590D01*
X167145430Y-130929984D01*
X167112531Y-130995782D01*
X167079632Y-131028681D01*
X167013833Y-131061580D01*
X166882237Y-131061580D01*
X166816439Y-131028681D01*
X167375723Y-130600994D02*
X167540218Y-131061580D01*
X167704713Y-130600994D02*
X167540218Y-131061580D01*
X167474420Y-131226076D01*
X167441521Y-131258975D01*
X167375723Y-131291874D01*
X167967906Y-130798388D02*
X168494291Y-130798388D01*
X168790382Y-131028681D02*
X168856180Y-131061580D01*
X168987776Y-131061580D01*
X169053574Y-131028681D01*
X169086473Y-130962883D01*
X169086473Y-130929984D01*
X169053574Y-130864186D01*
X168987776Y-130831287D01*
X168889079Y-130831287D01*
X168823281Y-130798388D01*
X168790382Y-130732590D01*
X168790382Y-130699691D01*
X168823281Y-130633893D01*
X168889079Y-130600994D01*
X168987776Y-130600994D01*
X169053574Y-130633893D01*
X169678656Y-131061580D02*
X169678656Y-130699691D01*
X169645757Y-130633893D01*
X169579959Y-130600994D01*
X169448363Y-130600994D01*
X169382565Y-130633893D01*
X169678656Y-131028681D02*
X169612858Y-131061580D01*
X169448363Y-131061580D01*
X169382565Y-131028681D01*
X169349666Y-130962883D01*
X169349666Y-130897085D01*
X169382565Y-130831287D01*
X169448363Y-130798388D01*
X169612858Y-130798388D01*
X169678656Y-130765489D01*
X142601883Y-131389099D02*
X142634782Y-131356200D01*
X142700580Y-131323300D01*
X142865075Y-131323300D01*
X142930873Y-131356200D01*
X142963772Y-131389099D01*
X142996672Y-131454897D01*
X142996672Y-131520695D01*
X142963772Y-131619392D01*
X142568984Y-132014180D01*
X142996672Y-132014180D01*
X143424359Y-131323300D02*
X143490157Y-131323300D01*
X143555955Y-131356200D01*
X143588854Y-131389099D01*
X143621753Y-131454897D01*
X143654652Y-131586493D01*
X143654652Y-131750988D01*
X143621753Y-131882584D01*
X143588854Y-131948382D01*
X143555955Y-131981281D01*
X143490157Y-132014180D01*
X143424359Y-132014180D01*
X143358561Y-131981281D01*
X143325662Y-131948382D01*
X143292763Y-131882584D01*
X143259864Y-131750988D01*
X143259864Y-131586493D01*
X143292763Y-131454897D01*
X143325662Y-131389099D01*
X143358561Y-131356200D01*
X143424359Y-131323300D01*
X144312633Y-132014180D02*
X143917845Y-132014180D01*
X144115239Y-132014180D02*
X144115239Y-131323300D01*
X144049441Y-131421998D01*
X143983643Y-131487796D01*
X143917845Y-131520695D01*
X144542927Y-131323300D02*
X145003513Y-131323300D01*
X144707422Y-132014180D01*
X145266706Y-131948382D02*
X145299605Y-131981281D01*
X145266706Y-132014180D01*
X145233807Y-131981281D01*
X145266706Y-131948382D01*
X145266706Y-132014180D01*
X146056283Y-131553594D02*
X146220778Y-132014180D01*
X146385273Y-131553594D01*
X146977456Y-131323300D02*
X146648466Y-131323300D01*
X146615567Y-131652291D01*
X146648466Y-131619392D01*
X146714264Y-131586493D01*
X146878759Y-131586493D01*
X146944557Y-131619392D01*
X146977456Y-131652291D01*
X147010355Y-131718089D01*
X147010355Y-131882584D01*
X146977456Y-131948382D01*
X146944557Y-131981281D01*
X146878759Y-132014180D01*
X146714264Y-132014180D01*
X146648466Y-131981281D01*
X146615567Y-131948382D01*
X163592232Y-131810891D02*
X163822526Y-131810891D01*
X163921223Y-132172780D02*
X163592232Y-132172780D01*
X163592232Y-131481900D01*
X163921223Y-131481900D01*
X163822526Y-131218708D02*
X163723829Y-131317405D01*
X164217314Y-132172780D02*
X164217314Y-131712194D01*
X164217314Y-131777992D02*
X164250213Y-131745093D01*
X164316012Y-131712194D01*
X164414709Y-131712194D01*
X164480507Y-131745093D01*
X164513406Y-131810891D01*
X164513406Y-132172780D01*
X164513406Y-131810891D02*
X164546305Y-131745093D01*
X164612103Y-131712194D01*
X164710800Y-131712194D01*
X164776598Y-131745093D01*
X164809497Y-131810891D01*
X164809497Y-132172780D01*
X165138488Y-132172780D02*
X165138488Y-131712194D01*
X165138488Y-131481900D02*
X165105589Y-131514800D01*
X165138488Y-131547699D01*
X165171387Y-131514800D01*
X165138488Y-131481900D01*
X165138488Y-131547699D01*
X165566175Y-132172780D02*
X165500377Y-132139881D01*
X165467478Y-132074083D01*
X165467478Y-131481900D01*
X165829368Y-132172780D02*
X165829368Y-131712194D01*
X165829368Y-131481900D02*
X165796469Y-131514800D01*
X165829368Y-131547699D01*
X165862267Y-131514800D01*
X165829368Y-131481900D01*
X165829368Y-131547699D01*
X166421551Y-132139881D02*
X166355752Y-132172780D01*
X166224156Y-132172780D01*
X166158358Y-132139881D01*
X166125459Y-132074083D01*
X166125459Y-131810891D01*
X166158358Y-131745093D01*
X166224156Y-131712194D01*
X166355752Y-131712194D01*
X166421551Y-131745093D01*
X166454450Y-131810891D01*
X166454450Y-131876689D01*
X166125459Y-131942487D01*
X167638815Y-131514800D02*
X167573017Y-131481900D01*
X167474320Y-131481900D01*
X167375623Y-131514800D01*
X167309825Y-131580598D01*
X167276926Y-131646396D01*
X167244027Y-131777992D01*
X167244027Y-131876689D01*
X167276926Y-132008285D01*
X167309825Y-132074083D01*
X167375623Y-132139881D01*
X167474320Y-132172780D01*
X167540118Y-132172780D01*
X167638815Y-132139881D01*
X167671714Y-132106982D01*
X167671714Y-131876689D01*
X167540118Y-131876689D01*
X167967806Y-132172780D02*
X167967806Y-131712194D01*
X167967806Y-131481900D02*
X167934907Y-131514800D01*
X167967806Y-131547699D01*
X168000705Y-131514800D01*
X167967806Y-131481900D01*
X167967806Y-131547699D01*
X168395493Y-132172780D02*
X168329695Y-132139881D01*
X168296796Y-132074083D01*
X168296796Y-131481900D01*
X168757383Y-132172780D02*
X168691585Y-132139881D01*
X168658686Y-132074083D01*
X168658686Y-131481900D01*
X169283768Y-132139881D02*
X169217970Y-132172780D01*
X169086373Y-132172780D01*
X169020575Y-132139881D01*
X168987676Y-132074083D01*
X168987676Y-131810891D01*
X169020575Y-131745093D01*
X169086373Y-131712194D01*
X169217970Y-131712194D01*
X169283768Y-131745093D01*
X169316667Y-131810891D01*
X169316667Y-131876689D01*
X168987676Y-131942487D01*
X169514061Y-131712194D02*
X169777253Y-131712194D01*
X169612758Y-131481900D02*
X169612758Y-132074083D01*
X169645657Y-132139881D01*
X169711455Y-132172780D01*
X169777253Y-132172780D01*
D30*
X152085036Y-132078185D02*
X152085036Y-130653245D01*
X152627871Y-130653245D01*
X152763579Y-130721100D01*
X152831433Y-130788954D01*
X152899288Y-130924662D01*
X152899288Y-131128225D01*
X152831433Y-131263934D01*
X152763579Y-131331788D01*
X152627871Y-131399642D01*
X152085036Y-131399642D01*
X153713539Y-132078185D02*
X153577831Y-132010331D01*
X153509976Y-131874622D01*
X153509976Y-130653245D01*
X154867062Y-132078185D02*
X154867062Y-131331788D01*
X154799208Y-131196080D01*
X154663499Y-131128225D01*
X154392082Y-131128225D01*
X154256373Y-131196080D01*
X154867062Y-132010331D02*
X154731353Y-132078185D01*
X154392082Y-132078185D01*
X154256373Y-132010331D01*
X154188519Y-131874622D01*
X154188519Y-131738914D01*
X154256373Y-131603205D01*
X154392082Y-131535351D01*
X154731353Y-131535351D01*
X154867062Y-131467497D01*
X155545605Y-132078185D02*
X155545605Y-131128225D01*
X155545605Y-130653245D02*
X155477751Y-130721100D01*
X155545605Y-130788954D01*
X155613459Y-130721100D01*
X155545605Y-130653245D01*
X155545605Y-130788954D01*
X156020585Y-131128225D02*
X156563419Y-131128225D01*
X156224148Y-130653245D02*
X156224148Y-131874622D01*
X156292002Y-132010331D01*
X156427711Y-132078185D01*
X156563419Y-132078185D01*
X156970545Y-132010331D02*
X157106253Y-132078185D01*
X157377671Y-132078185D01*
X157513379Y-132010331D01*
X157581233Y-131874622D01*
X157581233Y-131806768D01*
X157513379Y-131671060D01*
X157377671Y-131603205D01*
X157174108Y-131603205D01*
X157038399Y-131535351D01*
X156970545Y-131399642D01*
X156970545Y-131331788D01*
X157038399Y-131196080D01*
X157174108Y-131128225D01*
X157377671Y-131128225D01*
X157513379Y-131196080D01*
%TO.C,IC3*%
G36*
X170764600Y-86188800D02*
G01*
X169714600Y-86188800D01*
X169714600Y-84613800D01*
X170764600Y-84613800D01*
X170764600Y-86188800D01*
G37*
G36*
X169264600Y-86188800D02*
G01*
X168214600Y-86188800D01*
X168214600Y-84613800D01*
X169264600Y-84613800D01*
X169264600Y-86188800D01*
G37*
G36*
X172264600Y-86188800D02*
G01*
X171214600Y-86188800D01*
X171214600Y-84613800D01*
X172264600Y-84613800D01*
X172264600Y-86188800D01*
G37*
%TD*%
D31*
%TO.C,D2*%
X175161100Y-59278600D03*
X175161100Y-55478600D03*
%TD*%
D32*
%TO.C,D1*%
X159603600Y-55478600D03*
X159603600Y-59278600D03*
%TD*%
D33*
%TO.C,C13*%
X170268600Y-79603600D03*
X173068600Y-79603600D03*
%TD*%
D34*
%TO.C,R37*%
X162778600Y-114246100D03*
X162778600Y-115446100D03*
%TD*%
D35*
%TO.C,R5*%
X130358700Y-83254700D03*
X129158700Y-83254700D03*
%TD*%
D36*
%TO.C,JP3*%
X120868600Y-155803600D03*
%TD*%
D37*
%TO.C,R14*%
X135826100Y-110083600D03*
X137026100Y-110083600D03*
%TD*%
D34*
%TO.C,C51*%
X143728600Y-126946100D03*
X143728600Y-128146100D03*
%TD*%
D38*
%TO.C,LED8*%
X148491100Y-103416100D03*
X151031100Y-103416100D03*
X145951100Y-103416100D03*
%TD*%
D34*
%TO.C,C26*%
X136902400Y-92497300D03*
X136902400Y-93697300D03*
%TD*%
D39*
%TO.C,C22*%
X169574800Y-88811100D03*
X172174800Y-88811100D03*
%TD*%
D40*
%TO.C,C8*%
X153094900Y-71472400D03*
X153094900Y-70272400D03*
%TD*%
D37*
%TO.C,R3*%
X154241100Y-71031100D03*
X155441100Y-71031100D03*
%TD*%
D41*
%TO.C,R7*%
X131623600Y-104383600D03*
X129123600Y-104383600D03*
X126623600Y-104383600D03*
D42*
X133823600Y-97383600D03*
X124423600Y-97383600D03*
%TD*%
D43*
%TO.C,SW1*%
X140794900Y-55753000D03*
X147297300Y-55753000D03*
X140794900Y-60274200D03*
X147297300Y-60274200D03*
%TD*%
D44*
%TO.C,D3*%
X145781000Y-101667200D03*
X145781000Y-99767200D03*
X143581000Y-100717200D03*
%TD*%
D38*
%TO.C,LED3*%
X148491100Y-76428600D03*
X151031100Y-76428600D03*
X145951100Y-76428600D03*
%TD*%
D40*
%TO.C,C6*%
X137061100Y-63376100D03*
X137061100Y-62176100D03*
%TD*%
%TO.C,R32*%
X134521100Y-115128600D03*
X134521100Y-113928600D03*
%TD*%
D45*
%TO.C,C55*%
X125528600Y-144373500D03*
X123828600Y-144373500D03*
%TD*%
D34*
%TO.C,R24*%
X121186100Y-111388600D03*
X121186100Y-112588600D03*
%TD*%
D46*
%TO.C,J4*%
X159921100Y-137388600D03*
D47*
X159921100Y-131673600D03*
X159921100Y-134213600D03*
X159921100Y-141833600D03*
%TD*%
D48*
%TO.C,C31*%
X156267400Y-98336100D03*
X154367400Y-98336100D03*
%TD*%
D49*
%TO.C,L3*%
X175161100Y-62406100D03*
X175161100Y-60806100D03*
%TD*%
D40*
%TO.C,R11*%
X157222400Y-107191100D03*
X157222400Y-105991100D03*
%TD*%
D35*
%TO.C,C23*%
X141712600Y-90239800D03*
X140512600Y-90239800D03*
%TD*%
%TO.C,C36*%
X128771100Y-109131100D03*
X127571100Y-109131100D03*
%TD*%
D40*
%TO.C,R13*%
X156428600Y-110048600D03*
X156428600Y-108848600D03*
%TD*%
%TO.C,C33*%
X156111100Y-107191100D03*
X156111100Y-105991100D03*
%TD*%
D34*
%TO.C,C15*%
X131822500Y-81385000D03*
X131822500Y-82585000D03*
%TD*%
D50*
%TO.C,C56*%
X137163600Y-144373600D03*
X138863600Y-144373600D03*
%TD*%
D39*
%TO.C,C16*%
X155445900Y-82937300D03*
X158045900Y-82937300D03*
%TD*%
D34*
%TO.C,R48*%
X140871100Y-145361100D03*
X140871100Y-146561100D03*
%TD*%
%TO.C,R40*%
X122456100Y-116468600D03*
X122456100Y-117668600D03*
%TD*%
%TO.C,R22*%
X162778600Y-110436100D03*
X162778600Y-111636100D03*
%TD*%
D36*
%TO.C,JP1*%
X120868600Y-53568600D03*
%TD*%
D41*
%TO.C,R2*%
X169088600Y-77078600D03*
X166588600Y-77078600D03*
X164088600Y-77078600D03*
D42*
X171288600Y-70078600D03*
X161888600Y-70078600D03*
%TD*%
D51*
%TO.C,R46*%
X162246100Y-145643600D03*
X163946100Y-145643600D03*
%TD*%
D38*
%TO.C,LED1*%
X148491100Y-65633600D03*
X151031100Y-65633600D03*
X145951100Y-65633600D03*
%TD*%
D52*
%TO.C,L4*%
X150872400Y-66956100D03*
X150872400Y-68556100D03*
%TD*%
D38*
%TO.C,LED2*%
X148491100Y-71031100D03*
X151031100Y-71031100D03*
X145951100Y-71031100D03*
%TD*%
D34*
%TO.C,R19*%
X144363600Y-110118600D03*
X144363600Y-111318600D03*
%TD*%
D53*
%TO.C,C29*%
X154367600Y-96113600D03*
X156267600Y-96113600D03*
%TD*%
D34*
%TO.C,R27*%
X156428600Y-111388600D03*
X156428600Y-112588600D03*
%TD*%
D40*
%TO.C,R36*%
X156428700Y-115128600D03*
X156428700Y-113928600D03*
%TD*%
D54*
%TO.C,H2*%
X158968600Y-127228500D03*
%TD*%
D37*
%TO.C,C37*%
X171386100Y-110401100D03*
X172586100Y-110401100D03*
%TD*%
D34*
%TO.C,R25*%
X122456100Y-111388600D03*
X122456100Y-112588600D03*
%TD*%
D40*
%TO.C,C40*%
X145633600Y-111318600D03*
X145633600Y-110118600D03*
%TD*%
D49*
%TO.C,L2*%
X159603600Y-62247400D03*
X159603600Y-60647400D03*
%TD*%
D35*
%TO.C,R6*%
X130358600Y-84207400D03*
X129158600Y-84207400D03*
%TD*%
D40*
%TO.C,C38*%
X124996100Y-111318600D03*
X124996100Y-110118600D03*
%TD*%
D46*
%TO.C,J2*%
X137061100Y-137388600D03*
D47*
X137061100Y-131673600D03*
X137061100Y-134213600D03*
X137061100Y-141833600D03*
%TD*%
D51*
%TO.C,R47*%
X173676100Y-145643600D03*
X175376100Y-145643600D03*
%TD*%
D54*
%TO.C,H3*%
X138013600Y-127228600D03*
%TD*%
D38*
%TO.C,LED4*%
X148491100Y-81826100D03*
X151031100Y-81826100D03*
X145951100Y-81826100D03*
%TD*%
D55*
%TO.C,IC8*%
X165568600Y-111648600D03*
X165568600Y-112298600D03*
X165568600Y-112948600D03*
X165568600Y-113598600D03*
X171418600Y-113598600D03*
X171418600Y-112948600D03*
X171418600Y-112298600D03*
X171418600Y-111648600D03*
%TD*%
D56*
%TO.C,IC1*%
X125948600Y-55473600D03*
X125948600Y-58013600D03*
X125948600Y-60553600D03*
%TD*%
D34*
%TO.C,R41*%
X135791100Y-116468600D03*
X135791100Y-117668600D03*
%TD*%
D40*
%TO.C,R35*%
X155158600Y-115128600D03*
X155158600Y-113928600D03*
%TD*%
D34*
%TO.C,C47*%
X133251100Y-113928600D03*
X133251100Y-115128600D03*
%TD*%
D57*
%TO.C,IC2*%
X153253600Y-78518600D03*
X153888600Y-78518600D03*
X154523600Y-78518600D03*
X155158600Y-78518600D03*
X155793600Y-78518600D03*
X156428600Y-78518600D03*
X157063600Y-78518600D03*
X157698600Y-78518600D03*
X158333600Y-78518600D03*
X158968600Y-78518600D03*
X159603600Y-78518600D03*
X160238600Y-78518600D03*
X160238600Y-73068600D03*
X159603600Y-73068600D03*
X158968600Y-73068600D03*
X158333600Y-73068600D03*
X157698600Y-73068600D03*
X157063600Y-73068600D03*
X156428600Y-73068600D03*
X155793600Y-73068600D03*
X155158600Y-73068600D03*
X154523600Y-73068600D03*
X153888600Y-73068600D03*
X153253600Y-73068600D03*
%TD*%
D34*
%TO.C,C49*%
X153888600Y-113928600D03*
X153888600Y-115128600D03*
%TD*%
D46*
%TO.C,J5*%
X171351100Y-137388600D03*
D47*
X171351100Y-131673600D03*
X171351100Y-134213600D03*
X171351100Y-141833600D03*
%TD*%
D37*
%TO.C,C18*%
X156145800Y-85318700D03*
X157345800Y-85318700D03*
%TD*%
D35*
%TO.C,C14*%
X125278600Y-80238600D03*
X124078600Y-80238600D03*
%TD*%
D58*
%TO.C,C3*%
X134521100Y-63123600D03*
X134521100Y-60523600D03*
%TD*%
D41*
%TO.C,R1*%
X132893600Y-77078600D03*
X130393600Y-77078600D03*
X127893600Y-77078600D03*
D42*
X135093600Y-70078600D03*
X125693600Y-70078600D03*
%TD*%
D50*
%TO.C,C57*%
X150022400Y-144373600D03*
X151722400Y-144373600D03*
%TD*%
D46*
%TO.C,J8*%
X148491100Y-151993600D03*
D47*
X148491100Y-146278600D03*
X148491100Y-148818600D03*
X148491100Y-156438600D03*
%TD*%
D35*
%TO.C,C53*%
X129088600Y-130403600D03*
X127888600Y-130403600D03*
%TD*%
D37*
%TO.C,C10*%
X135032500Y-77539700D03*
X136232500Y-77539700D03*
%TD*%
D59*
%TO.C,IC5*%
X154762700Y-92925900D03*
X155423100Y-92925900D03*
X156083500Y-92925900D03*
X156718500Y-92925900D03*
X157378900Y-92925900D03*
X158013900Y-92925900D03*
X158678900Y-92925900D03*
X159313900Y-92925900D03*
X159974300Y-92925900D03*
X160634700Y-92925900D03*
X160634700Y-87236300D03*
X159974300Y-87236300D03*
X159313900Y-87236300D03*
X158678900Y-87236300D03*
X158013900Y-87236300D03*
X157378900Y-87236300D03*
X156718500Y-87236300D03*
X156083500Y-87236300D03*
X155423100Y-87236300D03*
X154762700Y-87236300D03*
%TD*%
D34*
%TO.C,R18*%
X134521100Y-110118600D03*
X134521100Y-111318600D03*
%TD*%
%TO.C,C52*%
X163096100Y-126946100D03*
X163096100Y-128146100D03*
%TD*%
D40*
%TO.C,R21*%
X161508600Y-111636100D03*
X161508600Y-110436100D03*
%TD*%
D34*
%TO.C,C45*%
X164048600Y-112976100D03*
X164048600Y-114176100D03*
%TD*%
D60*
%TO.C,C61*%
X142776200Y-156494900D03*
X142776200Y-154794900D03*
%TD*%
D40*
%TO.C,R12*%
X158651100Y-107191100D03*
X158651100Y-105991100D03*
%TD*%
D45*
%TO.C,C58*%
X169661300Y-144373600D03*
X167961300Y-144373600D03*
%TD*%
D41*
%TO.C,R44*%
X170358600Y-128213600D03*
X167858600Y-128213600D03*
X165358600Y-128213600D03*
D61*
X172258600Y-121513600D03*
X163458600Y-121513600D03*
%TD*%
D37*
%TO.C,C9*%
X135032400Y-76269800D03*
X136232400Y-76269800D03*
%TD*%
%TO.C,C28*%
X159321100Y-94367300D03*
X160521100Y-94367300D03*
%TD*%
D36*
%TO.C,JP4*%
X176113600Y-155803600D03*
%TD*%
D40*
%TO.C,C41*%
X153888600Y-111318600D03*
X153888600Y-110118600D03*
%TD*%
%TO.C,R10*%
X124202400Y-106397300D03*
X124202400Y-105197300D03*
%TD*%
D35*
%TO.C,R29*%
X143058600Y-113893600D03*
X141858600Y-113893600D03*
%TD*%
D37*
%TO.C,C21*%
X125348600Y-88017300D03*
X126548600Y-88017300D03*
%TD*%
D35*
%TO.C,C34*%
X167823600Y-106591100D03*
X166623600Y-106591100D03*
%TD*%
%TO.C,R15*%
X143058600Y-110083600D03*
X141858600Y-110083600D03*
%TD*%
%TO.C,C32*%
X129088600Y-106591100D03*
X127888600Y-106591100D03*
%TD*%
%TO.C,C50*%
X161473600Y-115481100D03*
X160273600Y-115481100D03*
%TD*%
D40*
%TO.C,C19*%
X129123600Y-86394800D03*
X129123600Y-85194800D03*
%TD*%
D35*
%TO.C,R23*%
X143058600Y-111353600D03*
X141858600Y-111353600D03*
%TD*%
D62*
%TO.C,IC9*%
X159129900Y-114041100D03*
X161029900Y-114041100D03*
X160079900Y-111841100D03*
%TD*%
D63*
%TO.C,C2*%
X136743600Y-55343600D03*
X136743600Y-58143600D03*
%TD*%
D40*
%TO.C,R51*%
X142458600Y-147831100D03*
X142458600Y-146631100D03*
%TD*%
D35*
%TO.C,C11*%
X130358600Y-79286100D03*
X129158600Y-79286100D03*
%TD*%
D64*
%TO.C,L1*%
X136373600Y-53568600D03*
X134473600Y-53568600D03*
%TD*%
D65*
%TO.C,IC4*%
X133128600Y-81933600D03*
X133128600Y-82433600D03*
X133128600Y-82933600D03*
X133128600Y-83433600D03*
X133128600Y-83933600D03*
X133128600Y-84433600D03*
X133128600Y-84933600D03*
X133128600Y-85433600D03*
X133128600Y-85933600D03*
X133128600Y-86433600D03*
X133128600Y-86933600D03*
X133128600Y-87433600D03*
D66*
X134628600Y-88933600D03*
X135128600Y-88933600D03*
X135628600Y-88933600D03*
X136128600Y-88933600D03*
X136628600Y-88933600D03*
X137128600Y-88933600D03*
X137628600Y-88933600D03*
X138128600Y-88933600D03*
X138628600Y-88933600D03*
X139128600Y-88933600D03*
X139628600Y-88933600D03*
X140128600Y-88933600D03*
D65*
X141628600Y-87433600D03*
X141628600Y-86933600D03*
X141628600Y-86433600D03*
X141628600Y-85933600D03*
X141628600Y-85433600D03*
X141628600Y-84933600D03*
X141628600Y-84433600D03*
X141628600Y-83933600D03*
X141628600Y-83433600D03*
X141628600Y-82933600D03*
X141628600Y-82433600D03*
X141628600Y-81933600D03*
D66*
X140128600Y-80433600D03*
X139628600Y-80433600D03*
X139128600Y-80433600D03*
X138628600Y-80433600D03*
X138128600Y-80433600D03*
X137628600Y-80433600D03*
X137128600Y-80433600D03*
X136628600Y-80433600D03*
X136128600Y-80433600D03*
X135628600Y-80433600D03*
X135128600Y-80433600D03*
X134628600Y-80433600D03*
%TD*%
D35*
%TO.C,C24*%
X141712600Y-91509700D03*
X140512600Y-91509700D03*
%TD*%
D46*
%TO.C,J10*%
X171351100Y-151993600D03*
D47*
X171351100Y-146278600D03*
X171351100Y-148818600D03*
X171351100Y-156438600D03*
%TD*%
D67*
%TO.C,Q1*%
X126463600Y-86243600D03*
X126463600Y-81843600D03*
X124063600Y-81843600D03*
X124063600Y-86243600D03*
%TD*%
D68*
%TO.C,L5*%
X172038600Y-77539900D03*
X173638600Y-77539900D03*
%TD*%
D40*
%TO.C,C39*%
X133251100Y-111318600D03*
X133251100Y-110118600D03*
%TD*%
D39*
%TO.C,C7*%
X152588700Y-67697400D03*
X155188700Y-67697400D03*
%TD*%
D35*
%TO.C,C12*%
X166553600Y-79286100D03*
X165353600Y-79286100D03*
%TD*%
D40*
%TO.C,R33*%
X135791100Y-115128600D03*
X135791100Y-113928600D03*
%TD*%
D69*
%TO.C,IC7*%
X147043300Y-110673600D03*
X147043300Y-111323600D03*
X147043300Y-111973600D03*
X147043300Y-112623600D03*
X147043300Y-113273600D03*
X147043300Y-113923600D03*
X147043300Y-114573600D03*
X152478900Y-114573600D03*
X152478900Y-113923600D03*
X152478900Y-113273600D03*
X152478900Y-112623600D03*
X152478900Y-111973600D03*
X152478900Y-111323600D03*
X152478900Y-110673600D03*
%TD*%
D38*
%TO.C,LED7*%
X148491100Y-98018600D03*
X151031100Y-98018600D03*
X145951100Y-98018600D03*
%TD*%
D46*
%TO.C,J6*%
X125631100Y-151993600D03*
D47*
X125631100Y-146278600D03*
X125631100Y-148818600D03*
X125631100Y-156438600D03*
%TD*%
D34*
%TO.C,C27*%
X153571100Y-92973600D03*
X153571100Y-94173600D03*
%TD*%
%TO.C,R49*%
X144681100Y-145361100D03*
X144681100Y-146561100D03*
%TD*%
D40*
%TO.C,C43*%
X172938600Y-112906100D03*
X172938600Y-111706100D03*
%TD*%
D70*
%TO.C,C4*%
X162448600Y-61823600D03*
X165648600Y-61823600D03*
%TD*%
D34*
%TO.C,R28*%
X174208600Y-111706100D03*
X174208600Y-112906100D03*
%TD*%
D41*
%TO.C,R8*%
X170358600Y-104383600D03*
X167858600Y-104383600D03*
X165358600Y-104383600D03*
D42*
X172558600Y-97383600D03*
X163158600Y-97383600D03*
%TD*%
D40*
%TO.C,R9*%
X124202400Y-103698600D03*
X124202400Y-102498600D03*
%TD*%
D35*
%TO.C,R38*%
X143058600Y-115163600D03*
X141858600Y-115163600D03*
%TD*%
D70*
%TO.C,C5*%
X168798600Y-61823600D03*
X171998600Y-61823600D03*
%TD*%
D41*
%TO.C,R43*%
X150991100Y-128213600D03*
X148491100Y-128213600D03*
X145991100Y-128213600D03*
D61*
X152891100Y-121513600D03*
X144091100Y-121513600D03*
%TD*%
D38*
%TO.C,LED6*%
X148491100Y-92621100D03*
X151031100Y-92621100D03*
X145951100Y-92621100D03*
%TD*%
D46*
%TO.C,J3*%
X148491100Y-137388600D03*
D47*
X148491100Y-131673600D03*
X148491100Y-134213600D03*
X148491100Y-141833600D03*
%TD*%
D60*
%TO.C,C59*%
X131346100Y-156494800D03*
X131346100Y-154794800D03*
%TD*%
D37*
%TO.C,C17*%
X153764900Y-85318600D03*
X154964900Y-85318600D03*
%TD*%
D40*
%TO.C,C35*%
X159762400Y-107191200D03*
X159762400Y-105991200D03*
%TD*%
D34*
%TO.C,R45*%
X154523600Y-144091100D03*
X154523600Y-145291100D03*
%TD*%
D35*
%TO.C,C44*%
X145598600Y-112623600D03*
X144398600Y-112623600D03*
%TD*%
%TO.C,R16*%
X170046100Y-110401100D03*
X168846100Y-110401100D03*
%TD*%
D34*
%TO.C,C46*%
X124996100Y-113928600D03*
X124996100Y-115128600D03*
%TD*%
D41*
%TO.C,R42*%
X131623600Y-128213600D03*
X129123600Y-128213600D03*
X126623600Y-128213600D03*
D61*
X133523600Y-121513600D03*
X124723600Y-121513600D03*
%TD*%
D34*
%TO.C,R39*%
X156428600Y-116151100D03*
X156428600Y-117351100D03*
%TD*%
%TO.C,C25*%
X135791100Y-92497300D03*
X135791100Y-93697300D03*
%TD*%
D71*
%TO.C,C54*%
X165794800Y-142729800D03*
X165794800Y-144429800D03*
%TD*%
D72*
%TO.C,C30*%
X159921100Y-96242300D03*
X159921100Y-98842300D03*
%TD*%
D35*
%TO.C,R50*%
X133057300Y-146437300D03*
X131857300Y-146437300D03*
%TD*%
%TO.C,R4*%
X135597400Y-75158600D03*
X134397400Y-75158600D03*
%TD*%
D46*
%TO.C,J1*%
X125631100Y-137388600D03*
D47*
X125631100Y-131673600D03*
X125631100Y-134213600D03*
X125631100Y-141833600D03*
%TD*%
D34*
%TO.C,R20*%
X155158600Y-110118600D03*
X155158600Y-111318600D03*
%TD*%
%TO.C,C48*%
X145633600Y-113928600D03*
X145633600Y-115128600D03*
%TD*%
D63*
%TO.C,C1*%
X134521100Y-55343600D03*
X134521100Y-58143600D03*
%TD*%
D34*
%TO.C,R17*%
X123726100Y-110118600D03*
X123726100Y-111318600D03*
%TD*%
D38*
%TO.C,LED5*%
X148491100Y-87223600D03*
X151031100Y-87223600D03*
X145951100Y-87223600D03*
%TD*%
D46*
%TO.C,J7*%
X137061100Y-151993600D03*
D47*
X137061100Y-146278600D03*
X137061100Y-148818600D03*
X137061100Y-156438600D03*
%TD*%
D36*
%TO.C,JP2*%
X176113600Y-53568600D03*
%TD*%
D40*
%TO.C,R31*%
X123726100Y-115128600D03*
X123726100Y-113928600D03*
%TD*%
D73*
%TO.C,IC3*%
X170239600Y-82219800D03*
%TD*%
D34*
%TO.C,R26*%
X135791100Y-111388600D03*
X135791100Y-112588600D03*
%TD*%
D43*
%TO.C,SW2*%
X149684900Y-55753000D03*
X156187300Y-55753000D03*
X149684900Y-60274200D03*
X156187300Y-60274200D03*
%TD*%
D46*
%TO.C,J9*%
X159921100Y-151993600D03*
D47*
X159921100Y-146278600D03*
X159921100Y-148818600D03*
X159921100Y-156438600D03*
%TD*%
D60*
%TO.C,C60*%
X154047400Y-156494800D03*
X154047400Y-154794800D03*
%TD*%
D40*
%TO.C,R30*%
X122456100Y-115128600D03*
X122456100Y-113928600D03*
%TD*%
%TO.C,C42*%
X164048600Y-111636100D03*
X164048600Y-110436100D03*
%TD*%
%TO.C,C20*%
X130393600Y-86394800D03*
X130393600Y-85194800D03*
%TD*%
%TO.C,R34*%
X144363600Y-115128600D03*
X144363600Y-113928600D03*
%TD*%
D69*
%TO.C,IC6*%
X126405800Y-110673600D03*
X126405800Y-111323600D03*
X126405800Y-111973600D03*
X126405800Y-112623600D03*
X126405800Y-113273600D03*
X126405800Y-113923600D03*
X126405800Y-114573600D03*
X131841400Y-114573600D03*
X131841400Y-113923600D03*
X131841400Y-113273600D03*
X131841400Y-112623600D03*
X131841400Y-111973600D03*
X131841400Y-111323600D03*
X131841400Y-110673600D03*
%TD*%
D74*
%TO.C,JP6*%
X121503600Y-73253600D03*
D43*
X121503600Y-70713600D03*
X121503600Y-68173600D03*
X121503600Y-65633600D03*
%TD*%
D75*
%TO.C,JP8*%
X172303600Y-57378600D03*
X172303600Y-54838600D03*
X169763600Y-57378600D03*
X169763600Y-54838600D03*
X167223600Y-57378600D03*
X167223600Y-54838600D03*
X164683600Y-57378600D03*
X164683600Y-54838600D03*
X162143600Y-57378600D03*
X162143600Y-54838600D03*
%TD*%
D43*
%TO.C,JP5*%
X121503600Y-103733600D03*
X121503600Y-106273600D03*
%TD*%
M02*
