%TF.GenerationSoftware,KiCad,Pcbnew,(6.0.11-0)*%
%TF.CreationDate,2023-04-25T19:31:51+02:00*%
%TF.ProjectId,plaits,706c6169-7473-42e6-9b69-6361645f7063,rev?*%
%TF.SameCoordinates,Original*%
%TF.FileFunction,Legend,Bot*%
%TF.FilePolarity,Positive*%
%FSLAX46Y46*%
G04 Gerber Fmt 4.6, Leading zero omitted, Abs format (unit mm)*
G04 Created by KiCad (PCBNEW (6.0.11-0)) date 2023-04-25 19:31:51*
%MOMM*%
%LPD*%
G01*
G04 APERTURE LIST*
G04 Aperture macros list*
%AMRoundRect*
0 Rectangle with rounded corners*
0 $1 Rounding radius*
0 $2 $3 $4 $5 $6 $7 $8 $9 X,Y pos of 4 corners*
0 Add a 4 corners polygon primitive as box body*
4,1,4,$2,$3,$4,$5,$6,$7,$8,$9,$2,$3,0*
0 Add four circle primitives for the rounded corners*
1,1,$1+$1,$2,$3*
1,1,$1+$1,$4,$5*
1,1,$1+$1,$6,$7*
1,1,$1+$1,$8,$9*
0 Add four rect primitives between the rounded corners*
20,1,$1+$1,$2,$3,$4,$5,0*
20,1,$1+$1,$4,$5,$6,$7,0*
20,1,$1+$1,$6,$7,$8,$9,0*
20,1,$1+$1,$8,$9,$2,$3,0*%
%AMFreePoly0*
4,1,25,0.575031,1.328373,0.579933,1.323882,1.323882,0.579933,1.345910,0.532692,1.346200,0.526051,1.346200,-0.526051,1.328373,-0.575031,1.323882,-0.579933,0.579933,-1.323882,0.532692,-1.345910,0.526051,-1.346200,-0.526051,-1.346200,-0.575031,-1.328373,-0.579933,-1.323882,-1.323882,-0.579933,-1.345910,-0.532692,-1.346200,-0.526051,-1.346200,0.526051,-1.328373,0.575031,-1.323882,0.579933,
-0.579933,1.323882,-0.532692,1.345910,-0.526051,1.346200,0.526051,1.346200,0.575031,1.328373,0.575031,1.328373,$1*%
%AMFreePoly1*
4,1,25,0.417216,0.947373,0.422118,0.942882,0.942882,0.422118,0.964910,0.374877,0.965200,0.368236,0.965200,-0.368236,0.947373,-0.417216,0.942882,-0.422118,0.422118,-0.942882,0.374877,-0.964910,0.368236,-0.965200,-0.368236,-0.965200,-0.417216,-0.947373,-0.422118,-0.942882,-0.942882,-0.422118,-0.964910,-0.374877,-0.965200,-0.368236,-0.965200,0.368236,-0.947373,0.417216,-0.942882,0.422118,
-0.422118,0.942882,-0.374877,0.964910,-0.368236,0.965200,0.368236,0.965200,0.417216,0.947373,0.417216,0.947373,$1*%
%AMFreePoly2*
4,1,25,0.448779,1.023573,0.453681,1.019082,1.019082,0.453681,1.041110,0.406440,1.041400,0.399799,1.041400,-0.399799,1.023573,-0.448779,1.019082,-0.453681,0.453681,-1.019082,0.406440,-1.041110,0.399799,-1.041400,-0.399799,-1.041400,-0.448779,-1.023573,-0.453681,-1.019082,-1.019082,-0.453681,-1.041110,-0.406440,-1.041400,-0.399799,-1.041400,0.399799,-1.023573,0.448779,-1.019082,0.453681,
-0.453681,1.019082,-0.406440,1.041110,-0.399799,1.041400,0.399799,1.041400,0.448779,1.023573,0.448779,1.023573,$1*%
%AMFreePoly3*
4,1,25,0.706544,1.645873,0.711446,1.641382,1.641382,0.711446,1.663410,0.664205,1.663700,0.657564,1.663700,-0.657564,1.645873,-0.706544,1.641382,-0.711446,0.711446,-1.641382,0.664205,-1.663410,0.657564,-1.663700,-0.657564,-1.663700,-0.706544,-1.645873,-0.711446,-1.641382,-1.641382,-0.711446,-1.663410,-0.664205,-1.663700,-0.657564,-1.663700,0.657564,-1.645873,0.706544,-1.641382,0.711446,
-0.711446,1.641382,-0.664205,1.663410,-0.657564,1.663700,0.657564,1.663700,0.706544,1.645873,0.706544,1.645873,$1*%
%AMFreePoly4*
4,1,25,0.438258,0.998173,0.443160,0.993682,0.993682,0.443160,1.015710,0.395919,1.016000,0.389278,1.016000,-0.389278,0.998173,-0.438258,0.993682,-0.443160,0.443160,-0.993682,0.395919,-1.015710,0.389278,-1.016000,-0.389278,-1.016000,-0.438258,-0.998173,-0.443160,-0.993682,-0.993682,-0.443160,-1.015710,-0.395919,-1.016000,-0.389278,-1.016000,0.389278,-0.998173,0.438258,-0.993682,0.443160,
-0.443160,0.993682,-0.395919,1.015710,-0.389278,1.016000,0.389278,1.016000,0.438258,0.998173,0.438258,0.998173,$1*%
G04 Aperture macros list end*
%ADD10C,0.152400*%
%ADD11C,0.190500*%
%ADD12C,0.266700*%
%ADD13C,0.381000*%
%ADD14C,0.203200*%
%ADD15C,1.258800*%
%ADD16RoundRect,0.076200X0.939800X-0.939800X0.939800X0.939800X-0.939800X0.939800X-0.939800X-0.939800X0*%
%ADD17FreePoly0,90.000000*%
%ADD18C,2.032000*%
%ADD19C,2.200000*%
%ADD20FreePoly1,180.000000*%
%ADD21C,3.000000*%
%ADD22FreePoly2,0.000000*%
%ADD23FreePoly3,90.000000*%
%ADD24RoundRect,0.076200X-0.939800X-0.939800X0.939800X-0.939800X0.939800X0.939800X-0.939800X0.939800X0*%
%ADD25FreePoly4,180.000000*%
G04 APERTURE END LIST*
D10*
X162143600Y-60553600D02*
X162143600Y-61823600D01*
X167223600Y-60553600D02*
X167223600Y-62141100D01*
X164683600Y-60553600D02*
X164683600Y-62141100D01*
X169763600Y-60553600D02*
X169763600Y-62141100D01*
X172303600Y-60553600D02*
X172303600Y-62141100D01*
D11*
X172321742Y-66325901D02*
X172321742Y-65503425D01*
X171910504Y-64423925D02*
X171910504Y-65040782D01*
X171910504Y-64732353D02*
X172990004Y-64732353D01*
X172835790Y-64835163D01*
X172732980Y-64937972D01*
X172681576Y-65040782D01*
X172887195Y-64012686D02*
X172938600Y-63961282D01*
X172990004Y-63858472D01*
X172990004Y-63601448D01*
X172938600Y-63498639D01*
X172887195Y-63447234D01*
X172784385Y-63395829D01*
X172681576Y-63395829D01*
X172527361Y-63447234D01*
X171910504Y-64064091D01*
X171910504Y-63395829D01*
X172990004Y-63087401D02*
X171910504Y-62727567D01*
X172990004Y-62367734D01*
X167858600Y-64732353D02*
X167910004Y-64835163D01*
X167910004Y-64989377D01*
X167858600Y-65143591D01*
X167755790Y-65246401D01*
X167652980Y-65297805D01*
X167447361Y-65349210D01*
X167293147Y-65349210D01*
X167087528Y-65297805D01*
X166984719Y-65246401D01*
X166881909Y-65143591D01*
X166830504Y-64989377D01*
X166830504Y-64886567D01*
X166881909Y-64732353D01*
X166933314Y-64680948D01*
X167293147Y-64680948D01*
X167293147Y-64886567D01*
X166830504Y-64218305D02*
X167910004Y-64218305D01*
X166830504Y-63601448D01*
X167910004Y-63601448D01*
X166830504Y-63087401D02*
X167910004Y-63087401D01*
X167910004Y-62830377D01*
X167858600Y-62676163D01*
X167755790Y-62573353D01*
X167652980Y-62521948D01*
X167447361Y-62470544D01*
X167293147Y-62470544D01*
X167087528Y-62521948D01*
X166984719Y-62573353D01*
X166881909Y-62676163D01*
X166830504Y-62830377D01*
X166830504Y-63087401D01*
D12*
X174674266Y-73037488D02*
X175393933Y-73541255D01*
X174674266Y-73901088D02*
X176185566Y-73901088D01*
X176185566Y-73325355D01*
X176113600Y-73181421D01*
X176041633Y-73109455D01*
X175897700Y-73037488D01*
X175681800Y-73037488D01*
X175537866Y-73109455D01*
X175465900Y-73181421D01*
X175393933Y-73325355D01*
X175393933Y-73901088D01*
X174746233Y-71814055D02*
X174674266Y-71957988D01*
X174674266Y-72245855D01*
X174746233Y-72389788D01*
X174890166Y-72461755D01*
X175465900Y-72461755D01*
X175609833Y-72389788D01*
X175681800Y-72245855D01*
X175681800Y-71957988D01*
X175609833Y-71814055D01*
X175465900Y-71742088D01*
X175321966Y-71742088D01*
X175178033Y-72461755D01*
X174674266Y-70446688D02*
X176185566Y-70446688D01*
X174746233Y-70446688D02*
X174674266Y-70590621D01*
X174674266Y-70878488D01*
X174746233Y-71022421D01*
X174818200Y-71094388D01*
X174962133Y-71166355D01*
X175393933Y-71166355D01*
X175537866Y-71094388D01*
X175609833Y-71022421D01*
X175681800Y-70878488D01*
X175681800Y-70590621D01*
X175609833Y-70446688D01*
X174746233Y-68647521D02*
X174674266Y-68431621D01*
X174674266Y-68071788D01*
X174746233Y-67927855D01*
X174818200Y-67855888D01*
X174962133Y-67783921D01*
X175106066Y-67783921D01*
X175250000Y-67855888D01*
X175321966Y-67927855D01*
X175393933Y-68071788D01*
X175465900Y-68359655D01*
X175537866Y-68503588D01*
X175609833Y-68575555D01*
X175753766Y-68647521D01*
X175897700Y-68647521D01*
X176041633Y-68575555D01*
X176113600Y-68503588D01*
X176185566Y-68359655D01*
X176185566Y-67999821D01*
X176113600Y-67783921D01*
X175681800Y-67352121D02*
X175681800Y-66776388D01*
X176185566Y-67136221D02*
X174890166Y-67136221D01*
X174746233Y-67064255D01*
X174674266Y-66920321D01*
X174674266Y-66776388D01*
X174674266Y-66272621D02*
X175681800Y-66272621D01*
X175393933Y-66272621D02*
X175537866Y-66200655D01*
X175609833Y-66128688D01*
X175681800Y-65984755D01*
X175681800Y-65840821D01*
X174674266Y-65337055D02*
X175681800Y-65337055D01*
X176185566Y-65337055D02*
X176113600Y-65409021D01*
X176041633Y-65337055D01*
X176113600Y-65265088D01*
X176185566Y-65337055D01*
X176041633Y-65337055D01*
X175681800Y-64617388D02*
X174170500Y-64617388D01*
X175609833Y-64617388D02*
X175681800Y-64473455D01*
X175681800Y-64185588D01*
X175609833Y-64041655D01*
X175537866Y-63969688D01*
X175393933Y-63897721D01*
X174962133Y-63897721D01*
X174818200Y-63969688D01*
X174746233Y-64041655D01*
X174674266Y-64185588D01*
X174674266Y-64473455D01*
X174746233Y-64617388D01*
X174746233Y-62674288D02*
X174674266Y-62818221D01*
X174674266Y-63106088D01*
X174746233Y-63250021D01*
X174890166Y-63321988D01*
X175465900Y-63321988D01*
X175609833Y-63250021D01*
X175681800Y-63106088D01*
X175681800Y-62818221D01*
X175609833Y-62674288D01*
X175465900Y-62602321D01*
X175321966Y-62602321D01*
X175178033Y-63321988D01*
D10*
X176802444Y-92433723D02*
X176761320Y-92392600D01*
X176679073Y-92351476D01*
X176473454Y-92351476D01*
X176391206Y-92392600D01*
X176350082Y-92433723D01*
X176308959Y-92515971D01*
X176308959Y-92598219D01*
X176350082Y-92721590D01*
X176843568Y-93215076D01*
X176308959Y-93215076D01*
X175774349Y-92351476D02*
X175692101Y-92351476D01*
X175609854Y-92392600D01*
X175568730Y-92433723D01*
X175527606Y-92515971D01*
X175486482Y-92680466D01*
X175486482Y-92886085D01*
X175527606Y-93050580D01*
X175568730Y-93132828D01*
X175609854Y-93173952D01*
X175692101Y-93215076D01*
X175774349Y-93215076D01*
X175856597Y-93173952D01*
X175897720Y-93132828D01*
X175938844Y-93050580D01*
X175979968Y-92886085D01*
X175979968Y-92680466D01*
X175938844Y-92515971D01*
X175897720Y-92433723D01*
X175856597Y-92392600D01*
X175774349Y-92351476D01*
X174664006Y-93215076D02*
X175157492Y-93215076D01*
X174910749Y-93215076D02*
X174910749Y-92351476D01*
X174992997Y-92474847D01*
X175075244Y-92557095D01*
X175157492Y-92598219D01*
X174376140Y-92351476D02*
X173800406Y-92351476D01*
X174170520Y-93215076D01*
X173471416Y-93132828D02*
X173430292Y-93173952D01*
X173471416Y-93215076D01*
X173512540Y-93173952D01*
X173471416Y-93132828D01*
X173471416Y-93215076D01*
X172484444Y-92639342D02*
X172278825Y-93215076D01*
X172073206Y-92639342D01*
X171332978Y-92351476D02*
X171744216Y-92351476D01*
X171785340Y-92762714D01*
X171744216Y-92721590D01*
X171661968Y-92680466D01*
X171456349Y-92680466D01*
X171374101Y-92721590D01*
X171332978Y-92762714D01*
X171291854Y-92844961D01*
X171291854Y-93050580D01*
X171332978Y-93132828D01*
X171374101Y-93173952D01*
X171456349Y-93215076D01*
X171661968Y-93215076D01*
X171744216Y-93173952D01*
X171785340Y-93132828D01*
D13*
X176304302Y-90613390D02*
X176304302Y-88454390D01*
X175481826Y-88454390D01*
X175276207Y-88557200D01*
X175173397Y-88660009D01*
X175070588Y-88865628D01*
X175070588Y-89174057D01*
X175173397Y-89379676D01*
X175276207Y-89482485D01*
X175481826Y-89585295D01*
X176304302Y-89585295D01*
X173836873Y-90613390D02*
X174042492Y-90510580D01*
X174145302Y-90304961D01*
X174145302Y-88454390D01*
X172089111Y-90613390D02*
X172089111Y-89482485D01*
X172191921Y-89276866D01*
X172397540Y-89174057D01*
X172808778Y-89174057D01*
X173014397Y-89276866D01*
X172089111Y-90510580D02*
X172294730Y-90613390D01*
X172808778Y-90613390D01*
X173014397Y-90510580D01*
X173117207Y-90304961D01*
X173117207Y-90099342D01*
X173014397Y-89893723D01*
X172808778Y-89790914D01*
X172294730Y-89790914D01*
X172089111Y-89688104D01*
X171061016Y-90613390D02*
X171061016Y-89174057D01*
X171061016Y-88454390D02*
X171163826Y-88557200D01*
X171061016Y-88660009D01*
X170958207Y-88557200D01*
X171061016Y-88454390D01*
X171061016Y-88660009D01*
X170341350Y-89174057D02*
X169518873Y-89174057D01*
X170032921Y-88454390D02*
X170032921Y-90304961D01*
X169930111Y-90510580D01*
X169724492Y-90613390D01*
X169518873Y-90613390D01*
X168902016Y-90510580D02*
X168696397Y-90613390D01*
X168285159Y-90613390D01*
X168079540Y-90510580D01*
X167976730Y-90304961D01*
X167976730Y-90202152D01*
X168079540Y-89996533D01*
X168285159Y-89893723D01*
X168593588Y-89893723D01*
X168799207Y-89790914D01*
X168902016Y-89585295D01*
X168902016Y-89482485D01*
X168799207Y-89276866D01*
X168593588Y-89174057D01*
X168285159Y-89174057D01*
X168079540Y-89276866D01*
D10*
X176391206Y-91903952D02*
X176473454Y-91945076D01*
X176637949Y-91945076D01*
X176720197Y-91903952D01*
X176761320Y-91862828D01*
X176802444Y-91780580D01*
X176802444Y-91533838D01*
X176761320Y-91451590D01*
X176720197Y-91410466D01*
X176637949Y-91369342D01*
X176473454Y-91369342D01*
X176391206Y-91410466D01*
X175650978Y-91903952D02*
X175733225Y-91945076D01*
X175897720Y-91945076D01*
X175979968Y-91903952D01*
X176021092Y-91862828D01*
X176062216Y-91780580D01*
X176062216Y-91533838D01*
X176021092Y-91451590D01*
X175979968Y-91410466D01*
X175897720Y-91369342D01*
X175733225Y-91369342D01*
X175650978Y-91410466D01*
X175280863Y-91616085D02*
X174622882Y-91616085D01*
X174211644Y-91945076D02*
X174211644Y-91081476D01*
X174211644Y-91410466D02*
X174129397Y-91369342D01*
X173964901Y-91369342D01*
X173882654Y-91410466D01*
X173841530Y-91451590D01*
X173800406Y-91533838D01*
X173800406Y-91780580D01*
X173841530Y-91862828D01*
X173882654Y-91903952D01*
X173964901Y-91945076D01*
X174129397Y-91945076D01*
X174211644Y-91903952D01*
X173512540Y-91369342D02*
X173306920Y-91945076D01*
X173101301Y-91369342D02*
X173306920Y-91945076D01*
X173389168Y-92150695D01*
X173430292Y-92191819D01*
X173512540Y-92232942D01*
X172772311Y-91616085D02*
X172114330Y-91616085D01*
X171744216Y-91903952D02*
X171661968Y-91945076D01*
X171497473Y-91945076D01*
X171415225Y-91903952D01*
X171374101Y-91821704D01*
X171374101Y-91780580D01*
X171415225Y-91698333D01*
X171497473Y-91657209D01*
X171620844Y-91657209D01*
X171703092Y-91616085D01*
X171744216Y-91533838D01*
X171744216Y-91492714D01*
X171703092Y-91410466D01*
X171620844Y-91369342D01*
X171497473Y-91369342D01*
X171415225Y-91410466D01*
X170633873Y-91945076D02*
X170633873Y-91492714D01*
X170674997Y-91410466D01*
X170757244Y-91369342D01*
X170921740Y-91369342D01*
X171003987Y-91410466D01*
X170633873Y-91903952D02*
X170716120Y-91945076D01*
X170921740Y-91945076D01*
X171003987Y-91903952D01*
X171045111Y-91821704D01*
X171045111Y-91739457D01*
X171003987Y-91657209D01*
X170921740Y-91616085D01*
X170716120Y-91616085D01*
X170633873Y-91574961D01*
X169564654Y-91492714D02*
X169276787Y-91492714D01*
X169153416Y-91945076D02*
X169564654Y-91945076D01*
X169564654Y-91081476D01*
X169153416Y-91081476D01*
X169276787Y-90752485D02*
X169400159Y-90875857D01*
X168783301Y-91945076D02*
X168783301Y-91369342D01*
X168783301Y-91451590D02*
X168742178Y-91410466D01*
X168659930Y-91369342D01*
X168536559Y-91369342D01*
X168454311Y-91410466D01*
X168413187Y-91492714D01*
X168413187Y-91945076D01*
X168413187Y-91492714D02*
X168372063Y-91410466D01*
X168289816Y-91369342D01*
X168166444Y-91369342D01*
X168084197Y-91410466D01*
X168043073Y-91492714D01*
X168043073Y-91945076D01*
X167631835Y-91945076D02*
X167631835Y-91369342D01*
X167631835Y-91081476D02*
X167672959Y-91122600D01*
X167631835Y-91163723D01*
X167590711Y-91122600D01*
X167631835Y-91081476D01*
X167631835Y-91163723D01*
X167097225Y-91945076D02*
X167179473Y-91903952D01*
X167220597Y-91821704D01*
X167220597Y-91081476D01*
X166768235Y-91945076D02*
X166768235Y-91369342D01*
X166768235Y-91081476D02*
X166809359Y-91122600D01*
X166768235Y-91163723D01*
X166727111Y-91122600D01*
X166768235Y-91081476D01*
X166768235Y-91163723D01*
X166028006Y-91903952D02*
X166110254Y-91945076D01*
X166274749Y-91945076D01*
X166356997Y-91903952D01*
X166398120Y-91821704D01*
X166398120Y-91492714D01*
X166356997Y-91410466D01*
X166274749Y-91369342D01*
X166110254Y-91369342D01*
X166028006Y-91410466D01*
X165986882Y-91492714D01*
X165986882Y-91574961D01*
X166398120Y-91657209D01*
X164506425Y-91122600D02*
X164588673Y-91081476D01*
X164712044Y-91081476D01*
X164835416Y-91122600D01*
X164917663Y-91204847D01*
X164958787Y-91287095D01*
X164999911Y-91451590D01*
X164999911Y-91574961D01*
X164958787Y-91739457D01*
X164917663Y-91821704D01*
X164835416Y-91903952D01*
X164712044Y-91945076D01*
X164629797Y-91945076D01*
X164506425Y-91903952D01*
X164465301Y-91862828D01*
X164465301Y-91574961D01*
X164629797Y-91574961D01*
X164095187Y-91945076D02*
X164095187Y-91369342D01*
X164095187Y-91081476D02*
X164136311Y-91122600D01*
X164095187Y-91163723D01*
X164054063Y-91122600D01*
X164095187Y-91081476D01*
X164095187Y-91163723D01*
X163560578Y-91945076D02*
X163642825Y-91903952D01*
X163683949Y-91821704D01*
X163683949Y-91081476D01*
X163108216Y-91945076D02*
X163190463Y-91903952D01*
X163231587Y-91821704D01*
X163231587Y-91081476D01*
X162450235Y-91903952D02*
X162532482Y-91945076D01*
X162696978Y-91945076D01*
X162779225Y-91903952D01*
X162820349Y-91821704D01*
X162820349Y-91492714D01*
X162779225Y-91410466D01*
X162696978Y-91369342D01*
X162532482Y-91369342D01*
X162450235Y-91410466D01*
X162409111Y-91492714D01*
X162409111Y-91574961D01*
X162820349Y-91657209D01*
X162162368Y-91369342D02*
X161833378Y-91369342D01*
X162038997Y-91081476D02*
X162038997Y-91821704D01*
X161997873Y-91903952D01*
X161915625Y-91945076D01*
X161833378Y-91945076D01*
D11*
X162161742Y-66008401D02*
X162161742Y-65185925D01*
X161750504Y-65597163D02*
X162572980Y-65597163D01*
X161750504Y-64106425D02*
X161750504Y-64723282D01*
X161750504Y-64414853D02*
X162830004Y-64414853D01*
X162675790Y-64517663D01*
X162572980Y-64620472D01*
X162521576Y-64723282D01*
X162727195Y-63695186D02*
X162778600Y-63643782D01*
X162830004Y-63540972D01*
X162830004Y-63283948D01*
X162778600Y-63181139D01*
X162727195Y-63129734D01*
X162624385Y-63078329D01*
X162521576Y-63078329D01*
X162367361Y-63129734D01*
X161750504Y-63746591D01*
X161750504Y-63078329D01*
X162830004Y-62769901D02*
X161750504Y-62410067D01*
X162830004Y-62050234D01*
X165318600Y-64732353D02*
X165370004Y-64835163D01*
X165370004Y-64989377D01*
X165318600Y-65143591D01*
X165215790Y-65246401D01*
X165112980Y-65297805D01*
X164907361Y-65349210D01*
X164753147Y-65349210D01*
X164547528Y-65297805D01*
X164444719Y-65246401D01*
X164341909Y-65143591D01*
X164290504Y-64989377D01*
X164290504Y-64886567D01*
X164341909Y-64732353D01*
X164393314Y-64680948D01*
X164753147Y-64680948D01*
X164753147Y-64886567D01*
X164290504Y-64218305D02*
X165370004Y-64218305D01*
X164290504Y-63601448D01*
X165370004Y-63601448D01*
X164290504Y-63087401D02*
X165370004Y-63087401D01*
X165370004Y-62830377D01*
X165318600Y-62676163D01*
X165215790Y-62573353D01*
X165112980Y-62521948D01*
X164907361Y-62470544D01*
X164753147Y-62470544D01*
X164547528Y-62521948D01*
X164444719Y-62573353D01*
X164341909Y-62676163D01*
X164290504Y-62830377D01*
X164290504Y-63087401D01*
X170398600Y-64732353D02*
X170450004Y-64835163D01*
X170450004Y-64989377D01*
X170398600Y-65143591D01*
X170295790Y-65246401D01*
X170192980Y-65297805D01*
X169987361Y-65349210D01*
X169833147Y-65349210D01*
X169627528Y-65297805D01*
X169524719Y-65246401D01*
X169421909Y-65143591D01*
X169370504Y-64989377D01*
X169370504Y-64886567D01*
X169421909Y-64732353D01*
X169473314Y-64680948D01*
X169833147Y-64680948D01*
X169833147Y-64886567D01*
X169370504Y-64218305D02*
X170450004Y-64218305D01*
X169370504Y-63601448D01*
X170450004Y-63601448D01*
X169370504Y-63087401D02*
X170450004Y-63087401D01*
X170450004Y-62830377D01*
X170398600Y-62676163D01*
X170295790Y-62573353D01*
X170192980Y-62521948D01*
X169987361Y-62470544D01*
X169833147Y-62470544D01*
X169627528Y-62521948D01*
X169524719Y-62573353D01*
X169421909Y-62676163D01*
X169370504Y-62830377D01*
X169370504Y-63087401D01*
D14*
%TO.C,JP6*%
X122138600Y-69443600D02*
X122773600Y-68808600D01*
X120233600Y-68808600D02*
X120868600Y-69443600D01*
X120868600Y-71983600D02*
X120233600Y-72618600D01*
X122773600Y-72618600D02*
X122138600Y-71983600D01*
X120233600Y-72618600D02*
X120233600Y-73888600D01*
X122773600Y-73888600D02*
X122138600Y-74523600D01*
X120233600Y-70078600D02*
X120233600Y-71348600D01*
X120868600Y-64363600D02*
X120233600Y-64998600D01*
X122773600Y-66268600D02*
X122773600Y-64998600D01*
X120868600Y-66903600D02*
X120233600Y-67538600D01*
X122773600Y-73888600D02*
X122773600Y-72618600D01*
X120868600Y-66903600D02*
X120233600Y-66268600D01*
X120868600Y-69443600D02*
X120233600Y-70078600D01*
X122773600Y-71348600D02*
X122773600Y-70078600D01*
X122138600Y-71983600D02*
X122773600Y-71348600D01*
X122138600Y-64363600D02*
X120868600Y-64363600D01*
X122773600Y-67538600D02*
X122138600Y-66903600D01*
X122773600Y-66268600D02*
X122138600Y-66903600D01*
X120233600Y-71348600D02*
X120868600Y-71983600D01*
X120233600Y-67538600D02*
X120233600Y-68808600D01*
X120868600Y-74523600D02*
X120233600Y-73888600D01*
X122773600Y-68808600D02*
X122773600Y-67538600D01*
X122773600Y-70078600D02*
X122138600Y-69443600D01*
X120233600Y-64998600D02*
X120233600Y-66268600D01*
X122773600Y-64998600D02*
X122138600Y-64363600D01*
X122138600Y-74523600D02*
X120868600Y-74523600D01*
%TO.C,JP8*%
X169423600Y-60608600D02*
X169423600Y-59108600D01*
X157123600Y-60608600D02*
X165023600Y-60608600D01*
X169423600Y-60608600D02*
X177323600Y-60608600D01*
X169423600Y-59108600D02*
X165023600Y-59108600D01*
X177323600Y-60608600D02*
X177323600Y-51708600D01*
X165023600Y-60608600D02*
X169423600Y-60608600D01*
X177323600Y-51608600D02*
X157123600Y-51608600D01*
X157123600Y-51608600D02*
X157123600Y-60608600D01*
X172938600Y-58883600D02*
X171668600Y-58883600D01*
X165023600Y-59108600D02*
X165023600Y-60608600D01*
%TO.C,JP5*%
X120868600Y-105003600D02*
X120233600Y-105638600D01*
X122773600Y-106908600D02*
X122773600Y-105638600D01*
X122138600Y-107543600D02*
X122773600Y-106908600D01*
X122138600Y-105003600D02*
X122773600Y-104368600D01*
X120233600Y-104368600D02*
X120868600Y-105003600D01*
X122138600Y-102463600D02*
X122773600Y-103098600D01*
X120233600Y-103098600D02*
X120233600Y-104368600D01*
X120868600Y-107543600D02*
X122138600Y-107543600D01*
X120868600Y-102463600D02*
X122138600Y-102463600D01*
X120233600Y-106908600D02*
X120868600Y-107543600D01*
X120233600Y-105638600D02*
X120233600Y-106908600D01*
X120233600Y-103098600D02*
X120868600Y-102463600D01*
X122773600Y-104368600D02*
X122773600Y-103098600D01*
X122773600Y-105638600D02*
X122138600Y-105003600D01*
%TD*%
%LPC*%
D15*
%TO.C,LED8*%
X148491100Y-103416100D03*
X151031100Y-103416100D03*
X145951100Y-103416100D03*
%TD*%
D16*
%TO.C,R7*%
X131623600Y-104383600D03*
X129123600Y-104383600D03*
X126623600Y-104383600D03*
D17*
X133823600Y-97383600D03*
X124423600Y-97383600D03*
%TD*%
D18*
%TO.C,SW1*%
X140794900Y-55753000D03*
X147297300Y-55753000D03*
X140794900Y-60274200D03*
X147297300Y-60274200D03*
%TD*%
D15*
%TO.C,LED3*%
X148491100Y-76428600D03*
X151031100Y-76428600D03*
X145951100Y-76428600D03*
%TD*%
D19*
%TO.C,J4*%
X159921100Y-137388600D03*
D20*
X159921100Y-131673600D03*
X159921100Y-134213600D03*
X159921100Y-141833600D03*
%TD*%
D16*
%TO.C,R2*%
X169088600Y-77078600D03*
X166588600Y-77078600D03*
X164088600Y-77078600D03*
D17*
X171288600Y-70078600D03*
X161888600Y-70078600D03*
%TD*%
D15*
%TO.C,LED1*%
X148491100Y-65633600D03*
X151031100Y-65633600D03*
X145951100Y-65633600D03*
%TD*%
%TO.C,LED2*%
X148491100Y-71031100D03*
X151031100Y-71031100D03*
X145951100Y-71031100D03*
%TD*%
D21*
%TO.C,H2*%
X158968600Y-127228500D03*
%TD*%
D19*
%TO.C,J2*%
X137061100Y-137388600D03*
D20*
X137061100Y-131673600D03*
X137061100Y-134213600D03*
X137061100Y-141833600D03*
%TD*%
D21*
%TO.C,H3*%
X138013600Y-127228600D03*
%TD*%
D15*
%TO.C,LED4*%
X148491100Y-81826100D03*
X151031100Y-81826100D03*
X145951100Y-81826100D03*
%TD*%
D22*
%TO.C,IC1*%
X125948600Y-55473600D03*
X125948600Y-58013600D03*
X125948600Y-60553600D03*
%TD*%
D19*
%TO.C,J5*%
X171351100Y-137388600D03*
D20*
X171351100Y-131673600D03*
X171351100Y-134213600D03*
X171351100Y-141833600D03*
%TD*%
D16*
%TO.C,R1*%
X132893600Y-77078600D03*
X130393600Y-77078600D03*
X127893600Y-77078600D03*
D17*
X135093600Y-70078600D03*
X125693600Y-70078600D03*
%TD*%
D19*
%TO.C,J8*%
X148491100Y-151993600D03*
D20*
X148491100Y-146278600D03*
X148491100Y-148818600D03*
X148491100Y-156438600D03*
%TD*%
D16*
%TO.C,R44*%
X170358600Y-128213600D03*
X167858600Y-128213600D03*
X165358600Y-128213600D03*
D23*
X172258600Y-121513600D03*
X163458600Y-121513600D03*
%TD*%
D19*
%TO.C,J10*%
X171351100Y-151993600D03*
D20*
X171351100Y-146278600D03*
X171351100Y-148818600D03*
X171351100Y-156438600D03*
%TD*%
D15*
%TO.C,LED7*%
X148491100Y-98018600D03*
X151031100Y-98018600D03*
X145951100Y-98018600D03*
%TD*%
D19*
%TO.C,J6*%
X125631100Y-151993600D03*
D20*
X125631100Y-146278600D03*
X125631100Y-148818600D03*
X125631100Y-156438600D03*
%TD*%
D16*
%TO.C,R8*%
X170358600Y-104383600D03*
X167858600Y-104383600D03*
X165358600Y-104383600D03*
D17*
X172558600Y-97383600D03*
X163158600Y-97383600D03*
%TD*%
D16*
%TO.C,R43*%
X150991100Y-128213600D03*
X148491100Y-128213600D03*
X145991100Y-128213600D03*
D23*
X152891100Y-121513600D03*
X144091100Y-121513600D03*
%TD*%
D15*
%TO.C,LED6*%
X148491100Y-92621100D03*
X151031100Y-92621100D03*
X145951100Y-92621100D03*
%TD*%
D19*
%TO.C,J3*%
X148491100Y-137388600D03*
D20*
X148491100Y-131673600D03*
X148491100Y-134213600D03*
X148491100Y-141833600D03*
%TD*%
D16*
%TO.C,R42*%
X131623600Y-128213600D03*
X129123600Y-128213600D03*
X126623600Y-128213600D03*
D23*
X133523600Y-121513600D03*
X124723600Y-121513600D03*
%TD*%
D19*
%TO.C,J1*%
X125631100Y-137388600D03*
D20*
X125631100Y-131673600D03*
X125631100Y-134213600D03*
X125631100Y-141833600D03*
%TD*%
D15*
%TO.C,LED5*%
X148491100Y-87223600D03*
X151031100Y-87223600D03*
X145951100Y-87223600D03*
%TD*%
D19*
%TO.C,J7*%
X137061100Y-151993600D03*
D20*
X137061100Y-146278600D03*
X137061100Y-148818600D03*
X137061100Y-156438600D03*
%TD*%
D18*
%TO.C,SW2*%
X149684900Y-55753000D03*
X156187300Y-55753000D03*
X149684900Y-60274200D03*
X156187300Y-60274200D03*
%TD*%
D19*
%TO.C,J9*%
X159921100Y-151993600D03*
D20*
X159921100Y-146278600D03*
X159921100Y-148818600D03*
X159921100Y-156438600D03*
%TD*%
D24*
%TO.C,JP6*%
X121503600Y-73253600D03*
D18*
X121503600Y-70713600D03*
X121503600Y-68173600D03*
X121503600Y-65633600D03*
%TD*%
D25*
%TO.C,JP8*%
X172303600Y-57378600D03*
X172303600Y-54838600D03*
X169763600Y-57378600D03*
X169763600Y-54838600D03*
X167223600Y-57378600D03*
X167223600Y-54838600D03*
X164683600Y-57378600D03*
X164683600Y-54838600D03*
X162143600Y-57378600D03*
X162143600Y-54838600D03*
%TD*%
D18*
%TO.C,JP5*%
X121503600Y-103733600D03*
X121503600Y-106273600D03*
%TD*%
M02*
