%TF.GenerationSoftware,KiCad,Pcbnew,7.0.5-0*%
%TF.CreationDate,2023-08-22T18:09:04+02:00*%
%TF.ProjectId,plaits,706c6169-7473-42e6-9b69-6361645f7063,rev?*%
%TF.SameCoordinates,Original*%
%TF.FileFunction,Legend,Bot*%
%TF.FilePolarity,Positive*%
%FSLAX46Y46*%
G04 Gerber Fmt 4.6, Leading zero omitted, Abs format (unit mm)*
G04 Created by KiCad (PCBNEW 7.0.5-0) date 2023-08-22 18:09:04*
%MOMM*%
%LPD*%
G01*
G04 APERTURE LIST*
G04 Aperture macros list*
%AMRoundRect*
0 Rectangle with rounded corners*
0 $1 Rounding radius*
0 $2 $3 $4 $5 $6 $7 $8 $9 X,Y pos of 4 corners*
0 Add a 4 corners polygon primitive as box body*
4,1,4,$2,$3,$4,$5,$6,$7,$8,$9,$2,$3,0*
0 Add four circle primitives for the rounded corners*
1,1,$1+$1,$2,$3*
1,1,$1+$1,$4,$5*
1,1,$1+$1,$6,$7*
1,1,$1+$1,$8,$9*
0 Add four rect primitives between the rounded corners*
20,1,$1+$1,$2,$3,$4,$5,0*
20,1,$1+$1,$4,$5,$6,$7,0*
20,1,$1+$1,$6,$7,$8,$9,0*
20,1,$1+$1,$8,$9,$2,$3,0*%
%AMFreePoly0*
4,1,25,0.575031,1.328373,0.579933,1.323882,1.323882,0.579933,1.345910,0.532692,1.346200,0.526051,1.346200,-0.526051,1.328373,-0.575031,1.323882,-0.579933,0.579933,-1.323882,0.532692,-1.345910,0.526051,-1.346200,-0.526051,-1.346200,-0.575031,-1.328373,-0.579933,-1.323882,-1.323882,-0.579933,-1.345910,-0.532692,-1.346200,-0.526051,-1.346200,0.526051,-1.328373,0.575031,-1.323882,0.579933,
-0.579933,1.323882,-0.532692,1.345910,-0.526051,1.346200,0.526051,1.346200,0.575031,1.328373,0.575031,1.328373,$1*%
%AMFreePoly1*
4,1,25,0.417216,0.947373,0.422118,0.942882,0.942882,0.422118,0.964910,0.374877,0.965200,0.368236,0.965200,-0.368236,0.947373,-0.417216,0.942882,-0.422118,0.422118,-0.942882,0.374877,-0.964910,0.368236,-0.965200,-0.368236,-0.965200,-0.417216,-0.947373,-0.422118,-0.942882,-0.942882,-0.422118,-0.964910,-0.374877,-0.965200,-0.368236,-0.965200,0.368236,-0.947373,0.417216,-0.942882,0.422118,
-0.422118,0.942882,-0.374877,0.964910,-0.368236,0.965200,0.368236,0.965200,0.417216,0.947373,0.417216,0.947373,$1*%
%AMFreePoly2*
4,1,25,0.448779,1.023573,0.453681,1.019082,1.019082,0.453681,1.041110,0.406440,1.041400,0.399799,1.041400,-0.399799,1.023573,-0.448779,1.019082,-0.453681,0.453681,-1.019082,0.406440,-1.041110,0.399799,-1.041400,-0.399799,-1.041400,-0.448779,-1.023573,-0.453681,-1.019082,-1.019082,-0.453681,-1.041110,-0.406440,-1.041400,-0.399799,-1.041400,0.399799,-1.023573,0.448779,-1.019082,0.453681,
-0.453681,1.019082,-0.406440,1.041110,-0.399799,1.041400,0.399799,1.041400,0.448779,1.023573,0.448779,1.023573,$1*%
%AMFreePoly3*
4,1,25,0.706544,1.645873,0.711446,1.641382,1.641382,0.711446,1.663410,0.664205,1.663700,0.657564,1.663700,-0.657564,1.645873,-0.706544,1.641382,-0.711446,0.711446,-1.641382,0.664205,-1.663410,0.657564,-1.663700,-0.657564,-1.663700,-0.706544,-1.645873,-0.711446,-1.641382,-1.641382,-0.711446,-1.663410,-0.664205,-1.663700,-0.657564,-1.663700,0.657564,-1.645873,0.706544,-1.641382,0.711446,
-0.711446,1.641382,-0.664205,1.663410,-0.657564,1.663700,0.657564,1.663700,0.706544,1.645873,0.706544,1.645873,$1*%
%AMFreePoly4*
4,1,25,0.438258,0.998173,0.443160,0.993682,0.993682,0.443160,1.015710,0.395919,1.016000,0.389278,1.016000,-0.389278,0.998173,-0.438258,0.993682,-0.443160,0.443160,-0.993682,0.395919,-1.015710,0.389278,-1.016000,-0.389278,-1.016000,-0.438258,-0.998173,-0.443160,-0.993682,-0.993682,-0.443160,-1.015710,-0.395919,-1.016000,-0.389278,-1.016000,0.389278,-0.998173,0.438258,-0.993682,0.443160,
-0.443160,0.993682,-0.395919,1.015710,-0.389278,1.016000,0.389278,1.016000,0.438258,0.998173,0.438258,0.998173,$1*%
G04 Aperture macros list end*
%ADD10C,0.152400*%
%ADD11C,0.190500*%
%ADD12C,0.266700*%
%ADD13C,0.381000*%
%ADD14C,0.203200*%
%ADD15C,1.752400*%
%ADD16RoundRect,0.076200X0.939800X-0.939800X0.939800X0.939800X-0.939800X0.939800X-0.939800X-0.939800X0*%
%ADD17FreePoly0,90.000000*%
%ADD18C,2.032000*%
%ADD19C,2.200000*%
%ADD20FreePoly1,180.000000*%
%ADD21C,3.000000*%
%ADD22FreePoly2,0.000000*%
%ADD23FreePoly3,90.000000*%
%ADD24RoundRect,0.076200X-0.939800X-0.939800X0.939800X-0.939800X0.939800X0.939800X-0.939800X0.939800X0*%
%ADD25FreePoly4,180.000000*%
G04 APERTURE END LIST*
D10*
X162143600Y-60553600D02*
X162143600Y-61823600D01*
X167223600Y-60553600D02*
X167223600Y-62141100D01*
X164683600Y-60553600D02*
X164683600Y-62141100D01*
X169763600Y-60553600D02*
X169763600Y-62141100D01*
X172303600Y-60553600D02*
X172303600Y-62141100D01*
D11*
X172228839Y-66327404D02*
X172228839Y-65504928D01*
X171817601Y-64425427D02*
X171817601Y-65042284D01*
X171817601Y-64733856D02*
X172897101Y-64733856D01*
X172897101Y-64733856D02*
X172742886Y-64836665D01*
X172742886Y-64836665D02*
X172640077Y-64939475D01*
X172640077Y-64939475D02*
X172588672Y-65042284D01*
X172794291Y-64014189D02*
X172845696Y-63962785D01*
X172845696Y-63962785D02*
X172897101Y-63859975D01*
X172897101Y-63859975D02*
X172897101Y-63602951D01*
X172897101Y-63602951D02*
X172845696Y-63500142D01*
X172845696Y-63500142D02*
X172794291Y-63448737D01*
X172794291Y-63448737D02*
X172691482Y-63397332D01*
X172691482Y-63397332D02*
X172588672Y-63397332D01*
X172588672Y-63397332D02*
X172434458Y-63448737D01*
X172434458Y-63448737D02*
X171817601Y-64065594D01*
X171817601Y-64065594D02*
X171817601Y-63397332D01*
X172897101Y-63088904D02*
X171817601Y-62729071D01*
X171817601Y-62729071D02*
X172897101Y-62369237D01*
X167765696Y-64733856D02*
X167817101Y-64836666D01*
X167817101Y-64836666D02*
X167817101Y-64990880D01*
X167817101Y-64990880D02*
X167765696Y-65145094D01*
X167765696Y-65145094D02*
X167662886Y-65247904D01*
X167662886Y-65247904D02*
X167560077Y-65299309D01*
X167560077Y-65299309D02*
X167354458Y-65350713D01*
X167354458Y-65350713D02*
X167200244Y-65350713D01*
X167200244Y-65350713D02*
X166994625Y-65299309D01*
X166994625Y-65299309D02*
X166891815Y-65247904D01*
X166891815Y-65247904D02*
X166789006Y-65145094D01*
X166789006Y-65145094D02*
X166737601Y-64990880D01*
X166737601Y-64990880D02*
X166737601Y-64888071D01*
X166737601Y-64888071D02*
X166789006Y-64733856D01*
X166789006Y-64733856D02*
X166840410Y-64682452D01*
X166840410Y-64682452D02*
X167200244Y-64682452D01*
X167200244Y-64682452D02*
X167200244Y-64888071D01*
X166737601Y-64219809D02*
X167817101Y-64219809D01*
X167817101Y-64219809D02*
X166737601Y-63602952D01*
X166737601Y-63602952D02*
X167817101Y-63602952D01*
X166737601Y-63088904D02*
X167817101Y-63088904D01*
X167817101Y-63088904D02*
X167817101Y-62831880D01*
X167817101Y-62831880D02*
X167765696Y-62677666D01*
X167765696Y-62677666D02*
X167662886Y-62574856D01*
X167662886Y-62574856D02*
X167560077Y-62523451D01*
X167560077Y-62523451D02*
X167354458Y-62472047D01*
X167354458Y-62472047D02*
X167200244Y-62472047D01*
X167200244Y-62472047D02*
X166994625Y-62523451D01*
X166994625Y-62523451D02*
X166891815Y-62574856D01*
X166891815Y-62574856D02*
X166789006Y-62677666D01*
X166789006Y-62677666D02*
X166737601Y-62831880D01*
X166737601Y-62831880D02*
X166737601Y-63088904D01*
D12*
X174544202Y-73039594D02*
X175263869Y-73543361D01*
X174544202Y-73903194D02*
X176055502Y-73903194D01*
X176055502Y-73903194D02*
X176055502Y-73327461D01*
X176055502Y-73327461D02*
X175983535Y-73183528D01*
X175983535Y-73183528D02*
X175911569Y-73111561D01*
X175911569Y-73111561D02*
X175767635Y-73039594D01*
X175767635Y-73039594D02*
X175551735Y-73039594D01*
X175551735Y-73039594D02*
X175407802Y-73111561D01*
X175407802Y-73111561D02*
X175335835Y-73183528D01*
X175335835Y-73183528D02*
X175263869Y-73327461D01*
X175263869Y-73327461D02*
X175263869Y-73903194D01*
X174616169Y-71816161D02*
X174544202Y-71960094D01*
X174544202Y-71960094D02*
X174544202Y-72247961D01*
X174544202Y-72247961D02*
X174616169Y-72391894D01*
X174616169Y-72391894D02*
X174760102Y-72463861D01*
X174760102Y-72463861D02*
X175335835Y-72463861D01*
X175335835Y-72463861D02*
X175479769Y-72391894D01*
X175479769Y-72391894D02*
X175551735Y-72247961D01*
X175551735Y-72247961D02*
X175551735Y-71960094D01*
X175551735Y-71960094D02*
X175479769Y-71816161D01*
X175479769Y-71816161D02*
X175335835Y-71744194D01*
X175335835Y-71744194D02*
X175191902Y-71744194D01*
X175191902Y-71744194D02*
X175047969Y-72463861D01*
X174544202Y-70448794D02*
X176055502Y-70448794D01*
X174616169Y-70448794D02*
X174544202Y-70592728D01*
X174544202Y-70592728D02*
X174544202Y-70880594D01*
X174544202Y-70880594D02*
X174616169Y-71024528D01*
X174616169Y-71024528D02*
X174688135Y-71096494D01*
X174688135Y-71096494D02*
X174832069Y-71168461D01*
X174832069Y-71168461D02*
X175263869Y-71168461D01*
X175263869Y-71168461D02*
X175407802Y-71096494D01*
X175407802Y-71096494D02*
X175479769Y-71024528D01*
X175479769Y-71024528D02*
X175551735Y-70880594D01*
X175551735Y-70880594D02*
X175551735Y-70592728D01*
X175551735Y-70592728D02*
X175479769Y-70448794D01*
X174616169Y-68649627D02*
X174544202Y-68433727D01*
X174544202Y-68433727D02*
X174544202Y-68073894D01*
X174544202Y-68073894D02*
X174616169Y-67929960D01*
X174616169Y-67929960D02*
X174688135Y-67857994D01*
X174688135Y-67857994D02*
X174832069Y-67786027D01*
X174832069Y-67786027D02*
X174976002Y-67786027D01*
X174976002Y-67786027D02*
X175119935Y-67857994D01*
X175119935Y-67857994D02*
X175191902Y-67929960D01*
X175191902Y-67929960D02*
X175263869Y-68073894D01*
X175263869Y-68073894D02*
X175335835Y-68361760D01*
X175335835Y-68361760D02*
X175407802Y-68505694D01*
X175407802Y-68505694D02*
X175479769Y-68577660D01*
X175479769Y-68577660D02*
X175623702Y-68649627D01*
X175623702Y-68649627D02*
X175767635Y-68649627D01*
X175767635Y-68649627D02*
X175911569Y-68577660D01*
X175911569Y-68577660D02*
X175983535Y-68505694D01*
X175983535Y-68505694D02*
X176055502Y-68361760D01*
X176055502Y-68361760D02*
X176055502Y-68001927D01*
X176055502Y-68001927D02*
X175983535Y-67786027D01*
X175551735Y-67354227D02*
X175551735Y-66778494D01*
X176055502Y-67138327D02*
X174760102Y-67138327D01*
X174760102Y-67138327D02*
X174616169Y-67066361D01*
X174616169Y-67066361D02*
X174544202Y-66922427D01*
X174544202Y-66922427D02*
X174544202Y-66778494D01*
X174544202Y-66274727D02*
X175551735Y-66274727D01*
X175263869Y-66274727D02*
X175407802Y-66202761D01*
X175407802Y-66202761D02*
X175479769Y-66130794D01*
X175479769Y-66130794D02*
X175551735Y-65986861D01*
X175551735Y-65986861D02*
X175551735Y-65842927D01*
X174544202Y-65339160D02*
X175551735Y-65339160D01*
X176055502Y-65339160D02*
X175983535Y-65411127D01*
X175983535Y-65411127D02*
X175911569Y-65339160D01*
X175911569Y-65339160D02*
X175983535Y-65267194D01*
X175983535Y-65267194D02*
X176055502Y-65339160D01*
X176055502Y-65339160D02*
X175911569Y-65339160D01*
X175551735Y-64619493D02*
X174040435Y-64619493D01*
X175479769Y-64619493D02*
X175551735Y-64475560D01*
X175551735Y-64475560D02*
X175551735Y-64187693D01*
X175551735Y-64187693D02*
X175479769Y-64043760D01*
X175479769Y-64043760D02*
X175407802Y-63971793D01*
X175407802Y-63971793D02*
X175263869Y-63899827D01*
X175263869Y-63899827D02*
X174832069Y-63899827D01*
X174832069Y-63899827D02*
X174688135Y-63971793D01*
X174688135Y-63971793D02*
X174616169Y-64043760D01*
X174616169Y-64043760D02*
X174544202Y-64187693D01*
X174544202Y-64187693D02*
X174544202Y-64475560D01*
X174544202Y-64475560D02*
X174616169Y-64619493D01*
X174616169Y-62676393D02*
X174544202Y-62820326D01*
X174544202Y-62820326D02*
X174544202Y-63108193D01*
X174544202Y-63108193D02*
X174616169Y-63252126D01*
X174616169Y-63252126D02*
X174760102Y-63324093D01*
X174760102Y-63324093D02*
X175335835Y-63324093D01*
X175335835Y-63324093D02*
X175479769Y-63252126D01*
X175479769Y-63252126D02*
X175551735Y-63108193D01*
X175551735Y-63108193D02*
X175551735Y-62820326D01*
X175551735Y-62820326D02*
X175479769Y-62676393D01*
X175479769Y-62676393D02*
X175335835Y-62604426D01*
X175335835Y-62604426D02*
X175191902Y-62604426D01*
X175191902Y-62604426D02*
X175047969Y-63324093D01*
D10*
X176801241Y-92361235D02*
X176760117Y-92320111D01*
X176760117Y-92320111D02*
X176677870Y-92278987D01*
X176677870Y-92278987D02*
X176472251Y-92278987D01*
X176472251Y-92278987D02*
X176390003Y-92320111D01*
X176390003Y-92320111D02*
X176348879Y-92361235D01*
X176348879Y-92361235D02*
X176307756Y-92443483D01*
X176307756Y-92443483D02*
X176307756Y-92525730D01*
X176307756Y-92525730D02*
X176348879Y-92649102D01*
X176348879Y-92649102D02*
X176842365Y-93142587D01*
X176842365Y-93142587D02*
X176307756Y-93142587D01*
X175773146Y-92278987D02*
X175690899Y-92278987D01*
X175690899Y-92278987D02*
X175608651Y-92320111D01*
X175608651Y-92320111D02*
X175567527Y-92361235D01*
X175567527Y-92361235D02*
X175526403Y-92443483D01*
X175526403Y-92443483D02*
X175485280Y-92607978D01*
X175485280Y-92607978D02*
X175485280Y-92813597D01*
X175485280Y-92813597D02*
X175526403Y-92978092D01*
X175526403Y-92978092D02*
X175567527Y-93060340D01*
X175567527Y-93060340D02*
X175608651Y-93101464D01*
X175608651Y-93101464D02*
X175690899Y-93142587D01*
X175690899Y-93142587D02*
X175773146Y-93142587D01*
X175773146Y-93142587D02*
X175855394Y-93101464D01*
X175855394Y-93101464D02*
X175896518Y-93060340D01*
X175896518Y-93060340D02*
X175937641Y-92978092D01*
X175937641Y-92978092D02*
X175978765Y-92813597D01*
X175978765Y-92813597D02*
X175978765Y-92607978D01*
X175978765Y-92607978D02*
X175937641Y-92443483D01*
X175937641Y-92443483D02*
X175896518Y-92361235D01*
X175896518Y-92361235D02*
X175855394Y-92320111D01*
X175855394Y-92320111D02*
X175773146Y-92278987D01*
X174662804Y-93142587D02*
X175156289Y-93142587D01*
X174909546Y-93142587D02*
X174909546Y-92278987D01*
X174909546Y-92278987D02*
X174991794Y-92402359D01*
X174991794Y-92402359D02*
X175074042Y-92484606D01*
X175074042Y-92484606D02*
X175156289Y-92525730D01*
X174374937Y-92278987D02*
X173799204Y-92278987D01*
X173799204Y-92278987D02*
X174169318Y-93142587D01*
X173470213Y-93060340D02*
X173429090Y-93101464D01*
X173429090Y-93101464D02*
X173470213Y-93142587D01*
X173470213Y-93142587D02*
X173511337Y-93101464D01*
X173511337Y-93101464D02*
X173470213Y-93060340D01*
X173470213Y-93060340D02*
X173470213Y-93142587D01*
X172483242Y-92566854D02*
X172277623Y-93142587D01*
X172277623Y-93142587D02*
X172072004Y-92566854D01*
X171331775Y-92278987D02*
X171743013Y-92278987D01*
X171743013Y-92278987D02*
X171784137Y-92690225D01*
X171784137Y-92690225D02*
X171743013Y-92649102D01*
X171743013Y-92649102D02*
X171660766Y-92607978D01*
X171660766Y-92607978D02*
X171455147Y-92607978D01*
X171455147Y-92607978D02*
X171372899Y-92649102D01*
X171372899Y-92649102D02*
X171331775Y-92690225D01*
X171331775Y-92690225D02*
X171290652Y-92772473D01*
X171290652Y-92772473D02*
X171290652Y-92978092D01*
X171290652Y-92978092D02*
X171331775Y-93060340D01*
X171331775Y-93060340D02*
X171372899Y-93101464D01*
X171372899Y-93101464D02*
X171455147Y-93142587D01*
X171455147Y-93142587D02*
X171660766Y-93142587D01*
X171660766Y-93142587D02*
X171743013Y-93101464D01*
X171743013Y-93101464D02*
X171784137Y-93060340D01*
D13*
X176301295Y-90432167D02*
X176301295Y-88273167D01*
X176301295Y-88273167D02*
X175478819Y-88273167D01*
X175478819Y-88273167D02*
X175273200Y-88375977D01*
X175273200Y-88375977D02*
X175170390Y-88478786D01*
X175170390Y-88478786D02*
X175067581Y-88684405D01*
X175067581Y-88684405D02*
X175067581Y-88992834D01*
X175067581Y-88992834D02*
X175170390Y-89198453D01*
X175170390Y-89198453D02*
X175273200Y-89301262D01*
X175273200Y-89301262D02*
X175478819Y-89404072D01*
X175478819Y-89404072D02*
X176301295Y-89404072D01*
X173833866Y-90432167D02*
X174039485Y-90329358D01*
X174039485Y-90329358D02*
X174142295Y-90123738D01*
X174142295Y-90123738D02*
X174142295Y-88273167D01*
X172086104Y-90432167D02*
X172086104Y-89301262D01*
X172086104Y-89301262D02*
X172188914Y-89095643D01*
X172188914Y-89095643D02*
X172394533Y-88992834D01*
X172394533Y-88992834D02*
X172805771Y-88992834D01*
X172805771Y-88992834D02*
X173011390Y-89095643D01*
X172086104Y-90329358D02*
X172291723Y-90432167D01*
X172291723Y-90432167D02*
X172805771Y-90432167D01*
X172805771Y-90432167D02*
X173011390Y-90329358D01*
X173011390Y-90329358D02*
X173114199Y-90123738D01*
X173114199Y-90123738D02*
X173114199Y-89918119D01*
X173114199Y-89918119D02*
X173011390Y-89712500D01*
X173011390Y-89712500D02*
X172805771Y-89609691D01*
X172805771Y-89609691D02*
X172291723Y-89609691D01*
X172291723Y-89609691D02*
X172086104Y-89506881D01*
X171058009Y-90432167D02*
X171058009Y-88992834D01*
X171058009Y-88273167D02*
X171160818Y-88375977D01*
X171160818Y-88375977D02*
X171058009Y-88478786D01*
X171058009Y-88478786D02*
X170955199Y-88375977D01*
X170955199Y-88375977D02*
X171058009Y-88273167D01*
X171058009Y-88273167D02*
X171058009Y-88478786D01*
X170338342Y-88992834D02*
X169515866Y-88992834D01*
X170029914Y-88273167D02*
X170029914Y-90123738D01*
X170029914Y-90123738D02*
X169927104Y-90329358D01*
X169927104Y-90329358D02*
X169721485Y-90432167D01*
X169721485Y-90432167D02*
X169515866Y-90432167D01*
X168899009Y-90329358D02*
X168693390Y-90432167D01*
X168693390Y-90432167D02*
X168282152Y-90432167D01*
X168282152Y-90432167D02*
X168076533Y-90329358D01*
X168076533Y-90329358D02*
X167973724Y-90123738D01*
X167973724Y-90123738D02*
X167973724Y-90020929D01*
X167973724Y-90020929D02*
X168076533Y-89815310D01*
X168076533Y-89815310D02*
X168282152Y-89712500D01*
X168282152Y-89712500D02*
X168590581Y-89712500D01*
X168590581Y-89712500D02*
X168796200Y-89609691D01*
X168796200Y-89609691D02*
X168899009Y-89404072D01*
X168899009Y-89404072D02*
X168899009Y-89301262D01*
X168899009Y-89301262D02*
X168796200Y-89095643D01*
X168796200Y-89095643D02*
X168590581Y-88992834D01*
X168590581Y-88992834D02*
X168282152Y-88992834D01*
X168282152Y-88992834D02*
X168076533Y-89095643D01*
D10*
X176390003Y-91831464D02*
X176472251Y-91872587D01*
X176472251Y-91872587D02*
X176636746Y-91872587D01*
X176636746Y-91872587D02*
X176718994Y-91831464D01*
X176718994Y-91831464D02*
X176760117Y-91790340D01*
X176760117Y-91790340D02*
X176801241Y-91708092D01*
X176801241Y-91708092D02*
X176801241Y-91461349D01*
X176801241Y-91461349D02*
X176760117Y-91379102D01*
X176760117Y-91379102D02*
X176718994Y-91337978D01*
X176718994Y-91337978D02*
X176636746Y-91296854D01*
X176636746Y-91296854D02*
X176472251Y-91296854D01*
X176472251Y-91296854D02*
X176390003Y-91337978D01*
X175649774Y-91831464D02*
X175732022Y-91872587D01*
X175732022Y-91872587D02*
X175896517Y-91872587D01*
X175896517Y-91872587D02*
X175978765Y-91831464D01*
X175978765Y-91831464D02*
X176019888Y-91790340D01*
X176019888Y-91790340D02*
X176061012Y-91708092D01*
X176061012Y-91708092D02*
X176061012Y-91461349D01*
X176061012Y-91461349D02*
X176019888Y-91379102D01*
X176019888Y-91379102D02*
X175978765Y-91337978D01*
X175978765Y-91337978D02*
X175896517Y-91296854D01*
X175896517Y-91296854D02*
X175732022Y-91296854D01*
X175732022Y-91296854D02*
X175649774Y-91337978D01*
X175279659Y-91543597D02*
X174621679Y-91543597D01*
X174210440Y-91872587D02*
X174210440Y-91008987D01*
X174210440Y-91337978D02*
X174128193Y-91296854D01*
X174128193Y-91296854D02*
X173963698Y-91296854D01*
X173963698Y-91296854D02*
X173881450Y-91337978D01*
X173881450Y-91337978D02*
X173840326Y-91379102D01*
X173840326Y-91379102D02*
X173799202Y-91461349D01*
X173799202Y-91461349D02*
X173799202Y-91708092D01*
X173799202Y-91708092D02*
X173840326Y-91790340D01*
X173840326Y-91790340D02*
X173881450Y-91831464D01*
X173881450Y-91831464D02*
X173963698Y-91872587D01*
X173963698Y-91872587D02*
X174128193Y-91872587D01*
X174128193Y-91872587D02*
X174210440Y-91831464D01*
X173511336Y-91296854D02*
X173305717Y-91872587D01*
X173100098Y-91296854D02*
X173305717Y-91872587D01*
X173305717Y-91872587D02*
X173387965Y-92078206D01*
X173387965Y-92078206D02*
X173429088Y-92119330D01*
X173429088Y-92119330D02*
X173511336Y-92160454D01*
X172771107Y-91543597D02*
X172113127Y-91543597D01*
X171743012Y-91831464D02*
X171660765Y-91872587D01*
X171660765Y-91872587D02*
X171496269Y-91872587D01*
X171496269Y-91872587D02*
X171414022Y-91831464D01*
X171414022Y-91831464D02*
X171372898Y-91749216D01*
X171372898Y-91749216D02*
X171372898Y-91708092D01*
X171372898Y-91708092D02*
X171414022Y-91625844D01*
X171414022Y-91625844D02*
X171496269Y-91584721D01*
X171496269Y-91584721D02*
X171619641Y-91584721D01*
X171619641Y-91584721D02*
X171701888Y-91543597D01*
X171701888Y-91543597D02*
X171743012Y-91461349D01*
X171743012Y-91461349D02*
X171743012Y-91420225D01*
X171743012Y-91420225D02*
X171701888Y-91337978D01*
X171701888Y-91337978D02*
X171619641Y-91296854D01*
X171619641Y-91296854D02*
X171496269Y-91296854D01*
X171496269Y-91296854D02*
X171414022Y-91337978D01*
X170632669Y-91872587D02*
X170632669Y-91420225D01*
X170632669Y-91420225D02*
X170673793Y-91337978D01*
X170673793Y-91337978D02*
X170756041Y-91296854D01*
X170756041Y-91296854D02*
X170920536Y-91296854D01*
X170920536Y-91296854D02*
X171002783Y-91337978D01*
X170632669Y-91831464D02*
X170714917Y-91872587D01*
X170714917Y-91872587D02*
X170920536Y-91872587D01*
X170920536Y-91872587D02*
X171002783Y-91831464D01*
X171002783Y-91831464D02*
X171043907Y-91749216D01*
X171043907Y-91749216D02*
X171043907Y-91666968D01*
X171043907Y-91666968D02*
X171002783Y-91584721D01*
X171002783Y-91584721D02*
X170920536Y-91543597D01*
X170920536Y-91543597D02*
X170714917Y-91543597D01*
X170714917Y-91543597D02*
X170632669Y-91502473D01*
X169563450Y-91420225D02*
X169275584Y-91420225D01*
X169152212Y-91872587D02*
X169563450Y-91872587D01*
X169563450Y-91872587D02*
X169563450Y-91008987D01*
X169563450Y-91008987D02*
X169152212Y-91008987D01*
X169275584Y-90679997D02*
X169398955Y-90803368D01*
X168782098Y-91872587D02*
X168782098Y-91296854D01*
X168782098Y-91379102D02*
X168740975Y-91337978D01*
X168740975Y-91337978D02*
X168658727Y-91296854D01*
X168658727Y-91296854D02*
X168535356Y-91296854D01*
X168535356Y-91296854D02*
X168453108Y-91337978D01*
X168453108Y-91337978D02*
X168411984Y-91420225D01*
X168411984Y-91420225D02*
X168411984Y-91872587D01*
X168411984Y-91420225D02*
X168370860Y-91337978D01*
X168370860Y-91337978D02*
X168288613Y-91296854D01*
X168288613Y-91296854D02*
X168165241Y-91296854D01*
X168165241Y-91296854D02*
X168082994Y-91337978D01*
X168082994Y-91337978D02*
X168041870Y-91420225D01*
X168041870Y-91420225D02*
X168041870Y-91872587D01*
X167630631Y-91872587D02*
X167630631Y-91296854D01*
X167630631Y-91008987D02*
X167671755Y-91050111D01*
X167671755Y-91050111D02*
X167630631Y-91091235D01*
X167630631Y-91091235D02*
X167589508Y-91050111D01*
X167589508Y-91050111D02*
X167630631Y-91008987D01*
X167630631Y-91008987D02*
X167630631Y-91091235D01*
X167096022Y-91872587D02*
X167178270Y-91831464D01*
X167178270Y-91831464D02*
X167219393Y-91749216D01*
X167219393Y-91749216D02*
X167219393Y-91008987D01*
X166767031Y-91872587D02*
X166767031Y-91296854D01*
X166767031Y-91008987D02*
X166808155Y-91050111D01*
X166808155Y-91050111D02*
X166767031Y-91091235D01*
X166767031Y-91091235D02*
X166725908Y-91050111D01*
X166725908Y-91050111D02*
X166767031Y-91008987D01*
X166767031Y-91008987D02*
X166767031Y-91091235D01*
X166026803Y-91831464D02*
X166109051Y-91872587D01*
X166109051Y-91872587D02*
X166273546Y-91872587D01*
X166273546Y-91872587D02*
X166355793Y-91831464D01*
X166355793Y-91831464D02*
X166396917Y-91749216D01*
X166396917Y-91749216D02*
X166396917Y-91420225D01*
X166396917Y-91420225D02*
X166355793Y-91337978D01*
X166355793Y-91337978D02*
X166273546Y-91296854D01*
X166273546Y-91296854D02*
X166109051Y-91296854D01*
X166109051Y-91296854D02*
X166026803Y-91337978D01*
X166026803Y-91337978D02*
X165985679Y-91420225D01*
X165985679Y-91420225D02*
X165985679Y-91502473D01*
X165985679Y-91502473D02*
X166396917Y-91584721D01*
X164505222Y-91050111D02*
X164587469Y-91008987D01*
X164587469Y-91008987D02*
X164710841Y-91008987D01*
X164710841Y-91008987D02*
X164834212Y-91050111D01*
X164834212Y-91050111D02*
X164916460Y-91132359D01*
X164916460Y-91132359D02*
X164957583Y-91214606D01*
X164957583Y-91214606D02*
X164998707Y-91379102D01*
X164998707Y-91379102D02*
X164998707Y-91502473D01*
X164998707Y-91502473D02*
X164957583Y-91666968D01*
X164957583Y-91666968D02*
X164916460Y-91749216D01*
X164916460Y-91749216D02*
X164834212Y-91831464D01*
X164834212Y-91831464D02*
X164710841Y-91872587D01*
X164710841Y-91872587D02*
X164628593Y-91872587D01*
X164628593Y-91872587D02*
X164505222Y-91831464D01*
X164505222Y-91831464D02*
X164464098Y-91790340D01*
X164464098Y-91790340D02*
X164464098Y-91502473D01*
X164464098Y-91502473D02*
X164628593Y-91502473D01*
X164093983Y-91872587D02*
X164093983Y-91296854D01*
X164093983Y-91008987D02*
X164135107Y-91050111D01*
X164135107Y-91050111D02*
X164093983Y-91091235D01*
X164093983Y-91091235D02*
X164052860Y-91050111D01*
X164052860Y-91050111D02*
X164093983Y-91008987D01*
X164093983Y-91008987D02*
X164093983Y-91091235D01*
X163559374Y-91872587D02*
X163641622Y-91831464D01*
X163641622Y-91831464D02*
X163682745Y-91749216D01*
X163682745Y-91749216D02*
X163682745Y-91008987D01*
X163107012Y-91872587D02*
X163189260Y-91831464D01*
X163189260Y-91831464D02*
X163230383Y-91749216D01*
X163230383Y-91749216D02*
X163230383Y-91008987D01*
X162449031Y-91831464D02*
X162531279Y-91872587D01*
X162531279Y-91872587D02*
X162695774Y-91872587D01*
X162695774Y-91872587D02*
X162778021Y-91831464D01*
X162778021Y-91831464D02*
X162819145Y-91749216D01*
X162819145Y-91749216D02*
X162819145Y-91420225D01*
X162819145Y-91420225D02*
X162778021Y-91337978D01*
X162778021Y-91337978D02*
X162695774Y-91296854D01*
X162695774Y-91296854D02*
X162531279Y-91296854D01*
X162531279Y-91296854D02*
X162449031Y-91337978D01*
X162449031Y-91337978D02*
X162407907Y-91420225D01*
X162407907Y-91420225D02*
X162407907Y-91502473D01*
X162407907Y-91502473D02*
X162819145Y-91584721D01*
X162161164Y-91296854D02*
X161832173Y-91296854D01*
X162037792Y-91008987D02*
X162037792Y-91749216D01*
X162037792Y-91749216D02*
X161996669Y-91831464D01*
X161996669Y-91831464D02*
X161914421Y-91872587D01*
X161914421Y-91872587D02*
X161832173Y-91872587D01*
D11*
X162068839Y-66009904D02*
X162068839Y-65187428D01*
X161657601Y-65598666D02*
X162480077Y-65598666D01*
X161657601Y-64107927D02*
X161657601Y-64724784D01*
X161657601Y-64416356D02*
X162737101Y-64416356D01*
X162737101Y-64416356D02*
X162582886Y-64519165D01*
X162582886Y-64519165D02*
X162480077Y-64621975D01*
X162480077Y-64621975D02*
X162428672Y-64724784D01*
X162634291Y-63696689D02*
X162685696Y-63645285D01*
X162685696Y-63645285D02*
X162737101Y-63542475D01*
X162737101Y-63542475D02*
X162737101Y-63285451D01*
X162737101Y-63285451D02*
X162685696Y-63182642D01*
X162685696Y-63182642D02*
X162634291Y-63131237D01*
X162634291Y-63131237D02*
X162531482Y-63079832D01*
X162531482Y-63079832D02*
X162428672Y-63079832D01*
X162428672Y-63079832D02*
X162274458Y-63131237D01*
X162274458Y-63131237D02*
X161657601Y-63748094D01*
X161657601Y-63748094D02*
X161657601Y-63079832D01*
X162737101Y-62771404D02*
X161657601Y-62411571D01*
X161657601Y-62411571D02*
X162737101Y-62051737D01*
X165225696Y-64733856D02*
X165277101Y-64836666D01*
X165277101Y-64836666D02*
X165277101Y-64990880D01*
X165277101Y-64990880D02*
X165225696Y-65145094D01*
X165225696Y-65145094D02*
X165122886Y-65247904D01*
X165122886Y-65247904D02*
X165020077Y-65299309D01*
X165020077Y-65299309D02*
X164814458Y-65350713D01*
X164814458Y-65350713D02*
X164660244Y-65350713D01*
X164660244Y-65350713D02*
X164454625Y-65299309D01*
X164454625Y-65299309D02*
X164351815Y-65247904D01*
X164351815Y-65247904D02*
X164249006Y-65145094D01*
X164249006Y-65145094D02*
X164197601Y-64990880D01*
X164197601Y-64990880D02*
X164197601Y-64888071D01*
X164197601Y-64888071D02*
X164249006Y-64733856D01*
X164249006Y-64733856D02*
X164300410Y-64682452D01*
X164300410Y-64682452D02*
X164660244Y-64682452D01*
X164660244Y-64682452D02*
X164660244Y-64888071D01*
X164197601Y-64219809D02*
X165277101Y-64219809D01*
X165277101Y-64219809D02*
X164197601Y-63602952D01*
X164197601Y-63602952D02*
X165277101Y-63602952D01*
X164197601Y-63088904D02*
X165277101Y-63088904D01*
X165277101Y-63088904D02*
X165277101Y-62831880D01*
X165277101Y-62831880D02*
X165225696Y-62677666D01*
X165225696Y-62677666D02*
X165122886Y-62574856D01*
X165122886Y-62574856D02*
X165020077Y-62523451D01*
X165020077Y-62523451D02*
X164814458Y-62472047D01*
X164814458Y-62472047D02*
X164660244Y-62472047D01*
X164660244Y-62472047D02*
X164454625Y-62523451D01*
X164454625Y-62523451D02*
X164351815Y-62574856D01*
X164351815Y-62574856D02*
X164249006Y-62677666D01*
X164249006Y-62677666D02*
X164197601Y-62831880D01*
X164197601Y-62831880D02*
X164197601Y-63088904D01*
X170305696Y-64733856D02*
X170357101Y-64836666D01*
X170357101Y-64836666D02*
X170357101Y-64990880D01*
X170357101Y-64990880D02*
X170305696Y-65145094D01*
X170305696Y-65145094D02*
X170202886Y-65247904D01*
X170202886Y-65247904D02*
X170100077Y-65299309D01*
X170100077Y-65299309D02*
X169894458Y-65350713D01*
X169894458Y-65350713D02*
X169740244Y-65350713D01*
X169740244Y-65350713D02*
X169534625Y-65299309D01*
X169534625Y-65299309D02*
X169431815Y-65247904D01*
X169431815Y-65247904D02*
X169329006Y-65145094D01*
X169329006Y-65145094D02*
X169277601Y-64990880D01*
X169277601Y-64990880D02*
X169277601Y-64888071D01*
X169277601Y-64888071D02*
X169329006Y-64733856D01*
X169329006Y-64733856D02*
X169380410Y-64682452D01*
X169380410Y-64682452D02*
X169740244Y-64682452D01*
X169740244Y-64682452D02*
X169740244Y-64888071D01*
X169277601Y-64219809D02*
X170357101Y-64219809D01*
X170357101Y-64219809D02*
X169277601Y-63602952D01*
X169277601Y-63602952D02*
X170357101Y-63602952D01*
X169277601Y-63088904D02*
X170357101Y-63088904D01*
X170357101Y-63088904D02*
X170357101Y-62831880D01*
X170357101Y-62831880D02*
X170305696Y-62677666D01*
X170305696Y-62677666D02*
X170202886Y-62574856D01*
X170202886Y-62574856D02*
X170100077Y-62523451D01*
X170100077Y-62523451D02*
X169894458Y-62472047D01*
X169894458Y-62472047D02*
X169740244Y-62472047D01*
X169740244Y-62472047D02*
X169534625Y-62523451D01*
X169534625Y-62523451D02*
X169431815Y-62574856D01*
X169431815Y-62574856D02*
X169329006Y-62677666D01*
X169329006Y-62677666D02*
X169277601Y-62831880D01*
X169277601Y-62831880D02*
X169277601Y-63088904D01*
D14*
%TO.C,JP6*%
X122138600Y-69443600D02*
X122773600Y-68808600D01*
X120233600Y-68808600D02*
X120868600Y-69443600D01*
X120868600Y-71983600D02*
X120233600Y-72618600D01*
X122773600Y-72618600D02*
X122138600Y-71983600D01*
X120233600Y-72618600D02*
X120233600Y-73888600D01*
X122773600Y-73888600D02*
X122138600Y-74523600D01*
X120233600Y-70078600D02*
X120233600Y-71348600D01*
X120868600Y-64363600D02*
X120233600Y-64998600D01*
X122773600Y-66268600D02*
X122773600Y-64998600D01*
X120868600Y-66903600D02*
X120233600Y-67538600D01*
X122773600Y-73888600D02*
X122773600Y-72618600D01*
X120868600Y-66903600D02*
X120233600Y-66268600D01*
X120868600Y-69443600D02*
X120233600Y-70078600D01*
X122773600Y-71348600D02*
X122773600Y-70078600D01*
X122138600Y-71983600D02*
X122773600Y-71348600D01*
X122138600Y-64363600D02*
X120868600Y-64363600D01*
X122773600Y-67538600D02*
X122138600Y-66903600D01*
X122773600Y-66268600D02*
X122138600Y-66903600D01*
X120233600Y-71348600D02*
X120868600Y-71983600D01*
X120233600Y-67538600D02*
X120233600Y-68808600D01*
X120868600Y-74523600D02*
X120233600Y-73888600D01*
X122773600Y-68808600D02*
X122773600Y-67538600D01*
X122773600Y-70078600D02*
X122138600Y-69443600D01*
X120233600Y-64998600D02*
X120233600Y-66268600D01*
X122773600Y-64998600D02*
X122138600Y-64363600D01*
X122138600Y-74523600D02*
X120868600Y-74523600D01*
%TO.C,JP8*%
X169423600Y-60608600D02*
X169423600Y-59108600D01*
X157123600Y-60608600D02*
X165023600Y-60608600D01*
X169423600Y-60608600D02*
X177323600Y-60608600D01*
X169423600Y-59108600D02*
X165023600Y-59108600D01*
X177323600Y-60608600D02*
X177323600Y-51708600D01*
X165023600Y-60608600D02*
X169423600Y-60608600D01*
X177323600Y-51608600D02*
X157123600Y-51608600D01*
X157123600Y-51608600D02*
X157123600Y-60608600D01*
X172938600Y-58883600D02*
X171668600Y-58883600D01*
X165023600Y-59108600D02*
X165023600Y-60608600D01*
%TO.C,JP5*%
X120868600Y-105003600D02*
X120233600Y-105638600D01*
X122773600Y-106908600D02*
X122773600Y-105638600D01*
X122138600Y-107543600D02*
X122773600Y-106908600D01*
X122138600Y-105003600D02*
X122773600Y-104368600D01*
X120233600Y-104368600D02*
X120868600Y-105003600D01*
X122138600Y-102463600D02*
X122773600Y-103098600D01*
X120233600Y-103098600D02*
X120233600Y-104368600D01*
X120868600Y-107543600D02*
X122138600Y-107543600D01*
X120868600Y-102463600D02*
X122138600Y-102463600D01*
X120233600Y-106908600D02*
X120868600Y-107543600D01*
X120233600Y-105638600D02*
X120233600Y-106908600D01*
X120233600Y-103098600D02*
X120868600Y-102463600D01*
X122773600Y-104368600D02*
X122773600Y-103098600D01*
X122773600Y-105638600D02*
X122138600Y-105003600D01*
%TD*%
%LPC*%
D15*
%TO.C,LED8*%
X148491100Y-103416100D03*
X151031100Y-103416100D03*
X145951100Y-103416100D03*
%TD*%
D16*
%TO.C,R7*%
X131623600Y-104383600D03*
X129123600Y-104383600D03*
X126623600Y-104383600D03*
D17*
X133823600Y-97383600D03*
X124423600Y-97383600D03*
%TD*%
D18*
%TO.C,SW1*%
X140794900Y-55753000D03*
X147297300Y-55753000D03*
X140794900Y-60274200D03*
X147297300Y-60274200D03*
%TD*%
D15*
%TO.C,LED3*%
X148491100Y-76428600D03*
X151031100Y-76428600D03*
X145951100Y-76428600D03*
%TD*%
D19*
%TO.C,J4*%
X159921100Y-137388600D03*
D20*
X159921100Y-131673600D03*
X159921100Y-134213600D03*
X159921100Y-141833600D03*
%TD*%
D16*
%TO.C,R2*%
X169088600Y-77078600D03*
X166588600Y-77078600D03*
X164088600Y-77078600D03*
D17*
X171288600Y-70078600D03*
X161888600Y-70078600D03*
%TD*%
D15*
%TO.C,LED1*%
X148491100Y-65633600D03*
X151031100Y-65633600D03*
X145951100Y-65633600D03*
%TD*%
%TO.C,LED2*%
X148491100Y-71031100D03*
X151031100Y-71031100D03*
X145951100Y-71031100D03*
%TD*%
D21*
%TO.C,H2*%
X158968600Y-127228500D03*
%TD*%
D19*
%TO.C,J2*%
X137061100Y-137388600D03*
D20*
X137061100Y-131673600D03*
X137061100Y-134213600D03*
X137061100Y-141833600D03*
%TD*%
D21*
%TO.C,H3*%
X138013600Y-127228600D03*
%TD*%
D15*
%TO.C,LED4*%
X148491100Y-81826100D03*
X151031100Y-81826100D03*
X145951100Y-81826100D03*
%TD*%
D22*
%TO.C,IC1*%
X125948600Y-55473600D03*
X125948600Y-58013600D03*
X125948600Y-60553600D03*
%TD*%
D19*
%TO.C,J5*%
X171351100Y-137388600D03*
D20*
X171351100Y-131673600D03*
X171351100Y-134213600D03*
X171351100Y-141833600D03*
%TD*%
D16*
%TO.C,R1*%
X132893600Y-77078600D03*
X130393600Y-77078600D03*
X127893600Y-77078600D03*
D17*
X135093600Y-70078600D03*
X125693600Y-70078600D03*
%TD*%
D19*
%TO.C,J8*%
X148491100Y-151993600D03*
D20*
X148491100Y-146278600D03*
X148491100Y-148818600D03*
X148491100Y-156438600D03*
%TD*%
D16*
%TO.C,R44*%
X170358600Y-128213600D03*
X167858600Y-128213600D03*
X165358600Y-128213600D03*
D23*
X172258600Y-121513600D03*
X163458600Y-121513600D03*
%TD*%
D19*
%TO.C,J10*%
X171351100Y-151993600D03*
D20*
X171351100Y-146278600D03*
X171351100Y-148818600D03*
X171351100Y-156438600D03*
%TD*%
D15*
%TO.C,LED7*%
X148491100Y-98018600D03*
X151031100Y-98018600D03*
X145951100Y-98018600D03*
%TD*%
D19*
%TO.C,J6*%
X125631100Y-151993600D03*
D20*
X125631100Y-146278600D03*
X125631100Y-148818600D03*
X125631100Y-156438600D03*
%TD*%
D16*
%TO.C,R8*%
X170358600Y-104383600D03*
X167858600Y-104383600D03*
X165358600Y-104383600D03*
D17*
X172558600Y-97383600D03*
X163158600Y-97383600D03*
%TD*%
D16*
%TO.C,R43*%
X150991100Y-128213600D03*
X148491100Y-128213600D03*
X145991100Y-128213600D03*
D23*
X152891100Y-121513600D03*
X144091100Y-121513600D03*
%TD*%
D15*
%TO.C,LED6*%
X148491100Y-92621100D03*
X151031100Y-92621100D03*
X145951100Y-92621100D03*
%TD*%
D19*
%TO.C,J3*%
X148491100Y-137388600D03*
D20*
X148491100Y-131673600D03*
X148491100Y-134213600D03*
X148491100Y-141833600D03*
%TD*%
D16*
%TO.C,R42*%
X131623600Y-128213600D03*
X129123600Y-128213600D03*
X126623600Y-128213600D03*
D23*
X133523600Y-121513600D03*
X124723600Y-121513600D03*
%TD*%
D19*
%TO.C,J1*%
X125631100Y-137388600D03*
D20*
X125631100Y-131673600D03*
X125631100Y-134213600D03*
X125631100Y-141833600D03*
%TD*%
D15*
%TO.C,LED5*%
X148491100Y-87223600D03*
X151031100Y-87223600D03*
X145951100Y-87223600D03*
%TD*%
D19*
%TO.C,J7*%
X137061100Y-151993600D03*
D20*
X137061100Y-146278600D03*
X137061100Y-148818600D03*
X137061100Y-156438600D03*
%TD*%
D18*
%TO.C,SW2*%
X149684900Y-55753000D03*
X156187300Y-55753000D03*
X149684900Y-60274200D03*
X156187300Y-60274200D03*
%TD*%
D19*
%TO.C,J9*%
X159921100Y-151993600D03*
D20*
X159921100Y-146278600D03*
X159921100Y-148818600D03*
X159921100Y-156438600D03*
%TD*%
D24*
%TO.C,JP6*%
X121503600Y-73253600D03*
D18*
X121503600Y-70713600D03*
X121503600Y-68173600D03*
X121503600Y-65633600D03*
%TD*%
D25*
%TO.C,JP8*%
X172303600Y-57378600D03*
X172303600Y-54838600D03*
X169763600Y-57378600D03*
X169763600Y-54838600D03*
X167223600Y-57378600D03*
X167223600Y-54838600D03*
X164683600Y-57378600D03*
X164683600Y-54838600D03*
X162143600Y-57378600D03*
X162143600Y-54838600D03*
%TD*%
D18*
%TO.C,JP5*%
X121503600Y-103733600D03*
X121503600Y-106273600D03*
%TD*%
%LPD*%
M02*
