M48
; DRILL file {KiCad (6.0.11-0)} date 2023 April 25, Tuesday 16:51:11
; FORMAT={-:-/ absolute / inch / decimal}
; #@! TF.CreationDate,2023-04-25T16:51:11+02:00
; #@! TF.GenerationSoftware,Kicad,Pcbnew,(6.0.11-0)
; #@! TF.FileFunction,Plated,1,2,PTH
FMAT,2
INCH
; #@! TA.AperFunction,Plated,PTH,ViaDrill
T1C0.0197
; #@! TA.AperFunction,Plated,PTH,ComponentDrill
T2C0.0276
; #@! TA.AperFunction,Plated,PTH,ComponentDrill
T3C0.0354
; #@! TA.AperFunction,Plated,PTH,ComponentDrill
T4C0.0394
; #@! TA.AperFunction,Plated,PTH,ComponentDrill
T5C0.0400
; #@! TA.AperFunction,Plated,PTH,ComponentDrill
T6C0.0591
; #@! TA.AperFunction,Plated,PTH,ComponentDrill
T7C0.0866
%
G90
G05
T1
X4.7336Y-2.334
X4.7336Y-4.734
X4.7336Y-5.134
X4.7336Y-5.534
X4.7336Y-5.934
X4.8711Y-4.434
X4.8899Y-3.4652
X4.9274Y-4.434
X4.9711Y-4.259
X4.9774Y-3.1527
X4.9836Y-2.084
X4.9836Y-4.1965
X5.0336Y-4.384
X5.0336Y-6.184
X5.0399Y-3.3777
X5.0461Y-4.5402
X5.0711Y-4.4465
X5.0711Y-4.5965
X5.0711Y-5.584
X5.0836Y-3.4465
X5.0899Y-3.234
X5.1461Y-4.5402
X5.1711Y-3.6153
X5.1836Y-2.884
X5.1961Y-2.284
X5.2086Y-2.9277
X5.2211Y-3.909
X5.2211Y-4.2465
X5.2336Y-5.284
X5.2461Y-4.434
X5.2524Y-3.1902
X5.2586Y-3.5777
X5.2899Y-3.9965
X5.2961Y-4.434
X5.3086Y-3.3215
X5.3086Y-4.109
X5.3149Y-3.259
X5.3149Y-3.3965
X5.3336Y-3.9652
X5.3461Y-3.359
X5.3461Y-3.109
X5.3586Y-2.859
X5.3836Y-3.7402
X5.3836Y-4.034
X5.3961Y-2.3965
X5.4086Y-2.584
X5.4211Y-4.209
X5.4274Y-4.2715
X5.4336Y-2.084
X5.4399Y-3.259
X5.4461Y-3.434
X5.4586Y-3.3465
X5.4774Y-3.3965
X5.4836Y-3.234
X5.4899Y-5.234
X5.5086Y-2.559
X5.5086Y-3.3402
X5.5086Y-4.1527
X5.5274Y-4.1965
X5.5336Y-2.4965
X5.5336Y-3.959
X5.5336Y-3.6903
X5.5399Y-2.759
X5.5399Y-4.659
X5.5649Y-2.8028
X5.5711Y-3.6527
X5.5774Y-4.2153
X5.5836Y-4.434
X5.6086Y-2.634
X5.6086Y-2.984
X5.6149Y-3.509
X5.6336Y-4.2715
X5.6336Y-4.434
X5.6336Y-4.5965
X5.6524Y-2.884
X5.6649Y-3.809
X5.6836Y-4.084
X5.6899Y-2.9278
X5.7399Y-4.134
X5.7461Y-3.5028
X5.7836Y-2.084
X5.7836Y-4.2653
X5.7836Y-6.184
X5.8461Y-4.434
X5.8586Y-4.384
X5.8961Y-2.7465
X5.9086Y-3.0715
X5.9086Y-3.559
X5.9086Y-3.6965
X5.9961Y-3.6778
X6.0211Y-3.184
X6.0336Y-3.309
X6.0586Y-3.0215
X6.0586Y-4.434
X6.0836Y-3.934
X6.0836Y-4.1278
X6.1086Y-4.434
X6.1086Y-4.634
X6.1274Y-3.184
X6.1336Y-2.734
X6.1336Y-3.7215
X6.1836Y-2.084
X6.1836Y-6.184
X6.1899Y-3.9652
X6.1899Y-4.1215
X6.2211Y-4.384
X6.2211Y-4.609
X6.2399Y-3.3715
X6.2461Y-3.9652
X6.2461Y-4.1215
X6.2586Y-4.5465
X6.2836Y-2.634
X6.2836Y-3.3465
X6.2961Y-3.9715
X6.2961Y-4.1277
X6.2961Y-3.2715
X6.3336Y-3.359
X6.3586Y-2.9965
X6.3711Y-3.6465
X6.3711Y-3.7527
X6.4086Y-4.4465
X6.4586Y-4.5465
X6.5836Y-6.184
X6.5961Y-3.684
X6.5961Y-3.9215
X6.6274Y-3.1777
X6.6274Y-3.2277
X6.6274Y-3.2777
X6.6336Y-4.409
X6.6711Y-3.684
X6.6711Y-3.9215
X6.7086Y-3.7527
X6.7149Y-3.4277
X6.7274Y-4.534
X6.7649Y-3.4277
X6.7961Y-4.2965
X6.8086Y-4.4965
X6.8149Y-3.2277
X6.8149Y-3.2777
X6.8149Y-3.3277
X6.8149Y-3.3777
X6.8149Y-3.4277
X6.8274Y-3.709
X6.8586Y-4.3215
X6.9336Y-4.359
X6.9336Y-4.8715
X6.9586Y-2.734
X6.9586Y-3.134
X6.9586Y-3.709
X6.9586Y-3.934
X6.9586Y-4.734
X6.9586Y-5.134
X6.9586Y-5.534
X6.9586Y-5.934
T2
X5.7461Y-2.584
X5.7461Y-2.7965
X5.7461Y-3.009
X5.7461Y-3.2215
X5.7461Y-3.434
X5.7461Y-3.6465
X5.7461Y-3.859
X5.7461Y-4.0715
X5.8461Y-2.584
X5.8461Y-2.7965
X5.8461Y-3.009
X5.8461Y-3.2215
X5.8461Y-3.434
X5.8461Y-3.6465
X5.8461Y-3.859
X5.8461Y-4.0715
X5.9461Y-2.584
X5.9461Y-2.7965
X5.9461Y-3.009
X5.9461Y-3.2215
X5.9461Y-3.434
X5.9461Y-3.6465
X5.9461Y-3.859
X5.9461Y-4.0715
T3
X4.9586Y-2.184
X4.9586Y-2.284
X4.9586Y-2.384
T4
X4.9852Y-4.1096
X4.9852Y-5.0478
X5.0352Y-3.0346
X5.0836Y-4.1096
X5.0836Y-5.0478
X5.1336Y-3.0346
X5.182Y-4.1096
X5.182Y-5.0478
X5.232Y-3.0346
X5.7477Y-5.0478
X5.8461Y-5.0478
X5.9445Y-5.0478
X6.4602Y-3.0346
X6.5102Y-4.1096
X6.5102Y-5.0478
X6.5586Y-3.0346
X6.6086Y-4.1096
X6.6086Y-5.0478
X6.657Y-3.0346
X6.707Y-4.1096
X6.707Y-5.0478
T5
X4.7836Y-2.584
X4.7836Y-2.684
X4.7836Y-2.784
X4.7836Y-2.884
X4.7836Y-4.084
X4.7836Y-4.184
X4.9461Y-5.184
X4.9461Y-5.284
X4.9461Y-5.584
X4.9461Y-5.759
X4.9461Y-5.859
X4.9461Y-6.159
X5.3961Y-5.184
X5.3961Y-5.284
X5.3961Y-5.584
X5.3961Y-5.759
X5.3961Y-5.859
X5.3961Y-6.159
X5.5431Y-2.195
X5.5431Y-2.373
X5.7991Y-2.195
X5.7991Y-2.373
X5.8461Y-5.184
X5.8461Y-5.284
X5.8461Y-5.584
X5.8461Y-5.759
X5.8461Y-5.859
X5.8461Y-6.159
X5.8931Y-2.195
X5.8931Y-2.373
X6.1491Y-2.195
X6.1491Y-2.373
X6.2961Y-5.184
X6.2961Y-5.284
X6.2961Y-5.584
X6.2961Y-5.759
X6.2961Y-5.859
X6.2961Y-6.159
X6.3836Y-2.159
X6.3836Y-2.259
X6.4836Y-2.159
X6.4836Y-2.259
X6.5836Y-2.159
X6.5836Y-2.259
X6.6836Y-2.159
X6.6836Y-2.259
X6.7461Y-5.184
X6.7461Y-5.284
X6.7461Y-5.584
X6.7461Y-5.759
X6.7461Y-5.859
X6.7461Y-6.159
X6.7836Y-2.159
X6.7836Y-2.259
T6
X4.8986Y-3.834
X4.9486Y-2.759
X5.2686Y-3.834
X5.3186Y-2.759
X6.3736Y-2.759
X6.4236Y-3.834
X6.7436Y-2.759
X6.7936Y-3.834
T7
X4.9104Y-4.784
X5.2568Y-4.784
X5.6729Y-4.784
X6.0193Y-4.784
X6.4354Y-4.784
X6.7818Y-4.784
T0
M30
