%TF.GenerationSoftware,KiCad,Pcbnew,7.0.5-0*%
%TF.CreationDate,2023-08-28T20:49:07+02:00*%
%TF.ProjectId,peaks,7065616b-732e-46b6-9963-61645f706362,rev?*%
%TF.SameCoordinates,Original*%
%TF.FileFunction,Legend,Top*%
%TF.FilePolarity,Positive*%
%FSLAX46Y46*%
G04 Gerber Fmt 4.6, Leading zero omitted, Abs format (unit mm)*
G04 Created by KiCad (PCBNEW 7.0.5-0) date 2023-08-28 20:49:07*
%MOMM*%
%LPD*%
G01*
G04 APERTURE LIST*
G04 Aperture macros list*
%AMRoundRect*
0 Rectangle with rounded corners*
0 $1 Rounding radius*
0 $2 $3 $4 $5 $6 $7 $8 $9 X,Y pos of 4 corners*
0 Add a 4 corners polygon primitive as box body*
4,1,4,$2,$3,$4,$5,$6,$7,$8,$9,$2,$3,0*
0 Add four circle primitives for the rounded corners*
1,1,$1+$1,$2,$3*
1,1,$1+$1,$4,$5*
1,1,$1+$1,$6,$7*
1,1,$1+$1,$8,$9*
0 Add four rect primitives between the rounded corners*
20,1,$1+$1,$2,$3,$4,$5,0*
20,1,$1+$1,$4,$5,$6,$7,0*
20,1,$1+$1,$6,$7,$8,$9,0*
20,1,$1+$1,$8,$9,$2,$3,0*%
%AMFreePoly0*
4,1,25,0.417216,0.947373,0.422118,0.942882,0.942882,0.422118,0.964910,0.374877,0.965200,0.368236,0.965200,-0.368236,0.947373,-0.417216,0.942882,-0.422118,0.422118,-0.942882,0.374877,-0.964910,0.368236,-0.965200,-0.368236,-0.965200,-0.417216,-0.947373,-0.422118,-0.942882,-0.942882,-0.422118,-0.964910,-0.374877,-0.965200,-0.368236,-0.965200,0.368236,-0.947373,0.417216,-0.942882,0.422118,
-0.422118,0.942882,-0.374877,0.964910,-0.368236,0.965200,0.368236,0.965200,0.417216,0.947373,0.417216,0.947373,$1*%
%AMFreePoly1*
4,1,25,0.301485,0.667973,0.306387,0.663482,0.663482,0.306387,0.685510,0.259146,0.685800,0.252505,0.685800,-0.252505,0.667973,-0.301485,0.663482,-0.306387,0.306387,-0.663482,0.259146,-0.685510,0.252505,-0.685800,-0.252505,-0.685800,-0.301485,-0.667973,-0.306387,-0.663482,-0.663482,-0.306387,-0.685510,-0.259146,-0.685800,-0.252505,-0.685800,0.252505,-0.667973,0.301485,-0.663482,0.306387,
-0.306387,0.663482,-0.259146,0.685510,-0.252505,0.685800,0.252505,0.685800,0.301485,0.667973,0.301485,0.667973,$1*%
%AMFreePoly2*
4,1,25,0.575031,1.328373,0.579933,1.323882,1.323882,0.579933,1.345910,0.532692,1.346200,0.526051,1.346200,-0.526051,1.328373,-0.575031,1.323882,-0.579933,0.579933,-1.323882,0.532692,-1.345910,0.526051,-1.346200,-0.526051,-1.346200,-0.575031,-1.328373,-0.579933,-1.323882,-1.323882,-0.579933,-1.345910,-0.532692,-1.346200,-0.526051,-1.346200,0.526051,-1.328373,0.575031,-1.323882,0.579933,
-0.579933,1.323882,-0.532692,1.345910,-0.526051,1.346200,0.526051,1.346200,0.575031,1.328373,0.575031,1.328373,$1*%
%AMFreePoly3*
4,1,25,0.269922,0.591773,0.274824,0.587282,0.587282,0.274824,0.609310,0.227583,0.609600,0.220942,0.609600,-0.220942,0.591773,-0.269922,0.587282,-0.274824,0.274824,-0.587282,0.227583,-0.609310,0.220942,-0.609600,-0.220942,-0.609600,-0.269922,-0.591773,-0.274824,-0.587282,-0.587282,-0.274824,-0.609310,-0.227583,-0.609600,-0.220942,-0.609600,0.220942,-0.591773,0.269922,-0.587282,0.274824,
-0.274824,0.587282,-0.227583,0.609310,-0.220942,0.609600,0.220942,0.609600,0.269922,0.591773,0.269922,0.591773,$1*%
%AMFreePoly4*
4,1,25,0.438258,0.998173,0.443160,0.993682,0.993682,0.443160,1.015710,0.395919,1.016000,0.389278,1.016000,-0.389278,0.998173,-0.438258,0.993682,-0.443160,0.443160,-0.993682,0.395919,-1.015710,0.389278,-1.016000,-0.389278,-1.016000,-0.438258,-0.998173,-0.443160,-0.993682,-0.993682,-0.443160,-1.015710,-0.395919,-1.016000,-0.389278,-1.016000,0.389278,-0.998173,0.438258,-0.993682,0.443160,
-0.443160,0.993682,-0.395919,1.015710,-0.389278,1.016000,0.389278,1.016000,0.438258,0.998173,0.438258,0.998173,$1*%
G04 Aperture macros list end*
%ADD10C,0.152400*%
%ADD11C,0.487680*%
%ADD12C,0.100000*%
%ADD13C,0.093472*%
%ADD14C,0.163576*%
%ADD15C,0.175260*%
%ADD16C,0.114300*%
%ADD17C,0.150000*%
%ADD18C,0.074778*%
%ADD19C,0.101600*%
%ADD20C,0.044867*%
%ADD21C,0.171450*%
%ADD22C,0.056083*%
%ADD23C,0.127000*%
%ADD24C,0.254000*%
%ADD25C,0.070000*%
%ADD26C,0.203200*%
%ADD27C,0.050800*%
%ADD28RoundRect,0.076200X-0.500000X-0.550000X0.500000X-0.550000X0.500000X0.550000X-0.500000X0.550000X0*%
%ADD29RoundRect,0.076200X-0.500000X0.550000X-0.500000X-0.550000X0.500000X-0.550000X0.500000X0.550000X0*%
%ADD30RoundRect,0.076200X-0.300000X-1.100000X0.300000X-1.100000X0.300000X1.100000X-0.300000X1.100000X0*%
%ADD31RoundRect,0.076200X0.550000X0.500000X-0.550000X0.500000X-0.550000X-0.500000X0.550000X-0.500000X0*%
%ADD32C,2.200000*%
%ADD33FreePoly0,90.000000*%
%ADD34RoundRect,0.076200X0.550000X-0.500000X0.550000X0.500000X-0.550000X0.500000X-0.550000X-0.500000X0*%
%ADD35RoundRect,0.076200X0.127000X0.500000X-0.127000X0.500000X-0.127000X-0.500000X0.127000X-0.500000X0*%
%ADD36RoundRect,0.076200X0.500000X0.127000X-0.500000X0.127000X-0.500000X-0.127000X0.500000X-0.127000X0*%
%ADD37RoundRect,0.076200X0.742462X0.035355X0.035355X0.742462X-0.742462X-0.035355X-0.035355X-0.742462X0*%
%ADD38RoundRect,0.076200X-0.550000X0.500000X-0.550000X-0.500000X0.550000X-0.500000X0.550000X0.500000X0*%
%ADD39FreePoly1,0.000000*%
%ADD40RoundRect,0.576200X0.000000X0.000000X0.000000X0.000000X0.000000X0.000000X0.000000X0.000000X0*%
%ADD41RoundRect,0.076200X0.500000X0.550000X-0.500000X0.550000X-0.500000X-0.550000X0.500000X-0.550000X0*%
%ADD42RoundRect,0.076200X0.500000X-0.550000X0.500000X0.550000X-0.500000X0.550000X-0.500000X-0.550000X0*%
%ADD43RoundRect,0.076200X-0.550000X-0.500000X0.550000X-0.500000X0.550000X0.500000X-0.550000X0.500000X0*%
%ADD44RoundRect,0.076200X-0.675000X-0.400000X0.675000X-0.400000X0.675000X0.400000X-0.675000X0.400000X0*%
%ADD45RoundRect,0.076200X0.675000X0.400000X-0.675000X0.400000X-0.675000X-0.400000X0.675000X-0.400000X0*%
%ADD46RoundRect,0.076200X1.300000X0.700000X-1.300000X0.700000X-1.300000X-0.700000X1.300000X-0.700000X0*%
%ADD47C,1.952400*%
%ADD48RoundRect,0.076200X0.900000X-0.900000X0.900000X0.900000X-0.900000X0.900000X-0.900000X-0.900000X0*%
%ADD49RoundRect,0.076200X0.350000X-0.425000X0.350000X0.425000X-0.350000X0.425000X-0.350000X-0.425000X0*%
%ADD50RoundRect,0.076200X0.700000X-1.300000X0.700000X1.300000X-0.700000X1.300000X-0.700000X-1.300000X0*%
%ADD51RoundRect,0.076200X-0.350000X-0.500000X0.350000X-0.500000X0.350000X0.500000X-0.350000X0.500000X0*%
%ADD52RoundRect,0.076200X-0.700000X-0.700000X0.700000X-0.700000X0.700000X0.700000X-0.700000X0.700000X0*%
%ADD53C,2.032000*%
%ADD54RoundRect,0.076200X0.749300X1.003300X-0.749300X1.003300X-0.749300X-1.003300X0.749300X-1.003300X0*%
%ADD55RoundRect,0.076200X1.905000X1.003300X-1.905000X1.003300X-1.905000X-1.003300X1.905000X-1.003300X0*%
%ADD56RoundRect,0.076200X-0.205000X-0.510000X0.205000X-0.510000X0.205000X0.510000X-0.205000X0.510000X0*%
%ADD57RoundRect,0.076200X-0.700000X0.500000X-0.700000X-0.500000X0.700000X-0.500000X0.700000X0.500000X0*%
%ADD58RoundRect,0.076200X-2.667000X-0.965200X2.667000X-0.965200X2.667000X0.965200X-2.667000X0.965200X0*%
%ADD59RoundRect,0.076200X0.939800X-0.939800X0.939800X0.939800X-0.939800X0.939800X-0.939800X-0.939800X0*%
%ADD60FreePoly2,90.000000*%
%ADD61FreePoly0,180.000000*%
%ADD62FreePoly3,270.000000*%
%ADD63FreePoly4,0.000000*%
G04 APERTURE END LIST*
D10*
X167386387Y-116500632D02*
X166975149Y-116788498D01*
X167386387Y-116994117D02*
X166522787Y-116994117D01*
X166522787Y-116994117D02*
X166522787Y-116665127D01*
X166522787Y-116665127D02*
X166563911Y-116582879D01*
X166563911Y-116582879D02*
X166605035Y-116541756D01*
X166605035Y-116541756D02*
X166687283Y-116500632D01*
X166687283Y-116500632D02*
X166810654Y-116500632D01*
X166810654Y-116500632D02*
X166892902Y-116541756D01*
X166892902Y-116541756D02*
X166934025Y-116582879D01*
X166934025Y-116582879D02*
X166975149Y-116665127D01*
X166975149Y-116665127D02*
X166975149Y-116994117D01*
X166934025Y-116130517D02*
X166934025Y-115842651D01*
X167386387Y-115719279D02*
X167386387Y-116130517D01*
X167386387Y-116130517D02*
X166522787Y-116130517D01*
X166522787Y-116130517D02*
X166522787Y-115719279D01*
X167345264Y-115390289D02*
X167386387Y-115266918D01*
X167386387Y-115266918D02*
X167386387Y-115061299D01*
X167386387Y-115061299D02*
X167345264Y-114979051D01*
X167345264Y-114979051D02*
X167304140Y-114937927D01*
X167304140Y-114937927D02*
X167221892Y-114896804D01*
X167221892Y-114896804D02*
X167139644Y-114896804D01*
X167139644Y-114896804D02*
X167057397Y-114937927D01*
X167057397Y-114937927D02*
X167016273Y-114979051D01*
X167016273Y-114979051D02*
X166975149Y-115061299D01*
X166975149Y-115061299D02*
X166934025Y-115225794D01*
X166934025Y-115225794D02*
X166892902Y-115308042D01*
X166892902Y-115308042D02*
X166851778Y-115349165D01*
X166851778Y-115349165D02*
X166769530Y-115390289D01*
X166769530Y-115390289D02*
X166687283Y-115390289D01*
X166687283Y-115390289D02*
X166605035Y-115349165D01*
X166605035Y-115349165D02*
X166563911Y-115308042D01*
X166563911Y-115308042D02*
X166522787Y-115225794D01*
X166522787Y-115225794D02*
X166522787Y-115020175D01*
X166522787Y-115020175D02*
X166563911Y-114896804D01*
X166934025Y-114526689D02*
X166934025Y-114238823D01*
X167386387Y-114115451D02*
X167386387Y-114526689D01*
X167386387Y-114526689D02*
X166522787Y-114526689D01*
X166522787Y-114526689D02*
X166522787Y-114115451D01*
X166522787Y-113868709D02*
X166522787Y-113375223D01*
X167386387Y-113621966D02*
X166522787Y-113621966D01*
X163278864Y-111947603D02*
X163319987Y-112029851D01*
X163319987Y-112029851D02*
X163319987Y-112194346D01*
X163319987Y-112194346D02*
X163278864Y-112276594D01*
X163278864Y-112276594D02*
X163237740Y-112317717D01*
X163237740Y-112317717D02*
X163155492Y-112358841D01*
X163155492Y-112358841D02*
X162908749Y-112358841D01*
X162908749Y-112358841D02*
X162826502Y-112317717D01*
X162826502Y-112317717D02*
X162785378Y-112276594D01*
X162785378Y-112276594D02*
X162744254Y-112194346D01*
X162744254Y-112194346D02*
X162744254Y-112029851D01*
X162744254Y-112029851D02*
X162785378Y-111947603D01*
X163278864Y-111207374D02*
X163319987Y-111289622D01*
X163319987Y-111289622D02*
X163319987Y-111454117D01*
X163319987Y-111454117D02*
X163278864Y-111536365D01*
X163278864Y-111536365D02*
X163237740Y-111577488D01*
X163237740Y-111577488D02*
X163155492Y-111618612D01*
X163155492Y-111618612D02*
X162908749Y-111618612D01*
X162908749Y-111618612D02*
X162826502Y-111577488D01*
X162826502Y-111577488D02*
X162785378Y-111536365D01*
X162785378Y-111536365D02*
X162744254Y-111454117D01*
X162744254Y-111454117D02*
X162744254Y-111289622D01*
X162744254Y-111289622D02*
X162785378Y-111207374D01*
X162990997Y-110837259D02*
X162990997Y-110179279D01*
X163319987Y-109768040D02*
X162456387Y-109768040D01*
X162785378Y-109768040D02*
X162744254Y-109685793D01*
X162744254Y-109685793D02*
X162744254Y-109521298D01*
X162744254Y-109521298D02*
X162785378Y-109439050D01*
X162785378Y-109439050D02*
X162826502Y-109397926D01*
X162826502Y-109397926D02*
X162908749Y-109356802D01*
X162908749Y-109356802D02*
X163155492Y-109356802D01*
X163155492Y-109356802D02*
X163237740Y-109397926D01*
X163237740Y-109397926D02*
X163278864Y-109439050D01*
X163278864Y-109439050D02*
X163319987Y-109521298D01*
X163319987Y-109521298D02*
X163319987Y-109685793D01*
X163319987Y-109685793D02*
X163278864Y-109768040D01*
X162744254Y-109068936D02*
X163319987Y-108863317D01*
X162744254Y-108657698D02*
X163319987Y-108863317D01*
X163319987Y-108863317D02*
X163525606Y-108945565D01*
X163525606Y-108945565D02*
X163566730Y-108986688D01*
X163566730Y-108986688D02*
X163607854Y-109068936D01*
X162990997Y-108328707D02*
X162990997Y-107670727D01*
X163278864Y-107300612D02*
X163319987Y-107218365D01*
X163319987Y-107218365D02*
X163319987Y-107053869D01*
X163319987Y-107053869D02*
X163278864Y-106971622D01*
X163278864Y-106971622D02*
X163196616Y-106930498D01*
X163196616Y-106930498D02*
X163155492Y-106930498D01*
X163155492Y-106930498D02*
X163073244Y-106971622D01*
X163073244Y-106971622D02*
X163032121Y-107053869D01*
X163032121Y-107053869D02*
X163032121Y-107177241D01*
X163032121Y-107177241D02*
X162990997Y-107259488D01*
X162990997Y-107259488D02*
X162908749Y-107300612D01*
X162908749Y-107300612D02*
X162867625Y-107300612D01*
X162867625Y-107300612D02*
X162785378Y-107259488D01*
X162785378Y-107259488D02*
X162744254Y-107177241D01*
X162744254Y-107177241D02*
X162744254Y-107053869D01*
X162744254Y-107053869D02*
X162785378Y-106971622D01*
X163319987Y-106190269D02*
X162867625Y-106190269D01*
X162867625Y-106190269D02*
X162785378Y-106231393D01*
X162785378Y-106231393D02*
X162744254Y-106313641D01*
X162744254Y-106313641D02*
X162744254Y-106478136D01*
X162744254Y-106478136D02*
X162785378Y-106560383D01*
X163278864Y-106190269D02*
X163319987Y-106272517D01*
X163319987Y-106272517D02*
X163319987Y-106478136D01*
X163319987Y-106478136D02*
X163278864Y-106560383D01*
X163278864Y-106560383D02*
X163196616Y-106601507D01*
X163196616Y-106601507D02*
X163114368Y-106601507D01*
X163114368Y-106601507D02*
X163032121Y-106560383D01*
X163032121Y-106560383D02*
X162990997Y-106478136D01*
X162990997Y-106478136D02*
X162990997Y-106272517D01*
X162990997Y-106272517D02*
X162949873Y-106190269D01*
D11*
X130778822Y-130736438D02*
X130778822Y-127972918D01*
X130778822Y-127972918D02*
X131831592Y-127972918D01*
X131831592Y-127972918D02*
X132094784Y-128104514D01*
X132094784Y-128104514D02*
X132226381Y-128236110D01*
X132226381Y-128236110D02*
X132357977Y-128499302D01*
X132357977Y-128499302D02*
X132357977Y-128894091D01*
X132357977Y-128894091D02*
X132226381Y-129157283D01*
X132226381Y-129157283D02*
X132094784Y-129288880D01*
X132094784Y-129288880D02*
X131831592Y-129420476D01*
X131831592Y-129420476D02*
X130778822Y-129420476D01*
X134595112Y-130604842D02*
X134331920Y-130736438D01*
X134331920Y-130736438D02*
X133805535Y-130736438D01*
X133805535Y-130736438D02*
X133542342Y-130604842D01*
X133542342Y-130604842D02*
X133410746Y-130341649D01*
X133410746Y-130341649D02*
X133410746Y-129288880D01*
X133410746Y-129288880D02*
X133542342Y-129025687D01*
X133542342Y-129025687D02*
X133805535Y-128894091D01*
X133805535Y-128894091D02*
X134331920Y-128894091D01*
X134331920Y-128894091D02*
X134595112Y-129025687D01*
X134595112Y-129025687D02*
X134726708Y-129288880D01*
X134726708Y-129288880D02*
X134726708Y-129552072D01*
X134726708Y-129552072D02*
X133410746Y-129815264D01*
X137095439Y-130736438D02*
X137095439Y-129288880D01*
X137095439Y-129288880D02*
X136963843Y-129025687D01*
X136963843Y-129025687D02*
X136700651Y-128894091D01*
X136700651Y-128894091D02*
X136174266Y-128894091D01*
X136174266Y-128894091D02*
X135911073Y-129025687D01*
X137095439Y-130604842D02*
X136832247Y-130736438D01*
X136832247Y-130736438D02*
X136174266Y-130736438D01*
X136174266Y-130736438D02*
X135911073Y-130604842D01*
X135911073Y-130604842D02*
X135779477Y-130341649D01*
X135779477Y-130341649D02*
X135779477Y-130078457D01*
X135779477Y-130078457D02*
X135911073Y-129815264D01*
X135911073Y-129815264D02*
X136174266Y-129683668D01*
X136174266Y-129683668D02*
X136832247Y-129683668D01*
X136832247Y-129683668D02*
X137095439Y-129552072D01*
X138411401Y-130736438D02*
X138411401Y-127972918D01*
X138674594Y-129683668D02*
X139464171Y-130736438D01*
X139464171Y-128894091D02*
X138411401Y-129946861D01*
X140516940Y-130604842D02*
X140780133Y-130736438D01*
X140780133Y-130736438D02*
X141306517Y-130736438D01*
X141306517Y-130736438D02*
X141569710Y-130604842D01*
X141569710Y-130604842D02*
X141701306Y-130341649D01*
X141701306Y-130341649D02*
X141701306Y-130210053D01*
X141701306Y-130210053D02*
X141569710Y-129946861D01*
X141569710Y-129946861D02*
X141306517Y-129815264D01*
X141306517Y-129815264D02*
X140911729Y-129815264D01*
X140911729Y-129815264D02*
X140648536Y-129683668D01*
X140648536Y-129683668D02*
X140516940Y-129420476D01*
X140516940Y-129420476D02*
X140516940Y-129288880D01*
X140516940Y-129288880D02*
X140648536Y-129025687D01*
X140648536Y-129025687D02*
X140911729Y-128894091D01*
X140911729Y-128894091D02*
X141306517Y-128894091D01*
X141306517Y-128894091D02*
X141569710Y-129025687D01*
D12*
X142370550Y-107228609D02*
X142203884Y-106990514D01*
X142084836Y-107228609D02*
X142084836Y-106728609D01*
X142084836Y-106728609D02*
X142275312Y-106728609D01*
X142275312Y-106728609D02*
X142322931Y-106752419D01*
X142322931Y-106752419D02*
X142346741Y-106776228D01*
X142346741Y-106776228D02*
X142370550Y-106823847D01*
X142370550Y-106823847D02*
X142370550Y-106895276D01*
X142370550Y-106895276D02*
X142346741Y-106942895D01*
X142346741Y-106942895D02*
X142322931Y-106966704D01*
X142322931Y-106966704D02*
X142275312Y-106990514D01*
X142275312Y-106990514D02*
X142084836Y-106990514D01*
X142584836Y-106966704D02*
X142751503Y-106966704D01*
X142822931Y-107228609D02*
X142584836Y-107228609D01*
X142584836Y-107228609D02*
X142584836Y-106728609D01*
X142584836Y-106728609D02*
X142822931Y-106728609D01*
X143037217Y-107228609D02*
X143037217Y-106728609D01*
X143037217Y-106728609D02*
X143156265Y-106728609D01*
X143156265Y-106728609D02*
X143227693Y-106752419D01*
X143227693Y-106752419D02*
X143275312Y-106800038D01*
X143275312Y-106800038D02*
X143299122Y-106847657D01*
X143299122Y-106847657D02*
X143322931Y-106942895D01*
X143322931Y-106942895D02*
X143322931Y-107014323D01*
X143322931Y-107014323D02*
X143299122Y-107109561D01*
X143299122Y-107109561D02*
X143275312Y-107157180D01*
X143275312Y-107157180D02*
X143227693Y-107204800D01*
X143227693Y-107204800D02*
X143156265Y-107228609D01*
X143156265Y-107228609D02*
X143037217Y-107228609D01*
X142084836Y-108033609D02*
X142084836Y-107533609D01*
X142084836Y-107533609D02*
X142275312Y-107533609D01*
X142275312Y-107533609D02*
X142322931Y-107557419D01*
X142322931Y-107557419D02*
X142346741Y-107581228D01*
X142346741Y-107581228D02*
X142370550Y-107628847D01*
X142370550Y-107628847D02*
X142370550Y-107700276D01*
X142370550Y-107700276D02*
X142346741Y-107747895D01*
X142346741Y-107747895D02*
X142322931Y-107771704D01*
X142322931Y-107771704D02*
X142275312Y-107795514D01*
X142275312Y-107795514D02*
X142084836Y-107795514D01*
X142584836Y-108033609D02*
X142584836Y-107533609D01*
X142822931Y-108033609D02*
X142822931Y-107533609D01*
X142822931Y-107533609D02*
X143108645Y-108033609D01*
X143108645Y-108033609D02*
X143108645Y-107533609D01*
D10*
X165078635Y-112358841D02*
X165037511Y-112317717D01*
X165037511Y-112317717D02*
X164996387Y-112235470D01*
X164996387Y-112235470D02*
X164996387Y-112029851D01*
X164996387Y-112029851D02*
X165037511Y-111947603D01*
X165037511Y-111947603D02*
X165078635Y-111906479D01*
X165078635Y-111906479D02*
X165160883Y-111865356D01*
X165160883Y-111865356D02*
X165243130Y-111865356D01*
X165243130Y-111865356D02*
X165366502Y-111906479D01*
X165366502Y-111906479D02*
X165859987Y-112399965D01*
X165859987Y-112399965D02*
X165859987Y-111865356D01*
X164996387Y-111330746D02*
X164996387Y-111248499D01*
X164996387Y-111248499D02*
X165037511Y-111166251D01*
X165037511Y-111166251D02*
X165078635Y-111125127D01*
X165078635Y-111125127D02*
X165160883Y-111084003D01*
X165160883Y-111084003D02*
X165325378Y-111042880D01*
X165325378Y-111042880D02*
X165530997Y-111042880D01*
X165530997Y-111042880D02*
X165695492Y-111084003D01*
X165695492Y-111084003D02*
X165777740Y-111125127D01*
X165777740Y-111125127D02*
X165818864Y-111166251D01*
X165818864Y-111166251D02*
X165859987Y-111248499D01*
X165859987Y-111248499D02*
X165859987Y-111330746D01*
X165859987Y-111330746D02*
X165818864Y-111412994D01*
X165818864Y-111412994D02*
X165777740Y-111454118D01*
X165777740Y-111454118D02*
X165695492Y-111495241D01*
X165695492Y-111495241D02*
X165530997Y-111536365D01*
X165530997Y-111536365D02*
X165325378Y-111536365D01*
X165325378Y-111536365D02*
X165160883Y-111495241D01*
X165160883Y-111495241D02*
X165078635Y-111454118D01*
X165078635Y-111454118D02*
X165037511Y-111412994D01*
X165037511Y-111412994D02*
X164996387Y-111330746D01*
X165859987Y-110220404D02*
X165859987Y-110713889D01*
X165859987Y-110467146D02*
X164996387Y-110467146D01*
X164996387Y-110467146D02*
X165119759Y-110549394D01*
X165119759Y-110549394D02*
X165202006Y-110631642D01*
X165202006Y-110631642D02*
X165243130Y-110713889D01*
X164996387Y-109439051D02*
X164996387Y-109850289D01*
X164996387Y-109850289D02*
X165407625Y-109891413D01*
X165407625Y-109891413D02*
X165366502Y-109850289D01*
X165366502Y-109850289D02*
X165325378Y-109768042D01*
X165325378Y-109768042D02*
X165325378Y-109562423D01*
X165325378Y-109562423D02*
X165366502Y-109480175D01*
X165366502Y-109480175D02*
X165407625Y-109439051D01*
X165407625Y-109439051D02*
X165489873Y-109397928D01*
X165489873Y-109397928D02*
X165695492Y-109397928D01*
X165695492Y-109397928D02*
X165777740Y-109439051D01*
X165777740Y-109439051D02*
X165818864Y-109480175D01*
X165818864Y-109480175D02*
X165859987Y-109562423D01*
X165859987Y-109562423D02*
X165859987Y-109768042D01*
X165859987Y-109768042D02*
X165818864Y-109850289D01*
X165818864Y-109850289D02*
X165777740Y-109891413D01*
X165777740Y-109027813D02*
X165818864Y-108986690D01*
X165818864Y-108986690D02*
X165859987Y-109027813D01*
X165859987Y-109027813D02*
X165818864Y-109068937D01*
X165818864Y-109068937D02*
X165777740Y-109027813D01*
X165777740Y-109027813D02*
X165859987Y-109027813D01*
X165284254Y-108040842D02*
X165859987Y-107835223D01*
X165859987Y-107835223D02*
X165284254Y-107629604D01*
X164996387Y-107382861D02*
X164996387Y-106848252D01*
X164996387Y-106848252D02*
X165325378Y-107136118D01*
X165325378Y-107136118D02*
X165325378Y-107012747D01*
X165325378Y-107012747D02*
X165366502Y-106930499D01*
X165366502Y-106930499D02*
X165407625Y-106889375D01*
X165407625Y-106889375D02*
X165489873Y-106848252D01*
X165489873Y-106848252D02*
X165695492Y-106848252D01*
X165695492Y-106848252D02*
X165777740Y-106889375D01*
X165777740Y-106889375D02*
X165818864Y-106930499D01*
X165818864Y-106930499D02*
X165859987Y-107012747D01*
X165859987Y-107012747D02*
X165859987Y-107259490D01*
X165859987Y-107259490D02*
X165818864Y-107341737D01*
X165818864Y-107341737D02*
X165777740Y-107382861D01*
X164137625Y-112317717D02*
X164137625Y-112029851D01*
X164589987Y-111906479D02*
X164589987Y-112317717D01*
X164589987Y-112317717D02*
X163726387Y-112317717D01*
X163726387Y-112317717D02*
X163726387Y-111906479D01*
X163397397Y-112029851D02*
X163520768Y-112153222D01*
X164589987Y-111536365D02*
X164014254Y-111536365D01*
X164096502Y-111536365D02*
X164055378Y-111495242D01*
X164055378Y-111495242D02*
X164014254Y-111412994D01*
X164014254Y-111412994D02*
X164014254Y-111289623D01*
X164014254Y-111289623D02*
X164055378Y-111207375D01*
X164055378Y-111207375D02*
X164137625Y-111166251D01*
X164137625Y-111166251D02*
X164589987Y-111166251D01*
X164137625Y-111166251D02*
X164055378Y-111125127D01*
X164055378Y-111125127D02*
X164014254Y-111042880D01*
X164014254Y-111042880D02*
X164014254Y-110919508D01*
X164014254Y-110919508D02*
X164055378Y-110837261D01*
X164055378Y-110837261D02*
X164137625Y-110796137D01*
X164137625Y-110796137D02*
X164589987Y-110796137D01*
X164589987Y-110384898D02*
X164014254Y-110384898D01*
X163726387Y-110384898D02*
X163767511Y-110426022D01*
X163767511Y-110426022D02*
X163808635Y-110384898D01*
X163808635Y-110384898D02*
X163767511Y-110343775D01*
X163767511Y-110343775D02*
X163726387Y-110384898D01*
X163726387Y-110384898D02*
X163808635Y-110384898D01*
X164589987Y-109850289D02*
X164548864Y-109932537D01*
X164548864Y-109932537D02*
X164466616Y-109973660D01*
X164466616Y-109973660D02*
X163726387Y-109973660D01*
X164589987Y-109521298D02*
X164014254Y-109521298D01*
X163726387Y-109521298D02*
X163767511Y-109562422D01*
X163767511Y-109562422D02*
X163808635Y-109521298D01*
X163808635Y-109521298D02*
X163767511Y-109480175D01*
X163767511Y-109480175D02*
X163726387Y-109521298D01*
X163726387Y-109521298D02*
X163808635Y-109521298D01*
X164548864Y-108781070D02*
X164589987Y-108863318D01*
X164589987Y-108863318D02*
X164589987Y-109027813D01*
X164589987Y-109027813D02*
X164548864Y-109110060D01*
X164548864Y-109110060D02*
X164466616Y-109151184D01*
X164466616Y-109151184D02*
X164137625Y-109151184D01*
X164137625Y-109151184D02*
X164055378Y-109110060D01*
X164055378Y-109110060D02*
X164014254Y-109027813D01*
X164014254Y-109027813D02*
X164014254Y-108863318D01*
X164014254Y-108863318D02*
X164055378Y-108781070D01*
X164055378Y-108781070D02*
X164137625Y-108739946D01*
X164137625Y-108739946D02*
X164219873Y-108739946D01*
X164219873Y-108739946D02*
X164302121Y-109151184D01*
X163767511Y-107259489D02*
X163726387Y-107341736D01*
X163726387Y-107341736D02*
X163726387Y-107465108D01*
X163726387Y-107465108D02*
X163767511Y-107588479D01*
X163767511Y-107588479D02*
X163849759Y-107670727D01*
X163849759Y-107670727D02*
X163932006Y-107711850D01*
X163932006Y-107711850D02*
X164096502Y-107752974D01*
X164096502Y-107752974D02*
X164219873Y-107752974D01*
X164219873Y-107752974D02*
X164384368Y-107711850D01*
X164384368Y-107711850D02*
X164466616Y-107670727D01*
X164466616Y-107670727D02*
X164548864Y-107588479D01*
X164548864Y-107588479D02*
X164589987Y-107465108D01*
X164589987Y-107465108D02*
X164589987Y-107382860D01*
X164589987Y-107382860D02*
X164548864Y-107259489D01*
X164548864Y-107259489D02*
X164507740Y-107218365D01*
X164507740Y-107218365D02*
X164219873Y-107218365D01*
X164219873Y-107218365D02*
X164219873Y-107382860D01*
X164589987Y-106848250D02*
X164014254Y-106848250D01*
X163726387Y-106848250D02*
X163767511Y-106889374D01*
X163767511Y-106889374D02*
X163808635Y-106848250D01*
X163808635Y-106848250D02*
X163767511Y-106807127D01*
X163767511Y-106807127D02*
X163726387Y-106848250D01*
X163726387Y-106848250D02*
X163808635Y-106848250D01*
X164589987Y-106313641D02*
X164548864Y-106395889D01*
X164548864Y-106395889D02*
X164466616Y-106437012D01*
X164466616Y-106437012D02*
X163726387Y-106437012D01*
X164589987Y-105861279D02*
X164548864Y-105943527D01*
X164548864Y-105943527D02*
X164466616Y-105984650D01*
X164466616Y-105984650D02*
X163726387Y-105984650D01*
X164548864Y-105203298D02*
X164589987Y-105285546D01*
X164589987Y-105285546D02*
X164589987Y-105450041D01*
X164589987Y-105450041D02*
X164548864Y-105532288D01*
X164548864Y-105532288D02*
X164466616Y-105573412D01*
X164466616Y-105573412D02*
X164137625Y-105573412D01*
X164137625Y-105573412D02*
X164055378Y-105532288D01*
X164055378Y-105532288D02*
X164014254Y-105450041D01*
X164014254Y-105450041D02*
X164014254Y-105285546D01*
X164014254Y-105285546D02*
X164055378Y-105203298D01*
X164055378Y-105203298D02*
X164137625Y-105162174D01*
X164137625Y-105162174D02*
X164219873Y-105162174D01*
X164219873Y-105162174D02*
X164302121Y-105573412D01*
X164014254Y-104915431D02*
X164014254Y-104586440D01*
X163726387Y-104792059D02*
X164466616Y-104792059D01*
X164466616Y-104792059D02*
X164548864Y-104750936D01*
X164548864Y-104750936D02*
X164589987Y-104668688D01*
X164589987Y-104668688D02*
X164589987Y-104586440D01*
X167245264Y-130835241D02*
X167286387Y-130711870D01*
X167286387Y-130711870D02*
X167286387Y-130506251D01*
X167286387Y-130506251D02*
X167245264Y-130424003D01*
X167245264Y-130424003D02*
X167204140Y-130382879D01*
X167204140Y-130382879D02*
X167121892Y-130341756D01*
X167121892Y-130341756D02*
X167039644Y-130341756D01*
X167039644Y-130341756D02*
X166957397Y-130382879D01*
X166957397Y-130382879D02*
X166916273Y-130424003D01*
X166916273Y-130424003D02*
X166875149Y-130506251D01*
X166875149Y-130506251D02*
X166834025Y-130670746D01*
X166834025Y-130670746D02*
X166792902Y-130752994D01*
X166792902Y-130752994D02*
X166751778Y-130794117D01*
X166751778Y-130794117D02*
X166669530Y-130835241D01*
X166669530Y-130835241D02*
X166587283Y-130835241D01*
X166587283Y-130835241D02*
X166505035Y-130794117D01*
X166505035Y-130794117D02*
X166463911Y-130752994D01*
X166463911Y-130752994D02*
X166422787Y-130670746D01*
X166422787Y-130670746D02*
X166422787Y-130465127D01*
X166422787Y-130465127D02*
X166463911Y-130341756D01*
X166875149Y-129807146D02*
X167286387Y-129807146D01*
X166422787Y-130095013D02*
X166875149Y-129807146D01*
X166875149Y-129807146D02*
X166422787Y-129519280D01*
X167245264Y-129272536D02*
X167286387Y-129149165D01*
X167286387Y-129149165D02*
X167286387Y-128943546D01*
X167286387Y-128943546D02*
X167245264Y-128861298D01*
X167245264Y-128861298D02*
X167204140Y-128820174D01*
X167204140Y-128820174D02*
X167121892Y-128779051D01*
X167121892Y-128779051D02*
X167039644Y-128779051D01*
X167039644Y-128779051D02*
X166957397Y-128820174D01*
X166957397Y-128820174D02*
X166916273Y-128861298D01*
X166916273Y-128861298D02*
X166875149Y-128943546D01*
X166875149Y-128943546D02*
X166834025Y-129108041D01*
X166834025Y-129108041D02*
X166792902Y-129190289D01*
X166792902Y-129190289D02*
X166751778Y-129231412D01*
X166751778Y-129231412D02*
X166669530Y-129272536D01*
X166669530Y-129272536D02*
X166587283Y-129272536D01*
X166587283Y-129272536D02*
X166505035Y-129231412D01*
X166505035Y-129231412D02*
X166463911Y-129190289D01*
X166463911Y-129190289D02*
X166422787Y-129108041D01*
X166422787Y-129108041D02*
X166422787Y-128902422D01*
X166422787Y-128902422D02*
X166463911Y-128779051D01*
X166834025Y-128121070D02*
X166875149Y-127997698D01*
X166875149Y-127997698D02*
X166916273Y-127956575D01*
X166916273Y-127956575D02*
X166998521Y-127915451D01*
X166998521Y-127915451D02*
X167121892Y-127915451D01*
X167121892Y-127915451D02*
X167204140Y-127956575D01*
X167204140Y-127956575D02*
X167245264Y-127997698D01*
X167245264Y-127997698D02*
X167286387Y-128079946D01*
X167286387Y-128079946D02*
X167286387Y-128408936D01*
X167286387Y-128408936D02*
X166422787Y-128408936D01*
X166422787Y-128408936D02*
X166422787Y-128121070D01*
X166422787Y-128121070D02*
X166463911Y-128038822D01*
X166463911Y-128038822D02*
X166505035Y-127997698D01*
X166505035Y-127997698D02*
X166587283Y-127956575D01*
X166587283Y-127956575D02*
X166669530Y-127956575D01*
X166669530Y-127956575D02*
X166751778Y-127997698D01*
X166751778Y-127997698D02*
X166792902Y-128038822D01*
X166792902Y-128038822D02*
X166834025Y-128121070D01*
X166834025Y-128121070D02*
X166834025Y-128408936D01*
X166422787Y-127380841D02*
X166422787Y-127216346D01*
X166422787Y-127216346D02*
X166463911Y-127134098D01*
X166463911Y-127134098D02*
X166546159Y-127051851D01*
X166546159Y-127051851D02*
X166710654Y-127010727D01*
X166710654Y-127010727D02*
X166998521Y-127010727D01*
X166998521Y-127010727D02*
X167163016Y-127051851D01*
X167163016Y-127051851D02*
X167245264Y-127134098D01*
X167245264Y-127134098D02*
X167286387Y-127216346D01*
X167286387Y-127216346D02*
X167286387Y-127380841D01*
X167286387Y-127380841D02*
X167245264Y-127463089D01*
X167245264Y-127463089D02*
X167163016Y-127545336D01*
X167163016Y-127545336D02*
X166998521Y-127586460D01*
X166998521Y-127586460D02*
X166710654Y-127586460D01*
X166710654Y-127586460D02*
X166546159Y-127545336D01*
X166546159Y-127545336D02*
X166463911Y-127463089D01*
X166463911Y-127463089D02*
X166422787Y-127380841D01*
X166422787Y-126476117D02*
X166422787Y-126311622D01*
X166422787Y-126311622D02*
X166463911Y-126229374D01*
X166463911Y-126229374D02*
X166546159Y-126147127D01*
X166546159Y-126147127D02*
X166710654Y-126106003D01*
X166710654Y-126106003D02*
X166998521Y-126106003D01*
X166998521Y-126106003D02*
X167163016Y-126147127D01*
X167163016Y-126147127D02*
X167245264Y-126229374D01*
X167245264Y-126229374D02*
X167286387Y-126311622D01*
X167286387Y-126311622D02*
X167286387Y-126476117D01*
X167286387Y-126476117D02*
X167245264Y-126558365D01*
X167245264Y-126558365D02*
X167163016Y-126640612D01*
X167163016Y-126640612D02*
X166998521Y-126681736D01*
X166998521Y-126681736D02*
X166710654Y-126681736D01*
X166710654Y-126681736D02*
X166546159Y-126640612D01*
X166546159Y-126640612D02*
X166463911Y-126558365D01*
X166463911Y-126558365D02*
X166422787Y-126476117D01*
X166422787Y-125859260D02*
X166422787Y-125365774D01*
X167286387Y-125612517D02*
X166422787Y-125612517D01*
D12*
X141770550Y-135528609D02*
X141603884Y-135290514D01*
X141484836Y-135528609D02*
X141484836Y-135028609D01*
X141484836Y-135028609D02*
X141675312Y-135028609D01*
X141675312Y-135028609D02*
X141722931Y-135052419D01*
X141722931Y-135052419D02*
X141746741Y-135076228D01*
X141746741Y-135076228D02*
X141770550Y-135123847D01*
X141770550Y-135123847D02*
X141770550Y-135195276D01*
X141770550Y-135195276D02*
X141746741Y-135242895D01*
X141746741Y-135242895D02*
X141722931Y-135266704D01*
X141722931Y-135266704D02*
X141675312Y-135290514D01*
X141675312Y-135290514D02*
X141484836Y-135290514D01*
X141984836Y-135266704D02*
X142151503Y-135266704D01*
X142222931Y-135528609D02*
X141984836Y-135528609D01*
X141984836Y-135528609D02*
X141984836Y-135028609D01*
X141984836Y-135028609D02*
X142222931Y-135028609D01*
X142437217Y-135528609D02*
X142437217Y-135028609D01*
X142437217Y-135028609D02*
X142556265Y-135028609D01*
X142556265Y-135028609D02*
X142627693Y-135052419D01*
X142627693Y-135052419D02*
X142675312Y-135100038D01*
X142675312Y-135100038D02*
X142699122Y-135147657D01*
X142699122Y-135147657D02*
X142722931Y-135242895D01*
X142722931Y-135242895D02*
X142722931Y-135314323D01*
X142722931Y-135314323D02*
X142699122Y-135409561D01*
X142699122Y-135409561D02*
X142675312Y-135457180D01*
X142675312Y-135457180D02*
X142627693Y-135504800D01*
X142627693Y-135504800D02*
X142556265Y-135528609D01*
X142556265Y-135528609D02*
X142437217Y-135528609D01*
X141484836Y-136333609D02*
X141484836Y-135833609D01*
X141484836Y-135833609D02*
X141675312Y-135833609D01*
X141675312Y-135833609D02*
X141722931Y-135857419D01*
X141722931Y-135857419D02*
X141746741Y-135881228D01*
X141746741Y-135881228D02*
X141770550Y-135928847D01*
X141770550Y-135928847D02*
X141770550Y-136000276D01*
X141770550Y-136000276D02*
X141746741Y-136047895D01*
X141746741Y-136047895D02*
X141722931Y-136071704D01*
X141722931Y-136071704D02*
X141675312Y-136095514D01*
X141675312Y-136095514D02*
X141484836Y-136095514D01*
X141984836Y-136333609D02*
X141984836Y-135833609D01*
X142222931Y-136333609D02*
X142222931Y-135833609D01*
X142222931Y-135833609D02*
X142508645Y-136333609D01*
X142508645Y-136333609D02*
X142508645Y-135833609D01*
D13*
%TO.C,R12*%
X147402911Y-112857510D02*
X147230869Y-112611735D01*
X147107981Y-112857510D02*
X147107981Y-112341382D01*
X147107981Y-112341382D02*
X147304601Y-112341382D01*
X147304601Y-112341382D02*
X147353756Y-112365960D01*
X147353756Y-112365960D02*
X147378334Y-112390537D01*
X147378334Y-112390537D02*
X147402911Y-112439692D01*
X147402911Y-112439692D02*
X147402911Y-112513425D01*
X147402911Y-112513425D02*
X147378334Y-112562580D01*
X147378334Y-112562580D02*
X147353756Y-112587157D01*
X147353756Y-112587157D02*
X147304601Y-112611735D01*
X147304601Y-112611735D02*
X147107981Y-112611735D01*
X147894462Y-112857510D02*
X147599532Y-112857510D01*
X147746997Y-112857510D02*
X147746997Y-112341382D01*
X147746997Y-112341382D02*
X147697842Y-112415115D01*
X147697842Y-112415115D02*
X147648687Y-112464270D01*
X147648687Y-112464270D02*
X147599532Y-112488847D01*
X148091082Y-112390537D02*
X148115659Y-112365960D01*
X148115659Y-112365960D02*
X148164814Y-112341382D01*
X148164814Y-112341382D02*
X148287702Y-112341382D01*
X148287702Y-112341382D02*
X148336857Y-112365960D01*
X148336857Y-112365960D02*
X148361434Y-112390537D01*
X148361434Y-112390537D02*
X148386012Y-112439692D01*
X148386012Y-112439692D02*
X148386012Y-112488847D01*
X148386012Y-112488847D02*
X148361434Y-112562580D01*
X148361434Y-112562580D02*
X148066504Y-112857510D01*
X148066504Y-112857510D02*
X148386012Y-112857510D01*
%TO.C,C21*%
X142980855Y-139766788D02*
X143005433Y-139791365D01*
X143005433Y-139791365D02*
X143030010Y-139865098D01*
X143030010Y-139865098D02*
X143030010Y-139914253D01*
X143030010Y-139914253D02*
X143005433Y-139987985D01*
X143005433Y-139987985D02*
X142956277Y-140037140D01*
X142956277Y-140037140D02*
X142907122Y-140061718D01*
X142907122Y-140061718D02*
X142808812Y-140086295D01*
X142808812Y-140086295D02*
X142735080Y-140086295D01*
X142735080Y-140086295D02*
X142636770Y-140061718D01*
X142636770Y-140061718D02*
X142587615Y-140037140D01*
X142587615Y-140037140D02*
X142538460Y-139987985D01*
X142538460Y-139987985D02*
X142513882Y-139914253D01*
X142513882Y-139914253D02*
X142513882Y-139865098D01*
X142513882Y-139865098D02*
X142538460Y-139791365D01*
X142538460Y-139791365D02*
X142563037Y-139766788D01*
X142563037Y-139570167D02*
X142538460Y-139545590D01*
X142538460Y-139545590D02*
X142513882Y-139496435D01*
X142513882Y-139496435D02*
X142513882Y-139373547D01*
X142513882Y-139373547D02*
X142538460Y-139324392D01*
X142538460Y-139324392D02*
X142563037Y-139299815D01*
X142563037Y-139299815D02*
X142612192Y-139275237D01*
X142612192Y-139275237D02*
X142661347Y-139275237D01*
X142661347Y-139275237D02*
X142735080Y-139299815D01*
X142735080Y-139299815D02*
X143030010Y-139594745D01*
X143030010Y-139594745D02*
X143030010Y-139275237D01*
X143030010Y-138783687D02*
X143030010Y-139078617D01*
X143030010Y-138931152D02*
X142513882Y-138931152D01*
X142513882Y-138931152D02*
X142587615Y-138980307D01*
X142587615Y-138980307D02*
X142636770Y-139029462D01*
X142636770Y-139029462D02*
X142661347Y-139078617D01*
D14*
%TO.C,IC5*%
X150091673Y-139869941D02*
X150091673Y-139017517D01*
X150984688Y-139788758D02*
X150944096Y-139829350D01*
X150944096Y-139829350D02*
X150822322Y-139869941D01*
X150822322Y-139869941D02*
X150741138Y-139869941D01*
X150741138Y-139869941D02*
X150619363Y-139829350D01*
X150619363Y-139829350D02*
X150538180Y-139748166D01*
X150538180Y-139748166D02*
X150497589Y-139666983D01*
X150497589Y-139666983D02*
X150456997Y-139504617D01*
X150456997Y-139504617D02*
X150456997Y-139382842D01*
X150456997Y-139382842D02*
X150497589Y-139220475D01*
X150497589Y-139220475D02*
X150538180Y-139139292D01*
X150538180Y-139139292D02*
X150619363Y-139058109D01*
X150619363Y-139058109D02*
X150741138Y-139017517D01*
X150741138Y-139017517D02*
X150822322Y-139017517D01*
X150822322Y-139017517D02*
X150944096Y-139058109D01*
X150944096Y-139058109D02*
X150984688Y-139098700D01*
X151755929Y-139017517D02*
X151350013Y-139017517D01*
X151350013Y-139017517D02*
X151309421Y-139423433D01*
X151309421Y-139423433D02*
X151350013Y-139382842D01*
X151350013Y-139382842D02*
X151431196Y-139342250D01*
X151431196Y-139342250D02*
X151634154Y-139342250D01*
X151634154Y-139342250D02*
X151715337Y-139382842D01*
X151715337Y-139382842D02*
X151755929Y-139423433D01*
X151755929Y-139423433D02*
X151796520Y-139504617D01*
X151796520Y-139504617D02*
X151796520Y-139707575D01*
X151796520Y-139707575D02*
X151755929Y-139788758D01*
X151755929Y-139788758D02*
X151715337Y-139829350D01*
X151715337Y-139829350D02*
X151634154Y-139869941D01*
X151634154Y-139869941D02*
X151431196Y-139869941D01*
X151431196Y-139869941D02*
X151350013Y-139829350D01*
X151350013Y-139829350D02*
X151309421Y-139788758D01*
D13*
%TO.C,C12*%
X148355411Y-107410855D02*
X148330834Y-107435433D01*
X148330834Y-107435433D02*
X148257101Y-107460010D01*
X148257101Y-107460010D02*
X148207946Y-107460010D01*
X148207946Y-107460010D02*
X148134214Y-107435433D01*
X148134214Y-107435433D02*
X148085059Y-107386277D01*
X148085059Y-107386277D02*
X148060481Y-107337122D01*
X148060481Y-107337122D02*
X148035904Y-107238812D01*
X148035904Y-107238812D02*
X148035904Y-107165080D01*
X148035904Y-107165080D02*
X148060481Y-107066770D01*
X148060481Y-107066770D02*
X148085059Y-107017615D01*
X148085059Y-107017615D02*
X148134214Y-106968460D01*
X148134214Y-106968460D02*
X148207946Y-106943882D01*
X148207946Y-106943882D02*
X148257101Y-106943882D01*
X148257101Y-106943882D02*
X148330834Y-106968460D01*
X148330834Y-106968460D02*
X148355411Y-106993037D01*
X148846962Y-107460010D02*
X148552032Y-107460010D01*
X148699497Y-107460010D02*
X148699497Y-106943882D01*
X148699497Y-106943882D02*
X148650342Y-107017615D01*
X148650342Y-107017615D02*
X148601187Y-107066770D01*
X148601187Y-107066770D02*
X148552032Y-107091347D01*
X149043582Y-106993037D02*
X149068159Y-106968460D01*
X149068159Y-106968460D02*
X149117314Y-106943882D01*
X149117314Y-106943882D02*
X149240202Y-106943882D01*
X149240202Y-106943882D02*
X149289357Y-106968460D01*
X149289357Y-106968460D02*
X149313934Y-106993037D01*
X149313934Y-106993037D02*
X149338512Y-107042192D01*
X149338512Y-107042192D02*
X149338512Y-107091347D01*
X149338512Y-107091347D02*
X149313934Y-107165080D01*
X149313934Y-107165080D02*
X149019004Y-107460010D01*
X149019004Y-107460010D02*
X149338512Y-107460010D01*
%TO.C,J1*%
X138531477Y-127146496D02*
X138531477Y-127986873D01*
X138531477Y-127986873D02*
X138475452Y-128154948D01*
X138475452Y-128154948D02*
X138363402Y-128266999D01*
X138363402Y-128266999D02*
X138195326Y-128323024D01*
X138195326Y-128323024D02*
X138083276Y-128323024D01*
X139708005Y-128323024D02*
X139035703Y-128323024D01*
X139371854Y-128323024D02*
X139371854Y-127146496D01*
X139371854Y-127146496D02*
X139259804Y-127314571D01*
X139259804Y-127314571D02*
X139147753Y-127426621D01*
X139147753Y-127426621D02*
X139035703Y-127482647D01*
%TO.C,C17*%
X143933355Y-126431788D02*
X143957933Y-126456365D01*
X143957933Y-126456365D02*
X143982510Y-126530098D01*
X143982510Y-126530098D02*
X143982510Y-126579253D01*
X143982510Y-126579253D02*
X143957933Y-126652985D01*
X143957933Y-126652985D02*
X143908777Y-126702140D01*
X143908777Y-126702140D02*
X143859622Y-126726718D01*
X143859622Y-126726718D02*
X143761312Y-126751295D01*
X143761312Y-126751295D02*
X143687580Y-126751295D01*
X143687580Y-126751295D02*
X143589270Y-126726718D01*
X143589270Y-126726718D02*
X143540115Y-126702140D01*
X143540115Y-126702140D02*
X143490960Y-126652985D01*
X143490960Y-126652985D02*
X143466382Y-126579253D01*
X143466382Y-126579253D02*
X143466382Y-126530098D01*
X143466382Y-126530098D02*
X143490960Y-126456365D01*
X143490960Y-126456365D02*
X143515537Y-126431788D01*
X143982510Y-125940237D02*
X143982510Y-126235167D01*
X143982510Y-126087702D02*
X143466382Y-126087702D01*
X143466382Y-126087702D02*
X143540115Y-126136857D01*
X143540115Y-126136857D02*
X143589270Y-126186012D01*
X143589270Y-126186012D02*
X143613847Y-126235167D01*
X143466382Y-125768195D02*
X143466382Y-125424110D01*
X143466382Y-125424110D02*
X143982510Y-125645307D01*
%TO.C,R17*%
X151920010Y-120399288D02*
X151674235Y-120571330D01*
X151920010Y-120694218D02*
X151403882Y-120694218D01*
X151403882Y-120694218D02*
X151403882Y-120497598D01*
X151403882Y-120497598D02*
X151428460Y-120448443D01*
X151428460Y-120448443D02*
X151453037Y-120423865D01*
X151453037Y-120423865D02*
X151502192Y-120399288D01*
X151502192Y-120399288D02*
X151575925Y-120399288D01*
X151575925Y-120399288D02*
X151625080Y-120423865D01*
X151625080Y-120423865D02*
X151649657Y-120448443D01*
X151649657Y-120448443D02*
X151674235Y-120497598D01*
X151674235Y-120497598D02*
X151674235Y-120694218D01*
X151920010Y-119907737D02*
X151920010Y-120202667D01*
X151920010Y-120055202D02*
X151403882Y-120055202D01*
X151403882Y-120055202D02*
X151477615Y-120104357D01*
X151477615Y-120104357D02*
X151526770Y-120153512D01*
X151526770Y-120153512D02*
X151551347Y-120202667D01*
X151403882Y-119735695D02*
X151403882Y-119391610D01*
X151403882Y-119391610D02*
X151920010Y-119612807D01*
D15*
%TO.C,UC1*%
X141206578Y-83905189D02*
X141206578Y-84585788D01*
X141206578Y-84585788D02*
X141246613Y-84665858D01*
X141246613Y-84665858D02*
X141286648Y-84705894D01*
X141286648Y-84705894D02*
X141366719Y-84745929D01*
X141366719Y-84745929D02*
X141526860Y-84745929D01*
X141526860Y-84745929D02*
X141606930Y-84705894D01*
X141606930Y-84705894D02*
X141646965Y-84665858D01*
X141646965Y-84665858D02*
X141687001Y-84585788D01*
X141687001Y-84585788D02*
X141687001Y-83905189D01*
X142567776Y-84665858D02*
X142527740Y-84705894D01*
X142527740Y-84705894D02*
X142407635Y-84745929D01*
X142407635Y-84745929D02*
X142327564Y-84745929D01*
X142327564Y-84745929D02*
X142207458Y-84705894D01*
X142207458Y-84705894D02*
X142127388Y-84625823D01*
X142127388Y-84625823D02*
X142087353Y-84545753D01*
X142087353Y-84545753D02*
X142047317Y-84385612D01*
X142047317Y-84385612D02*
X142047317Y-84265506D01*
X142047317Y-84265506D02*
X142087353Y-84105365D01*
X142087353Y-84105365D02*
X142127388Y-84025294D01*
X142127388Y-84025294D02*
X142207458Y-83945224D01*
X142207458Y-83945224D02*
X142327564Y-83905189D01*
X142327564Y-83905189D02*
X142407635Y-83905189D01*
X142407635Y-83905189D02*
X142527740Y-83945224D01*
X142527740Y-83945224D02*
X142567776Y-83985259D01*
X143368480Y-84745929D02*
X142888057Y-84745929D01*
X143128269Y-84745929D02*
X143128269Y-83905189D01*
X143128269Y-83905189D02*
X143048198Y-84025294D01*
X143048198Y-84025294D02*
X142968128Y-84105365D01*
X142968128Y-84105365D02*
X142888057Y-84145400D01*
D13*
%TO.C,R16*%
X137560411Y-117203910D02*
X137388369Y-116958135D01*
X137265481Y-117203910D02*
X137265481Y-116687782D01*
X137265481Y-116687782D02*
X137462101Y-116687782D01*
X137462101Y-116687782D02*
X137511256Y-116712360D01*
X137511256Y-116712360D02*
X137535834Y-116736937D01*
X137535834Y-116736937D02*
X137560411Y-116786092D01*
X137560411Y-116786092D02*
X137560411Y-116859825D01*
X137560411Y-116859825D02*
X137535834Y-116908980D01*
X137535834Y-116908980D02*
X137511256Y-116933557D01*
X137511256Y-116933557D02*
X137462101Y-116958135D01*
X137462101Y-116958135D02*
X137265481Y-116958135D01*
X138051962Y-117203910D02*
X137757032Y-117203910D01*
X137904497Y-117203910D02*
X137904497Y-116687782D01*
X137904497Y-116687782D02*
X137855342Y-116761515D01*
X137855342Y-116761515D02*
X137806187Y-116810670D01*
X137806187Y-116810670D02*
X137757032Y-116835247D01*
X138494357Y-116687782D02*
X138396047Y-116687782D01*
X138396047Y-116687782D02*
X138346892Y-116712360D01*
X138346892Y-116712360D02*
X138322314Y-116736937D01*
X138322314Y-116736937D02*
X138273159Y-116810670D01*
X138273159Y-116810670D02*
X138248582Y-116908980D01*
X138248582Y-116908980D02*
X138248582Y-117105600D01*
X138248582Y-117105600D02*
X138273159Y-117154755D01*
X138273159Y-117154755D02*
X138297737Y-117179333D01*
X138297737Y-117179333D02*
X138346892Y-117203910D01*
X138346892Y-117203910D02*
X138445202Y-117203910D01*
X138445202Y-117203910D02*
X138494357Y-117179333D01*
X138494357Y-117179333D02*
X138518934Y-117154755D01*
X138518934Y-117154755D02*
X138543512Y-117105600D01*
X138543512Y-117105600D02*
X138543512Y-116982712D01*
X138543512Y-116982712D02*
X138518934Y-116933557D01*
X138518934Y-116933557D02*
X138494357Y-116908980D01*
X138494357Y-116908980D02*
X138445202Y-116884402D01*
X138445202Y-116884402D02*
X138346892Y-116884402D01*
X138346892Y-116884402D02*
X138297737Y-116908980D01*
X138297737Y-116908980D02*
X138273159Y-116933557D01*
X138273159Y-116933557D02*
X138248582Y-116982712D01*
%TO.C,R10*%
X140773524Y-102504324D02*
X140825661Y-102208882D01*
X140564977Y-102295777D02*
X140929935Y-101930819D01*
X140929935Y-101930819D02*
X141068966Y-102069851D01*
X141068966Y-102069851D02*
X141086345Y-102121987D01*
X141086345Y-102121987D02*
X141086345Y-102156745D01*
X141086345Y-102156745D02*
X141068966Y-102208882D01*
X141068966Y-102208882D02*
X141016830Y-102261019D01*
X141016830Y-102261019D02*
X140964693Y-102278398D01*
X140964693Y-102278398D02*
X140929935Y-102278398D01*
X140929935Y-102278398D02*
X140877798Y-102261019D01*
X140877798Y-102261019D02*
X140738767Y-102121987D01*
X141121103Y-102851903D02*
X140912556Y-102643355D01*
X141016830Y-102747629D02*
X141381787Y-102382671D01*
X141381787Y-102382671D02*
X141294892Y-102400050D01*
X141294892Y-102400050D02*
X141225377Y-102400050D01*
X141225377Y-102400050D02*
X141173240Y-102382671D01*
X141711987Y-102712871D02*
X141746744Y-102747629D01*
X141746744Y-102747629D02*
X141764123Y-102799765D01*
X141764123Y-102799765D02*
X141764123Y-102834523D01*
X141764123Y-102834523D02*
X141746744Y-102886660D01*
X141746744Y-102886660D02*
X141694608Y-102973555D01*
X141694608Y-102973555D02*
X141607713Y-103060449D01*
X141607713Y-103060449D02*
X141520818Y-103112586D01*
X141520818Y-103112586D02*
X141468681Y-103129965D01*
X141468681Y-103129965D02*
X141433924Y-103129965D01*
X141433924Y-103129965D02*
X141381787Y-103112586D01*
X141381787Y-103112586D02*
X141347029Y-103077828D01*
X141347029Y-103077828D02*
X141329650Y-103025692D01*
X141329650Y-103025692D02*
X141329650Y-102990934D01*
X141329650Y-102990934D02*
X141347029Y-102938797D01*
X141347029Y-102938797D02*
X141399166Y-102851902D01*
X141399166Y-102851902D02*
X141486060Y-102765008D01*
X141486060Y-102765008D02*
X141572955Y-102712871D01*
X141572955Y-102712871D02*
X141625092Y-102695492D01*
X141625092Y-102695492D02*
X141659850Y-102695492D01*
X141659850Y-102695492D02*
X141711987Y-102712871D01*
%TO.C,R4*%
X131600010Y-82159954D02*
X131354235Y-82331996D01*
X131600010Y-82454884D02*
X131083882Y-82454884D01*
X131083882Y-82454884D02*
X131083882Y-82258264D01*
X131083882Y-82258264D02*
X131108460Y-82209109D01*
X131108460Y-82209109D02*
X131133037Y-82184531D01*
X131133037Y-82184531D02*
X131182192Y-82159954D01*
X131182192Y-82159954D02*
X131255925Y-82159954D01*
X131255925Y-82159954D02*
X131305080Y-82184531D01*
X131305080Y-82184531D02*
X131329657Y-82209109D01*
X131329657Y-82209109D02*
X131354235Y-82258264D01*
X131354235Y-82258264D02*
X131354235Y-82454884D01*
X131255925Y-81717558D02*
X131600010Y-81717558D01*
X131059305Y-81840446D02*
X131427967Y-81963333D01*
X131427967Y-81963333D02*
X131427967Y-81643826D01*
%TO.C,R27*%
X130330010Y-145303188D02*
X130084235Y-145475230D01*
X130330010Y-145598118D02*
X129813882Y-145598118D01*
X129813882Y-145598118D02*
X129813882Y-145401498D01*
X129813882Y-145401498D02*
X129838460Y-145352343D01*
X129838460Y-145352343D02*
X129863037Y-145327765D01*
X129863037Y-145327765D02*
X129912192Y-145303188D01*
X129912192Y-145303188D02*
X129985925Y-145303188D01*
X129985925Y-145303188D02*
X130035080Y-145327765D01*
X130035080Y-145327765D02*
X130059657Y-145352343D01*
X130059657Y-145352343D02*
X130084235Y-145401498D01*
X130084235Y-145401498D02*
X130084235Y-145598118D01*
X129863037Y-145106567D02*
X129838460Y-145081990D01*
X129838460Y-145081990D02*
X129813882Y-145032835D01*
X129813882Y-145032835D02*
X129813882Y-144909947D01*
X129813882Y-144909947D02*
X129838460Y-144860792D01*
X129838460Y-144860792D02*
X129863037Y-144836215D01*
X129863037Y-144836215D02*
X129912192Y-144811637D01*
X129912192Y-144811637D02*
X129961347Y-144811637D01*
X129961347Y-144811637D02*
X130035080Y-144836215D01*
X130035080Y-144836215D02*
X130330010Y-145131145D01*
X130330010Y-145131145D02*
X130330010Y-144811637D01*
X129813882Y-144639595D02*
X129813882Y-144295510D01*
X129813882Y-144295510D02*
X130330010Y-144516707D01*
D16*
%TO.C,LED4*%
X137017295Y-91094474D02*
X137017295Y-91427093D01*
X137017295Y-91427093D02*
X136318795Y-91427093D01*
X136651414Y-90861641D02*
X136651414Y-90628808D01*
X137017295Y-90529022D02*
X137017295Y-90861641D01*
X137017295Y-90861641D02*
X136318795Y-90861641D01*
X136318795Y-90861641D02*
X136318795Y-90529022D01*
X137017295Y-90229665D02*
X136318795Y-90229665D01*
X136318795Y-90229665D02*
X136318795Y-90063355D01*
X136318795Y-90063355D02*
X136352057Y-89963570D01*
X136352057Y-89963570D02*
X136418581Y-89897046D01*
X136418581Y-89897046D02*
X136485105Y-89863784D01*
X136485105Y-89863784D02*
X136618153Y-89830522D01*
X136618153Y-89830522D02*
X136717938Y-89830522D01*
X136717938Y-89830522D02*
X136850986Y-89863784D01*
X136850986Y-89863784D02*
X136917510Y-89897046D01*
X136917510Y-89897046D02*
X136984034Y-89963570D01*
X136984034Y-89963570D02*
X137017295Y-90063355D01*
X137017295Y-90063355D02*
X137017295Y-90229665D01*
X136551629Y-89231808D02*
X137017295Y-89231808D01*
X136285534Y-89398117D02*
X136784462Y-89564427D01*
X136784462Y-89564427D02*
X136784462Y-89132022D01*
D13*
%TO.C,R29*%
X140065695Y-144290010D02*
X139893653Y-144044235D01*
X139770765Y-144290010D02*
X139770765Y-143773882D01*
X139770765Y-143773882D02*
X139967385Y-143773882D01*
X139967385Y-143773882D02*
X140016540Y-143798460D01*
X140016540Y-143798460D02*
X140041118Y-143823037D01*
X140041118Y-143823037D02*
X140065695Y-143872192D01*
X140065695Y-143872192D02*
X140065695Y-143945925D01*
X140065695Y-143945925D02*
X140041118Y-143995080D01*
X140041118Y-143995080D02*
X140016540Y-144019657D01*
X140016540Y-144019657D02*
X139967385Y-144044235D01*
X139967385Y-144044235D02*
X139770765Y-144044235D01*
X140262316Y-143823037D02*
X140286893Y-143798460D01*
X140286893Y-143798460D02*
X140336048Y-143773882D01*
X140336048Y-143773882D02*
X140458936Y-143773882D01*
X140458936Y-143773882D02*
X140508091Y-143798460D01*
X140508091Y-143798460D02*
X140532668Y-143823037D01*
X140532668Y-143823037D02*
X140557246Y-143872192D01*
X140557246Y-143872192D02*
X140557246Y-143921347D01*
X140557246Y-143921347D02*
X140532668Y-143995080D01*
X140532668Y-143995080D02*
X140237738Y-144290010D01*
X140237738Y-144290010D02*
X140557246Y-144290010D01*
X140803021Y-144290010D02*
X140901331Y-144290010D01*
X140901331Y-144290010D02*
X140950486Y-144265433D01*
X140950486Y-144265433D02*
X140975063Y-144240855D01*
X140975063Y-144240855D02*
X141024218Y-144167122D01*
X141024218Y-144167122D02*
X141048796Y-144068812D01*
X141048796Y-144068812D02*
X141048796Y-143872192D01*
X141048796Y-143872192D02*
X141024218Y-143823037D01*
X141024218Y-143823037D02*
X140999641Y-143798460D01*
X140999641Y-143798460D02*
X140950486Y-143773882D01*
X140950486Y-143773882D02*
X140852176Y-143773882D01*
X140852176Y-143773882D02*
X140803021Y-143798460D01*
X140803021Y-143798460D02*
X140778443Y-143823037D01*
X140778443Y-143823037D02*
X140753866Y-143872192D01*
X140753866Y-143872192D02*
X140753866Y-143995080D01*
X140753866Y-143995080D02*
X140778443Y-144044235D01*
X140778443Y-144044235D02*
X140803021Y-144068812D01*
X140803021Y-144068812D02*
X140852176Y-144093390D01*
X140852176Y-144093390D02*
X140950486Y-144093390D01*
X140950486Y-144093390D02*
X140999641Y-144068812D01*
X140999641Y-144068812D02*
X141024218Y-144044235D01*
X141024218Y-144044235D02*
X141048796Y-143995080D01*
%TO.C,C3*%
X146291711Y-61690855D02*
X146267134Y-61715433D01*
X146267134Y-61715433D02*
X146193401Y-61740010D01*
X146193401Y-61740010D02*
X146144246Y-61740010D01*
X146144246Y-61740010D02*
X146070514Y-61715433D01*
X146070514Y-61715433D02*
X146021359Y-61666277D01*
X146021359Y-61666277D02*
X145996781Y-61617122D01*
X145996781Y-61617122D02*
X145972204Y-61518812D01*
X145972204Y-61518812D02*
X145972204Y-61445080D01*
X145972204Y-61445080D02*
X145996781Y-61346770D01*
X145996781Y-61346770D02*
X146021359Y-61297615D01*
X146021359Y-61297615D02*
X146070514Y-61248460D01*
X146070514Y-61248460D02*
X146144246Y-61223882D01*
X146144246Y-61223882D02*
X146193401Y-61223882D01*
X146193401Y-61223882D02*
X146267134Y-61248460D01*
X146267134Y-61248460D02*
X146291711Y-61273037D01*
X146463754Y-61223882D02*
X146783262Y-61223882D01*
X146783262Y-61223882D02*
X146611219Y-61420502D01*
X146611219Y-61420502D02*
X146684952Y-61420502D01*
X146684952Y-61420502D02*
X146734107Y-61445080D01*
X146734107Y-61445080D02*
X146758684Y-61469657D01*
X146758684Y-61469657D02*
X146783262Y-61518812D01*
X146783262Y-61518812D02*
X146783262Y-61641700D01*
X146783262Y-61641700D02*
X146758684Y-61690855D01*
X146758684Y-61690855D02*
X146734107Y-61715433D01*
X146734107Y-61715433D02*
X146684952Y-61740010D01*
X146684952Y-61740010D02*
X146537487Y-61740010D01*
X146537487Y-61740010D02*
X146488332Y-61715433D01*
X146488332Y-61715433D02*
X146463754Y-61690855D01*
%TO.C,C10*%
X147402911Y-97568355D02*
X147378334Y-97592933D01*
X147378334Y-97592933D02*
X147304601Y-97617510D01*
X147304601Y-97617510D02*
X147255446Y-97617510D01*
X147255446Y-97617510D02*
X147181714Y-97592933D01*
X147181714Y-97592933D02*
X147132559Y-97543777D01*
X147132559Y-97543777D02*
X147107981Y-97494622D01*
X147107981Y-97494622D02*
X147083404Y-97396312D01*
X147083404Y-97396312D02*
X147083404Y-97322580D01*
X147083404Y-97322580D02*
X147107981Y-97224270D01*
X147107981Y-97224270D02*
X147132559Y-97175115D01*
X147132559Y-97175115D02*
X147181714Y-97125960D01*
X147181714Y-97125960D02*
X147255446Y-97101382D01*
X147255446Y-97101382D02*
X147304601Y-97101382D01*
X147304601Y-97101382D02*
X147378334Y-97125960D01*
X147378334Y-97125960D02*
X147402911Y-97150537D01*
X147894462Y-97617510D02*
X147599532Y-97617510D01*
X147746997Y-97617510D02*
X147746997Y-97101382D01*
X147746997Y-97101382D02*
X147697842Y-97175115D01*
X147697842Y-97175115D02*
X147648687Y-97224270D01*
X147648687Y-97224270D02*
X147599532Y-97248847D01*
X148213969Y-97101382D02*
X148263124Y-97101382D01*
X148263124Y-97101382D02*
X148312279Y-97125960D01*
X148312279Y-97125960D02*
X148336857Y-97150537D01*
X148336857Y-97150537D02*
X148361434Y-97199692D01*
X148361434Y-97199692D02*
X148386012Y-97298002D01*
X148386012Y-97298002D02*
X148386012Y-97420890D01*
X148386012Y-97420890D02*
X148361434Y-97519200D01*
X148361434Y-97519200D02*
X148336857Y-97568355D01*
X148336857Y-97568355D02*
X148312279Y-97592933D01*
X148312279Y-97592933D02*
X148263124Y-97617510D01*
X148263124Y-97617510D02*
X148213969Y-97617510D01*
X148213969Y-97617510D02*
X148164814Y-97592933D01*
X148164814Y-97592933D02*
X148140237Y-97568355D01*
X148140237Y-97568355D02*
X148115659Y-97519200D01*
X148115659Y-97519200D02*
X148091082Y-97420890D01*
X148091082Y-97420890D02*
X148091082Y-97298002D01*
X148091082Y-97298002D02*
X148115659Y-97199692D01*
X148115659Y-97199692D02*
X148140237Y-97150537D01*
X148140237Y-97150537D02*
X148164814Y-97125960D01*
X148164814Y-97125960D02*
X148213969Y-97101382D01*
D16*
%TO.C,LED3*%
X137017295Y-85696974D02*
X137017295Y-86029593D01*
X137017295Y-86029593D02*
X136318795Y-86029593D01*
X136651414Y-85464141D02*
X136651414Y-85231308D01*
X137017295Y-85131522D02*
X137017295Y-85464141D01*
X137017295Y-85464141D02*
X136318795Y-85464141D01*
X136318795Y-85464141D02*
X136318795Y-85131522D01*
X137017295Y-84832165D02*
X136318795Y-84832165D01*
X136318795Y-84832165D02*
X136318795Y-84665855D01*
X136318795Y-84665855D02*
X136352057Y-84566070D01*
X136352057Y-84566070D02*
X136418581Y-84499546D01*
X136418581Y-84499546D02*
X136485105Y-84466284D01*
X136485105Y-84466284D02*
X136618153Y-84433022D01*
X136618153Y-84433022D02*
X136717938Y-84433022D01*
X136717938Y-84433022D02*
X136850986Y-84466284D01*
X136850986Y-84466284D02*
X136917510Y-84499546D01*
X136917510Y-84499546D02*
X136984034Y-84566070D01*
X136984034Y-84566070D02*
X137017295Y-84665855D01*
X137017295Y-84665855D02*
X137017295Y-84832165D01*
X136318795Y-84200189D02*
X136318795Y-83767784D01*
X136318795Y-83767784D02*
X136584891Y-84000617D01*
X136584891Y-84000617D02*
X136584891Y-83900832D01*
X136584891Y-83900832D02*
X136618153Y-83834308D01*
X136618153Y-83834308D02*
X136651414Y-83801046D01*
X136651414Y-83801046D02*
X136717938Y-83767784D01*
X136717938Y-83767784D02*
X136884248Y-83767784D01*
X136884248Y-83767784D02*
X136950772Y-83801046D01*
X136950772Y-83801046D02*
X136984034Y-83834308D01*
X136984034Y-83834308D02*
X137017295Y-83900832D01*
X137017295Y-83900832D02*
X137017295Y-84100403D01*
X137017295Y-84100403D02*
X136984034Y-84166927D01*
X136984034Y-84166927D02*
X136950772Y-84200189D01*
D17*
%TO.C,SW3*%
X158766667Y-120007200D02*
X158909524Y-120054819D01*
X158909524Y-120054819D02*
X159147619Y-120054819D01*
X159147619Y-120054819D02*
X159242857Y-120007200D01*
X159242857Y-120007200D02*
X159290476Y-119959580D01*
X159290476Y-119959580D02*
X159338095Y-119864342D01*
X159338095Y-119864342D02*
X159338095Y-119769104D01*
X159338095Y-119769104D02*
X159290476Y-119673866D01*
X159290476Y-119673866D02*
X159242857Y-119626247D01*
X159242857Y-119626247D02*
X159147619Y-119578628D01*
X159147619Y-119578628D02*
X158957143Y-119531009D01*
X158957143Y-119531009D02*
X158861905Y-119483390D01*
X158861905Y-119483390D02*
X158814286Y-119435771D01*
X158814286Y-119435771D02*
X158766667Y-119340533D01*
X158766667Y-119340533D02*
X158766667Y-119245295D01*
X158766667Y-119245295D02*
X158814286Y-119150057D01*
X158814286Y-119150057D02*
X158861905Y-119102438D01*
X158861905Y-119102438D02*
X158957143Y-119054819D01*
X158957143Y-119054819D02*
X159195238Y-119054819D01*
X159195238Y-119054819D02*
X159338095Y-119102438D01*
X159671429Y-119054819D02*
X159909524Y-120054819D01*
X159909524Y-120054819D02*
X160100000Y-119340533D01*
X160100000Y-119340533D02*
X160290476Y-120054819D01*
X160290476Y-120054819D02*
X160528572Y-119054819D01*
X160814286Y-119054819D02*
X161433333Y-119054819D01*
X161433333Y-119054819D02*
X161100000Y-119435771D01*
X161100000Y-119435771D02*
X161242857Y-119435771D01*
X161242857Y-119435771D02*
X161338095Y-119483390D01*
X161338095Y-119483390D02*
X161385714Y-119531009D01*
X161385714Y-119531009D02*
X161433333Y-119626247D01*
X161433333Y-119626247D02*
X161433333Y-119864342D01*
X161433333Y-119864342D02*
X161385714Y-119959580D01*
X161385714Y-119959580D02*
X161338095Y-120007200D01*
X161338095Y-120007200D02*
X161242857Y-120054819D01*
X161242857Y-120054819D02*
X160957143Y-120054819D01*
X160957143Y-120054819D02*
X160861905Y-120007200D01*
X160861905Y-120007200D02*
X160814286Y-119959580D01*
%TO.C,SW5*%
X158466667Y-123007200D02*
X158609524Y-123054819D01*
X158609524Y-123054819D02*
X158847619Y-123054819D01*
X158847619Y-123054819D02*
X158942857Y-123007200D01*
X158942857Y-123007200D02*
X158990476Y-122959580D01*
X158990476Y-122959580D02*
X159038095Y-122864342D01*
X159038095Y-122864342D02*
X159038095Y-122769104D01*
X159038095Y-122769104D02*
X158990476Y-122673866D01*
X158990476Y-122673866D02*
X158942857Y-122626247D01*
X158942857Y-122626247D02*
X158847619Y-122578628D01*
X158847619Y-122578628D02*
X158657143Y-122531009D01*
X158657143Y-122531009D02*
X158561905Y-122483390D01*
X158561905Y-122483390D02*
X158514286Y-122435771D01*
X158514286Y-122435771D02*
X158466667Y-122340533D01*
X158466667Y-122340533D02*
X158466667Y-122245295D01*
X158466667Y-122245295D02*
X158514286Y-122150057D01*
X158514286Y-122150057D02*
X158561905Y-122102438D01*
X158561905Y-122102438D02*
X158657143Y-122054819D01*
X158657143Y-122054819D02*
X158895238Y-122054819D01*
X158895238Y-122054819D02*
X159038095Y-122102438D01*
X159371429Y-122054819D02*
X159609524Y-123054819D01*
X159609524Y-123054819D02*
X159800000Y-122340533D01*
X159800000Y-122340533D02*
X159990476Y-123054819D01*
X159990476Y-123054819D02*
X160228572Y-122054819D01*
X161085714Y-122054819D02*
X160609524Y-122054819D01*
X160609524Y-122054819D02*
X160561905Y-122531009D01*
X160561905Y-122531009D02*
X160609524Y-122483390D01*
X160609524Y-122483390D02*
X160704762Y-122435771D01*
X160704762Y-122435771D02*
X160942857Y-122435771D01*
X160942857Y-122435771D02*
X161038095Y-122483390D01*
X161038095Y-122483390D02*
X161085714Y-122531009D01*
X161085714Y-122531009D02*
X161133333Y-122626247D01*
X161133333Y-122626247D02*
X161133333Y-122864342D01*
X161133333Y-122864342D02*
X161085714Y-122959580D01*
X161085714Y-122959580D02*
X161038095Y-123007200D01*
X161038095Y-123007200D02*
X160942857Y-123054819D01*
X160942857Y-123054819D02*
X160704762Y-123054819D01*
X160704762Y-123054819D02*
X160609524Y-123007200D01*
X160609524Y-123007200D02*
X160561905Y-122959580D01*
D13*
%TO.C,J2*%
X138656370Y-146356496D02*
X138656370Y-147196873D01*
X138656370Y-147196873D02*
X138600345Y-147364948D01*
X138600345Y-147364948D02*
X138488295Y-147476999D01*
X138488295Y-147476999D02*
X138320219Y-147533024D01*
X138320219Y-147533024D02*
X138208169Y-147533024D01*
X139160596Y-146468546D02*
X139216621Y-146412521D01*
X139216621Y-146412521D02*
X139328672Y-146356496D01*
X139328672Y-146356496D02*
X139608797Y-146356496D01*
X139608797Y-146356496D02*
X139720848Y-146412521D01*
X139720848Y-146412521D02*
X139776873Y-146468546D01*
X139776873Y-146468546D02*
X139832898Y-146580596D01*
X139832898Y-146580596D02*
X139832898Y-146692647D01*
X139832898Y-146692647D02*
X139776873Y-146860722D01*
X139776873Y-146860722D02*
X139104571Y-147533024D01*
X139104571Y-147533024D02*
X139832898Y-147533024D01*
%TO.C,R7*%
X131600010Y-92954954D02*
X131354235Y-93126996D01*
X131600010Y-93249884D02*
X131083882Y-93249884D01*
X131083882Y-93249884D02*
X131083882Y-93053264D01*
X131083882Y-93053264D02*
X131108460Y-93004109D01*
X131108460Y-93004109D02*
X131133037Y-92979531D01*
X131133037Y-92979531D02*
X131182192Y-92954954D01*
X131182192Y-92954954D02*
X131255925Y-92954954D01*
X131255925Y-92954954D02*
X131305080Y-92979531D01*
X131305080Y-92979531D02*
X131329657Y-93004109D01*
X131329657Y-93004109D02*
X131354235Y-93053264D01*
X131354235Y-93053264D02*
X131354235Y-93249884D01*
X131083882Y-92782911D02*
X131083882Y-92438826D01*
X131083882Y-92438826D02*
X131600010Y-92660023D01*
%TO.C,C24*%
X146132911Y-144875855D02*
X146108334Y-144900433D01*
X146108334Y-144900433D02*
X146034601Y-144925010D01*
X146034601Y-144925010D02*
X145985446Y-144925010D01*
X145985446Y-144925010D02*
X145911714Y-144900433D01*
X145911714Y-144900433D02*
X145862559Y-144851277D01*
X145862559Y-144851277D02*
X145837981Y-144802122D01*
X145837981Y-144802122D02*
X145813404Y-144703812D01*
X145813404Y-144703812D02*
X145813404Y-144630080D01*
X145813404Y-144630080D02*
X145837981Y-144531770D01*
X145837981Y-144531770D02*
X145862559Y-144482615D01*
X145862559Y-144482615D02*
X145911714Y-144433460D01*
X145911714Y-144433460D02*
X145985446Y-144408882D01*
X145985446Y-144408882D02*
X146034601Y-144408882D01*
X146034601Y-144408882D02*
X146108334Y-144433460D01*
X146108334Y-144433460D02*
X146132911Y-144458037D01*
X146329532Y-144458037D02*
X146354109Y-144433460D01*
X146354109Y-144433460D02*
X146403264Y-144408882D01*
X146403264Y-144408882D02*
X146526152Y-144408882D01*
X146526152Y-144408882D02*
X146575307Y-144433460D01*
X146575307Y-144433460D02*
X146599884Y-144458037D01*
X146599884Y-144458037D02*
X146624462Y-144507192D01*
X146624462Y-144507192D02*
X146624462Y-144556347D01*
X146624462Y-144556347D02*
X146599884Y-144630080D01*
X146599884Y-144630080D02*
X146304954Y-144925010D01*
X146304954Y-144925010D02*
X146624462Y-144925010D01*
X147066857Y-144580925D02*
X147066857Y-144925010D01*
X146943969Y-144384305D02*
X146821082Y-144752967D01*
X146821082Y-144752967D02*
X147140589Y-144752967D01*
%TO.C,C8*%
X148060855Y-84204288D02*
X148085433Y-84228865D01*
X148085433Y-84228865D02*
X148110010Y-84302598D01*
X148110010Y-84302598D02*
X148110010Y-84351753D01*
X148110010Y-84351753D02*
X148085433Y-84425485D01*
X148085433Y-84425485D02*
X148036277Y-84474640D01*
X148036277Y-84474640D02*
X147987122Y-84499218D01*
X147987122Y-84499218D02*
X147888812Y-84523795D01*
X147888812Y-84523795D02*
X147815080Y-84523795D01*
X147815080Y-84523795D02*
X147716770Y-84499218D01*
X147716770Y-84499218D02*
X147667615Y-84474640D01*
X147667615Y-84474640D02*
X147618460Y-84425485D01*
X147618460Y-84425485D02*
X147593882Y-84351753D01*
X147593882Y-84351753D02*
X147593882Y-84302598D01*
X147593882Y-84302598D02*
X147618460Y-84228865D01*
X147618460Y-84228865D02*
X147643037Y-84204288D01*
X147815080Y-83909357D02*
X147790502Y-83958512D01*
X147790502Y-83958512D02*
X147765925Y-83983090D01*
X147765925Y-83983090D02*
X147716770Y-84007667D01*
X147716770Y-84007667D02*
X147692192Y-84007667D01*
X147692192Y-84007667D02*
X147643037Y-83983090D01*
X147643037Y-83983090D02*
X147618460Y-83958512D01*
X147618460Y-83958512D02*
X147593882Y-83909357D01*
X147593882Y-83909357D02*
X147593882Y-83811047D01*
X147593882Y-83811047D02*
X147618460Y-83761892D01*
X147618460Y-83761892D02*
X147643037Y-83737315D01*
X147643037Y-83737315D02*
X147692192Y-83712737D01*
X147692192Y-83712737D02*
X147716770Y-83712737D01*
X147716770Y-83712737D02*
X147765925Y-83737315D01*
X147765925Y-83737315D02*
X147790502Y-83761892D01*
X147790502Y-83761892D02*
X147815080Y-83811047D01*
X147815080Y-83811047D02*
X147815080Y-83909357D01*
X147815080Y-83909357D02*
X147839657Y-83958512D01*
X147839657Y-83958512D02*
X147864235Y-83983090D01*
X147864235Y-83983090D02*
X147913390Y-84007667D01*
X147913390Y-84007667D02*
X148011700Y-84007667D01*
X148011700Y-84007667D02*
X148060855Y-83983090D01*
X148060855Y-83983090D02*
X148085433Y-83958512D01*
X148085433Y-83958512D02*
X148110010Y-83909357D01*
X148110010Y-83909357D02*
X148110010Y-83811047D01*
X148110010Y-83811047D02*
X148085433Y-83761892D01*
X148085433Y-83761892D02*
X148060855Y-83737315D01*
X148060855Y-83737315D02*
X148011700Y-83712737D01*
X148011700Y-83712737D02*
X147913390Y-83712737D01*
X147913390Y-83712737D02*
X147864235Y-83737315D01*
X147864235Y-83737315D02*
X147839657Y-83761892D01*
X147839657Y-83761892D02*
X147815080Y-83811047D01*
D16*
%TO.C,LED2*%
X137017295Y-80299474D02*
X137017295Y-80632093D01*
X137017295Y-80632093D02*
X136318795Y-80632093D01*
X136651414Y-80066641D02*
X136651414Y-79833808D01*
X137017295Y-79734022D02*
X137017295Y-80066641D01*
X137017295Y-80066641D02*
X136318795Y-80066641D01*
X136318795Y-80066641D02*
X136318795Y-79734022D01*
X137017295Y-79434665D02*
X136318795Y-79434665D01*
X136318795Y-79434665D02*
X136318795Y-79268355D01*
X136318795Y-79268355D02*
X136352057Y-79168570D01*
X136352057Y-79168570D02*
X136418581Y-79102046D01*
X136418581Y-79102046D02*
X136485105Y-79068784D01*
X136485105Y-79068784D02*
X136618153Y-79035522D01*
X136618153Y-79035522D02*
X136717938Y-79035522D01*
X136717938Y-79035522D02*
X136850986Y-79068784D01*
X136850986Y-79068784D02*
X136917510Y-79102046D01*
X136917510Y-79102046D02*
X136984034Y-79168570D01*
X136984034Y-79168570D02*
X137017295Y-79268355D01*
X137017295Y-79268355D02*
X137017295Y-79434665D01*
X136385319Y-78769427D02*
X136352057Y-78736165D01*
X136352057Y-78736165D02*
X136318795Y-78669641D01*
X136318795Y-78669641D02*
X136318795Y-78503332D01*
X136318795Y-78503332D02*
X136352057Y-78436808D01*
X136352057Y-78436808D02*
X136385319Y-78403546D01*
X136385319Y-78403546D02*
X136451843Y-78370284D01*
X136451843Y-78370284D02*
X136518367Y-78370284D01*
X136518367Y-78370284D02*
X136618153Y-78403546D01*
X136618153Y-78403546D02*
X137017295Y-78802689D01*
X137017295Y-78802689D02*
X137017295Y-78370284D01*
D18*
%TO.C,C2*%
X144652742Y-59658347D02*
X144617598Y-59693491D01*
X144617598Y-59693491D02*
X144512166Y-59728634D01*
X144512166Y-59728634D02*
X144441878Y-59728634D01*
X144441878Y-59728634D02*
X144336447Y-59693491D01*
X144336447Y-59693491D02*
X144266159Y-59623203D01*
X144266159Y-59623203D02*
X144231015Y-59552915D01*
X144231015Y-59552915D02*
X144195871Y-59412339D01*
X144195871Y-59412339D02*
X144195871Y-59306908D01*
X144195871Y-59306908D02*
X144231015Y-59166332D01*
X144231015Y-59166332D02*
X144266159Y-59096044D01*
X144266159Y-59096044D02*
X144336447Y-59025756D01*
X144336447Y-59025756D02*
X144441878Y-58990612D01*
X144441878Y-58990612D02*
X144512166Y-58990612D01*
X144512166Y-58990612D02*
X144617598Y-59025756D01*
X144617598Y-59025756D02*
X144652742Y-59060900D01*
X144933893Y-59060900D02*
X144969037Y-59025756D01*
X144969037Y-59025756D02*
X145039325Y-58990612D01*
X145039325Y-58990612D02*
X145215044Y-58990612D01*
X145215044Y-58990612D02*
X145285332Y-59025756D01*
X145285332Y-59025756D02*
X145320476Y-59060900D01*
X145320476Y-59060900D02*
X145355620Y-59131188D01*
X145355620Y-59131188D02*
X145355620Y-59201476D01*
X145355620Y-59201476D02*
X145320476Y-59306908D01*
X145320476Y-59306908D02*
X144898749Y-59728634D01*
X144898749Y-59728634D02*
X145355620Y-59728634D01*
D13*
%TO.C,R19*%
X147475010Y-129006504D02*
X147229235Y-129178546D01*
X147475010Y-129301434D02*
X146958882Y-129301434D01*
X146958882Y-129301434D02*
X146958882Y-129104814D01*
X146958882Y-129104814D02*
X146983460Y-129055659D01*
X146983460Y-129055659D02*
X147008037Y-129031081D01*
X147008037Y-129031081D02*
X147057192Y-129006504D01*
X147057192Y-129006504D02*
X147130925Y-129006504D01*
X147130925Y-129006504D02*
X147180080Y-129031081D01*
X147180080Y-129031081D02*
X147204657Y-129055659D01*
X147204657Y-129055659D02*
X147229235Y-129104814D01*
X147229235Y-129104814D02*
X147229235Y-129301434D01*
X147475010Y-128514953D02*
X147475010Y-128809883D01*
X147475010Y-128662418D02*
X146958882Y-128662418D01*
X146958882Y-128662418D02*
X147032615Y-128711573D01*
X147032615Y-128711573D02*
X147081770Y-128760728D01*
X147081770Y-128760728D02*
X147106347Y-128809883D01*
X147475010Y-128269178D02*
X147475010Y-128170868D01*
X147475010Y-128170868D02*
X147450433Y-128121713D01*
X147450433Y-128121713D02*
X147425855Y-128097136D01*
X147425855Y-128097136D02*
X147352122Y-128047981D01*
X147352122Y-128047981D02*
X147253812Y-128023403D01*
X147253812Y-128023403D02*
X147057192Y-128023403D01*
X147057192Y-128023403D02*
X147008037Y-128047981D01*
X147008037Y-128047981D02*
X146983460Y-128072558D01*
X146983460Y-128072558D02*
X146958882Y-128121713D01*
X146958882Y-128121713D02*
X146958882Y-128220023D01*
X146958882Y-128220023D02*
X146983460Y-128269178D01*
X146983460Y-128269178D02*
X147008037Y-128293756D01*
X147008037Y-128293756D02*
X147057192Y-128318333D01*
X147057192Y-128318333D02*
X147180080Y-128318333D01*
X147180080Y-128318333D02*
X147229235Y-128293756D01*
X147229235Y-128293756D02*
X147253812Y-128269178D01*
X147253812Y-128269178D02*
X147278390Y-128220023D01*
X147278390Y-128220023D02*
X147278390Y-128121713D01*
X147278390Y-128121713D02*
X147253812Y-128072558D01*
X147253812Y-128072558D02*
X147229235Y-128047981D01*
X147229235Y-128047981D02*
X147180080Y-128023403D01*
%TO.C,C23*%
X140065695Y-142653355D02*
X140041118Y-142677933D01*
X140041118Y-142677933D02*
X139967385Y-142702510D01*
X139967385Y-142702510D02*
X139918230Y-142702510D01*
X139918230Y-142702510D02*
X139844498Y-142677933D01*
X139844498Y-142677933D02*
X139795343Y-142628777D01*
X139795343Y-142628777D02*
X139770765Y-142579622D01*
X139770765Y-142579622D02*
X139746188Y-142481312D01*
X139746188Y-142481312D02*
X139746188Y-142407580D01*
X139746188Y-142407580D02*
X139770765Y-142309270D01*
X139770765Y-142309270D02*
X139795343Y-142260115D01*
X139795343Y-142260115D02*
X139844498Y-142210960D01*
X139844498Y-142210960D02*
X139918230Y-142186382D01*
X139918230Y-142186382D02*
X139967385Y-142186382D01*
X139967385Y-142186382D02*
X140041118Y-142210960D01*
X140041118Y-142210960D02*
X140065695Y-142235537D01*
X140262316Y-142235537D02*
X140286893Y-142210960D01*
X140286893Y-142210960D02*
X140336048Y-142186382D01*
X140336048Y-142186382D02*
X140458936Y-142186382D01*
X140458936Y-142186382D02*
X140508091Y-142210960D01*
X140508091Y-142210960D02*
X140532668Y-142235537D01*
X140532668Y-142235537D02*
X140557246Y-142284692D01*
X140557246Y-142284692D02*
X140557246Y-142333847D01*
X140557246Y-142333847D02*
X140532668Y-142407580D01*
X140532668Y-142407580D02*
X140237738Y-142702510D01*
X140237738Y-142702510D02*
X140557246Y-142702510D01*
X140729288Y-142186382D02*
X141048796Y-142186382D01*
X141048796Y-142186382D02*
X140876753Y-142383002D01*
X140876753Y-142383002D02*
X140950486Y-142383002D01*
X140950486Y-142383002D02*
X140999641Y-142407580D01*
X140999641Y-142407580D02*
X141024218Y-142432157D01*
X141024218Y-142432157D02*
X141048796Y-142481312D01*
X141048796Y-142481312D02*
X141048796Y-142604200D01*
X141048796Y-142604200D02*
X141024218Y-142653355D01*
X141024218Y-142653355D02*
X140999641Y-142677933D01*
X140999641Y-142677933D02*
X140950486Y-142702510D01*
X140950486Y-142702510D02*
X140803021Y-142702510D01*
X140803021Y-142702510D02*
X140753866Y-142677933D01*
X140753866Y-142677933D02*
X140729288Y-142653355D01*
%TO.C,C19*%
X144568355Y-134686788D02*
X144592933Y-134711365D01*
X144592933Y-134711365D02*
X144617510Y-134785098D01*
X144617510Y-134785098D02*
X144617510Y-134834253D01*
X144617510Y-134834253D02*
X144592933Y-134907985D01*
X144592933Y-134907985D02*
X144543777Y-134957140D01*
X144543777Y-134957140D02*
X144494622Y-134981718D01*
X144494622Y-134981718D02*
X144396312Y-135006295D01*
X144396312Y-135006295D02*
X144322580Y-135006295D01*
X144322580Y-135006295D02*
X144224270Y-134981718D01*
X144224270Y-134981718D02*
X144175115Y-134957140D01*
X144175115Y-134957140D02*
X144125960Y-134907985D01*
X144125960Y-134907985D02*
X144101382Y-134834253D01*
X144101382Y-134834253D02*
X144101382Y-134785098D01*
X144101382Y-134785098D02*
X144125960Y-134711365D01*
X144125960Y-134711365D02*
X144150537Y-134686788D01*
X144617510Y-134195237D02*
X144617510Y-134490167D01*
X144617510Y-134342702D02*
X144101382Y-134342702D01*
X144101382Y-134342702D02*
X144175115Y-134391857D01*
X144175115Y-134391857D02*
X144224270Y-134441012D01*
X144224270Y-134441012D02*
X144248847Y-134490167D01*
X144617510Y-133949462D02*
X144617510Y-133851152D01*
X144617510Y-133851152D02*
X144592933Y-133801997D01*
X144592933Y-133801997D02*
X144568355Y-133777420D01*
X144568355Y-133777420D02*
X144494622Y-133728265D01*
X144494622Y-133728265D02*
X144396312Y-133703687D01*
X144396312Y-133703687D02*
X144199692Y-133703687D01*
X144199692Y-133703687D02*
X144150537Y-133728265D01*
X144150537Y-133728265D02*
X144125960Y-133752842D01*
X144125960Y-133752842D02*
X144101382Y-133801997D01*
X144101382Y-133801997D02*
X144101382Y-133900307D01*
X144101382Y-133900307D02*
X144125960Y-133949462D01*
X144125960Y-133949462D02*
X144150537Y-133974040D01*
X144150537Y-133974040D02*
X144199692Y-133998617D01*
X144199692Y-133998617D02*
X144322580Y-133998617D01*
X144322580Y-133998617D02*
X144371735Y-133974040D01*
X144371735Y-133974040D02*
X144396312Y-133949462D01*
X144396312Y-133949462D02*
X144420890Y-133900307D01*
X144420890Y-133900307D02*
X144420890Y-133801997D01*
X144420890Y-133801997D02*
X144396312Y-133752842D01*
X144396312Y-133752842D02*
X144371735Y-133728265D01*
X144371735Y-133728265D02*
X144322580Y-133703687D01*
%TO.C,R15*%
X130647510Y-116055688D02*
X130401735Y-116227730D01*
X130647510Y-116350618D02*
X130131382Y-116350618D01*
X130131382Y-116350618D02*
X130131382Y-116153998D01*
X130131382Y-116153998D02*
X130155960Y-116104843D01*
X130155960Y-116104843D02*
X130180537Y-116080265D01*
X130180537Y-116080265D02*
X130229692Y-116055688D01*
X130229692Y-116055688D02*
X130303425Y-116055688D01*
X130303425Y-116055688D02*
X130352580Y-116080265D01*
X130352580Y-116080265D02*
X130377157Y-116104843D01*
X130377157Y-116104843D02*
X130401735Y-116153998D01*
X130401735Y-116153998D02*
X130401735Y-116350618D01*
X130647510Y-115564137D02*
X130647510Y-115859067D01*
X130647510Y-115711602D02*
X130131382Y-115711602D01*
X130131382Y-115711602D02*
X130205115Y-115760757D01*
X130205115Y-115760757D02*
X130254270Y-115809912D01*
X130254270Y-115809912D02*
X130278847Y-115859067D01*
X130131382Y-115097165D02*
X130131382Y-115342940D01*
X130131382Y-115342940D02*
X130377157Y-115367517D01*
X130377157Y-115367517D02*
X130352580Y-115342940D01*
X130352580Y-115342940D02*
X130328002Y-115293785D01*
X130328002Y-115293785D02*
X130328002Y-115170897D01*
X130328002Y-115170897D02*
X130352580Y-115121742D01*
X130352580Y-115121742D02*
X130377157Y-115097165D01*
X130377157Y-115097165D02*
X130426312Y-115072587D01*
X130426312Y-115072587D02*
X130549200Y-115072587D01*
X130549200Y-115072587D02*
X130598355Y-115097165D01*
X130598355Y-115097165D02*
X130622933Y-115121742D01*
X130622933Y-115121742D02*
X130647510Y-115170897D01*
X130647510Y-115170897D02*
X130647510Y-115293785D01*
X130647510Y-115293785D02*
X130622933Y-115342940D01*
X130622933Y-115342940D02*
X130598355Y-115367517D01*
D16*
%TO.C,LED1*%
X137017295Y-67599474D02*
X137017295Y-67932093D01*
X137017295Y-67932093D02*
X136318795Y-67932093D01*
X136651414Y-67366641D02*
X136651414Y-67133808D01*
X137017295Y-67034022D02*
X137017295Y-67366641D01*
X137017295Y-67366641D02*
X136318795Y-67366641D01*
X136318795Y-67366641D02*
X136318795Y-67034022D01*
X137017295Y-66734665D02*
X136318795Y-66734665D01*
X136318795Y-66734665D02*
X136318795Y-66568355D01*
X136318795Y-66568355D02*
X136352057Y-66468570D01*
X136352057Y-66468570D02*
X136418581Y-66402046D01*
X136418581Y-66402046D02*
X136485105Y-66368784D01*
X136485105Y-66368784D02*
X136618153Y-66335522D01*
X136618153Y-66335522D02*
X136717938Y-66335522D01*
X136717938Y-66335522D02*
X136850986Y-66368784D01*
X136850986Y-66368784D02*
X136917510Y-66402046D01*
X136917510Y-66402046D02*
X136984034Y-66468570D01*
X136984034Y-66468570D02*
X137017295Y-66568355D01*
X137017295Y-66568355D02*
X137017295Y-66734665D01*
X137017295Y-65670284D02*
X137017295Y-66069427D01*
X137017295Y-65869855D02*
X136318795Y-65869855D01*
X136318795Y-65869855D02*
X136418581Y-65936379D01*
X136418581Y-65936379D02*
X136485105Y-66002903D01*
X136485105Y-66002903D02*
X136518367Y-66069427D01*
D19*
%TO.C,SW7*%
X129948023Y-134463601D02*
X130105391Y-134384917D01*
X130105391Y-134384917D02*
X130302102Y-134188206D01*
X130302102Y-134188206D02*
X130341444Y-134070180D01*
X130341444Y-134070180D02*
X130341444Y-133991496D01*
X130341444Y-133991496D02*
X130302102Y-133873470D01*
X130302102Y-133873470D02*
X130223418Y-133794786D01*
X130223418Y-133794786D02*
X130105391Y-133755443D01*
X130105391Y-133755443D02*
X130026707Y-133755443D01*
X130026707Y-133755443D02*
X129908681Y-133794786D01*
X129908681Y-133794786D02*
X129711971Y-133912812D01*
X129711971Y-133912812D02*
X129593944Y-133952154D01*
X129593944Y-133952154D02*
X129515260Y-133952154D01*
X129515260Y-133952154D02*
X129397234Y-133912812D01*
X129397234Y-133912812D02*
X129318550Y-133834128D01*
X129318550Y-133834128D02*
X129279208Y-133716101D01*
X129279208Y-133716101D02*
X129279208Y-133637417D01*
X129279208Y-133637417D02*
X129318550Y-133519391D01*
X129318550Y-133519391D02*
X129515260Y-133322681D01*
X129515260Y-133322681D02*
X129672629Y-133243996D01*
X129908681Y-132929260D02*
X130931575Y-133558733D01*
X130931575Y-133558733D02*
X130498812Y-132811234D01*
X130498812Y-132811234D02*
X131246312Y-133243996D01*
X131246312Y-133243996D02*
X130616838Y-132221102D01*
X130852891Y-131985050D02*
X131403680Y-131434261D01*
X131403680Y-131434261D02*
X131875785Y-132614523D01*
D20*
%TO.C,L1*%
X148308997Y-61765023D02*
X148040077Y-61765023D01*
X148040077Y-61765023D02*
X148040077Y-61200290D01*
X148793054Y-61765023D02*
X148470350Y-61765023D01*
X148631702Y-61765023D02*
X148631702Y-61200290D01*
X148631702Y-61200290D02*
X148577918Y-61280966D01*
X148577918Y-61280966D02*
X148524134Y-61334750D01*
X148524134Y-61334750D02*
X148470350Y-61361642D01*
D13*
%TO.C,C7*%
X149307911Y-82328355D02*
X149283334Y-82352933D01*
X149283334Y-82352933D02*
X149209601Y-82377510D01*
X149209601Y-82377510D02*
X149160446Y-82377510D01*
X149160446Y-82377510D02*
X149086714Y-82352933D01*
X149086714Y-82352933D02*
X149037559Y-82303777D01*
X149037559Y-82303777D02*
X149012981Y-82254622D01*
X149012981Y-82254622D02*
X148988404Y-82156312D01*
X148988404Y-82156312D02*
X148988404Y-82082580D01*
X148988404Y-82082580D02*
X149012981Y-81984270D01*
X149012981Y-81984270D02*
X149037559Y-81935115D01*
X149037559Y-81935115D02*
X149086714Y-81885960D01*
X149086714Y-81885960D02*
X149160446Y-81861382D01*
X149160446Y-81861382D02*
X149209601Y-81861382D01*
X149209601Y-81861382D02*
X149283334Y-81885960D01*
X149283334Y-81885960D02*
X149307911Y-81910537D01*
X149479954Y-81861382D02*
X149824039Y-81861382D01*
X149824039Y-81861382D02*
X149602842Y-82377510D01*
%TO.C,C22*%
X158197911Y-144240855D02*
X158173334Y-144265433D01*
X158173334Y-144265433D02*
X158099601Y-144290010D01*
X158099601Y-144290010D02*
X158050446Y-144290010D01*
X158050446Y-144290010D02*
X157976714Y-144265433D01*
X157976714Y-144265433D02*
X157927559Y-144216277D01*
X157927559Y-144216277D02*
X157902981Y-144167122D01*
X157902981Y-144167122D02*
X157878404Y-144068812D01*
X157878404Y-144068812D02*
X157878404Y-143995080D01*
X157878404Y-143995080D02*
X157902981Y-143896770D01*
X157902981Y-143896770D02*
X157927559Y-143847615D01*
X157927559Y-143847615D02*
X157976714Y-143798460D01*
X157976714Y-143798460D02*
X158050446Y-143773882D01*
X158050446Y-143773882D02*
X158099601Y-143773882D01*
X158099601Y-143773882D02*
X158173334Y-143798460D01*
X158173334Y-143798460D02*
X158197911Y-143823037D01*
X158394532Y-143823037D02*
X158419109Y-143798460D01*
X158419109Y-143798460D02*
X158468264Y-143773882D01*
X158468264Y-143773882D02*
X158591152Y-143773882D01*
X158591152Y-143773882D02*
X158640307Y-143798460D01*
X158640307Y-143798460D02*
X158664884Y-143823037D01*
X158664884Y-143823037D02*
X158689462Y-143872192D01*
X158689462Y-143872192D02*
X158689462Y-143921347D01*
X158689462Y-143921347D02*
X158664884Y-143995080D01*
X158664884Y-143995080D02*
X158369954Y-144290010D01*
X158369954Y-144290010D02*
X158689462Y-144290010D01*
X158886082Y-143823037D02*
X158910659Y-143798460D01*
X158910659Y-143798460D02*
X158959814Y-143773882D01*
X158959814Y-143773882D02*
X159082702Y-143773882D01*
X159082702Y-143773882D02*
X159131857Y-143798460D01*
X159131857Y-143798460D02*
X159156434Y-143823037D01*
X159156434Y-143823037D02*
X159181012Y-143872192D01*
X159181012Y-143872192D02*
X159181012Y-143921347D01*
X159181012Y-143921347D02*
X159156434Y-143995080D01*
X159156434Y-143995080D02*
X158861504Y-144290010D01*
X158861504Y-144290010D02*
X159181012Y-144290010D01*
D18*
%TO.C,C1*%
X162175242Y-62725847D02*
X162140098Y-62760991D01*
X162140098Y-62760991D02*
X162034666Y-62796134D01*
X162034666Y-62796134D02*
X161964378Y-62796134D01*
X161964378Y-62796134D02*
X161858947Y-62760991D01*
X161858947Y-62760991D02*
X161788659Y-62690703D01*
X161788659Y-62690703D02*
X161753515Y-62620415D01*
X161753515Y-62620415D02*
X161718371Y-62479839D01*
X161718371Y-62479839D02*
X161718371Y-62374408D01*
X161718371Y-62374408D02*
X161753515Y-62233832D01*
X161753515Y-62233832D02*
X161788659Y-62163544D01*
X161788659Y-62163544D02*
X161858947Y-62093256D01*
X161858947Y-62093256D02*
X161964378Y-62058112D01*
X161964378Y-62058112D02*
X162034666Y-62058112D01*
X162034666Y-62058112D02*
X162140098Y-62093256D01*
X162140098Y-62093256D02*
X162175242Y-62128400D01*
X162878120Y-62796134D02*
X162456393Y-62796134D01*
X162667257Y-62796134D02*
X162667257Y-62058112D01*
X162667257Y-62058112D02*
X162596969Y-62163544D01*
X162596969Y-62163544D02*
X162526681Y-62233832D01*
X162526681Y-62233832D02*
X162456393Y-62268976D01*
D15*
%TO.C,IC2*%
X153906578Y-98398429D02*
X153906578Y-97557689D01*
X154787353Y-98318358D02*
X154747317Y-98358394D01*
X154747317Y-98358394D02*
X154627212Y-98398429D01*
X154627212Y-98398429D02*
X154547141Y-98398429D01*
X154547141Y-98398429D02*
X154427035Y-98358394D01*
X154427035Y-98358394D02*
X154346965Y-98278323D01*
X154346965Y-98278323D02*
X154306930Y-98198253D01*
X154306930Y-98198253D02*
X154266894Y-98038112D01*
X154266894Y-98038112D02*
X154266894Y-97918006D01*
X154266894Y-97918006D02*
X154306930Y-97757865D01*
X154306930Y-97757865D02*
X154346965Y-97677794D01*
X154346965Y-97677794D02*
X154427035Y-97597724D01*
X154427035Y-97597724D02*
X154547141Y-97557689D01*
X154547141Y-97557689D02*
X154627212Y-97557689D01*
X154627212Y-97557689D02*
X154747317Y-97597724D01*
X154747317Y-97597724D02*
X154787353Y-97637759D01*
X155107634Y-97637759D02*
X155147670Y-97597724D01*
X155147670Y-97597724D02*
X155227740Y-97557689D01*
X155227740Y-97557689D02*
X155427916Y-97557689D01*
X155427916Y-97557689D02*
X155507987Y-97597724D01*
X155507987Y-97597724D02*
X155548022Y-97637759D01*
X155548022Y-97637759D02*
X155588057Y-97717830D01*
X155588057Y-97717830D02*
X155588057Y-97797900D01*
X155588057Y-97797900D02*
X155548022Y-97918006D01*
X155548022Y-97918006D02*
X155067599Y-98398429D01*
X155067599Y-98398429D02*
X155588057Y-98398429D01*
D13*
%TO.C,R31*%
X142640411Y-147465010D02*
X142468369Y-147219235D01*
X142345481Y-147465010D02*
X142345481Y-146948882D01*
X142345481Y-146948882D02*
X142542101Y-146948882D01*
X142542101Y-146948882D02*
X142591256Y-146973460D01*
X142591256Y-146973460D02*
X142615834Y-146998037D01*
X142615834Y-146998037D02*
X142640411Y-147047192D01*
X142640411Y-147047192D02*
X142640411Y-147120925D01*
X142640411Y-147120925D02*
X142615834Y-147170080D01*
X142615834Y-147170080D02*
X142591256Y-147194657D01*
X142591256Y-147194657D02*
X142542101Y-147219235D01*
X142542101Y-147219235D02*
X142345481Y-147219235D01*
X142812454Y-146948882D02*
X143131962Y-146948882D01*
X143131962Y-146948882D02*
X142959919Y-147145502D01*
X142959919Y-147145502D02*
X143033652Y-147145502D01*
X143033652Y-147145502D02*
X143082807Y-147170080D01*
X143082807Y-147170080D02*
X143107384Y-147194657D01*
X143107384Y-147194657D02*
X143131962Y-147243812D01*
X143131962Y-147243812D02*
X143131962Y-147366700D01*
X143131962Y-147366700D02*
X143107384Y-147415855D01*
X143107384Y-147415855D02*
X143082807Y-147440433D01*
X143082807Y-147440433D02*
X143033652Y-147465010D01*
X143033652Y-147465010D02*
X142886187Y-147465010D01*
X142886187Y-147465010D02*
X142837032Y-147440433D01*
X142837032Y-147440433D02*
X142812454Y-147415855D01*
X143623512Y-147465010D02*
X143328582Y-147465010D01*
X143476047Y-147465010D02*
X143476047Y-146948882D01*
X143476047Y-146948882D02*
X143426892Y-147022615D01*
X143426892Y-147022615D02*
X143377737Y-147071770D01*
X143377737Y-147071770D02*
X143328582Y-147096347D01*
%TO.C,D2*%
X158537981Y-53167510D02*
X158537981Y-52651382D01*
X158537981Y-52651382D02*
X158660869Y-52651382D01*
X158660869Y-52651382D02*
X158734601Y-52675960D01*
X158734601Y-52675960D02*
X158783756Y-52725115D01*
X158783756Y-52725115D02*
X158808334Y-52774270D01*
X158808334Y-52774270D02*
X158832911Y-52872580D01*
X158832911Y-52872580D02*
X158832911Y-52946312D01*
X158832911Y-52946312D02*
X158808334Y-53044622D01*
X158808334Y-53044622D02*
X158783756Y-53093777D01*
X158783756Y-53093777D02*
X158734601Y-53142933D01*
X158734601Y-53142933D02*
X158660869Y-53167510D01*
X158660869Y-53167510D02*
X158537981Y-53167510D01*
X159029532Y-52700537D02*
X159054109Y-52675960D01*
X159054109Y-52675960D02*
X159103264Y-52651382D01*
X159103264Y-52651382D02*
X159226152Y-52651382D01*
X159226152Y-52651382D02*
X159275307Y-52675960D01*
X159275307Y-52675960D02*
X159299884Y-52700537D01*
X159299884Y-52700537D02*
X159324462Y-52749692D01*
X159324462Y-52749692D02*
X159324462Y-52798847D01*
X159324462Y-52798847D02*
X159299884Y-52872580D01*
X159299884Y-52872580D02*
X159004954Y-53167510D01*
X159004954Y-53167510D02*
X159324462Y-53167510D01*
%TO.C,R28*%
X137242911Y-146651410D02*
X137070869Y-146405635D01*
X136947981Y-146651410D02*
X136947981Y-146135282D01*
X136947981Y-146135282D02*
X137144601Y-146135282D01*
X137144601Y-146135282D02*
X137193756Y-146159860D01*
X137193756Y-146159860D02*
X137218334Y-146184437D01*
X137218334Y-146184437D02*
X137242911Y-146233592D01*
X137242911Y-146233592D02*
X137242911Y-146307325D01*
X137242911Y-146307325D02*
X137218334Y-146356480D01*
X137218334Y-146356480D02*
X137193756Y-146381057D01*
X137193756Y-146381057D02*
X137144601Y-146405635D01*
X137144601Y-146405635D02*
X136947981Y-146405635D01*
X137439532Y-146184437D02*
X137464109Y-146159860D01*
X137464109Y-146159860D02*
X137513264Y-146135282D01*
X137513264Y-146135282D02*
X137636152Y-146135282D01*
X137636152Y-146135282D02*
X137685307Y-146159860D01*
X137685307Y-146159860D02*
X137709884Y-146184437D01*
X137709884Y-146184437D02*
X137734462Y-146233592D01*
X137734462Y-146233592D02*
X137734462Y-146282747D01*
X137734462Y-146282747D02*
X137709884Y-146356480D01*
X137709884Y-146356480D02*
X137414954Y-146651410D01*
X137414954Y-146651410D02*
X137734462Y-146651410D01*
X138029392Y-146356480D02*
X137980237Y-146331902D01*
X137980237Y-146331902D02*
X137955659Y-146307325D01*
X137955659Y-146307325D02*
X137931082Y-146258170D01*
X137931082Y-146258170D02*
X137931082Y-146233592D01*
X137931082Y-146233592D02*
X137955659Y-146184437D01*
X137955659Y-146184437D02*
X137980237Y-146159860D01*
X137980237Y-146159860D02*
X138029392Y-146135282D01*
X138029392Y-146135282D02*
X138127702Y-146135282D01*
X138127702Y-146135282D02*
X138176857Y-146159860D01*
X138176857Y-146159860D02*
X138201434Y-146184437D01*
X138201434Y-146184437D02*
X138226012Y-146233592D01*
X138226012Y-146233592D02*
X138226012Y-146258170D01*
X138226012Y-146258170D02*
X138201434Y-146307325D01*
X138201434Y-146307325D02*
X138176857Y-146331902D01*
X138176857Y-146331902D02*
X138127702Y-146356480D01*
X138127702Y-146356480D02*
X138029392Y-146356480D01*
X138029392Y-146356480D02*
X137980237Y-146381057D01*
X137980237Y-146381057D02*
X137955659Y-146405635D01*
X137955659Y-146405635D02*
X137931082Y-146454790D01*
X137931082Y-146454790D02*
X137931082Y-146553100D01*
X137931082Y-146553100D02*
X137955659Y-146602255D01*
X137955659Y-146602255D02*
X137980237Y-146626833D01*
X137980237Y-146626833D02*
X138029392Y-146651410D01*
X138029392Y-146651410D02*
X138127702Y-146651410D01*
X138127702Y-146651410D02*
X138176857Y-146626833D01*
X138176857Y-146626833D02*
X138201434Y-146602255D01*
X138201434Y-146602255D02*
X138226012Y-146553100D01*
X138226012Y-146553100D02*
X138226012Y-146454790D01*
X138226012Y-146454790D02*
X138201434Y-146405635D01*
X138201434Y-146405635D02*
X138176857Y-146381057D01*
X138176857Y-146381057D02*
X138127702Y-146356480D01*
%TO.C,C15*%
X151553355Y-114366788D02*
X151577933Y-114391365D01*
X151577933Y-114391365D02*
X151602510Y-114465098D01*
X151602510Y-114465098D02*
X151602510Y-114514253D01*
X151602510Y-114514253D02*
X151577933Y-114587985D01*
X151577933Y-114587985D02*
X151528777Y-114637140D01*
X151528777Y-114637140D02*
X151479622Y-114661718D01*
X151479622Y-114661718D02*
X151381312Y-114686295D01*
X151381312Y-114686295D02*
X151307580Y-114686295D01*
X151307580Y-114686295D02*
X151209270Y-114661718D01*
X151209270Y-114661718D02*
X151160115Y-114637140D01*
X151160115Y-114637140D02*
X151110960Y-114587985D01*
X151110960Y-114587985D02*
X151086382Y-114514253D01*
X151086382Y-114514253D02*
X151086382Y-114465098D01*
X151086382Y-114465098D02*
X151110960Y-114391365D01*
X151110960Y-114391365D02*
X151135537Y-114366788D01*
X151602510Y-113875237D02*
X151602510Y-114170167D01*
X151602510Y-114022702D02*
X151086382Y-114022702D01*
X151086382Y-114022702D02*
X151160115Y-114071857D01*
X151160115Y-114071857D02*
X151209270Y-114121012D01*
X151209270Y-114121012D02*
X151233847Y-114170167D01*
X151086382Y-113408265D02*
X151086382Y-113654040D01*
X151086382Y-113654040D02*
X151332157Y-113678617D01*
X151332157Y-113678617D02*
X151307580Y-113654040D01*
X151307580Y-113654040D02*
X151283002Y-113604885D01*
X151283002Y-113604885D02*
X151283002Y-113481997D01*
X151283002Y-113481997D02*
X151307580Y-113432842D01*
X151307580Y-113432842D02*
X151332157Y-113408265D01*
X151332157Y-113408265D02*
X151381312Y-113383687D01*
X151381312Y-113383687D02*
X151504200Y-113383687D01*
X151504200Y-113383687D02*
X151553355Y-113408265D01*
X151553355Y-113408265D02*
X151577933Y-113432842D01*
X151577933Y-113432842D02*
X151602510Y-113481997D01*
X151602510Y-113481997D02*
X151602510Y-113604885D01*
X151602510Y-113604885D02*
X151577933Y-113654040D01*
X151577933Y-113654040D02*
X151553355Y-113678617D01*
%TO.C,R20*%
X143982510Y-129606788D02*
X143736735Y-129778830D01*
X143982510Y-129901718D02*
X143466382Y-129901718D01*
X143466382Y-129901718D02*
X143466382Y-129705098D01*
X143466382Y-129705098D02*
X143490960Y-129655943D01*
X143490960Y-129655943D02*
X143515537Y-129631365D01*
X143515537Y-129631365D02*
X143564692Y-129606788D01*
X143564692Y-129606788D02*
X143638425Y-129606788D01*
X143638425Y-129606788D02*
X143687580Y-129631365D01*
X143687580Y-129631365D02*
X143712157Y-129655943D01*
X143712157Y-129655943D02*
X143736735Y-129705098D01*
X143736735Y-129705098D02*
X143736735Y-129901718D01*
X143515537Y-129410167D02*
X143490960Y-129385590D01*
X143490960Y-129385590D02*
X143466382Y-129336435D01*
X143466382Y-129336435D02*
X143466382Y-129213547D01*
X143466382Y-129213547D02*
X143490960Y-129164392D01*
X143490960Y-129164392D02*
X143515537Y-129139815D01*
X143515537Y-129139815D02*
X143564692Y-129115237D01*
X143564692Y-129115237D02*
X143613847Y-129115237D01*
X143613847Y-129115237D02*
X143687580Y-129139815D01*
X143687580Y-129139815D02*
X143982510Y-129434745D01*
X143982510Y-129434745D02*
X143982510Y-129115237D01*
X143466382Y-128795730D02*
X143466382Y-128746575D01*
X143466382Y-128746575D02*
X143490960Y-128697420D01*
X143490960Y-128697420D02*
X143515537Y-128672842D01*
X143515537Y-128672842D02*
X143564692Y-128648265D01*
X143564692Y-128648265D02*
X143663002Y-128623687D01*
X143663002Y-128623687D02*
X143785890Y-128623687D01*
X143785890Y-128623687D02*
X143884200Y-128648265D01*
X143884200Y-128648265D02*
X143933355Y-128672842D01*
X143933355Y-128672842D02*
X143957933Y-128697420D01*
X143957933Y-128697420D02*
X143982510Y-128746575D01*
X143982510Y-128746575D02*
X143982510Y-128795730D01*
X143982510Y-128795730D02*
X143957933Y-128844885D01*
X143957933Y-128844885D02*
X143933355Y-128869462D01*
X143933355Y-128869462D02*
X143884200Y-128894040D01*
X143884200Y-128894040D02*
X143785890Y-128918617D01*
X143785890Y-128918617D02*
X143663002Y-128918617D01*
X143663002Y-128918617D02*
X143564692Y-128894040D01*
X143564692Y-128894040D02*
X143515537Y-128869462D01*
X143515537Y-128869462D02*
X143490960Y-128844885D01*
X143490960Y-128844885D02*
X143466382Y-128795730D01*
D16*
%TO.C,SW2*%
X138000034Y-75585355D02*
X138033295Y-75485569D01*
X138033295Y-75485569D02*
X138033295Y-75319260D01*
X138033295Y-75319260D02*
X138000034Y-75252736D01*
X138000034Y-75252736D02*
X137966772Y-75219474D01*
X137966772Y-75219474D02*
X137900248Y-75186212D01*
X137900248Y-75186212D02*
X137833724Y-75186212D01*
X137833724Y-75186212D02*
X137767200Y-75219474D01*
X137767200Y-75219474D02*
X137733938Y-75252736D01*
X137733938Y-75252736D02*
X137700676Y-75319260D01*
X137700676Y-75319260D02*
X137667414Y-75452307D01*
X137667414Y-75452307D02*
X137634153Y-75518831D01*
X137634153Y-75518831D02*
X137600891Y-75552093D01*
X137600891Y-75552093D02*
X137534367Y-75585355D01*
X137534367Y-75585355D02*
X137467843Y-75585355D01*
X137467843Y-75585355D02*
X137401319Y-75552093D01*
X137401319Y-75552093D02*
X137368057Y-75518831D01*
X137368057Y-75518831D02*
X137334795Y-75452307D01*
X137334795Y-75452307D02*
X137334795Y-75285998D01*
X137334795Y-75285998D02*
X137368057Y-75186212D01*
X137334795Y-74953379D02*
X138033295Y-74787069D01*
X138033295Y-74787069D02*
X137534367Y-74654022D01*
X137534367Y-74654022D02*
X138033295Y-74520974D01*
X138033295Y-74520974D02*
X137334795Y-74354665D01*
X137401319Y-74121831D02*
X137368057Y-74088569D01*
X137368057Y-74088569D02*
X137334795Y-74022045D01*
X137334795Y-74022045D02*
X137334795Y-73855736D01*
X137334795Y-73855736D02*
X137368057Y-73789212D01*
X137368057Y-73789212D02*
X137401319Y-73755950D01*
X137401319Y-73755950D02*
X137467843Y-73722688D01*
X137467843Y-73722688D02*
X137534367Y-73722688D01*
X137534367Y-73722688D02*
X137634153Y-73755950D01*
X137634153Y-73755950D02*
X138033295Y-74155093D01*
X138033295Y-74155093D02*
X138033295Y-73722688D01*
D21*
%TO.C,IC1*%
X140515837Y-73825889D02*
X140515837Y-72981339D01*
X141400604Y-73745456D02*
X141360387Y-73785673D01*
X141360387Y-73785673D02*
X141239737Y-73825889D01*
X141239737Y-73825889D02*
X141159304Y-73825889D01*
X141159304Y-73825889D02*
X141038654Y-73785673D01*
X141038654Y-73785673D02*
X140958221Y-73705239D01*
X140958221Y-73705239D02*
X140918004Y-73624806D01*
X140918004Y-73624806D02*
X140877787Y-73463939D01*
X140877787Y-73463939D02*
X140877787Y-73343289D01*
X140877787Y-73343289D02*
X140918004Y-73182423D01*
X140918004Y-73182423D02*
X140958221Y-73101989D01*
X140958221Y-73101989D02*
X141038654Y-73021556D01*
X141038654Y-73021556D02*
X141159304Y-72981339D01*
X141159304Y-72981339D02*
X141239737Y-72981339D01*
X141239737Y-72981339D02*
X141360387Y-73021556D01*
X141360387Y-73021556D02*
X141400604Y-73061773D01*
X142204937Y-73825889D02*
X141722337Y-73825889D01*
X141963637Y-73825889D02*
X141963637Y-72981339D01*
X141963637Y-72981339D02*
X141883204Y-73101989D01*
X141883204Y-73101989D02*
X141802771Y-73182423D01*
X141802771Y-73182423D02*
X141722337Y-73222639D01*
D13*
%TO.C,D1*%
X135677981Y-53167510D02*
X135677981Y-52651382D01*
X135677981Y-52651382D02*
X135800869Y-52651382D01*
X135800869Y-52651382D02*
X135874601Y-52675960D01*
X135874601Y-52675960D02*
X135923756Y-52725115D01*
X135923756Y-52725115D02*
X135948334Y-52774270D01*
X135948334Y-52774270D02*
X135972911Y-52872580D01*
X135972911Y-52872580D02*
X135972911Y-52946312D01*
X135972911Y-52946312D02*
X135948334Y-53044622D01*
X135948334Y-53044622D02*
X135923756Y-53093777D01*
X135923756Y-53093777D02*
X135874601Y-53142933D01*
X135874601Y-53142933D02*
X135800869Y-53167510D01*
X135800869Y-53167510D02*
X135677981Y-53167510D01*
X136464462Y-53167510D02*
X136169532Y-53167510D01*
X136316997Y-53167510D02*
X136316997Y-52651382D01*
X136316997Y-52651382D02*
X136267842Y-52725115D01*
X136267842Y-52725115D02*
X136218687Y-52774270D01*
X136218687Y-52774270D02*
X136169532Y-52798847D01*
%TO.C,C11*%
X158538355Y-100079288D02*
X158562933Y-100103865D01*
X158562933Y-100103865D02*
X158587510Y-100177598D01*
X158587510Y-100177598D02*
X158587510Y-100226753D01*
X158587510Y-100226753D02*
X158562933Y-100300485D01*
X158562933Y-100300485D02*
X158513777Y-100349640D01*
X158513777Y-100349640D02*
X158464622Y-100374218D01*
X158464622Y-100374218D02*
X158366312Y-100398795D01*
X158366312Y-100398795D02*
X158292580Y-100398795D01*
X158292580Y-100398795D02*
X158194270Y-100374218D01*
X158194270Y-100374218D02*
X158145115Y-100349640D01*
X158145115Y-100349640D02*
X158095960Y-100300485D01*
X158095960Y-100300485D02*
X158071382Y-100226753D01*
X158071382Y-100226753D02*
X158071382Y-100177598D01*
X158071382Y-100177598D02*
X158095960Y-100103865D01*
X158095960Y-100103865D02*
X158120537Y-100079288D01*
X158587510Y-99587737D02*
X158587510Y-99882667D01*
X158587510Y-99735202D02*
X158071382Y-99735202D01*
X158071382Y-99735202D02*
X158145115Y-99784357D01*
X158145115Y-99784357D02*
X158194270Y-99833512D01*
X158194270Y-99833512D02*
X158218847Y-99882667D01*
X158587510Y-99096187D02*
X158587510Y-99391117D01*
X158587510Y-99243652D02*
X158071382Y-99243652D01*
X158071382Y-99243652D02*
X158145115Y-99292807D01*
X158145115Y-99292807D02*
X158194270Y-99341962D01*
X158194270Y-99341962D02*
X158218847Y-99391117D01*
D19*
%TO.C,SW8*%
X131748023Y-104163601D02*
X131905391Y-104084917D01*
X131905391Y-104084917D02*
X132102102Y-103888206D01*
X132102102Y-103888206D02*
X132141444Y-103770180D01*
X132141444Y-103770180D02*
X132141444Y-103691496D01*
X132141444Y-103691496D02*
X132102102Y-103573470D01*
X132102102Y-103573470D02*
X132023418Y-103494786D01*
X132023418Y-103494786D02*
X131905391Y-103455443D01*
X131905391Y-103455443D02*
X131826707Y-103455443D01*
X131826707Y-103455443D02*
X131708681Y-103494786D01*
X131708681Y-103494786D02*
X131511971Y-103612812D01*
X131511971Y-103612812D02*
X131393944Y-103652154D01*
X131393944Y-103652154D02*
X131315260Y-103652154D01*
X131315260Y-103652154D02*
X131197234Y-103612812D01*
X131197234Y-103612812D02*
X131118550Y-103534128D01*
X131118550Y-103534128D02*
X131079208Y-103416101D01*
X131079208Y-103416101D02*
X131079208Y-103337417D01*
X131079208Y-103337417D02*
X131118550Y-103219391D01*
X131118550Y-103219391D02*
X131315260Y-103022681D01*
X131315260Y-103022681D02*
X131472629Y-102943996D01*
X131708681Y-102629260D02*
X132731575Y-103258733D01*
X132731575Y-103258733D02*
X132298812Y-102511234D01*
X132298812Y-102511234D02*
X133046312Y-102943996D01*
X133046312Y-102943996D02*
X132416838Y-101921102D01*
X133203680Y-101842419D02*
X133085654Y-101881761D01*
X133085654Y-101881761D02*
X133006969Y-101881761D01*
X133006969Y-101881761D02*
X132888943Y-101842419D01*
X132888943Y-101842419D02*
X132849601Y-101803076D01*
X132849601Y-101803076D02*
X132810259Y-101685050D01*
X132810259Y-101685050D02*
X132810259Y-101606366D01*
X132810259Y-101606366D02*
X132849601Y-101488340D01*
X132849601Y-101488340D02*
X133006969Y-101330972D01*
X133006969Y-101330972D02*
X133124996Y-101291629D01*
X133124996Y-101291629D02*
X133203680Y-101291629D01*
X133203680Y-101291629D02*
X133321706Y-101330972D01*
X133321706Y-101330972D02*
X133361048Y-101370314D01*
X133361048Y-101370314D02*
X133400390Y-101488340D01*
X133400390Y-101488340D02*
X133400390Y-101567024D01*
X133400390Y-101567024D02*
X133361048Y-101685050D01*
X133361048Y-101685050D02*
X133203680Y-101842419D01*
X133203680Y-101842419D02*
X133164338Y-101960445D01*
X133164338Y-101960445D02*
X133164338Y-102039129D01*
X133164338Y-102039129D02*
X133203680Y-102157155D01*
X133203680Y-102157155D02*
X133361048Y-102314523D01*
X133361048Y-102314523D02*
X133479074Y-102353865D01*
X133479074Y-102353865D02*
X133557758Y-102353865D01*
X133557758Y-102353865D02*
X133675785Y-102314523D01*
X133675785Y-102314523D02*
X133833153Y-102157155D01*
X133833153Y-102157155D02*
X133872495Y-102039129D01*
X133872495Y-102039129D02*
X133872495Y-101960445D01*
X133872495Y-101960445D02*
X133833153Y-101842419D01*
X133833153Y-101842419D02*
X133675785Y-101685050D01*
X133675785Y-101685050D02*
X133557758Y-101645708D01*
X133557758Y-101645708D02*
X133479074Y-101645708D01*
X133479074Y-101645708D02*
X133361048Y-101685050D01*
D13*
%TO.C,C6*%
X145815411Y-82328355D02*
X145790834Y-82352933D01*
X145790834Y-82352933D02*
X145717101Y-82377510D01*
X145717101Y-82377510D02*
X145667946Y-82377510D01*
X145667946Y-82377510D02*
X145594214Y-82352933D01*
X145594214Y-82352933D02*
X145545059Y-82303777D01*
X145545059Y-82303777D02*
X145520481Y-82254622D01*
X145520481Y-82254622D02*
X145495904Y-82156312D01*
X145495904Y-82156312D02*
X145495904Y-82082580D01*
X145495904Y-82082580D02*
X145520481Y-81984270D01*
X145520481Y-81984270D02*
X145545059Y-81935115D01*
X145545059Y-81935115D02*
X145594214Y-81885960D01*
X145594214Y-81885960D02*
X145667946Y-81861382D01*
X145667946Y-81861382D02*
X145717101Y-81861382D01*
X145717101Y-81861382D02*
X145790834Y-81885960D01*
X145790834Y-81885960D02*
X145815411Y-81910537D01*
X146257807Y-81861382D02*
X146159497Y-81861382D01*
X146159497Y-81861382D02*
X146110342Y-81885960D01*
X146110342Y-81885960D02*
X146085764Y-81910537D01*
X146085764Y-81910537D02*
X146036609Y-81984270D01*
X146036609Y-81984270D02*
X146012032Y-82082580D01*
X146012032Y-82082580D02*
X146012032Y-82279200D01*
X146012032Y-82279200D02*
X146036609Y-82328355D01*
X146036609Y-82328355D02*
X146061187Y-82352933D01*
X146061187Y-82352933D02*
X146110342Y-82377510D01*
X146110342Y-82377510D02*
X146208652Y-82377510D01*
X146208652Y-82377510D02*
X146257807Y-82352933D01*
X146257807Y-82352933D02*
X146282384Y-82328355D01*
X146282384Y-82328355D02*
X146306962Y-82279200D01*
X146306962Y-82279200D02*
X146306962Y-82156312D01*
X146306962Y-82156312D02*
X146282384Y-82107157D01*
X146282384Y-82107157D02*
X146257807Y-82082580D01*
X146257807Y-82082580D02*
X146208652Y-82058002D01*
X146208652Y-82058002D02*
X146110342Y-82058002D01*
X146110342Y-82058002D02*
X146061187Y-82082580D01*
X146061187Y-82082580D02*
X146036609Y-82107157D01*
X146036609Y-82107157D02*
X146012032Y-82156312D01*
%TO.C,R22*%
X147402911Y-132860010D02*
X147230869Y-132614235D01*
X147107981Y-132860010D02*
X147107981Y-132343882D01*
X147107981Y-132343882D02*
X147304601Y-132343882D01*
X147304601Y-132343882D02*
X147353756Y-132368460D01*
X147353756Y-132368460D02*
X147378334Y-132393037D01*
X147378334Y-132393037D02*
X147402911Y-132442192D01*
X147402911Y-132442192D02*
X147402911Y-132515925D01*
X147402911Y-132515925D02*
X147378334Y-132565080D01*
X147378334Y-132565080D02*
X147353756Y-132589657D01*
X147353756Y-132589657D02*
X147304601Y-132614235D01*
X147304601Y-132614235D02*
X147107981Y-132614235D01*
X147599532Y-132393037D02*
X147624109Y-132368460D01*
X147624109Y-132368460D02*
X147673264Y-132343882D01*
X147673264Y-132343882D02*
X147796152Y-132343882D01*
X147796152Y-132343882D02*
X147845307Y-132368460D01*
X147845307Y-132368460D02*
X147869884Y-132393037D01*
X147869884Y-132393037D02*
X147894462Y-132442192D01*
X147894462Y-132442192D02*
X147894462Y-132491347D01*
X147894462Y-132491347D02*
X147869884Y-132565080D01*
X147869884Y-132565080D02*
X147574954Y-132860010D01*
X147574954Y-132860010D02*
X147894462Y-132860010D01*
X148091082Y-132393037D02*
X148115659Y-132368460D01*
X148115659Y-132368460D02*
X148164814Y-132343882D01*
X148164814Y-132343882D02*
X148287702Y-132343882D01*
X148287702Y-132343882D02*
X148336857Y-132368460D01*
X148336857Y-132368460D02*
X148361434Y-132393037D01*
X148361434Y-132393037D02*
X148386012Y-132442192D01*
X148386012Y-132442192D02*
X148386012Y-132491347D01*
X148386012Y-132491347D02*
X148361434Y-132565080D01*
X148361434Y-132565080D02*
X148066504Y-132860010D01*
X148066504Y-132860010D02*
X148386012Y-132860010D01*
%TO.C,C18*%
X150283355Y-126466504D02*
X150307933Y-126491081D01*
X150307933Y-126491081D02*
X150332510Y-126564814D01*
X150332510Y-126564814D02*
X150332510Y-126613969D01*
X150332510Y-126613969D02*
X150307933Y-126687701D01*
X150307933Y-126687701D02*
X150258777Y-126736856D01*
X150258777Y-126736856D02*
X150209622Y-126761434D01*
X150209622Y-126761434D02*
X150111312Y-126786011D01*
X150111312Y-126786011D02*
X150037580Y-126786011D01*
X150037580Y-126786011D02*
X149939270Y-126761434D01*
X149939270Y-126761434D02*
X149890115Y-126736856D01*
X149890115Y-126736856D02*
X149840960Y-126687701D01*
X149840960Y-126687701D02*
X149816382Y-126613969D01*
X149816382Y-126613969D02*
X149816382Y-126564814D01*
X149816382Y-126564814D02*
X149840960Y-126491081D01*
X149840960Y-126491081D02*
X149865537Y-126466504D01*
X150332510Y-125974953D02*
X150332510Y-126269883D01*
X150332510Y-126122418D02*
X149816382Y-126122418D01*
X149816382Y-126122418D02*
X149890115Y-126171573D01*
X149890115Y-126171573D02*
X149939270Y-126220728D01*
X149939270Y-126220728D02*
X149963847Y-126269883D01*
X150037580Y-125680023D02*
X150013002Y-125729178D01*
X150013002Y-125729178D02*
X149988425Y-125753756D01*
X149988425Y-125753756D02*
X149939270Y-125778333D01*
X149939270Y-125778333D02*
X149914692Y-125778333D01*
X149914692Y-125778333D02*
X149865537Y-125753756D01*
X149865537Y-125753756D02*
X149840960Y-125729178D01*
X149840960Y-125729178D02*
X149816382Y-125680023D01*
X149816382Y-125680023D02*
X149816382Y-125581713D01*
X149816382Y-125581713D02*
X149840960Y-125532558D01*
X149840960Y-125532558D02*
X149865537Y-125507981D01*
X149865537Y-125507981D02*
X149914692Y-125483403D01*
X149914692Y-125483403D02*
X149939270Y-125483403D01*
X149939270Y-125483403D02*
X149988425Y-125507981D01*
X149988425Y-125507981D02*
X150013002Y-125532558D01*
X150013002Y-125532558D02*
X150037580Y-125581713D01*
X150037580Y-125581713D02*
X150037580Y-125680023D01*
X150037580Y-125680023D02*
X150062157Y-125729178D01*
X150062157Y-125729178D02*
X150086735Y-125753756D01*
X150086735Y-125753756D02*
X150135890Y-125778333D01*
X150135890Y-125778333D02*
X150234200Y-125778333D01*
X150234200Y-125778333D02*
X150283355Y-125753756D01*
X150283355Y-125753756D02*
X150307933Y-125729178D01*
X150307933Y-125729178D02*
X150332510Y-125680023D01*
X150332510Y-125680023D02*
X150332510Y-125581713D01*
X150332510Y-125581713D02*
X150307933Y-125532558D01*
X150307933Y-125532558D02*
X150283355Y-125507981D01*
X150283355Y-125507981D02*
X150234200Y-125483403D01*
X150234200Y-125483403D02*
X150135890Y-125483403D01*
X150135890Y-125483403D02*
X150086735Y-125507981D01*
X150086735Y-125507981D02*
X150062157Y-125532558D01*
X150062157Y-125532558D02*
X150037580Y-125581713D01*
D22*
%TO.C,IC3*%
X146229759Y-103733152D02*
X145269842Y-103733152D01*
X146138338Y-102727525D02*
X146184049Y-102773235D01*
X146184049Y-102773235D02*
X146229759Y-102910366D01*
X146229759Y-102910366D02*
X146229759Y-103001787D01*
X146229759Y-103001787D02*
X146184049Y-103138918D01*
X146184049Y-103138918D02*
X146092628Y-103230339D01*
X146092628Y-103230339D02*
X146001207Y-103276049D01*
X146001207Y-103276049D02*
X145818366Y-103321759D01*
X145818366Y-103321759D02*
X145681235Y-103321759D01*
X145681235Y-103321759D02*
X145498394Y-103276049D01*
X145498394Y-103276049D02*
X145406973Y-103230339D01*
X145406973Y-103230339D02*
X145315552Y-103138918D01*
X145315552Y-103138918D02*
X145269842Y-103001787D01*
X145269842Y-103001787D02*
X145269842Y-102910366D01*
X145269842Y-102910366D02*
X145315552Y-102773235D01*
X145315552Y-102773235D02*
X145361263Y-102727525D01*
X145269842Y-102407553D02*
X145269842Y-101813318D01*
X145269842Y-101813318D02*
X145635525Y-102133291D01*
X145635525Y-102133291D02*
X145635525Y-101996160D01*
X145635525Y-101996160D02*
X145681235Y-101904739D01*
X145681235Y-101904739D02*
X145726945Y-101859029D01*
X145726945Y-101859029D02*
X145818366Y-101813318D01*
X145818366Y-101813318D02*
X146046918Y-101813318D01*
X146046918Y-101813318D02*
X146138338Y-101859029D01*
X146138338Y-101859029D02*
X146184049Y-101904739D01*
X146184049Y-101904739D02*
X146229759Y-101996160D01*
X146229759Y-101996160D02*
X146229759Y-102270422D01*
X146229759Y-102270422D02*
X146184049Y-102361842D01*
X146184049Y-102361842D02*
X146138338Y-102407553D01*
D13*
%TO.C,Q3*%
X135069566Y-144478065D02*
X135020411Y-144453488D01*
X135020411Y-144453488D02*
X134971256Y-144404333D01*
X134971256Y-144404333D02*
X134897524Y-144330600D01*
X134897524Y-144330600D02*
X134848369Y-144306022D01*
X134848369Y-144306022D02*
X134799214Y-144306022D01*
X134823791Y-144428910D02*
X134774636Y-144404333D01*
X134774636Y-144404333D02*
X134725481Y-144355177D01*
X134725481Y-144355177D02*
X134700904Y-144256867D01*
X134700904Y-144256867D02*
X134700904Y-144084825D01*
X134700904Y-144084825D02*
X134725481Y-143986515D01*
X134725481Y-143986515D02*
X134774636Y-143937360D01*
X134774636Y-143937360D02*
X134823791Y-143912782D01*
X134823791Y-143912782D02*
X134922101Y-143912782D01*
X134922101Y-143912782D02*
X134971256Y-143937360D01*
X134971256Y-143937360D02*
X135020411Y-143986515D01*
X135020411Y-143986515D02*
X135044989Y-144084825D01*
X135044989Y-144084825D02*
X135044989Y-144256867D01*
X135044989Y-144256867D02*
X135020411Y-144355177D01*
X135020411Y-144355177D02*
X134971256Y-144404333D01*
X134971256Y-144404333D02*
X134922101Y-144428910D01*
X134922101Y-144428910D02*
X134823791Y-144428910D01*
X135217032Y-143912782D02*
X135536540Y-143912782D01*
X135536540Y-143912782D02*
X135364497Y-144109402D01*
X135364497Y-144109402D02*
X135438230Y-144109402D01*
X135438230Y-144109402D02*
X135487385Y-144133980D01*
X135487385Y-144133980D02*
X135511962Y-144158557D01*
X135511962Y-144158557D02*
X135536540Y-144207712D01*
X135536540Y-144207712D02*
X135536540Y-144330600D01*
X135536540Y-144330600D02*
X135511962Y-144379755D01*
X135511962Y-144379755D02*
X135487385Y-144404333D01*
X135487385Y-144404333D02*
X135438230Y-144428910D01*
X135438230Y-144428910D02*
X135290765Y-144428910D01*
X135290765Y-144428910D02*
X135241610Y-144404333D01*
X135241610Y-144404333D02*
X135217032Y-144379755D01*
%TO.C,R18*%
X145887510Y-129006504D02*
X145641735Y-129178546D01*
X145887510Y-129301434D02*
X145371382Y-129301434D01*
X145371382Y-129301434D02*
X145371382Y-129104814D01*
X145371382Y-129104814D02*
X145395960Y-129055659D01*
X145395960Y-129055659D02*
X145420537Y-129031081D01*
X145420537Y-129031081D02*
X145469692Y-129006504D01*
X145469692Y-129006504D02*
X145543425Y-129006504D01*
X145543425Y-129006504D02*
X145592580Y-129031081D01*
X145592580Y-129031081D02*
X145617157Y-129055659D01*
X145617157Y-129055659D02*
X145641735Y-129104814D01*
X145641735Y-129104814D02*
X145641735Y-129301434D01*
X145887510Y-128514953D02*
X145887510Y-128809883D01*
X145887510Y-128662418D02*
X145371382Y-128662418D01*
X145371382Y-128662418D02*
X145445115Y-128711573D01*
X145445115Y-128711573D02*
X145494270Y-128760728D01*
X145494270Y-128760728D02*
X145518847Y-128809883D01*
X145592580Y-128220023D02*
X145568002Y-128269178D01*
X145568002Y-128269178D02*
X145543425Y-128293756D01*
X145543425Y-128293756D02*
X145494270Y-128318333D01*
X145494270Y-128318333D02*
X145469692Y-128318333D01*
X145469692Y-128318333D02*
X145420537Y-128293756D01*
X145420537Y-128293756D02*
X145395960Y-128269178D01*
X145395960Y-128269178D02*
X145371382Y-128220023D01*
X145371382Y-128220023D02*
X145371382Y-128121713D01*
X145371382Y-128121713D02*
X145395960Y-128072558D01*
X145395960Y-128072558D02*
X145420537Y-128047981D01*
X145420537Y-128047981D02*
X145469692Y-128023403D01*
X145469692Y-128023403D02*
X145494270Y-128023403D01*
X145494270Y-128023403D02*
X145543425Y-128047981D01*
X145543425Y-128047981D02*
X145568002Y-128072558D01*
X145568002Y-128072558D02*
X145592580Y-128121713D01*
X145592580Y-128121713D02*
X145592580Y-128220023D01*
X145592580Y-128220023D02*
X145617157Y-128269178D01*
X145617157Y-128269178D02*
X145641735Y-128293756D01*
X145641735Y-128293756D02*
X145690890Y-128318333D01*
X145690890Y-128318333D02*
X145789200Y-128318333D01*
X145789200Y-128318333D02*
X145838355Y-128293756D01*
X145838355Y-128293756D02*
X145862933Y-128269178D01*
X145862933Y-128269178D02*
X145887510Y-128220023D01*
X145887510Y-128220023D02*
X145887510Y-128121713D01*
X145887510Y-128121713D02*
X145862933Y-128072558D01*
X145862933Y-128072558D02*
X145838355Y-128047981D01*
X145838355Y-128047981D02*
X145789200Y-128023403D01*
X145789200Y-128023403D02*
X145690890Y-128023403D01*
X145690890Y-128023403D02*
X145641735Y-128047981D01*
X145641735Y-128047981D02*
X145617157Y-128072558D01*
X145617157Y-128072558D02*
X145592580Y-128121713D01*
D16*
%TO.C,Q1*%
X154298273Y-76558319D02*
X154231749Y-76525057D01*
X154231749Y-76525057D02*
X154165225Y-76458534D01*
X154165225Y-76458534D02*
X154065439Y-76358748D01*
X154065439Y-76358748D02*
X153998916Y-76325486D01*
X153998916Y-76325486D02*
X153932392Y-76325486D01*
X153965654Y-76491795D02*
X153899130Y-76458534D01*
X153899130Y-76458534D02*
X153832606Y-76392010D01*
X153832606Y-76392010D02*
X153799344Y-76258962D01*
X153799344Y-76258962D02*
X153799344Y-76026129D01*
X153799344Y-76026129D02*
X153832606Y-75893081D01*
X153832606Y-75893081D02*
X153899130Y-75826557D01*
X153899130Y-75826557D02*
X153965654Y-75793295D01*
X153965654Y-75793295D02*
X154098701Y-75793295D01*
X154098701Y-75793295D02*
X154165225Y-75826557D01*
X154165225Y-75826557D02*
X154231749Y-75893081D01*
X154231749Y-75893081D02*
X154265011Y-76026129D01*
X154265011Y-76026129D02*
X154265011Y-76258962D01*
X154265011Y-76258962D02*
X154231749Y-76392010D01*
X154231749Y-76392010D02*
X154165225Y-76458534D01*
X154165225Y-76458534D02*
X154098701Y-76491795D01*
X154098701Y-76491795D02*
X153965654Y-76491795D01*
X154930249Y-76491795D02*
X154531106Y-76491795D01*
X154730678Y-76491795D02*
X154730678Y-75793295D01*
X154730678Y-75793295D02*
X154664154Y-75893081D01*
X154664154Y-75893081D02*
X154597630Y-75959605D01*
X154597630Y-75959605D02*
X154531106Y-75992867D01*
D13*
%TO.C,R21*%
X153017521Y-127133024D02*
X152625345Y-126572772D01*
X152345219Y-127133024D02*
X152345219Y-125956496D01*
X152345219Y-125956496D02*
X152793420Y-125956496D01*
X152793420Y-125956496D02*
X152905471Y-126012521D01*
X152905471Y-126012521D02*
X152961496Y-126068546D01*
X152961496Y-126068546D02*
X153017521Y-126180596D01*
X153017521Y-126180596D02*
X153017521Y-126348672D01*
X153017521Y-126348672D02*
X152961496Y-126460722D01*
X152961496Y-126460722D02*
X152905471Y-126516747D01*
X152905471Y-126516747D02*
X152793420Y-126572772D01*
X152793420Y-126572772D02*
X152345219Y-126572772D01*
X153465722Y-126068546D02*
X153521747Y-126012521D01*
X153521747Y-126012521D02*
X153633798Y-125956496D01*
X153633798Y-125956496D02*
X153913923Y-125956496D01*
X153913923Y-125956496D02*
X154025974Y-126012521D01*
X154025974Y-126012521D02*
X154081999Y-126068546D01*
X154081999Y-126068546D02*
X154138024Y-126180596D01*
X154138024Y-126180596D02*
X154138024Y-126292647D01*
X154138024Y-126292647D02*
X154081999Y-126460722D01*
X154081999Y-126460722D02*
X153409697Y-127133024D01*
X153409697Y-127133024D02*
X154138024Y-127133024D01*
X155258527Y-127133024D02*
X154586225Y-127133024D01*
X154922376Y-127133024D02*
X154922376Y-125956496D01*
X154922376Y-125956496D02*
X154810326Y-126124571D01*
X154810326Y-126124571D02*
X154698275Y-126236621D01*
X154698275Y-126236621D02*
X154586225Y-126292647D01*
X152961496Y-128657024D02*
X152289194Y-128657024D01*
X152625345Y-128657024D02*
X152625345Y-127480496D01*
X152625345Y-127480496D02*
X152513295Y-127648571D01*
X152513295Y-127648571D02*
X152401244Y-127760621D01*
X152401244Y-127760621D02*
X152289194Y-127816647D01*
X153689823Y-127480496D02*
X153801873Y-127480496D01*
X153801873Y-127480496D02*
X153913923Y-127536521D01*
X153913923Y-127536521D02*
X153969949Y-127592546D01*
X153969949Y-127592546D02*
X154025974Y-127704596D01*
X154025974Y-127704596D02*
X154081999Y-127928697D01*
X154081999Y-127928697D02*
X154081999Y-128208823D01*
X154081999Y-128208823D02*
X154025974Y-128432923D01*
X154025974Y-128432923D02*
X153969949Y-128544973D01*
X153969949Y-128544973D02*
X153913923Y-128600999D01*
X153913923Y-128600999D02*
X153801873Y-128657024D01*
X153801873Y-128657024D02*
X153689823Y-128657024D01*
X153689823Y-128657024D02*
X153577773Y-128600999D01*
X153577773Y-128600999D02*
X153521747Y-128544973D01*
X153521747Y-128544973D02*
X153465722Y-128432923D01*
X153465722Y-128432923D02*
X153409697Y-128208823D01*
X153409697Y-128208823D02*
X153409697Y-127928697D01*
X153409697Y-127928697D02*
X153465722Y-127704596D01*
X153465722Y-127704596D02*
X153521747Y-127592546D01*
X153521747Y-127592546D02*
X153577773Y-127536521D01*
X153577773Y-127536521D02*
X153689823Y-127480496D01*
X154586225Y-128657024D02*
X154586225Y-127480496D01*
X154698276Y-128208823D02*
X155034426Y-128657024D01*
X155034426Y-127872672D02*
X154586225Y-128320873D01*
X155930828Y-128040747D02*
X156098904Y-128096772D01*
X156098904Y-128096772D02*
X156154929Y-128152797D01*
X156154929Y-128152797D02*
X156210954Y-128264848D01*
X156210954Y-128264848D02*
X156210954Y-128432923D01*
X156210954Y-128432923D02*
X156154929Y-128544973D01*
X156154929Y-128544973D02*
X156098904Y-128600999D01*
X156098904Y-128600999D02*
X155986853Y-128657024D01*
X155986853Y-128657024D02*
X155538652Y-128657024D01*
X155538652Y-128657024D02*
X155538652Y-127480496D01*
X155538652Y-127480496D02*
X155930828Y-127480496D01*
X155930828Y-127480496D02*
X156042879Y-127536521D01*
X156042879Y-127536521D02*
X156098904Y-127592546D01*
X156098904Y-127592546D02*
X156154929Y-127704596D01*
X156154929Y-127704596D02*
X156154929Y-127816647D01*
X156154929Y-127816647D02*
X156098904Y-127928697D01*
X156098904Y-127928697D02*
X156042879Y-127984722D01*
X156042879Y-127984722D02*
X155930828Y-128040747D01*
X155930828Y-128040747D02*
X155538652Y-128040747D01*
%TO.C,R2*%
X130330010Y-66741788D02*
X130084235Y-66913830D01*
X130330010Y-67036718D02*
X129813882Y-67036718D01*
X129813882Y-67036718D02*
X129813882Y-66840098D01*
X129813882Y-66840098D02*
X129838460Y-66790943D01*
X129838460Y-66790943D02*
X129863037Y-66766365D01*
X129863037Y-66766365D02*
X129912192Y-66741788D01*
X129912192Y-66741788D02*
X129985925Y-66741788D01*
X129985925Y-66741788D02*
X130035080Y-66766365D01*
X130035080Y-66766365D02*
X130059657Y-66790943D01*
X130059657Y-66790943D02*
X130084235Y-66840098D01*
X130084235Y-66840098D02*
X130084235Y-67036718D01*
X129863037Y-66545167D02*
X129838460Y-66520590D01*
X129838460Y-66520590D02*
X129813882Y-66471435D01*
X129813882Y-66471435D02*
X129813882Y-66348547D01*
X129813882Y-66348547D02*
X129838460Y-66299392D01*
X129838460Y-66299392D02*
X129863037Y-66274815D01*
X129863037Y-66274815D02*
X129912192Y-66250237D01*
X129912192Y-66250237D02*
X129961347Y-66250237D01*
X129961347Y-66250237D02*
X130035080Y-66274815D01*
X130035080Y-66274815D02*
X130330010Y-66569745D01*
X130330010Y-66569745D02*
X130330010Y-66250237D01*
%TO.C,C14*%
X144568355Y-114366788D02*
X144592933Y-114391365D01*
X144592933Y-114391365D02*
X144617510Y-114465098D01*
X144617510Y-114465098D02*
X144617510Y-114514253D01*
X144617510Y-114514253D02*
X144592933Y-114587985D01*
X144592933Y-114587985D02*
X144543777Y-114637140D01*
X144543777Y-114637140D02*
X144494622Y-114661718D01*
X144494622Y-114661718D02*
X144396312Y-114686295D01*
X144396312Y-114686295D02*
X144322580Y-114686295D01*
X144322580Y-114686295D02*
X144224270Y-114661718D01*
X144224270Y-114661718D02*
X144175115Y-114637140D01*
X144175115Y-114637140D02*
X144125960Y-114587985D01*
X144125960Y-114587985D02*
X144101382Y-114514253D01*
X144101382Y-114514253D02*
X144101382Y-114465098D01*
X144101382Y-114465098D02*
X144125960Y-114391365D01*
X144125960Y-114391365D02*
X144150537Y-114366788D01*
X144617510Y-113875237D02*
X144617510Y-114170167D01*
X144617510Y-114022702D02*
X144101382Y-114022702D01*
X144101382Y-114022702D02*
X144175115Y-114071857D01*
X144175115Y-114071857D02*
X144224270Y-114121012D01*
X144224270Y-114121012D02*
X144248847Y-114170167D01*
X144273425Y-113432842D02*
X144617510Y-113432842D01*
X144076805Y-113555730D02*
X144445467Y-113678617D01*
X144445467Y-113678617D02*
X144445467Y-113359110D01*
D15*
%TO.C,IC6*%
X155176578Y-140308429D02*
X155176578Y-139467689D01*
X156057353Y-140228358D02*
X156017317Y-140268394D01*
X156017317Y-140268394D02*
X155897212Y-140308429D01*
X155897212Y-140308429D02*
X155817141Y-140308429D01*
X155817141Y-140308429D02*
X155697035Y-140268394D01*
X155697035Y-140268394D02*
X155616965Y-140188323D01*
X155616965Y-140188323D02*
X155576930Y-140108253D01*
X155576930Y-140108253D02*
X155536894Y-139948112D01*
X155536894Y-139948112D02*
X155536894Y-139828006D01*
X155536894Y-139828006D02*
X155576930Y-139667865D01*
X155576930Y-139667865D02*
X155616965Y-139587794D01*
X155616965Y-139587794D02*
X155697035Y-139507724D01*
X155697035Y-139507724D02*
X155817141Y-139467689D01*
X155817141Y-139467689D02*
X155897212Y-139467689D01*
X155897212Y-139467689D02*
X156017317Y-139507724D01*
X156017317Y-139507724D02*
X156057353Y-139547759D01*
X156777987Y-139467689D02*
X156617846Y-139467689D01*
X156617846Y-139467689D02*
X156537775Y-139507724D01*
X156537775Y-139507724D02*
X156497740Y-139547759D01*
X156497740Y-139547759D02*
X156417670Y-139667865D01*
X156417670Y-139667865D02*
X156377634Y-139828006D01*
X156377634Y-139828006D02*
X156377634Y-140148288D01*
X156377634Y-140148288D02*
X156417670Y-140228358D01*
X156417670Y-140228358D02*
X156457705Y-140268394D01*
X156457705Y-140268394D02*
X156537775Y-140308429D01*
X156537775Y-140308429D02*
X156697916Y-140308429D01*
X156697916Y-140308429D02*
X156777987Y-140268394D01*
X156777987Y-140268394D02*
X156818022Y-140228358D01*
X156818022Y-140228358D02*
X156858057Y-140148288D01*
X156858057Y-140148288D02*
X156858057Y-139948112D01*
X156858057Y-139948112D02*
X156818022Y-139868041D01*
X156818022Y-139868041D02*
X156777987Y-139828006D01*
X156777987Y-139828006D02*
X156697916Y-139787971D01*
X156697916Y-139787971D02*
X156537775Y-139787971D01*
X156537775Y-139787971D02*
X156457705Y-139828006D01*
X156457705Y-139828006D02*
X156417670Y-139868041D01*
X156417670Y-139868041D02*
X156377634Y-139948112D01*
D13*
%TO.C,R26*%
X150895411Y-142385010D02*
X150723369Y-142139235D01*
X150600481Y-142385010D02*
X150600481Y-141868882D01*
X150600481Y-141868882D02*
X150797101Y-141868882D01*
X150797101Y-141868882D02*
X150846256Y-141893460D01*
X150846256Y-141893460D02*
X150870834Y-141918037D01*
X150870834Y-141918037D02*
X150895411Y-141967192D01*
X150895411Y-141967192D02*
X150895411Y-142040925D01*
X150895411Y-142040925D02*
X150870834Y-142090080D01*
X150870834Y-142090080D02*
X150846256Y-142114657D01*
X150846256Y-142114657D02*
X150797101Y-142139235D01*
X150797101Y-142139235D02*
X150600481Y-142139235D01*
X151092032Y-141918037D02*
X151116609Y-141893460D01*
X151116609Y-141893460D02*
X151165764Y-141868882D01*
X151165764Y-141868882D02*
X151288652Y-141868882D01*
X151288652Y-141868882D02*
X151337807Y-141893460D01*
X151337807Y-141893460D02*
X151362384Y-141918037D01*
X151362384Y-141918037D02*
X151386962Y-141967192D01*
X151386962Y-141967192D02*
X151386962Y-142016347D01*
X151386962Y-142016347D02*
X151362384Y-142090080D01*
X151362384Y-142090080D02*
X151067454Y-142385010D01*
X151067454Y-142385010D02*
X151386962Y-142385010D01*
X151829357Y-141868882D02*
X151731047Y-141868882D01*
X151731047Y-141868882D02*
X151681892Y-141893460D01*
X151681892Y-141893460D02*
X151657314Y-141918037D01*
X151657314Y-141918037D02*
X151608159Y-141991770D01*
X151608159Y-141991770D02*
X151583582Y-142090080D01*
X151583582Y-142090080D02*
X151583582Y-142286700D01*
X151583582Y-142286700D02*
X151608159Y-142335855D01*
X151608159Y-142335855D02*
X151632737Y-142360433D01*
X151632737Y-142360433D02*
X151681892Y-142385010D01*
X151681892Y-142385010D02*
X151780202Y-142385010D01*
X151780202Y-142385010D02*
X151829357Y-142360433D01*
X151829357Y-142360433D02*
X151853934Y-142335855D01*
X151853934Y-142335855D02*
X151878512Y-142286700D01*
X151878512Y-142286700D02*
X151878512Y-142163812D01*
X151878512Y-142163812D02*
X151853934Y-142114657D01*
X151853934Y-142114657D02*
X151829357Y-142090080D01*
X151829357Y-142090080D02*
X151780202Y-142065502D01*
X151780202Y-142065502D02*
X151681892Y-142065502D01*
X151681892Y-142065502D02*
X151632737Y-142090080D01*
X151632737Y-142090080D02*
X151608159Y-142114657D01*
X151608159Y-142114657D02*
X151583582Y-142163812D01*
%TO.C,R11*%
X153017521Y-105225524D02*
X152625345Y-104665272D01*
X152345219Y-105225524D02*
X152345219Y-104048996D01*
X152345219Y-104048996D02*
X152793420Y-104048996D01*
X152793420Y-104048996D02*
X152905471Y-104105021D01*
X152905471Y-104105021D02*
X152961496Y-104161046D01*
X152961496Y-104161046D02*
X153017521Y-104273096D01*
X153017521Y-104273096D02*
X153017521Y-104441172D01*
X153017521Y-104441172D02*
X152961496Y-104553222D01*
X152961496Y-104553222D02*
X152905471Y-104609247D01*
X152905471Y-104609247D02*
X152793420Y-104665272D01*
X152793420Y-104665272D02*
X152345219Y-104665272D01*
X154138024Y-105225524D02*
X153465722Y-105225524D01*
X153801873Y-105225524D02*
X153801873Y-104048996D01*
X153801873Y-104048996D02*
X153689823Y-104217071D01*
X153689823Y-104217071D02*
X153577772Y-104329121D01*
X153577772Y-104329121D02*
X153465722Y-104385147D01*
X155258527Y-105225524D02*
X154586225Y-105225524D01*
X154922376Y-105225524D02*
X154922376Y-104048996D01*
X154922376Y-104048996D02*
X154810326Y-104217071D01*
X154810326Y-104217071D02*
X154698275Y-104329121D01*
X154698275Y-104329121D02*
X154586225Y-104385147D01*
X152961496Y-106749524D02*
X152289194Y-106749524D01*
X152625345Y-106749524D02*
X152625345Y-105572996D01*
X152625345Y-105572996D02*
X152513295Y-105741071D01*
X152513295Y-105741071D02*
X152401244Y-105853121D01*
X152401244Y-105853121D02*
X152289194Y-105909147D01*
X153689823Y-105572996D02*
X153801873Y-105572996D01*
X153801873Y-105572996D02*
X153913923Y-105629021D01*
X153913923Y-105629021D02*
X153969949Y-105685046D01*
X153969949Y-105685046D02*
X154025974Y-105797096D01*
X154025974Y-105797096D02*
X154081999Y-106021197D01*
X154081999Y-106021197D02*
X154081999Y-106301323D01*
X154081999Y-106301323D02*
X154025974Y-106525423D01*
X154025974Y-106525423D02*
X153969949Y-106637473D01*
X153969949Y-106637473D02*
X153913923Y-106693499D01*
X153913923Y-106693499D02*
X153801873Y-106749524D01*
X153801873Y-106749524D02*
X153689823Y-106749524D01*
X153689823Y-106749524D02*
X153577773Y-106693499D01*
X153577773Y-106693499D02*
X153521747Y-106637473D01*
X153521747Y-106637473D02*
X153465722Y-106525423D01*
X153465722Y-106525423D02*
X153409697Y-106301323D01*
X153409697Y-106301323D02*
X153409697Y-106021197D01*
X153409697Y-106021197D02*
X153465722Y-105797096D01*
X153465722Y-105797096D02*
X153521747Y-105685046D01*
X153521747Y-105685046D02*
X153577773Y-105629021D01*
X153577773Y-105629021D02*
X153689823Y-105572996D01*
X154586225Y-106749524D02*
X154586225Y-105572996D01*
X154698276Y-106301323D02*
X155034426Y-106749524D01*
X155034426Y-105965172D02*
X154586225Y-106413373D01*
X155930828Y-106133247D02*
X156098904Y-106189272D01*
X156098904Y-106189272D02*
X156154929Y-106245297D01*
X156154929Y-106245297D02*
X156210954Y-106357348D01*
X156210954Y-106357348D02*
X156210954Y-106525423D01*
X156210954Y-106525423D02*
X156154929Y-106637473D01*
X156154929Y-106637473D02*
X156098904Y-106693499D01*
X156098904Y-106693499D02*
X155986853Y-106749524D01*
X155986853Y-106749524D02*
X155538652Y-106749524D01*
X155538652Y-106749524D02*
X155538652Y-105572996D01*
X155538652Y-105572996D02*
X155930828Y-105572996D01*
X155930828Y-105572996D02*
X156042879Y-105629021D01*
X156042879Y-105629021D02*
X156098904Y-105685046D01*
X156098904Y-105685046D02*
X156154929Y-105797096D01*
X156154929Y-105797096D02*
X156154929Y-105909147D01*
X156154929Y-105909147D02*
X156098904Y-106021197D01*
X156098904Y-106021197D02*
X156042879Y-106077222D01*
X156042879Y-106077222D02*
X155930828Y-106133247D01*
X155930828Y-106133247D02*
X155538652Y-106133247D01*
%TO.C,C9*%
X138535855Y-94364288D02*
X138560433Y-94388865D01*
X138560433Y-94388865D02*
X138585010Y-94462598D01*
X138585010Y-94462598D02*
X138585010Y-94511753D01*
X138585010Y-94511753D02*
X138560433Y-94585485D01*
X138560433Y-94585485D02*
X138511277Y-94634640D01*
X138511277Y-94634640D02*
X138462122Y-94659218D01*
X138462122Y-94659218D02*
X138363812Y-94683795D01*
X138363812Y-94683795D02*
X138290080Y-94683795D01*
X138290080Y-94683795D02*
X138191770Y-94659218D01*
X138191770Y-94659218D02*
X138142615Y-94634640D01*
X138142615Y-94634640D02*
X138093460Y-94585485D01*
X138093460Y-94585485D02*
X138068882Y-94511753D01*
X138068882Y-94511753D02*
X138068882Y-94462598D01*
X138068882Y-94462598D02*
X138093460Y-94388865D01*
X138093460Y-94388865D02*
X138118037Y-94364288D01*
X138585010Y-94118512D02*
X138585010Y-94020202D01*
X138585010Y-94020202D02*
X138560433Y-93971047D01*
X138560433Y-93971047D02*
X138535855Y-93946470D01*
X138535855Y-93946470D02*
X138462122Y-93897315D01*
X138462122Y-93897315D02*
X138363812Y-93872737D01*
X138363812Y-93872737D02*
X138167192Y-93872737D01*
X138167192Y-93872737D02*
X138118037Y-93897315D01*
X138118037Y-93897315D02*
X138093460Y-93921892D01*
X138093460Y-93921892D02*
X138068882Y-93971047D01*
X138068882Y-93971047D02*
X138068882Y-94069357D01*
X138068882Y-94069357D02*
X138093460Y-94118512D01*
X138093460Y-94118512D02*
X138118037Y-94143090D01*
X138118037Y-94143090D02*
X138167192Y-94167667D01*
X138167192Y-94167667D02*
X138290080Y-94167667D01*
X138290080Y-94167667D02*
X138339235Y-94143090D01*
X138339235Y-94143090D02*
X138363812Y-94118512D01*
X138363812Y-94118512D02*
X138388390Y-94069357D01*
X138388390Y-94069357D02*
X138388390Y-93971047D01*
X138388390Y-93971047D02*
X138363812Y-93921892D01*
X138363812Y-93921892D02*
X138339235Y-93897315D01*
X138339235Y-93897315D02*
X138290080Y-93872737D01*
D16*
%TO.C,LED5*%
X137017295Y-96491974D02*
X137017295Y-96824593D01*
X137017295Y-96824593D02*
X136318795Y-96824593D01*
X136651414Y-96259141D02*
X136651414Y-96026308D01*
X137017295Y-95926522D02*
X137017295Y-96259141D01*
X137017295Y-96259141D02*
X136318795Y-96259141D01*
X136318795Y-96259141D02*
X136318795Y-95926522D01*
X137017295Y-95627165D02*
X136318795Y-95627165D01*
X136318795Y-95627165D02*
X136318795Y-95460855D01*
X136318795Y-95460855D02*
X136352057Y-95361070D01*
X136352057Y-95361070D02*
X136418581Y-95294546D01*
X136418581Y-95294546D02*
X136485105Y-95261284D01*
X136485105Y-95261284D02*
X136618153Y-95228022D01*
X136618153Y-95228022D02*
X136717938Y-95228022D01*
X136717938Y-95228022D02*
X136850986Y-95261284D01*
X136850986Y-95261284D02*
X136917510Y-95294546D01*
X136917510Y-95294546D02*
X136984034Y-95361070D01*
X136984034Y-95361070D02*
X137017295Y-95460855D01*
X137017295Y-95460855D02*
X137017295Y-95627165D01*
X136318795Y-94596046D02*
X136318795Y-94928665D01*
X136318795Y-94928665D02*
X136651414Y-94961927D01*
X136651414Y-94961927D02*
X136618153Y-94928665D01*
X136618153Y-94928665D02*
X136584891Y-94862141D01*
X136584891Y-94862141D02*
X136584891Y-94695832D01*
X136584891Y-94695832D02*
X136618153Y-94629308D01*
X136618153Y-94629308D02*
X136651414Y-94596046D01*
X136651414Y-94596046D02*
X136717938Y-94562784D01*
X136717938Y-94562784D02*
X136884248Y-94562784D01*
X136884248Y-94562784D02*
X136950772Y-94596046D01*
X136950772Y-94596046D02*
X136984034Y-94629308D01*
X136984034Y-94629308D02*
X137017295Y-94695832D01*
X137017295Y-94695832D02*
X137017295Y-94862141D01*
X137017295Y-94862141D02*
X136984034Y-94928665D01*
X136984034Y-94928665D02*
X136950772Y-94961927D01*
D13*
%TO.C,R23*%
X141471550Y-132306298D02*
X141523687Y-132010856D01*
X141263003Y-132097751D02*
X141627961Y-131732793D01*
X141627961Y-131732793D02*
X141766992Y-131871825D01*
X141766992Y-131871825D02*
X141784371Y-131923961D01*
X141784371Y-131923961D02*
X141784371Y-131958719D01*
X141784371Y-131958719D02*
X141766992Y-132010856D01*
X141766992Y-132010856D02*
X141714856Y-132062993D01*
X141714856Y-132062993D02*
X141662719Y-132080372D01*
X141662719Y-132080372D02*
X141627961Y-132080372D01*
X141627961Y-132080372D02*
X141575824Y-132062993D01*
X141575824Y-132062993D02*
X141436793Y-131923961D01*
X141940782Y-132115130D02*
X141975540Y-132115130D01*
X141975540Y-132115130D02*
X142027676Y-132132509D01*
X142027676Y-132132509D02*
X142114571Y-132219403D01*
X142114571Y-132219403D02*
X142131950Y-132271540D01*
X142131950Y-132271540D02*
X142131950Y-132306298D01*
X142131950Y-132306298D02*
X142114571Y-132358435D01*
X142114571Y-132358435D02*
X142079813Y-132393193D01*
X142079813Y-132393193D02*
X142010297Y-132427950D01*
X142010297Y-132427950D02*
X141593203Y-132427950D01*
X141593203Y-132427950D02*
X141819129Y-132653877D01*
X142305739Y-132410571D02*
X142531665Y-132636497D01*
X142531665Y-132636497D02*
X142270981Y-132653876D01*
X142270981Y-132653876D02*
X142323118Y-132706013D01*
X142323118Y-132706013D02*
X142340497Y-132758150D01*
X142340497Y-132758150D02*
X142340497Y-132792908D01*
X142340497Y-132792908D02*
X142323118Y-132845045D01*
X142323118Y-132845045D02*
X142236223Y-132931939D01*
X142236223Y-132931939D02*
X142184086Y-132949318D01*
X142184086Y-132949318D02*
X142149329Y-132949318D01*
X142149329Y-132949318D02*
X142097192Y-132931939D01*
X142097192Y-132931939D02*
X141992918Y-132827666D01*
X141992918Y-132827666D02*
X141975539Y-132775529D01*
X141975539Y-132775529D02*
X141975539Y-132740771D01*
%TO.C,C20*%
X151553355Y-134369288D02*
X151577933Y-134393865D01*
X151577933Y-134393865D02*
X151602510Y-134467598D01*
X151602510Y-134467598D02*
X151602510Y-134516753D01*
X151602510Y-134516753D02*
X151577933Y-134590485D01*
X151577933Y-134590485D02*
X151528777Y-134639640D01*
X151528777Y-134639640D02*
X151479622Y-134664218D01*
X151479622Y-134664218D02*
X151381312Y-134688795D01*
X151381312Y-134688795D02*
X151307580Y-134688795D01*
X151307580Y-134688795D02*
X151209270Y-134664218D01*
X151209270Y-134664218D02*
X151160115Y-134639640D01*
X151160115Y-134639640D02*
X151110960Y-134590485D01*
X151110960Y-134590485D02*
X151086382Y-134516753D01*
X151086382Y-134516753D02*
X151086382Y-134467598D01*
X151086382Y-134467598D02*
X151110960Y-134393865D01*
X151110960Y-134393865D02*
X151135537Y-134369288D01*
X151135537Y-134172667D02*
X151110960Y-134148090D01*
X151110960Y-134148090D02*
X151086382Y-134098935D01*
X151086382Y-134098935D02*
X151086382Y-133976047D01*
X151086382Y-133976047D02*
X151110960Y-133926892D01*
X151110960Y-133926892D02*
X151135537Y-133902315D01*
X151135537Y-133902315D02*
X151184692Y-133877737D01*
X151184692Y-133877737D02*
X151233847Y-133877737D01*
X151233847Y-133877737D02*
X151307580Y-133902315D01*
X151307580Y-133902315D02*
X151602510Y-134197245D01*
X151602510Y-134197245D02*
X151602510Y-133877737D01*
X151086382Y-133558230D02*
X151086382Y-133509075D01*
X151086382Y-133509075D02*
X151110960Y-133459920D01*
X151110960Y-133459920D02*
X151135537Y-133435342D01*
X151135537Y-133435342D02*
X151184692Y-133410765D01*
X151184692Y-133410765D02*
X151283002Y-133386187D01*
X151283002Y-133386187D02*
X151405890Y-133386187D01*
X151405890Y-133386187D02*
X151504200Y-133410765D01*
X151504200Y-133410765D02*
X151553355Y-133435342D01*
X151553355Y-133435342D02*
X151577933Y-133459920D01*
X151577933Y-133459920D02*
X151602510Y-133509075D01*
X151602510Y-133509075D02*
X151602510Y-133558230D01*
X151602510Y-133558230D02*
X151577933Y-133607385D01*
X151577933Y-133607385D02*
X151553355Y-133631962D01*
X151553355Y-133631962D02*
X151504200Y-133656540D01*
X151504200Y-133656540D02*
X151405890Y-133681117D01*
X151405890Y-133681117D02*
X151283002Y-133681117D01*
X151283002Y-133681117D02*
X151184692Y-133656540D01*
X151184692Y-133656540D02*
X151135537Y-133631962D01*
X151135537Y-133631962D02*
X151110960Y-133607385D01*
X151110960Y-133607385D02*
X151086382Y-133558230D01*
D18*
%TO.C,C4*%
X152060847Y-70444457D02*
X152095991Y-70479601D01*
X152095991Y-70479601D02*
X152131134Y-70585033D01*
X152131134Y-70585033D02*
X152131134Y-70655321D01*
X152131134Y-70655321D02*
X152095991Y-70760752D01*
X152095991Y-70760752D02*
X152025703Y-70831040D01*
X152025703Y-70831040D02*
X151955415Y-70866184D01*
X151955415Y-70866184D02*
X151814839Y-70901328D01*
X151814839Y-70901328D02*
X151709408Y-70901328D01*
X151709408Y-70901328D02*
X151568832Y-70866184D01*
X151568832Y-70866184D02*
X151498544Y-70831040D01*
X151498544Y-70831040D02*
X151428256Y-70760752D01*
X151428256Y-70760752D02*
X151393112Y-70655321D01*
X151393112Y-70655321D02*
X151393112Y-70585033D01*
X151393112Y-70585033D02*
X151428256Y-70479601D01*
X151428256Y-70479601D02*
X151463400Y-70444457D01*
X151639120Y-69811867D02*
X152131134Y-69811867D01*
X151357969Y-69987586D02*
X151885127Y-70163306D01*
X151885127Y-70163306D02*
X151885127Y-69706435D01*
D13*
%TO.C,R30*%
X150895411Y-145877510D02*
X150723369Y-145631735D01*
X150600481Y-145877510D02*
X150600481Y-145361382D01*
X150600481Y-145361382D02*
X150797101Y-145361382D01*
X150797101Y-145361382D02*
X150846256Y-145385960D01*
X150846256Y-145385960D02*
X150870834Y-145410537D01*
X150870834Y-145410537D02*
X150895411Y-145459692D01*
X150895411Y-145459692D02*
X150895411Y-145533425D01*
X150895411Y-145533425D02*
X150870834Y-145582580D01*
X150870834Y-145582580D02*
X150846256Y-145607157D01*
X150846256Y-145607157D02*
X150797101Y-145631735D01*
X150797101Y-145631735D02*
X150600481Y-145631735D01*
X151067454Y-145361382D02*
X151386962Y-145361382D01*
X151386962Y-145361382D02*
X151214919Y-145558002D01*
X151214919Y-145558002D02*
X151288652Y-145558002D01*
X151288652Y-145558002D02*
X151337807Y-145582580D01*
X151337807Y-145582580D02*
X151362384Y-145607157D01*
X151362384Y-145607157D02*
X151386962Y-145656312D01*
X151386962Y-145656312D02*
X151386962Y-145779200D01*
X151386962Y-145779200D02*
X151362384Y-145828355D01*
X151362384Y-145828355D02*
X151337807Y-145852933D01*
X151337807Y-145852933D02*
X151288652Y-145877510D01*
X151288652Y-145877510D02*
X151141187Y-145877510D01*
X151141187Y-145877510D02*
X151092032Y-145852933D01*
X151092032Y-145852933D02*
X151067454Y-145828355D01*
X151706469Y-145361382D02*
X151755624Y-145361382D01*
X151755624Y-145361382D02*
X151804779Y-145385960D01*
X151804779Y-145385960D02*
X151829357Y-145410537D01*
X151829357Y-145410537D02*
X151853934Y-145459692D01*
X151853934Y-145459692D02*
X151878512Y-145558002D01*
X151878512Y-145558002D02*
X151878512Y-145680890D01*
X151878512Y-145680890D02*
X151853934Y-145779200D01*
X151853934Y-145779200D02*
X151829357Y-145828355D01*
X151829357Y-145828355D02*
X151804779Y-145852933D01*
X151804779Y-145852933D02*
X151755624Y-145877510D01*
X151755624Y-145877510D02*
X151706469Y-145877510D01*
X151706469Y-145877510D02*
X151657314Y-145852933D01*
X151657314Y-145852933D02*
X151632737Y-145828355D01*
X151632737Y-145828355D02*
X151608159Y-145779200D01*
X151608159Y-145779200D02*
X151583582Y-145680890D01*
X151583582Y-145680890D02*
X151583582Y-145558002D01*
X151583582Y-145558002D02*
X151608159Y-145459692D01*
X151608159Y-145459692D02*
X151632737Y-145410537D01*
X151632737Y-145410537D02*
X151657314Y-145385960D01*
X151657314Y-145385960D02*
X151706469Y-145361382D01*
%TO.C,R1*%
X153017521Y-61410524D02*
X152625345Y-60850272D01*
X152345219Y-61410524D02*
X152345219Y-60233996D01*
X152345219Y-60233996D02*
X152793420Y-60233996D01*
X152793420Y-60233996D02*
X152905471Y-60290021D01*
X152905471Y-60290021D02*
X152961496Y-60346046D01*
X152961496Y-60346046D02*
X153017521Y-60458096D01*
X153017521Y-60458096D02*
X153017521Y-60626172D01*
X153017521Y-60626172D02*
X152961496Y-60738222D01*
X152961496Y-60738222D02*
X152905471Y-60794247D01*
X152905471Y-60794247D02*
X152793420Y-60850272D01*
X152793420Y-60850272D02*
X152345219Y-60850272D01*
X154138024Y-61410524D02*
X153465722Y-61410524D01*
X153801873Y-61410524D02*
X153801873Y-60233996D01*
X153801873Y-60233996D02*
X153689823Y-60402071D01*
X153689823Y-60402071D02*
X153577772Y-60514121D01*
X153577772Y-60514121D02*
X153465722Y-60570147D01*
X152961496Y-62934524D02*
X152289194Y-62934524D01*
X152625345Y-62934524D02*
X152625345Y-61757996D01*
X152625345Y-61757996D02*
X152513295Y-61926071D01*
X152513295Y-61926071D02*
X152401244Y-62038121D01*
X152401244Y-62038121D02*
X152289194Y-62094147D01*
X153689823Y-61757996D02*
X153801873Y-61757996D01*
X153801873Y-61757996D02*
X153913923Y-61814021D01*
X153913923Y-61814021D02*
X153969949Y-61870046D01*
X153969949Y-61870046D02*
X154025974Y-61982096D01*
X154025974Y-61982096D02*
X154081999Y-62206197D01*
X154081999Y-62206197D02*
X154081999Y-62486323D01*
X154081999Y-62486323D02*
X154025974Y-62710423D01*
X154025974Y-62710423D02*
X153969949Y-62822473D01*
X153969949Y-62822473D02*
X153913923Y-62878499D01*
X153913923Y-62878499D02*
X153801873Y-62934524D01*
X153801873Y-62934524D02*
X153689823Y-62934524D01*
X153689823Y-62934524D02*
X153577773Y-62878499D01*
X153577773Y-62878499D02*
X153521747Y-62822473D01*
X153521747Y-62822473D02*
X153465722Y-62710423D01*
X153465722Y-62710423D02*
X153409697Y-62486323D01*
X153409697Y-62486323D02*
X153409697Y-62206197D01*
X153409697Y-62206197D02*
X153465722Y-61982096D01*
X153465722Y-61982096D02*
X153521747Y-61870046D01*
X153521747Y-61870046D02*
X153577773Y-61814021D01*
X153577773Y-61814021D02*
X153689823Y-61757996D01*
X154586225Y-62934524D02*
X154586225Y-61757996D01*
X154698276Y-62486323D02*
X155034426Y-62934524D01*
X155034426Y-62150172D02*
X154586225Y-62598373D01*
X155930828Y-62318247D02*
X156098904Y-62374272D01*
X156098904Y-62374272D02*
X156154929Y-62430297D01*
X156154929Y-62430297D02*
X156210954Y-62542348D01*
X156210954Y-62542348D02*
X156210954Y-62710423D01*
X156210954Y-62710423D02*
X156154929Y-62822473D01*
X156154929Y-62822473D02*
X156098904Y-62878499D01*
X156098904Y-62878499D02*
X155986853Y-62934524D01*
X155986853Y-62934524D02*
X155538652Y-62934524D01*
X155538652Y-62934524D02*
X155538652Y-61757996D01*
X155538652Y-61757996D02*
X155930828Y-61757996D01*
X155930828Y-61757996D02*
X156042879Y-61814021D01*
X156042879Y-61814021D02*
X156098904Y-61870046D01*
X156098904Y-61870046D02*
X156154929Y-61982096D01*
X156154929Y-61982096D02*
X156154929Y-62094147D01*
X156154929Y-62094147D02*
X156098904Y-62206197D01*
X156098904Y-62206197D02*
X156042879Y-62262222D01*
X156042879Y-62262222D02*
X155930828Y-62318247D01*
X155930828Y-62318247D02*
X155538652Y-62318247D01*
D16*
%TO.C,SW1*%
X138000034Y-59710355D02*
X138033295Y-59610569D01*
X138033295Y-59610569D02*
X138033295Y-59444260D01*
X138033295Y-59444260D02*
X138000034Y-59377736D01*
X138000034Y-59377736D02*
X137966772Y-59344474D01*
X137966772Y-59344474D02*
X137900248Y-59311212D01*
X137900248Y-59311212D02*
X137833724Y-59311212D01*
X137833724Y-59311212D02*
X137767200Y-59344474D01*
X137767200Y-59344474D02*
X137733938Y-59377736D01*
X137733938Y-59377736D02*
X137700676Y-59444260D01*
X137700676Y-59444260D02*
X137667414Y-59577307D01*
X137667414Y-59577307D02*
X137634153Y-59643831D01*
X137634153Y-59643831D02*
X137600891Y-59677093D01*
X137600891Y-59677093D02*
X137534367Y-59710355D01*
X137534367Y-59710355D02*
X137467843Y-59710355D01*
X137467843Y-59710355D02*
X137401319Y-59677093D01*
X137401319Y-59677093D02*
X137368057Y-59643831D01*
X137368057Y-59643831D02*
X137334795Y-59577307D01*
X137334795Y-59577307D02*
X137334795Y-59410998D01*
X137334795Y-59410998D02*
X137368057Y-59311212D01*
X137334795Y-59078379D02*
X138033295Y-58912069D01*
X138033295Y-58912069D02*
X137534367Y-58779022D01*
X137534367Y-58779022D02*
X138033295Y-58645974D01*
X138033295Y-58645974D02*
X137334795Y-58479665D01*
X138033295Y-57847688D02*
X138033295Y-58246831D01*
X138033295Y-58047259D02*
X137334795Y-58047259D01*
X137334795Y-58047259D02*
X137434581Y-58113783D01*
X137434581Y-58113783D02*
X137501105Y-58180307D01*
X137501105Y-58180307D02*
X137534367Y-58246831D01*
D13*
%TO.C,R3*%
X145180411Y-73805010D02*
X145008369Y-73559235D01*
X144885481Y-73805010D02*
X144885481Y-73288882D01*
X144885481Y-73288882D02*
X145082101Y-73288882D01*
X145082101Y-73288882D02*
X145131256Y-73313460D01*
X145131256Y-73313460D02*
X145155834Y-73338037D01*
X145155834Y-73338037D02*
X145180411Y-73387192D01*
X145180411Y-73387192D02*
X145180411Y-73460925D01*
X145180411Y-73460925D02*
X145155834Y-73510080D01*
X145155834Y-73510080D02*
X145131256Y-73534657D01*
X145131256Y-73534657D02*
X145082101Y-73559235D01*
X145082101Y-73559235D02*
X144885481Y-73559235D01*
X145352454Y-73288882D02*
X145671962Y-73288882D01*
X145671962Y-73288882D02*
X145499919Y-73485502D01*
X145499919Y-73485502D02*
X145573652Y-73485502D01*
X145573652Y-73485502D02*
X145622807Y-73510080D01*
X145622807Y-73510080D02*
X145647384Y-73534657D01*
X145647384Y-73534657D02*
X145671962Y-73583812D01*
X145671962Y-73583812D02*
X145671962Y-73706700D01*
X145671962Y-73706700D02*
X145647384Y-73755855D01*
X145647384Y-73755855D02*
X145622807Y-73780433D01*
X145622807Y-73780433D02*
X145573652Y-73805010D01*
X145573652Y-73805010D02*
X145426187Y-73805010D01*
X145426187Y-73805010D02*
X145377032Y-73780433D01*
X145377032Y-73780433D02*
X145352454Y-73755855D01*
%TO.C,R24*%
X147402911Y-134765010D02*
X147230869Y-134519235D01*
X147107981Y-134765010D02*
X147107981Y-134248882D01*
X147107981Y-134248882D02*
X147304601Y-134248882D01*
X147304601Y-134248882D02*
X147353756Y-134273460D01*
X147353756Y-134273460D02*
X147378334Y-134298037D01*
X147378334Y-134298037D02*
X147402911Y-134347192D01*
X147402911Y-134347192D02*
X147402911Y-134420925D01*
X147402911Y-134420925D02*
X147378334Y-134470080D01*
X147378334Y-134470080D02*
X147353756Y-134494657D01*
X147353756Y-134494657D02*
X147304601Y-134519235D01*
X147304601Y-134519235D02*
X147107981Y-134519235D01*
X147599532Y-134298037D02*
X147624109Y-134273460D01*
X147624109Y-134273460D02*
X147673264Y-134248882D01*
X147673264Y-134248882D02*
X147796152Y-134248882D01*
X147796152Y-134248882D02*
X147845307Y-134273460D01*
X147845307Y-134273460D02*
X147869884Y-134298037D01*
X147869884Y-134298037D02*
X147894462Y-134347192D01*
X147894462Y-134347192D02*
X147894462Y-134396347D01*
X147894462Y-134396347D02*
X147869884Y-134470080D01*
X147869884Y-134470080D02*
X147574954Y-134765010D01*
X147574954Y-134765010D02*
X147894462Y-134765010D01*
X148336857Y-134420925D02*
X148336857Y-134765010D01*
X148213969Y-134224305D02*
X148091082Y-134592967D01*
X148091082Y-134592967D02*
X148410589Y-134592967D01*
%TO.C,J4*%
X164691370Y-146356496D02*
X164691370Y-147196873D01*
X164691370Y-147196873D02*
X164635345Y-147364948D01*
X164635345Y-147364948D02*
X164523295Y-147476999D01*
X164523295Y-147476999D02*
X164355219Y-147533024D01*
X164355219Y-147533024D02*
X164243169Y-147533024D01*
X165755848Y-146748672D02*
X165755848Y-147533024D01*
X165475722Y-146300471D02*
X165195596Y-147140848D01*
X165195596Y-147140848D02*
X165923923Y-147140848D01*
%TO.C,R25*%
X160102911Y-144290010D02*
X159930869Y-144044235D01*
X159807981Y-144290010D02*
X159807981Y-143773882D01*
X159807981Y-143773882D02*
X160004601Y-143773882D01*
X160004601Y-143773882D02*
X160053756Y-143798460D01*
X160053756Y-143798460D02*
X160078334Y-143823037D01*
X160078334Y-143823037D02*
X160102911Y-143872192D01*
X160102911Y-143872192D02*
X160102911Y-143945925D01*
X160102911Y-143945925D02*
X160078334Y-143995080D01*
X160078334Y-143995080D02*
X160053756Y-144019657D01*
X160053756Y-144019657D02*
X160004601Y-144044235D01*
X160004601Y-144044235D02*
X159807981Y-144044235D01*
X160299532Y-143823037D02*
X160324109Y-143798460D01*
X160324109Y-143798460D02*
X160373264Y-143773882D01*
X160373264Y-143773882D02*
X160496152Y-143773882D01*
X160496152Y-143773882D02*
X160545307Y-143798460D01*
X160545307Y-143798460D02*
X160569884Y-143823037D01*
X160569884Y-143823037D02*
X160594462Y-143872192D01*
X160594462Y-143872192D02*
X160594462Y-143921347D01*
X160594462Y-143921347D02*
X160569884Y-143995080D01*
X160569884Y-143995080D02*
X160274954Y-144290010D01*
X160274954Y-144290010D02*
X160594462Y-144290010D01*
X161061434Y-143773882D02*
X160815659Y-143773882D01*
X160815659Y-143773882D02*
X160791082Y-144019657D01*
X160791082Y-144019657D02*
X160815659Y-143995080D01*
X160815659Y-143995080D02*
X160864814Y-143970502D01*
X160864814Y-143970502D02*
X160987702Y-143970502D01*
X160987702Y-143970502D02*
X161036857Y-143995080D01*
X161036857Y-143995080D02*
X161061434Y-144019657D01*
X161061434Y-144019657D02*
X161086012Y-144068812D01*
X161086012Y-144068812D02*
X161086012Y-144191700D01*
X161086012Y-144191700D02*
X161061434Y-144240855D01*
X161061434Y-144240855D02*
X161036857Y-144265433D01*
X161036857Y-144265433D02*
X160987702Y-144290010D01*
X160987702Y-144290010D02*
X160864814Y-144290010D01*
X160864814Y-144290010D02*
X160815659Y-144265433D01*
X160815659Y-144265433D02*
X160791082Y-144240855D01*
%TO.C,R14*%
X147402911Y-114762510D02*
X147230869Y-114516735D01*
X147107981Y-114762510D02*
X147107981Y-114246382D01*
X147107981Y-114246382D02*
X147304601Y-114246382D01*
X147304601Y-114246382D02*
X147353756Y-114270960D01*
X147353756Y-114270960D02*
X147378334Y-114295537D01*
X147378334Y-114295537D02*
X147402911Y-114344692D01*
X147402911Y-114344692D02*
X147402911Y-114418425D01*
X147402911Y-114418425D02*
X147378334Y-114467580D01*
X147378334Y-114467580D02*
X147353756Y-114492157D01*
X147353756Y-114492157D02*
X147304601Y-114516735D01*
X147304601Y-114516735D02*
X147107981Y-114516735D01*
X147894462Y-114762510D02*
X147599532Y-114762510D01*
X147746997Y-114762510D02*
X147746997Y-114246382D01*
X147746997Y-114246382D02*
X147697842Y-114320115D01*
X147697842Y-114320115D02*
X147648687Y-114369270D01*
X147648687Y-114369270D02*
X147599532Y-114393847D01*
X148336857Y-114418425D02*
X148336857Y-114762510D01*
X148213969Y-114221805D02*
X148091082Y-114590467D01*
X148091082Y-114590467D02*
X148410589Y-114590467D01*
%TO.C,R6*%
X131600010Y-87239954D02*
X131354235Y-87411996D01*
X131600010Y-87534884D02*
X131083882Y-87534884D01*
X131083882Y-87534884D02*
X131083882Y-87338264D01*
X131083882Y-87338264D02*
X131108460Y-87289109D01*
X131108460Y-87289109D02*
X131133037Y-87264531D01*
X131133037Y-87264531D02*
X131182192Y-87239954D01*
X131182192Y-87239954D02*
X131255925Y-87239954D01*
X131255925Y-87239954D02*
X131305080Y-87264531D01*
X131305080Y-87264531D02*
X131329657Y-87289109D01*
X131329657Y-87289109D02*
X131354235Y-87338264D01*
X131354235Y-87338264D02*
X131354235Y-87534884D01*
X131083882Y-86797558D02*
X131083882Y-86895868D01*
X131083882Y-86895868D02*
X131108460Y-86945023D01*
X131108460Y-86945023D02*
X131133037Y-86969601D01*
X131133037Y-86969601D02*
X131206770Y-87018756D01*
X131206770Y-87018756D02*
X131305080Y-87043333D01*
X131305080Y-87043333D02*
X131501700Y-87043333D01*
X131501700Y-87043333D02*
X131550855Y-87018756D01*
X131550855Y-87018756D02*
X131575433Y-86994178D01*
X131575433Y-86994178D02*
X131600010Y-86945023D01*
X131600010Y-86945023D02*
X131600010Y-86846713D01*
X131600010Y-86846713D02*
X131575433Y-86797558D01*
X131575433Y-86797558D02*
X131550855Y-86772981D01*
X131550855Y-86772981D02*
X131501700Y-86748403D01*
X131501700Y-86748403D02*
X131378812Y-86748403D01*
X131378812Y-86748403D02*
X131329657Y-86772981D01*
X131329657Y-86772981D02*
X131305080Y-86797558D01*
X131305080Y-86797558D02*
X131280502Y-86846713D01*
X131280502Y-86846713D02*
X131280502Y-86945023D01*
X131280502Y-86945023D02*
X131305080Y-86994178D01*
X131305080Y-86994178D02*
X131329657Y-87018756D01*
X131329657Y-87018756D02*
X131378812Y-87043333D01*
%TO.C,C13*%
X148355411Y-108998355D02*
X148330834Y-109022933D01*
X148330834Y-109022933D02*
X148257101Y-109047510D01*
X148257101Y-109047510D02*
X148207946Y-109047510D01*
X148207946Y-109047510D02*
X148134214Y-109022933D01*
X148134214Y-109022933D02*
X148085059Y-108973777D01*
X148085059Y-108973777D02*
X148060481Y-108924622D01*
X148060481Y-108924622D02*
X148035904Y-108826312D01*
X148035904Y-108826312D02*
X148035904Y-108752580D01*
X148035904Y-108752580D02*
X148060481Y-108654270D01*
X148060481Y-108654270D02*
X148085059Y-108605115D01*
X148085059Y-108605115D02*
X148134214Y-108555960D01*
X148134214Y-108555960D02*
X148207946Y-108531382D01*
X148207946Y-108531382D02*
X148257101Y-108531382D01*
X148257101Y-108531382D02*
X148330834Y-108555960D01*
X148330834Y-108555960D02*
X148355411Y-108580537D01*
X148846962Y-109047510D02*
X148552032Y-109047510D01*
X148699497Y-109047510D02*
X148699497Y-108531382D01*
X148699497Y-108531382D02*
X148650342Y-108605115D01*
X148650342Y-108605115D02*
X148601187Y-108654270D01*
X148601187Y-108654270D02*
X148552032Y-108678847D01*
X149019004Y-108531382D02*
X149338512Y-108531382D01*
X149338512Y-108531382D02*
X149166469Y-108728002D01*
X149166469Y-108728002D02*
X149240202Y-108728002D01*
X149240202Y-108728002D02*
X149289357Y-108752580D01*
X149289357Y-108752580D02*
X149313934Y-108777157D01*
X149313934Y-108777157D02*
X149338512Y-108826312D01*
X149338512Y-108826312D02*
X149338512Y-108949200D01*
X149338512Y-108949200D02*
X149313934Y-108998355D01*
X149313934Y-108998355D02*
X149289357Y-109022933D01*
X149289357Y-109022933D02*
X149240202Y-109047510D01*
X149240202Y-109047510D02*
X149092737Y-109047510D01*
X149092737Y-109047510D02*
X149043582Y-109022933D01*
X149043582Y-109022933D02*
X149019004Y-108998355D01*
%TO.C,C5*%
X140758355Y-80711788D02*
X140782933Y-80736365D01*
X140782933Y-80736365D02*
X140807510Y-80810098D01*
X140807510Y-80810098D02*
X140807510Y-80859253D01*
X140807510Y-80859253D02*
X140782933Y-80932985D01*
X140782933Y-80932985D02*
X140733777Y-80982140D01*
X140733777Y-80982140D02*
X140684622Y-81006718D01*
X140684622Y-81006718D02*
X140586312Y-81031295D01*
X140586312Y-81031295D02*
X140512580Y-81031295D01*
X140512580Y-81031295D02*
X140414270Y-81006718D01*
X140414270Y-81006718D02*
X140365115Y-80982140D01*
X140365115Y-80982140D02*
X140315960Y-80932985D01*
X140315960Y-80932985D02*
X140291382Y-80859253D01*
X140291382Y-80859253D02*
X140291382Y-80810098D01*
X140291382Y-80810098D02*
X140315960Y-80736365D01*
X140315960Y-80736365D02*
X140340537Y-80711788D01*
X140291382Y-80244815D02*
X140291382Y-80490590D01*
X140291382Y-80490590D02*
X140537157Y-80515167D01*
X140537157Y-80515167D02*
X140512580Y-80490590D01*
X140512580Y-80490590D02*
X140488002Y-80441435D01*
X140488002Y-80441435D02*
X140488002Y-80318547D01*
X140488002Y-80318547D02*
X140512580Y-80269392D01*
X140512580Y-80269392D02*
X140537157Y-80244815D01*
X140537157Y-80244815D02*
X140586312Y-80220237D01*
X140586312Y-80220237D02*
X140709200Y-80220237D01*
X140709200Y-80220237D02*
X140758355Y-80244815D01*
X140758355Y-80244815D02*
X140782933Y-80269392D01*
X140782933Y-80269392D02*
X140807510Y-80318547D01*
X140807510Y-80318547D02*
X140807510Y-80441435D01*
X140807510Y-80441435D02*
X140782933Y-80490590D01*
X140782933Y-80490590D02*
X140758355Y-80515167D01*
%TO.C,C16*%
X142980855Y-118494288D02*
X143005433Y-118518865D01*
X143005433Y-118518865D02*
X143030010Y-118592598D01*
X143030010Y-118592598D02*
X143030010Y-118641753D01*
X143030010Y-118641753D02*
X143005433Y-118715485D01*
X143005433Y-118715485D02*
X142956277Y-118764640D01*
X142956277Y-118764640D02*
X142907122Y-118789218D01*
X142907122Y-118789218D02*
X142808812Y-118813795D01*
X142808812Y-118813795D02*
X142735080Y-118813795D01*
X142735080Y-118813795D02*
X142636770Y-118789218D01*
X142636770Y-118789218D02*
X142587615Y-118764640D01*
X142587615Y-118764640D02*
X142538460Y-118715485D01*
X142538460Y-118715485D02*
X142513882Y-118641753D01*
X142513882Y-118641753D02*
X142513882Y-118592598D01*
X142513882Y-118592598D02*
X142538460Y-118518865D01*
X142538460Y-118518865D02*
X142563037Y-118494288D01*
X143030010Y-118002737D02*
X143030010Y-118297667D01*
X143030010Y-118150202D02*
X142513882Y-118150202D01*
X142513882Y-118150202D02*
X142587615Y-118199357D01*
X142587615Y-118199357D02*
X142636770Y-118248512D01*
X142636770Y-118248512D02*
X142661347Y-118297667D01*
X142513882Y-117560342D02*
X142513882Y-117658652D01*
X142513882Y-117658652D02*
X142538460Y-117707807D01*
X142538460Y-117707807D02*
X142563037Y-117732385D01*
X142563037Y-117732385D02*
X142636770Y-117781540D01*
X142636770Y-117781540D02*
X142735080Y-117806117D01*
X142735080Y-117806117D02*
X142931700Y-117806117D01*
X142931700Y-117806117D02*
X142980855Y-117781540D01*
X142980855Y-117781540D02*
X143005433Y-117756962D01*
X143005433Y-117756962D02*
X143030010Y-117707807D01*
X143030010Y-117707807D02*
X143030010Y-117609497D01*
X143030010Y-117609497D02*
X143005433Y-117560342D01*
X143005433Y-117560342D02*
X142980855Y-117535765D01*
X142980855Y-117535765D02*
X142931700Y-117511187D01*
X142931700Y-117511187D02*
X142808812Y-117511187D01*
X142808812Y-117511187D02*
X142759657Y-117535765D01*
X142759657Y-117535765D02*
X142735080Y-117560342D01*
X142735080Y-117560342D02*
X142710502Y-117609497D01*
X142710502Y-117609497D02*
X142710502Y-117707807D01*
X142710502Y-117707807D02*
X142735080Y-117756962D01*
X142735080Y-117756962D02*
X142759657Y-117781540D01*
X142759657Y-117781540D02*
X142808812Y-117806117D01*
%TO.C,J3*%
X153261370Y-146356496D02*
X153261370Y-147196873D01*
X153261370Y-147196873D02*
X153205345Y-147364948D01*
X153205345Y-147364948D02*
X153093295Y-147476999D01*
X153093295Y-147476999D02*
X152925219Y-147533024D01*
X152925219Y-147533024D02*
X152813169Y-147533024D01*
X153709571Y-146356496D02*
X154437898Y-146356496D01*
X154437898Y-146356496D02*
X154045722Y-146804697D01*
X154045722Y-146804697D02*
X154213797Y-146804697D01*
X154213797Y-146804697D02*
X154325848Y-146860722D01*
X154325848Y-146860722D02*
X154381873Y-146916747D01*
X154381873Y-146916747D02*
X154437898Y-147028797D01*
X154437898Y-147028797D02*
X154437898Y-147308923D01*
X154437898Y-147308923D02*
X154381873Y-147420973D01*
X154381873Y-147420973D02*
X154325848Y-147476999D01*
X154325848Y-147476999D02*
X154213797Y-147533024D01*
X154213797Y-147533024D02*
X153877646Y-147533024D01*
X153877646Y-147533024D02*
X153765596Y-147476999D01*
X153765596Y-147476999D02*
X153709571Y-147420973D01*
%TO.C,Q2*%
X135380966Y-115230565D02*
X135331811Y-115205988D01*
X135331811Y-115205988D02*
X135282656Y-115156833D01*
X135282656Y-115156833D02*
X135208924Y-115083100D01*
X135208924Y-115083100D02*
X135159769Y-115058522D01*
X135159769Y-115058522D02*
X135110614Y-115058522D01*
X135135191Y-115181410D02*
X135086036Y-115156833D01*
X135086036Y-115156833D02*
X135036881Y-115107677D01*
X135036881Y-115107677D02*
X135012304Y-115009367D01*
X135012304Y-115009367D02*
X135012304Y-114837325D01*
X135012304Y-114837325D02*
X135036881Y-114739015D01*
X135036881Y-114739015D02*
X135086036Y-114689860D01*
X135086036Y-114689860D02*
X135135191Y-114665282D01*
X135135191Y-114665282D02*
X135233501Y-114665282D01*
X135233501Y-114665282D02*
X135282656Y-114689860D01*
X135282656Y-114689860D02*
X135331811Y-114739015D01*
X135331811Y-114739015D02*
X135356389Y-114837325D01*
X135356389Y-114837325D02*
X135356389Y-115009367D01*
X135356389Y-115009367D02*
X135331811Y-115107677D01*
X135331811Y-115107677D02*
X135282656Y-115156833D01*
X135282656Y-115156833D02*
X135233501Y-115181410D01*
X135233501Y-115181410D02*
X135135191Y-115181410D01*
X135553010Y-114714437D02*
X135577587Y-114689860D01*
X135577587Y-114689860D02*
X135626742Y-114665282D01*
X135626742Y-114665282D02*
X135749630Y-114665282D01*
X135749630Y-114665282D02*
X135798785Y-114689860D01*
X135798785Y-114689860D02*
X135823362Y-114714437D01*
X135823362Y-114714437D02*
X135847940Y-114763592D01*
X135847940Y-114763592D02*
X135847940Y-114812747D01*
X135847940Y-114812747D02*
X135823362Y-114886480D01*
X135823362Y-114886480D02*
X135528432Y-115181410D01*
X135528432Y-115181410D02*
X135847940Y-115181410D01*
%TO.C,R8*%
X131600010Y-98352454D02*
X131354235Y-98524496D01*
X131600010Y-98647384D02*
X131083882Y-98647384D01*
X131083882Y-98647384D02*
X131083882Y-98450764D01*
X131083882Y-98450764D02*
X131108460Y-98401609D01*
X131108460Y-98401609D02*
X131133037Y-98377031D01*
X131133037Y-98377031D02*
X131182192Y-98352454D01*
X131182192Y-98352454D02*
X131255925Y-98352454D01*
X131255925Y-98352454D02*
X131305080Y-98377031D01*
X131305080Y-98377031D02*
X131329657Y-98401609D01*
X131329657Y-98401609D02*
X131354235Y-98450764D01*
X131354235Y-98450764D02*
X131354235Y-98647384D01*
X131305080Y-98057523D02*
X131280502Y-98106678D01*
X131280502Y-98106678D02*
X131255925Y-98131256D01*
X131255925Y-98131256D02*
X131206770Y-98155833D01*
X131206770Y-98155833D02*
X131182192Y-98155833D01*
X131182192Y-98155833D02*
X131133037Y-98131256D01*
X131133037Y-98131256D02*
X131108460Y-98106678D01*
X131108460Y-98106678D02*
X131083882Y-98057523D01*
X131083882Y-98057523D02*
X131083882Y-97959213D01*
X131083882Y-97959213D02*
X131108460Y-97910058D01*
X131108460Y-97910058D02*
X131133037Y-97885481D01*
X131133037Y-97885481D02*
X131182192Y-97860903D01*
X131182192Y-97860903D02*
X131206770Y-97860903D01*
X131206770Y-97860903D02*
X131255925Y-97885481D01*
X131255925Y-97885481D02*
X131280502Y-97910058D01*
X131280502Y-97910058D02*
X131305080Y-97959213D01*
X131305080Y-97959213D02*
X131305080Y-98057523D01*
X131305080Y-98057523D02*
X131329657Y-98106678D01*
X131329657Y-98106678D02*
X131354235Y-98131256D01*
X131354235Y-98131256D02*
X131403390Y-98155833D01*
X131403390Y-98155833D02*
X131501700Y-98155833D01*
X131501700Y-98155833D02*
X131550855Y-98131256D01*
X131550855Y-98131256D02*
X131575433Y-98106678D01*
X131575433Y-98106678D02*
X131600010Y-98057523D01*
X131600010Y-98057523D02*
X131600010Y-97959213D01*
X131600010Y-97959213D02*
X131575433Y-97910058D01*
X131575433Y-97910058D02*
X131550855Y-97885481D01*
X131550855Y-97885481D02*
X131501700Y-97860903D01*
X131501700Y-97860903D02*
X131403390Y-97860903D01*
X131403390Y-97860903D02*
X131354235Y-97885481D01*
X131354235Y-97885481D02*
X131329657Y-97910058D01*
X131329657Y-97910058D02*
X131305080Y-97959213D01*
%TO.C,R13*%
X162533910Y-115920688D02*
X162288135Y-116092730D01*
X162533910Y-116215618D02*
X162017782Y-116215618D01*
X162017782Y-116215618D02*
X162017782Y-116018998D01*
X162017782Y-116018998D02*
X162042360Y-115969843D01*
X162042360Y-115969843D02*
X162066937Y-115945265D01*
X162066937Y-115945265D02*
X162116092Y-115920688D01*
X162116092Y-115920688D02*
X162189825Y-115920688D01*
X162189825Y-115920688D02*
X162238980Y-115945265D01*
X162238980Y-115945265D02*
X162263557Y-115969843D01*
X162263557Y-115969843D02*
X162288135Y-116018998D01*
X162288135Y-116018998D02*
X162288135Y-116215618D01*
X162533910Y-115429137D02*
X162533910Y-115724067D01*
X162533910Y-115576602D02*
X162017782Y-115576602D01*
X162017782Y-115576602D02*
X162091515Y-115625757D01*
X162091515Y-115625757D02*
X162140670Y-115674912D01*
X162140670Y-115674912D02*
X162165247Y-115724067D01*
X162017782Y-115257095D02*
X162017782Y-114937587D01*
X162017782Y-114937587D02*
X162214402Y-115109630D01*
X162214402Y-115109630D02*
X162214402Y-115035897D01*
X162214402Y-115035897D02*
X162238980Y-114986742D01*
X162238980Y-114986742D02*
X162263557Y-114962165D01*
X162263557Y-114962165D02*
X162312712Y-114937587D01*
X162312712Y-114937587D02*
X162435600Y-114937587D01*
X162435600Y-114937587D02*
X162484755Y-114962165D01*
X162484755Y-114962165D02*
X162509333Y-114986742D01*
X162509333Y-114986742D02*
X162533910Y-115035897D01*
X162533910Y-115035897D02*
X162533910Y-115183362D01*
X162533910Y-115183362D02*
X162509333Y-115232517D01*
X162509333Y-115232517D02*
X162484755Y-115257095D01*
D15*
%TO.C,IC4*%
X149779078Y-118273929D02*
X149779078Y-117433189D01*
X150659853Y-118193858D02*
X150619817Y-118233894D01*
X150619817Y-118233894D02*
X150499712Y-118273929D01*
X150499712Y-118273929D02*
X150419641Y-118273929D01*
X150419641Y-118273929D02*
X150299535Y-118233894D01*
X150299535Y-118233894D02*
X150219465Y-118153823D01*
X150219465Y-118153823D02*
X150179430Y-118073753D01*
X150179430Y-118073753D02*
X150139394Y-117913612D01*
X150139394Y-117913612D02*
X150139394Y-117793506D01*
X150139394Y-117793506D02*
X150179430Y-117633365D01*
X150179430Y-117633365D02*
X150219465Y-117553294D01*
X150219465Y-117553294D02*
X150299535Y-117473224D01*
X150299535Y-117473224D02*
X150419641Y-117433189D01*
X150419641Y-117433189D02*
X150499712Y-117433189D01*
X150499712Y-117433189D02*
X150619817Y-117473224D01*
X150619817Y-117473224D02*
X150659853Y-117513259D01*
X151380487Y-117713435D02*
X151380487Y-118273929D01*
X151180311Y-117393154D02*
X150980134Y-117993682D01*
X150980134Y-117993682D02*
X151500593Y-117993682D01*
D13*
%TO.C,R9*%
X151602510Y-100079288D02*
X151356735Y-100251330D01*
X151602510Y-100374218D02*
X151086382Y-100374218D01*
X151086382Y-100374218D02*
X151086382Y-100177598D01*
X151086382Y-100177598D02*
X151110960Y-100128443D01*
X151110960Y-100128443D02*
X151135537Y-100103865D01*
X151135537Y-100103865D02*
X151184692Y-100079288D01*
X151184692Y-100079288D02*
X151258425Y-100079288D01*
X151258425Y-100079288D02*
X151307580Y-100103865D01*
X151307580Y-100103865D02*
X151332157Y-100128443D01*
X151332157Y-100128443D02*
X151356735Y-100177598D01*
X151356735Y-100177598D02*
X151356735Y-100374218D01*
X151602510Y-99833512D02*
X151602510Y-99735202D01*
X151602510Y-99735202D02*
X151577933Y-99686047D01*
X151577933Y-99686047D02*
X151553355Y-99661470D01*
X151553355Y-99661470D02*
X151479622Y-99612315D01*
X151479622Y-99612315D02*
X151381312Y-99587737D01*
X151381312Y-99587737D02*
X151184692Y-99587737D01*
X151184692Y-99587737D02*
X151135537Y-99612315D01*
X151135537Y-99612315D02*
X151110960Y-99636892D01*
X151110960Y-99636892D02*
X151086382Y-99686047D01*
X151086382Y-99686047D02*
X151086382Y-99784357D01*
X151086382Y-99784357D02*
X151110960Y-99833512D01*
X151110960Y-99833512D02*
X151135537Y-99858090D01*
X151135537Y-99858090D02*
X151184692Y-99882667D01*
X151184692Y-99882667D02*
X151307580Y-99882667D01*
X151307580Y-99882667D02*
X151356735Y-99858090D01*
X151356735Y-99858090D02*
X151381312Y-99833512D01*
X151381312Y-99833512D02*
X151405890Y-99784357D01*
X151405890Y-99784357D02*
X151405890Y-99686047D01*
X151405890Y-99686047D02*
X151381312Y-99636892D01*
X151381312Y-99636892D02*
X151356735Y-99612315D01*
X151356735Y-99612315D02*
X151307580Y-99587737D01*
%TO.C,R5*%
X153017521Y-83318024D02*
X152625345Y-82757772D01*
X152345219Y-83318024D02*
X152345219Y-82141496D01*
X152345219Y-82141496D02*
X152793420Y-82141496D01*
X152793420Y-82141496D02*
X152905471Y-82197521D01*
X152905471Y-82197521D02*
X152961496Y-82253546D01*
X152961496Y-82253546D02*
X153017521Y-82365596D01*
X153017521Y-82365596D02*
X153017521Y-82533672D01*
X153017521Y-82533672D02*
X152961496Y-82645722D01*
X152961496Y-82645722D02*
X152905471Y-82701747D01*
X152905471Y-82701747D02*
X152793420Y-82757772D01*
X152793420Y-82757772D02*
X152345219Y-82757772D01*
X154081999Y-82141496D02*
X153521747Y-82141496D01*
X153521747Y-82141496D02*
X153465722Y-82701747D01*
X153465722Y-82701747D02*
X153521747Y-82645722D01*
X153521747Y-82645722D02*
X153633798Y-82589697D01*
X153633798Y-82589697D02*
X153913923Y-82589697D01*
X153913923Y-82589697D02*
X154025974Y-82645722D01*
X154025974Y-82645722D02*
X154081999Y-82701747D01*
X154081999Y-82701747D02*
X154138024Y-82813797D01*
X154138024Y-82813797D02*
X154138024Y-83093923D01*
X154138024Y-83093923D02*
X154081999Y-83205973D01*
X154081999Y-83205973D02*
X154025974Y-83261999D01*
X154025974Y-83261999D02*
X153913923Y-83318024D01*
X153913923Y-83318024D02*
X153633798Y-83318024D01*
X153633798Y-83318024D02*
X153521747Y-83261999D01*
X153521747Y-83261999D02*
X153465722Y-83205973D01*
X152961496Y-84842024D02*
X152289194Y-84842024D01*
X152625345Y-84842024D02*
X152625345Y-83665496D01*
X152625345Y-83665496D02*
X152513295Y-83833571D01*
X152513295Y-83833571D02*
X152401244Y-83945621D01*
X152401244Y-83945621D02*
X152289194Y-84001647D01*
X153689823Y-83665496D02*
X153801873Y-83665496D01*
X153801873Y-83665496D02*
X153913923Y-83721521D01*
X153913923Y-83721521D02*
X153969949Y-83777546D01*
X153969949Y-83777546D02*
X154025974Y-83889596D01*
X154025974Y-83889596D02*
X154081999Y-84113697D01*
X154081999Y-84113697D02*
X154081999Y-84393823D01*
X154081999Y-84393823D02*
X154025974Y-84617923D01*
X154025974Y-84617923D02*
X153969949Y-84729973D01*
X153969949Y-84729973D02*
X153913923Y-84785999D01*
X153913923Y-84785999D02*
X153801873Y-84842024D01*
X153801873Y-84842024D02*
X153689823Y-84842024D01*
X153689823Y-84842024D02*
X153577773Y-84785999D01*
X153577773Y-84785999D02*
X153521747Y-84729973D01*
X153521747Y-84729973D02*
X153465722Y-84617923D01*
X153465722Y-84617923D02*
X153409697Y-84393823D01*
X153409697Y-84393823D02*
X153409697Y-84113697D01*
X153409697Y-84113697D02*
X153465722Y-83889596D01*
X153465722Y-83889596D02*
X153521747Y-83777546D01*
X153521747Y-83777546D02*
X153577773Y-83721521D01*
X153577773Y-83721521D02*
X153689823Y-83665496D01*
X154586225Y-84842024D02*
X154586225Y-83665496D01*
X154698276Y-84393823D02*
X155034426Y-84842024D01*
X155034426Y-84057672D02*
X154586225Y-84505873D01*
X155930828Y-84225747D02*
X156098904Y-84281772D01*
X156098904Y-84281772D02*
X156154929Y-84337797D01*
X156154929Y-84337797D02*
X156210954Y-84449848D01*
X156210954Y-84449848D02*
X156210954Y-84617923D01*
X156210954Y-84617923D02*
X156154929Y-84729973D01*
X156154929Y-84729973D02*
X156098904Y-84785999D01*
X156098904Y-84785999D02*
X155986853Y-84842024D01*
X155986853Y-84842024D02*
X155538652Y-84842024D01*
X155538652Y-84842024D02*
X155538652Y-83665496D01*
X155538652Y-83665496D02*
X155930828Y-83665496D01*
X155930828Y-83665496D02*
X156042879Y-83721521D01*
X156042879Y-83721521D02*
X156098904Y-83777546D01*
X156098904Y-83777546D02*
X156154929Y-83889596D01*
X156154929Y-83889596D02*
X156154929Y-84001647D01*
X156154929Y-84001647D02*
X156098904Y-84113697D01*
X156098904Y-84113697D02*
X156042879Y-84169722D01*
X156042879Y-84169722D02*
X155930828Y-84225747D01*
X155930828Y-84225747D02*
X155538652Y-84225747D01*
D23*
%TO.C,J1*%
X129499200Y-127279400D02*
X129499200Y-118287800D01*
X139989400Y-127279400D02*
X129499200Y-127279400D01*
X129499200Y-118287800D02*
X139989400Y-118287800D01*
X139989400Y-118287800D02*
X139989400Y-127279400D01*
D24*
%TO.C,UC1*%
X147123600Y-92546100D02*
X146848600Y-92821100D01*
X147123600Y-86346100D02*
X147123600Y-92546100D01*
X146848600Y-92821100D02*
X140648600Y-92821100D01*
X146848600Y-86071100D02*
X147123600Y-86346100D01*
X140648600Y-92821100D02*
X140373600Y-92546100D01*
X140648600Y-86071100D02*
X146848600Y-86071100D01*
X140373600Y-92546100D02*
X140373600Y-86346100D01*
X140373600Y-86346100D02*
X140648600Y-86071100D01*
X146348600Y-87446100D02*
G75*
G03*
X146348600Y-87446100I-600000J0D01*
G01*
%TO.C,LED4*%
X133588600Y-88366600D02*
G75*
G03*
X131795700Y-89442400I60J-2032000D01*
G01*
D10*
X133588600Y-88874600D02*
G75*
G03*
X132369400Y-89484200I-1J-1523998D01*
G01*
D24*
X135149600Y-89097700D02*
G75*
G03*
X133588600Y-88366600I-1560986J-1300897D01*
G01*
D10*
X134828700Y-89512799D02*
G75*
G03*
X133588600Y-88874600I-1240133J-885800D01*
G01*
X132385600Y-91334200D02*
G75*
G03*
X133588600Y-91922600I1203008J935600D01*
G01*
D24*
X131824300Y-91406800D02*
G75*
G03*
X133588600Y-92430600I1764241J1008196D01*
G01*
D10*
X133588600Y-91922599D02*
G75*
G03*
X134791599Y-91334199I-8J1523999D01*
G01*
D24*
X133588600Y-92430600D02*
G75*
G03*
X135139800Y-91711200I36J2032003D01*
G01*
%TO.C,LED3*%
X133588600Y-82969100D02*
G75*
G03*
X131795700Y-84044900I60J-2032000D01*
G01*
D10*
X133588600Y-83477100D02*
G75*
G03*
X132369400Y-84086700I-1J-1523998D01*
G01*
D24*
X135149600Y-83700200D02*
G75*
G03*
X133588600Y-82969100I-1560986J-1300897D01*
G01*
D10*
X134828700Y-84115299D02*
G75*
G03*
X133588600Y-83477100I-1240133J-885800D01*
G01*
X132385600Y-85936700D02*
G75*
G03*
X133588600Y-86525100I1203008J935600D01*
G01*
D24*
X131824300Y-86009300D02*
G75*
G03*
X133588600Y-87033100I1764241J1008196D01*
G01*
D10*
X133588600Y-86525099D02*
G75*
G03*
X134791599Y-85936699I-8J1523999D01*
G01*
D24*
X133588600Y-87033100D02*
G75*
G03*
X135139800Y-86313700I36J2032003D01*
G01*
D23*
%TO.C,SW3*%
X162100000Y-118350000D02*
X167100000Y-118350000D01*
X162100000Y-120850000D02*
X162100000Y-118350000D01*
X167100000Y-118350000D02*
X167100000Y-120850000D01*
X167100000Y-120850000D02*
X162100000Y-120850000D01*
%TO.C,SW5*%
X167100000Y-124450000D02*
X162100000Y-124450000D01*
X167100000Y-121950000D02*
X167100000Y-124450000D01*
X162100000Y-124450000D02*
X162100000Y-121950000D01*
X162100000Y-121950000D02*
X167100000Y-121950000D01*
%TO.C,J2*%
X129499200Y-156489400D02*
X129499200Y-147497800D01*
X139989400Y-156489400D02*
X129499200Y-156489400D01*
X129499200Y-147497800D02*
X139989400Y-147497800D01*
X139989400Y-147497800D02*
X139989400Y-156489400D01*
D24*
%TO.C,LED2*%
X133588600Y-77571600D02*
G75*
G03*
X131795700Y-78647400I60J-2032000D01*
G01*
D10*
X133588600Y-78079600D02*
G75*
G03*
X132369400Y-78689200I-1J-1523998D01*
G01*
D24*
X135149600Y-78302700D02*
G75*
G03*
X133588600Y-77571600I-1560986J-1300897D01*
G01*
D10*
X134828700Y-78717799D02*
G75*
G03*
X133588600Y-78079600I-1240133J-885800D01*
G01*
X132385600Y-80539200D02*
G75*
G03*
X133588600Y-81127600I1203008J935600D01*
G01*
D24*
X131824300Y-80611800D02*
G75*
G03*
X133588600Y-81635600I1764241J1008196D01*
G01*
D10*
X133588600Y-81127599D02*
G75*
G03*
X134791599Y-80539199I-8J1523999D01*
G01*
D24*
X133588600Y-81635600D02*
G75*
G03*
X135139800Y-80916200I36J2032003D01*
G01*
D19*
%TO.C,C2*%
X143808600Y-63788600D02*
X139958600Y-63788600D01*
X143808600Y-62138600D02*
X143808600Y-63788600D01*
X143808600Y-58588600D02*
X143808600Y-60238600D01*
X139958600Y-63788600D02*
X138608600Y-62438600D01*
X139958600Y-58588600D02*
X143808600Y-58588600D01*
X138608600Y-62438600D02*
X138608600Y-62138600D01*
X138608600Y-60238600D02*
X138608600Y-59938600D01*
X138608600Y-59938600D02*
X139958600Y-58588600D01*
X138908601Y-62038600D02*
G75*
G03*
X143508599Y-62038600I2299999J850000D01*
G01*
X143508599Y-60338600D02*
G75*
G03*
X138908601Y-60338600I-2299999J-850000D01*
G01*
D24*
%TO.C,LED1*%
X133588600Y-64871600D02*
G75*
G03*
X131795700Y-65947400I60J-2032000D01*
G01*
D10*
X133588600Y-65379600D02*
G75*
G03*
X132369400Y-65989200I-1J-1523998D01*
G01*
D24*
X135149600Y-65602700D02*
G75*
G03*
X133588600Y-64871600I-1560986J-1300897D01*
G01*
D10*
X134828700Y-66017799D02*
G75*
G03*
X133588600Y-65379600I-1240133J-885800D01*
G01*
X132385600Y-67839200D02*
G75*
G03*
X133588600Y-68427600I1203008J935600D01*
G01*
D24*
X131824300Y-67911800D02*
G75*
G03*
X133588600Y-68935600I1764241J1008196D01*
G01*
D10*
X133588600Y-68427599D02*
G75*
G03*
X134791599Y-67839199I-8J1523999D01*
G01*
D24*
X133588600Y-68935600D02*
G75*
G03*
X135139800Y-68216200I36J2032003D01*
G01*
D23*
%TO.C,SW7*%
X130500000Y-141000000D02*
X130500000Y-134400000D01*
X134500000Y-131800000D02*
X134500000Y-132700000D01*
X134500000Y-132700000D02*
X136500000Y-132700000D01*
X134500000Y-142700000D02*
X136500000Y-142700000D01*
X134500000Y-143600000D02*
X134500000Y-142700000D01*
X136500000Y-132700000D02*
X136500000Y-131800000D01*
X136500000Y-142700000D02*
X136500000Y-143600000D01*
X130500000Y-141000000D02*
G75*
G03*
X130500000Y-134400000I5000000J3300000D01*
G01*
X140000000Y-137700000D02*
G75*
G03*
X140000000Y-137700000I-4500000J0D01*
G01*
D25*
%TO.C,L1*%
X147793600Y-63893600D02*
X147793600Y-62293600D01*
X148593600Y-62293600D02*
X148593600Y-63893600D01*
G36*
X148293600Y-63393600D02*
G01*
X148093600Y-63393600D01*
X148093600Y-62993600D01*
X148293600Y-62993600D01*
X148293600Y-63393600D01*
G37*
D19*
%TO.C,C1*%
X161468600Y-61248600D02*
X161468600Y-57398600D01*
X163118600Y-61248600D02*
X161468600Y-61248600D01*
X166668600Y-61248600D02*
X165018600Y-61248600D01*
X161468600Y-57398600D02*
X162818600Y-56048600D01*
X166668600Y-57398600D02*
X166668600Y-61248600D01*
X162818600Y-56048600D02*
X163118600Y-56048600D01*
X165018600Y-56048600D02*
X165318600Y-56048600D01*
X165318600Y-56048600D02*
X166668600Y-57398600D01*
X163218600Y-56348601D02*
G75*
G03*
X163218600Y-60948599I850000J-2299999D01*
G01*
X164918600Y-60948599D02*
G75*
G03*
X164918600Y-56348601I-850000J2299999D01*
G01*
D12*
%TO.C,D2*%
X157953600Y-55003600D02*
X157953600Y-55403600D01*
X157953600Y-55403600D02*
X157353600Y-55403600D01*
X157953600Y-55403600D02*
X157953600Y-55803600D01*
X157953600Y-55403600D02*
X158853600Y-55803600D01*
X158853600Y-55003600D02*
X157953600Y-55403600D01*
X158853600Y-55403600D02*
X159453600Y-55403600D01*
X158853600Y-55803600D02*
X158853600Y-55003600D01*
D26*
%TO.C,SW2*%
X132560600Y-76301600D02*
X134604600Y-76301600D01*
X136636600Y-75412600D02*
X136636600Y-71094600D01*
X130540600Y-71094600D02*
X130540600Y-75412600D01*
X132590600Y-70205600D02*
X134604600Y-70205600D01*
X135366600Y-73253600D02*
G75*
G03*
X135366600Y-73253600I-1778000J0D01*
G01*
D10*
%TO.C,IC1*%
X144332600Y-70539600D02*
X144332600Y-67079600D01*
X144332600Y-70539600D02*
X138084600Y-70539600D01*
X138084600Y-67079600D02*
X144332600Y-67079600D01*
X138084600Y-67079600D02*
X138084600Y-70539600D01*
D12*
%TO.C,D1*%
X135093600Y-55003600D02*
X135093600Y-55403600D01*
X135093600Y-55403600D02*
X134493600Y-55403600D01*
X135093600Y-55403600D02*
X135093600Y-55803600D01*
X135093600Y-55403600D02*
X135993600Y-55803600D01*
X135993600Y-55003600D02*
X135093600Y-55403600D01*
X135993600Y-55403600D02*
X136593600Y-55403600D01*
X135993600Y-55803600D02*
X135993600Y-55003600D01*
D23*
%TO.C,SW8*%
X130500000Y-111800000D02*
X130500000Y-105200000D01*
X134500000Y-102600000D02*
X134500000Y-103500000D01*
X134500000Y-103500000D02*
X136500000Y-103500000D01*
X134500000Y-113500000D02*
X136500000Y-113500000D01*
X134500000Y-114400000D02*
X134500000Y-113500000D01*
X136500000Y-103500000D02*
X136500000Y-102600000D01*
X136500000Y-113500000D02*
X136500000Y-114400000D01*
X130500000Y-111800000D02*
G75*
G03*
X130500000Y-105200000I5000000J3300000D01*
G01*
X140000000Y-108500000D02*
G75*
G03*
X140000000Y-108500000I-4500000J0D01*
G01*
D26*
%TO.C,IC3*%
X146058600Y-100963600D02*
X146058600Y-103963600D01*
X149058600Y-103963600D02*
X149058600Y-100963600D01*
X146698800Y-103454200D02*
G75*
G03*
X146698800Y-103454200I-143600J0D01*
G01*
D10*
%TO.C,Q1*%
X141843600Y-76238100D02*
X141843600Y-75222100D01*
X141843600Y-79540100D02*
X141843600Y-78524100D01*
D27*
X144129600Y-75349100D02*
X150987600Y-75349100D01*
X144129600Y-76111100D02*
X150987600Y-76111100D01*
D10*
X146923600Y-76746100D02*
X146923600Y-77381100D01*
D27*
X146923600Y-77381100D02*
X146542600Y-77381100D01*
D10*
X146923600Y-77381100D02*
X146923600Y-78016100D01*
X147304600Y-76746100D02*
X147304600Y-78016100D01*
X147304600Y-78016100D02*
X147812600Y-78016100D01*
X147812600Y-76746100D02*
X147304600Y-76746100D01*
X147812600Y-78016100D02*
X147812600Y-76746100D01*
X148193600Y-76746100D02*
X148193600Y-77381100D01*
X148193600Y-77381100D02*
X148193600Y-78016100D01*
D27*
X148193600Y-77381100D02*
X148574600Y-77381100D01*
X150987600Y-78651100D02*
X144129600Y-78651100D01*
X150987600Y-79413100D02*
X144129600Y-79413100D01*
D10*
X153019600Y-74968100D02*
X142097600Y-74968100D01*
X153019600Y-79794100D02*
X142097600Y-79794100D01*
X153273600Y-76238100D02*
X153273600Y-75222100D01*
X153273600Y-79540100D02*
X153273600Y-78524100D01*
X142097600Y-74968100D02*
G75*
G03*
X141843600Y-75222100I0J-254000D01*
G01*
X141843600Y-79540100D02*
G75*
G03*
X142097600Y-79794100I254000J0D01*
G01*
D27*
X144129600Y-75348999D02*
G75*
G03*
X142449500Y-76238100I75J-2032102D01*
G01*
X144129600Y-76111100D02*
G75*
G03*
X143576000Y-76238100I-19J-1270002D01*
G01*
X143576000Y-78524100D02*
G75*
G03*
X144129600Y-78651100I553581J1143002D01*
G01*
X142449500Y-78524100D02*
G75*
G03*
X144129600Y-79413101I1680052J1142998D01*
G01*
X152667702Y-76238100D02*
G75*
G03*
X150987600Y-75349100I-1680052J-1143000D01*
G01*
X151541196Y-76238108D02*
G75*
G03*
X150987600Y-76111100I-553596J-1142992D01*
G01*
X150987600Y-78651112D02*
G75*
G03*
X151541200Y-78524100I-100J1270412D01*
G01*
X150987600Y-79413099D02*
G75*
G03*
X152667600Y-78523999I-120J2031999D01*
G01*
D10*
X153273600Y-75222100D02*
G75*
G03*
X153019600Y-74968100I-254000J0D01*
G01*
X153019600Y-79794100D02*
G75*
G03*
X153273600Y-79540100I0J254000D01*
G01*
D23*
%TO.C,R21*%
X160108600Y-134733600D02*
X151518600Y-134733600D01*
X160108600Y-124943600D02*
X160108600Y-134733600D01*
D26*
X158263600Y-131028600D02*
X153388600Y-131028600D01*
X156913600Y-131028600D02*
X154713600Y-131028600D01*
D23*
X151518600Y-134733600D02*
X151518600Y-124943600D01*
X151518600Y-124943600D02*
X160108600Y-124943600D01*
D26*
X156913600Y-131028600D02*
G75*
G03*
X154713600Y-131028600I-1100000J625000D01*
G01*
X158353600Y-130403600D02*
G75*
G03*
X158353600Y-130403600I-2540000J0D01*
G01*
D23*
%TO.C,R11*%
X160108600Y-112826100D02*
X151518600Y-112826100D01*
X160108600Y-103036100D02*
X160108600Y-112826100D01*
D26*
X158263600Y-109121100D02*
X153388600Y-109121100D01*
X156913600Y-109121100D02*
X154713600Y-109121100D01*
D23*
X151518600Y-112826100D02*
X151518600Y-103036100D01*
X151518600Y-103036100D02*
X160108600Y-103036100D01*
D26*
X156913600Y-109121100D02*
G75*
G03*
X154713600Y-109121100I-1100000J625000D01*
G01*
X158353600Y-108496100D02*
G75*
G03*
X158353600Y-108496100I-2540000J0D01*
G01*
D24*
%TO.C,LED5*%
X133588600Y-93764100D02*
G75*
G03*
X131795700Y-94839900I60J-2032000D01*
G01*
D10*
X133588600Y-94272100D02*
G75*
G03*
X132369400Y-94881700I-1J-1523998D01*
G01*
D24*
X135149600Y-94495200D02*
G75*
G03*
X133588600Y-93764100I-1560986J-1300897D01*
G01*
D10*
X134828700Y-94910299D02*
G75*
G03*
X133588600Y-94272100I-1240133J-885800D01*
G01*
X132385600Y-96731700D02*
G75*
G03*
X133588600Y-97320100I1203008J935600D01*
G01*
D24*
X131824300Y-96804300D02*
G75*
G03*
X133588600Y-97828100I1764241J1008196D01*
G01*
D10*
X133588600Y-97320099D02*
G75*
G03*
X134791599Y-96731699I-8J1523999D01*
G01*
D24*
X133588600Y-97828100D02*
G75*
G03*
X135139800Y-97108700I36J2032003D01*
G01*
D19*
%TO.C,C4*%
X145593600Y-71091100D02*
X145593600Y-67241100D01*
X147243600Y-71091100D02*
X145593600Y-71091100D01*
X150793600Y-71091100D02*
X149143600Y-71091100D01*
X145593600Y-67241100D02*
X146943600Y-65891100D01*
X150793600Y-67241100D02*
X150793600Y-71091100D01*
X146943600Y-65891100D02*
X147243600Y-65891100D01*
X149143600Y-65891100D02*
X149443600Y-65891100D01*
X149443600Y-65891100D02*
X150793600Y-67241100D01*
X147343600Y-66191101D02*
G75*
G03*
X147343600Y-70791099I850000J-2299999D01*
G01*
X149043600Y-70791099D02*
G75*
G03*
X149043600Y-66191101I-850000J2299999D01*
G01*
D23*
%TO.C,R1*%
X160108600Y-69011100D02*
X151518600Y-69011100D01*
X160108600Y-59221100D02*
X160108600Y-69011100D01*
D26*
X158263600Y-65306100D02*
X153388600Y-65306100D01*
X156913600Y-65306100D02*
X154713600Y-65306100D01*
D23*
X151518600Y-69011100D02*
X151518600Y-59221100D01*
X151518600Y-59221100D02*
X160108600Y-59221100D01*
D26*
X156913600Y-65306100D02*
G75*
G03*
X154713600Y-65306100I-1100000J625000D01*
G01*
X158353600Y-64681100D02*
G75*
G03*
X158353600Y-64681100I-2540000J0D01*
G01*
%TO.C,SW1*%
X132560600Y-63601600D02*
X134604600Y-63601600D01*
X136636600Y-62712600D02*
X136636600Y-58394600D01*
X130540600Y-58394600D02*
X130540600Y-62712600D01*
X132590600Y-57505600D02*
X134604600Y-57505600D01*
X135366600Y-60553600D02*
G75*
G03*
X135366600Y-60553600I-1778000J0D01*
G01*
D23*
%TO.C,J4*%
X166024400Y-157988000D02*
X157032800Y-157988000D01*
X166024400Y-147497800D02*
X166024400Y-157988000D01*
X157032800Y-157988000D02*
X157032800Y-147497800D01*
X157032800Y-147497800D02*
X166024400Y-147497800D01*
%TO.C,J3*%
X154594400Y-157988000D02*
X145602800Y-157988000D01*
X154594400Y-147497800D02*
X154594400Y-157988000D01*
X145602800Y-157988000D02*
X145602800Y-147497800D01*
X145602800Y-147497800D02*
X154594400Y-147497800D01*
%TO.C,R5*%
X160108600Y-90918600D02*
X151518600Y-90918600D01*
X160108600Y-81128600D02*
X160108600Y-90918600D01*
D26*
X158263600Y-87213600D02*
X153388600Y-87213600D01*
X156913600Y-87213600D02*
X154713600Y-87213600D01*
D23*
X151518600Y-90918600D02*
X151518600Y-81128600D01*
X151518600Y-81128600D02*
X160108600Y-81128600D01*
D26*
X156913600Y-87213600D02*
G75*
G03*
X154713600Y-87213600I-1100000J625000D01*
G01*
X158353600Y-86588600D02*
G75*
G03*
X158353600Y-86588600I-2540000J0D01*
G01*
%TD*%
%LPC*%
D28*
%TO.C,R12*%
X146708600Y-113258600D03*
X148408600Y-113258600D03*
%TD*%
D29*
%TO.C,C21*%
X143431100Y-138443600D03*
X143431100Y-140143600D03*
%TD*%
D30*
%TO.C,IC5*%
X145018600Y-142846100D03*
X146288600Y-142846100D03*
X147558600Y-142846100D03*
X148828600Y-142846100D03*
X148828600Y-137646100D03*
X147558600Y-137646100D03*
X146288600Y-137646100D03*
X145018600Y-137646100D03*
%TD*%
D31*
%TO.C,C12*%
X147138600Y-106908600D03*
X145438600Y-106908600D03*
%TD*%
D32*
%TO.C,J1*%
X135493600Y-122783600D03*
D33*
X141208600Y-122783600D03*
X138668600Y-122783600D03*
X131048600Y-122783600D03*
%TD*%
D29*
%TO.C,C17*%
X144383600Y-125426100D03*
X144383600Y-127126100D03*
%TD*%
D34*
%TO.C,R17*%
X150416100Y-121093600D03*
X150416100Y-119393600D03*
%TD*%
D35*
%TO.C,UC1*%
X146498600Y-85196100D03*
X145998600Y-85196100D03*
X145498600Y-85196100D03*
X144998600Y-85196100D03*
X144498600Y-85196100D03*
X143998600Y-85196100D03*
X143498600Y-85196100D03*
X142998600Y-85196100D03*
X142498600Y-85196100D03*
X141998600Y-85196100D03*
X141498600Y-85196100D03*
X140998600Y-85196100D03*
D36*
X139498600Y-86696100D03*
X139498600Y-87196100D03*
X139498600Y-87696100D03*
X139498600Y-88196100D03*
X139498600Y-88696100D03*
X139498600Y-89196100D03*
X139498600Y-89696100D03*
X139498600Y-90196100D03*
X139498600Y-90696100D03*
X139498600Y-91196100D03*
X139498600Y-91696100D03*
X139498600Y-92196100D03*
D35*
X140998600Y-93696100D03*
X141498600Y-93696100D03*
X141998600Y-93696100D03*
X142498600Y-93696100D03*
X142998600Y-93696100D03*
X143498600Y-93696100D03*
X143998600Y-93696100D03*
X144498600Y-93696100D03*
X144998600Y-93696100D03*
X145498600Y-93696100D03*
X145998600Y-93696100D03*
X146498600Y-93696100D03*
D36*
X147998600Y-92196100D03*
X147998600Y-91696100D03*
X147998600Y-91196100D03*
X147998600Y-90696100D03*
X147998600Y-90196100D03*
X147998600Y-89696100D03*
X147998600Y-89196100D03*
X147998600Y-88696100D03*
X147998600Y-88196100D03*
X147998600Y-87696100D03*
X147998600Y-87196100D03*
X147998600Y-86696100D03*
%TD*%
D28*
%TO.C,R16*%
X136866100Y-115700000D03*
X138566100Y-115700000D03*
%TD*%
D37*
%TO.C,R10*%
X140601041Y-103901041D03*
X139398959Y-102698959D03*
%TD*%
D38*
%TO.C,R4*%
X130731100Y-81293600D03*
X130731100Y-82993600D03*
%TD*%
D34*
%TO.C,R27*%
X130731100Y-145997500D03*
X130731100Y-144297500D03*
%TD*%
D39*
%TO.C,LED4*%
X132318600Y-90398600D03*
X134858600Y-90398600D03*
%TD*%
D40*
%TO.C,F4*%
X165338600Y-155803600D03*
%TD*%
%TO.C,F2*%
X165973600Y-54203600D03*
%TD*%
D41*
%TO.C,R29*%
X143646100Y-144373600D03*
X141946100Y-144373600D03*
%TD*%
D42*
%TO.C,C3*%
X146288600Y-64102300D03*
X146288600Y-62402300D03*
%TD*%
D43*
%TO.C,C10*%
X146708600Y-96113600D03*
X148408600Y-96113600D03*
%TD*%
D39*
%TO.C,LED3*%
X132318600Y-85001100D03*
X134858600Y-85001100D03*
%TD*%
D44*
%TO.C,SW3*%
X162525000Y-120700000D03*
X166675000Y-120700000D03*
X162525000Y-118500000D03*
X166675000Y-118500000D03*
%TD*%
D45*
%TO.C,SW5*%
X166675000Y-122100000D03*
X162525000Y-122100000D03*
X166675000Y-124300000D03*
X162525000Y-124300000D03*
%TD*%
D32*
%TO.C,J2*%
X135493600Y-151993600D03*
D33*
X141208600Y-151993600D03*
X138668600Y-151993600D03*
X131048600Y-151993600D03*
%TD*%
D38*
%TO.C,R7*%
X130731100Y-92088600D03*
X130731100Y-93788600D03*
%TD*%
D43*
%TO.C,C24*%
X145438600Y-145326100D03*
X147138600Y-145326100D03*
%TD*%
D42*
%TO.C,C8*%
X148511100Y-85216100D03*
X148511100Y-83516100D03*
%TD*%
D39*
%TO.C,LED2*%
X132318600Y-79603600D03*
X134858600Y-79603600D03*
%TD*%
D46*
%TO.C,C2*%
X139158600Y-61188600D03*
X143258600Y-61188600D03*
%TD*%
D38*
%TO.C,R19*%
X147558600Y-125426100D03*
X147558600Y-127126100D03*
%TD*%
D43*
%TO.C,C23*%
X141946100Y-142786100D03*
X143646100Y-142786100D03*
%TD*%
D29*
%TO.C,C19*%
X145018600Y-133363600D03*
X145018600Y-135063600D03*
%TD*%
D40*
%TO.C,F1*%
X131683600Y-54203600D03*
%TD*%
D34*
%TO.C,R15*%
X131048600Y-116750000D03*
X131048600Y-115050000D03*
%TD*%
D39*
%TO.C,LED1*%
X132318600Y-66903600D03*
X134858600Y-66903600D03*
%TD*%
D47*
%TO.C,SW7*%
X138000000Y-135200000D03*
X138000000Y-140200000D03*
D48*
X133000000Y-135200000D03*
D47*
X132500000Y-137700000D03*
X138500000Y-137700000D03*
X133000000Y-140200000D03*
%TD*%
D49*
%TO.C,L1*%
X148193600Y-63993600D03*
X148193600Y-62393600D03*
%TD*%
D31*
%TO.C,C7*%
X150313600Y-80873600D03*
X148613600Y-80873600D03*
%TD*%
D42*
%TO.C,C22*%
X158671100Y-142683600D03*
X158671100Y-140983600D03*
%TD*%
D50*
%TO.C,C1*%
X164068600Y-56598600D03*
X164068600Y-60698600D03*
%TD*%
D51*
%TO.C,IC2*%
X153593600Y-101023600D03*
X155493600Y-101023600D03*
X154543600Y-98823600D03*
%TD*%
D28*
%TO.C,R31*%
X141946100Y-145961100D03*
X143646100Y-145961100D03*
%TD*%
D52*
%TO.C,D2*%
X160253600Y-54203600D03*
X156453600Y-54203600D03*
%TD*%
D41*
%TO.C,R28*%
X138248600Y-145147500D03*
X136548600Y-145147500D03*
%TD*%
D42*
%TO.C,C15*%
X150098600Y-115061100D03*
X150098600Y-113361100D03*
%TD*%
D34*
%TO.C,R20*%
X144383600Y-130301100D03*
X144383600Y-128601100D03*
%TD*%
D53*
%TO.C,SW2*%
X131328000Y-76504800D03*
X131328000Y-70002400D03*
X135849200Y-76504800D03*
X135849200Y-70002400D03*
%TD*%
D54*
%TO.C,IC1*%
X143469200Y-65659000D03*
X141183200Y-65659000D03*
X138897200Y-65659000D03*
D55*
X141208600Y-71958200D03*
%TD*%
D52*
%TO.C,D1*%
X137393600Y-54203600D03*
X133593600Y-54203600D03*
%TD*%
D29*
%TO.C,C11*%
X157083600Y-99073600D03*
X157083600Y-100773600D03*
%TD*%
D47*
%TO.C,SW8*%
X138000000Y-106000000D03*
X138000000Y-111000000D03*
D48*
X133000000Y-106000000D03*
D47*
X132500000Y-108500000D03*
X138500000Y-108500000D03*
X133000000Y-111000000D03*
%TD*%
D31*
%TO.C,C6*%
X146821100Y-80873600D03*
X145121100Y-80873600D03*
%TD*%
D28*
%TO.C,R22*%
X146708600Y-133261100D03*
X148408600Y-133261100D03*
%TD*%
D42*
%TO.C,C18*%
X149463600Y-127126100D03*
X149463600Y-125426100D03*
%TD*%
D56*
%TO.C,IC3*%
X146583600Y-104863600D03*
X147233600Y-104863600D03*
X147883600Y-104863600D03*
X148533600Y-104863600D03*
X148533600Y-100063600D03*
X147883600Y-100063600D03*
X147233600Y-100063600D03*
X146583600Y-100063600D03*
%TD*%
D57*
%TO.C,Q3*%
X132488600Y-144197500D03*
X134688600Y-145147500D03*
X132488600Y-146097500D03*
%TD*%
D34*
%TO.C,R18*%
X145971100Y-127126100D03*
X145971100Y-125426100D03*
%TD*%
D58*
%TO.C,Q1*%
X142732600Y-77381100D03*
X152384600Y-77381100D03*
%TD*%
D59*
%TO.C,R21*%
X158313600Y-137403600D03*
X155813600Y-137403600D03*
X153313600Y-137403600D03*
D60*
X160513600Y-130403600D03*
X151113600Y-130403600D03*
%TD*%
D38*
%TO.C,R2*%
X130731100Y-66053600D03*
X130731100Y-67753600D03*
%TD*%
D29*
%TO.C,C14*%
X145018600Y-113361100D03*
X145018600Y-115061100D03*
%TD*%
D51*
%TO.C,IC6*%
X155181100Y-142933600D03*
X157081100Y-142933600D03*
X156131100Y-140733600D03*
%TD*%
D28*
%TO.C,R26*%
X150201100Y-142786100D03*
X151901100Y-142786100D03*
%TD*%
D59*
%TO.C,R11*%
X158313600Y-115496100D03*
X155813600Y-115496100D03*
X153313600Y-115496100D03*
D60*
X160513600Y-108496100D03*
X151113600Y-108496100D03*
%TD*%
D29*
%TO.C,C9*%
X138986100Y-93358600D03*
X138986100Y-95058600D03*
%TD*%
D39*
%TO.C,LED5*%
X132318600Y-95796100D03*
X134858600Y-95796100D03*
%TD*%
D37*
%TO.C,R23*%
X141001041Y-133301041D03*
X139798959Y-132098959D03*
%TD*%
D42*
%TO.C,C20*%
X150098600Y-135063600D03*
X150098600Y-133363600D03*
%TD*%
D50*
%TO.C,C4*%
X148193600Y-66441100D03*
X148193600Y-70541100D03*
%TD*%
D28*
%TO.C,R30*%
X150201100Y-144373600D03*
X151901100Y-144373600D03*
%TD*%
D59*
%TO.C,R1*%
X158313600Y-71681100D03*
X155813600Y-71681100D03*
X153313600Y-71681100D03*
D60*
X160513600Y-64681100D03*
X151113600Y-64681100D03*
%TD*%
D53*
%TO.C,SW1*%
X131328000Y-63804800D03*
X131328000Y-57302400D03*
X135849200Y-63804800D03*
X135849200Y-57302400D03*
%TD*%
D28*
%TO.C,R3*%
X144486100Y-72301100D03*
X146186100Y-72301100D03*
%TD*%
D41*
%TO.C,R24*%
X148408600Y-135166100D03*
X146708600Y-135166100D03*
%TD*%
D40*
%TO.C,F3*%
X131683600Y-155803600D03*
%TD*%
D32*
%TO.C,J4*%
X161528600Y-151993600D03*
D61*
X161528600Y-146278600D03*
X161528600Y-148818600D03*
X161528600Y-156438600D03*
%TD*%
D38*
%TO.C,R25*%
X160258600Y-140983600D03*
X160258600Y-142683600D03*
%TD*%
D41*
%TO.C,R14*%
X148408600Y-115163600D03*
X146708600Y-115163600D03*
%TD*%
D38*
%TO.C,R6*%
X130731100Y-86373600D03*
X130731100Y-88073600D03*
%TD*%
D31*
%TO.C,C13*%
X147138600Y-108496100D03*
X145438600Y-108496100D03*
%TD*%
D43*
%TO.C,C5*%
X141311100Y-80873600D03*
X143011100Y-80873600D03*
%TD*%
D29*
%TO.C,C16*%
X143431100Y-117488600D03*
X143431100Y-119188600D03*
%TD*%
D32*
%TO.C,J3*%
X150098600Y-151993600D03*
D61*
X150098600Y-146278600D03*
X150098600Y-148818600D03*
X150098600Y-156438600D03*
%TD*%
D57*
%TO.C,Q2*%
X132800000Y-114950000D03*
X135000000Y-115900000D03*
X132800000Y-116850000D03*
%TD*%
D38*
%TO.C,R8*%
X130731100Y-97486100D03*
X130731100Y-99186100D03*
%TD*%
D34*
%TO.C,R13*%
X163751100Y-115378600D03*
X163751100Y-113678600D03*
%TD*%
D30*
%TO.C,IC4*%
X145018600Y-122843600D03*
X146288600Y-122843600D03*
X147558600Y-122843600D03*
X148828600Y-122843600D03*
X148828600Y-117643600D03*
X147558600Y-117643600D03*
X146288600Y-117643600D03*
X145018600Y-117643600D03*
%TD*%
D34*
%TO.C,R9*%
X152003600Y-100773600D03*
X152003600Y-99073600D03*
%TD*%
D59*
%TO.C,R5*%
X158313600Y-93588600D03*
X155813600Y-93588600D03*
X153313600Y-93588600D03*
D60*
X160513600Y-86588600D03*
X151113600Y-86588600D03*
%TD*%
D62*
%TO.C,JP2*%
X165973600Y-66268600D03*
X164703600Y-66268600D03*
X165973600Y-67538600D03*
X164703600Y-67538600D03*
X165973600Y-68808600D03*
X164703600Y-68808600D03*
X165973600Y-70078600D03*
X164703600Y-70078600D03*
X165973600Y-71348600D03*
X164703600Y-71348600D03*
%TD*%
D53*
%TO.C,JP1*%
X165338600Y-75476100D03*
X165338600Y-78016100D03*
X165338600Y-80556100D03*
X165338600Y-83096100D03*
X165338600Y-85636100D03*
X165338600Y-88176100D03*
%TD*%
D63*
%TO.C,JP3*%
X141843600Y-54203600D03*
X141843600Y-56743600D03*
X144383600Y-54203600D03*
X144383600Y-56743600D03*
X146923600Y-54203600D03*
X146923600Y-56743600D03*
X149463600Y-54203600D03*
X149463600Y-56743600D03*
X152003600Y-54203600D03*
X152003600Y-56743600D03*
%TD*%
%LPD*%
M02*
