%TF.GenerationSoftware,KiCad,Pcbnew,7.0.5-0*%
%TF.CreationDate,2023-09-10T13:25:37+02:00*%
%TF.ProjectId,peaks,7065616b-732e-46b6-9963-61645f706362,rev?*%
%TF.SameCoordinates,Original*%
%TF.FileFunction,Soldermask,Bot*%
%TF.FilePolarity,Negative*%
%FSLAX46Y46*%
G04 Gerber Fmt 4.6, Leading zero omitted, Abs format (unit mm)*
G04 Created by KiCad (PCBNEW 7.0.5-0) date 2023-09-10 13:25:37*
%MOMM*%
%LPD*%
G01*
G04 APERTURE LIST*
G04 Aperture macros list*
%AMRoundRect*
0 Rectangle with rounded corners*
0 $1 Rounding radius*
0 $2 $3 $4 $5 $6 $7 $8 $9 X,Y pos of 4 corners*
0 Add a 4 corners polygon primitive as box body*
4,1,4,$2,$3,$4,$5,$6,$7,$8,$9,$2,$3,0*
0 Add four circle primitives for the rounded corners*
1,1,$1+$1,$2,$3*
1,1,$1+$1,$4,$5*
1,1,$1+$1,$6,$7*
1,1,$1+$1,$8,$9*
0 Add four rect primitives between the rounded corners*
20,1,$1+$1,$2,$3,$4,$5,0*
20,1,$1+$1,$4,$5,$6,$7,0*
20,1,$1+$1,$6,$7,$8,$9,0*
20,1,$1+$1,$8,$9,$2,$3,0*%
%AMFreePoly0*
4,1,25,0.417216,0.947373,0.422118,0.942882,0.942882,0.422118,0.964910,0.374877,0.965200,0.368236,0.965200,-0.368236,0.947373,-0.417216,0.942882,-0.422118,0.422118,-0.942882,0.374877,-0.964910,0.368236,-0.965200,-0.368236,-0.965200,-0.417216,-0.947373,-0.422118,-0.942882,-0.942882,-0.422118,-0.964910,-0.374877,-0.965200,-0.368236,-0.965200,0.368236,-0.947373,0.417216,-0.942882,0.422118,
-0.422118,0.942882,-0.374877,0.964910,-0.368236,0.965200,0.368236,0.965200,0.417216,0.947373,0.417216,0.947373,$1*%
%AMFreePoly1*
4,1,25,0.301485,0.667973,0.306387,0.663482,0.663482,0.306387,0.685510,0.259146,0.685800,0.252505,0.685800,-0.252505,0.667973,-0.301485,0.663482,-0.306387,0.306387,-0.663482,0.259146,-0.685510,0.252505,-0.685800,-0.252505,-0.685800,-0.301485,-0.667973,-0.306387,-0.663482,-0.663482,-0.306387,-0.685510,-0.259146,-0.685800,-0.252505,-0.685800,0.252505,-0.667973,0.301485,-0.663482,0.306387,
-0.306387,0.663482,-0.259146,0.685510,-0.252505,0.685800,0.252505,0.685800,0.301485,0.667973,0.301485,0.667973,$1*%
%AMFreePoly2*
4,1,25,0.575031,1.328373,0.579933,1.323882,1.323882,0.579933,1.345910,0.532692,1.346200,0.526051,1.346200,-0.526051,1.328373,-0.575031,1.323882,-0.579933,0.579933,-1.323882,0.532692,-1.345910,0.526051,-1.346200,-0.526051,-1.346200,-0.575031,-1.328373,-0.579933,-1.323882,-1.323882,-0.579933,-1.345910,-0.532692,-1.346200,-0.526051,-1.346200,0.526051,-1.328373,0.575031,-1.323882,0.579933,
-0.579933,1.323882,-0.532692,1.345910,-0.526051,1.346200,0.526051,1.346200,0.575031,1.328373,0.575031,1.328373,$1*%
%AMFreePoly3*
4,1,25,0.269922,0.591773,0.274824,0.587282,0.587282,0.274824,0.609310,0.227583,0.609600,0.220942,0.609600,-0.220942,0.591773,-0.269922,0.587282,-0.274824,0.274824,-0.587282,0.227583,-0.609310,0.220942,-0.609600,-0.220942,-0.609600,-0.269922,-0.591773,-0.274824,-0.587282,-0.587282,-0.274824,-0.609310,-0.227583,-0.609600,-0.220942,-0.609600,0.220942,-0.591773,0.269922,-0.587282,0.274824,
-0.274824,0.587282,-0.227583,0.609310,-0.220942,0.609600,0.220942,0.609600,0.269922,0.591773,0.269922,0.591773,$1*%
%AMFreePoly4*
4,1,25,0.438258,0.998173,0.443160,0.993682,0.993682,0.443160,1.015710,0.395919,1.016000,0.389278,1.016000,-0.389278,0.998173,-0.438258,0.993682,-0.443160,0.443160,-0.993682,0.395919,-1.015710,0.389278,-1.016000,-0.389278,-1.016000,-0.438258,-0.998173,-0.443160,-0.993682,-0.993682,-0.443160,-1.015710,-0.395919,-1.016000,-0.389278,-1.016000,0.389278,-0.998173,0.438258,-0.993682,0.443160,
-0.443160,0.993682,-0.395919,1.015710,-0.389278,1.016000,0.389278,1.016000,0.438258,0.998173,0.438258,0.998173,$1*%
G04 Aperture macros list end*
%ADD10C,2.200000*%
%ADD11FreePoly0,90.000000*%
%ADD12FreePoly1,0.000000*%
%ADD13C,1.952400*%
%ADD14RoundRect,0.076200X0.900000X-0.900000X0.900000X0.900000X-0.900000X0.900000X-0.900000X-0.900000X0*%
%ADD15C,2.032000*%
%ADD16RoundRect,0.076200X0.939800X-0.939800X0.939800X0.939800X-0.939800X0.939800X-0.939800X-0.939800X0*%
%ADD17FreePoly2,90.000000*%
%ADD18FreePoly0,180.000000*%
%ADD19FreePoly3,270.000000*%
%ADD20FreePoly4,0.000000*%
G04 APERTURE END LIST*
D10*
%TO.C,J1*%
X135493600Y-122783600D03*
D11*
X141208600Y-122783600D03*
X138668600Y-122783600D03*
X131048600Y-122783600D03*
%TD*%
D12*
%TO.C,LED4*%
X132318600Y-90398600D03*
X134858600Y-90398600D03*
%TD*%
%TO.C,LED3*%
X132318600Y-85001100D03*
X134858600Y-85001100D03*
%TD*%
D10*
%TO.C,J2*%
X135493600Y-151993600D03*
D11*
X141208600Y-151993600D03*
X138668600Y-151993600D03*
X131048600Y-151993600D03*
%TD*%
D12*
%TO.C,LED2*%
X132318600Y-79603600D03*
X134858600Y-79603600D03*
%TD*%
%TO.C,LED1*%
X132318600Y-66903600D03*
X134858600Y-66903600D03*
%TD*%
D13*
%TO.C,SW7*%
X138000000Y-135200000D03*
X138000000Y-140200000D03*
D14*
X133000000Y-135200000D03*
D13*
X132500000Y-137700000D03*
X138500000Y-137700000D03*
X133000000Y-140200000D03*
%TD*%
D15*
%TO.C,SW2*%
X131328000Y-76504800D03*
X131328000Y-70002400D03*
X135849200Y-76504800D03*
X135849200Y-70002400D03*
%TD*%
D13*
%TO.C,SW8*%
X138000000Y-106000000D03*
X138000000Y-111000000D03*
D14*
X133000000Y-106000000D03*
D13*
X132500000Y-108500000D03*
X138500000Y-108500000D03*
X133000000Y-111000000D03*
%TD*%
D16*
%TO.C,R21*%
X158313600Y-137403600D03*
X155813600Y-137403600D03*
X153313600Y-137403600D03*
D17*
X160513600Y-130403600D03*
X151113600Y-130403600D03*
%TD*%
D16*
%TO.C,R11*%
X158313600Y-115496100D03*
X155813600Y-115496100D03*
X153313600Y-115496100D03*
D17*
X160513600Y-108496100D03*
X151113600Y-108496100D03*
%TD*%
D12*
%TO.C,LED5*%
X132318600Y-95796100D03*
X134858600Y-95796100D03*
%TD*%
D16*
%TO.C,R1*%
X158313600Y-71681100D03*
X155813600Y-71681100D03*
X153313600Y-71681100D03*
D17*
X160513600Y-64681100D03*
X151113600Y-64681100D03*
%TD*%
D15*
%TO.C,SW1*%
X131328000Y-63804800D03*
X131328000Y-57302400D03*
X135849200Y-63804800D03*
X135849200Y-57302400D03*
%TD*%
D10*
%TO.C,J4*%
X161528600Y-151993600D03*
D18*
X161528600Y-146278600D03*
X161528600Y-148818600D03*
X161528600Y-156438600D03*
%TD*%
D10*
%TO.C,J3*%
X150098600Y-151993600D03*
D18*
X150098600Y-146278600D03*
X150098600Y-148818600D03*
X150098600Y-156438600D03*
%TD*%
D16*
%TO.C,R5*%
X158313600Y-93588600D03*
X155813600Y-93588600D03*
X153313600Y-93588600D03*
D17*
X160513600Y-86588600D03*
X151113600Y-86588600D03*
%TD*%
D19*
%TO.C,JP2*%
X165973600Y-66268600D03*
X164703600Y-66268600D03*
X165973600Y-67538600D03*
X164703600Y-67538600D03*
X165973600Y-68808600D03*
X164703600Y-68808600D03*
X165973600Y-70078600D03*
X164703600Y-70078600D03*
X165973600Y-71348600D03*
X164703600Y-71348600D03*
%TD*%
D15*
%TO.C,JP1*%
X165338600Y-75476100D03*
X165338600Y-78016100D03*
X165338600Y-80556100D03*
X165338600Y-83096100D03*
X165338600Y-85636100D03*
X165338600Y-88176100D03*
%TD*%
D20*
%TO.C,JP3*%
X141843600Y-54203600D03*
X141843600Y-56743600D03*
X144383600Y-54203600D03*
X144383600Y-56743600D03*
X146923600Y-54203600D03*
X146923600Y-56743600D03*
X149463600Y-54203600D03*
X149463600Y-56743600D03*
X152003600Y-54203600D03*
X152003600Y-56743600D03*
%TD*%
M02*
