M48
; DRILL file {KiCad 7.0.5-0} date 2023 August 28, Monday 20:49:07
; FORMAT={-:-/ absolute / inch / decimal}
; #@! TF.CreationDate,2023-08-28T20:49:07+02:00
; #@! TF.GenerationSoftware,Kicad,Pcbnew,7.0.5-0
; #@! TF.FileFunction,Plated,1,2,PTH
FMAT,2
INCH
; #@! TA.AperFunction,Plated,PTH,ViaDrill
T1C0.0236
; #@! TA.AperFunction,Plated,PTH,ComponentDrill
T2C0.0240
; #@! TA.AperFunction,Plated,PTH,ComponentDrill
T3C0.0320
; #@! TA.AperFunction,Plated,PTH,ComponentDrill
T4C0.0354
; #@! TA.AperFunction,Plated,PTH,ComponentDrill
T5C0.0394
; #@! TA.AperFunction,Plated,PTH,ComponentDrill
T6C0.0400
; #@! TA.AperFunction,Plated,PTH,ComponentDrill
T7C0.0591
%
G90
G05
T1
X5.1693Y-5.6063
X5.1732Y-4.6732
X5.1844Y-3.984
X5.2441Y-5.8228
X5.2953Y-4.3228
X5.3344Y-5.4958
X5.3594Y-3.3965
X5.3594Y-3.9215
X5.3844Y-3.9715
X5.4031Y-3.584
X5.4344Y-2.6715
X5.4344Y-2.734
X5.4344Y-2.7965
X5.4344Y-2.859
X5.4344Y-3.384
X5.4344Y-3.809
X5.4469Y-3.3215
X5.4719Y-3.859
X5.4719Y-3.959
X5.4969Y-2.6715
X5.4969Y-2.734
X5.5094Y-2.484
X5.5315Y-3.9843
X5.5344Y-5.034
X5.5469Y-5.559
X5.5594Y-2.734
X5.5594Y-4.4215
X5.5719Y-2.484
X5.5719Y-3.134
X5.5719Y-3.434
X5.5844Y-3.609
X5.5844Y-5.509
X5.5969Y-3.859
X5.6094Y-3.4965
X5.6094Y-4.0715
X5.6156Y-3.2402
X5.6344Y-2.484
X5.6469Y-4.4965
X5.6469Y-4.7465
X5.6594Y-4.1215
X5.6594Y-5.3715
X5.6719Y-3.2465
X5.6844Y-2.784
X5.6844Y-3.7903
X5.6969Y-2.484
X5.7094Y-3.584
X5.7094Y-4.359
X5.7219Y-5.784
X5.7344Y-2.3715
X5.7344Y-5.184
X5.7594Y-2.784
X5.7594Y-3.6215
X5.7594Y-5.4965
X5.7844Y-3.284
X5.7844Y-4.334
X5.7844Y-5.1465
X5.8094Y-3.0965
X5.8094Y-3.7215
X5.8719Y-5.059
X5.8844Y-3.4652
X5.8844Y-3.6465
X5.8844Y-3.7215
X5.8969Y-4.3965
X5.9094Y-3.284
X5.9094Y-3.834
X5.9094Y-3.8965
X5.9094Y-3.984
X5.9094Y-5.409
X5.9219Y-2.4465
X5.9219Y-4.8715
X5.9344Y-2.6465
X5.9344Y-2.8465
X5.9594Y-4.159
X5.9969Y-4.3965
X6.0094Y-3.8465
X6.0344Y-5.509
X6.0594Y-4.784
X6.0594Y-4.9215
X6.0594Y-5.134
X6.0719Y-2.5965
X6.0844Y-4.284
X6.0844Y-4.3965
X6.1094Y-2.6465
X6.1219Y-3.184
X6.1469Y-3.134
X6.1719Y-3.084
X6.1719Y-3.284
X6.1844Y-4.0215
X6.2344Y-4.3465
X6.2344Y-4.9724
X6.2874Y-4.8715
X6.2969Y-4.459
X6.3594Y-3.859
X6.4094Y-3.184
X6.4469Y-2.534
X6.4528Y-4.9724
X6.4594Y-2.134
X6.4685Y-4.6102
X6.4803Y-4.7087
X6.4882Y-5.0669
X6.5344Y-2.234
T2
X6.4844Y-2.609
X6.4844Y-2.659
X6.4844Y-2.709
X6.4844Y-2.759
X6.4844Y-2.809
X6.5344Y-2.609
X6.5344Y-2.659
X6.5344Y-2.709
X6.5344Y-2.759
X6.5344Y-2.809
T3
X5.2094Y-2.634
X5.2094Y-3.134
X5.2094Y-3.3465
X5.2094Y-3.559
X5.2094Y-3.7715
X5.3094Y-2.634
X5.3094Y-3.134
X5.3094Y-3.3465
X5.3094Y-3.559
X5.3094Y-3.7715
T4
X5.2165Y-4.2717
X5.2165Y-5.4213
X5.2362Y-4.1732
X5.2362Y-4.3701
X5.2362Y-5.3228
X5.2362Y-5.5197
X5.4331Y-4.1732
X5.4331Y-4.3701
X5.4331Y-5.3228
X5.4331Y-5.5197
X5.4528Y-4.2717
X5.4528Y-5.4213
T5
X6.036Y-2.8221
X6.036Y-3.6846
X6.036Y-4.5471
X6.036Y-5.4096
X6.1344Y-2.8221
X6.1344Y-3.6846
X6.1344Y-4.5471
X6.1344Y-5.4096
X6.2328Y-2.8221
X6.2328Y-3.6846
X6.2328Y-4.5471
X6.2328Y-5.4096
T6
X5.1594Y-4.834
X5.1594Y-5.984
X5.1704Y-2.256
X5.1704Y-2.512
X5.1704Y-2.756
X5.1704Y-3.012
X5.3484Y-2.256
X5.3484Y-2.512
X5.3484Y-2.756
X5.3484Y-3.012
X5.4594Y-4.834
X5.4594Y-5.984
X5.5594Y-4.834
X5.5594Y-5.984
X5.5844Y-2.134
X5.5844Y-2.234
X5.6844Y-2.134
X5.6844Y-2.234
X5.7844Y-2.134
X5.7844Y-2.234
X5.8844Y-2.134
X5.8844Y-2.234
X5.9094Y-5.759
X5.9094Y-5.859
X5.9094Y-6.159
X5.9844Y-2.134
X5.9844Y-2.234
X6.3594Y-5.759
X6.3594Y-5.859
X6.3594Y-6.159
X6.5094Y-2.9715
X6.5094Y-3.0715
X6.5094Y-3.1715
X6.5094Y-3.2715
X6.5094Y-3.3715
X6.5094Y-3.4715
T7
X5.9494Y-2.5465
X5.9494Y-3.409
X5.9494Y-4.2715
X5.9494Y-5.134
X6.3194Y-2.5465
X6.3194Y-3.409
X6.3194Y-4.2715
X6.3194Y-5.134
T0
M30
