%TF.GenerationSoftware,KiCad,Pcbnew,(6.0.11-0)*%
%TF.CreationDate,2023-05-29T14:43:09+02:00*%
%TF.ProjectId,tides,74696465-732e-46b6-9963-61645f706362,rev?*%
%TF.SameCoordinates,Original*%
%TF.FileFunction,Legend,Bot*%
%TF.FilePolarity,Positive*%
%FSLAX46Y46*%
G04 Gerber Fmt 4.6, Leading zero omitted, Abs format (unit mm)*
G04 Created by KiCad (PCBNEW (6.0.11-0)) date 2023-05-29 14:43:09*
%MOMM*%
%LPD*%
G01*
G04 APERTURE LIST*
G04 Aperture macros list*
%AMRoundRect*
0 Rectangle with rounded corners*
0 $1 Rounding radius*
0 $2 $3 $4 $5 $6 $7 $8 $9 X,Y pos of 4 corners*
0 Add a 4 corners polygon primitive as box body*
4,1,4,$2,$3,$4,$5,$6,$7,$8,$9,$2,$3,0*
0 Add four circle primitives for the rounded corners*
1,1,$1+$1,$2,$3*
1,1,$1+$1,$4,$5*
1,1,$1+$1,$6,$7*
1,1,$1+$1,$8,$9*
0 Add four rect primitives between the rounded corners*
20,1,$1+$1,$2,$3,$4,$5,0*
20,1,$1+$1,$4,$5,$6,$7,0*
20,1,$1+$1,$6,$7,$8,$9,0*
20,1,$1+$1,$8,$9,$2,$3,0*%
%AMFreePoly0*
4,1,25,0.391885,0.667973,0.396787,0.663482,0.753882,0.306387,0.775910,0.259146,0.776200,0.252505,0.776200,-0.252505,0.758373,-0.301485,0.753882,-0.306387,0.396787,-0.663482,0.349546,-0.685510,0.342905,-0.685800,-0.342905,-0.685800,-0.391885,-0.667973,-0.396787,-0.663482,-0.753882,-0.306387,-0.775910,-0.259146,-0.776200,-0.252505,-0.776200,0.252505,-0.758373,0.301485,-0.753882,0.306387,
-0.396787,0.663482,-0.349546,0.685510,-0.342905,0.685800,0.342905,0.685800,0.391885,0.667973,0.391885,0.667973,$1*%
%AMFreePoly1*
4,1,25,0.706544,1.645873,0.711446,1.641382,1.641382,0.711446,1.663410,0.664205,1.663700,0.657564,1.663700,-0.657564,1.645873,-0.706544,1.641382,-0.711446,0.711446,-1.641382,0.664205,-1.663410,0.657564,-1.663700,-0.657564,-1.663700,-0.706544,-1.645873,-0.711446,-1.641382,-1.641382,-0.711446,-1.663410,-0.664205,-1.663700,-0.657564,-1.663700,0.657564,-1.645873,0.706544,-1.641382,0.711446,
-0.711446,1.641382,-0.664205,1.663410,-0.657564,1.663700,0.657564,1.663700,0.706544,1.645873,0.706544,1.645873,$1*%
%AMFreePoly2*
4,1,25,0.575031,1.328373,0.579933,1.323882,1.323882,0.579933,1.345910,0.532692,1.346200,0.526051,1.346200,-0.526051,1.328373,-0.575031,1.323882,-0.579933,0.579933,-1.323882,0.532692,-1.345910,0.526051,-1.346200,-0.526051,-1.346200,-0.575031,-1.328373,-0.579933,-1.323882,-1.323882,-0.579933,-1.345910,-0.532692,-1.346200,-0.526051,-1.346200,0.526051,-1.328373,0.575031,-1.323882,0.579933,
-0.579933,1.323882,-0.532692,1.345910,-0.526051,1.346200,0.526051,1.346200,0.575031,1.328373,0.575031,1.328373,$1*%
%AMFreePoly3*
4,1,25,0.417216,0.947373,0.422118,0.942882,0.942882,0.422118,0.964910,0.374877,0.965200,0.368236,0.965200,-0.368236,0.947373,-0.417216,0.942882,-0.422118,0.422118,-0.942882,0.374877,-0.964910,0.368236,-0.965200,-0.368236,-0.965200,-0.417216,-0.947373,-0.422118,-0.942882,-0.942882,-0.422118,-0.964910,-0.374877,-0.965200,-0.368236,-0.965200,0.368236,-0.947373,0.417216,-0.942882,0.422118,
-0.422118,0.942882,-0.374877,0.964910,-0.368236,0.965200,0.368236,0.965200,0.417216,0.947373,0.417216,0.947373,$1*%
%AMFreePoly4*
4,1,25,0.448779,1.023573,0.453681,1.019082,1.019082,0.453681,1.041110,0.406440,1.041400,0.399799,1.041400,-0.399799,1.023573,-0.448779,1.019082,-0.453681,0.453681,-1.019082,0.406440,-1.041110,0.399799,-1.041400,-0.399799,-1.041400,-0.448779,-1.023573,-0.453681,-1.019082,-1.019082,-0.453681,-1.041110,-0.406440,-1.041400,-0.399799,-1.041400,0.399799,-1.023573,0.448779,-1.019082,0.453681,
-0.453681,1.019082,-0.406440,1.041110,-0.399799,1.041400,0.399799,1.041400,0.448779,1.023573,0.448779,1.023573,$1*%
%AMFreePoly5*
4,1,25,0.438258,0.998173,0.443160,0.993682,0.993682,0.443160,1.015710,0.395919,1.016000,0.389278,1.016000,-0.389278,0.998173,-0.438258,0.993682,-0.443160,0.443160,-0.993682,0.395919,-1.015710,0.389278,-1.016000,-0.389278,-1.016000,-0.438258,-0.998173,-0.443160,-0.993682,-0.993682,-0.443160,-1.015710,-0.395919,-1.016000,-0.389278,-1.016000,0.389278,-0.998173,0.438258,-0.993682,0.443160,
-0.443160,0.993682,-0.395919,1.015710,-0.389278,1.016000,0.389278,1.016000,0.438258,0.998173,0.438258,0.998173,$1*%
G04 Aperture macros list end*
%ADD10C,0.152400*%
%ADD11C,0.190500*%
%ADD12C,0.571500*%
%ADD13C,0.266700*%
%ADD14C,0.179070*%
%ADD15C,0.203200*%
%ADD16FreePoly0,180.000000*%
%ADD17C,1.258800*%
%ADD18RoundRect,0.076200X0.939800X-0.939800X0.939800X0.939800X-0.939800X0.939800X-0.939800X-0.939800X0*%
%ADD19FreePoly1,90.000000*%
%ADD20FreePoly2,90.000000*%
%ADD21C,2.032000*%
%ADD22C,2.200000*%
%ADD23FreePoly3,180.000000*%
%ADD24FreePoly4,180.000000*%
%ADD25FreePoly5,90.000000*%
G04 APERTURE END LIST*
D10*
X173573600Y-83572350D02*
X171986100Y-83572350D01*
X173573600Y-88652350D02*
X171986100Y-88652350D01*
X173573600Y-91192350D02*
X171986100Y-91192350D01*
X173573600Y-93732350D02*
X171986100Y-93732350D01*
X173573600Y-86112350D02*
X171986100Y-86112350D01*
D11*
X171287751Y-83744707D02*
X170465275Y-83744707D01*
X170876513Y-84155945D02*
X170876513Y-83333469D01*
X169385775Y-84155945D02*
X170002632Y-84155945D01*
X169694203Y-84155945D02*
X169694203Y-83076445D01*
X169797013Y-83230659D01*
X169899822Y-83333469D01*
X170002632Y-83384873D01*
X168974536Y-83179254D02*
X168923132Y-83127850D01*
X168820322Y-83076445D01*
X168563298Y-83076445D01*
X168460489Y-83127850D01*
X168409084Y-83179254D01*
X168357679Y-83282064D01*
X168357679Y-83384873D01*
X168409084Y-83539088D01*
X169025941Y-84155945D01*
X168357679Y-84155945D01*
X168049251Y-83076445D02*
X167689417Y-84155945D01*
X167329584Y-83076445D01*
X123641382Y-71558654D02*
X123589977Y-71507250D01*
X123487167Y-71455845D01*
X123230144Y-71455845D01*
X123127334Y-71507250D01*
X123075929Y-71558654D01*
X123024525Y-71661464D01*
X123024525Y-71764273D01*
X123075929Y-71918488D01*
X123692786Y-72535345D01*
X123024525Y-72535345D01*
X122356263Y-71455845D02*
X122253453Y-71455845D01*
X122150644Y-71507250D01*
X122099239Y-71558654D01*
X122047834Y-71661464D01*
X121996429Y-71867083D01*
X121996429Y-72124107D01*
X122047834Y-72329726D01*
X122099239Y-72432535D01*
X122150644Y-72483940D01*
X122253453Y-72535345D01*
X122356263Y-72535345D01*
X122459072Y-72483940D01*
X122510477Y-72432535D01*
X122561882Y-72329726D01*
X122613286Y-72124107D01*
X122613286Y-71867083D01*
X122561882Y-71661464D01*
X122510477Y-71558654D01*
X122459072Y-71507250D01*
X122356263Y-71455845D01*
X120968334Y-72535345D02*
X121585191Y-72535345D01*
X121276763Y-72535345D02*
X121276763Y-71455845D01*
X121379572Y-71610059D01*
X121482382Y-71712869D01*
X121585191Y-71764273D01*
X120608501Y-71455845D02*
X119888834Y-71455845D01*
X120351477Y-72535345D01*
X119477596Y-72432535D02*
X119426191Y-72483940D01*
X119477596Y-72535345D01*
X119529001Y-72483940D01*
X119477596Y-72432535D01*
X119477596Y-72535345D01*
X118243882Y-71815678D02*
X117986858Y-72535345D01*
X117729834Y-71815678D01*
X116855953Y-71815678D02*
X116855953Y-72535345D01*
X117112977Y-71404440D02*
X117370001Y-72175511D01*
X116701739Y-72175511D01*
X170722298Y-88207850D02*
X170825108Y-88156445D01*
X170979322Y-88156445D01*
X171133536Y-88207850D01*
X171236346Y-88310659D01*
X171287751Y-88413469D01*
X171339155Y-88619088D01*
X171339155Y-88773302D01*
X171287751Y-88978921D01*
X171236346Y-89081730D01*
X171133536Y-89184540D01*
X170979322Y-89235945D01*
X170876513Y-89235945D01*
X170722298Y-89184540D01*
X170670894Y-89133135D01*
X170670894Y-88773302D01*
X170876513Y-88773302D01*
X170208251Y-89235945D02*
X170208251Y-88156445D01*
X169591394Y-89235945D01*
X169591394Y-88156445D01*
X169077346Y-89235945D02*
X169077346Y-88156445D01*
X168820322Y-88156445D01*
X168666108Y-88207850D01*
X168563298Y-88310659D01*
X168511894Y-88413469D01*
X168460489Y-88619088D01*
X168460489Y-88773302D01*
X168511894Y-88978921D01*
X168563298Y-89081730D01*
X168666108Y-89184540D01*
X168820322Y-89235945D01*
X169077346Y-89235945D01*
D12*
X128823889Y-64685535D02*
X126973317Y-64685535D01*
X127898603Y-67924035D02*
X127898603Y-64685535D01*
X125893817Y-67924035D02*
X125893817Y-65765035D01*
X125893817Y-64685535D02*
X126048032Y-64839750D01*
X125893817Y-64993964D01*
X125739603Y-64839750D01*
X125893817Y-64685535D01*
X125893817Y-64993964D01*
X122963746Y-67924035D02*
X122963746Y-64685535D01*
X122963746Y-67769821D02*
X123272175Y-67924035D01*
X123889032Y-67924035D01*
X124197460Y-67769821D01*
X124351675Y-67615607D01*
X124505889Y-67307178D01*
X124505889Y-66381892D01*
X124351675Y-66073464D01*
X124197460Y-65919250D01*
X123889032Y-65765035D01*
X123272175Y-65765035D01*
X122963746Y-65919250D01*
X120187889Y-67769821D02*
X120496317Y-67924035D01*
X121113175Y-67924035D01*
X121421603Y-67769821D01*
X121575817Y-67461392D01*
X121575817Y-66227678D01*
X121421603Y-65919250D01*
X121113175Y-65765035D01*
X120496317Y-65765035D01*
X120187889Y-65919250D01*
X120033675Y-66227678D01*
X120033675Y-66536107D01*
X121575817Y-66844535D01*
X118799960Y-67769821D02*
X118491532Y-67924035D01*
X117874675Y-67924035D01*
X117566246Y-67769821D01*
X117412032Y-67461392D01*
X117412032Y-67307178D01*
X117566246Y-66998750D01*
X117874675Y-66844535D01*
X118337317Y-66844535D01*
X118645746Y-66690321D01*
X118799960Y-66381892D01*
X118799960Y-66227678D01*
X118645746Y-65919250D01*
X118337317Y-65765035D01*
X117874675Y-65765035D01*
X117566246Y-65919250D01*
D11*
X171287751Y-93904707D02*
X170465275Y-93904707D01*
X169385775Y-94315945D02*
X170002632Y-94315945D01*
X169694203Y-94315945D02*
X169694203Y-93236445D01*
X169797013Y-93390659D01*
X169899822Y-93493469D01*
X170002632Y-93544873D01*
X168974536Y-93339254D02*
X168923132Y-93287850D01*
X168820322Y-93236445D01*
X168563298Y-93236445D01*
X168460489Y-93287850D01*
X168409084Y-93339254D01*
X168357679Y-93442064D01*
X168357679Y-93544873D01*
X168409084Y-93699088D01*
X169025941Y-94315945D01*
X168357679Y-94315945D01*
X168049251Y-93236445D02*
X167689417Y-94315945D01*
X167329584Y-93236445D01*
X170722298Y-85667850D02*
X170825108Y-85616445D01*
X170979322Y-85616445D01*
X171133536Y-85667850D01*
X171236346Y-85770659D01*
X171287751Y-85873469D01*
X171339155Y-86079088D01*
X171339155Y-86233302D01*
X171287751Y-86438921D01*
X171236346Y-86541730D01*
X171133536Y-86644540D01*
X170979322Y-86695945D01*
X170876513Y-86695945D01*
X170722298Y-86644540D01*
X170670894Y-86593135D01*
X170670894Y-86233302D01*
X170876513Y-86233302D01*
X170208251Y-86695945D02*
X170208251Y-85616445D01*
X169591394Y-86695945D01*
X169591394Y-85616445D01*
X169077346Y-86695945D02*
X169077346Y-85616445D01*
X168820322Y-85616445D01*
X168666108Y-85667850D01*
X168563298Y-85770659D01*
X168511894Y-85873469D01*
X168460489Y-86079088D01*
X168460489Y-86233302D01*
X168511894Y-86438921D01*
X168563298Y-86541730D01*
X168666108Y-86644540D01*
X168820322Y-86695945D01*
X169077346Y-86695945D01*
X170722298Y-90747850D02*
X170825108Y-90696445D01*
X170979322Y-90696445D01*
X171133536Y-90747850D01*
X171236346Y-90850659D01*
X171287751Y-90953469D01*
X171339155Y-91159088D01*
X171339155Y-91313302D01*
X171287751Y-91518921D01*
X171236346Y-91621730D01*
X171133536Y-91724540D01*
X170979322Y-91775945D01*
X170876513Y-91775945D01*
X170722298Y-91724540D01*
X170670894Y-91673135D01*
X170670894Y-91313302D01*
X170876513Y-91313302D01*
X170208251Y-91775945D02*
X170208251Y-90696445D01*
X169591394Y-91775945D01*
X169591394Y-90696445D01*
X169077346Y-91775945D02*
X169077346Y-90696445D01*
X168820322Y-90696445D01*
X168666108Y-90747850D01*
X168563298Y-90850659D01*
X168511894Y-90953469D01*
X168460489Y-91159088D01*
X168460489Y-91313302D01*
X168511894Y-91518921D01*
X168563298Y-91621730D01*
X168666108Y-91724540D01*
X168820322Y-91775945D01*
X169077346Y-91775945D01*
D13*
X170906911Y-96994183D02*
X171410678Y-96274516D01*
X171770511Y-96994183D02*
X171770511Y-95482883D01*
X171194778Y-95482883D01*
X171050845Y-95554850D01*
X170978878Y-95626816D01*
X170906911Y-95770750D01*
X170906911Y-95986650D01*
X170978878Y-96130583D01*
X171050845Y-96202550D01*
X171194778Y-96274516D01*
X171770511Y-96274516D01*
X169683478Y-96922216D02*
X169827411Y-96994183D01*
X170115278Y-96994183D01*
X170259211Y-96922216D01*
X170331178Y-96778283D01*
X170331178Y-96202550D01*
X170259211Y-96058616D01*
X170115278Y-95986650D01*
X169827411Y-95986650D01*
X169683478Y-96058616D01*
X169611511Y-96202550D01*
X169611511Y-96346483D01*
X170331178Y-96490416D01*
X168316111Y-96994183D02*
X168316111Y-95482883D01*
X168316111Y-96922216D02*
X168460045Y-96994183D01*
X168747911Y-96994183D01*
X168891845Y-96922216D01*
X168963811Y-96850250D01*
X169035778Y-96706316D01*
X169035778Y-96274516D01*
X168963811Y-96130583D01*
X168891845Y-96058616D01*
X168747911Y-95986650D01*
X168460045Y-95986650D01*
X168316111Y-96058616D01*
X166516945Y-96922216D02*
X166301045Y-96994183D01*
X165941211Y-96994183D01*
X165797278Y-96922216D01*
X165725311Y-96850250D01*
X165653345Y-96706316D01*
X165653345Y-96562383D01*
X165725311Y-96418450D01*
X165797278Y-96346483D01*
X165941211Y-96274516D01*
X166229078Y-96202550D01*
X166373011Y-96130583D01*
X166444978Y-96058616D01*
X166516945Y-95914683D01*
X166516945Y-95770750D01*
X166444978Y-95626816D01*
X166373011Y-95554850D01*
X166229078Y-95482883D01*
X165869245Y-95482883D01*
X165653345Y-95554850D01*
X165221545Y-95986650D02*
X164645811Y-95986650D01*
X165005645Y-95482883D02*
X165005645Y-96778283D01*
X164933678Y-96922216D01*
X164789745Y-96994183D01*
X164645811Y-96994183D01*
X164142045Y-96994183D02*
X164142045Y-95986650D01*
X164142045Y-96274516D02*
X164070078Y-96130583D01*
X163998111Y-96058616D01*
X163854178Y-95986650D01*
X163710245Y-95986650D01*
X163206478Y-96994183D02*
X163206478Y-95986650D01*
X163206478Y-95482883D02*
X163278445Y-95554850D01*
X163206478Y-95626816D01*
X163134511Y-95554850D01*
X163206478Y-95482883D01*
X163206478Y-95626816D01*
X162486811Y-95986650D02*
X162486811Y-97497950D01*
X162486811Y-96058616D02*
X162342878Y-95986650D01*
X162055011Y-95986650D01*
X161911078Y-96058616D01*
X161839111Y-96130583D01*
X161767145Y-96274516D01*
X161767145Y-96706316D01*
X161839111Y-96850250D01*
X161911078Y-96922216D01*
X162055011Y-96994183D01*
X162342878Y-96994183D01*
X162486811Y-96922216D01*
X160543711Y-96922216D02*
X160687645Y-96994183D01*
X160975511Y-96994183D01*
X161119445Y-96922216D01*
X161191411Y-96778283D01*
X161191411Y-96202550D01*
X161119445Y-96058616D01*
X160975511Y-95986650D01*
X160687645Y-95986650D01*
X160543711Y-96058616D01*
X160471745Y-96202550D01*
X160471745Y-96346483D01*
X161191411Y-96490416D01*
D14*
X133742185Y-70837839D02*
X133838825Y-70886159D01*
X134032107Y-70886159D01*
X134128748Y-70837839D01*
X134177069Y-70789518D01*
X134225389Y-70692877D01*
X134225389Y-70402954D01*
X134177069Y-70306313D01*
X134128748Y-70257993D01*
X134032107Y-70209672D01*
X133838825Y-70209672D01*
X133742185Y-70257993D01*
X132872416Y-70837839D02*
X132969057Y-70886159D01*
X133162339Y-70886159D01*
X133258980Y-70837839D01*
X133307300Y-70789518D01*
X133355621Y-70692877D01*
X133355621Y-70402954D01*
X133307300Y-70306313D01*
X133258980Y-70257993D01*
X133162339Y-70209672D01*
X132969057Y-70209672D01*
X132872416Y-70257993D01*
X132437532Y-70499595D02*
X131664404Y-70499595D01*
X131181199Y-70886159D02*
X131181199Y-69871429D01*
X131181199Y-70257993D02*
X131084558Y-70209672D01*
X130891276Y-70209672D01*
X130794635Y-70257993D01*
X130746315Y-70306313D01*
X130697995Y-70402954D01*
X130697995Y-70692877D01*
X130746315Y-70789518D01*
X130794635Y-70837839D01*
X130891276Y-70886159D01*
X131084558Y-70886159D01*
X131181199Y-70837839D01*
X130359751Y-70209672D02*
X130118149Y-70886159D01*
X129876546Y-70209672D02*
X130118149Y-70886159D01*
X130214790Y-71127761D01*
X130263110Y-71176082D01*
X130359751Y-71224402D01*
X129489983Y-70499595D02*
X128716855Y-70499595D01*
X128281971Y-70837839D02*
X128185330Y-70886159D01*
X127992048Y-70886159D01*
X127895407Y-70837839D01*
X127847086Y-70741198D01*
X127847086Y-70692877D01*
X127895407Y-70596236D01*
X127992048Y-70547916D01*
X128137009Y-70547916D01*
X128233650Y-70499595D01*
X128281971Y-70402954D01*
X128281971Y-70354634D01*
X128233650Y-70257993D01*
X128137009Y-70209672D01*
X127992048Y-70209672D01*
X127895407Y-70257993D01*
X126977318Y-70886159D02*
X126977318Y-70354634D01*
X127025638Y-70257993D01*
X127122279Y-70209672D01*
X127315561Y-70209672D01*
X127412202Y-70257993D01*
X126977318Y-70837839D02*
X127073959Y-70886159D01*
X127315561Y-70886159D01*
X127412202Y-70837839D01*
X127460523Y-70741198D01*
X127460523Y-70644557D01*
X127412202Y-70547916D01*
X127315561Y-70499595D01*
X127073959Y-70499595D01*
X126977318Y-70451275D01*
X125720985Y-70354634D02*
X125382742Y-70354634D01*
X125237781Y-70886159D02*
X125720985Y-70886159D01*
X125720985Y-69871429D01*
X125237781Y-69871429D01*
X125382742Y-69484865D02*
X125527704Y-69629827D01*
X124802896Y-70886159D02*
X124802896Y-70209672D01*
X124802896Y-70306313D02*
X124754576Y-70257993D01*
X124657935Y-70209672D01*
X124512974Y-70209672D01*
X124416333Y-70257993D01*
X124368012Y-70354634D01*
X124368012Y-70886159D01*
X124368012Y-70354634D02*
X124319692Y-70257993D01*
X124223051Y-70209672D01*
X124078089Y-70209672D01*
X123981448Y-70257993D01*
X123933128Y-70354634D01*
X123933128Y-70886159D01*
X123449923Y-70886159D02*
X123449923Y-70209672D01*
X123449923Y-69871429D02*
X123498244Y-69919750D01*
X123449923Y-69968070D01*
X123401603Y-69919750D01*
X123449923Y-69871429D01*
X123449923Y-69968070D01*
X122821757Y-70886159D02*
X122918398Y-70837839D01*
X122966718Y-70741198D01*
X122966718Y-69871429D01*
X122435193Y-70886159D02*
X122435193Y-70209672D01*
X122435193Y-69871429D02*
X122483514Y-69919750D01*
X122435193Y-69968070D01*
X122386873Y-69919750D01*
X122435193Y-69871429D01*
X122435193Y-69968070D01*
X121565425Y-70837839D02*
X121662065Y-70886159D01*
X121855347Y-70886159D01*
X121951988Y-70837839D01*
X122000309Y-70741198D01*
X122000309Y-70354634D01*
X121951988Y-70257993D01*
X121855347Y-70209672D01*
X121662065Y-70209672D01*
X121565425Y-70257993D01*
X121517104Y-70354634D01*
X121517104Y-70451275D01*
X122000309Y-70547916D01*
X119777567Y-69919750D02*
X119874208Y-69871429D01*
X120019169Y-69871429D01*
X120164131Y-69919750D01*
X120260772Y-70016390D01*
X120309092Y-70113031D01*
X120357413Y-70306313D01*
X120357413Y-70451275D01*
X120309092Y-70644557D01*
X120260772Y-70741198D01*
X120164131Y-70837839D01*
X120019169Y-70886159D01*
X119922528Y-70886159D01*
X119777567Y-70837839D01*
X119729246Y-70789518D01*
X119729246Y-70451275D01*
X119922528Y-70451275D01*
X119294362Y-70886159D02*
X119294362Y-70209672D01*
X119294362Y-69871429D02*
X119342683Y-69919750D01*
X119294362Y-69968070D01*
X119246042Y-69919750D01*
X119294362Y-69871429D01*
X119294362Y-69968070D01*
X118666196Y-70886159D02*
X118762837Y-70837839D01*
X118811157Y-70741198D01*
X118811157Y-69871429D01*
X118134671Y-70886159D02*
X118231312Y-70837839D01*
X118279632Y-70741198D01*
X118279632Y-69871429D01*
X117361543Y-70837839D02*
X117458184Y-70886159D01*
X117651466Y-70886159D01*
X117748107Y-70837839D01*
X117796427Y-70741198D01*
X117796427Y-70354634D01*
X117748107Y-70257993D01*
X117651466Y-70209672D01*
X117458184Y-70209672D01*
X117361543Y-70257993D01*
X117313223Y-70354634D01*
X117313223Y-70451275D01*
X117796427Y-70547916D01*
X117023300Y-70209672D02*
X116636736Y-70209672D01*
X116878338Y-69871429D02*
X116878338Y-70741198D01*
X116830018Y-70837839D01*
X116733377Y-70886159D01*
X116636736Y-70886159D01*
D15*
%TO.C,JP7*%
X148808600Y-56902350D02*
X150078600Y-56902350D01*
X146268600Y-56902350D02*
X145633600Y-56267350D01*
X148173600Y-54997350D02*
X147538600Y-54362350D01*
X147538600Y-54362350D02*
X146268600Y-54362350D01*
X150713600Y-54997350D02*
X150078600Y-54362350D01*
X150078600Y-56902350D02*
X150713600Y-56267350D01*
X147538600Y-56902350D02*
X148173600Y-56267350D01*
X150078600Y-54362350D02*
X148808600Y-54362350D01*
X148173600Y-56267350D02*
X148808600Y-56902350D01*
X145633600Y-54997350D02*
X146268600Y-54362350D01*
X145633600Y-56267350D02*
X145633600Y-54997350D01*
X148808600Y-54362350D02*
X148173600Y-54997350D01*
X146268600Y-56902350D02*
X147538600Y-56902350D01*
X150713600Y-56267350D02*
X150713600Y-54997350D01*
%TO.C,JP6*%
X156428600Y-54997350D02*
X155793600Y-54362350D01*
X160873600Y-54362350D02*
X159603600Y-54362350D01*
X161508600Y-56267350D02*
X160873600Y-56902350D01*
X153888600Y-56267350D02*
X153253600Y-56902350D01*
X154523600Y-54362350D02*
X153888600Y-54997350D01*
X159603600Y-54362350D02*
X158968600Y-54997350D01*
X158333600Y-54362350D02*
X157063600Y-54362350D01*
X159603600Y-56902350D02*
X160873600Y-56902350D01*
X158968600Y-54997350D02*
X158333600Y-54362350D01*
X157063600Y-56902350D02*
X158333600Y-56902350D01*
X161508600Y-54997350D02*
X161508600Y-56267350D01*
X160873600Y-54362350D02*
X161508600Y-54997350D01*
X151983600Y-54362350D02*
X151348600Y-54997350D01*
X153253600Y-54362350D02*
X153888600Y-54997350D01*
X154523600Y-56902350D02*
X155793600Y-56902350D01*
X155793600Y-54362350D02*
X154523600Y-54362350D01*
X153888600Y-56267350D02*
X154523600Y-56902350D01*
X158968600Y-56267350D02*
X159603600Y-56902350D01*
X151983600Y-56902350D02*
X153253600Y-56902350D01*
X155793600Y-56902350D02*
X156428600Y-56267350D01*
X156428600Y-56267350D02*
X157063600Y-56902350D01*
X151348600Y-56267350D02*
X151983600Y-56902350D01*
X151348600Y-54997350D02*
X151348600Y-56267350D01*
X157063600Y-54362350D02*
X156428600Y-54997350D01*
X153253600Y-54362350D02*
X151983600Y-54362350D01*
X158333600Y-56902350D02*
X158968600Y-56267350D01*
%TO.C,JP5*%
X182518600Y-78552350D02*
X173518600Y-78552350D01*
X173518600Y-78552350D02*
X173518600Y-86452350D01*
X173518600Y-90852350D02*
X175018600Y-90852350D01*
X173518600Y-86452350D02*
X173518600Y-90852350D01*
X175243600Y-94367350D02*
X175243600Y-93097350D01*
X173518600Y-98752350D02*
X182418600Y-98752350D01*
X173518600Y-90852350D02*
X173518600Y-98752350D01*
X182518600Y-98752350D02*
X182518600Y-78552350D01*
X175018600Y-86452350D02*
X173518600Y-86452350D01*
X175018600Y-90852350D02*
X175018600Y-86452350D01*
%TD*%
%LPC*%
D16*
%TO.C,LED6*%
X163413600Y-145802350D03*
X160873600Y-145802350D03*
%TD*%
%TO.C,LED7*%
X174843600Y-145802350D03*
X172303600Y-145802350D03*
%TD*%
%TO.C,LED5*%
X151983600Y-145802350D03*
X149443600Y-145802350D03*
%TD*%
%TO.C,LED4*%
X140553600Y-145802350D03*
X138013600Y-145802350D03*
%TD*%
D17*
%TO.C,LED2*%
X170081100Y-54679850D03*
X170081100Y-57219850D03*
X170081100Y-59759850D03*
%TD*%
D18*
%TO.C,R58*%
X150991100Y-128372350D03*
X148491100Y-128372350D03*
X145991100Y-128372350D03*
D19*
X152891100Y-121672350D03*
X144091100Y-121672350D03*
%TD*%
D18*
%TO.C,R22*%
X150991100Y-103589850D03*
X148491100Y-103589850D03*
X145991100Y-103589850D03*
D20*
X153191100Y-96589850D03*
X143791100Y-96589850D03*
%TD*%
D18*
%TO.C,R57*%
X137973600Y-128372350D03*
X135473600Y-128372350D03*
X132973600Y-128372350D03*
D19*
X139873600Y-121672350D03*
X131073600Y-121672350D03*
%TD*%
D21*
%TO.C,SW3*%
X151742300Y-82022950D03*
X145239900Y-82022950D03*
X151742300Y-77501750D03*
X145239900Y-77501750D03*
%TD*%
D22*
%TO.C,J8*%
X131346100Y-152152350D03*
D23*
X131346100Y-146437350D03*
X131346100Y-148977350D03*
X131346100Y-156597350D03*
%TD*%
D22*
%TO.C,J9*%
X142776100Y-152152350D03*
D23*
X142776100Y-146437350D03*
X142776100Y-148977350D03*
X142776100Y-156597350D03*
%TD*%
D22*
%TO.C,J12*%
X177066100Y-152152350D03*
D23*
X177066100Y-146437350D03*
X177066100Y-148977350D03*
X177066100Y-156597350D03*
%TD*%
D22*
%TO.C,J3*%
X142776100Y-137547350D03*
D23*
X142776100Y-131832350D03*
X142776100Y-134372350D03*
X142776100Y-141992350D03*
%TD*%
D22*
%TO.C,J11*%
X165636100Y-152152350D03*
D23*
X165636100Y-146437350D03*
X165636100Y-148977350D03*
X165636100Y-156597350D03*
%TD*%
D22*
%TO.C,J2*%
X131346100Y-137547350D03*
D23*
X131346100Y-131832350D03*
X131346100Y-134372350D03*
X131346100Y-141992350D03*
%TD*%
D22*
%TO.C,J1*%
X119916100Y-137547350D03*
D23*
X119916100Y-131832350D03*
X119916100Y-134372350D03*
X119916100Y-141992350D03*
%TD*%
D22*
%TO.C,J10*%
X154206100Y-152152350D03*
D23*
X154206100Y-146437350D03*
X154206100Y-148977350D03*
X154206100Y-156597350D03*
%TD*%
D22*
%TO.C,J5*%
X165636100Y-137547350D03*
D23*
X165636100Y-131832350D03*
X165636100Y-134372350D03*
X165636100Y-141992350D03*
%TD*%
D18*
%TO.C,R60*%
X177026100Y-128372350D03*
X174526100Y-128372350D03*
X172026100Y-128372350D03*
D19*
X178926100Y-121672350D03*
X170126100Y-121672350D03*
%TD*%
D21*
%TO.C,SW2*%
X118290500Y-60471050D03*
X118290500Y-53968650D03*
X122811700Y-60471050D03*
X122811700Y-53968650D03*
%TD*%
D17*
%TO.C,LED3*%
X151031100Y-74491850D03*
X148491100Y-74491850D03*
X145951100Y-74491850D03*
%TD*%
D18*
%TO.C,R59*%
X164008600Y-128372350D03*
X161508600Y-128372350D03*
X159008600Y-128372350D03*
D19*
X165908600Y-121672350D03*
X157108600Y-121672350D03*
%TD*%
D22*
%TO.C,J7*%
X119916100Y-152152350D03*
D23*
X119916100Y-146437350D03*
X119916100Y-148977350D03*
X119916100Y-156597350D03*
%TD*%
D17*
%TO.C,LED1*%
X126901100Y-59759850D03*
X126901100Y-57219850D03*
X126901100Y-54679850D03*
%TD*%
D21*
%TO.C,SW1*%
X178691800Y-53968550D03*
X178691800Y-60470950D03*
X174170600Y-53968550D03*
X174170600Y-60470950D03*
%TD*%
D18*
%TO.C,R11*%
X131941100Y-81491850D03*
X129441100Y-81491850D03*
X126941100Y-81491850D03*
D20*
X134141100Y-74491850D03*
X124741100Y-74491850D03*
%TD*%
D18*
%TO.C,R23*%
X127178600Y-108669850D03*
X124678600Y-108669850D03*
X122178600Y-108669850D03*
D20*
X129378600Y-101669850D03*
X119978600Y-101669850D03*
%TD*%
D22*
%TO.C,J4*%
X154206100Y-137547350D03*
D23*
X154206100Y-131832350D03*
X154206100Y-134372350D03*
X154206100Y-141992350D03*
%TD*%
D24*
%TO.C,IC3*%
X180241100Y-70554850D03*
X180241100Y-68014850D03*
X180241100Y-65474850D03*
%TD*%
D18*
%TO.C,R24*%
X174803600Y-108669850D03*
X172303600Y-108669850D03*
X169803600Y-108669850D03*
D20*
X177003600Y-101669850D03*
X167603600Y-101669850D03*
%TD*%
D18*
%TO.C,R56*%
X124956100Y-128372350D03*
X122456100Y-128372350D03*
X119956100Y-128372350D03*
D19*
X126856100Y-121672350D03*
X118056100Y-121672350D03*
%TD*%
D18*
%TO.C,R12*%
X170041100Y-81491850D03*
X167541100Y-81491850D03*
X165041100Y-81491850D03*
D20*
X172241100Y-74491850D03*
X162841100Y-74491850D03*
%TD*%
D22*
%TO.C,J6*%
X177066100Y-137547350D03*
D23*
X177066100Y-131832350D03*
X177066100Y-134372350D03*
X177066100Y-141992350D03*
%TD*%
D21*
%TO.C,JP7*%
X146903600Y-55632350D03*
X149443600Y-55632350D03*
%TD*%
D18*
%TO.C,JP6*%
X160238600Y-55632350D03*
D21*
X157698600Y-55632350D03*
X155158600Y-55632350D03*
X152618600Y-55632350D03*
%TD*%
D25*
%TO.C,JP5*%
X176748600Y-93732350D03*
X179288600Y-93732350D03*
X176748600Y-91192350D03*
X179288600Y-91192350D03*
X176748600Y-88652350D03*
X179288600Y-88652350D03*
X176748600Y-86112350D03*
X179288600Y-86112350D03*
X176748600Y-83572350D03*
X179288600Y-83572350D03*
%TD*%
M02*
