%TF.GenerationSoftware,KiCad,Pcbnew,(6.0.11-0)*%
%TF.CreationDate,2023-05-26T19:22:20+02:00*%
%TF.ProjectId,tides,74696465-732e-46b6-9963-61645f706362,rev?*%
%TF.SameCoordinates,Original*%
%TF.FileFunction,Soldermask,Bot*%
%TF.FilePolarity,Negative*%
%FSLAX46Y46*%
G04 Gerber Fmt 4.6, Leading zero omitted, Abs format (unit mm)*
G04 Created by KiCad (PCBNEW (6.0.11-0)) date 2023-05-26 19:22:20*
%MOMM*%
%LPD*%
G01*
G04 APERTURE LIST*
G04 Aperture macros list*
%AMRoundRect*
0 Rectangle with rounded corners*
0 $1 Rounding radius*
0 $2 $3 $4 $5 $6 $7 $8 $9 X,Y pos of 4 corners*
0 Add a 4 corners polygon primitive as box body*
4,1,4,$2,$3,$4,$5,$6,$7,$8,$9,$2,$3,0*
0 Add four circle primitives for the rounded corners*
1,1,$1+$1,$2,$3*
1,1,$1+$1,$4,$5*
1,1,$1+$1,$6,$7*
1,1,$1+$1,$8,$9*
0 Add four rect primitives between the rounded corners*
20,1,$1+$1,$2,$3,$4,$5,0*
20,1,$1+$1,$4,$5,$6,$7,0*
20,1,$1+$1,$6,$7,$8,$9,0*
20,1,$1+$1,$8,$9,$2,$3,0*%
%AMFreePoly0*
4,1,25,0.301485,0.667973,0.306387,0.663482,0.663482,0.306387,0.685510,0.259146,0.685800,0.252505,0.685800,-0.252505,0.667973,-0.301485,0.663482,-0.306387,0.306387,-0.663482,0.259146,-0.685510,0.252505,-0.685800,-0.252505,-0.685800,-0.301485,-0.667973,-0.306387,-0.663482,-0.663482,-0.306387,-0.685510,-0.259146,-0.685800,-0.252505,-0.685800,0.252505,-0.667973,0.301485,-0.663482,0.306387,
-0.306387,0.663482,-0.259146,0.685510,-0.252505,0.685800,0.252505,0.685800,0.301485,0.667973,0.301485,0.667973,$1*%
%AMFreePoly1*
4,1,25,0.706544,1.645873,0.711446,1.641382,1.641382,0.711446,1.663410,0.664205,1.663700,0.657564,1.663700,-0.657564,1.645873,-0.706544,1.641382,-0.711446,0.711446,-1.641382,0.664205,-1.663410,0.657564,-1.663700,-0.657564,-1.663700,-0.706544,-1.645873,-0.711446,-1.641382,-1.641382,-0.711446,-1.663410,-0.664205,-1.663700,-0.657564,-1.663700,0.657564,-1.645873,0.706544,-1.641382,0.711446,
-0.711446,1.641382,-0.664205,1.663410,-0.657564,1.663700,0.657564,1.663700,0.706544,1.645873,0.706544,1.645873,$1*%
%AMFreePoly2*
4,1,25,0.575031,1.328373,0.579933,1.323882,1.323882,0.579933,1.345910,0.532692,1.346200,0.526051,1.346200,-0.526051,1.328373,-0.575031,1.323882,-0.579933,0.579933,-1.323882,0.532692,-1.345910,0.526051,-1.346200,-0.526051,-1.346200,-0.575031,-1.328373,-0.579933,-1.323882,-1.323882,-0.579933,-1.345910,-0.532692,-1.346200,-0.526051,-1.346200,0.526051,-1.328373,0.575031,-1.323882,0.579933,
-0.579933,1.323882,-0.532692,1.345910,-0.526051,1.346200,0.526051,1.346200,0.575031,1.328373,0.575031,1.328373,$1*%
%AMFreePoly3*
4,1,25,0.417216,0.947373,0.422118,0.942882,0.942882,0.422118,0.964910,0.374877,0.965200,0.368236,0.965200,-0.368236,0.947373,-0.417216,0.942882,-0.422118,0.422118,-0.942882,0.374877,-0.964910,0.368236,-0.965200,-0.368236,-0.965200,-0.417216,-0.947373,-0.422118,-0.942882,-0.942882,-0.422118,-0.964910,-0.374877,-0.965200,-0.368236,-0.965200,0.368236,-0.947373,0.417216,-0.942882,0.422118,
-0.422118,0.942882,-0.374877,0.964910,-0.368236,0.965200,0.368236,0.965200,0.417216,0.947373,0.417216,0.947373,$1*%
%AMFreePoly4*
4,1,25,0.448779,1.023573,0.453681,1.019082,1.019082,0.453681,1.041110,0.406440,1.041400,0.399799,1.041400,-0.399799,1.023573,-0.448779,1.019082,-0.453681,0.453681,-1.019082,0.406440,-1.041110,0.399799,-1.041400,-0.399799,-1.041400,-0.448779,-1.023573,-0.453681,-1.019082,-1.019082,-0.453681,-1.041110,-0.406440,-1.041400,-0.399799,-1.041400,0.399799,-1.023573,0.448779,-1.019082,0.453681,
-0.453681,1.019082,-0.406440,1.041110,-0.399799,1.041400,0.399799,1.041400,0.448779,1.023573,0.448779,1.023573,$1*%
%AMFreePoly5*
4,1,25,0.438258,0.998173,0.443160,0.993682,0.993682,0.443160,1.015710,0.395919,1.016000,0.389278,1.016000,-0.389278,0.998173,-0.438258,0.993682,-0.443160,0.443160,-0.993682,0.395919,-1.015710,0.389278,-1.016000,-0.389278,-1.016000,-0.438258,-0.998173,-0.443160,-0.993682,-0.993682,-0.443160,-1.015710,-0.395919,-1.016000,-0.389278,-1.016000,0.389278,-0.998173,0.438258,-0.993682,0.443160,
-0.443160,0.993682,-0.395919,1.015710,-0.389278,1.016000,0.389278,1.016000,0.438258,0.998173,0.438258,0.998173,$1*%
G04 Aperture macros list end*
%ADD10FreePoly0,180.000000*%
%ADD11C,1.258800*%
%ADD12RoundRect,0.076200X0.939800X-0.939800X0.939800X0.939800X-0.939800X0.939800X-0.939800X-0.939800X0*%
%ADD13FreePoly1,90.000000*%
%ADD14FreePoly2,90.000000*%
%ADD15C,2.032000*%
%ADD16C,2.200000*%
%ADD17FreePoly3,180.000000*%
%ADD18FreePoly4,180.000000*%
%ADD19FreePoly5,90.000000*%
G04 APERTURE END LIST*
D10*
%TO.C,LED6*%
X163413600Y-145802350D03*
X160873600Y-145802350D03*
%TD*%
D11*
%TO.C,LED2*%
X170081100Y-54679850D03*
X170081100Y-57219850D03*
X170081100Y-59759850D03*
%TD*%
D10*
%TO.C,LED7*%
X174843600Y-145802350D03*
X172303600Y-145802350D03*
%TD*%
D12*
%TO.C,R58*%
X150991100Y-128372350D03*
X148491100Y-128372350D03*
X145991100Y-128372350D03*
D13*
X152891100Y-121672350D03*
X144091100Y-121672350D03*
%TD*%
D12*
%TO.C,R22*%
X150991100Y-103589850D03*
X148491100Y-103589850D03*
X145991100Y-103589850D03*
D14*
X153191100Y-96589850D03*
X143791100Y-96589850D03*
%TD*%
D12*
%TO.C,R57*%
X137973600Y-128372350D03*
X135473600Y-128372350D03*
X132973600Y-128372350D03*
D13*
X139873600Y-121672350D03*
X131073600Y-121672350D03*
%TD*%
D15*
%TO.C,SW3*%
X151742300Y-82022950D03*
X145239900Y-82022950D03*
X151742300Y-77501750D03*
X145239900Y-77501750D03*
%TD*%
D16*
%TO.C,J8*%
X131346100Y-152152350D03*
D17*
X131346100Y-146437350D03*
X131346100Y-148977350D03*
X131346100Y-156597350D03*
%TD*%
D16*
%TO.C,J9*%
X142776100Y-152152350D03*
D17*
X142776100Y-146437350D03*
X142776100Y-148977350D03*
X142776100Y-156597350D03*
%TD*%
D16*
%TO.C,J12*%
X177066100Y-152152350D03*
D17*
X177066100Y-146437350D03*
X177066100Y-148977350D03*
X177066100Y-156597350D03*
%TD*%
D16*
%TO.C,J3*%
X142776100Y-137547350D03*
D17*
X142776100Y-131832350D03*
X142776100Y-134372350D03*
X142776100Y-141992350D03*
%TD*%
D16*
%TO.C,J11*%
X165636100Y-152152350D03*
D17*
X165636100Y-146437350D03*
X165636100Y-148977350D03*
X165636100Y-156597350D03*
%TD*%
D16*
%TO.C,J2*%
X131346100Y-137547350D03*
D17*
X131346100Y-131832350D03*
X131346100Y-134372350D03*
X131346100Y-141992350D03*
%TD*%
D16*
%TO.C,J1*%
X119916100Y-137547350D03*
D17*
X119916100Y-131832350D03*
X119916100Y-134372350D03*
X119916100Y-141992350D03*
%TD*%
D16*
%TO.C,J10*%
X154206100Y-152152350D03*
D17*
X154206100Y-146437350D03*
X154206100Y-148977350D03*
X154206100Y-156597350D03*
%TD*%
D16*
%TO.C,J5*%
X165636100Y-137547350D03*
D17*
X165636100Y-131832350D03*
X165636100Y-134372350D03*
X165636100Y-141992350D03*
%TD*%
D12*
%TO.C,R60*%
X177026100Y-128372350D03*
X174526100Y-128372350D03*
X172026100Y-128372350D03*
D13*
X178926100Y-121672350D03*
X170126100Y-121672350D03*
%TD*%
D15*
%TO.C,SW2*%
X118290500Y-60471050D03*
X118290500Y-53968650D03*
X122811700Y-60471050D03*
X122811700Y-53968650D03*
%TD*%
D11*
%TO.C,LED3*%
X151031100Y-74491850D03*
X148491100Y-74491850D03*
X145951100Y-74491850D03*
%TD*%
D12*
%TO.C,R59*%
X164008600Y-128372350D03*
X161508600Y-128372350D03*
X159008600Y-128372350D03*
D13*
X165908600Y-121672350D03*
X157108600Y-121672350D03*
%TD*%
D10*
%TO.C,LED5*%
X151983600Y-145802350D03*
X149443600Y-145802350D03*
%TD*%
D16*
%TO.C,J7*%
X119916100Y-152152350D03*
D17*
X119916100Y-146437350D03*
X119916100Y-148977350D03*
X119916100Y-156597350D03*
%TD*%
D11*
%TO.C,LED1*%
X126901100Y-59759850D03*
X126901100Y-57219850D03*
X126901100Y-54679850D03*
%TD*%
D15*
%TO.C,SW1*%
X178691800Y-53968550D03*
X178691800Y-60470950D03*
X174170600Y-53968550D03*
X174170600Y-60470950D03*
%TD*%
D12*
%TO.C,R11*%
X131941100Y-81491850D03*
X129441100Y-81491850D03*
X126941100Y-81491850D03*
D14*
X134141100Y-74491850D03*
X124741100Y-74491850D03*
%TD*%
D12*
%TO.C,R23*%
X127178600Y-108669850D03*
X124678600Y-108669850D03*
X122178600Y-108669850D03*
D14*
X129378600Y-101669850D03*
X119978600Y-101669850D03*
%TD*%
D16*
%TO.C,J4*%
X154206100Y-137547350D03*
D17*
X154206100Y-131832350D03*
X154206100Y-134372350D03*
X154206100Y-141992350D03*
%TD*%
D10*
%TO.C,LED4*%
X140553600Y-145802350D03*
X138013600Y-145802350D03*
%TD*%
D18*
%TO.C,IC3*%
X180241100Y-70554850D03*
X180241100Y-68014850D03*
X180241100Y-65474850D03*
%TD*%
D12*
%TO.C,R24*%
X174803600Y-108669850D03*
X172303600Y-108669850D03*
X169803600Y-108669850D03*
D14*
X177003600Y-101669850D03*
X167603600Y-101669850D03*
%TD*%
D12*
%TO.C,R56*%
X124956100Y-128372350D03*
X122456100Y-128372350D03*
X119956100Y-128372350D03*
D13*
X126856100Y-121672350D03*
X118056100Y-121672350D03*
%TD*%
D12*
%TO.C,R12*%
X170041100Y-81491850D03*
X167541100Y-81491850D03*
X165041100Y-81491850D03*
D14*
X172241100Y-74491850D03*
X162841100Y-74491850D03*
%TD*%
D16*
%TO.C,J6*%
X177066100Y-137547350D03*
D17*
X177066100Y-131832350D03*
X177066100Y-134372350D03*
X177066100Y-141992350D03*
%TD*%
D15*
%TO.C,JP7*%
X146903600Y-55632350D03*
X149443600Y-55632350D03*
%TD*%
D12*
%TO.C,JP6*%
X160238600Y-55632350D03*
D15*
X157698600Y-55632350D03*
X155158600Y-55632350D03*
X152618600Y-55632350D03*
%TD*%
D19*
%TO.C,JP5*%
X176748600Y-93732350D03*
X179288600Y-93732350D03*
X176748600Y-91192350D03*
X179288600Y-91192350D03*
X176748600Y-88652350D03*
X179288600Y-88652350D03*
X176748600Y-86112350D03*
X179288600Y-86112350D03*
X176748600Y-83572350D03*
X179288600Y-83572350D03*
%TD*%
M02*
