%TF.GenerationSoftware,KiCad,Pcbnew,(6.0.11-0)*%
%TF.CreationDate,2023-05-29T14:43:09+02:00*%
%TF.ProjectId,tides,74696465-732e-46b6-9963-61645f706362,rev?*%
%TF.SameCoordinates,Original*%
%TF.FileFunction,Soldermask,Top*%
%TF.FilePolarity,Negative*%
%FSLAX46Y46*%
G04 Gerber Fmt 4.6, Leading zero omitted, Abs format (unit mm)*
G04 Created by KiCad (PCBNEW (6.0.11-0)) date 2023-05-29 14:43:09*
%MOMM*%
%LPD*%
G01*
G04 APERTURE LIST*
G04 Aperture macros list*
%AMRoundRect*
0 Rectangle with rounded corners*
0 $1 Rounding radius*
0 $2 $3 $4 $5 $6 $7 $8 $9 X,Y pos of 4 corners*
0 Add a 4 corners polygon primitive as box body*
4,1,4,$2,$3,$4,$5,$6,$7,$8,$9,$2,$3,0*
0 Add four circle primitives for the rounded corners*
1,1,$1+$1,$2,$3*
1,1,$1+$1,$4,$5*
1,1,$1+$1,$6,$7*
1,1,$1+$1,$8,$9*
0 Add four rect primitives between the rounded corners*
20,1,$1+$1,$2,$3,$4,$5,0*
20,1,$1+$1,$4,$5,$6,$7,0*
20,1,$1+$1,$6,$7,$8,$9,0*
20,1,$1+$1,$8,$9,$2,$3,0*%
%AMFreePoly0*
4,1,25,0.391885,0.667973,0.396787,0.663482,0.753882,0.306387,0.775910,0.259146,0.776200,0.252505,0.776200,-0.252505,0.758373,-0.301485,0.753882,-0.306387,0.396787,-0.663482,0.349546,-0.685510,0.342905,-0.685800,-0.342905,-0.685800,-0.391885,-0.667973,-0.396787,-0.663482,-0.753882,-0.306387,-0.775910,-0.259146,-0.776200,-0.252505,-0.776200,0.252505,-0.758373,0.301485,-0.753882,0.306387,
-0.396787,0.663482,-0.349546,0.685510,-0.342905,0.685800,0.342905,0.685800,0.391885,0.667973,0.391885,0.667973,$1*%
%AMFreePoly1*
4,1,25,0.706544,1.645873,0.711446,1.641382,1.641382,0.711446,1.663410,0.664205,1.663700,0.657564,1.663700,-0.657564,1.645873,-0.706544,1.641382,-0.711446,0.711446,-1.641382,0.664205,-1.663410,0.657564,-1.663700,-0.657564,-1.663700,-0.706544,-1.645873,-0.711446,-1.641382,-1.641382,-0.711446,-1.663410,-0.664205,-1.663700,-0.657564,-1.663700,0.657564,-1.645873,0.706544,-1.641382,0.711446,
-0.711446,1.641382,-0.664205,1.663410,-0.657564,1.663700,0.657564,1.663700,0.706544,1.645873,0.706544,1.645873,$1*%
%AMFreePoly2*
4,1,25,0.575031,1.328373,0.579933,1.323882,1.323882,0.579933,1.345910,0.532692,1.346200,0.526051,1.346200,-0.526051,1.328373,-0.575031,1.323882,-0.579933,0.579933,-1.323882,0.532692,-1.345910,0.526051,-1.346200,-0.526051,-1.346200,-0.575031,-1.328373,-0.579933,-1.323882,-1.323882,-0.579933,-1.345910,-0.532692,-1.346200,-0.526051,-1.346200,0.526051,-1.328373,0.575031,-1.323882,0.579933,
-0.579933,1.323882,-0.532692,1.345910,-0.526051,1.346200,0.526051,1.346200,0.575031,1.328373,0.575031,1.328373,$1*%
%AMFreePoly3*
4,1,25,0.417216,0.947373,0.422118,0.942882,0.942882,0.422118,0.964910,0.374877,0.965200,0.368236,0.965200,-0.368236,0.947373,-0.417216,0.942882,-0.422118,0.422118,-0.942882,0.374877,-0.964910,0.368236,-0.965200,-0.368236,-0.965200,-0.417216,-0.947373,-0.422118,-0.942882,-0.942882,-0.422118,-0.964910,-0.374877,-0.965200,-0.368236,-0.965200,0.368236,-0.947373,0.417216,-0.942882,0.422118,
-0.422118,0.942882,-0.374877,0.964910,-0.368236,0.965200,0.368236,0.965200,0.417216,0.947373,0.417216,0.947373,$1*%
%AMFreePoly4*
4,1,25,0.448779,1.023573,0.453681,1.019082,1.019082,0.453681,1.041110,0.406440,1.041400,0.399799,1.041400,-0.399799,1.023573,-0.448779,1.019082,-0.453681,0.453681,-1.019082,0.406440,-1.041110,0.399799,-1.041400,-0.399799,-1.041400,-0.448779,-1.023573,-0.453681,-1.019082,-1.019082,-0.453681,-1.041110,-0.406440,-1.041400,-0.399799,-1.041400,0.399799,-1.023573,0.448779,-1.019082,0.453681,
-0.453681,1.019082,-0.406440,1.041110,-0.399799,1.041400,0.399799,1.041400,0.448779,1.023573,0.448779,1.023573,$1*%
%AMFreePoly5*
4,1,25,0.438258,0.998173,0.443160,0.993682,0.993682,0.443160,1.015710,0.395919,1.016000,0.389278,1.016000,-0.389278,0.998173,-0.438258,0.993682,-0.443160,0.443160,-0.993682,0.395919,-1.015710,0.389278,-1.016000,-0.389278,-1.016000,-0.438258,-0.998173,-0.443160,-0.993682,-0.993682,-0.443160,-1.015710,-0.395919,-1.016000,-0.389278,-1.016000,0.389278,-0.998173,0.438258,-0.993682,0.443160,
-0.443160,0.993682,-0.395919,1.015710,-0.389278,1.016000,0.389278,1.016000,0.438258,0.998173,0.438258,0.998173,$1*%
G04 Aperture macros list end*
%ADD10C,0.137160*%
%ADD11C,0.571500*%
%ADD12FreePoly0,180.000000*%
%ADD13RoundRect,0.150000X0.150000X-0.825000X0.150000X0.825000X-0.150000X0.825000X-0.150000X-0.825000X0*%
%ADD14RoundRect,0.076200X-0.500000X0.175000X-0.500000X-0.175000X0.500000X-0.175000X0.500000X0.175000X0*%
%ADD15RoundRect,0.076200X-0.700000X0.700000X-0.700000X-0.700000X0.700000X-0.700000X0.700000X0.700000X0*%
%ADD16RoundRect,0.076200X0.700000X-1.100000X0.700000X1.100000X-0.700000X1.100000X-0.700000X-1.100000X0*%
%ADD17RoundRect,0.076200X-1.100000X-0.700000X1.100000X-0.700000X1.100000X0.700000X-1.100000X0.700000X0*%
%ADD18RoundRect,0.076200X-0.700000X1.100000X-0.700000X-1.100000X0.700000X-1.100000X0.700000X1.100000X0*%
%ADD19RoundRect,0.100000X0.100000X-0.637500X0.100000X0.637500X-0.100000X0.637500X-0.100000X-0.637500X0*%
%ADD20RoundRect,0.076200X0.500000X-0.175000X0.500000X0.175000X-0.500000X0.175000X-0.500000X-0.175000X0*%
%ADD21RoundRect,0.076200X-0.500000X0.127000X-0.500000X-0.127000X0.500000X-0.127000X0.500000X0.127000X0*%
%ADD22RoundRect,0.076200X-0.127000X0.500000X-0.127000X-0.500000X0.127000X-0.500000X0.127000X0.500000X0*%
%ADD23RoundRect,0.076200X0.625000X-0.450000X0.625000X0.450000X-0.625000X0.450000X-0.625000X-0.450000X0*%
%ADD24RoundRect,0.076200X-0.375000X0.325000X-0.375000X-0.325000X0.375000X-0.325000X0.375000X0.325000X0*%
%ADD25RoundRect,0.076200X0.325000X0.375000X-0.325000X0.375000X-0.325000X-0.375000X0.325000X-0.375000X0*%
%ADD26RoundRect,0.076200X-0.325000X-0.375000X0.325000X-0.375000X0.325000X0.375000X-0.325000X0.375000X0*%
%ADD27C,1.258800*%
%ADD28RoundRect,0.076200X0.800000X0.900000X-0.800000X0.900000X-0.800000X-0.900000X0.800000X-0.900000X0*%
%ADD29RoundRect,0.076200X0.375000X-0.325000X0.375000X0.325000X-0.375000X0.325000X-0.375000X-0.325000X0*%
%ADD30RoundRect,0.076200X0.939800X-0.939800X0.939800X0.939800X-0.939800X0.939800X-0.939800X-0.939800X0*%
%ADD31FreePoly1,90.000000*%
%ADD32FreePoly2,90.000000*%
%ADD33RoundRect,0.076200X-0.425000X-0.350000X0.425000X-0.350000X0.425000X0.350000X-0.425000X0.350000X0*%
%ADD34RoundRect,0.576200X0.000000X0.000000X0.000000X0.000000X0.000000X0.000000X0.000000X0.000000X0*%
%ADD35C,2.032000*%
%ADD36C,2.200000*%
%ADD37FreePoly3,180.000000*%
%ADD38RoundRect,0.076200X0.700000X-0.950000X0.700000X0.950000X-0.700000X0.950000X-0.700000X-0.950000X0*%
%ADD39RoundRect,0.076200X-0.500000X0.550000X-0.500000X-0.550000X0.500000X-0.550000X0.500000X0.550000X0*%
%ADD40RoundRect,0.076200X0.500000X0.550000X-0.500000X0.550000X-0.500000X-0.550000X0.500000X-0.550000X0*%
%ADD41RoundRect,0.076200X0.550000X0.500000X-0.550000X0.500000X-0.550000X-0.500000X0.550000X-0.500000X0*%
%ADD42RoundRect,0.076200X-0.500000X-0.550000X0.500000X-0.550000X0.500000X0.550000X-0.500000X0.550000X0*%
%ADD43RoundRect,0.076200X-1.000000X1.000000X-1.000000X-1.000000X1.000000X-1.000000X1.000000X1.000000X0*%
%ADD44RoundRect,0.076200X-0.550000X0.500000X-0.550000X-0.500000X0.550000X-0.500000X0.550000X0.500000X0*%
%ADD45RoundRect,0.076200X0.350000X0.500000X-0.350000X0.500000X-0.350000X-0.500000X0.350000X-0.500000X0*%
%ADD46RoundRect,0.076200X-0.500000X-0.700000X0.500000X-0.700000X0.500000X0.700000X-0.500000X0.700000X0*%
%ADD47RoundRect,0.076200X-0.800000X-0.900000X0.800000X-0.900000X0.800000X0.900000X-0.800000X0.900000X0*%
%ADD48RoundRect,0.076200X0.350000X-0.425000X0.350000X0.425000X-0.350000X0.425000X-0.350000X-0.425000X0*%
%ADD49RoundRect,0.076200X-0.550000X-0.500000X0.550000X-0.500000X0.550000X0.500000X-0.550000X0.500000X0*%
%ADD50FreePoly4,180.000000*%
%ADD51FreePoly5,90.000000*%
G04 APERTURE END LIST*
D10*
X117302277Y-76615036D02*
X117339288Y-76689058D01*
X117339288Y-76837104D01*
X117302277Y-76911127D01*
X117265265Y-76948138D01*
X117191242Y-76985150D01*
X116969174Y-76985150D01*
X116895151Y-76948138D01*
X116858140Y-76911127D01*
X116821128Y-76837104D01*
X116821128Y-76689058D01*
X116858140Y-76615036D01*
X117302277Y-75948830D02*
X117339288Y-76022853D01*
X117339288Y-76170898D01*
X117302277Y-76244921D01*
X117265265Y-76281933D01*
X117191242Y-76318944D01*
X116969174Y-76318944D01*
X116895151Y-76281933D01*
X116858140Y-76244921D01*
X116821128Y-76170898D01*
X116821128Y-76022853D01*
X116858140Y-75948830D01*
X117043197Y-75615727D02*
X117043197Y-75023544D01*
X117339288Y-74653430D02*
X116562048Y-74653430D01*
X116858140Y-74653430D02*
X116821128Y-74579407D01*
X116821128Y-74431361D01*
X116858140Y-74357338D01*
X116895151Y-74320327D01*
X116969174Y-74283316D01*
X117191242Y-74283316D01*
X117265265Y-74320327D01*
X117302277Y-74357338D01*
X117339288Y-74431361D01*
X117339288Y-74579407D01*
X117302277Y-74653430D01*
X116821128Y-74024236D02*
X117339288Y-73839178D01*
X116821128Y-73654121D02*
X117339288Y-73839178D01*
X117524345Y-73913201D01*
X117561357Y-73950213D01*
X117598368Y-74024236D01*
X117043197Y-73358030D02*
X117043197Y-72765847D01*
X117302277Y-72432744D02*
X117339288Y-72358721D01*
X117339288Y-72210676D01*
X117302277Y-72136653D01*
X117228254Y-72099641D01*
X117191242Y-72099641D01*
X117117220Y-72136653D01*
X117080208Y-72210676D01*
X117080208Y-72321710D01*
X117043197Y-72395733D01*
X116969174Y-72432744D01*
X116932162Y-72432744D01*
X116858140Y-72395733D01*
X116821128Y-72321710D01*
X116821128Y-72210676D01*
X116858140Y-72136653D01*
X117339288Y-71433436D02*
X116932162Y-71433436D01*
X116858140Y-71470447D01*
X116821128Y-71544470D01*
X116821128Y-71692516D01*
X116858140Y-71766538D01*
X117302277Y-71433436D02*
X117339288Y-71507458D01*
X117339288Y-71692516D01*
X117302277Y-71766538D01*
X117228254Y-71803550D01*
X117154231Y-71803550D01*
X117080208Y-71766538D01*
X117043197Y-71692516D01*
X117043197Y-71507458D01*
X117006185Y-71433436D01*
X118360662Y-76948038D02*
X118360662Y-76688958D01*
X118767788Y-76577924D02*
X118767788Y-76948038D01*
X117990548Y-76948038D01*
X117990548Y-76577924D01*
X117694457Y-76688958D02*
X117805491Y-76799993D01*
X118767788Y-76244821D02*
X118249628Y-76244821D01*
X118323651Y-76244821D02*
X118286640Y-76207810D01*
X118249628Y-76133787D01*
X118249628Y-76022753D01*
X118286640Y-75948730D01*
X118360662Y-75911718D01*
X118767788Y-75911718D01*
X118360662Y-75911718D02*
X118286640Y-75874707D01*
X118249628Y-75800684D01*
X118249628Y-75689650D01*
X118286640Y-75615627D01*
X118360662Y-75578616D01*
X118767788Y-75578616D01*
X118767788Y-75208501D02*
X118249628Y-75208501D01*
X117990548Y-75208501D02*
X118027560Y-75245513D01*
X118064571Y-75208501D01*
X118027560Y-75171490D01*
X117990548Y-75208501D01*
X118064571Y-75208501D01*
X118767788Y-74727353D02*
X118730777Y-74801376D01*
X118656754Y-74838387D01*
X117990548Y-74838387D01*
X118767788Y-74431261D02*
X118249628Y-74431261D01*
X117990548Y-74431261D02*
X118027560Y-74468273D01*
X118064571Y-74431261D01*
X118027560Y-74394250D01*
X117990548Y-74431261D01*
X118064571Y-74431261D01*
X118730777Y-73765056D02*
X118767788Y-73839078D01*
X118767788Y-73987124D01*
X118730777Y-74061147D01*
X118656754Y-74098158D01*
X118360662Y-74098158D01*
X118286640Y-74061147D01*
X118249628Y-73987124D01*
X118249628Y-73839078D01*
X118286640Y-73765056D01*
X118360662Y-73728044D01*
X118434685Y-73728044D01*
X118508708Y-74098158D01*
X118027560Y-72395633D02*
X117990548Y-72469656D01*
X117990548Y-72580690D01*
X118027560Y-72691724D01*
X118101582Y-72765747D01*
X118175605Y-72802758D01*
X118323651Y-72839770D01*
X118434685Y-72839770D01*
X118582731Y-72802758D01*
X118656754Y-72765747D01*
X118730777Y-72691724D01*
X118767788Y-72580690D01*
X118767788Y-72506667D01*
X118730777Y-72395633D01*
X118693765Y-72358621D01*
X118434685Y-72358621D01*
X118434685Y-72506667D01*
X118767788Y-72025518D02*
X118249628Y-72025518D01*
X117990548Y-72025518D02*
X118027560Y-72062530D01*
X118064571Y-72025518D01*
X118027560Y-71988507D01*
X117990548Y-72025518D01*
X118064571Y-72025518D01*
X118767788Y-71544370D02*
X118730777Y-71618393D01*
X118656754Y-71655404D01*
X117990548Y-71655404D01*
X118767788Y-71137244D02*
X118730777Y-71211267D01*
X118656754Y-71248278D01*
X117990548Y-71248278D01*
X118730777Y-70545061D02*
X118767788Y-70619084D01*
X118767788Y-70767130D01*
X118730777Y-70841153D01*
X118656754Y-70878164D01*
X118360662Y-70878164D01*
X118286640Y-70841153D01*
X118249628Y-70767130D01*
X118249628Y-70619084D01*
X118286640Y-70545061D01*
X118360662Y-70508050D01*
X118434685Y-70508050D01*
X118508708Y-70878164D01*
X118249628Y-70285981D02*
X118249628Y-69989890D01*
X117990548Y-70174947D02*
X118656754Y-70174947D01*
X118730777Y-70137936D01*
X118767788Y-70063913D01*
X118767788Y-69989890D01*
X119493371Y-76985250D02*
X119456360Y-76948238D01*
X119419348Y-76874216D01*
X119419348Y-76689158D01*
X119456360Y-76615136D01*
X119493371Y-76578124D01*
X119567394Y-76541113D01*
X119641417Y-76541113D01*
X119752451Y-76578124D01*
X120196588Y-77022261D01*
X120196588Y-76541113D01*
X119419348Y-76059964D02*
X119419348Y-75985941D01*
X119456360Y-75911918D01*
X119493371Y-75874907D01*
X119567394Y-75837896D01*
X119715440Y-75800884D01*
X119900497Y-75800884D01*
X120048542Y-75837896D01*
X120122565Y-75874907D01*
X120159577Y-75911918D01*
X120196588Y-75985941D01*
X120196588Y-76059964D01*
X120159577Y-76133987D01*
X120122565Y-76170998D01*
X120048542Y-76208010D01*
X119900497Y-76245021D01*
X119715440Y-76245021D01*
X119567394Y-76208010D01*
X119493371Y-76170998D01*
X119456360Y-76133987D01*
X119419348Y-76059964D01*
X120196588Y-75060656D02*
X120196588Y-75504793D01*
X120196588Y-75282724D02*
X119419348Y-75282724D01*
X119530382Y-75356747D01*
X119604405Y-75430770D01*
X119641417Y-75504793D01*
X119419348Y-74801576D02*
X119419348Y-74283416D01*
X120196588Y-74616518D01*
X120122565Y-73987324D02*
X120159577Y-73950313D01*
X120196588Y-73987324D01*
X120159577Y-74024336D01*
X120122565Y-73987324D01*
X120196588Y-73987324D01*
X119678428Y-73099050D02*
X120196588Y-72913993D01*
X119678428Y-72728936D01*
X119678428Y-72099741D02*
X120196588Y-72099741D01*
X119382337Y-72284798D02*
X119937508Y-72469856D01*
X119937508Y-71988707D01*
D11*
X116840885Y-93052446D02*
X116840885Y-91201875D01*
X120079385Y-92127160D02*
X116840885Y-92127160D01*
X120079385Y-90122375D02*
X117920385Y-90122375D01*
X116840885Y-90122375D02*
X116995100Y-90276589D01*
X117149314Y-90122375D01*
X116995100Y-89968160D01*
X116840885Y-90122375D01*
X117149314Y-90122375D01*
X120079385Y-87192303D02*
X116840885Y-87192303D01*
X119925171Y-87192303D02*
X120079385Y-87500732D01*
X120079385Y-88117589D01*
X119925171Y-88426017D01*
X119770957Y-88580232D01*
X119462528Y-88734446D01*
X118537242Y-88734446D01*
X118228814Y-88580232D01*
X118074600Y-88426017D01*
X117920385Y-88117589D01*
X117920385Y-87500732D01*
X118074600Y-87192303D01*
X119925171Y-84416446D02*
X120079385Y-84724875D01*
X120079385Y-85341732D01*
X119925171Y-85650160D01*
X119616742Y-85804375D01*
X118383028Y-85804375D01*
X118074600Y-85650160D01*
X117920385Y-85341732D01*
X117920385Y-84724875D01*
X118074600Y-84416446D01*
X118383028Y-84262232D01*
X118691457Y-84262232D01*
X118999885Y-85804375D01*
X119925171Y-83028517D02*
X120079385Y-82720089D01*
X120079385Y-82103232D01*
X119925171Y-81794803D01*
X119616742Y-81640589D01*
X119462528Y-81640589D01*
X119154100Y-81794803D01*
X118999885Y-82103232D01*
X118999885Y-82565875D01*
X118845671Y-82874303D01*
X118537242Y-83028517D01*
X118383028Y-83028517D01*
X118074600Y-82874303D01*
X117920385Y-82565875D01*
X117920385Y-82103232D01*
X118074600Y-81794803D01*
%TO.C,IC5*%
G36*
X163938600Y-91262350D02*
G01*
X162888600Y-91262350D01*
X162888600Y-89687350D01*
X163938600Y-89687350D01*
X163938600Y-91262350D01*
G37*
G36*
X162438600Y-91262350D02*
G01*
X161388600Y-91262350D01*
X161388600Y-89687350D01*
X162438600Y-89687350D01*
X162438600Y-91262350D01*
G37*
G36*
X165438600Y-91262350D02*
G01*
X164388600Y-91262350D01*
X164388600Y-89687350D01*
X165438600Y-89687350D01*
X165438600Y-91262350D01*
G37*
%TD*%
D12*
%TO.C,LED6*%
X163413600Y-145802350D03*
X160873600Y-145802350D03*
%TD*%
%TO.C,LED7*%
X174843600Y-145802350D03*
X172303600Y-145802350D03*
%TD*%
%TO.C,LED5*%
X151983600Y-145802350D03*
X149443600Y-145802350D03*
%TD*%
%TO.C,LED4*%
X140553600Y-145802350D03*
X138013600Y-145802350D03*
%TD*%
D13*
%TO.C,IC8*%
X160090000Y-114675000D03*
X161360000Y-114675000D03*
X162630000Y-114675000D03*
X163900000Y-114675000D03*
X165170000Y-114675000D03*
X166440000Y-114675000D03*
X167710000Y-114675000D03*
X167710000Y-109725000D03*
X166440000Y-109725000D03*
X165170000Y-109725000D03*
X163900000Y-109725000D03*
X162630000Y-109725000D03*
X161360000Y-109725000D03*
X160090000Y-109725000D03*
%TD*%
%TO.C,IC9*%
X150390000Y-114675000D03*
X151660000Y-114675000D03*
X152930000Y-114675000D03*
X154200000Y-114675000D03*
X155470000Y-114675000D03*
X156740000Y-114675000D03*
X158010000Y-114675000D03*
X158010000Y-109725000D03*
X156740000Y-109725000D03*
X155470000Y-109725000D03*
X154200000Y-109725000D03*
X152930000Y-109725000D03*
X151660000Y-109725000D03*
X150390000Y-109725000D03*
%TD*%
D14*
%TO.C,IC7*%
X133898800Y-107974850D03*
X133898800Y-108624850D03*
X133898800Y-109274850D03*
X133898800Y-109924850D03*
X133898800Y-110574850D03*
X133898800Y-111224850D03*
X133898800Y-111874850D03*
X139588400Y-111874850D03*
X139588400Y-111224850D03*
X139588400Y-110574850D03*
X139588400Y-109924850D03*
X139588400Y-109274850D03*
X139588400Y-108624850D03*
X139568100Y-107974850D03*
%TD*%
%TO.C,IC6*%
X133898800Y-96227350D03*
X133898800Y-96877350D03*
X133898800Y-97527350D03*
X133898800Y-98177350D03*
X133898800Y-98827350D03*
X133898800Y-99477350D03*
X133898800Y-100127350D03*
X139588400Y-100127350D03*
X139588400Y-99477350D03*
X139588400Y-98827350D03*
X139588400Y-98177350D03*
X139588400Y-97527350D03*
X139588400Y-96877350D03*
X139568100Y-96227350D03*
%TD*%
D15*
%TO.C,D1*%
X173573600Y-86424850D03*
X173573600Y-82624850D03*
%TD*%
%TO.C,D3*%
X173573600Y-92139850D03*
X173573600Y-88339850D03*
%TD*%
D16*
%TO.C,C50*%
X154990000Y-126290000D03*
X154990000Y-129490000D03*
%TD*%
D17*
%TO.C,C29*%
X165270000Y-97220000D03*
X162070000Y-97220000D03*
%TD*%
D16*
%TO.C,C10*%
X170930000Y-64509850D03*
X170930000Y-67709850D03*
%TD*%
D18*
%TO.C,C9*%
X163731100Y-67709750D03*
X163731100Y-64509750D03*
%TD*%
D19*
%TO.C,IC4*%
X156058600Y-71353650D03*
X156708600Y-71353650D03*
X157358600Y-71353650D03*
X158008600Y-71353650D03*
X158658600Y-71353650D03*
X159308600Y-71353650D03*
X159958600Y-71353650D03*
X160608600Y-71353650D03*
X160608600Y-65628650D03*
X159958600Y-65628650D03*
X159308600Y-65628650D03*
X158658600Y-65628650D03*
X158008600Y-65628650D03*
X157358600Y-65628650D03*
X156708600Y-65628650D03*
X156058600Y-65628650D03*
%TD*%
D14*
%TO.C,IC2*%
X124870000Y-63366050D03*
X124870000Y-64016050D03*
X124870000Y-64666050D03*
X124870000Y-65316050D03*
X124870000Y-65966050D03*
X124870000Y-66616050D03*
X124870000Y-67266050D03*
X124870000Y-67916050D03*
D20*
X130520000Y-67916050D03*
X130520000Y-67266050D03*
X130520000Y-66616050D03*
X130520000Y-65966050D03*
X130520000Y-65316050D03*
X130520000Y-64666050D03*
X130520000Y-64016050D03*
X130520000Y-63366050D03*
%TD*%
D21*
%TO.C,IC1*%
X142971000Y-61454850D03*
X142971000Y-61954850D03*
X142971000Y-62454850D03*
X142971000Y-62954850D03*
X142971000Y-63454850D03*
X142971000Y-63954850D03*
X142971000Y-64454850D03*
X142971000Y-64954850D03*
X142971000Y-65454850D03*
X142971000Y-65954850D03*
X142971000Y-66454850D03*
X142971000Y-66954850D03*
D22*
X144471000Y-68454850D03*
X144971000Y-68454850D03*
X145471000Y-68454850D03*
X145971000Y-68454850D03*
X146471000Y-68454850D03*
X146971000Y-68454850D03*
X147471000Y-68454850D03*
X147971000Y-68454850D03*
X148471000Y-68454850D03*
X148971000Y-68454850D03*
X149471000Y-68454850D03*
X149971000Y-68454850D03*
D21*
X151471000Y-66954850D03*
X151471000Y-66454850D03*
X151471000Y-65954850D03*
X151471000Y-65454850D03*
X151471000Y-64954850D03*
X151471000Y-64454850D03*
X151471000Y-63954850D03*
X151471000Y-63454850D03*
X151471000Y-62954850D03*
X151471000Y-62454850D03*
X151471000Y-61954850D03*
X151471000Y-61454850D03*
D22*
X149971000Y-59954850D03*
X149471000Y-59954850D03*
X148971000Y-59954850D03*
X148471000Y-59954850D03*
X147971000Y-59954850D03*
X147471000Y-59954850D03*
X146971000Y-59954850D03*
X146471000Y-59954850D03*
X145971000Y-59954850D03*
X145471000Y-59954850D03*
X144971000Y-59954850D03*
X144471000Y-59954850D03*
%TD*%
D23*
%TO.C,L1*%
X179923600Y-77804850D03*
X179923600Y-75904850D03*
%TD*%
D24*
%TO.C,R66*%
X160238600Y-148059850D03*
X160238600Y-149259850D03*
%TD*%
D25*
%TO.C,R15*%
X159092300Y-77857350D03*
X157892300Y-77857350D03*
%TD*%
%TO.C,C30*%
X132422300Y-98177350D03*
X131222300Y-98177350D03*
%TD*%
D26*
%TO.C,C38*%
X156899900Y-103899999D03*
X158099900Y-103899999D03*
%TD*%
D27*
%TO.C,LED2*%
X170081100Y-54679850D03*
X170081100Y-57219850D03*
X170081100Y-59759850D03*
%TD*%
D28*
%TO.C,C19*%
X177831100Y-75634850D03*
X175031100Y-75634850D03*
%TD*%
D29*
%TO.C,R2*%
X167858600Y-57502350D03*
X167858600Y-56302350D03*
%TD*%
D25*
%TO.C,R9*%
X141470900Y-64046150D03*
X140270900Y-64046150D03*
%TD*%
D26*
%TO.C,R17*%
X140271000Y-92621250D03*
X141471000Y-92621250D03*
%TD*%
%TO.C,R39*%
X160400000Y-102788700D03*
X161600000Y-102788700D03*
%TD*%
%TO.C,C11*%
X136778400Y-66903550D03*
X137978400Y-66903550D03*
%TD*%
D16*
%TO.C,C24*%
X169810000Y-85190000D03*
X169810000Y-88390000D03*
%TD*%
D30*
%TO.C,R58*%
X150991100Y-128372350D03*
X148491100Y-128372350D03*
X145991100Y-128372350D03*
D31*
X152891100Y-121672350D03*
X144091100Y-121672350D03*
%TD*%
D25*
%TO.C,R35*%
X133216100Y-104527450D03*
X132016100Y-104527450D03*
%TD*%
D26*
%TO.C,R41*%
X139159800Y-105638650D03*
X140359800Y-105638650D03*
%TD*%
D25*
%TO.C,C39*%
X161600000Y-103900000D03*
X160400000Y-103900000D03*
%TD*%
D30*
%TO.C,R22*%
X150991100Y-103589850D03*
X148491100Y-103589850D03*
X145991100Y-103589850D03*
D32*
X153191100Y-96589850D03*
X143791100Y-96589850D03*
%TD*%
D26*
%TO.C,C5*%
X130587500Y-62458450D03*
X131787500Y-62458450D03*
%TD*%
D33*
%TO.C,L3*%
X162196100Y-86429850D03*
X163796100Y-86429850D03*
%TD*%
D25*
%TO.C,C32*%
X140359800Y-101352350D03*
X139159800Y-101352350D03*
%TD*%
%TO.C,C22*%
X129406100Y-83572350D03*
X128206100Y-83572350D03*
%TD*%
D34*
%TO.C,JP3*%
X115788600Y-156597350D03*
%TD*%
D25*
%TO.C,C45*%
X172268600Y-110877350D03*
X171068600Y-110877350D03*
%TD*%
D34*
%TO.C,JP4*%
X181193500Y-156597350D03*
%TD*%
D25*
%TO.C,C53*%
X148456100Y-130562350D03*
X147256100Y-130562350D03*
%TD*%
D24*
%TO.C,R21*%
X141347300Y-93767250D03*
X141347300Y-94967250D03*
%TD*%
D26*
%TO.C,C42*%
X145100000Y-108200000D03*
X146300000Y-108200000D03*
%TD*%
%TO.C,C1*%
X143446100Y-57219850D03*
X144646100Y-57219850D03*
%TD*%
D30*
%TO.C,R57*%
X137973600Y-128372350D03*
X135473600Y-128372350D03*
X132973600Y-128372350D03*
D31*
X139873600Y-121672350D03*
X131073600Y-121672350D03*
%TD*%
D24*
%TO.C,R65*%
X148808600Y-148059850D03*
X148808600Y-149259850D03*
%TD*%
D26*
%TO.C,C46*%
X133127300Y-113099950D03*
X134327300Y-113099950D03*
%TD*%
D24*
%TO.C,C33*%
X162746200Y-101712500D03*
X162746200Y-102912500D03*
%TD*%
D35*
%TO.C,SW3*%
X151742300Y-82022950D03*
X145239900Y-82022950D03*
X151742300Y-77501750D03*
X145239900Y-77501750D03*
%TD*%
D25*
%TO.C,C55*%
X174491100Y-130562350D03*
X173291100Y-130562350D03*
%TD*%
%TO.C,C47*%
X140360000Y-113099950D03*
X139160000Y-113099950D03*
%TD*%
%TO.C,C41*%
X140360000Y-106749950D03*
X139160000Y-106749950D03*
%TD*%
D26*
%TO.C,R32*%
X156899999Y-101677501D03*
X158099999Y-101677501D03*
%TD*%
D25*
%TO.C,R28*%
X134327500Y-102463550D03*
X133127500Y-102463550D03*
%TD*%
%TO.C,C23*%
X165918500Y-83572350D03*
X164718500Y-83572350D03*
%TD*%
D29*
%TO.C,R26*%
X132140000Y-102428650D03*
X132140000Y-101228650D03*
%TD*%
D24*
%TO.C,R51*%
X132139600Y-112976250D03*
X132139600Y-114176250D03*
%TD*%
D26*
%TO.C,R61*%
X136461100Y-134372350D03*
X137661100Y-134372350D03*
%TD*%
D36*
%TO.C,J8*%
X131346100Y-152152350D03*
D37*
X131346100Y-146437350D03*
X131346100Y-148977350D03*
X131346100Y-156597350D03*
%TD*%
D26*
%TO.C,R13*%
X143446300Y-74841050D03*
X144646300Y-74841050D03*
%TD*%
%TO.C,C27*%
X133127500Y-94843650D03*
X134327500Y-94843650D03*
%TD*%
D25*
%TO.C,R38*%
X158099900Y-102788701D03*
X156899900Y-102788701D03*
%TD*%
D16*
%TO.C,C26*%
X169830000Y-91160000D03*
X169830000Y-94360000D03*
%TD*%
D38*
%TO.C,Q1*%
X137893400Y-65129850D03*
X137893400Y-60729850D03*
X135493400Y-60729850D03*
X135493400Y-65129850D03*
%TD*%
D24*
%TO.C,C7*%
X168150000Y-64830000D03*
X168150000Y-66030000D03*
%TD*%
%TO.C,R6*%
X129123600Y-56937350D03*
X129123600Y-58137350D03*
%TD*%
D39*
%TO.C,D7*%
X148491100Y-140348650D03*
X148491100Y-142048650D03*
%TD*%
D24*
%TO.C,C15*%
X145951100Y-70589950D03*
X145951100Y-71789950D03*
%TD*%
D36*
%TO.C,J9*%
X142776100Y-152152350D03*
D37*
X142776100Y-146437350D03*
X142776100Y-148977350D03*
X142776100Y-156597350D03*
%TD*%
D26*
%TO.C,C14*%
X150983500Y-69284850D03*
X152183500Y-69284850D03*
%TD*%
D40*
%TO.C,R49*%
X167250000Y-106700000D03*
X165550000Y-106700000D03*
%TD*%
D39*
%TO.C,D5*%
X171192300Y-135586150D03*
X171192300Y-137286150D03*
%TD*%
D26*
%TO.C,R62*%
X134238700Y-145802350D03*
X135438700Y-145802350D03*
%TD*%
D25*
%TO.C,R5*%
X149408500Y-57537250D03*
X148208500Y-57537250D03*
%TD*%
D26*
%TO.C,R30*%
X140429700Y-103416150D03*
X141629700Y-103416150D03*
%TD*%
%TO.C,R42*%
X153407400Y-102788800D03*
X154607400Y-102788800D03*
%TD*%
D25*
%TO.C,C56*%
X124961200Y-62458550D03*
X123761200Y-62458550D03*
%TD*%
D24*
%TO.C,R44*%
X132139800Y-105673950D03*
X132139800Y-106873950D03*
%TD*%
D41*
%TO.C,D8*%
X121559800Y-144532350D03*
X119859800Y-144532350D03*
%TD*%
D42*
%TO.C,R47*%
X150650000Y-106700000D03*
X152350000Y-106700000D03*
%TD*%
D26*
%TO.C,C17*%
X158051200Y-73094750D03*
X159251200Y-73094750D03*
%TD*%
D25*
%TO.C,C54*%
X161473600Y-130562350D03*
X160273600Y-130562350D03*
%TD*%
D36*
%TO.C,J12*%
X177066100Y-152152350D03*
D37*
X177066100Y-146437350D03*
X177066100Y-148977350D03*
X177066100Y-156597350D03*
%TD*%
D43*
%TO.C,IC5*%
X163413600Y-93656350D03*
%TD*%
D36*
%TO.C,J3*%
X142776100Y-137547350D03*
D37*
X142776100Y-131832350D03*
X142776100Y-134372350D03*
X142776100Y-141992350D03*
%TD*%
D36*
%TO.C,J11*%
X165636100Y-152152350D03*
D37*
X165636100Y-146437350D03*
X165636100Y-148977350D03*
X165636100Y-156597350D03*
%TD*%
D25*
%TO.C,C37*%
X154607500Y-103900000D03*
X153407500Y-103900000D03*
%TD*%
%TO.C,C52*%
X135438600Y-130562350D03*
X134238600Y-130562350D03*
%TD*%
D36*
%TO.C,J2*%
X131346100Y-137547350D03*
D37*
X131346100Y-131832350D03*
X131346100Y-134372350D03*
X131346100Y-141992350D03*
%TD*%
D39*
%TO.C,D4*%
X159921100Y-135427350D03*
X159921100Y-137127350D03*
%TD*%
D26*
%TO.C,C13*%
X150983500Y-68332650D03*
X152183500Y-68332650D03*
%TD*%
D28*
%TO.C,C20*%
X177831100Y-78174850D03*
X175031100Y-78174850D03*
%TD*%
D29*
%TO.C,C8*%
X140871200Y-66233450D03*
X140871200Y-65033450D03*
%TD*%
D26*
%TO.C,C18*%
X157892400Y-74682350D03*
X159092400Y-74682350D03*
%TD*%
D29*
%TO.C,R20*%
X132139900Y-94967250D03*
X132139900Y-93767250D03*
%TD*%
D25*
%TO.C,R54*%
X140201300Y-115322350D03*
X139001300Y-115322350D03*
%TD*%
%TO.C,C4*%
X136708400Y-59124850D03*
X135508400Y-59124850D03*
%TD*%
D34*
%TO.C,JP1*%
X115788600Y-53727350D03*
%TD*%
D29*
%TO.C,R14*%
X157857400Y-76869750D03*
X157857400Y-75669750D03*
%TD*%
D36*
%TO.C,J1*%
X119916100Y-137547350D03*
D37*
X119916100Y-131832350D03*
X119916100Y-134372350D03*
X119916100Y-141992350D03*
%TD*%
D26*
%TO.C,R27*%
X139159900Y-102463450D03*
X140359900Y-102463450D03*
%TD*%
D25*
%TO.C,R40*%
X165092400Y-102788700D03*
X163892400Y-102788700D03*
%TD*%
D24*
%TO.C,C34*%
X155753700Y-101871300D03*
X155753700Y-103071300D03*
%TD*%
D36*
%TO.C,J10*%
X154206100Y-152152350D03*
D37*
X154206100Y-146437350D03*
X154206100Y-148977350D03*
X154206100Y-156597350D03*
%TD*%
D36*
%TO.C,J5*%
X165636100Y-137547350D03*
D37*
X165636100Y-131832350D03*
X165636100Y-134372350D03*
X165636100Y-141992350D03*
%TD*%
D30*
%TO.C,R60*%
X177026100Y-128372350D03*
X174526100Y-128372350D03*
X172026100Y-128372350D03*
D31*
X178926100Y-121672350D03*
X170126100Y-121672350D03*
%TD*%
D25*
%TO.C,C44*%
X124643600Y-110877350D03*
X123443600Y-110877350D03*
%TD*%
D44*
%TO.C,R45*%
X158000000Y-105750000D03*
X158000000Y-107450000D03*
%TD*%
D26*
%TO.C,R36*%
X140112400Y-104527450D03*
X141312400Y-104527450D03*
%TD*%
D39*
%TO.C,D6*%
X159921100Y-139237350D03*
X159921100Y-140937350D03*
%TD*%
D29*
%TO.C,R25*%
X141347500Y-102428450D03*
X141347500Y-101228450D03*
%TD*%
D26*
%TO.C,C48*%
X163900000Y-116700000D03*
X165100000Y-116700000D03*
%TD*%
D25*
%TO.C,R16*%
X133216100Y-92621150D03*
X132016100Y-92621150D03*
%TD*%
D26*
%TO.C,C40*%
X163892500Y-103900000D03*
X165092500Y-103900000D03*
%TD*%
D45*
%TO.C,IC10*%
X147256300Y-111919000D03*
X145356300Y-111919000D03*
X146306300Y-114119000D03*
%TD*%
D35*
%TO.C,SW2*%
X118290500Y-60471050D03*
X118290500Y-53968650D03*
X122811700Y-60471050D03*
X122811700Y-53968650D03*
%TD*%
D25*
%TO.C,R46*%
X146588800Y-110637400D03*
X145388800Y-110637400D03*
%TD*%
D24*
%TO.C,R7*%
X167858600Y-58524850D03*
X167858600Y-59724850D03*
%TD*%
D27*
%TO.C,LED3*%
X151031100Y-74491850D03*
X148491100Y-74491850D03*
X145951100Y-74491850D03*
%TD*%
D46*
%TO.C,D2*%
X148017700Y-88482150D03*
X149917700Y-88482150D03*
X148967700Y-86282150D03*
%TD*%
D25*
%TO.C,R4*%
X146868600Y-57537250D03*
X145668600Y-57537250D03*
%TD*%
D26*
%TO.C,C36*%
X133127300Y-106749850D03*
X134327300Y-106749850D03*
%TD*%
D44*
%TO.C,R48*%
X160200000Y-105750000D03*
X160200000Y-107450000D03*
%TD*%
D30*
%TO.C,R59*%
X164008600Y-128372350D03*
X161508600Y-128372350D03*
X159008600Y-128372350D03*
D31*
X165908600Y-121672350D03*
X157108600Y-121672350D03*
%TD*%
D36*
%TO.C,J7*%
X119916100Y-152152350D03*
D37*
X119916100Y-146437350D03*
X119916100Y-148977350D03*
X119916100Y-156597350D03*
%TD*%
D27*
%TO.C,LED1*%
X126901100Y-59759850D03*
X126901100Y-57219850D03*
X126901100Y-54679850D03*
%TD*%
D26*
%TO.C,C51*%
X122491100Y-130562350D03*
X123691100Y-130562350D03*
%TD*%
D35*
%TO.C,SW1*%
X178691800Y-53968550D03*
X178691800Y-60470950D03*
X174170600Y-53968550D03*
X174170600Y-60470950D03*
%TD*%
D25*
%TO.C,R29*%
X133216200Y-103416050D03*
X132016200Y-103416050D03*
%TD*%
D24*
%TO.C,R43*%
X141347300Y-105673450D03*
X141347300Y-106873450D03*
%TD*%
D25*
%TO.C,C28*%
X140359900Y-94843750D03*
X139159900Y-94843750D03*
%TD*%
D34*
%TO.C,JP2*%
X181193600Y-53727450D03*
%TD*%
D25*
%TO.C,R37*%
X134327400Y-105638550D03*
X133127400Y-105638550D03*
%TD*%
D30*
%TO.C,R11*%
X131941100Y-81491850D03*
X129441100Y-81491850D03*
X126941100Y-81491850D03*
D32*
X134141100Y-74491850D03*
X124741100Y-74491850D03*
%TD*%
D24*
%TO.C,R67*%
X171668600Y-148059850D03*
X171668600Y-149259850D03*
%TD*%
D25*
%TO.C,R8*%
X141471000Y-63093450D03*
X140271000Y-63093450D03*
%TD*%
D26*
%TO.C,R34*%
X163892400Y-101677501D03*
X165092400Y-101677501D03*
%TD*%
D30*
%TO.C,R23*%
X127178600Y-108669850D03*
X124678600Y-108669850D03*
X122178600Y-108669850D03*
D32*
X129378600Y-101669850D03*
X119978600Y-101669850D03*
%TD*%
D25*
%TO.C,C6*%
X157981000Y-64046050D03*
X156781000Y-64046050D03*
%TD*%
D39*
%TO.C,D10*%
X125631100Y-155271150D03*
X125631100Y-156971150D03*
%TD*%
D25*
%TO.C,C2*%
X152583700Y-57536950D03*
X151383700Y-57536950D03*
%TD*%
D26*
%TO.C,C3*%
X143446200Y-58331050D03*
X144646200Y-58331050D03*
%TD*%
D25*
%TO.C,R31*%
X154607500Y-101677500D03*
X153407500Y-101677500D03*
%TD*%
D36*
%TO.C,J4*%
X154206100Y-137547350D03*
D37*
X154206100Y-131832350D03*
X154206100Y-134372350D03*
X154206100Y-141992350D03*
%TD*%
D25*
%TO.C,C43*%
X132422400Y-109924850D03*
X131222400Y-109924850D03*
%TD*%
D47*
%TO.C,C25*%
X162013600Y-88334850D03*
X164813600Y-88334850D03*
%TD*%
D24*
%TO.C,R64*%
X137378600Y-148059750D03*
X137378600Y-149259750D03*
%TD*%
D48*
%TO.C,L4*%
X173573600Y-95267350D03*
X173573600Y-93667350D03*
%TD*%
D26*
%TO.C,C21*%
X157892400Y-78968350D03*
X159092400Y-78968350D03*
%TD*%
D24*
%TO.C,C16*%
X144363600Y-70907650D03*
X144363600Y-72107650D03*
%TD*%
D25*
%TO.C,R18*%
X134327500Y-93732350D03*
X133127500Y-93732350D03*
%TD*%
%TO.C,C12*%
X140518900Y-67221350D03*
X139318900Y-67221350D03*
%TD*%
%TO.C,C35*%
X147700000Y-105797350D03*
X146500000Y-105797350D03*
%TD*%
D49*
%TO.C,D9*%
X129384900Y-144691150D03*
X131084900Y-144691150D03*
%TD*%
D50*
%TO.C,IC3*%
X180241100Y-70554850D03*
X180241100Y-68014850D03*
X180241100Y-65474850D03*
%TD*%
D48*
%TO.C,L2*%
X171986100Y-84154850D03*
X171986100Y-82554850D03*
%TD*%
D26*
%TO.C,C49*%
X154200000Y-116700000D03*
X155400000Y-116700000D03*
%TD*%
D25*
%TO.C,R33*%
X161600000Y-101677500D03*
X160400000Y-101677500D03*
%TD*%
D26*
%TO.C,R10*%
X150272500Y-72777250D03*
X151472500Y-72777250D03*
%TD*%
D30*
%TO.C,R24*%
X174803600Y-108669850D03*
X172303600Y-108669850D03*
X169803600Y-108669850D03*
D32*
X177003600Y-101669850D03*
X167603600Y-101669850D03*
%TD*%
D26*
%TO.C,R19*%
X139159900Y-93732350D03*
X140359900Y-93732350D03*
%TD*%
D30*
%TO.C,R56*%
X124956100Y-128372350D03*
X122456100Y-128372350D03*
X119956100Y-128372350D03*
D31*
X126856100Y-121672350D03*
X118056100Y-121672350D03*
%TD*%
D25*
%TO.C,R52*%
X134327300Y-114211150D03*
X133127300Y-114211150D03*
%TD*%
D26*
%TO.C,R55*%
X133286100Y-115322550D03*
X134486100Y-115322550D03*
%TD*%
%TO.C,R53*%
X139160000Y-114211250D03*
X140360000Y-114211250D03*
%TD*%
D29*
%TO.C,R1*%
X129123600Y-55914850D03*
X129123600Y-54714850D03*
%TD*%
D24*
%TO.C,R50*%
X141347200Y-112976050D03*
X141347200Y-114176050D03*
%TD*%
D26*
%TO.C,R63*%
X134238700Y-146913450D03*
X135438700Y-146913450D03*
%TD*%
D30*
%TO.C,R12*%
X170041100Y-81491850D03*
X167541100Y-81491850D03*
X165041100Y-81491850D03*
D32*
X172241100Y-74491850D03*
X162841100Y-74491850D03*
%TD*%
D26*
%TO.C,C31*%
X133127500Y-101352250D03*
X134327500Y-101352250D03*
%TD*%
D36*
%TO.C,J6*%
X177066100Y-137547350D03*
D37*
X177066100Y-131832350D03*
X177066100Y-134372350D03*
X177066100Y-141992350D03*
%TD*%
D25*
%TO.C,R3*%
X154806100Y-57537150D03*
X153606100Y-57537150D03*
%TD*%
D39*
%TO.C,D11*%
X137219800Y-155271150D03*
X137219800Y-156971150D03*
%TD*%
D35*
%TO.C,JP7*%
X146903600Y-55632350D03*
X149443600Y-55632350D03*
%TD*%
D30*
%TO.C,JP6*%
X160238600Y-55632350D03*
D35*
X157698600Y-55632350D03*
X155158600Y-55632350D03*
X152618600Y-55632350D03*
%TD*%
D51*
%TO.C,JP5*%
X176748600Y-93732350D03*
X179288600Y-93732350D03*
X176748600Y-91192350D03*
X179288600Y-91192350D03*
X176748600Y-88652350D03*
X179288600Y-88652350D03*
X176748600Y-86112350D03*
X179288600Y-86112350D03*
X176748600Y-83572350D03*
X179288600Y-83572350D03*
%TD*%
M02*
