M48
; DRILL file {KiCad (6.0.11-0)} date 2023 May 29, Monday 14:43:09
; FORMAT={-:-/ absolute / inch / decimal}
; #@! TF.CreationDate,2023-05-29T14:43:09+02:00
; #@! TF.GenerationSoftware,Kicad,Pcbnew,(6.0.11-0)
; #@! TF.FileFunction,Plated,1,2,PTH
FMAT,2
INCH
; #@! TA.AperFunction,Plated,PTH,ViaDrill
T1C0.0197
; #@! TA.AperFunction,Plated,PTH,ComponentDrill
T2C0.0276
; #@! TA.AperFunction,Plated,PTH,ComponentDrill
T3C0.0320
; #@! TA.AperFunction,Plated,PTH,ComponentDrill
T4C0.0354
; #@! TA.AperFunction,Plated,PTH,ComponentDrill
T5C0.0394
; #@! TA.AperFunction,Plated,PTH,ComponentDrill
T6C0.0400
; #@! TA.AperFunction,Plated,PTH,ComponentDrill
T7C0.0591
; #@! TA.AperFunction,Plated,PTH,ComponentDrill
T8C0.0866
%
G90
G05
T1
X4.5336Y-2.2403
X4.5336Y-2.6402
X4.5336Y-3.0402
X4.5336Y-3.4402
X4.5336Y-3.8402
X4.5336Y-4.2402
X4.5336Y-4.6402
X4.5336Y-5.0402
X4.5336Y-5.4402
X4.5336Y-5.8403
X4.7336Y-4.9152
X4.7524Y-4.9653
X4.7711Y-4.8777
X4.7961Y-2.4965
X4.8086Y-4.5402
X4.8274Y-4.909
X4.8399Y-4.8403
X4.8461Y-5.6902
X4.8586Y-4.7778
X4.8836Y-6.0965
X4.8836Y-6.1902
X4.9211Y-2.7152
X5.0086Y-3.8152
X5.0336Y-5.6902
X5.0336Y-5.8652
X5.0586Y-3.9152
X5.0711Y-2.8653
X5.1086Y-4.609
X5.1586Y-3.7652
X5.1586Y-4.209
X5.1836Y-4.3777
X5.1898Y-2.509
X5.1899Y-3.8152
X5.1899Y-4.2715
X5.2024Y-3.9402
X5.2024Y-4.5402
X5.2086Y-2.8402
X5.2461Y-2.7027
X5.2836Y-6.1902
X5.3336Y-4.3152
X5.3336Y-4.6652
X5.3336Y-4.9527
X5.3336Y-6.0965
X5.3399Y-2.634
X5.3836Y-4.384
X5.3836Y-4.5903
X5.4211Y-5.2402
X5.4274Y-2.3215
X5.4586Y-5.8652
X5.4836Y-2.8402
X5.5024Y-2.584
X5.5336Y-2.1652
X5.5336Y-2.4402
X5.5436Y-3.8653
X5.5461Y-4.3277
X5.5649Y-3.9402
X5.5649Y-4.2527
X5.5649Y-4.5402
X5.5836Y-2.8527
X5.5836Y-2.2902
X5.5836Y-2.3902
X5.5836Y-5.0402
X5.5836Y-4.6653
X5.6024Y-2.2027
X5.6211Y-2.9903
X5.6336Y-2.8152
X5.6496Y-3.8976
X5.6586Y-5.0402
X5.6711Y-5.2402
X5.6836Y-2.1528
X5.6836Y-3.3402
X5.6836Y-6.1902
X5.6961Y-2.5215
X5.7086Y-2.6277
X5.7086Y-2.2027
X5.7087Y-4.2165
X5.7461Y-2.409
X5.7461Y-2.5652
X5.7586Y-3.4903
X5.7649Y-4.8527
X5.7836Y-2.5215
X5.7836Y-4.6902
X5.7836Y-5.5278
X5.7913Y-4.5433
X5.8071Y-4.3189
X5.8336Y-2.5278
X5.8399Y-2.5777
X5.8411Y-4.8215
X5.8461Y-4.934
X5.8586Y-2.4277
X5.8836Y-3.0152
X5.8961Y-2.5777
X5.9024Y-2.7465
X5.9086Y-5.8652
X5.9173Y-4.7008
X5.9461Y-2.7715
X5.9461Y-4.9653
X5.9899Y-2.809
X6.0149Y-2.409
X6.0197Y-4.4134
X6.0336Y-4.9653
X6.0705Y-4.4447
X6.0709Y-4.2441
X6.0836Y-2.584
X6.1024Y-2.6652
X6.1086Y-2.3653
X6.1178Y-4.1789
X6.122Y-3.811
X6.1274Y-2.5215
X6.1274Y-2.9715
X6.1274Y-3.7403
X6.1336Y-2.7403
X6.1339Y-3.9528
X6.1586Y-2.2652
X6.1693Y-4.6181
X6.1836Y-2.6652
X6.2086Y-2.3777
X6.2211Y-2.4777
X6.2336Y-5.4777
X6.252Y-3.9409
X6.2586Y-2.3653
X6.2586Y-2.9965
X6.2649Y-2.7402
X6.2836Y-3.7152
X6.2836Y-4.7902
X6.3211Y-3.7739
X6.3524Y-4.9465
X6.3586Y-3.6652
X6.3586Y-3.7152
X6.3586Y-5.8652
X6.3711Y-2.4777
X6.3836Y-5.3277
X6.3898Y-4.4055
X6.4019Y-4.1654
X6.4055Y-3.9528
X6.4086Y-5.5152
X6.4291Y-4.7559
X6.4499Y-4.2539
X6.4528Y-4.4449
X6.5086Y-2.5652
X6.5315Y-3.9134
X6.5461Y-3.5652
X6.5461Y-3.6153
X6.5461Y-3.6652
X6.5461Y-3.7152
X6.5512Y-4.6063
X6.5524Y-2.2153
X6.5836Y-5.0402
X6.5961Y-2.8402
X6.6201Y-3.6697
X6.622Y-3.4646
X6.6224Y-2.6634
X6.626Y-3.5358
X6.6586Y-5.3278
X6.6693Y-4.1654
X6.6811Y-4.374
X6.7441Y-4.0551
X6.7711Y-5.4902
X6.7836Y-2.8402
X6.8024Y-4.9152
X6.8031Y-3.9488
X6.8086Y-5.8652
X6.811Y-4.1811
X6.8836Y-6.1902
X6.9649Y-4.7027
X7.1586Y-2.2403
X7.1586Y-3.0402
X7.1586Y-4.2402
X7.1586Y-4.6402
X7.1586Y-5.8403
T2
X4.9961Y-2.1528
X4.9961Y-2.2527
X4.9961Y-2.3527
X5.7461Y-2.9327
X5.8461Y-2.9327
X5.9461Y-2.9327
X6.6961Y-2.1528
X6.6961Y-2.2527
X6.6961Y-2.3527
T3
X5.4336Y-5.7402
X5.5336Y-5.7402
X5.8836Y-5.7402
X5.9836Y-5.7402
X6.3336Y-5.7402
X6.4336Y-5.7402
X6.7836Y-5.7402
X6.8836Y-5.7402
T4
X7.0961Y-2.5777
X7.0961Y-2.6778
X7.0961Y-2.7777
T5
X4.7227Y-5.054
X4.8102Y-4.2783
X4.8211Y-5.054
X4.9086Y-4.2783
X4.9195Y-5.054
X4.9977Y-3.2083
X5.007Y-4.2783
X5.0961Y-3.2083
X5.1945Y-3.2083
X5.2352Y-5.054
X5.3336Y-5.054
X5.432Y-5.054
X5.7477Y-4.0783
X5.7477Y-5.054
X5.8461Y-4.0783
X5.8461Y-5.054
X5.9445Y-4.0783
X5.9445Y-5.054
X6.2602Y-5.054
X6.3586Y-5.054
X6.457Y-5.054
X6.4977Y-3.2083
X6.5961Y-3.2083
X6.6852Y-4.2783
X6.6945Y-3.2083
X6.7727Y-5.054
X6.7836Y-4.2783
X6.8711Y-5.054
X6.882Y-4.2783
X6.9695Y-5.054
T6
X4.6571Y-2.1248
X4.6571Y-2.3807
X4.7211Y-5.1902
X4.7211Y-5.2902
X4.7211Y-5.5903
X4.7211Y-5.7652
X4.7211Y-5.8652
X4.7211Y-6.1652
X4.8351Y-2.1248
X4.8351Y-2.3807
X5.1711Y-5.1902
X5.1711Y-5.2902
X5.1711Y-5.5903
X5.1711Y-5.7652
X5.1711Y-5.8652
X5.1711Y-6.1652
X5.6211Y-5.1902
X5.6211Y-5.2902
X5.6211Y-5.5903
X5.6211Y-5.7652
X5.6211Y-5.8652
X5.6211Y-6.1652
X5.7181Y-3.0513
X5.7181Y-3.2292
X5.7836Y-2.1902
X5.8836Y-2.1902
X5.9741Y-3.0513
X5.9741Y-3.2292
X6.0086Y-2.1902
X6.0711Y-5.1902
X6.0711Y-5.2902
X6.0711Y-5.5903
X6.0711Y-5.7652
X6.0711Y-5.8652
X6.0711Y-6.1652
X6.1086Y-2.1902
X6.2086Y-2.1902
X6.3086Y-2.1902
X6.5211Y-5.1902
X6.5211Y-5.2902
X6.5211Y-5.5903
X6.5211Y-5.7652
X6.5211Y-5.8652
X6.5211Y-6.1652
X6.8571Y-2.1247
X6.8571Y-2.3807
X6.9586Y-3.2902
X6.9586Y-3.3902
X6.9586Y-3.4903
X6.9586Y-3.5902
X6.9586Y-3.6902
X6.9711Y-5.1902
X6.9711Y-5.2902
X6.9711Y-5.5903
X6.9711Y-5.7652
X6.9711Y-5.8652
X6.9711Y-6.1652
X7.0351Y-2.1247
X7.0351Y-2.3807
X7.0586Y-3.2902
X7.0586Y-3.3902
X7.0586Y-3.4903
X7.0586Y-3.5902
X7.0586Y-3.6902
T7
X4.7236Y-4.0027
X4.9111Y-2.9327
X5.0936Y-4.0027
X5.2811Y-2.9327
X5.6611Y-3.8028
X6.0311Y-3.8028
X6.4111Y-2.9327
X6.5986Y-4.0027
X6.7811Y-2.9327
X6.9686Y-4.0027
T8
X4.6479Y-4.7902
X4.9943Y-4.7902
X5.1604Y-4.7902
X5.5068Y-4.7902
X5.6729Y-4.7902
X6.0193Y-4.7902
X6.1854Y-4.7902
X6.5318Y-4.7902
X6.6979Y-4.7902
X7.0443Y-4.7902
T0
M30
