<?xml version="1.0" encoding="UTF-8" standalone="no"?>
<!-- Created with Inkscape (http://www.inkscape.org/) -->

<svg
   version="1.1"
   id="svg132"
   width="75.591202"
   height="485.66132"
   viewBox="0 0 75.591202 485.66132"
   sodipodi:docname="kinks.ai.svg"
   inkscape:version="1.2.2 (b0a84865, 2022-12-01)"
   xmlns:inkscape="http://www.inkscape.org/namespaces/inkscape"
   xmlns:sodipodi="http://sodipodi.sourceforge.net/DTD/sodipodi-0.dtd"
   xmlns="http://www.w3.org/2000/svg"
   xmlns:svg="http://www.w3.org/2000/svg">
  <defs
     id="defs136">
    <clipPath
       clipPathUnits="userSpaceOnUse"
       id="clipPath454">
      <path
         d="M 0,364.246 H 56.693 V 0 H 0 Z"
         id="path452" />
    </clipPath>
    <clipPath
       clipPathUnits="userSpaceOnUse"
       id="clipPath1513">
      <g
         id="g1517">
        <path
           d="M 0,364.246 H 56.693 V 0 H 0 Z"
           id="path1515" />
      </g>
    </clipPath>
    <clipPath
       clipPathUnits="userSpaceOnUse"
       id="clipPath1519">
      <g
         id="g1523">
        <path
           d="M 0,364.246 H 56.693 V 0 H 0 Z"
           id="path1521" />
      </g>
    </clipPath>
    <clipPath
       clipPathUnits="userSpaceOnUse"
       id="clipPath1525">
      <g
         id="g1529">
        <path
           d="M 0,364.246 H 56.693 V 0 H 0 Z"
           id="path1527" />
      </g>
    </clipPath>
    <clipPath
       clipPathUnits="userSpaceOnUse"
       id="clipPath1531">
      <g
         id="g1535">
        <path
           d="M 0,364.246 H 56.693 V 0 H 0 Z"
           id="path1533" />
      </g>
    </clipPath>
    <clipPath
       clipPathUnits="userSpaceOnUse"
       id="clipPath1537">
      <g
         id="g1541">
        <path
           d="M 0,364.246 H 56.693 V 0 H 0 Z"
           id="path1539" />
      </g>
    </clipPath>
    <clipPath
       clipPathUnits="userSpaceOnUse"
       id="clipPath1543">
      <g
         id="g1547">
        <path
           d="M 0,364.246 H 56.693 V 0 H 0 Z"
           id="path1545" />
      </g>
    </clipPath>
    <clipPath
       clipPathUnits="userSpaceOnUse"
       id="clipPath1549">
      <g
         id="g1553">
        <path
           d="M 0,364.246 H 56.693 V 0 H 0 Z"
           id="path1551" />
      </g>
    </clipPath>
    <clipPath
       clipPathUnits="userSpaceOnUse"
       id="clipPath1555">
      <g
         id="g1559">
        <path
           d="M 0,364.246 H 56.693 V 0 H 0 Z"
           id="path1557" />
      </g>
    </clipPath>
    <clipPath
       clipPathUnits="userSpaceOnUse"
       id="clipPath1561">
      <g
         id="g1565">
        <path
           d="M 0,364.246 H 56.693 V 0 H 0 Z"
           id="path1563" />
      </g>
    </clipPath>
    <clipPath
       clipPathUnits="userSpaceOnUse"
       id="clipPath1567">
      <g
         id="g1571">
        <path
           d="M 0,364.246 H 56.693 V 0 H 0 Z"
           id="path1569" />
      </g>
    </clipPath>
    <clipPath
       clipPathUnits="userSpaceOnUse"
       id="clipPath1573">
      <g
         id="g1577">
        <path
           d="M 0,364.246 H 56.693 V 0 H 0 Z"
           id="path1575" />
      </g>
    </clipPath>
    <clipPath
       clipPathUnits="userSpaceOnUse"
       id="clipPath1579">
      <g
         id="g1583">
        <path
           d="M 0,364.246 H 56.693 V 0 H 0 Z"
           id="path1581" />
      </g>
    </clipPath>
    <clipPath
       clipPathUnits="userSpaceOnUse"
       id="clipPath1585">
      <g
         id="g1589">
        <path
           d="M 0,364.246 H 56.693 V 0 H 0 Z"
           id="path1587" />
      </g>
    </clipPath>
    <clipPath
       clipPathUnits="userSpaceOnUse"
       id="clipPath1591">
      <g
         id="g1595">
        <path
           d="M 0,364.246 H 56.693 V 0 H 0 Z"
           id="path1593" />
      </g>
    </clipPath>
    <clipPath
       clipPathUnits="userSpaceOnUse"
       id="clipPath1597">
      <g
         id="g1601">
        <path
           d="M 0,364.246 H 56.693 V 0 H 0 Z"
           id="path1599" />
      </g>
    </clipPath>
    <clipPath
       clipPathUnits="userSpaceOnUse"
       id="clipPath1603">
      <g
         id="g1607">
        <path
           d="M 0,364.246 H 56.693 V 0 H 0 Z"
           id="path1605" />
      </g>
    </clipPath>
    <clipPath
       clipPathUnits="userSpaceOnUse"
       id="clipPath1609">
      <g
         id="g1613">
        <path
           d="M 0,364.246 H 56.693 V 0 H 0 Z"
           id="path1611" />
      </g>
    </clipPath>
    <clipPath
       clipPathUnits="userSpaceOnUse"
       id="clipPath1615">
      <g
         id="g1619">
        <path
           d="M 0,364.246 H 56.693 V 0 H 0 Z"
           id="path1617" />
      </g>
    </clipPath>
    <clipPath
       clipPathUnits="userSpaceOnUse"
       id="clipPath1621">
      <g
         id="g1625">
        <path
           d="M 0,364.246 H 56.693 V 0 H 0 Z"
           id="path1623" />
      </g>
    </clipPath>
    <clipPath
       clipPathUnits="userSpaceOnUse"
       id="clipPath1627">
      <g
         id="g1631">
        <path
           d="M 0,364.246 H 56.693 V 0 H 0 Z"
           id="path1629" />
      </g>
    </clipPath>
    <clipPath
       clipPathUnits="userSpaceOnUse"
       id="clipPath1633">
      <g
         id="g1637">
        <path
           d="M 0,364.246 H 56.693 V 0 H 0 Z"
           id="path1635" />
      </g>
    </clipPath>
    <clipPath
       clipPathUnits="userSpaceOnUse"
       id="clipPath1639">
      <g
         id="g1643">
        <path
           d="M 0,364.246 H 56.693 V 0 H 0 Z"
           id="path1641" />
      </g>
    </clipPath>
    <clipPath
       clipPathUnits="userSpaceOnUse"
       id="clipPath1645">
      <g
         id="g1649">
        <path
           d="M 0,364.246 H 56.693 V 0 H 0 Z"
           id="path1647" />
      </g>
    </clipPath>
    <clipPath
       clipPathUnits="userSpaceOnUse"
       id="clipPath1651">
      <g
         id="g1655">
        <path
           d="M 0,364.246 H 56.693 V 0 H 0 Z"
           id="path1653" />
      </g>
    </clipPath>
    <clipPath
       clipPathUnits="userSpaceOnUse"
       id="clipPath1657">
      <g
         id="g1661">
        <path
           d="M 0,364.246 H 56.693 V 0 H 0 Z"
           id="path1659" />
      </g>
    </clipPath>
    <clipPath
       clipPathUnits="userSpaceOnUse"
       id="clipPath1663">
      <g
         id="g1667">
        <path
           d="M 0,364.246 H 56.693 V 0 H 0 Z"
           id="path1665" />
      </g>
    </clipPath>
    <clipPath
       clipPathUnits="userSpaceOnUse"
       id="clipPath1669">
      <g
         id="g1673">
        <path
           d="M 0,364.246 H 56.693 V 0 H 0 Z"
           id="path1671" />
      </g>
    </clipPath>
    <clipPath
       clipPathUnits="userSpaceOnUse"
       id="clipPath1675">
      <g
         id="g1679">
        <path
           d="M 0,364.246 H 56.693 V 0 H 0 Z"
           id="path1677" />
      </g>
    </clipPath>
    <clipPath
       clipPathUnits="userSpaceOnUse"
       id="clipPath1681">
      <g
         id="g1685">
        <path
           d="M 0,364.246 H 56.693 V 0 H 0 Z"
           id="path1683" />
      </g>
    </clipPath>
    <clipPath
       clipPathUnits="userSpaceOnUse"
       id="clipPath1687">
      <g
         id="g1691">
        <path
           d="M 0,364.246 H 56.693 V 0 H 0 Z"
           id="path1689" />
      </g>
    </clipPath>
    <clipPath
       clipPathUnits="userSpaceOnUse"
       id="clipPath1693">
      <g
         id="g1697">
        <path
           d="M 0,364.246 H 56.693 V 0 H 0 Z"
           id="path1695" />
      </g>
    </clipPath>
    <clipPath
       clipPathUnits="userSpaceOnUse"
       id="clipPath1699">
      <g
         id="g1703">
        <path
           d="M 0,364.246 H 56.693 V 0 H 0 Z"
           id="path1701" />
      </g>
    </clipPath>
    <clipPath
       clipPathUnits="userSpaceOnUse"
       id="clipPath1705">
      <g
         id="g1709">
        <path
           d="M 0,364.246 H 56.693 V 0 H 0 Z"
           id="path1707" />
      </g>
    </clipPath>
    <clipPath
       clipPathUnits="userSpaceOnUse"
       id="clipPath1711">
      <g
         id="g1715">
        <path
           d="M 0,364.246 H 56.693 V 0 H 0 Z"
           id="path1713" />
      </g>
    </clipPath>
    <clipPath
       clipPathUnits="userSpaceOnUse"
       id="clipPath1717">
      <g
         id="g1721">
        <path
           d="M 0,364.246 H 56.693 V 0 H 0 Z"
           id="path1719" />
      </g>
    </clipPath>
    <clipPath
       clipPathUnits="userSpaceOnUse"
       id="clipPath1723">
      <g
         id="g1727">
        <path
           d="M 0,364.246 H 56.693 V 0 H 0 Z"
           id="path1725" />
      </g>
    </clipPath>
    <clipPath
       clipPathUnits="userSpaceOnUse"
       id="clipPath1729">
      <g
         id="g1733">
        <path
           d="M 0,364.246 H 56.693 V 0 H 0 Z"
           id="path1731" />
      </g>
    </clipPath>
    <clipPath
       clipPathUnits="userSpaceOnUse"
       id="clipPath1735">
      <g
         id="g1739">
        <path
           d="M 0,364.246 H 56.693 V 0 H 0 Z"
           id="path1737" />
      </g>
    </clipPath>
    <clipPath
       clipPathUnits="userSpaceOnUse"
       id="clipPath1741">
      <g
         id="g1745">
        <path
           d="M 0,364.246 H 56.693 V 0 H 0 Z"
           id="path1743" />
      </g>
    </clipPath>
    <clipPath
       clipPathUnits="userSpaceOnUse"
       id="clipPath1747">
      <g
         id="g1751">
        <path
           d="M 0,364.246 H 56.693 V 0 H 0 Z"
           id="path1749" />
      </g>
    </clipPath>
    <clipPath
       clipPathUnits="userSpaceOnUse"
       id="clipPath1753">
      <g
         id="g1757">
        <path
           d="M 0,364.246 H 56.693 V 0 H 0 Z"
           id="path1755" />
      </g>
    </clipPath>
    <clipPath
       clipPathUnits="userSpaceOnUse"
       id="clipPath1759">
      <g
         id="g1763">
        <path
           d="M 0,364.246 H 56.693 V 0 H 0 Z"
           id="path1761" />
      </g>
    </clipPath>
    <clipPath
       clipPathUnits="userSpaceOnUse"
       id="clipPath1765">
      <g
         id="g1769">
        <path
           d="M 0,364.246 H 56.693 V 0 H 0 Z"
           id="path1767" />
      </g>
    </clipPath>
    <clipPath
       clipPathUnits="userSpaceOnUse"
       id="clipPath1771">
      <g
         id="g1775">
        <path
           d="M 0,364.246 H 56.693 V 0 H 0 Z"
           id="path1773" />
      </g>
    </clipPath>
    <clipPath
       clipPathUnits="userSpaceOnUse"
       id="clipPath1777">
      <g
         id="g1781">
        <path
           d="M 0,364.246 H 56.693 V 0 H 0 Z"
           id="path1779" />
      </g>
    </clipPath>
    <clipPath
       clipPathUnits="userSpaceOnUse"
       id="clipPath1783">
      <g
         id="g1787">
        <path
           d="M 0,364.246 H 56.693 V 0 H 0 Z"
           id="path1785" />
      </g>
    </clipPath>
    <clipPath
       clipPathUnits="userSpaceOnUse"
       id="clipPath1789">
      <g
         id="g1793">
        <path
           d="M 0,364.246 H 56.693 V 0 H 0 Z"
           id="path1791" />
      </g>
    </clipPath>
    <clipPath
       clipPathUnits="userSpaceOnUse"
       id="clipPath1795">
      <g
         id="g1799">
        <path
           d="M 0,364.246 H 56.693 V 0 H 0 Z"
           id="path1797" />
      </g>
    </clipPath>
    <clipPath
       clipPathUnits="userSpaceOnUse"
       id="clipPath1801">
      <g
         id="g1805">
        <path
           d="M 0,364.246 H 56.693 V 0 H 0 Z"
           id="path1803" />
      </g>
    </clipPath>
  </defs>
  <sodipodi:namedview
     id="namedview134"
     pagecolor="#ffffff"
     bordercolor="#666666"
     borderopacity="1.0"
     inkscape:showpageshadow="2"
     inkscape:pageopacity="0.0"
     inkscape:pagecheckerboard="0"
     inkscape:deskcolor="#d1d1d1"
     showgrid="false"
     inkscape:zoom="1.2332039"
     inkscape:cx="-7.7035112"
     inkscape:cy="241.24153"
     inkscape:window-width="1254"
     inkscape:window-height="997"
     inkscape:window-x="724"
     inkscape:window-y="25"
     inkscape:window-maximized="0"
     inkscape:current-layer="g140">
    <inkscape:page
       x="0"
       y="0"
       id="page138"
       width="75.591202"
       height="485.66132" />
  </sodipodi:namedview>
  <g
     id="g140"
     inkscape:groupmode="layer"
     inkscape:label="Page 1"
     transform="matrix(1.3333333,0,0,-1.3333333,0,485.66133)"
     style="display:inline">
    <g
       id="g142"
       inkscape:label="silkscreen"
       style="display:inline">
      <g
         id="g150"
         transform="translate(35.0997,300.3652)"
         style="fill:#000000;fill-opacity:1" />
      <g
         id="g156"
         transform="translate(44.21,301.0136)"
         style="fill:#000000;fill-opacity:1" />
      <g
         id="g160"
         transform="translate(49.1631,300.414)"
         style="fill:#000000;fill-opacity:1" />
      <g
         id="g164"
         transform="translate(31.4873,203.2128)"
         style="fill:#000000;fill-opacity:1" />
      <g
         id="g168"
         transform="translate(38.503,207.6582)"
         style="fill:#000000;fill-opacity:1" />
      <g
         id="g172"
         transform="translate(44.542,203.8125)"
         style="fill:#000000;fill-opacity:1" />
      <g
         id="g178"
         transform="translate(50.4707,203.166)"
         style="fill:#000000;fill-opacity:1" />
      <g
         id="g182"
         transform="translate(36.087,106.0273)"
         style="fill:#000000;fill-opacity:1" />
      <g
         id="g186"
         transform="translate(41.0381,110.9287)"
         style="fill:#000000;fill-opacity:1" />
      <g
         id="g190"
         transform="translate(48.0538,106.0751)"
         style="fill:#000000;fill-opacity:1" />
      <g
         id="g318"
         transform="translate(0,341.2402)"
         style="fill:#000000;fill-opacity:1" />
      <g
         id="g324"
         transform="translate(0,333.8554)"
         style="fill:#000000;fill-opacity:1" />
      <g
         id="g332"
         transform="translate(13.794,161.7011)"
         style="fill:#000000;fill-opacity:1" />
      <g
         id="g336"
         transform="translate(19.8838,165.7148)"
         style="fill:#000000;fill-opacity:1" />
      <g
         id="g342"
         transform="translate(40.6905,161.7011)"
         style="fill:#000000;fill-opacity:1" />
      <g
         id="g346"
         transform="translate(47.1387,164.0917)"
         style="fill:#000000;fill-opacity:1" />
      <g
         id="g350"
         transform="translate(39.2452,125.9843)"
         style="fill:#000000;fill-opacity:1" />
      <g
         id="g356"
         transform="translate(47.4932,125.9843)"
         style="fill:#000000;fill-opacity:1" />
      <g
         id="g360"
         transform="translate(11.3702,125.9843)"
         style="fill:#000000;fill-opacity:1" />
      <g
         id="g364"
         transform="translate(15.7227,129.998)"
         style="fill:#000000;fill-opacity:1" />
      <g
         id="g368"
         transform="translate(21.7627,125.9843)"
         style="fill:#000000;fill-opacity:1" />
      <g
         id="g374"
         transform="translate(17.2745,64.4755)"
         style="fill:#000000;fill-opacity:1" />
      <g
         id="g378"
         transform="translate(36.0147,69.1767)"
         style="fill:#000000;fill-opacity:1" />
      <g
         id="g382"
         transform="translate(40.5674,69.1767)"
         style="fill:#000000;fill-opacity:1" />
      <g
         id="g388"
         transform="translate(49.5909,65.0751)"
         style="fill:#000000;fill-opacity:1" />
      <g
         id="g392"
         transform="translate(37.5987,33.2041)"
         style="fill:#000000;fill-opacity:1" />
      <g
         id="g396"
         transform="translate(42.1358,28.7109)"
         style="fill:#000000;fill-opacity:1" />
      <g
         id="g400"
         transform="translate(47.6475,33.4599)"
         style="fill:#000000;fill-opacity:1" />
      <g
         id="g404"
         transform="translate(7.4737,28.7587)"
         style="fill:#000000;fill-opacity:1" />
      <g
         id="g408"
         transform="translate(12.418,33.2041)"
         style="fill:#000000;fill-opacity:1" />
      <g
         id="g414"
         transform="translate(18.9541,28.7109)"
         style="fill:#000000;fill-opacity:1" />
      <g
         id="g418"
         transform="translate(22.1153,28.7587)"
         style="fill:#000000;fill-opacity:1" />
      <g
         id="g424"
         transform="translate(12.7413,258.8164)"
         style="fill:#000000;fill-opacity:1" />
      <g
         id="g428"
         transform="translate(21.1924,259.4345)"
         style="fill:#000000;fill-opacity:1" />
      <g
         id="g432"
         transform="translate(40.0713,259.4355)"
         style="fill:#000000;fill-opacity:1" />
      <g
         id="g436"
         transform="translate(18.9151,223.0263)"
         style="fill:#000000;fill-opacity:1" />
      <g
         id="g440"
         transform="translate(42.3428,223.5263)"
         style="fill:#000000;fill-opacity:1" />
      <g
         id="g444"
         transform="translate(46.3907,223.5253)"
         style="fill:#000000;fill-opacity:1" />
      <path
         d="m 35.0997,300.3652 c -0.864,0 -1.52,0.184 -2.079,0.752 l 0.72,0.719 c 0.36,-0.36 0.847,-0.479 1.375,-0.479 0.655,0 1.007,0.248 1.007,0.703 0,0.2 -0.055,0.368 -0.176,0.481 -0.112,0.103 -0.24,0.16 -0.503,0.199 l -0.688,0.096 c -0.487,0.072 -0.847,0.224 -1.103,0.472 -0.273,0.272 -0.407,0.639 -0.407,1.119 0,1.016 0.75,1.727 1.982,1.727 0.783,0 1.351,-0.191 1.839,-0.664 l -0.704,-0.695 c -0.36,0.343 -0.791,0.392 -1.167,0.392 -0.592,0 -0.88,-0.328 -0.88,-0.72 0,-0.143 0.049,-0.295 0.168,-0.407 0.112,-0.105 0.297,-0.193 0.528,-0.224 l 0.671,-0.096 c 0.52,-0.072 0.848,-0.217 1.088,-0.44 0.304,-0.289 0.439,-0.705 0.439,-1.208 0,-1.102 -0.919,-1.727 -2.11,-1.727"
         style="fill:#000000;fill-opacity:1;fill-rule:nonzero;stroke:none"
         id="path152"
         clip-path="url(#clipPath1801)" />
      <path
         d="m 38.261,306.107 h 1.111 v -5.693 h -1.111 z"
         style="fill:#000000;fill-opacity:1;fill-rule:nonzero;stroke:none"
         id="path154"
         clip-path="url(#clipPath1795)" />
      <path
         d="m 44.21,301.0136 c -0.439,-0.447 -0.967,-0.648 -1.607,-0.648 -0.608,0 -1.12,0.209 -1.536,0.625 -0.247,0.246 -0.398,0.535 -0.462,0.855 -0.065,0.318 -0.096,0.791 -0.096,1.414 0,0.623 0.031,1.096 0.096,1.416 0.064,0.328 0.215,0.608 0.462,0.856 0.416,0.416 0.928,0.623 1.536,0.623 1.295,0 1.992,-0.832 2.143,-1.823 h -1.12 c -0.135,0.551 -0.471,0.83 -1.023,0.83 -0.295,0 -0.536,-0.103 -0.711,-0.302 -0.208,-0.264 -0.272,-0.473 -0.272,-1.6 0,-1.119 0.048,-1.344 0.272,-1.607 0.168,-0.2 0.408,-0.295 0.711,-0.295 0.328,0 0.591,0.103 0.792,0.32 0.167,0.191 0.255,0.447 0.255,0.758 v 0.217 h -1.047 v 0.927 h 2.151 v -0.832 c 0,-0.832 -0.151,-1.318 -0.544,-1.734"
         style="fill:#000000;fill-opacity:1;fill-rule:nonzero;stroke:none"
         id="path158"
         clip-path="url(#clipPath1789)" />
      <path
         d="m 49.1631,300.414 -2.256,3.494 v -3.494 h -1.111 v 5.693 h 0.992 l 2.254,-3.486 v 3.486 h 1.112 v -5.693 z"
         style="fill:#000000;fill-opacity:1;fill-rule:nonzero;stroke:none"
         id="path162"
         clip-path="url(#clipPath1783)" />
      <path
         d="m 31.4873,203.2128 v 5.693 h 1.111 v -4.701 h 2.583 v -0.992 z"
         style="fill:#000000;fill-opacity:1;fill-rule:nonzero;stroke:none"
         id="path166"
         clip-path="url(#clipPath1777)" />
      <path
         d="m 38.503,207.6582 c -0.16,0.186 -0.408,0.305 -0.712,0.305 -0.304,0 -0.559,-0.119 -0.72,-0.305 -0.216,-0.238 -0.271,-0.504 -0.271,-1.598 0,-1.095 0.055,-1.359 0.271,-1.599 0.161,-0.184 0.416,-0.305 0.72,-0.305 0.304,0 0.552,0.121 0.712,0.305 0.215,0.24 0.279,0.504 0.279,1.599 0,1.094 -0.064,1.36 -0.279,1.598 m 0.823,-3.869 c -0.399,-0.401 -0.887,-0.623 -1.535,-0.623 -0.647,0 -1.143,0.222 -1.544,0.623 -0.575,0.576 -0.558,1.287 -0.558,2.271 0,0.983 -0.017,1.694 0.558,2.27 0.401,0.4 0.897,0.625 1.544,0.625 0.648,0 1.136,-0.225 1.535,-0.625 0.575,-0.576 0.568,-1.287 0.568,-2.27 0,-0.984 0.007,-1.695 -0.568,-2.271"
         style="fill:#000000;fill-opacity:1;fill-rule:nonzero;stroke:none"
         id="path170"
         clip-path="url(#clipPath1771)" />
      <path
         d="m 44.542,203.8125 c -0.439,-0.447 -0.968,-0.646 -1.607,-0.646 -0.608,0 -1.12,0.207 -1.536,0.623 -0.248,0.248 -0.399,0.535 -0.462,0.855 -0.065,0.32 -0.097,0.791 -0.097,1.416 0,0.623 0.032,1.094 0.097,1.414 0.063,0.328 0.214,0.608 0.462,0.856 0.416,0.416 0.928,0.625 1.536,0.625 1.295,0 1.991,-0.832 2.142,-1.825 h -1.119 c -0.136,0.553 -0.472,0.832 -1.023,0.832 -0.295,0 -0.536,-0.103 -0.711,-0.304 -0.209,-0.264 -0.273,-0.471 -0.273,-1.598 0,-1.121 0.048,-1.344 0.273,-1.607 0.168,-0.202 0.407,-0.297 0.711,-0.297 0.328,0 0.591,0.105 0.791,0.32 0.168,0.191 0.255,0.447 0.255,0.76 v 0.215 h -1.046 v 0.927 h 2.15 v -0.83 c 0,-0.832 -0.151,-1.32 -0.543,-1.736"
         style="fill:#000000;fill-opacity:1;fill-rule:nonzero;stroke:none"
         id="path174"
         clip-path="url(#clipPath1765)" />
      <path
         d="m 46.128,208.906 h 1.111 v -5.693 h -1.111 z"
         style="fill:#000000;fill-opacity:1;fill-rule:nonzero;stroke:none"
         id="path176"
         clip-path="url(#clipPath1759)" />
      <path
         d="m 50.4707,203.166 c -0.607,0 -1.119,0.207 -1.535,0.623 -0.247,0.248 -0.399,0.535 -0.464,0.856 -0.064,0.32 -0.096,0.791 -0.096,1.416 0,0.623 0.032,1.093 0.096,1.414 0.065,0.328 0.217,0.607 0.464,0.855 0.416,0.416 0.928,0.625 1.535,0.625 1.096,0 1.903,-0.641 2.095,-1.801 h -1.127 c -0.12,0.489 -0.424,0.809 -0.959,0.809 -0.305,0 -0.545,-0.096 -0.713,-0.297 -0.23,-0.246 -0.279,-0.502 -0.279,-1.605 0,-1.104 0.049,-1.36 0.279,-1.608 0.168,-0.201 0.408,-0.297 0.713,-0.297 0.535,0 0.839,0.321 0.959,0.809 h 1.127 c -0.192,-1.16 -1.008,-1.799 -2.095,-1.799"
         style="fill:#000000;fill-opacity:1;fill-rule:nonzero;stroke:none"
         id="path180"
         clip-path="url(#clipPath1753)" />
      <path
         d="m 36.087,106.0273 c -0.863,0 -1.52,0.184 -2.079,0.751 l 0.72,0.72 c 0.359,-0.36 0.847,-0.48 1.375,-0.48 0.656,0 1.007,0.248 1.007,0.704 0,0.2 -0.056,0.368 -0.175,0.48 -0.113,0.103 -0.241,0.16 -0.504,0.2 l -0.688,0.096 c -0.488,0.071 -0.847,0.223 -1.103,0.471 -0.272,0.272 -0.408,0.64 -0.408,1.12 0,1.015 0.751,1.727 1.983,1.727 0.783,0 1.351,-0.192 1.839,-0.664 l -0.703,-0.695 c -0.361,0.343 -0.792,0.391 -1.168,0.391 -0.592,0 -0.879,-0.328 -0.879,-0.719 0,-0.144 0.047,-0.296 0.168,-0.408 0.111,-0.104 0.295,-0.192 0.527,-0.224 l 0.672,-0.096 c 0.52,-0.072 0.848,-0.216 1.087,-0.439 0.304,-0.289 0.44,-0.705 0.44,-1.208 0,-1.103 -0.92,-1.727 -2.111,-1.727"
         style="fill:#000000;fill-opacity:1;fill-rule:nonzero;stroke:none"
         id="path184"
         clip-path="url(#clipPath1747)" />
      <path
         d="m 41.0381,110.9287 c -0.311,0 -0.471,-0.2 -0.471,-0.464 0,-0.208 0.176,-0.408 0.375,-0.64 0.08,0.048 0.241,0.161 0.241,0.161 0.183,0.127 0.328,0.279 0.328,0.479 0,0.264 -0.176,0.464 -0.473,0.464 m -0.391,-2.287 c -0.343,-0.239 -0.576,-0.464 -0.576,-0.871 0,-0.472 0.384,-0.8 0.863,-0.8 0.336,0 0.584,0.103 0.848,0.336 z m 2.182,-2.567 -0.415,0.496 c -0.265,-0.208 -0.655,-0.543 -1.472,-0.543 -1.255,0 -1.879,0.655 -1.879,1.726 0,0.728 0.528,1.2 1.024,1.527 -0.232,0.264 -0.567,0.665 -0.567,1.208 0,0.776 0.567,1.328 1.518,1.328 0.896,0 1.455,-0.569 1.455,-1.344 0,-0.44 -0.231,-0.735 -0.583,-0.991 0,0 -0.264,-0.201 -0.407,-0.296 l 0.959,-1.136 c 0.183,0.248 0.271,0.592 0.287,1 h 0.984 c -0.04,-0.736 -0.208,-1.319 -0.607,-1.767 l 1.023,-1.208 z"
         style="fill:#000000;fill-opacity:1;fill-rule:nonzero;stroke:none"
         id="path188"
         clip-path="url(#clipPath1741)" />
      <path
         d="m 48.0538,106.0751 v 2.383 h -1.927 v -2.383 h -1.111 v 5.693 h 1.111 v -2.327 h 1.927 v 2.327 h 1.111 v -5.693 z"
         style="fill:#000000;fill-opacity:1;fill-rule:nonzero;stroke:none"
         id="path192"
         clip-path="url(#clipPath1735)" />
      <path
         d="M 52.66,118.352 H 2.939 v 2 H 52.66 Z"
         style="fill:#000000;fill-opacity:1;fill-rule:nonzero;stroke:none"
         id="path194"
         clip-path="url(#clipPath1729)" />
      <path
         d="M 52.66,215.436 H 2.939 v 2 H 52.66 Z"
         style="fill:#000000;fill-opacity:1;fill-rule:nonzero;stroke:none"
         id="path196"
         clip-path="url(#clipPath1723)" />
      <path
         d="M 0,341.2402 H 56.561"
         style="fill:#000000;fill-opacity:1;fill-rule:nonzero;stroke:none"
         id="path320"
         clip-path="url(#clipPath1717)" />
      <path
         d="M 0,333.8554 H 56.561"
         style="fill:#000000;fill-opacity:1;fill-rule:nonzero;stroke:none"
         id="path326"
         clip-path="url(#clipPath1711)" />
      <path
         d="m 7.988,167.395 h 1.111 v -5.693 H 7.988 Z"
         style="fill:#000000;fill-opacity:1;fill-rule:nonzero;stroke:none"
         id="path330"
         clip-path="url(#clipPath1705)" />
      <path
         d="m 13.794,161.7011 -2.254,3.494 v -3.494 h -1.111 v 5.693 h 0.991 l 2.255,-3.486 v 3.486 h 1.111 v -5.693 z"
         style="fill:#000000;fill-opacity:1;fill-rule:nonzero;stroke:none"
         id="path334"
         clip-path="url(#clipPath1699)" />
      <path
         d="m 19.8838,165.7148 -0.721,-2.07 h 1.416 z m 1.326,-4.014 -0.336,1.008 h -2.022 l -0.344,-1.008 h -1.159 l 2.07,5.694 h 0.872 l 2.079,-5.694 z"
         style="fill:#000000;fill-opacity:1;fill-rule:nonzero;stroke:none"
         id="path338"
         clip-path="url(#clipPath1693)" />
      <path
         d="m 34.884,167.395 h 1.111 v -5.693 h -1.111 z"
         style="fill:#000000;fill-opacity:1;fill-rule:nonzero;stroke:none"
         id="path340"
         clip-path="url(#clipPath1687)" />
      <path
         d="m 40.6905,161.7011 -2.256,3.494 v -3.494 h -1.111 v 5.693 h 0.992 l 2.254,-3.486 v 3.486 h 1.111 v -5.693 z"
         style="fill:#000000;fill-opacity:1;fill-rule:nonzero;stroke:none"
         id="path344"
         clip-path="url(#clipPath1681)" />
      <path
         d="m 47.1387,164.0917 h -1.159 v -1.4 h 1.159 c 0.503,0 0.743,0.32 0.743,0.705 0,0.383 -0.24,0.695 -0.743,0.695 m -0.072,2.311 h -1.087 v -1.311 h 1.087 c 0.471,0 0.735,0.264 0.735,0.654 0,0.393 -0.264,0.657 -0.735,0.657 m 0.184,-4.702 h -2.383 v 5.694 h 2.287 c 1.112,0 1.758,-0.625 1.758,-1.6 0,-0.633 -0.416,-1.039 -0.703,-1.176 0.344,-0.16 0.783,-0.519 0.783,-1.279 0,-1.062 -0.726,-1.639 -1.742,-1.639"
         style="fill:#000000;fill-opacity:1;fill-rule:nonzero;stroke:none"
         id="path348"
         clip-path="url(#clipPath1675)" />
      <path
         d="m 39.2452,125.9843 v 3.318 l -1.087,-2.159 h -0.751 l -1.096,2.159 v -3.318 h -1.111 v 5.693 h 1.096 l 1.486,-3.079 1.48,3.079 h 1.094 v -5.693 z"
         style="fill:#000000;fill-opacity:1;fill-rule:nonzero;stroke:none"
         id="path352"
         clip-path="url(#clipPath1669)" />
      <path
         d="m 41.688,131.678 h 1.111 v -5.693 h -1.111 z"
         style="fill:#000000;fill-opacity:1;fill-rule:nonzero;stroke:none"
         id="path354"
         clip-path="url(#clipPath1663)" />
      <path
         d="m 47.4932,125.9843 -2.254,3.494 v -3.494 h -1.111 v 5.693 h 0.991 l 2.255,-3.486 v 3.486 h 1.111 v -5.693 z"
         style="fill:#000000;fill-opacity:1;fill-rule:nonzero;stroke:none"
         id="path358"
         clip-path="url(#clipPath1657)" />
      <path
         d="m 11.3702,125.9843 v 3.318 l -1.088,-2.159 h -0.752 l -1.096,2.159 v -3.318 h -1.111 v 5.693 h 1.096 l 1.487,-3.079 1.48,3.079 h 1.095 v -5.693 z"
         style="fill:#000000;fill-opacity:1;fill-rule:nonzero;stroke:none"
         id="path362"
         clip-path="url(#clipPath1651)" />
      <path
         d="m 15.7227,129.998 -0.72,-2.07 h 1.415 z m 1.327,-4.014 -0.336,1.008 h -2.023 l -0.344,-1.008 h -1.158 l 2.07,5.694 h 0.871 l 2.079,-5.694 z"
         style="fill:#000000;fill-opacity:1;fill-rule:nonzero;stroke:none"
         id="path366"
         clip-path="url(#clipPath1645)" />
      <path
         d="m 21.7627,125.9843 -1.104,1.982 -1.095,-1.982 h -1.272 l 1.768,2.918 -1.656,2.775 h 1.263 l 0.992,-1.839 1,1.839 h 1.254 l -1.654,-2.775 1.775,-2.918 z"
         style="fill:#000000;fill-opacity:1;fill-rule:nonzero;stroke:none"
         id="path370"
         clip-path="url(#clipPath1639)" />
      <path
         d="m 11.468,70.169 h 1.111 v -5.693 h -1.111 z"
         style="fill:#000000;fill-opacity:1;fill-rule:nonzero;stroke:none"
         id="path372"
         clip-path="url(#clipPath1633)" />
      <path
         d="m 17.2745,64.475499 -2.256,3.494 v -3.494 h -1.111 v 5.693 h 0.992 l 2.254,-3.486 v 3.486 h 1.112 v -5.693 z"
         style="fill:#000000;fill-opacity:1;fill-rule:nonzero;stroke:none"
         id="path376"
         clip-path="url(#clipPath1627)" />
      <path
         d="m 36.0147,69.176702 v -4.701 h -1.111 v 4.701 h -1.487 v 0.992 h 4.086 v -0.992 z"
         style="fill:#000000;fill-opacity:1;fill-rule:nonzero;stroke:none"
         id="path380"
         clip-path="url(#clipPath1621)" />
      <path
         d="m 40.5674,69.176702 h -1.048 v -1.503 h 1.048 c 0.487,0 0.807,0.312 0.807,0.752 0,0.44 -0.32,0.751 -0.807,0.751 m 0.863,-4.701 -1.111,2.27 h -0.8 v -2.27 h -1.111 v 5.693 h 2.231 c 1.158,0 1.846,-0.792 1.846,-1.743 0,-0.8 -0.487,-1.296 -1.039,-1.495 l 1.271,-2.455 z"
         style="fill:#000000;fill-opacity:1;fill-rule:nonzero;stroke:none"
         id="path384"
         clip-path="url(#clipPath1615)" />
      <path
         d="m 43.64,70.169 h 1.111 V 64.476 H 43.64 Z"
         style="fill:#000000;fill-opacity:1;fill-rule:nonzero;stroke:none"
         id="path386"
         clip-path="url(#clipPath1609)" />
      <path
         d="m 49.5909,65.075102 c -0.44,-0.447 -0.969,-0.647 -1.607,-0.647 -0.608,0 -1.12,0.208 -1.536,0.624 -0.248,0.247 -0.4,0.535 -0.463,0.855 -0.064,0.319 -0.097,0.791 -0.097,1.415 0,0.623 0.033,1.095 0.097,1.415 0.063,0.328 0.215,0.608 0.463,0.856 0.416,0.416 0.928,0.624 1.536,0.624 1.295,0 1.99,-0.832 2.142,-1.824 h -1.119 c -0.137,0.552 -0.473,0.832 -1.023,0.832 -0.296,0 -0.537,-0.104 -0.712,-0.304 -0.208,-0.264 -0.273,-0.472 -0.273,-1.599 0,-1.12 0.049,-1.344 0.273,-1.607 0.168,-0.201 0.407,-0.296 0.712,-0.296 0.328,0 0.591,0.104 0.791,0.32 0.168,0.191 0.255,0.447 0.255,0.759 v 0.216 h -1.046 v 0.927 h 2.15 v -0.831 c 0,-0.832 -0.152,-1.319 -0.543,-1.735"
         style="fill:#000000;fill-opacity:1;fill-rule:nonzero;stroke:none"
         id="path390"
         clip-path="url(#clipPath1603)" />
      <path
         d="m 37.5987,33.204098 c -0.159,0.184 -0.407,0.304 -0.711,0.304 -0.304,0 -0.56,-0.12 -0.72,-0.304 -0.215,-0.239 -0.272,-0.504 -0.272,-1.599 0,-1.095 0.057,-1.359 0.272,-1.599 0.16,-0.184 0.416,-0.304 0.72,-0.304 0.304,0 0.552,0.12 0.711,0.304 0.217,0.24 0.28,0.504 0.28,1.599 0,1.095 -0.063,1.36 -0.28,1.599 m 0.824,-3.869 c -0.4,-0.401 -0.888,-0.624 -1.535,-0.624 -0.648,0 -1.144,0.223 -1.543,0.624 -0.576,0.575 -0.561,1.287 -0.561,2.27 0,0.984 -0.015,1.695 0.561,2.271 0.399,0.399 0.895,0.624 1.543,0.624 0.647,0 1.135,-0.225 1.535,-0.624 0.576,-0.576 0.568,-1.287 0.568,-2.271 0,-0.983 0.008,-1.695 -0.568,-2.27"
         style="fill:#000000;fill-opacity:1;fill-rule:nonzero;stroke:none"
         id="path394"
         clip-path="url(#clipPath1597)" />
      <path
         d="m 42.1358,28.710901 c -1.168,0 -2.096,0.791 -2.096,1.999 v 3.742 h 1.112 v -3.702 c 0,-0.656 0.384,-1.048 0.984,-1.048 0.6,0 0.991,0.392 0.991,1.048 v 3.702 h 1.104 v -3.742 c 0,-1.208 -0.928,-1.999 -2.095,-1.999"
         style="fill:#000000;fill-opacity:1;fill-rule:nonzero;stroke:none"
         id="path398"
         clip-path="url(#clipPath1591)" />
      <path
         d="m 47.6475,33.459901 v -4.701 h -1.111 v 4.701 h -1.489 v 0.992 h 4.086 v -0.992 z"
         style="fill:#000000;fill-opacity:1;fill-rule:nonzero;stroke:none"
         id="path402"
         clip-path="url(#clipPath1585)" />
      <path
         d="m 7.4737,28.758698 -2.255,3.494 v -3.494 h -1.111 v 5.693 h 0.991 l 2.255,-3.486 v 3.486 h 1.112 v -5.693 z"
         style="fill:#000000;fill-opacity:1;fill-rule:nonzero;stroke:none"
         id="path406"
         clip-path="url(#clipPath1579)" />
      <path
         d="m 12.418,33.204098 c -0.159,0.184 -0.407,0.304 -0.712,0.304 -0.303,0 -0.558,-0.12 -0.719,-0.304 -0.216,-0.239 -0.272,-0.504 -0.272,-1.599 0,-1.095 0.056,-1.359 0.272,-1.599 0.161,-0.184 0.416,-0.304 0.719,-0.304 0.305,0 0.553,0.12 0.712,0.304 0.216,0.24 0.28,0.504 0.28,1.599 0,1.095 -0.064,1.36 -0.28,1.599 m 0.823,-3.869 c -0.399,-0.401 -0.886,-0.624 -1.535,-0.624 -0.647,0 -1.142,0.223 -1.543,0.624 -0.576,0.575 -0.559,1.287 -0.559,2.27 0,0.984 -0.017,1.695 0.559,2.271 0.401,0.399 0.896,0.624 1.543,0.624 0.649,0 1.136,-0.225 1.535,-0.624 0.576,-0.576 0.569,-1.287 0.569,-2.271 0,-0.983 0.007,-1.695 -0.569,-2.27"
         style="fill:#000000;fill-opacity:1;fill-rule:nonzero;stroke:none"
         id="path410"
         clip-path="url(#clipPath1573)" />
      <path
         d="m 14.947,34.452 h 1.111 v -5.693 h -1.111 z"
         style="fill:#000000;fill-opacity:1;fill-rule:nonzero;stroke:none"
         id="path412"
         clip-path="url(#clipPath1567)" />
      <path
         d="m 18.9541,28.710901 c -0.863,0 -1.52,0.184 -2.078,0.751 l 0.719,0.72 c 0.36,-0.36 0.847,-0.48 1.375,-0.48 0.656,0 1.007,0.248 1.007,0.704 0,0.2 -0.055,0.368 -0.175,0.48 -0.112,0.103 -0.241,0.16 -0.504,0.2 l -0.688,0.096 c -0.487,0.071 -0.847,0.223 -1.103,0.471 -0.272,0.272 -0.407,0.64 -0.407,1.119 0,1.016 0.75,1.728 1.983,1.728 0.783,0 1.35,-0.192 1.838,-0.664 l -0.703,-0.695 c -0.36,0.343 -0.791,0.391 -1.168,0.391 -0.592,0 -0.879,-0.328 -0.879,-0.719 0,-0.144 0.048,-0.296 0.168,-0.408 0.111,-0.104 0.296,-0.192 0.527,-0.224 l 0.672,-0.096 c 0.52,-0.072 0.848,-0.216 1.088,-0.439 0.303,-0.289 0.439,-0.705 0.439,-1.208 0,-1.103 -0.92,-1.727 -2.111,-1.727"
         style="fill:#000000;fill-opacity:1;fill-rule:nonzero;stroke:none"
         id="path416"
         clip-path="url(#clipPath1561)" />
      <path
         d="m 22.1153,28.758698 v 5.693 h 3.75 v -0.992 h -2.639 v -1.335 h 2.247 v -0.991 h -2.247 v -1.384 h 2.639 v -0.991 z"
         style="fill:#000000;fill-opacity:1;fill-rule:nonzero;stroke:none"
         id="path420"
         clip-path="url(#clipPath1555)" />
      <path
         d="m 6.935,264.51 h 1.111 v -5.693 H 6.935 Z"
         style="fill:#000000;fill-opacity:1;fill-rule:nonzero;stroke:none"
         id="path422"
         clip-path="url(#clipPath1549)" />
      <path
         d="m 12.7413,258.8164 -2.256,3.494 v -3.494 h -1.111 v 5.693 h 0.992 l 2.254,-3.486 v 3.486 h 1.112 v -5.693 z"
         style="fill:#000000;fill-opacity:1;fill-rule:nonzero;stroke:none"
         id="path426"
         clip-path="url(#clipPath1543)" />
      <path
         d="m 21.1924,259.4345 c -1.254,0 -2.273,1.062 -2.273,2.368 0,0.755 -0.571,1.369 -1.274,1.369 -0.701,0 -1.273,-0.614 -1.273,-1.369 v -1.868 h -1 v 1.868 c 0,1.307 1.019,2.369 2.273,2.369 1.254,0 2.274,-1.062 2.274,-2.369 0,-0.755 0.572,-1.368 1.273,-1.368 0.701,0 1.271,0.613 1.271,1.368 v 1.869 h 1 v -1.869 c 0,-1.306 -1.019,-2.368 -2.271,-2.368"
         style="fill:#000000;fill-opacity:1;fill-rule:nonzero;stroke:none"
         id="path430"
         clip-path="url(#clipPath1537)" />
      <path
         d="m 40.0713,259.4355 c 1.253,0 2.273,1.062 2.273,2.367 0,0.756 0.57,1.369 1.272,1.369 0.702,0 1.274,-0.613 1.274,-1.369 v -1.867 h 1 v 1.867 c 0,1.307 -1.02,2.369 -2.274,2.369 -1.253,0 -2.272,-1.062 -2.272,-2.369 0,-0.754 -0.572,-1.367 -1.273,-1.367 -0.703,0 -1.272,0.613 -1.272,1.367 v 1.869 h -1 v -1.869 c 0,-1.305 1.019,-2.367 2.272,-2.367"
         style="fill:#000000;fill-opacity:1;fill-rule:nonzero;stroke:none"
         id="path434"
         clip-path="url(#clipPath1531)" />
      <path
         d="m 18.9151,223.0263 h -2.023 c -1.392,0 -2.524,1.104 -2.524,2.462 10e-4,0.378 -0.149,0.736 -0.424,1.011 -0.291,0.291 -0.681,0.452 -1.098,0.452 -0.841,0 -1.525,-0.656 -1.525,-1.463 v -1.962 h -1 v 1.962 c 0,1.358 1.133,2.463 2.525,2.463 0.684,0 1.326,-0.265 1.806,-0.746 0.463,-0.464 0.717,-1.074 0.716,-1.718 0,-0.805 0.684,-1.461 1.524,-1.461 h 2.023 z"
         style="fill:#000000;fill-opacity:1;fill-rule:nonzero;stroke:none"
         id="path438"
         clip-path="url(#clipPath1525)" />
      <path
         d="m 42.3428,223.5263 h -1 l 0.002,1.963 c 0,0.806 -0.684,1.462 -1.523,1.462 -0.841,0 -1.525,-0.656 -1.525,-1.463 v -1.962 h -1 v 1.962 c 0,1.358 1.133,2.463 2.525,2.463 1.391,0 2.523,-1.105 2.523,-2.463 z"
         style="fill:#000000;fill-opacity:1;fill-rule:nonzero;stroke:none"
         id="path442"
         clip-path="url(#clipPath1519)" />
      <path
         d="m 46.3907,223.5253 -1,0.002 10e-4,1.961 c 0,0.807 -0.684,1.463 -1.524,1.463 -0.839,0 -1.523,-0.656 -1.523,-1.463 v -1.962 h -1 v 1.962 c 0,1.358 1.132,2.463 2.523,2.463 1.392,0 2.524,-1.105 2.524,-2.463 z"
         style="fill:#000000;fill-opacity:1;fill-rule:nonzero;stroke:none"
         id="path446"
         clip-path="url(#clipPath1513)" />
      <path
         d="M 0,0 H 56.693 V 364.246 H 0 Z"
         style="display:inline;fill:none;stroke:#000000;stroke-width:0.25;stroke-linecap:butt;stroke-linejoin:miter;stroke-miterlimit:10;stroke-dasharray:none;stroke-opacity:1"
         id="path2345"
         inkscape:label="border" />
    </g>
    <g
       id="g448"
       style="display:inline"
       inkscape:label="edge cuts">
      <path
         d="m 0,0 c 0.066,-2.474 2.096,-4.505 4.602,-4.505 2.506,0 4.536,2.031 4.536,4.535 0,2.506 -2.03,4.535 -4.536,4.535 -2.506,0 -4.536,-2.029 -4.536,-4.535"
         style="display:inline;fill:none;stroke:#bd3fa7;stroke-width:0.25;stroke-linecap:butt;stroke-linejoin:miter;stroke-miterlimit:10;stroke-dasharray:none;stroke-opacity:1"
         id="path458"
         transform="translate(16.6954,8.5263002)" />
      <path
         d="m 0,0 c 0.066,-2.461 2.096,-4.491 4.602,-4.491 2.506,0 4.536,2.03 4.536,4.535 0,2.505 -2.03,4.535 -4.536,4.535 -2.506,0 -4.536,-2.03 -4.536,-4.535"
         style="display:inline;fill:none;stroke:#bd3fa7;stroke-width:0.25;stroke-linecap:butt;stroke-linejoin:miter;stroke-miterlimit:10;stroke-dasharray:none;stroke-opacity:1"
         id="path462"
         transform="translate(16.6954,355.7187)" />
      <path
         d="M 0,0 H 56.693 V 364.246 H 0 Z"
         style="display:inline;fill:none;stroke:#bd3fa7;stroke-width:0.25;stroke-linecap:butt;stroke-linejoin:miter;stroke-miterlimit:10;stroke-dasharray:none;stroke-opacity:1"
         id="path464" />
      <path
         d="m 0,0 c 0.01,-4.917 4.007,-8.915 8.939,-8.915 4.931,0 8.93,3.998 8.93,8.928 0,4.931 -3.999,8.928 -8.93,8.928 C 4.007,8.941 0.01,4.944 0.01,0.013"
         style="display:inline;fill:none;stroke:#bd3fa7;stroke-width:0.25;stroke-linecap:butt;stroke-linejoin:miter;stroke-miterlimit:10;stroke-dasharray:none;stroke-opacity:1"
         id="path468"
         transform="translate(32.9102,49.358401)" />
      <path
         d="m 0,0 c 0.1,-4.917 4.1,-8.915 9.029,-8.915 4.933,0 8.933,3.998 8.933,8.928 0,4.931 -4,8.928 -8.933,8.928 C 4.1,8.941 0.1,4.944 0.1,0.013"
         style="display:inline;fill:none;stroke:#bd3fa7;stroke-width:0.25;stroke-linecap:butt;stroke-linejoin:miter;stroke-miterlimit:10;stroke-dasharray:none;stroke-opacity:1"
         id="path472"
         transform="translate(5.8877,49.358401)" />
      <path
         d="m 0,0 c 0.01,-4.83 4.007,-8.828 8.939,-8.828 4.931,0 8.93,3.998 8.93,8.929 0,4.931 -3.999,8.928 -8.93,8.928 C 4.007,9.029 0.01,5.032 0.01,0.101"
         style="display:inline;fill:none;stroke:#bd3fa7;stroke-width:0.25;stroke-linecap:butt;stroke-linejoin:miter;stroke-miterlimit:10;stroke-dasharray:none;stroke-opacity:1"
         id="path476"
         transform="translate(32.9102,85.266602)" />
      <path
         d="m 0,0 c 0.1,-4.83 4.1,-8.828 9.029,-8.828 4.933,0 8.933,3.998 8.933,8.929 0,4.931 -4,8.928 -8.933,8.928 C 4.1,9.029 0.1,5.032 0.1,0.101"
         style="display:inline;fill:none;stroke:#bd3fa7;stroke-width:0.25;stroke-linecap:butt;stroke-linejoin:miter;stroke-miterlimit:10;stroke-dasharray:none;stroke-opacity:1"
         id="path480"
         transform="translate(5.8877,85.266602)" />
      <path
         d="m 0,0 c 0.074,-2.347 2.041,-4.314 4.466,-4.314 2.429,0 4.395,1.967 4.395,4.394 0,2.426 -1.966,4.394 -4.395,4.394 -2.425,0 -4.392,-1.968 -4.392,-4.394"
         style="display:inline;fill:none;stroke:#bd3fa7;stroke-width:0.25;stroke-linecap:butt;stroke-linejoin:miter;stroke-miterlimit:10;stroke-dasharray:none;stroke-opacity:1"
         id="path484"
         transform="translate(10.4512,108.6845)" />
      <path
         d="m 0,0 c 0.01,-4.883 4.007,-8.881 8.939,-8.881 4.931,0 8.93,3.998 8.93,8.927 0,4.932 -3.999,8.929 -8.93,8.929 C 4.007,8.975 0.01,4.978 0.01,0.046"
         style="display:inline;fill:none;stroke:#bd3fa7;stroke-width:0.25;stroke-linecap:butt;stroke-linejoin:miter;stroke-miterlimit:10;stroke-dasharray:none;stroke-opacity:1"
         id="path488"
         transform="translate(32.9102,146.5136)" />
      <path
         d="m 0,0 c 0.1,-4.883 4.1,-8.881 9.029,-8.881 4.933,0 8.933,3.998 8.933,8.927 0,4.932 -4,8.929 -8.933,8.929 C 4.1,8.975 0.1,4.978 0.1,0.046"
         style="display:inline;fill:none;stroke:#bd3fa7;stroke-width:0.25;stroke-linecap:butt;stroke-linejoin:miter;stroke-miterlimit:10;stroke-dasharray:none;stroke-opacity:1"
         id="path492"
         transform="translate(5.8877,146.5136)" />
      <path
         d="m 0,0 c 0.01,-4.918 4.007,-8.916 8.939,-8.916 4.931,0 8.93,3.998 8.93,8.929 0,4.93 -3.999,8.928 -8.93,8.928 C 4.007,8.941 0.01,4.943 0.01,0.013"
         style="display:inline;fill:none;stroke:#bd3fa7;stroke-width:0.25;stroke-linecap:butt;stroke-linejoin:miter;stroke-miterlimit:10;stroke-dasharray:none;stroke-opacity:1"
         id="path496"
         transform="translate(32.9102,182.5439)" />
      <path
         d="m 0,0 c 0.1,-4.918 4.1,-8.916 9.029,-8.916 4.933,0 8.933,3.998 8.933,8.929 0,4.93 -4,8.928 -8.933,8.928 C 4.1,8.941 0.1,4.943 0.1,0.013"
         style="display:inline;fill:none;stroke:#bd3fa7;stroke-width:0.25;stroke-linecap:butt;stroke-linejoin:miter;stroke-miterlimit:10;stroke-dasharray:none;stroke-opacity:1"
         id="path500"
         transform="translate(5.8877,182.5439)" />
      <path
         d="m 0,0 c 0.074,-2.313 2.041,-4.279 4.466,-4.279 2.429,0 4.395,1.966 4.395,4.392 0,2.428 -1.966,4.395 -4.395,4.395 -2.425,0 -4.392,-1.967 -4.392,-4.395"
         style="display:inline;fill:none;stroke:#bd3fa7;stroke-width:0.25;stroke-linecap:butt;stroke-linejoin:miter;stroke-miterlimit:10;stroke-dasharray:none;stroke-opacity:1"
         id="path504"
         transform="translate(10.4512,205.8398)" />
      <path
         d="m 0,0 c 0.01,-4.852 4.007,-8.849 8.939,-8.849 4.931,0 8.93,3.997 8.93,8.928 0,4.932 -3.999,8.928 -8.93,8.928 C 4.007,9.007 0.01,5.011 0.01,0.079"
         style="display:inline;fill:none;stroke:#bd3fa7;stroke-width:0.25;stroke-linecap:butt;stroke-linejoin:miter;stroke-miterlimit:10;stroke-dasharray:none;stroke-opacity:1"
         id="path508"
         transform="translate(32.9102,243.6709)" />
      <path
         d="m 0,0 c 0.1,-4.852 4.1,-8.849 9.029,-8.849 4.933,0 8.933,3.997 8.933,8.928 0,4.932 -4,8.928 -8.933,8.928 C 4.1,9.007 0.1,5.011 0.1,0.079"
         style="display:inline;fill:none;stroke:#bd3fa7;stroke-width:0.25;stroke-linecap:butt;stroke-linejoin:miter;stroke-miterlimit:10;stroke-dasharray:none;stroke-opacity:1"
         id="path512"
         transform="translate(5.8877,243.6709)" />
      <path
         d="m 0,0 c 0.01,-4.884 4.007,-8.883 8.939,-8.883 4.931,0 8.93,3.999 8.93,8.93 0,4.931 -3.999,8.928 -8.93,8.928 C 4.007,8.975 0.01,4.978 0.01,0.047"
         style="display:inline;fill:none;stroke:#bd3fa7;stroke-width:0.25;stroke-linecap:butt;stroke-linejoin:miter;stroke-miterlimit:10;stroke-dasharray:none;stroke-opacity:1"
         id="path516"
         transform="translate(32.9102,279.7001)" />
      <path
         d="m 0,0 c 0.1,-4.884 4.1,-8.883 9.029,-8.883 4.933,0 8.933,3.999 8.933,8.93 0,4.931 -4,8.928 -8.933,8.928 C 4.1,8.975 0.1,4.978 0.1,0.047"
         style="display:inline;fill:none;stroke:#bd3fa7;stroke-width:0.25;stroke-linecap:butt;stroke-linejoin:miter;stroke-miterlimit:10;stroke-dasharray:none;stroke-opacity:1"
         id="path520"
         transform="translate(5.8877,279.7001)" />
      <path
         d="m 0,0 c 0.074,-2.399 2.041,-4.367 4.466,-4.367 2.429,0 4.395,1.968 4.395,4.393 0,2.426 -1.966,4.394 -4.395,4.394 -2.425,0 -4.392,-1.968 -4.392,-4.394"
         style="display:inline;fill:none;stroke:#bd3fa7;stroke-width:0.25;stroke-linecap:butt;stroke-linejoin:miter;stroke-miterlimit:10;stroke-dasharray:none;stroke-opacity:1"
         id="path524"
         transform="translate(10.4512,303.1171)" />
    </g>
  </g>
</svg>
