%TF.GenerationSoftware,KiCad,Pcbnew,(6.0.11-0)*%
%TF.CreationDate,2023-03-06T23:41:58+01:00*%
%TF.ProjectId,elements,656c656d-656e-4747-932e-6b696361645f,rev?*%
%TF.SameCoordinates,Original*%
%TF.FileFunction,Paste,Top*%
%TF.FilePolarity,Positive*%
%FSLAX46Y46*%
G04 Gerber Fmt 4.6, Leading zero omitted, Abs format (unit mm)*
G04 Created by KiCad (PCBNEW (6.0.11-0)) date 2023-03-06 23:41:58*
%MOMM*%
%LPD*%
G01*
G04 APERTURE LIST*
G04 Aperture macros list*
%AMRoundRect*
0 Rectangle with rounded corners*
0 $1 Rounding radius*
0 $2 $3 $4 $5 $6 $7 $8 $9 X,Y pos of 4 corners*
0 Add a 4 corners polygon primitive as box body*
4,1,4,$2,$3,$4,$5,$6,$7,$8,$9,$2,$3,0*
0 Add four circle primitives for the rounded corners*
1,1,$1+$1,$2,$3*
1,1,$1+$1,$4,$5*
1,1,$1+$1,$6,$7*
1,1,$1+$1,$8,$9*
0 Add four rect primitives between the rounded corners*
20,1,$1+$1,$2,$3,$4,$5,0*
20,1,$1+$1,$4,$5,$6,$7,0*
20,1,$1+$1,$6,$7,$8,$9,0*
20,1,$1+$1,$8,$9,$2,$3,0*%
%AMRotRect*
0 Rectangle, with rotation*
0 The origin of the aperture is its center*
0 $1 length*
0 $2 width*
0 $3 Rotation angle, in degrees counterclockwise*
0 Add horizontal line*
21,1,$1,$2,0,0,$3*%
G04 Aperture macros list end*
%ADD10R,1.000000X1.100000*%
%ADD11R,0.660400X2.032000*%
%ADD12R,0.600000X2.200000*%
%ADD13R,1.100000X1.000000*%
%ADD14R,1.400000X1.400000*%
%ADD15R,1.400000X2.200000*%
%ADD16R,0.850000X0.700000*%
%ADD17R,1.400000X2.600000*%
%ADD18R,1.350000X0.800000*%
%ADD19R,2.006600X1.498600*%
%ADD20R,2.006600X3.810000*%
%ADD21RotRect,1.100000X1.000000X135.000000*%
%ADD22R,1.000000X1.400000*%
%ADD23R,1.000000X0.350000*%
%ADD24R,1.300000X1.500000*%
%ADD25R,2.600000X1.400000*%
%ADD26R,0.300000X1.200000*%
%ADD27R,1.200000X0.300000*%
%ADD28RoundRect,0.218750X-0.218750X-0.256250X0.218750X-0.256250X0.218750X0.256250X-0.218750X0.256250X0*%
%ADD29RoundRect,0.225000X0.000000X0.318198X-0.318198X0.000000X0.000000X-0.318198X0.318198X0.000000X0*%
%ADD30RoundRect,0.062500X0.194454X0.282843X-0.282843X-0.194454X-0.194454X-0.282843X0.282843X0.194454X0*%
%ADD31RoundRect,0.062500X-0.194454X0.282843X-0.282843X0.194454X0.194454X-0.282843X0.282843X-0.194454X0*%
%ADD32R,2.200000X1.400000*%
%ADD33RoundRect,0.218750X0.218750X0.256250X-0.218750X0.256250X-0.218750X-0.256250X0.218750X-0.256250X0*%
%ADD34R,1.500000X1.300000*%
%ADD35R,2.200000X0.600000*%
%ADD36R,5.334000X1.930400*%
%ADD37R,1.000000X0.700000*%
G04 APERTURE END LIST*
D10*
%TO.C,C33*%
X158978600Y-98438600D03*
X158978600Y-100138600D03*
%TD*%
D11*
%TO.C,IC7*%
X120561100Y-93154500D03*
X121831100Y-93154500D03*
X123101100Y-93154500D03*
X124371100Y-93154500D03*
X125641100Y-93154500D03*
X126911100Y-93154500D03*
X128181100Y-93154500D03*
X128181100Y-87007700D03*
X126911100Y-87007700D03*
X125641100Y-87007700D03*
X124371100Y-87007700D03*
X123101100Y-87007700D03*
X121831100Y-87007700D03*
X120561100Y-87007700D03*
%TD*%
D12*
%TO.C,IC14*%
X134848600Y-118081100D03*
X136118600Y-118081100D03*
X137388600Y-118081100D03*
X138658600Y-118081100D03*
X138658600Y-112881100D03*
X137388600Y-112881100D03*
X136118600Y-112881100D03*
X134848600Y-112881100D03*
%TD*%
D13*
%TO.C,C4*%
X73786100Y-70078600D03*
X72086100Y-70078600D03*
%TD*%
%TO.C,C34*%
X169876200Y-100685600D03*
X171576200Y-100685600D03*
%TD*%
%TO.C,C41*%
X110298600Y-110083600D03*
X108598600Y-110083600D03*
%TD*%
%TO.C,C20*%
X128601100Y-84683600D03*
X130301100Y-84683600D03*
%TD*%
%TO.C,C50*%
X119076100Y-120561100D03*
X120776100Y-120561100D03*
%TD*%
%TO.C,C43*%
X137603600Y-110718600D03*
X135903600Y-110718600D03*
%TD*%
%TO.C,R56*%
X115481100Y-109981100D03*
X115481100Y-108281100D03*
%TD*%
D10*
%TO.C,R10*%
X85850000Y-79000000D03*
X84150000Y-79000000D03*
%TD*%
%TO.C,R11*%
X91771100Y-80238600D03*
X93471100Y-80238600D03*
%TD*%
%TO.C,C54*%
X90398600Y-130936100D03*
X90398600Y-129236100D03*
%TD*%
D13*
%TO.C,R28*%
X85636100Y-91453600D03*
X85636100Y-93153600D03*
%TD*%
D14*
%TO.C,D2*%
X104363600Y-54838600D03*
X100563600Y-54838600D03*
%TD*%
D10*
%TO.C,R46*%
X117488600Y-97383600D03*
X119188600Y-97383600D03*
%TD*%
%TO.C,C25*%
X84048600Y-93153600D03*
X84048600Y-91453600D03*
%TD*%
D15*
%TO.C,C56*%
X91668600Y-138963600D03*
X91668600Y-142163600D03*
%TD*%
D13*
%TO.C,R2*%
X111671100Y-60656100D03*
X111671100Y-62356100D03*
%TD*%
D10*
%TO.C,R51*%
X135903600Y-108813600D03*
X137603600Y-108813600D03*
%TD*%
D13*
%TO.C,R44*%
X193268600Y-95581100D03*
X193268600Y-97281100D03*
%TD*%
D10*
%TO.C,C24*%
X73888600Y-92836100D03*
X73888600Y-91136100D03*
%TD*%
D13*
%TO.C,R69*%
X139293600Y-120346100D03*
X139293600Y-122046100D03*
%TD*%
D16*
%TO.C,L1*%
X90133600Y-64046100D03*
X91733600Y-64046100D03*
%TD*%
D13*
%TO.C,C12*%
X169876100Y-74523600D03*
X171576100Y-74523600D03*
%TD*%
%TO.C,R60*%
X77063600Y-112408600D03*
X77063600Y-114108600D03*
%TD*%
%TO.C,R87*%
X91986100Y-145858600D03*
X91986100Y-144158600D03*
%TD*%
D17*
%TO.C,C9*%
X149771100Y-72156100D03*
X149771100Y-76256100D03*
%TD*%
D13*
%TO.C,C32*%
X125743600Y-96431100D03*
X127443600Y-96431100D03*
%TD*%
D10*
%TO.C,C7*%
X153581100Y-72244800D03*
X153581100Y-73944800D03*
%TD*%
D13*
%TO.C,C13*%
X202578600Y-81508600D03*
X204278600Y-81508600D03*
%TD*%
%TO.C,R88*%
X78651100Y-156018600D03*
X78651100Y-154318600D03*
%TD*%
%TO.C,R16*%
X100241100Y-82041100D03*
X100241100Y-80341100D03*
%TD*%
%TO.C,R53*%
X171361100Y-109663600D03*
X171361100Y-107963600D03*
%TD*%
%TO.C,R40*%
X120878600Y-95581100D03*
X120878600Y-97281100D03*
%TD*%
D18*
%TO.C,SW2*%
X228298200Y-93188500D03*
X224148200Y-93188500D03*
X228298200Y-95388500D03*
X224148200Y-95388500D03*
%TD*%
D13*
%TO.C,R27*%
X72301100Y-91136100D03*
X72301100Y-92836100D03*
%TD*%
D10*
%TO.C,R73*%
X120776100Y-122148600D03*
X119076100Y-122148600D03*
%TD*%
D13*
%TO.C,R70*%
X115798600Y-120663600D03*
X115798600Y-122363600D03*
%TD*%
%TO.C,R54*%
X111988600Y-109981100D03*
X111988600Y-108281100D03*
%TD*%
%TO.C,R52*%
X169773600Y-109663600D03*
X169773600Y-107963600D03*
%TD*%
%TO.C,C27*%
X102883600Y-92938600D03*
X104583600Y-92938600D03*
%TD*%
%TO.C,C15*%
X101931100Y-82143600D03*
X103631100Y-82143600D03*
%TD*%
%TO.C,R50*%
X221500000Y-94350000D03*
X221500000Y-92650000D03*
%TD*%
D10*
%TO.C,C45*%
X140246100Y-116536100D03*
X140246100Y-118236100D03*
%TD*%
D13*
%TO.C,R68*%
X137706100Y-120346100D03*
X137706100Y-122046100D03*
%TD*%
D19*
%TO.C,IC2*%
X75768200Y-76466700D03*
X75768200Y-74180700D03*
X75768200Y-71894700D03*
D20*
X69469000Y-74206100D03*
%TD*%
D15*
%TO.C,C52*%
X166000000Y-119900000D03*
X166000000Y-123100000D03*
%TD*%
D10*
%TO.C,R49*%
X120458600Y-108178600D03*
X118758600Y-108178600D03*
%TD*%
%TO.C,C17*%
X160566100Y-85216000D03*
X160566100Y-83516000D03*
%TD*%
D13*
%TO.C,R57*%
X117068600Y-109981100D03*
X117068600Y-108281100D03*
%TD*%
D18*
%TO.C,SW3*%
X228223200Y-97259600D03*
X224073200Y-97259600D03*
X228223200Y-99459600D03*
X224073200Y-99459600D03*
%TD*%
D13*
%TO.C,C21*%
X171082600Y-88493600D03*
X172782600Y-88493600D03*
%TD*%
D10*
%TO.C,C29*%
X97701100Y-93993600D03*
X97701100Y-95693600D03*
%TD*%
D13*
%TO.C,C42*%
X118758600Y-110083600D03*
X120458600Y-110083600D03*
%TD*%
%TO.C,R30*%
X94208600Y-93041100D03*
X94208600Y-94741100D03*
%TD*%
%TO.C,R38*%
X84048600Y-94628600D03*
X84048600Y-96328600D03*
%TD*%
D10*
%TO.C,C5*%
X93573600Y-63943600D03*
X93573600Y-62243600D03*
%TD*%
D21*
%TO.C,C39*%
X166601041Y-108101041D03*
X165398959Y-106898959D03*
%TD*%
D22*
%TO.C,Q2*%
X78653600Y-114676100D03*
X79603600Y-112476100D03*
X80553600Y-114676100D03*
%TD*%
D23*
%TO.C,IC3*%
X195206100Y-72256100D03*
X195206100Y-72906100D03*
X195206100Y-73556100D03*
X195206100Y-74206100D03*
X195206100Y-74856100D03*
X195206100Y-75506100D03*
X195206100Y-76156100D03*
X195206100Y-76806100D03*
X200856100Y-76806100D03*
X200856100Y-76156100D03*
X200856100Y-75506100D03*
X200856100Y-74856100D03*
X200856100Y-74206100D03*
X200856100Y-73556100D03*
X200856100Y-72906100D03*
X200856100Y-72256100D03*
%TD*%
%TO.C,IC5*%
X195206100Y-83051100D03*
X195206100Y-83701100D03*
X195206100Y-84351100D03*
X195206100Y-85001100D03*
X195206100Y-85651100D03*
X195206100Y-86301100D03*
X195206100Y-86951100D03*
X195206100Y-87601100D03*
X200856100Y-87601100D03*
X200856100Y-86951100D03*
X200856100Y-86301100D03*
X200856100Y-85651100D03*
X200856100Y-85001100D03*
X200856100Y-84351100D03*
X200856100Y-83701100D03*
X200856100Y-83051100D03*
%TD*%
D10*
%TO.C,R17*%
X118441100Y-82778600D03*
X120141100Y-82778600D03*
%TD*%
D13*
%TO.C,R41*%
X122466100Y-95581100D03*
X122466100Y-97281100D03*
%TD*%
D11*
%TO.C,IC6*%
X93891100Y-90614500D03*
X95161100Y-90614500D03*
X96431100Y-90614500D03*
X97701100Y-90614500D03*
X98971100Y-90614500D03*
X100241100Y-90614500D03*
X101511100Y-90614500D03*
X101511100Y-84467700D03*
X100241100Y-84467700D03*
X98971100Y-84467700D03*
X97701100Y-84467700D03*
X96431100Y-84467700D03*
X95161100Y-84467700D03*
X93891100Y-84467700D03*
%TD*%
D13*
%TO.C,R13*%
X95161100Y-82041100D03*
X95161100Y-80341100D03*
%TD*%
%TO.C,C30*%
X119188600Y-95478600D03*
X117488600Y-95478600D03*
%TD*%
D10*
%TO.C,C8*%
X83731100Y-72403600D03*
X83731100Y-74103600D03*
%TD*%
%TO.C,C57*%
X90398600Y-144158600D03*
X90398600Y-145858600D03*
%TD*%
%TO.C,C28*%
X129768600Y-93788600D03*
X129768600Y-92088600D03*
%TD*%
D13*
%TO.C,R43*%
X131356100Y-95581100D03*
X131356100Y-97281100D03*
%TD*%
%TO.C,R67*%
X78651100Y-118553600D03*
X78651100Y-116853600D03*
%TD*%
%TO.C,R29*%
X131356100Y-92088600D03*
X131356100Y-93788600D03*
%TD*%
D24*
%TO.C,C35*%
X168188600Y-102463600D03*
X170088600Y-102463600D03*
%TD*%
D25*
%TO.C,C1*%
X114673600Y-57061100D03*
X110573600Y-57061100D03*
%TD*%
D13*
%TO.C,R32*%
X99606100Y-93041100D03*
X99606100Y-94741100D03*
%TD*%
D15*
%TO.C,C55*%
X91668600Y-136131100D03*
X91668600Y-132931100D03*
%TD*%
D26*
%TO.C,IC10*%
X168761100Y-87637200D03*
X168261100Y-87637200D03*
X167761100Y-87637200D03*
X167261100Y-87637200D03*
X166761100Y-87637200D03*
X166261100Y-87637200D03*
X165761100Y-87637200D03*
X165261100Y-87637200D03*
X164761100Y-87637200D03*
X164261100Y-87637200D03*
X163761100Y-87637200D03*
X163261100Y-87637200D03*
X162761100Y-87637200D03*
X162261100Y-87637200D03*
X161761100Y-87637200D03*
X161261100Y-87637200D03*
D27*
X159100100Y-89823600D03*
X159100100Y-90323600D03*
X159100100Y-90823600D03*
X159100100Y-91323600D03*
X159100100Y-91823600D03*
X159100100Y-92323600D03*
X159100100Y-92823600D03*
X159100100Y-93323600D03*
X159100100Y-93823600D03*
X159100100Y-94323600D03*
X159100100Y-94823600D03*
X159100100Y-95323600D03*
X159100100Y-95823600D03*
X159100100Y-96323600D03*
X159100100Y-96823600D03*
X159100100Y-97323600D03*
D26*
X161261100Y-99459200D03*
X161761100Y-99459200D03*
X162261100Y-99459200D03*
X162761100Y-99459200D03*
X163261100Y-99459200D03*
X163761100Y-99459200D03*
X164261100Y-99459200D03*
X164761100Y-99459200D03*
X165261100Y-99459200D03*
X165761100Y-99459200D03*
X166261100Y-99459200D03*
X166761100Y-99459200D03*
X167261100Y-99459200D03*
X167761100Y-99459200D03*
X168261100Y-99459200D03*
X168761100Y-99459200D03*
D27*
X170947500Y-97323600D03*
X170947500Y-96823600D03*
X170947500Y-96323600D03*
X170947500Y-95823600D03*
X170947500Y-95323600D03*
X170947500Y-94823600D03*
X170947500Y-94323600D03*
X170947500Y-93823600D03*
X170947500Y-93323600D03*
X170947500Y-92823600D03*
X170947500Y-92323600D03*
X170947500Y-91823600D03*
X170947500Y-91323600D03*
X170947500Y-90823600D03*
X170947500Y-90323600D03*
X170947500Y-89823600D03*
%TD*%
D28*
%TO.C,LED3*%
X127107500Y-98272500D03*
X125532500Y-98272500D03*
%TD*%
D13*
%TO.C,C51*%
X112203600Y-120878600D03*
X110503600Y-120878600D03*
%TD*%
%TO.C,R42*%
X129768600Y-95581100D03*
X129768600Y-97281100D03*
%TD*%
D10*
%TO.C,R72*%
X134316100Y-121831100D03*
X136016100Y-121831100D03*
%TD*%
D13*
%TO.C,C11*%
X162686100Y-74523600D03*
X160986100Y-74523600D03*
%TD*%
D10*
%TO.C,R86*%
X88708600Y-144373600D03*
X87008600Y-144373600D03*
%TD*%
D29*
%TO.C,U1*%
X163000000Y-110916081D03*
X163791960Y-113291960D03*
X163791960Y-111708040D03*
X163000000Y-114083919D03*
X164583919Y-112500000D03*
X161416081Y-112500000D03*
X163000000Y-112500000D03*
X162208040Y-111708040D03*
X162208040Y-113291960D03*
D30*
X165793072Y-111828249D03*
X165439518Y-111474695D03*
X165085965Y-111121142D03*
X164732412Y-110767588D03*
X164378858Y-110414035D03*
X164025305Y-110060482D03*
X163671751Y-109706928D03*
D31*
X162328249Y-109706928D03*
X161974695Y-110060482D03*
X161621142Y-110414035D03*
X161267588Y-110767588D03*
X160914035Y-111121142D03*
X160560482Y-111474695D03*
X160206928Y-111828249D03*
D30*
X160206928Y-113171751D03*
X160560482Y-113525305D03*
X160914035Y-113878858D03*
X161267588Y-114232412D03*
X161621142Y-114585965D03*
X161974695Y-114939518D03*
X162328249Y-115293072D03*
D31*
X163671751Y-115293072D03*
X164025305Y-114939518D03*
X164378858Y-114585965D03*
X164732412Y-114232412D03*
X165085965Y-113878858D03*
X165439518Y-113525305D03*
X165793072Y-113171751D03*
%TD*%
D13*
%TO.C,C37*%
X202578600Y-104368600D03*
X204278600Y-104368600D03*
%TD*%
D10*
%TO.C,R12*%
X103631100Y-80238600D03*
X101931100Y-80238600D03*
%TD*%
D13*
%TO.C,R20*%
X123418600Y-84581100D03*
X123418600Y-82881100D03*
%TD*%
%TO.C,R33*%
X101193600Y-93041100D03*
X101193600Y-94741100D03*
%TD*%
%TO.C,R22*%
X126911100Y-84581100D03*
X126911100Y-82881100D03*
%TD*%
D21*
%TO.C,C36*%
X167601041Y-107101041D03*
X166398959Y-105898959D03*
%TD*%
D13*
%TO.C,R71*%
X117386100Y-120663600D03*
X117386100Y-122363600D03*
%TD*%
%TO.C,R21*%
X125323600Y-84581100D03*
X125323600Y-82881100D03*
%TD*%
%TO.C,R37*%
X73888600Y-94311100D03*
X73888600Y-96011100D03*
%TD*%
D10*
%TO.C,C44*%
X133261100Y-112726100D03*
X133261100Y-114426100D03*
%TD*%
D13*
%TO.C,R55*%
X113576100Y-109981100D03*
X113576100Y-108281100D03*
%TD*%
%TO.C,C26*%
X92518600Y-92938600D03*
X90818600Y-92938600D03*
%TD*%
%TO.C,R58*%
X139293600Y-110616100D03*
X139293600Y-108916100D03*
%TD*%
%TO.C,C49*%
X136016100Y-120243600D03*
X134316100Y-120243600D03*
%TD*%
%TO.C,R36*%
X72301100Y-94311100D03*
X72301100Y-96011100D03*
%TD*%
%TO.C,R31*%
X95796100Y-93041100D03*
X95796100Y-94741100D03*
%TD*%
%TO.C,R15*%
X98653600Y-82041100D03*
X98653600Y-80341100D03*
%TD*%
D10*
%TO.C,C2*%
X117386100Y-62673600D03*
X117386100Y-60973600D03*
%TD*%
D13*
%TO.C,R74*%
X91986100Y-129236100D03*
X91986100Y-130936100D03*
%TD*%
D10*
%TO.C,R18*%
X130301100Y-82778600D03*
X128601100Y-82778600D03*
%TD*%
%TO.C,C47*%
X162500000Y-118150000D03*
X162500000Y-119850000D03*
%TD*%
D32*
%TO.C,C53*%
X144703600Y-123736100D03*
X141503600Y-123736100D03*
%TD*%
D10*
%TO.C,R35*%
X104583600Y-94843600D03*
X102883600Y-94843600D03*
%TD*%
D23*
%TO.C,IC11*%
X195206100Y-104641100D03*
X195206100Y-105291100D03*
X195206100Y-105941100D03*
X195206100Y-106591100D03*
X195206100Y-107241100D03*
X195206100Y-107891100D03*
X195206100Y-108541100D03*
X195206100Y-109191100D03*
X200856100Y-109191100D03*
X200856100Y-108541100D03*
X200856100Y-107891100D03*
X200856100Y-107241100D03*
X200856100Y-106591100D03*
X200856100Y-105941100D03*
X200856100Y-105291100D03*
X200856100Y-104641100D03*
%TD*%
D13*
%TO.C,R59*%
X140881100Y-110616100D03*
X140881100Y-108916100D03*
%TD*%
D17*
%TO.C,C3*%
X70078600Y-62948600D03*
X70078600Y-67048600D03*
%TD*%
D33*
%TO.C,LED4*%
X196912500Y-98300000D03*
X198487500Y-98300000D03*
%TD*%
D13*
%TO.C,C16*%
X202578600Y-82778600D03*
X204278600Y-82778600D03*
%TD*%
%TO.C,C23*%
X82563600Y-89763600D03*
X84263600Y-89763600D03*
%TD*%
D11*
%TO.C,IC13*%
X110718600Y-118554500D03*
X111988600Y-118554500D03*
X113258600Y-118554500D03*
X114528600Y-118554500D03*
X115798600Y-118554500D03*
X117068600Y-118554500D03*
X118338600Y-118554500D03*
X118338600Y-112407700D03*
X117068600Y-112407700D03*
X115798600Y-112407700D03*
X114528600Y-112407700D03*
X113258600Y-112407700D03*
X111988600Y-112407700D03*
X110718600Y-112407700D03*
%TD*%
D13*
%TO.C,R19*%
X121831100Y-84581100D03*
X121831100Y-82881100D03*
%TD*%
%TO.C,C48*%
X158763600Y-118973600D03*
X160463600Y-118973600D03*
%TD*%
%TO.C,R45*%
X221473200Y-97900000D03*
X221473200Y-99600000D03*
%TD*%
%TO.C,R89*%
X90716100Y-156018600D03*
X90716100Y-154318600D03*
%TD*%
%TO.C,C14*%
X93471100Y-82143600D03*
X91771100Y-82143600D03*
%TD*%
D34*
%TO.C,C31*%
X157073600Y-96433600D03*
X157073600Y-98333600D03*
%TD*%
D35*
%TO.C,IC9*%
X76368600Y-91668600D03*
X76368600Y-92938600D03*
X76368600Y-94208600D03*
X76368600Y-95478600D03*
X81568600Y-95478600D03*
X81568600Y-94208600D03*
X81568600Y-92938600D03*
X81568600Y-91668600D03*
%TD*%
D10*
%TO.C,R75*%
X88708600Y-130403600D03*
X87008600Y-130403600D03*
%TD*%
D19*
%TO.C,IC4*%
X139001500Y-72263000D03*
X139001500Y-74549000D03*
X139001500Y-76835000D03*
D20*
X145300700Y-74523600D03*
%TD*%
D10*
%TO.C,R48*%
X108598600Y-108178600D03*
X110298600Y-108178600D03*
%TD*%
%TO.C,R34*%
X90818600Y-94843600D03*
X92518600Y-94843600D03*
%TD*%
D13*
%TO.C,C19*%
X120141100Y-84683600D03*
X118441100Y-84683600D03*
%TD*%
D10*
%TO.C,C22*%
X156756200Y-90296100D03*
X156756200Y-88596100D03*
%TD*%
D13*
%TO.C,R39*%
X85636100Y-94628600D03*
X85636100Y-96328600D03*
%TD*%
D23*
%TO.C,IC8*%
X195206100Y-89718600D03*
X195206100Y-90368600D03*
X195206100Y-91018600D03*
X195206100Y-91668600D03*
X195206100Y-92318600D03*
X195206100Y-92968600D03*
X195206100Y-93618600D03*
X195206100Y-94268600D03*
X200856100Y-94268600D03*
X200856100Y-93618600D03*
X200856100Y-92968600D03*
X200856100Y-92318600D03*
X200856100Y-91668600D03*
X200856100Y-91018600D03*
X200856100Y-90368600D03*
X200856100Y-89718600D03*
%TD*%
D13*
%TO.C,R1*%
X110083600Y-60656100D03*
X110083600Y-62356100D03*
%TD*%
D36*
%TO.C,Q1*%
X161455100Y-78016100D03*
X171107100Y-78016100D03*
%TD*%
D13*
%TO.C,C46*%
X158763600Y-117386100D03*
X160463600Y-117386100D03*
%TD*%
D10*
%TO.C,R47*%
X125450000Y-101900000D03*
X127150000Y-101900000D03*
%TD*%
D14*
%TO.C,D1*%
X80551100Y-54838600D03*
X76751100Y-54838600D03*
%TD*%
D13*
%TO.C,R14*%
X96748600Y-82041100D03*
X96748600Y-80341100D03*
%TD*%
D17*
%TO.C,C10*%
X80238600Y-72473600D03*
X80238600Y-76573600D03*
%TD*%
D32*
%TO.C,C40*%
X149783600Y-107543600D03*
X146583600Y-107543600D03*
%TD*%
D13*
%TO.C,C6*%
X202578600Y-72301100D03*
X204278600Y-72301100D03*
%TD*%
D16*
%TO.C,L2*%
X72036100Y-68491100D03*
X73636100Y-68491100D03*
%TD*%
D10*
%TO.C,C18*%
X162153600Y-85216100D03*
X162153600Y-83516100D03*
%TD*%
D37*
%TO.C,IC1*%
X113428600Y-60556100D03*
X113428600Y-62456100D03*
X115628600Y-61506100D03*
%TD*%
M02*
