M48
; DRILL file {KiCad (6.0.11-0)} date 2023 March 07, Tuesday 13:47:18
; FORMAT={-:-/ absolute / inch / decimal}
; #@! TF.CreationDate,2023-03-07T13:47:18+01:00
; #@! TF.GenerationSoftware,Kicad,Pcbnew,(6.0.11-0)
; #@! TF.FileFunction,Plated,1,2,PTH
FMAT,2
INCH
; #@! TA.AperFunction,Plated,PTH,ViaDrill
T1C0.0236
; #@! TA.AperFunction,Plated,PTH,ComponentDrill
T2C0.0240
; #@! TA.AperFunction,Plated,PTH,ComponentDrill
T3C0.0320
; #@! TA.AperFunction,Plated,PTH,ComponentDrill
T4C0.0354
; #@! TA.AperFunction,Plated,PTH,ComponentDrill
T5C0.0394
; #@! TA.AperFunction,Plated,PTH,ComponentDrill
T6C0.0400
; #@! TA.AperFunction,Plated,PTH,ComponentDrill
T7C0.0591
; #@! TA.AperFunction,Plated,PTH,ComponentDrill
T8C0.0866
%
G90
G05
T1
X2.659Y-2.3215
X2.659Y-3.1215
X2.659Y-3.5215
X2.659Y-3.9215
X2.659Y-4.3215
X2.659Y-4.7215
X2.659Y-5.1215
X2.709Y-2.7215
X3.0965Y-3.4215
X3.109Y-3.9215
X3.109Y-4.3215
X3.109Y-5.1215
X3.109Y-5.7215
X3.134Y-3.734
X3.209Y-3.809
X3.2465Y-4.359
X3.2965Y-2.984
X3.309Y-3.3965
X3.4215Y-3.4465
X3.4215Y-3.8715
X3.434Y-2.5215
X3.434Y-4.359
X3.434Y-4.884
X3.459Y-5.009
X3.459Y-5.5465
X3.4715Y-5.059
X3.534Y-2.434
X3.5965Y-3.4465
X3.6465Y-3.909
X3.659Y-6.0465
X3.659Y-6.1465
X3.6715Y-4.034
X3.684Y-3.0965
X3.684Y-3.9715
X3.684Y-5.8965
X3.684Y-5.9965
X3.684Y-6.0965
X3.709Y-2.7215
X3.709Y-5.084
X3.709Y-5.784
X3.7215Y-4.134
X3.7215Y-5.684
X3.734Y-4.034
X3.734Y-4.3215
X3.734Y-4.884
X3.734Y-5.5465
X3.7465Y-3.0965
X3.7965Y-3.409
X3.809Y-2.859
X3.8465Y-3.6465
X3.8465Y-3.8215
X3.884Y-2.7965
X3.884Y-3.109
X3.884Y-3.859
X3.8965Y-4.7215
X3.934Y-3.409
X4.0965Y-3.8715
X4.0965Y-4.0215
X4.0965Y-4.3215
X4.134Y-2.859
X4.134Y-5.134
X4.209Y-5.9215
X4.209Y-6.1715
X4.284Y-4.759
X4.3215Y-2.709
X4.3215Y-3.1715
X4.359Y-4.884
X4.3715Y-4.509
X4.409Y-4.1965
X4.409Y-5.234
X4.4215Y-2.859
X4.4215Y-3.1715
X4.459Y-4.884
X4.459Y-5.4965
X4.4715Y-4.059
X4.4715Y-4.1965
X4.4715Y-4.8215
X4.509Y-4.509
X4.559Y-4.1965
X4.559Y-5.1965
X4.559Y-5.2715
X4.5965Y-3.1465
X4.5965Y-4.509
X4.609Y-4.8715
X4.684Y-2.4715
X4.684Y-2.7965
X4.684Y-3.934
X4.6965Y-2.1215
X4.709Y-3.984
X4.7126Y-2.3386
X4.7215Y-6.1715
X4.734Y-3.1965
X4.784Y-2.8715
X4.7965Y-3.1965
X4.834Y-3.509
X4.8553Y-3.9449
X4.8623Y-4.059
X4.8715Y-2.884
X4.8965Y-3.7465
X4.8965Y-4.4715
X4.9215Y-2.8215
X4.934Y-3.209
X4.984Y-2.784
X4.984Y-3.509
X5.0715Y-2.3465
X5.0715Y-5.134
X5.0965Y-2.1215
X5.134Y-2.8465
X5.1715Y-4.484
X5.1965Y-4.259
X5.1965Y-4.434
X5.209Y-2.684
X5.209Y-3.484
X5.209Y-4.084
X5.2215Y-4.8465
X5.2215Y-4.9465
X5.234Y-3.7965
X5.234Y-6.1715
X5.2965Y-2.4965
X5.2965Y-2.809
X5.2965Y-4.859
X5.2965Y-4.959
X5.3465Y-3.484
X5.3715Y-4.9715
X5.384Y-2.7465
X5.3965Y-2.4215
X5.434Y-4.5215
X5.4465Y-4.984
X5.4965Y-2.1215
X5.4965Y-3.9215
X5.5215Y-4.5215
X5.5465Y-4.734
X5.5715Y-3.0465
X5.5715Y-3.6402
X5.5715Y-4.6465
X5.609Y-4.3465
X5.6215Y-2.7215
X5.6965Y-3.084
X5.6965Y-5.0715
X5.7465Y-6.1715
X5.7715Y-3.6402
X5.8215Y-2.9965
X5.8965Y-2.1215
X5.8965Y-4.1215
X5.9715Y-2.9965
X6.009Y-2.3465
X6.009Y-3.659
X6.009Y-5.134
X6.1028Y-3.4778
X6.184Y-3.934
X6.1965Y-2.8965
X6.2008Y-4.0354
X6.209Y-3.059
X6.2278Y-3.2903
X6.2465Y-5.5965
X6.2465Y-5.734
X6.25Y-4.5669
X6.2598Y-4.3406
X6.2715Y-2.709
X6.2715Y-2.984
X6.2715Y-3.3465
X6.2873Y-4.0354
X6.309Y-5.234
X6.3215Y-6.0465
X6.334Y-3.5715
X6.334Y-3.859
X6.3386Y-4.065
X6.3386Y-4.2421
X6.359Y-5.209
X6.384Y-5.7965
X6.384Y-5.8965
X6.384Y-6.1715
X6.3965Y-2.8465
X6.3965Y-3.759
X6.3965Y-5.2715
X6.4028Y-3.6028
X6.4075Y-3.8189
X6.4173Y-4.4291
X6.4272Y-4.2126
X6.434Y-5.5965
X6.434Y-5.734
X6.4715Y-4.1535
X6.4715Y-2.934
X6.4748Y-5.0053
X6.4764Y-4.0551
X6.4764Y-4.626
X6.484Y-3.634
X6.4903Y-3.5152
X6.509Y-2.7215
X6.509Y-3.184
X6.509Y-3.284
X6.509Y-3.3465
X6.5153Y-3.7278
X6.5354Y-4.6063
X6.5354Y-5.0053
X6.559Y-3.584
X6.5748Y-4.3307
X6.584Y-3.9715
X6.6153Y-3.6528
X6.6215Y-2.934
X6.624Y-4.4685
X6.634Y-3.284
X6.659Y-3.7715
X6.684Y-4.3898
X6.6965Y-3.909
X6.709Y-2.1215
X6.709Y-5.0715
X6.759Y-4.034
X6.7913Y-4.184
X6.809Y-3.5465
X6.809Y-3.709
X6.834Y-3.7715
X6.859Y-2.959
X6.859Y-3.4215
X6.8602Y-4.252
X6.909Y-4.3215
X6.9465Y-2.3465
X6.9465Y-3.8715
X6.9465Y-5.134
X6.9965Y-3.9465
X6.9965Y-4.084
X7.009Y-6.1715
X7.034Y-4.1215
X7.0465Y-3.9215
X7.109Y-2.1215
X7.134Y-3.5965
X7.1715Y-3.2465
X7.1772Y-2.2795
X7.2126Y-2.4606
X7.2965Y-3.2465
X7.309Y-2.9215
X7.309Y-4.3215
X7.359Y-4.1215
X7.409Y-3.834
X7.4715Y-2.9215
X7.484Y-3.0465
X7.484Y-3.4215
X7.484Y-3.609
X7.4965Y-3.7465
X7.509Y-2.1215
X7.509Y-2.5215
X7.509Y-3.3465
X7.509Y-4.9215
X7.5215Y-2.959
X7.534Y-6.1715
X7.5465Y-3.2965
X7.584Y-2.9715
X7.584Y-3.259
X7.6215Y-3.0215
X7.634Y-3.209
X7.634Y-3.434
X7.634Y-3.5465
X7.634Y-3.6965
X7.634Y-3.984
X7.634Y-4.259
X7.684Y-4.3465
X7.6965Y-3.2215
X7.734Y-2.8965
X7.734Y-3.3215
X7.734Y-3.584
X7.734Y-4.1715
X7.759Y-5.134
X7.7715Y-2.9715
X7.7715Y-3.3965
X7.7715Y-3.634
X7.7715Y-4.2465
X7.809Y-3.009
X7.809Y-3.434
X7.809Y-3.6715
X7.809Y-4.284
X7.8465Y-3.0465
X7.8465Y-3.4715
X7.8465Y-3.709
X7.8465Y-4.3215
X7.8661Y-4.0827
X7.909Y-2.1215
X7.909Y-3.0965
X7.9252Y-4.0748
X7.959Y-3.509
X7.9715Y-2.7715
X7.9715Y-3.1465
X8.0215Y-3.484
X8.034Y-3.934
X8.034Y-4.009
X8.0465Y-2.784
X8.0465Y-4.384
X8.0465Y-5.084
X8.0465Y-6.1715
X8.0715Y-3.134
X8.0715Y-3.9715
X8.0906Y-4.0551
X8.0965Y-4.109
X8.1965Y-3.2965
X8.309Y-2.1215
X8.309Y-2.7215
X8.309Y-3.1215
X8.3465Y-3.622
X8.3715Y-4.384
X8.3715Y-5.084
X8.4154Y-4.1929
X8.509Y-5.1215
X8.534Y-3.5715
X8.559Y-6.1715
X8.5925Y-3.9272
X8.6614Y-3.8583
X8.709Y-2.1215
X9.009Y-2.3715
X9.009Y-4.3215
X9.009Y-4.7215
X9.009Y-5.1215
X9.009Y-5.5215
X9.009Y-5.9215
T2
X7.159Y-3.9215
X7.159Y-3.9715
X7.159Y-4.0215
X7.159Y-4.0715
X7.159Y-4.1215
X7.209Y-3.9215
X7.209Y-3.9715
X7.209Y-4.0215
X7.209Y-4.0715
X7.209Y-4.1215
T3
X4.9215Y-3.937
X5.0215Y-3.937
X7.7335Y-3.9331
X7.8335Y-3.9331
T4
X2.9784Y-3.3215
X2.9981Y-3.2231
X2.9981Y-3.4199
X3.1949Y-3.2231
X3.1949Y-3.4199
X3.2146Y-3.3215
T5
X2.9981Y-2.7096
X3.0965Y-2.7096
X3.1949Y-2.7096
X3.8481Y-5.6228
X3.9356Y-2.7096
X3.9356Y-4.8471
X3.9465Y-5.6228
X4.034Y-2.7096
X4.034Y-4.8471
X4.0449Y-5.6228
X4.1324Y-2.7096
X4.1324Y-4.8471
X4.2231Y-3.7783
X4.3215Y-3.7783
X4.3606Y-5.6228
X4.4199Y-3.7783
X4.459Y-5.6228
X4.5574Y-5.6228
X4.8731Y-2.7096
X4.8731Y-4.8471
X4.8731Y-5.6228
X4.9715Y-2.7096
X4.9715Y-4.8471
X4.9715Y-5.6228
X5.0699Y-2.7096
X5.0699Y-4.8471
X5.0699Y-5.6228
X5.3856Y-5.6228
X5.484Y-5.6228
X5.5231Y-3.7783
X5.5824Y-5.6228
X5.6215Y-3.7783
X5.7199Y-3.7783
X5.8106Y-2.7096
X5.8106Y-4.8471
X5.8981Y-5.6228
X5.909Y-2.7096
X5.909Y-4.8471
X5.9965Y-5.6228
X6.0074Y-2.7096
X6.0074Y-4.8471
X6.0949Y-5.6228
X6.6606Y-5.6228
X6.7481Y-2.7096
X6.7481Y-4.8471
X6.759Y-5.6228
X6.8465Y-2.7096
X6.8465Y-4.8471
X6.8574Y-5.6228
X6.9449Y-2.7096
X6.9449Y-4.8471
X7.0356Y-3.7783
X7.134Y-3.7783
X7.1731Y-5.6228
X7.2324Y-3.7783
X7.2715Y-5.6228
X7.3699Y-5.6228
X7.6856Y-2.7096
X7.6856Y-4.8471
X7.6856Y-5.6228
X7.784Y-2.7096
X7.784Y-4.8471
X7.784Y-5.6228
X7.8824Y-2.7096
X7.8824Y-4.8471
X7.8824Y-5.6228
X8.1981Y-5.6228
X8.2965Y-5.6228
X8.3356Y-3.7783
X8.3949Y-5.6228
X8.434Y-3.7783
X8.5324Y-3.7783
X8.6231Y-2.7096
X8.6231Y-4.8471
X8.7106Y-5.6228
X8.7215Y-2.7096
X8.7215Y-4.8471
X8.809Y-5.6228
X8.8199Y-2.7096
X8.8199Y-4.8471
X8.9074Y-5.6228
T6
X2.859Y-3.909
X2.859Y-4.009
X2.859Y-4.309
X2.859Y-4.5215
X2.859Y-4.6215
X2.859Y-4.9215
X2.859Y-5.134
X2.859Y-5.234
X2.859Y-5.534
X2.859Y-5.7465
X2.859Y-5.8465
X2.859Y-6.1465
X3.334Y-3.909
X3.334Y-4.009
X3.334Y-4.309
X3.334Y-4.5215
X3.334Y-4.6215
X3.334Y-4.9215
X3.334Y-5.134
X3.334Y-5.234
X3.334Y-5.534
X3.334Y-5.7465
X3.334Y-5.8465
X3.334Y-6.1465
X3.384Y-2.184
X3.384Y-2.284
X3.484Y-2.184
X3.484Y-2.284
X3.584Y-2.184
X3.584Y-2.284
X3.684Y-2.184
X3.684Y-2.284
X3.784Y-2.184
X3.784Y-2.284
X3.9465Y-5.7465
X3.9465Y-5.8465
X3.9465Y-6.1465
X4.459Y-5.7465
X4.459Y-5.8465
X4.459Y-6.1465
X4.9715Y-5.7465
X4.9715Y-5.8465
X4.9715Y-6.1465
X5.484Y-5.7465
X5.484Y-5.8465
X5.484Y-6.1465
X5.9965Y-5.7465
X5.9965Y-5.8465
X5.9965Y-6.1465
X6.759Y-5.7465
X6.759Y-5.8465
X6.759Y-6.1465
X7.2715Y-5.7465
X7.2715Y-5.8465
X7.2715Y-6.1465
X7.784Y-5.7465
X7.784Y-5.8465
X7.784Y-6.1465
X8.2965Y-5.7465
X8.2965Y-5.8465
X8.2965Y-6.1465
X8.809Y-5.7465
X8.809Y-5.8465
X8.809Y-6.1465
X8.99Y-2.9289
X8.99Y-3.0289
X8.99Y-3.1289
X8.99Y-3.2289
X8.99Y-3.3289
X8.99Y-3.4289
T7
X2.9115Y-2.434
X3.2815Y-2.434
X3.849Y-2.434
X3.849Y-4.5715
X4.1365Y-3.5028
X4.219Y-2.434
X4.219Y-4.5715
X4.5065Y-3.5028
X4.7865Y-2.434
X4.7865Y-4.5715
X5.1565Y-2.434
X5.1565Y-4.5715
X5.4365Y-3.5027
X5.724Y-2.434
X5.724Y-4.5715
X5.8065Y-3.5027
X6.094Y-2.434
X6.094Y-4.5715
X6.6615Y-2.434
X6.6615Y-4.5715
X6.949Y-3.5027
X7.0315Y-2.434
X7.0315Y-4.5715
X7.319Y-3.5027
X7.599Y-2.434
X7.599Y-4.5715
X7.969Y-2.434
X7.969Y-4.5715
X8.249Y-3.5028
X8.5365Y-2.434
X8.5365Y-4.5715
X8.619Y-3.5028
X8.9065Y-2.434
X8.9065Y-4.5715
T8
X3.7733Y-5.359
X4.1197Y-5.359
X4.2858Y-5.359
X4.6322Y-5.359
X4.7983Y-5.359
X5.1447Y-5.359
X5.3108Y-5.359
X5.6572Y-5.359
X5.8233Y-5.359
X6.1697Y-5.359
X6.5858Y-5.359
X6.9322Y-5.359
X7.0983Y-5.359
X7.4447Y-5.359
X7.6108Y-5.359
X7.9572Y-5.359
X8.1233Y-5.359
X8.4697Y-5.359
X8.6358Y-5.359
X8.9822Y-5.359
T0
M30
