<?xml version="1.0" encoding="UTF-8" standalone="no"?>
<!-- Created with Inkscape (http://www.inkscape.org/) -->

<svg
   version="1.1"
   id="svg132"
   width="394.66666"
   height="548"
   viewBox="0 0 394.66666 548"
   sodipodi:docname="peaks.ai.svg"
   inkscape:version="1.2.2 (b0a84865, 2022-12-01)"
   xmlns:inkscape="http://www.inkscape.org/namespaces/inkscape"
   xmlns:sodipodi="http://sodipodi.sourceforge.net/DTD/sodipodi-0.dtd"
   xmlns="http://www.w3.org/2000/svg"
   xmlns:svg="http://www.w3.org/2000/svg">
  <defs
     id="defs136" />
  <sodipodi:namedview
     id="namedview134"
     pagecolor="#ffffff"
     bordercolor="#666666"
     borderopacity="1.0"
     inkscape:showpageshadow="2"
     inkscape:pageopacity="0.0"
     inkscape:pagecheckerboard="0"
     inkscape:deskcolor="#d1d1d1"
     showgrid="false"
     inkscape:zoom="2.5285194"
     inkscape:cx="125.36981"
     inkscape:cy="411.50564"
     inkscape:window-width="1679"
     inkscape:window-height="997"
     inkscape:window-x="0"
     inkscape:window-y="25"
     inkscape:window-maximized="0"
     inkscape:current-layer="g144" />
  <g
     id="g140"
     inkscape:groupmode="layer"
     inkscape:label="silkscreen"
     transform="matrix(1.3333333,0,0,-1.3333333,0,548)"
     style="display:inline">
    <path
       d="m 104.999,310.4556 c -0.863,0 -1.519,0.184 -2.078,0.751 l 0.719,0.719 c 0.359,-0.359 0.847,-0.479 1.375,-0.479 0.655,0 1.006,0.248 1.006,0.704 0,0.199 -0.056,0.366 -0.175,0.479 -0.113,0.103 -0.241,0.16 -0.503,0.2 l -0.688,0.096 c -0.488,0.071 -0.847,0.223 -1.102,0.471 -0.272,0.271 -0.409,0.64 -0.409,1.119 0,1.015 0.751,1.727 1.983,1.727 0.782,0 1.35,-0.193 1.838,-0.665 l -0.703,-0.694 c -0.361,0.344 -0.791,0.391 -1.167,0.391 -0.592,0 -0.879,-0.328 -0.879,-0.719 0,-0.144 0.047,-0.296 0.168,-0.407 0.111,-0.105 0.295,-0.193 0.527,-0.225 l 0.671,-0.096 c 0.52,-0.072 0.848,-0.215 1.087,-0.439 0.304,-0.287 0.44,-0.704 0.44,-1.207 0,-1.102 -0.92,-1.726 -2.11,-1.726"
       style="display:inline;fill:#1d1d1b;fill-opacity:1;fill-rule:nonzero;stroke:none"
       id="path152" />
    <path
       d="m 110.3076,315.2026 h -1.039 v -1.558 h 1.039 c 0.504,0 0.823,0.311 0.823,0.775 0,0.464 -0.319,0.783 -0.823,0.783 m 0.056,-2.558 h -1.095 v -2.141 h -1.111 v 5.691 h 2.206 c 1.174,0 1.878,-0.808 1.878,-1.775 0,-0.968 -0.704,-1.775 -1.878,-1.775"
       style="display:inline;fill:#1d1d1b;fill-opacity:1;fill-rule:nonzero;stroke:none"
       id="path156" />
    <path
       d="m 113.1797,310.5034 v 5.691 h 1.11 v -4.7 h 2.582 v -0.991 z"
       style="display:inline;fill:#1d1d1b;fill-opacity:1;fill-rule:nonzero;stroke:none"
       id="path160" />
    <path
       d="m 117.777,316.194 h 1.111 v -5.691 h -1.111 z"
       style="display:inline;fill:#1d1d1b;fill-opacity:1;fill-rule:nonzero;stroke:none"
       id="path162" />
    <path
       d="m 122.3896,315.2026 v -4.699 h -1.11 v 4.699 h -1.488 v 0.992 h 4.084 v -0.992 z"
       style="display:inline;fill:#1d1d1b;fill-opacity:1;fill-rule:nonzero;stroke:none"
       id="path166" />
    <path
       d="m 103.4326,274.5039 v 5.69 h 3.748 v -0.991 h -2.638 v -1.335 h 2.246 v -0.99 h -2.246 v -1.383 h 2.638 v -0.991 z"
       style="display:inline;fill:#1d1d1b;fill-opacity:1;fill-rule:nonzero;stroke:none"
       id="path170" />
    <path
       d="m 111.6338,274.5039 -2.253,3.492 v -3.492 h -1.111 v 5.69 h 0.991 l 2.253,-3.484 v 3.484 h 1.112 v -5.69 z"
       style="display:inline;fill:#1d1d1b;fill-opacity:1;fill-rule:nonzero;stroke:none"
       id="path174" />
    <path
       d="m 116.0244,274.5039 h -0.831 l -1.878,5.69 h 1.151 l 1.142,-3.708 1.144,3.708 h 1.158 z"
       style="display:inline;fill:#1d1d1b;fill-opacity:1;fill-rule:nonzero;stroke:none"
       id="path178" />
    <path
       d="m 103.4326,259.1963 v 5.691 h 1.11 v -4.7 h 2.582 v -0.991 z"
       style="display:inline;fill:#1d1d1b;fill-opacity:1;fill-rule:nonzero;stroke:none"
       id="path182" />
    <path
       d="m 109.1416,263.8955 v -1.399 h 2.245 v -0.991 h -2.245 v -2.309 h -1.111 v 5.691 h 3.748 v -0.992 z"
       style="display:inline;fill:#1d1d1b;fill-opacity:1;fill-rule:nonzero;stroke:none"
       id="path186" />
    <path
       d="m 115.209,263.6396 c -0.159,0.185 -0.407,0.304 -0.711,0.304 -0.305,0 -0.561,-0.119 -0.72,-0.304 -0.216,-0.239 -0.272,-0.504 -0.272,-1.598 0,-1.095 0.056,-1.358 0.272,-1.599 0.159,-0.183 0.415,-0.303 0.72,-0.303 0.304,0 0.552,0.12 0.711,0.303 0.216,0.241 0.279,0.504 0.279,1.599 0,1.094 -0.063,1.359 -0.279,1.598 m 0.823,-3.867 c -0.4,-0.4 -0.887,-0.624 -1.534,-0.624 -0.648,0 -1.143,0.224 -1.542,0.624 -0.576,0.575 -0.561,1.287 -0.561,2.269 0,0.983 -0.015,1.694 0.561,2.269 0.399,0.4 0.894,0.625 1.542,0.625 0.647,0 1.134,-0.225 1.534,-0.625 0.576,-0.575 0.568,-1.286 0.568,-2.269 0,-0.982 0.008,-1.694 -0.568,-2.269"
       style="display:inline;fill:#1d1d1b;fill-opacity:1;fill-rule:nonzero;stroke:none"
       id="path190" />
    <path
       d="m 105.6055,248.5879 v -4.699 h -1.11 v 4.699 h -1.487 v 0.992 h 4.084 v -0.992 z"
       style="display:inline;fill:#1d1d1b;fill-opacity:1;fill-rule:nonzero;stroke:none"
       id="path194" />
    <path
       d="m 109.4287,247.9009 -0.72,-2.069 h 1.414 z m 1.326,-4.012 -0.336,1.008 h -2.021 l -0.344,-1.008 h -1.159 l 2.07,5.691 h 0.871 l 2.077,-5.691 z"
       style="display:inline;fill:#1d1d1b;fill-opacity:1;fill-rule:nonzero;stroke:none"
       id="path198" />
    <path
       d="m 114.7695,248.5879 h -1.039 v -1.558 h 1.039 c 0.504,0 0.823,0.312 0.823,0.775 0,0.464 -0.319,0.783 -0.823,0.783 m 0.057,-2.557 h -1.096 v -2.142 h -1.11 v 5.691 h 2.206 c 1.174,0 1.878,-0.807 1.878,-1.775 0,-0.967 -0.704,-1.774 -1.878,-1.774"
       style="display:inline;fill:#1d1d1b;fill-opacity:1;fill-rule:nonzero;stroke:none"
       id="path202" />
    <path
       d="m 106.2129,232.9297 c -0.191,0.231 -0.447,0.352 -0.83,0.352 h -0.84 v -3.709 h 0.84 c 0.383,0 0.639,0.12 0.83,0.353 0.208,0.255 0.24,0.663 0.24,1.525 0,0.864 -0.032,1.223 -0.24,1.479 m 0.775,-3.804 c -0.375,-0.376 -0.911,-0.543 -1.501,-0.543 h -2.054 v 5.69 h 2.054 c 0.59,0 1.126,-0.168 1.501,-0.544 0.64,-0.639 0.576,-1.423 0.576,-2.278 0,-0.854 0.064,-1.686 -0.576,-2.325"
       style="display:inline;fill:#1d1d1b;fill-opacity:1;fill-rule:nonzero;stroke:none"
       id="path206" />
    <path
       d="m 110.8594,233.2812 h -1.047 v -1.502 h 1.047 c 0.488,0 0.807,0.311 0.807,0.752 0,0.438 -0.319,0.75 -0.807,0.75 m 0.862,-4.699 -1.11,2.269 h -0.799 v -2.269 h -1.11 v 5.691 h 2.229 c 1.158,0 1.846,-0.792 1.846,-1.742 0,-0.8 -0.487,-1.296 -1.039,-1.495 l 1.27,-2.454 z"
       style="display:inline;fill:#1d1d1b;fill-opacity:1;fill-rule:nonzero;stroke:none"
       id="path210" />
    <path
       d="m 115.9365,228.5347 c -1.167,0 -2.094,0.79 -2.094,1.998 v 3.74 h 1.112 v -3.7 c 0,-0.656 0.383,-1.047 0.982,-1.047 0.6,0 0.992,0.391 0.992,1.047 v 3.7 h 1.103 v -3.74 c 0,-1.208 -0.927,-1.998 -2.095,-1.998"
       style="display:inline;fill:#1d1d1b;fill-opacity:1;fill-rule:nonzero;stroke:none"
       id="path214" />
    <path
       d="m 123.3154,228.5825 v 3.316 l -1.087,-2.158 h -0.751 l -1.095,2.158 v -3.316 h -1.11 v 5.69 h 1.094 l 1.487,-3.077 1.478,3.077 h 1.095 v -5.69 z"
       style="display:inline;fill:#1d1d1b;fill-opacity:1;fill-rule:nonzero;stroke:none"
       id="path218" />
    <path
       d="m 91.234397,175.335 v -4.698 h -1.111 v 4.698 h -1.488 v 0.992 h 4.084 v -0.992 z"
       style="display:inline;fill:#1d1d1b;fill-opacity:1;fill-rule:nonzero;stroke:none"
       id="path224" />
    <path
       d="m 95.782202,175.335 h -1.046 v -1.502 h 1.046 c 0.488,0 0.809,0.311 0.809,0.751 0,0.439 -0.321,0.751 -0.809,0.751 m 0.863,-4.698 -1.11,2.269 h -0.799 v -2.269 h -1.11 v 5.69 h 2.228 c 1.16,0 1.847,-0.792 1.847,-1.743 0,-0.799 -0.487,-1.295 -1.038,-1.494 l 1.27,-2.453 z"
       style="display:inline;fill:#1d1d1b;fill-opacity:1;fill-rule:nonzero;stroke:none"
       id="path228" />
    <path
       d="m 98.855,176.327 h 1.11 v -5.69 h -1.11 z"
       style="display:inline;fill:#1d1d1b;fill-opacity:1;fill-rule:nonzero;stroke:none"
       id="path230" />
    <path
       d="m 104.8018,171.2354 c -0.439,-0.446 -0.969,-0.646 -1.607,-0.646 -0.607,0 -1.119,0.208 -1.535,0.623 -0.247,0.248 -0.399,0.535 -0.463,0.855 -0.063,0.319 -0.096,0.791 -0.096,1.414 0,0.624 0.033,1.095 0.096,1.415 0.064,0.327 0.216,0.607 0.463,0.855 0.416,0.416 0.928,0.623 1.535,0.623 1.295,0 1.99,-0.831 2.142,-1.822 h -1.119 c -0.137,0.551 -0.473,0.831 -1.023,0.831 -0.296,0 -0.535,-0.104 -0.71,-0.304 -0.209,-0.263 -0.274,-0.471 -0.274,-1.598 0,-1.119 0.049,-1.343 0.274,-1.606 0.166,-0.201 0.406,-0.296 0.71,-0.296 0.329,0 0.591,0.103 0.791,0.32 0.167,0.191 0.255,0.447 0.255,0.76 v 0.215 h -1.046 v 0.926 h 2.15 v -0.83 c 0,-0.832 -0.152,-1.319 -0.543,-1.735"
       style="display:inline;fill:#1d1d1b;fill-opacity:1;fill-rule:nonzero;stroke:none"
       id="path234" />
    <path
       d="m 107.7041,170.6367 v 4.57 l -1.159,-1.006 v 1.119 l 1.159,1.007 h 1.039 v -5.69 z"
       style="display:inline;fill:#1d1d1b;fill-opacity:1;fill-rule:nonzero;stroke:none"
       id="path238" />
    <path
       d="m 157.1875,349.5674 -0.045,0.034 -0.033,0.033 -0.209,0.035 h -0.176 -0.329 l -0.121,-0.035 -0.043,-0.069 v -0.64 l 0.033,-0.08 0.102,-0.046 h 0.338 0.19 0.248 l 0.045,0.023 v 0.056 z m 0,-5.121 v 3.727 h -0.495 c -0.197,0 -0.381,0.022 -0.549,0.066 -0.17,0.044 -0.326,0.12 -0.473,0.227 -0.148,0.107 -0.255,0.225 -0.326,0.353 -0.068,0.129 -0.103,0.264 -0.103,0.404 0,0.125 0.035,0.249 0.103,0.37 0.071,0.122 0.174,0.234 0.309,0.337 0.137,0.103 0.291,0.181 0.469,0.233 0.093,0.022 0.185,0.04 0.273,0.055 0.088,0.014 0.188,0.022 0.297,0.022 0.132,0 0.227,-0.004 0.286,-0.011 0.059,-0.007 0.16,-0.033 0.309,-0.078 0.146,-0.044 0.285,-0.112 0.418,-0.204 0.13,-0.092 0.234,-0.2 0.306,-0.325 0.074,-0.125 0.112,-0.258 0.112,-0.397 v -4.779 z"
       style="display:inline;fill:#1d1d1b;fill-opacity:1;fill-rule:nonzero;stroke:none"
       id="path242" />
    <path
       d="m 158.6611,284.0483 c -0.088,-0.11 -0.214,-0.21 -0.379,-0.298 -0.165,-0.088 -0.352,-0.158 -0.561,-0.209 -0.209,-0.052 -0.438,-0.077 -0.687,-0.077 l 1.106,-1.524 -0.689,-0.458 -1.692,2.223 0.56,0.528 0.868,-0.187 h 0.308 c 0.11,0.015 0.198,0.035 0.265,0.061 0.065,0.026 0.113,0.054 0.142,0.084 l 0.067,0.144 v 2.215 c -0.023,0.052 -0.041,0.085 -0.056,0.1 -0.036,0.037 -0.088,0.07 -0.153,0.1 l -0.056,0.011 -0.055,0.022 h -0.054 l -0.056,0.022 h -0.143 -0.142 -0.298 c -0.08,0 -0.151,-0.013 -0.214,-0.039 -0.061,-0.026 -0.111,-0.058 -0.147,-0.095 l -0.044,-0.136 v -1.038 h -0.836 v 1.029 c 0,0.118 0.038,0.228 0.115,0.331 0.077,0.103 0.188,0.201 0.335,0.293 0.147,0.092 0.288,0.155 0.424,0.189 0.136,0.033 0.25,0.057 0.345,0.071 0.095,0.015 0.199,0.022 0.308,0.022 0.213,0 0.411,-0.022 0.595,-0.066 0.182,-0.044 0.349,-0.11 0.5,-0.198 0.15,-0.089 0.262,-0.188 0.336,-0.298 0.036,-0.052 0.064,-0.107 0.087,-0.165 0.021,-0.059 0.033,-0.121 0.033,-0.187 v -2.062 c 0,-0.14 -0.045,-0.276 -0.132,-0.408"
       style="display:inline;fill:#1d1d1b;fill-opacity:1;fill-rule:nonzero;stroke:none"
       id="path246" />
    <path
       d="m 158.2158,222.0615 c -0.065,-0.102 -0.169,-0.202 -0.309,-0.297 -0.036,-0.022 -0.089,-0.051 -0.159,-0.088 -0.07,-0.036 -0.171,-0.081 -0.303,-0.132 -0.169,-0.044 -0.353,-0.066 -0.551,-0.066 l 0.95,-1.074 -0.672,-0.438 -1.792,1.965 0.527,0.55 0.452,-0.374 h 0.483 0.065 0.067 0.055 0.066 0.099 l 0.098,0.034 0.133,0.079 c 0.036,0.022 0.059,0.056 0.065,0.101 v 0.956 l -0.065,0.101 c -0.029,0.045 -0.088,0.083 -0.177,0.113 l -0.285,0.056 -0.274,0.023 h -0.616 v 0.527 h 0.616 0.306 c 0.111,0.015 0.201,0.035 0.27,0.061 0.07,0.025 0.123,0.056 0.16,0.093 0.036,0.037 0.059,0.081 0.065,0.132 v 0.99 l -0.054,0.055 -0.144,0.055 -0.506,0.066 h -0.296 l -0.219,-0.066 c -0.067,0 -0.118,-0.015 -0.155,-0.044 l -0.043,-0.077 v -0.803 h -0.826 v 0.697 c 0,0.119 0.035,0.229 0.105,0.333 0.07,0.103 0.18,0.201 0.33,0.293 0.15,0.092 0.296,0.155 0.434,0.188 0.14,0.033 0.257,0.057 0.353,0.072 0.095,0.015 0.197,0.022 0.307,0.022 0.213,0 0.411,-0.022 0.593,-0.066 0.184,-0.044 0.351,-0.111 0.501,-0.199 0.151,-0.088 0.262,-0.192 0.335,-0.309 0.073,-0.118 0.111,-0.232 0.111,-0.342 v -0.851 c 0,-0.111 -0.024,-0.214 -0.072,-0.31 -0.048,-0.095 -0.127,-0.188 -0.236,-0.276 0.103,-0.066 0.176,-0.144 0.22,-0.236 0.044,-0.092 0.073,-0.197 0.088,-0.314 v -0.847 c 0,-0.111 -0.034,-0.228 -0.1,-0.353"
       style="display:inline;fill:#1d1d1b;fill-opacity:1;fill-rule:nonzero;stroke:none"
       id="path250" />
    <path
       d="m 157.5449,159.8252 -0.045,0.112 c -0.021,0.052 -0.062,0.101 -0.122,0.146 l -0.077,0.066 -0.101,0.09 -0.078,0.056 -0.077,0.055 -0.045,0.034 -0.033,0.033 c -0.155,-0.089 -0.277,-0.19 -0.365,-0.301 -0.06,-0.082 -0.097,-0.183 -0.112,-0.301 v -0.858 c 0.03,-0.037 0.055,-0.061 0.076,-0.068 h 0.22 0.184 0.322 c 0.092,0 0.153,0.007 0.184,0.023 0.031,0.015 0.053,0.033 0.069,0.056 v 0.078 z m 0.99,1.548 c -0.029,-0.059 -0.085,-0.143 -0.165,-0.251 l -0.275,-0.232 -0.363,-0.209 c 0.22,-0.154 0.388,-0.315 0.506,-0.484 0.037,-0.052 0.076,-0.117 0.116,-0.198 0.04,-0.08 0.06,-0.172 0.06,-0.275 v -0.418 c 0,-0.146 -0.024,-0.281 -0.071,-0.406 -0.048,-0.125 -0.123,-0.238 -0.226,-0.341 -0.103,-0.102 -0.218,-0.179 -0.346,-0.231 -0.129,-0.051 -0.255,-0.076 -0.38,-0.076 h -0.868 c -0.124,0 -0.251,0.023 -0.379,0.071 -0.129,0.048 -0.241,0.119 -0.336,0.215 -0.051,0.058 -0.086,0.102 -0.105,0.132 -0.018,0.029 -0.056,0.095 -0.115,0.199 -0.044,0.125 -0.066,0.264 -0.066,0.417 v 0.419 c 0,0.089 0.009,0.165 0.028,0.231 0.018,0.067 0.057,0.144 0.115,0.232 l 0.209,0.243 c 0.08,0.088 0.18,0.176 0.297,0.264 -0.293,0.132 -0.512,0.279 -0.654,0.441 -0.144,0.16 -0.215,0.321 -0.215,0.483 v 2.447 h 0.869 v -2.343 l 0.033,-0.143 0.165,-0.165 0.253,-0.186 0.34,-0.197 0.583,0.361 0.165,0.143 0.067,0.121 v 2.409 h 0.824 v -2.431 c 0,-0.073 -0.022,-0.154 -0.066,-0.242"
       style="display:inline;fill:#1d1d1b;fill-opacity:1;fill-rule:nonzero;stroke:none"
       id="path254" />
    <path
       d="m 91.234397,92.8135 v -4.698 h -1.111 v 4.698 h -1.487 v 0.991 h 4.083 v -0.991 z"
       style="display:inline;fill:#1d1d1b;fill-opacity:1;fill-rule:nonzero;stroke:none"
       id="path258" />
    <path
       d="m 95.7832,92.8135 h -1.046 v -1.503 h 1.046 c 0.488,0 0.808,0.312 0.808,0.752 0,0.439 -0.32,0.751 -0.808,0.751 m 0.863,-4.698 -1.11,2.267 h -0.799 v -2.267 h -1.11 v 5.689 h 2.228 c 1.159,0 1.846,-0.792 1.846,-1.742 0,-0.799 -0.486,-1.295 -1.038,-1.495 l 1.27,-2.452 z"
       style="display:inline;fill:#1d1d1b;fill-opacity:1;fill-rule:nonzero;stroke:none"
       id="path262" />
    <path
       d="m 98.855,93.805 h 1.11 v -5.689 h -1.11 z"
       style="display:inline;fill:#1d1d1b;fill-opacity:1;fill-rule:nonzero;stroke:none"
       id="path264" />
    <path
       d="m 104.8018,88.713902 c -0.439,-0.447 -0.968,-0.647 -1.607,-0.647 -0.607,0 -1.119,0.209 -1.535,0.623 -0.247,0.248 -0.398,0.536 -0.463,0.855 -0.063,0.319 -0.095,0.791 -0.095,1.414 0,0.624 0.032,1.096 0.095,1.415 0.065,0.327 0.216,0.608 0.463,0.856 0.416,0.416 0.928,0.623 1.535,0.623 1.295,0 1.991,-0.832 2.142,-1.822 h -1.119 c -0.136,0.55 -0.472,0.83 -1.023,0.83 -0.295,0 -0.535,-0.104 -0.71,-0.303 -0.208,-0.263 -0.273,-0.472 -0.273,-1.599 0,-1.118 0.048,-1.343 0.273,-1.606 0.167,-0.2 0.407,-0.295 0.71,-0.295 0.329,0 0.591,0.103 0.791,0.319 0.168,0.192 0.256,0.448 0.256,0.76 v 0.215 h -1.047 v 0.927 h 2.151 v -0.832 c 0,-0.831 -0.152,-1.317 -0.544,-1.733"
       style="display:inline;fill:#1d1d1b;fill-opacity:1;fill-rule:nonzero;stroke:none"
       id="path268" />
    <path
       d="m 106.1943,88.1152 v 0.935 l 2.126,2.469 c 0.208,0.247 0.296,0.424 0.296,0.688 0,0.423 -0.248,0.71 -0.688,0.71 -0.343,0 -0.695,-0.176 -0.695,-0.727 h -1.039 c 0,1.039 0.76,1.662 1.734,1.662 1.007,0 1.726,-0.63 1.726,-1.653 0,-0.553 -0.215,-0.848 -0.606,-1.305 l -1.59,-1.844 h 2.196 v -0.935 z"
       style="display:inline;fill:#1d1d1b;fill-opacity:1;fill-rule:nonzero;stroke:none"
       id="path272" />
    <path
       d="m 133.4922,92.861297 c -0.305,0 -0.56,-0.119 -0.72,-0.304 -0.215,-0.239 -0.271,-0.503 -0.271,-1.597 0,-1.095 0.056,-1.359 0.271,-1.599 0.16,-0.184 0.415,-0.304 0.72,-0.304 0.303,0 0.551,0.12 0.711,0.304 0.216,0.24 0.279,0.504 0.279,1.599 0,1.094 -0.063,1.358 -0.279,1.597 -0.16,0.185 -0.408,0.304 -0.711,0.304"
       style="display:inline;fill:#000000;fill-opacity:1;fill-rule:nonzero;stroke:none"
       id="path276" />
    <path
       d="m 148.9961,88.1152 h -1.039 v 4.57 l -1.158,-1.006 v 1.119 l 1.158,1.008 h 1.039 z m -3.264,4.698 h -1.485 v -4.698 h -1.111 v 4.698 h -1.488 v 0.993 h 4.084 z m -4.901,-2.748 c 0,-1.208 -0.928,-1.998 -2.094,-1.998 -1.167,0 -2.094,0.79 -2.094,1.998 v 3.741 h 1.111 v -3.701 c 0,-0.656 0.384,-1.048 0.983,-1.048 0.599,0 0.99,0.392 0.99,1.048 v 3.701 h 1.104 z m -5.804,-1.375 c -0.4,-0.399 -0.888,-0.623 -1.535,-0.623 -0.647,0 -1.144,0.224 -1.543,0.623 -0.575,0.575 -0.56,1.287 -0.56,2.27 0,0.983 -0.015,1.693 0.56,2.269 0.399,0.4 0.896,0.624 1.543,0.624 0.647,0 1.135,-0.224 1.535,-0.624 0.574,-0.576 0.566,-1.286 0.566,-2.269 0,-0.983 0.008,-1.695 -0.566,-2.27 m 16.828,8.904 h -22.475 c -1.559,0 -2.833,-1.276 -2.833,-2.834 v -35.76 c 0,-1.559 1.274,-2.833 2.833,-2.833 h 22.475 c 1.559,0 2.834,1.274 2.834,2.833 v 35.76 c 0,1.558 -1.275,2.834 -2.834,2.834"
       style="display:inline;fill:#000000;fill-opacity:1;fill-rule:nonzero;stroke:none"
       id="path280" />
    <path
       d="m 165.8916,92.861297 c -0.304,0 -0.56,-0.119 -0.72,-0.304 -0.216,-0.239 -0.271,-0.503 -0.271,-1.597 0,-1.095 0.055,-1.359 0.271,-1.599 0.16,-0.184 0.416,-0.304 0.72,-0.304 0.304,0 0.552,0.12 0.711,0.304 0.215,0.24 0.279,0.504 0.279,1.599 0,1.094 -0.064,1.358 -0.279,1.597 -0.159,0.185 -0.407,0.304 -0.711,0.304"
       style="display:inline;fill:#000000;fill-opacity:1;fill-rule:nonzero;stroke:none"
       id="path284" />
    <path
       d="m 182.3066,89.049797 v -0.935 h -3.461 v 0.935 l 2.126,2.47 c 0.208,0.248 0.296,0.424 0.296,0.687 0,0.423 -0.248,0.711 -0.688,0.711 -0.342,0 -0.694,-0.176 -0.694,-0.726 h -1.04 c 0,1.038 0.76,1.662 1.734,1.662 1.008,0 1.727,-0.632 1.727,-1.655 0,-0.551 -0.216,-0.847 -0.607,-1.303 l -1.591,-1.846 z m -4.174,3.764 h -1.487 v -4.699 h -1.11 v 4.699 h -1.487 v 0.992 h 4.084 z m -4.902,-2.748 c 0,-1.208 -0.927,-1.998 -2.095,-1.998 -1.165,0 -2.093,0.79 -2.093,1.998 v 3.74 h 1.112 v -3.7 c 0,-0.657 0.381,-1.048 0.981,-1.048 0.6,0 0.992,0.391 0.992,1.048 v 3.7 h 1.103 z m -5.805,-1.375 c -0.399,-0.4 -0.887,-0.623 -1.534,-0.623 -0.647,0 -1.144,0.223 -1.543,0.623 -0.575,0.575 -0.559,1.287 -0.559,2.269 0,0.984 -0.016,1.694 0.559,2.27 0.399,0.399 0.896,0.624 1.543,0.624 0.647,0 1.135,-0.225 1.534,-0.624 0.575,-0.576 0.568,-1.286 0.568,-2.27 0,-0.982 0.007,-1.694 -0.568,-2.269 m 16.83,8.903 h -22.477 c -1.559,0 -2.834,-1.275 -2.834,-2.834 v -35.76 c 0,-1.558 1.275,-2.833 2.834,-2.833 h 22.477 c 1.559,0 2.833,1.275 2.833,2.833 v 35.76 c 0,1.559 -1.274,2.834 -2.833,2.834"
       style="display:inline;fill:#000000;fill-opacity:1;fill-rule:nonzero;stroke:none"
       id="path288" />
    <text
       xml:space="preserve"
       style="font-weight:500;font-size:16px;line-height:1.25;font-family:Futura;-inkscape-font-specification:'Futura, Medium';display:inline;stroke-width:0.75"
       x="117.75666"
       y="-374.5162"
       id="text532"
       transform="scale(1,-1)"><tspan
         sodipodi:role="line"
         id="tspan530"
         style="font-style:normal;font-variant:normal;font-weight:normal;font-stretch:normal;font-size:12px;font-family:'DIN 1451 Mittelschrift';-inkscape-font-specification:'DIN 1451 Mittelschrift, Normal';font-variant-ligatures:normal;font-variant-caps:normal;font-variant-numeric:normal;font-variant-east-asian:normal;stroke-width:0.75"
         x="117.75666"
         y="-374.5162">TRIG TO SIG</tspan></text>
    <path
       d="M 79.016,22.427 H 193.252 V 386.679 H 79.016 Z"
       style="display:inline;fill:none;fill-opacity:1;stroke:#000000;stroke-width:0.283;stroke-linecap:round;stroke-linejoin:round;stroke-miterlimit:10;stroke-dasharray:none;stroke-opacity:1"
       id="path1084"
       inkscape:label="board outline" />
  </g>
</svg>
